<?xml version="1.0" encoding="UTF-8" standalone="no"?>
<!DOCTYPE svg PUBLIC "-//W3C//DTD SVG 1.1//EN"
 "http://www.w3.org/Graphics/SVG/1.1/DTD/svg11.dtd">
<!-- Generated by graphviz version 2.26.3 (20100126.1600)
 -->
<!-- Title: inheritancebe3ab90ace Pages: 1 -->
<svg width="984pt" height="436pt"
 viewBox="0.00 0.00 984.00 436.00" xmlns="http://www.w3.org/2000/svg" xmlns:xlink="http://www.w3.org/1999/xlink">
<g id="graph1" class="graph" transform="scale(1 1) rotate(0) translate(4 432)">
<title>inheritancebe3ab90ace</title>
<polygon fill="white" stroke="white" points="-4,5 -4,-432 981,-432 981,5 -4,5"/>
<!-- topo.coordmapper.Scale2d -->
<g id="node1" class="node"><title>topo.coordmapper.Scale2d</title>
<polygon fill="none" stroke="black" stroke-width="0.5" points="942,-428.5 796,-428.5 796,-407.5 942,-407.5 942,-428.5"/>
<text text-anchor="middle" x="869" y="-415.5" font-family="Vera" font-size="10.00">topo.coordmapper.Scale2d</text>
</g>
<!-- topo.coordmapper.AffineTransform -->
<g id="node2" class="node"><title>topo.coordmapper.AffineTransform</title>
<polygon fill="none" stroke="black" stroke-width="0.5" points="705,-390.5 523,-390.5 523,-369.5 705,-369.5 705,-390.5"/>
<text text-anchor="middle" x="614" y="-377.5" font-family="Vera" font-size="10.00">topo.coordmapper.AffineTransform</text>
</g>
<!-- topo.coordmapper.AffineTransform&#45;&gt;topo.coordmapper.Scale2d -->
<g id="edge2" class="edge"><title>topo.coordmapper.AffineTransform&#45;&gt;topo.coordmapper.Scale2d</title>
<path fill="none" stroke="black" stroke-width="0.5" d="M681.332,-390.034C716.773,-395.315 760.262,-401.796 796.449,-407.189"/>
<polygon fill="black" stroke="black" points="796.53,-408.97 801.733,-407.976 797.046,-405.508 796.53,-408.97"/>
</g>
<!-- topo.coordmapper.Translate2d -->
<g id="node7" class="node"><title>topo.coordmapper.Translate2d</title>
<polygon fill="none" stroke="black" stroke-width="0.5" points="950,-390.5 788,-390.5 788,-369.5 950,-369.5 950,-390.5"/>
<text text-anchor="middle" x="869" y="-377.5" font-family="Vera" font-size="10.00">topo.coordmapper.Translate2d</text>
</g>
<!-- topo.coordmapper.AffineTransform&#45;&gt;topo.coordmapper.Translate2d -->
<g id="edge6" class="edge"><title>topo.coordmapper.AffineTransform&#45;&gt;topo.coordmapper.Translate2d</title>
<path fill="none" stroke="black" stroke-width="0.5" d="M705.341,-380C730.29,-380 757.253,-380 781.956,-380"/>
<polygon fill="black" stroke="black" points="782.192,-381.75 787.191,-380 782.191,-378.25 782.192,-381.75"/>
</g>
<!-- topo.coordmapper.Rotate2d -->
<g id="node28" class="node"><title>topo.coordmapper.Rotate2d</title>
<polygon fill="none" stroke="black" stroke-width="0.5" points="944,-352.5 794,-352.5 794,-331.5 944,-331.5 944,-352.5"/>
<text text-anchor="middle" x="869" y="-339.5" font-family="Vera" font-size="10.00">topo.coordmapper.Rotate2d</text>
</g>
<!-- topo.coordmapper.AffineTransform&#45;&gt;topo.coordmapper.Rotate2d -->
<g id="edge28" class="edge"><title>topo.coordmapper.AffineTransform&#45;&gt;topo.coordmapper.Rotate2d</title>
<path fill="none" stroke="black" stroke-width="0.5" d="M681.332,-369.966C716.773,-364.685 760.262,-358.204 796.449,-352.811"/>
<polygon fill="black" stroke="black" points="797.046,-354.492 801.733,-352.024 796.53,-351.03 797.046,-354.492"/>
</g>
<!-- topo.coordmapper.Pipeline -->
<g id="node4" class="node"><title>topo.coordmapper.Pipeline</title>
<polygon fill="none" stroke="black" stroke-width="0.5" points="686,-352.5 542,-352.5 542,-331.5 686,-331.5 686,-352.5"/>
<text text-anchor="middle" x="614" y="-339.5" font-family="Vera" font-size="10.00">topo.coordmapper.Pipeline</text>
</g>
<!-- topo.base.functionfamily.CoordinateMapperFn -->
<g id="node5" class="node"><title>topo.base.functionfamily.CoordinateMapperFn</title>
<polygon fill="none" stroke="black" stroke-width="0.5" points="466,-219.5 230,-219.5 230,-198.5 466,-198.5 466,-219.5"/>
<text text-anchor="middle" x="348" y="-206.5" font-family="Vera" font-size="10.00">topo.base.functionfamily.CoordinateMapperFn</text>
</g>
<!-- topo.base.functionfamily.CoordinateMapperFn&#45;&gt;topo.coordmapper.AffineTransform -->
<g id="edge20" class="edge"><title>topo.base.functionfamily.CoordinateMapperFn&#45;&gt;topo.coordmapper.AffineTransform</title>
<path fill="none" stroke="black" stroke-width="0.5" d="M354.877,-219.27C374.258,-247.296 432.458,-325.373 502,-361 507.485,-363.81 513.3,-366.217 519.283,-368.278"/>
<polygon fill="black" stroke="black" points="519.048,-370.042 524.344,-369.929 520.133,-366.715 519.048,-370.042"/>
</g>
<!-- topo.base.functionfamily.CoordinateMapperFn&#45;&gt;topo.coordmapper.Pipeline -->
<g id="edge4" class="edge"><title>topo.base.functionfamily.CoordinateMapperFn&#45;&gt;topo.coordmapper.Pipeline</title>
<path fill="none" stroke="black" stroke-width="0.5" d="M358.097,-219.236C381.227,-242.015 440.791,-296.931 502,-323 512.796,-327.598 524.624,-331.085 536.421,-333.73"/>
<polygon fill="black" stroke="black" points="536.216,-335.475 541.472,-334.812 536.95,-332.053 536.216,-335.475"/>
</g>
<!-- topo.coordmapper.Polar2Cartesian -->
<g id="node9" class="node"><title>topo.coordmapper.Polar2Cartesian</title>
<polygon fill="none" stroke="black" stroke-width="0.5" points="706,-314.5 522,-314.5 522,-293.5 706,-293.5 706,-314.5"/>
<text text-anchor="middle" x="614" y="-301.5" font-family="Vera" font-size="10.00">topo.coordmapper.Polar2Cartesian</text>
</g>
<!-- topo.base.functionfamily.CoordinateMapperFn&#45;&gt;topo.coordmapper.Polar2Cartesian -->
<g id="edge8" class="edge"><title>topo.base.functionfamily.CoordinateMapperFn&#45;&gt;topo.coordmapper.Polar2Cartesian</title>
<path fill="none" stroke="black" stroke-width="0.5" d="M364.412,-219.107C391.853,-235.535 449.243,-267.912 502,-285 511.594,-288.107 521.823,-290.732 532.052,-292.942"/>
<polygon fill="black" stroke="black" points="531.818,-294.68 537.07,-293.993 532.536,-291.255 531.818,-294.68"/>
</g>
<!-- topo.coordmapper.Grid -->
<g id="node13" class="node"><title>topo.coordmapper.Grid</title>
<polygon fill="none" stroke="black" stroke-width="0.5" points="678,-276.5 550,-276.5 550,-255.5 678,-255.5 678,-276.5"/>
<text text-anchor="middle" x="614" y="-263.5" font-family="Vera" font-size="10.00">topo.coordmapper.Grid</text>
</g>
<!-- topo.base.functionfamily.CoordinateMapperFn&#45;&gt;topo.coordmapper.Grid -->
<g id="edge12" class="edge"><title>topo.base.functionfamily.CoordinateMapperFn&#45;&gt;topo.coordmapper.Grid</title>
<path fill="none" stroke="black" stroke-width="0.5" d="M385.48,-219.071C416.555,-227.223 461.962,-238.676 502,-247 515.758,-249.86 530.533,-252.6 544.694,-255.065"/>
<polygon fill="black" stroke="black" points="544.656,-256.834 549.881,-255.961 545.251,-253.385 544.656,-256.834"/>
</g>
<!-- topo.coordmapper.NormalJitter -->
<g id="node15" class="node"><title>topo.coordmapper.NormalJitter</title>
<polygon fill="none" stroke="black" stroke-width="0.5" points="696,-238.5 532,-238.5 532,-217.5 696,-217.5 696,-238.5"/>
<text text-anchor="middle" x="614" y="-225.5" font-family="Vera" font-size="10.00">topo.coordmapper.NormalJitter</text>
</g>
<!-- topo.base.functionfamily.CoordinateMapperFn&#45;&gt;topo.coordmapper.NormalJitter -->
<g id="edge14" class="edge"><title>topo.base.functionfamily.CoordinateMapperFn&#45;&gt;topo.coordmapper.NormalJitter</title>
<path fill="none" stroke="black" stroke-width="0.5" d="M466.221,-217.444C486.26,-218.876 506.752,-220.339 525.847,-221.703"/>
<polygon fill="black" stroke="black" points="526.083,-223.475 531.195,-222.085 526.332,-219.983 526.083,-223.475"/>
</g>
<!-- topo.coordmapper.Cartesian2Polar -->
<g id="node17" class="node"><title>topo.coordmapper.Cartesian2Polar</title>
<polygon fill="none" stroke="black" stroke-width="0.5" points="706,-200.5 522,-200.5 522,-179.5 706,-179.5 706,-200.5"/>
<text text-anchor="middle" x="614" y="-187.5" font-family="Vera" font-size="10.00">topo.coordmapper.Cartesian2Polar</text>
</g>
<!-- topo.base.functionfamily.CoordinateMapperFn&#45;&gt;topo.coordmapper.Cartesian2Polar -->
<g id="edge16" class="edge"><title>topo.base.functionfamily.CoordinateMapperFn&#45;&gt;topo.coordmapper.Cartesian2Polar</title>
<path fill="none" stroke="black" stroke-width="0.5" d="M466.221,-200.556C483.07,-199.352 500.241,-198.126 516.632,-196.955"/>
<polygon fill="black" stroke="black" points="516.83,-198.695 521.692,-196.593 516.58,-195.204 516.83,-198.695"/>
</g>
<!-- topo.coordmapper.ConstantMapper -->
<g id="node19" class="node"><title>topo.coordmapper.ConstantMapper</title>
<polygon fill="none" stroke="black" stroke-width="0.5" points="708,-162.5 520,-162.5 520,-141.5 708,-141.5 708,-162.5"/>
<text text-anchor="middle" x="614" y="-149.5" font-family="Vera" font-size="10.00">topo.coordmapper.ConstantMapper</text>
</g>
<!-- topo.base.functionfamily.CoordinateMapperFn&#45;&gt;topo.coordmapper.ConstantMapper -->
<g id="edge18" class="edge"><title>topo.base.functionfamily.CoordinateMapperFn&#45;&gt;topo.coordmapper.ConstantMapper</title>
<path fill="none" stroke="black" stroke-width="0.5" d="M385.48,-198.929C416.555,-190.777 461.962,-179.324 502,-171 515.758,-168.14 530.533,-165.4 544.694,-162.935"/>
<polygon fill="black" stroke="black" points="545.251,-164.615 549.881,-162.039 544.656,-161.166 545.251,-164.615"/>
</g>
<!-- topo.coordmapper.SingleDimensionMapper -->
<g id="node22" class="node"><title>topo.coordmapper.SingleDimensionMapper</title>
<polygon fill="none" stroke="black" stroke-width="0.5" points="726,-124.5 502,-124.5 502,-103.5 726,-103.5 726,-124.5"/>
<text text-anchor="middle" x="614" y="-111.5" font-family="Vera" font-size="10.00">topo.coordmapper.SingleDimensionMapper</text>
</g>
<!-- topo.base.functionfamily.CoordinateMapperFn&#45;&gt;topo.coordmapper.SingleDimensionMapper -->
<g id="edge22" class="edge"><title>topo.base.functionfamily.CoordinateMapperFn&#45;&gt;topo.coordmapper.SingleDimensionMapper</title>
<path fill="none" stroke="black" stroke-width="0.5" d="M364.412,-198.893C391.853,-182.465 449.243,-150.088 502,-133 511.594,-129.893 521.823,-127.268 532.052,-125.058"/>
<polygon fill="black" stroke="black" points="532.536,-126.745 537.07,-124.007 531.818,-123.32 532.536,-126.745"/>
</g>
<!-- topo.coordmapper.Jitter -->
<g id="node24" class="node"><title>topo.coordmapper.Jitter</title>
<polygon fill="none" stroke="black" stroke-width="0.5" points="679,-86.5 549,-86.5 549,-65.5 679,-65.5 679,-86.5"/>
<text text-anchor="middle" x="614" y="-73.5" font-family="Vera" font-size="10.00">topo.coordmapper.Jitter</text>
</g>
<!-- topo.base.functionfamily.CoordinateMapperFn&#45;&gt;topo.coordmapper.Jitter -->
<g id="edge24" class="edge"><title>topo.base.functionfamily.CoordinateMapperFn&#45;&gt;topo.coordmapper.Jitter</title>
<path fill="none" stroke="black" stroke-width="0.5" d="M358.097,-198.764C381.227,-175.985 440.791,-121.069 502,-95 515.009,-89.4593 529.516,-85.5318 543.662,-82.7485"/>
<polygon fill="black" stroke="black" points="544.262,-84.4164 548.853,-81.774 543.616,-80.9765 544.262,-84.4164"/>
</g>
<!-- topo.coordmapper.OttesSCMapper -->
<g id="node26" class="node"><title>topo.coordmapper.OttesSCMapper</title>
<polygon fill="none" stroke="black" stroke-width="0.5" points="706,-48.5 522,-48.5 522,-27.5 706,-27.5 706,-48.5"/>
<text text-anchor="middle" x="614" y="-35.5" font-family="Vera" font-size="10.00">topo.coordmapper.OttesSCMapper</text>
</g>
<!-- topo.base.functionfamily.CoordinateMapperFn&#45;&gt;topo.coordmapper.OttesSCMapper -->
<g id="edge26" class="edge"><title>topo.base.functionfamily.CoordinateMapperFn&#45;&gt;topo.coordmapper.OttesSCMapper</title>
<path fill="none" stroke="black" stroke-width="0.5" d="M354.877,-198.73C374.258,-170.704 432.458,-92.6275 502,-57 507.485,-54.1898 513.3,-51.7826 519.283,-49.7218"/>
<polygon fill="black" stroke="black" points="520.133,-51.2853 524.344,-48.071 519.048,-47.9578 520.133,-51.2853"/>
</g>
<!-- param.parameterized.Parameterized -->
<g id="node11" class="node"><title>param.parameterized.Parameterized</title>
<polygon fill="none" stroke="black" stroke-width="0.5" points="194,-219.5 5.68434e-14,-219.5 0,-198.5 194,-198.5 194,-219.5"/>
<text text-anchor="middle" x="97" y="-206.5" font-family="Vera" font-size="10.00">param.parameterized.Parameterized</text>
</g>
<!-- param.parameterized.Parameterized&#45;&gt;topo.base.functionfamily.CoordinateMapperFn -->
<g id="edge10" class="edge"><title>param.parameterized.Parameterized&#45;&gt;topo.base.functionfamily.CoordinateMapperFn</title>
<path fill="none" stroke="black" stroke-width="0.5" d="M194.043,-209C204.12,-209 214.455,-209 224.77,-209"/>
<polygon fill="black" stroke="black" points="224.831,-210.75 229.831,-209 224.831,-207.25 224.831,-210.75"/>
</g>
<!-- topo.coordmapper.ReducingMapper -->
<g id="node32" class="node"><title>topo.coordmapper.ReducingMapper</title>
<polygon fill="none" stroke="black" stroke-width="0.5" points="962,-143.5 776,-143.5 776,-122.5 962,-122.5 962,-143.5"/>
<text text-anchor="middle" x="869" y="-130.5" font-family="Vera" font-size="10.00">topo.coordmapper.ReducingMapper</text>
</g>
<!-- topo.coordmapper.SingleDimensionMapper&#45;&gt;topo.coordmapper.ReducingMapper -->
<g id="edge32" class="edge"><title>topo.coordmapper.SingleDimensionMapper&#45;&gt;topo.coordmapper.ReducingMapper</title>
<path fill="none" stroke="black" stroke-width="0.5" d="M726.218,-122.361C740.855,-123.452 755.766,-124.563 770.162,-125.636"/>
<polygon fill="black" stroke="black" points="770.325,-127.402 775.441,-126.029 770.585,-123.912 770.325,-127.402"/>
</g>
<!-- topo.coordmapper.MagnifyingMapper -->
<g id="node34" class="node"><title>topo.coordmapper.MagnifyingMapper</title>
<polygon fill="none" stroke="black" stroke-width="0.5" points="966,-105.5 772,-105.5 772,-84.5 966,-84.5 966,-105.5"/>
<text text-anchor="middle" x="869" y="-92.5" font-family="Vera" font-size="10.00">topo.coordmapper.MagnifyingMapper</text>
</g>
<!-- topo.coordmapper.SingleDimensionMapper&#45;&gt;topo.coordmapper.MagnifyingMapper -->
<g id="edge34" class="edge"><title>topo.coordmapper.SingleDimensionMapper&#45;&gt;topo.coordmapper.MagnifyingMapper</title>
<path fill="none" stroke="black" stroke-width="0.5" d="M726.218,-105.639C739.429,-104.654 752.863,-103.653 765.941,-102.679"/>
<polygon fill="black" stroke="black" points="766.272,-104.409 771.128,-102.292 766.012,-100.919 766.272,-104.409"/>
</g>
<!-- topo.coordmapper.OttesSCMotorMapper -->
<g id="node30" class="node"><title>topo.coordmapper.OttesSCMotorMapper</title>
<polygon fill="none" stroke="black" stroke-width="0.5" points="975,-58.5 763,-58.5 763,-37.5 975,-37.5 975,-58.5"/>
<text text-anchor="middle" x="869" y="-45.5" font-family="Vera" font-size="10.00">topo.coordmapper.OttesSCMotorMapper</text>
</g>
<!-- topo.coordmapper.OttesSCMapper&#45;&gt;topo.coordmapper.OttesSCMotorMapper -->
<g id="edge30" class="edge"><title>topo.coordmapper.OttesSCMapper&#45;&gt;topo.coordmapper.OttesSCMotorMapper</title>
<path fill="none" stroke="black" stroke-width="0.5" d="M706.061,-41.6102C722.739,-42.2643 740.295,-42.9528 757.46,-43.6259"/>
<polygon fill="black" stroke="black" points="757.708,-45.3869 762.773,-43.8342 757.845,-41.8895 757.708,-45.3869"/>
</g>
<!-- topo.coordmapper.OttesSCSenseMapper -->
<g id="node36" class="node"><title>topo.coordmapper.OttesSCSenseMapper</title>
<polygon fill="none" stroke="black" stroke-width="0.5" points="976,-20.5 762,-20.5 762,0.5 976,0.5 976,-20.5"/>
<text text-anchor="middle" x="869" y="-7.5" font-family="Vera" font-size="10.00">topo.coordmapper.OttesSCSenseMapper</text>
</g>
<!-- topo.coordmapper.OttesSCMapper&#45;&gt;topo.coordmapper.OttesSCSenseMapper -->
<g id="edge36" class="edge"><title>topo.coordmapper.OttesSCMapper&#45;&gt;topo.coordmapper.OttesSCSenseMapper</title>
<path fill="none" stroke="black" stroke-width="0.5" d="M705.341,-27.9704C727.263,-25.5633 750.739,-22.9855 772.872,-20.5553"/>
<polygon fill="black" stroke="black" points="773.09,-22.2919 777.869,-20.0066 772.708,-18.8128 773.09,-22.2919"/>
</g>
</g>
</svg>
