<?xml version="1.0" encoding="UTF-8" standalone="no"?>
<!DOCTYPE svg PUBLIC "-//W3C//DTD SVG 1.1//EN"
 "http://www.w3.org/Graphics/SVG/1.1/DTD/svg11.dtd">
<!-- Generated by graphviz version 2.26.3 (20100126.1600)
 -->
<!-- Title: inheritancef1ac05fc54 Pages: 1 -->
<svg width="990pt" height="427pt"
 viewBox="0.00 0.00 990.00 427.00" xmlns="http://www.w3.org/2000/svg" xmlns:xlink="http://www.w3.org/1999/xlink">
<g id="graph1" class="graph" transform="scale(1 1) rotate(0) translate(4 423)">
<title>inheritancef1ac05fc54</title>
<polygon fill="white" stroke="white" points="-4,5 -4,-423 987,-423 987,5 -4,5"/>
<!-- numbergen.TimeAware -->
<g id="node1" class="node"><title>numbergen.TimeAware</title>
<polygon fill="none" stroke="black" stroke-width="0.5" points="357,-305.5 231,-305.5 231,-284.5 357,-284.5 357,-305.5"/>
<text text-anchor="middle" x="294" y="-292.5" font-family="Vera" font-size="10.00">numbergen.TimeAware</text>
</g>
<!-- numbergen.RandomDistribution -->
<g id="node5" class="node"><title>numbergen.RandomDistribution</title>
<polygon fill="none" stroke="black" stroke-width="0.5" points="764,-115.5 594,-115.5 594,-94.5 764,-94.5 764,-115.5"/>
<text text-anchor="middle" x="679" y="-102.5" font-family="Vera" font-size="10.00">numbergen.RandomDistribution</text>
</g>
<!-- numbergen.TimeAware&#45;&gt;numbergen.RandomDistribution -->
<g id="edge20" class="edge"><title>numbergen.TimeAware&#45;&gt;numbergen.RandomDistribution</title>
<path fill="none" stroke="black" stroke-width="0.5" d="M308.204,-284.819C349.928,-255.386 476.578,-169.407 594,-124 601.592,-121.064 609.749,-118.523 617.898,-116.34"/>
<polygon fill="black" stroke="black" points="618.564,-117.976 622.966,-115.027 617.686,-114.587 618.564,-117.976"/>
</g>
<!-- numbergen.TimeDependent -->
<g id="node10" class="node"><title>numbergen.TimeDependent</title>
<polygon fill="none" stroke="black" stroke-width="0.5" points="552,-324.5 400,-324.5 400,-303.5 552,-303.5 552,-324.5"/>
<text text-anchor="middle" x="476" y="-311.5" font-family="Vera" font-size="10.00">numbergen.TimeDependent</text>
</g>
<!-- numbergen.TimeAware&#45;&gt;numbergen.TimeDependent -->
<g id="edge12" class="edge"><title>numbergen.TimeAware&#45;&gt;numbergen.TimeDependent</title>
<path fill="none" stroke="black" stroke-width="0.5" d="M357.655,-301.645C369.584,-302.891 382.204,-304.208 394.585,-305.501"/>
<polygon fill="black" stroke="black" points="394.72,-307.274 399.874,-306.053 395.083,-303.793 394.72,-307.274"/>
</g>
<!-- param.parameterized.Parameterized -->
<g id="node2" class="node"><title>param.parameterized.Parameterized</title>
<polygon fill="none" stroke="black" stroke-width="0.5" points="194,-286.5 5.68434e-14,-286.5 0,-265.5 194,-265.5 194,-286.5"/>
<text text-anchor="middle" x="97" y="-273.5" font-family="Vera" font-size="10.00">param.parameterized.Parameterized</text>
</g>
<!-- param.parameterized.Parameterized&#45;&gt;numbergen.TimeAware -->
<g id="edge2" class="edge"><title>param.parameterized.Parameterized&#45;&gt;numbergen.TimeAware</title>
<path fill="none" stroke="black" stroke-width="0.5" d="M194.057,-285.361C204.561,-286.374 215.086,-287.389 225.156,-288.36"/>
<polygon fill="black" stroke="black" points="225.232,-290.126 230.377,-288.864 225.568,-286.642 225.232,-290.126"/>
</g>
<!-- numbergen.NumberGenerator -->
<g id="node8" class="node"><title>numbergen.NumberGenerator</title>
<polygon fill="none" stroke="black" stroke-width="0.5" points="557,-267.5 395,-267.5 395,-246.5 557,-246.5 557,-267.5"/>
<text text-anchor="middle" x="476" y="-254.5" font-family="Vera" font-size="10.00">numbergen.NumberGenerator</text>
</g>
<!-- param.parameterized.Parameterized&#45;&gt;numbergen.NumberGenerator -->
<g id="edge42" class="edge"><title>param.parameterized.Parameterized&#45;&gt;numbergen.NumberGenerator</title>
<path fill="none" stroke="black" stroke-width="0.5" d="M194.11,-271.132C254.253,-268.117 330.834,-264.277 388.993,-261.362"/>
<polygon fill="black" stroke="black" points="389.302,-263.099 394.208,-261.1 389.126,-259.603 389.302,-263.099"/>
</g>
<!-- numbergen.NormalRandom -->
<g id="node4" class="node"><title>numbergen.NormalRandom</title>
<polygon fill="none" stroke="black" stroke-width="0.5" points="966,-210.5 816,-210.5 816,-189.5 966,-189.5 966,-210.5"/>
<text text-anchor="middle" x="891" y="-197.5" font-family="Vera" font-size="10.00">numbergen.NormalRandom</text>
</g>
<!-- numbergen.RandomDistribution&#45;&gt;numbergen.NormalRandom -->
<g id="edge4" class="edge"><title>numbergen.RandomDistribution&#45;&gt;numbergen.NormalRandom</title>
<path fill="none" stroke="black" stroke-width="0.5" d="M747.433,-115.139C753.306,-117.516 758.932,-120.43 764,-124 788.495,-141.255 775.384,-163.917 800,-181 803.798,-183.635 807.884,-185.919 812.148,-187.896"/>
<polygon fill="black" stroke="black" points="811.555,-189.546 816.839,-189.924 812.944,-186.334 811.555,-189.546"/>
</g>
<!-- numbergen.UniformRandom -->
<g id="node17" class="node"><title>numbergen.UniformRandom</title>
<polygon fill="none" stroke="black" stroke-width="0.5" points="967,-172.5 815,-172.5 815,-151.5 967,-151.5 967,-172.5"/>
<text text-anchor="middle" x="891" y="-159.5" font-family="Vera" font-size="10.00">numbergen.UniformRandom</text>
</g>
<!-- numbergen.RandomDistribution&#45;&gt;numbergen.UniformRandom -->
<g id="edge16" class="edge"><title>numbergen.RandomDistribution&#45;&gt;numbergen.UniformRandom</title>
<path fill="none" stroke="black" stroke-width="0.5" d="M734.035,-115.053C744.14,-117.53 754.493,-120.5 764,-124 780.978,-130.251 782.979,-136.869 800,-143 808.328,-146 817.264,-148.586 826.165,-150.799"/>
<polygon fill="black" stroke="black" points="825.832,-152.518 831.103,-151.99 826.653,-149.116 825.832,-152.518"/>
</g>
<!-- numbergen.VonMisesRandom -->
<g id="node21" class="node"><title>numbergen.VonMisesRandom</title>
<polygon fill="none" stroke="black" stroke-width="0.5" points="971,-134.5 811,-134.5 811,-113.5 971,-113.5 971,-134.5"/>
<text text-anchor="middle" x="891" y="-121.5" font-family="Vera" font-size="10.00">numbergen.VonMisesRandom</text>
</g>
<!-- numbergen.RandomDistribution&#45;&gt;numbergen.VonMisesRandom -->
<g id="edge22" class="edge"><title>numbergen.RandomDistribution&#45;&gt;numbergen.VonMisesRandom</title>
<path fill="none" stroke="black" stroke-width="0.5" d="M764.007,-112.619C777.755,-113.851 791.993,-115.127 805.747,-116.359"/>
<polygon fill="black" stroke="black" points="805.654,-118.108 810.791,-116.811 805.967,-114.622 805.654,-118.108"/>
</g>
<!-- numbergen.Choice -->
<g id="node26" class="node"><title>numbergen.Choice</title>
<polygon fill="none" stroke="black" stroke-width="0.5" points="944,-96.5 838,-96.5 838,-75.5 944,-75.5 944,-96.5"/>
<text text-anchor="middle" x="891" y="-83.5" font-family="Vera" font-size="10.00">numbergen.Choice</text>
</g>
<!-- numbergen.RandomDistribution&#45;&gt;numbergen.Choice -->
<g id="edge28" class="edge"><title>numbergen.RandomDistribution&#45;&gt;numbergen.Choice</title>
<path fill="none" stroke="black" stroke-width="0.5" d="M764.007,-97.3815C786.936,-95.3265 811.23,-93.1492 832.362,-91.2553"/>
<polygon fill="black" stroke="black" points="832.558,-92.9949 837.381,-90.8054 832.245,-89.5088 832.558,-92.9949"/>
</g>
<!-- numbergen.UniformRandomOffset -->
<g id="node28" class="node"><title>numbergen.UniformRandomOffset</title>
<polygon fill="none" stroke="black" stroke-width="0.5" points="982,-58.5 800,-58.5 800,-37.5 982,-37.5 982,-58.5"/>
<text text-anchor="middle" x="891" y="-45.5" font-family="Vera" font-size="10.00">numbergen.UniformRandomOffset</text>
</g>
<!-- numbergen.RandomDistribution&#45;&gt;numbergen.UniformRandomOffset -->
<g id="edge30" class="edge"><title>numbergen.RandomDistribution&#45;&gt;numbergen.UniformRandomOffset</title>
<path fill="none" stroke="black" stroke-width="0.5" d="M708.107,-94.9721C732.472,-86.7925 768.254,-75.2776 800,-67 810.699,-64.2103 822.189,-61.553 833.279,-59.1571"/>
<polygon fill="black" stroke="black" points="833.819,-60.8314 838.343,-58.0751 833.088,-57.4086 833.819,-60.8314"/>
</g>
<!-- numbergen.UniformRandomInt -->
<g id="node36" class="node"><title>numbergen.UniformRandomInt</title>
<polygon fill="none" stroke="black" stroke-width="0.5" points="973,-20.5 809,-20.5 809,0.5 973,0.5 973,-20.5"/>
<text text-anchor="middle" x="891" y="-7.5" font-family="Vera" font-size="10.00">numbergen.UniformRandomInt</text>
</g>
<!-- numbergen.RandomDistribution&#45;&gt;numbergen.UniformRandomInt -->
<g id="edge40" class="edge"><title>numbergen.RandomDistribution&#45;&gt;numbergen.UniformRandomInt</title>
<path fill="none" stroke="black" stroke-width="0.5" d="M691.595,-94.9313C712.723,-78.5574 757.208,-46.2572 800,-29 807.313,-26.0507 815.15,-23.5351 823.043,-21.3951"/>
<polygon fill="black" stroke="black" points="823.566,-23.0674 827.961,-20.1106 822.681,-19.681 823.566,-23.0674"/>
</g>
<!-- numbergen.TimeSampledFn -->
<g id="node7" class="node"><title>numbergen.TimeSampledFn</title>
<polygon fill="none" stroke="black" stroke-width="0.5" points="755,-305.5 603,-305.5 603,-284.5 755,-284.5 755,-305.5"/>
<text text-anchor="middle" x="679" y="-292.5" font-family="Vera" font-size="10.00">numbergen.TimeSampledFn</text>
</g>
<!-- numbergen.NumberGenerator&#45;&gt;numbergen.RandomDistribution -->
<g id="edge18" class="edge"><title>numbergen.NumberGenerator&#45;&gt;numbergen.RandomDistribution</title>
<path fill="none" stroke="black" stroke-width="0.5" d="M487.541,-246.869C504.053,-232.102 534.965,-203.429 558,-176 576.077,-154.475 570.683,-139.699 594,-124 597.961,-121.333 602.238,-119.035 606.693,-117.056"/>
<polygon fill="black" stroke="black" points="607.639,-118.558 611.59,-115.03 606.301,-115.324 607.639,-118.558"/>
</g>
<!-- numbergen.NumberGenerator&#45;&gt;numbergen.TimeSampledFn -->
<g id="edge6" class="edge"><title>numbergen.NumberGenerator&#45;&gt;numbergen.TimeSampledFn</title>
<path fill="none" stroke="black" stroke-width="0.5" d="M529.601,-267.034C557.584,-272.272 591.869,-278.69 620.534,-284.056"/>
<polygon fill="black" stroke="black" points="620.214,-285.776 625.45,-284.976 620.858,-282.336 620.214,-285.776"/>
</g>
<!-- numbergen.BoundedNumber -->
<g id="node12" class="node"><title>numbergen.BoundedNumber</title>
<polygon fill="none" stroke="black" stroke-width="0.5" points="757,-153.5 601,-153.5 601,-132.5 757,-132.5 757,-153.5"/>
<text text-anchor="middle" x="679" y="-140.5" font-family="Vera" font-size="10.00">numbergen.BoundedNumber</text>
</g>
<!-- numbergen.NumberGenerator&#45;&gt;numbergen.BoundedNumber -->
<g id="edge10" class="edge"><title>numbergen.NumberGenerator&#45;&gt;numbergen.BoundedNumber</title>
<path fill="none" stroke="black" stroke-width="0.5" d="M485.323,-246.878C503.969,-227.281 548.032,-184.141 594,-162 599.971,-159.124 606.389,-156.676 612.925,-154.594"/>
<polygon fill="black" stroke="black" points="613.665,-156.198 617.942,-153.071 612.649,-152.849 613.665,-156.198"/>
</g>
<!-- numbergen.BinaryOperator -->
<g id="node15" class="node"><title>numbergen.BinaryOperator</title>
<polygon fill="none" stroke="black" stroke-width="0.5" points="753,-229.5 605,-229.5 605,-208.5 753,-208.5 753,-229.5"/>
<text text-anchor="middle" x="679" y="-216.5" font-family="Vera" font-size="10.00">numbergen.BinaryOperator</text>
</g>
<!-- numbergen.NumberGenerator&#45;&gt;numbergen.BinaryOperator -->
<g id="edge14" class="edge"><title>numbergen.NumberGenerator&#45;&gt;numbergen.BinaryOperator</title>
<path fill="none" stroke="black" stroke-width="0.5" d="M529.601,-246.966C557.584,-241.728 591.869,-235.31 620.534,-229.944"/>
<polygon fill="black" stroke="black" points="620.858,-231.664 625.45,-229.024 620.214,-228.224 620.858,-231.664"/>
</g>
<!-- numbergen.ScaledTime -->
<g id="node23" class="node"><title>numbergen.ScaledTime</title>
<polygon fill="none" stroke="black" stroke-width="0.5" points="744,-267.5 614,-267.5 614,-246.5 744,-246.5 744,-267.5"/>
<text text-anchor="middle" x="679" y="-254.5" font-family="Vera" font-size="10.00">numbergen.ScaledTime</text>
</g>
<!-- numbergen.NumberGenerator&#45;&gt;numbergen.ScaledTime -->
<g id="edge24" class="edge"><title>numbergen.NumberGenerator&#45;&gt;numbergen.ScaledTime</title>
<path fill="none" stroke="black" stroke-width="0.5" d="M557.69,-257C574.464,-257 591.989,-257 608.335,-257"/>
<polygon fill="black" stroke="black" points="608.368,-258.75 613.368,-257 608.368,-255.25 608.368,-258.75"/>
</g>
<!-- numbergen.BoxCar -->
<g id="node30" class="node"><title>numbergen.BoxCar</title>
<polygon fill="none" stroke="black" stroke-width="0.5" points="734,-419.5 624,-419.5 624,-398.5 734,-398.5 734,-419.5"/>
<text text-anchor="middle" x="679" y="-406.5" font-family="Vera" font-size="10.00">numbergen.BoxCar</text>
</g>
<!-- numbergen.NumberGenerator&#45;&gt;numbergen.BoxCar -->
<g id="edge32" class="edge"><title>numbergen.NumberGenerator&#45;&gt;numbergen.BoxCar</title>
<path fill="none" stroke="black" stroke-width="0.5" d="M512.451,-267.019C528.22,-272.939 545.814,-281.907 558,-295 588.762,-328.052 559.883,-360.423 594,-390 601.037,-396.101 609.609,-400.366 618.569,-403.325"/>
<polygon fill="black" stroke="black" points="618.287,-405.068 623.579,-404.838 619.299,-401.718 618.287,-405.068"/>
</g>
<!-- numbergen.SquareWave -->
<g id="node33" class="node"><title>numbergen.SquareWave</title>
<polygon fill="none" stroke="black" stroke-width="0.5" points="746,-381.5 612,-381.5 612,-360.5 746,-360.5 746,-381.5"/>
<text text-anchor="middle" x="679" y="-368.5" font-family="Vera" font-size="10.00">numbergen.SquareWave</text>
</g>
<!-- numbergen.NumberGenerator&#45;&gt;numbergen.SquareWave -->
<g id="edge36" class="edge"><title>numbergen.NumberGenerator&#45;&gt;numbergen.SquareWave</title>
<path fill="none" stroke="black" stroke-width="0.5" d="M508.46,-267.104C524.636,-273.297 543.736,-282.471 558,-295 580.512,-314.773 569.505,-334.745 594,-352 598.079,-354.874 602.52,-357.322 607.16,-359.407"/>
<polygon fill="black" stroke="black" points="606.572,-361.059 611.86,-361.374 607.923,-357.83 606.572,-361.059"/>
</g>
<!-- numbergen.UnaryOperator -->
<g id="node39" class="node"><title>numbergen.UnaryOperator</title>
<polygon fill="none" stroke="black" stroke-width="0.5" points="752,-191.5 606,-191.5 606,-170.5 752,-170.5 752,-191.5"/>
<text text-anchor="middle" x="679" y="-178.5" font-family="Vera" font-size="10.00">numbergen.UnaryOperator</text>
</g>
<!-- numbergen.NumberGenerator&#45;&gt;numbergen.UnaryOperator -->
<g id="edge44" class="edge"><title>numbergen.NumberGenerator&#45;&gt;numbergen.UnaryOperator</title>
<path fill="none" stroke="black" stroke-width="0.5" d="M493.446,-246.99C516.008,-234.421 556.828,-212.938 594,-200 602.435,-197.064 611.502,-194.472 620.46,-192.22"/>
<polygon fill="black" stroke="black" points="620.982,-193.894 625.422,-191.005 620.149,-190.495 620.982,-193.894"/>
</g>
<!-- numbergen.ExponentialDecay -->
<g id="node41" class="node"><title>numbergen.ExponentialDecay</title>
<polygon fill="none" stroke="black" stroke-width="0.5" points="759,-343.5 599,-343.5 599,-322.5 759,-322.5 759,-343.5"/>
<text text-anchor="middle" x="679" y="-330.5" font-family="Vera" font-size="10.00">numbergen.ExponentialDecay</text>
</g>
<!-- numbergen.NumberGenerator&#45;&gt;numbergen.ExponentialDecay -->
<g id="edge46" class="edge"><title>numbergen.NumberGenerator&#45;&gt;numbergen.ExponentialDecay</title>
<path fill="none" stroke="black" stroke-width="0.5" d="M498.422,-267.013C514.988,-274.503 538.033,-285.113 558,-295 574.213,-303.028 577.022,-307.749 594,-314 601.873,-316.899 610.326,-319.433 618.738,-321.626"/>
<polygon fill="black" stroke="black" points="618.689,-323.418 623.965,-322.947 619.546,-320.025 618.689,-323.418"/>
</g>
<!-- numbergen.TimeDependent&#45;&gt;numbergen.TimeSampledFn -->
<g id="edge8" class="edge"><title>numbergen.TimeDependent&#45;&gt;numbergen.TimeSampledFn</title>
<path fill="none" stroke="black" stroke-width="0.5" d="M552.167,-306.871C567.026,-305.48 582.658,-304.017 597.676,-302.612"/>
<polygon fill="black" stroke="black" points="597.928,-304.346 602.744,-302.137 597.602,-300.861 597.928,-304.346"/>
</g>
<!-- numbergen.TimeDependent&#45;&gt;numbergen.ScaledTime -->
<g id="edge26" class="edge"><title>numbergen.TimeDependent&#45;&gt;numbergen.ScaledTime</title>
<path fill="none" stroke="black" stroke-width="0.5" d="M504.874,-303.883C528.629,-295.759 563.265,-284.365 594,-276 604.031,-273.27 614.804,-270.636 625.198,-268.243"/>
<polygon fill="black" stroke="black" points="625.779,-269.906 630.265,-267.089 625.001,-266.493 625.779,-269.906"/>
</g>
<!-- numbergen.TimeDependent&#45;&gt;numbergen.BoxCar -->
<g id="edge34" class="edge"><title>numbergen.TimeDependent&#45;&gt;numbergen.BoxCar</title>
<path fill="none" stroke="black" stroke-width="0.5" d="M488.264,-324.018C508.841,-340.318 552.185,-372.515 594,-390 601.74,-393.237 610.118,-395.963 618.494,-398.248"/>
<polygon fill="black" stroke="black" points="618.423,-400.038 623.703,-399.614 619.311,-396.653 618.423,-400.038"/>
</g>
<!-- numbergen.TimeDependent&#45;&gt;numbergen.SquareWave -->
<g id="edge38" class="edge"><title>numbergen.TimeDependent&#45;&gt;numbergen.SquareWave</title>
<path fill="none" stroke="black" stroke-width="0.5" d="M504.874,-324.117C528.629,-332.241 563.265,-343.635 594,-352 604.031,-354.73 614.804,-357.364 625.198,-359.757"/>
<polygon fill="black" stroke="black" points="625.001,-361.507 630.265,-360.911 625.779,-358.094 625.001,-361.507"/>
</g>
<!-- numbergen.TimeDependent&#45;&gt;numbergen.ExponentialDecay -->
<g id="edge48" class="edge"><title>numbergen.TimeDependent&#45;&gt;numbergen.ExponentialDecay</title>
<path fill="none" stroke="black" stroke-width="0.5" d="M552.167,-321.129C565.594,-322.386 579.652,-323.701 593.319,-324.981"/>
<polygon fill="black" stroke="black" points="593.193,-326.726 598.334,-325.45 593.519,-323.242 593.193,-326.726"/>
</g>
</g>
</svg>
