<?xml version="1.0" encoding="UTF-8" standalone="no"?>
<!DOCTYPE svg PUBLIC "-//W3C//DTD SVG 1.1//EN"
 "http://www.w3.org/Graphics/SVG/1.1/DTD/svg11.dtd">
<!-- Generated by graphviz version 2.26.3 (20100126.1600)
 -->
<!-- Title: inheritancef4cea304dd Pages: 1 -->
<svg width="1124pt" height="256pt"
 viewBox="0.00 0.00 1124.00 256.00" xmlns="http://www.w3.org/2000/svg" xmlns:xlink="http://www.w3.org/1999/xlink">
<g id="graph1" class="graph" transform="scale(1 1) rotate(0) translate(4 252)">
<title>inheritancef4cea304dd</title>
<polygon fill="white" stroke="white" points="-4,5 -4,-252 1121,-252 1121,5 -4,5"/>
<!-- topo.base.cf.NullCFError -->
<g id="node1" class="node"><title>topo.base.cf.NullCFError</title>
<polygon fill="none" stroke="black" stroke-width="0.5" points="162,-86.5 32,-86.5 32,-65.5 162,-65.5 162,-86.5"/>
<text text-anchor="middle" x="97" y="-73.5" font-family="Vera" font-size="10.00">topo.base.cf.NullCFError</text>
</g>
<!-- param.parameterized.Parameterized -->
<g id="node2" class="node"><title>param.parameterized.Parameterized</title>
<polygon fill="none" stroke="black" stroke-width="0.5" points="194,-124.5 5.68434e-14,-124.5 0,-103.5 194,-103.5 194,-124.5"/>
<text text-anchor="middle" x="97" y="-111.5" font-family="Vera" font-size="10.00">param.parameterized.Parameterized</text>
</g>
<!-- topo.base.simulation.EventProcessor -->
<g id="node5" class="node"><title>topo.base.simulation.EventProcessor</title>
<polygon fill="none" stroke="black" stroke-width="0.5" points="445,-248.5 251,-248.5 251,-227.5 445,-227.5 445,-248.5"/>
<text text-anchor="middle" x="348" y="-235.5" font-family="Vera" font-size="10.00">topo.base.simulation.EventProcessor</text>
</g>
<!-- param.parameterized.Parameterized&#45;&gt;topo.base.simulation.EventProcessor -->
<g id="edge24" class="edge"><title>param.parameterized.Parameterized&#45;&gt;topo.base.simulation.EventProcessor</title>
<path fill="none" stroke="black" stroke-width="0.5" d="M180.056,-124.215C185.036,-126.632 189.744,-129.531 194,-133 226.118,-159.18 197.445,-193.366 230,-219 234.904,-222.861 240.284,-226.077 245.961,-228.746"/>
<polygon fill="black" stroke="black" points="245.514,-230.461 250.796,-230.862 246.917,-227.254 245.514,-230.461"/>
</g>
<!-- topo.base.cf.CFPLearningFn -->
<g id="node9" class="node"><title>topo.base.cf.CFPLearningFn</title>
<polygon fill="none" stroke="black" stroke-width="0.5" points="422,-172.5 274,-172.5 274,-151.5 422,-151.5 422,-172.5"/>
<text text-anchor="middle" x="348" y="-159.5" font-family="Vera" font-size="10.00">topo.base.cf.CFPLearningFn</text>
</g>
<!-- param.parameterized.Parameterized&#45;&gt;topo.base.cf.CFPLearningFn -->
<g id="edge14" class="edge"><title>param.parameterized.Parameterized&#45;&gt;topo.base.cf.CFPLearningFn</title>
<path fill="none" stroke="black" stroke-width="0.5" d="M149.312,-124.004C190.455,-131.872 247.727,-142.824 290.217,-150.95"/>
<polygon fill="black" stroke="black" points="290.084,-152.706 295.324,-151.926 290.741,-149.268 290.084,-152.706"/>
</g>
<!-- topo.base.cf.CFPOutputFn -->
<g id="node13" class="node"><title>topo.base.cf.CFPOutputFn</title>
<polygon fill="none" stroke="black" stroke-width="0.5" points="418,-124.5 278,-124.5 278,-103.5 418,-103.5 418,-124.5"/>
<text text-anchor="middle" x="348" y="-111.5" font-family="Vera" font-size="10.00">topo.base.cf.CFPOutputFn</text>
</g>
<!-- param.parameterized.Parameterized&#45;&gt;topo.base.cf.CFPOutputFn -->
<g id="edge10" class="edge"><title>param.parameterized.Parameterized&#45;&gt;topo.base.cf.CFPOutputFn</title>
<path fill="none" stroke="black" stroke-width="0.5" d="M194.043,-114C220.059,-114 247.797,-114 272.459,-114"/>
<polygon fill="black" stroke="black" points="272.673,-115.75 277.673,-114 272.673,-112.25 272.673,-115.75"/>
</g>
<!-- topo.base.cf.CFPResponseFn -->
<g id="node19" class="node"><title>topo.base.cf.CFPResponseFn</title>
<polygon fill="none" stroke="black" stroke-width="0.5" points="424,-67.5 272,-67.5 272,-46.5 424,-46.5 424,-67.5"/>
<text text-anchor="middle" x="348" y="-54.5" font-family="Vera" font-size="10.00">topo.base.cf.CFPResponseFn</text>
</g>
<!-- param.parameterized.Parameterized&#45;&gt;topo.base.cf.CFPResponseFn -->
<g id="edge16" class="edge"><title>param.parameterized.Parameterized&#45;&gt;topo.base.cf.CFPResponseFn</title>
<path fill="none" stroke="black" stroke-width="0.5" d="M150.716,-103.961C164.826,-101.192 180.009,-98.0944 194,-95 231.364,-86.7359 273.541,-76.2469 304.296,-68.3834"/>
<polygon fill="black" stroke="black" points="305.106,-69.9823 309.515,-67.046 304.237,-66.5918 305.106,-69.9823"/>
</g>
<!-- topo.base.simulation.EPConnection -->
<g id="node23" class="node"><title>topo.base.simulation.EPConnection</title>
<polygon fill="none" stroke="black" stroke-width="0.5" points="441,-20.5 255,-20.5 255,0.5 441,0.5 441,-20.5"/>
<text text-anchor="middle" x="348" y="-7.5" font-family="Vera" font-size="10.00">topo.base.simulation.EPConnection</text>
</g>
<!-- param.parameterized.Parameterized&#45;&gt;topo.base.simulation.EPConnection -->
<g id="edge20" class="edge"><title>param.parameterized.Parameterized&#45;&gt;topo.base.simulation.EPConnection</title>
<path fill="none" stroke="black" stroke-width="0.5" d="M177.006,-103.952C183.011,-101.535 188.761,-98.5875 194,-95 218.722,-78.0704 205.618,-55.4151 230,-38 239.895,-30.9328 251.33,-25.6292 263.107,-21.6532"/>
<polygon fill="black" stroke="black" points="263.945,-23.2223 268.172,-20.0292 262.877,-19.8895 263.945,-23.2223"/>
</g>
<!-- imagen.sheetcoords.SheetCoordinateSystem -->
<g id="node3" class="node"><title>imagen.sheetcoords.SheetCoordinateSystem</title>
<polygon fill="none" stroke="black" stroke-width="0.5" points="466,-210.5 230,-210.5 230,-189.5 466,-189.5 466,-210.5"/>
<text text-anchor="middle" x="348" y="-197.5" font-family="Vera" font-size="10.00">imagen.sheetcoords.SheetCoordinateSystem</text>
</g>
<!-- topo.base.sheet.Sheet -->
<g id="node4" class="node"><title>topo.base.sheet.Sheet</title>
<polygon fill="none" stroke="black" stroke-width="0.5" points="648,-248.5 522,-248.5 522,-227.5 648,-227.5 648,-248.5"/>
<text text-anchor="middle" x="585" y="-235.5" font-family="Vera" font-size="10.00">topo.base.sheet.Sheet</text>
</g>
<!-- imagen.sheetcoords.SheetCoordinateSystem&#45;&gt;topo.base.sheet.Sheet -->
<g id="edge4" class="edge"><title>imagen.sheetcoords.SheetCoordinateSystem&#45;&gt;topo.base.sheet.Sheet</title>
<path fill="none" stroke="black" stroke-width="0.5" d="M410.579,-210.034C443.384,-215.294 483.607,-221.743 517.157,-227.122"/>
<polygon fill="black" stroke="black" points="517.268,-228.912 522.482,-227.976 517.822,-225.456 517.268,-228.912"/>
</g>
<!-- topo.base.projection.ProjectionSheet -->
<g id="node16" class="node"><title>topo.base.projection.ProjectionSheet</title>
<polygon fill="none" stroke="black" stroke-width="0.5" points="898,-248.5 704,-248.5 704,-227.5 898,-227.5 898,-248.5"/>
<text text-anchor="middle" x="801" y="-235.5" font-family="Vera" font-size="10.00">topo.base.projection.ProjectionSheet</text>
</g>
<!-- topo.base.sheet.Sheet&#45;&gt;topo.base.projection.ProjectionSheet -->
<g id="edge12" class="edge"><title>topo.base.sheet.Sheet&#45;&gt;topo.base.projection.ProjectionSheet</title>
<path fill="none" stroke="black" stroke-width="0.5" d="M648.057,-238C663.856,-238 681.216,-238 698.394,-238"/>
<polygon fill="black" stroke="black" points="698.717,-239.75 703.717,-238 698.717,-236.25 698.717,-239.75"/>
</g>
<!-- topo.base.simulation.EventProcessor&#45;&gt;topo.base.sheet.Sheet -->
<g id="edge2" class="edge"><title>topo.base.simulation.EventProcessor&#45;&gt;topo.base.sheet.Sheet</title>
<path fill="none" stroke="black" stroke-width="0.5" d="M445.081,-238C469.206,-238 494.557,-238 516.952,-238"/>
<polygon fill="black" stroke="black" points="516.981,-239.75 521.981,-238 516.981,-236.25 516.981,-239.75"/>
</g>
<!-- topo.base.cf.CFPLF_Plugin -->
<g id="node8" class="node"><title>topo.base.cf.CFPLF_Plugin</title>
<polygon fill="none" stroke="black" stroke-width="0.5" points="655,-210.5 515,-210.5 515,-189.5 655,-189.5 655,-210.5"/>
<text text-anchor="middle" x="585" y="-197.5" font-family="Vera" font-size="10.00">topo.base.cf.CFPLF_Plugin</text>
</g>
<!-- topo.base.cf.CFPLearningFn&#45;&gt;topo.base.cf.CFPLF_Plugin -->
<g id="edge6" class="edge"><title>topo.base.cf.CFPLearningFn&#45;&gt;topo.base.cf.CFPLF_Plugin</title>
<path fill="none" stroke="black" stroke-width="0.5" d="M410.579,-172.034C443.384,-177.294 483.607,-183.743 517.157,-189.122"/>
<polygon fill="black" stroke="black" points="517.268,-190.912 522.482,-189.976 517.822,-187.456 517.268,-190.912"/>
</g>
<!-- topo.base.cf.CFPLF_Identity -->
<g id="node21" class="node"><title>topo.base.cf.CFPLF_Identity</title>
<polygon fill="none" stroke="black" stroke-width="0.5" points="658,-172.5 512,-172.5 512,-151.5 658,-151.5 658,-172.5"/>
<text text-anchor="middle" x="585" y="-159.5" font-family="Vera" font-size="10.00">topo.base.cf.CFPLF_Identity</text>
</g>
<!-- topo.base.cf.CFPLearningFn&#45;&gt;topo.base.cf.CFPLF_Identity -->
<g id="edge18" class="edge"><title>topo.base.cf.CFPLearningFn&#45;&gt;topo.base.cf.CFPLF_Identity</title>
<path fill="none" stroke="black" stroke-width="0.5" d="M422.663,-162C449.121,-162 478.973,-162 505.796,-162"/>
<polygon fill="black" stroke="black" points="506.118,-163.75 511.118,-162 506.118,-160.25 506.118,-163.75"/>
</g>
<!-- topo.base.cf.CFIter -->
<g id="node11" class="node"><title>topo.base.cf.CFIter</title>
<polygon fill="none" stroke="black" stroke-width="0.5" points="150,-162.5 44,-162.5 44,-141.5 150,-141.5 150,-162.5"/>
<text text-anchor="middle" x="97" y="-149.5" font-family="Vera" font-size="10.00">topo.base.cf.CFIter</text>
</g>
<!-- topo.base.cf.CFPOF_Plugin -->
<g id="node12" class="node"><title>topo.base.cf.CFPOF_Plugin</title>
<polygon fill="none" stroke="black" stroke-width="0.5" points="656,-134.5 514,-134.5 514,-113.5 656,-113.5 656,-134.5"/>
<text text-anchor="middle" x="585" y="-121.5" font-family="Vera" font-size="10.00">topo.base.cf.CFPOF_Plugin</text>
</g>
<!-- topo.base.cf.CFPOutputFn&#45;&gt;topo.base.cf.CFPOF_Plugin -->
<g id="edge8" class="edge"><title>topo.base.cf.CFPOutputFn&#45;&gt;topo.base.cf.CFPOF_Plugin</title>
<path fill="none" stroke="black" stroke-width="0.5" d="M418.146,-116.96C446.415,-118.153 479.116,-119.532 508.038,-120.753"/>
<polygon fill="black" stroke="black" points="508.323,-122.516 513.392,-120.979 508.471,-119.019 508.323,-122.516"/>
</g>
<!-- topo.base.cf.CFPOF_Identity -->
<g id="node31" class="node"><title>topo.base.cf.CFPOF_Identity</title>
<polygon fill="none" stroke="black" stroke-width="0.5" points="659,-96.5 511,-96.5 511,-75.5 659,-75.5 659,-96.5"/>
<text text-anchor="middle" x="585" y="-83.5" font-family="Vera" font-size="10.00">topo.base.cf.CFPOF_Identity</text>
</g>
<!-- topo.base.cf.CFPOutputFn&#45;&gt;topo.base.cf.CFPOF_Identity -->
<g id="edge28" class="edge"><title>topo.base.cf.CFPOutputFn&#45;&gt;topo.base.cf.CFPOF_Identity</title>
<path fill="none" stroke="black" stroke-width="0.5" d="M418.146,-105.713C445.516,-102.479 477.04,-98.7548 505.266,-95.42"/>
<polygon fill="black" stroke="black" points="505.736,-97.1268 510.496,-94.8021 505.326,-93.6509 505.736,-97.1268"/>
</g>
<!-- topo.base.cf.CFSheet -->
<g id="node35" class="node"><title>topo.base.cf.CFSheet</title>
<polygon fill="none" stroke="black" stroke-width="0.5" points="1084,-248.5 966,-248.5 966,-227.5 1084,-227.5 1084,-248.5"/>
<text text-anchor="middle" x="1025" y="-235.5" font-family="Vera" font-size="10.00">topo.base.cf.CFSheet</text>
</g>
<!-- topo.base.projection.ProjectionSheet&#45;&gt;topo.base.cf.CFSheet -->
<g id="edge32" class="edge"><title>topo.base.projection.ProjectionSheet&#45;&gt;topo.base.cf.CFSheet</title>
<path fill="none" stroke="black" stroke-width="0.5" d="M898.272,-238C919.101,-238 940.622,-238 959.885,-238"/>
<polygon fill="black" stroke="black" points="960.255,-239.75 965.255,-238 960.255,-236.25 960.255,-239.75"/>
</g>
<!-- topo.base.cf.CFPRF_Plugin -->
<g id="node29" class="node"><title>topo.base.cf.CFPRF_Plugin</title>
<polygon fill="none" stroke="black" stroke-width="0.5" points="655,-58.5 515,-58.5 515,-37.5 655,-37.5 655,-58.5"/>
<text text-anchor="middle" x="585" y="-45.5" font-family="Vera" font-size="10.00">topo.base.cf.CFPRF_Plugin</text>
</g>
<!-- topo.base.cf.CFPResponseFn&#45;&gt;topo.base.cf.CFPRF_Plugin -->
<g id="edge26" class="edge"><title>topo.base.cf.CFPResponseFn&#45;&gt;topo.base.cf.CFPRF_Plugin</title>
<path fill="none" stroke="black" stroke-width="0.5" d="M424.62,-54.0904C451.738,-53.0606 482.215,-51.9032 509.259,-50.8762"/>
<polygon fill="black" stroke="black" points="509.338,-52.6246 514.268,-50.686 509.205,-49.1271 509.338,-52.6246"/>
</g>
<!-- topo.base.projection.Projection -->
<g id="node33" class="node"><title>topo.base.projection.Projection</title>
<polygon fill="none" stroke="black" stroke-width="0.5" points="667,-20.5 503,-20.5 503,0.5 667,0.5 667,-20.5"/>
<text text-anchor="middle" x="585" y="-7.5" font-family="Vera" font-size="10.00">topo.base.projection.Projection</text>
</g>
<!-- topo.base.simulation.EPConnection&#45;&gt;topo.base.projection.Projection -->
<g id="edge34" class="edge"><title>topo.base.simulation.EPConnection&#45;&gt;topo.base.projection.Projection</title>
<path fill="none" stroke="black" stroke-width="0.5" d="M441.328,-10C459.681,-10 478.878,-10 497.046,-10"/>
<polygon fill="black" stroke="black" points="497.142,-11.7501 502.142,-10 497.142,-8.2501 497.142,-11.7501"/>
</g>
<!-- topo.base.cf.ResizableCFProjection -->
<g id="node25" class="node"><title>topo.base.cf.ResizableCFProjection</title>
<polygon fill="none" stroke="black" stroke-width="0.5" points="1116,-20.5 934,-20.5 934,0.5 1116,0.5 1116,-20.5"/>
<text text-anchor="middle" x="1025" y="-7.5" font-family="Vera" font-size="10.00">topo.base.cf.ResizableCFProjection</text>
</g>
<!-- topo.base.cf.CFProjection -->
<g id="node26" class="node"><title>topo.base.cf.CFProjection</title>
<polygon fill="none" stroke="black" stroke-width="0.5" points="869,-20.5 733,-20.5 733,0.5 869,0.5 869,-20.5"/>
<text text-anchor="middle" x="801" y="-7.5" font-family="Vera" font-size="10.00">topo.base.cf.CFProjection</text>
</g>
<!-- topo.base.cf.CFProjection&#45;&gt;topo.base.cf.ResizableCFProjection -->
<g id="edge22" class="edge"><title>topo.base.cf.CFProjection&#45;&gt;topo.base.cf.ResizableCFProjection</title>
<path fill="none" stroke="black" stroke-width="0.5" d="M869.73,-10C888.343,-10 908.841,-10 928.67,-10"/>
<polygon fill="black" stroke="black" points="928.696,-11.7501 933.696,-10 928.696,-8.2501 928.696,-11.7501"/>
</g>
<!-- topo.base.projection.Projection&#45;&gt;topo.base.cf.CFProjection -->
<g id="edge30" class="edge"><title>topo.base.projection.Projection&#45;&gt;topo.base.cf.CFProjection</title>
<path fill="none" stroke="black" stroke-width="0.5" d="M667.585,-10C687.071,-10 707.728,-10 726.817,-10"/>
<polygon fill="black" stroke="black" points="727.157,-11.7501 732.157,-10 727.157,-8.25009 727.157,-11.7501"/>
</g>
<!-- topo.base.cf.ConnectionField -->
<g id="node37" class="node"><title>topo.base.cf.ConnectionField</title>
<polygon fill="none" stroke="black" stroke-width="0.5" points="173,-200.5 21,-200.5 21,-179.5 173,-179.5 173,-200.5"/>
<text text-anchor="middle" x="97" y="-187.5" font-family="Vera" font-size="10.00">topo.base.cf.ConnectionField</text>
</g>
</g>
</svg>
