<?xml version="1.0" encoding="UTF-8" standalone="no"?>
<!DOCTYPE svg PUBLIC "-//W3C//DTD SVG 1.1//EN"
 "http://www.w3.org/Graphics/SVG/1.1/DTD/svg11.dtd">
<!-- Generated by graphviz version 2.26.3 (20100126.1600)
 -->
<!-- Title: inheritance273a80740e Pages: 1 -->
<svg width="856pt" height="902pt"
 viewBox="0.00 0.00 856.00 902.00" xmlns="http://www.w3.org/2000/svg" xmlns:xlink="http://www.w3.org/1999/xlink">
<g id="graph1" class="graph" transform="scale(1 1) rotate(0) translate(4 898)">
<title>inheritance273a80740e</title>
<polygon fill="white" stroke="white" points="-4,5 -4,-898 853,-898 853,5 -4,5"/>
<!-- imagen.DifferenceOfGaussians -->
<g id="node1" class="node"><title>imagen.DifferenceOfGaussians</title>
<polygon fill="none" stroke="black" stroke-width="0.5" points="654,-856.5 490,-856.5 490,-835.5 654,-835.5 654,-856.5"/>
<text text-anchor="middle" x="572" y="-843.5" font-family="Vera" font-size="10.00">imagen.DifferenceOfGaussians</text>
</g>
<!-- imagen.patterngenerator.PatternGenerator -->
<g id="node2" class="node"><title>imagen.patterngenerator.PatternGenerator</title>
<polygon fill="none" stroke="black" stroke-width="0.5" points="454,-438.5 230,-438.5 230,-417.5 454,-417.5 454,-438.5"/>
<text text-anchor="middle" x="342" y="-425.5" font-family="Vera" font-size="10.00">imagen.patterngenerator.PatternGenerator</text>
</g>
<!-- imagen.patterngenerator.PatternGenerator&#45;&gt;imagen.DifferenceOfGaussians -->
<g id="edge2" class="edge"><title>imagen.patterngenerator.PatternGenerator&#45;&gt;imagen.DifferenceOfGaussians</title>
<path fill="none" stroke="black" stroke-width="0.5" d="M342.438,-438.27C345.191,-489.18 364.371,-716.449 490,-827 492.791,-829.456 495.836,-831.611 499.059,-833.501"/>
<polygon fill="black" stroke="black" points="498.323,-835.092 503.555,-835.918 499.98,-832.009 498.323,-835.092"/>
</g>
<!-- imagen.Arc -->
<g id="node4" class="node"><title>imagen.Arc</title>
<polygon fill="none" stroke="black" stroke-width="0.5" points="607,-818.5 537,-818.5 537,-797.5 607,-797.5 607,-818.5"/>
<text text-anchor="middle" x="572" y="-805.5" font-family="Vera" font-size="10.00">imagen.Arc</text>
</g>
<!-- imagen.patterngenerator.PatternGenerator&#45;&gt;imagen.Arc -->
<g id="edge4" class="edge"><title>imagen.patterngenerator.PatternGenerator&#45;&gt;imagen.Arc</title>
<path fill="none" stroke="black" stroke-width="0.5" d="M342.878,-438.255C347.555,-486.225 373.897,-690.27 490,-789 501.402,-798.696 516.806,-803.675 531.185,-806.159"/>
<polygon fill="black" stroke="black" points="531.218,-807.935 536.426,-806.965 531.751,-804.475 531.218,-807.935"/>
</g>
<!-- imagen.Sweeper -->
<g id="node7" class="node"><title>imagen.Sweeper</title>
<polygon fill="none" stroke="black" stroke-width="0.5" points="620,-780.5 524,-780.5 524,-759.5 620,-759.5 620,-780.5"/>
<text text-anchor="middle" x="572" y="-767.5" font-family="Vera" font-size="10.00">imagen.Sweeper</text>
</g>
<!-- imagen.patterngenerator.PatternGenerator&#45;&gt;imagen.Sweeper -->
<g id="edge6" class="edge"><title>imagen.patterngenerator.PatternGenerator&#45;&gt;imagen.Sweeper</title>
<path fill="none" stroke="black" stroke-width="0.5" d="M343.386,-438.081C350.072,-482.676 383.187,-663.842 490,-751 498.076,-757.59 508.017,-761.983 518.158,-764.891"/>
<polygon fill="black" stroke="black" points="517.864,-766.623 523.145,-766.202 518.754,-763.238 517.864,-766.623"/>
</g>
<!-- imagen.HalfPlane -->
<g id="node9" class="node"><title>imagen.HalfPlane</title>
<polygon fill="none" stroke="black" stroke-width="0.5" points="622,-742.5 522,-742.5 522,-721.5 622,-721.5 622,-742.5"/>
<text text-anchor="middle" x="572" y="-729.5" font-family="Vera" font-size="10.00">imagen.HalfPlane</text>
</g>
<!-- imagen.patterngenerator.PatternGenerator&#45;&gt;imagen.HalfPlane -->
<g id="edge8" class="edge"><title>imagen.patterngenerator.PatternGenerator&#45;&gt;imagen.HalfPlane</title>
<path fill="none" stroke="black" stroke-width="0.5" d="M344.023,-438.009C352.903,-479.239 392.423,-637.308 490,-713 497.669,-718.949 506.879,-723.09 516.314,-725.961"/>
<polygon fill="black" stroke="black" points="515.974,-727.683 521.261,-727.35 516.92,-724.314 515.974,-727.683"/>
</g>
<!-- imagen.Composite -->
<g id="node12" class="node"><title>imagen.Composite</title>
<polygon fill="none" stroke="black" stroke-width="0.5" points="625,-704.5 519,-704.5 519,-683.5 625,-683.5 625,-704.5"/>
<text text-anchor="middle" x="572" y="-691.5" font-family="Vera" font-size="10.00">imagen.Composite</text>
</g>
<!-- imagen.patterngenerator.PatternGenerator&#45;&gt;imagen.Composite -->
<g id="edge58" class="edge"><title>imagen.patterngenerator.PatternGenerator&#45;&gt;imagen.Composite</title>
<path fill="none" stroke="black" stroke-width="0.5" d="M344.912,-438.209C356.313,-476.227 401.696,-610.707 490,-675 496.848,-679.986 504.8,-683.688 513.003,-686.433"/>
<polygon fill="black" stroke="black" points="512.843,-688.215 518.136,-688.02 513.877,-684.871 512.843,-688.215"/>
</g>
<!-- imagen.Line -->
<g id="node14" class="node"><title>imagen.Line</title>
<polygon fill="none" stroke="black" stroke-width="0.5" points="609,-666.5 535,-666.5 535,-645.5 609,-645.5 609,-666.5"/>
<text text-anchor="middle" x="572" y="-653.5" font-family="Vera" font-size="10.00">imagen.Line</text>
</g>
<!-- imagen.patterngenerator.PatternGenerator&#45;&gt;imagen.Line -->
<g id="edge12" class="edge"><title>imagen.patterngenerator.PatternGenerator&#45;&gt;imagen.Line</title>
<path fill="none" stroke="black" stroke-width="0.5" d="M346.065,-438.266C360.187,-472.52 410.631,-583.725 490,-637 501.461,-644.693 515.629,-649.296 528.945,-652.041"/>
<polygon fill="black" stroke="black" points="528.956,-653.825 534.195,-653.039 529.61,-650.386 528.956,-653.825"/>
</g>
<!-- imagen.SquareGrating -->
<g id="node16" class="node"><title>imagen.SquareGrating</title>
<polygon fill="none" stroke="black" stroke-width="0.5" points="634,-628.5 510,-628.5 510,-607.5 634,-607.5 634,-628.5"/>
<text text-anchor="middle" x="572" y="-615.5" font-family="Vera" font-size="10.00">imagen.SquareGrating</text>
</g>
<!-- imagen.patterngenerator.PatternGenerator&#45;&gt;imagen.SquareGrating -->
<g id="edge14" class="edge"><title>imagen.patterngenerator.PatternGenerator&#45;&gt;imagen.SquareGrating</title>
<path fill="none" stroke="black" stroke-width="0.5" d="M347.535,-438.029C364.516,-467.796 419.052,-556.227 490,-599 494.599,-601.773 499.568,-604.141 504.705,-606.164"/>
<polygon fill="black" stroke="black" points="504.168,-607.831 509.464,-607.926 505.383,-604.549 504.168,-607.831"/>
</g>
<!-- imagen.RawRectangle -->
<g id="node18" class="node"><title>imagen.RawRectangle</title>
<polygon fill="none" stroke="black" stroke-width="0.5" points="632,-590.5 512,-590.5 512,-569.5 632,-569.5 632,-590.5"/>
<text text-anchor="middle" x="572" y="-577.5" font-family="Vera" font-size="10.00">imagen.RawRectangle</text>
</g>
<!-- imagen.patterngenerator.PatternGenerator&#45;&gt;imagen.RawRectangle -->
<g id="edge16" class="edge"><title>imagen.patterngenerator.PatternGenerator&#45;&gt;imagen.RawRectangle</title>
<path fill="none" stroke="black" stroke-width="0.5" d="M350.101,-438.206C370.623,-463.326 427.488,-528.465 490,-561 495.469,-563.846 501.362,-566.27 507.391,-568.334"/>
<polygon fill="black" stroke="black" points="507.185,-570.107 512.481,-569.984 508.265,-566.778 507.185,-570.107"/>
</g>
<!-- imagen.SineGrating -->
<g id="node20" class="node"><title>imagen.SineGrating</title>
<polygon fill="none" stroke="black" stroke-width="0.5" points="628,-552.5 516,-552.5 516,-531.5 628,-531.5 628,-552.5"/>
<text text-anchor="middle" x="572" y="-539.5" font-family="Vera" font-size="10.00">imagen.SineGrating</text>
</g>
<!-- imagen.patterngenerator.PatternGenerator&#45;&gt;imagen.SineGrating -->
<g id="edge18" class="edge"><title>imagen.patterngenerator.PatternGenerator&#45;&gt;imagen.SineGrating</title>
<path fill="none" stroke="black" stroke-width="0.5" d="M354.613,-438.267C379.157,-457.732 435.705,-500.098 490,-523 496.892,-525.907 504.306,-528.411 511.759,-530.558"/>
<polygon fill="black" stroke="black" points="511.632,-532.338 516.918,-531.987 512.567,-528.965 511.632,-532.338"/>
</g>
<!-- imagen.Sigmoid -->
<g id="node22" class="node"><title>imagen.Sigmoid</title>
<polygon fill="none" stroke="black" stroke-width="0.5" points="619,-514.5 525,-514.5 525,-493.5 619,-493.5 619,-514.5"/>
<text text-anchor="middle" x="572" y="-501.5" font-family="Vera" font-size="10.00">imagen.Sigmoid</text>
</g>
<!-- imagen.patterngenerator.PatternGenerator&#45;&gt;imagen.Sigmoid -->
<g id="edge20" class="edge"><title>imagen.patterngenerator.PatternGenerator&#45;&gt;imagen.Sigmoid</title>
<path fill="none" stroke="black" stroke-width="0.5" d="M364.974,-438.004C393.776,-450.276 444.855,-471.151 490,-485 499.399,-487.883 509.52,-490.563 519.336,-492.948"/>
<polygon fill="black" stroke="black" points="519.165,-494.706 524.435,-494.167 519.979,-491.302 519.165,-494.706"/>
</g>
<!-- imagen.PowerSpectrum -->
<g id="node24" class="node"><title>imagen.PowerSpectrum</title>
<polygon fill="none" stroke="black" stroke-width="0.5" points="637,-476.5 507,-476.5 507,-455.5 637,-455.5 637,-476.5"/>
<text text-anchor="middle" x="572" y="-463.5" font-family="Vera" font-size="10.00">imagen.PowerSpectrum</text>
</g>
<!-- imagen.patterngenerator.PatternGenerator&#45;&gt;imagen.PowerSpectrum -->
<g id="edge22" class="edge"><title>imagen.patterngenerator.PatternGenerator&#45;&gt;imagen.PowerSpectrum</title>
<path fill="none" stroke="black" stroke-width="0.5" d="M402.731,-438.034C434.566,-443.294 473.602,-449.743 506.16,-455.122"/>
<polygon fill="black" stroke="black" points="506.11,-456.887 511.328,-455.976 506.68,-453.434 506.11,-456.887"/>
</g>
<!-- imagen.LogGaussian -->
<g id="node26" class="node"><title>imagen.LogGaussian</title>
<polygon fill="none" stroke="black" stroke-width="0.5" points="630,-438.5 514,-438.5 514,-417.5 630,-417.5 630,-438.5"/>
<text text-anchor="middle" x="572" y="-425.5" font-family="Vera" font-size="10.00">imagen.LogGaussian</text>
</g>
<!-- imagen.patterngenerator.PatternGenerator&#45;&gt;imagen.LogGaussian -->
<g id="edge24" class="edge"><title>imagen.patterngenerator.PatternGenerator&#45;&gt;imagen.LogGaussian</title>
<path fill="none" stroke="black" stroke-width="0.5" d="M454.305,-428C472.803,-428 491.394,-428 508.162,-428"/>
<polygon fill="black" stroke="black" points="508.306,-429.75 513.306,-428 508.306,-426.25 508.306,-429.75"/>
</g>
<!-- imagen.Gaussian -->
<g id="node28" class="node"><title>imagen.Gaussian</title>
<polygon fill="none" stroke="black" stroke-width="0.5" points="622,-400.5 522,-400.5 522,-379.5 622,-379.5 622,-400.5"/>
<text text-anchor="middle" x="572" y="-387.5" font-family="Vera" font-size="10.00">imagen.Gaussian</text>
</g>
<!-- imagen.patterngenerator.PatternGenerator&#45;&gt;imagen.Gaussian -->
<g id="edge26" class="edge"><title>imagen.patterngenerator.PatternGenerator&#45;&gt;imagen.Gaussian</title>
<path fill="none" stroke="black" stroke-width="0.5" d="M402.731,-417.966C438.122,-412.119 482.412,-404.802 516.809,-399.118"/>
<polygon fill="black" stroke="black" points="517.162,-400.834 521.81,-398.292 516.592,-397.381 517.162,-400.834"/>
</g>
<!-- imagen.Translator -->
<g id="node33" class="node"><title>imagen.Translator</title>
<polygon fill="none" stroke="black" stroke-width="0.5" points="623,-362.5 521,-362.5 521,-341.5 623,-341.5 623,-362.5"/>
<text text-anchor="middle" x="572" y="-349.5" font-family="Vera" font-size="10.00">imagen.Translator</text>
</g>
<!-- imagen.patterngenerator.PatternGenerator&#45;&gt;imagen.Translator -->
<g id="edge30" class="edge"><title>imagen.patterngenerator.PatternGenerator&#45;&gt;imagen.Translator</title>
<path fill="none" stroke="black" stroke-width="0.5" d="M432.367,-417.995C439.897,-415.58 447.214,-412.621 454,-409 474.524,-398.046 469.811,-382.561 490,-371 497.918,-366.466 506.851,-363.013 515.834,-360.384"/>
<polygon fill="black" stroke="black" points="516.469,-362.025 520.823,-359.007 515.538,-358.651 516.469,-362.025"/>
</g>
<!-- imagen.SigmoidedDoLG -->
<g id="node35" class="node"><title>imagen.SigmoidedDoLG</title>
<polygon fill="none" stroke="black" stroke-width="0.5" points="638,-324.5 506,-324.5 506,-303.5 638,-303.5 638,-324.5"/>
<text text-anchor="middle" x="572" y="-311.5" font-family="Vera" font-size="10.00">imagen.SigmoidedDoLG</text>
</g>
<!-- imagen.patterngenerator.PatternGenerator&#45;&gt;imagen.SigmoidedDoLG -->
<g id="edge32" class="edge"><title>imagen.patterngenerator.PatternGenerator&#45;&gt;imagen.SigmoidedDoLG</title>
<path fill="none" stroke="black" stroke-width="0.5" d="M438.989,-417.948C444.306,-415.468 449.362,-412.513 454,-409 483.794,-386.433 460.892,-356.445 490,-333 493.13,-330.479 496.533,-328.281 500.116,-326.364"/>
<polygon fill="black" stroke="black" points="501.382,-327.693 505.103,-323.922 499.843,-324.55 501.382,-327.693"/>
</g>
<!-- imagen.Rectangle -->
<g id="node38" class="node"><title>imagen.Rectangle</title>
<polygon fill="none" stroke="black" stroke-width="0.5" points="623,-286.5 521,-286.5 521,-265.5 623,-265.5 623,-286.5"/>
<text text-anchor="middle" x="572" y="-273.5" font-family="Vera" font-size="10.00">imagen.Rectangle</text>
</g>
<!-- imagen.patterngenerator.PatternGenerator&#45;&gt;imagen.Rectangle -->
<g id="edge42" class="edge"><title>imagen.patterngenerator.PatternGenerator&#45;&gt;imagen.Rectangle</title>
<path fill="none" stroke="black" stroke-width="0.5" d="M440.885,-417.984C445.57,-415.468 449.984,-412.497 454,-409 494.069,-374.106 450.99,-331.074 490,-295 497.218,-288.326 506.305,-283.847 515.78,-280.871"/>
<polygon fill="black" stroke="black" points="516.436,-282.504 520.763,-279.448 515.474,-279.138 516.436,-282.504"/>
</g>
<!-- imagen.Selector -->
<g id="node40" class="node"><title>imagen.Selector</title>
<polygon fill="none" stroke="black" stroke-width="0.5" points="619,-248.5 525,-248.5 525,-227.5 619,-227.5 619,-248.5"/>
<text text-anchor="middle" x="572" y="-235.5" font-family="Vera" font-size="10.00">imagen.Selector</text>
</g>
<!-- imagen.patterngenerator.PatternGenerator&#45;&gt;imagen.Selector -->
<g id="edge36" class="edge"><title>imagen.patterngenerator.PatternGenerator&#45;&gt;imagen.Selector</title>
<path fill="none" stroke="black" stroke-width="0.5" d="M441.964,-417.894C446.282,-415.383 450.331,-412.44 454,-409 504.648,-361.518 440.79,-305.971 490,-257 497.905,-249.134 508.383,-244.269 519.199,-241.315"/>
<polygon fill="black" stroke="black" points="519.747,-242.983 524.184,-240.088 518.91,-239.584 519.747,-242.983"/>
</g>
<!-- imagen.Disk -->
<g id="node42" class="node"><title>imagen.Disk</title>
<polygon fill="none" stroke="black" stroke-width="0.5" points="610,-210.5 534,-210.5 534,-189.5 610,-189.5 610,-210.5"/>
<text text-anchor="middle" x="572" y="-197.5" font-family="Vera" font-size="10.00">imagen.Disk</text>
</g>
<!-- imagen.patterngenerator.PatternGenerator&#45;&gt;imagen.Disk -->
<g id="edge38" class="edge"><title>imagen.patterngenerator.PatternGenerator&#45;&gt;imagen.Disk</title>
<path fill="none" stroke="black" stroke-width="0.5" d="M442.407,-417.942C446.58,-415.412 450.48,-412.453 454,-409 515.355,-348.813 430.467,-280.99 490,-219 500.007,-208.58 514.513,-203.375 528.552,-200.91"/>
<polygon fill="black" stroke="black" points="529.017,-202.609 533.694,-200.121 528.486,-199.15 529.017,-202.609"/>
</g>
<!-- imagen.Gabor -->
<g id="node47" class="node"><title>imagen.Gabor</title>
<polygon fill="none" stroke="black" stroke-width="0.5" points="614,-172.5 530,-172.5 530,-151.5 614,-151.5 614,-172.5"/>
<text text-anchor="middle" x="572" y="-159.5" font-family="Vera" font-size="10.00">imagen.Gabor</text>
</g>
<!-- imagen.patterngenerator.PatternGenerator&#45;&gt;imagen.Gabor -->
<g id="edge44" class="edge"><title>imagen.patterngenerator.PatternGenerator&#45;&gt;imagen.Gabor</title>
<path fill="none" stroke="black" stroke-width="0.5" d="M443.032,-417.763C446.984,-415.268 450.672,-412.366 454,-409 526.125,-336.045 420.082,-256.073 490,-181 498.88,-171.465 511.522,-166.267 524.228,-163.542"/>
<polygon fill="black" stroke="black" points="524.696,-165.234 529.282,-162.583 524.044,-161.796 524.696,-165.234"/>
</g>
<!-- imagen.Ring -->
<g id="node52" class="node"><title>imagen.Ring</title>
<polygon fill="none" stroke="black" stroke-width="0.5" points="610,-134.5 534,-134.5 534,-113.5 610,-113.5 610,-134.5"/>
<text text-anchor="middle" x="572" y="-121.5" font-family="Vera" font-size="10.00">imagen.Ring</text>
</g>
<!-- imagen.patterngenerator.PatternGenerator&#45;&gt;imagen.Ring -->
<g id="edge50" class="edge"><title>imagen.patterngenerator.PatternGenerator&#45;&gt;imagen.Ring</title>
<path fill="none" stroke="black" stroke-width="0.5" d="M443.124,-417.853C447.052,-415.334 450.71,-412.403 454,-409 536.932,-323.24 409.662,-231.195 490,-143 499.816,-132.224 514.432,-126.961 528.618,-124.551"/>
<polygon fill="black" stroke="black" points="529.122,-126.245 533.814,-123.787 528.613,-122.783 529.122,-126.245"/>
</g>
<!-- imagen.SigmoidedDoG -->
<g id="node54" class="node"><title>imagen.SigmoidedDoG</title>
<polygon fill="none" stroke="black" stroke-width="0.5" points="636,-96.5 508,-96.5 508,-75.5 636,-75.5 636,-96.5"/>
<text text-anchor="middle" x="572" y="-83.5" font-family="Vera" font-size="10.00">imagen.SigmoidedDoG</text>
</g>
<!-- imagen.patterngenerator.PatternGenerator&#45;&gt;imagen.SigmoidedDoG -->
<g id="edge52" class="edge"><title>imagen.patterngenerator.PatternGenerator&#45;&gt;imagen.SigmoidedDoG</title>
<path fill="none" stroke="black" stroke-width="0.5" d="M443.194,-417.92C447.103,-415.384 450.738,-412.43 454,-409 547.762,-310.412 399.219,-206.34 490,-105 493.733,-100.833 498.182,-97.4877 503.052,-94.8111"/>
<polygon fill="black" stroke="black" points="503.933,-96.3277 507.633,-92.5367 502.376,-93.1928 503.933,-96.3277"/>
</g>
<!-- imagen.GaussiansCorner -->
<g id="node56" class="node"><title>imagen.GaussiansCorner</title>
<polygon fill="none" stroke="black" stroke-width="0.5" points="640,-58.5 504,-58.5 504,-37.5 640,-37.5 640,-58.5"/>
<text text-anchor="middle" x="572" y="-45.5" font-family="Vera" font-size="10.00">imagen.GaussiansCorner</text>
</g>
<!-- imagen.patterngenerator.PatternGenerator&#45;&gt;imagen.GaussiansCorner -->
<g id="edge54" class="edge"><title>imagen.patterngenerator.PatternGenerator&#45;&gt;imagen.GaussiansCorner</title>
<path fill="none" stroke="black" stroke-width="0.5" d="M443.249,-417.972C447.144,-415.422 450.76,-412.451 454,-409 558.607,-297.567 388.762,-181.503 490,-67 492.595,-64.0646 495.547,-61.5357 498.751,-59.3603"/>
<polygon fill="black" stroke="black" points="499.908,-60.7044 503.267,-56.608 498.086,-57.7157 499.908,-60.7044"/>
</g>
<!-- imagen.ExponentialDecay -->
<g id="node67" class="node"><title>imagen.ExponentialDecay</title>
<polygon fill="none" stroke="black" stroke-width="0.5" points="642,-20.5 502,-20.5 502,0.5 642,0.5 642,-20.5"/>
<text text-anchor="middle" x="572" y="-7.5" font-family="Vera" font-size="10.00">imagen.ExponentialDecay</text>
</g>
<!-- imagen.patterngenerator.PatternGenerator&#45;&gt;imagen.ExponentialDecay -->
<g id="edge66" class="edge"><title>imagen.patterngenerator.PatternGenerator&#45;&gt;imagen.ExponentialDecay</title>
<path fill="none" stroke="black" stroke-width="0.5" d="M443.778,-417.692C447.476,-415.203 450.913,-412.323 454,-409 511.732,-346.856 434.147,-92.8382 490,-29 492.147,-26.5461 494.543,-24.3755 497.127,-22.4577"/>
<polygon fill="black" stroke="black" points="498.149,-23.8795 501.336,-19.6475 496.206,-20.9687 498.149,-23.8795"/>
</g>
<!-- imagen.Curve -->
<g id="node58" class="node"><title>imagen.Curve</title>
<polygon fill="none" stroke="black" stroke-width="0.5" points="810,-818.5 728,-818.5 728,-797.5 810,-797.5 810,-818.5"/>
<text text-anchor="middle" x="769" y="-805.5" font-family="Vera" font-size="10.00">imagen.Curve</text>
</g>
<!-- imagen.Arc&#45;&gt;imagen.Curve -->
<g id="edge56" class="edge"><title>imagen.Arc&#45;&gt;imagen.Curve</title>
<path fill="none" stroke="black" stroke-width="0.5" d="M607.675,-808C639.802,-808 687.233,-808 722.357,-808"/>
<polygon fill="black" stroke="black" points="722.447,-809.75 727.447,-808 722.447,-806.25 722.447,-809.75"/>
</g>
<!-- param.parameterized.Parameter -->
<g id="node6" class="node"><title>param.parameterized.Parameter</title>
<polygon fill="none" stroke="black" stroke-width="0.5" points="184,-894.5 10,-894.5 10,-873.5 184,-873.5 184,-894.5"/>
<text text-anchor="middle" x="97" y="-881.5" font-family="Vera" font-size="10.00">param.parameterized.Parameter</text>
</g>
<!-- param.Selector -->
<g id="node31" class="node"><title>param.Selector</title>
<polygon fill="none" stroke="black" stroke-width="0.5" points="387,-894.5 297,-894.5 297,-873.5 387,-873.5 387,-894.5"/>
<text text-anchor="middle" x="342" y="-881.5" font-family="Vera" font-size="10.00">param.Selector</text>
</g>
<!-- param.parameterized.Parameter&#45;&gt;param.Selector -->
<g id="edge46" class="edge"><title>param.parameterized.Parameter&#45;&gt;param.Selector</title>
<path fill="none" stroke="black" stroke-width="0.5" d="M184.759,-884C220.453,-884 260.436,-884 291.152,-884"/>
<polygon fill="black" stroke="black" points="291.387,-885.75 296.387,-884 291.387,-882.25 291.387,-885.75"/>
</g>
<!-- imagen.SeparatedComposite -->
<g id="node11" class="node"><title>imagen.SeparatedComposite</title>
<polygon fill="none" stroke="black" stroke-width="0.5" points="848,-704.5 690,-704.5 690,-683.5 848,-683.5 848,-704.5"/>
<text text-anchor="middle" x="769" y="-691.5" font-family="Vera" font-size="10.00">imagen.SeparatedComposite</text>
</g>
<!-- imagen.Composite&#45;&gt;imagen.SeparatedComposite -->
<g id="edge10" class="edge"><title>imagen.Composite&#45;&gt;imagen.SeparatedComposite</title>
<path fill="none" stroke="black" stroke-width="0.5" d="M625.571,-694C643.847,-694 664.75,-694 684.839,-694"/>
<polygon fill="black" stroke="black" points="684.927,-695.75 689.927,-694 684.927,-692.25 684.927,-695.75"/>
</g>
<!-- imagen.OrientationContrast -->
<g id="node61" class="node"><title>imagen.OrientationContrast</title>
<polygon fill="none" stroke="black" stroke-width="0.5" points="844,-552.5 694,-552.5 694,-531.5 844,-531.5 844,-552.5"/>
<text text-anchor="middle" x="769" y="-539.5" font-family="Vera" font-size="10.00">imagen.OrientationContrast</text>
</g>
<!-- imagen.SineGrating&#45;&gt;imagen.OrientationContrast -->
<g id="edge60" class="edge"><title>imagen.SineGrating&#45;&gt;imagen.OrientationContrast</title>
<path fill="none" stroke="black" stroke-width="0.5" d="M628.189,-542C647.06,-542 668.49,-542 688.837,-542"/>
<polygon fill="black" stroke="black" points="688.985,-543.75 693.985,-542 688.985,-540.25 688.985,-543.75"/>
</g>
<!-- imagen.Spectrogram -->
<g id="node63" class="node"><title>imagen.Spectrogram</title>
<polygon fill="none" stroke="black" stroke-width="0.5" points="828,-476.5 710,-476.5 710,-455.5 828,-455.5 828,-476.5"/>
<text text-anchor="middle" x="769" y="-463.5" font-family="Vera" font-size="10.00">imagen.Spectrogram</text>
</g>
<!-- imagen.PowerSpectrum&#45;&gt;imagen.Spectrogram -->
<g id="edge62" class="edge"><title>imagen.PowerSpectrum&#45;&gt;imagen.Spectrogram</title>
<path fill="none" stroke="black" stroke-width="0.5" d="M637.598,-466C659.048,-466 682.849,-466 704.237,-466"/>
<polygon fill="black" stroke="black" points="704.332,-467.75 709.332,-466 704.332,-464.25 704.332,-467.75"/>
</g>
<!-- param.ClassSelector -->
<g id="node30" class="node"><title>param.ClassSelector</title>
<polygon fill="none" stroke="black" stroke-width="0.5" points="630,-894.5 514,-894.5 514,-873.5 630,-873.5 630,-894.5"/>
<text text-anchor="middle" x="572" y="-881.5" font-family="Vera" font-size="10.00">param.ClassSelector</text>
</g>
<!-- imagen.TimeSeriesParam -->
<g id="node50" class="node"><title>imagen.TimeSeriesParam</title>
<polygon fill="none" stroke="black" stroke-width="0.5" points="839,-894.5 699,-894.5 699,-873.5 839,-873.5 839,-894.5"/>
<text text-anchor="middle" x="769" y="-881.5" font-family="Vera" font-size="10.00">imagen.TimeSeriesParam</text>
</g>
<!-- param.ClassSelector&#45;&gt;imagen.TimeSeriesParam -->
<g id="edge48" class="edge"><title>param.ClassSelector&#45;&gt;imagen.TimeSeriesParam</title>
<path fill="none" stroke="black" stroke-width="0.5" d="M630.041,-884C650.005,-884 672.652,-884 693.784,-884"/>
<polygon fill="black" stroke="black" points="693.834,-885.75 698.834,-884 693.834,-882.25 693.834,-885.75"/>
</g>
<!-- param.Selector&#45;&gt;param.ClassSelector -->
<g id="edge28" class="edge"><title>param.Selector&#45;&gt;param.ClassSelector</title>
<path fill="none" stroke="black" stroke-width="0.5" d="M387.716,-884C422.32,-884 470.267,-884 508.58,-884"/>
<polygon fill="black" stroke="black" points="508.68,-885.75 513.68,-884 508.68,-882.25 508.68,-885.75"/>
</g>
<!-- imagen.TwoRectangles -->
<g id="node37" class="node"><title>imagen.TwoRectangles</title>
<polygon fill="none" stroke="black" stroke-width="0.5" points="831,-286.5 707,-286.5 707,-265.5 831,-265.5 831,-286.5"/>
<text text-anchor="middle" x="769" y="-273.5" font-family="Vera" font-size="10.00">imagen.TwoRectangles</text>
</g>
<!-- imagen.Rectangle&#45;&gt;imagen.TwoRectangles -->
<g id="edge34" class="edge"><title>imagen.Rectangle&#45;&gt;imagen.TwoRectangles</title>
<path fill="none" stroke="black" stroke-width="0.5" d="M623.245,-276C647.186,-276 676.008,-276 701.679,-276"/>
<polygon fill="black" stroke="black" points="701.769,-277.75 706.769,-276 701.769,-274.25 701.769,-277.75"/>
</g>
<!-- param.parameterized.Parameterized -->
<g id="node44" class="node"><title>param.parameterized.Parameterized</title>
<polygon fill="none" stroke="black" stroke-width="0.5" points="194,-419.5 5.68434e-14,-419.5 0,-398.5 194,-398.5 194,-419.5"/>
<text text-anchor="middle" x="97" y="-406.5" font-family="Vera" font-size="10.00">param.parameterized.Parameterized</text>
</g>
<!-- param.parameterized.Parameterized&#45;&gt;imagen.patterngenerator.PatternGenerator -->
<g id="edge40" class="edge"><title>param.parameterized.Parameterized&#45;&gt;imagen.patterngenerator.PatternGenerator</title>
<path fill="none" stroke="black" stroke-width="0.5" d="M194.182,-416.537C204.286,-417.32 214.629,-418.122 224.922,-418.92"/>
<polygon fill="black" stroke="black" points="224.849,-420.67 229.969,-419.312 225.12,-417.18 224.849,-420.67"/>
</g>
<!-- imagen.TimeSeries -->
<g id="node65" class="node"><title>imagen.TimeSeries</title>
<polygon fill="none" stroke="black" stroke-width="0.5" points="396,-400.5 288,-400.5 288,-379.5 396,-379.5 396,-400.5"/>
<text text-anchor="middle" x="342" y="-387.5" font-family="Vera" font-size="10.00">imagen.TimeSeries</text>
</g>
<!-- param.parameterized.Parameterized&#45;&gt;imagen.TimeSeries -->
<g id="edge64" class="edge"><title>param.parameterized.Parameterized&#45;&gt;imagen.TimeSeries</title>
<path fill="none" stroke="black" stroke-width="0.5" d="M194.182,-401.463C223.866,-399.161 255.624,-396.699 282.066,-394.648"/>
<polygon fill="black" stroke="black" points="282.431,-396.375 287.281,-394.244 282.161,-392.885 282.431,-396.375"/>
</g>
</g>
</svg>
