<?xml version="1.0" encoding="UTF-8" standalone="no"?>
<!DOCTYPE svg PUBLIC "-//W3C//DTD SVG 1.1//EN"
 "http://www.w3.org/Graphics/SVG/1.1/DTD/svg11.dtd">
<!-- Generated by graphviz version 2.26.3 (20100126.1600)
 -->
<!-- Title: inheritance0bce68b9cf Pages: 1 -->
<svg width="1872pt" height="503pt"
 viewBox="0.00 0.00 1872.00 503.00" xmlns="http://www.w3.org/2000/svg" xmlns:xlink="http://www.w3.org/1999/xlink">
<g id="graph1" class="graph" transform="scale(1 1) rotate(0) translate(4 499)">
<title>inheritance0bce68b9cf</title>
<polygon fill="white" stroke="white" points="-4,5 -4,-499 1869,-499 1869,5 -4,5"/>
<!-- topo.command.analysis.latency_mapper -->
<g id="node1" class="node"><title>topo.command.analysis.latency_mapper</title>
<polygon fill="none" stroke="black" stroke-width="0.5" points="767,-210.5 555,-210.5 555,-189.5 767,-189.5 767,-210.5"/>
<text text-anchor="middle" x="661" y="-197.5" font-family="Vera" font-size="10.00">topo.command.analysis.latency_mapper</text>
</g>
<!-- imagen.patterngenerator.PatternGenerator -->
<g id="node2" class="node"><title>imagen.patterngenerator.PatternGenerator</title>
<polygon fill="none" stroke="black" stroke-width="0.5" points="459,-143.5 235,-143.5 235,-122.5 459,-122.5 459,-143.5"/>
<text text-anchor="middle" x="347" y="-130.5" font-family="Vera" font-size="10.00">imagen.patterngenerator.PatternGenerator</text>
</g>
<!-- imagen.patterngenerator.PatternGenerator&#45;&gt;topo.command.analysis.latency_mapper -->
<g id="edge2" class="edge"><title>imagen.patterngenerator.PatternGenerator&#45;&gt;topo.command.analysis.latency_mapper</title>
<path fill="none" stroke="black" stroke-width="0.5" d="M373.678,-143.042C403.893,-154.02 454.81,-171.333 500,-181 515.963,-184.415 532.957,-187.257 549.696,-189.612"/>
<polygon fill="black" stroke="black" points="549.689,-191.377 554.881,-190.327 550.167,-187.91 549.689,-191.377"/>
</g>
<!-- topo.command.analysis.log_frequency_mapper -->
<g id="node12" class="node"><title>topo.command.analysis.log_frequency_mapper</title>
<polygon fill="none" stroke="black" stroke-width="0.5" points="783,-172.5 539,-172.5 539,-151.5 783,-151.5 783,-172.5"/>
<text text-anchor="middle" x="661" y="-159.5" font-family="Vera" font-size="10.00">topo.command.analysis.log_frequency_mapper</text>
</g>
<!-- imagen.patterngenerator.PatternGenerator&#45;&gt;topo.command.analysis.log_frequency_mapper -->
<g id="edge10" class="edge"><title>imagen.patterngenerator.PatternGenerator&#45;&gt;topo.command.analysis.log_frequency_mapper</title>
<path fill="none" stroke="black" stroke-width="0.5" d="M455.501,-143.021C485.161,-145.76 517.382,-148.736 547.323,-151.501"/>
<polygon fill="black" stroke="black" points="547.355,-153.262 552.495,-151.979 547.677,-149.776 547.355,-153.262"/>
</g>
<!-- topo.command.analysis.frequency_mapper -->
<g id="node42" class="node"><title>topo.command.analysis.frequency_mapper</title>
<polygon fill="none" stroke="black" stroke-width="0.5" points="773,-134.5 549,-134.5 549,-113.5 773,-113.5 773,-134.5"/>
<text text-anchor="middle" x="661" y="-121.5" font-family="Vera" font-size="10.00">topo.command.analysis.frequency_mapper</text>
</g>
<!-- imagen.patterngenerator.PatternGenerator&#45;&gt;topo.command.analysis.frequency_mapper -->
<g id="edge40" class="edge"><title>imagen.patterngenerator.PatternGenerator&#45;&gt;topo.command.analysis.frequency_mapper</title>
<path fill="none" stroke="black" stroke-width="0.5" d="M459.031,-129.789C486.472,-129.002 515.915,-128.158 543.6,-127.365"/>
<polygon fill="black" stroke="black" points="543.8,-129.11 548.748,-127.217 543.7,-125.611 543.8,-129.11"/>
</g>
<!-- param.parameterized.Parameterized -->
<g id="node4" class="node"><title>param.parameterized.Parameterized</title>
<polygon fill="none" stroke="black" stroke-width="0.5" points="194,-86.5 5.68434e-14,-86.5 0,-65.5 194,-65.5 194,-86.5"/>
<text text-anchor="middle" x="97" y="-73.5" font-family="Vera" font-size="10.00">param.parameterized.Parameterized</text>
</g>
<!-- param.parameterized.Parameterized&#45;&gt;imagen.patterngenerator.PatternGenerator -->
<g id="edge4" class="edge"><title>param.parameterized.Parameterized&#45;&gt;imagen.patterngenerator.PatternGenerator</title>
<path fill="none" stroke="black" stroke-width="0.5" d="M141.12,-86.0592C185.075,-96.0811 252.414,-111.434 298.007,-121.83"/>
<polygon fill="black" stroke="black" points="297.638,-123.54 302.902,-122.946 298.416,-120.128 297.638,-123.54"/>
</g>
<!-- param.parameterized.ParameterizedFunction -->
<g id="node14" class="node"><title>param.parameterized.ParameterizedFunction</title>
<polygon fill="none" stroke="black" stroke-width="0.5" points="464,-86.5 230,-86.5 230,-65.5 464,-65.5 464,-86.5"/>
<text text-anchor="middle" x="347" y="-73.5" font-family="Vera" font-size="10.00">param.parameterized.ParameterizedFunction</text>
</g>
<!-- param.parameterized.Parameterized&#45;&gt;param.parameterized.ParameterizedFunction -->
<g id="edge12" class="edge"><title>param.parameterized.Parameterized&#45;&gt;param.parameterized.ParameterizedFunction</title>
<path fill="none" stroke="black" stroke-width="0.5" d="M194.014,-76C204.04,-76 214.319,-76 224.575,-76"/>
<polygon fill="black" stroke="black" points="224.607,-77.7501 229.607,-76 224.607,-74.2501 224.607,-77.7501"/>
</g>
<!-- topo.command.analysis.PatternPresenter2 -->
<g id="node40" class="node"><title>topo.command.analysis.PatternPresenter2</title>
<polygon fill="none" stroke="black" stroke-width="0.5" points="457,-48.5 237,-48.5 237,-27.5 457,-27.5 457,-48.5"/>
<text text-anchor="middle" x="347" y="-35.5" font-family="Vera" font-size="10.00">topo.command.analysis.PatternPresenter2</text>
</g>
<!-- param.parameterized.Parameterized&#45;&gt;topo.command.analysis.PatternPresenter2 -->
<g id="edge38" class="edge"><title>param.parameterized.Parameterized&#45;&gt;topo.command.analysis.PatternPresenter2</title>
<path fill="none" stroke="black" stroke-width="0.5" d="M163.012,-65.9662C197.758,-60.6848 240.394,-54.204 275.872,-48.8115"/>
<polygon fill="black" stroke="black" points="276.372,-50.5056 281.052,-48.024 275.846,-47.0454 276.372,-50.5056"/>
</g>
<!-- topo.command.analysis.update_connectionfields -->
<g id="node6" class="node"><title>topo.command.analysis.update_connectionfields</title>
<polygon fill="none" stroke="black" stroke-width="0.5" points="1505,-58.5 1255,-58.5 1255,-37.5 1505,-37.5 1505,-58.5"/>
<text text-anchor="middle" x="1380" y="-45.5" font-family="Vera" font-size="10.00">topo.command.analysis.update_connectionfields</text>
</g>
<!-- topo.plotting.plotgroup.UnitMeasurementCommand -->
<g id="node7" class="node"><title>topo.plotting.plotgroup.UnitMeasurementCommand</title>
<polygon fill="none" stroke="black" stroke-width="0.5" points="1145,-58.5 879,-58.5 879,-37.5 1145,-37.5 1145,-58.5"/>
<text text-anchor="middle" x="1012" y="-45.5" font-family="Vera" font-size="10.00">topo.plotting.plotgroup.UnitMeasurementCommand</text>
</g>
<!-- topo.plotting.plotgroup.UnitMeasurementCommand&#45;&gt;topo.command.analysis.update_connectionfields -->
<g id="edge6" class="edge"><title>topo.plotting.plotgroup.UnitMeasurementCommand&#45;&gt;topo.command.analysis.update_connectionfields</title>
<path fill="none" stroke="black" stroke-width="0.5" d="M1145.12,-48C1178.91,-48 1215.19,-48 1248.88,-48"/>
<polygon fill="black" stroke="black" points="1249.27,-49.7501 1254.27,-48 1249.27,-46.2501 1249.27,-49.7501"/>
</g>
<!-- topo.command.analysis.update_projection -->
<g id="node56" class="node"><title>topo.command.analysis.update_projection</title>
<polygon fill="none" stroke="black" stroke-width="0.5" points="1490,-20.5 1270,-20.5 1270,0.5 1490,0.5 1490,-20.5"/>
<text text-anchor="middle" x="1380" y="-7.5" font-family="Vera" font-size="10.00">topo.command.analysis.update_projection</text>
</g>
<!-- topo.plotting.plotgroup.UnitMeasurementCommand&#45;&gt;topo.command.analysis.update_projection -->
<g id="edge56" class="edge"><title>topo.plotting.plotgroup.UnitMeasurementCommand&#45;&gt;topo.command.analysis.update_projection</title>
<path fill="none" stroke="black" stroke-width="0.5" d="M1109.17,-37.9662C1161.15,-32.5982 1225.14,-25.9912 1277.86,-20.5472"/>
<polygon fill="black" stroke="black" points="1278.13,-22.2785 1282.93,-20.024 1277.77,-18.797 1278.13,-22.2785"/>
</g>
<!-- topo.command.analysis.measure_dr_pref -->
<g id="node9" class="node"><title>topo.command.analysis.measure_dr_pref</title>
<polygon fill="none" stroke="black" stroke-width="0.5" points="1837,-495.5 1621,-495.5 1621,-474.5 1837,-474.5 1837,-495.5"/>
<text text-anchor="middle" x="1729" y="-482.5" font-family="Vera" font-size="10.00">topo.command.analysis.measure_dr_pref</text>
</g>
<!-- topo.analysis.featureresponses.SinusoidalMeasureResponseCommand -->
<g id="node10" class="node"><title>topo.analysis.featureresponses.SinusoidalMeasureResponseCommand</title>
<polygon fill="none" stroke="black" stroke-width="0.5" points="1558,-362.5 1202,-362.5 1202,-341.5 1558,-341.5 1558,-362.5"/>
<text text-anchor="middle" x="1380" y="-349.5" font-family="Vera" font-size="10.00">topo.analysis.featureresponses.SinusoidalMeasureResponseCommand</text>
</g>
<!-- topo.analysis.featureresponses.SinusoidalMeasureResponseCommand&#45;&gt;topo.command.analysis.measure_dr_pref -->
<g id="edge8" class="edge"><title>topo.analysis.featureresponses.SinusoidalMeasureResponseCommand&#45;&gt;topo.command.analysis.measure_dr_pref</title>
<path fill="none" stroke="black" stroke-width="0.5" d="M1394.75,-362.238C1428.36,-385.021 1513.94,-439.944 1594,-466 1603.57,-469.116 1613.69,-471.721 1623.91,-473.899"/>
<polygon fill="black" stroke="black" points="1623.69,-475.639 1628.94,-474.934 1624.39,-472.211 1623.69,-475.639"/>
</g>
<!-- topo.command.analysis.measure_od_pref -->
<g id="node23" class="node"><title>topo.command.analysis.measure_od_pref</title>
<polygon fill="none" stroke="black" stroke-width="0.5" points="1838,-457.5 1620,-457.5 1620,-436.5 1838,-436.5 1838,-457.5"/>
<text text-anchor="middle" x="1729" y="-444.5" font-family="Vera" font-size="10.00">topo.command.analysis.measure_od_pref</text>
</g>
<!-- topo.analysis.featureresponses.SinusoidalMeasureResponseCommand&#45;&gt;topo.command.analysis.measure_od_pref -->
<g id="edge20" class="edge"><title>topo.analysis.featureresponses.SinusoidalMeasureResponseCommand&#45;&gt;topo.command.analysis.measure_od_pref</title>
<path fill="none" stroke="black" stroke-width="0.5" d="M1403.28,-362.021C1442.08,-378.327 1522.78,-410.531 1594,-428 1606.9,-431.164 1620.63,-433.853 1634.2,-436.125"/>
<polygon fill="black" stroke="black" points="1633.98,-437.861 1639.2,-436.943 1634.55,-434.407 1633.98,-437.861"/>
</g>
<!-- topo.command.analysis.measure_second_or_pref -->
<g id="node27" class="node"><title>topo.command.analysis.measure_second_or_pref</title>
<polygon fill="none" stroke="black" stroke-width="0.5" points="1857,-419.5 1601,-419.5 1601,-398.5 1857,-398.5 1857,-419.5"/>
<text text-anchor="middle" x="1729" y="-406.5" font-family="Vera" font-size="10.00">topo.command.analysis.measure_second_or_pref</text>
</g>
<!-- topo.analysis.featureresponses.SinusoidalMeasureResponseCommand&#45;&gt;topo.command.analysis.measure_second_or_pref -->
<g id="edge24" class="edge"><title>topo.analysis.featureresponses.SinusoidalMeasureResponseCommand&#45;&gt;topo.command.analysis.measure_second_or_pref</title>
<path fill="none" stroke="black" stroke-width="0.5" d="M1433.56,-362.06C1476.79,-370.048 1539.22,-381.284 1594,-390 1611.84,-392.838 1631.04,-395.673 1649.21,-398.254"/>
<polygon fill="black" stroke="black" points="1649.11,-400.007 1654.3,-398.975 1649.6,-396.542 1649.11,-400.007"/>
</g>
<!-- topo.command.analysis.measure_phasedisparity -->
<g id="node29" class="node"><title>topo.command.analysis.measure_phasedisparity</title>
<polygon fill="none" stroke="black" stroke-width="0.5" points="1855,-381.5 1603,-381.5 1603,-360.5 1855,-360.5 1855,-381.5"/>
<text text-anchor="middle" x="1729" y="-368.5" font-family="Vera" font-size="10.00">topo.command.analysis.measure_phasedisparity</text>
</g>
<!-- topo.analysis.featureresponses.SinusoidalMeasureResponseCommand&#45;&gt;topo.command.analysis.measure_phasedisparity -->
<g id="edge26" class="edge"><title>topo.analysis.featureresponses.SinusoidalMeasureResponseCommand&#45;&gt;topo.command.analysis.measure_phasedisparity</title>
<path fill="none" stroke="black" stroke-width="0.5" d="M1558.08,-361.695C1571.43,-362.422 1584.75,-363.147 1597.74,-363.854"/>
<polygon fill="black" stroke="black" points="1597.8,-365.61 1602.89,-364.134 1597.99,-362.115 1597.8,-365.61"/>
</g>
<!-- topo.command.analysis.measure_hue_pref -->
<g id="node38" class="node"><title>topo.command.analysis.measure_hue_pref</title>
<polygon fill="none" stroke="black" stroke-width="0.5" points="1841,-343.5 1617,-343.5 1617,-322.5 1841,-322.5 1841,-343.5"/>
<text text-anchor="middle" x="1729" y="-330.5" font-family="Vera" font-size="10.00">topo.command.analysis.measure_hue_pref</text>
</g>
<!-- topo.analysis.featureresponses.SinusoidalMeasureResponseCommand&#45;&gt;topo.command.analysis.measure_hue_pref -->
<g id="edge36" class="edge"><title>topo.analysis.featureresponses.SinusoidalMeasureResponseCommand&#45;&gt;topo.command.analysis.measure_hue_pref</title>
<path fill="none" stroke="black" stroke-width="0.5" d="M1558.08,-342.305C1576.2,-341.319 1594.27,-340.335 1611.51,-339.396"/>
<polygon fill="black" stroke="black" points="1611.94,-341.126 1616.83,-339.107 1611.74,-337.631 1611.94,-341.126"/>
</g>
<!-- topo.command.analysis.measure_sine_pref -->
<g id="node46" class="node"><title>topo.command.analysis.measure_sine_pref</title>
<polygon fill="none" stroke="black" stroke-width="0.5" points="1842,-305.5 1616,-305.5 1616,-284.5 1842,-284.5 1842,-305.5"/>
<text text-anchor="middle" x="1729" y="-292.5" font-family="Vera" font-size="10.00">topo.command.analysis.measure_sine_pref</text>
</g>
<!-- topo.analysis.featureresponses.SinusoidalMeasureResponseCommand&#45;&gt;topo.command.analysis.measure_sine_pref -->
<g id="edge44" class="edge"><title>topo.analysis.featureresponses.SinusoidalMeasureResponseCommand&#45;&gt;topo.command.analysis.measure_sine_pref</title>
<path fill="none" stroke="black" stroke-width="0.5" d="M1433.56,-341.94C1476.79,-333.952 1539.22,-322.716 1594,-314 1611.84,-311.162 1631.04,-308.327 1649.21,-305.746"/>
<polygon fill="black" stroke="black" points="1649.6,-307.458 1654.3,-305.025 1649.11,-303.993 1649.6,-307.458"/>
</g>
<!-- topo.command.analysis.measure_or_pref -->
<g id="node58" class="node"><title>topo.command.analysis.measure_or_pref</title>
<polygon fill="none" stroke="black" stroke-width="0.5" points="1837,-267.5 1621,-267.5 1621,-246.5 1837,-246.5 1837,-267.5"/>
<text text-anchor="middle" x="1729" y="-254.5" font-family="Vera" font-size="10.00">topo.command.analysis.measure_or_pref</text>
</g>
<!-- topo.analysis.featureresponses.SinusoidalMeasureResponseCommand&#45;&gt;topo.command.analysis.measure_or_pref -->
<g id="edge58" class="edge"><title>topo.analysis.featureresponses.SinusoidalMeasureResponseCommand&#45;&gt;topo.command.analysis.measure_or_pref</title>
<path fill="none" stroke="black" stroke-width="0.5" d="M1403.28,-341.979C1442.08,-325.673 1522.78,-293.469 1594,-276 1606.9,-272.836 1620.63,-270.147 1634.2,-267.875"/>
<polygon fill="black" stroke="black" points="1634.55,-269.593 1639.2,-267.057 1633.98,-266.139 1634.55,-269.593"/>
</g>
<!-- topo.analysis.featureresponses.PatternPresentingCommand -->
<g id="node31" class="node"><title>topo.analysis.featureresponses.PatternPresentingCommand</title>
<polygon fill="none" stroke="black" stroke-width="0.5" points="813,-96.5 509,-96.5 509,-75.5 813,-75.5 813,-96.5"/>
<text text-anchor="middle" x="661" y="-83.5" font-family="Vera" font-size="10.00">topo.analysis.featureresponses.PatternPresentingCommand</text>
</g>
<!-- param.parameterized.ParameterizedFunction&#45;&gt;topo.analysis.featureresponses.PatternPresentingCommand -->
<g id="edge28" class="edge"><title>param.parameterized.ParameterizedFunction&#45;&gt;topo.analysis.featureresponses.PatternPresentingCommand</title>
<path fill="none" stroke="black" stroke-width="0.5" d="M464.369,-79.7379C477.055,-80.1419 490.112,-80.5577 503.176,-80.9737"/>
<polygon fill="black" stroke="black" points="503.324,-82.7293 508.378,-81.1394 503.436,-79.2311 503.324,-82.7293"/>
</g>
<!-- topo.plotting.plotgroup.ProjectionSheetMeasurementCommand -->
<g id="node36" class="node"><title>topo.plotting.plotgroup.ProjectionSheetMeasurementCommand</title>
<polygon fill="none" stroke="black" stroke-width="0.5" points="822,-58.5 500,-58.5 500,-37.5 822,-37.5 822,-58.5"/>
<text text-anchor="middle" x="661" y="-45.5" font-family="Vera" font-size="10.00">topo.plotting.plotgroup.ProjectionSheetMeasurementCommand</text>
</g>
<!-- param.parameterized.ParameterizedFunction&#45;&gt;topo.plotting.plotgroup.ProjectionSheetMeasurementCommand -->
<g id="edge34" class="edge"><title>param.parameterized.ParameterizedFunction&#45;&gt;topo.plotting.plotgroup.ProjectionSheetMeasurementCommand</title>
<path fill="none" stroke="black" stroke-width="0.5" d="M459.474,-65.9704C486.809,-63.533 516.106,-60.9205 543.66,-58.4635"/>
<polygon fill="black" stroke="black" points="543.959,-60.1938 548.784,-58.0066 543.648,-56.7077 543.959,-60.1938"/>
</g>
<!-- topo.command.analysis.save_plotgroup -->
<g id="node49" class="node"><title>topo.command.analysis.save_plotgroup</title>
<polygon fill="none" stroke="black" stroke-width="0.5" points="765,-20.5 557,-20.5 557,0.5 765,0.5 765,-20.5"/>
<text text-anchor="middle" x="661" y="-7.5" font-family="Vera" font-size="10.00">topo.command.analysis.save_plotgroup</text>
</g>
<!-- param.parameterized.ParameterizedFunction&#45;&gt;topo.command.analysis.save_plotgroup -->
<g id="edge48" class="edge"><title>param.parameterized.ParameterizedFunction&#45;&gt;topo.command.analysis.save_plotgroup</title>
<path fill="none" stroke="black" stroke-width="0.5" d="M437.742,-65.9338C446.796,-63.553 455.7,-60.6177 464,-57 482.582,-48.9014 481.247,-36.6924 500,-29 516.185,-22.361 534.002,-17.8258 551.704,-14.7642"/>
<polygon fill="black" stroke="black" points="552.045,-16.4816 556.693,-13.9392 551.474,-13.0285 552.045,-16.4816"/>
</g>
<!-- topo.analysis.featureresponses.MeasureResponseCommand -->
<g id="node16" class="node"><title>topo.analysis.featureresponses.MeasureResponseCommand</title>
<polygon fill="none" stroke="black" stroke-width="0.5" points="1165,-172.5 859,-172.5 859,-151.5 1165,-151.5 1165,-172.5"/>
<text text-anchor="middle" x="1012" y="-159.5" font-family="Vera" font-size="10.00">topo.analysis.featureresponses.MeasureResponseCommand</text>
</g>
<!-- topo.analysis.featureresponses.MeasureResponseCommand&#45;&gt;topo.analysis.featureresponses.SinusoidalMeasureResponseCommand -->
<g id="edge14" class="edge"><title>topo.analysis.featureresponses.MeasureResponseCommand&#45;&gt;topo.analysis.featureresponses.SinusoidalMeasureResponseCommand</title>
<path fill="none" stroke="black" stroke-width="0.5" d="M1031.53,-172.081C1093.78,-204.222 1287.47,-304.227 1355.82,-339.516"/>
<polygon fill="black" stroke="black" points="1355.28,-341.204 1360.52,-341.943 1356.88,-338.094 1355.28,-341.204"/>
</g>
<!-- topo.command.analysis.measure_latency_preference -->
<g id="node18" class="node"><title>topo.command.analysis.measure_latency_preference</title>
<polygon fill="none" stroke="black" stroke-width="0.5" points="1517,-248.5 1243,-248.5 1243,-227.5 1517,-227.5 1517,-248.5"/>
<text text-anchor="middle" x="1380" y="-235.5" font-family="Vera" font-size="10.00">topo.command.analysis.measure_latency_preference</text>
</g>
<!-- topo.analysis.featureresponses.MeasureResponseCommand&#45;&gt;topo.command.analysis.measure_latency_preference -->
<g id="edge16" class="edge"><title>topo.analysis.featureresponses.MeasureResponseCommand&#45;&gt;topo.command.analysis.measure_latency_preference</title>
<path fill="none" stroke="black" stroke-width="0.5" d="M1039.6,-172.042C1076.21,-184.955 1143.09,-207.126 1202,-219 1218.29,-222.283 1235.54,-225.024 1252.64,-227.305"/>
<polygon fill="black" stroke="black" points="1252.75,-229.085 1257.94,-227.999 1253.21,-225.615 1252.75,-229.085"/>
</g>
<!-- topo.analysis.featureresponses.PositionMeasurementCommand -->
<g id="node21" class="node"><title>topo.analysis.featureresponses.PositionMeasurementCommand</title>
<polygon fill="none" stroke="black" stroke-width="0.5" points="1542,-210.5 1218,-210.5 1218,-189.5 1542,-189.5 1542,-210.5"/>
<text text-anchor="middle" x="1380" y="-197.5" font-family="Vera" font-size="10.00">topo.analysis.featureresponses.PositionMeasurementCommand</text>
</g>
<!-- topo.analysis.featureresponses.MeasureResponseCommand&#45;&gt;topo.analysis.featureresponses.PositionMeasurementCommand -->
<g id="edge32" class="edge"><title>topo.analysis.featureresponses.MeasureResponseCommand&#45;&gt;topo.analysis.featureresponses.PositionMeasurementCommand</title>
<path fill="none" stroke="black" stroke-width="0.5" d="M1109.17,-172.034C1161.15,-177.402 1225.14,-184.009 1277.86,-189.453"/>
<polygon fill="black" stroke="black" points="1277.77,-191.203 1282.93,-189.976 1278.13,-187.722 1277.77,-191.203"/>
</g>
<!-- topo.analysis.featureresponses.SingleInputResponseCommand -->
<g id="node25" class="node"><title>topo.analysis.featureresponses.SingleInputResponseCommand</title>
<polygon fill="none" stroke="black" stroke-width="0.5" points="1539,-172.5 1221,-172.5 1221,-151.5 1539,-151.5 1539,-172.5"/>
<text text-anchor="middle" x="1380" y="-159.5" font-family="Vera" font-size="10.00">topo.analysis.featureresponses.SingleInputResponseCommand</text>
</g>
<!-- topo.analysis.featureresponses.MeasureResponseCommand&#45;&gt;topo.analysis.featureresponses.SingleInputResponseCommand -->
<g id="edge22" class="edge"><title>topo.analysis.featureresponses.MeasureResponseCommand&#45;&gt;topo.analysis.featureresponses.SingleInputResponseCommand</title>
<path fill="none" stroke="black" stroke-width="0.5" d="M1165.67,-162C1182.01,-162 1198.68,-162 1215.14,-162"/>
<polygon fill="black" stroke="black" points="1215.25,-163.75 1220.25,-162 1215.25,-160.25 1215.25,-163.75"/>
</g>
<!-- topo.command.analysis.measure_log_frequency_preference -->
<g id="node51" class="node"><title>topo.command.analysis.measure_log_frequency_preference</title>
<polygon fill="none" stroke="black" stroke-width="0.5" points="1533,-134.5 1227,-134.5 1227,-113.5 1533,-113.5 1533,-134.5"/>
<text text-anchor="middle" x="1380" y="-121.5" font-family="Vera" font-size="10.00">topo.command.analysis.measure_log_frequency_preference</text>
</g>
<!-- topo.analysis.featureresponses.MeasureResponseCommand&#45;&gt;topo.command.analysis.measure_log_frequency_preference -->
<g id="edge50" class="edge"><title>topo.analysis.featureresponses.MeasureResponseCommand&#45;&gt;topo.command.analysis.measure_log_frequency_preference</title>
<path fill="none" stroke="black" stroke-width="0.5" d="M1109.17,-151.966C1161.15,-146.598 1225.14,-139.991 1277.86,-134.547"/>
<polygon fill="black" stroke="black" points="1278.13,-136.278 1282.93,-134.024 1277.77,-132.797 1278.13,-136.278"/>
</g>
<!-- topo.command.analysis.measure_frequency_preference -->
<g id="node53" class="node"><title>topo.command.analysis.measure_frequency_preference</title>
<polygon fill="none" stroke="black" stroke-width="0.5" points="1523,-96.5 1237,-96.5 1237,-75.5 1523,-75.5 1523,-96.5"/>
<text text-anchor="middle" x="1380" y="-83.5" font-family="Vera" font-size="10.00">topo.command.analysis.measure_frequency_preference</text>
</g>
<!-- topo.analysis.featureresponses.MeasureResponseCommand&#45;&gt;topo.command.analysis.measure_frequency_preference -->
<g id="edge52" class="edge"><title>topo.analysis.featureresponses.MeasureResponseCommand&#45;&gt;topo.command.analysis.measure_frequency_preference</title>
<path fill="none" stroke="black" stroke-width="0.5" d="M1039.6,-151.958C1076.21,-139.045 1143.09,-116.874 1202,-105 1218.29,-101.717 1235.54,-98.976 1252.64,-96.6945"/>
<polygon fill="black" stroke="black" points="1253.21,-98.385 1257.94,-96.0011 1252.75,-94.9146 1253.21,-98.385"/>
</g>
<!-- topo.command.analysis.measure_corner_or_pref -->
<g id="node20" class="node"><title>topo.command.analysis.measure_corner_or_pref</title>
<polygon fill="none" stroke="black" stroke-width="0.5" points="1855,-229.5 1603,-229.5 1603,-208.5 1855,-208.5 1855,-229.5"/>
<text text-anchor="middle" x="1729" y="-216.5" font-family="Vera" font-size="10.00">topo.command.analysis.measure_corner_or_pref</text>
</g>
<!-- topo.analysis.featureresponses.PositionMeasurementCommand&#45;&gt;topo.command.analysis.measure_corner_or_pref -->
<g id="edge18" class="edge"><title>topo.analysis.featureresponses.PositionMeasurementCommand&#45;&gt;topo.command.analysis.measure_corner_or_pref</title>
<path fill="none" stroke="black" stroke-width="0.5" d="M1542.24,-208.833C1560.87,-209.847 1579.69,-210.871 1597.84,-211.859"/>
<polygon fill="black" stroke="black" points="1597.85,-213.613 1602.94,-212.137 1598.04,-210.118 1597.85,-213.613"/>
</g>
<!-- topo.command.analysis.measure_corner_angle_pref -->
<g id="node44" class="node"><title>topo.command.analysis.measure_corner_angle_pref</title>
<polygon fill="none" stroke="black" stroke-width="0.5" points="1863,-191.5 1595,-191.5 1595,-170.5 1863,-170.5 1863,-191.5"/>
<text text-anchor="middle" x="1729" y="-178.5" font-family="Vera" font-size="10.00">topo.command.analysis.measure_corner_angle_pref</text>
</g>
<!-- topo.analysis.featureresponses.PositionMeasurementCommand&#45;&gt;topo.command.analysis.measure_corner_angle_pref -->
<g id="edge42" class="edge"><title>topo.analysis.featureresponses.PositionMeasurementCommand&#45;&gt;topo.command.analysis.measure_corner_angle_pref</title>
<path fill="none" stroke="black" stroke-width="0.5" d="M1542.24,-191.167C1557.91,-190.314 1573.72,-189.454 1589.15,-188.614"/>
<polygon fill="black" stroke="black" points="1589.47,-190.349 1594.36,-188.33 1589.28,-186.854 1589.47,-190.349"/>
</g>
<!-- topo.command.analysis.measure_rfs -->
<g id="node33" class="node"><title>topo.command.analysis.measure_rfs</title>
<polygon fill="none" stroke="black" stroke-width="0.5" points="1826,-153.5 1632,-153.5 1632,-132.5 1826,-132.5 1826,-153.5"/>
<text text-anchor="middle" x="1729" y="-140.5" font-family="Vera" font-size="10.00">topo.command.analysis.measure_rfs</text>
</g>
<!-- topo.analysis.featureresponses.SingleInputResponseCommand&#45;&gt;topo.command.analysis.measure_rfs -->
<g id="edge30" class="edge"><title>topo.analysis.featureresponses.SingleInputResponseCommand&#45;&gt;topo.command.analysis.measure_rfs</title>
<path fill="none" stroke="black" stroke-width="0.5" d="M1539.69,-153.306C1569.26,-151.696 1599.4,-150.056 1626.68,-148.57"/>
<polygon fill="black" stroke="black" points="1626.85,-150.314 1631.74,-148.295 1626.66,-146.819 1626.85,-150.314"/>
</g>
<!-- topo.analysis.featureresponses.PatternPresentingCommand&#45;&gt;topo.analysis.featureresponses.MeasureResponseCommand -->
<g id="edge54" class="edge"><title>topo.analysis.featureresponses.PatternPresentingCommand&#45;&gt;topo.analysis.featureresponses.MeasureResponseCommand</title>
<path fill="none" stroke="black" stroke-width="0.5" d="M768.375,-96.0338C786.365,-98.4682 804.776,-101.428 822,-105 878.154,-116.644 941.648,-137.258 979.172,-150.245"/>
<polygon fill="black" stroke="black" points="978.769,-151.958 984.066,-151.947 979.918,-148.652 978.769,-151.958"/>
</g>
<!-- topo.plotting.plotgroup.ProjectionSheetMeasurementCommand&#45;&gt;topo.plotting.plotgroup.UnitMeasurementCommand -->
<g id="edge46" class="edge"><title>topo.plotting.plotgroup.ProjectionSheetMeasurementCommand&#45;&gt;topo.plotting.plotgroup.UnitMeasurementCommand</title>
<path fill="none" stroke="black" stroke-width="0.5" d="M822.118,-48C839.348,-48 856.765,-48 873.698,-48"/>
<polygon fill="black" stroke="black" points="873.936,-49.7501 878.936,-48 873.936,-46.2501 873.936,-49.7501"/>
</g>
<!-- topo.command.analysis.update_projectionactivity -->
<g id="node60" class="node"><title>topo.command.analysis.update_projectionactivity</title>
<polygon fill="none" stroke="black" stroke-width="0.5" points="1139,-20.5 885,-20.5 885,0.5 1139,0.5 1139,-20.5"/>
<text text-anchor="middle" x="1012" y="-7.5" font-family="Vera" font-size="10.00">topo.command.analysis.update_projectionactivity</text>
</g>
<!-- topo.plotting.plotgroup.ProjectionSheetMeasurementCommand&#45;&gt;topo.command.analysis.update_projectionactivity -->
<g id="edge60" class="edge"><title>topo.plotting.plotgroup.ProjectionSheetMeasurementCommand&#45;&gt;topo.command.analysis.update_projectionactivity</title>
<path fill="none" stroke="black" stroke-width="0.5" d="M753.68,-37.9662C803.164,-32.609 864.045,-26.0179 914.273,-20.5801"/>
<polygon fill="black" stroke="black" points="914.627,-22.3021 919.409,-20.024 914.25,-18.8225 914.627,-22.3021"/>
</g>
</g>
</svg>
