<?xml version="1.0" encoding="UTF-8" standalone="no"?>
<!DOCTYPE svg PUBLIC "-//W3C//DTD SVG 1.1//EN"
 "http://www.w3.org/Graphics/SVG/1.1/DTD/svg11.dtd">
<!-- Generated by graphviz version 2.26.3 (20100126.1600)
 -->
<!-- Title: inheritance1f1dc666b6 Pages: 1 -->
<svg width="964pt" height="180pt"
 viewBox="0.00 0.00 964.00 180.00" xmlns="http://www.w3.org/2000/svg" xmlns:xlink="http://www.w3.org/1999/xlink">
<g id="graph1" class="graph" transform="scale(1 1) rotate(0) translate(4 176)">
<title>inheritance1f1dc666b6</title>
<polygon fill="white" stroke="white" points="-4,5 -4,-176 961,-176 961,5 -4,5"/>
<!-- topo.base.projection.OrMask -->
<g id="node1" class="node"><title>topo.base.projection.OrMask</title>
<polygon fill="none" stroke="black" stroke-width="0.5" points="936,-77.5 782,-77.5 782,-56.5 936,-56.5 936,-77.5"/>
<text text-anchor="middle" x="859" y="-64.5" font-family="Vera" font-size="10.00">topo.base.projection.OrMask</text>
</g>
<!-- topo.base.projection.CompositeSheetMask -->
<g id="node2" class="node"><title>topo.base.projection.CompositeSheetMask</title>
<polygon fill="none" stroke="black" stroke-width="0.5" points="725,-58.5 503,-58.5 503,-37.5 725,-37.5 725,-58.5"/>
<text text-anchor="middle" x="614" y="-45.5" font-family="Vera" font-size="10.00">topo.base.projection.CompositeSheetMask</text>
</g>
<!-- topo.base.projection.CompositeSheetMask&#45;&gt;topo.base.projection.OrMask -->
<g id="edge2" class="edge"><title>topo.base.projection.CompositeSheetMask&#45;&gt;topo.base.projection.OrMask</title>
<path fill="none" stroke="black" stroke-width="0.5" d="M725.746,-56.666C742.902,-57.9964 760.341,-59.3489 776.704,-60.6178"/>
<polygon fill="black" stroke="black" points="776.625,-62.3669 781.746,-61.0089 776.896,-58.8774 776.625,-62.3669"/>
</g>
<!-- topo.base.projection.AndMask -->
<g id="node15" class="node"><title>topo.base.projection.AndMask</title>
<polygon fill="none" stroke="black" stroke-width="0.5" points="939,-39.5 779,-39.5 779,-18.5 939,-18.5 939,-39.5"/>
<text text-anchor="middle" x="859" y="-26.5" font-family="Vera" font-size="10.00">topo.base.projection.AndMask</text>
</g>
<!-- topo.base.projection.CompositeSheetMask&#45;&gt;topo.base.projection.AndMask -->
<g id="edge12" class="edge"><title>topo.base.projection.CompositeSheetMask&#45;&gt;topo.base.projection.AndMask</title>
<path fill="none" stroke="black" stroke-width="0.5" d="M725.746,-39.334C741.62,-38.103 757.737,-36.8531 773.019,-35.6679"/>
<polygon fill="black" stroke="black" points="773.318,-37.4001 778.168,-35.2686 773.047,-33.9105 773.318,-37.4001"/>
</g>
<!-- topo.base.simulation.EventProcessor -->
<g id="node4" class="node"><title>topo.base.simulation.EventProcessor</title>
<polygon fill="none" stroke="black" stroke-width="0.5" points="445,-172.5 251,-172.5 251,-151.5 445,-151.5 445,-172.5"/>
<text text-anchor="middle" x="348" y="-159.5" font-family="Vera" font-size="10.00">topo.base.simulation.EventProcessor</text>
</g>
<!-- topo.base.sheet.Sheet -->
<g id="node11" class="node"><title>topo.base.sheet.Sheet</title>
<polygon fill="none" stroke="black" stroke-width="0.5" points="677,-134.5 551,-134.5 551,-113.5 677,-113.5 677,-134.5"/>
<text text-anchor="middle" x="614" y="-121.5" font-family="Vera" font-size="10.00">topo.base.sheet.Sheet</text>
</g>
<!-- topo.base.simulation.EventProcessor&#45;&gt;topo.base.sheet.Sheet -->
<g id="edge20" class="edge"><title>topo.base.simulation.EventProcessor&#45;&gt;topo.base.sheet.Sheet</title>
<path fill="none" stroke="black" stroke-width="0.5" d="M418.236,-151.966C457.568,-146.347 506.401,-139.371 545.455,-133.792"/>
<polygon fill="black" stroke="black" points="545.952,-135.489 550.654,-133.049 545.457,-132.024 545.952,-135.489"/>
</g>
<!-- param.parameterized.Parameterized -->
<g id="node5" class="node"><title>param.parameterized.Parameterized</title>
<polygon fill="none" stroke="black" stroke-width="0.5" points="194,-96.5 5.68434e-14,-96.5 0,-75.5 194,-75.5 194,-96.5"/>
<text text-anchor="middle" x="97" y="-83.5" font-family="Vera" font-size="10.00">param.parameterized.Parameterized</text>
</g>
<!-- param.parameterized.Parameterized&#45;&gt;topo.base.simulation.EventProcessor -->
<g id="edge4" class="edge"><title>param.parameterized.Parameterized&#45;&gt;topo.base.simulation.EventProcessor</title>
<path fill="none" stroke="black" stroke-width="0.5" d="M116.274,-96.0506C141.663,-108.868 188.018,-130.825 230,-143 240.715,-146.107 252.134,-148.748 263.489,-150.98"/>
<polygon fill="black" stroke="black" points="263.459,-152.756 268.698,-151.977 264.117,-149.318 263.459,-152.756"/>
</g>
<!-- topo.base.simulation.EPConnection -->
<g id="node8" class="node"><title>topo.base.simulation.EPConnection</title>
<polygon fill="none" stroke="black" stroke-width="0.5" points="441,-96.5 255,-96.5 255,-75.5 441,-75.5 441,-96.5"/>
<text text-anchor="middle" x="348" y="-83.5" font-family="Vera" font-size="10.00">topo.base.simulation.EPConnection</text>
</g>
<!-- param.parameterized.Parameterized&#45;&gt;topo.base.simulation.EPConnection -->
<g id="edge16" class="edge"><title>param.parameterized.Parameterized&#45;&gt;topo.base.simulation.EPConnection</title>
<path fill="none" stroke="black" stroke-width="0.5" d="M194.043,-86C212.327,-86 231.462,-86 249.781,-86"/>
<polygon fill="black" stroke="black" points="249.926,-87.7501 254.926,-86 249.926,-84.2501 249.926,-87.7501"/>
</g>
<!-- topo.base.projection.SheetMask -->
<g id="node13" class="node"><title>topo.base.projection.SheetMask</title>
<polygon fill="none" stroke="black" stroke-width="0.5" points="433,-58.5 263,-58.5 263,-37.5 433,-37.5 433,-58.5"/>
<text text-anchor="middle" x="348" y="-45.5" font-family="Vera" font-size="10.00">topo.base.projection.SheetMask</text>
</g>
<!-- param.parameterized.Parameterized&#45;&gt;topo.base.projection.SheetMask -->
<g id="edge10" class="edge"><title>param.parameterized.Parameterized&#45;&gt;topo.base.projection.SheetMask</title>
<path fill="none" stroke="black" stroke-width="0.5" d="M163.276,-75.9662C198.161,-70.6848 240.968,-64.204 276.587,-58.8115"/>
<polygon fill="black" stroke="black" points="277.107,-60.5029 281.789,-58.024 276.583,-57.0423 277.107,-60.5029"/>
</g>
<!-- topo.base.projection.Projection -->
<g id="node7" class="node"><title>topo.base.projection.Projection</title>
<polygon fill="none" stroke="black" stroke-width="0.5" points="696,-96.5 532,-96.5 532,-75.5 696,-75.5 696,-96.5"/>
<text text-anchor="middle" x="614" y="-83.5" font-family="Vera" font-size="10.00">topo.base.projection.Projection</text>
</g>
<!-- topo.base.simulation.EPConnection&#45;&gt;topo.base.projection.Projection -->
<g id="edge6" class="edge"><title>topo.base.simulation.EPConnection&#45;&gt;topo.base.projection.Projection</title>
<path fill="none" stroke="black" stroke-width="0.5" d="M441.034,-86C468.678,-86 498.861,-86 526.163,-86"/>
<polygon fill="black" stroke="black" points="526.226,-87.7501 531.226,-86 526.226,-84.2501 526.226,-87.7501"/>
</g>
<!-- topo.base.projection.ProjectionSheet -->
<g id="node10" class="node"><title>topo.base.projection.ProjectionSheet</title>
<polygon fill="none" stroke="black" stroke-width="0.5" points="956,-134.5 762,-134.5 762,-113.5 956,-113.5 956,-134.5"/>
<text text-anchor="middle" x="859" y="-121.5" font-family="Vera" font-size="10.00">topo.base.projection.ProjectionSheet</text>
</g>
<!-- topo.base.sheet.Sheet&#45;&gt;topo.base.projection.ProjectionSheet -->
<g id="edge8" class="edge"><title>topo.base.sheet.Sheet&#45;&gt;topo.base.projection.ProjectionSheet</title>
<path fill="none" stroke="black" stroke-width="0.5" d="M677.094,-124C701.386,-124 729.79,-124 756.834,-124"/>
<polygon fill="black" stroke="black" points="756.867,-125.75 761.867,-124 756.867,-122.25 756.867,-125.75"/>
</g>
<!-- topo.base.projection.SheetMask&#45;&gt;topo.base.projection.CompositeSheetMask -->
<g id="edge14" class="edge"><title>topo.base.projection.SheetMask&#45;&gt;topo.base.projection.CompositeSheetMask</title>
<path fill="none" stroke="black" stroke-width="0.5" d="M433.628,-48C453.875,-48 475.807,-48 497.173,-48"/>
<polygon fill="black" stroke="black" points="497.3,-49.7501 502.3,-48 497.3,-46.2501 497.3,-49.7501"/>
</g>
<!-- topo.base.projection.NeighborhoodMask -->
<g id="node19" class="node"><title>topo.base.projection.NeighborhoodMask</title>
<polygon fill="none" stroke="black" stroke-width="0.5" points="719,-20.5 509,-20.5 509,0.5 719,0.5 719,-20.5"/>
<text text-anchor="middle" x="614" y="-7.5" font-family="Vera" font-size="10.00">topo.base.projection.NeighborhoodMask</text>
</g>
<!-- topo.base.projection.SheetMask&#45;&gt;topo.base.projection.NeighborhoodMask -->
<g id="edge18" class="edge"><title>topo.base.projection.SheetMask&#45;&gt;topo.base.projection.NeighborhoodMask</title>
<path fill="none" stroke="black" stroke-width="0.5" d="M418.236,-37.9662C455.358,-32.6631 500.944,-26.1509 538.783,-20.7453"/>
<polygon fill="black" stroke="black" points="539.129,-22.4636 543.832,-20.024 538.634,-18.9988 539.129,-22.4636"/>
</g>
<!-- imagen.sheetcoords.SheetCoordinateSystem -->
<g id="node21" class="node"><title>imagen.sheetcoords.SheetCoordinateSystem</title>
<polygon fill="none" stroke="black" stroke-width="0.5" points="466,-134.5 230,-134.5 230,-113.5 466,-113.5 466,-134.5"/>
<text text-anchor="middle" x="348" y="-121.5" font-family="Vera" font-size="10.00">imagen.sheetcoords.SheetCoordinateSystem</text>
</g>
<!-- imagen.sheetcoords.SheetCoordinateSystem&#45;&gt;topo.base.sheet.Sheet -->
<g id="edge22" class="edge"><title>imagen.sheetcoords.SheetCoordinateSystem&#45;&gt;topo.base.sheet.Sheet</title>
<path fill="none" stroke="black" stroke-width="0.5" d="M466.221,-124C493.424,-124 521.462,-124 545.708,-124"/>
<polygon fill="black" stroke="black" points="545.822,-125.75 550.822,-124 545.822,-122.25 545.822,-125.75"/>
</g>
</g>
</svg>
