<?xml version="1.0" encoding="UTF-8" standalone="no"?>
<!DOCTYPE svg PUBLIC "-//W3C//DTD SVG 1.1//EN"
 "http://www.w3.org/Graphics/SVG/1.1/DTD/svg11.dtd">
<!-- Generated by graphviz version 2.26.3 (20100126.1600)
 -->
<!-- Title: inheritance95afd34832 Pages: 1 -->
<svg width="1474pt" height="674pt"
 viewBox="0.00 0.00 1474.00 674.00" xmlns="http://www.w3.org/2000/svg" xmlns:xlink="http://www.w3.org/1999/xlink">
<g id="graph1" class="graph" transform="scale(1 1) rotate(0) translate(4 670)">
<title>inheritance95afd34832</title>
<polygon fill="white" stroke="white" points="-4,5 -4,-670 1471,-670 1471,5 -4,5"/>
<!-- paramtk.DoNothingTranslator -->
<g id="node1" class="node"><title>paramtk.DoNothingTranslator</title>
<polygon fill="none" stroke="black" stroke-width="0.5" points="388,-134.5 230,-134.5 230,-113.5 388,-113.5 388,-134.5"/>
<text text-anchor="middle" x="309" y="-121.5" font-family="Vera" font-size="10.00">paramtk.DoNothingTranslator</text>
</g>
<!-- paramtk.BoolTranslator -->
<g id="node73" class="node"><title>paramtk.BoolTranslator</title>
<polygon fill="none" stroke="black" stroke-width="0.5" points="588,-134.5 460,-134.5 460,-113.5 588,-113.5 588,-134.5"/>
<text text-anchor="middle" x="524" y="-121.5" font-family="Vera" font-size="10.00">paramtk.BoolTranslator</text>
</g>
<!-- paramtk.DoNothingTranslator&#45;&gt;paramtk.BoolTranslator -->
<g id="edge68" class="edge"><title>paramtk.DoNothingTranslator&#45;&gt;paramtk.BoolTranslator</title>
<path fill="none" stroke="black" stroke-width="0.5" d="M388.142,-124C409.979,-124 433.497,-124 454.728,-124"/>
<polygon fill="black" stroke="black" points="454.788,-125.75 459.788,-124 454.788,-122.25 454.788,-125.75"/>
</g>
<!-- paramtk.Translator -->
<g id="node2" class="node"><title>paramtk.Translator</title>
<polygon fill="none" stroke="black" stroke-width="0.5" points="141,-77.5 35,-77.5 35,-56.5 141,-56.5 141,-77.5"/>
<text text-anchor="middle" x="88" y="-64.5" font-family="Vera" font-size="10.00">paramtk.Translator</text>
</g>
<!-- paramtk.Translator&#45;&gt;paramtk.DoNothingTranslator -->
<g id="edge2" class="edge"><title>paramtk.Translator&#45;&gt;paramtk.DoNothingTranslator</title>
<path fill="none" stroke="black" stroke-width="0.5" d="M117.572,-77.012C142.543,-85.2365 179.347,-96.8223 212,-105 223.434,-107.864 235.715,-110.558 247.566,-112.969"/>
<polygon fill="black" stroke="black" points="247.368,-114.714 252.615,-113.984 248.058,-111.282 247.368,-114.714"/>
</g>
<!-- paramtk.ListTranslator -->
<g id="node7" class="node"><title>paramtk.ListTranslator</title>
<polygon fill="none" stroke="black" stroke-width="0.5" points="370,-96.5 248,-96.5 248,-75.5 370,-75.5 370,-96.5"/>
<text text-anchor="middle" x="309" y="-83.5" font-family="Vera" font-size="10.00">paramtk.ListTranslator</text>
</g>
<!-- paramtk.Translator&#45;&gt;paramtk.ListTranslator -->
<g id="edge6" class="edge"><title>paramtk.Translator&#45;&gt;paramtk.ListTranslator</title>
<path fill="none" stroke="black" stroke-width="0.5" d="M141.78,-71.6236C171.978,-74.2199 209.931,-77.4828 242.043,-80.2435"/>
<polygon fill="black" stroke="black" points="242.013,-81.9973 247.145,-80.6821 242.313,-78.5102 242.013,-81.9973"/>
</g>
<!-- paramtk.Eval_ReprTranslator -->
<g id="node35" class="node"><title>paramtk.Eval_ReprTranslator</title>
<polygon fill="none" stroke="black" stroke-width="0.5" points="385,-58.5 233,-58.5 233,-37.5 385,-37.5 385,-58.5"/>
<text text-anchor="middle" x="309" y="-45.5" font-family="Vera" font-size="10.00">paramtk.Eval_ReprTranslator</text>
</g>
<!-- paramtk.Translator&#45;&gt;paramtk.Eval_ReprTranslator -->
<g id="edge30" class="edge"><title>paramtk.Translator&#45;&gt;paramtk.Eval_ReprTranslator</title>
<path fill="none" stroke="black" stroke-width="0.5" d="M141.78,-62.3764C167.52,-60.1634 198.894,-57.4662 227.482,-55.0083"/>
<polygon fill="black" stroke="black" points="227.954,-56.7243 232.786,-54.5523 227.654,-53.2371 227.954,-56.7243"/>
</g>
<!-- paramtk.String_ObjectTranslator -->
<g id="node58" class="node"><title>paramtk.String_ObjectTranslator</title>
<polygon fill="none" stroke="black" stroke-width="0.5" points="394,-20.5 224,-20.5 224,0.5 394,0.5 394,-20.5"/>
<text text-anchor="middle" x="309" y="-7.5" font-family="Vera" font-size="10.00">paramtk.String_ObjectTranslator</text>
</g>
<!-- paramtk.Translator&#45;&gt;paramtk.String_ObjectTranslator -->
<g id="edge52" class="edge"><title>paramtk.Translator&#45;&gt;paramtk.String_ObjectTranslator</title>
<path fill="none" stroke="black" stroke-width="0.5" d="M117.572,-56.988C142.543,-48.7635 179.347,-37.1777 212,-29 223.434,-26.1365 235.715,-23.4417 247.566,-21.0314"/>
<polygon fill="black" stroke="black" points="248.058,-22.7176 252.615,-20.0161 247.368,-19.2863 248.058,-22.7176"/>
</g>
<!-- paramtk.ScrolledFrame -->
<g id="node4" class="node"><title>paramtk.ScrolledFrame</title>
<polygon fill="none" stroke="black" stroke-width="0.5" points="967,-590.5 839,-590.5 839,-569.5 967,-569.5 967,-590.5"/>
<text text-anchor="middle" x="903" y="-577.5" font-family="Vera" font-size="10.00">paramtk.ScrolledFrame</text>
</g>
<!-- Tkinter.Frame -->
<g id="node5" class="node"><title>Tkinter.Frame</title>
<polygon fill="none" stroke="black" stroke-width="0.5" points="757,-476.5 677,-476.5 677,-455.5 757,-455.5 757,-476.5"/>
<text text-anchor="middle" x="717" y="-463.5" font-family="Vera" font-size="10.00">Tkinter.Frame</text>
</g>
<!-- Tkinter.Frame&#45;&gt;paramtk.ScrolledFrame -->
<g id="edge4" class="edge"><title>Tkinter.Frame&#45;&gt;paramtk.ScrolledFrame</title>
<path fill="none" stroke="black" stroke-width="0.5" d="M725.69,-476.034C743.091,-495.479 784.307,-538.364 828,-561 833.404,-563.8 839.245,-566.204 845.199,-568.264"/>
<polygon fill="black" stroke="black" points="844.923,-570.016 850.219,-569.915 846.016,-566.691 844.923,-570.016"/>
</g>
<!-- paramtk.ParametersFrame -->
<g id="node9" class="node"><title>paramtk.ParametersFrame</title>
<polygon fill="none" stroke="black" stroke-width="0.5" points="976,-628.5 830,-628.5 830,-607.5 976,-607.5 976,-628.5"/>
<text text-anchor="middle" x="903" y="-615.5" font-family="Vera" font-size="10.00">paramtk.ParametersFrame</text>
</g>
<!-- Tkinter.Frame&#45;&gt;paramtk.ParametersFrame -->
<g id="edge10" class="edge"><title>Tkinter.Frame&#45;&gt;paramtk.ParametersFrame</title>
<path fill="none" stroke="black" stroke-width="0.5" d="M724.839,-476.101C747.873,-505.677 814.573,-590.55 828,-599 832.348,-601.737 837.072,-604.08 841.961,-606.085"/>
<polygon fill="black" stroke="black" points="841.602,-607.822 846.897,-607.981 842.857,-604.555 841.602,-607.822"/>
</g>
<!-- paramtk.StatusBar -->
<g id="node28" class="node"><title>paramtk.StatusBar</title>
<polygon fill="none" stroke="black" stroke-width="0.5" points="957,-552.5 849,-552.5 849,-531.5 957,-531.5 957,-552.5"/>
<text text-anchor="middle" x="903" y="-539.5" font-family="Vera" font-size="10.00">paramtk.StatusBar</text>
</g>
<!-- Tkinter.Frame&#45;&gt;paramtk.StatusBar -->
<g id="edge24" class="edge"><title>Tkinter.Frame&#45;&gt;paramtk.StatusBar</title>
<path fill="none" stroke="black" stroke-width="0.5" d="M733.752,-476.13C755.019,-488.627 793.144,-509.83 828,-523 835.492,-525.831 843.563,-528.374 851.536,-530.609"/>
<polygon fill="black" stroke="black" points="851.197,-532.331 856.482,-531.961 852.12,-528.954 851.197,-532.331"/>
</g>
<!-- paramtk.ListWidget -->
<g id="node37" class="node"><title>paramtk.ListWidget</title>
<polygon fill="none" stroke="black" stroke-width="0.5" points="957,-514.5 849,-514.5 849,-493.5 957,-493.5 957,-514.5"/>
<text text-anchor="middle" x="903" y="-501.5" font-family="Vera" font-size="10.00">paramtk.ListWidget</text>
</g>
<!-- Tkinter.Frame&#45;&gt;paramtk.ListWidget -->
<g id="edge32" class="edge"><title>Tkinter.Frame&#45;&gt;paramtk.ListWidget</title>
<path fill="none" stroke="black" stroke-width="0.5" d="M757.818,-474.339C784.607,-479.812 819.937,-487.03 849.036,-492.975"/>
<polygon fill="black" stroke="black" points="848.772,-494.707 854.021,-493.994 849.473,-491.278 848.772,-494.707"/>
</g>
<!-- paramtk.ListItemCtrlWidget -->
<g id="node42" class="node"><title>paramtk.ListItemCtrlWidget</title>
<polygon fill="none" stroke="black" stroke-width="0.5" points="976,-476.5 830,-476.5 830,-455.5 976,-455.5 976,-476.5"/>
<text text-anchor="middle" x="903" y="-463.5" font-family="Vera" font-size="10.00">paramtk.ListItemCtrlWidget</text>
</g>
<!-- Tkinter.Frame&#45;&gt;paramtk.ListItemCtrlWidget -->
<g id="edge36" class="edge"><title>Tkinter.Frame&#45;&gt;paramtk.ListItemCtrlWidget</title>
<path fill="none" stroke="black" stroke-width="0.5" d="M757.818,-466C777.305,-466 801.31,-466 824.149,-466"/>
<polygon fill="black" stroke="black" points="824.308,-467.75 829.308,-466 824.308,-464.25 824.308,-467.75"/>
</g>
<!-- paramtk.HackFileEntry -->
<g id="node45" class="node"><title>paramtk.HackFileEntry</title>
<polygon fill="none" stroke="black" stroke-width="0.5" points="965,-438.5 841,-438.5 841,-417.5 965,-417.5 965,-438.5"/>
<text text-anchor="middle" x="903" y="-425.5" font-family="Vera" font-size="10.00">paramtk.HackFileEntry</text>
</g>
<!-- Tkinter.Frame&#45;&gt;paramtk.HackFileEntry -->
<g id="edge40" class="edge"><title>Tkinter.Frame&#45;&gt;paramtk.HackFileEntry</title>
<path fill="none" stroke="black" stroke-width="0.5" d="M757.818,-457.661C784.607,-452.188 819.937,-444.97 849.036,-439.025"/>
<polygon fill="black" stroke="black" points="849.473,-440.722 854.021,-438.006 848.772,-437.293 849.473,-440.722"/>
</g>
<!-- paramtk.TaggedSlider -->
<g id="node47" class="node"><title>paramtk.TaggedSlider</title>
<polygon fill="none" stroke="black" stroke-width="0.5" points="963,-400.5 843,-400.5 843,-379.5 963,-379.5 963,-400.5"/>
<text text-anchor="middle" x="903" y="-387.5" font-family="Vera" font-size="10.00">paramtk.TaggedSlider</text>
</g>
<!-- Tkinter.Frame&#45;&gt;paramtk.TaggedSlider -->
<g id="edge42" class="edge"><title>Tkinter.Frame&#45;&gt;paramtk.TaggedSlider</title>
<path fill="none" stroke="black" stroke-width="0.5" d="M733.752,-455.87C755.019,-443.373 793.144,-422.17 828,-409 835.492,-406.169 843.563,-403.626 851.536,-401.391"/>
<polygon fill="black" stroke="black" points="852.12,-403.046 856.482,-400.039 851.197,-399.669 852.12,-403.046"/>
</g>
<!-- paramtk.ProgressWindow -->
<g id="node81" class="node"><title>paramtk.ProgressWindow</title>
<polygon fill="none" stroke="black" stroke-width="0.5" points="971,-362.5 835,-362.5 835,-341.5 971,-341.5 971,-362.5"/>
<text text-anchor="middle" x="903" y="-349.5" font-family="Vera" font-size="10.00">paramtk.ProgressWindow</text>
</g>
<!-- Tkinter.Frame&#45;&gt;paramtk.ProgressWindow -->
<g id="edge80" class="edge"><title>Tkinter.Frame&#45;&gt;paramtk.ProgressWindow</title>
<path fill="none" stroke="black" stroke-width="0.5" d="M725.69,-455.966C743.091,-436.521 784.307,-393.636 828,-371 833.404,-368.2 839.245,-365.796 845.199,-363.736"/>
<polygon fill="black" stroke="black" points="846.016,-365.309 850.219,-362.085 844.923,-361.984 846.016,-365.309"/>
</g>
<!-- paramtk.ParametersFrameWithApply -->
<g id="node53" class="node"><title>paramtk.ParametersFrameWithApply</title>
<polygon fill="none" stroke="black" stroke-width="0.5" points="1206,-628.5 1014,-628.5 1014,-607.5 1206,-607.5 1206,-628.5"/>
<text text-anchor="middle" x="1110" y="-615.5" font-family="Vera" font-size="10.00">paramtk.ParametersFrameWithApply</text>
</g>
<!-- paramtk.ParametersFrame&#45;&gt;paramtk.ParametersFrameWithApply -->
<g id="edge46" class="edge"><title>paramtk.ParametersFrame&#45;&gt;paramtk.ParametersFrameWithApply</title>
<path fill="none" stroke="black" stroke-width="0.5" d="M976.272,-618C986.862,-618 997.915,-618 1008.93,-618"/>
<polygon fill="black" stroke="black" points="1008.99,-619.75 1013.99,-618 1008.99,-616.25 1008.99,-619.75"/>
</g>
<!-- paramtk.TkParameterized -->
<g id="node10" class="node"><title>paramtk.TkParameterized</title>
<polygon fill="none" stroke="black" stroke-width="0.5" points="787,-628.5 647,-628.5 647,-607.5 787,-607.5 787,-628.5"/>
<text text-anchor="middle" x="717" y="-615.5" font-family="Vera" font-size="10.00">paramtk.TkParameterized</text>
</g>
<!-- paramtk.TkParameterized&#45;&gt;paramtk.ParametersFrame -->
<g id="edge8" class="edge"><title>paramtk.TkParameterized&#45;&gt;paramtk.ParametersFrame</title>
<path fill="none" stroke="black" stroke-width="0.5" d="M787.054,-618C799.308,-618 812.13,-618 824.593,-618"/>
<polygon fill="black" stroke="black" points="824.909,-619.75 829.909,-618 824.909,-616.25 824.909,-619.75"/>
</g>
<!-- paramtk.ScrolledWindow -->
<g id="node13" class="node"><title>paramtk.ScrolledWindow</title>
<polygon fill="none" stroke="black" stroke-width="0.5" points="784,-172.5 650,-172.5 650,-151.5 784,-151.5 784,-172.5"/>
<text text-anchor="middle" x="717" y="-159.5" font-family="Vera" font-size="10.00">paramtk.ScrolledWindow</text>
</g>
<!-- paramtk.AppWindow -->
<g id="node32" class="node"><title>paramtk.AppWindow</title>
<polygon fill="none" stroke="black" stroke-width="0.5" points="960,-172.5 846,-172.5 846,-151.5 960,-151.5 960,-172.5"/>
<text text-anchor="middle" x="903" y="-159.5" font-family="Vera" font-size="10.00">paramtk.AppWindow</text>
</g>
<!-- paramtk.ScrolledWindow&#45;&gt;paramtk.AppWindow -->
<g id="edge28" class="edge"><title>paramtk.ScrolledWindow&#45;&gt;paramtk.AppWindow</title>
<path fill="none" stroke="black" stroke-width="0.5" d="M784.15,-162C802.603,-162 822.53,-162 840.697,-162"/>
<polygon fill="black" stroke="black" points="840.771,-163.75 845.771,-162 840.771,-160.25 840.771,-163.75"/>
</g>
<!-- Tkinter.Toplevel -->
<g id="node14" class="node"><title>Tkinter.Toplevel</title>
<polygon fill="none" stroke="black" stroke-width="0.5" points="568,-172.5 480,-172.5 480,-151.5 568,-151.5 568,-172.5"/>
<text text-anchor="middle" x="524" y="-159.5" font-family="Vera" font-size="10.00">Tkinter.Toplevel</text>
</g>
<!-- Tkinter.Toplevel&#45;&gt;paramtk.ScrolledWindow -->
<g id="edge12" class="edge"><title>Tkinter.Toplevel&#45;&gt;paramtk.ScrolledWindow</title>
<path fill="none" stroke="black" stroke-width="0.5" d="M568.763,-162C591.313,-162 619.213,-162 644.705,-162"/>
<polygon fill="black" stroke="black" points="644.769,-163.75 649.769,-162 644.769,-160.25 644.769,-163.75"/>
</g>
<!-- paramtk.ToolTip -->
<g id="node77" class="node"><title>paramtk.ToolTip</title>
<polygon fill="none" stroke="black" stroke-width="0.5" points="763,-134.5 671,-134.5 671,-113.5 763,-113.5 763,-134.5"/>
<text text-anchor="middle" x="717" y="-121.5" font-family="Vera" font-size="10.00">paramtk.ToolTip</text>
</g>
<!-- Tkinter.Toplevel&#45;&gt;paramtk.ToolTip -->
<g id="edge74" class="edge"><title>Tkinter.Toplevel&#45;&gt;paramtk.ToolTip</title>
<path fill="none" stroke="black" stroke-width="0.5" d="M568.763,-153.187C597.711,-147.487 635.478,-140.051 665.646,-134.111"/>
<polygon fill="black" stroke="black" points="666.235,-135.779 670.802,-133.096 665.558,-132.345 666.235,-135.779"/>
</g>
<!-- paramtk.TkParameterizedBase -->
<g id="node16" class="node"><title>paramtk.TkParameterizedBase</title>
<polygon fill="none" stroke="black" stroke-width="0.5" points="606,-628.5 442,-628.5 442,-607.5 606,-607.5 606,-628.5"/>
<text text-anchor="middle" x="524" y="-615.5" font-family="Vera" font-size="10.00">paramtk.TkParameterizedBase</text>
</g>
<!-- paramtk.TkParameterizedBase&#45;&gt;paramtk.TkParameterized -->
<g id="edge14" class="edge"><title>paramtk.TkParameterizedBase&#45;&gt;paramtk.TkParameterized</title>
<path fill="none" stroke="black" stroke-width="0.5" d="M606.129,-618C617.873,-618 629.908,-618 641.516,-618"/>
<polygon fill="black" stroke="black" points="641.817,-619.75 646.817,-618 641.817,-616.25 641.817,-619.75"/>
</g>
<!-- param.parameterized.Parameterized -->
<g id="node18" class="node"><title>param.parameterized.Parameterized</title>
<polygon fill="none" stroke="black" stroke-width="0.5" points="406,-609.5 212,-609.5 212,-588.5 406,-588.5 406,-609.5"/>
<text text-anchor="middle" x="309" y="-596.5" font-family="Vera" font-size="10.00">param.parameterized.Parameterized</text>
</g>
<!-- param.parameterized.Parameterized&#45;&gt;paramtk.TkParameterizedBase -->
<g id="edge26" class="edge"><title>param.parameterized.Parameterized&#45;&gt;paramtk.TkParameterizedBase</title>
<path fill="none" stroke="black" stroke-width="0.5" d="M406.121,-607.583C416.261,-608.479 426.525,-609.386 436.548,-610.272"/>
<polygon fill="black" stroke="black" points="436.631,-612.036 441.766,-610.733 436.939,-608.549 436.631,-612.036"/>
</g>
<!-- paramtk.Representer -->
<g id="node40" class="node"><title>paramtk.Representer</title>
<polygon fill="none" stroke="black" stroke-width="0.5" points="583,-590.5 465,-590.5 465,-569.5 583,-569.5 583,-590.5"/>
<text text-anchor="middle" x="524" y="-577.5" font-family="Vera" font-size="10.00">paramtk.Representer</text>
</g>
<!-- param.parameterized.Parameterized&#45;&gt;paramtk.Representer -->
<g id="edge38" class="edge"><title>param.parameterized.Parameterized&#45;&gt;paramtk.Representer</title>
<path fill="none" stroke="black" stroke-width="0.5" d="M406.121,-590.417C424.274,-588.813 442.826,-587.174 459.679,-585.684"/>
<polygon fill="black" stroke="black" points="460.026,-587.41 464.853,-585.227 459.718,-583.924 460.026,-587.41"/>
</g>
<!-- Tkinter.Widget -->
<g id="node19" class="node"><title>Tkinter.Widget</title>
<polygon fill="none" stroke="black" stroke-width="0.5" points="565,-286.5 483,-286.5 483,-265.5 565,-265.5 565,-286.5"/>
<text text-anchor="middle" x="524" y="-273.5" font-family="Vera" font-size="10.00">Tkinter.Widget</text>
</g>
<!-- Tkinter.Widget&#45;&gt;Tkinter.Frame -->
<g id="edge16" class="edge"><title>Tkinter.Widget&#45;&gt;Tkinter.Frame</title>
<path fill="none" stroke="black" stroke-width="0.5" d="M534.377,-286.215C566.71,-318.046 665.687,-415.484 702.771,-451.992"/>
<polygon fill="black" stroke="black" points="701.781,-453.474 706.572,-455.734 704.237,-450.979 701.781,-453.474"/>
</g>
<!-- Tkinter.Menu -->
<g id="node22" class="node"><title>Tkinter.Menu</title>
<polygon fill="none" stroke="black" stroke-width="0.5" points="755,-324.5 679,-324.5 679,-303.5 755,-303.5 755,-324.5"/>
<text text-anchor="middle" x="717" y="-311.5" font-family="Vera" font-size="10.00">Tkinter.Menu</text>
</g>
<!-- Tkinter.Widget&#45;&gt;Tkinter.Menu -->
<g id="edge48" class="edge"><title>Tkinter.Widget&#45;&gt;Tkinter.Menu</title>
<path fill="none" stroke="black" stroke-width="0.5" d="M565.878,-284.245C597.659,-290.503 641.226,-299.081 673.418,-305.419"/>
<polygon fill="black" stroke="black" points="673.239,-307.167 678.483,-306.416 673.916,-303.733 673.239,-307.167"/>
</g>
<!-- paramtk.Scrodget -->
<g id="node24" class="node"><title>paramtk.Scrodget</title>
<polygon fill="none" stroke="black" stroke-width="0.5" points="769,-210.5 665,-210.5 665,-189.5 769,-189.5 769,-210.5"/>
<text text-anchor="middle" x="717" y="-197.5" font-family="Vera" font-size="10.00">paramtk.Scrodget</text>
</g>
<!-- Tkinter.Widget&#45;&gt;paramtk.Scrodget -->
<g id="edge22" class="edge"><title>Tkinter.Widget&#45;&gt;paramtk.Scrodget</title>
<path fill="none" stroke="black" stroke-width="0.5" d="M541.899,-265.939C564.601,-253.514 605.228,-232.383 642,-219 649.735,-216.185 658.065,-213.629 666.261,-211.369"/>
<polygon fill="black" stroke="black" points="666.968,-212.991 671.34,-210 666.057,-209.611 666.968,-212.991"/>
</g>
<!-- paramtk.Balloon -->
<g id="node67" class="node"><title>paramtk.Balloon</title>
<polygon fill="none" stroke="black" stroke-width="0.5" points="764,-286.5 670,-286.5 670,-265.5 764,-265.5 764,-286.5"/>
<text text-anchor="middle" x="717" y="-273.5" font-family="Vera" font-size="10.00">paramtk.Balloon</text>
</g>
<!-- Tkinter.Widget&#45;&gt;paramtk.Balloon -->
<g id="edge58" class="edge"><title>Tkinter.Widget&#45;&gt;paramtk.Balloon</title>
<path fill="none" stroke="black" stroke-width="0.5" d="M565.878,-276C594.699,-276 633.211,-276 664.144,-276"/>
<polygon fill="black" stroke="black" points="664.433,-277.75 669.433,-276 664.433,-274.25 664.433,-277.75"/>
</g>
<!-- Tkinter.Button -->
<g id="node79" class="node"><title>Tkinter.Button</title>
<polygon fill="none" stroke="black" stroke-width="0.5" points="758,-248.5 676,-248.5 676,-227.5 758,-227.5 758,-248.5"/>
<text text-anchor="middle" x="717" y="-235.5" font-family="Vera" font-size="10.00">Tkinter.Button</text>
</g>
<!-- Tkinter.Widget&#45;&gt;Tkinter.Button -->
<g id="edge76" class="edge"><title>Tkinter.Widget&#45;&gt;Tkinter.Button</title>
<path fill="none" stroke="black" stroke-width="0.5" d="M565.878,-267.755C596.607,-261.704 638.353,-253.485 670.183,-247.218"/>
<polygon fill="black" stroke="black" points="670.636,-248.912 675.204,-246.229 669.96,-245.478 670.636,-248.912"/>
</g>
<!-- paramtk.Menu -->
<g id="node21" class="node"><title>paramtk.Menu</title>
<polygon fill="none" stroke="black" stroke-width="0.5" points="946,-324.5 860,-324.5 860,-303.5 946,-303.5 946,-324.5"/>
<text text-anchor="middle" x="903" y="-311.5" font-family="Vera" font-size="10.00">paramtk.Menu</text>
</g>
<!-- Tkinter.Menu&#45;&gt;paramtk.Menu -->
<g id="edge18" class="edge"><title>Tkinter.Menu&#45;&gt;paramtk.Menu</title>
<path fill="none" stroke="black" stroke-width="0.5" d="M755.539,-314C784.308,-314 823.811,-314 854.69,-314"/>
<polygon fill="black" stroke="black" points="854.959,-315.75 859.959,-314 854.959,-312.25 854.959,-315.75"/>
</g>
<!-- paramtk.ScrodgetWidget -->
<g id="node25" class="node"><title>paramtk.ScrodgetWidget</title>
<polygon fill="none" stroke="black" stroke-width="0.5" points="592,-210.5 456,-210.5 456,-189.5 592,-189.5 592,-210.5"/>
<text text-anchor="middle" x="524" y="-197.5" font-family="Vera" font-size="10.00">paramtk.ScrodgetWidget</text>
</g>
<!-- paramtk.ScrodgetWidget&#45;&gt;paramtk.Scrodget -->
<g id="edge20" class="edge"><title>paramtk.ScrodgetWidget&#45;&gt;paramtk.Scrodget</title>
<path fill="none" stroke="black" stroke-width="0.5" d="M592.045,-200C614.148,-200 638.44,-200 659.681,-200"/>
<polygon fill="black" stroke="black" points="659.728,-201.75 664.728,-200 659.728,-198.25 659.728,-201.75"/>
</g>
<!-- paramtk.ProgressController -->
<g id="node31" class="node"><title>paramtk.ProgressController</title>
<polygon fill="none" stroke="black" stroke-width="0.5" points="791,-362.5 643,-362.5 643,-341.5 791,-341.5 791,-362.5"/>
<text text-anchor="middle" x="717" y="-349.5" font-family="Vera" font-size="10.00">paramtk.ProgressController</text>
</g>
<!-- paramtk.ProgressController&#45;&gt;paramtk.ProgressWindow -->
<g id="edge78" class="edge"><title>paramtk.ProgressController&#45;&gt;paramtk.ProgressWindow</title>
<path fill="none" stroke="black" stroke-width="0.5" d="M791.582,-352C803.962,-352 816.797,-352 829.159,-352"/>
<polygon fill="black" stroke="black" points="829.426,-353.75 834.426,-352 829.426,-350.25 829.426,-353.75"/>
</g>
<!-- Tkinter.Misc -->
<g id="node34" class="node"><title>Tkinter.Misc</title>
<polygon fill="none" stroke="black" stroke-width="0.5" points="124,-210.5 52,-210.5 52,-189.5 124,-189.5 124,-210.5"/>
<text text-anchor="middle" x="88" y="-197.5" font-family="Vera" font-size="10.00">Tkinter.Misc</text>
</g>
<!-- Tkinter.BaseWidget -->
<g id="node65" class="node"><title>Tkinter.BaseWidget</title>
<polygon fill="none" stroke="black" stroke-width="0.5" points="362,-210.5 256,-210.5 256,-189.5 362,-189.5 362,-210.5"/>
<text text-anchor="middle" x="309" y="-197.5" font-family="Vera" font-size="10.00">Tkinter.BaseWidget</text>
</g>
<!-- Tkinter.Misc&#45;&gt;Tkinter.BaseWidget -->
<g id="edge56" class="edge"><title>Tkinter.Misc&#45;&gt;Tkinter.BaseWidget</title>
<path fill="none" stroke="black" stroke-width="0.5" d="M124.494,-200C158.637,-200 210.226,-200 250.18,-200"/>
<polygon fill="black" stroke="black" points="250.489,-201.75 255.489,-200 250.489,-198.25 250.489,-201.75"/>
</g>
<!-- paramtk.ListRepresenter -->
<g id="node39" class="node"><title>paramtk.ListRepresenter</title>
<polygon fill="none" stroke="black" stroke-width="0.5" points="784,-590.5 650,-590.5 650,-569.5 784,-569.5 784,-590.5"/>
<text text-anchor="middle" x="717" y="-577.5" font-family="Vera" font-size="10.00">paramtk.ListRepresenter</text>
</g>
<!-- paramtk.Representer&#45;&gt;paramtk.ListRepresenter -->
<g id="edge34" class="edge"><title>paramtk.Representer&#45;&gt;paramtk.ListRepresenter</title>
<path fill="none" stroke="black" stroke-width="0.5" d="M583.218,-580C602.627,-580 624.413,-580 644.678,-580"/>
<polygon fill="black" stroke="black" points="644.795,-581.75 649.795,-580 644.795,-578.25 644.795,-581.75"/>
</g>
<!-- Tkinter.Wm -->
<g id="node49" class="node"><title>Tkinter.Wm</title>
<polygon fill="none" stroke="black" stroke-width="0.5" points="343,-172.5 275,-172.5 275,-151.5 343,-151.5 343,-172.5"/>
<text text-anchor="middle" x="309" y="-159.5" font-family="Vera" font-size="10.00">Tkinter.Wm</text>
</g>
<!-- Tkinter.Wm&#45;&gt;Tkinter.Toplevel -->
<g id="edge72" class="edge"><title>Tkinter.Wm&#45;&gt;Tkinter.Toplevel</title>
<path fill="none" stroke="black" stroke-width="0.5" d="M343.543,-162C378.874,-162 434.11,-162 474.169,-162"/>
<polygon fill="black" stroke="black" points="474.47,-163.75 479.47,-162 474.47,-160.25 474.47,-163.75"/>
</g>
<!-- paramtk.Button -->
<g id="node50" class="node"><title>paramtk.Button</title>
<polygon fill="none" stroke="black" stroke-width="0.5" points="570,-666.5 478,-666.5 478,-645.5 570,-645.5 570,-666.5"/>
<text text-anchor="middle" x="524" y="-653.5" font-family="Vera" font-size="10.00">paramtk.Button</text>
</g>
<!-- param.Callable -->
<g id="node51" class="node"><title>param.Callable</title>
<polygon fill="none" stroke="black" stroke-width="0.5" points="353,-666.5 265,-666.5 265,-645.5 353,-645.5 353,-666.5"/>
<text text-anchor="middle" x="309" y="-653.5" font-family="Vera" font-size="10.00">param.Callable</text>
</g>
<!-- param.Callable&#45;&gt;paramtk.Button -->
<g id="edge44" class="edge"><title>param.Callable&#45;&gt;paramtk.Button</title>
<path fill="none" stroke="black" stroke-width="0.5" d="M353.548,-656C388.132,-656 436.136,-656 472.391,-656"/>
<polygon fill="black" stroke="black" points="472.652,-657.75 477.652,-656 472.652,-654.25 472.652,-657.75"/>
</g>
<!-- paramtk.EditingParametersFrameWithApply -->
<g id="node63" class="node"><title>paramtk.EditingParametersFrameWithApply</title>
<polygon fill="none" stroke="black" stroke-width="0.5" points="1466,-628.5 1242,-628.5 1242,-607.5 1466,-607.5 1466,-628.5"/>
<text text-anchor="middle" x="1354" y="-615.5" font-family="Vera" font-size="10.00">paramtk.EditingParametersFrameWithApply</text>
</g>
<!-- paramtk.ParametersFrameWithApply&#45;&gt;paramtk.EditingParametersFrameWithApply -->
<g id="edge54" class="edge"><title>paramtk.ParametersFrameWithApply&#45;&gt;paramtk.EditingParametersFrameWithApply</title>
<path fill="none" stroke="black" stroke-width="0.5" d="M1206.09,-618C1216.17,-618 1226.5,-618 1236.79,-618"/>
<polygon fill="black" stroke="black" points="1236.84,-619.75 1241.84,-618 1236.84,-616.25 1236.84,-619.75"/>
</g>
<!-- Tkinter.Pack -->
<g id="node56" class="node"><title>Tkinter.Pack</title>
<polygon fill="none" stroke="black" stroke-width="0.5" points="345,-324.5 273,-324.5 273,-303.5 345,-303.5 345,-324.5"/>
<text text-anchor="middle" x="309" y="-311.5" font-family="Vera" font-size="10.00">Tkinter.Pack</text>
</g>
<!-- Tkinter.Pack&#45;&gt;Tkinter.Widget -->
<g id="edge62" class="edge"><title>Tkinter.Pack&#45;&gt;Tkinter.Widget</title>
<path fill="none" stroke="black" stroke-width="0.5" d="M345.96,-307.468C382.269,-301.05 437.801,-291.235 477.179,-284.275"/>
<polygon fill="black" stroke="black" points="477.764,-285.949 482.383,-283.356 477.154,-282.503 477.764,-285.949"/>
</g>
<!-- paramtk.CSPTranslator -->
<g id="node57" class="node"><title>paramtk.CSPTranslator</title>
<polygon fill="none" stroke="black" stroke-width="0.5" points="587,-20.5 461,-20.5 461,0.5 587,0.5 587,-20.5"/>
<text text-anchor="middle" x="524" y="-7.5" font-family="Vera" font-size="10.00">paramtk.CSPTranslator</text>
</g>
<!-- paramtk.String_ObjectTranslator&#45;&gt;paramtk.CSPTranslator -->
<g id="edge50" class="edge"><title>paramtk.String_ObjectTranslator&#45;&gt;paramtk.CSPTranslator</title>
<path fill="none" stroke="black" stroke-width="0.5" d="M394.591,-10C414.822,-10 436.133,-10 455.493,-10"/>
<polygon fill="black" stroke="black" points="455.899,-11.7501 460.899,-10 455.899,-8.25009 455.899,-11.7501"/>
</g>
<!-- Tkinter.Place -->
<g id="node61" class="node"><title>Tkinter.Place</title>
<polygon fill="none" stroke="black" stroke-width="0.5" points="347,-286.5 271,-286.5 271,-265.5 347,-265.5 347,-286.5"/>
<text text-anchor="middle" x="309" y="-273.5" font-family="Vera" font-size="10.00">Tkinter.Place</text>
</g>
<!-- Tkinter.Place&#45;&gt;Tkinter.Widget -->
<g id="edge64" class="edge"><title>Tkinter.Place&#45;&gt;Tkinter.Widget</title>
<path fill="none" stroke="black" stroke-width="0.5" d="M347.935,-276C384.299,-276 438.629,-276 477.308,-276"/>
<polygon fill="black" stroke="black" points="477.42,-277.75 482.42,-276 477.42,-274.25 477.42,-277.75"/>
</g>
<!-- Tkinter.Grid -->
<g id="node62" class="node"><title>Tkinter.Grid</title>
<polygon fill="none" stroke="black" stroke-width="0.5" points="344,-248.5 274,-248.5 274,-227.5 344,-227.5 344,-248.5"/>
<text text-anchor="middle" x="309" y="-235.5" font-family="Vera" font-size="10.00">Tkinter.Grid</text>
</g>
<!-- Tkinter.Grid&#45;&gt;Tkinter.Widget -->
<g id="edge66" class="edge"><title>Tkinter.Grid&#45;&gt;Tkinter.Widget</title>
<path fill="none" stroke="black" stroke-width="0.5" d="M344.503,-244.275C380.687,-250.67 437.012,-260.625 476.905,-267.676"/>
<polygon fill="black" stroke="black" points="476.947,-269.461 482.175,-268.608 477.556,-266.014 476.947,-269.461"/>
</g>
<!-- Tkinter.BaseWidget&#45;&gt;Tkinter.Toplevel -->
<g id="edge70" class="edge"><title>Tkinter.BaseWidget&#45;&gt;Tkinter.Toplevel</title>
<path fill="none" stroke="black" stroke-width="0.5" d="M362.699,-190.509C396.819,-184.479 440.681,-176.726 474.052,-170.828"/>
<polygon fill="black" stroke="black" points="474.695,-172.492 479.314,-169.898 474.086,-169.045 474.695,-172.492"/>
</g>
<!-- Tkinter.BaseWidget&#45;&gt;Tkinter.Widget -->
<g id="edge60" class="edge"><title>Tkinter.BaseWidget&#45;&gt;Tkinter.Widget</title>
<path fill="none" stroke="black" stroke-width="0.5" d="M362.75,-207.983C377,-210.787 392.243,-214.415 406,-219 441.006,-230.667 479.019,-250.43 502.178,-263.347"/>
<polygon fill="black" stroke="black" points="501.39,-264.912 506.607,-265.835 503.105,-261.86 501.39,-264.912"/>
</g>
<!-- paramtk.FocusTakingButton -->
<g id="node85" class="node"><title>paramtk.FocusTakingButton</title>
<polygon fill="none" stroke="black" stroke-width="0.5" points="977,-248.5 829,-248.5 829,-227.5 977,-227.5 977,-248.5"/>
<text text-anchor="middle" x="903" y="-235.5" font-family="Vera" font-size="10.00">paramtk.FocusTakingButton</text>
</g>
<!-- Tkinter.Button&#45;&gt;paramtk.FocusTakingButton -->
<g id="edge82" class="edge"><title>Tkinter.Button&#45;&gt;paramtk.FocusTakingButton</title>
<path fill="none" stroke="black" stroke-width="0.5" d="M758.742,-238C777.861,-238 801.182,-238 823.453,-238"/>
<polygon fill="black" stroke="black" points="823.485,-239.75 828.485,-238 823.485,-236.25 823.485,-239.75"/>
</g>
<!-- param.parameterized.Parameter -->
<g id="node84" class="node"><title>param.parameterized.Parameter</title>
<polygon fill="none" stroke="black" stroke-width="0.5" points="175,-666.5 1,-666.5 1,-645.5 175,-645.5 175,-666.5"/>
<text text-anchor="middle" x="88" y="-653.5" font-family="Vera" font-size="10.00">param.parameterized.Parameter</text>
</g>
<!-- param.parameterized.Parameter&#45;&gt;param.Callable -->
<g id="edge84" class="edge"><title>param.parameterized.Parameter&#45;&gt;param.Callable</title>
<path fill="none" stroke="black" stroke-width="0.5" d="M175.662,-656C204.015,-656 234.464,-656 259.097,-656"/>
<polygon fill="black" stroke="black" points="259.263,-657.75 264.263,-656 259.263,-654.25 259.263,-657.75"/>
</g>
</g>
</svg>
