<?xml version="1.0" encoding="UTF-8" standalone="no"?>
<!DOCTYPE svg PUBLIC "-//W3C//DTD SVG 1.1//EN"
 "http://www.w3.org/Graphics/SVG/1.1/DTD/svg11.dtd">
<!-- Generated by graphviz version 2.26.3 (20100126.1600)
 -->
<!-- Title: inheritance273a80740e Pages: 1 -->
<svg width="856pt" height="902pt"
 viewBox="0.00 0.00 856.00 902.00" xmlns="http://www.w3.org/2000/svg" xmlns:xlink="http://www.w3.org/1999/xlink">
<g id="graph1" class="graph" transform="scale(1 1) rotate(0) translate(4 898)">
<title>inheritance273a80740e</title>
<polygon fill="white" stroke="white" points="-4,5 -4,-898 853,-898 853,5 -4,5"/>
<!-- imagen.Line -->
<g id="node1" class="node"><title>imagen.Line</title>
<polygon fill="none" stroke="black" stroke-width="0.5" points="609,-856.5 535,-856.5 535,-835.5 609,-835.5 609,-856.5"/>
<text text-anchor="middle" x="572" y="-843.5" font-family="Vera" font-size="10.00">imagen.Line</text>
</g>
<!-- imagen.patterngenerator.PatternGenerator -->
<g id="node2" class="node"><title>imagen.patterngenerator.PatternGenerator</title>
<polygon fill="none" stroke="black" stroke-width="0.5" points="454,-438.5 230,-438.5 230,-417.5 454,-417.5 454,-438.5"/>
<text text-anchor="middle" x="342" y="-425.5" font-family="Vera" font-size="10.00">imagen.patterngenerator.PatternGenerator</text>
</g>
<!-- imagen.patterngenerator.PatternGenerator&#45;&gt;imagen.Line -->
<g id="edge2" class="edge"><title>imagen.patterngenerator.PatternGenerator&#45;&gt;imagen.Line</title>
<path fill="none" stroke="black" stroke-width="0.5" d="M342.438,-438.27C345.191,-489.18 364.371,-716.449 490,-827 500.748,-836.458 515.278,-841.459 529.123,-844.03"/>
<polygon fill="black" stroke="black" points="528.964,-845.778 534.184,-844.871 529.538,-842.325 528.964,-845.778"/>
</g>
<!-- imagen.HalfPlane -->
<g id="node6" class="node"><title>imagen.HalfPlane</title>
<polygon fill="none" stroke="black" stroke-width="0.5" points="622,-818.5 522,-818.5 522,-797.5 622,-797.5 622,-818.5"/>
<text text-anchor="middle" x="572" y="-805.5" font-family="Vera" font-size="10.00">imagen.HalfPlane</text>
</g>
<!-- imagen.patterngenerator.PatternGenerator&#45;&gt;imagen.HalfPlane -->
<g id="edge6" class="edge"><title>imagen.patterngenerator.PatternGenerator&#45;&gt;imagen.HalfPlane</title>
<path fill="none" stroke="black" stroke-width="0.5" d="M342.878,-438.255C347.555,-486.225 373.897,-690.27 490,-789 497.489,-795.369 506.705,-799.702 516.223,-802.63"/>
<polygon fill="black" stroke="black" points="515.933,-804.367 521.22,-804.037 516.881,-800.997 515.933,-804.367"/>
</g>
<!-- imagen.SineGrating -->
<g id="node8" class="node"><title>imagen.SineGrating</title>
<polygon fill="none" stroke="black" stroke-width="0.5" points="628,-780.5 516,-780.5 516,-759.5 628,-759.5 628,-780.5"/>
<text text-anchor="middle" x="572" y="-767.5" font-family="Vera" font-size="10.00">imagen.SineGrating</text>
</g>
<!-- imagen.patterngenerator.PatternGenerator&#45;&gt;imagen.SineGrating -->
<g id="edge8" class="edge"><title>imagen.patterngenerator.PatternGenerator&#45;&gt;imagen.SineGrating</title>
<path fill="none" stroke="black" stroke-width="0.5" d="M343.386,-438.081C350.072,-482.676 383.187,-663.842 490,-751 496.188,-756.05 503.472,-759.809 511.101,-762.599"/>
<polygon fill="black" stroke="black" points="510.592,-764.274 515.889,-764.214 511.711,-760.958 510.592,-764.274"/>
</g>
<!-- imagen.SquareGrating -->
<g id="node10" class="node"><title>imagen.SquareGrating</title>
<polygon fill="none" stroke="black" stroke-width="0.5" points="634,-742.5 510,-742.5 510,-721.5 634,-721.5 634,-742.5"/>
<text text-anchor="middle" x="572" y="-729.5" font-family="Vera" font-size="10.00">imagen.SquareGrating</text>
</g>
<!-- imagen.patterngenerator.PatternGenerator&#45;&gt;imagen.SquareGrating -->
<g id="edge10" class="edge"><title>imagen.patterngenerator.PatternGenerator&#45;&gt;imagen.SquareGrating</title>
<path fill="none" stroke="black" stroke-width="0.5" d="M344.023,-438.009C352.903,-479.239 392.423,-637.308 490,-713 494.42,-716.429 499.352,-719.257 504.544,-721.588"/>
<polygon fill="black" stroke="black" points="504.088,-723.293 509.377,-723.591 505.428,-720.06 504.088,-723.293"/>
</g>
<!-- imagen.PowerSpectrum -->
<g id="node14" class="node"><title>imagen.PowerSpectrum</title>
<polygon fill="none" stroke="black" stroke-width="0.5" points="637,-704.5 507,-704.5 507,-683.5 637,-683.5 637,-704.5"/>
<text text-anchor="middle" x="572" y="-691.5" font-family="Vera" font-size="10.00">imagen.PowerSpectrum</text>
</g>
<!-- imagen.patterngenerator.PatternGenerator&#45;&gt;imagen.PowerSpectrum -->
<g id="edge66" class="edge"><title>imagen.patterngenerator.PatternGenerator&#45;&gt;imagen.PowerSpectrum</title>
<path fill="none" stroke="black" stroke-width="0.5" d="M344.912,-438.209C356.313,-476.227 401.696,-610.707 490,-675 493.566,-677.597 497.432,-679.845 501.476,-681.791"/>
<polygon fill="black" stroke="black" points="501.019,-683.504 506.299,-683.94 502.444,-680.306 501.019,-683.504"/>
</g>
<!-- imagen.SigmoidedDoG -->
<g id="node16" class="node"><title>imagen.SigmoidedDoG</title>
<polygon fill="none" stroke="black" stroke-width="0.5" points="636,-666.5 508,-666.5 508,-645.5 636,-645.5 636,-666.5"/>
<text text-anchor="middle" x="572" y="-653.5" font-family="Vera" font-size="10.00">imagen.SigmoidedDoG</text>
</g>
<!-- imagen.patterngenerator.PatternGenerator&#45;&gt;imagen.SigmoidedDoG -->
<g id="edge14" class="edge"><title>imagen.patterngenerator.PatternGenerator&#45;&gt;imagen.SigmoidedDoG</title>
<path fill="none" stroke="black" stroke-width="0.5" d="M346.065,-438.266C360.187,-472.52 410.631,-583.725 490,-637 494.095,-639.749 498.535,-642.103 503.159,-644.119"/>
<polygon fill="black" stroke="black" points="502.547,-645.759 507.838,-646.024 503.867,-642.518 502.547,-645.759"/>
</g>
<!-- imagen.ExponentialDecay -->
<g id="node18" class="node"><title>imagen.ExponentialDecay</title>
<polygon fill="none" stroke="black" stroke-width="0.5" points="642,-628.5 502,-628.5 502,-607.5 642,-607.5 642,-628.5"/>
<text text-anchor="middle" x="572" y="-615.5" font-family="Vera" font-size="10.00">imagen.ExponentialDecay</text>
</g>
<!-- imagen.patterngenerator.PatternGenerator&#45;&gt;imagen.ExponentialDecay -->
<g id="edge16" class="edge"><title>imagen.patterngenerator.PatternGenerator&#45;&gt;imagen.ExponentialDecay</title>
<path fill="none" stroke="black" stroke-width="0.5" d="M347.535,-438.029C364.516,-467.796 419.052,-556.227 490,-599 494.599,-601.773 499.568,-604.141 504.705,-606.164"/>
<polygon fill="black" stroke="black" points="504.168,-607.831 509.464,-607.926 505.383,-604.549 504.168,-607.831"/>
</g>
<!-- imagen.SigmoidedDoLG -->
<g id="node20" class="node"><title>imagen.SigmoidedDoLG</title>
<polygon fill="none" stroke="black" stroke-width="0.5" points="638,-590.5 506,-590.5 506,-569.5 638,-569.5 638,-590.5"/>
<text text-anchor="middle" x="572" y="-577.5" font-family="Vera" font-size="10.00">imagen.SigmoidedDoLG</text>
</g>
<!-- imagen.patterngenerator.PatternGenerator&#45;&gt;imagen.SigmoidedDoLG -->
<g id="edge18" class="edge"><title>imagen.patterngenerator.PatternGenerator&#45;&gt;imagen.SigmoidedDoLG</title>
<path fill="none" stroke="black" stroke-width="0.5" d="M350.101,-438.206C370.623,-463.326 427.488,-528.465 490,-561 495.469,-563.846 501.362,-566.27 507.391,-568.334"/>
<polygon fill="black" stroke="black" points="507.185,-570.107 512.481,-569.984 508.265,-566.778 507.185,-570.107"/>
</g>
<!-- imagen.Sigmoid -->
<g id="node25" class="node"><title>imagen.Sigmoid</title>
<polygon fill="none" stroke="black" stroke-width="0.5" points="619,-552.5 525,-552.5 525,-531.5 619,-531.5 619,-552.5"/>
<text text-anchor="middle" x="572" y="-539.5" font-family="Vera" font-size="10.00">imagen.Sigmoid</text>
</g>
<!-- imagen.patterngenerator.PatternGenerator&#45;&gt;imagen.Sigmoid -->
<g id="edge22" class="edge"><title>imagen.patterngenerator.PatternGenerator&#45;&gt;imagen.Sigmoid</title>
<path fill="none" stroke="black" stroke-width="0.5" d="M354.613,-438.267C379.157,-457.732 435.705,-500.098 490,-523 499.257,-526.905 509.456,-530.082 519.423,-532.642"/>
<polygon fill="black" stroke="black" points="519.018,-534.345 524.292,-533.849 519.86,-530.947 519.018,-534.345"/>
</g>
<!-- imagen.DifferenceOfGaussians -->
<g id="node27" class="node"><title>imagen.DifferenceOfGaussians</title>
<polygon fill="none" stroke="black" stroke-width="0.5" points="654,-514.5 490,-514.5 490,-493.5 654,-493.5 654,-514.5"/>
<text text-anchor="middle" x="572" y="-501.5" font-family="Vera" font-size="10.00">imagen.DifferenceOfGaussians</text>
</g>
<!-- imagen.patterngenerator.PatternGenerator&#45;&gt;imagen.DifferenceOfGaussians -->
<g id="edge24" class="edge"><title>imagen.patterngenerator.PatternGenerator&#45;&gt;imagen.DifferenceOfGaussians</title>
<path fill="none" stroke="black" stroke-width="0.5" d="M364.974,-438.004C393.776,-450.276 444.855,-471.151 490,-485 499.161,-487.81 509.008,-490.427 518.59,-492.766"/>
<polygon fill="black" stroke="black" points="518.3,-494.496 523.571,-493.963 519.118,-491.093 518.3,-494.496"/>
</g>
<!-- imagen.Gaussian -->
<g id="node29" class="node"><title>imagen.Gaussian</title>
<polygon fill="none" stroke="black" stroke-width="0.5" points="622,-476.5 522,-476.5 522,-455.5 622,-455.5 622,-476.5"/>
<text text-anchor="middle" x="572" y="-463.5" font-family="Vera" font-size="10.00">imagen.Gaussian</text>
</g>
<!-- imagen.patterngenerator.PatternGenerator&#45;&gt;imagen.Gaussian -->
<g id="edge26" class="edge"><title>imagen.patterngenerator.PatternGenerator&#45;&gt;imagen.Gaussian</title>
<path fill="none" stroke="black" stroke-width="0.5" d="M402.731,-438.034C438.122,-443.881 482.412,-451.198 516.809,-456.882"/>
<polygon fill="black" stroke="black" points="516.592,-458.619 521.81,-457.708 517.162,-455.166 516.592,-458.619"/>
</g>
<!-- imagen.Composite -->
<g id="node32" class="node"><title>imagen.Composite</title>
<polygon fill="none" stroke="black" stroke-width="0.5" points="625,-438.5 519,-438.5 519,-417.5 625,-417.5 625,-438.5"/>
<text text-anchor="middle" x="572" y="-425.5" font-family="Vera" font-size="10.00">imagen.Composite</text>
</g>
<!-- imagen.patterngenerator.PatternGenerator&#45;&gt;imagen.Composite -->
<g id="edge54" class="edge"><title>imagen.patterngenerator.PatternGenerator&#45;&gt;imagen.Composite</title>
<path fill="none" stroke="black" stroke-width="0.5" d="M454.305,-428C474.734,-428 495.277,-428 513.353,-428"/>
<polygon fill="black" stroke="black" points="513.384,-429.75 518.384,-428 513.384,-426.25 513.384,-429.75"/>
</g>
<!-- imagen.Rectangle -->
<g id="node35" class="node"><title>imagen.Rectangle</title>
<polygon fill="none" stroke="black" stroke-width="0.5" points="623,-400.5 521,-400.5 521,-379.5 623,-379.5 623,-400.5"/>
<text text-anchor="middle" x="572" y="-387.5" font-family="Vera" font-size="10.00">imagen.Rectangle</text>
</g>
<!-- imagen.patterngenerator.PatternGenerator&#45;&gt;imagen.Rectangle -->
<g id="edge44" class="edge"><title>imagen.patterngenerator.PatternGenerator&#45;&gt;imagen.Rectangle</title>
<path fill="none" stroke="black" stroke-width="0.5" d="M402.731,-417.966C437.742,-412.182 481.46,-404.959 515.696,-399.302"/>
<polygon fill="black" stroke="black" points="516.029,-401.021 520.676,-398.48 515.458,-397.568 516.029,-401.021"/>
</g>
<!-- imagen.Selector -->
<g id="node37" class="node"><title>imagen.Selector</title>
<polygon fill="none" stroke="black" stroke-width="0.5" points="619,-362.5 525,-362.5 525,-341.5 619,-341.5 619,-362.5"/>
<text text-anchor="middle" x="572" y="-349.5" font-family="Vera" font-size="10.00">imagen.Selector</text>
</g>
<!-- imagen.patterngenerator.PatternGenerator&#45;&gt;imagen.Selector -->
<g id="edge32" class="edge"><title>imagen.patterngenerator.PatternGenerator&#45;&gt;imagen.Selector</title>
<path fill="none" stroke="black" stroke-width="0.5" d="M432.367,-417.995C439.897,-415.58 447.214,-412.621 454,-409 474.524,-398.046 469.811,-382.561 490,-371 498.936,-365.883 509.166,-362.143 519.3,-359.41"/>
<polygon fill="black" stroke="black" points="519.848,-361.077 524.262,-358.148 518.985,-357.685 519.848,-361.077"/>
</g>
<!-- imagen.Disk -->
<g id="node40" class="node"><title>imagen.Disk</title>
<polygon fill="none" stroke="black" stroke-width="0.5" points="610,-324.5 534,-324.5 534,-303.5 610,-303.5 610,-324.5"/>
<text text-anchor="middle" x="572" y="-311.5" font-family="Vera" font-size="10.00">imagen.Disk</text>
</g>
<!-- imagen.patterngenerator.PatternGenerator&#45;&gt;imagen.Disk -->
<g id="edge36" class="edge"><title>imagen.patterngenerator.PatternGenerator&#45;&gt;imagen.Disk</title>
<path fill="none" stroke="black" stroke-width="0.5" d="M438.989,-417.948C444.306,-415.468 449.362,-412.513 454,-409 483.794,-386.433 460.892,-356.445 490,-333 500.947,-324.183 515.244,-319.309 528.828,-316.66"/>
<polygon fill="black" stroke="black" points="529.174,-318.376 533.793,-315.782 528.565,-314.93 529.174,-318.376"/>
</g>
<!-- imagen.Gabor -->
<g id="node42" class="node"><title>imagen.Gabor</title>
<polygon fill="none" stroke="black" stroke-width="0.5" points="614,-286.5 530,-286.5 530,-265.5 614,-265.5 614,-286.5"/>
<text text-anchor="middle" x="572" y="-273.5" font-family="Vera" font-size="10.00">imagen.Gabor</text>
</g>
<!-- imagen.patterngenerator.PatternGenerator&#45;&gt;imagen.Gabor -->
<g id="edge38" class="edge"><title>imagen.patterngenerator.PatternGenerator&#45;&gt;imagen.Gabor</title>
<path fill="none" stroke="black" stroke-width="0.5" d="M440.885,-417.984C445.57,-415.468 449.984,-412.497 454,-409 494.069,-374.106 450.99,-331.074 490,-295 499.377,-286.329 511.909,-281.364 524.349,-278.585"/>
<polygon fill="black" stroke="black" points="524.733,-280.293 529.29,-277.591 524.043,-276.862 524.733,-280.293"/>
</g>
<!-- imagen.RawRectangle -->
<g id="node44" class="node"><title>imagen.RawRectangle</title>
<polygon fill="none" stroke="black" stroke-width="0.5" points="632,-248.5 512,-248.5 512,-227.5 632,-227.5 632,-248.5"/>
<text text-anchor="middle" x="572" y="-235.5" font-family="Vera" font-size="10.00">imagen.RawRectangle</text>
</g>
<!-- imagen.patterngenerator.PatternGenerator&#45;&gt;imagen.RawRectangle -->
<g id="edge40" class="edge"><title>imagen.patterngenerator.PatternGenerator&#45;&gt;imagen.RawRectangle</title>
<path fill="none" stroke="black" stroke-width="0.5" d="M441.964,-417.894C446.282,-415.383 450.331,-412.44 454,-409 504.648,-361.518 440.79,-305.971 490,-257 494.705,-252.318 500.322,-248.699 506.379,-245.914"/>
<polygon fill="black" stroke="black" points="507.152,-247.487 511.088,-243.943 505.8,-244.259 507.152,-247.487"/>
</g>
<!-- imagen.LogGaussian -->
<g id="node49" class="node"><title>imagen.LogGaussian</title>
<polygon fill="none" stroke="black" stroke-width="0.5" points="630,-210.5 514,-210.5 514,-189.5 630,-189.5 630,-210.5"/>
<text text-anchor="middle" x="572" y="-197.5" font-family="Vera" font-size="10.00">imagen.LogGaussian</text>
</g>
<!-- imagen.patterngenerator.PatternGenerator&#45;&gt;imagen.LogGaussian -->
<g id="edge46" class="edge"><title>imagen.patterngenerator.PatternGenerator&#45;&gt;imagen.LogGaussian</title>
<path fill="none" stroke="black" stroke-width="0.5" d="M442.407,-417.942C446.58,-415.412 450.48,-412.453 454,-409 515.355,-348.813 430.467,-280.99 490,-219 495.181,-213.605 501.569,-209.608 508.473,-206.665"/>
<polygon fill="black" stroke="black" points="509.293,-208.225 513.328,-204.792 508.033,-204.959 509.293,-208.225"/>
</g>
<!-- imagen.Ring -->
<g id="node51" class="node"><title>imagen.Ring</title>
<polygon fill="none" stroke="black" stroke-width="0.5" points="610,-172.5 534,-172.5 534,-151.5 610,-151.5 610,-172.5"/>
<text text-anchor="middle" x="572" y="-159.5" font-family="Vera" font-size="10.00">imagen.Ring</text>
</g>
<!-- imagen.patterngenerator.PatternGenerator&#45;&gt;imagen.Ring -->
<g id="edge48" class="edge"><title>imagen.patterngenerator.PatternGenerator&#45;&gt;imagen.Ring</title>
<path fill="none" stroke="black" stroke-width="0.5" d="M443.032,-417.763C446.984,-415.268 450.672,-412.366 454,-409 526.125,-336.045 420.082,-256.073 490,-181 499.935,-170.333 514.577,-165.094 528.75,-162.673"/>
<polygon fill="black" stroke="black" points="529.251,-164.367 533.941,-161.903 528.738,-160.905 529.251,-164.367"/>
</g>
<!-- imagen.GaussiansCorner -->
<g id="node53" class="node"><title>imagen.GaussiansCorner</title>
<polygon fill="none" stroke="black" stroke-width="0.5" points="640,-134.5 504,-134.5 504,-113.5 640,-113.5 640,-134.5"/>
<text text-anchor="middle" x="572" y="-121.5" font-family="Vera" font-size="10.00">imagen.GaussiansCorner</text>
</g>
<!-- imagen.patterngenerator.PatternGenerator&#45;&gt;imagen.GaussiansCorner -->
<g id="edge50" class="edge"><title>imagen.patterngenerator.PatternGenerator&#45;&gt;imagen.GaussiansCorner</title>
<path fill="none" stroke="black" stroke-width="0.5" d="M443.124,-417.853C447.052,-415.334 450.71,-412.403 454,-409 536.932,-323.24 409.662,-231.195 490,-143 492.639,-140.103 495.624,-137.605 498.854,-135.454"/>
<polygon fill="black" stroke="black" points="500.012,-136.8 503.402,-132.73 498.214,-133.798 500.012,-136.8"/>
</g>
<!-- imagen.Arc -->
<g id="node56" class="node"><title>imagen.Arc</title>
<polygon fill="none" stroke="black" stroke-width="0.5" points="607,-96.5 537,-96.5 537,-75.5 607,-75.5 607,-96.5"/>
<text text-anchor="middle" x="572" y="-83.5" font-family="Vera" font-size="10.00">imagen.Arc</text>
</g>
<!-- imagen.patterngenerator.PatternGenerator&#45;&gt;imagen.Arc -->
<g id="edge62" class="edge"><title>imagen.patterngenerator.PatternGenerator&#45;&gt;imagen.Arc</title>
<path fill="none" stroke="black" stroke-width="0.5" d="M443.194,-417.92C447.103,-415.384 450.738,-412.43 454,-409 547.762,-310.412 399.219,-206.34 490,-105 500.337,-93.4606 516.175,-88.2202 531.186,-86.0406"/>
<polygon fill="black" stroke="black" points="531.489,-87.7665 536.235,-85.4141 531.058,-84.2932 531.489,-87.7665"/>
</g>
<!-- imagen.Translator -->
<g id="node63" class="node"><title>imagen.Translator</title>
<polygon fill="none" stroke="black" stroke-width="0.5" points="623,-58.5 521,-58.5 521,-37.5 623,-37.5 623,-58.5"/>
<text text-anchor="middle" x="572" y="-45.5" font-family="Vera" font-size="10.00">imagen.Translator</text>
</g>
<!-- imagen.patterngenerator.PatternGenerator&#45;&gt;imagen.Translator -->
<g id="edge60" class="edge"><title>imagen.patterngenerator.PatternGenerator&#45;&gt;imagen.Translator</title>
<path fill="none" stroke="black" stroke-width="0.5" d="M443.249,-417.972C447.144,-415.422 450.76,-412.451 454,-409 558.607,-297.567 388.762,-181.503 490,-67 496.821,-59.2852 506.1,-54.378 515.967,-51.3173"/>
<polygon fill="black" stroke="black" points="516.502,-52.9851 520.85,-49.9589 515.564,-49.6131 516.502,-52.9851"/>
</g>
<!-- imagen.Sweeper -->
<g id="node66" class="node"><title>imagen.Sweeper</title>
<polygon fill="none" stroke="black" stroke-width="0.5" points="620,-20.5 524,-20.5 524,0.5 620,0.5 620,-20.5"/>
<text text-anchor="middle" x="572" y="-7.5" font-family="Vera" font-size="10.00">imagen.Sweeper</text>
</g>
<!-- imagen.patterngenerator.PatternGenerator&#45;&gt;imagen.Sweeper -->
<g id="edge64" class="edge"><title>imagen.patterngenerator.PatternGenerator&#45;&gt;imagen.Sweeper</title>
<path fill="none" stroke="black" stroke-width="0.5" d="M443.778,-417.692C447.476,-415.203 450.913,-412.323 454,-409 511.732,-346.856 434.147,-92.8382 490,-29 497.343,-20.6071 507.595,-15.5296 518.369,-12.5367"/>
<polygon fill="black" stroke="black" points="518.914,-14.2045 523.347,-11.3039 518.073,-10.8072 518.914,-14.2045"/>
</g>
<!-- param.parameterized.Parameterized -->
<g id="node4" class="node"><title>param.parameterized.Parameterized</title>
<polygon fill="none" stroke="black" stroke-width="0.5" points="194,-419.5 5.68434e-14,-419.5 0,-398.5 194,-398.5 194,-419.5"/>
<text text-anchor="middle" x="97" y="-406.5" font-family="Vera" font-size="10.00">param.parameterized.Parameterized</text>
</g>
<!-- param.parameterized.Parameterized&#45;&gt;imagen.patterngenerator.PatternGenerator -->
<g id="edge4" class="edge"><title>param.parameterized.Parameterized&#45;&gt;imagen.patterngenerator.PatternGenerator</title>
<path fill="none" stroke="black" stroke-width="0.5" d="M194.182,-416.537C204.286,-417.32 214.629,-418.122 224.922,-418.92"/>
<polygon fill="black" stroke="black" points="224.849,-420.67 229.969,-419.312 225.12,-417.18 224.849,-420.67"/>
</g>
<!-- imagen.TimeSeries -->
<g id="node61" class="node"><title>imagen.TimeSeries</title>
<polygon fill="none" stroke="black" stroke-width="0.5" points="396,-400.5 288,-400.5 288,-379.5 396,-379.5 396,-400.5"/>
<text text-anchor="middle" x="342" y="-387.5" font-family="Vera" font-size="10.00">imagen.TimeSeries</text>
</g>
<!-- param.parameterized.Parameterized&#45;&gt;imagen.TimeSeries -->
<g id="edge58" class="edge"><title>param.parameterized.Parameterized&#45;&gt;imagen.TimeSeries</title>
<path fill="none" stroke="black" stroke-width="0.5" d="M194.182,-401.463C223.866,-399.161 255.624,-396.699 282.066,-394.648"/>
<polygon fill="black" stroke="black" points="282.431,-396.375 287.281,-394.244 282.161,-392.885 282.431,-396.375"/>
</g>
<!-- imagen.OrientationContrast -->
<g id="node59" class="node"><title>imagen.OrientationContrast</title>
<polygon fill="none" stroke="black" stroke-width="0.5" points="844,-780.5 694,-780.5 694,-759.5 844,-759.5 844,-780.5"/>
<text text-anchor="middle" x="769" y="-767.5" font-family="Vera" font-size="10.00">imagen.OrientationContrast</text>
</g>
<!-- imagen.SineGrating&#45;&gt;imagen.OrientationContrast -->
<g id="edge56" class="edge"><title>imagen.SineGrating&#45;&gt;imagen.OrientationContrast</title>
<path fill="none" stroke="black" stroke-width="0.5" d="M628.189,-770C647.06,-770 668.49,-770 688.837,-770"/>
<polygon fill="black" stroke="black" points="688.985,-771.75 693.985,-770 688.985,-768.25 688.985,-771.75"/>
</g>
<!-- param.parameterized.Parameter -->
<g id="node12" class="node"><title>param.parameterized.Parameter</title>
<polygon fill="none" stroke="black" stroke-width="0.5" points="184,-894.5 10,-894.5 10,-873.5 184,-873.5 184,-894.5"/>
<text text-anchor="middle" x="97" y="-881.5" font-family="Vera" font-size="10.00">param.parameterized.Parameter</text>
</g>
<!-- param.Selector -->
<g id="node23" class="node"><title>param.Selector</title>
<polygon fill="none" stroke="black" stroke-width="0.5" points="387,-894.5 297,-894.5 297,-873.5 387,-873.5 387,-894.5"/>
<text text-anchor="middle" x="342" y="-881.5" font-family="Vera" font-size="10.00">param.Selector</text>
</g>
<!-- param.parameterized.Parameter&#45;&gt;param.Selector -->
<g id="edge34" class="edge"><title>param.parameterized.Parameter&#45;&gt;param.Selector</title>
<path fill="none" stroke="black" stroke-width="0.5" d="M184.759,-884C220.453,-884 260.436,-884 291.152,-884"/>
<polygon fill="black" stroke="black" points="291.387,-885.75 296.387,-884 291.387,-882.25 291.387,-885.75"/>
</g>
<!-- imagen.Spectrogram -->
<g id="node13" class="node"><title>imagen.Spectrogram</title>
<polygon fill="none" stroke="black" stroke-width="0.5" points="828,-704.5 710,-704.5 710,-683.5 828,-683.5 828,-704.5"/>
<text text-anchor="middle" x="769" y="-691.5" font-family="Vera" font-size="10.00">imagen.Spectrogram</text>
</g>
<!-- imagen.PowerSpectrum&#45;&gt;imagen.Spectrogram -->
<g id="edge12" class="edge"><title>imagen.PowerSpectrum&#45;&gt;imagen.Spectrogram</title>
<path fill="none" stroke="black" stroke-width="0.5" d="M637.598,-694C659.048,-694 682.849,-694 704.237,-694"/>
<polygon fill="black" stroke="black" points="704.332,-695.75 709.332,-694 704.332,-692.25 704.332,-695.75"/>
</g>
<!-- param.ClassSelector -->
<g id="node22" class="node"><title>param.ClassSelector</title>
<polygon fill="none" stroke="black" stroke-width="0.5" points="630,-894.5 514,-894.5 514,-873.5 630,-873.5 630,-894.5"/>
<text text-anchor="middle" x="572" y="-881.5" font-family="Vera" font-size="10.00">param.ClassSelector</text>
</g>
<!-- imagen.TimeSeriesParam -->
<g id="node46" class="node"><title>imagen.TimeSeriesParam</title>
<polygon fill="none" stroke="black" stroke-width="0.5" points="839,-894.5 699,-894.5 699,-873.5 839,-873.5 839,-894.5"/>
<text text-anchor="middle" x="769" y="-881.5" font-family="Vera" font-size="10.00">imagen.TimeSeriesParam</text>
</g>
<!-- param.ClassSelector&#45;&gt;imagen.TimeSeriesParam -->
<g id="edge42" class="edge"><title>param.ClassSelector&#45;&gt;imagen.TimeSeriesParam</title>
<path fill="none" stroke="black" stroke-width="0.5" d="M630.041,-884C650.005,-884 672.652,-884 693.784,-884"/>
<polygon fill="black" stroke="black" points="693.834,-885.75 698.834,-884 693.834,-882.25 693.834,-885.75"/>
</g>
<!-- param.Selector&#45;&gt;param.ClassSelector -->
<g id="edge20" class="edge"><title>param.Selector&#45;&gt;param.ClassSelector</title>
<path fill="none" stroke="black" stroke-width="0.5" d="M387.716,-884C422.32,-884 470.267,-884 508.58,-884"/>
<polygon fill="black" stroke="black" points="508.68,-885.75 513.68,-884 508.68,-882.25 508.68,-885.75"/>
</g>
<!-- imagen.SeparatedComposite -->
<g id="node31" class="node"><title>imagen.SeparatedComposite</title>
<polygon fill="none" stroke="black" stroke-width="0.5" points="848,-438.5 690,-438.5 690,-417.5 848,-417.5 848,-438.5"/>
<text text-anchor="middle" x="769" y="-425.5" font-family="Vera" font-size="10.00">imagen.SeparatedComposite</text>
</g>
<!-- imagen.Composite&#45;&gt;imagen.SeparatedComposite -->
<g id="edge28" class="edge"><title>imagen.Composite&#45;&gt;imagen.SeparatedComposite</title>
<path fill="none" stroke="black" stroke-width="0.5" d="M625.571,-428C643.847,-428 664.75,-428 684.839,-428"/>
<polygon fill="black" stroke="black" points="684.927,-429.75 689.927,-428 684.927,-426.25 684.927,-429.75"/>
</g>
<!-- imagen.TwoRectangles -->
<g id="node34" class="node"><title>imagen.TwoRectangles</title>
<polygon fill="none" stroke="black" stroke-width="0.5" points="831,-400.5 707,-400.5 707,-379.5 831,-379.5 831,-400.5"/>
<text text-anchor="middle" x="769" y="-387.5" font-family="Vera" font-size="10.00">imagen.TwoRectangles</text>
</g>
<!-- imagen.Rectangle&#45;&gt;imagen.TwoRectangles -->
<g id="edge30" class="edge"><title>imagen.Rectangle&#45;&gt;imagen.TwoRectangles</title>
<path fill="none" stroke="black" stroke-width="0.5" d="M623.245,-390C647.186,-390 676.008,-390 701.679,-390"/>
<polygon fill="black" stroke="black" points="701.769,-391.75 706.769,-390 701.769,-388.25 701.769,-391.75"/>
</g>
<!-- imagen.Curve -->
<g id="node55" class="node"><title>imagen.Curve</title>
<polygon fill="none" stroke="black" stroke-width="0.5" points="810,-96.5 728,-96.5 728,-75.5 810,-75.5 810,-96.5"/>
<text text-anchor="middle" x="769" y="-83.5" font-family="Vera" font-size="10.00">imagen.Curve</text>
</g>
<!-- imagen.Arc&#45;&gt;imagen.Curve -->
<g id="edge52" class="edge"><title>imagen.Arc&#45;&gt;imagen.Curve</title>
<path fill="none" stroke="black" stroke-width="0.5" d="M607.675,-86C639.802,-86 687.233,-86 722.357,-86"/>
<polygon fill="black" stroke="black" points="722.447,-87.7501 727.447,-86 722.447,-84.2501 722.447,-87.7501"/>
</g>
</g>
</svg>
