<?xml version="1.0" encoding="UTF-8" standalone="no"?>
<!DOCTYPE svg PUBLIC "-//W3C//DTD SVG 1.1//EN"
 "http://www.w3.org/Graphics/SVG/1.1/DTD/svg11.dtd">
<!-- Generated by graphviz version 2.26.3 (20100126.1600)
 -->
<!-- Title: inheritance273a80740e Pages: 1 -->
<svg width="876pt" height="940pt"
 viewBox="0.00 0.00 876.00 940.00" xmlns="http://www.w3.org/2000/svg" xmlns:xlink="http://www.w3.org/1999/xlink">
<g id="graph1" class="graph" transform="scale(1 1) rotate(0) translate(4 936)">
<title>inheritance273a80740e</title>
<polygon fill="white" stroke="white" points="-4,5 -4,-936 873,-936 873,5 -4,5"/>
<!-- param.parameterized.Parameter -->
<g id="node1" class="node"><title>param.parameterized.Parameter</title>
<polygon fill="none" stroke="black" stroke-width="0.5" points="184,-20.5 10,-20.5 10,0.5 184,0.5 184,-20.5"/>
<text text-anchor="middle" x="97" y="-7.5" font-family="Vera" font-size="10.00">param.parameterized.Parameter</text>
</g>
<!-- param.Selector -->
<g id="node31" class="node"><title>param.Selector</title>
<polygon fill="none" stroke="black" stroke-width="0.5" points="387,-20.5 297,-20.5 297,0.5 387,0.5 387,-20.5"/>
<text text-anchor="middle" x="342" y="-7.5" font-family="Vera" font-size="10.00">param.Selector</text>
</g>
<!-- param.parameterized.Parameter&#45;&gt;param.Selector -->
<g id="edge28" class="edge"><title>param.parameterized.Parameter&#45;&gt;param.Selector</title>
<path fill="none" stroke="black" stroke-width="0.5" d="M184.759,-10C220.453,-10 260.436,-10 291.152,-10"/>
<polygon fill="black" stroke="black" points="291.387,-11.7501 296.387,-10 291.387,-8.2501 291.387,-11.7501"/>
</g>
<!-- imagen.Composite -->
<g id="node2" class="node"><title>imagen.Composite</title>
<polygon fill="none" stroke="black" stroke-width="0.5" points="635,-932.5 529,-932.5 529,-911.5 635,-911.5 635,-932.5"/>
<text text-anchor="middle" x="582" y="-919.5" font-family="Vera" font-size="10.00">imagen.Composite</text>
</g>
<!-- imagen.SeparatedComposite -->
<g id="node59" class="node"><title>imagen.SeparatedComposite</title>
<polygon fill="none" stroke="black" stroke-width="0.5" points="868,-932.5 710,-932.5 710,-911.5 868,-911.5 868,-932.5"/>
<text text-anchor="middle" x="789" y="-919.5" font-family="Vera" font-size="10.00">imagen.SeparatedComposite</text>
</g>
<!-- imagen.Composite&#45;&gt;imagen.SeparatedComposite -->
<g id="edge56" class="edge"><title>imagen.Composite&#45;&gt;imagen.SeparatedComposite</title>
<path fill="none" stroke="black" stroke-width="0.5" d="M635.577,-922C656.626,-922 681.297,-922 704.625,-922"/>
<polygon fill="black" stroke="black" points="704.893,-923.75 709.893,-922 704.892,-920.25 704.893,-923.75"/>
</g>
<!-- imagen.patterngenerator.PatternGenerator -->
<g id="node3" class="node"><title>imagen.patterngenerator.PatternGenerator</title>
<polygon fill="none" stroke="black" stroke-width="0.5" points="454,-495.5 230,-495.5 230,-474.5 454,-474.5 454,-495.5"/>
<text text-anchor="middle" x="342" y="-482.5" font-family="Vera" font-size="10.00">imagen.patterngenerator.PatternGenerator</text>
</g>
<!-- imagen.patterngenerator.PatternGenerator&#45;&gt;imagen.Composite -->
<g id="edge2" class="edge"><title>imagen.patterngenerator.PatternGenerator&#45;&gt;imagen.Composite</title>
<path fill="none" stroke="black" stroke-width="0.5" d="M344.205,-495.259C356.982,-553.776 423.271,-844.818 490,-903 499.25,-911.065 511.012,-916.031 523.008,-919.022"/>
<polygon fill="black" stroke="black" points="522.895,-920.791 528.158,-920.186 523.667,-917.377 522.895,-920.791"/>
</g>
<!-- imagen.PowerSpectrum -->
<g id="node6" class="node"><title>imagen.PowerSpectrum</title>
<polygon fill="none" stroke="black" stroke-width="0.5" points="647,-894.5 517,-894.5 517,-873.5 647,-873.5 647,-894.5"/>
<text text-anchor="middle" x="582" y="-881.5" font-family="Vera" font-size="10.00">imagen.PowerSpectrum</text>
</g>
<!-- imagen.patterngenerator.PatternGenerator&#45;&gt;imagen.PowerSpectrum -->
<g id="edge36" class="edge"><title>imagen.patterngenerator.PatternGenerator&#45;&gt;imagen.PowerSpectrum</title>
<path fill="none" stroke="black" stroke-width="0.5" d="M342.586,-495.178C346.009,-544.641 367.778,-761.734 490,-865 496.293,-870.317 503.685,-874.276 511.497,-877.205"/>
<polygon fill="black" stroke="black" points="511.112,-878.923 516.409,-878.898 512.253,-875.614 511.112,-878.923"/>
</g>
<!-- imagen.Line -->
<g id="node11" class="node"><title>imagen.Line</title>
<polygon fill="none" stroke="black" stroke-width="0.5" points="619,-856.5 545,-856.5 545,-835.5 619,-835.5 619,-856.5"/>
<text text-anchor="middle" x="582" y="-843.5" font-family="Vera" font-size="10.00">imagen.Line</text>
</g>
<!-- imagen.patterngenerator.PatternGenerator&#45;&gt;imagen.Line -->
<g id="edge8" class="edge"><title>imagen.patterngenerator.PatternGenerator&#45;&gt;imagen.Line</title>
<path fill="none" stroke="black" stroke-width="0.5" d="M343.054,-495.096C348.456,-541.427 377.339,-735.332 490,-827 503.643,-838.101 522.118,-843.221 538.933,-845.429"/>
<polygon fill="black" stroke="black" points="538.923,-847.189 544.091,-846.024 539.324,-843.712 538.923,-847.189"/>
</g>
<!-- imagen.Arc -->
<g id="node13" class="node"><title>imagen.Arc</title>
<polygon fill="none" stroke="black" stroke-width="0.5" points="617,-818.5 547,-818.5 547,-797.5 617,-797.5 617,-818.5"/>
<text text-anchor="middle" x="582" y="-805.5" font-family="Vera" font-size="10.00">imagen.Arc</text>
</g>
<!-- imagen.patterngenerator.PatternGenerator&#45;&gt;imagen.Arc -->
<g id="edge10" class="edge"><title>imagen.patterngenerator.PatternGenerator&#45;&gt;imagen.Arc</title>
<path fill="none" stroke="black" stroke-width="0.5" d="M343.642,-495.137C351.211,-538.38 386.877,-708.851 490,-789 504.354,-800.156 523.651,-805.199 540.864,-807.338"/>
<polygon fill="black" stroke="black" points="540.971,-809.11 546.132,-807.912 541.351,-805.63 540.971,-809.11"/>
</g>
<!-- imagen.ExponentialDecay -->
<g id="node15" class="node"><title>imagen.ExponentialDecay</title>
<polygon fill="none" stroke="black" stroke-width="0.5" points="652,-780.5 512,-780.5 512,-759.5 652,-759.5 652,-780.5"/>
<text text-anchor="middle" x="582" y="-767.5" font-family="Vera" font-size="10.00">imagen.ExponentialDecay</text>
</g>
<!-- imagen.patterngenerator.PatternGenerator&#45;&gt;imagen.ExponentialDecay -->
<g id="edge12" class="edge"><title>imagen.patterngenerator.PatternGenerator&#45;&gt;imagen.ExponentialDecay</title>
<path fill="none" stroke="black" stroke-width="0.5" d="M344.397,-495.219C354.341,-535.199 396.286,-682.188 490,-751 495.032,-754.695 500.617,-757.71 506.476,-760.166"/>
<polygon fill="black" stroke="black" points="506.162,-761.921 511.456,-762.099 507.429,-758.658 506.162,-761.921"/>
</g>
<!-- imagen.Selector -->
<g id="node17" class="node"><title>imagen.Selector</title>
<polygon fill="none" stroke="black" stroke-width="0.5" points="629,-742.5 535,-742.5 535,-721.5 629,-721.5 629,-742.5"/>
<text text-anchor="middle" x="582" y="-729.5" font-family="Vera" font-size="10.00">imagen.Selector</text>
</g>
<!-- imagen.patterngenerator.PatternGenerator&#45;&gt;imagen.Selector -->
<g id="edge14" class="edge"><title>imagen.patterngenerator.PatternGenerator&#45;&gt;imagen.Selector</title>
<path fill="none" stroke="black" stroke-width="0.5" d="M345.371,-495.24C357.895,-531.576 405.443,-655.232 490,-713 501.514,-720.866 515.599,-725.597 529.254,-728.41"/>
<polygon fill="black" stroke="black" points="529.02,-730.147 534.259,-729.362 529.674,-726.709 529.02,-730.147"/>
</g>
<!-- imagen.HalfPlane -->
<g id="node19" class="node"><title>imagen.HalfPlane</title>
<polygon fill="none" stroke="black" stroke-width="0.5" points="632,-704.5 532,-704.5 532,-683.5 632,-683.5 632,-704.5"/>
<text text-anchor="middle" x="582" y="-691.5" font-family="Vera" font-size="10.00">imagen.HalfPlane</text>
</g>
<!-- imagen.patterngenerator.PatternGenerator&#45;&gt;imagen.HalfPlane -->
<g id="edge16" class="edge"><title>imagen.patterngenerator.PatternGenerator&#45;&gt;imagen.HalfPlane</title>
<path fill="none" stroke="black" stroke-width="0.5" d="M346.723,-495.3C362.136,-527.668 414.37,-627.969 490,-675 500.882,-681.767 513.75,-686.17 526.361,-689.023"/>
<polygon fill="black" stroke="black" points="526.11,-690.758 531.364,-690.078 526.833,-687.334 526.11,-690.758"/>
</g>
<!-- imagen.Gaussian -->
<g id="node21" class="node"><title>imagen.Gaussian</title>
<polygon fill="none" stroke="black" stroke-width="0.5" points="632,-666.5 532,-666.5 532,-645.5 632,-645.5 632,-666.5"/>
<text text-anchor="middle" x="582" y="-653.5" font-family="Vera" font-size="10.00">imagen.Gaussian</text>
</g>
<!-- imagen.patterngenerator.PatternGenerator&#45;&gt;imagen.Gaussian -->
<g id="edge18" class="edge"><title>imagen.patterngenerator.PatternGenerator&#45;&gt;imagen.Gaussian</title>
<path fill="none" stroke="black" stroke-width="0.5" d="M348.572,-495.145C367.101,-522.853 422.812,-600.191 490,-637 501.238,-643.157 514.244,-647.324 526.874,-650.143"/>
<polygon fill="black" stroke="black" points="526.626,-651.879 531.879,-651.196 527.346,-648.454 526.626,-651.879"/>
</g>
<!-- imagen.patterngenerator.Constant -->
<g id="node23" class="node"><title>imagen.patterngenerator.Constant</title>
<polygon fill="none" stroke="black" stroke-width="0.5" points="674,-628.5 490,-628.5 490,-607.5 674,-607.5 674,-628.5"/>
<text text-anchor="middle" x="582" y="-615.5" font-family="Vera" font-size="10.00">imagen.patterngenerator.Constant</text>
</g>
<!-- imagen.patterngenerator.PatternGenerator&#45;&gt;imagen.patterngenerator.Constant -->
<g id="edge20" class="edge"><title>imagen.patterngenerator.PatternGenerator&#45;&gt;imagen.patterngenerator.Constant</title>
<path fill="none" stroke="black" stroke-width="0.5" d="M351.684,-495.097C373.872,-517.589 431.039,-571.959 490,-599 496.384,-601.928 503.223,-604.408 510.184,-606.509"/>
<polygon fill="black" stroke="black" points="509.729,-608.199 515.019,-607.903 510.699,-604.836 509.729,-608.199"/>
</g>
<!-- imagen.RawRectangle -->
<g id="node25" class="node"><title>imagen.RawRectangle</title>
<polygon fill="none" stroke="black" stroke-width="0.5" points="642,-590.5 522,-590.5 522,-569.5 642,-569.5 642,-590.5"/>
<text text-anchor="middle" x="582" y="-577.5" font-family="Vera" font-size="10.00">imagen.RawRectangle</text>
</g>
<!-- imagen.patterngenerator.PatternGenerator&#45;&gt;imagen.RawRectangle -->
<g id="edge22" class="edge"><title>imagen.patterngenerator.PatternGenerator&#45;&gt;imagen.RawRectangle</title>
<path fill="none" stroke="black" stroke-width="0.5" d="M358.209,-495.194C384.757,-511.453 439.606,-543.229 490,-561 498.435,-563.975 507.479,-566.547 516.483,-568.752"/>
<polygon fill="black" stroke="black" points="516.208,-570.486 521.477,-569.94 517.018,-567.081 516.208,-570.486"/>
</g>
<!-- imagen.Gabor -->
<g id="node27" class="node"><title>imagen.Gabor</title>
<polygon fill="none" stroke="black" stroke-width="0.5" points="624,-552.5 540,-552.5 540,-531.5 624,-531.5 624,-552.5"/>
<text text-anchor="middle" x="582" y="-539.5" font-family="Vera" font-size="10.00">imagen.Gabor</text>
</g>
<!-- imagen.patterngenerator.PatternGenerator&#45;&gt;imagen.Gabor -->
<g id="edge24" class="edge"><title>imagen.patterngenerator.PatternGenerator&#45;&gt;imagen.Gabor</title>
<path fill="none" stroke="black" stroke-width="0.5" d="M378.982,-495.017C408.848,-502.981 452.009,-514.205 490,-523 504.293,-526.309 519.9,-529.638 534.134,-532.565"/>
<polygon fill="black" stroke="black" points="534.061,-534.336 539.31,-533.625 534.763,-530.908 534.061,-534.336"/>
</g>
<!-- imagen.SquareGrating -->
<g id="node29" class="node"><title>imagen.SquareGrating</title>
<polygon fill="none" stroke="black" stroke-width="0.5" points="644,-514.5 520,-514.5 520,-493.5 644,-493.5 644,-514.5"/>
<text text-anchor="middle" x="582" y="-501.5" font-family="Vera" font-size="10.00">imagen.SquareGrating</text>
</g>
<!-- imagen.patterngenerator.PatternGenerator&#45;&gt;imagen.SquareGrating -->
<g id="edge26" class="edge"><title>imagen.patterngenerator.PatternGenerator&#45;&gt;imagen.SquareGrating</title>
<path fill="none" stroke="black" stroke-width="0.5" d="M454.27,-493.888C474.677,-495.504 495.384,-497.143 514.015,-498.618"/>
<polygon fill="black" stroke="black" points="514.091,-500.379 519.213,-499.029 514.367,-496.89 514.091,-500.379"/>
</g>
<!-- imagen.Sigmoid -->
<g id="node33" class="node"><title>imagen.Sigmoid</title>
<polygon fill="none" stroke="black" stroke-width="0.5" points="629,-476.5 535,-476.5 535,-455.5 629,-455.5 629,-476.5"/>
<text text-anchor="middle" x="582" y="-463.5" font-family="Vera" font-size="10.00">imagen.Sigmoid</text>
</g>
<!-- imagen.patterngenerator.PatternGenerator&#45;&gt;imagen.Sigmoid -->
<g id="edge30" class="edge"><title>imagen.patterngenerator.PatternGenerator&#45;&gt;imagen.Sigmoid</title>
<path fill="none" stroke="black" stroke-width="0.5" d="M454.27,-476.112C480.36,-474.046 506.939,-471.942 529.047,-470.192"/>
<polygon fill="black" stroke="black" points="529.429,-471.917 534.275,-469.778 529.153,-468.428 529.429,-471.917"/>
</g>
<!-- imagen.DifferenceOfGaussians -->
<g id="node35" class="node"><title>imagen.DifferenceOfGaussians</title>
<polygon fill="none" stroke="black" stroke-width="0.5" points="664,-438.5 500,-438.5 500,-417.5 664,-417.5 664,-438.5"/>
<text text-anchor="middle" x="582" y="-425.5" font-family="Vera" font-size="10.00">imagen.DifferenceOfGaussians</text>
</g>
<!-- imagen.patterngenerator.PatternGenerator&#45;&gt;imagen.DifferenceOfGaussians -->
<g id="edge32" class="edge"><title>imagen.patterngenerator.PatternGenerator&#45;&gt;imagen.DifferenceOfGaussians</title>
<path fill="none" stroke="black" stroke-width="0.5" d="M420.515,-474.949C431.895,-472.553 443.353,-469.609 454,-466 471.134,-460.192 472.972,-453.112 490,-447 498.289,-444.024 507.175,-441.459 516.037,-439.263"/>
<polygon fill="black" stroke="black" points="516.501,-440.951 520.953,-438.08 515.683,-437.548 516.501,-440.951"/>
</g>
<!-- imagen.Sweeper -->
<g id="node37" class="node"><title>imagen.Sweeper</title>
<polygon fill="none" stroke="black" stroke-width="0.5" points="630,-400.5 534,-400.5 534,-379.5 630,-379.5 630,-400.5"/>
<text text-anchor="middle" x="582" y="-387.5" font-family="Vera" font-size="10.00">imagen.Sweeper</text>
</g>
<!-- imagen.patterngenerator.PatternGenerator&#45;&gt;imagen.Sweeper -->
<g id="edge34" class="edge"><title>imagen.patterngenerator.PatternGenerator&#45;&gt;imagen.Sweeper</title>
<path fill="none" stroke="black" stroke-width="0.5" d="M436.846,-474.968C442.881,-472.512 448.666,-469.554 454,-466 478.935,-449.386 465.365,-426.056 490,-409 501.226,-401.228 514.949,-396.507 528.334,-393.673"/>
<polygon fill="black" stroke="black" points="528.675,-395.39 533.246,-392.712 528.003,-391.955 528.675,-395.39"/>
</g>
<!-- imagen.Disk -->
<g id="node40" class="node"><title>imagen.Disk</title>
<polygon fill="none" stroke="black" stroke-width="0.5" points="620,-362.5 544,-362.5 544,-341.5 620,-341.5 620,-362.5"/>
<text text-anchor="middle" x="582" y="-349.5" font-family="Vera" font-size="10.00">imagen.Disk</text>
</g>
<!-- imagen.patterngenerator.PatternGenerator&#45;&gt;imagen.Disk -->
<g id="edge38" class="edge"><title>imagen.patterngenerator.PatternGenerator&#45;&gt;imagen.Disk</title>
<path fill="none" stroke="black" stroke-width="0.5" d="M440.125,-474.98C445.063,-472.476 449.735,-469.508 454,-466 488.872,-437.318 455.644,-400.298 490,-371 503.383,-359.587 521.817,-354.418 538.672,-352.258"/>
<polygon fill="black" stroke="black" points="539.069,-353.974 543.844,-351.68 538.681,-350.496 539.069,-353.974"/>
</g>
<!-- imagen.Translator -->
<g id="node42" class="node"><title>imagen.Translator</title>
<polygon fill="none" stroke="black" stroke-width="0.5" points="633,-324.5 531,-324.5 531,-303.5 633,-303.5 633,-324.5"/>
<text text-anchor="middle" x="582" y="-311.5" font-family="Vera" font-size="10.00">imagen.Translator</text>
</g>
<!-- imagen.patterngenerator.PatternGenerator&#45;&gt;imagen.Translator -->
<g id="edge40" class="edge"><title>imagen.patterngenerator.PatternGenerator&#45;&gt;imagen.Translator</title>
<path fill="none" stroke="black" stroke-width="0.5" d="M441.576,-474.896C446.023,-472.39 450.204,-469.447 454,-466 499.336,-424.832 445.404,-374.968 490,-333 499.646,-323.922 512.432,-318.692 525.394,-315.782"/>
<polygon fill="black" stroke="black" points="526.002,-317.444 530.559,-314.742 525.311,-314.013 526.002,-317.444"/>
</g>
<!-- imagen.LogGaussian -->
<g id="node44" class="node"><title>imagen.LogGaussian</title>
<polygon fill="none" stroke="black" stroke-width="0.5" points="640,-286.5 524,-286.5 524,-265.5 640,-265.5 640,-286.5"/>
<text text-anchor="middle" x="582" y="-273.5" font-family="Vera" font-size="10.00">imagen.LogGaussian</text>
</g>
<!-- imagen.patterngenerator.PatternGenerator&#45;&gt;imagen.LogGaussian -->
<g id="edge42" class="edge"><title>imagen.patterngenerator.PatternGenerator&#45;&gt;imagen.LogGaussian</title>
<path fill="none" stroke="black" stroke-width="0.5" d="M442.322,-474.855C446.517,-472.348 450.445,-469.417 454,-466 509.991,-412.176 434.977,-349.813 490,-295 497.816,-287.214 507.924,-282.217 518.568,-279.077"/>
<polygon fill="black" stroke="black" points="519.111,-280.743 523.489,-277.762 518.207,-277.362 519.111,-280.743"/>
</g>
<!-- imagen.SigmoidedDoG -->
<g id="node46" class="node"><title>imagen.SigmoidedDoG</title>
<polygon fill="none" stroke="black" stroke-width="0.5" points="646,-248.5 518,-248.5 518,-227.5 646,-227.5 646,-248.5"/>
<text text-anchor="middle" x="582" y="-235.5" font-family="Vera" font-size="10.00">imagen.SigmoidedDoG</text>
</g>
<!-- imagen.patterngenerator.PatternGenerator&#45;&gt;imagen.SigmoidedDoG -->
<g id="edge44" class="edge"><title>imagen.patterngenerator.PatternGenerator&#45;&gt;imagen.SigmoidedDoG</title>
<path fill="none" stroke="black" stroke-width="0.5" d="M442.975,-474.706C446.942,-472.226 450.649,-469.343 454,-466 520.734,-399.435 424.462,-324.743 490,-257 496.315,-250.473 504.236,-245.886 512.765,-242.704"/>
<polygon fill="black" stroke="black" points="513.387,-244.342 517.56,-241.078 512.263,-241.027 513.387,-244.342"/>
</g>
<!-- imagen.SigmoidedDoLG -->
<g id="node48" class="node"><title>imagen.SigmoidedDoLG</title>
<polygon fill="none" stroke="black" stroke-width="0.5" points="648,-210.5 516,-210.5 516,-189.5 648,-189.5 648,-210.5"/>
<text text-anchor="middle" x="582" y="-197.5" font-family="Vera" font-size="10.00">imagen.SigmoidedDoLG</text>
</g>
<!-- imagen.patterngenerator.PatternGenerator&#45;&gt;imagen.SigmoidedDoLG -->
<g id="edge46" class="edge"><title>imagen.patterngenerator.PatternGenerator&#45;&gt;imagen.SigmoidedDoLG</title>
<path fill="none" stroke="black" stroke-width="0.5" d="M443.082,-474.812C447.02,-472.304 450.692,-469.386 454,-466 531.525,-386.646 413.9,-299.722 490,-219 495.652,-213.005 502.655,-208.637 510.257,-205.486"/>
<polygon fill="black" stroke="black" points="510.997,-207.077 515.06,-203.677 509.764,-203.801 510.997,-207.077"/>
</g>
<!-- imagen.GaussiansCorner -->
<g id="node50" class="node"><title>imagen.GaussiansCorner</title>
<polygon fill="none" stroke="black" stroke-width="0.5" points="650,-172.5 514,-172.5 514,-151.5 650,-151.5 650,-172.5"/>
<text text-anchor="middle" x="582" y="-159.5" font-family="Vera" font-size="10.00">imagen.GaussiansCorner</text>
</g>
<!-- imagen.patterngenerator.PatternGenerator&#45;&gt;imagen.GaussiansCorner -->
<g id="edge48" class="edge"><title>imagen.patterngenerator.PatternGenerator&#45;&gt;imagen.GaussiansCorner</title>
<path fill="none" stroke="black" stroke-width="0.5" d="M443.162,-474.889C447.079,-472.361 450.725,-469.417 454,-466 542.345,-373.828 403.31,-274.73 490,-181 495.129,-175.455 501.413,-171.294 508.266,-168.199"/>
<polygon fill="black" stroke="black" points="509.13,-169.736 513.094,-166.222 507.804,-166.497 509.13,-169.736"/>
</g>
<!-- imagen.Rectangle -->
<g id="node55" class="node"><title>imagen.Rectangle</title>
<polygon fill="none" stroke="black" stroke-width="0.5" points="633,-134.5 531,-134.5 531,-113.5 633,-113.5 633,-134.5"/>
<text text-anchor="middle" x="582" y="-121.5" font-family="Vera" font-size="10.00">imagen.Rectangle</text>
</g>
<!-- imagen.patterngenerator.PatternGenerator&#45;&gt;imagen.Rectangle -->
<g id="edge58" class="edge"><title>imagen.patterngenerator.PatternGenerator&#45;&gt;imagen.Rectangle</title>
<path fill="none" stroke="black" stroke-width="0.5" d="M443.223,-474.948C447.125,-472.404 450.75,-469.441 454,-466 553.183,-360.991 392.702,-249.758 490,-143 499.295,-132.801 512.496,-127.268 526.005,-124.431"/>
<polygon fill="black" stroke="black" points="526.393,-126.139 530.989,-123.505 525.753,-122.698 526.393,-126.139"/>
</g>
<!-- imagen.SineGrating -->
<g id="node64" class="node"><title>imagen.SineGrating</title>
<polygon fill="none" stroke="black" stroke-width="0.5" points="638,-96.5 526,-96.5 526,-75.5 638,-75.5 638,-96.5"/>
<text text-anchor="middle" x="582" y="-83.5" font-family="Vera" font-size="10.00">imagen.SineGrating</text>
</g>
<!-- imagen.patterngenerator.PatternGenerator&#45;&gt;imagen.SineGrating -->
<g id="edge62" class="edge"><title>imagen.patterngenerator.PatternGenerator&#45;&gt;imagen.SineGrating</title>
<path fill="none" stroke="black" stroke-width="0.5" d="M443.273,-474.994C447.161,-472.438 450.77,-469.46 454,-466 509.017,-407.07 436.041,-164.9 490,-105 498.023,-96.0935 509.023,-90.7351 520.629,-87.6215"/>
<polygon fill="black" stroke="black" points="521.179,-89.2892 525.633,-86.4208 520.363,-85.8858 521.179,-89.2892"/>
</g>
<!-- imagen.Ring -->
<g id="node71" class="node"><title>imagen.Ring</title>
<polygon fill="none" stroke="black" stroke-width="0.5" points="620,-58.5 544,-58.5 544,-37.5 620,-37.5 620,-58.5"/>
<text text-anchor="middle" x="582" y="-45.5" font-family="Vera" font-size="10.00">imagen.Ring</text>
</g>
<!-- imagen.patterngenerator.PatternGenerator&#45;&gt;imagen.Ring -->
<g id="edge70" class="edge"><title>imagen.patterngenerator.PatternGenerator&#45;&gt;imagen.Ring</title>
<path fill="none" stroke="black" stroke-width="0.5" d="M443.796,-474.709C447.49,-472.215 450.92,-469.33 454,-466 514.447,-400.64 430.726,-133.426 490,-67 502.006,-53.5457 520.801,-48.1689 538.283,-46.402"/>
<polygon fill="black" stroke="black" points="538.815,-48.1145 543.657,-45.9646 538.531,-44.6261 538.815,-48.1145"/>
</g>
<!-- imagen.Spectrogram -->
<g id="node5" class="node"><title>imagen.Spectrogram</title>
<polygon fill="none" stroke="black" stroke-width="0.5" points="848,-894.5 730,-894.5 730,-873.5 848,-873.5 848,-894.5"/>
<text text-anchor="middle" x="789" y="-881.5" font-family="Vera" font-size="10.00">imagen.Spectrogram</text>
</g>
<!-- imagen.PowerSpectrum&#45;&gt;imagen.Spectrogram -->
<g id="edge4" class="edge"><title>imagen.PowerSpectrum&#45;&gt;imagen.Spectrogram</title>
<path fill="none" stroke="black" stroke-width="0.5" d="M647.781,-884C672.206,-884 699.878,-884 724.214,-884"/>
<polygon fill="black" stroke="black" points="724.354,-885.75 729.354,-884 724.354,-882.25 724.354,-885.75"/>
</g>
<!-- imagen.TimeSeries -->
<g id="node8" class="node"><title>imagen.TimeSeries</title>
<polygon fill="none" stroke="black" stroke-width="0.5" points="396,-457.5 288,-457.5 288,-436.5 396,-436.5 396,-457.5"/>
<text text-anchor="middle" x="342" y="-444.5" font-family="Vera" font-size="10.00">imagen.TimeSeries</text>
</g>
<!-- param.parameterized.Parameterized -->
<g id="node9" class="node"><title>param.parameterized.Parameterized</title>
<polygon fill="none" stroke="black" stroke-width="0.5" points="194,-476.5 5.68434e-14,-476.5 0,-455.5 194,-455.5 194,-476.5"/>
<text text-anchor="middle" x="97" y="-463.5" font-family="Vera" font-size="10.00">param.parameterized.Parameterized</text>
</g>
<!-- param.parameterized.Parameterized&#45;&gt;imagen.patterngenerator.PatternGenerator -->
<g id="edge64" class="edge"><title>param.parameterized.Parameterized&#45;&gt;imagen.patterngenerator.PatternGenerator</title>
<path fill="none" stroke="black" stroke-width="0.5" d="M194.182,-473.537C204.286,-474.32 214.629,-475.122 224.922,-475.92"/>
<polygon fill="black" stroke="black" points="224.849,-477.67 229.969,-476.312 225.12,-474.18 224.849,-477.67"/>
</g>
<!-- param.parameterized.Parameterized&#45;&gt;imagen.TimeSeries -->
<g id="edge6" class="edge"><title>param.parameterized.Parameterized&#45;&gt;imagen.TimeSeries</title>
<path fill="none" stroke="black" stroke-width="0.5" d="M194.182,-458.463C223.866,-456.161 255.624,-453.699 282.066,-451.648"/>
<polygon fill="black" stroke="black" points="282.431,-453.375 287.281,-451.244 282.161,-449.885 282.431,-453.375"/>
</g>
<!-- imagen.Curve -->
<g id="node52" class="node"><title>imagen.Curve</title>
<polygon fill="none" stroke="black" stroke-width="0.5" points="830,-818.5 748,-818.5 748,-797.5 830,-797.5 830,-818.5"/>
<text text-anchor="middle" x="789" y="-805.5" font-family="Vera" font-size="10.00">imagen.Curve</text>
</g>
<!-- imagen.Arc&#45;&gt;imagen.Curve -->
<g id="edge50" class="edge"><title>imagen.Arc&#45;&gt;imagen.Curve</title>
<path fill="none" stroke="black" stroke-width="0.5" d="M617.585,-808C652.1,-808 704.658,-808 742.474,-808"/>
<polygon fill="black" stroke="black" points="742.476,-809.75 747.476,-808 742.476,-806.25 742.476,-809.75"/>
</g>
<!-- imagen.Null -->
<g id="node62" class="node"><title>imagen.Null</title>
<polygon fill="none" stroke="black" stroke-width="0.5" points="826,-628.5 752,-628.5 752,-607.5 826,-607.5 826,-628.5"/>
<text text-anchor="middle" x="789" y="-615.5" font-family="Vera" font-size="10.00">imagen.Null</text>
</g>
<!-- imagen.patterngenerator.Constant&#45;&gt;imagen.Null -->
<g id="edge60" class="edge"><title>imagen.patterngenerator.Constant&#45;&gt;imagen.Null</title>
<path fill="none" stroke="black" stroke-width="0.5" d="M674.3,-618C699.545,-618 725.69,-618 746.63,-618"/>
<polygon fill="black" stroke="black" points="746.839,-619.75 751.839,-618 746.838,-616.25 746.839,-619.75"/>
</g>
<!-- param.ClassSelector -->
<g id="node57" class="node"><title>param.ClassSelector</title>
<polygon fill="none" stroke="black" stroke-width="0.5" points="640,-20.5 524,-20.5 524,0.5 640,0.5 640,-20.5"/>
<text text-anchor="middle" x="582" y="-7.5" font-family="Vera" font-size="10.00">param.ClassSelector</text>
</g>
<!-- param.Selector&#45;&gt;param.ClassSelector -->
<g id="edge54" class="edge"><title>param.Selector&#45;&gt;param.ClassSelector</title>
<path fill="none" stroke="black" stroke-width="0.5" d="M387.707,-10C424.748,-10 477.358,-10 518.494,-10"/>
<polygon fill="black" stroke="black" points="518.706,-11.7501 523.706,-10 518.706,-8.2501 518.706,-11.7501"/>
</g>
<!-- imagen.TwoRectangles -->
<g id="node54" class="node"><title>imagen.TwoRectangles</title>
<polygon fill="none" stroke="black" stroke-width="0.5" points="851,-134.5 727,-134.5 727,-113.5 851,-113.5 851,-134.5"/>
<text text-anchor="middle" x="789" y="-121.5" font-family="Vera" font-size="10.00">imagen.TwoRectangles</text>
</g>
<!-- imagen.Rectangle&#45;&gt;imagen.TwoRectangles -->
<g id="edge52" class="edge"><title>imagen.Rectangle&#45;&gt;imagen.TwoRectangles</title>
<path fill="none" stroke="black" stroke-width="0.5" d="M633.169,-124C659.881,-124 692.903,-124 721.665,-124"/>
<polygon fill="black" stroke="black" points="721.983,-125.75 726.983,-124 721.983,-122.25 721.983,-125.75"/>
</g>
<!-- imagen.TimeSeriesParam -->
<g id="node67" class="node"><title>imagen.TimeSeriesParam</title>
<polygon fill="none" stroke="black" stroke-width="0.5" points="859,-20.5 719,-20.5 719,0.5 859,0.5 859,-20.5"/>
<text text-anchor="middle" x="789" y="-7.5" font-family="Vera" font-size="10.00">imagen.TimeSeriesParam</text>
</g>
<!-- param.ClassSelector&#45;&gt;imagen.TimeSeriesParam -->
<g id="edge66" class="edge"><title>param.ClassSelector&#45;&gt;imagen.TimeSeriesParam</title>
<path fill="none" stroke="black" stroke-width="0.5" d="M640.212,-10C662.986,-10 689.405,-10 713.606,-10"/>
<polygon fill="black" stroke="black" points="713.734,-11.7501 718.734,-10 713.734,-8.2501 713.734,-11.7501"/>
</g>
<!-- imagen.OrientationContrast -->
<g id="node69" class="node"><title>imagen.OrientationContrast</title>
<polygon fill="none" stroke="black" stroke-width="0.5" points="864,-96.5 714,-96.5 714,-75.5 864,-75.5 864,-96.5"/>
<text text-anchor="middle" x="789" y="-83.5" font-family="Vera" font-size="10.00">imagen.OrientationContrast</text>
</g>
<!-- imagen.SineGrating&#45;&gt;imagen.OrientationContrast -->
<g id="edge68" class="edge"><title>imagen.SineGrating&#45;&gt;imagen.OrientationContrast</title>
<path fill="none" stroke="black" stroke-width="0.5" d="M638.017,-86C659.815,-86 685.2,-86 708.866,-86"/>
<polygon fill="black" stroke="black" points="708.888,-87.7501 713.888,-86 708.887,-84.2501 708.888,-87.7501"/>
</g>
</g>
</svg>
