<?xml version="1.0" encoding="UTF-8" standalone="no"?>
<!DOCTYPE svg PUBLIC "-//W3C//DTD SVG 1.1//EN"
 "http://www.w3.org/Graphics/SVG/1.1/DTD/svg11.dtd">
<!-- Generated by graphviz version 2.26.3 (20100126.1600)
 -->
<!-- Title: inheritancebede3c61fc Pages: 1 -->
<svg width="2498pt" height="503pt"
 viewBox="0.00 0.00 2498.00 503.00" xmlns="http://www.w3.org/2000/svg" xmlns:xlink="http://www.w3.org/1999/xlink">
<g id="graph1" class="graph" transform="scale(1 1) rotate(0) translate(4 499)">
<title>inheritancebede3c61fc</title>
<polygon fill="white" stroke="white" points="-4,5 -4,-499 2495,-499 2495,5 -4,5"/>
<!-- topo.command.pylabplot.matrixplot3dx3 -->
<g id="node1" class="node"><title>topo.command.pylabplot.matrixplot3dx3</title>
<polygon fill="none" stroke="black" stroke-width="0.5" points="1470,-495.5 1258,-495.5 1258,-474.5 1470,-474.5 1470,-495.5"/>
<text text-anchor="middle" x="1364" y="-482.5" font-family="Vera" font-size="10.00">topo.command.pylabplot.matrixplot3dx3</text>
</g>
<!-- topo.command.pylabplot.PylabPlotCommand -->
<g id="node2" class="node"><title>topo.command.pylabplot.PylabPlotCommand</title>
<polygon fill="none" stroke="black" stroke-width="0.5" points="1112,-305.5 880,-305.5 880,-284.5 1112,-284.5 1112,-305.5"/>
<text text-anchor="middle" x="996" y="-292.5" font-family="Vera" font-size="10.00">topo.command.pylabplot.PylabPlotCommand</text>
</g>
<!-- topo.command.pylabplot.PylabPlotCommand&#45;&gt;topo.command.pylabplot.matrixplot3dx3 -->
<g id="edge2" class="edge"><title>topo.command.pylabplot.PylabPlotCommand&#45;&gt;topo.command.pylabplot.matrixplot3dx3</title>
<path fill="none" stroke="black" stroke-width="0.5" d="M1003.29,-305.021C1026.16,-335.555 1100.08,-427.673 1186,-466 1206.58,-475.181 1229.79,-480.685 1252.48,-483.859"/>
<polygon fill="black" stroke="black" points="1252.43,-485.618 1257.61,-484.539 1252.89,-482.148 1252.43,-485.618"/>
</g>
<!-- topo.command.pylabplot.histogramplot -->
<g id="node7" class="node"><title>topo.command.pylabplot.histogramplot</title>
<polygon fill="none" stroke="black" stroke-width="0.5" points="1467,-457.5 1261,-457.5 1261,-436.5 1467,-436.5 1467,-457.5"/>
<text text-anchor="middle" x="1364" y="-444.5" font-family="Vera" font-size="10.00">topo.command.pylabplot.histogramplot</text>
</g>
<!-- topo.command.pylabplot.PylabPlotCommand&#45;&gt;topo.command.pylabplot.histogramplot -->
<g id="edge6" class="edge"><title>topo.command.pylabplot.PylabPlotCommand&#45;&gt;topo.command.pylabplot.histogramplot</title>
<path fill="none" stroke="black" stroke-width="0.5" d="M1006.41,-305.284C1033.37,-331.173 1108.71,-399.036 1186,-428 1207.87,-436.196 1232.24,-441.217 1255.76,-444.221"/>
<polygon fill="black" stroke="black" points="1255.59,-445.963 1260.76,-444.832 1256.01,-442.489 1255.59,-445.963"/>
</g>
<!-- topo.command.pylabplot.matrixplot -->
<g id="node10" class="node"><title>topo.command.pylabplot.matrixplot</title>
<polygon fill="none" stroke="black" stroke-width="0.5" points="1458,-419.5 1270,-419.5 1270,-398.5 1458,-398.5 1458,-419.5"/>
<text text-anchor="middle" x="1364" y="-406.5" font-family="Vera" font-size="10.00">topo.command.pylabplot.matrixplot</text>
</g>
<!-- topo.command.pylabplot.PylabPlotCommand&#45;&gt;topo.command.pylabplot.matrixplot -->
<g id="edge30" class="edge"><title>topo.command.pylabplot.PylabPlotCommand&#45;&gt;topo.command.pylabplot.matrixplot</title>
<path fill="none" stroke="black" stroke-width="0.5" d="M1011.47,-305.167C1042.87,-325.244 1116.99,-369.781 1186,-390 1211.02,-397.331 1238.77,-401.898 1264.76,-404.725"/>
<polygon fill="black" stroke="black" points="1264.78,-406.486 1269.93,-405.267 1265.14,-403.005 1264.78,-406.486"/>
</g>
<!-- topo.command.pylabplot.plot_modulation_ratio -->
<g id="node12" class="node"><title>topo.command.pylabplot.plot_modulation_ratio</title>
<polygon fill="none" stroke="black" stroke-width="0.5" points="1486,-381.5 1242,-381.5 1242,-360.5 1486,-360.5 1486,-381.5"/>
<text text-anchor="middle" x="1364" y="-368.5" font-family="Vera" font-size="10.00">topo.command.pylabplot.plot_modulation_ratio</text>
</g>
<!-- topo.command.pylabplot.PylabPlotCommand&#45;&gt;topo.command.pylabplot.plot_modulation_ratio -->
<g id="edge10" class="edge"><title>topo.command.pylabplot.PylabPlotCommand&#45;&gt;topo.command.pylabplot.plot_modulation_ratio</title>
<path fill="none" stroke="black" stroke-width="0.5" d="M1023.6,-305.042C1060.21,-317.955 1127.09,-340.126 1186,-352 1202.29,-355.283 1219.54,-358.024 1236.64,-360.305"/>
<polygon fill="black" stroke="black" points="1236.75,-362.085 1241.94,-360.999 1237.21,-358.615 1236.75,-362.085"/>
</g>
<!-- topo.command.pylabplot.topographic_grid -->
<g id="node17" class="node"><title>topo.command.pylabplot.topographic_grid</title>
<polygon fill="none" stroke="black" stroke-width="0.5" points="1474,-343.5 1254,-343.5 1254,-322.5 1474,-322.5 1474,-343.5"/>
<text text-anchor="middle" x="1364" y="-330.5" font-family="Vera" font-size="10.00">topo.command.pylabplot.topographic_grid</text>
</g>
<!-- topo.command.pylabplot.PylabPlotCommand&#45;&gt;topo.command.pylabplot.topographic_grid -->
<g id="edge14" class="edge"><title>topo.command.pylabplot.PylabPlotCommand&#45;&gt;topo.command.pylabplot.topographic_grid</title>
<path fill="none" stroke="black" stroke-width="0.5" d="M1093.17,-305.034C1145.15,-310.402 1209.14,-317.009 1261.86,-322.453"/>
<polygon fill="black" stroke="black" points="1261.77,-324.203 1266.93,-322.976 1262.13,-320.722 1261.77,-324.203"/>
</g>
<!-- topo.command.pylabplot.tuning_curve -->
<g id="node25" class="node"><title>topo.command.pylabplot.tuning_curve</title>
<polygon fill="none" stroke="black" stroke-width="0.5" points="1464,-305.5 1264,-305.5 1264,-284.5 1464,-284.5 1464,-305.5"/>
<text text-anchor="middle" x="1364" y="-292.5" font-family="Vera" font-size="10.00">topo.command.pylabplot.tuning_curve</text>
</g>
<!-- topo.command.pylabplot.PylabPlotCommand&#45;&gt;topo.command.pylabplot.tuning_curve -->
<g id="edge20" class="edge"><title>topo.command.pylabplot.PylabPlotCommand&#45;&gt;topo.command.pylabplot.tuning_curve</title>
<path fill="none" stroke="black" stroke-width="0.5" d="M1112.69,-295C1159.31,-295 1212.62,-295 1258.11,-295"/>
<polygon fill="black" stroke="black" points="1258.33,-296.75 1263.33,-295 1258.33,-293.25 1258.33,-296.75"/>
</g>
<!-- topo.command.pylabplot.matrixplot3d -->
<g id="node32" class="node"><title>topo.command.pylabplot.matrixplot3d</title>
<polygon fill="none" stroke="black" stroke-width="0.5" points="1464,-267.5 1264,-267.5 1264,-246.5 1464,-246.5 1464,-267.5"/>
<text text-anchor="middle" x="1364" y="-254.5" font-family="Vera" font-size="10.00">topo.command.pylabplot.matrixplot3d</text>
</g>
<!-- topo.command.pylabplot.PylabPlotCommand&#45;&gt;topo.command.pylabplot.matrixplot3d -->
<g id="edge28" class="edge"><title>topo.command.pylabplot.PylabPlotCommand&#45;&gt;topo.command.pylabplot.matrixplot3d</title>
<path fill="none" stroke="black" stroke-width="0.5" d="M1093.17,-284.966C1145.15,-279.598 1209.14,-272.991 1261.86,-267.547"/>
<polygon fill="black" stroke="black" points="1262.13,-269.278 1266.93,-267.024 1261.77,-265.797 1262.13,-269.278"/>
</g>
<!-- topo.command.pylabplot.plot_tracked_attributes -->
<g id="node37" class="node"><title>topo.command.pylabplot.plot_tracked_attributes</title>
<polygon fill="none" stroke="black" stroke-width="0.5" points="1489,-229.5 1239,-229.5 1239,-208.5 1489,-208.5 1489,-229.5"/>
<text text-anchor="middle" x="1364" y="-216.5" font-family="Vera" font-size="10.00">topo.command.pylabplot.plot_tracked_attributes</text>
</g>
<!-- topo.command.pylabplot.PylabPlotCommand&#45;&gt;topo.command.pylabplot.plot_tracked_attributes -->
<g id="edge34" class="edge"><title>topo.command.pylabplot.PylabPlotCommand&#45;&gt;topo.command.pylabplot.plot_tracked_attributes</title>
<path fill="none" stroke="black" stroke-width="0.5" d="M1023.6,-284.958C1060.21,-272.045 1127.09,-249.874 1186,-238 1202.29,-234.717 1219.54,-231.976 1236.64,-229.695"/>
<polygon fill="black" stroke="black" points="1237.21,-231.385 1241.94,-229.001 1236.75,-227.915 1237.21,-231.385"/>
</g>
<!-- topo.command.pylabplot.vectorplot -->
<g id="node56" class="node"><title>topo.command.pylabplot.vectorplot</title>
<polygon fill="none" stroke="black" stroke-width="0.5" points="1458,-191.5 1270,-191.5 1270,-170.5 1458,-170.5 1458,-191.5"/>
<text text-anchor="middle" x="1364" y="-178.5" font-family="Vera" font-size="10.00">topo.command.pylabplot.vectorplot</text>
</g>
<!-- topo.command.pylabplot.PylabPlotCommand&#45;&gt;topo.command.pylabplot.vectorplot -->
<g id="edge54" class="edge"><title>topo.command.pylabplot.PylabPlotCommand&#45;&gt;topo.command.pylabplot.vectorplot</title>
<path fill="none" stroke="black" stroke-width="0.5" d="M1011.47,-284.833C1042.87,-264.756 1116.99,-220.219 1186,-200 1211.02,-192.669 1238.77,-188.102 1264.76,-185.275"/>
<polygon fill="black" stroke="black" points="1265.14,-186.995 1269.93,-184.733 1264.78,-183.514 1265.14,-186.995"/>
</g>
<!-- topo.command.pylabplot.overlaid_plots -->
<g id="node61" class="node"><title>topo.command.pylabplot.overlaid_plots</title>
<polygon fill="none" stroke="black" stroke-width="0.5" points="1467,-153.5 1261,-153.5 1261,-132.5 1467,-132.5 1467,-153.5"/>
<text text-anchor="middle" x="1364" y="-140.5" font-family="Vera" font-size="10.00">topo.command.pylabplot.overlaid_plots</text>
</g>
<!-- topo.command.pylabplot.PylabPlotCommand&#45;&gt;topo.command.pylabplot.overlaid_plots -->
<g id="edge60" class="edge"><title>topo.command.pylabplot.PylabPlotCommand&#45;&gt;topo.command.pylabplot.overlaid_plots</title>
<path fill="none" stroke="black" stroke-width="0.5" d="M1006.41,-284.716C1033.37,-258.827 1108.71,-190.964 1186,-162 1207.87,-153.804 1232.24,-148.783 1255.76,-145.779"/>
<polygon fill="black" stroke="black" points="1256.01,-147.511 1260.76,-145.168 1255.59,-144.037 1256.01,-147.511"/>
</g>
<!-- topo.analysis.featureresponses.SinusoidalMeasureResponseCommand -->
<g id="node4" class="node"><title>topo.analysis.featureresponses.SinusoidalMeasureResponseCommand</title>
<polygon fill="none" stroke="black" stroke-width="0.5" points="1542,-115.5 1186,-115.5 1186,-94.5 1542,-94.5 1542,-115.5"/>
<text text-anchor="middle" x="1364" y="-102.5" font-family="Vera" font-size="10.00">topo.analysis.featureresponses.SinusoidalMeasureResponseCommand</text>
</g>
<!-- topo.analysis.featureresponses.FeatureCurveCommand -->
<g id="node20" class="node"><title>topo.analysis.featureresponses.FeatureCurveCommand</title>
<polygon fill="none" stroke="black" stroke-width="0.5" points="1862,-115.5 1578,-115.5 1578,-94.5 1862,-94.5 1862,-115.5"/>
<text text-anchor="middle" x="1720" y="-102.5" font-family="Vera" font-size="10.00">topo.analysis.featureresponses.FeatureCurveCommand</text>
</g>
<!-- topo.analysis.featureresponses.SinusoidalMeasureResponseCommand&#45;&gt;topo.analysis.featureresponses.FeatureCurveCommand -->
<g id="edge22" class="edge"><title>topo.analysis.featureresponses.SinusoidalMeasureResponseCommand&#45;&gt;topo.analysis.featureresponses.FeatureCurveCommand</title>
<path fill="none" stroke="black" stroke-width="0.5" d="M1542,-105C1552.21,-105 1562.43,-105 1572.51,-105"/>
<polygon fill="black" stroke="black" points="1572.76,-106.75 1577.76,-105 1572.76,-103.25 1572.76,-106.75"/>
</g>
<!-- topo.analysis.featureresponses.MeasureResponseCommand -->
<g id="node5" class="node"><title>topo.analysis.featureresponses.MeasureResponseCommand</title>
<polygon fill="none" stroke="black" stroke-width="0.5" points="1149,-115.5 843,-115.5 843,-94.5 1149,-94.5 1149,-115.5"/>
<text text-anchor="middle" x="996" y="-102.5" font-family="Vera" font-size="10.00">topo.analysis.featureresponses.MeasureResponseCommand</text>
</g>
<!-- topo.analysis.featureresponses.MeasureResponseCommand&#45;&gt;topo.analysis.featureresponses.SinusoidalMeasureResponseCommand -->
<g id="edge4" class="edge"><title>topo.analysis.featureresponses.MeasureResponseCommand&#45;&gt;topo.analysis.featureresponses.SinusoidalMeasureResponseCommand</title>
<path fill="none" stroke="black" stroke-width="0.5" d="M1149.67,-105C1159.91,-105 1170.29,-105 1180.66,-105"/>
<polygon fill="black" stroke="black" points="1180.75,-106.75 1185.75,-105 1180.75,-103.25 1180.75,-106.75"/>
</g>
<!-- topo.analysis.featureresponses.PositionMeasurementCommand -->
<g id="node41" class="node"><title>topo.analysis.featureresponses.PositionMeasurementCommand</title>
<polygon fill="none" stroke="black" stroke-width="0.5" points="1526,-77.5 1202,-77.5 1202,-56.5 1526,-56.5 1526,-77.5"/>
<text text-anchor="middle" x="1364" y="-64.5" font-family="Vera" font-size="10.00">topo.analysis.featureresponses.PositionMeasurementCommand</text>
</g>
<!-- topo.analysis.featureresponses.MeasureResponseCommand&#45;&gt;topo.analysis.featureresponses.PositionMeasurementCommand -->
<g id="edge38" class="edge"><title>topo.analysis.featureresponses.MeasureResponseCommand&#45;&gt;topo.analysis.featureresponses.PositionMeasurementCommand</title>
<path fill="none" stroke="black" stroke-width="0.5" d="M1093.17,-94.9662C1145.15,-89.5982 1209.14,-82.9912 1261.86,-77.5472"/>
<polygon fill="black" stroke="black" points="1262.13,-79.2785 1266.93,-77.024 1261.77,-75.797 1262.13,-79.2785"/>
</g>
<!-- topo.command.pylabplot.fftplot -->
<g id="node9" class="node"><title>topo.command.pylabplot.fftplot</title>
<polygon fill="none" stroke="black" stroke-width="0.5" points="1803,-476.5 1637,-476.5 1637,-455.5 1803,-455.5 1803,-476.5"/>
<text text-anchor="middle" x="1720" y="-463.5" font-family="Vera" font-size="10.00">topo.command.pylabplot.fftplot</text>
</g>
<!-- topo.command.pylabplot.matrixplot&#45;&gt;topo.command.pylabplot.fftplot -->
<g id="edge8" class="edge"><title>topo.command.pylabplot.matrixplot&#45;&gt;topo.command.pylabplot.fftplot</title>
<path fill="none" stroke="black" stroke-width="0.5" d="M1458.18,-412.361C1485.64,-415.124 1515.39,-419.887 1542,-428 1559.3,-433.277 1560.77,-441.493 1578,-447 1594.89,-452.398 1613.39,-456.263 1631.29,-459.03"/>
<polygon fill="black" stroke="black" points="1631.11,-460.774 1636.32,-459.782 1631.63,-457.312 1631.11,-460.774"/>
</g>
<!-- topo.command.pylabplot.activityplot -->
<g id="node35" class="node"><title>topo.command.pylabplot.activityplot</title>
<polygon fill="none" stroke="black" stroke-width="0.5" points="1815,-438.5 1625,-438.5 1625,-417.5 1815,-417.5 1815,-438.5"/>
<text text-anchor="middle" x="1720" y="-425.5" font-family="Vera" font-size="10.00">topo.command.pylabplot.activityplot</text>
</g>
<!-- topo.command.pylabplot.matrixplot&#45;&gt;topo.command.pylabplot.activityplot -->
<g id="edge32" class="edge"><title>topo.command.pylabplot.matrixplot&#45;&gt;topo.command.pylabplot.activityplot</title>
<path fill="none" stroke="black" stroke-width="0.5" d="M1458,-414.017C1507.59,-416.664 1568.47,-419.913 1619.06,-422.613"/>
<polygon fill="black" stroke="black" points="1619.15,-424.37 1624.23,-422.889 1619.33,-420.875 1619.15,-424.37"/>
</g>
<!-- topo.command.pylabplot.gradientplot -->
<g id="node47" class="node"><title>topo.command.pylabplot.gradientplot</title>
<polygon fill="none" stroke="black" stroke-width="0.5" points="1818,-400.5 1622,-400.5 1622,-379.5 1818,-379.5 1818,-400.5"/>
<text text-anchor="middle" x="1720" y="-387.5" font-family="Vera" font-size="10.00">topo.command.pylabplot.gradientplot</text>
</g>
<!-- topo.command.pylabplot.matrixplot&#45;&gt;topo.command.pylabplot.gradientplot -->
<g id="edge44" class="edge"><title>topo.command.pylabplot.matrixplot&#45;&gt;topo.command.pylabplot.gradientplot</title>
<path fill="none" stroke="black" stroke-width="0.5" d="M1458,-403.983C1506.7,-401.384 1566.27,-398.205 1616.3,-395.534"/>
<polygon fill="black" stroke="black" points="1616.52,-397.275 1621.42,-395.261 1616.34,-393.78 1616.52,-397.275"/>
</g>
<!-- topo.command.pylabplot.autocorrelationplot -->
<g id="node63" class="node"><title>topo.command.pylabplot.autocorrelationplot</title>
<polygon fill="none" stroke="black" stroke-width="0.5" points="1835,-362.5 1605,-362.5 1605,-341.5 1835,-341.5 1835,-362.5"/>
<text text-anchor="middle" x="1720" y="-349.5" font-family="Vera" font-size="10.00">topo.command.pylabplot.autocorrelationplot</text>
</g>
<!-- topo.command.pylabplot.matrixplot&#45;&gt;topo.command.pylabplot.autocorrelationplot -->
<g id="edge62" class="edge"><title>topo.command.pylabplot.matrixplot&#45;&gt;topo.command.pylabplot.autocorrelationplot</title>
<path fill="none" stroke="black" stroke-width="0.5" d="M1458.18,-405.639C1485.64,-402.876 1515.39,-398.113 1542,-390 1559.3,-384.723 1560.77,-376.507 1578,-371 1587.77,-367.877 1598.08,-365.267 1608.5,-363.086"/>
<polygon fill="black" stroke="black" points="1609.07,-364.756 1613.63,-362.049 1608.38,-361.326 1609.07,-364.756"/>
</g>
<!-- param.parameterized.ParameterizedFunction -->
<g id="node14" class="node"><title>param.parameterized.ParameterizedFunction</title>
<polygon fill="none" stroke="black" stroke-width="0.5" points="464,-153.5 230,-153.5 230,-132.5 464,-132.5 464,-153.5"/>
<text text-anchor="middle" x="347" y="-140.5" font-family="Vera" font-size="10.00">param.parameterized.ParameterizedFunction</text>
</g>
<!-- topo.command.Command -->
<g id="node30" class="node"><title>topo.command.Command</title>
<polygon fill="none" stroke="black" stroke-width="0.5" points="724,-267.5 582,-267.5 582,-246.5 724,-246.5 724,-267.5"/>
<text text-anchor="middle" x="653" y="-254.5" font-family="Vera" font-size="10.00">topo.command.Command</text>
</g>
<!-- param.parameterized.ParameterizedFunction&#45;&gt;topo.command.Command -->
<g id="edge26" class="edge"><title>param.parameterized.ParameterizedFunction&#45;&gt;topo.command.Command</title>
<path fill="none" stroke="black" stroke-width="0.5" d="M373.887,-153.017C430.202,-173.997 560.332,-222.477 620.905,-245.043"/>
<polygon fill="black" stroke="black" points="620.549,-246.778 625.845,-246.883 621.771,-243.498 620.549,-246.778"/>
</g>
<!-- topo.analysis.featureresponses.PatternPresentingCommand -->
<g id="node43" class="node"><title>topo.analysis.featureresponses.PatternPresentingCommand</title>
<polygon fill="none" stroke="black" stroke-width="0.5" points="805,-153.5 501,-153.5 501,-132.5 805,-132.5 805,-153.5"/>
<text text-anchor="middle" x="653" y="-140.5" font-family="Vera" font-size="10.00">topo.analysis.featureresponses.PatternPresentingCommand</text>
</g>
<!-- param.parameterized.ParameterizedFunction&#45;&gt;topo.analysis.featureresponses.PatternPresentingCommand -->
<g id="edge40" class="edge"><title>param.parameterized.ParameterizedFunction&#45;&gt;topo.analysis.featureresponses.PatternPresentingCommand</title>
<path fill="none" stroke="black" stroke-width="0.5" d="M464.432,-143C474.571,-143 484.931,-143 495.319,-143"/>
<polygon fill="black" stroke="black" points="495.42,-144.75 500.42,-143 495.42,-141.25 495.42,-144.75"/>
</g>
<!-- topo.command.pylabplot.measure_cog -->
<g id="node58" class="node"><title>topo.command.pylabplot.measure_cog</title>
<polygon fill="none" stroke="black" stroke-width="0.5" points="755,-115.5 551,-115.5 551,-94.5 755,-94.5 755,-115.5"/>
<text text-anchor="middle" x="653" y="-102.5" font-family="Vera" font-size="10.00">topo.command.pylabplot.measure_cog</text>
</g>
<!-- param.parameterized.ParameterizedFunction&#45;&gt;topo.command.pylabplot.measure_cog -->
<g id="edge56" class="edge"><title>param.parameterized.ParameterizedFunction&#45;&gt;topo.command.pylabplot.measure_cog</title>
<path fill="none" stroke="black" stroke-width="0.5" d="M427.798,-132.966C470.763,-127.631 523.585,-121.071 567.271,-115.646"/>
<polygon fill="black" stroke="black" points="567.534,-117.377 572.28,-115.024 567.102,-113.904 567.534,-117.377"/>
</g>
<!-- param.parameterized.Parameterized -->
<g id="node15" class="node"><title>param.parameterized.Parameterized</title>
<polygon fill="none" stroke="black" stroke-width="0.5" points="194,-153.5 5.68434e-14,-153.5 0,-132.5 194,-132.5 194,-153.5"/>
<text text-anchor="middle" x="97" y="-140.5" font-family="Vera" font-size="10.00">param.parameterized.Parameterized</text>
</g>
<!-- param.parameterized.Parameterized&#45;&gt;param.parameterized.ParameterizedFunction -->
<g id="edge12" class="edge"><title>param.parameterized.Parameterized&#45;&gt;param.parameterized.ParameterizedFunction</title>
<path fill="none" stroke="black" stroke-width="0.5" d="M194.014,-143C204.04,-143 214.319,-143 224.575,-143"/>
<polygon fill="black" stroke="black" points="224.607,-144.75 229.607,-143 224.607,-141.25 224.607,-144.75"/>
</g>
<!-- topo.command.pylabplot.measure_or_tuning_fullfield -->
<g id="node19" class="node"><title>topo.command.pylabplot.measure_or_tuning_fullfield</title>
<polygon fill="none" stroke="black" stroke-width="0.5" points="2169,-134.5 1899,-134.5 1899,-113.5 2169,-113.5 2169,-134.5"/>
<text text-anchor="middle" x="2034" y="-121.5" font-family="Vera" font-size="10.00">topo.command.pylabplot.measure_or_tuning_fullfield</text>
</g>
<!-- topo.analysis.featureresponses.FeatureCurveCommand&#45;&gt;topo.command.pylabplot.measure_or_tuning_fullfield -->
<g id="edge16" class="edge"><title>topo.analysis.featureresponses.FeatureCurveCommand&#45;&gt;topo.command.pylabplot.measure_or_tuning_fullfield</title>
<path fill="none" stroke="black" stroke-width="0.5" d="M1862.3,-113.611C1872.62,-114.235 1883.02,-114.865 1893.33,-115.488"/>
<polygon fill="black" stroke="black" points="1893.29,-117.239 1898.39,-115.794 1893.5,-113.745 1893.29,-117.239"/>
</g>
<!-- topo.analysis.featureresponses.UnitCurveCommand -->
<g id="node23" class="node"><title>topo.analysis.featureresponses.UnitCurveCommand</title>
<polygon fill="none" stroke="black" stroke-width="0.5" points="2167,-96.5 1901,-96.5 1901,-75.5 2167,-75.5 2167,-96.5"/>
<text text-anchor="middle" x="2034" y="-83.5" font-family="Vera" font-size="10.00">topo.analysis.featureresponses.UnitCurveCommand</text>
</g>
<!-- topo.analysis.featureresponses.FeatureCurveCommand&#45;&gt;topo.analysis.featureresponses.UnitCurveCommand -->
<g id="edge46" class="edge"><title>topo.analysis.featureresponses.FeatureCurveCommand&#45;&gt;topo.analysis.featureresponses.UnitCurveCommand</title>
<path fill="none" stroke="black" stroke-width="0.5" d="M1862.3,-96.3895C1873.28,-95.7253 1884.35,-95.0553 1895.3,-94.3926"/>
<polygon fill="black" stroke="black" points="1895.44,-96.1376 1900.32,-94.0887 1895.23,-92.644 1895.44,-96.1376"/>
</g>
<!-- topo.command.pylabplot.measure_or_tuning -->
<g id="node22" class="node"><title>topo.command.pylabplot.measure_or_tuning</title>
<polygon fill="none" stroke="black" stroke-width="0.5" points="2464,-172.5 2232,-172.5 2232,-151.5 2464,-151.5 2464,-172.5"/>
<text text-anchor="middle" x="2348" y="-159.5" font-family="Vera" font-size="10.00">topo.command.pylabplot.measure_or_tuning</text>
</g>
<!-- topo.analysis.featureresponses.UnitCurveCommand&#45;&gt;topo.command.pylabplot.measure_or_tuning -->
<g id="edge18" class="edge"><title>topo.analysis.featureresponses.UnitCurveCommand&#45;&gt;topo.command.pylabplot.measure_or_tuning</title>
<path fill="none" stroke="black" stroke-width="0.5" d="M2148.23,-96.0467C2155.78,-98.4991 2163.11,-101.452 2170,-105 2190.68,-115.652 2185.29,-132.408 2206,-143 2212.48,-146.312 2219.33,-149.116 2226.38,-151.484"/>
<polygon fill="black" stroke="black" points="2226,-153.199 2231.3,-153.054 2227.07,-149.865 2226,-153.199"/>
</g>
<!-- topo.command.pylabplot.measure_size_response -->
<g id="node39" class="node"><title>topo.command.pylabplot.measure_size_response</title>
<polygon fill="none" stroke="black" stroke-width="0.5" points="2476,-134.5 2220,-134.5 2220,-113.5 2476,-113.5 2476,-134.5"/>
<text text-anchor="middle" x="2348" y="-121.5" font-family="Vera" font-size="10.00">topo.command.pylabplot.measure_size_response</text>
</g>
<!-- topo.analysis.featureresponses.UnitCurveCommand&#45;&gt;topo.command.pylabplot.measure_size_response -->
<g id="edge36" class="edge"><title>topo.analysis.featureresponses.UnitCurveCommand&#45;&gt;topo.command.pylabplot.measure_size_response</title>
<path fill="none" stroke="black" stroke-width="0.5" d="M2116.91,-96.0338C2161,-101.369 2215.2,-107.929 2260.03,-113.354"/>
<polygon fill="black" stroke="black" points="2260,-115.112 2265.17,-113.976 2260.42,-111.638 2260,-115.112"/>
</g>
<!-- topo.command.pylabplot.measure_orientation_contrast -->
<g id="node45" class="node"><title>topo.command.pylabplot.measure_orientation_contrast</title>
<polygon fill="none" stroke="black" stroke-width="0.5" points="2490,-96.5 2206,-96.5 2206,-75.5 2490,-75.5 2490,-96.5"/>
<text text-anchor="middle" x="2348" y="-83.5" font-family="Vera" font-size="10.00">topo.command.pylabplot.measure_orientation_contrast</text>
</g>
<!-- topo.analysis.featureresponses.UnitCurveCommand&#45;&gt;topo.command.pylabplot.measure_orientation_contrast -->
<g id="edge42" class="edge"><title>topo.analysis.featureresponses.UnitCurveCommand&#45;&gt;topo.command.pylabplot.measure_orientation_contrast</title>
<path fill="none" stroke="black" stroke-width="0.5" d="M2167.62,-86C2178.62,-86 2189.78,-86 2200.87,-86"/>
<polygon fill="black" stroke="black" points="2200.96,-87.7501 2205.96,-86 2200.96,-84.2501 2200.96,-87.7501"/>
</g>
<!-- topo.command.pylabplot.measure_contrast_response -->
<g id="node52" class="node"><title>topo.command.pylabplot.measure_contrast_response</title>
<polygon fill="none" stroke="black" stroke-width="0.5" points="2486,-58.5 2210,-58.5 2210,-37.5 2486,-37.5 2486,-58.5"/>
<text text-anchor="middle" x="2348" y="-45.5" font-family="Vera" font-size="10.00">topo.command.pylabplot.measure_contrast_response</text>
</g>
<!-- topo.analysis.featureresponses.UnitCurveCommand&#45;&gt;topo.command.pylabplot.measure_contrast_response -->
<g id="edge50" class="edge"><title>topo.analysis.featureresponses.UnitCurveCommand&#45;&gt;topo.command.pylabplot.measure_contrast_response</title>
<path fill="none" stroke="black" stroke-width="0.5" d="M2116.91,-75.9662C2161,-70.6307 2215.2,-64.0711 2260.03,-58.6461"/>
<polygon fill="black" stroke="black" points="2260.42,-60.3622 2265.17,-58.024 2260,-56.8875 2260.42,-60.3622"/>
</g>
<!-- topo.command.pylabplot.test_measure -->
<g id="node54" class="node"><title>topo.command.pylabplot.test_measure</title>
<polygon fill="none" stroke="black" stroke-width="0.5" points="2451,-20.5 2245,-20.5 2245,0.5 2451,0.5 2451,-20.5"/>
<text text-anchor="middle" x="2348" y="-7.5" font-family="Vera" font-size="10.00">topo.command.pylabplot.test_measure</text>
</g>
<!-- topo.analysis.featureresponses.UnitCurveCommand&#45;&gt;topo.command.pylabplot.test_measure -->
<g id="edge52" class="edge"><title>topo.analysis.featureresponses.UnitCurveCommand&#45;&gt;topo.command.pylabplot.test_measure</title>
<path fill="none" stroke="black" stroke-width="0.5" d="M2059.22,-75.9856C2092.37,-63.2076 2152.66,-41.2927 2206,-29 2219.71,-25.841 2234.29,-23.1504 2248.69,-20.8756"/>
<polygon fill="black" stroke="black" points="2249.31,-22.5503 2253.98,-20.0562 2248.77,-19.0915 2249.31,-22.5503"/>
</g>
<!-- topo.command.pylabplot.cyclic_tuning_curve -->
<g id="node28" class="node"><title>topo.command.pylabplot.cyclic_tuning_curve</title>
<polygon fill="none" stroke="black" stroke-width="0.5" points="1836,-305.5 1604,-305.5 1604,-284.5 1836,-284.5 1836,-305.5"/>
<text text-anchor="middle" x="1720" y="-292.5" font-family="Vera" font-size="10.00">topo.command.pylabplot.cyclic_tuning_curve</text>
</g>
<!-- topo.command.pylabplot.tuning_curve&#45;&gt;topo.command.pylabplot.cyclic_tuning_curve -->
<g id="edge24" class="edge"><title>topo.command.pylabplot.tuning_curve&#45;&gt;topo.command.pylabplot.cyclic_tuning_curve</title>
<path fill="none" stroke="black" stroke-width="0.5" d="M1464.59,-295C1506.36,-295 1555.2,-295 1598.92,-295"/>
<polygon fill="black" stroke="black" points="1598.95,-296.75 1603.95,-295 1598.95,-293.25 1598.95,-296.75"/>
</g>
<!-- topo.command.Command&#45;&gt;topo.command.pylabplot.PylabPlotCommand -->
<g id="edge64" class="edge"><title>topo.command.Command&#45;&gt;topo.command.pylabplot.PylabPlotCommand</title>
<path fill="none" stroke="black" stroke-width="0.5" d="M724.904,-264.966C775.913,-270.617 844.91,-278.261 900.531,-284.423"/>
<polygon fill="black" stroke="black" points="900.367,-286.166 905.529,-284.977 900.753,-282.687 900.367,-286.166"/>
</g>
<!-- topo.command.pylabplot.measure_position_pref -->
<g id="node50" class="node"><title>topo.command.pylabplot.measure_position_pref</title>
<polygon fill="none" stroke="black" stroke-width="0.5" points="1844,-77.5 1596,-77.5 1596,-56.5 1844,-56.5 1844,-77.5"/>
<text text-anchor="middle" x="1720" y="-64.5" font-family="Vera" font-size="10.00">topo.command.pylabplot.measure_position_pref</text>
</g>
<!-- topo.analysis.featureresponses.PositionMeasurementCommand&#45;&gt;topo.command.pylabplot.measure_position_pref -->
<g id="edge48" class="edge"><title>topo.analysis.featureresponses.PositionMeasurementCommand&#45;&gt;topo.command.pylabplot.measure_position_pref</title>
<path fill="none" stroke="black" stroke-width="0.5" d="M1526.11,-67C1547.52,-67 1569.23,-67 1590,-67"/>
<polygon fill="black" stroke="black" points="1590.26,-68.7501 1595.26,-67 1590.26,-65.2501 1590.26,-68.7501"/>
</g>
<!-- topo.analysis.featureresponses.PatternPresentingCommand&#45;&gt;topo.analysis.featureresponses.MeasureResponseCommand -->
<g id="edge58" class="edge"><title>topo.analysis.featureresponses.PatternPresentingCommand&#45;&gt;topo.analysis.featureresponses.MeasureResponseCommand</title>
<path fill="none" stroke="black" stroke-width="0.5" d="M743.568,-132.966C791.924,-127.609 851.418,-121.018 900.5,-115.58"/>
<polygon fill="black" stroke="black" points="900.743,-117.314 905.52,-115.024 900.357,-113.835 900.743,-117.314"/>
</g>
</g>
</svg>
