<?xml version="1.0" encoding="UTF-8" standalone="no"?>
<!DOCTYPE svg PUBLIC "-//W3C//DTD SVG 1.1//EN"
 "http://www.w3.org/Graphics/SVG/1.1/DTD/svg11.dtd">
<!-- Generated by graphviz version 2.26.3 (20100126.1600)
 -->
<!-- Title: inheritance0bce68b9cf Pages: 1 -->
<svg width="1872pt" height="541pt"
 viewBox="0.00 0.00 1872.00 541.00" xmlns="http://www.w3.org/2000/svg" xmlns:xlink="http://www.w3.org/1999/xlink">
<g id="graph1" class="graph" transform="scale(1 1) rotate(0) translate(4 537)">
<title>inheritance0bce68b9cf</title>
<polygon fill="white" stroke="white" points="-4,5 -4,-537 1869,-537 1869,5 -4,5"/>
<!-- topo.command.analysis.measure_or_pref -->
<g id="node1" class="node"><title>topo.command.analysis.measure_or_pref</title>
<polygon fill="none" stroke="black" stroke-width="0.5" points="1837,-533.5 1621,-533.5 1621,-512.5 1837,-512.5 1837,-533.5"/>
<text text-anchor="middle" x="1729" y="-520.5" font-family="Vera" font-size="10.00">topo.command.analysis.measure_or_pref</text>
</g>
<!-- topo.analysis.featureresponses.SinusoidalMeasureResponseCommand -->
<g id="node2" class="node"><title>topo.analysis.featureresponses.SinusoidalMeasureResponseCommand</title>
<polygon fill="none" stroke="black" stroke-width="0.5" points="1558,-381.5 1202,-381.5 1202,-360.5 1558,-360.5 1558,-381.5"/>
<text text-anchor="middle" x="1380" y="-368.5" font-family="Vera" font-size="10.00">topo.analysis.featureresponses.SinusoidalMeasureResponseCommand</text>
</g>
<!-- topo.analysis.featureresponses.SinusoidalMeasureResponseCommand&#45;&gt;topo.command.analysis.measure_or_pref -->
<g id="edge2" class="edge"><title>topo.analysis.featureresponses.SinusoidalMeasureResponseCommand&#45;&gt;topo.command.analysis.measure_or_pref</title>
<path fill="none" stroke="black" stroke-width="0.5" d="M1545.06,-381.013C1549.58,-383.67 1553.91,-386.655 1558,-390 1599.13,-423.642 1553.44,-469.675 1594,-504 1600.58,-509.571 1608.03,-513.942 1615.95,-517.34"/>
<polygon fill="black" stroke="black" points="1615.66,-519.105 1620.95,-519.333 1616.95,-515.854 1615.66,-519.105"/>
</g>
<!-- topo.command.analysis.measure_dr_pref -->
<g id="node7" class="node"><title>topo.command.analysis.measure_dr_pref</title>
<polygon fill="none" stroke="black" stroke-width="0.5" points="1837,-495.5 1621,-495.5 1621,-474.5 1837,-474.5 1837,-495.5"/>
<text text-anchor="middle" x="1729" y="-482.5" font-family="Vera" font-size="10.00">topo.command.analysis.measure_dr_pref</text>
</g>
<!-- topo.analysis.featureresponses.SinusoidalMeasureResponseCommand&#45;&gt;topo.command.analysis.measure_dr_pref -->
<g id="edge6" class="edge"><title>topo.analysis.featureresponses.SinusoidalMeasureResponseCommand&#45;&gt;topo.command.analysis.measure_dr_pref</title>
<path fill="none" stroke="black" stroke-width="0.5" d="M1543.24,-381.123C1548.37,-383.725 1553.31,-386.672 1558,-390 1588.48,-411.637 1563.89,-443.856 1594,-466 1600.71,-470.935 1608.13,-474.873 1615.93,-477.994"/>
<polygon fill="black" stroke="black" points="1615.54,-479.716 1620.84,-479.833 1616.77,-476.439 1615.54,-479.716"/>
</g>
<!-- topo.command.analysis.measure_second_or_pref -->
<g id="node23" class="node"><title>topo.command.analysis.measure_second_or_pref</title>
<polygon fill="none" stroke="black" stroke-width="0.5" points="1857,-457.5 1601,-457.5 1601,-436.5 1857,-436.5 1857,-457.5"/>
<text text-anchor="middle" x="1729" y="-444.5" font-family="Vera" font-size="10.00">topo.command.analysis.measure_second_or_pref</text>
</g>
<!-- topo.analysis.featureresponses.SinusoidalMeasureResponseCommand&#45;&gt;topo.command.analysis.measure_second_or_pref -->
<g id="edge20" class="edge"><title>topo.analysis.featureresponses.SinusoidalMeasureResponseCommand&#45;&gt;topo.command.analysis.measure_second_or_pref</title>
<path fill="none" stroke="black" stroke-width="0.5" d="M1536.23,-381.077C1543.73,-383.602 1551.04,-386.555 1558,-390 1578.85,-400.315 1573.32,-417.337 1594,-428 1599.34,-430.754 1604.95,-433.149 1610.72,-435.229"/>
<polygon fill="black" stroke="black" points="1610.31,-436.937 1615.61,-436.903 1611.45,-433.626 1610.31,-436.937"/>
</g>
<!-- topo.command.analysis.measure_phasedisparity -->
<g id="node43" class="node"><title>topo.command.analysis.measure_phasedisparity</title>
<polygon fill="none" stroke="black" stroke-width="0.5" points="1855,-419.5 1603,-419.5 1603,-398.5 1855,-398.5 1855,-419.5"/>
<text text-anchor="middle" x="1729" y="-406.5" font-family="Vera" font-size="10.00">topo.command.analysis.measure_phasedisparity</text>
</g>
<!-- topo.analysis.featureresponses.SinusoidalMeasureResponseCommand&#45;&gt;topo.command.analysis.measure_phasedisparity -->
<g id="edge42" class="edge"><title>topo.analysis.featureresponses.SinusoidalMeasureResponseCommand&#45;&gt;topo.command.analysis.measure_phasedisparity</title>
<path fill="none" stroke="black" stroke-width="0.5" d="M1474.7,-381.031C1501.62,-383.904 1530.97,-387.055 1558,-390 1582.67,-392.688 1609.34,-395.632 1634.12,-398.384"/>
<polygon fill="black" stroke="black" points="1634.21,-400.155 1639.37,-398.968 1634.6,-396.676 1634.21,-400.155"/>
</g>
<!-- topo.command.analysis.measure_sine_pref -->
<g id="node48" class="node"><title>topo.command.analysis.measure_sine_pref</title>
<polygon fill="none" stroke="black" stroke-width="0.5" points="1842,-381.5 1616,-381.5 1616,-360.5 1842,-360.5 1842,-381.5"/>
<text text-anchor="middle" x="1729" y="-368.5" font-family="Vera" font-size="10.00">topo.command.analysis.measure_sine_pref</text>
</g>
<!-- topo.analysis.featureresponses.SinusoidalMeasureResponseCommand&#45;&gt;topo.command.analysis.measure_sine_pref -->
<g id="edge46" class="edge"><title>topo.analysis.featureresponses.SinusoidalMeasureResponseCommand&#45;&gt;topo.command.analysis.measure_sine_pref</title>
<path fill="none" stroke="black" stroke-width="0.5" d="M1558.08,-371C1575.9,-371 1593.67,-371 1610.64,-371"/>
<polygon fill="black" stroke="black" points="1610.88,-372.75 1615.88,-371 1610.88,-369.25 1610.88,-372.75"/>
</g>
<!-- topo.command.analysis.measure_od_pref -->
<g id="node50" class="node"><title>topo.command.analysis.measure_od_pref</title>
<polygon fill="none" stroke="black" stroke-width="0.5" points="1838,-343.5 1620,-343.5 1620,-322.5 1838,-322.5 1838,-343.5"/>
<text text-anchor="middle" x="1729" y="-330.5" font-family="Vera" font-size="10.00">topo.command.analysis.measure_od_pref</text>
</g>
<!-- topo.analysis.featureresponses.SinusoidalMeasureResponseCommand&#45;&gt;topo.command.analysis.measure_od_pref -->
<g id="edge48" class="edge"><title>topo.analysis.featureresponses.SinusoidalMeasureResponseCommand&#45;&gt;topo.command.analysis.measure_od_pref</title>
<path fill="none" stroke="black" stroke-width="0.5" d="M1472.15,-360.966C1521.35,-355.609 1581.89,-349.018 1631.83,-343.58"/>
<polygon fill="black" stroke="black" points="1632.16,-345.305 1636.94,-343.024 1631.78,-341.826 1632.16,-345.305"/>
</g>
<!-- topo.command.analysis.measure_hue_pref -->
<g id="node53" class="node"><title>topo.command.analysis.measure_hue_pref</title>
<polygon fill="none" stroke="black" stroke-width="0.5" points="1841,-305.5 1617,-305.5 1617,-284.5 1841,-284.5 1841,-305.5"/>
<text text-anchor="middle" x="1729" y="-292.5" font-family="Vera" font-size="10.00">topo.command.analysis.measure_hue_pref</text>
</g>
<!-- topo.analysis.featureresponses.SinusoidalMeasureResponseCommand&#45;&gt;topo.command.analysis.measure_hue_pref -->
<g id="edge52" class="edge"><title>topo.analysis.featureresponses.SinusoidalMeasureResponseCommand&#45;&gt;topo.command.analysis.measure_hue_pref</title>
<path fill="none" stroke="black" stroke-width="0.5" d="M1412.7,-360.97C1454.43,-348.479 1529,-327.181 1594,-314 1609.11,-310.936 1625.27,-308.201 1640.97,-305.827"/>
<polygon fill="black" stroke="black" points="1641.59,-307.504 1646.27,-305.035 1641.07,-304.042 1641.59,-307.504"/>
</g>
<!-- topo.base.functionfamily.PatternDrivenAnalysis -->
<g id="node4" class="node"><title>topo.base.functionfamily.PatternDrivenAnalysis</title>
<polygon fill="none" stroke="black" stroke-width="0.5" points="781,-343.5 541,-343.5 541,-322.5 781,-322.5 781,-343.5"/>
<text text-anchor="middle" x="661" y="-330.5" font-family="Vera" font-size="10.00">topo.base.functionfamily.PatternDrivenAnalysis</text>
</g>
<!-- topo.analysis.featureresponses.FeatureResponses -->
<g id="node37" class="node"><title>topo.analysis.featureresponses.FeatureResponses</title>
<polygon fill="none" stroke="black" stroke-width="0.5" points="1140,-343.5 884,-343.5 884,-322.5 1140,-322.5 1140,-343.5"/>
<text text-anchor="middle" x="1012" y="-330.5" font-family="Vera" font-size="10.00">topo.analysis.featureresponses.FeatureResponses</text>
</g>
<!-- topo.base.functionfamily.PatternDrivenAnalysis&#45;&gt;topo.analysis.featureresponses.FeatureResponses -->
<g id="edge34" class="edge"><title>topo.base.functionfamily.PatternDrivenAnalysis&#45;&gt;topo.analysis.featureresponses.FeatureResponses</title>
<path fill="none" stroke="black" stroke-width="0.5" d="M781.303,-333C812.573,-333 846.446,-333 878.359,-333"/>
<polygon fill="black" stroke="black" points="878.463,-334.75 883.463,-333 878.463,-331.25 878.463,-334.75"/>
</g>
<!-- param.parameterized.ParameterizedFunction -->
<g id="node5" class="node"><title>param.parameterized.ParameterizedFunction</title>
<polygon fill="none" stroke="black" stroke-width="0.5" points="464,-172.5 230,-172.5 230,-151.5 464,-151.5 464,-172.5"/>
<text text-anchor="middle" x="347" y="-159.5" font-family="Vera" font-size="10.00">param.parameterized.ParameterizedFunction</text>
</g>
<!-- param.parameterized.ParameterizedFunction&#45;&gt;topo.base.functionfamily.PatternDrivenAnalysis -->
<g id="edge4" class="edge"><title>param.parameterized.ParameterizedFunction&#45;&gt;topo.base.functionfamily.PatternDrivenAnalysis</title>
<path fill="none" stroke="black" stroke-width="0.5" d="M365.702,-172.185C420.132,-201.826 578.362,-287.996 637.944,-320.444"/>
<polygon fill="black" stroke="black" points="637.168,-322.014 642.396,-322.869 638.842,-318.94 637.168,-322.014"/>
</g>
<!-- topo.analysis.featureresponses.PatternPresentingCommand -->
<g id="node11" class="node"><title>topo.analysis.featureresponses.PatternPresentingCommand</title>
<polygon fill="none" stroke="black" stroke-width="0.5" points="813,-210.5 509,-210.5 509,-189.5 813,-189.5 813,-210.5"/>
<text text-anchor="middle" x="661" y="-197.5" font-family="Vera" font-size="10.00">topo.analysis.featureresponses.PatternPresentingCommand</text>
</g>
<!-- param.parameterized.ParameterizedFunction&#45;&gt;topo.analysis.featureresponses.PatternPresentingCommand -->
<g id="edge32" class="edge"><title>param.parameterized.ParameterizedFunction&#45;&gt;topo.analysis.featureresponses.PatternPresentingCommand</title>
<path fill="none" stroke="black" stroke-width="0.5" d="M426.793,-172.002C450.364,-174.932 476.218,-178.12 500,-181 522.73,-183.752 547.271,-186.674 570.177,-189.38"/>
<polygon fill="black" stroke="black" points="570.174,-191.141 575.345,-189.99 570.584,-187.665 570.174,-191.141"/>
</g>
<!-- topo.plotting.plotgroup.ProjectionSheetMeasurementCommand -->
<g id="node20" class="node"><title>topo.plotting.plotgroup.ProjectionSheetMeasurementCommand</title>
<polygon fill="none" stroke="black" stroke-width="0.5" points="822,-172.5 500,-172.5 500,-151.5 822,-151.5 822,-172.5"/>
<text text-anchor="middle" x="661" y="-159.5" font-family="Vera" font-size="10.00">topo.plotting.plotgroup.ProjectionSheetMeasurementCommand</text>
</g>
<!-- param.parameterized.ParameterizedFunction&#45;&gt;topo.plotting.plotgroup.ProjectionSheetMeasurementCommand -->
<g id="edge16" class="edge"><title>param.parameterized.ParameterizedFunction&#45;&gt;topo.plotting.plotgroup.ProjectionSheetMeasurementCommand</title>
<path fill="none" stroke="black" stroke-width="0.5" d="M464.369,-162C474.323,-162 484.506,-162 494.741,-162"/>
<polygon fill="black" stroke="black" points="494.769,-163.75 499.769,-162 494.769,-160.25 494.769,-163.75"/>
</g>
<!-- topo.command.analysis.save_plotgroup -->
<g id="node34" class="node"><title>topo.command.analysis.save_plotgroup</title>
<polygon fill="none" stroke="black" stroke-width="0.5" points="765,-134.5 557,-134.5 557,-113.5 765,-113.5 765,-134.5"/>
<text text-anchor="middle" x="661" y="-121.5" font-family="Vera" font-size="10.00">topo.command.analysis.save_plotgroup</text>
</g>
<!-- param.parameterized.ParameterizedFunction&#45;&gt;topo.command.analysis.save_plotgroup -->
<g id="edge30" class="edge"><title>param.parameterized.ParameterizedFunction&#45;&gt;topo.command.analysis.save_plotgroup</title>
<path fill="none" stroke="black" stroke-width="0.5" d="M426.793,-151.998C450.364,-149.068 476.218,-145.88 500,-143 522.73,-140.248 547.271,-137.326 570.177,-134.62"/>
<polygon fill="black" stroke="black" points="570.584,-136.335 575.345,-134.01 570.174,-132.859 570.584,-136.335"/>
</g>
<!-- param.parameterized.Parameterized -->
<g id="node9" class="node"><title>param.parameterized.Parameterized</title>
<polygon fill="none" stroke="black" stroke-width="0.5" points="194,-77.5 5.68434e-14,-77.5 0,-56.5 194,-56.5 194,-77.5"/>
<text text-anchor="middle" x="97" y="-64.5" font-family="Vera" font-size="10.00">param.parameterized.Parameterized</text>
</g>
<!-- param.parameterized.Parameterized&#45;&gt;param.parameterized.ParameterizedFunction -->
<g id="edge10" class="edge"><title>param.parameterized.Parameterized&#45;&gt;param.parameterized.ParameterizedFunction</title>
<path fill="none" stroke="black" stroke-width="0.5" d="M123.754,-77.1667C170.275,-94.8444 265.838,-131.159 315.489,-150.026"/>
<polygon fill="black" stroke="black" points="315.142,-151.766 320.438,-151.906 316.386,-148.494 315.142,-151.766"/>
</g>
<!-- imagen.patterngenerator.PatternGenerator -->
<g id="node18" class="node"><title>imagen.patterngenerator.PatternGenerator</title>
<polygon fill="none" stroke="black" stroke-width="0.5" points="459,-77.5 235,-77.5 235,-56.5 459,-56.5 459,-77.5"/>
<text text-anchor="middle" x="347" y="-64.5" font-family="Vera" font-size="10.00">imagen.patterngenerator.PatternGenerator</text>
</g>
<!-- param.parameterized.Parameterized&#45;&gt;imagen.patterngenerator.PatternGenerator -->
<g id="edge18" class="edge"><title>param.parameterized.Parameterized&#45;&gt;imagen.patterngenerator.PatternGenerator</title>
<path fill="none" stroke="black" stroke-width="0.5" d="M194.014,-67C205.664,-67 217.655,-67 229.554,-67"/>
<polygon fill="black" stroke="black" points="229.647,-68.7501 234.647,-67 229.647,-65.2501 229.647,-68.7501"/>
</g>
<!-- topo.command.analysis.PatternPresenter2 -->
<g id="node27" class="node"><title>topo.command.analysis.PatternPresenter2</title>
<polygon fill="none" stroke="black" stroke-width="0.5" points="457,-39.5 237,-39.5 237,-18.5 457,-18.5 457,-39.5"/>
<text text-anchor="middle" x="347" y="-26.5" font-family="Vera" font-size="10.00">topo.command.analysis.PatternPresenter2</text>
</g>
<!-- param.parameterized.Parameterized&#45;&gt;topo.command.analysis.PatternPresenter2 -->
<g id="edge24" class="edge"><title>param.parameterized.Parameterized&#45;&gt;topo.command.analysis.PatternPresenter2</title>
<path fill="none" stroke="black" stroke-width="0.5" d="M163.012,-56.9662C197.758,-51.6848 240.394,-45.204 275.872,-39.8115"/>
<polygon fill="black" stroke="black" points="276.372,-41.5056 281.052,-39.024 275.846,-38.0454 276.372,-41.5056"/>
</g>
<!-- topo.analysis.featureresponses.MeasureResponseCommand -->
<g id="node10" class="node"><title>topo.analysis.featureresponses.MeasureResponseCommand</title>
<polygon fill="none" stroke="black" stroke-width="0.5" points="1165,-210.5 859,-210.5 859,-189.5 1165,-189.5 1165,-210.5"/>
<text text-anchor="middle" x="1012" y="-197.5" font-family="Vera" font-size="10.00">topo.analysis.featureresponses.MeasureResponseCommand</text>
</g>
<!-- topo.analysis.featureresponses.MeasureResponseCommand&#45;&gt;topo.analysis.featureresponses.SinusoidalMeasureResponseCommand -->
<g id="edge38" class="edge"><title>topo.analysis.featureresponses.MeasureResponseCommand&#45;&gt;topo.analysis.featureresponses.SinusoidalMeasureResponseCommand</title>
<path fill="none" stroke="black" stroke-width="0.5" d="M1033.65,-210.058C1097.29,-239.632 1283.69,-326.248 1353.34,-358.612"/>
<polygon fill="black" stroke="black" points="1352.88,-360.327 1358.15,-360.847 1354.35,-357.153 1352.88,-360.327"/>
</g>
<!-- topo.analysis.featureresponses.PositionMeasurementCommand -->
<g id="node15" class="node"><title>topo.analysis.featureresponses.PositionMeasurementCommand</title>
<polygon fill="none" stroke="black" stroke-width="0.5" points="1542,-267.5 1218,-267.5 1218,-246.5 1542,-246.5 1542,-267.5"/>
<text text-anchor="middle" x="1380" y="-254.5" font-family="Vera" font-size="10.00">topo.analysis.featureresponses.PositionMeasurementCommand</text>
</g>
<!-- topo.analysis.featureresponses.MeasureResponseCommand&#45;&gt;topo.analysis.featureresponses.PositionMeasurementCommand -->
<g id="edge40" class="edge"><title>topo.analysis.featureresponses.MeasureResponseCommand&#45;&gt;topo.analysis.featureresponses.PositionMeasurementCommand</title>
<path fill="none" stroke="black" stroke-width="0.5" d="M1056.33,-210.056C1094.71,-218.475 1151.79,-230.315 1202,-238 1222.62,-241.156 1244.66,-243.963 1265.97,-246.387"/>
<polygon fill="black" stroke="black" points="1265.91,-248.142 1271.07,-246.963 1266.3,-244.664 1265.91,-248.142"/>
</g>
<!-- topo.command.analysis.measure_log_frequency_preference -->
<g id="node29" class="node"><title>topo.command.analysis.measure_log_frequency_preference</title>
<polygon fill="none" stroke="black" stroke-width="0.5" points="1533,-229.5 1227,-229.5 1227,-208.5 1533,-208.5 1533,-229.5"/>
<text text-anchor="middle" x="1380" y="-216.5" font-family="Vera" font-size="10.00">topo.command.analysis.measure_log_frequency_preference</text>
</g>
<!-- topo.analysis.featureresponses.MeasureResponseCommand&#45;&gt;topo.command.analysis.measure_log_frequency_preference -->
<g id="edge26" class="edge"><title>topo.analysis.featureresponses.MeasureResponseCommand&#45;&gt;topo.command.analysis.measure_log_frequency_preference</title>
<path fill="none" stroke="black" stroke-width="0.5" d="M1165.67,-207.934C1184.13,-208.887 1203.02,-209.862 1221.55,-210.819"/>
<polygon fill="black" stroke="black" points="1221.68,-212.578 1226.77,-211.088 1221.86,-209.083 1221.68,-212.578"/>
</g>
<!-- topo.analysis.featureresponses.SingleInputResponseCommand -->
<g id="node46" class="node"><title>topo.analysis.featureresponses.SingleInputResponseCommand</title>
<polygon fill="none" stroke="black" stroke-width="0.5" points="1539,-191.5 1221,-191.5 1221,-170.5 1539,-170.5 1539,-191.5"/>
<text text-anchor="middle" x="1380" y="-178.5" font-family="Vera" font-size="10.00">topo.analysis.featureresponses.SingleInputResponseCommand</text>
</g>
<!-- topo.analysis.featureresponses.MeasureResponseCommand&#45;&gt;topo.analysis.featureresponses.SingleInputResponseCommand -->
<g id="edge50" class="edge"><title>topo.analysis.featureresponses.MeasureResponseCommand&#45;&gt;topo.analysis.featureresponses.SingleInputResponseCommand</title>
<path fill="none" stroke="black" stroke-width="0.5" d="M1165.67,-192.066C1182.01,-191.222 1198.68,-190.362 1215.14,-189.512"/>
<polygon fill="black" stroke="black" points="1215.34,-191.254 1220.25,-189.248 1215.16,-187.758 1215.34,-191.254"/>
</g>
<!-- topo.command.analysis.measure_frequency_preference -->
<g id="node55" class="node"><title>topo.command.analysis.measure_frequency_preference</title>
<polygon fill="none" stroke="black" stroke-width="0.5" points="1523,-153.5 1237,-153.5 1237,-132.5 1523,-132.5 1523,-153.5"/>
<text text-anchor="middle" x="1380" y="-140.5" font-family="Vera" font-size="10.00">topo.command.analysis.measure_frequency_preference</text>
</g>
<!-- topo.analysis.featureresponses.MeasureResponseCommand&#45;&gt;topo.command.analysis.measure_frequency_preference -->
<g id="edge54" class="edge"><title>topo.analysis.featureresponses.MeasureResponseCommand&#45;&gt;topo.command.analysis.measure_frequency_preference</title>
<path fill="none" stroke="black" stroke-width="0.5" d="M1129.83,-189.955C1142.18,-187.572 1154.43,-184.631 1166,-181 1183.26,-175.581 1184.7,-167.277 1202,-162 1212.31,-158.856 1223.1,-156.215 1234.04,-153.998"/>
<polygon fill="black" stroke="black" points="1234.51,-155.69 1239.07,-153.009 1233.83,-152.255 1234.51,-155.69"/>
</g>
<!-- topo.command.analysis.measure_latency_preference -->
<g id="node62" class="node"><title>topo.command.analysis.measure_latency_preference</title>
<polygon fill="none" stroke="black" stroke-width="0.5" points="1517,-115.5 1243,-115.5 1243,-94.5 1517,-94.5 1517,-115.5"/>
<text text-anchor="middle" x="1380" y="-102.5" font-family="Vera" font-size="10.00">topo.command.analysis.measure_latency_preference</text>
</g>
<!-- topo.analysis.featureresponses.MeasureResponseCommand&#45;&gt;topo.command.analysis.measure_latency_preference -->
<g id="edge62" class="edge"><title>topo.analysis.featureresponses.MeasureResponseCommand&#45;&gt;topo.command.analysis.measure_latency_preference</title>
<path fill="none" stroke="black" stroke-width="0.5" d="M1149.12,-189.84C1154.99,-187.318 1160.65,-184.39 1166,-181 1191.3,-164.954 1176.56,-139.837 1202,-124 1212.95,-117.184 1225.02,-112.079 1237.57,-108.308"/>
<polygon fill="black" stroke="black" points="1238.26,-109.93 1242.59,-106.876 1237.3,-106.564 1238.26,-109.93"/>
</g>
<!-- topo.analysis.featureresponses.PatternPresentingCommand&#45;&gt;topo.analysis.featureresponses.MeasureResponseCommand -->
<g id="edge8" class="edge"><title>topo.analysis.featureresponses.PatternPresentingCommand&#45;&gt;topo.analysis.featureresponses.MeasureResponseCommand</title>
<path fill="none" stroke="black" stroke-width="0.5" d="M813.677,-200C826.734,-200 839.963,-200 853.067,-200"/>
<polygon fill="black" stroke="black" points="853.278,-201.75 858.278,-200 853.278,-198.25 853.278,-201.75"/>
</g>
<!-- topo.command.analysis.measure_corner_angle_pref -->
<g id="node14" class="node"><title>topo.command.analysis.measure_corner_angle_pref</title>
<polygon fill="none" stroke="black" stroke-width="0.5" points="1863,-267.5 1595,-267.5 1595,-246.5 1863,-246.5 1863,-267.5"/>
<text text-anchor="middle" x="1729" y="-254.5" font-family="Vera" font-size="10.00">topo.command.analysis.measure_corner_angle_pref</text>
</g>
<!-- topo.analysis.featureresponses.PositionMeasurementCommand&#45;&gt;topo.command.analysis.measure_corner_angle_pref -->
<g id="edge12" class="edge"><title>topo.analysis.featureresponses.PositionMeasurementCommand&#45;&gt;topo.command.analysis.measure_corner_angle_pref</title>
<path fill="none" stroke="black" stroke-width="0.5" d="M1542.24,-257C1557.91,-257 1573.72,-257 1589.15,-257"/>
<polygon fill="black" stroke="black" points="1589.36,-258.75 1594.36,-257 1589.36,-255.25 1589.36,-258.75"/>
</g>
<!-- topo.command.analysis.measure_corner_or_pref -->
<g id="node66" class="node"><title>topo.command.analysis.measure_corner_or_pref</title>
<polygon fill="none" stroke="black" stroke-width="0.5" points="1855,-229.5 1603,-229.5 1603,-208.5 1855,-208.5 1855,-229.5"/>
<text text-anchor="middle" x="1729" y="-216.5" font-family="Vera" font-size="10.00">topo.command.analysis.measure_corner_or_pref</text>
</g>
<!-- topo.analysis.featureresponses.PositionMeasurementCommand&#45;&gt;topo.command.analysis.measure_corner_or_pref -->
<g id="edge66" class="edge"><title>topo.analysis.featureresponses.PositionMeasurementCommand&#45;&gt;topo.command.analysis.measure_corner_or_pref</title>
<path fill="none" stroke="black" stroke-width="0.5" d="M1474.7,-246.969C1501.62,-244.096 1530.97,-240.945 1558,-238 1582.67,-235.312 1609.34,-232.368 1634.12,-229.616"/>
<polygon fill="black" stroke="black" points="1634.6,-231.324 1639.37,-229.032 1634.21,-227.845 1634.6,-231.324"/>
</g>
<!-- topo.command.analysis.log_frequency_mapper -->
<g id="node17" class="node"><title>topo.command.analysis.log_frequency_mapper</title>
<polygon fill="none" stroke="black" stroke-width="0.5" points="783,-96.5 539,-96.5 539,-75.5 783,-75.5 783,-96.5"/>
<text text-anchor="middle" x="661" y="-83.5" font-family="Vera" font-size="10.00">topo.command.analysis.log_frequency_mapper</text>
</g>
<!-- imagen.patterngenerator.PatternGenerator&#45;&gt;topo.command.analysis.log_frequency_mapper -->
<g id="edge14" class="edge"><title>imagen.patterngenerator.PatternGenerator&#45;&gt;topo.command.analysis.log_frequency_mapper</title>
<path fill="none" stroke="black" stroke-width="0.5" d="M459.031,-73.779C483.203,-75.2416 508.927,-76.7981 533.635,-78.2932"/>
<polygon fill="black" stroke="black" points="533.794,-80.056 538.891,-78.6112 534.006,-76.5623 533.794,-80.056"/>
</g>
<!-- topo.command.analysis.frequency_mapper -->
<g id="node58" class="node"><title>topo.command.analysis.frequency_mapper</title>
<polygon fill="none" stroke="black" stroke-width="0.5" points="773,-58.5 549,-58.5 549,-37.5 773,-37.5 773,-58.5"/>
<text text-anchor="middle" x="661" y="-45.5" font-family="Vera" font-size="10.00">topo.command.analysis.frequency_mapper</text>
</g>
<!-- imagen.patterngenerator.PatternGenerator&#45;&gt;topo.command.analysis.frequency_mapper -->
<g id="edge58" class="edge"><title>imagen.patterngenerator.PatternGenerator&#45;&gt;topo.command.analysis.frequency_mapper</title>
<path fill="none" stroke="black" stroke-width="0.5" d="M459.031,-60.221C486.472,-58.5606 515.915,-56.779 543.6,-55.1038"/>
<polygon fill="black" stroke="black" points="543.862,-56.8412 548.748,-54.7923 543.651,-53.3476 543.862,-56.8412"/>
</g>
<!-- topo.command.analysis.latency_mapper -->
<g id="node60" class="node"><title>topo.command.analysis.latency_mapper</title>
<polygon fill="none" stroke="black" stroke-width="0.5" points="767,-20.5 555,-20.5 555,0.5 767,0.5 767,-20.5"/>
<text text-anchor="middle" x="661" y="-7.5" font-family="Vera" font-size="10.00">topo.command.analysis.latency_mapper</text>
</g>
<!-- imagen.patterngenerator.PatternGenerator&#45;&gt;topo.command.analysis.latency_mapper -->
<g id="edge60" class="edge"><title>imagen.patterngenerator.PatternGenerator&#45;&gt;topo.command.analysis.latency_mapper</title>
<path fill="none" stroke="black" stroke-width="0.5" d="M429.959,-56.9691C441.538,-54.5767 453.171,-51.6285 464,-48 481.154,-42.2522 482.725,-34.3732 500,-29 515.71,-24.1139 532.639,-20.4685 549.412,-17.752"/>
<polygon fill="black" stroke="black" points="549.942,-19.4405 554.611,-16.9384 549.4,-15.9826 549.942,-19.4405"/>
</g>
<!-- topo.command.analysis.update_projectionactivity -->
<g id="node25" class="node"><title>topo.command.analysis.update_projectionactivity</title>
<polygon fill="none" stroke="black" stroke-width="0.5" points="1139,-172.5 885,-172.5 885,-151.5 1139,-151.5 1139,-172.5"/>
<text text-anchor="middle" x="1012" y="-159.5" font-family="Vera" font-size="10.00">topo.command.analysis.update_projectionactivity</text>
</g>
<!-- topo.plotting.plotgroup.ProjectionSheetMeasurementCommand&#45;&gt;topo.command.analysis.update_projectionactivity -->
<g id="edge22" class="edge"><title>topo.plotting.plotgroup.ProjectionSheetMeasurementCommand&#45;&gt;topo.command.analysis.update_projectionactivity</title>
<path fill="none" stroke="black" stroke-width="0.5" d="M822.118,-162C841.391,-162 860.898,-162 879.699,-162"/>
<polygon fill="black" stroke="black" points="879.982,-163.75 884.982,-162 879.982,-160.25 879.982,-163.75"/>
</g>
<!-- topo.plotting.plotgroup.UnitMeasurementCommand -->
<g id="node32" class="node"><title>topo.plotting.plotgroup.UnitMeasurementCommand</title>
<polygon fill="none" stroke="black" stroke-width="0.5" points="1145,-77.5 879,-77.5 879,-56.5 1145,-56.5 1145,-77.5"/>
<text text-anchor="middle" x="1012" y="-64.5" font-family="Vera" font-size="10.00">topo.plotting.plotgroup.UnitMeasurementCommand</text>
</g>
<!-- topo.plotting.plotgroup.ProjectionSheetMeasurementCommand&#45;&gt;topo.plotting.plotgroup.UnitMeasurementCommand -->
<g id="edge56" class="edge"><title>topo.plotting.plotgroup.ProjectionSheetMeasurementCommand&#45;&gt;topo.plotting.plotgroup.UnitMeasurementCommand</title>
<path fill="none" stroke="black" stroke-width="0.5" d="M777.316,-151.972C792.461,-149.588 807.679,-146.641 822,-143 883.62,-127.332 951.941,-96.4282 987.479,-79.2478"/>
<polygon fill="black" stroke="black" points="988.332,-80.779 992.064,-77.0193 986.802,-77.6311 988.332,-80.779"/>
</g>
<!-- topo.command.analysis.update_projection -->
<g id="node31" class="node"><title>topo.command.analysis.update_projection</title>
<polygon fill="none" stroke="black" stroke-width="0.5" points="1490,-77.5 1270,-77.5 1270,-56.5 1490,-56.5 1490,-77.5"/>
<text text-anchor="middle" x="1380" y="-64.5" font-family="Vera" font-size="10.00">topo.command.analysis.update_projection</text>
</g>
<!-- topo.plotting.plotgroup.UnitMeasurementCommand&#45;&gt;topo.command.analysis.update_projection -->
<g id="edge28" class="edge"><title>topo.plotting.plotgroup.UnitMeasurementCommand&#45;&gt;topo.command.analysis.update_projection</title>
<path fill="none" stroke="black" stroke-width="0.5" d="M1145.12,-67C1184.11,-67 1226.42,-67 1264.24,-67"/>
<polygon fill="black" stroke="black" points="1264.3,-68.7501 1269.3,-67 1264.3,-65.2501 1264.3,-68.7501"/>
</g>
<!-- topo.command.analysis.update_connectionfields -->
<g id="node64" class="node"><title>topo.command.analysis.update_connectionfields</title>
<polygon fill="none" stroke="black" stroke-width="0.5" points="1505,-39.5 1255,-39.5 1255,-18.5 1505,-18.5 1505,-39.5"/>
<text text-anchor="middle" x="1380" y="-26.5" font-family="Vera" font-size="10.00">topo.command.analysis.update_connectionfields</text>
</g>
<!-- topo.plotting.plotgroup.UnitMeasurementCommand&#45;&gt;topo.command.analysis.update_connectionfields -->
<g id="edge64" class="edge"><title>topo.plotting.plotgroup.UnitMeasurementCommand&#45;&gt;topo.command.analysis.update_connectionfields</title>
<path fill="none" stroke="black" stroke-width="0.5" d="M1109.17,-56.9662C1161.15,-51.5982 1225.14,-44.9912 1277.86,-39.5472"/>
<polygon fill="black" stroke="black" points="1278.13,-41.2785 1282.93,-39.024 1277.77,-37.797 1278.13,-41.2785"/>
</g>
<!-- topo.command.analysis.measure_activity -->
<g id="node39" class="node"><title>topo.command.analysis.measure_activity</title>
<polygon fill="none" stroke="black" stroke-width="0.5" points="1488,-419.5 1272,-419.5 1272,-398.5 1488,-398.5 1488,-419.5"/>
<text text-anchor="middle" x="1380" y="-406.5" font-family="Vera" font-size="10.00">topo.command.analysis.measure_activity</text>
</g>
<!-- topo.analysis.featureresponses.FeatureResponses&#45;&gt;topo.command.analysis.measure_activity -->
<g id="edge36" class="edge"><title>topo.analysis.featureresponses.FeatureResponses&#45;&gt;topo.command.analysis.measure_activity</title>
<path fill="none" stroke="black" stroke-width="0.5" d="M1039.6,-343.042C1076.21,-355.955 1143.09,-378.126 1202,-390 1222.73,-394.178 1245.02,-397.478 1266.57,-400.071"/>
<polygon fill="black" stroke="black" points="1266.56,-401.832 1271.73,-400.681 1266.97,-398.356 1266.56,-401.832"/>
</g>
<!-- topo.command.analysis.measure_rfs -->
<g id="node45" class="node"><title>topo.command.analysis.measure_rfs</title>
<polygon fill="none" stroke="black" stroke-width="0.5" points="1826,-191.5 1632,-191.5 1632,-170.5 1826,-170.5 1826,-191.5"/>
<text text-anchor="middle" x="1729" y="-178.5" font-family="Vera" font-size="10.00">topo.command.analysis.measure_rfs</text>
</g>
<!-- topo.analysis.featureresponses.SingleInputResponseCommand&#45;&gt;topo.command.analysis.measure_rfs -->
<g id="edge44" class="edge"><title>topo.analysis.featureresponses.SingleInputResponseCommand&#45;&gt;topo.command.analysis.measure_rfs</title>
<path fill="none" stroke="black" stroke-width="0.5" d="M1539.69,-181C1569.26,-181 1599.4,-181 1626.68,-181"/>
<polygon fill="black" stroke="black" points="1626.74,-182.75 1631.74,-181 1626.74,-179.25 1626.74,-182.75"/>
</g>
</g>
</svg>
