<?xml version="1.0" encoding="UTF-8" standalone="no"?>
<!DOCTYPE svg PUBLIC "-//W3C//DTD SVG 1.1//EN"
 "http://www.w3.org/Graphics/SVG/1.1/DTD/svg11.dtd">
<!-- Generated by graphviz version 2.26.3 (20100126.1600)
 -->
<!-- Title: inheritance10172fd8d9 Pages: 1 -->
<svg width="2632pt" height="204pt"
 viewBox="0.00 0.00 2632.00 204.00" xmlns="http://www.w3.org/2000/svg" xmlns:xlink="http://www.w3.org/1999/xlink">
<g id="graph1" class="graph" transform="scale(1 1) rotate(0) translate(4 200)">
<title>inheritance10172fd8d9</title>
<polygon fill="white" stroke="white" points="-4,5 -4,-200 2629,-200 2629,5 -4,5"/>
<!-- Tkinter.Place -->
<g id="node1" class="node"><title>Tkinter.Place</title>
<polygon fill="none" stroke="black" stroke-width="0.5" points="243,-196.5 167,-196.5 167,-175.5 243,-175.5 243,-196.5"/>
<text text-anchor="middle" x="205" y="-183.5" font-family="Vera" font-size="10.00">Tkinter.Place</text>
</g>
<!-- Tkinter.Widget -->
<g id="node12" class="node"><title>Tkinter.Widget</title>
<polygon fill="none" stroke="black" stroke-width="0.5" points="461,-120.5 379,-120.5 379,-99.5 461,-99.5 461,-120.5"/>
<text text-anchor="middle" x="420" y="-107.5" font-family="Vera" font-size="10.00">Tkinter.Widget</text>
</g>
<!-- Tkinter.Place&#45;&gt;Tkinter.Widget -->
<g id="edge12" class="edge"><title>Tkinter.Place&#45;&gt;Tkinter.Widget</title>
<path fill="none" stroke="black" stroke-width="0.5" d="M243.825,-180.736C261.802,-177.708 283.278,-173.24 302,-167 337.006,-155.333 375.019,-135.57 398.178,-122.653"/>
<polygon fill="black" stroke="black" points="399.105,-124.14 402.607,-120.165 397.39,-121.088 399.105,-124.14"/>
</g>
<!-- Tkinter.Grid -->
<g id="node2" class="node"><title>Tkinter.Grid</title>
<polygon fill="none" stroke="black" stroke-width="0.5" points="240,-158.5 170,-158.5 170,-137.5 240,-137.5 240,-158.5"/>
<text text-anchor="middle" x="205" y="-145.5" font-family="Vera" font-size="10.00">Tkinter.Grid</text>
</g>
<!-- Tkinter.Grid&#45;&gt;Tkinter.Widget -->
<g id="edge14" class="edge"><title>Tkinter.Grid&#45;&gt;Tkinter.Widget</title>
<path fill="none" stroke="black" stroke-width="0.5" d="M240.503,-141.725C276.687,-135.33 333.012,-125.375 372.905,-118.324"/>
<polygon fill="black" stroke="black" points="373.556,-119.986 378.175,-117.392 372.947,-116.539 373.556,-119.986"/>
</g>
<!-- Tkinter.BaseWidget -->
<g id="node3" class="node"><title>Tkinter.BaseWidget</title>
<polygon fill="none" stroke="black" stroke-width="0.5" points="258,-120.5 152,-120.5 152,-99.5 258,-99.5 258,-120.5"/>
<text text-anchor="middle" x="205" y="-107.5" font-family="Vera" font-size="10.00">Tkinter.BaseWidget</text>
</g>
<!-- Tkinter.BaseWidget&#45;&gt;Tkinter.Widget -->
<g id="edge8" class="edge"><title>Tkinter.BaseWidget&#45;&gt;Tkinter.Widget</title>
<path fill="none" stroke="black" stroke-width="0.5" d="M258.699,-110C293.881,-110 339.423,-110 373.138,-110"/>
<polygon fill="black" stroke="black" points="373.444,-111.75 378.444,-110 373.444,-108.25 373.444,-111.75"/>
</g>
<!-- Tkinter.Misc -->
<g id="node4" class="node"><title>Tkinter.Misc</title>
<polygon fill="none" stroke="black" stroke-width="0.5" points="72,-120.5 2.84217e-14,-120.5 0,-99.5 72,-99.5 72,-120.5"/>
<text text-anchor="middle" x="36" y="-107.5" font-family="Vera" font-size="10.00">Tkinter.Misc</text>
</g>
<!-- Tkinter.Misc&#45;&gt;Tkinter.BaseWidget -->
<g id="edge2" class="edge"><title>Tkinter.Misc&#45;&gt;Tkinter.BaseWidget</title>
<path fill="none" stroke="black" stroke-width="0.5" d="M72.2547,-110C93.805,-110 121.651,-110 146.27,-110"/>
<polygon fill="black" stroke="black" points="146.471,-111.75 151.471,-110 146.471,-108.25 146.471,-111.75"/>
</g>
<!-- topo.tkgui.projectionpanel.ConnectionFieldsPanel -->
<g id="node6" class="node"><title>topo.tkgui.projectionpanel.ConnectionFieldsPanel</title>
<polygon fill="none" stroke="black" stroke-width="0.5" points="2358,-115.5 2108,-115.5 2108,-94.5 2358,-94.5 2358,-115.5"/>
<text text-anchor="middle" x="2233" y="-102.5" font-family="Vera" font-size="10.00">topo.tkgui.projectionpanel.ConnectionFieldsPanel</text>
</g>
<!-- topo.tkgui.projectionpanel.UnitsPanel -->
<g id="node7" class="node"><title>topo.tkgui.projectionpanel.UnitsPanel</title>
<polygon fill="none" stroke="black" stroke-width="0.5" points="2043,-115.5 1849,-115.5 1849,-94.5 2043,-94.5 2043,-115.5"/>
<text text-anchor="middle" x="1946" y="-102.5" font-family="Vera" font-size="10.00">topo.tkgui.projectionpanel.UnitsPanel</text>
</g>
<!-- topo.tkgui.projectionpanel.UnitsPanel&#45;&gt;topo.tkgui.projectionpanel.ConnectionFieldsPanel -->
<g id="edge4" class="edge"><title>topo.tkgui.projectionpanel.UnitsPanel&#45;&gt;topo.tkgui.projectionpanel.ConnectionFieldsPanel</title>
<path fill="none" stroke="black" stroke-width="0.5" d="M2043.17,-105C2062.35,-105 2082.78,-105 2102.86,-105"/>
<polygon fill="black" stroke="black" points="2102.95,-106.75 2107.95,-105 2102.95,-103.25 2102.95,-106.75"/>
</g>
<!-- paramtk.TkParameterizedBase -->
<g id="node9" class="node"><title>paramtk.TkParameterizedBase</title>
<polygon fill="none" stroke="black" stroke-width="0.5" points="502,-49.5 338,-49.5 338,-28.5 502,-28.5 502,-49.5"/>
<text text-anchor="middle" x="420" y="-36.5" font-family="Vera" font-size="10.00">paramtk.TkParameterizedBase</text>
</g>
<!-- paramtk.TkParameterized -->
<g id="node19" class="node"><title>paramtk.TkParameterized</title>
<polygon fill="none" stroke="black" stroke-width="0.5" points="678,-54.5 538,-54.5 538,-33.5 678,-33.5 678,-54.5"/>
<text text-anchor="middle" x="608" y="-41.5" font-family="Vera" font-size="10.00">paramtk.TkParameterized</text>
</g>
<!-- paramtk.TkParameterizedBase&#45;&gt;paramtk.TkParameterized -->
<g id="edge36" class="edge"><title>paramtk.TkParameterizedBase&#45;&gt;paramtk.TkParameterized</title>
<path fill="none" stroke="black" stroke-width="0.5" d="M502.186,-41.1858C512.283,-41.4543 522.564,-41.7278 532.554,-41.9935"/>
<polygon fill="black" stroke="black" points="532.704,-43.748 537.749,-42.1316 532.798,-40.2492 532.704,-43.748"/>
</g>
<!-- param.parameterized.Parameterized -->
<g id="node10" class="node"><title>param.parameterized.Parameterized</title>
<polygon fill="none" stroke="black" stroke-width="0.5" points="302,-44.5 108,-44.5 108,-23.5 302,-23.5 302,-44.5"/>
<text text-anchor="middle" x="205" y="-31.5" font-family="Vera" font-size="10.00">param.parameterized.Parameterized</text>
</g>
<!-- param.parameterized.Parameterized&#45;&gt;paramtk.TkParameterizedBase -->
<g id="edge6" class="edge"><title>param.parameterized.Parameterized&#45;&gt;paramtk.TkParameterizedBase</title>
<path fill="none" stroke="black" stroke-width="0.5" d="M302.121,-36.2586C312.261,-36.4944 322.525,-36.7331 332.548,-36.9662"/>
<polygon fill="black" stroke="black" points="332.726,-38.7208 337.766,-37.0876 332.808,-35.2217 332.726,-38.7208"/>
</g>
<!-- Tkinter.Frame -->
<g id="node21" class="node"><title>Tkinter.Frame</title>
<polygon fill="none" stroke="black" stroke-width="0.5" points="648,-101.5 568,-101.5 568,-80.5 648,-80.5 648,-101.5"/>
<text text-anchor="middle" x="608" y="-88.5" font-family="Vera" font-size="10.00">Tkinter.Frame</text>
</g>
<!-- Tkinter.Widget&#45;&gt;Tkinter.Frame -->
<g id="edge28" class="edge"><title>Tkinter.Widget&#45;&gt;Tkinter.Frame</title>
<path fill="none" stroke="black" stroke-width="0.5" d="M461.723,-105.783C491.481,-102.776 531.488,-98.7326 562.14,-95.6348"/>
<polygon fill="black" stroke="black" points="562.564,-97.351 567.362,-95.107 562.212,-93.8687 562.564,-97.351"/>
</g>
<!-- Tkinter.Pack -->
<g id="node14" class="node"><title>Tkinter.Pack</title>
<polygon fill="none" stroke="black" stroke-width="0.5" points="241,-82.5 169,-82.5 169,-61.5 241,-61.5 241,-82.5"/>
<text text-anchor="middle" x="205" y="-69.5" font-family="Vera" font-size="10.00">Tkinter.Pack</text>
</g>
<!-- Tkinter.Pack&#45;&gt;Tkinter.Widget -->
<g id="edge10" class="edge"><title>Tkinter.Pack&#45;&gt;Tkinter.Widget</title>
<path fill="none" stroke="black" stroke-width="0.5" d="M241.96,-78.5324C278.269,-84.9499 333.801,-94.7649 373.179,-101.725"/>
<polygon fill="black" stroke="black" points="373.154,-103.497 378.383,-102.644 373.764,-100.051 373.154,-103.497"/>
</g>
<!-- topo.tkgui.plotgrouppanel.PlotGroupPanel -->
<g id="node18" class="node"><title>topo.tkgui.plotgrouppanel.PlotGroupPanel</title>
<polygon fill="none" stroke="black" stroke-width="0.5" points="929,-77.5 715,-77.5 715,-56.5 929,-56.5 929,-77.5"/>
<text text-anchor="middle" x="822" y="-64.5" font-family="Vera" font-size="10.00">topo.tkgui.plotgrouppanel.PlotGroupPanel</text>
</g>
<!-- topo.tkgui.plotgrouppanel.SheetPanel -->
<g id="node37" class="node"><title>topo.tkgui.plotgrouppanel.SheetPanel</title>
<polygon fill="none" stroke="black" stroke-width="0.5" points="1163,-77.5 967,-77.5 967,-56.5 1163,-56.5 1163,-77.5"/>
<text text-anchor="middle" x="1065" y="-64.5" font-family="Vera" font-size="10.00">topo.tkgui.plotgrouppanel.SheetPanel</text>
</g>
<!-- topo.tkgui.plotgrouppanel.PlotGroupPanel&#45;&gt;topo.tkgui.plotgrouppanel.SheetPanel -->
<g id="edge40" class="edge"><title>topo.tkgui.plotgrouppanel.PlotGroupPanel&#45;&gt;topo.tkgui.plotgrouppanel.SheetPanel</title>
<path fill="none" stroke="black" stroke-width="0.5" d="M929.645,-67C940.118,-67 950.73,-67 961.165,-67"/>
<polygon fill="black" stroke="black" points="961.272,-68.7501 966.272,-67 961.272,-65.2501 961.272,-68.7501"/>
</g>
<!-- paramtk.TkParameterized&#45;&gt;topo.tkgui.plotgrouppanel.PlotGroupPanel -->
<g id="edge16" class="edge"><title>paramtk.TkParameterized&#45;&gt;topo.tkgui.plotgrouppanel.PlotGroupPanel</title>
<path fill="none" stroke="black" stroke-width="0.5" d="M678.072,-51.5311C692.637,-53.0965 708.244,-54.7739 723.612,-56.4256"/>
<polygon fill="black" stroke="black" points="723.654,-58.1901 728.812,-56.9845 724.028,-54.7101 723.654,-58.1901"/>
</g>
<!-- Tkinter.Frame&#45;&gt;topo.tkgui.plotgrouppanel.PlotGroupPanel -->
<g id="edge18" class="edge"><title>Tkinter.Frame&#45;&gt;topo.tkgui.plotgrouppanel.PlotGroupPanel</title>
<path fill="none" stroke="black" stroke-width="0.5" d="M648.503,-86.4576C670.862,-83.9501 699.638,-80.7228 727.302,-77.6203"/>
<polygon fill="black" stroke="black" points="727.679,-79.3391 732.453,-77.0426 727.289,-75.8609 727.679,-79.3391"/>
</g>
<!-- topo.tkgui.projectionpanel.ProjectionActivityPanel -->
<g id="node23" class="node"><title>topo.tkgui.projectionpanel.ProjectionActivityPanel</title>
<polygon fill="none" stroke="black" stroke-width="0.5" points="2071,-77.5 1821,-77.5 1821,-56.5 2071,-56.5 2071,-77.5"/>
<text text-anchor="middle" x="1946" y="-64.5" font-family="Vera" font-size="10.00">topo.tkgui.projectionpanel.ProjectionActivityPanel</text>
</g>
<!-- topo.tkgui.projectionpanel.ProjectionSheetPanel -->
<g id="node24" class="node"><title>topo.tkgui.projectionpanel.ProjectionSheetPanel</title>
<polygon fill="none" stroke="black" stroke-width="0.5" points="1783,-77.5 1539,-77.5 1539,-56.5 1783,-56.5 1783,-77.5"/>
<text text-anchor="middle" x="1661" y="-64.5" font-family="Vera" font-size="10.00">topo.tkgui.projectionpanel.ProjectionSheetPanel</text>
</g>
<!-- topo.tkgui.projectionpanel.ProjectionSheetPanel&#45;&gt;topo.tkgui.projectionpanel.UnitsPanel -->
<g id="edge32" class="edge"><title>topo.tkgui.projectionpanel.ProjectionSheetPanel&#45;&gt;topo.tkgui.projectionpanel.UnitsPanel</title>
<path fill="none" stroke="black" stroke-width="0.5" d="M1736.25,-77.0338C1776.03,-82.3369 1824.87,-88.8491 1865.41,-94.2547"/>
<polygon fill="black" stroke="black" points="1865.63,-96.0497 1870.82,-94.976 1866.09,-92.5804 1865.63,-96.0497"/>
</g>
<!-- topo.tkgui.projectionpanel.ProjectionSheetPanel&#45;&gt;topo.tkgui.projectionpanel.ProjectionActivityPanel -->
<g id="edge20" class="edge"><title>topo.tkgui.projectionpanel.ProjectionSheetPanel&#45;&gt;topo.tkgui.projectionpanel.ProjectionActivityPanel</title>
<path fill="none" stroke="black" stroke-width="0.5" d="M1783.52,-67C1794.02,-67 1804.67,-67 1815.23,-67"/>
<polygon fill="black" stroke="black" points="1815.41,-68.7501 1820.41,-67 1815.41,-65.2501 1815.41,-68.7501"/>
</g>
<!-- topo.tkgui.projectionpanel.PlotMatrixPanel -->
<g id="node29" class="node"><title>topo.tkgui.projectionpanel.PlotMatrixPanel</title>
<polygon fill="none" stroke="black" stroke-width="0.5" points="2054,-39.5 1838,-39.5 1838,-18.5 2054,-18.5 2054,-39.5"/>
<text text-anchor="middle" x="1946" y="-26.5" font-family="Vera" font-size="10.00">topo.tkgui.projectionpanel.PlotMatrixPanel</text>
</g>
<!-- topo.tkgui.projectionpanel.ProjectionSheetPanel&#45;&gt;topo.tkgui.projectionpanel.PlotMatrixPanel -->
<g id="edge38" class="edge"><title>topo.tkgui.projectionpanel.ProjectionSheetPanel&#45;&gt;topo.tkgui.projectionpanel.PlotMatrixPanel</title>
<path fill="none" stroke="black" stroke-width="0.5" d="M1736.25,-56.9662C1776.03,-51.6631 1824.87,-45.1509 1865.41,-39.7453"/>
<polygon fill="black" stroke="black" points="1866.09,-41.4196 1870.82,-39.024 1865.63,-37.9503 1866.09,-41.4196"/>
</g>
<!-- topo.tkgui.projectionpanel.CFProjectionPanel -->
<g id="node26" class="node"><title>topo.tkgui.projectionpanel.CFProjectionPanel</title>
<polygon fill="none" stroke="black" stroke-width="0.5" points="2623,-58.5 2395,-58.5 2395,-37.5 2623,-37.5 2623,-58.5"/>
<text text-anchor="middle" x="2509" y="-45.5" font-family="Vera" font-size="10.00">topo.tkgui.projectionpanel.CFProjectionPanel</text>
</g>
<!-- topo.tkgui.projectionpanel.ProjectionPanel -->
<g id="node27" class="node"><title>topo.tkgui.projectionpanel.ProjectionPanel</title>
<polygon fill="none" stroke="black" stroke-width="0.5" points="2341,-58.5 2125,-58.5 2125,-37.5 2341,-37.5 2341,-58.5"/>
<text text-anchor="middle" x="2233" y="-45.5" font-family="Vera" font-size="10.00">topo.tkgui.projectionpanel.ProjectionPanel</text>
</g>
<!-- topo.tkgui.projectionpanel.ProjectionPanel&#45;&gt;topo.tkgui.projectionpanel.CFProjectionPanel -->
<g id="edge22" class="edge"><title>topo.tkgui.projectionpanel.ProjectionPanel&#45;&gt;topo.tkgui.projectionpanel.CFProjectionPanel</title>
<path fill="none" stroke="black" stroke-width="0.5" d="M2341.69,-48C2357.14,-48 2373.1,-48 2388.76,-48"/>
<polygon fill="black" stroke="black" points="2389.05,-49.7501 2394.05,-48 2389.05,-46.2501 2389.05,-49.7501"/>
</g>
<!-- topo.tkgui.projectionpanel.PlotMatrixPanel&#45;&gt;topo.tkgui.projectionpanel.ProjectionPanel -->
<g id="edge24" class="edge"><title>topo.tkgui.projectionpanel.PlotMatrixPanel&#45;&gt;topo.tkgui.projectionpanel.ProjectionPanel</title>
<path fill="none" stroke="black" stroke-width="0.5" d="M2054.5,-36.1831C2075.66,-37.584 2097.91,-39.0566 2119.23,-40.4684"/>
<polygon fill="black" stroke="black" points="2119.24,-42.2226 2124.34,-40.8068 2119.47,-38.7302 2119.24,-42.2226"/>
</g>
<!-- topo.tkgui.projectionpanel.RFProjectionPanel -->
<g id="node34" class="node"><title>topo.tkgui.projectionpanel.RFProjectionPanel</title>
<polygon fill="none" stroke="black" stroke-width="0.5" points="2347,-20.5 2119,-20.5 2119,0.5 2347,0.5 2347,-20.5"/>
<text text-anchor="middle" x="2233" y="-7.5" font-family="Vera" font-size="10.00">topo.tkgui.projectionpanel.RFProjectionPanel</text>
</g>
<!-- topo.tkgui.projectionpanel.PlotMatrixPanel&#45;&gt;topo.tkgui.projectionpanel.RFProjectionPanel -->
<g id="edge30" class="edge"><title>topo.tkgui.projectionpanel.PlotMatrixPanel&#45;&gt;topo.tkgui.projectionpanel.RFProjectionPanel</title>
<path fill="none" stroke="black" stroke-width="0.5" d="M2054.5,-21.8169C2073.66,-20.549 2093.69,-19.2224 2113.14,-17.9352"/>
<polygon fill="black" stroke="black" points="2113.73,-19.6498 2118.6,-17.5733 2113.5,-16.1575 2113.73,-19.6498"/>
</g>
<!-- topo.tkgui.templateplotgrouppanel.TemplatePlotGroupPanel -->
<g id="node31" class="node"><title>topo.tkgui.templateplotgrouppanel.TemplatePlotGroupPanel</title>
<polygon fill="none" stroke="black" stroke-width="0.5" points="1502,-77.5 1200,-77.5 1200,-56.5 1502,-56.5 1502,-77.5"/>
<text text-anchor="middle" x="1351" y="-64.5" font-family="Vera" font-size="10.00">topo.tkgui.templateplotgrouppanel.TemplatePlotGroupPanel</text>
</g>
<!-- topo.tkgui.templateplotgrouppanel.TemplatePlotGroupPanel&#45;&gt;topo.tkgui.projectionpanel.ProjectionSheetPanel -->
<g id="edge26" class="edge"><title>topo.tkgui.templateplotgrouppanel.TemplatePlotGroupPanel&#45;&gt;topo.tkgui.projectionpanel.ProjectionSheetPanel</title>
<path fill="none" stroke="black" stroke-width="0.5" d="M1502.37,-67C1512.58,-67 1522.81,-67 1532.88,-67"/>
<polygon fill="black" stroke="black" points="1533.13,-68.7501 1538.13,-67 1533.13,-65.2501 1533.13,-68.7501"/>
</g>
<!-- topo.tkgui.plotgrouppanel.SheetPanel&#45;&gt;topo.tkgui.templateplotgrouppanel.TemplatePlotGroupPanel -->
<g id="edge34" class="edge"><title>topo.tkgui.plotgrouppanel.SheetPanel&#45;&gt;topo.tkgui.templateplotgrouppanel.TemplatePlotGroupPanel</title>
<path fill="none" stroke="black" stroke-width="0.5" d="M1163.83,-67C1173.89,-67 1184.27,-67 1194.75,-67"/>
<polygon fill="black" stroke="black" points="1194.9,-68.7501 1199.9,-67 1194.9,-65.2501 1194.9,-68.7501"/>
</g>
</g>
</svg>
