<?xml version="1.0" encoding="UTF-8" standalone="no"?>
<!DOCTYPE svg PUBLIC "-//W3C//DTD SVG 1.1//EN"
 "http://www.w3.org/Graphics/SVG/1.1/DTD/svg11.dtd">
<!-- Generated by graphviz version 2.26.3 (20100126.1600)
 -->
<!-- Title: inheritance0bce68b9cf Pages: 1 -->
<svg width="1872pt" height="541pt"
 viewBox="0.00 0.00 1872.00 541.00" xmlns="http://www.w3.org/2000/svg" xmlns:xlink="http://www.w3.org/1999/xlink">
<g id="graph1" class="graph" transform="scale(1 1) rotate(0) translate(4 537)">
<title>inheritance0bce68b9cf</title>
<polygon fill="white" stroke="white" points="-4,5 -4,-537 1869,-537 1869,5 -4,5"/>
<!-- param.parameterized.Parameterized -->
<g id="node1" class="node"><title>param.parameterized.Parameterized</title>
<polygon fill="none" stroke="black" stroke-width="0.5" points="194,-86.5 5.68434e-14,-86.5 0,-65.5 194,-65.5 194,-86.5"/>
<text text-anchor="middle" x="97" y="-73.5" font-family="Vera" font-size="10.00">param.parameterized.Parameterized</text>
</g>
<!-- param.parameterized.ParameterizedFunction -->
<g id="node5" class="node"><title>param.parameterized.ParameterizedFunction</title>
<polygon fill="none" stroke="black" stroke-width="0.5" points="464,-143.5 230,-143.5 230,-122.5 464,-122.5 464,-143.5"/>
<text text-anchor="middle" x="347" y="-130.5" font-family="Vera" font-size="10.00">param.parameterized.ParameterizedFunction</text>
</g>
<!-- param.parameterized.Parameterized&#45;&gt;param.parameterized.ParameterizedFunction -->
<g id="edge6" class="edge"><title>param.parameterized.Parameterized&#45;&gt;param.parameterized.ParameterizedFunction</title>
<path fill="none" stroke="black" stroke-width="0.5" d="M141.12,-86.0592C185.075,-96.0811 252.414,-111.434 298.007,-121.83"/>
<polygon fill="black" stroke="black" points="297.638,-123.54 302.902,-122.946 298.416,-120.128 297.638,-123.54"/>
</g>
<!-- imagen.patterngenerator.PatternGenerator -->
<g id="node10" class="node"><title>imagen.patterngenerator.PatternGenerator</title>
<polygon fill="none" stroke="black" stroke-width="0.5" points="459,-86.5 235,-86.5 235,-65.5 459,-65.5 459,-86.5"/>
<text text-anchor="middle" x="347" y="-73.5" font-family="Vera" font-size="10.00">imagen.patterngenerator.PatternGenerator</text>
</g>
<!-- param.parameterized.Parameterized&#45;&gt;imagen.patterngenerator.PatternGenerator -->
<g id="edge10" class="edge"><title>param.parameterized.Parameterized&#45;&gt;imagen.patterngenerator.PatternGenerator</title>
<path fill="none" stroke="black" stroke-width="0.5" d="M194.014,-76C205.664,-76 217.655,-76 229.554,-76"/>
<polygon fill="black" stroke="black" points="229.647,-77.7501 234.647,-76 229.647,-74.2501 229.647,-77.7501"/>
</g>
<!-- topo.command.analysis.PatternPresenter2 -->
<g id="node31" class="node"><title>topo.command.analysis.PatternPresenter2</title>
<polygon fill="none" stroke="black" stroke-width="0.5" points="457,-48.5 237,-48.5 237,-27.5 457,-27.5 457,-48.5"/>
<text text-anchor="middle" x="347" y="-35.5" font-family="Vera" font-size="10.00">topo.command.analysis.PatternPresenter2</text>
</g>
<!-- param.parameterized.Parameterized&#45;&gt;topo.command.analysis.PatternPresenter2 -->
<g id="edge30" class="edge"><title>param.parameterized.Parameterized&#45;&gt;topo.command.analysis.PatternPresenter2</title>
<path fill="none" stroke="black" stroke-width="0.5" d="M163.012,-65.9662C197.758,-60.6848 240.394,-54.204 275.872,-48.8115"/>
<polygon fill="black" stroke="black" points="276.372,-50.5056 281.052,-48.024 275.846,-47.0454 276.372,-50.5056"/>
</g>
<!-- topo.analysis.featureresponses.MeasureResponseCommand -->
<g id="node2" class="node"><title>topo.analysis.featureresponses.MeasureResponseCommand</title>
<polygon fill="none" stroke="black" stroke-width="0.5" points="1165,-229.5 859,-229.5 859,-208.5 1165,-208.5 1165,-229.5"/>
<text text-anchor="middle" x="1012" y="-216.5" font-family="Vera" font-size="10.00">topo.analysis.featureresponses.MeasureResponseCommand</text>
</g>
<!-- topo.analysis.featureresponses.SinusoidalMeasureResponseCommand -->
<g id="node8" class="node"><title>topo.analysis.featureresponses.SinusoidalMeasureResponseCommand</title>
<polygon fill="none" stroke="black" stroke-width="0.5" points="1558,-400.5 1202,-400.5 1202,-379.5 1558,-379.5 1558,-400.5"/>
<text text-anchor="middle" x="1380" y="-387.5" font-family="Vera" font-size="10.00">topo.analysis.featureresponses.SinusoidalMeasureResponseCommand</text>
</g>
<!-- topo.analysis.featureresponses.MeasureResponseCommand&#45;&gt;topo.analysis.featureresponses.SinusoidalMeasureResponseCommand -->
<g id="edge8" class="edge"><title>topo.analysis.featureresponses.MeasureResponseCommand&#45;&gt;topo.analysis.featureresponses.SinusoidalMeasureResponseCommand</title>
<path fill="none" stroke="black" stroke-width="0.5" d="M1031.23,-229.098C1065.33,-246.891 1138.75,-284.716 1202,-314 1253.44,-337.816 1314.38,-363.248 1349.97,-377.823"/>
<polygon fill="black" stroke="black" points="1349.74,-379.62 1355.03,-379.893 1351.06,-376.38 1349.74,-379.62"/>
</g>
<!-- topo.analysis.featureresponses.SingleInputResponseCommand -->
<g id="node22" class="node"><title>topo.analysis.featureresponses.SingleInputResponseCommand</title>
<polygon fill="none" stroke="black" stroke-width="0.5" points="1539,-305.5 1221,-305.5 1221,-284.5 1539,-284.5 1539,-305.5"/>
<text text-anchor="middle" x="1380" y="-292.5" font-family="Vera" font-size="10.00">topo.analysis.featureresponses.SingleInputResponseCommand</text>
</g>
<!-- topo.analysis.featureresponses.MeasureResponseCommand&#45;&gt;topo.analysis.featureresponses.SingleInputResponseCommand -->
<g id="edge28" class="edge"><title>topo.analysis.featureresponses.MeasureResponseCommand&#45;&gt;topo.analysis.featureresponses.SingleInputResponseCommand</title>
<path fill="none" stroke="black" stroke-width="0.5" d="M1039.6,-229.042C1076.21,-241.955 1143.09,-264.126 1202,-276 1218.29,-279.283 1235.54,-282.024 1252.64,-284.305"/>
<polygon fill="black" stroke="black" points="1252.75,-286.085 1257.94,-284.999 1253.21,-282.615 1252.75,-286.085"/>
</g>
<!-- topo.command.analysis.measure_latency_preference -->
<g id="node24" class="node"><title>topo.command.analysis.measure_latency_preference</title>
<polygon fill="none" stroke="black" stroke-width="0.5" points="1517,-267.5 1243,-267.5 1243,-246.5 1517,-246.5 1517,-267.5"/>
<text text-anchor="middle" x="1380" y="-254.5" font-family="Vera" font-size="10.00">topo.command.analysis.measure_latency_preference</text>
</g>
<!-- topo.analysis.featureresponses.MeasureResponseCommand&#45;&gt;topo.command.analysis.measure_latency_preference -->
<g id="edge22" class="edge"><title>topo.analysis.featureresponses.MeasureResponseCommand&#45;&gt;topo.command.analysis.measure_latency_preference</title>
<path fill="none" stroke="black" stroke-width="0.5" d="M1109.17,-229.034C1161.15,-234.402 1225.14,-241.009 1277.86,-246.453"/>
<polygon fill="black" stroke="black" points="1277.77,-248.203 1282.93,-246.976 1278.13,-244.722 1277.77,-248.203"/>
</g>
<!-- topo.command.analysis.measure_frequency_preference -->
<g id="node33" class="node"><title>topo.command.analysis.measure_frequency_preference</title>
<polygon fill="none" stroke="black" stroke-width="0.5" points="1523,-229.5 1237,-229.5 1237,-208.5 1523,-208.5 1523,-229.5"/>
<text text-anchor="middle" x="1380" y="-216.5" font-family="Vera" font-size="10.00">topo.command.analysis.measure_frequency_preference</text>
</g>
<!-- topo.analysis.featureresponses.MeasureResponseCommand&#45;&gt;topo.command.analysis.measure_frequency_preference -->
<g id="edge32" class="edge"><title>topo.analysis.featureresponses.MeasureResponseCommand&#45;&gt;topo.command.analysis.measure_frequency_preference</title>
<path fill="none" stroke="black" stroke-width="0.5" d="M1165.67,-219C1187.38,-219 1209.67,-219 1231.29,-219"/>
<polygon fill="black" stroke="black" points="1231.47,-220.75 1236.47,-219 1231.47,-217.25 1231.47,-220.75"/>
</g>
<!-- topo.command.analysis.measure_log_frequency_preference -->
<g id="node35" class="node"><title>topo.command.analysis.measure_log_frequency_preference</title>
<polygon fill="none" stroke="black" stroke-width="0.5" points="1533,-191.5 1227,-191.5 1227,-170.5 1533,-170.5 1533,-191.5"/>
<text text-anchor="middle" x="1380" y="-178.5" font-family="Vera" font-size="10.00">topo.command.analysis.measure_log_frequency_preference</text>
</g>
<!-- topo.analysis.featureresponses.MeasureResponseCommand&#45;&gt;topo.command.analysis.measure_log_frequency_preference -->
<g id="edge34" class="edge"><title>topo.analysis.featureresponses.MeasureResponseCommand&#45;&gt;topo.command.analysis.measure_log_frequency_preference</title>
<path fill="none" stroke="black" stroke-width="0.5" d="M1109.17,-208.966C1161.15,-203.598 1225.14,-196.991 1277.86,-191.547"/>
<polygon fill="black" stroke="black" points="1278.13,-193.278 1282.93,-191.024 1277.77,-189.797 1278.13,-193.278"/>
</g>
<!-- topo.analysis.featureresponses.PositionMeasurementCommand -->
<g id="node48" class="node"><title>topo.analysis.featureresponses.PositionMeasurementCommand</title>
<polygon fill="none" stroke="black" stroke-width="0.5" points="1542,-153.5 1218,-153.5 1218,-132.5 1542,-132.5 1542,-153.5"/>
<text text-anchor="middle" x="1380" y="-140.5" font-family="Vera" font-size="10.00">topo.analysis.featureresponses.PositionMeasurementCommand</text>
</g>
<!-- topo.analysis.featureresponses.MeasureResponseCommand&#45;&gt;topo.analysis.featureresponses.PositionMeasurementCommand -->
<g id="edge56" class="edge"><title>topo.analysis.featureresponses.MeasureResponseCommand&#45;&gt;topo.analysis.featureresponses.PositionMeasurementCommand</title>
<path fill="none" stroke="black" stroke-width="0.5" d="M1066.43,-208.953C1096.36,-202.595 1133.83,-193.248 1166,-181 1182.91,-174.563 1184.7,-167.277 1202,-162 1212.31,-158.856 1223.1,-156.215 1234.04,-153.998"/>
<polygon fill="black" stroke="black" points="1234.51,-155.69 1239.07,-153.009 1233.83,-152.255 1234.51,-155.69"/>
</g>
<!-- topo.analysis.featureresponses.PatternPresentingCommand -->
<g id="node3" class="node"><title>topo.analysis.featureresponses.PatternPresentingCommand</title>
<polygon fill="none" stroke="black" stroke-width="0.5" points="813,-229.5 509,-229.5 509,-208.5 813,-208.5 813,-229.5"/>
<text text-anchor="middle" x="661" y="-216.5" font-family="Vera" font-size="10.00">topo.analysis.featureresponses.PatternPresentingCommand</text>
</g>
<!-- topo.analysis.featureresponses.PatternPresentingCommand&#45;&gt;topo.analysis.featureresponses.MeasureResponseCommand -->
<g id="edge2" class="edge"><title>topo.analysis.featureresponses.PatternPresentingCommand&#45;&gt;topo.analysis.featureresponses.MeasureResponseCommand</title>
<path fill="none" stroke="black" stroke-width="0.5" d="M813.677,-219C826.734,-219 839.963,-219 853.067,-219"/>
<polygon fill="black" stroke="black" points="853.278,-220.75 858.278,-219 853.278,-217.25 853.278,-220.75"/>
</g>
<!-- param.parameterized.ParameterizedFunction&#45;&gt;topo.analysis.featureresponses.PatternPresentingCommand -->
<g id="edge4" class="edge"><title>param.parameterized.ParameterizedFunction&#45;&gt;topo.analysis.featureresponses.PatternPresentingCommand</title>
<path fill="none" stroke="black" stroke-width="0.5" d="M376.715,-143.023C407.406,-153.21 456.778,-169.136 500,-181 536.41,-190.994 577.883,-200.745 609.618,-207.867"/>
<polygon fill="black" stroke="black" points="609.364,-209.603 614.625,-208.987 610.128,-206.187 609.364,-209.603"/>
</g>
<!-- topo.plotting.plotgroup.ProjectionSheetMeasurementCommand -->
<g id="node13" class="node"><title>topo.plotting.plotgroup.ProjectionSheetMeasurementCommand</title>
<polygon fill="none" stroke="black" stroke-width="0.5" points="822,-172.5 500,-172.5 500,-151.5 822,-151.5 822,-172.5"/>
<text text-anchor="middle" x="661" y="-159.5" font-family="Vera" font-size="10.00">topo.plotting.plotgroup.ProjectionSheetMeasurementCommand</text>
</g>
<!-- param.parameterized.ParameterizedFunction&#45;&gt;topo.plotting.plotgroup.ProjectionSheetMeasurementCommand -->
<g id="edge50" class="edge"><title>param.parameterized.ParameterizedFunction&#45;&gt;topo.plotting.plotgroup.ProjectionSheetMeasurementCommand</title>
<path fill="none" stroke="black" stroke-width="0.5" d="M455.501,-143.021C485.161,-145.76 517.382,-148.736 547.323,-151.501"/>
<polygon fill="black" stroke="black" points="547.355,-153.262 552.495,-151.979 547.677,-149.776 547.355,-153.262"/>
</g>
<!-- topo.command.analysis.save_plotgroup -->
<g id="node26" class="node"><title>topo.command.analysis.save_plotgroup</title>
<polygon fill="none" stroke="black" stroke-width="0.5" points="765,-134.5 557,-134.5 557,-113.5 765,-113.5 765,-134.5"/>
<text text-anchor="middle" x="661" y="-121.5" font-family="Vera" font-size="10.00">topo.command.analysis.save_plotgroup</text>
</g>
<!-- param.parameterized.ParameterizedFunction&#45;&gt;topo.command.analysis.save_plotgroup -->
<g id="edge24" class="edge"><title>param.parameterized.ParameterizedFunction&#45;&gt;topo.command.analysis.save_plotgroup</title>
<path fill="none" stroke="black" stroke-width="0.5" d="M464.369,-129.636C492.984,-128.816 523.479,-127.942 551.702,-127.133"/>
<polygon fill="black" stroke="black" points="551.997,-128.875 556.945,-126.982 551.897,-125.377 551.997,-128.875"/>
</g>
<!-- topo.command.analysis.measure_or_pref -->
<g id="node15" class="node"><title>topo.command.analysis.measure_or_pref</title>
<polygon fill="none" stroke="black" stroke-width="0.5" points="1837,-533.5 1621,-533.5 1621,-512.5 1837,-512.5 1837,-533.5"/>
<text text-anchor="middle" x="1729" y="-520.5" font-family="Vera" font-size="10.00">topo.command.analysis.measure_or_pref</text>
</g>
<!-- topo.analysis.featureresponses.SinusoidalMeasureResponseCommand&#45;&gt;topo.command.analysis.measure_or_pref -->
<g id="edge14" class="edge"><title>topo.analysis.featureresponses.SinusoidalMeasureResponseCommand&#45;&gt;topo.command.analysis.measure_or_pref</title>
<path fill="none" stroke="black" stroke-width="0.5" d="M1394.75,-400.238C1428.36,-423.021 1513.94,-477.944 1594,-504 1603.57,-507.116 1613.69,-509.721 1623.91,-511.899"/>
<polygon fill="black" stroke="black" points="1623.69,-513.639 1628.94,-512.934 1624.39,-510.211 1623.69,-513.639"/>
</g>
<!-- topo.command.analysis.measure_second_or_pref -->
<g id="node37" class="node"><title>topo.command.analysis.measure_second_or_pref</title>
<polygon fill="none" stroke="black" stroke-width="0.5" points="1857,-495.5 1601,-495.5 1601,-474.5 1857,-474.5 1857,-495.5"/>
<text text-anchor="middle" x="1729" y="-482.5" font-family="Vera" font-size="10.00">topo.command.analysis.measure_second_or_pref</text>
</g>
<!-- topo.analysis.featureresponses.SinusoidalMeasureResponseCommand&#45;&gt;topo.command.analysis.measure_second_or_pref -->
<g id="edge36" class="edge"><title>topo.analysis.featureresponses.SinusoidalMeasureResponseCommand&#45;&gt;topo.command.analysis.measure_second_or_pref</title>
<path fill="none" stroke="black" stroke-width="0.5" d="M1403.28,-400.021C1442.08,-416.327 1522.78,-448.531 1594,-466 1606.9,-469.164 1620.63,-471.853 1634.2,-474.125"/>
<polygon fill="black" stroke="black" points="1633.98,-475.861 1639.2,-474.943 1634.55,-472.407 1633.98,-475.861"/>
</g>
<!-- topo.command.analysis.measure_od_pref -->
<g id="node39" class="node"><title>topo.command.analysis.measure_od_pref</title>
<polygon fill="none" stroke="black" stroke-width="0.5" points="1838,-457.5 1620,-457.5 1620,-436.5 1838,-436.5 1838,-457.5"/>
<text text-anchor="middle" x="1729" y="-444.5" font-family="Vera" font-size="10.00">topo.command.analysis.measure_od_pref</text>
</g>
<!-- topo.analysis.featureresponses.SinusoidalMeasureResponseCommand&#45;&gt;topo.command.analysis.measure_od_pref -->
<g id="edge38" class="edge"><title>topo.analysis.featureresponses.SinusoidalMeasureResponseCommand&#45;&gt;topo.command.analysis.measure_od_pref</title>
<path fill="none" stroke="black" stroke-width="0.5" d="M1433.56,-400.06C1476.79,-408.048 1539.22,-419.284 1594,-428 1611.84,-430.838 1631.04,-433.673 1649.21,-436.254"/>
<polygon fill="black" stroke="black" points="1649.11,-438.007 1654.3,-436.975 1649.6,-434.542 1649.11,-438.007"/>
</g>
<!-- topo.command.analysis.measure_hue_pref -->
<g id="node50" class="node"><title>topo.command.analysis.measure_hue_pref</title>
<polygon fill="none" stroke="black" stroke-width="0.5" points="1841,-419.5 1617,-419.5 1617,-398.5 1841,-398.5 1841,-419.5"/>
<text text-anchor="middle" x="1729" y="-406.5" font-family="Vera" font-size="10.00">topo.command.analysis.measure_hue_pref</text>
</g>
<!-- topo.analysis.featureresponses.SinusoidalMeasureResponseCommand&#45;&gt;topo.command.analysis.measure_hue_pref -->
<g id="edge48" class="edge"><title>topo.analysis.featureresponses.SinusoidalMeasureResponseCommand&#45;&gt;topo.command.analysis.measure_hue_pref</title>
<path fill="none" stroke="black" stroke-width="0.5" d="M1558.08,-399.695C1576.2,-400.681 1594.27,-401.665 1611.51,-402.604"/>
<polygon fill="black" stroke="black" points="1611.74,-404.369 1616.83,-402.893 1611.94,-400.874 1611.74,-404.369"/>
</g>
<!-- topo.command.analysis.measure_sine_pref -->
<g id="node53" class="node"><title>topo.command.analysis.measure_sine_pref</title>
<polygon fill="none" stroke="black" stroke-width="0.5" points="1842,-381.5 1616,-381.5 1616,-360.5 1842,-360.5 1842,-381.5"/>
<text text-anchor="middle" x="1729" y="-368.5" font-family="Vera" font-size="10.00">topo.command.analysis.measure_sine_pref</text>
</g>
<!-- topo.analysis.featureresponses.SinusoidalMeasureResponseCommand&#45;&gt;topo.command.analysis.measure_sine_pref -->
<g id="edge52" class="edge"><title>topo.analysis.featureresponses.SinusoidalMeasureResponseCommand&#45;&gt;topo.command.analysis.measure_sine_pref</title>
<path fill="none" stroke="black" stroke-width="0.5" d="M1558.08,-380.305C1575.9,-379.335 1593.67,-378.368 1610.64,-377.444"/>
<polygon fill="black" stroke="black" points="1610.99,-379.178 1615.88,-377.158 1610.79,-375.683 1610.99,-379.178"/>
</g>
<!-- topo.command.analysis.measure_phasedisparity -->
<g id="node55" class="node"><title>topo.command.analysis.measure_phasedisparity</title>
<polygon fill="none" stroke="black" stroke-width="0.5" points="1855,-343.5 1603,-343.5 1603,-322.5 1855,-322.5 1855,-343.5"/>
<text text-anchor="middle" x="1729" y="-330.5" font-family="Vera" font-size="10.00">topo.command.analysis.measure_phasedisparity</text>
</g>
<!-- topo.analysis.featureresponses.SinusoidalMeasureResponseCommand&#45;&gt;topo.command.analysis.measure_phasedisparity -->
<g id="edge54" class="edge"><title>topo.analysis.featureresponses.SinusoidalMeasureResponseCommand&#45;&gt;topo.command.analysis.measure_phasedisparity</title>
<path fill="none" stroke="black" stroke-width="0.5" d="M1433.56,-379.94C1476.79,-371.952 1539.22,-360.716 1594,-352 1611.84,-349.162 1631.04,-346.327 1649.21,-343.746"/>
<polygon fill="black" stroke="black" points="1649.6,-345.458 1654.3,-343.025 1649.11,-341.993 1649.6,-345.458"/>
</g>
<!-- topo.command.analysis.measure_dr_pref -->
<g id="node58" class="node"><title>topo.command.analysis.measure_dr_pref</title>
<polygon fill="none" stroke="black" stroke-width="0.5" points="1837,-305.5 1621,-305.5 1621,-284.5 1837,-284.5 1837,-305.5"/>
<text text-anchor="middle" x="1729" y="-292.5" font-family="Vera" font-size="10.00">topo.command.analysis.measure_dr_pref</text>
</g>
<!-- topo.analysis.featureresponses.SinusoidalMeasureResponseCommand&#45;&gt;topo.command.analysis.measure_dr_pref -->
<g id="edge58" class="edge"><title>topo.analysis.featureresponses.SinusoidalMeasureResponseCommand&#45;&gt;topo.command.analysis.measure_dr_pref</title>
<path fill="none" stroke="black" stroke-width="0.5" d="M1403.28,-379.979C1442.08,-363.673 1522.78,-331.469 1594,-314 1606.9,-310.836 1620.63,-308.147 1634.2,-305.875"/>
<polygon fill="black" stroke="black" points="1634.55,-307.593 1639.2,-305.057 1633.98,-304.139 1634.55,-307.593"/>
</g>
<!-- topo.command.analysis.log_frequency_mapper -->
<g id="node17" class="node"><title>topo.command.analysis.log_frequency_mapper</title>
<polygon fill="none" stroke="black" stroke-width="0.5" points="783,-96.5 539,-96.5 539,-75.5 783,-75.5 783,-96.5"/>
<text text-anchor="middle" x="661" y="-83.5" font-family="Vera" font-size="10.00">topo.command.analysis.log_frequency_mapper</text>
</g>
<!-- imagen.patterngenerator.PatternGenerator&#45;&gt;topo.command.analysis.log_frequency_mapper -->
<g id="edge16" class="edge"><title>imagen.patterngenerator.PatternGenerator&#45;&gt;topo.command.analysis.log_frequency_mapper</title>
<path fill="none" stroke="black" stroke-width="0.5" d="M459.031,-79.5679C483.203,-80.3377 508.927,-81.1569 533.635,-81.9438"/>
<polygon fill="black" stroke="black" points="533.838,-83.701 538.891,-82.1112 533.949,-80.2028 533.838,-83.701"/>
</g>
<!-- topo.command.analysis.latency_mapper -->
<g id="node19" class="node"><title>topo.command.analysis.latency_mapper</title>
<polygon fill="none" stroke="black" stroke-width="0.5" points="767,-58.5 555,-58.5 555,-37.5 767,-37.5 767,-58.5"/>
<text text-anchor="middle" x="661" y="-45.5" font-family="Vera" font-size="10.00">topo.command.analysis.latency_mapper</text>
</g>
<!-- imagen.patterngenerator.PatternGenerator&#45;&gt;topo.command.analysis.latency_mapper -->
<g id="edge18" class="edge"><title>imagen.patterngenerator.PatternGenerator&#45;&gt;topo.command.analysis.latency_mapper</title>
<path fill="none" stroke="black" stroke-width="0.5" d="M459.031,-66.0099C488.501,-63.3821 520.279,-60.5484 549.709,-57.924"/>
<polygon fill="black" stroke="black" points="549.968,-59.658 554.792,-57.4708 549.657,-56.1719 549.968,-59.658"/>
</g>
<!-- topo.command.analysis.frequency_mapper -->
<g id="node43" class="node"><title>topo.command.analysis.frequency_mapper</title>
<polygon fill="none" stroke="black" stroke-width="0.5" points="773,-20.5 549,-20.5 549,0.5 773,0.5 773,-20.5"/>
<text text-anchor="middle" x="661" y="-7.5" font-family="Vera" font-size="10.00">topo.command.analysis.frequency_mapper</text>
</g>
<!-- imagen.patterngenerator.PatternGenerator&#45;&gt;topo.command.analysis.frequency_mapper -->
<g id="edge42" class="edge"><title>imagen.patterngenerator.PatternGenerator&#45;&gt;topo.command.analysis.frequency_mapper</title>
<path fill="none" stroke="black" stroke-width="0.5" d="M437.742,-65.9338C446.796,-63.553 455.7,-60.6177 464,-57 482.582,-48.9014 481.247,-36.6924 500,-29 513.686,-23.3861 528.539,-19.2765 543.502,-16.2901"/>
<polygon fill="black" stroke="black" points="543.997,-17.9774 548.58,-15.3199 543.34,-14.5396 543.997,-17.9774"/>
</g>
<!-- topo.command.analysis.update_projectionactivity -->
<g id="node12" class="node"><title>topo.command.analysis.update_projectionactivity</title>
<polygon fill="none" stroke="black" stroke-width="0.5" points="1139,-172.5 885,-172.5 885,-151.5 1139,-151.5 1139,-172.5"/>
<text text-anchor="middle" x="1012" y="-159.5" font-family="Vera" font-size="10.00">topo.command.analysis.update_projectionactivity</text>
</g>
<!-- topo.plotting.plotgroup.ProjectionSheetMeasurementCommand&#45;&gt;topo.command.analysis.update_projectionactivity -->
<g id="edge12" class="edge"><title>topo.plotting.plotgroup.ProjectionSheetMeasurementCommand&#45;&gt;topo.command.analysis.update_projectionactivity</title>
<path fill="none" stroke="black" stroke-width="0.5" d="M822.118,-162C841.391,-162 860.898,-162 879.699,-162"/>
<polygon fill="black" stroke="black" points="879.982,-163.75 884.982,-162 879.982,-160.25 879.982,-163.75"/>
</g>
<!-- topo.plotting.plotgroup.UnitMeasurementCommand -->
<g id="node28" class="node"><title>topo.plotting.plotgroup.UnitMeasurementCommand</title>
<polygon fill="none" stroke="black" stroke-width="0.5" points="1145,-115.5 879,-115.5 879,-94.5 1145,-94.5 1145,-115.5"/>
<text text-anchor="middle" x="1012" y="-102.5" font-family="Vera" font-size="10.00">topo.plotting.plotgroup.UnitMeasurementCommand</text>
</g>
<!-- topo.plotting.plotgroup.ProjectionSheetMeasurementCommand&#45;&gt;topo.plotting.plotgroup.UnitMeasurementCommand -->
<g id="edge26" class="edge"><title>topo.plotting.plotgroup.ProjectionSheetMeasurementCommand&#45;&gt;topo.plotting.plotgroup.UnitMeasurementCommand</title>
<path fill="none" stroke="black" stroke-width="0.5" d="M756.949,-151.952C778.402,-149.351 801.013,-146.332 822,-143 869.694,-135.429 923.644,-124.4 961.836,-116.172"/>
<polygon fill="black" stroke="black" points="962.366,-117.848 966.883,-115.081 961.626,-114.427 962.366,-117.848"/>
</g>
<!-- topo.command.analysis.measure_rfs -->
<g id="node21" class="node"><title>topo.command.analysis.measure_rfs</title>
<polygon fill="none" stroke="black" stroke-width="0.5" points="1826,-267.5 1632,-267.5 1632,-246.5 1826,-246.5 1826,-267.5"/>
<text text-anchor="middle" x="1729" y="-254.5" font-family="Vera" font-size="10.00">topo.command.analysis.measure_rfs</text>
</g>
<!-- topo.analysis.featureresponses.SingleInputResponseCommand&#45;&gt;topo.command.analysis.measure_rfs -->
<g id="edge20" class="edge"><title>topo.analysis.featureresponses.SingleInputResponseCommand&#45;&gt;topo.command.analysis.measure_rfs</title>
<path fill="none" stroke="black" stroke-width="0.5" d="M1474.7,-284.969C1501.62,-282.096 1530.97,-278.945 1558,-276 1582.67,-273.312 1609.34,-270.368 1634.12,-267.616"/>
<polygon fill="black" stroke="black" points="1634.6,-269.324 1639.37,-267.032 1634.21,-265.845 1634.6,-269.324"/>
</g>
<!-- topo.command.analysis.update_projection -->
<g id="node41" class="node"><title>topo.command.analysis.update_projection</title>
<polygon fill="none" stroke="black" stroke-width="0.5" points="1490,-115.5 1270,-115.5 1270,-94.5 1490,-94.5 1490,-115.5"/>
<text text-anchor="middle" x="1380" y="-102.5" font-family="Vera" font-size="10.00">topo.command.analysis.update_projection</text>
</g>
<!-- topo.plotting.plotgroup.UnitMeasurementCommand&#45;&gt;topo.command.analysis.update_projection -->
<g id="edge40" class="edge"><title>topo.plotting.plotgroup.UnitMeasurementCommand&#45;&gt;topo.command.analysis.update_projection</title>
<path fill="none" stroke="black" stroke-width="0.5" d="M1145.12,-105C1184.11,-105 1226.42,-105 1264.24,-105"/>
<polygon fill="black" stroke="black" points="1264.3,-106.75 1269.3,-105 1264.3,-103.25 1264.3,-106.75"/>
</g>
<!-- topo.command.analysis.update_connectionfields -->
<g id="node45" class="node"><title>topo.command.analysis.update_connectionfields</title>
<polygon fill="none" stroke="black" stroke-width="0.5" points="1505,-77.5 1255,-77.5 1255,-56.5 1505,-56.5 1505,-77.5"/>
<text text-anchor="middle" x="1380" y="-64.5" font-family="Vera" font-size="10.00">topo.command.analysis.update_connectionfields</text>
</g>
<!-- topo.plotting.plotgroup.UnitMeasurementCommand&#45;&gt;topo.command.analysis.update_connectionfields -->
<g id="edge44" class="edge"><title>topo.plotting.plotgroup.UnitMeasurementCommand&#45;&gt;topo.command.analysis.update_connectionfields</title>
<path fill="none" stroke="black" stroke-width="0.5" d="M1109.17,-94.9662C1161.15,-89.5982 1225.14,-82.9912 1277.86,-77.5472"/>
<polygon fill="black" stroke="black" points="1278.13,-79.2785 1282.93,-77.024 1277.77,-75.797 1278.13,-79.2785"/>
</g>
<!-- topo.command.analysis.measure_corner_or_pref -->
<g id="node47" class="node"><title>topo.command.analysis.measure_corner_or_pref</title>
<polygon fill="none" stroke="black" stroke-width="0.5" points="1855,-172.5 1603,-172.5 1603,-151.5 1855,-151.5 1855,-172.5"/>
<text text-anchor="middle" x="1729" y="-159.5" font-family="Vera" font-size="10.00">topo.command.analysis.measure_corner_or_pref</text>
</g>
<!-- topo.analysis.featureresponses.PositionMeasurementCommand&#45;&gt;topo.command.analysis.measure_corner_or_pref -->
<g id="edge46" class="edge"><title>topo.analysis.featureresponses.PositionMeasurementCommand&#45;&gt;topo.command.analysis.measure_corner_or_pref</title>
<path fill="none" stroke="black" stroke-width="0.5" d="M1542.24,-151.833C1560.87,-152.847 1579.69,-153.871 1597.84,-154.859"/>
<polygon fill="black" stroke="black" points="1597.85,-156.613 1602.94,-155.137 1598.04,-153.118 1597.85,-156.613"/>
</g>
<!-- topo.command.analysis.measure_corner_angle_pref -->
<g id="node60" class="node"><title>topo.command.analysis.measure_corner_angle_pref</title>
<polygon fill="none" stroke="black" stroke-width="0.5" points="1863,-134.5 1595,-134.5 1595,-113.5 1863,-113.5 1863,-134.5"/>
<text text-anchor="middle" x="1729" y="-121.5" font-family="Vera" font-size="10.00">topo.command.analysis.measure_corner_angle_pref</text>
</g>
<!-- topo.analysis.featureresponses.PositionMeasurementCommand&#45;&gt;topo.command.analysis.measure_corner_angle_pref -->
<g id="edge60" class="edge"><title>topo.analysis.featureresponses.PositionMeasurementCommand&#45;&gt;topo.command.analysis.measure_corner_angle_pref</title>
<path fill="none" stroke="black" stroke-width="0.5" d="M1542.24,-134.167C1557.91,-133.314 1573.72,-132.454 1589.15,-131.614"/>
<polygon fill="black" stroke="black" points="1589.47,-133.349 1594.36,-131.33 1589.28,-129.854 1589.47,-133.349"/>
</g>
</g>
</svg>
