<?xml version="1.0" encoding="UTF-8" standalone="no"?>
<!DOCTYPE svg PUBLIC "-//W3C//DTD SVG 1.1//EN"
 "http://www.w3.org/Graphics/SVG/1.1/DTD/svg11.dtd">
<!-- Generated by graphviz version 2.26.3 (20100126.1600)
 -->
<!-- Title: inheritance3af1fc917b Pages: 1 -->
<svg width="662pt" height="294pt"
 viewBox="0.00 0.00 662.00 294.00" xmlns="http://www.w3.org/2000/svg" xmlns:xlink="http://www.w3.org/1999/xlink">
<g id="graph1" class="graph" transform="scale(1 1) rotate(0) translate(4 290)">
<title>inheritance3af1fc917b</title>
<polygon fill="white" stroke="white" points="-4,5 -4,-290 659,-290 659,5 -4,5"/>
<!-- lancet.filetypes.FileType -->
<g id="node1" class="node"><title>lancet.filetypes.FileType</title>
<polygon fill="none" stroke="black" stroke-width="0.5" points="411,-153.5 283,-153.5 283,-132.5 411,-132.5 411,-153.5"/>
<text text-anchor="middle" x="347" y="-140.5" font-family="Vera" font-size="10.00">lancet.filetypes.FileType</text>
</g>
<!-- lancet.filetypes.FileOption -->
<g id="node6" class="node"><title>lancet.filetypes.FileOption</title>
<polygon fill="none" stroke="black" stroke-width="0.5" points="646,-286.5 508,-286.5 508,-265.5 646,-265.5 646,-286.5"/>
<text text-anchor="middle" x="577" y="-273.5" font-family="Vera" font-size="10.00">lancet.filetypes.FileOption</text>
</g>
<!-- lancet.filetypes.FileType&#45;&gt;lancet.filetypes.FileOption -->
<g id="edge6" class="edge"><title>lancet.filetypes.FileType&#45;&gt;lancet.filetypes.FileOption</title>
<path fill="none" stroke="black" stroke-width="0.5" d="M357.512,-153.252C381.003,-175.58 440.392,-228.855 500,-257 506.052,-259.858 512.582,-262.315 519.191,-264.421"/>
<polygon fill="black" stroke="black" points="518.959,-266.18 524.252,-265.964 519.98,-262.833 518.959,-266.18"/>
</g>
<!-- lancet.filetypes.JSONFile -->
<g id="node8" class="node"><title>lancet.filetypes.JSONFile</title>
<polygon fill="none" stroke="black" stroke-width="0.5" points="642,-248.5 512,-248.5 512,-227.5 642,-227.5 642,-248.5"/>
<text text-anchor="middle" x="577" y="-235.5" font-family="Vera" font-size="10.00">lancet.filetypes.JSONFile</text>
</g>
<!-- lancet.filetypes.FileType&#45;&gt;lancet.filetypes.JSONFile -->
<g id="edge8" class="edge"><title>lancet.filetypes.FileType&#45;&gt;lancet.filetypes.JSONFile</title>
<path fill="none" stroke="black" stroke-width="0.5" d="M364.341,-153.195C392.139,-169.17 448.764,-200.212 500,-219 507.708,-221.826 516.002,-224.367 524.192,-226.602"/>
<polygon fill="black" stroke="black" points="523.989,-228.358 529.271,-227.953 524.89,-224.976 523.989,-228.358"/>
</g>
<!-- lancet.filetypes.ImageFile -->
<g id="node10" class="node"><title>lancet.filetypes.ImageFile</title>
<polygon fill="none" stroke="black" stroke-width="0.5" points="645,-210.5 509,-210.5 509,-189.5 645,-189.5 645,-210.5"/>
<text text-anchor="middle" x="577" y="-197.5" font-family="Vera" font-size="10.00">lancet.filetypes.ImageFile</text>
</g>
<!-- lancet.filetypes.FileType&#45;&gt;lancet.filetypes.ImageFile -->
<g id="edge10" class="edge"><title>lancet.filetypes.FileType&#45;&gt;lancet.filetypes.ImageFile</title>
<path fill="none" stroke="black" stroke-width="0.5" d="M387.263,-153.018C418.115,-160.689 461.743,-171.529 500,-181 510.108,-183.502 520.963,-186.184 531.242,-188.721"/>
<polygon fill="black" stroke="black" points="530.963,-190.455 536.237,-189.954 531.802,-187.057 530.963,-190.455"/>
</g>
<!-- lancet.filetypes.NumpyFile -->
<g id="node15" class="node"><title>lancet.filetypes.NumpyFile</title>
<polygon fill="none" stroke="black" stroke-width="0.5" points="647,-172.5 507,-172.5 507,-151.5 647,-151.5 647,-172.5"/>
<text text-anchor="middle" x="577" y="-159.5" font-family="Vera" font-size="10.00">lancet.filetypes.NumpyFile</text>
</g>
<!-- lancet.filetypes.FileType&#45;&gt;lancet.filetypes.NumpyFile -->
<g id="edge14" class="edge"><title>lancet.filetypes.FileType&#45;&gt;lancet.filetypes.NumpyFile</title>
<path fill="none" stroke="black" stroke-width="0.5" d="M411.068,-148.293C439.088,-150.607 472.164,-153.34 501.382,-155.753"/>
<polygon fill="black" stroke="black" points="501.285,-157.501 506.412,-156.169 501.573,-154.013 501.285,-157.501"/>
</g>
<!-- lancet.filetypes.CustomFile -->
<g id="node17" class="node"><title>lancet.filetypes.CustomFile</title>
<polygon fill="none" stroke="black" stroke-width="0.5" points="649,-134.5 505,-134.5 505,-113.5 649,-113.5 649,-134.5"/>
<text text-anchor="middle" x="577" y="-121.5" font-family="Vera" font-size="10.00">lancet.filetypes.CustomFile</text>
</g>
<!-- lancet.filetypes.FileType&#45;&gt;lancet.filetypes.CustomFile -->
<g id="edge16" class="edge"><title>lancet.filetypes.FileType&#45;&gt;lancet.filetypes.CustomFile</title>
<path fill="none" stroke="black" stroke-width="0.5" d="M411.068,-137.707C438.472,-135.444 470.711,-132.78 499.448,-130.406"/>
<polygon fill="black" stroke="black" points="499.932,-132.122 504.771,-129.967 499.644,-128.634 499.932,-132.122"/>
</g>
<!-- lancet.filetypes.SVGFile -->
<g id="node19" class="node"><title>lancet.filetypes.SVGFile</title>
<polygon fill="none" stroke="black" stroke-width="0.5" points="641,-96.5 513,-96.5 513,-75.5 641,-75.5 641,-96.5"/>
<text text-anchor="middle" x="577" y="-83.5" font-family="Vera" font-size="10.00">lancet.filetypes.SVGFile</text>
</g>
<!-- lancet.filetypes.FileType&#45;&gt;lancet.filetypes.SVGFile -->
<g id="edge18" class="edge"><title>lancet.filetypes.FileType&#45;&gt;lancet.filetypes.SVGFile</title>
<path fill="none" stroke="black" stroke-width="0.5" d="M387.263,-132.982C418.115,-125.311 461.743,-114.471 500,-105 510.108,-102.498 520.963,-99.8158 531.242,-97.2787"/>
<polygon fill="black" stroke="black" points="531.802,-98.9433 536.237,-96.0463 530.963,-95.5452 531.802,-98.9433"/>
</g>
<!-- lancet.filetypes.MatplotlibFile -->
<g id="node22" class="node"><title>lancet.filetypes.MatplotlibFile</title>
<polygon fill="none" stroke="black" stroke-width="0.5" points="653,-58.5 501,-58.5 501,-37.5 653,-37.5 653,-58.5"/>
<text text-anchor="middle" x="577" y="-45.5" font-family="Vera" font-size="10.00">lancet.filetypes.MatplotlibFile</text>
</g>
<!-- lancet.filetypes.FileType&#45;&gt;lancet.filetypes.MatplotlibFile -->
<g id="edge22" class="edge"><title>lancet.filetypes.FileType&#45;&gt;lancet.filetypes.MatplotlibFile</title>
<path fill="none" stroke="black" stroke-width="0.5" d="M364.341,-132.805C392.139,-116.83 448.764,-85.7885 500,-67 507.708,-64.1735 516.002,-61.633 524.192,-59.3985"/>
<polygon fill="black" stroke="black" points="524.89,-61.0238 529.271,-58.0469 523.989,-57.6415 524.89,-61.0238"/>
</g>
<!-- lancet.core.PrettyPrinted -->
<g id="node2" class="node"><title>lancet.core.PrettyPrinted</title>
<polygon fill="none" stroke="black" stroke-width="0.5" points="164,-153.5 30,-153.5 30,-132.5 164,-132.5 164,-153.5"/>
<text text-anchor="middle" x="97" y="-140.5" font-family="Vera" font-size="10.00">lancet.core.PrettyPrinted</text>
</g>
<!-- lancet.core.PrettyPrinted&#45;&gt;lancet.filetypes.FileType -->
<g id="edge2" class="edge"><title>lancet.core.PrettyPrinted&#45;&gt;lancet.filetypes.FileType</title>
<path fill="none" stroke="black" stroke-width="0.5" d="M164.654,-143C199.662,-143 242.332,-143 277.591,-143"/>
<polygon fill="black" stroke="black" points="277.738,-144.75 282.738,-143 277.738,-141.25 277.738,-144.75"/>
</g>
<!-- param.parameterized.Parameterized -->
<g id="node4" class="node"><title>param.parameterized.Parameterized</title>
<polygon fill="none" stroke="black" stroke-width="0.5" points="194,-68.5 5.68434e-14,-68.5 0,-47.5 194,-47.5 194,-68.5"/>
<text text-anchor="middle" x="97" y="-55.5" font-family="Vera" font-size="10.00">param.parameterized.Parameterized</text>
</g>
<!-- param.parameterized.Parameterized&#45;&gt;lancet.filetypes.FileType -->
<g id="edge4" class="edge"><title>param.parameterized.Parameterized&#45;&gt;lancet.filetypes.FileType</title>
<path fill="none" stroke="black" stroke-width="0.5" d="M126.66,-68.0844C173.177,-83.9002 263.064,-114.462 312.438,-131.249"/>
<polygon fill="black" stroke="black" points="312.081,-132.976 317.379,-132.929 313.208,-129.662 312.081,-132.976"/>
</g>
<!-- param.parameterized.ParameterizedFunction -->
<g id="node13" class="node"><title>param.parameterized.ParameterizedFunction</title>
<polygon fill="none" stroke="black" stroke-width="0.5" points="464,-44.5 230,-44.5 230,-23.5 464,-23.5 464,-44.5"/>
<text text-anchor="middle" x="347" y="-31.5" font-family="Vera" font-size="10.00">param.parameterized.ParameterizedFunction</text>
</g>
<!-- param.parameterized.Parameterized&#45;&gt;param.parameterized.ParameterizedFunction -->
<g id="edge20" class="edge"><title>param.parameterized.Parameterized&#45;&gt;param.parameterized.ParameterizedFunction</title>
<path fill="none" stroke="black" stroke-width="0.5" d="M194.014,-48.6866C208.194,-47.3254 222.881,-45.9155 237.292,-44.532"/>
<polygon fill="black" stroke="black" points="237.777,-46.2435 242.587,-44.0236 237.443,-42.7595 237.777,-46.2435"/>
</g>
<!-- lancet.filetypes.ViewFrame -->
<g id="node12" class="node"><title>lancet.filetypes.ViewFrame</title>
<polygon fill="none" stroke="black" stroke-width="0.5" points="648,-20.5 506,-20.5 506,0.5 648,0.5 648,-20.5"/>
<text text-anchor="middle" x="577" y="-7.5" font-family="Vera" font-size="10.00">lancet.filetypes.ViewFrame</text>
</g>
<!-- param.parameterized.ParameterizedFunction&#45;&gt;lancet.filetypes.ViewFrame -->
<g id="edge12" class="edge"><title>param.parameterized.ParameterizedFunction&#45;&gt;lancet.filetypes.ViewFrame</title>
<path fill="none" stroke="black" stroke-width="0.5" d="M442.875,-23.9956C462.029,-21.997 481.911,-19.9224 500.314,-18.002"/>
<polygon fill="black" stroke="black" points="500.673,-19.7242 505.464,-17.4646 500.309,-16.2431 500.673,-19.7242"/>
</g>
</g>
</svg>
