<?xml version="1.0" encoding="UTF-8" standalone="no"?>
<!DOCTYPE svg PUBLIC "-//W3C//DTD SVG 1.1//EN"
 "http://www.w3.org/Graphics/SVG/1.1/DTD/svg11.dtd">
<!-- Generated by graphviz version 2.26.3 (20100126.1600)
 -->
<!-- Title: inheritance1a184a655e Pages: 1 -->
<svg width="1070pt" height="218pt"
 viewBox="0.00 0.00 1070.00 218.00" xmlns="http://www.w3.org/2000/svg" xmlns:xlink="http://www.w3.org/1999/xlink">
<g id="graph1" class="graph" transform="scale(1 1) rotate(0) translate(4 214)">
<title>inheritance1a184a655e</title>
<polygon fill="white" stroke="white" points="-4,5 -4,-214 1067,-214 1067,5 -4,5"/>
<!-- topo.tests.unit.testparameterizedobject.TestParameterized -->
<g id="node1" class="node"><title>topo.tests.unit.testparameterizedobject.TestParameterized</title>
<polygon fill="none" stroke="black" stroke-width="0.5" points="685,-58.5 387,-58.5 387,-37.5 685,-37.5 685,-58.5"/>
<text text-anchor="middle" x="536" y="-45.5" font-family="Vera" font-size="10.00">topo.tests.unit.testparameterizedobject.TestParameterized</text>
</g>
<!-- unittest.case.TestCase -->
<g id="node2" class="node"><title>unittest.case.TestCase</title>
<polygon fill="none" stroke="black" stroke-width="0.5" points="227,-39.5 103,-39.5 103,-18.5 227,-18.5 227,-39.5"/>
<text text-anchor="middle" x="165" y="-26.5" font-family="Vera" font-size="10.00">unittest.case.TestCase</text>
</g>
<!-- unittest.case.TestCase&#45;&gt;topo.tests.unit.testparameterizedobject.TestParameterized -->
<g id="edge2" class="edge"><title>unittest.case.TestCase&#45;&gt;topo.tests.unit.testparameterizedobject.TestParameterized</title>
<path fill="none" stroke="black" stroke-width="0.5" d="M227.516,-32.2016C269.627,-34.3583 327.129,-37.3031 381.082,-40.0662"/>
<polygon fill="black" stroke="black" points="381.208,-41.8249 386.291,-40.333 381.387,-38.3294 381.208,-41.8249"/>
</g>
<!-- topo.tests.unit.testparameterizedobject.TestParameterizedFunction -->
<g id="node18" class="node"><title>topo.tests.unit.testparameterizedobject.TestParameterizedFunction</title>
<polygon fill="none" stroke="black" stroke-width="0.5" points="705,-20.5 367,-20.5 367,0.5 705,0.5 705,-20.5"/>
<text text-anchor="middle" x="536" y="-7.5" font-family="Vera" font-size="10.00">topo.tests.unit.testparameterizedobject.TestParameterizedFunction</text>
</g>
<!-- unittest.case.TestCase&#45;&gt;topo.tests.unit.testparameterizedobject.TestParameterizedFunction -->
<g id="edge16" class="edge"><title>unittest.case.TestCase&#45;&gt;topo.tests.unit.testparameterizedobject.TestParameterizedFunction</title>
<path fill="none" stroke="black" stroke-width="0.5" d="M227.516,-25.7984C264.476,-23.9055 313.292,-21.4055 361.159,-18.9541"/>
<polygon fill="black" stroke="black" points="361.483,-20.6899 366.387,-18.6864 361.304,-17.1945 361.483,-20.6899"/>
</g>
<!-- topo.tests.unit.testparameterizedobject._SomeRandomNumbers -->
<g id="node4" class="node"><title>topo.tests.unit.testparameterizedobject._SomeRandomNumbers</title>
<polygon fill="none" stroke="black" stroke-width="0.5" points="329,-115.5 1,-115.5 1,-94.5 329,-94.5 329,-115.5"/>
<text text-anchor="middle" x="165" y="-102.5" font-family="Vera" font-size="10.00">topo.tests.unit.testparameterizedobject._SomeRandomNumbers</text>
</g>
<!-- param.parameterized.Parameterized -->
<g id="node5" class="node"><title>param.parameterized.Parameterized</title>
<polygon fill="none" stroke="black" stroke-width="0.5" points="262,-153.5 68,-153.5 68,-132.5 262,-132.5 262,-153.5"/>
<text text-anchor="middle" x="165" y="-140.5" font-family="Vera" font-size="10.00">param.parameterized.Parameterized</text>
</g>
<!-- topo.tests.unit.testparameterizedobject.TestPO -->
<g id="node6" class="node"><title>topo.tests.unit.testparameterizedobject.TestPO</title>
<polygon fill="none" stroke="black" stroke-width="0.5" points="657,-210.5 415,-210.5 415,-189.5 657,-189.5 657,-210.5"/>
<text text-anchor="middle" x="536" y="-197.5" font-family="Vera" font-size="10.00">topo.tests.unit.testparameterizedobject.TestPO</text>
</g>
<!-- param.parameterized.Parameterized&#45;&gt;topo.tests.unit.testparameterizedobject.TestPO -->
<g id="edge4" class="edge"><title>param.parameterized.Parameterized&#45;&gt;topo.tests.unit.testparameterizedobject.TestPO</title>
<path fill="none" stroke="black" stroke-width="0.5" d="M212.749,-153.08C253.366,-161.402 313.32,-173.088 366,-181 386.527,-184.083 408.518,-186.899 429.644,-189.364"/>
<polygon fill="black" stroke="black" points="429.538,-191.113 434.707,-189.95 429.941,-187.636 429.538,-191.113"/>
</g>
<!-- param.parameterized.ParameterizedFunction -->
<g id="node9" class="node"><title>param.parameterized.ParameterizedFunction</title>
<polygon fill="none" stroke="black" stroke-width="0.5" points="653,-172.5 419,-172.5 419,-151.5 653,-151.5 653,-172.5"/>
<text text-anchor="middle" x="536" y="-159.5" font-family="Vera" font-size="10.00">param.parameterized.ParameterizedFunction</text>
</g>
<!-- param.parameterized.Parameterized&#45;&gt;param.parameterized.ParameterizedFunction -->
<g id="edge10" class="edge"><title>param.parameterized.Parameterized&#45;&gt;param.parameterized.ParameterizedFunction</title>
<path fill="none" stroke="black" stroke-width="0.5" d="M262.476,-147.992C308.762,-150.362 364.567,-153.22 413.666,-155.735"/>
<polygon fill="black" stroke="black" points="413.618,-157.485 418.701,-155.993 413.797,-153.989 413.618,-157.485"/>
</g>
<!-- topo.tests.unit.testparameterizedobject.TestAbstractPO -->
<g id="node11" class="node"><title>topo.tests.unit.testparameterizedobject.TestAbstractPO</title>
<polygon fill="none" stroke="black" stroke-width="0.5" points="678,-134.5 394,-134.5 394,-113.5 678,-113.5 678,-134.5"/>
<text text-anchor="middle" x="536" y="-121.5" font-family="Vera" font-size="10.00">topo.tests.unit.testparameterizedobject.TestAbstractPO</text>
</g>
<!-- param.parameterized.Parameterized&#45;&gt;topo.tests.unit.testparameterizedobject.TestAbstractPO -->
<g id="edge8" class="edge"><title>param.parameterized.Parameterized&#45;&gt;topo.tests.unit.testparameterizedobject.TestAbstractPO</title>
<path fill="none" stroke="black" stroke-width="0.5" d="M262.476,-138.008C301.055,-136.032 346.246,-133.718 388.656,-131.546"/>
<polygon fill="black" stroke="black" points="388.909,-133.285 393.813,-131.282 388.73,-129.79 388.909,-133.285"/>
</g>
<!-- topo.tests.unit.testparameterizedobject.AnotherTestPO -->
<g id="node14" class="node"><title>topo.tests.unit.testparameterizedobject.AnotherTestPO</title>
<polygon fill="none" stroke="black" stroke-width="0.5" points="676,-96.5 396,-96.5 396,-75.5 676,-75.5 676,-96.5"/>
<text text-anchor="middle" x="536" y="-83.5" font-family="Vera" font-size="10.00">topo.tests.unit.testparameterizedobject.AnotherTestPO</text>
</g>
<!-- param.parameterized.Parameterized&#45;&gt;topo.tests.unit.testparameterizedobject.AnotherTestPO -->
<g id="edge12" class="edge"><title>param.parameterized.Parameterized&#45;&gt;topo.tests.unit.testparameterizedobject.AnotherTestPO</title>
<path fill="none" stroke="black" stroke-width="0.5" d="M262.218,-137.861C284.803,-135.011 308.514,-130.65 330,-124 347.283,-118.651 348.708,-110.32 366,-105 376.215,-101.857 386.918,-99.2227 397.769,-97.0154"/>
<polygon fill="black" stroke="black" points="398.197,-98.7149 402.764,-96.0311 397.52,-95.2809 398.197,-98.7149"/>
</g>
<!-- topo.tests.unit.testparameterizedobject.some_fn -->
<g id="node8" class="node"><title>topo.tests.unit.testparameterizedobject.some_fn</title>
<polygon fill="none" stroke="black" stroke-width="0.5" points="1028,-172.5 776,-172.5 776,-151.5 1028,-151.5 1028,-172.5"/>
<text text-anchor="middle" x="902" y="-159.5" font-family="Vera" font-size="10.00">topo.tests.unit.testparameterizedobject.some_fn</text>
</g>
<!-- param.parameterized.ParameterizedFunction&#45;&gt;topo.tests.unit.testparameterizedobject.some_fn -->
<g id="edge6" class="edge"><title>param.parameterized.ParameterizedFunction&#45;&gt;topo.tests.unit.testparameterizedobject.some_fn</title>
<path fill="none" stroke="black" stroke-width="0.5" d="M653.063,-162C690.493,-162 732.171,-162 770.554,-162"/>
<polygon fill="black" stroke="black" points="770.704,-163.75 775.704,-162 770.704,-160.25 770.704,-163.75"/>
</g>
<!-- topo.tests.unit.testparameterizedobject.TestParamInstantiation -->
<g id="node16" class="node"><title>topo.tests.unit.testparameterizedobject.TestParamInstantiation</title>
<polygon fill="none" stroke="black" stroke-width="0.5" points="1062,-96.5 742,-96.5 742,-75.5 1062,-75.5 1062,-96.5"/>
<text text-anchor="middle" x="902" y="-83.5" font-family="Vera" font-size="10.00">topo.tests.unit.testparameterizedobject.TestParamInstantiation</text>
</g>
<!-- topo.tests.unit.testparameterizedobject.AnotherTestPO&#45;&gt;topo.tests.unit.testparameterizedobject.TestParamInstantiation -->
<g id="edge14" class="edge"><title>topo.tests.unit.testparameterizedobject.AnotherTestPO&#45;&gt;topo.tests.unit.testparameterizedobject.TestParamInstantiation</title>
<path fill="none" stroke="black" stroke-width="0.5" d="M676.72,-86C696.409,-86 716.788,-86 736.877,-86"/>
<polygon fill="black" stroke="black" points="736.978,-87.7501 741.978,-86 736.978,-84.2501 736.978,-87.7501"/>
</g>
</g>
</svg>
