<?xml version="1.0" encoding="UTF-8" standalone="no"?>
<!DOCTYPE svg PUBLIC "-//W3C//DTD SVG 1.1//EN"
 "http://www.w3.org/Graphics/SVG/1.1/DTD/svg11.dtd">
<!-- Generated by graphviz version 2.26.3 (20100126.1600)
 -->
<!-- Title: inheritancebede3c61fc Pages: 1 -->
<svg width="2498pt" height="522pt"
 viewBox="0.00 0.00 2498.00 522.00" xmlns="http://www.w3.org/2000/svg" xmlns:xlink="http://www.w3.org/1999/xlink">
<g id="graph1" class="graph" transform="scale(1 1) rotate(0) translate(4 518)">
<title>inheritancebede3c61fc</title>
<polygon fill="white" stroke="white" points="-4,5 -4,-518 2495,-518 2495,5 -4,5"/>
<!-- topo.analysis.featureresponses.UnitCurveCommand -->
<g id="node1" class="node"><title>topo.analysis.featureresponses.UnitCurveCommand</title>
<polygon fill="none" stroke="black" stroke-width="0.5" points="2167,-115.5 1901,-115.5 1901,-94.5 2167,-94.5 2167,-115.5"/>
<text text-anchor="middle" x="2034" y="-102.5" font-family="Vera" font-size="10.00">topo.analysis.featureresponses.UnitCurveCommand</text>
</g>
<!-- topo.command.pylabplot.measure_contrast_response -->
<g id="node12" class="node"><title>topo.command.pylabplot.measure_contrast_response</title>
<polygon fill="none" stroke="black" stroke-width="0.5" points="2486,-210.5 2210,-210.5 2210,-189.5 2486,-189.5 2486,-210.5"/>
<text text-anchor="middle" x="2348" y="-197.5" font-family="Vera" font-size="10.00">topo.command.pylabplot.measure_contrast_response</text>
</g>
<!-- topo.analysis.featureresponses.UnitCurveCommand&#45;&gt;topo.command.pylabplot.measure_contrast_response -->
<g id="edge10" class="edge"><title>topo.analysis.featureresponses.UnitCurveCommand&#45;&gt;topo.command.pylabplot.measure_contrast_response</title>
<path fill="none" stroke="black" stroke-width="0.5" d="M2052.44,-115.247C2083.24,-131.878 2147.55,-164.538 2206,-181 2217.31,-184.186 2229.29,-186.843 2241.29,-189.058"/>
<polygon fill="black" stroke="black" points="2241.21,-190.821 2246.44,-189.981 2241.82,-187.376 2241.21,-190.821"/>
</g>
<!-- topo.command.pylabplot.measure_frequency_response -->
<g id="node24" class="node"><title>topo.command.pylabplot.measure_frequency_response</title>
<polygon fill="none" stroke="black" stroke-width="0.5" points="2490,-172.5 2206,-172.5 2206,-151.5 2490,-151.5 2490,-172.5"/>
<text text-anchor="middle" x="2348" y="-159.5" font-family="Vera" font-size="10.00">topo.command.pylabplot.measure_frequency_response</text>
</g>
<!-- topo.analysis.featureresponses.UnitCurveCommand&#45;&gt;topo.command.pylabplot.measure_frequency_response -->
<g id="edge22" class="edge"><title>topo.analysis.featureresponses.UnitCurveCommand&#45;&gt;topo.command.pylabplot.measure_frequency_response</title>
<path fill="none" stroke="black" stroke-width="0.5" d="M2074.81,-115.037C2109.54,-123.331 2160.83,-135.003 2206,-143 2223.13,-146.032 2241.49,-148.825 2259.14,-151.284"/>
<polygon fill="black" stroke="black" points="2258.9,-153.018 2264.1,-151.968 2259.38,-149.551 2258.9,-153.018"/>
</g>
<!-- topo.command.pylabplot.measure_orientation_contrast -->
<g id="node26" class="node"><title>topo.command.pylabplot.measure_orientation_contrast</title>
<polygon fill="none" stroke="black" stroke-width="0.5" points="2490,-134.5 2206,-134.5 2206,-113.5 2490,-113.5 2490,-134.5"/>
<text text-anchor="middle" x="2348" y="-121.5" font-family="Vera" font-size="10.00">topo.command.pylabplot.measure_orientation_contrast</text>
</g>
<!-- topo.analysis.featureresponses.UnitCurveCommand&#45;&gt;topo.command.pylabplot.measure_orientation_contrast -->
<g id="edge24" class="edge"><title>topo.analysis.featureresponses.UnitCurveCommand&#45;&gt;topo.command.pylabplot.measure_orientation_contrast</title>
<path fill="none" stroke="black" stroke-width="0.5" d="M2167.62,-113.085C2178.62,-113.751 2189.78,-114.426 2200.87,-115.097"/>
<polygon fill="black" stroke="black" points="2200.86,-116.85 2205.96,-115.405 2201.08,-113.356 2200.86,-116.85"/>
</g>
<!-- topo.command.pylabplot.measure_size_response -->
<g id="node35" class="node"><title>topo.command.pylabplot.measure_size_response</title>
<polygon fill="none" stroke="black" stroke-width="0.5" points="2476,-96.5 2220,-96.5 2220,-75.5 2476,-75.5 2476,-96.5"/>
<text text-anchor="middle" x="2348" y="-83.5" font-family="Vera" font-size="10.00">topo.command.pylabplot.measure_size_response</text>
</g>
<!-- topo.analysis.featureresponses.UnitCurveCommand&#45;&gt;topo.command.pylabplot.measure_size_response -->
<g id="edge32" class="edge"><title>topo.analysis.featureresponses.UnitCurveCommand&#45;&gt;topo.command.pylabplot.measure_size_response</title>
<path fill="none" stroke="black" stroke-width="0.5" d="M2167.62,-96.9147C2183.22,-95.971 2199.13,-95.0082 2214.72,-94.0647"/>
<polygon fill="black" stroke="black" points="2215.11,-95.7945 2219.99,-93.7456 2214.9,-92.3009 2215.11,-95.7945"/>
</g>
<!-- topo.command.pylabplot.test_measure -->
<g id="node51" class="node"><title>topo.command.pylabplot.test_measure</title>
<polygon fill="none" stroke="black" stroke-width="0.5" points="2451,-58.5 2245,-58.5 2245,-37.5 2451,-37.5 2451,-58.5"/>
<text text-anchor="middle" x="2348" y="-45.5" font-family="Vera" font-size="10.00">topo.command.pylabplot.test_measure</text>
</g>
<!-- topo.analysis.featureresponses.UnitCurveCommand&#45;&gt;topo.command.pylabplot.test_measure -->
<g id="edge48" class="edge"><title>topo.analysis.featureresponses.UnitCurveCommand&#45;&gt;topo.command.pylabplot.test_measure</title>
<path fill="none" stroke="black" stroke-width="0.5" d="M2134.79,-94.9322C2146.8,-92.5583 2158.77,-89.6249 2170,-86 2187.22,-80.4428 2188.77,-72.5073 2206,-67 2216.78,-63.555 2228.21,-60.7344 2239.73,-58.4251"/>
<polygon fill="black" stroke="black" points="2240.09,-60.1373 2244.67,-57.4663 2239.42,-56.7015 2240.09,-60.1373"/>
</g>
<!-- topo.command.pylabplot.measure_or_tuning -->
<g id="node59" class="node"><title>topo.command.pylabplot.measure_or_tuning</title>
<polygon fill="none" stroke="black" stroke-width="0.5" points="2464,-20.5 2232,-20.5 2232,0.5 2464,0.5 2464,-20.5"/>
<text text-anchor="middle" x="2348" y="-7.5" font-family="Vera" font-size="10.00">topo.command.pylabplot.measure_or_tuning</text>
</g>
<!-- topo.analysis.featureresponses.UnitCurveCommand&#45;&gt;topo.command.pylabplot.measure_or_tuning -->
<g id="edge56" class="edge"><title>topo.analysis.featureresponses.UnitCurveCommand&#45;&gt;topo.command.pylabplot.measure_or_tuning</title>
<path fill="none" stroke="black" stroke-width="0.5" d="M2152.8,-94.9688C2158.81,-92.4562 2164.59,-89.4906 2170,-86 2195.17,-69.7518 2180.78,-45.1752 2206,-29 2212.38,-24.9089 2219.25,-21.5225 2226.41,-18.731"/>
<polygon fill="black" stroke="black" points="2227.32,-20.261 2231.41,-16.8921 2226.11,-16.9762 2227.32,-20.261"/>
</g>
<!-- topo.analysis.featureresponses.FeatureCurveCommand -->
<g id="node2" class="node"><title>topo.analysis.featureresponses.FeatureCurveCommand</title>
<polygon fill="none" stroke="black" stroke-width="0.5" points="1862,-96.5 1578,-96.5 1578,-75.5 1862,-75.5 1862,-96.5"/>
<text text-anchor="middle" x="1720" y="-83.5" font-family="Vera" font-size="10.00">topo.analysis.featureresponses.FeatureCurveCommand</text>
</g>
<!-- topo.analysis.featureresponses.FeatureCurveCommand&#45;&gt;topo.analysis.featureresponses.UnitCurveCommand -->
<g id="edge2" class="edge"><title>topo.analysis.featureresponses.FeatureCurveCommand&#45;&gt;topo.analysis.featureresponses.UnitCurveCommand</title>
<path fill="none" stroke="black" stroke-width="0.5" d="M1862.3,-94.6105C1873.28,-95.2747 1884.35,-95.9447 1895.3,-96.6074"/>
<polygon fill="black" stroke="black" points="1895.23,-98.356 1900.32,-96.9113 1895.44,-94.8624 1895.23,-98.356"/>
</g>
<!-- topo.command.pylabplot.measure_or_tuning_fullfield -->
<g id="node4" class="node"><title>topo.command.pylabplot.measure_or_tuning_fullfield</title>
<polygon fill="none" stroke="black" stroke-width="0.5" points="2169,-77.5 1899,-77.5 1899,-56.5 2169,-56.5 2169,-77.5"/>
<text text-anchor="middle" x="2034" y="-64.5" font-family="Vera" font-size="10.00">topo.command.pylabplot.measure_or_tuning_fullfield</text>
</g>
<!-- topo.analysis.featureresponses.FeatureCurveCommand&#45;&gt;topo.command.pylabplot.measure_or_tuning_fullfield -->
<g id="edge4" class="edge"><title>topo.analysis.featureresponses.FeatureCurveCommand&#45;&gt;topo.command.pylabplot.measure_or_tuning_fullfield</title>
<path fill="none" stroke="black" stroke-width="0.5" d="M1862.3,-77.3895C1872.62,-76.7651 1883.02,-76.1355 1893.33,-75.5117"/>
<polygon fill="black" stroke="black" points="1893.5,-77.2548 1898.39,-75.2059 1893.29,-73.7612 1893.5,-77.2548"/>
</g>
<!-- topo.command.pylabplot.autocorrelationplot -->
<g id="node6" class="node"><title>topo.command.pylabplot.autocorrelationplot</title>
<polygon fill="none" stroke="black" stroke-width="0.5" points="1835,-514.5 1605,-514.5 1605,-493.5 1835,-493.5 1835,-514.5"/>
<text text-anchor="middle" x="1720" y="-501.5" font-family="Vera" font-size="10.00">topo.command.pylabplot.autocorrelationplot</text>
</g>
<!-- topo.command.pylabplot.matrixplot -->
<g id="node7" class="node"><title>topo.command.pylabplot.matrixplot</title>
<polygon fill="none" stroke="black" stroke-width="0.5" points="1458,-438.5 1270,-438.5 1270,-417.5 1458,-417.5 1458,-438.5"/>
<text text-anchor="middle" x="1364" y="-425.5" font-family="Vera" font-size="10.00">topo.command.pylabplot.matrixplot</text>
</g>
<!-- topo.command.pylabplot.matrixplot&#45;&gt;topo.command.pylabplot.autocorrelationplot -->
<g id="edge6" class="edge"><title>topo.command.pylabplot.matrixplot&#45;&gt;topo.command.pylabplot.autocorrelationplot</title>
<path fill="none" stroke="black" stroke-width="0.5" d="M1396.69,-438.1C1438.4,-450.666 1512.96,-472.041 1578,-485 1593.7,-488.127 1610.47,-490.883 1626.79,-493.256"/>
<polygon fill="black" stroke="black" points="1626.64,-495.002 1631.84,-493.98 1627.14,-491.538 1626.64,-495.002"/>
</g>
<!-- topo.command.pylabplot.activityplot -->
<g id="node31" class="node"><title>topo.command.pylabplot.activityplot</title>
<polygon fill="none" stroke="black" stroke-width="0.5" points="1815,-476.5 1625,-476.5 1625,-455.5 1815,-455.5 1815,-476.5"/>
<text text-anchor="middle" x="1720" y="-463.5" font-family="Vera" font-size="10.00">topo.command.pylabplot.activityplot</text>
</g>
<!-- topo.command.pylabplot.matrixplot&#45;&gt;topo.command.pylabplot.activityplot -->
<g id="edge28" class="edge"><title>topo.command.pylabplot.matrixplot&#45;&gt;topo.command.pylabplot.activityplot</title>
<path fill="none" stroke="black" stroke-width="0.5" d="M1458,-438.034C1508.19,-443.391 1569.94,-449.982 1620.88,-455.42"/>
<polygon fill="black" stroke="black" points="1620.93,-457.185 1626.09,-455.976 1621.3,-453.705 1620.93,-457.185"/>
</g>
<!-- topo.command.pylabplot.gradientplot -->
<g id="node41" class="node"><title>topo.command.pylabplot.gradientplot</title>
<polygon fill="none" stroke="black" stroke-width="0.5" points="1818,-438.5 1622,-438.5 1622,-417.5 1818,-417.5 1818,-438.5"/>
<text text-anchor="middle" x="1720" y="-425.5" font-family="Vera" font-size="10.00">topo.command.pylabplot.gradientplot</text>
</g>
<!-- topo.command.pylabplot.matrixplot&#45;&gt;topo.command.pylabplot.gradientplot -->
<g id="edge38" class="edge"><title>topo.command.pylabplot.matrixplot&#45;&gt;topo.command.pylabplot.gradientplot</title>
<path fill="none" stroke="black" stroke-width="0.5" d="M1458,-428C1506.7,-428 1566.27,-428 1616.3,-428"/>
<polygon fill="black" stroke="black" points="1616.42,-429.75 1621.42,-428 1616.42,-426.25 1616.42,-429.75"/>
</g>
<!-- topo.command.pylabplot.fftplot -->
<g id="node43" class="node"><title>topo.command.pylabplot.fftplot</title>
<polygon fill="none" stroke="black" stroke-width="0.5" points="1803,-400.5 1637,-400.5 1637,-379.5 1803,-379.5 1803,-400.5"/>
<text text-anchor="middle" x="1720" y="-387.5" font-family="Vera" font-size="10.00">topo.command.pylabplot.fftplot</text>
</g>
<!-- topo.command.pylabplot.matrixplot&#45;&gt;topo.command.pylabplot.fftplot -->
<g id="edge40" class="edge"><title>topo.command.pylabplot.matrixplot&#45;&gt;topo.command.pylabplot.fftplot</title>
<path fill="none" stroke="black" stroke-width="0.5" d="M1458,-417.966C1511.68,-412.236 1578.59,-405.094 1631.36,-399.462"/>
<polygon fill="black" stroke="black" points="1631.63,-401.193 1636.42,-398.922 1631.26,-397.712 1631.63,-401.193"/>
</g>
<!-- topo.command.pylabplot.measure_cog -->
<g id="node9" class="node"><title>topo.command.pylabplot.measure_cog</title>
<polygon fill="none" stroke="black" stroke-width="0.5" points="755,-277.5 551,-277.5 551,-256.5 755,-256.5 755,-277.5"/>
<text text-anchor="middle" x="653" y="-264.5" font-family="Vera" font-size="10.00">topo.command.pylabplot.measure_cog</text>
</g>
<!-- param.parameterized.ParameterizedFunction -->
<g id="node10" class="node"><title>param.parameterized.ParameterizedFunction</title>
<polygon fill="none" stroke="black" stroke-width="0.5" points="464,-239.5 230,-239.5 230,-218.5 464,-218.5 464,-239.5"/>
<text text-anchor="middle" x="347" y="-226.5" font-family="Vera" font-size="10.00">param.parameterized.ParameterizedFunction</text>
</g>
<!-- param.parameterized.ParameterizedFunction&#45;&gt;topo.command.pylabplot.measure_cog -->
<g id="edge8" class="edge"><title>param.parameterized.ParameterizedFunction&#45;&gt;topo.command.pylabplot.measure_cog</title>
<path fill="none" stroke="black" stroke-width="0.5" d="M427.798,-239.034C470.763,-244.369 523.585,-250.929 567.271,-256.354"/>
<polygon fill="black" stroke="black" points="567.102,-258.096 572.28,-256.976 567.534,-254.623 567.102,-258.096"/>
</g>
<!-- topo.command.Command -->
<g id="node20" class="node"><title>topo.command.Command</title>
<polygon fill="none" stroke="black" stroke-width="0.5" points="724,-239.5 582,-239.5 582,-218.5 724,-218.5 724,-239.5"/>
<text text-anchor="middle" x="653" y="-226.5" font-family="Vera" font-size="10.00">topo.command.Command</text>
</g>
<!-- param.parameterized.ParameterizedFunction&#45;&gt;topo.command.Command -->
<g id="edge16" class="edge"><title>param.parameterized.ParameterizedFunction&#45;&gt;topo.command.Command</title>
<path fill="none" stroke="black" stroke-width="0.5" d="M464.432,-229C501.869,-229 542.312,-229 576.108,-229"/>
<polygon fill="black" stroke="black" points="576.474,-230.75 581.474,-229 576.474,-227.25 576.474,-230.75"/>
</g>
<!-- topo.analysis.featureresponses.PatternPresentingCommand -->
<g id="node53" class="node"><title>topo.analysis.featureresponses.PatternPresentingCommand</title>
<polygon fill="none" stroke="black" stroke-width="0.5" points="805,-144.5 501,-144.5 501,-123.5 805,-123.5 805,-144.5"/>
<text text-anchor="middle" x="653" y="-131.5" font-family="Vera" font-size="10.00">topo.analysis.featureresponses.PatternPresentingCommand</text>
</g>
<!-- param.parameterized.ParameterizedFunction&#45;&gt;topo.analysis.featureresponses.PatternPresentingCommand -->
<g id="edge50" class="edge"><title>param.parameterized.ParameterizedFunction&#45;&gt;topo.analysis.featureresponses.PatternPresentingCommand</title>
<path fill="none" stroke="black" stroke-width="0.5" d="M379.458,-218.923C436.608,-201.181 554.867,-164.466 615.445,-145.659"/>
<polygon fill="black" stroke="black" points="616.158,-147.27 620.415,-144.116 615.121,-143.928 616.158,-147.27"/>
</g>
<!-- topo.analysis.featureresponses.SinusoidalMeasureResponseCommand -->
<g id="node14" class="node"><title>topo.analysis.featureresponses.SinusoidalMeasureResponseCommand</title>
<polygon fill="none" stroke="black" stroke-width="0.5" points="1542,-96.5 1186,-96.5 1186,-75.5 1542,-75.5 1542,-96.5"/>
<text text-anchor="middle" x="1364" y="-83.5" font-family="Vera" font-size="10.00">topo.analysis.featureresponses.SinusoidalMeasureResponseCommand</text>
</g>
<!-- topo.analysis.featureresponses.SinusoidalMeasureResponseCommand&#45;&gt;topo.analysis.featureresponses.FeatureCurveCommand -->
<g id="edge12" class="edge"><title>topo.analysis.featureresponses.SinusoidalMeasureResponseCommand&#45;&gt;topo.analysis.featureresponses.FeatureCurveCommand</title>
<path fill="none" stroke="black" stroke-width="0.5" d="M1542,-86C1552.21,-86 1562.43,-86 1572.51,-86"/>
<polygon fill="black" stroke="black" points="1572.76,-87.7501 1577.76,-86 1572.76,-84.2501 1572.76,-87.7501"/>
</g>
<!-- param.parameterized.Parameterized -->
<g id="node16" class="node"><title>param.parameterized.Parameterized</title>
<polygon fill="none" stroke="black" stroke-width="0.5" points="194,-239.5 5.68434e-14,-239.5 0,-218.5 194,-218.5 194,-239.5"/>
<text text-anchor="middle" x="97" y="-226.5" font-family="Vera" font-size="10.00">param.parameterized.Parameterized</text>
</g>
<!-- param.parameterized.Parameterized&#45;&gt;param.parameterized.ParameterizedFunction -->
<g id="edge20" class="edge"><title>param.parameterized.Parameterized&#45;&gt;param.parameterized.ParameterizedFunction</title>
<path fill="none" stroke="black" stroke-width="0.5" d="M194.014,-229C204.04,-229 214.319,-229 224.575,-229"/>
<polygon fill="black" stroke="black" points="224.607,-230.75 229.607,-229 224.607,-227.25 224.607,-230.75"/>
</g>
<!-- topo.command.pylabplot.histogramplot -->
<g id="node17" class="node"><title>topo.command.pylabplot.histogramplot</title>
<polygon fill="none" stroke="black" stroke-width="0.5" points="1467,-400.5 1261,-400.5 1261,-379.5 1467,-379.5 1467,-400.5"/>
<text text-anchor="middle" x="1364" y="-387.5" font-family="Vera" font-size="10.00">topo.command.pylabplot.histogramplot</text>
</g>
<!-- topo.command.pylabplot.PylabPlotCommand -->
<g id="node18" class="node"><title>topo.command.pylabplot.PylabPlotCommand</title>
<polygon fill="none" stroke="black" stroke-width="0.5" points="1112,-267.5 880,-267.5 880,-246.5 1112,-246.5 1112,-267.5"/>
<text text-anchor="middle" x="996" y="-254.5" font-family="Vera" font-size="10.00">topo.command.pylabplot.PylabPlotCommand</text>
</g>
<!-- topo.command.pylabplot.PylabPlotCommand&#45;&gt;topo.command.pylabplot.matrixplot -->
<g id="edge72" class="edge"><title>topo.command.pylabplot.PylabPlotCommand&#45;&gt;topo.command.pylabplot.matrixplot</title>
<path fill="none" stroke="black" stroke-width="0.5" d="M1004.61,-267.09C1029.38,-295.348 1104.36,-375.39 1186,-409 1210.38,-419.038 1238.15,-424.509 1264.39,-427.338"/>
<polygon fill="black" stroke="black" points="1264.47,-429.105 1269.62,-427.87 1264.82,-425.623 1264.47,-429.105"/>
</g>
<!-- topo.command.pylabplot.PylabPlotCommand&#45;&gt;topo.command.pylabplot.histogramplot -->
<g id="edge14" class="edge"><title>topo.command.pylabplot.PylabPlotCommand&#45;&gt;topo.command.pylabplot.histogramplot</title>
<path fill="none" stroke="black" stroke-width="0.5" d="M1008.39,-267.123C1037.37,-290.165 1112.69,-346.43 1186,-371 1208.01,-378.376 1232.33,-383.065 1255.73,-386.008"/>
<polygon fill="black" stroke="black" points="1255.54,-387.747 1260.71,-386.61 1255.96,-384.272 1255.54,-387.747"/>
</g>
<!-- topo.command.pylabplot.xy_grid -->
<g id="node33" class="node"><title>topo.command.pylabplot.xy_grid</title>
<polygon fill="none" stroke="black" stroke-width="0.5" points="1450,-362.5 1278,-362.5 1278,-341.5 1450,-341.5 1450,-362.5"/>
<text text-anchor="middle" x="1364" y="-349.5" font-family="Vera" font-size="10.00">topo.command.pylabplot.xy_grid</text>
</g>
<!-- topo.command.pylabplot.PylabPlotCommand&#45;&gt;topo.command.pylabplot.xy_grid -->
<g id="edge30" class="edge"><title>topo.command.pylabplot.PylabPlotCommand&#45;&gt;topo.command.pylabplot.xy_grid</title>
<path fill="none" stroke="black" stroke-width="0.5" d="M1015.92,-267.097C1049.86,-283.816 1121.52,-316.987 1186,-333 1213.54,-339.84 1244.08,-344.218 1271.98,-347.02"/>
<polygon fill="black" stroke="black" points="1272.01,-348.781 1277.16,-347.525 1272.35,-345.298 1272.01,-348.781"/>
</g>
<!-- topo.command.pylabplot.matrixplot3d -->
<g id="node37" class="node"><title>topo.command.pylabplot.matrixplot3d</title>
<polygon fill="none" stroke="black" stroke-width="0.5" points="1464,-324.5 1264,-324.5 1264,-303.5 1464,-303.5 1464,-324.5"/>
<text text-anchor="middle" x="1364" y="-311.5" font-family="Vera" font-size="10.00">topo.command.pylabplot.matrixplot3d</text>
</g>
<!-- topo.command.pylabplot.PylabPlotCommand&#45;&gt;topo.command.pylabplot.matrixplot3d -->
<g id="edge34" class="edge"><title>topo.command.pylabplot.PylabPlotCommand&#45;&gt;topo.command.pylabplot.matrixplot3d</title>
<path fill="none" stroke="black" stroke-width="0.5" d="M1040.33,-267.056C1078.71,-275.475 1135.79,-287.315 1186,-295 1209.37,-298.577 1234.58,-301.707 1258.46,-304.338"/>
<polygon fill="black" stroke="black" points="1258.37,-306.089 1263.53,-304.892 1258.75,-302.61 1258.37,-306.089"/>
</g>
<!-- topo.command.pylabplot.unit_tuning_curve -->
<g id="node39" class="node"><title>topo.command.pylabplot.unit_tuning_curve</title>
<polygon fill="none" stroke="black" stroke-width="0.5" points="1476,-286.5 1252,-286.5 1252,-265.5 1476,-265.5 1476,-286.5"/>
<text text-anchor="middle" x="1364" y="-273.5" font-family="Vera" font-size="10.00">topo.command.pylabplot.unit_tuning_curve</text>
</g>
<!-- topo.command.pylabplot.PylabPlotCommand&#45;&gt;topo.command.pylabplot.unit_tuning_curve -->
<g id="edge36" class="edge"><title>topo.command.pylabplot.PylabPlotCommand&#45;&gt;topo.command.pylabplot.unit_tuning_curve</title>
<path fill="none" stroke="black" stroke-width="0.5" d="M1112.69,-263.025C1155.48,-265.234 1203.89,-267.734 1246.73,-269.945"/>
<polygon fill="black" stroke="black" points="1246.84,-271.703 1251.92,-270.213 1247.02,-268.208 1246.84,-271.703"/>
</g>
<!-- topo.command.pylabplot.overlaid_plot -->
<g id="node46" class="node"><title>topo.command.pylabplot.overlaid_plot</title>
<polygon fill="none" stroke="black" stroke-width="0.5" points="1464,-248.5 1264,-248.5 1264,-227.5 1464,-227.5 1464,-248.5"/>
<text text-anchor="middle" x="1364" y="-235.5" font-family="Vera" font-size="10.00">topo.command.pylabplot.overlaid_plot</text>
</g>
<!-- topo.command.pylabplot.PylabPlotCommand&#45;&gt;topo.command.pylabplot.overlaid_plot -->
<g id="edge44" class="edge"><title>topo.command.pylabplot.PylabPlotCommand&#45;&gt;topo.command.pylabplot.overlaid_plot</title>
<path fill="none" stroke="black" stroke-width="0.5" d="M1112.69,-250.975C1159.51,-248.558 1213.08,-245.792 1258.7,-243.437"/>
<polygon fill="black" stroke="black" points="1259.04,-245.172 1263.94,-243.166 1258.86,-241.676 1259.04,-245.172"/>
</g>
<!-- topo.command.pylabplot.matrixplot3dx3 -->
<g id="node49" class="node"><title>topo.command.pylabplot.matrixplot3dx3</title>
<polygon fill="none" stroke="black" stroke-width="0.5" points="1470,-210.5 1258,-210.5 1258,-189.5 1470,-189.5 1470,-210.5"/>
<text text-anchor="middle" x="1364" y="-197.5" font-family="Vera" font-size="10.00">topo.command.pylabplot.matrixplot3dx3</text>
</g>
<!-- topo.command.pylabplot.PylabPlotCommand&#45;&gt;topo.command.pylabplot.matrixplot3dx3 -->
<g id="edge46" class="edge"><title>topo.command.pylabplot.PylabPlotCommand&#45;&gt;topo.command.pylabplot.matrixplot3dx3</title>
<path fill="none" stroke="black" stroke-width="0.5" d="M1040.33,-246.944C1078.71,-238.525 1135.79,-226.685 1186,-219 1207.56,-215.7 1230.68,-212.781 1252.89,-210.283"/>
<polygon fill="black" stroke="black" points="1253.13,-212.016 1257.91,-209.723 1252.74,-208.538 1253.13,-212.016"/>
</g>
<!-- topo.command.pylabplot.vectorplot -->
<g id="node57" class="node"><title>topo.command.pylabplot.vectorplot</title>
<polygon fill="none" stroke="black" stroke-width="0.5" points="1458,-172.5 1270,-172.5 1270,-151.5 1458,-151.5 1458,-172.5"/>
<text text-anchor="middle" x="1364" y="-159.5" font-family="Vera" font-size="10.00">topo.command.pylabplot.vectorplot</text>
</g>
<!-- topo.command.pylabplot.PylabPlotCommand&#45;&gt;topo.command.pylabplot.vectorplot -->
<g id="edge54" class="edge"><title>topo.command.pylabplot.PylabPlotCommand&#45;&gt;topo.command.pylabplot.vectorplot</title>
<path fill="none" stroke="black" stroke-width="0.5" d="M1015.92,-246.903C1049.86,-230.184 1121.52,-197.013 1186,-181 1211.17,-174.75 1238.84,-170.556 1264.71,-167.741"/>
<polygon fill="black" stroke="black" points="1265.07,-169.463 1269.85,-167.196 1264.7,-165.982 1265.07,-169.463"/>
</g>
<!-- topo.command.pylabplot.plot_modulation_ratio -->
<g id="node67" class="node"><title>topo.command.pylabplot.plot_modulation_ratio</title>
<polygon fill="none" stroke="black" stroke-width="0.5" points="1486,-134.5 1242,-134.5 1242,-113.5 1486,-113.5 1486,-134.5"/>
<text text-anchor="middle" x="1364" y="-121.5" font-family="Vera" font-size="10.00">topo.command.pylabplot.plot_modulation_ratio</text>
</g>
<!-- topo.command.pylabplot.PylabPlotCommand&#45;&gt;topo.command.pylabplot.plot_modulation_ratio -->
<g id="edge66" class="edge"><title>topo.command.pylabplot.PylabPlotCommand&#45;&gt;topo.command.pylabplot.plot_modulation_ratio</title>
<path fill="none" stroke="black" stroke-width="0.5" d="M1008.39,-246.877C1037.37,-223.835 1112.69,-167.57 1186,-143 1202.02,-137.63 1219.27,-133.684 1236.5,-130.799"/>
<polygon fill="black" stroke="black" points="1237.18,-132.461 1241.84,-129.938 1236.63,-129.006 1237.18,-132.461"/>
</g>
<!-- topo.command.Command&#45;&gt;topo.command.pylabplot.PylabPlotCommand -->
<g id="edge18" class="edge"><title>topo.command.Command&#45;&gt;topo.command.pylabplot.PylabPlotCommand</title>
<path fill="none" stroke="black" stroke-width="0.5" d="M724.904,-234.87C768.111,-238.397 824.224,-242.977 874.182,-247.056"/>
<polygon fill="black" stroke="black" points="874.181,-248.811 879.307,-247.474 874.466,-245.323 874.181,-248.811"/>
</g>
<!-- topo.analysis.featureresponses.PositionMeasurementCommand -->
<g id="node28" class="node"><title>topo.analysis.featureresponses.PositionMeasurementCommand</title>
<polygon fill="none" stroke="black" stroke-width="0.5" points="1526,-58.5 1202,-58.5 1202,-37.5 1526,-37.5 1526,-58.5"/>
<text text-anchor="middle" x="1364" y="-45.5" font-family="Vera" font-size="10.00">topo.analysis.featureresponses.PositionMeasurementCommand</text>
</g>
<!-- topo.command.pylabplot.measure_position_pref -->
<g id="node71" class="node"><title>topo.command.pylabplot.measure_position_pref</title>
<polygon fill="none" stroke="black" stroke-width="0.5" points="1844,-58.5 1596,-58.5 1596,-37.5 1844,-37.5 1844,-58.5"/>
<text text-anchor="middle" x="1720" y="-45.5" font-family="Vera" font-size="10.00">topo.command.pylabplot.measure_position_pref</text>
</g>
<!-- topo.analysis.featureresponses.PositionMeasurementCommand&#45;&gt;topo.command.pylabplot.measure_position_pref -->
<g id="edge70" class="edge"><title>topo.analysis.featureresponses.PositionMeasurementCommand&#45;&gt;topo.command.pylabplot.measure_position_pref</title>
<path fill="none" stroke="black" stroke-width="0.5" d="M1526.11,-48C1547.52,-48 1569.23,-48 1590,-48"/>
<polygon fill="black" stroke="black" points="1590.26,-49.7501 1595.26,-48 1590.26,-46.2501 1590.26,-49.7501"/>
</g>
<!-- topo.analysis.featureresponses.MeasureResponseCommand -->
<g id="node29" class="node"><title>topo.analysis.featureresponses.MeasureResponseCommand</title>
<polygon fill="none" stroke="black" stroke-width="0.5" points="1149,-96.5 843,-96.5 843,-75.5 1149,-75.5 1149,-96.5"/>
<text text-anchor="middle" x="996" y="-83.5" font-family="Vera" font-size="10.00">topo.analysis.featureresponses.MeasureResponseCommand</text>
</g>
<!-- topo.analysis.featureresponses.MeasureResponseCommand&#45;&gt;topo.analysis.featureresponses.SinusoidalMeasureResponseCommand -->
<g id="edge64" class="edge"><title>topo.analysis.featureresponses.MeasureResponseCommand&#45;&gt;topo.analysis.featureresponses.SinusoidalMeasureResponseCommand</title>
<path fill="none" stroke="black" stroke-width="0.5" d="M1149.67,-86C1159.91,-86 1170.29,-86 1180.66,-86"/>
<polygon fill="black" stroke="black" points="1180.75,-87.7501 1185.75,-86 1180.75,-84.2501 1180.75,-87.7501"/>
</g>
<!-- topo.analysis.featureresponses.MeasureResponseCommand&#45;&gt;topo.analysis.featureresponses.PositionMeasurementCommand -->
<g id="edge26" class="edge"><title>topo.analysis.featureresponses.MeasureResponseCommand&#45;&gt;topo.analysis.featureresponses.PositionMeasurementCommand</title>
<path fill="none" stroke="black" stroke-width="0.5" d="M1093.17,-75.9662C1145.15,-70.5982 1209.14,-63.9912 1261.86,-58.5472"/>
<polygon fill="black" stroke="black" points="1262.13,-60.2785 1266.93,-58.024 1261.77,-56.797 1262.13,-60.2785"/>
</g>
<!-- topo.command.pylabplot.topographic_grid -->
<g id="node64" class="node"><title>topo.command.pylabplot.topographic_grid</title>
<polygon fill="none" stroke="black" stroke-width="0.5" points="1830,-362.5 1610,-362.5 1610,-341.5 1830,-341.5 1830,-362.5"/>
<text text-anchor="middle" x="1720" y="-349.5" font-family="Vera" font-size="10.00">topo.command.pylabplot.topographic_grid</text>
</g>
<!-- topo.command.pylabplot.xy_grid&#45;&gt;topo.command.pylabplot.topographic_grid -->
<g id="edge62" class="edge"><title>topo.command.pylabplot.xy_grid&#45;&gt;topo.command.pylabplot.topographic_grid</title>
<path fill="none" stroke="black" stroke-width="0.5" d="M1450.63,-352C1496.99,-352 1554.7,-352 1604.8,-352"/>
<polygon fill="black" stroke="black" points="1604.93,-353.75 1609.93,-352 1604.93,-350.25 1604.93,-353.75"/>
</g>
<!-- topo.command.pylabplot.cyclic_unit_tuning_curve -->
<g id="node55" class="node"><title>topo.command.pylabplot.cyclic_unit_tuning_curve</title>
<polygon fill="none" stroke="black" stroke-width="0.5" points="1847,-324.5 1593,-324.5 1593,-303.5 1847,-303.5 1847,-324.5"/>
<text text-anchor="middle" x="1720" y="-311.5" font-family="Vera" font-size="10.00">topo.command.pylabplot.cyclic_unit_tuning_curve</text>
</g>
<!-- topo.command.pylabplot.unit_tuning_curve&#45;&gt;topo.command.pylabplot.cyclic_unit_tuning_curve -->
<g id="edge52" class="edge"><title>topo.command.pylabplot.unit_tuning_curve&#45;&gt;topo.command.pylabplot.cyclic_unit_tuning_curve</title>
<path fill="none" stroke="black" stroke-width="0.5" d="M1458,-286.034C1508.19,-291.391 1569.94,-297.982 1620.88,-303.42"/>
<polygon fill="black" stroke="black" points="1620.93,-305.185 1626.09,-303.976 1621.3,-301.705 1620.93,-305.185"/>
</g>
<!-- topo.command.pylabplot.tuning_curve -->
<g id="node69" class="node"><title>topo.command.pylabplot.tuning_curve</title>
<polygon fill="none" stroke="black" stroke-width="0.5" points="1820,-286.5 1620,-286.5 1620,-265.5 1820,-265.5 1820,-286.5"/>
<text text-anchor="middle" x="1720" y="-273.5" font-family="Vera" font-size="10.00">topo.command.pylabplot.tuning_curve</text>
</g>
<!-- topo.command.pylabplot.unit_tuning_curve&#45;&gt;topo.command.pylabplot.tuning_curve -->
<g id="edge68" class="edge"><title>topo.command.pylabplot.unit_tuning_curve&#45;&gt;topo.command.pylabplot.tuning_curve</title>
<path fill="none" stroke="black" stroke-width="0.5" d="M1476.15,-276C1520.22,-276 1570.55,-276 1614,-276"/>
<polygon fill="black" stroke="black" points="1614.26,-277.75 1619.26,-276 1614.26,-274.25 1614.26,-277.75"/>
</g>
<!-- topo.command.pylabplot.overlaid_plots -->
<g id="node45" class="node"><title>topo.command.pylabplot.overlaid_plots</title>
<polygon fill="none" stroke="black" stroke-width="0.5" points="1823,-248.5 1617,-248.5 1617,-227.5 1823,-227.5 1823,-248.5"/>
<text text-anchor="middle" x="1720" y="-235.5" font-family="Vera" font-size="10.00">topo.command.pylabplot.overlaid_plots</text>
</g>
<!-- topo.command.pylabplot.overlaid_plot&#45;&gt;topo.command.pylabplot.overlaid_plots -->
<g id="edge42" class="edge"><title>topo.command.pylabplot.overlaid_plot&#45;&gt;topo.command.pylabplot.overlaid_plots</title>
<path fill="none" stroke="black" stroke-width="0.5" d="M1464.11,-238C1510.15,-238 1564.84,-238 1611.82,-238"/>
<polygon fill="black" stroke="black" points="1611.93,-239.75 1616.93,-238 1611.93,-236.25 1611.93,-239.75"/>
</g>
<!-- topo.analysis.featureresponses.PatternPresentingCommand&#45;&gt;topo.analysis.featureresponses.MeasureResponseCommand -->
<g id="edge58" class="edge"><title>topo.analysis.featureresponses.PatternPresentingCommand&#45;&gt;topo.analysis.featureresponses.MeasureResponseCommand</title>
<path fill="none" stroke="black" stroke-width="0.5" d="M724.487,-123.996C781.376,-116.035 860.833,-104.915 919.095,-96.7622"/>
<polygon fill="black" stroke="black" points="919.602,-98.4584 924.311,-96.0323 919.117,-94.9922 919.602,-98.4584"/>
</g>
<!-- topo.command.pylabplot.cyclic_tuning_curve -->
<g id="node62" class="node"><title>topo.command.pylabplot.cyclic_tuning_curve</title>
<polygon fill="none" stroke="black" stroke-width="0.5" points="2150,-324.5 1918,-324.5 1918,-303.5 2150,-303.5 2150,-324.5"/>
<text text-anchor="middle" x="2034" y="-311.5" font-family="Vera" font-size="10.00">topo.command.pylabplot.cyclic_tuning_curve</text>
</g>
<!-- topo.command.pylabplot.cyclic_unit_tuning_curve&#45;&gt;topo.command.pylabplot.cyclic_tuning_curve -->
<g id="edge60" class="edge"><title>topo.command.pylabplot.cyclic_unit_tuning_curve&#45;&gt;topo.command.pylabplot.cyclic_tuning_curve</title>
<path fill="none" stroke="black" stroke-width="0.5" d="M1847.72,-314C1869.17,-314 1891.38,-314 1912.67,-314"/>
<polygon fill="black" stroke="black" points="1912.78,-315.75 1917.78,-314 1912.78,-312.25 1912.78,-315.75"/>
</g>
</g>
</svg>
