<?xml version="1.0" encoding="UTF-8" standalone="no"?>
<!DOCTYPE svg PUBLIC "-//W3C//DTD SVG 1.1//EN"
 "http://www.w3.org/Graphics/SVG/1.1/DTD/svg11.dtd">
<!-- Generated by graphviz version 2.26.3 (20100126.1600)
 -->
<!-- Title: inheritance0bce68b9cf Pages: 1 -->
<svg width="1872pt" height="399pt"
 viewBox="0.00 0.00 1872.00 399.00" xmlns="http://www.w3.org/2000/svg" xmlns:xlink="http://www.w3.org/1999/xlink">
<g id="graph1" class="graph" transform="scale(1 1) rotate(0) translate(4 395)">
<title>inheritance0bce68b9cf</title>
<polygon fill="white" stroke="white" points="-4,5 -4,-395 1869,-395 1869,5 -4,5"/>
<!-- topo.plotting.plotgroup.UnitMeasurementCommand -->
<g id="node1" class="node"><title>topo.plotting.plotgroup.UnitMeasurementCommand</title>
<polygon fill="none" stroke="black" stroke-width="0.5" points="1145,-362.5 879,-362.5 879,-341.5 1145,-341.5 1145,-362.5"/>
<text text-anchor="middle" x="1012" y="-349.5" font-family="Vera" font-size="10.00">topo.plotting.plotgroup.UnitMeasurementCommand</text>
</g>
<!-- topo.command.analysis.update_projection -->
<g id="node4" class="node"><title>topo.command.analysis.update_projection</title>
<polygon fill="none" stroke="black" stroke-width="0.5" points="1490,-391.5 1270,-391.5 1270,-370.5 1490,-370.5 1490,-391.5"/>
<text text-anchor="middle" x="1380" y="-378.5" font-family="Vera" font-size="10.00">topo.command.analysis.update_projection</text>
</g>
<!-- topo.plotting.plotgroup.UnitMeasurementCommand&#45;&gt;topo.command.analysis.update_projection -->
<g id="edge4" class="edge"><title>topo.plotting.plotgroup.UnitMeasurementCommand&#45;&gt;topo.command.analysis.update_projection</title>
<path fill="none" stroke="black" stroke-width="0.5" d="M1138.9,-362C1179.48,-365.198 1224.17,-368.72 1263.93,-371.853"/>
<polygon fill="black" stroke="black" points="1264.13,-373.624 1269.25,-372.273 1264.41,-370.135 1264.13,-373.624"/>
</g>
<!-- topo.command.analysis.update_connectionfields -->
<g id="node44" class="node"><title>topo.command.analysis.update_connectionfields</title>
<polygon fill="none" stroke="black" stroke-width="0.5" points="1505,-353.5 1255,-353.5 1255,-332.5 1505,-332.5 1505,-353.5"/>
<text text-anchor="middle" x="1380" y="-340.5" font-family="Vera" font-size="10.00">topo.command.analysis.update_connectionfields</text>
</g>
<!-- topo.plotting.plotgroup.UnitMeasurementCommand&#45;&gt;topo.command.analysis.update_connectionfields -->
<g id="edge40" class="edge"><title>topo.plotting.plotgroup.UnitMeasurementCommand&#45;&gt;topo.command.analysis.update_connectionfields</title>
<path fill="none" stroke="black" stroke-width="0.5" d="M1145.12,-348.744C1178.91,-347.918 1215.19,-347.031 1248.88,-346.207"/>
<polygon fill="black" stroke="black" points="1249.31,-347.947 1254.27,-346.075 1249.22,-344.448 1249.31,-347.947"/>
</g>
<!-- topo.plotting.plotgroup.ProjectionSheetMeasurementCommand -->
<g id="node2" class="node"><title>topo.plotting.plotgroup.ProjectionSheetMeasurementCommand</title>
<polygon fill="none" stroke="black" stroke-width="0.5" points="822,-324.5 500,-324.5 500,-303.5 822,-303.5 822,-324.5"/>
<text text-anchor="middle" x="661" y="-311.5" font-family="Vera" font-size="10.00">topo.plotting.plotgroup.ProjectionSheetMeasurementCommand</text>
</g>
<!-- topo.plotting.plotgroup.ProjectionSheetMeasurementCommand&#45;&gt;topo.plotting.plotgroup.UnitMeasurementCommand -->
<g id="edge2" class="edge"><title>topo.plotting.plotgroup.ProjectionSheetMeasurementCommand&#45;&gt;topo.plotting.plotgroup.UnitMeasurementCommand</title>
<path fill="none" stroke="black" stroke-width="0.5" d="M753.68,-324.034C803.164,-329.391 864.045,-335.982 914.273,-341.42"/>
<polygon fill="black" stroke="black" points="914.25,-343.178 919.409,-341.976 914.627,-339.698 914.25,-343.178"/>
</g>
<!-- topo.command.analysis.update_projectionactivity -->
<g id="node37" class="node"><title>topo.command.analysis.update_projectionactivity</title>
<polygon fill="none" stroke="black" stroke-width="0.5" points="1139,-324.5 885,-324.5 885,-303.5 1139,-303.5 1139,-324.5"/>
<text text-anchor="middle" x="1012" y="-311.5" font-family="Vera" font-size="10.00">topo.command.analysis.update_projectionactivity</text>
</g>
<!-- topo.plotting.plotgroup.ProjectionSheetMeasurementCommand&#45;&gt;topo.command.analysis.update_projectionactivity -->
<g id="edge32" class="edge"><title>topo.plotting.plotgroup.ProjectionSheetMeasurementCommand&#45;&gt;topo.command.analysis.update_projectionactivity</title>
<path fill="none" stroke="black" stroke-width="0.5" d="M822.118,-314C841.391,-314 860.898,-314 879.699,-314"/>
<polygon fill="black" stroke="black" points="879.982,-315.75 884.982,-314 879.982,-312.25 879.982,-315.75"/>
</g>
<!-- topo.command.analysis.measure_latency_preference -->
<g id="node6" class="node"><title>topo.command.analysis.measure_latency_preference</title>
<polygon fill="none" stroke="black" stroke-width="0.5" points="1517,-267.5 1243,-267.5 1243,-246.5 1517,-246.5 1517,-267.5"/>
<text text-anchor="middle" x="1380" y="-254.5" font-family="Vera" font-size="10.00">topo.command.analysis.measure_latency_preference</text>
</g>
<!-- topo.analysis.featureresponses.MeasureResponseCommand -->
<g id="node7" class="node"><title>topo.analysis.featureresponses.MeasureResponseCommand</title>
<polygon fill="none" stroke="black" stroke-width="0.5" points="1165,-191.5 859,-191.5 859,-170.5 1165,-170.5 1165,-191.5"/>
<text text-anchor="middle" x="1012" y="-178.5" font-family="Vera" font-size="10.00">topo.analysis.featureresponses.MeasureResponseCommand</text>
</g>
<!-- topo.analysis.featureresponses.MeasureResponseCommand&#45;&gt;topo.command.analysis.measure_latency_preference -->
<g id="edge6" class="edge"><title>topo.analysis.featureresponses.MeasureResponseCommand&#45;&gt;topo.command.analysis.measure_latency_preference</title>
<path fill="none" stroke="black" stroke-width="0.5" d="M1039.6,-191.042C1076.21,-203.955 1143.09,-226.126 1202,-238 1218.29,-241.283 1235.54,-244.024 1252.64,-246.305"/>
<polygon fill="black" stroke="black" points="1252.75,-248.085 1257.94,-246.999 1253.21,-244.615 1252.75,-248.085"/>
</g>
<!-- topo.command.analysis.measure_log_frequency_preference -->
<g id="node9" class="node"><title>topo.command.analysis.measure_log_frequency_preference</title>
<polygon fill="none" stroke="black" stroke-width="0.5" points="1533,-229.5 1227,-229.5 1227,-208.5 1533,-208.5 1533,-229.5"/>
<text text-anchor="middle" x="1380" y="-216.5" font-family="Vera" font-size="10.00">topo.command.analysis.measure_log_frequency_preference</text>
</g>
<!-- topo.analysis.featureresponses.MeasureResponseCommand&#45;&gt;topo.command.analysis.measure_log_frequency_preference -->
<g id="edge8" class="edge"><title>topo.analysis.featureresponses.MeasureResponseCommand&#45;&gt;topo.command.analysis.measure_log_frequency_preference</title>
<path fill="none" stroke="black" stroke-width="0.5" d="M1109.17,-191.034C1161.15,-196.402 1225.14,-203.009 1277.86,-208.453"/>
<polygon fill="black" stroke="black" points="1277.77,-210.203 1282.93,-208.976 1278.13,-206.722 1277.77,-210.203"/>
</g>
<!-- topo.analysis.featureresponses.SinusoidalMeasureResponseCommand -->
<g id="node12" class="node"><title>topo.analysis.featureresponses.SinusoidalMeasureResponseCommand</title>
<polygon fill="none" stroke="black" stroke-width="0.5" points="1558,-191.5 1202,-191.5 1202,-170.5 1558,-170.5 1558,-191.5"/>
<text text-anchor="middle" x="1380" y="-178.5" font-family="Vera" font-size="10.00">topo.analysis.featureresponses.SinusoidalMeasureResponseCommand</text>
</g>
<!-- topo.analysis.featureresponses.MeasureResponseCommand&#45;&gt;topo.analysis.featureresponses.SinusoidalMeasureResponseCommand -->
<g id="edge36" class="edge"><title>topo.analysis.featureresponses.MeasureResponseCommand&#45;&gt;topo.analysis.featureresponses.SinusoidalMeasureResponseCommand</title>
<path fill="none" stroke="black" stroke-width="0.5" d="M1165.67,-181C1175.91,-181 1186.29,-181 1196.66,-181"/>
<polygon fill="black" stroke="black" points="1196.75,-182.75 1201.75,-181 1196.75,-179.25 1196.75,-182.75"/>
</g>
<!-- topo.analysis.featureresponses.PositionMeasurementCommand -->
<g id="node14" class="node"><title>topo.analysis.featureresponses.PositionMeasurementCommand</title>
<polygon fill="none" stroke="black" stroke-width="0.5" points="1542,-144.5 1218,-144.5 1218,-123.5 1542,-123.5 1542,-144.5"/>
<text text-anchor="middle" x="1380" y="-131.5" font-family="Vera" font-size="10.00">topo.analysis.featureresponses.PositionMeasurementCommand</text>
</g>
<!-- topo.analysis.featureresponses.MeasureResponseCommand&#45;&gt;topo.analysis.featureresponses.PositionMeasurementCommand -->
<g id="edge12" class="edge"><title>topo.analysis.featureresponses.MeasureResponseCommand&#45;&gt;topo.analysis.featureresponses.PositionMeasurementCommand</title>
<path fill="none" stroke="black" stroke-width="0.5" d="M1090.49,-170.975C1151.06,-163.239 1234.67,-152.561 1296.47,-144.669"/>
<polygon fill="black" stroke="black" points="1296.89,-146.379 1301.63,-144.01 1296.45,-142.907 1296.89,-146.379"/>
</g>
<!-- topo.command.analysis.measure_frequency_preference -->
<g id="node30" class="node"><title>topo.command.analysis.measure_frequency_preference</title>
<polygon fill="none" stroke="black" stroke-width="0.5" points="1523,-106.5 1237,-106.5 1237,-85.5 1523,-85.5 1523,-106.5"/>
<text text-anchor="middle" x="1380" y="-93.5" font-family="Vera" font-size="10.00">topo.command.analysis.measure_frequency_preference</text>
</g>
<!-- topo.analysis.featureresponses.MeasureResponseCommand&#45;&gt;topo.command.analysis.measure_frequency_preference -->
<g id="edge26" class="edge"><title>topo.analysis.featureresponses.MeasureResponseCommand&#45;&gt;topo.command.analysis.measure_frequency_preference</title>
<path fill="none" stroke="black" stroke-width="0.5" d="M1035.49,-170.882C1070.88,-156.087 1140.32,-128.814 1202,-115 1216.58,-111.735 1231.96,-109.027 1247.32,-106.78"/>
<polygon fill="black" stroke="black" points="1247.83,-108.476 1252.53,-106.036 1247.33,-105.011 1247.83,-108.476"/>
</g>
<!-- topo.analysis.featureresponses.SingleInputResponseCommand -->
<g id="node51" class="node"><title>topo.analysis.featureresponses.SingleInputResponseCommand</title>
<polygon fill="none" stroke="black" stroke-width="0.5" points="1539,-49.5 1221,-49.5 1221,-28.5 1539,-28.5 1539,-49.5"/>
<text text-anchor="middle" x="1380" y="-36.5" font-family="Vera" font-size="10.00">topo.analysis.featureresponses.SingleInputResponseCommand</text>
</g>
<!-- topo.analysis.featureresponses.MeasureResponseCommand&#45;&gt;topo.analysis.featureresponses.SingleInputResponseCommand -->
<g id="edge48" class="edge"><title>topo.analysis.featureresponses.MeasureResponseCommand&#45;&gt;topo.analysis.featureresponses.SingleInputResponseCommand</title>
<path fill="none" stroke="black" stroke-width="0.5" d="M1027.03,-170.768C1058.24,-149.99 1132.91,-102.659 1202,-77 1234.9,-64.783 1272.75,-56.0143 1305.07,-50.0013"/>
<polygon fill="black" stroke="black" points="1305.61,-51.6825 1310.21,-49.0598 1304.98,-48.2398 1305.61,-51.6825"/>
</g>
<!-- topo.command.analysis.measure_hue_pref -->
<g id="node11" class="node"><title>topo.command.analysis.measure_hue_pref</title>
<polygon fill="none" stroke="black" stroke-width="0.5" points="1841,-362.5 1617,-362.5 1617,-341.5 1841,-341.5 1841,-362.5"/>
<text text-anchor="middle" x="1729" y="-349.5" font-family="Vera" font-size="10.00">topo.command.analysis.measure_hue_pref</text>
</g>
<!-- topo.analysis.featureresponses.SinusoidalMeasureResponseCommand&#45;&gt;topo.command.analysis.measure_hue_pref -->
<g id="edge10" class="edge"><title>topo.analysis.featureresponses.SinusoidalMeasureResponseCommand&#45;&gt;topo.command.analysis.measure_hue_pref</title>
<path fill="none" stroke="black" stroke-width="0.5" d="M1545.63,-191.034C1549.96,-193.693 1554.1,-196.671 1558,-200 1604.58,-239.75 1548.09,-292.476 1594,-333 1599.48,-337.836 1605.6,-341.781 1612.13,-344.981"/>
<polygon fill="black" stroke="black" points="1611.44,-346.589 1616.71,-347.079 1612.89,-343.407 1611.44,-346.589"/>
</g>
<!-- topo.command.analysis.measure_second_or_pref -->
<g id="node17" class="node"><title>topo.command.analysis.measure_second_or_pref</title>
<polygon fill="none" stroke="black" stroke-width="0.5" points="1857,-324.5 1601,-324.5 1601,-303.5 1857,-303.5 1857,-324.5"/>
<text text-anchor="middle" x="1729" y="-311.5" font-family="Vera" font-size="10.00">topo.command.analysis.measure_second_or_pref</text>
</g>
<!-- topo.analysis.featureresponses.SinusoidalMeasureResponseCommand&#45;&gt;topo.command.analysis.measure_second_or_pref -->
<g id="edge14" class="edge"><title>topo.analysis.featureresponses.SinusoidalMeasureResponseCommand&#45;&gt;topo.command.analysis.measure_second_or_pref</title>
<path fill="none" stroke="black" stroke-width="0.5" d="M1544.41,-191.092C1549.15,-193.718 1553.69,-196.676 1558,-200 1593.74,-227.593 1558.73,-266.813 1594,-295 1596.92,-297.336 1600,-299.457 1603.2,-301.379"/>
<polygon fill="black" stroke="black" points="1602.43,-302.95 1607.64,-303.878 1604.14,-299.9 1602.43,-302.95"/>
</g>
<!-- topo.command.analysis.measure_phasedisparity -->
<g id="node28" class="node"><title>topo.command.analysis.measure_phasedisparity</title>
<polygon fill="none" stroke="black" stroke-width="0.5" points="1855,-286.5 1603,-286.5 1603,-265.5 1855,-265.5 1855,-286.5"/>
<text text-anchor="middle" x="1729" y="-273.5" font-family="Vera" font-size="10.00">topo.command.analysis.measure_phasedisparity</text>
</g>
<!-- topo.analysis.featureresponses.SinusoidalMeasureResponseCommand&#45;&gt;topo.command.analysis.measure_phasedisparity -->
<g id="edge24" class="edge"><title>topo.analysis.featureresponses.SinusoidalMeasureResponseCommand&#45;&gt;topo.command.analysis.measure_phasedisparity</title>
<path fill="none" stroke="black" stroke-width="0.5" d="M1541.03,-191.105C1546.91,-193.682 1552.59,-196.632 1558,-200 1583.44,-215.837 1568.83,-240.739 1594,-257 1597.94,-259.547 1602.08,-261.813 1606.37,-263.827"/>
<polygon fill="black" stroke="black" points="1605.79,-265.486 1611.07,-265.915 1607.21,-262.287 1605.79,-265.486"/>
</g>
<!-- topo.command.analysis.measure_sine_pref -->
<g id="node46" class="node"><title>topo.command.analysis.measure_sine_pref</title>
<polygon fill="none" stroke="black" stroke-width="0.5" points="1842,-248.5 1616,-248.5 1616,-227.5 1842,-227.5 1842,-248.5"/>
<text text-anchor="middle" x="1729" y="-235.5" font-family="Vera" font-size="10.00">topo.command.analysis.measure_sine_pref</text>
</g>
<!-- topo.analysis.featureresponses.SinusoidalMeasureResponseCommand&#45;&gt;topo.command.analysis.measure_sine_pref -->
<g id="edge42" class="edge"><title>topo.analysis.featureresponses.SinusoidalMeasureResponseCommand&#45;&gt;topo.command.analysis.measure_sine_pref</title>
<path fill="none" stroke="black" stroke-width="0.5" d="M1520.93,-191.009C1533.59,-193.417 1546.11,-196.374 1558,-200 1575.3,-205.277 1576.79,-213.434 1594,-219 1603.68,-222.129 1613.91,-224.743 1624.24,-226.926"/>
<polygon fill="black" stroke="black" points="1624.06,-228.677 1629.31,-227.964 1624.76,-225.248 1624.06,-228.677"/>
</g>
<!-- topo.command.analysis.measure_or_pref -->
<g id="node54" class="node"><title>topo.command.analysis.measure_or_pref</title>
<polygon fill="none" stroke="black" stroke-width="0.5" points="1837,-210.5 1621,-210.5 1621,-189.5 1837,-189.5 1837,-210.5"/>
<text text-anchor="middle" x="1729" y="-197.5" font-family="Vera" font-size="10.00">topo.command.analysis.measure_or_pref</text>
</g>
<!-- topo.analysis.featureresponses.SinusoidalMeasureResponseCommand&#45;&gt;topo.command.analysis.measure_or_pref -->
<g id="edge52" class="edge"><title>topo.analysis.featureresponses.SinusoidalMeasureResponseCommand&#45;&gt;topo.command.analysis.measure_or_pref</title>
<path fill="none" stroke="black" stroke-width="0.5" d="M1558.08,-190.695C1577.59,-191.757 1597.03,-192.816 1615.45,-193.818"/>
<polygon fill="black" stroke="black" points="1615.53,-195.575 1620.61,-194.099 1615.72,-192.08 1615.53,-195.575"/>
</g>
<!-- topo.command.analysis.measure_od_pref -->
<g id="node60" class="node"><title>topo.command.analysis.measure_od_pref</title>
<polygon fill="none" stroke="black" stroke-width="0.5" points="1838,-172.5 1620,-172.5 1620,-151.5 1838,-151.5 1838,-172.5"/>
<text text-anchor="middle" x="1729" y="-159.5" font-family="Vera" font-size="10.00">topo.command.analysis.measure_od_pref</text>
</g>
<!-- topo.analysis.featureresponses.SinusoidalMeasureResponseCommand&#45;&gt;topo.command.analysis.measure_od_pref -->
<g id="edge60" class="edge"><title>topo.analysis.featureresponses.SinusoidalMeasureResponseCommand&#45;&gt;topo.command.analysis.measure_od_pref</title>
<path fill="none" stroke="black" stroke-width="0.5" d="M1558.08,-171.305C1577.28,-170.26 1596.42,-169.218 1614.58,-168.229"/>
<polygon fill="black" stroke="black" points="1614.77,-169.971 1619.67,-167.952 1614.58,-166.476 1614.77,-169.971"/>
</g>
<!-- topo.command.analysis.measure_dr_pref -->
<g id="node64" class="node"><title>topo.command.analysis.measure_dr_pref</title>
<polygon fill="none" stroke="black" stroke-width="0.5" points="1837,-134.5 1621,-134.5 1621,-113.5 1837,-113.5 1837,-134.5"/>
<text text-anchor="middle" x="1729" y="-121.5" font-family="Vera" font-size="10.00">topo.command.analysis.measure_dr_pref</text>
</g>
<!-- topo.analysis.featureresponses.SinusoidalMeasureResponseCommand&#45;&gt;topo.command.analysis.measure_dr_pref -->
<g id="edge64" class="edge"><title>topo.analysis.featureresponses.SinusoidalMeasureResponseCommand&#45;&gt;topo.command.analysis.measure_dr_pref</title>
<path fill="none" stroke="black" stroke-width="0.5" d="M1456.14,-170.987C1487.8,-166.316 1524.83,-160.191 1558,-153 1574.23,-149.482 1577.74,-146.387 1594,-143 1608.88,-139.899 1624.8,-137.158 1640.29,-134.792"/>
<polygon fill="black" stroke="black" points="1640.84,-136.478 1645.53,-134.004 1640.32,-133.017 1640.84,-136.478"/>
</g>
<!-- topo.command.analysis.measure_corner_angle_pref -->
<g id="node19" class="node"><title>topo.command.analysis.measure_corner_angle_pref</title>
<polygon fill="none" stroke="black" stroke-width="0.5" points="1863,-96.5 1595,-96.5 1595,-75.5 1863,-75.5 1863,-96.5"/>
<text text-anchor="middle" x="1729" y="-83.5" font-family="Vera" font-size="10.00">topo.command.analysis.measure_corner_angle_pref</text>
</g>
<!-- topo.analysis.featureresponses.PositionMeasurementCommand&#45;&gt;topo.command.analysis.measure_corner_angle_pref -->
<g id="edge16" class="edge"><title>topo.analysis.featureresponses.PositionMeasurementCommand&#45;&gt;topo.command.analysis.measure_corner_angle_pref</title>
<path fill="none" stroke="black" stroke-width="0.5" d="M1499.61,-123.97C1519.2,-121.543 1539.23,-118.584 1558,-115 1574.31,-111.886 1577.74,-108.387 1594,-105 1608.88,-101.899 1624.8,-99.1582 1640.29,-96.7917"/>
<polygon fill="black" stroke="black" points="1640.84,-98.4785 1645.53,-96.0035 1640.32,-95.0175 1640.84,-98.4785"/>
</g>
<!-- topo.command.analysis.measure_corner_or_pref -->
<g id="node62" class="node"><title>topo.command.analysis.measure_corner_or_pref</title>
<polygon fill="none" stroke="black" stroke-width="0.5" points="1855,-58.5 1603,-58.5 1603,-37.5 1855,-37.5 1855,-58.5"/>
<text text-anchor="middle" x="1729" y="-45.5" font-family="Vera" font-size="10.00">topo.command.analysis.measure_corner_or_pref</text>
</g>
<!-- topo.analysis.featureresponses.PositionMeasurementCommand&#45;&gt;topo.command.analysis.measure_corner_or_pref -->
<g id="edge62" class="edge"><title>topo.analysis.featureresponses.PositionMeasurementCommand&#45;&gt;topo.command.analysis.measure_corner_or_pref</title>
<path fill="none" stroke="black" stroke-width="0.5" d="M1539.38,-123.865C1545.82,-121.316 1552.06,-118.378 1558,-115 1581.18,-101.824 1571.04,-80.5627 1594,-67 1598.43,-64.3818 1603.09,-62.0713 1607.89,-60.0352"/>
<polygon fill="black" stroke="black" points="1608.76,-61.5743 1612.74,-58.0893 1607.45,-58.3257 1608.76,-61.5743"/>
</g>
<!-- param.parameterized.Parameterized -->
<g id="node16" class="node"><title>param.parameterized.Parameterized</title>
<polygon fill="none" stroke="black" stroke-width="0.5" points="194,-153.5 5.68434e-14,-153.5 0,-132.5 194,-132.5 194,-153.5"/>
<text text-anchor="middle" x="97" y="-140.5" font-family="Vera" font-size="10.00">param.parameterized.Parameterized</text>
</g>
<!-- param.parameterized.ParameterizedFunction -->
<g id="node21" class="node"><title>param.parameterized.ParameterizedFunction</title>
<polygon fill="none" stroke="black" stroke-width="0.5" points="464,-248.5 230,-248.5 230,-227.5 464,-227.5 464,-248.5"/>
<text text-anchor="middle" x="347" y="-235.5" font-family="Vera" font-size="10.00">param.parameterized.ParameterizedFunction</text>
</g>
<!-- param.parameterized.Parameterized&#45;&gt;param.parameterized.ParameterizedFunction -->
<g id="edge18" class="edge"><title>param.parameterized.Parameterized&#45;&gt;param.parameterized.ParameterizedFunction</title>
<path fill="none" stroke="black" stroke-width="0.5" d="M123.754,-153.167C170.275,-170.844 265.838,-207.159 315.489,-226.026"/>
<polygon fill="black" stroke="black" points="315.142,-227.766 320.438,-227.906 316.386,-224.494 315.142,-227.766"/>
</g>
<!-- imagen.patterngenerator.PatternGenerator -->
<g id="node33" class="node"><title>imagen.patterngenerator.PatternGenerator</title>
<polygon fill="none" stroke="black" stroke-width="0.5" points="459,-153.5 235,-153.5 235,-132.5 459,-132.5 459,-153.5"/>
<text text-anchor="middle" x="347" y="-140.5" font-family="Vera" font-size="10.00">imagen.patterngenerator.PatternGenerator</text>
</g>
<!-- param.parameterized.Parameterized&#45;&gt;imagen.patterngenerator.PatternGenerator -->
<g id="edge54" class="edge"><title>param.parameterized.Parameterized&#45;&gt;imagen.patterngenerator.PatternGenerator</title>
<path fill="none" stroke="black" stroke-width="0.5" d="M194.014,-143C205.664,-143 217.655,-143 229.554,-143"/>
<polygon fill="black" stroke="black" points="229.647,-144.75 234.647,-143 229.647,-141.25 229.647,-144.75"/>
</g>
<!-- topo.command.analysis.PatternPresenter2 -->
<g id="node39" class="node"><title>topo.command.analysis.PatternPresenter2</title>
<polygon fill="none" stroke="black" stroke-width="0.5" points="457,-115.5 237,-115.5 237,-94.5 457,-94.5 457,-115.5"/>
<text text-anchor="middle" x="347" y="-102.5" font-family="Vera" font-size="10.00">topo.command.analysis.PatternPresenter2</text>
</g>
<!-- param.parameterized.Parameterized&#45;&gt;topo.command.analysis.PatternPresenter2 -->
<g id="edge34" class="edge"><title>param.parameterized.Parameterized&#45;&gt;topo.command.analysis.PatternPresenter2</title>
<path fill="none" stroke="black" stroke-width="0.5" d="M163.012,-132.966C197.758,-127.685 240.394,-121.204 275.872,-115.811"/>
<polygon fill="black" stroke="black" points="276.372,-117.506 281.052,-115.024 275.846,-114.045 276.372,-117.506"/>
</g>
<!-- param.parameterized.ParameterizedFunction&#45;&gt;topo.plotting.plotgroup.ProjectionSheetMeasurementCommand -->
<g id="edge58" class="edge"><title>param.parameterized.ParameterizedFunction&#45;&gt;topo.plotting.plotgroup.ProjectionSheetMeasurementCommand</title>
<path fill="none" stroke="black" stroke-width="0.5" d="M368.777,-248.01C397.99,-260.992 451.782,-283.351 500,-295 513.401,-298.238 527.569,-300.932 541.718,-303.172"/>
<polygon fill="black" stroke="black" points="541.721,-304.943 546.929,-303.977 542.255,-301.484 541.721,-304.943"/>
</g>
<!-- topo.base.functionfamily.PatternDrivenAnalysis -->
<g id="node24" class="node"><title>topo.base.functionfamily.PatternDrivenAnalysis</title>
<polygon fill="none" stroke="black" stroke-width="0.5" points="781,-286.5 541,-286.5 541,-265.5 781,-265.5 781,-286.5"/>
<text text-anchor="middle" x="661" y="-273.5" font-family="Vera" font-size="10.00">topo.base.functionfamily.PatternDrivenAnalysis</text>
</g>
<!-- param.parameterized.ParameterizedFunction&#45;&gt;topo.base.functionfamily.PatternDrivenAnalysis -->
<g id="edge50" class="edge"><title>param.parameterized.ParameterizedFunction&#45;&gt;topo.base.functionfamily.PatternDrivenAnalysis</title>
<path fill="none" stroke="black" stroke-width="0.5" d="M426.793,-248.002C450.364,-250.932 476.218,-254.12 500,-257 522.73,-259.752 547.271,-262.674 570.177,-265.38"/>
<polygon fill="black" stroke="black" points="570.174,-267.141 575.345,-265.99 570.584,-263.665 570.174,-267.141"/>
</g>
<!-- topo.command.analysis.save_plotgroup -->
<g id="node35" class="node"><title>topo.command.analysis.save_plotgroup</title>
<polygon fill="none" stroke="black" stroke-width="0.5" points="765,-248.5 557,-248.5 557,-227.5 765,-227.5 765,-248.5"/>
<text text-anchor="middle" x="661" y="-235.5" font-family="Vera" font-size="10.00">topo.command.analysis.save_plotgroup</text>
</g>
<!-- param.parameterized.ParameterizedFunction&#45;&gt;topo.command.analysis.save_plotgroup -->
<g id="edge30" class="edge"><title>param.parameterized.ParameterizedFunction&#45;&gt;topo.command.analysis.save_plotgroup</title>
<path fill="none" stroke="black" stroke-width="0.5" d="M464.369,-238C492.984,-238 523.479,-238 551.702,-238"/>
<polygon fill="black" stroke="black" points="551.945,-239.75 556.945,-238 551.945,-236.25 551.945,-239.75"/>
</g>
<!-- topo.analysis.featureresponses.PatternPresentingCommand -->
<g id="node42" class="node"><title>topo.analysis.featureresponses.PatternPresentingCommand</title>
<polygon fill="none" stroke="black" stroke-width="0.5" points="813,-210.5 509,-210.5 509,-189.5 813,-189.5 813,-210.5"/>
<text text-anchor="middle" x="661" y="-197.5" font-family="Vera" font-size="10.00">topo.analysis.featureresponses.PatternPresentingCommand</text>
</g>
<!-- param.parameterized.ParameterizedFunction&#45;&gt;topo.analysis.featureresponses.PatternPresentingCommand -->
<g id="edge46" class="edge"><title>param.parameterized.ParameterizedFunction&#45;&gt;topo.analysis.featureresponses.PatternPresentingCommand</title>
<path fill="none" stroke="black" stroke-width="0.5" d="M426.793,-227.998C450.364,-225.068 476.218,-221.88 500,-219 522.73,-216.248 547.271,-213.326 570.177,-210.62"/>
<polygon fill="black" stroke="black" points="570.584,-212.335 575.345,-210.01 570.174,-208.859 570.584,-212.335"/>
</g>
<!-- topo.analysis.featureresponses.FeatureResponses -->
<g id="node23" class="node"><title>topo.analysis.featureresponses.FeatureResponses</title>
<polygon fill="none" stroke="black" stroke-width="0.5" points="1140,-286.5 884,-286.5 884,-265.5 1140,-265.5 1140,-286.5"/>
<text text-anchor="middle" x="1012" y="-273.5" font-family="Vera" font-size="10.00">topo.analysis.featureresponses.FeatureResponses</text>
</g>
<!-- topo.command.analysis.measure_activity -->
<g id="node26" class="node"><title>topo.command.analysis.measure_activity</title>
<polygon fill="none" stroke="black" stroke-width="0.5" points="1488,-305.5 1272,-305.5 1272,-284.5 1488,-284.5 1488,-305.5"/>
<text text-anchor="middle" x="1380" y="-292.5" font-family="Vera" font-size="10.00">topo.command.analysis.measure_activity</text>
</g>
<!-- topo.analysis.featureresponses.FeatureResponses&#45;&gt;topo.command.analysis.measure_activity -->
<g id="edge22" class="edge"><title>topo.analysis.featureresponses.FeatureResponses&#45;&gt;topo.command.analysis.measure_activity</title>
<path fill="none" stroke="black" stroke-width="0.5" d="M1140.71,-282.645C1181.67,-284.76 1226.66,-287.083 1266.47,-289.138"/>
<polygon fill="black" stroke="black" points="1266.72,-290.903 1271.8,-289.414 1266.9,-287.408 1266.72,-290.903"/>
</g>
<!-- topo.base.functionfamily.PatternDrivenAnalysis&#45;&gt;topo.analysis.featureresponses.FeatureResponses -->
<g id="edge20" class="edge"><title>topo.base.functionfamily.PatternDrivenAnalysis&#45;&gt;topo.analysis.featureresponses.FeatureResponses</title>
<path fill="none" stroke="black" stroke-width="0.5" d="M781.303,-276C812.573,-276 846.446,-276 878.359,-276"/>
<polygon fill="black" stroke="black" points="878.463,-277.75 883.463,-276 878.463,-274.25 878.463,-277.75"/>
</g>
<!-- topo.command.analysis.log_frequency_mapper -->
<g id="node32" class="node"><title>topo.command.analysis.log_frequency_mapper</title>
<polygon fill="none" stroke="black" stroke-width="0.5" points="783,-172.5 539,-172.5 539,-151.5 783,-151.5 783,-172.5"/>
<text text-anchor="middle" x="661" y="-159.5" font-family="Vera" font-size="10.00">topo.command.analysis.log_frequency_mapper</text>
</g>
<!-- imagen.patterngenerator.PatternGenerator&#45;&gt;topo.command.analysis.log_frequency_mapper -->
<g id="edge28" class="edge"><title>imagen.patterngenerator.PatternGenerator&#45;&gt;topo.command.analysis.log_frequency_mapper</title>
<path fill="none" stroke="black" stroke-width="0.5" d="M459.031,-149.779C483.203,-151.242 508.927,-152.798 533.635,-154.293"/>
<polygon fill="black" stroke="black" points="533.794,-156.056 538.891,-154.611 534.006,-152.562 533.794,-156.056"/>
</g>
<!-- topo.command.analysis.latency_mapper -->
<g id="node48" class="node"><title>topo.command.analysis.latency_mapper</title>
<polygon fill="none" stroke="black" stroke-width="0.5" points="767,-134.5 555,-134.5 555,-113.5 767,-113.5 767,-134.5"/>
<text text-anchor="middle" x="661" y="-121.5" font-family="Vera" font-size="10.00">topo.command.analysis.latency_mapper</text>
</g>
<!-- imagen.patterngenerator.PatternGenerator&#45;&gt;topo.command.analysis.latency_mapper -->
<g id="edge44" class="edge"><title>imagen.patterngenerator.PatternGenerator&#45;&gt;topo.command.analysis.latency_mapper</title>
<path fill="none" stroke="black" stroke-width="0.5" d="M459.031,-136.221C488.501,-134.438 520.279,-132.515 549.709,-130.734"/>
<polygon fill="black" stroke="black" points="549.907,-132.475 554.792,-130.427 549.696,-128.982 549.907,-132.475"/>
</g>
<!-- topo.command.analysis.frequency_mapper -->
<g id="node66" class="node"><title>topo.command.analysis.frequency_mapper</title>
<polygon fill="none" stroke="black" stroke-width="0.5" points="773,-96.5 549,-96.5 549,-75.5 773,-75.5 773,-96.5"/>
<text text-anchor="middle" x="661" y="-83.5" font-family="Vera" font-size="10.00">topo.command.analysis.frequency_mapper</text>
</g>
<!-- imagen.patterngenerator.PatternGenerator&#45;&gt;topo.command.analysis.frequency_mapper -->
<g id="edge66" class="edge"><title>imagen.patterngenerator.PatternGenerator&#45;&gt;topo.command.analysis.frequency_mapper</title>
<path fill="none" stroke="black" stroke-width="0.5" d="M429.959,-132.969C441.538,-130.577 453.171,-127.629 464,-124 481.154,-118.252 482.725,-110.373 500,-105 513.884,-100.682 528.721,-97.3325 543.56,-94.7372"/>
<polygon fill="black" stroke="black" points="543.954,-96.4455 548.591,-93.8856 543.369,-92.9946 543.954,-96.4455"/>
</g>
<!-- topo.analysis.featureresponses.PatternPresentingCommand&#45;&gt;topo.analysis.featureresponses.MeasureResponseCommand -->
<g id="edge38" class="edge"><title>topo.analysis.featureresponses.PatternPresentingCommand&#45;&gt;topo.analysis.featureresponses.MeasureResponseCommand</title>
<path fill="none" stroke="black" stroke-width="0.5" d="M813.677,-191.735C826.734,-191.029 839.963,-190.313 853.067,-189.603"/>
<polygon fill="black" stroke="black" points="853.38,-191.339 858.278,-189.321 853.19,-187.844 853.38,-191.339"/>
</g>
<!-- topo.command.analysis.measure_rfs -->
<g id="node57" class="node"><title>topo.command.analysis.measure_rfs</title>
<polygon fill="none" stroke="black" stroke-width="0.5" points="1826,-20.5 1632,-20.5 1632,0.5 1826,0.5 1826,-20.5"/>
<text text-anchor="middle" x="1729" y="-7.5" font-family="Vera" font-size="10.00">topo.command.analysis.measure_rfs</text>
</g>
<!-- topo.analysis.featureresponses.SingleInputResponseCommand&#45;&gt;topo.command.analysis.measure_rfs -->
<g id="edge56" class="edge"><title>topo.analysis.featureresponses.SingleInputResponseCommand&#45;&gt;topo.command.analysis.measure_rfs</title>
<path fill="none" stroke="black" stroke-width="0.5" d="M1500.59,-28.9792C1541.61,-25.5714 1587.02,-21.7975 1626.48,-18.5185"/>
<polygon fill="black" stroke="black" points="1626.92,-20.238 1631.76,-18.0799 1626.63,-16.75 1626.92,-20.238"/>
</g>
</g>
</svg>
