<?xml version="1.0" encoding="UTF-8" standalone="no"?>
<!DOCTYPE svg PUBLIC "-//W3C//DTD SVG 1.1//EN"
 "http://www.w3.org/Graphics/SVG/1.1/DTD/svg11.dtd">
<!-- Generated by graphviz version 2.26.3 (20100126.1600)
 -->
<!-- Title: inheritance273a80740e Pages: 1 -->
<svg width="876pt" height="940pt"
 viewBox="0.00 0.00 876.00 940.00" xmlns="http://www.w3.org/2000/svg" xmlns:xlink="http://www.w3.org/1999/xlink">
<g id="graph1" class="graph" transform="scale(1 1) rotate(0) translate(4 936)">
<title>inheritance273a80740e</title>
<polygon fill="white" stroke="white" points="-4,5 -4,-936 873,-936 873,5 -4,5"/>
<!-- imagen.Arc -->
<g id="node1" class="node"><title>imagen.Arc</title>
<polygon fill="none" stroke="black" stroke-width="0.5" points="617,-894.5 547,-894.5 547,-873.5 617,-873.5 617,-894.5"/>
<text text-anchor="middle" x="582" y="-881.5" font-family="Vera" font-size="10.00">imagen.Arc</text>
</g>
<!-- imagen.Curve -->
<g id="node47" class="node"><title>imagen.Curve</title>
<polygon fill="none" stroke="black" stroke-width="0.5" points="830,-894.5 748,-894.5 748,-873.5 830,-873.5 830,-894.5"/>
<text text-anchor="middle" x="789" y="-881.5" font-family="Vera" font-size="10.00">imagen.Curve</text>
</g>
<!-- imagen.Arc&#45;&gt;imagen.Curve -->
<g id="edge44" class="edge"><title>imagen.Arc&#45;&gt;imagen.Curve</title>
<path fill="none" stroke="black" stroke-width="0.5" d="M617.585,-884C652.1,-884 704.658,-884 742.474,-884"/>
<polygon fill="black" stroke="black" points="742.476,-885.75 747.476,-884 742.476,-882.25 742.476,-885.75"/>
</g>
<!-- imagen.patterngenerator.PatternGenerator -->
<g id="node2" class="node"><title>imagen.patterngenerator.PatternGenerator</title>
<polygon fill="none" stroke="black" stroke-width="0.5" points="454,-457.5 230,-457.5 230,-436.5 454,-436.5 454,-457.5"/>
<text text-anchor="middle" x="342" y="-444.5" font-family="Vera" font-size="10.00">imagen.patterngenerator.PatternGenerator</text>
</g>
<!-- imagen.patterngenerator.PatternGenerator&#45;&gt;imagen.Arc -->
<g id="edge2" class="edge"><title>imagen.patterngenerator.PatternGenerator&#45;&gt;imagen.Arc</title>
<path fill="none" stroke="black" stroke-width="0.5" d="M344.205,-457.259C356.982,-515.776 423.271,-806.818 490,-865 503.925,-877.142 523.541,-882.258 541.085,-884.19"/>
<polygon fill="black" stroke="black" points="541.313,-885.968 546.454,-884.691 541.638,-882.484 541.313,-885.968"/>
</g>
<!-- imagen.ExponentialDecay -->
<g id="node4" class="node"><title>imagen.ExponentialDecay</title>
<polygon fill="none" stroke="black" stroke-width="0.5" points="652,-856.5 512,-856.5 512,-835.5 652,-835.5 652,-856.5"/>
<text text-anchor="middle" x="582" y="-843.5" font-family="Vera" font-size="10.00">imagen.ExponentialDecay</text>
</g>
<!-- imagen.patterngenerator.PatternGenerator&#45;&gt;imagen.ExponentialDecay -->
<g id="edge4" class="edge"><title>imagen.patterngenerator.PatternGenerator&#45;&gt;imagen.ExponentialDecay</title>
<path fill="none" stroke="black" stroke-width="0.5" d="M342.586,-457.178C346.009,-506.641 367.778,-723.734 490,-827 494.964,-831.194 500.611,-834.543 506.609,-837.207"/>
<polygon fill="black" stroke="black" points="505.968,-838.836 511.258,-839.115 507.296,-835.598 505.968,-838.836"/>
</g>
<!-- imagen.Selector -->
<g id="node7" class="node"><title>imagen.Selector</title>
<polygon fill="none" stroke="black" stroke-width="0.5" points="629,-818.5 535,-818.5 535,-797.5 629,-797.5 629,-818.5"/>
<text text-anchor="middle" x="582" y="-805.5" font-family="Vera" font-size="10.00">imagen.Selector</text>
</g>
<!-- imagen.patterngenerator.PatternGenerator&#45;&gt;imagen.Selector -->
<g id="edge6" class="edge"><title>imagen.patterngenerator.PatternGenerator&#45;&gt;imagen.Selector</title>
<path fill="none" stroke="black" stroke-width="0.5" d="M343.054,-457.096C348.456,-503.427 377.339,-697.332 490,-789 501.042,-797.984 515.248,-803.051 529.178,-805.827"/>
<polygon fill="black" stroke="black" points="529.061,-807.584 534.292,-806.749 529.682,-804.139 529.061,-807.584"/>
</g>
<!-- imagen.HalfPlane -->
<g id="node12" class="node"><title>imagen.HalfPlane</title>
<polygon fill="none" stroke="black" stroke-width="0.5" points="632,-780.5 532,-780.5 532,-759.5 632,-759.5 632,-780.5"/>
<text text-anchor="middle" x="582" y="-767.5" font-family="Vera" font-size="10.00">imagen.HalfPlane</text>
</g>
<!-- imagen.patterngenerator.PatternGenerator&#45;&gt;imagen.HalfPlane -->
<g id="edge10" class="edge"><title>imagen.patterngenerator.PatternGenerator&#45;&gt;imagen.HalfPlane</title>
<path fill="none" stroke="black" stroke-width="0.5" d="M343.642,-457.137C351.211,-500.38 386.877,-670.851 490,-751 500.345,-759.04 513.257,-763.905 526.107,-766.796"/>
<polygon fill="black" stroke="black" points="525.964,-768.554 531.214,-767.846 526.669,-765.125 525.964,-768.554"/>
</g>
<!-- imagen.patterngenerator.Constant -->
<g id="node14" class="node"><title>imagen.patterngenerator.Constant</title>
<polygon fill="none" stroke="black" stroke-width="0.5" points="674,-742.5 490,-742.5 490,-721.5 674,-721.5 674,-742.5"/>
<text text-anchor="middle" x="582" y="-729.5" font-family="Vera" font-size="10.00">imagen.patterngenerator.Constant</text>
</g>
<!-- imagen.patterngenerator.PatternGenerator&#45;&gt;imagen.patterngenerator.Constant -->
<g id="edge12" class="edge"><title>imagen.patterngenerator.PatternGenerator&#45;&gt;imagen.patterngenerator.Constant</title>
<path fill="none" stroke="black" stroke-width="0.5" d="M344.397,-457.219C354.341,-497.199 396.286,-644.188 490,-713 493.496,-715.567 497.258,-717.806 501.194,-719.757"/>
<polygon fill="black" stroke="black" points="500.615,-721.416 505.889,-721.917 502.078,-718.237 500.615,-721.416"/>
</g>
<!-- imagen.RawRectangle -->
<g id="node16" class="node"><title>imagen.RawRectangle</title>
<polygon fill="none" stroke="black" stroke-width="0.5" points="642,-704.5 522,-704.5 522,-683.5 642,-683.5 642,-704.5"/>
<text text-anchor="middle" x="582" y="-691.5" font-family="Vera" font-size="10.00">imagen.RawRectangle</text>
</g>
<!-- imagen.patterngenerator.PatternGenerator&#45;&gt;imagen.RawRectangle -->
<g id="edge14" class="edge"><title>imagen.patterngenerator.PatternGenerator&#45;&gt;imagen.RawRectangle</title>
<path fill="none" stroke="black" stroke-width="0.5" d="M345.371,-457.24C357.895,-493.576 405.443,-617.232 490,-675 497.913,-680.406 507.04,-684.331 516.407,-687.171"/>
<polygon fill="black" stroke="black" points="516.034,-688.884 521.322,-688.559 516.986,-685.516 516.034,-688.884"/>
</g>
<!-- imagen.Gabor -->
<g id="node18" class="node"><title>imagen.Gabor</title>
<polygon fill="none" stroke="black" stroke-width="0.5" points="624,-666.5 540,-666.5 540,-645.5 624,-645.5 624,-666.5"/>
<text text-anchor="middle" x="582" y="-653.5" font-family="Vera" font-size="10.00">imagen.Gabor</text>
</g>
<!-- imagen.patterngenerator.PatternGenerator&#45;&gt;imagen.Gabor -->
<g id="edge16" class="edge"><title>imagen.patterngenerator.PatternGenerator&#45;&gt;imagen.Gabor</title>
<path fill="none" stroke="black" stroke-width="0.5" d="M346.723,-457.3C362.136,-489.668 414.37,-589.969 490,-637 503.19,-645.202 519.298,-649.931 534.328,-652.636"/>
<polygon fill="black" stroke="black" points="534.158,-654.382 539.378,-653.478 534.734,-650.93 534.158,-654.382"/>
</g>
<!-- imagen.SquareGrating -->
<g id="node20" class="node"><title>imagen.SquareGrating</title>
<polygon fill="none" stroke="black" stroke-width="0.5" points="644,-628.5 520,-628.5 520,-607.5 644,-607.5 644,-628.5"/>
<text text-anchor="middle" x="582" y="-615.5" font-family="Vera" font-size="10.00">imagen.SquareGrating</text>
</g>
<!-- imagen.patterngenerator.PatternGenerator&#45;&gt;imagen.SquareGrating -->
<g id="edge18" class="edge"><title>imagen.patterngenerator.PatternGenerator&#45;&gt;imagen.SquareGrating</title>
<path fill="none" stroke="black" stroke-width="0.5" d="M348.572,-457.145C367.101,-484.853 422.812,-562.191 490,-599 497.462,-603.088 505.704,-606.299 514.098,-608.821"/>
<polygon fill="black" stroke="black" points="514.05,-610.626 519.338,-610.304 515.003,-607.258 514.05,-610.626"/>
</g>
<!-- imagen.Sweeper -->
<g id="node22" class="node"><title>imagen.Sweeper</title>
<polygon fill="none" stroke="black" stroke-width="0.5" points="630,-590.5 534,-590.5 534,-569.5 630,-569.5 630,-590.5"/>
<text text-anchor="middle" x="582" y="-577.5" font-family="Vera" font-size="10.00">imagen.Sweeper</text>
</g>
<!-- imagen.patterngenerator.PatternGenerator&#45;&gt;imagen.Sweeper -->
<g id="edge20" class="edge"><title>imagen.patterngenerator.PatternGenerator&#45;&gt;imagen.Sweeper</title>
<path fill="none" stroke="black" stroke-width="0.5" d="M351.684,-457.097C373.872,-479.589 431.039,-533.959 490,-561 501.909,-566.462 515.404,-570.367 528.317,-573.154"/>
<polygon fill="black" stroke="black" points="528.172,-574.911 533.423,-574.206 528.879,-571.483 528.172,-574.911"/>
</g>
<!-- imagen.PowerSpectrum -->
<g id="node24" class="node"><title>imagen.PowerSpectrum</title>
<polygon fill="none" stroke="black" stroke-width="0.5" points="647,-552.5 517,-552.5 517,-531.5 647,-531.5 647,-552.5"/>
<text text-anchor="middle" x="582" y="-539.5" font-family="Vera" font-size="10.00">imagen.PowerSpectrum</text>
</g>
<!-- imagen.patterngenerator.PatternGenerator&#45;&gt;imagen.PowerSpectrum -->
<g id="edge22" class="edge"><title>imagen.patterngenerator.PatternGenerator&#45;&gt;imagen.PowerSpectrum</title>
<path fill="none" stroke="black" stroke-width="0.5" d="M358.209,-457.194C384.757,-473.453 439.606,-505.229 490,-523 498.435,-525.975 507.479,-528.547 516.483,-530.752"/>
<polygon fill="black" stroke="black" points="516.208,-532.486 521.477,-531.94 517.018,-529.081 516.208,-532.486"/>
</g>
<!-- imagen.Disk -->
<g id="node26" class="node"><title>imagen.Disk</title>
<polygon fill="none" stroke="black" stroke-width="0.5" points="620,-514.5 544,-514.5 544,-493.5 620,-493.5 620,-514.5"/>
<text text-anchor="middle" x="582" y="-501.5" font-family="Vera" font-size="10.00">imagen.Disk</text>
</g>
<!-- imagen.patterngenerator.PatternGenerator&#45;&gt;imagen.Disk -->
<g id="edge24" class="edge"><title>imagen.patterngenerator.PatternGenerator&#45;&gt;imagen.Disk</title>
<path fill="none" stroke="black" stroke-width="0.5" d="M378.982,-457.017C408.848,-464.981 452.009,-476.205 490,-485 505.846,-488.668 523.307,-492.362 538.721,-495.504"/>
<polygon fill="black" stroke="black" points="538.616,-497.269 543.864,-496.548 539.312,-493.839 538.616,-497.269"/>
</g>
<!-- imagen.Translator -->
<g id="node28" class="node"><title>imagen.Translator</title>
<polygon fill="none" stroke="black" stroke-width="0.5" points="633,-476.5 531,-476.5 531,-455.5 633,-455.5 633,-476.5"/>
<text text-anchor="middle" x="582" y="-463.5" font-family="Vera" font-size="10.00">imagen.Translator</text>
</g>
<!-- imagen.patterngenerator.PatternGenerator&#45;&gt;imagen.Translator -->
<g id="edge26" class="edge"><title>imagen.patterngenerator.PatternGenerator&#45;&gt;imagen.Translator</title>
<path fill="none" stroke="black" stroke-width="0.5" d="M454.27,-455.888C479.118,-457.855 504.409,-459.857 525.859,-461.556"/>
<polygon fill="black" stroke="black" points="525.819,-463.308 530.942,-461.958 526.095,-459.819 525.819,-463.308"/>
</g>
<!-- imagen.LogGaussian -->
<g id="node34" class="node"><title>imagen.LogGaussian</title>
<polygon fill="none" stroke="black" stroke-width="0.5" points="640,-438.5 524,-438.5 524,-417.5 640,-417.5 640,-438.5"/>
<text text-anchor="middle" x="582" y="-425.5" font-family="Vera" font-size="10.00">imagen.LogGaussian</text>
</g>
<!-- imagen.patterngenerator.PatternGenerator&#45;&gt;imagen.LogGaussian -->
<g id="edge32" class="edge"><title>imagen.patterngenerator.PatternGenerator&#45;&gt;imagen.LogGaussian</title>
<path fill="none" stroke="black" stroke-width="0.5" d="M454.27,-438.112C476.22,-436.374 498.517,-434.609 518.205,-433.05"/>
<polygon fill="black" stroke="black" points="518.573,-434.777 523.419,-432.638 518.296,-431.288 518.573,-434.777"/>
</g>
<!-- imagen.SigmoidedDoG -->
<g id="node36" class="node"><title>imagen.SigmoidedDoG</title>
<polygon fill="none" stroke="black" stroke-width="0.5" points="646,-400.5 518,-400.5 518,-379.5 646,-379.5 646,-400.5"/>
<text text-anchor="middle" x="582" y="-387.5" font-family="Vera" font-size="10.00">imagen.SigmoidedDoG</text>
</g>
<!-- imagen.patterngenerator.PatternGenerator&#45;&gt;imagen.SigmoidedDoG -->
<g id="edge34" class="edge"><title>imagen.patterngenerator.PatternGenerator&#45;&gt;imagen.SigmoidedDoG</title>
<path fill="none" stroke="black" stroke-width="0.5" d="M420.515,-436.949C431.895,-434.553 443.353,-431.609 454,-428 471.134,-422.192 472.972,-415.112 490,-409 498.289,-406.024 507.175,-403.459 516.037,-401.263"/>
<polygon fill="black" stroke="black" points="516.501,-402.951 520.953,-400.08 515.683,-399.548 516.501,-402.951"/>
</g>
<!-- imagen.SigmoidedDoLG -->
<g id="node38" class="node"><title>imagen.SigmoidedDoLG</title>
<polygon fill="none" stroke="black" stroke-width="0.5" points="648,-362.5 516,-362.5 516,-341.5 648,-341.5 648,-362.5"/>
<text text-anchor="middle" x="582" y="-349.5" font-family="Vera" font-size="10.00">imagen.SigmoidedDoLG</text>
</g>
<!-- imagen.patterngenerator.PatternGenerator&#45;&gt;imagen.SigmoidedDoLG -->
<g id="edge36" class="edge"><title>imagen.patterngenerator.PatternGenerator&#45;&gt;imagen.SigmoidedDoLG</title>
<path fill="none" stroke="black" stroke-width="0.5" d="M436.846,-436.968C442.881,-434.512 448.666,-431.554 454,-428 478.935,-411.386 465.365,-388.056 490,-371 496.101,-366.776 502.94,-363.453 510.061,-360.845"/>
<polygon fill="black" stroke="black" points="510.863,-362.42 515.031,-359.151 509.733,-359.108 510.863,-362.42"/>
</g>
<!-- imagen.GaussiansCorner -->
<g id="node40" class="node"><title>imagen.GaussiansCorner</title>
<polygon fill="none" stroke="black" stroke-width="0.5" points="650,-324.5 514,-324.5 514,-303.5 650,-303.5 650,-324.5"/>
<text text-anchor="middle" x="582" y="-311.5" font-family="Vera" font-size="10.00">imagen.GaussiansCorner</text>
</g>
<!-- imagen.patterngenerator.PatternGenerator&#45;&gt;imagen.GaussiansCorner -->
<g id="edge38" class="edge"><title>imagen.patterngenerator.PatternGenerator&#45;&gt;imagen.GaussiansCorner</title>
<path fill="none" stroke="black" stroke-width="0.5" d="M440.125,-436.98C445.063,-434.476 449.735,-431.508 454,-428 488.872,-399.318 455.644,-362.298 490,-333 495.445,-328.357 501.725,-324.747 508.396,-321.953"/>
<polygon fill="black" stroke="black" points="509.038,-323.581 513.07,-320.146 507.776,-320.316 509.038,-323.581"/>
</g>
<!-- imagen.Gaussian -->
<g id="node42" class="node"><title>imagen.Gaussian</title>
<polygon fill="none" stroke="black" stroke-width="0.5" points="632,-286.5 532,-286.5 532,-265.5 632,-265.5 632,-286.5"/>
<text text-anchor="middle" x="582" y="-273.5" font-family="Vera" font-size="10.00">imagen.Gaussian</text>
</g>
<!-- imagen.patterngenerator.PatternGenerator&#45;&gt;imagen.Gaussian -->
<g id="edge40" class="edge"><title>imagen.patterngenerator.PatternGenerator&#45;&gt;imagen.Gaussian</title>
<path fill="none" stroke="black" stroke-width="0.5" d="M441.576,-436.896C446.023,-434.39 450.204,-431.447 454,-428 499.336,-386.832 445.404,-336.968 490,-295 500.049,-285.543 513.505,-280.262 527.018,-277.429"/>
<polygon fill="black" stroke="black" points="527.403,-279.137 531.993,-276.493 526.756,-275.698 527.403,-279.137"/>
</g>
<!-- imagen.Rectangle -->
<g id="node45" class="node"><title>imagen.Rectangle</title>
<polygon fill="none" stroke="black" stroke-width="0.5" points="633,-248.5 531,-248.5 531,-227.5 633,-227.5 633,-248.5"/>
<text text-anchor="middle" x="582" y="-235.5" font-family="Vera" font-size="10.00">imagen.Rectangle</text>
</g>
<!-- imagen.patterngenerator.PatternGenerator&#45;&gt;imagen.Rectangle -->
<g id="edge50" class="edge"><title>imagen.patterngenerator.PatternGenerator&#45;&gt;imagen.Rectangle</title>
<path fill="none" stroke="black" stroke-width="0.5" d="M442.322,-436.855C446.517,-434.348 450.445,-431.417 454,-428 509.991,-374.176 434.977,-311.813 490,-257 499.486,-247.55 512.351,-242.207 525.45,-239.309"/>
<polygon fill="black" stroke="black" points="526.105,-240.964 530.672,-238.28 525.428,-237.53 526.105,-240.964"/>
</g>
<!-- imagen.Composite -->
<g id="node51" class="node"><title>imagen.Composite</title>
<polygon fill="none" stroke="black" stroke-width="0.5" points="635,-210.5 529,-210.5 529,-189.5 635,-189.5 635,-210.5"/>
<text text-anchor="middle" x="582" y="-197.5" font-family="Vera" font-size="10.00">imagen.Composite</text>
</g>
<!-- imagen.patterngenerator.PatternGenerator&#45;&gt;imagen.Composite -->
<g id="edge66" class="edge"><title>imagen.patterngenerator.PatternGenerator&#45;&gt;imagen.Composite</title>
<path fill="none" stroke="black" stroke-width="0.5" d="M442.975,-436.706C446.942,-434.226 450.649,-431.343 454,-428 520.734,-361.435 424.462,-286.743 490,-219 498.81,-209.894 510.745,-204.565 523.098,-201.559"/>
<polygon fill="black" stroke="black" points="523.521,-203.258 528.033,-200.481 522.774,-199.838 523.521,-203.258"/>
</g>
<!-- imagen.Line -->
<g id="node54" class="node"><title>imagen.Line</title>
<polygon fill="none" stroke="black" stroke-width="0.5" points="619,-172.5 545,-172.5 545,-151.5 619,-151.5 619,-172.5"/>
<text text-anchor="middle" x="582" y="-159.5" font-family="Vera" font-size="10.00">imagen.Line</text>
</g>
<!-- imagen.patterngenerator.PatternGenerator&#45;&gt;imagen.Line -->
<g id="edge52" class="edge"><title>imagen.patterngenerator.PatternGenerator&#45;&gt;imagen.Line</title>
<path fill="none" stroke="black" stroke-width="0.5" d="M443.082,-436.812C447.02,-434.304 450.692,-431.386 454,-428 531.525,-348.646 413.9,-261.722 490,-181 502.471,-167.772 521.524,-162.461 539.063,-160.681"/>
<polygon fill="black" stroke="black" points="539.609,-162.392 544.449,-160.237 539.322,-158.904 539.609,-162.392"/>
</g>
<!-- imagen.SineGrating -->
<g id="node56" class="node"><title>imagen.SineGrating</title>
<polygon fill="none" stroke="black" stroke-width="0.5" points="638,-134.5 526,-134.5 526,-113.5 638,-113.5 638,-134.5"/>
<text text-anchor="middle" x="582" y="-121.5" font-family="Vera" font-size="10.00">imagen.SineGrating</text>
</g>
<!-- imagen.patterngenerator.PatternGenerator&#45;&gt;imagen.SineGrating -->
<g id="edge54" class="edge"><title>imagen.patterngenerator.PatternGenerator&#45;&gt;imagen.SineGrating</title>
<path fill="none" stroke="black" stroke-width="0.5" d="M443.162,-436.889C447.079,-434.361 450.725,-431.417 454,-428 542.345,-335.828 403.31,-236.73 490,-143 498.139,-134.2 509.189,-128.886 520.806,-125.783"/>
<polygon fill="black" stroke="black" points="521.358,-127.451 525.813,-124.585 520.543,-124.047 521.358,-127.451"/>
</g>
<!-- imagen.Ring -->
<g id="node62" class="node"><title>imagen.Ring</title>
<polygon fill="none" stroke="black" stroke-width="0.5" points="620,-96.5 544,-96.5 544,-75.5 620,-75.5 620,-96.5"/>
<text text-anchor="middle" x="582" y="-83.5" font-family="Vera" font-size="10.00">imagen.Ring</text>
</g>
<!-- imagen.patterngenerator.PatternGenerator&#45;&gt;imagen.Ring -->
<g id="edge60" class="edge"><title>imagen.patterngenerator.PatternGenerator&#45;&gt;imagen.Ring</title>
<path fill="none" stroke="black" stroke-width="0.5" d="M443.223,-436.948C447.125,-434.404 450.75,-431.441 454,-428 553.183,-322.991 392.702,-211.758 490,-105 502.146,-91.6726 520.961,-86.3131 538.419,-84.5249"/>
<polygon fill="black" stroke="black" points="538.946,-86.2372 543.785,-84.0797 538.657,-82.7492 538.946,-86.2372"/>
</g>
<!-- imagen.Sigmoid -->
<g id="node64" class="node"><title>imagen.Sigmoid</title>
<polygon fill="none" stroke="black" stroke-width="0.5" points="629,-58.5 535,-58.5 535,-37.5 629,-37.5 629,-58.5"/>
<text text-anchor="middle" x="582" y="-45.5" font-family="Vera" font-size="10.00">imagen.Sigmoid</text>
</g>
<!-- imagen.patterngenerator.PatternGenerator&#45;&gt;imagen.Sigmoid -->
<g id="edge62" class="edge"><title>imagen.patterngenerator.PatternGenerator&#45;&gt;imagen.Sigmoid</title>
<path fill="none" stroke="black" stroke-width="0.5" d="M443.273,-436.994C447.161,-434.438 450.77,-431.46 454,-428 509.017,-369.07 436.041,-126.9 490,-67 500.003,-55.8953 514.634,-50.3062 529.297,-47.7068"/>
<polygon fill="black" stroke="black" points="529.592,-49.4321 534.265,-46.9363 529.055,-45.9735 529.592,-49.4321"/>
</g>
<!-- imagen.DifferenceOfGaussians -->
<g id="node66" class="node"><title>imagen.DifferenceOfGaussians</title>
<polygon fill="none" stroke="black" stroke-width="0.5" points="664,-20.5 500,-20.5 500,0.5 664,0.5 664,-20.5"/>
<text text-anchor="middle" x="582" y="-7.5" font-family="Vera" font-size="10.00">imagen.DifferenceOfGaussians</text>
</g>
<!-- imagen.patterngenerator.PatternGenerator&#45;&gt;imagen.DifferenceOfGaussians -->
<g id="edge64" class="edge"><title>imagen.patterngenerator.PatternGenerator&#45;&gt;imagen.DifferenceOfGaussians</title>
<path fill="none" stroke="black" stroke-width="0.5" d="M443.796,-436.709C447.49,-434.215 450.92,-431.33 454,-428 514.447,-362.64 430.726,-95.426 490,-29 491.9,-26.8704 493.971,-24.9432 496.179,-23.2007"/>
<polygon fill="black" stroke="black" points="497.245,-24.5901 500.296,-20.2597 495.21,-21.7421 497.245,-24.5901"/>
</g>
<!-- param.parameterized.Parameterized -->
<g id="node6" class="node"><title>param.parameterized.Parameterized</title>
<polygon fill="none" stroke="black" stroke-width="0.5" points="194,-438.5 5.68434e-14,-438.5 0,-417.5 194,-417.5 194,-438.5"/>
<text text-anchor="middle" x="97" y="-425.5" font-family="Vera" font-size="10.00">param.parameterized.Parameterized</text>
</g>
<!-- param.parameterized.Parameterized&#45;&gt;imagen.patterngenerator.PatternGenerator -->
<g id="edge46" class="edge"><title>param.parameterized.Parameterized&#45;&gt;imagen.patterngenerator.PatternGenerator</title>
<path fill="none" stroke="black" stroke-width="0.5" d="M194.182,-435.537C204.286,-436.32 214.629,-437.122 224.922,-437.92"/>
<polygon fill="black" stroke="black" points="224.849,-439.67 229.969,-438.312 225.12,-436.18 224.849,-439.67"/>
</g>
<!-- imagen.TimeSeries -->
<g id="node71" class="node"><title>imagen.TimeSeries</title>
<polygon fill="none" stroke="black" stroke-width="0.5" points="396,-419.5 288,-419.5 288,-398.5 396,-398.5 396,-419.5"/>
<text text-anchor="middle" x="342" y="-406.5" font-family="Vera" font-size="10.00">imagen.TimeSeries</text>
</g>
<!-- param.parameterized.Parameterized&#45;&gt;imagen.TimeSeries -->
<g id="edge70" class="edge"><title>param.parameterized.Parameterized&#45;&gt;imagen.TimeSeries</title>
<path fill="none" stroke="black" stroke-width="0.5" d="M194.182,-420.463C223.866,-418.161 255.624,-415.699 282.066,-413.648"/>
<polygon fill="black" stroke="black" points="282.431,-415.375 287.281,-413.244 282.161,-411.885 282.431,-415.375"/>
</g>
<!-- param.Selector -->
<g id="node9" class="node"><title>param.Selector</title>
<polygon fill="none" stroke="black" stroke-width="0.5" points="387,-932.5 297,-932.5 297,-911.5 387,-911.5 387,-932.5"/>
<text text-anchor="middle" x="342" y="-919.5" font-family="Vera" font-size="10.00">param.Selector</text>
</g>
<!-- param.ClassSelector -->
<g id="node30" class="node"><title>param.ClassSelector</title>
<polygon fill="none" stroke="black" stroke-width="0.5" points="640,-932.5 524,-932.5 524,-911.5 640,-911.5 640,-932.5"/>
<text text-anchor="middle" x="582" y="-919.5" font-family="Vera" font-size="10.00">param.ClassSelector</text>
</g>
<!-- param.Selector&#45;&gt;param.ClassSelector -->
<g id="edge28" class="edge"><title>param.Selector&#45;&gt;param.ClassSelector</title>
<path fill="none" stroke="black" stroke-width="0.5" d="M387.707,-922C424.748,-922 477.358,-922 518.494,-922"/>
<polygon fill="black" stroke="black" points="518.706,-923.75 523.706,-922 518.706,-920.25 518.706,-923.75"/>
</g>
<!-- param.parameterized.Parameter -->
<g id="node10" class="node"><title>param.parameterized.Parameter</title>
<polygon fill="none" stroke="black" stroke-width="0.5" points="184,-932.5 10,-932.5 10,-911.5 184,-911.5 184,-932.5"/>
<text text-anchor="middle" x="97" y="-919.5" font-family="Vera" font-size="10.00">param.parameterized.Parameter</text>
</g>
<!-- param.parameterized.Parameter&#45;&gt;param.Selector -->
<g id="edge8" class="edge"><title>param.parameterized.Parameter&#45;&gt;param.Selector</title>
<path fill="none" stroke="black" stroke-width="0.5" d="M184.759,-922C220.453,-922 260.436,-922 291.152,-922"/>
<polygon fill="black" stroke="black" points="291.387,-923.75 296.387,-922 291.387,-920.25 291.387,-923.75"/>
</g>
<!-- imagen.Null -->
<g id="node32" class="node"><title>imagen.Null</title>
<polygon fill="none" stroke="black" stroke-width="0.5" points="826,-742.5 752,-742.5 752,-721.5 826,-721.5 826,-742.5"/>
<text text-anchor="middle" x="789" y="-729.5" font-family="Vera" font-size="10.00">imagen.Null</text>
</g>
<!-- imagen.patterngenerator.Constant&#45;&gt;imagen.Null -->
<g id="edge30" class="edge"><title>imagen.patterngenerator.Constant&#45;&gt;imagen.Null</title>
<path fill="none" stroke="black" stroke-width="0.5" d="M674.3,-732C699.545,-732 725.69,-732 746.63,-732"/>
<polygon fill="black" stroke="black" points="746.839,-733.75 751.839,-732 746.838,-730.25 746.839,-733.75"/>
</g>
<!-- imagen.Spectrogram -->
<g id="node69" class="node"><title>imagen.Spectrogram</title>
<polygon fill="none" stroke="black" stroke-width="0.5" points="848,-552.5 730,-552.5 730,-531.5 848,-531.5 848,-552.5"/>
<text text-anchor="middle" x="789" y="-539.5" font-family="Vera" font-size="10.00">imagen.Spectrogram</text>
</g>
<!-- imagen.PowerSpectrum&#45;&gt;imagen.Spectrogram -->
<g id="edge68" class="edge"><title>imagen.PowerSpectrum&#45;&gt;imagen.Spectrogram</title>
<path fill="none" stroke="black" stroke-width="0.5" d="M647.781,-542C672.206,-542 699.878,-542 724.214,-542"/>
<polygon fill="black" stroke="black" points="724.354,-543.75 729.354,-542 724.354,-540.25 724.354,-543.75"/>
</g>
<!-- imagen.TimeSeriesParam -->
<g id="node58" class="node"><title>imagen.TimeSeriesParam</title>
<polygon fill="none" stroke="black" stroke-width="0.5" points="859,-932.5 719,-932.5 719,-911.5 859,-911.5 859,-932.5"/>
<text text-anchor="middle" x="789" y="-919.5" font-family="Vera" font-size="10.00">imagen.TimeSeriesParam</text>
</g>
<!-- param.ClassSelector&#45;&gt;imagen.TimeSeriesParam -->
<g id="edge56" class="edge"><title>param.ClassSelector&#45;&gt;imagen.TimeSeriesParam</title>
<path fill="none" stroke="black" stroke-width="0.5" d="M640.212,-922C662.986,-922 689.405,-922 713.606,-922"/>
<polygon fill="black" stroke="black" points="713.734,-923.75 718.734,-922 713.734,-920.25 713.734,-923.75"/>
</g>
<!-- imagen.TwoRectangles -->
<g id="node44" class="node"><title>imagen.TwoRectangles</title>
<polygon fill="none" stroke="black" stroke-width="0.5" points="851,-248.5 727,-248.5 727,-227.5 851,-227.5 851,-248.5"/>
<text text-anchor="middle" x="789" y="-235.5" font-family="Vera" font-size="10.00">imagen.TwoRectangles</text>
</g>
<!-- imagen.Rectangle&#45;&gt;imagen.TwoRectangles -->
<g id="edge42" class="edge"><title>imagen.Rectangle&#45;&gt;imagen.TwoRectangles</title>
<path fill="none" stroke="black" stroke-width="0.5" d="M633.169,-238C659.881,-238 692.903,-238 721.665,-238"/>
<polygon fill="black" stroke="black" points="721.983,-239.75 726.983,-238 721.983,-236.25 721.983,-239.75"/>
</g>
<!-- imagen.SeparatedComposite -->
<g id="node50" class="node"><title>imagen.SeparatedComposite</title>
<polygon fill="none" stroke="black" stroke-width="0.5" points="868,-210.5 710,-210.5 710,-189.5 868,-189.5 868,-210.5"/>
<text text-anchor="middle" x="789" y="-197.5" font-family="Vera" font-size="10.00">imagen.SeparatedComposite</text>
</g>
<!-- imagen.Composite&#45;&gt;imagen.SeparatedComposite -->
<g id="edge48" class="edge"><title>imagen.Composite&#45;&gt;imagen.SeparatedComposite</title>
<path fill="none" stroke="black" stroke-width="0.5" d="M635.577,-200C656.626,-200 681.297,-200 704.625,-200"/>
<polygon fill="black" stroke="black" points="704.893,-201.75 709.893,-200 704.892,-198.25 704.893,-201.75"/>
</g>
<!-- imagen.OrientationContrast -->
<g id="node60" class="node"><title>imagen.OrientationContrast</title>
<polygon fill="none" stroke="black" stroke-width="0.5" points="864,-134.5 714,-134.5 714,-113.5 864,-113.5 864,-134.5"/>
<text text-anchor="middle" x="789" y="-121.5" font-family="Vera" font-size="10.00">imagen.OrientationContrast</text>
</g>
<!-- imagen.SineGrating&#45;&gt;imagen.OrientationContrast -->
<g id="edge58" class="edge"><title>imagen.SineGrating&#45;&gt;imagen.OrientationContrast</title>
<path fill="none" stroke="black" stroke-width="0.5" d="M638.017,-124C659.815,-124 685.2,-124 708.866,-124"/>
<polygon fill="black" stroke="black" points="708.888,-125.75 713.888,-124 708.887,-122.25 708.888,-125.75"/>
</g>
</g>
</svg>
