<?xml version="1.0" encoding="UTF-8" standalone="no"?>
<!DOCTYPE svg PUBLIC "-//W3C//DTD SVG 1.1//EN"
 "http://www.w3.org/Graphics/SVG/1.1/DTD/svg11.dtd">
<!-- Generated by graphviz version 2.26.3 (20100126.1600)
 -->
<!-- Title: inheritance1f1dc666b6 Pages: 1 -->
<svg width="976pt" height="199pt"
 viewBox="0.00 0.00 976.00 199.00" xmlns="http://www.w3.org/2000/svg" xmlns:xlink="http://www.w3.org/1999/xlink">
<g id="graph1" class="graph" transform="scale(1 1) rotate(0) translate(4 195)">
<title>inheritance1f1dc666b6</title>
<polygon fill="white" stroke="white" points="-4,5 -4,-195 973,-195 973,5 -4,5"/>
<!-- topo.base.projection.AndMask -->
<g id="node1" class="node"><title>topo.base.projection.AndMask</title>
<polygon fill="none" stroke="black" stroke-width="0.5" points="951,-191.5 791,-191.5 791,-170.5 951,-170.5 951,-191.5"/>
<text text-anchor="middle" x="871" y="-178.5" font-family="Vera" font-size="10.00">topo.base.projection.AndMask</text>
</g>
<!-- topo.base.projection.CompositeSheetMask -->
<g id="node2" class="node"><title>topo.base.projection.CompositeSheetMask</title>
<polygon fill="none" stroke="black" stroke-width="0.5" points="737,-172.5 515,-172.5 515,-151.5 737,-151.5 737,-172.5"/>
<text text-anchor="middle" x="626" y="-159.5" font-family="Vera" font-size="10.00">topo.base.projection.CompositeSheetMask</text>
</g>
<!-- topo.base.projection.CompositeSheetMask&#45;&gt;topo.base.projection.AndMask -->
<g id="edge2" class="edge"><title>topo.base.projection.CompositeSheetMask&#45;&gt;topo.base.projection.AndMask</title>
<path fill="none" stroke="black" stroke-width="0.5" d="M737.746,-170.666C753.62,-171.897 769.737,-173.147 785.019,-174.332"/>
<polygon fill="black" stroke="black" points="785.047,-176.089 790.168,-174.731 785.318,-172.6 785.047,-176.089"/>
</g>
<!-- topo.base.projection.OrMask -->
<g id="node18" class="node"><title>topo.base.projection.OrMask</title>
<polygon fill="none" stroke="black" stroke-width="0.5" points="948,-153.5 794,-153.5 794,-132.5 948,-132.5 948,-153.5"/>
<text text-anchor="middle" x="871" y="-140.5" font-family="Vera" font-size="10.00">topo.base.projection.OrMask</text>
</g>
<!-- topo.base.projection.CompositeSheetMask&#45;&gt;topo.base.projection.OrMask -->
<g id="edge16" class="edge"><title>topo.base.projection.CompositeSheetMask&#45;&gt;topo.base.projection.OrMask</title>
<path fill="none" stroke="black" stroke-width="0.5" d="M737.746,-153.334C754.902,-152.004 772.341,-150.651 788.704,-149.382"/>
<polygon fill="black" stroke="black" points="788.896,-151.123 793.746,-148.991 788.625,-147.633 788.896,-151.123"/>
</g>
<!-- topo.base.projection.ProjectionSheet -->
<g id="node4" class="node"><title>topo.base.projection.ProjectionSheet</title>
<polygon fill="none" stroke="black" stroke-width="0.5" points="968,-39.5 774,-39.5 774,-18.5 968,-18.5 968,-39.5"/>
<text text-anchor="middle" x="871" y="-26.5" font-family="Vera" font-size="10.00">topo.base.projection.ProjectionSheet</text>
</g>
<!-- topo.base.sheet.Sheet -->
<g id="node5" class="node"><title>topo.base.sheet.Sheet</title>
<polygon fill="none" stroke="black" stroke-width="0.5" points="689,-39.5 563,-39.5 563,-18.5 689,-18.5 689,-39.5"/>
<text text-anchor="middle" x="626" y="-26.5" font-family="Vera" font-size="10.00">topo.base.sheet.Sheet</text>
</g>
<!-- topo.base.sheet.Sheet&#45;&gt;topo.base.projection.ProjectionSheet -->
<g id="edge4" class="edge"><title>topo.base.sheet.Sheet&#45;&gt;topo.base.projection.ProjectionSheet</title>
<path fill="none" stroke="black" stroke-width="0.5" d="M689.094,-29C713.386,-29 741.79,-29 768.834,-29"/>
<polygon fill="black" stroke="black" points="768.867,-30.7501 773.867,-29 768.867,-27.2501 768.867,-30.7501"/>
</g>
<!-- topo.base.projection.NeighborhoodMask -->
<g id="node7" class="node"><title>topo.base.projection.NeighborhoodMask</title>
<polygon fill="none" stroke="black" stroke-width="0.5" points="731,-134.5 521,-134.5 521,-113.5 731,-113.5 731,-134.5"/>
<text text-anchor="middle" x="626" y="-121.5" font-family="Vera" font-size="10.00">topo.base.projection.NeighborhoodMask</text>
</g>
<!-- topo.base.projection.SheetMask -->
<g id="node8" class="node"><title>topo.base.projection.SheetMask</title>
<polygon fill="none" stroke="black" stroke-width="0.5" points="439,-134.5 269,-134.5 269,-113.5 439,-113.5 439,-134.5"/>
<text text-anchor="middle" x="354" y="-121.5" font-family="Vera" font-size="10.00">topo.base.projection.SheetMask</text>
</g>
<!-- topo.base.projection.SheetMask&#45;&gt;topo.base.projection.CompositeSheetMask -->
<g id="edge14" class="edge"><title>topo.base.projection.SheetMask&#45;&gt;topo.base.projection.CompositeSheetMask</title>
<path fill="none" stroke="black" stroke-width="0.5" d="M425.821,-134.034C463.78,-139.337 510.394,-145.849 549.087,-151.255"/>
<polygon fill="black" stroke="black" points="549.055,-153.017 554.249,-151.976 549.539,-149.551 549.055,-153.017"/>
</g>
<!-- topo.base.projection.SheetMask&#45;&gt;topo.base.projection.NeighborhoodMask -->
<g id="edge6" class="edge"><title>topo.base.projection.SheetMask&#45;&gt;topo.base.projection.NeighborhoodMask</title>
<path fill="none" stroke="black" stroke-width="0.5" d="M439.689,-124C463.777,-124 490.316,-124 515.627,-124"/>
<polygon fill="black" stroke="black" points="515.671,-125.75 520.671,-124 515.671,-122.25 515.671,-125.75"/>
</g>
<!-- topo.base.projection.Projection -->
<g id="node10" class="node"><title>topo.base.projection.Projection</title>
<polygon fill="none" stroke="black" stroke-width="0.5" points="708,-96.5 544,-96.5 544,-75.5 708,-75.5 708,-96.5"/>
<text text-anchor="middle" x="626" y="-83.5" font-family="Vera" font-size="10.00">topo.base.projection.Projection</text>
</g>
<!-- topo.base.simulation.EPConnection -->
<g id="node11" class="node"><title>topo.base.simulation.EPConnection</title>
<polygon fill="none" stroke="black" stroke-width="0.5" points="447,-96.5 261,-96.5 261,-75.5 447,-75.5 447,-96.5"/>
<text text-anchor="middle" x="354" y="-83.5" font-family="Vera" font-size="10.00">topo.base.simulation.EPConnection</text>
</g>
<!-- topo.base.simulation.EPConnection&#45;&gt;topo.base.projection.Projection -->
<g id="edge8" class="edge"><title>topo.base.simulation.EPConnection&#45;&gt;topo.base.projection.Projection</title>
<path fill="none" stroke="black" stroke-width="0.5" d="M447.226,-86C476.738,-86 509.241,-86 538.347,-86"/>
<polygon fill="black" stroke="black" points="538.363,-87.7501 543.363,-86 538.363,-84.2501 538.363,-87.7501"/>
</g>
<!-- param.parameterized.Parameterized -->
<g id="node13" class="node"><title>param.parameterized.Parameterized</title>
<polygon fill="none" stroke="black" stroke-width="0.5" points="194,-96.5 5.68434e-14,-96.5 0,-75.5 194,-75.5 194,-96.5"/>
<text text-anchor="middle" x="97" y="-83.5" font-family="Vera" font-size="10.00">param.parameterized.Parameterized</text>
</g>
<!-- param.parameterized.Parameterized&#45;&gt;topo.base.projection.SheetMask -->
<g id="edge12" class="edge"><title>param.parameterized.Parameterized&#45;&gt;topo.base.projection.SheetMask</title>
<path fill="none" stroke="black" stroke-width="0.5" d="M164.86,-96.0338C200.579,-101.315 244.41,-107.796 280.88,-113.189"/>
<polygon fill="black" stroke="black" points="281.004,-114.976 286.206,-113.976 281.516,-111.513 281.004,-114.976"/>
</g>
<!-- param.parameterized.Parameterized&#45;&gt;topo.base.simulation.EPConnection -->
<g id="edge10" class="edge"><title>param.parameterized.Parameterized&#45;&gt;topo.base.simulation.EPConnection</title>
<path fill="none" stroke="black" stroke-width="0.5" d="M194.161,-86C214.341,-86 235.619,-86 255.835,-86"/>
<polygon fill="black" stroke="black" points="255.95,-87.7501 260.95,-86 255.95,-84.2501 255.95,-87.7501"/>
</g>
<!-- topo.base.simulation.EventProcessor -->
<g id="node20" class="node"><title>topo.base.simulation.EventProcessor</title>
<polygon fill="none" stroke="black" stroke-width="0.5" points="451,-58.5 257,-58.5 257,-37.5 451,-37.5 451,-58.5"/>
<text text-anchor="middle" x="354" y="-45.5" font-family="Vera" font-size="10.00">topo.base.simulation.EventProcessor</text>
</g>
<!-- param.parameterized.Parameterized&#45;&gt;topo.base.simulation.EventProcessor -->
<g id="edge22" class="edge"><title>param.parameterized.Parameterized&#45;&gt;topo.base.simulation.EventProcessor</title>
<path fill="none" stroke="black" stroke-width="0.5" d="M164.86,-75.9662C200.579,-70.6848 244.41,-64.204 280.88,-58.8115"/>
<polygon fill="black" stroke="black" points="281.516,-60.4867 286.206,-58.024 281.004,-57.0243 281.516,-60.4867"/>
</g>
<!-- dataviews.sheetcoords.SheetCoordinateSystem -->
<g id="node15" class="node"><title>dataviews.sheetcoords.SheetCoordinateSystem</title>
<polygon fill="none" stroke="black" stroke-width="0.5" points="477,-20.5 231,-20.5 231,0.5 477,0.5 477,-20.5"/>
<text text-anchor="middle" x="354" y="-7.5" font-family="Vera" font-size="10.00">dataviews.sheetcoords.SheetCoordinateSystem</text>
</g>
<!-- dataviews.sheetcoords.SheetCoordinateSystem&#45;&gt;topo.base.sheet.Sheet -->
<g id="edge20" class="edge"><title>dataviews.sheetcoords.SheetCoordinateSystem&#45;&gt;topo.base.sheet.Sheet</title>
<path fill="none" stroke="black" stroke-width="0.5" d="M477.664,-18.6383C505.177,-20.5602 533.37,-22.5295 557.688,-24.2282"/>
<polygon fill="black" stroke="black" points="557.707,-25.9837 562.816,-24.5864 557.951,-22.4922 557.707,-25.9837"/>
</g>
<!-- topo.base.simulation.EventProcessor&#45;&gt;topo.base.sheet.Sheet -->
<g id="edge18" class="edge"><title>topo.base.simulation.EventProcessor&#45;&gt;topo.base.sheet.Sheet</title>
<path fill="none" stroke="black" stroke-width="0.5" d="M451.046,-41.221C486.382,-38.7527 525.55,-36.0167 557.852,-33.7603"/>
<polygon fill="black" stroke="black" points="558.11,-35.4967 562.976,-33.4024 557.866,-32.0052 558.11,-35.4967"/>
</g>
</g>
</svg>
