<?xml version="1.0" encoding="UTF-8" standalone="no"?>
<!DOCTYPE svg PUBLIC "-//W3C//DTD SVG 1.1//EN"
 "http://www.w3.org/Graphics/SVG/1.1/DTD/svg11.dtd">
<!-- Generated by graphviz version 2.26.3 (20100126.1600)
 -->
<!-- Title: inheritancebede3c61fc Pages: 1 -->
<svg width="1742pt" height="313pt"
 viewBox="0.00 0.00 1742.00 313.00" xmlns="http://www.w3.org/2000/svg" xmlns:xlink="http://www.w3.org/1999/xlink">
<g id="graph1" class="graph" transform="scale(1 1) rotate(0) translate(4 309)">
<title>inheritancebede3c61fc</title>
<polygon fill="white" stroke="white" points="-4,5 -4,-309 1739,-309 1739,5 -4,5"/>
<!-- topo.command.pylabplot.topographic_grid -->
<g id="node1" class="node"><title>topo.command.pylabplot.topographic_grid</title>
<polygon fill="none" stroke="black" stroke-width="0.5" points="1448,-305.5 1228,-305.5 1228,-284.5 1448,-284.5 1448,-305.5"/>
<text text-anchor="middle" x="1338" y="-292.5" font-family="Vera" font-size="10.00">topo.command.pylabplot.topographic_grid</text>
</g>
<!-- topo.command.pylabplot.xy_grid -->
<g id="node2" class="node"><title>topo.command.pylabplot.xy_grid</title>
<polygon fill="none" stroke="black" stroke-width="0.5" points="1148,-305.5 976,-305.5 976,-284.5 1148,-284.5 1148,-305.5"/>
<text text-anchor="middle" x="1062" y="-292.5" font-family="Vera" font-size="10.00">topo.command.pylabplot.xy_grid</text>
</g>
<!-- topo.command.pylabplot.xy_grid&#45;&gt;topo.command.pylabplot.topographic_grid -->
<g id="edge2" class="edge"><title>topo.command.pylabplot.xy_grid&#45;&gt;topo.command.pylabplot.topographic_grid</title>
<path fill="none" stroke="black" stroke-width="0.5" d="M1148.57,-295C1172.04,-295 1197.82,-295 1222.6,-295"/>
<polygon fill="black" stroke="black" points="1222.87,-296.75 1227.87,-295 1222.87,-293.25 1222.87,-296.75"/>
</g>
<!-- param.parameterized.ParameterizedFunction -->
<g id="node4" class="node"><title>param.parameterized.ParameterizedFunction</title>
<polygon fill="none" stroke="black" stroke-width="0.5" points="464,-153.5 230,-153.5 230,-132.5 464,-132.5 464,-153.5"/>
<text text-anchor="middle" x="347" y="-140.5" font-family="Vera" font-size="10.00">param.parameterized.ParameterizedFunction</text>
</g>
<!-- topo.command.Command -->
<g id="node24" class="node"><title>topo.command.Command</title>
<polygon fill="none" stroke="black" stroke-width="0.5" points="643,-153.5 501,-153.5 501,-132.5 643,-132.5 643,-153.5"/>
<text text-anchor="middle" x="572" y="-140.5" font-family="Vera" font-size="10.00">topo.command.Command</text>
</g>
<!-- param.parameterized.ParameterizedFunction&#45;&gt;topo.command.Command -->
<g id="edge20" class="edge"><title>param.parameterized.ParameterizedFunction&#45;&gt;topo.command.Command</title>
<path fill="none" stroke="black" stroke-width="0.5" d="M464.113,-143C474.661,-143 485.155,-143 495.222,-143"/>
<polygon fill="black" stroke="black" points="495.446,-144.75 500.446,-143 495.446,-141.25 495.446,-144.75"/>
</g>
<!-- param.parameterized.Parameterized -->
<g id="node5" class="node"><title>param.parameterized.Parameterized</title>
<polygon fill="none" stroke="black" stroke-width="0.5" points="194,-153.5 5.68434e-14,-153.5 0,-132.5 194,-132.5 194,-153.5"/>
<text text-anchor="middle" x="97" y="-140.5" font-family="Vera" font-size="10.00">param.parameterized.Parameterized</text>
</g>
<!-- param.parameterized.Parameterized&#45;&gt;param.parameterized.ParameterizedFunction -->
<g id="edge4" class="edge"><title>param.parameterized.Parameterized&#45;&gt;param.parameterized.ParameterizedFunction</title>
<path fill="none" stroke="black" stroke-width="0.5" d="M194.014,-143C204.04,-143 214.319,-143 224.575,-143"/>
<polygon fill="black" stroke="black" points="224.607,-144.75 229.607,-143 224.607,-141.25 224.607,-144.75"/>
</g>
<!-- topo.command.pylabplot.matrixplot3d -->
<g id="node7" class="node"><title>topo.command.pylabplot.matrixplot3d</title>
<polygon fill="none" stroke="black" stroke-width="0.5" points="1162,-248.5 962,-248.5 962,-227.5 1162,-227.5 1162,-248.5"/>
<text text-anchor="middle" x="1062" y="-235.5" font-family="Vera" font-size="10.00">topo.command.pylabplot.matrixplot3d</text>
</g>
<!-- topo.command.pylabplot.PylabPlotCommand -->
<g id="node8" class="node"><title>topo.command.pylabplot.PylabPlotCommand</title>
<polygon fill="none" stroke="black" stroke-width="0.5" points="913,-153.5 681,-153.5 681,-132.5 913,-132.5 913,-153.5"/>
<text text-anchor="middle" x="797" y="-140.5" font-family="Vera" font-size="10.00">topo.command.pylabplot.PylabPlotCommand</text>
</g>
<!-- topo.command.pylabplot.PylabPlotCommand&#45;&gt;topo.command.pylabplot.xy_grid -->
<g id="edge30" class="edge"><title>topo.command.pylabplot.PylabPlotCommand&#45;&gt;topo.command.pylabplot.xy_grid</title>
<path fill="none" stroke="black" stroke-width="0.5" d="M808.061,-153.206C832.165,-174.983 891.937,-226.496 950,-257 971.288,-268.184 996.537,-277.087 1017.67,-283.457"/>
<polygon fill="black" stroke="black" points="1017.38,-285.195 1022.67,-284.94 1018.37,-281.84 1017.38,-285.195"/>
</g>
<!-- topo.command.pylabplot.PylabPlotCommand&#45;&gt;topo.command.pylabplot.matrixplot3d -->
<g id="edge6" class="edge"><title>topo.command.pylabplot.PylabPlotCommand&#45;&gt;topo.command.pylabplot.matrixplot3d</title>
<path fill="none" stroke="black" stroke-width="0.5" d="M813.296,-153.111C840.544,-169.547 897.541,-201.933 950,-219 959.509,-222.094 969.645,-224.707 979.786,-226.909"/>
<polygon fill="black" stroke="black" points="979.509,-228.639 984.763,-227.958 980.231,-225.215 979.509,-228.639"/>
</g>
<!-- topo.command.pylabplot.histogramplot -->
<g id="node10" class="node"><title>topo.command.pylabplot.histogramplot</title>
<polygon fill="none" stroke="black" stroke-width="0.5" points="1165,-210.5 959,-210.5 959,-189.5 1165,-189.5 1165,-210.5"/>
<text text-anchor="middle" x="1062" y="-197.5" font-family="Vera" font-size="10.00">topo.command.pylabplot.histogramplot</text>
</g>
<!-- topo.command.pylabplot.PylabPlotCommand&#45;&gt;topo.command.pylabplot.histogramplot -->
<g id="edge8" class="edge"><title>topo.command.pylabplot.PylabPlotCommand&#45;&gt;topo.command.pylabplot.histogramplot</title>
<path fill="none" stroke="black" stroke-width="0.5" d="M834.232,-153.082C865.102,-161.24 910.213,-172.697 950,-181 963.756,-183.871 978.53,-186.615 992.691,-189.082"/>
<polygon fill="black" stroke="black" points="992.652,-190.851 997.877,-189.977 993.248,-187.402 992.652,-190.851"/>
</g>
<!-- topo.command.pylabplot.matrixplot -->
<g id="node13" class="node"><title>topo.command.pylabplot.matrixplot</title>
<polygon fill="none" stroke="black" stroke-width="0.5" points="1156,-172.5 968,-172.5 968,-151.5 1156,-151.5 1156,-172.5"/>
<text text-anchor="middle" x="1062" y="-159.5" font-family="Vera" font-size="10.00">topo.command.pylabplot.matrixplot</text>
</g>
<!-- topo.command.pylabplot.PylabPlotCommand&#45;&gt;topo.command.pylabplot.matrixplot -->
<g id="edge26" class="edge"><title>topo.command.pylabplot.PylabPlotCommand&#45;&gt;topo.command.pylabplot.matrixplot</title>
<path fill="none" stroke="black" stroke-width="0.5" d="M913.618,-151.361C929.837,-152.524 946.377,-153.71 962.249,-154.848"/>
<polygon fill="black" stroke="black" points="962.492,-156.62 967.604,-155.232 962.742,-153.129 962.492,-156.62"/>
</g>
<!-- topo.command.pylabplot.overlaid_plot -->
<g id="node15" class="node"><title>topo.command.pylabplot.overlaid_plot</title>
<polygon fill="none" stroke="black" stroke-width="0.5" points="1162,-134.5 962,-134.5 962,-113.5 1162,-113.5 1162,-134.5"/>
<text text-anchor="middle" x="1062" y="-121.5" font-family="Vera" font-size="10.00">topo.command.pylabplot.overlaid_plot</text>
</g>
<!-- topo.command.pylabplot.PylabPlotCommand&#45;&gt;topo.command.pylabplot.overlaid_plot -->
<g id="edge12" class="edge"><title>topo.command.pylabplot.PylabPlotCommand&#45;&gt;topo.command.pylabplot.overlaid_plot</title>
<path fill="none" stroke="black" stroke-width="0.5" d="M913.618,-134.639C927.964,-133.61 942.562,-132.563 956.727,-131.548"/>
<polygon fill="black" stroke="black" points="957.062,-133.278 961.924,-131.175 956.812,-129.787 957.062,-133.278"/>
</g>
<!-- topo.command.pylabplot.unit_tuning_curve -->
<g id="node27" class="node"><title>topo.command.pylabplot.unit_tuning_curve</title>
<polygon fill="none" stroke="black" stroke-width="0.5" points="1174,-96.5 950,-96.5 950,-75.5 1174,-75.5 1174,-96.5"/>
<text text-anchor="middle" x="1062" y="-83.5" font-family="Vera" font-size="10.00">topo.command.pylabplot.unit_tuning_curve</text>
</g>
<!-- topo.command.pylabplot.PylabPlotCommand&#45;&gt;topo.command.pylabplot.unit_tuning_curve -->
<g id="edge38" class="edge"><title>topo.command.pylabplot.PylabPlotCommand&#45;&gt;topo.command.pylabplot.unit_tuning_curve</title>
<path fill="none" stroke="black" stroke-width="0.5" d="M834.232,-132.918C865.102,-124.76 910.213,-113.303 950,-105 963.756,-102.129 978.53,-99.3847 992.691,-96.9185"/>
<polygon fill="black" stroke="black" points="993.248,-98.5982 997.877,-96.0227 992.652,-95.1493 993.248,-98.5982"/>
</g>
<!-- topo.command.pylabplot.vectorplot -->
<g id="node29" class="node"><title>topo.command.pylabplot.vectorplot</title>
<polygon fill="none" stroke="black" stroke-width="0.5" points="1156,-58.5 968,-58.5 968,-37.5 1156,-37.5 1156,-58.5"/>
<text text-anchor="middle" x="1062" y="-45.5" font-family="Vera" font-size="10.00">topo.command.pylabplot.vectorplot</text>
</g>
<!-- topo.command.pylabplot.PylabPlotCommand&#45;&gt;topo.command.pylabplot.vectorplot -->
<g id="edge24" class="edge"><title>topo.command.pylabplot.PylabPlotCommand&#45;&gt;topo.command.pylabplot.vectorplot</title>
<path fill="none" stroke="black" stroke-width="0.5" d="M813.296,-132.889C840.544,-116.453 897.541,-84.067 950,-67 959.509,-63.9063 969.645,-61.2928 979.786,-59.0905"/>
<polygon fill="black" stroke="black" points="980.231,-60.7854 984.763,-58.0422 979.509,-57.3606 980.231,-60.7854"/>
</g>
<!-- topo.command.pylabplot.matrixplot3dx3 -->
<g id="node37" class="node"><title>topo.command.pylabplot.matrixplot3dx3</title>
<polygon fill="none" stroke="black" stroke-width="0.5" points="1168,-20.5 956,-20.5 956,0.5 1168,0.5 1168,-20.5"/>
<text text-anchor="middle" x="1062" y="-7.5" font-family="Vera" font-size="10.00">topo.command.pylabplot.matrixplot3dx3</text>
</g>
<!-- topo.command.pylabplot.PylabPlotCommand&#45;&gt;topo.command.pylabplot.matrixplot3dx3 -->
<g id="edge36" class="edge"><title>topo.command.pylabplot.PylabPlotCommand&#45;&gt;topo.command.pylabplot.matrixplot3dx3</title>
<path fill="none" stroke="black" stroke-width="0.5" d="M807.017,-132.762C829.967,-109.979 889.088,-55.0551 950,-29 956.925,-26.038 964.275,-23.5369 971.771,-21.4251"/>
<polygon fill="black" stroke="black" points="972.606,-23.0128 976.98,-20.0244 971.698,-19.6329 972.606,-23.0128"/>
</g>
<!-- topo.command.pylabplot.activityplot -->
<g id="node12" class="node"><title>topo.command.pylabplot.activityplot</title>
<polygon fill="none" stroke="black" stroke-width="0.5" points="1433,-267.5 1243,-267.5 1243,-246.5 1433,-246.5 1433,-267.5"/>
<text text-anchor="middle" x="1338" y="-254.5" font-family="Vera" font-size="10.00">topo.command.pylabplot.activityplot</text>
</g>
<!-- topo.command.pylabplot.matrixplot&#45;&gt;topo.command.pylabplot.activityplot -->
<g id="edge10" class="edge"><title>topo.command.pylabplot.matrixplot&#45;&gt;topo.command.pylabplot.activityplot</title>
<path fill="none" stroke="black" stroke-width="0.5" d="M1156.01,-171.695C1162.35,-174.216 1168.42,-177.282 1174,-181 1198.93,-197.614 1184.89,-221.644 1210,-238 1218.41,-243.48 1227.79,-247.626 1237.53,-250.736"/>
<polygon fill="black" stroke="black" points="1237.05,-252.419 1242.35,-252.181 1238.06,-249.067 1237.05,-252.419"/>
</g>
<!-- topo.command.pylabplot.fftplot -->
<g id="node22" class="node"><title>topo.command.pylabplot.fftplot</title>
<polygon fill="none" stroke="black" stroke-width="0.5" points="1421,-229.5 1255,-229.5 1255,-208.5 1421,-208.5 1421,-229.5"/>
<text text-anchor="middle" x="1338" y="-216.5" font-family="Vera" font-size="10.00">topo.command.pylabplot.fftplot</text>
</g>
<!-- topo.command.pylabplot.matrixplot&#45;&gt;topo.command.pylabplot.fftplot -->
<g id="edge18" class="edge"><title>topo.command.pylabplot.matrixplot&#45;&gt;topo.command.pylabplot.fftplot</title>
<path fill="none" stroke="black" stroke-width="0.5" d="M1140.52,-172.051C1151.9,-174.447 1163.35,-177.391 1174,-181 1191.13,-186.808 1192.81,-194.369 1210,-200 1222.55,-204.11 1236.08,-207.334 1249.49,-209.863"/>
<polygon fill="black" stroke="black" points="1249.19,-211.587 1254.42,-210.764 1249.82,-208.144 1249.19,-211.587"/>
</g>
<!-- topo.command.pylabplot.gradientplot -->
<g id="node35" class="node"><title>topo.command.pylabplot.gradientplot</title>
<polygon fill="none" stroke="black" stroke-width="0.5" points="1436,-191.5 1240,-191.5 1240,-170.5 1436,-170.5 1436,-191.5"/>
<text text-anchor="middle" x="1338" y="-178.5" font-family="Vera" font-size="10.00">topo.command.pylabplot.gradientplot</text>
</g>
<!-- topo.command.pylabplot.matrixplot&#45;&gt;topo.command.pylabplot.gradientplot -->
<g id="edge34" class="edge"><title>topo.command.pylabplot.matrixplot&#45;&gt;topo.command.pylabplot.gradientplot</title>
<path fill="none" stroke="black" stroke-width="0.5" d="M1156.21,-168.486C1181.25,-170.209 1208.43,-172.08 1233.95,-173.837"/>
<polygon fill="black" stroke="black" points="1233.93,-175.59 1239.04,-174.187 1234.17,-172.098 1233.93,-175.59"/>
</g>
<!-- topo.command.pylabplot.autocorrelationplot -->
<g id="node40" class="node"><title>topo.command.pylabplot.autocorrelationplot</title>
<polygon fill="none" stroke="black" stroke-width="0.5" points="1453,-153.5 1223,-153.5 1223,-132.5 1453,-132.5 1453,-153.5"/>
<text text-anchor="middle" x="1338" y="-140.5" font-family="Vera" font-size="10.00">topo.command.pylabplot.autocorrelationplot</text>
</g>
<!-- topo.command.pylabplot.matrixplot&#45;&gt;topo.command.pylabplot.autocorrelationplot -->
<g id="edge40" class="edge"><title>topo.command.pylabplot.matrixplot&#45;&gt;topo.command.pylabplot.autocorrelationplot</title>
<path fill="none" stroke="black" stroke-width="0.5" d="M1156.21,-155.514C1175.93,-154.157 1196.99,-152.707 1217.52,-151.294"/>
<polygon fill="black" stroke="black" points="1217.86,-153.025 1222.72,-150.936 1217.62,-149.533 1217.86,-153.025"/>
</g>
<!-- topo.command.pylabplot.overlaid_plots -->
<g id="node20" class="node"><title>topo.command.pylabplot.overlaid_plots</title>
<polygon fill="none" stroke="black" stroke-width="0.5" points="1441,-115.5 1235,-115.5 1235,-94.5 1441,-94.5 1441,-115.5"/>
<text text-anchor="middle" x="1338" y="-102.5" font-family="Vera" font-size="10.00">topo.command.pylabplot.overlaid_plots</text>
</g>
<!-- topo.command.pylabplot.overlaid_plot&#45;&gt;topo.command.pylabplot.overlaid_plots -->
<g id="edge16" class="edge"><title>topo.command.pylabplot.overlaid_plot&#45;&gt;topo.command.pylabplot.overlaid_plots</title>
<path fill="none" stroke="black" stroke-width="0.5" d="M1162.03,-117.114C1183.98,-115.603 1207.31,-113.997 1229.57,-112.465"/>
<polygon fill="black" stroke="black" points="1229.73,-114.208 1234.6,-112.118 1229.49,-110.716 1229.73,-114.208"/>
</g>
<!-- topo.command.pylabplot.cyclic_tuning_curve -->
<g id="node17" class="node"><title>topo.command.pylabplot.cyclic_tuning_curve</title>
<polygon fill="none" stroke="black" stroke-width="0.5" points="1734,-77.5 1502,-77.5 1502,-56.5 1734,-56.5 1734,-77.5"/>
<text text-anchor="middle" x="1618" y="-64.5" font-family="Vera" font-size="10.00">topo.command.pylabplot.cyclic_tuning_curve</text>
</g>
<!-- topo.command.pylabplot.cyclic_unit_tuning_curve -->
<g id="node18" class="node"><title>topo.command.pylabplot.cyclic_unit_tuning_curve</title>
<polygon fill="none" stroke="black" stroke-width="0.5" points="1465,-77.5 1211,-77.5 1211,-56.5 1465,-56.5 1465,-77.5"/>
<text text-anchor="middle" x="1338" y="-64.5" font-family="Vera" font-size="10.00">topo.command.pylabplot.cyclic_unit_tuning_curve</text>
</g>
<!-- topo.command.pylabplot.cyclic_unit_tuning_curve&#45;&gt;topo.command.pylabplot.cyclic_tuning_curve -->
<g id="edge14" class="edge"><title>topo.command.pylabplot.cyclic_unit_tuning_curve&#45;&gt;topo.command.pylabplot.cyclic_tuning_curve</title>
<path fill="none" stroke="black" stroke-width="0.5" d="M1465.71,-67C1476,-67 1486.37,-67 1496.62,-67"/>
<polygon fill="black" stroke="black" points="1496.63,-68.7501 1501.63,-67 1496.63,-65.2501 1496.63,-68.7501"/>
</g>
<!-- topo.command.Command&#45;&gt;topo.command.pylabplot.PylabPlotCommand -->
<g id="edge32" class="edge"><title>topo.command.Command&#45;&gt;topo.command.pylabplot.PylabPlotCommand</title>
<path fill="none" stroke="black" stroke-width="0.5" d="M643.501,-143C653.767,-143 664.56,-143 675.468,-143"/>
<polygon fill="black" stroke="black" points="675.486,-144.75 680.486,-143 675.486,-141.25 675.486,-144.75"/>
</g>
<!-- topo.command.pylabplot.tuning_curve -->
<g id="node26" class="node"><title>topo.command.pylabplot.tuning_curve</title>
<polygon fill="none" stroke="black" stroke-width="0.5" points="1438,-39.5 1238,-39.5 1238,-18.5 1438,-18.5 1438,-39.5"/>
<text text-anchor="middle" x="1338" y="-26.5" font-family="Vera" font-size="10.00">topo.command.pylabplot.tuning_curve</text>
</g>
<!-- topo.command.pylabplot.unit_tuning_curve&#45;&gt;topo.command.pylabplot.cyclic_unit_tuning_curve -->
<g id="edge28" class="edge"><title>topo.command.pylabplot.unit_tuning_curve&#45;&gt;topo.command.pylabplot.cyclic_unit_tuning_curve</title>
<path fill="none" stroke="black" stroke-width="0.5" d="M1174.26,-78.272C1184.39,-77.5745 1194.72,-76.8638 1205,-76.1556"/>
<polygon fill="black" stroke="black" points="1205.18,-77.8976 1210.05,-75.8082 1204.94,-74.4058 1205.18,-77.8976"/>
</g>
<!-- topo.command.pylabplot.unit_tuning_curve&#45;&gt;topo.command.pylabplot.tuning_curve -->
<g id="edge22" class="edge"><title>topo.command.pylabplot.unit_tuning_curve&#45;&gt;topo.command.pylabplot.tuning_curve</title>
<path fill="none" stroke="black" stroke-width="0.5" d="M1140.52,-75.9489C1151.9,-73.5529 1163.35,-70.6091 1174,-67 1191.13,-61.1918 1192.81,-53.6308 1210,-48 1219.54,-44.8754 1229.65,-42.2627 1239.84,-40.0784"/>
<polygon fill="black" stroke="black" points="1240.31,-41.7691 1244.85,-39.0402 1239.6,-38.342 1240.31,-41.7691"/>
</g>
</g>
</svg>
