<?xml version="1.0" encoding="UTF-8" standalone="no"?>
<!DOCTYPE svg PUBLIC "-//W3C//DTD SVG 1.1//EN"
 "http://www.w3.org/Graphics/SVG/1.1/DTD/svg11.dtd">
<!-- Generated by graphviz version 2.26.3 (20100126.1600)
 -->
<!-- Title: inheritancebede3c61fc Pages: 1 -->
<svg width="2498pt" height="579pt"
 viewBox="0.00 0.00 2498.00 579.00" xmlns="http://www.w3.org/2000/svg" xmlns:xlink="http://www.w3.org/1999/xlink">
<g id="graph1" class="graph" transform="scale(1 1) rotate(0) translate(4 575)">
<title>inheritancebede3c61fc</title>
<polygon fill="white" stroke="white" points="-4,5 -4,-575 2495,-575 2495,5 -4,5"/>
<!-- topo.command.pylabplot.matrixplot -->
<g id="node1" class="node"><title>topo.command.pylabplot.matrixplot</title>
<polygon fill="none" stroke="black" stroke-width="0.5" points="1458,-362.5 1270,-362.5 1270,-341.5 1458,-341.5 1458,-362.5"/>
<text text-anchor="middle" x="1364" y="-349.5" font-family="Vera" font-size="10.00">topo.command.pylabplot.matrixplot</text>
</g>
<!-- topo.command.pylabplot.activityplot -->
<g id="node4" class="node"><title>topo.command.pylabplot.activityplot</title>
<polygon fill="none" stroke="black" stroke-width="0.5" points="1815,-400.5 1625,-400.5 1625,-379.5 1815,-379.5 1815,-400.5"/>
<text text-anchor="middle" x="1720" y="-387.5" font-family="Vera" font-size="10.00">topo.command.pylabplot.activityplot</text>
</g>
<!-- topo.command.pylabplot.matrixplot&#45;&gt;topo.command.pylabplot.activityplot -->
<g id="edge4" class="edge"><title>topo.command.pylabplot.matrixplot&#45;&gt;topo.command.pylabplot.activityplot</title>
<path fill="none" stroke="black" stroke-width="0.5" d="M1458,-362.034C1508.19,-367.391 1569.94,-373.982 1620.88,-379.42"/>
<polygon fill="black" stroke="black" points="1620.93,-381.185 1626.09,-379.976 1621.3,-377.705 1620.93,-381.185"/>
</g>
<!-- topo.command.pylabplot.fftplot -->
<g id="node35" class="node"><title>topo.command.pylabplot.fftplot</title>
<polygon fill="none" stroke="black" stroke-width="0.5" points="1803,-362.5 1637,-362.5 1637,-341.5 1803,-341.5 1803,-362.5"/>
<text text-anchor="middle" x="1720" y="-349.5" font-family="Vera" font-size="10.00">topo.command.pylabplot.fftplot</text>
</g>
<!-- topo.command.pylabplot.matrixplot&#45;&gt;topo.command.pylabplot.fftplot -->
<g id="edge32" class="edge"><title>topo.command.pylabplot.matrixplot&#45;&gt;topo.command.pylabplot.fftplot</title>
<path fill="none" stroke="black" stroke-width="0.5" d="M1458,-352C1511.68,-352 1578.59,-352 1631.36,-352"/>
<polygon fill="black" stroke="black" points="1631.42,-353.75 1636.42,-352 1631.42,-350.25 1631.42,-353.75"/>
</g>
<!-- topo.command.pylabplot.autocorrelationplot -->
<g id="node46" class="node"><title>topo.command.pylabplot.autocorrelationplot</title>
<polygon fill="none" stroke="black" stroke-width="0.5" points="1835,-324.5 1605,-324.5 1605,-303.5 1835,-303.5 1835,-324.5"/>
<text text-anchor="middle" x="1720" y="-311.5" font-family="Vera" font-size="10.00">topo.command.pylabplot.autocorrelationplot</text>
</g>
<!-- topo.command.pylabplot.matrixplot&#45;&gt;topo.command.pylabplot.autocorrelationplot -->
<g id="edge44" class="edge"><title>topo.command.pylabplot.matrixplot&#45;&gt;topo.command.pylabplot.autocorrelationplot</title>
<path fill="none" stroke="black" stroke-width="0.5" d="M1458,-341.966C1508.19,-336.609 1569.94,-330.018 1620.88,-324.58"/>
<polygon fill="black" stroke="black" points="1621.3,-326.295 1626.09,-324.024 1620.93,-322.815 1621.3,-326.295"/>
</g>
<!-- topo.command.pylabplot.gradientplot -->
<g id="node62" class="node"><title>topo.command.pylabplot.gradientplot</title>
<polygon fill="none" stroke="black" stroke-width="0.5" points="1818,-286.5 1622,-286.5 1622,-265.5 1818,-265.5 1818,-286.5"/>
<text text-anchor="middle" x="1720" y="-273.5" font-family="Vera" font-size="10.00">topo.command.pylabplot.gradientplot</text>
</g>
<!-- topo.command.pylabplot.matrixplot&#45;&gt;topo.command.pylabplot.gradientplot -->
<g id="edge62" class="edge"><title>topo.command.pylabplot.matrixplot&#45;&gt;topo.command.pylabplot.gradientplot</title>
<path fill="none" stroke="black" stroke-width="0.5" d="M1458,-354.206C1486.18,-351.697 1516.37,-345.677 1542,-333 1562.85,-322.685 1557.29,-305.592 1578,-295 1589.93,-288.898 1603.13,-284.523 1616.54,-281.418"/>
<polygon fill="black" stroke="black" points="1616.98,-283.114 1621.48,-280.331 1616.23,-279.695 1616.98,-283.114"/>
</g>
<!-- topo.command.pylabplot.PylabPlotCommand -->
<g id="node2" class="node"><title>topo.command.pylabplot.PylabPlotCommand</title>
<polygon fill="none" stroke="black" stroke-width="0.5" points="1112,-210.5 880,-210.5 880,-189.5 1112,-189.5 1112,-210.5"/>
<text text-anchor="middle" x="996" y="-197.5" font-family="Vera" font-size="10.00">topo.command.pylabplot.PylabPlotCommand</text>
</g>
<!-- topo.command.pylabplot.PylabPlotCommand&#45;&gt;topo.command.pylabplot.matrixplot -->
<g id="edge2" class="edge"><title>topo.command.pylabplot.PylabPlotCommand&#45;&gt;topo.command.pylabplot.matrixplot</title>
<path fill="none" stroke="black" stroke-width="0.5" d="M1006.41,-210.284C1033.37,-236.173 1108.71,-304.036 1186,-333 1210.55,-342.201 1238.26,-347.401 1264.37,-350.238"/>
<polygon fill="black" stroke="black" points="1264.42,-352.002 1269.57,-350.774 1264.78,-348.521 1264.42,-352.002"/>
</g>
<!-- topo.command.pylabplot.vectorplot -->
<g id="node6" class="node"><title>topo.command.pylabplot.vectorplot</title>
<polygon fill="none" stroke="black" stroke-width="0.5" points="1458,-324.5 1270,-324.5 1270,-303.5 1458,-303.5 1458,-324.5"/>
<text text-anchor="middle" x="1364" y="-311.5" font-family="Vera" font-size="10.00">topo.command.pylabplot.vectorplot</text>
</g>
<!-- topo.command.pylabplot.PylabPlotCommand&#45;&gt;topo.command.pylabplot.vectorplot -->
<g id="edge6" class="edge"><title>topo.command.pylabplot.PylabPlotCommand&#45;&gt;topo.command.pylabplot.vectorplot</title>
<path fill="none" stroke="black" stroke-width="0.5" d="M1011.47,-210.167C1042.87,-230.244 1116.99,-274.781 1186,-295 1211.02,-302.331 1238.77,-306.898 1264.76,-309.725"/>
<polygon fill="black" stroke="black" points="1264.78,-311.486 1269.93,-310.267 1265.14,-308.005 1264.78,-311.486"/>
</g>
<!-- topo.command.pylabplot.topographic_grid -->
<g id="node8" class="node"><title>topo.command.pylabplot.topographic_grid</title>
<polygon fill="none" stroke="black" stroke-width="0.5" points="1474,-286.5 1254,-286.5 1254,-265.5 1474,-265.5 1474,-286.5"/>
<text text-anchor="middle" x="1364" y="-273.5" font-family="Vera" font-size="10.00">topo.command.pylabplot.topographic_grid</text>
</g>
<!-- topo.command.pylabplot.PylabPlotCommand&#45;&gt;topo.command.pylabplot.topographic_grid -->
<g id="edge8" class="edge"><title>topo.command.pylabplot.PylabPlotCommand&#45;&gt;topo.command.pylabplot.topographic_grid</title>
<path fill="none" stroke="black" stroke-width="0.5" d="M1023.6,-210.042C1060.21,-222.955 1127.09,-245.126 1186,-257 1206.17,-261.065 1227.8,-264.298 1248.8,-266.857"/>
<polygon fill="black" stroke="black" points="1248.67,-268.604 1253.84,-267.46 1249.09,-265.128 1248.67,-268.604"/>
</g>
<!-- topo.command.pylabplot.plot_modulation_ratio -->
<g id="node13" class="node"><title>topo.command.pylabplot.plot_modulation_ratio</title>
<polygon fill="none" stroke="black" stroke-width="0.5" points="1486,-248.5 1242,-248.5 1242,-227.5 1486,-227.5 1486,-248.5"/>
<text text-anchor="middle" x="1364" y="-235.5" font-family="Vera" font-size="10.00">topo.command.pylabplot.plot_modulation_ratio</text>
</g>
<!-- topo.command.pylabplot.PylabPlotCommand&#45;&gt;topo.command.pylabplot.plot_modulation_ratio -->
<g id="edge12" class="edge"><title>topo.command.pylabplot.PylabPlotCommand&#45;&gt;topo.command.pylabplot.plot_modulation_ratio</title>
<path fill="none" stroke="black" stroke-width="0.5" d="M1093.17,-210.034C1145.15,-215.402 1209.14,-222.009 1261.86,-227.453"/>
<polygon fill="black" stroke="black" points="1261.77,-229.203 1266.93,-227.976 1262.13,-225.722 1261.77,-229.203"/>
</g>
<!-- topo.command.pylabplot.tuning_curve -->
<g id="node18" class="node"><title>topo.command.pylabplot.tuning_curve</title>
<polygon fill="none" stroke="black" stroke-width="0.5" points="1464,-210.5 1264,-210.5 1264,-189.5 1464,-189.5 1464,-210.5"/>
<text text-anchor="middle" x="1364" y="-197.5" font-family="Vera" font-size="10.00">topo.command.pylabplot.tuning_curve</text>
</g>
<!-- topo.command.pylabplot.PylabPlotCommand&#45;&gt;topo.command.pylabplot.tuning_curve -->
<g id="edge16" class="edge"><title>topo.command.pylabplot.PylabPlotCommand&#45;&gt;topo.command.pylabplot.tuning_curve</title>
<path fill="none" stroke="black" stroke-width="0.5" d="M1112.69,-200C1159.31,-200 1212.62,-200 1258.11,-200"/>
<polygon fill="black" stroke="black" points="1258.33,-201.75 1263.33,-200 1258.33,-198.25 1258.33,-201.75"/>
</g>
<!-- topo.command.pylabplot.overlaid_plots -->
<g id="node28" class="node"><title>topo.command.pylabplot.overlaid_plots</title>
<polygon fill="none" stroke="black" stroke-width="0.5" points="1467,-172.5 1261,-172.5 1261,-151.5 1467,-151.5 1467,-172.5"/>
<text text-anchor="middle" x="1364" y="-159.5" font-family="Vera" font-size="10.00">topo.command.pylabplot.overlaid_plots</text>
</g>
<!-- topo.command.pylabplot.PylabPlotCommand&#45;&gt;topo.command.pylabplot.overlaid_plots -->
<g id="edge24" class="edge"><title>topo.command.pylabplot.PylabPlotCommand&#45;&gt;topo.command.pylabplot.overlaid_plots</title>
<path fill="none" stroke="black" stroke-width="0.5" d="M1093.17,-189.966C1145.15,-184.598 1209.14,-177.991 1261.86,-172.547"/>
<polygon fill="black" stroke="black" points="1262.13,-174.278 1266.93,-172.024 1261.77,-170.797 1262.13,-174.278"/>
</g>
<!-- topo.command.pylabplot.matrixplot3d -->
<g id="node30" class="node"><title>topo.command.pylabplot.matrixplot3d</title>
<polygon fill="none" stroke="black" stroke-width="0.5" points="1464,-134.5 1264,-134.5 1264,-113.5 1464,-113.5 1464,-134.5"/>
<text text-anchor="middle" x="1364" y="-121.5" font-family="Vera" font-size="10.00">topo.command.pylabplot.matrixplot3d</text>
</g>
<!-- topo.command.pylabplot.PylabPlotCommand&#45;&gt;topo.command.pylabplot.matrixplot3d -->
<g id="edge26" class="edge"><title>topo.command.pylabplot.PylabPlotCommand&#45;&gt;topo.command.pylabplot.matrixplot3d</title>
<path fill="none" stroke="black" stroke-width="0.5" d="M1023.6,-189.958C1060.21,-177.045 1127.09,-154.874 1186,-143 1209.32,-138.299 1234.61,-134.71 1258.61,-131.989"/>
<polygon fill="black" stroke="black" points="1258.94,-133.714 1263.71,-131.422 1258.55,-130.236 1258.94,-133.714"/>
</g>
<!-- topo.command.pylabplot.plot_tracked_attributes -->
<g id="node48" class="node"><title>topo.command.pylabplot.plot_tracked_attributes</title>
<polygon fill="none" stroke="black" stroke-width="0.5" points="1489,-96.5 1239,-96.5 1239,-75.5 1489,-75.5 1489,-96.5"/>
<text text-anchor="middle" x="1364" y="-83.5" font-family="Vera" font-size="10.00">topo.command.pylabplot.plot_tracked_attributes</text>
</g>
<!-- topo.command.pylabplot.PylabPlotCommand&#45;&gt;topo.command.pylabplot.plot_tracked_attributes -->
<g id="edge46" class="edge"><title>topo.command.pylabplot.PylabPlotCommand&#45;&gt;topo.command.pylabplot.plot_tracked_attributes</title>
<path fill="none" stroke="black" stroke-width="0.5" d="M1011.47,-189.833C1042.87,-169.756 1116.99,-125.219 1186,-105 1201.14,-100.566 1217.27,-97.1427 1233.4,-94.5045"/>
<polygon fill="black" stroke="black" points="1233.74,-96.2221 1238.41,-93.7107 1233.2,-92.7653 1233.74,-96.2221"/>
</g>
<!-- topo.command.pylabplot.histogramplot -->
<g id="node50" class="node"><title>topo.command.pylabplot.histogramplot</title>
<polygon fill="none" stroke="black" stroke-width="0.5" points="1467,-58.5 1261,-58.5 1261,-37.5 1467,-37.5 1467,-58.5"/>
<text text-anchor="middle" x="1364" y="-45.5" font-family="Vera" font-size="10.00">topo.command.pylabplot.histogramplot</text>
</g>
<!-- topo.command.pylabplot.PylabPlotCommand&#45;&gt;topo.command.pylabplot.histogramplot -->
<g id="edge48" class="edge"><title>topo.command.pylabplot.PylabPlotCommand&#45;&gt;topo.command.pylabplot.histogramplot</title>
<path fill="none" stroke="black" stroke-width="0.5" d="M1006.41,-189.716C1033.37,-163.827 1108.71,-95.9642 1186,-67 1207.87,-58.8041 1232.24,-53.7829 1255.76,-50.7787"/>
<polygon fill="black" stroke="black" points="1256.01,-52.5109 1260.76,-50.1678 1255.59,-49.0367 1256.01,-52.5109"/>
</g>
<!-- topo.command.pylabplot.matrixplot3dx3 -->
<g id="node64" class="node"><title>topo.command.pylabplot.matrixplot3dx3</title>
<polygon fill="none" stroke="black" stroke-width="0.5" points="1470,-20.5 1258,-20.5 1258,0.5 1470,0.5 1470,-20.5"/>
<text text-anchor="middle" x="1364" y="-7.5" font-family="Vera" font-size="10.00">topo.command.pylabplot.matrixplot3dx3</text>
</g>
<!-- topo.command.pylabplot.PylabPlotCommand&#45;&gt;topo.command.pylabplot.matrixplot3dx3 -->
<g id="edge64" class="edge"><title>topo.command.pylabplot.PylabPlotCommand&#45;&gt;topo.command.pylabplot.matrixplot3dx3</title>
<path fill="none" stroke="black" stroke-width="0.5" d="M1003.29,-189.979C1026.16,-159.445 1100.08,-67.3266 1186,-29 1206.58,-19.8192 1229.79,-14.315 1252.48,-11.1412"/>
<polygon fill="black" stroke="black" points="1252.89,-12.8521 1257.61,-10.4605 1252.43,-9.38245 1252.89,-12.8521"/>
</g>
<!-- topo.analysis.featureresponses.UnitCurveCommand -->
<g id="node10" class="node"><title>topo.analysis.featureresponses.UnitCurveCommand</title>
<polygon fill="none" stroke="black" stroke-width="0.5" points="2167,-495.5 1901,-495.5 1901,-474.5 2167,-474.5 2167,-495.5"/>
<text text-anchor="middle" x="2034" y="-482.5" font-family="Vera" font-size="10.00">topo.analysis.featureresponses.UnitCurveCommand</text>
</g>
<!-- topo.command.pylabplot.measure_contrast_response -->
<g id="node20" class="node"><title>topo.command.pylabplot.measure_contrast_response</title>
<polygon fill="none" stroke="black" stroke-width="0.5" points="2486,-571.5 2210,-571.5 2210,-550.5 2486,-550.5 2486,-571.5"/>
<text text-anchor="middle" x="2348" y="-558.5" font-family="Vera" font-size="10.00">topo.command.pylabplot.measure_contrast_response</text>
</g>
<!-- topo.analysis.featureresponses.UnitCurveCommand&#45;&gt;topo.command.pylabplot.measure_contrast_response -->
<g id="edge18" class="edge"><title>topo.analysis.featureresponses.UnitCurveCommand&#45;&gt;topo.command.pylabplot.measure_contrast_response</title>
<path fill="none" stroke="black" stroke-width="0.5" d="M2059.22,-495.014C2092.37,-507.792 2152.66,-529.707 2206,-542 2219.71,-545.159 2234.29,-547.85 2248.69,-550.124"/>
<polygon fill="black" stroke="black" points="2248.77,-551.909 2253.98,-550.944 2249.31,-548.45 2248.77,-551.909"/>
</g>
<!-- topo.command.pylabplot.test_measure -->
<g id="node23" class="node"><title>topo.command.pylabplot.test_measure</title>
<polygon fill="none" stroke="black" stroke-width="0.5" points="2451,-533.5 2245,-533.5 2245,-512.5 2451,-512.5 2451,-533.5"/>
<text text-anchor="middle" x="2348" y="-520.5" font-family="Vera" font-size="10.00">topo.command.pylabplot.test_measure</text>
</g>
<!-- topo.analysis.featureresponses.UnitCurveCommand&#45;&gt;topo.command.pylabplot.test_measure -->
<g id="edge20" class="edge"><title>topo.analysis.featureresponses.UnitCurveCommand&#45;&gt;topo.command.pylabplot.test_measure</title>
<path fill="none" stroke="black" stroke-width="0.5" d="M2116.91,-495.034C2161,-500.369 2215.2,-506.929 2260.03,-512.354"/>
<polygon fill="black" stroke="black" points="2260,-514.112 2265.17,-512.976 2260.42,-510.638 2260,-514.112"/>
</g>
<!-- topo.command.pylabplot.measure_or_tuning -->
<g id="node33" class="node"><title>topo.command.pylabplot.measure_or_tuning</title>
<polygon fill="none" stroke="black" stroke-width="0.5" points="2464,-495.5 2232,-495.5 2232,-474.5 2464,-474.5 2464,-495.5"/>
<text text-anchor="middle" x="2348" y="-482.5" font-family="Vera" font-size="10.00">topo.command.pylabplot.measure_or_tuning</text>
</g>
<!-- topo.analysis.featureresponses.UnitCurveCommand&#45;&gt;topo.command.pylabplot.measure_or_tuning -->
<g id="edge30" class="edge"><title>topo.analysis.featureresponses.UnitCurveCommand&#45;&gt;topo.command.pylabplot.measure_or_tuning</title>
<path fill="none" stroke="black" stroke-width="0.5" d="M2167.62,-485C2187,-485 2206.86,-485 2225.99,-485"/>
<polygon fill="black" stroke="black" points="2226.37,-486.75 2231.37,-485 2226.37,-483.25 2226.37,-486.75"/>
</g>
<!-- topo.command.pylabplot.measure_orientation_contrast -->
<g id="node38" class="node"><title>topo.command.pylabplot.measure_orientation_contrast</title>
<polygon fill="none" stroke="black" stroke-width="0.5" points="2490,-457.5 2206,-457.5 2206,-436.5 2490,-436.5 2490,-457.5"/>
<text text-anchor="middle" x="2348" y="-444.5" font-family="Vera" font-size="10.00">topo.command.pylabplot.measure_orientation_contrast</text>
</g>
<!-- topo.analysis.featureresponses.UnitCurveCommand&#45;&gt;topo.command.pylabplot.measure_orientation_contrast -->
<g id="edge36" class="edge"><title>topo.analysis.featureresponses.UnitCurveCommand&#45;&gt;topo.command.pylabplot.measure_orientation_contrast</title>
<path fill="none" stroke="black" stroke-width="0.5" d="M2116.91,-474.966C2161,-469.631 2215.2,-463.071 2260.03,-457.646"/>
<polygon fill="black" stroke="black" points="2260.42,-459.362 2265.17,-457.024 2260,-455.888 2260.42,-459.362"/>
</g>
<!-- topo.command.pylabplot.measure_size_response -->
<g id="node40" class="node"><title>topo.command.pylabplot.measure_size_response</title>
<polygon fill="none" stroke="black" stroke-width="0.5" points="2476,-419.5 2220,-419.5 2220,-398.5 2476,-398.5 2476,-419.5"/>
<text text-anchor="middle" x="2348" y="-406.5" font-family="Vera" font-size="10.00">topo.command.pylabplot.measure_size_response</text>
</g>
<!-- topo.analysis.featureresponses.UnitCurveCommand&#45;&gt;topo.command.pylabplot.measure_size_response -->
<g id="edge38" class="edge"><title>topo.analysis.featureresponses.UnitCurveCommand&#45;&gt;topo.command.pylabplot.measure_size_response</title>
<path fill="none" stroke="black" stroke-width="0.5" d="M2148.23,-474.953C2155.78,-472.501 2163.11,-469.548 2170,-466 2190.68,-455.348 2185.29,-438.592 2206,-428 2211.36,-425.257 2216.98,-422.864 2222.76,-420.777"/>
<polygon fill="black" stroke="black" points="2223.49,-422.377 2227.65,-419.096 2222.35,-419.067 2223.49,-422.377"/>
</g>
<!-- topo.analysis.featureresponses.FeatureCurveCommand -->
<g id="node11" class="node"><title>topo.analysis.featureresponses.FeatureCurveCommand</title>
<polygon fill="none" stroke="black" stroke-width="0.5" points="1862,-476.5 1578,-476.5 1578,-455.5 1862,-455.5 1862,-476.5"/>
<text text-anchor="middle" x="1720" y="-463.5" font-family="Vera" font-size="10.00">topo.analysis.featureresponses.FeatureCurveCommand</text>
</g>
<!-- topo.analysis.featureresponses.FeatureCurveCommand&#45;&gt;topo.analysis.featureresponses.UnitCurveCommand -->
<g id="edge10" class="edge"><title>topo.analysis.featureresponses.FeatureCurveCommand&#45;&gt;topo.analysis.featureresponses.UnitCurveCommand</title>
<path fill="none" stroke="black" stroke-width="0.5" d="M1862.3,-474.611C1873.28,-475.275 1884.35,-475.945 1895.3,-476.607"/>
<polygon fill="black" stroke="black" points="1895.23,-478.356 1900.32,-476.911 1895.44,-474.862 1895.23,-478.356"/>
</g>
<!-- topo.command.pylabplot.measure_or_tuning_fullfield -->
<g id="node56" class="node"><title>topo.command.pylabplot.measure_or_tuning_fullfield</title>
<polygon fill="none" stroke="black" stroke-width="0.5" points="2169,-457.5 1899,-457.5 1899,-436.5 2169,-436.5 2169,-457.5"/>
<text text-anchor="middle" x="2034" y="-444.5" font-family="Vera" font-size="10.00">topo.command.pylabplot.measure_or_tuning_fullfield</text>
</g>
<!-- topo.analysis.featureresponses.FeatureCurveCommand&#45;&gt;topo.command.pylabplot.measure_or_tuning_fullfield -->
<g id="edge54" class="edge"><title>topo.analysis.featureresponses.FeatureCurveCommand&#45;&gt;topo.command.pylabplot.measure_or_tuning_fullfield</title>
<path fill="none" stroke="black" stroke-width="0.5" d="M1862.3,-457.389C1872.62,-456.765 1883.02,-456.135 1893.33,-455.512"/>
<polygon fill="black" stroke="black" points="1893.5,-457.255 1898.39,-455.206 1893.29,-453.761 1893.5,-457.255"/>
</g>
<!-- topo.analysis.featureresponses.SinusoidalMeasureResponseCommand -->
<g id="node15" class="node"><title>topo.analysis.featureresponses.SinusoidalMeasureResponseCommand</title>
<polygon fill="none" stroke="black" stroke-width="0.5" points="1542,-476.5 1186,-476.5 1186,-455.5 1542,-455.5 1542,-476.5"/>
<text text-anchor="middle" x="1364" y="-463.5" font-family="Vera" font-size="10.00">topo.analysis.featureresponses.SinusoidalMeasureResponseCommand</text>
</g>
<!-- topo.analysis.featureresponses.SinusoidalMeasureResponseCommand&#45;&gt;topo.analysis.featureresponses.FeatureCurveCommand -->
<g id="edge34" class="edge"><title>topo.analysis.featureresponses.SinusoidalMeasureResponseCommand&#45;&gt;topo.analysis.featureresponses.FeatureCurveCommand</title>
<path fill="none" stroke="black" stroke-width="0.5" d="M1542,-466C1552.21,-466 1562.43,-466 1572.51,-466"/>
<polygon fill="black" stroke="black" points="1572.76,-467.75 1577.76,-466 1572.76,-464.25 1572.76,-467.75"/>
</g>
<!-- topo.analysis.featureresponses.MeasureResponseCommand -->
<g id="node16" class="node"><title>topo.analysis.featureresponses.MeasureResponseCommand</title>
<polygon fill="none" stroke="black" stroke-width="0.5" points="1149,-438.5 843,-438.5 843,-417.5 1149,-417.5 1149,-438.5"/>
<text text-anchor="middle" x="996" y="-425.5" font-family="Vera" font-size="10.00">topo.analysis.featureresponses.MeasureResponseCommand</text>
</g>
<!-- topo.analysis.featureresponses.MeasureResponseCommand&#45;&gt;topo.analysis.featureresponses.SinusoidalMeasureResponseCommand -->
<g id="edge14" class="edge"><title>topo.analysis.featureresponses.MeasureResponseCommand&#45;&gt;topo.analysis.featureresponses.SinusoidalMeasureResponseCommand</title>
<path fill="none" stroke="black" stroke-width="0.5" d="M1093.17,-438.034C1145.15,-443.402 1209.14,-450.009 1261.86,-455.453"/>
<polygon fill="black" stroke="black" points="1261.77,-457.203 1266.93,-455.976 1262.13,-453.722 1261.77,-457.203"/>
</g>
<!-- topo.analysis.featureresponses.PositionMeasurementCommand -->
<g id="node42" class="node"><title>topo.analysis.featureresponses.PositionMeasurementCommand</title>
<polygon fill="none" stroke="black" stroke-width="0.5" points="1526,-438.5 1202,-438.5 1202,-417.5 1526,-417.5 1526,-438.5"/>
<text text-anchor="middle" x="1364" y="-425.5" font-family="Vera" font-size="10.00">topo.analysis.featureresponses.PositionMeasurementCommand</text>
</g>
<!-- topo.analysis.featureresponses.MeasureResponseCommand&#45;&gt;topo.analysis.featureresponses.PositionMeasurementCommand -->
<g id="edge40" class="edge"><title>topo.analysis.featureresponses.MeasureResponseCommand&#45;&gt;topo.analysis.featureresponses.PositionMeasurementCommand</title>
<path fill="none" stroke="black" stroke-width="0.5" d="M1149.67,-428C1165.16,-428 1180.95,-428 1196.58,-428"/>
<polygon fill="black" stroke="black" points="1196.87,-429.75 1201.87,-428 1196.87,-426.25 1196.87,-429.75"/>
</g>
<!-- topo.command.pylabplot.cyclic_tuning_curve -->
<g id="node52" class="node"><title>topo.command.pylabplot.cyclic_tuning_curve</title>
<polygon fill="none" stroke="black" stroke-width="0.5" points="1836,-210.5 1604,-210.5 1604,-189.5 1836,-189.5 1836,-210.5"/>
<text text-anchor="middle" x="1720" y="-197.5" font-family="Vera" font-size="10.00">topo.command.pylabplot.cyclic_tuning_curve</text>
</g>
<!-- topo.command.pylabplot.tuning_curve&#45;&gt;topo.command.pylabplot.cyclic_tuning_curve -->
<g id="edge50" class="edge"><title>topo.command.pylabplot.tuning_curve&#45;&gt;topo.command.pylabplot.cyclic_tuning_curve</title>
<path fill="none" stroke="black" stroke-width="0.5" d="M1464.59,-200C1506.36,-200 1555.2,-200 1598.92,-200"/>
<polygon fill="black" stroke="black" points="1598.95,-201.75 1603.95,-200 1598.95,-198.25 1598.95,-201.75"/>
</g>
<!-- param.parameterized.Parameterized -->
<g id="node22" class="node"><title>param.parameterized.Parameterized</title>
<polygon fill="none" stroke="black" stroke-width="0.5" points="194,-305.5 5.68434e-14,-305.5 0,-284.5 194,-284.5 194,-305.5"/>
<text text-anchor="middle" x="97" y="-292.5" font-family="Vera" font-size="10.00">param.parameterized.Parameterized</text>
</g>
<!-- param.parameterized.ParameterizedFunction -->
<g id="node26" class="node"><title>param.parameterized.ParameterizedFunction</title>
<polygon fill="none" stroke="black" stroke-width="0.5" points="464,-305.5 230,-305.5 230,-284.5 464,-284.5 464,-305.5"/>
<text text-anchor="middle" x="347" y="-292.5" font-family="Vera" font-size="10.00">param.parameterized.ParameterizedFunction</text>
</g>
<!-- param.parameterized.Parameterized&#45;&gt;param.parameterized.ParameterizedFunction -->
<g id="edge28" class="edge"><title>param.parameterized.Parameterized&#45;&gt;param.parameterized.ParameterizedFunction</title>
<path fill="none" stroke="black" stroke-width="0.5" d="M194.014,-295C204.04,-295 214.319,-295 224.575,-295"/>
<polygon fill="black" stroke="black" points="224.607,-296.75 229.607,-295 224.607,-293.25 224.607,-296.75"/>
</g>
<!-- topo.analysis.featureresponses.PatternPresentingCommand -->
<g id="node25" class="node"><title>topo.analysis.featureresponses.PatternPresentingCommand</title>
<polygon fill="none" stroke="black" stroke-width="0.5" points="805,-419.5 501,-419.5 501,-398.5 805,-398.5 805,-419.5"/>
<text text-anchor="middle" x="653" y="-406.5" font-family="Vera" font-size="10.00">topo.analysis.featureresponses.PatternPresentingCommand</text>
</g>
<!-- topo.analysis.featureresponses.PatternPresentingCommand&#45;&gt;topo.analysis.featureresponses.MeasureResponseCommand -->
<g id="edge58" class="edge"><title>topo.analysis.featureresponses.PatternPresentingCommand&#45;&gt;topo.analysis.featureresponses.MeasureResponseCommand</title>
<path fill="none" stroke="black" stroke-width="0.5" d="M805.942,-417.472C816.305,-418.046 826.759,-418.625 837.151,-419.201"/>
<polygon fill="black" stroke="black" points="837.158,-420.954 842.247,-419.483 837.352,-417.459 837.158,-420.954"/>
</g>
<!-- param.parameterized.ParameterizedFunction&#45;&gt;topo.analysis.featureresponses.PatternPresentingCommand -->
<g id="edge22" class="edge"><title>param.parameterized.ParameterizedFunction&#45;&gt;topo.analysis.featureresponses.PatternPresentingCommand</title>
<path fill="none" stroke="black" stroke-width="0.5" d="M373.887,-305.017C430.202,-325.997 560.332,-374.477 620.905,-397.043"/>
<polygon fill="black" stroke="black" points="620.549,-398.778 625.845,-398.883 621.771,-395.498 620.549,-398.778"/>
</g>
<!-- topo.command.pylabplot.measure_cog -->
<g id="node44" class="node"><title>topo.command.pylabplot.measure_cog</title>
<polygon fill="none" stroke="black" stroke-width="0.5" points="755,-305.5 551,-305.5 551,-284.5 755,-284.5 755,-305.5"/>
<text text-anchor="middle" x="653" y="-292.5" font-family="Vera" font-size="10.00">topo.command.pylabplot.measure_cog</text>
</g>
<!-- param.parameterized.ParameterizedFunction&#45;&gt;topo.command.pylabplot.measure_cog -->
<g id="edge42" class="edge"><title>param.parameterized.ParameterizedFunction&#45;&gt;topo.command.pylabplot.measure_cog</title>
<path fill="none" stroke="black" stroke-width="0.5" d="M464.432,-295C490.978,-295 519.035,-295 545.163,-295"/>
<polygon fill="black" stroke="black" points="545.362,-296.75 550.362,-295 545.362,-293.25 545.362,-296.75"/>
</g>
<!-- topo.command.Command -->
<g id="node58" class="node"><title>topo.command.Command</title>
<polygon fill="none" stroke="black" stroke-width="0.5" points="724,-248.5 582,-248.5 582,-227.5 724,-227.5 724,-248.5"/>
<text text-anchor="middle" x="653" y="-235.5" font-family="Vera" font-size="10.00">topo.command.Command</text>
</g>
<!-- param.parameterized.ParameterizedFunction&#45;&gt;topo.command.Command -->
<g id="edge60" class="edge"><title>param.parameterized.ParameterizedFunction&#45;&gt;topo.command.Command</title>
<path fill="none" stroke="black" stroke-width="0.5" d="M401.002,-284.941C455.214,-274.843 538.485,-259.331 594.303,-248.934"/>
<polygon fill="black" stroke="black" points="594.686,-250.643 599.281,-248.006 594.045,-247.202 594.686,-250.643"/>
</g>
<!-- topo.command.pylabplot.measure_position_pref -->
<g id="node54" class="node"><title>topo.command.pylabplot.measure_position_pref</title>
<polygon fill="none" stroke="black" stroke-width="0.5" points="1844,-438.5 1596,-438.5 1596,-417.5 1844,-417.5 1844,-438.5"/>
<text text-anchor="middle" x="1720" y="-425.5" font-family="Vera" font-size="10.00">topo.command.pylabplot.measure_position_pref</text>
</g>
<!-- topo.analysis.featureresponses.PositionMeasurementCommand&#45;&gt;topo.command.pylabplot.measure_position_pref -->
<g id="edge52" class="edge"><title>topo.analysis.featureresponses.PositionMeasurementCommand&#45;&gt;topo.command.pylabplot.measure_position_pref</title>
<path fill="none" stroke="black" stroke-width="0.5" d="M1526.11,-428C1547.52,-428 1569.23,-428 1590,-428"/>
<polygon fill="black" stroke="black" points="1590.26,-429.75 1595.26,-428 1590.26,-426.25 1590.26,-429.75"/>
</g>
<!-- topo.command.Command&#45;&gt;topo.command.pylabplot.PylabPlotCommand -->
<g id="edge56" class="edge"><title>topo.command.Command&#45;&gt;topo.command.pylabplot.PylabPlotCommand</title>
<path fill="none" stroke="black" stroke-width="0.5" d="M724.904,-230.034C775.913,-224.383 844.91,-216.739 900.531,-210.577"/>
<polygon fill="black" stroke="black" points="900.753,-212.313 905.529,-210.023 900.367,-208.834 900.753,-212.313"/>
</g>
</g>
</svg>
