<?xml version="1.0" encoding="UTF-8" standalone="no"?>
<!DOCTYPE svg PUBLIC "-//W3C//DTD SVG 1.1//EN"
 "http://www.w3.org/Graphics/SVG/1.1/DTD/svg11.dtd">
<!-- Generated by graphviz version 2.26.3 (20100126.1600)
 -->
<!-- Title: inheritance273a80740e Pages: 1 -->
<svg width="856pt" height="902pt"
 viewBox="0.00 0.00 856.00 902.00" xmlns="http://www.w3.org/2000/svg" xmlns:xlink="http://www.w3.org/1999/xlink">
<g id="graph1" class="graph" transform="scale(1 1) rotate(0) translate(4 898)">
<title>inheritance273a80740e</title>
<polygon fill="white" stroke="white" points="-4,5 -4,-898 853,-898 853,5 -4,5"/>
<!-- imagen.PowerSpectrum -->
<g id="node1" class="node"><title>imagen.PowerSpectrum</title>
<polygon fill="none" stroke="black" stroke-width="0.5" points="637,-856.5 507,-856.5 507,-835.5 637,-835.5 637,-856.5"/>
<text text-anchor="middle" x="572" y="-843.5" font-family="Vera" font-size="10.00">imagen.PowerSpectrum</text>
</g>
<!-- imagen.Spectrogram -->
<g id="node47" class="node"><title>imagen.Spectrogram</title>
<polygon fill="none" stroke="black" stroke-width="0.5" points="828,-856.5 710,-856.5 710,-835.5 828,-835.5 828,-856.5"/>
<text text-anchor="middle" x="769" y="-843.5" font-family="Vera" font-size="10.00">imagen.Spectrogram</text>
</g>
<!-- imagen.PowerSpectrum&#45;&gt;imagen.Spectrogram -->
<g id="edge44" class="edge"><title>imagen.PowerSpectrum&#45;&gt;imagen.Spectrogram</title>
<path fill="none" stroke="black" stroke-width="0.5" d="M637.598,-846C659.048,-846 682.849,-846 704.237,-846"/>
<polygon fill="black" stroke="black" points="704.332,-847.75 709.332,-846 704.332,-844.25 704.332,-847.75"/>
</g>
<!-- imagen.patterngenerator.PatternGenerator -->
<g id="node2" class="node"><title>imagen.patterngenerator.PatternGenerator</title>
<polygon fill="none" stroke="black" stroke-width="0.5" points="454,-438.5 230,-438.5 230,-417.5 454,-417.5 454,-438.5"/>
<text text-anchor="middle" x="342" y="-425.5" font-family="Vera" font-size="10.00">imagen.patterngenerator.PatternGenerator</text>
</g>
<!-- imagen.patterngenerator.PatternGenerator&#45;&gt;imagen.PowerSpectrum -->
<g id="edge2" class="edge"><title>imagen.patterngenerator.PatternGenerator&#45;&gt;imagen.PowerSpectrum</title>
<path fill="none" stroke="black" stroke-width="0.5" d="M342.438,-438.27C345.191,-489.18 364.371,-716.449 490,-827 493.545,-830.119 497.501,-832.754 501.709,-834.977"/>
<polygon fill="black" stroke="black" points="501.102,-836.627 506.365,-837.23 502.627,-833.477 501.102,-836.627"/>
</g>
<!-- imagen.LogGaussian -->
<g id="node5" class="node"><title>imagen.LogGaussian</title>
<polygon fill="none" stroke="black" stroke-width="0.5" points="630,-818.5 514,-818.5 514,-797.5 630,-797.5 630,-818.5"/>
<text text-anchor="middle" x="572" y="-805.5" font-family="Vera" font-size="10.00">imagen.LogGaussian</text>
</g>
<!-- imagen.patterngenerator.PatternGenerator&#45;&gt;imagen.LogGaussian -->
<g id="edge4" class="edge"><title>imagen.patterngenerator.PatternGenerator&#45;&gt;imagen.LogGaussian</title>
<path fill="none" stroke="black" stroke-width="0.5" d="M342.878,-438.255C347.555,-486.225 373.897,-690.27 490,-789 495.427,-793.615 501.761,-797.161 508.459,-799.879"/>
<polygon fill="black" stroke="black" points="507.852,-801.52 513.148,-801.63 509.077,-798.241 507.852,-801.52"/>
</g>
<!-- imagen.SquareGrating -->
<g id="node9" class="node"><title>imagen.SquareGrating</title>
<polygon fill="none" stroke="black" stroke-width="0.5" points="634,-780.5 510,-780.5 510,-759.5 634,-759.5 634,-780.5"/>
<text text-anchor="middle" x="572" y="-767.5" font-family="Vera" font-size="10.00">imagen.SquareGrating</text>
</g>
<!-- imagen.patterngenerator.PatternGenerator&#45;&gt;imagen.SquareGrating -->
<g id="edge8" class="edge"><title>imagen.patterngenerator.PatternGenerator&#45;&gt;imagen.SquareGrating</title>
<path fill="none" stroke="black" stroke-width="0.5" d="M343.386,-438.081C350.072,-482.676 383.187,-663.842 490,-751 494.334,-754.537 499.206,-757.441 504.357,-759.822"/>
<polygon fill="black" stroke="black" points="503.873,-761.518 509.159,-761.865 505.244,-758.297 503.873,-761.518"/>
</g>
<!-- imagen.Translator -->
<g id="node11" class="node"><title>imagen.Translator</title>
<polygon fill="none" stroke="black" stroke-width="0.5" points="623,-742.5 521,-742.5 521,-721.5 623,-721.5 623,-742.5"/>
<text text-anchor="middle" x="572" y="-729.5" font-family="Vera" font-size="10.00">imagen.Translator</text>
</g>
<!-- imagen.patterngenerator.PatternGenerator&#45;&gt;imagen.Translator -->
<g id="edge10" class="edge"><title>imagen.patterngenerator.PatternGenerator&#45;&gt;imagen.Translator</title>
<path fill="none" stroke="black" stroke-width="0.5" d="M344.023,-438.009C352.903,-479.239 392.423,-637.308 490,-713 497.571,-718.873 506.643,-722.984 515.951,-725.85"/>
<polygon fill="black" stroke="black" points="515.545,-727.554 520.833,-727.238 516.502,-724.188 515.545,-727.554"/>
</g>
<!-- imagen.SigmoidedDoG -->
<g id="node13" class="node"><title>imagen.SigmoidedDoG</title>
<polygon fill="none" stroke="black" stroke-width="0.5" points="636,-704.5 508,-704.5 508,-683.5 636,-683.5 636,-704.5"/>
<text text-anchor="middle" x="572" y="-691.5" font-family="Vera" font-size="10.00">imagen.SigmoidedDoG</text>
</g>
<!-- imagen.patterngenerator.PatternGenerator&#45;&gt;imagen.SigmoidedDoG -->
<g id="edge12" class="edge"><title>imagen.patterngenerator.PatternGenerator&#45;&gt;imagen.SigmoidedDoG</title>
<path fill="none" stroke="black" stroke-width="0.5" d="M344.912,-438.209C356.313,-476.227 401.696,-610.707 490,-675 494.076,-677.967 498.542,-680.48 503.22,-682.607"/>
<polygon fill="black" stroke="black" points="502.675,-684.276 507.962,-684.607 504.035,-681.051 502.675,-684.276"/>
</g>
<!-- imagen.SigmoidedDoLG -->
<g id="node15" class="node"><title>imagen.SigmoidedDoLG</title>
<polygon fill="none" stroke="black" stroke-width="0.5" points="638,-666.5 506,-666.5 506,-645.5 638,-645.5 638,-666.5"/>
<text text-anchor="middle" x="572" y="-653.5" font-family="Vera" font-size="10.00">imagen.SigmoidedDoLG</text>
</g>
<!-- imagen.patterngenerator.PatternGenerator&#45;&gt;imagen.SigmoidedDoLG -->
<g id="edge14" class="edge"><title>imagen.patterngenerator.PatternGenerator&#45;&gt;imagen.SigmoidedDoLG</title>
<path fill="none" stroke="black" stroke-width="0.5" d="M346.065,-438.266C360.187,-472.52 410.631,-583.725 490,-637 493.921,-639.632 498.158,-641.902 502.569,-643.859"/>
<polygon fill="black" stroke="black" points="502.129,-645.571 507.418,-645.864 503.466,-642.336 502.129,-645.571"/>
</g>
<!-- imagen.Rectangle -->
<g id="node18" class="node"><title>imagen.Rectangle</title>
<polygon fill="none" stroke="black" stroke-width="0.5" points="623,-628.5 521,-628.5 521,-607.5 623,-607.5 623,-628.5"/>
<text text-anchor="middle" x="572" y="-615.5" font-family="Vera" font-size="10.00">imagen.Rectangle</text>
</g>
<!-- imagen.patterngenerator.PatternGenerator&#45;&gt;imagen.Rectangle -->
<g id="edge24" class="edge"><title>imagen.patterngenerator.PatternGenerator&#45;&gt;imagen.Rectangle</title>
<path fill="none" stroke="black" stroke-width="0.5" d="M347.535,-438.029C364.516,-467.796 419.052,-556.227 490,-599 497.814,-603.711 506.694,-607.254 515.656,-609.919"/>
<polygon fill="black" stroke="black" points="515.35,-611.65 520.636,-611.311 516.292,-608.28 515.35,-611.65"/>
</g>
<!-- imagen.Sigmoid -->
<g id="node20" class="node"><title>imagen.Sigmoid</title>
<polygon fill="none" stroke="black" stroke-width="0.5" points="619,-590.5 525,-590.5 525,-569.5 619,-569.5 619,-590.5"/>
<text text-anchor="middle" x="572" y="-577.5" font-family="Vera" font-size="10.00">imagen.Sigmoid</text>
</g>
<!-- imagen.patterngenerator.PatternGenerator&#45;&gt;imagen.Sigmoid -->
<g id="edge18" class="edge"><title>imagen.patterngenerator.PatternGenerator&#45;&gt;imagen.Sigmoid</title>
<path fill="none" stroke="black" stroke-width="0.5" d="M350.101,-438.206C370.623,-463.326 427.488,-528.465 490,-561 499.023,-565.696 509.202,-569.243 519.241,-571.919"/>
<polygon fill="black" stroke="black" points="518.876,-573.632 524.153,-573.164 519.736,-570.239 518.876,-573.632"/>
</g>
<!-- imagen.Selector -->
<g id="node22" class="node"><title>imagen.Selector</title>
<polygon fill="none" stroke="black" stroke-width="0.5" points="619,-552.5 525,-552.5 525,-531.5 619,-531.5 619,-552.5"/>
<text text-anchor="middle" x="572" y="-539.5" font-family="Vera" font-size="10.00">imagen.Selector</text>
</g>
<!-- imagen.patterngenerator.PatternGenerator&#45;&gt;imagen.Selector -->
<g id="edge20" class="edge"><title>imagen.patterngenerator.PatternGenerator&#45;&gt;imagen.Selector</title>
<path fill="none" stroke="black" stroke-width="0.5" d="M354.613,-438.267C379.157,-457.732 435.705,-500.098 490,-523 499.257,-526.905 509.456,-530.082 519.423,-532.642"/>
<polygon fill="black" stroke="black" points="519.018,-534.345 524.292,-533.849 519.86,-530.947 519.018,-534.345"/>
</g>
<!-- imagen.Disk -->
<g id="node24" class="node"><title>imagen.Disk</title>
<polygon fill="none" stroke="black" stroke-width="0.5" points="610,-514.5 534,-514.5 534,-493.5 610,-493.5 610,-514.5"/>
<text text-anchor="middle" x="572" y="-501.5" font-family="Vera" font-size="10.00">imagen.Disk</text>
</g>
<!-- imagen.patterngenerator.PatternGenerator&#45;&gt;imagen.Disk -->
<g id="edge22" class="edge"><title>imagen.patterngenerator.PatternGenerator&#45;&gt;imagen.Disk</title>
<path fill="none" stroke="black" stroke-width="0.5" d="M364.974,-438.004C393.776,-450.276 444.855,-471.151 490,-485 502.457,-488.821 516.184,-492.286 528.785,-495.178"/>
<polygon fill="black" stroke="black" points="528.475,-496.902 533.738,-496.299 529.248,-493.489 528.475,-496.902"/>
</g>
<!-- imagen.HalfPlane -->
<g id="node27" class="node"><title>imagen.HalfPlane</title>
<polygon fill="none" stroke="black" stroke-width="0.5" points="622,-476.5 522,-476.5 522,-455.5 622,-455.5 622,-476.5"/>
<text text-anchor="middle" x="572" y="-463.5" font-family="Vera" font-size="10.00">imagen.HalfPlane</text>
</g>
<!-- imagen.patterngenerator.PatternGenerator&#45;&gt;imagen.HalfPlane -->
<g id="edge26" class="edge"><title>imagen.patterngenerator.PatternGenerator&#45;&gt;imagen.HalfPlane</title>
<path fill="none" stroke="black" stroke-width="0.5" d="M402.731,-438.034C437.995,-443.86 482.094,-451.146 516.439,-456.82"/>
<polygon fill="black" stroke="black" points="516.215,-458.557 521.433,-457.645 516.785,-455.104 516.215,-458.557"/>
</g>
<!-- imagen.Ring -->
<g id="node33" class="node"><title>imagen.Ring</title>
<polygon fill="none" stroke="black" stroke-width="0.5" points="610,-438.5 534,-438.5 534,-417.5 610,-417.5 610,-438.5"/>
<text text-anchor="middle" x="572" y="-425.5" font-family="Vera" font-size="10.00">imagen.Ring</text>
</g>
<!-- imagen.patterngenerator.PatternGenerator&#45;&gt;imagen.Ring -->
<g id="edge32" class="edge"><title>imagen.patterngenerator.PatternGenerator&#45;&gt;imagen.Ring</title>
<path fill="none" stroke="black" stroke-width="0.5" d="M454.305,-428C480.803,-428 507.491,-428 528.739,-428"/>
<polygon fill="black" stroke="black" points="528.742,-429.75 533.742,-428 528.742,-426.25 528.742,-429.75"/>
</g>
<!-- imagen.GaussiansCorner -->
<g id="node35" class="node"><title>imagen.GaussiansCorner</title>
<polygon fill="none" stroke="black" stroke-width="0.5" points="640,-400.5 504,-400.5 504,-379.5 640,-379.5 640,-400.5"/>
<text text-anchor="middle" x="572" y="-387.5" font-family="Vera" font-size="10.00">imagen.GaussiansCorner</text>
</g>
<!-- imagen.patterngenerator.PatternGenerator&#45;&gt;imagen.GaussiansCorner -->
<g id="edge34" class="edge"><title>imagen.patterngenerator.PatternGenerator&#45;&gt;imagen.GaussiansCorner</title>
<path fill="none" stroke="black" stroke-width="0.5" d="M402.731,-417.966C434.566,-412.706 473.602,-406.257 506.16,-400.878"/>
<polygon fill="black" stroke="black" points="506.68,-402.566 511.328,-400.024 506.11,-399.113 506.68,-402.566"/>
</g>
<!-- imagen.Arc -->
<g id="node38" class="node"><title>imagen.Arc</title>
<polygon fill="none" stroke="black" stroke-width="0.5" points="607,-362.5 537,-362.5 537,-341.5 607,-341.5 607,-362.5"/>
<text text-anchor="middle" x="572" y="-349.5" font-family="Vera" font-size="10.00">imagen.Arc</text>
</g>
<!-- imagen.patterngenerator.PatternGenerator&#45;&gt;imagen.Arc -->
<g id="edge52" class="edge"><title>imagen.patterngenerator.PatternGenerator&#45;&gt;imagen.Arc</title>
<path fill="none" stroke="black" stroke-width="0.5" d="M432.367,-417.995C439.897,-415.58 447.214,-412.621 454,-409 474.524,-398.046 469.811,-382.561 490,-371 502.537,-363.821 517.619,-359.353 531.412,-356.573"/>
<polygon fill="black" stroke="black" points="531.841,-358.273 536.428,-355.624 531.189,-354.834 531.841,-358.273"/>
</g>
<!-- imagen.Composite -->
<g id="node40" class="node"><title>imagen.Composite</title>
<polygon fill="none" stroke="black" stroke-width="0.5" points="625,-324.5 519,-324.5 519,-303.5 625,-303.5 625,-324.5"/>
<text text-anchor="middle" x="572" y="-311.5" font-family="Vera" font-size="10.00">imagen.Composite</text>
</g>
<!-- imagen.patterngenerator.PatternGenerator&#45;&gt;imagen.Composite -->
<g id="edge38" class="edge"><title>imagen.patterngenerator.PatternGenerator&#45;&gt;imagen.Composite</title>
<path fill="none" stroke="black" stroke-width="0.5" d="M438.989,-417.948C444.306,-415.468 449.362,-412.513 454,-409 483.794,-386.433 460.892,-356.445 490,-333 496.692,-327.61 504.635,-323.694 512.902,-320.859"/>
<polygon fill="black" stroke="black" points="513.838,-322.399 518.083,-319.23 512.788,-319.06 513.838,-322.399"/>
</g>
<!-- imagen.SineGrating -->
<g id="node43" class="node"><title>imagen.SineGrating</title>
<polygon fill="none" stroke="black" stroke-width="0.5" points="628,-286.5 516,-286.5 516,-265.5 628,-265.5 628,-286.5"/>
<text text-anchor="middle" x="572" y="-273.5" font-family="Vera" font-size="10.00">imagen.SineGrating</text>
</g>
<!-- imagen.patterngenerator.PatternGenerator&#45;&gt;imagen.SineGrating -->
<g id="edge66" class="edge"><title>imagen.patterngenerator.PatternGenerator&#45;&gt;imagen.SineGrating</title>
<path fill="none" stroke="black" stroke-width="0.5" d="M440.885,-417.984C445.57,-415.468 449.984,-412.497 454,-409 494.069,-374.106 450.99,-331.074 490,-295 495.953,-289.495 503.177,-285.484 510.843,-282.578"/>
<polygon fill="black" stroke="black" points="511.513,-284.198 515.665,-280.907 510.367,-280.89 511.513,-284.198"/>
</g>
<!-- imagen.ExponentialDecay -->
<g id="node52" class="node"><title>imagen.ExponentialDecay</title>
<polygon fill="none" stroke="black" stroke-width="0.5" points="642,-248.5 502,-248.5 502,-227.5 642,-227.5 642,-248.5"/>
<text text-anchor="middle" x="572" y="-235.5" font-family="Vera" font-size="10.00">imagen.ExponentialDecay</text>
</g>
<!-- imagen.patterngenerator.PatternGenerator&#45;&gt;imagen.ExponentialDecay -->
<g id="edge48" class="edge"><title>imagen.patterngenerator.PatternGenerator&#45;&gt;imagen.ExponentialDecay</title>
<path fill="none" stroke="black" stroke-width="0.5" d="M441.964,-417.894C446.282,-415.383 450.331,-412.44 454,-409 504.648,-361.518 440.79,-305.971 490,-257 492.311,-254.7 494.842,-252.657 497.538,-250.843"/>
<polygon fill="black" stroke="black" points="498.546,-252.277 501.9,-248.177 496.721,-249.291 498.546,-252.277"/>
</g>
<!-- imagen.DifferenceOfGaussians -->
<g id="node54" class="node"><title>imagen.DifferenceOfGaussians</title>
<polygon fill="none" stroke="black" stroke-width="0.5" points="654,-210.5 490,-210.5 490,-189.5 654,-189.5 654,-210.5"/>
<text text-anchor="middle" x="572" y="-197.5" font-family="Vera" font-size="10.00">imagen.DifferenceOfGaussians</text>
</g>
<!-- imagen.patterngenerator.PatternGenerator&#45;&gt;imagen.DifferenceOfGaussians -->
<g id="edge50" class="edge"><title>imagen.patterngenerator.PatternGenerator&#45;&gt;imagen.DifferenceOfGaussians</title>
<path fill="none" stroke="black" stroke-width="0.5" d="M442.407,-417.942C446.58,-415.412 450.48,-412.453 454,-409 515.355,-348.813 430.467,-280.99 490,-219 492.088,-216.826 494.371,-214.879 496.806,-213.137"/>
<polygon fill="black" stroke="black" points="498.084,-214.395 501.34,-210.216 496.189,-211.452 498.084,-214.395"/>
</g>
<!-- imagen.Gaussian -->
<g id="node57" class="node"><title>imagen.Gaussian</title>
<polygon fill="none" stroke="black" stroke-width="0.5" points="622,-172.5 522,-172.5 522,-151.5 622,-151.5 622,-172.5"/>
<text text-anchor="middle" x="572" y="-159.5" font-family="Vera" font-size="10.00">imagen.Gaussian</text>
</g>
<!-- imagen.patterngenerator.PatternGenerator&#45;&gt;imagen.Gaussian -->
<g id="edge54" class="edge"><title>imagen.patterngenerator.PatternGenerator&#45;&gt;imagen.Gaussian</title>
<path fill="none" stroke="black" stroke-width="0.5" d="M443.032,-417.763C446.984,-415.268 450.672,-412.366 454,-409 526.125,-336.045 420.082,-256.073 490,-181 497.104,-173.372 506.615,-168.52 516.64,-165.489"/>
<polygon fill="black" stroke="black" points="517.229,-167.143 521.595,-164.143 516.311,-163.765 517.229,-167.143"/>
</g>
<!-- imagen.Gabor -->
<g id="node60" class="node"><title>imagen.Gabor</title>
<polygon fill="none" stroke="black" stroke-width="0.5" points="614,-134.5 530,-134.5 530,-113.5 614,-113.5 614,-134.5"/>
<text text-anchor="middle" x="572" y="-121.5" font-family="Vera" font-size="10.00">imagen.Gabor</text>
</g>
<!-- imagen.patterngenerator.PatternGenerator&#45;&gt;imagen.Gabor -->
<g id="edge58" class="edge"><title>imagen.patterngenerator.PatternGenerator&#45;&gt;imagen.Gabor</title>
<path fill="none" stroke="black" stroke-width="0.5" d="M443.124,-417.853C447.052,-415.334 450.71,-412.403 454,-409 536.932,-323.24 409.662,-231.195 490,-143 498.774,-133.367 511.384,-128.14 524.093,-125.418"/>
<polygon fill="black" stroke="black" points="524.563,-127.11 529.151,-124.461 523.913,-123.671 524.563,-127.11"/>
</g>
<!-- imagen.Sweeper -->
<g id="node62" class="node"><title>imagen.Sweeper</title>
<polygon fill="none" stroke="black" stroke-width="0.5" points="620,-96.5 524,-96.5 524,-75.5 620,-75.5 620,-96.5"/>
<text text-anchor="middle" x="572" y="-83.5" font-family="Vera" font-size="10.00">imagen.Sweeper</text>
</g>
<!-- imagen.patterngenerator.PatternGenerator&#45;&gt;imagen.Sweeper -->
<g id="edge60" class="edge"><title>imagen.patterngenerator.PatternGenerator&#45;&gt;imagen.Sweeper</title>
<path fill="none" stroke="black" stroke-width="0.5" d="M443.194,-417.92C447.103,-415.384 450.738,-412.43 454,-409 547.762,-310.412 399.219,-206.34 490,-105 497.441,-96.6936 507.732,-91.6511 518.513,-88.6646"/>
<polygon fill="black" stroke="black" points="519.059,-90.3324 523.493,-87.4328 518.219,-86.9348 519.059,-90.3324"/>
</g>
<!-- imagen.Line -->
<g id="node64" class="node"><title>imagen.Line</title>
<polygon fill="none" stroke="black" stroke-width="0.5" points="609,-58.5 535,-58.5 535,-37.5 609,-37.5 609,-58.5"/>
<text text-anchor="middle" x="572" y="-45.5" font-family="Vera" font-size="10.00">imagen.Line</text>
</g>
<!-- imagen.patterngenerator.PatternGenerator&#45;&gt;imagen.Line -->
<g id="edge62" class="edge"><title>imagen.patterngenerator.PatternGenerator&#45;&gt;imagen.Line</title>
<path fill="none" stroke="black" stroke-width="0.5" d="M443.249,-417.972C447.144,-415.422 450.76,-412.451 454,-409 558.607,-297.567 388.762,-181.503 490,-67 499.828,-55.8846 514.758,-50.5974 529.198,-48.2639"/>
<polygon fill="black" stroke="black" points="529.773,-49.9512 534.486,-47.5325 529.293,-46.4842 529.773,-49.9512"/>
</g>
<!-- imagen.RawRectangle -->
<g id="node66" class="node"><title>imagen.RawRectangle</title>
<polygon fill="none" stroke="black" stroke-width="0.5" points="632,-20.5 512,-20.5 512,0.5 632,0.5 632,-20.5"/>
<text text-anchor="middle" x="572" y="-7.5" font-family="Vera" font-size="10.00">imagen.RawRectangle</text>
</g>
<!-- imagen.patterngenerator.PatternGenerator&#45;&gt;imagen.RawRectangle -->
<g id="edge64" class="edge"><title>imagen.patterngenerator.PatternGenerator&#45;&gt;imagen.RawRectangle</title>
<path fill="none" stroke="black" stroke-width="0.5" d="M443.778,-417.692C447.476,-415.203 450.913,-412.323 454,-409 511.732,-346.856 434.147,-92.8382 490,-29 494.524,-23.8292 500.152,-19.9168 506.326,-16.975"/>
<polygon fill="black" stroke="black" points="507.238,-18.4881 511.145,-14.9099 505.86,-15.2711 507.238,-18.4881"/>
</g>
<!-- param.parameterized.Parameter -->
<g id="node4" class="node"><title>param.parameterized.Parameter</title>
<polygon fill="none" stroke="black" stroke-width="0.5" points="184,-894.5 10,-894.5 10,-873.5 184,-873.5 184,-894.5"/>
<text text-anchor="middle" x="97" y="-881.5" font-family="Vera" font-size="10.00">param.parameterized.Parameter</text>
</g>
<!-- param.Selector -->
<g id="node7" class="node"><title>param.Selector</title>
<polygon fill="none" stroke="black" stroke-width="0.5" points="387,-894.5 297,-894.5 297,-873.5 387,-873.5 387,-894.5"/>
<text text-anchor="middle" x="342" y="-881.5" font-family="Vera" font-size="10.00">param.Selector</text>
</g>
<!-- param.parameterized.Parameter&#45;&gt;param.Selector -->
<g id="edge6" class="edge"><title>param.parameterized.Parameter&#45;&gt;param.Selector</title>
<path fill="none" stroke="black" stroke-width="0.5" d="M184.759,-884C220.453,-884 260.436,-884 291.152,-884"/>
<polygon fill="black" stroke="black" points="291.387,-885.75 296.387,-884 291.387,-882.25 291.387,-885.75"/>
</g>
<!-- param.ClassSelector -->
<g id="node29" class="node"><title>param.ClassSelector</title>
<polygon fill="none" stroke="black" stroke-width="0.5" points="630,-894.5 514,-894.5 514,-873.5 630,-873.5 630,-894.5"/>
<text text-anchor="middle" x="572" y="-881.5" font-family="Vera" font-size="10.00">param.ClassSelector</text>
</g>
<!-- param.Selector&#45;&gt;param.ClassSelector -->
<g id="edge28" class="edge"><title>param.Selector&#45;&gt;param.ClassSelector</title>
<path fill="none" stroke="black" stroke-width="0.5" d="M387.716,-884C422.32,-884 470.267,-884 508.58,-884"/>
<polygon fill="black" stroke="black" points="508.68,-885.75 513.68,-884 508.68,-882.25 508.68,-885.75"/>
</g>
<!-- imagen.TwoRectangles -->
<g id="node17" class="node"><title>imagen.TwoRectangles</title>
<polygon fill="none" stroke="black" stroke-width="0.5" points="831,-628.5 707,-628.5 707,-607.5 831,-607.5 831,-628.5"/>
<text text-anchor="middle" x="769" y="-615.5" font-family="Vera" font-size="10.00">imagen.TwoRectangles</text>
</g>
<!-- imagen.Rectangle&#45;&gt;imagen.TwoRectangles -->
<g id="edge16" class="edge"><title>imagen.Rectangle&#45;&gt;imagen.TwoRectangles</title>
<path fill="none" stroke="black" stroke-width="0.5" d="M623.245,-618C647.186,-618 676.008,-618 701.679,-618"/>
<polygon fill="black" stroke="black" points="701.769,-619.75 706.769,-618 701.769,-616.25 701.769,-619.75"/>
</g>
<!-- imagen.TimeSeriesParam -->
<g id="node31" class="node"><title>imagen.TimeSeriesParam</title>
<polygon fill="none" stroke="black" stroke-width="0.5" points="839,-894.5 699,-894.5 699,-873.5 839,-873.5 839,-894.5"/>
<text text-anchor="middle" x="769" y="-881.5" font-family="Vera" font-size="10.00">imagen.TimeSeriesParam</text>
</g>
<!-- param.ClassSelector&#45;&gt;imagen.TimeSeriesParam -->
<g id="edge30" class="edge"><title>param.ClassSelector&#45;&gt;imagen.TimeSeriesParam</title>
<path fill="none" stroke="black" stroke-width="0.5" d="M630.041,-884C650.005,-884 672.652,-884 693.784,-884"/>
<polygon fill="black" stroke="black" points="693.834,-885.75 698.834,-884 693.834,-882.25 693.834,-885.75"/>
</g>
<!-- imagen.Curve -->
<g id="node37" class="node"><title>imagen.Curve</title>
<polygon fill="none" stroke="black" stroke-width="0.5" points="810,-362.5 728,-362.5 728,-341.5 810,-341.5 810,-362.5"/>
<text text-anchor="middle" x="769" y="-349.5" font-family="Vera" font-size="10.00">imagen.Curve</text>
</g>
<!-- imagen.Arc&#45;&gt;imagen.Curve -->
<g id="edge36" class="edge"><title>imagen.Arc&#45;&gt;imagen.Curve</title>
<path fill="none" stroke="black" stroke-width="0.5" d="M607.675,-352C639.802,-352 687.233,-352 722.357,-352"/>
<polygon fill="black" stroke="black" points="722.447,-353.75 727.447,-352 722.447,-350.25 722.447,-353.75"/>
</g>
<!-- imagen.SeparatedComposite -->
<g id="node45" class="node"><title>imagen.SeparatedComposite</title>
<polygon fill="none" stroke="black" stroke-width="0.5" points="848,-324.5 690,-324.5 690,-303.5 848,-303.5 848,-324.5"/>
<text text-anchor="middle" x="769" y="-311.5" font-family="Vera" font-size="10.00">imagen.SeparatedComposite</text>
</g>
<!-- imagen.Composite&#45;&gt;imagen.SeparatedComposite -->
<g id="edge42" class="edge"><title>imagen.Composite&#45;&gt;imagen.SeparatedComposite</title>
<path fill="none" stroke="black" stroke-width="0.5" d="M625.571,-314C643.847,-314 664.75,-314 684.839,-314"/>
<polygon fill="black" stroke="black" points="684.927,-315.75 689.927,-314 684.927,-312.25 684.927,-315.75"/>
</g>
<!-- imagen.OrientationContrast -->
<g id="node42" class="node"><title>imagen.OrientationContrast</title>
<polygon fill="none" stroke="black" stroke-width="0.5" points="844,-286.5 694,-286.5 694,-265.5 844,-265.5 844,-286.5"/>
<text text-anchor="middle" x="769" y="-273.5" font-family="Vera" font-size="10.00">imagen.OrientationContrast</text>
</g>
<!-- imagen.SineGrating&#45;&gt;imagen.OrientationContrast -->
<g id="edge40" class="edge"><title>imagen.SineGrating&#45;&gt;imagen.OrientationContrast</title>
<path fill="none" stroke="black" stroke-width="0.5" d="M628.189,-276C647.06,-276 668.49,-276 688.837,-276"/>
<polygon fill="black" stroke="black" points="688.985,-277.75 693.985,-276 688.985,-274.25 688.985,-277.75"/>
</g>
<!-- imagen.TimeSeries -->
<g id="node49" class="node"><title>imagen.TimeSeries</title>
<polygon fill="none" stroke="black" stroke-width="0.5" points="396,-400.5 288,-400.5 288,-379.5 396,-379.5 396,-400.5"/>
<text text-anchor="middle" x="342" y="-387.5" font-family="Vera" font-size="10.00">imagen.TimeSeries</text>
</g>
<!-- param.parameterized.Parameterized -->
<g id="node50" class="node"><title>param.parameterized.Parameterized</title>
<polygon fill="none" stroke="black" stroke-width="0.5" points="194,-419.5 5.68434e-14,-419.5 0,-398.5 194,-398.5 194,-419.5"/>
<text text-anchor="middle" x="97" y="-406.5" font-family="Vera" font-size="10.00">param.parameterized.Parameterized</text>
</g>
<!-- param.parameterized.Parameterized&#45;&gt;imagen.patterngenerator.PatternGenerator -->
<g id="edge56" class="edge"><title>param.parameterized.Parameterized&#45;&gt;imagen.patterngenerator.PatternGenerator</title>
<path fill="none" stroke="black" stroke-width="0.5" d="M194.182,-416.537C204.286,-417.32 214.629,-418.122 224.922,-418.92"/>
<polygon fill="black" stroke="black" points="224.849,-420.67 229.969,-419.312 225.12,-417.18 224.849,-420.67"/>
</g>
<!-- param.parameterized.Parameterized&#45;&gt;imagen.TimeSeries -->
<g id="edge46" class="edge"><title>param.parameterized.Parameterized&#45;&gt;imagen.TimeSeries</title>
<path fill="none" stroke="black" stroke-width="0.5" d="M194.182,-401.463C223.866,-399.161 255.624,-396.699 282.066,-394.648"/>
<polygon fill="black" stroke="black" points="282.431,-396.375 287.281,-394.244 282.161,-392.885 282.431,-396.375"/>
</g>
</g>
</svg>
