<?xml version="1.0" encoding="UTF-8" standalone="no"?>
<!DOCTYPE svg PUBLIC "-//W3C//DTD SVG 1.1//EN"
 "http://www.w3.org/Graphics/SVG/1.1/DTD/svg11.dtd">
<!-- Generated by graphviz version 2.26.3 (20100126.1600)
 -->
<!-- Title: inheritancebede3c61fc Pages: 1 -->
<svg width="2498pt" height="541pt"
 viewBox="0.00 0.00 2498.00 541.00" xmlns="http://www.w3.org/2000/svg" xmlns:xlink="http://www.w3.org/1999/xlink">
<g id="graph1" class="graph" transform="scale(1 1) rotate(0) translate(4 537)">
<title>inheritancebede3c61fc</title>
<polygon fill="white" stroke="white" points="-4,5 -4,-537 2495,-537 2495,5 -4,5"/>
<!-- topo.command.pylabplot.test_measure -->
<g id="node1" class="node"><title>topo.command.pylabplot.test_measure</title>
<polygon fill="none" stroke="black" stroke-width="0.5" points="2451,-172.5 2245,-172.5 2245,-151.5 2451,-151.5 2451,-172.5"/>
<text text-anchor="middle" x="2348" y="-159.5" font-family="Vera" font-size="10.00">topo.command.pylabplot.test_measure</text>
</g>
<!-- topo.analysis.featureresponses.UnitCurveCommand -->
<g id="node2" class="node"><title>topo.analysis.featureresponses.UnitCurveCommand</title>
<polygon fill="none" stroke="black" stroke-width="0.5" points="2167,-96.5 1901,-96.5 1901,-75.5 2167,-75.5 2167,-96.5"/>
<text text-anchor="middle" x="2034" y="-83.5" font-family="Vera" font-size="10.00">topo.analysis.featureresponses.UnitCurveCommand</text>
</g>
<!-- topo.analysis.featureresponses.UnitCurveCommand&#45;&gt;topo.command.pylabplot.test_measure -->
<g id="edge2" class="edge"><title>topo.analysis.featureresponses.UnitCurveCommand&#45;&gt;topo.command.pylabplot.test_measure</title>
<path fill="none" stroke="black" stroke-width="0.5" d="M2059.22,-96.0144C2092.37,-108.792 2152.66,-130.707 2206,-143 2219.71,-146.159 2234.29,-148.85 2248.69,-151.124"/>
<polygon fill="black" stroke="black" points="2248.77,-152.909 2253.98,-151.944 2249.31,-149.45 2248.77,-152.909"/>
</g>
<!-- topo.command.pylabplot.measure_or_tuning -->
<g id="node23" class="node"><title>topo.command.pylabplot.measure_or_tuning</title>
<polygon fill="none" stroke="black" stroke-width="0.5" points="2464,-134.5 2232,-134.5 2232,-113.5 2464,-113.5 2464,-134.5"/>
<text text-anchor="middle" x="2348" y="-121.5" font-family="Vera" font-size="10.00">topo.command.pylabplot.measure_or_tuning</text>
</g>
<!-- topo.analysis.featureresponses.UnitCurveCommand&#45;&gt;topo.command.pylabplot.measure_or_tuning -->
<g id="edge18" class="edge"><title>topo.analysis.featureresponses.UnitCurveCommand&#45;&gt;topo.command.pylabplot.measure_or_tuning</title>
<path fill="none" stroke="black" stroke-width="0.5" d="M2116.91,-96.0338C2161,-101.369 2215.2,-107.929 2260.03,-113.354"/>
<polygon fill="black" stroke="black" points="2260,-115.112 2265.17,-113.976 2260.42,-111.638 2260,-115.112"/>
</g>
<!-- topo.command.pylabplot.measure_size_response -->
<g id="node29" class="node"><title>topo.command.pylabplot.measure_size_response</title>
<polygon fill="none" stroke="black" stroke-width="0.5" points="2476,-96.5 2220,-96.5 2220,-75.5 2476,-75.5 2476,-96.5"/>
<text text-anchor="middle" x="2348" y="-83.5" font-family="Vera" font-size="10.00">topo.command.pylabplot.measure_size_response</text>
</g>
<!-- topo.analysis.featureresponses.UnitCurveCommand&#45;&gt;topo.command.pylabplot.measure_size_response -->
<g id="edge24" class="edge"><title>topo.analysis.featureresponses.UnitCurveCommand&#45;&gt;topo.command.pylabplot.measure_size_response</title>
<path fill="none" stroke="black" stroke-width="0.5" d="M2167.62,-86C2183.22,-86 2199.13,-86 2214.72,-86"/>
<polygon fill="black" stroke="black" points="2214.99,-87.7501 2219.99,-86 2214.99,-84.2501 2214.99,-87.7501"/>
</g>
<!-- topo.command.pylabplot.measure_contrast_response -->
<g id="node48" class="node"><title>topo.command.pylabplot.measure_contrast_response</title>
<polygon fill="none" stroke="black" stroke-width="0.5" points="2486,-58.5 2210,-58.5 2210,-37.5 2486,-37.5 2486,-58.5"/>
<text text-anchor="middle" x="2348" y="-45.5" font-family="Vera" font-size="10.00">topo.command.pylabplot.measure_contrast_response</text>
</g>
<!-- topo.analysis.featureresponses.UnitCurveCommand&#45;&gt;topo.command.pylabplot.measure_contrast_response -->
<g id="edge46" class="edge"><title>topo.analysis.featureresponses.UnitCurveCommand&#45;&gt;topo.command.pylabplot.measure_contrast_response</title>
<path fill="none" stroke="black" stroke-width="0.5" d="M2116.91,-75.9662C2161,-70.6307 2215.2,-64.0711 2260.03,-58.6461"/>
<polygon fill="black" stroke="black" points="2260.42,-60.3622 2265.17,-58.024 2260,-56.8875 2260.42,-60.3622"/>
</g>
<!-- topo.command.pylabplot.measure_orientation_contrast -->
<g id="node62" class="node"><title>topo.command.pylabplot.measure_orientation_contrast</title>
<polygon fill="none" stroke="black" stroke-width="0.5" points="2490,-20.5 2206,-20.5 2206,0.5 2490,0.5 2490,-20.5"/>
<text text-anchor="middle" x="2348" y="-7.5" font-family="Vera" font-size="10.00">topo.command.pylabplot.measure_orientation_contrast</text>
</g>
<!-- topo.analysis.featureresponses.UnitCurveCommand&#45;&gt;topo.command.pylabplot.measure_orientation_contrast -->
<g id="edge62" class="edge"><title>topo.analysis.featureresponses.UnitCurveCommand&#45;&gt;topo.command.pylabplot.measure_orientation_contrast</title>
<path fill="none" stroke="black" stroke-width="0.5" d="M2148.23,-75.9533C2155.78,-73.5009 2163.11,-70.5477 2170,-67 2190.68,-56.3476 2185.29,-39.5924 2206,-29 2211.36,-26.2573 2216.98,-23.8635 2222.76,-21.7772"/>
<polygon fill="black" stroke="black" points="2223.49,-23.3767 2227.65,-20.096 2222.35,-20.0668 2223.49,-23.3767"/>
</g>
<!-- topo.command.pylabplot.gradientplot -->
<g id="node4" class="node"><title>topo.command.pylabplot.gradientplot</title>
<polygon fill="none" stroke="black" stroke-width="0.5" points="1818,-533.5 1622,-533.5 1622,-512.5 1818,-512.5 1818,-533.5"/>
<text text-anchor="middle" x="1720" y="-520.5" font-family="Vera" font-size="10.00">topo.command.pylabplot.gradientplot</text>
</g>
<!-- topo.command.pylabplot.matrixplot -->
<g id="node5" class="node"><title>topo.command.pylabplot.matrixplot</title>
<polygon fill="none" stroke="black" stroke-width="0.5" points="1458,-457.5 1270,-457.5 1270,-436.5 1458,-436.5 1458,-457.5"/>
<text text-anchor="middle" x="1364" y="-444.5" font-family="Vera" font-size="10.00">topo.command.pylabplot.matrixplot</text>
</g>
<!-- topo.command.pylabplot.matrixplot&#45;&gt;topo.command.pylabplot.gradientplot -->
<g id="edge4" class="edge"><title>topo.command.pylabplot.matrixplot&#45;&gt;topo.command.pylabplot.gradientplot</title>
<path fill="none" stroke="black" stroke-width="0.5" d="M1396.69,-457.1C1438.4,-469.666 1512.96,-491.041 1578,-504 1593.7,-507.127 1610.47,-509.883 1626.79,-512.256"/>
<polygon fill="black" stroke="black" points="1626.64,-514.002 1631.84,-512.98 1627.14,-510.538 1626.64,-514.002"/>
</g>
<!-- topo.command.pylabplot.autocorrelationplot -->
<g id="node33" class="node"><title>topo.command.pylabplot.autocorrelationplot</title>
<polygon fill="none" stroke="black" stroke-width="0.5" points="1835,-495.5 1605,-495.5 1605,-474.5 1835,-474.5 1835,-495.5"/>
<text text-anchor="middle" x="1720" y="-482.5" font-family="Vera" font-size="10.00">topo.command.pylabplot.autocorrelationplot</text>
</g>
<!-- topo.command.pylabplot.matrixplot&#45;&gt;topo.command.pylabplot.autocorrelationplot -->
<g id="edge28" class="edge"><title>topo.command.pylabplot.matrixplot&#45;&gt;topo.command.pylabplot.autocorrelationplot</title>
<path fill="none" stroke="black" stroke-width="0.5" d="M1458,-457.034C1508.19,-462.391 1569.94,-468.982 1620.88,-474.42"/>
<polygon fill="black" stroke="black" points="1620.93,-476.185 1626.09,-474.976 1621.3,-472.705 1620.93,-476.185"/>
</g>
<!-- topo.command.pylabplot.activityplot -->
<g id="node45" class="node"><title>topo.command.pylabplot.activityplot</title>
<polygon fill="none" stroke="black" stroke-width="0.5" points="1815,-457.5 1625,-457.5 1625,-436.5 1815,-436.5 1815,-457.5"/>
<text text-anchor="middle" x="1720" y="-444.5" font-family="Vera" font-size="10.00">topo.command.pylabplot.activityplot</text>
</g>
<!-- topo.command.pylabplot.matrixplot&#45;&gt;topo.command.pylabplot.activityplot -->
<g id="edge42" class="edge"><title>topo.command.pylabplot.matrixplot&#45;&gt;topo.command.pylabplot.activityplot</title>
<path fill="none" stroke="black" stroke-width="0.5" d="M1458,-447C1507.59,-447 1568.47,-447 1619.06,-447"/>
<polygon fill="black" stroke="black" points="1619.23,-448.75 1624.23,-447 1619.23,-445.25 1619.23,-448.75"/>
</g>
<!-- topo.command.pylabplot.fftplot -->
<g id="node64" class="node"><title>topo.command.pylabplot.fftplot</title>
<polygon fill="none" stroke="black" stroke-width="0.5" points="1803,-419.5 1637,-419.5 1637,-398.5 1803,-398.5 1803,-419.5"/>
<text text-anchor="middle" x="1720" y="-406.5" font-family="Vera" font-size="10.00">topo.command.pylabplot.fftplot</text>
</g>
<!-- topo.command.pylabplot.matrixplot&#45;&gt;topo.command.pylabplot.fftplot -->
<g id="edge64" class="edge"><title>topo.command.pylabplot.matrixplot&#45;&gt;topo.command.pylabplot.fftplot</title>
<path fill="none" stroke="black" stroke-width="0.5" d="M1458,-436.966C1511.68,-431.236 1578.59,-424.094 1631.36,-418.462"/>
<polygon fill="black" stroke="black" points="1631.63,-420.193 1636.42,-417.922 1631.26,-416.712 1631.63,-420.193"/>
</g>
<!-- topo.command.pylabplot.matrixplot3dx3 -->
<g id="node7" class="node"><title>topo.command.pylabplot.matrixplot3dx3</title>
<polygon fill="none" stroke="black" stroke-width="0.5" points="1470,-419.5 1258,-419.5 1258,-398.5 1470,-398.5 1470,-419.5"/>
<text text-anchor="middle" x="1364" y="-406.5" font-family="Vera" font-size="10.00">topo.command.pylabplot.matrixplot3dx3</text>
</g>
<!-- topo.command.pylabplot.PylabPlotCommand -->
<g id="node8" class="node"><title>topo.command.pylabplot.PylabPlotCommand</title>
<polygon fill="none" stroke="black" stroke-width="0.5" points="1112,-267.5 880,-267.5 880,-246.5 1112,-246.5 1112,-267.5"/>
<text text-anchor="middle" x="996" y="-254.5" font-family="Vera" font-size="10.00">topo.command.pylabplot.PylabPlotCommand</text>
</g>
<!-- topo.command.pylabplot.PylabPlotCommand&#45;&gt;topo.command.pylabplot.matrixplot -->
<g id="edge60" class="edge"><title>topo.command.pylabplot.PylabPlotCommand&#45;&gt;topo.command.pylabplot.matrixplot</title>
<path fill="none" stroke="black" stroke-width="0.5" d="M1003.29,-267.021C1026.16,-297.555 1100.08,-389.673 1186,-428 1210.21,-438.801 1238.06,-444.513 1264.42,-447.329"/>
<polygon fill="black" stroke="black" points="1264.52,-449.098 1269.67,-447.854 1264.87,-445.615 1264.52,-449.098"/>
</g>
<!-- topo.command.pylabplot.PylabPlotCommand&#45;&gt;topo.command.pylabplot.matrixplot3dx3 -->
<g id="edge6" class="edge"><title>topo.command.pylabplot.PylabPlotCommand&#45;&gt;topo.command.pylabplot.matrixplot3dx3</title>
<path fill="none" stroke="black" stroke-width="0.5" d="M1006.41,-267.284C1033.37,-293.173 1108.71,-361.036 1186,-390 1206.97,-397.857 1230.23,-402.797 1252.84,-405.839"/>
<polygon fill="black" stroke="black" points="1252.78,-407.595 1257.96,-406.497 1253.22,-404.123 1252.78,-407.595"/>
</g>
<!-- topo.command.pylabplot.tuning_curve -->
<g id="node13" class="node"><title>topo.command.pylabplot.tuning_curve</title>
<polygon fill="none" stroke="black" stroke-width="0.5" points="1464,-381.5 1264,-381.5 1264,-360.5 1464,-360.5 1464,-381.5"/>
<text text-anchor="middle" x="1364" y="-368.5" font-family="Vera" font-size="10.00">topo.command.pylabplot.tuning_curve</text>
</g>
<!-- topo.command.pylabplot.PylabPlotCommand&#45;&gt;topo.command.pylabplot.tuning_curve -->
<g id="edge10" class="edge"><title>topo.command.pylabplot.PylabPlotCommand&#45;&gt;topo.command.pylabplot.tuning_curve</title>
<path fill="none" stroke="black" stroke-width="0.5" d="M1011.47,-267.167C1042.87,-287.244 1116.99,-331.781 1186,-352 1208.97,-358.73 1234.23,-363.13 1258.33,-365.993"/>
<polygon fill="black" stroke="black" points="1258.28,-367.75 1263.45,-366.581 1258.68,-364.272 1258.28,-367.75"/>
</g>
<!-- topo.command.pylabplot.topographic_grid -->
<g id="node18" class="node"><title>topo.command.pylabplot.topographic_grid</title>
<polygon fill="none" stroke="black" stroke-width="0.5" points="1474,-343.5 1254,-343.5 1254,-322.5 1474,-322.5 1474,-343.5"/>
<text text-anchor="middle" x="1364" y="-330.5" font-family="Vera" font-size="10.00">topo.command.pylabplot.topographic_grid</text>
</g>
<!-- topo.command.pylabplot.PylabPlotCommand&#45;&gt;topo.command.pylabplot.topographic_grid -->
<g id="edge14" class="edge"><title>topo.command.pylabplot.PylabPlotCommand&#45;&gt;topo.command.pylabplot.topographic_grid</title>
<path fill="none" stroke="black" stroke-width="0.5" d="M1023.6,-267.042C1060.21,-279.955 1127.09,-302.126 1186,-314 1206.17,-318.065 1227.8,-321.298 1248.8,-323.857"/>
<polygon fill="black" stroke="black" points="1248.67,-325.604 1253.84,-324.46 1249.09,-322.128 1248.67,-325.604"/>
</g>
<!-- topo.command.pylabplot.vectorplot -->
<g id="node27" class="node"><title>topo.command.pylabplot.vectorplot</title>
<polygon fill="none" stroke="black" stroke-width="0.5" points="1458,-305.5 1270,-305.5 1270,-284.5 1458,-284.5 1458,-305.5"/>
<text text-anchor="middle" x="1364" y="-292.5" font-family="Vera" font-size="10.00">topo.command.pylabplot.vectorplot</text>
</g>
<!-- topo.command.pylabplot.PylabPlotCommand&#45;&gt;topo.command.pylabplot.vectorplot -->
<g id="edge22" class="edge"><title>topo.command.pylabplot.PylabPlotCommand&#45;&gt;topo.command.pylabplot.vectorplot</title>
<path fill="none" stroke="black" stroke-width="0.5" d="M1093.17,-267.034C1146.08,-272.498 1211.43,-279.245 1264.67,-284.743"/>
<polygon fill="black" stroke="black" points="1264.63,-286.499 1269.79,-285.271 1264.99,-283.017 1264.63,-286.499"/>
</g>
<!-- topo.command.pylabplot.plot_tracked_attributes -->
<g id="node43" class="node"><title>topo.command.pylabplot.plot_tracked_attributes</title>
<polygon fill="none" stroke="black" stroke-width="0.5" points="1489,-267.5 1239,-267.5 1239,-246.5 1489,-246.5 1489,-267.5"/>
<text text-anchor="middle" x="1364" y="-254.5" font-family="Vera" font-size="10.00">topo.command.pylabplot.plot_tracked_attributes</text>
</g>
<!-- topo.command.pylabplot.PylabPlotCommand&#45;&gt;topo.command.pylabplot.plot_tracked_attributes -->
<g id="edge40" class="edge"><title>topo.command.pylabplot.PylabPlotCommand&#45;&gt;topo.command.pylabplot.plot_tracked_attributes</title>
<path fill="none" stroke="black" stroke-width="0.5" d="M1112.69,-257C1150.97,-257 1193.76,-257 1233.02,-257"/>
<polygon fill="black" stroke="black" points="1233.29,-258.75 1238.29,-257 1233.29,-255.25 1233.29,-258.75"/>
</g>
<!-- topo.command.pylabplot.overlaid_plots -->
<g id="node50" class="node"><title>topo.command.pylabplot.overlaid_plots</title>
<polygon fill="none" stroke="black" stroke-width="0.5" points="1467,-229.5 1261,-229.5 1261,-208.5 1467,-208.5 1467,-229.5"/>
<text text-anchor="middle" x="1364" y="-216.5" font-family="Vera" font-size="10.00">topo.command.pylabplot.overlaid_plots</text>
</g>
<!-- topo.command.pylabplot.PylabPlotCommand&#45;&gt;topo.command.pylabplot.overlaid_plots -->
<g id="edge48" class="edge"><title>topo.command.pylabplot.PylabPlotCommand&#45;&gt;topo.command.pylabplot.overlaid_plots</title>
<path fill="none" stroke="black" stroke-width="0.5" d="M1093.17,-246.966C1145.15,-241.598 1209.14,-234.991 1261.86,-229.547"/>
<polygon fill="black" stroke="black" points="1262.13,-231.278 1266.93,-229.024 1261.77,-227.797 1262.13,-231.278"/>
</g>
<!-- topo.command.pylabplot.histogramplot -->
<g id="node52" class="node"><title>topo.command.pylabplot.histogramplot</title>
<polygon fill="none" stroke="black" stroke-width="0.5" points="1467,-191.5 1261,-191.5 1261,-170.5 1467,-170.5 1467,-191.5"/>
<text text-anchor="middle" x="1364" y="-178.5" font-family="Vera" font-size="10.00">topo.command.pylabplot.histogramplot</text>
</g>
<!-- topo.command.pylabplot.PylabPlotCommand&#45;&gt;topo.command.pylabplot.histogramplot -->
<g id="edge50" class="edge"><title>topo.command.pylabplot.PylabPlotCommand&#45;&gt;topo.command.pylabplot.histogramplot</title>
<path fill="none" stroke="black" stroke-width="0.5" d="M1023.6,-246.958C1060.21,-234.045 1127.09,-211.874 1186,-200 1208.38,-195.49 1232.56,-192.004 1255.68,-189.325"/>
<polygon fill="black" stroke="black" points="1256.14,-191.035 1260.91,-188.731 1255.74,-187.557 1256.14,-191.035"/>
</g>
<!-- topo.command.pylabplot.plot_modulation_ratio -->
<g id="node54" class="node"><title>topo.command.pylabplot.plot_modulation_ratio</title>
<polygon fill="none" stroke="black" stroke-width="0.5" points="1486,-153.5 1242,-153.5 1242,-132.5 1486,-132.5 1486,-153.5"/>
<text text-anchor="middle" x="1364" y="-140.5" font-family="Vera" font-size="10.00">topo.command.pylabplot.plot_modulation_ratio</text>
</g>
<!-- topo.command.pylabplot.PylabPlotCommand&#45;&gt;topo.command.pylabplot.plot_modulation_ratio -->
<g id="edge52" class="edge"><title>topo.command.pylabplot.PylabPlotCommand&#45;&gt;topo.command.pylabplot.plot_modulation_ratio</title>
<path fill="none" stroke="black" stroke-width="0.5" d="M1011.47,-246.833C1042.87,-226.756 1116.99,-182.219 1186,-162 1202.08,-157.288 1219.29,-153.719 1236.43,-151.019"/>
<polygon fill="black" stroke="black" points="1237.06,-152.692 1241.74,-150.209 1236.54,-149.232 1237.06,-152.692"/>
</g>
<!-- topo.command.pylabplot.matrixplot3d -->
<g id="node57" class="node"><title>topo.command.pylabplot.matrixplot3d</title>
<polygon fill="none" stroke="black" stroke-width="0.5" points="1464,-115.5 1264,-115.5 1264,-94.5 1464,-94.5 1464,-115.5"/>
<text text-anchor="middle" x="1364" y="-102.5" font-family="Vera" font-size="10.00">topo.command.pylabplot.matrixplot3d</text>
</g>
<!-- topo.command.pylabplot.PylabPlotCommand&#45;&gt;topo.command.pylabplot.matrixplot3d -->
<g id="edge56" class="edge"><title>topo.command.pylabplot.PylabPlotCommand&#45;&gt;topo.command.pylabplot.matrixplot3d</title>
<path fill="none" stroke="black" stroke-width="0.5" d="M1006.41,-246.716C1033.37,-220.827 1108.71,-152.964 1186,-124 1208.69,-115.499 1234.06,-110.413 1258.39,-107.451"/>
<polygon fill="black" stroke="black" points="1258.79,-109.166 1263.56,-106.851 1258.39,-105.689 1258.79,-109.166"/>
</g>
<!-- topo.analysis.featureresponses.FeatureCurveCommand -->
<g id="node10" class="node"><title>topo.analysis.featureresponses.FeatureCurveCommand</title>
<polygon fill="none" stroke="black" stroke-width="0.5" points="1862,-77.5 1578,-77.5 1578,-56.5 1862,-56.5 1862,-77.5"/>
<text text-anchor="middle" x="1720" y="-64.5" font-family="Vera" font-size="10.00">topo.analysis.featureresponses.FeatureCurveCommand</text>
</g>
<!-- topo.analysis.featureresponses.FeatureCurveCommand&#45;&gt;topo.analysis.featureresponses.UnitCurveCommand -->
<g id="edge34" class="edge"><title>topo.analysis.featureresponses.FeatureCurveCommand&#45;&gt;topo.analysis.featureresponses.UnitCurveCommand</title>
<path fill="none" stroke="black" stroke-width="0.5" d="M1862.3,-75.6105C1873.28,-76.2747 1884.35,-76.9447 1895.3,-77.6074"/>
<polygon fill="black" stroke="black" points="1895.23,-79.356 1900.32,-77.9113 1895.44,-75.8624 1895.23,-79.356"/>
</g>
<!-- topo.command.pylabplot.measure_or_tuning_fullfield -->
<g id="node59" class="node"><title>topo.command.pylabplot.measure_or_tuning_fullfield</title>
<polygon fill="none" stroke="black" stroke-width="0.5" points="2169,-58.5 1899,-58.5 1899,-37.5 2169,-37.5 2169,-58.5"/>
<text text-anchor="middle" x="2034" y="-45.5" font-family="Vera" font-size="10.00">topo.command.pylabplot.measure_or_tuning_fullfield</text>
</g>
<!-- topo.analysis.featureresponses.FeatureCurveCommand&#45;&gt;topo.command.pylabplot.measure_or_tuning_fullfield -->
<g id="edge58" class="edge"><title>topo.analysis.featureresponses.FeatureCurveCommand&#45;&gt;topo.command.pylabplot.measure_or_tuning_fullfield</title>
<path fill="none" stroke="black" stroke-width="0.5" d="M1862.3,-58.3895C1872.62,-57.7651 1883.02,-57.1355 1893.33,-56.5117"/>
<polygon fill="black" stroke="black" points="1893.5,-58.2548 1898.39,-56.2059 1893.29,-54.7612 1893.5,-58.2548"/>
</g>
<!-- topo.analysis.featureresponses.SinusoidalMeasureResponseCommand -->
<g id="node11" class="node"><title>topo.analysis.featureresponses.SinusoidalMeasureResponseCommand</title>
<polygon fill="none" stroke="black" stroke-width="0.5" points="1542,-77.5 1186,-77.5 1186,-56.5 1542,-56.5 1542,-77.5"/>
<text text-anchor="middle" x="1364" y="-64.5" font-family="Vera" font-size="10.00">topo.analysis.featureresponses.SinusoidalMeasureResponseCommand</text>
</g>
<!-- topo.analysis.featureresponses.SinusoidalMeasureResponseCommand&#45;&gt;topo.analysis.featureresponses.FeatureCurveCommand -->
<g id="edge8" class="edge"><title>topo.analysis.featureresponses.SinusoidalMeasureResponseCommand&#45;&gt;topo.analysis.featureresponses.FeatureCurveCommand</title>
<path fill="none" stroke="black" stroke-width="0.5" d="M1542,-67C1552.21,-67 1562.43,-67 1572.51,-67"/>
<polygon fill="black" stroke="black" points="1572.76,-68.7501 1577.76,-67 1572.76,-65.2501 1572.76,-68.7501"/>
</g>
<!-- topo.command.pylabplot.cyclic_tuning_curve -->
<g id="node37" class="node"><title>topo.command.pylabplot.cyclic_tuning_curve</title>
<polygon fill="none" stroke="black" stroke-width="0.5" points="1836,-381.5 1604,-381.5 1604,-360.5 1836,-360.5 1836,-381.5"/>
<text text-anchor="middle" x="1720" y="-368.5" font-family="Vera" font-size="10.00">topo.command.pylabplot.cyclic_tuning_curve</text>
</g>
<!-- topo.command.pylabplot.tuning_curve&#45;&gt;topo.command.pylabplot.cyclic_tuning_curve -->
<g id="edge32" class="edge"><title>topo.command.pylabplot.tuning_curve&#45;&gt;topo.command.pylabplot.cyclic_tuning_curve</title>
<path fill="none" stroke="black" stroke-width="0.5" d="M1464.59,-371C1506.36,-371 1555.2,-371 1598.92,-371"/>
<polygon fill="black" stroke="black" points="1598.95,-372.75 1603.95,-371 1598.95,-369.25 1598.95,-372.75"/>
</g>
<!-- topo.command.pylabplot.measure_position_pref -->
<g id="node15" class="node"><title>topo.command.pylabplot.measure_position_pref</title>
<polygon fill="none" stroke="black" stroke-width="0.5" points="1844,-39.5 1596,-39.5 1596,-18.5 1844,-18.5 1844,-39.5"/>
<text text-anchor="middle" x="1720" y="-26.5" font-family="Vera" font-size="10.00">topo.command.pylabplot.measure_position_pref</text>
</g>
<!-- topo.analysis.featureresponses.PositionMeasurementCommand -->
<g id="node16" class="node"><title>topo.analysis.featureresponses.PositionMeasurementCommand</title>
<polygon fill="none" stroke="black" stroke-width="0.5" points="1526,-39.5 1202,-39.5 1202,-18.5 1526,-18.5 1526,-39.5"/>
<text text-anchor="middle" x="1364" y="-26.5" font-family="Vera" font-size="10.00">topo.analysis.featureresponses.PositionMeasurementCommand</text>
</g>
<!-- topo.analysis.featureresponses.PositionMeasurementCommand&#45;&gt;topo.command.pylabplot.measure_position_pref -->
<g id="edge12" class="edge"><title>topo.analysis.featureresponses.PositionMeasurementCommand&#45;&gt;topo.command.pylabplot.measure_position_pref</title>
<path fill="none" stroke="black" stroke-width="0.5" d="M1526.11,-29C1547.52,-29 1569.23,-29 1590,-29"/>
<polygon fill="black" stroke="black" points="1590.26,-30.7501 1595.26,-29 1590.26,-27.2501 1590.26,-30.7501"/>
</g>
<!-- topo.analysis.featureresponses.MeasureResponseCommand -->
<g id="node20" class="node"><title>topo.analysis.featureresponses.MeasureResponseCommand</title>
<polygon fill="none" stroke="black" stroke-width="0.5" points="1149,-77.5 843,-77.5 843,-56.5 1149,-56.5 1149,-77.5"/>
<text text-anchor="middle" x="996" y="-64.5" font-family="Vera" font-size="10.00">topo.analysis.featureresponses.MeasureResponseCommand</text>
</g>
<!-- topo.analysis.featureresponses.MeasureResponseCommand&#45;&gt;topo.analysis.featureresponses.SinusoidalMeasureResponseCommand -->
<g id="edge16" class="edge"><title>topo.analysis.featureresponses.MeasureResponseCommand&#45;&gt;topo.analysis.featureresponses.SinusoidalMeasureResponseCommand</title>
<path fill="none" stroke="black" stroke-width="0.5" d="M1149.67,-67C1159.91,-67 1170.29,-67 1180.66,-67"/>
<polygon fill="black" stroke="black" points="1180.75,-68.7501 1185.75,-67 1180.75,-65.2501 1180.75,-68.7501"/>
</g>
<!-- topo.analysis.featureresponses.MeasureResponseCommand&#45;&gt;topo.analysis.featureresponses.PositionMeasurementCommand -->
<g id="edge44" class="edge"><title>topo.analysis.featureresponses.MeasureResponseCommand&#45;&gt;topo.analysis.featureresponses.PositionMeasurementCommand</title>
<path fill="none" stroke="black" stroke-width="0.5" d="M1093.17,-56.9662C1145.15,-51.5982 1209.14,-44.9912 1261.86,-39.5472"/>
<polygon fill="black" stroke="black" points="1262.13,-41.2785 1266.93,-39.024 1261.77,-37.797 1262.13,-41.2785"/>
</g>
<!-- param.parameterized.Parameterized -->
<g id="node22" class="node"><title>param.parameterized.Parameterized</title>
<polygon fill="none" stroke="black" stroke-width="0.5" points="194,-115.5 5.68434e-14,-115.5 0,-94.5 194,-94.5 194,-115.5"/>
<text text-anchor="middle" x="97" y="-102.5" font-family="Vera" font-size="10.00">param.parameterized.Parameterized</text>
</g>
<!-- param.parameterized.ParameterizedFunction -->
<g id="node25" class="node"><title>param.parameterized.ParameterizedFunction</title>
<polygon fill="none" stroke="black" stroke-width="0.5" points="464,-115.5 230,-115.5 230,-94.5 464,-94.5 464,-115.5"/>
<text text-anchor="middle" x="347" y="-102.5" font-family="Vera" font-size="10.00">param.parameterized.ParameterizedFunction</text>
</g>
<!-- param.parameterized.Parameterized&#45;&gt;param.parameterized.ParameterizedFunction -->
<g id="edge20" class="edge"><title>param.parameterized.Parameterized&#45;&gt;param.parameterized.ParameterizedFunction</title>
<path fill="none" stroke="black" stroke-width="0.5" d="M194.014,-105C204.04,-105 214.319,-105 224.575,-105"/>
<polygon fill="black" stroke="black" points="224.607,-106.75 229.607,-105 224.607,-103.25 224.607,-106.75"/>
</g>
<!-- topo.command.Command -->
<g id="node31" class="node"><title>topo.command.Command</title>
<polygon fill="none" stroke="black" stroke-width="0.5" points="724,-229.5 582,-229.5 582,-208.5 724,-208.5 724,-229.5"/>
<text text-anchor="middle" x="653" y="-216.5" font-family="Vera" font-size="10.00">topo.command.Command</text>
</g>
<!-- param.parameterized.ParameterizedFunction&#45;&gt;topo.command.Command -->
<g id="edge36" class="edge"><title>param.parameterized.ParameterizedFunction&#45;&gt;topo.command.Command</title>
<path fill="none" stroke="black" stroke-width="0.5" d="M373.887,-115.017C430.202,-135.997 560.332,-184.477 620.905,-207.043"/>
<polygon fill="black" stroke="black" points="620.549,-208.778 625.845,-208.883 621.771,-205.498 620.549,-208.778"/>
</g>
<!-- topo.analysis.featureresponses.PatternPresentingCommand -->
<g id="node35" class="node"><title>topo.analysis.featureresponses.PatternPresentingCommand</title>
<polygon fill="none" stroke="black" stroke-width="0.5" points="805,-115.5 501,-115.5 501,-94.5 805,-94.5 805,-115.5"/>
<text text-anchor="middle" x="653" y="-102.5" font-family="Vera" font-size="10.00">topo.analysis.featureresponses.PatternPresentingCommand</text>
</g>
<!-- param.parameterized.ParameterizedFunction&#45;&gt;topo.analysis.featureresponses.PatternPresentingCommand -->
<g id="edge54" class="edge"><title>param.parameterized.ParameterizedFunction&#45;&gt;topo.analysis.featureresponses.PatternPresentingCommand</title>
<path fill="none" stroke="black" stroke-width="0.5" d="M464.432,-105C474.571,-105 484.931,-105 495.319,-105"/>
<polygon fill="black" stroke="black" points="495.42,-106.75 500.42,-105 495.42,-103.25 495.42,-106.75"/>
</g>
<!-- topo.command.pylabplot.measure_cog -->
<g id="node41" class="node"><title>topo.command.pylabplot.measure_cog</title>
<polygon fill="none" stroke="black" stroke-width="0.5" points="755,-77.5 551,-77.5 551,-56.5 755,-56.5 755,-77.5"/>
<text text-anchor="middle" x="653" y="-64.5" font-family="Vera" font-size="10.00">topo.command.pylabplot.measure_cog</text>
</g>
<!-- param.parameterized.ParameterizedFunction&#45;&gt;topo.command.pylabplot.measure_cog -->
<g id="edge38" class="edge"><title>param.parameterized.ParameterizedFunction&#45;&gt;topo.command.pylabplot.measure_cog</title>
<path fill="none" stroke="black" stroke-width="0.5" d="M427.798,-94.9662C470.763,-89.6307 523.585,-83.0711 567.271,-77.6461"/>
<polygon fill="black" stroke="black" points="567.534,-79.377 572.28,-77.024 567.102,-75.9037 567.534,-79.377"/>
</g>
<!-- topo.command.Command&#45;&gt;topo.command.pylabplot.PylabPlotCommand -->
<g id="edge26" class="edge"><title>topo.command.Command&#45;&gt;topo.command.pylabplot.PylabPlotCommand</title>
<path fill="none" stroke="black" stroke-width="0.5" d="M724.904,-226.966C775.913,-232.617 844.91,-240.261 900.531,-246.423"/>
<polygon fill="black" stroke="black" points="900.367,-248.166 905.529,-246.977 900.753,-244.687 900.367,-248.166"/>
</g>
<!-- topo.analysis.featureresponses.PatternPresentingCommand&#45;&gt;topo.analysis.featureresponses.MeasureResponseCommand -->
<g id="edge30" class="edge"><title>topo.analysis.featureresponses.PatternPresentingCommand&#45;&gt;topo.analysis.featureresponses.MeasureResponseCommand</title>
<path fill="none" stroke="black" stroke-width="0.5" d="M743.568,-94.9662C791.924,-89.609 851.418,-83.0179 900.5,-77.5801"/>
<polygon fill="black" stroke="black" points="900.743,-79.3141 905.52,-77.024 900.357,-75.8353 900.743,-79.3141"/>
</g>
</g>
</svg>
