<?xml version="1.0" encoding="UTF-8" standalone="no"?>
<!DOCTYPE svg PUBLIC "-//W3C//DTD SVG 1.1//EN"
 "http://www.w3.org/Graphics/SVG/1.1/DTD/svg11.dtd">
<!-- Generated by graphviz version 2.26.3 (20100126.1600)
 -->
<!-- Title: inheritance8ed98380c7 Pages: 1 -->
<svg width="750pt" height="180pt"
 viewBox="0.00 0.00 750.00 180.00" xmlns="http://www.w3.org/2000/svg" xmlns:xlink="http://www.w3.org/1999/xlink">
<g id="graph1" class="graph" transform="scale(1 1) rotate(0) translate(4 176)">
<title>inheritance8ed98380c7</title>
<polygon fill="white" stroke="white" points="-4,5 -4,-176 747,-176 747,5 -4,5"/>
<!-- topo.base.functionfamily.ResponseFn -->
<g id="node1" class="node"><title>topo.base.functionfamily.ResponseFn</title>
<polygon fill="none" stroke="black" stroke-width="0.5" points="444,-153.5 252,-153.5 252,-132.5 444,-132.5 444,-153.5"/>
<text text-anchor="middle" x="348" y="-140.5" font-family="Vera" font-size="10.00">topo.base.functionfamily.ResponseFn</text>
</g>
<!-- topo.base.functionfamily.DotProduct -->
<g id="node12" class="node"><title>topo.base.functionfamily.DotProduct</title>
<polygon fill="none" stroke="black" stroke-width="0.5" points="717,-172.5 527,-172.5 527,-151.5 717,-151.5 717,-172.5"/>
<text text-anchor="middle" x="622" y="-159.5" font-family="Vera" font-size="10.00">topo.base.functionfamily.DotProduct</text>
</g>
<!-- topo.base.functionfamily.ResponseFn&#45;&gt;topo.base.functionfamily.DotProduct -->
<g id="edge12" class="edge"><title>topo.base.functionfamily.ResponseFn&#45;&gt;topo.base.functionfamily.DotProduct</title>
<path fill="none" stroke="black" stroke-width="0.5" d="M444.602,-149.699C469.591,-151.432 496.549,-153.301 521.722,-155.046"/>
<polygon fill="black" stroke="black" points="521.622,-156.794 526.731,-155.394 521.865,-153.302 521.622,-156.794"/>
</g>
<!-- param.parameterized.Parameterized -->
<g id="node2" class="node"><title>param.parameterized.Parameterized</title>
<polygon fill="none" stroke="black" stroke-width="0.5" points="194,-77.5 5.68434e-14,-77.5 0,-56.5 194,-56.5 194,-77.5"/>
<text text-anchor="middle" x="97" y="-64.5" font-family="Vera" font-size="10.00">param.parameterized.Parameterized</text>
</g>
<!-- param.parameterized.Parameterized&#45;&gt;topo.base.functionfamily.ResponseFn -->
<g id="edge2" class="edge"><title>param.parameterized.Parameterized&#45;&gt;topo.base.functionfamily.ResponseFn</title>
<path fill="none" stroke="black" stroke-width="0.5" d="M130.072,-77.0138C176.533,-91.0816 260.917,-116.632 309.933,-131.474"/>
<polygon fill="black" stroke="black" points="309.562,-133.19 314.855,-132.964 310.577,-129.84 309.562,-133.19"/>
</g>
<!-- topo.base.functionfamily.LearningFn -->
<g id="node5" class="node"><title>topo.base.functionfamily.LearningFn</title>
<polygon fill="none" stroke="black" stroke-width="0.5" points="442,-96.5 254,-96.5 254,-75.5 442,-75.5 442,-96.5"/>
<text text-anchor="middle" x="348" y="-83.5" font-family="Vera" font-size="10.00">topo.base.functionfamily.LearningFn</text>
</g>
<!-- param.parameterized.Parameterized&#45;&gt;topo.base.functionfamily.LearningFn -->
<g id="edge8" class="edge"><title>param.parameterized.Parameterized&#45;&gt;topo.base.functionfamily.LearningFn</title>
<path fill="none" stroke="black" stroke-width="0.5" d="M194.043,-74.3459C211.949,-75.7013 230.67,-77.1185 248.643,-78.479"/>
<polygon fill="black" stroke="black" points="248.574,-80.2286 253.692,-78.8611 248.838,-76.7386 248.574,-80.2286"/>
</g>
<!-- param.parameterized.ParameterizedFunction -->
<g id="node7" class="node"><title>param.parameterized.ParameterizedFunction</title>
<polygon fill="none" stroke="black" stroke-width="0.5" points="465,-58.5 231,-58.5 231,-37.5 465,-37.5 465,-58.5"/>
<text text-anchor="middle" x="348" y="-45.5" font-family="Vera" font-size="10.00">param.parameterized.ParameterizedFunction</text>
</g>
<!-- param.parameterized.Parameterized&#45;&gt;param.parameterized.ParameterizedFunction -->
<g id="edge6" class="edge"><title>param.parameterized.Parameterized&#45;&gt;param.parameterized.ParameterizedFunction</title>
<path fill="none" stroke="black" stroke-width="0.5" d="M194.043,-59.6541C204.357,-58.8734 214.942,-58.0721 225.498,-57.273"/>
<polygon fill="black" stroke="black" points="225.823,-59.0035 230.677,-56.881 225.559,-55.5135 225.823,-59.0035"/>
</g>
<!-- topo.base.functionfamily.CoordinateMapperFn -->
<g id="node16" class="node"><title>topo.base.functionfamily.CoordinateMapperFn</title>
<polygon fill="none" stroke="black" stroke-width="0.5" points="466,-20.5 230,-20.5 230,0.5 466,0.5 466,-20.5"/>
<text text-anchor="middle" x="348" y="-7.5" font-family="Vera" font-size="10.00">topo.base.functionfamily.CoordinateMapperFn</text>
</g>
<!-- param.parameterized.Parameterized&#45;&gt;topo.base.functionfamily.CoordinateMapperFn -->
<g id="edge16" class="edge"><title>param.parameterized.Parameterized&#45;&gt;topo.base.functionfamily.CoordinateMapperFn</title>
<path fill="none" stroke="black" stroke-width="0.5" d="M128.172,-56.9582C154.956,-48.6043 194.722,-36.8509 230,-29 243.439,-26.0092 257.839,-23.2924 271.798,-20.9085"/>
<polygon fill="black" stroke="black" points="272.279,-22.6022 276.919,-20.0453 271.697,-19.1509 272.279,-22.6022"/>
</g>
<!-- topo.base.functionfamily.IdentityLF -->
<g id="node4" class="node"><title>topo.base.functionfamily.IdentityLF</title>
<polygon fill="none" stroke="black" stroke-width="0.5" points="713,-134.5 531,-134.5 531,-113.5 713,-113.5 713,-134.5"/>
<text text-anchor="middle" x="622" y="-121.5" font-family="Vera" font-size="10.00">topo.base.functionfamily.IdentityLF</text>
</g>
<!-- topo.base.functionfamily.LearningFn&#45;&gt;topo.base.functionfamily.IdentityLF -->
<g id="edge4" class="edge"><title>topo.base.functionfamily.LearningFn&#45;&gt;topo.base.functionfamily.IdentityLF</title>
<path fill="none" stroke="black" stroke-width="0.5" d="M420.349,-96.0338C458.587,-101.337 505.544,-107.849 544.521,-113.255"/>
<polygon fill="black" stroke="black" points="544.528,-115.022 549.721,-113.976 545.009,-111.556 544.528,-115.022"/>
</g>
<!-- topo.base.functionfamily.Hebbian -->
<g id="node10" class="node"><title>topo.base.functionfamily.Hebbian</title>
<polygon fill="none" stroke="black" stroke-width="0.5" points="710,-96.5 534,-96.5 534,-75.5 710,-75.5 710,-96.5"/>
<text text-anchor="middle" x="622" y="-83.5" font-family="Vera" font-size="10.00">topo.base.functionfamily.Hebbian</text>
</g>
<!-- topo.base.functionfamily.LearningFn&#45;&gt;topo.base.functionfamily.Hebbian -->
<g id="edge10" class="edge"><title>topo.base.functionfamily.LearningFn&#45;&gt;topo.base.functionfamily.Hebbian</title>
<path fill="none" stroke="black" stroke-width="0.5" d="M442.295,-86C470.276,-86 500.897,-86 528.807,-86"/>
<polygon fill="black" stroke="black" points="528.985,-87.7501 533.985,-86 528.985,-84.2501 528.985,-87.7501"/>
</g>
<!-- topo.base.functionfamily.PatternDrivenAnalysis -->
<g id="node14" class="node"><title>topo.base.functionfamily.PatternDrivenAnalysis</title>
<polygon fill="none" stroke="black" stroke-width="0.5" points="742,-58.5 502,-58.5 502,-37.5 742,-37.5 742,-58.5"/>
<text text-anchor="middle" x="622" y="-45.5" font-family="Vera" font-size="10.00">topo.base.functionfamily.PatternDrivenAnalysis</text>
</g>
<!-- param.parameterized.ParameterizedFunction&#45;&gt;topo.base.functionfamily.PatternDrivenAnalysis -->
<g id="edge14" class="edge"><title>param.parameterized.ParameterizedFunction&#45;&gt;topo.base.functionfamily.PatternDrivenAnalysis</title>
<path fill="none" stroke="black" stroke-width="0.5" d="M465.393,-48C475.753,-48 486.267,-48 496.689,-48"/>
<polygon fill="black" stroke="black" points="496.797,-49.7501 501.797,-48 496.797,-46.2501 496.797,-49.7501"/>
</g>
<!-- topo.base.functionfamily.IdentityMF -->
<g id="node18" class="node"><title>topo.base.functionfamily.IdentityMF</title>
<polygon fill="none" stroke="black" stroke-width="0.5" points="714,-20.5 530,-20.5 530,0.5 714,0.5 714,-20.5"/>
<text text-anchor="middle" x="622" y="-7.5" font-family="Vera" font-size="10.00">topo.base.functionfamily.IdentityMF</text>
</g>
<!-- topo.base.functionfamily.CoordinateMapperFn&#45;&gt;topo.base.functionfamily.IdentityMF -->
<g id="edge18" class="edge"><title>topo.base.functionfamily.CoordinateMapperFn&#45;&gt;topo.base.functionfamily.IdentityMF</title>
<path fill="none" stroke="black" stroke-width="0.5" d="M466.189,-10C485.518,-10 505.357,-10 524.126,-10"/>
<polygon fill="black" stroke="black" points="524.39,-11.7501 529.39,-10 524.39,-8.25009 524.39,-11.7501"/>
</g>
</g>
</svg>
