<?xml version="1.0" encoding="UTF-8" standalone="no"?>
<!DOCTYPE svg PUBLIC "-//W3C//DTD SVG 1.1//EN"
 "http://www.w3.org/Graphics/SVG/1.1/DTD/svg11.dtd">
<!-- Generated by graphviz version 2.26.3 (20100126.1600)
 -->
<!-- Title: inheritance0bce68b9cf Pages: 1 -->
<svg width="1872pt" height="408pt"
 viewBox="0.00 0.00 1872.00 408.00" xmlns="http://www.w3.org/2000/svg" xmlns:xlink="http://www.w3.org/1999/xlink">
<g id="graph1" class="graph" transform="scale(1 1) rotate(0) translate(4 404)">
<title>inheritance0bce68b9cf</title>
<polygon fill="white" stroke="white" points="-4,5 -4,-404 1869,-404 1869,5 -4,5"/>
<!-- topo.command.analysis.update_connectionfields -->
<g id="node1" class="node"><title>topo.command.analysis.update_connectionfields</title>
<polygon fill="none" stroke="black" stroke-width="0.5" points="1505,-381.5 1255,-381.5 1255,-360.5 1505,-360.5 1505,-381.5"/>
<text text-anchor="middle" x="1380" y="-368.5" font-family="Vera" font-size="10.00">topo.command.analysis.update_connectionfields</text>
</g>
<!-- topo.plotting.plotgroup.UnitMeasurementCommand -->
<g id="node2" class="node"><title>topo.plotting.plotgroup.UnitMeasurementCommand</title>
<polygon fill="none" stroke="black" stroke-width="0.5" points="1145,-343.5 879,-343.5 879,-322.5 1145,-322.5 1145,-343.5"/>
<text text-anchor="middle" x="1012" y="-330.5" font-family="Vera" font-size="10.00">topo.plotting.plotgroup.UnitMeasurementCommand</text>
</g>
<!-- topo.plotting.plotgroup.UnitMeasurementCommand&#45;&gt;topo.command.analysis.update_connectionfields -->
<g id="edge2" class="edge"><title>topo.plotting.plotgroup.UnitMeasurementCommand&#45;&gt;topo.command.analysis.update_connectionfields</title>
<path fill="none" stroke="black" stroke-width="0.5" d="M1109.17,-343.034C1161.15,-348.402 1225.14,-355.009 1277.86,-360.453"/>
<polygon fill="black" stroke="black" points="1277.77,-362.203 1282.93,-360.976 1278.13,-358.722 1277.77,-362.203"/>
</g>
<!-- topo.command.analysis.update_projection -->
<g id="node58" class="node"><title>topo.command.analysis.update_projection</title>
<polygon fill="none" stroke="black" stroke-width="0.5" points="1490,-343.5 1270,-343.5 1270,-322.5 1490,-322.5 1490,-343.5"/>
<text text-anchor="middle" x="1380" y="-330.5" font-family="Vera" font-size="10.00">topo.command.analysis.update_projection</text>
</g>
<!-- topo.plotting.plotgroup.UnitMeasurementCommand&#45;&gt;topo.command.analysis.update_projection -->
<g id="edge58" class="edge"><title>topo.plotting.plotgroup.UnitMeasurementCommand&#45;&gt;topo.command.analysis.update_projection</title>
<path fill="none" stroke="black" stroke-width="0.5" d="M1145.12,-333C1184.11,-333 1226.42,-333 1264.24,-333"/>
<polygon fill="black" stroke="black" points="1264.3,-334.75 1269.3,-333 1264.3,-331.25 1264.3,-334.75"/>
</g>
<!-- topo.command.analysis.measure_corner_angle_pref -->
<g id="node4" class="node"><title>topo.command.analysis.measure_corner_angle_pref</title>
<polygon fill="none" stroke="black" stroke-width="0.5" points="1863,-362.5 1595,-362.5 1595,-341.5 1863,-341.5 1863,-362.5"/>
<text text-anchor="middle" x="1729" y="-349.5" font-family="Vera" font-size="10.00">topo.command.analysis.measure_corner_angle_pref</text>
</g>
<!-- topo.analysis.featureresponses.PositionMeasurementCommand -->
<g id="node5" class="node"><title>topo.analysis.featureresponses.PositionMeasurementCommand</title>
<polygon fill="none" stroke="black" stroke-width="0.5" points="1542,-305.5 1218,-305.5 1218,-284.5 1542,-284.5 1542,-305.5"/>
<text text-anchor="middle" x="1380" y="-292.5" font-family="Vera" font-size="10.00">topo.analysis.featureresponses.PositionMeasurementCommand</text>
</g>
<!-- topo.analysis.featureresponses.PositionMeasurementCommand&#45;&gt;topo.command.analysis.measure_corner_angle_pref -->
<g id="edge4" class="edge"><title>topo.analysis.featureresponses.PositionMeasurementCommand&#45;&gt;topo.command.analysis.measure_corner_angle_pref</title>
<path fill="none" stroke="black" stroke-width="0.5" d="M1520.93,-305.009C1533.59,-307.417 1546.11,-310.374 1558,-314 1575.3,-319.277 1576.79,-327.434 1594,-333 1603.68,-336.129 1613.91,-338.743 1624.24,-340.926"/>
<polygon fill="black" stroke="black" points="1624.06,-342.677 1629.31,-341.964 1624.76,-339.248 1624.06,-342.677"/>
</g>
<!-- topo.command.analysis.measure_corner_or_pref -->
<g id="node16" class="node"><title>topo.command.analysis.measure_corner_or_pref</title>
<polygon fill="none" stroke="black" stroke-width="0.5" points="1855,-324.5 1603,-324.5 1603,-303.5 1855,-303.5 1855,-324.5"/>
<text text-anchor="middle" x="1729" y="-311.5" font-family="Vera" font-size="10.00">topo.command.analysis.measure_corner_or_pref</text>
</g>
<!-- topo.analysis.featureresponses.PositionMeasurementCommand&#45;&gt;topo.command.analysis.measure_corner_or_pref -->
<g id="edge12" class="edge"><title>topo.analysis.featureresponses.PositionMeasurementCommand&#45;&gt;topo.command.analysis.measure_corner_or_pref</title>
<path fill="none" stroke="black" stroke-width="0.5" d="M1542.24,-303.833C1560.87,-304.847 1579.69,-305.871 1597.84,-306.859"/>
<polygon fill="black" stroke="black" points="1597.85,-308.613 1602.94,-307.137 1598.04,-305.118 1597.85,-308.613"/>
</g>
<!-- topo.command.analysis.measure_frequency_preference -->
<g id="node7" class="node"><title>topo.command.analysis.measure_frequency_preference</title>
<polygon fill="none" stroke="black" stroke-width="0.5" points="1523,-229.5 1237,-229.5 1237,-208.5 1523,-208.5 1523,-229.5"/>
<text text-anchor="middle" x="1380" y="-216.5" font-family="Vera" font-size="10.00">topo.command.analysis.measure_frequency_preference</text>
</g>
<!-- topo.analysis.featureresponses.MeasureResponseCommand -->
<g id="node8" class="node"><title>topo.analysis.featureresponses.MeasureResponseCommand</title>
<polygon fill="none" stroke="black" stroke-width="0.5" points="1165,-191.5 859,-191.5 859,-170.5 1165,-170.5 1165,-191.5"/>
<text text-anchor="middle" x="1012" y="-178.5" font-family="Vera" font-size="10.00">topo.analysis.featureresponses.MeasureResponseCommand</text>
</g>
<!-- topo.analysis.featureresponses.MeasureResponseCommand&#45;&gt;topo.analysis.featureresponses.PositionMeasurementCommand -->
<g id="edge32" class="edge"><title>topo.analysis.featureresponses.MeasureResponseCommand&#45;&gt;topo.analysis.featureresponses.PositionMeasurementCommand</title>
<path fill="none" stroke="black" stroke-width="0.5" d="M1044.34,-191.017C1112.42,-212.108 1270.21,-260.99 1342.55,-283.398"/>
<polygon fill="black" stroke="black" points="1342.31,-285.157 1347.61,-284.965 1343.35,-281.814 1342.31,-285.157"/>
</g>
<!-- topo.analysis.featureresponses.MeasureResponseCommand&#45;&gt;topo.command.analysis.measure_frequency_preference -->
<g id="edge6" class="edge"><title>topo.analysis.featureresponses.MeasureResponseCommand&#45;&gt;topo.command.analysis.measure_frequency_preference</title>
<path fill="none" stroke="black" stroke-width="0.5" d="M1109.17,-191.034C1161.15,-196.402 1225.14,-203.009 1277.86,-208.453"/>
<polygon fill="black" stroke="black" points="1277.77,-210.203 1282.93,-208.976 1278.13,-206.722 1277.77,-210.203"/>
</g>
<!-- topo.analysis.featureresponses.SinusoidalMeasureResponseCommand -->
<g id="node11" class="node"><title>topo.analysis.featureresponses.SinusoidalMeasureResponseCommand</title>
<polygon fill="none" stroke="black" stroke-width="0.5" points="1558,-191.5 1202,-191.5 1202,-170.5 1558,-170.5 1558,-191.5"/>
<text text-anchor="middle" x="1380" y="-178.5" font-family="Vera" font-size="10.00">topo.analysis.featureresponses.SinusoidalMeasureResponseCommand</text>
</g>
<!-- topo.analysis.featureresponses.MeasureResponseCommand&#45;&gt;topo.analysis.featureresponses.SinusoidalMeasureResponseCommand -->
<g id="edge26" class="edge"><title>topo.analysis.featureresponses.MeasureResponseCommand&#45;&gt;topo.analysis.featureresponses.SinusoidalMeasureResponseCommand</title>
<path fill="none" stroke="black" stroke-width="0.5" d="M1165.67,-181C1175.91,-181 1186.29,-181 1196.66,-181"/>
<polygon fill="black" stroke="black" points="1196.75,-182.75 1201.75,-181 1196.75,-179.25 1196.75,-182.75"/>
</g>
<!-- topo.analysis.featureresponses.SingleInputResponseCommand -->
<g id="node14" class="node"><title>topo.analysis.featureresponses.SingleInputResponseCommand</title>
<polygon fill="none" stroke="black" stroke-width="0.5" points="1539,-153.5 1221,-153.5 1221,-132.5 1539,-132.5 1539,-153.5"/>
<text text-anchor="middle" x="1380" y="-140.5" font-family="Vera" font-size="10.00">topo.analysis.featureresponses.SingleInputResponseCommand</text>
</g>
<!-- topo.analysis.featureresponses.MeasureResponseCommand&#45;&gt;topo.analysis.featureresponses.SingleInputResponseCommand -->
<g id="edge16" class="edge"><title>topo.analysis.featureresponses.MeasureResponseCommand&#45;&gt;topo.analysis.featureresponses.SingleInputResponseCommand</title>
<path fill="none" stroke="black" stroke-width="0.5" d="M1109.17,-170.966C1161.15,-165.598 1225.14,-158.991 1277.86,-153.547"/>
<polygon fill="black" stroke="black" points="1278.13,-155.278 1282.93,-153.024 1277.77,-151.797 1278.13,-155.278"/>
</g>
<!-- topo.command.analysis.measure_log_frequency_preference -->
<g id="node33" class="node"><title>topo.command.analysis.measure_log_frequency_preference</title>
<polygon fill="none" stroke="black" stroke-width="0.5" points="1533,-115.5 1227,-115.5 1227,-94.5 1533,-94.5 1533,-115.5"/>
<text text-anchor="middle" x="1380" y="-102.5" font-family="Vera" font-size="10.00">topo.command.analysis.measure_log_frequency_preference</text>
</g>
<!-- topo.analysis.featureresponses.MeasureResponseCommand&#45;&gt;topo.command.analysis.measure_log_frequency_preference -->
<g id="edge30" class="edge"><title>topo.analysis.featureresponses.MeasureResponseCommand&#45;&gt;topo.command.analysis.measure_log_frequency_preference</title>
<path fill="none" stroke="black" stroke-width="0.5" d="M1039.6,-170.958C1076.21,-158.045 1143.09,-135.874 1202,-124 1218.29,-120.717 1235.54,-117.976 1252.64,-115.695"/>
<polygon fill="black" stroke="black" points="1253.21,-117.385 1257.94,-115.001 1252.75,-113.915 1253.21,-117.385"/>
</g>
<!-- topo.command.analysis.measure_latency_preference -->
<g id="node54" class="node"><title>topo.command.analysis.measure_latency_preference</title>
<polygon fill="none" stroke="black" stroke-width="0.5" points="1517,-77.5 1243,-77.5 1243,-56.5 1517,-56.5 1517,-77.5"/>
<text text-anchor="middle" x="1380" y="-64.5" font-family="Vera" font-size="10.00">topo.command.analysis.measure_latency_preference</text>
</g>
<!-- topo.analysis.featureresponses.MeasureResponseCommand&#45;&gt;topo.command.analysis.measure_latency_preference -->
<g id="edge54" class="edge"><title>topo.analysis.featureresponses.MeasureResponseCommand&#45;&gt;topo.command.analysis.measure_latency_preference</title>
<path fill="none" stroke="black" stroke-width="0.5" d="M1027.47,-170.833C1058.87,-150.756 1132.99,-106.219 1202,-86 1213.48,-82.636 1225.54,-79.8541 1237.73,-77.5553"/>
<polygon fill="black" stroke="black" points="1238.36,-79.2193 1242.97,-76.5993 1237.73,-75.7763 1238.36,-79.2193"/>
</g>
<!-- topo.command.analysis.measure_sine_pref -->
<g id="node10" class="node"><title>topo.command.analysis.measure_sine_pref</title>
<polygon fill="none" stroke="black" stroke-width="0.5" points="1842,-286.5 1616,-286.5 1616,-265.5 1842,-265.5 1842,-286.5"/>
<text text-anchor="middle" x="1729" y="-273.5" font-family="Vera" font-size="10.00">topo.command.analysis.measure_sine_pref</text>
</g>
<!-- topo.analysis.featureresponses.SinusoidalMeasureResponseCommand&#45;&gt;topo.command.analysis.measure_sine_pref -->
<g id="edge8" class="edge"><title>topo.analysis.featureresponses.SinusoidalMeasureResponseCommand&#45;&gt;topo.command.analysis.measure_sine_pref</title>
<path fill="none" stroke="black" stroke-width="0.5" d="M1541.03,-191.105C1546.91,-193.682 1552.59,-196.632 1558,-200 1583.44,-215.837 1568.83,-240.739 1594,-257 1599.28,-260.412 1604.92,-263.32 1610.78,-265.793"/>
<polygon fill="black" stroke="black" points="1610.47,-267.55 1615.76,-267.769 1611.76,-264.297 1610.47,-267.55"/>
</g>
<!-- topo.command.analysis.measure_dr_pref -->
<g id="node22" class="node"><title>topo.command.analysis.measure_dr_pref</title>
<polygon fill="none" stroke="black" stroke-width="0.5" points="1837,-248.5 1621,-248.5 1621,-227.5 1837,-227.5 1837,-248.5"/>
<text text-anchor="middle" x="1729" y="-235.5" font-family="Vera" font-size="10.00">topo.command.analysis.measure_dr_pref</text>
</g>
<!-- topo.analysis.featureresponses.SinusoidalMeasureResponseCommand&#45;&gt;topo.command.analysis.measure_dr_pref -->
<g id="edge18" class="edge"><title>topo.analysis.featureresponses.SinusoidalMeasureResponseCommand&#45;&gt;topo.command.analysis.measure_dr_pref</title>
<path fill="none" stroke="black" stroke-width="0.5" d="M1520.93,-191.009C1533.59,-193.417 1546.11,-196.374 1558,-200 1575.3,-205.277 1576.79,-213.434 1594,-219 1603.68,-222.129 1613.91,-224.743 1624.24,-226.926"/>
<polygon fill="black" stroke="black" points="1624.06,-228.677 1629.31,-227.964 1624.76,-225.248 1624.06,-228.677"/>
</g>
<!-- topo.command.analysis.measure_second_or_pref -->
<g id="node36" class="node"><title>topo.command.analysis.measure_second_or_pref</title>
<polygon fill="none" stroke="black" stroke-width="0.5" points="1857,-210.5 1601,-210.5 1601,-189.5 1857,-189.5 1857,-210.5"/>
<text text-anchor="middle" x="1729" y="-197.5" font-family="Vera" font-size="10.00">topo.command.analysis.measure_second_or_pref</text>
</g>
<!-- topo.analysis.featureresponses.SinusoidalMeasureResponseCommand&#45;&gt;topo.command.analysis.measure_second_or_pref -->
<g id="edge34" class="edge"><title>topo.analysis.featureresponses.SinusoidalMeasureResponseCommand&#45;&gt;topo.command.analysis.measure_second_or_pref</title>
<path fill="none" stroke="black" stroke-width="0.5" d="M1558.08,-190.695C1570.72,-191.383 1583.34,-192.07 1595.67,-192.742"/>
<polygon fill="black" stroke="black" points="1595.85,-194.504 1600.94,-193.028 1596.04,-191.009 1595.85,-194.504"/>
</g>
<!-- topo.command.analysis.measure_hue_pref -->
<g id="node43" class="node"><title>topo.command.analysis.measure_hue_pref</title>
<polygon fill="none" stroke="black" stroke-width="0.5" points="1841,-172.5 1617,-172.5 1617,-151.5 1841,-151.5 1841,-172.5"/>
<text text-anchor="middle" x="1729" y="-159.5" font-family="Vera" font-size="10.00">topo.command.analysis.measure_hue_pref</text>
</g>
<!-- topo.analysis.featureresponses.SinusoidalMeasureResponseCommand&#45;&gt;topo.command.analysis.measure_hue_pref -->
<g id="edge42" class="edge"><title>topo.analysis.featureresponses.SinusoidalMeasureResponseCommand&#45;&gt;topo.command.analysis.measure_hue_pref</title>
<path fill="none" stroke="black" stroke-width="0.5" d="M1558.08,-171.305C1576.2,-170.319 1594.27,-169.335 1611.51,-168.396"/>
<polygon fill="black" stroke="black" points="1611.94,-170.126 1616.83,-168.107 1611.74,-166.631 1611.94,-170.126"/>
</g>
<!-- topo.command.analysis.measure_od_pref -->
<g id="node45" class="node"><title>topo.command.analysis.measure_od_pref</title>
<polygon fill="none" stroke="black" stroke-width="0.5" points="1838,-134.5 1620,-134.5 1620,-113.5 1838,-113.5 1838,-134.5"/>
<text text-anchor="middle" x="1729" y="-121.5" font-family="Vera" font-size="10.00">topo.command.analysis.measure_od_pref</text>
</g>
<!-- topo.analysis.featureresponses.SinusoidalMeasureResponseCommand&#45;&gt;topo.command.analysis.measure_od_pref -->
<g id="edge44" class="edge"><title>topo.analysis.featureresponses.SinusoidalMeasureResponseCommand&#45;&gt;topo.command.analysis.measure_od_pref</title>
<path fill="none" stroke="black" stroke-width="0.5" d="M1520.93,-170.991C1533.59,-168.583 1546.11,-165.626 1558,-162 1575.3,-156.723 1576.79,-148.566 1594,-143 1603.68,-139.871 1613.91,-137.257 1624.24,-135.074"/>
<polygon fill="black" stroke="black" points="1624.76,-136.752 1629.31,-134.036 1624.06,-133.323 1624.76,-136.752"/>
</g>
<!-- topo.command.analysis.measure_phasedisparity -->
<g id="node50" class="node"><title>topo.command.analysis.measure_phasedisparity</title>
<polygon fill="none" stroke="black" stroke-width="0.5" points="1855,-96.5 1603,-96.5 1603,-75.5 1855,-75.5 1855,-96.5"/>
<text text-anchor="middle" x="1729" y="-83.5" font-family="Vera" font-size="10.00">topo.command.analysis.measure_phasedisparity</text>
</g>
<!-- topo.analysis.featureresponses.SinusoidalMeasureResponseCommand&#45;&gt;topo.command.analysis.measure_phasedisparity -->
<g id="edge50" class="edge"><title>topo.analysis.featureresponses.SinusoidalMeasureResponseCommand&#45;&gt;topo.command.analysis.measure_phasedisparity</title>
<path fill="none" stroke="black" stroke-width="0.5" d="M1541.03,-170.895C1546.91,-168.318 1552.59,-165.368 1558,-162 1583.44,-146.163 1568.83,-121.261 1594,-105 1597.94,-102.453 1602.08,-100.187 1606.37,-98.1727"/>
<polygon fill="black" stroke="black" points="1607.21,-99.7127 1611.07,-96.0851 1605.79,-96.5135 1607.21,-99.7127"/>
</g>
<!-- topo.command.analysis.measure_or_pref -->
<g id="node56" class="node"><title>topo.command.analysis.measure_or_pref</title>
<polygon fill="none" stroke="black" stroke-width="0.5" points="1837,-58.5 1621,-58.5 1621,-37.5 1837,-37.5 1837,-58.5"/>
<text text-anchor="middle" x="1729" y="-45.5" font-family="Vera" font-size="10.00">topo.command.analysis.measure_or_pref</text>
</g>
<!-- topo.analysis.featureresponses.SinusoidalMeasureResponseCommand&#45;&gt;topo.command.analysis.measure_or_pref -->
<g id="edge56" class="edge"><title>topo.analysis.featureresponses.SinusoidalMeasureResponseCommand&#45;&gt;topo.command.analysis.measure_or_pref</title>
<path fill="none" stroke="black" stroke-width="0.5" d="M1544.41,-170.908C1549.15,-168.282 1553.69,-165.324 1558,-162 1593.74,-134.407 1558.73,-95.1871 1594,-67 1600.66,-61.6774 1608.12,-57.4765 1616.02,-54.187"/>
<polygon fill="black" stroke="black" points="1616.97,-55.6967 1621,-52.2548 1615.7,-52.4342 1616.97,-55.6967"/>
</g>
<!-- topo.command.analysis.measure_rfs -->
<g id="node13" class="node"><title>topo.command.analysis.measure_rfs</title>
<polygon fill="none" stroke="black" stroke-width="0.5" points="1826,-20.5 1632,-20.5 1632,0.5 1826,0.5 1826,-20.5"/>
<text text-anchor="middle" x="1729" y="-7.5" font-family="Vera" font-size="10.00">topo.command.analysis.measure_rfs</text>
</g>
<!-- topo.analysis.featureresponses.SingleInputResponseCommand&#45;&gt;topo.command.analysis.measure_rfs -->
<g id="edge10" class="edge"><title>topo.analysis.featureresponses.SingleInputResponseCommand&#45;&gt;topo.command.analysis.measure_rfs</title>
<path fill="none" stroke="black" stroke-width="0.5" d="M1539.89,-135.288C1546.26,-132.105 1552.34,-128.368 1558,-124 1593.74,-96.4074 1558.73,-57.1871 1594,-29 1603.63,-21.3075 1614.92,-15.958 1626.81,-12.3167"/>
<polygon fill="black" stroke="black" points="1627.6,-13.9097 1631.93,-10.8589 1626.65,-10.5432 1627.6,-13.9097"/>
</g>
<!-- topo.command.analysis.update_projectionactivity -->
<g id="node18" class="node"><title>topo.command.analysis.update_projectionactivity</title>
<polygon fill="none" stroke="black" stroke-width="0.5" points="1139,-286.5 885,-286.5 885,-265.5 1139,-265.5 1139,-286.5"/>
<text text-anchor="middle" x="1012" y="-273.5" font-family="Vera" font-size="10.00">topo.command.analysis.update_projectionactivity</text>
</g>
<!-- topo.plotting.plotgroup.ProjectionSheetMeasurementCommand -->
<g id="node19" class="node"><title>topo.plotting.plotgroup.ProjectionSheetMeasurementCommand</title>
<polygon fill="none" stroke="black" stroke-width="0.5" points="822,-286.5 500,-286.5 500,-265.5 822,-265.5 822,-286.5"/>
<text text-anchor="middle" x="661" y="-273.5" font-family="Vera" font-size="10.00">topo.plotting.plotgroup.ProjectionSheetMeasurementCommand</text>
</g>
<!-- topo.plotting.plotgroup.ProjectionSheetMeasurementCommand&#45;&gt;topo.plotting.plotgroup.UnitMeasurementCommand -->
<g id="edge48" class="edge"><title>topo.plotting.plotgroup.ProjectionSheetMeasurementCommand&#45;&gt;topo.plotting.plotgroup.UnitMeasurementCommand</title>
<path fill="none" stroke="black" stroke-width="0.5" d="M756.949,-286.048C778.402,-288.649 801.013,-291.668 822,-295 869.694,-302.571 923.644,-313.6 961.836,-321.828"/>
<polygon fill="black" stroke="black" points="961.626,-323.573 966.883,-322.919 962.366,-320.152 961.626,-323.573"/>
</g>
<!-- topo.plotting.plotgroup.ProjectionSheetMeasurementCommand&#45;&gt;topo.command.analysis.update_projectionactivity -->
<g id="edge14" class="edge"><title>topo.plotting.plotgroup.ProjectionSheetMeasurementCommand&#45;&gt;topo.command.analysis.update_projectionactivity</title>
<path fill="none" stroke="black" stroke-width="0.5" d="M822.118,-276C841.391,-276 860.898,-276 879.699,-276"/>
<polygon fill="black" stroke="black" points="879.982,-277.75 884.982,-276 879.982,-274.25 879.982,-277.75"/>
</g>
<!-- imagen.patterngenerator.PatternGenerator -->
<g id="node24" class="node"><title>imagen.patterngenerator.PatternGenerator</title>
<polygon fill="none" stroke="black" stroke-width="0.5" points="459,-343.5 235,-343.5 235,-322.5 459,-322.5 459,-343.5"/>
<text text-anchor="middle" x="347" y="-330.5" font-family="Vera" font-size="10.00">imagen.patterngenerator.PatternGenerator</text>
</g>
<!-- topo.command.analysis.log_frequency_mapper -->
<g id="node38" class="node"><title>topo.command.analysis.log_frequency_mapper</title>
<polygon fill="none" stroke="black" stroke-width="0.5" points="783,-400.5 539,-400.5 539,-379.5 783,-379.5 783,-400.5"/>
<text text-anchor="middle" x="661" y="-387.5" font-family="Vera" font-size="10.00">topo.command.analysis.log_frequency_mapper</text>
</g>
<!-- imagen.patterngenerator.PatternGenerator&#45;&gt;topo.command.analysis.log_frequency_mapper -->
<g id="edge36" class="edge"><title>imagen.patterngenerator.PatternGenerator&#45;&gt;topo.command.analysis.log_frequency_mapper</title>
<path fill="none" stroke="black" stroke-width="0.5" d="M381.973,-343.022C412.809,-351.537 459.074,-363.533 500,-371 517.463,-374.186 536.094,-376.955 554.257,-379.32"/>
<polygon fill="black" stroke="black" points="554.184,-381.075 559.366,-379.976 554.63,-377.603 554.184,-381.075"/>
</g>
<!-- topo.command.analysis.latency_mapper -->
<g id="node41" class="node"><title>topo.command.analysis.latency_mapper</title>
<polygon fill="none" stroke="black" stroke-width="0.5" points="767,-362.5 555,-362.5 555,-341.5 767,-341.5 767,-362.5"/>
<text text-anchor="middle" x="661" y="-349.5" font-family="Vera" font-size="10.00">topo.command.analysis.latency_mapper</text>
</g>
<!-- imagen.patterngenerator.PatternGenerator&#45;&gt;topo.command.analysis.latency_mapper -->
<g id="edge40" class="edge"><title>imagen.patterngenerator.PatternGenerator&#45;&gt;topo.command.analysis.latency_mapper</title>
<path fill="none" stroke="black" stroke-width="0.5" d="M459.031,-339.779C488.501,-341.562 520.279,-343.485 549.709,-345.266"/>
<polygon fill="black" stroke="black" points="549.696,-347.018 554.792,-345.573 549.907,-343.525 549.696,-347.018"/>
</g>
<!-- topo.command.analysis.frequency_mapper -->
<g id="node60" class="node"><title>topo.command.analysis.frequency_mapper</title>
<polygon fill="none" stroke="black" stroke-width="0.5" points="773,-324.5 549,-324.5 549,-303.5 773,-303.5 773,-324.5"/>
<text text-anchor="middle" x="661" y="-311.5" font-family="Vera" font-size="10.00">topo.command.analysis.frequency_mapper</text>
</g>
<!-- imagen.patterngenerator.PatternGenerator&#45;&gt;topo.command.analysis.frequency_mapper -->
<g id="edge60" class="edge"><title>imagen.patterngenerator.PatternGenerator&#45;&gt;topo.command.analysis.frequency_mapper</title>
<path fill="none" stroke="black" stroke-width="0.5" d="M459.031,-326.221C486.472,-324.561 515.915,-322.779 543.6,-321.104"/>
<polygon fill="black" stroke="black" points="543.862,-322.841 548.748,-320.792 543.651,-319.348 543.862,-322.841"/>
</g>
<!-- param.parameterized.Parameterized -->
<g id="node25" class="node"><title>param.parameterized.Parameterized</title>
<polygon fill="none" stroke="black" stroke-width="0.5" points="194,-267.5 5.68434e-14,-267.5 0,-246.5 194,-246.5 194,-267.5"/>
<text text-anchor="middle" x="97" y="-254.5" font-family="Vera" font-size="10.00">param.parameterized.Parameterized</text>
</g>
<!-- param.parameterized.Parameterized&#45;&gt;imagen.patterngenerator.PatternGenerator -->
<g id="edge20" class="edge"><title>param.parameterized.Parameterized&#45;&gt;imagen.patterngenerator.PatternGenerator</title>
<path fill="none" stroke="black" stroke-width="0.5" d="M129.94,-267.014C176.216,-281.082 260.263,-306.632 309.084,-321.474"/>
<polygon fill="black" stroke="black" points="308.694,-323.184 313.987,-322.964 309.712,-319.835 308.694,-323.184"/>
</g>
<!-- param.parameterized.ParameterizedFunction -->
<g id="node29" class="node"><title>param.parameterized.ParameterizedFunction</title>
<polygon fill="none" stroke="black" stroke-width="0.5" points="464,-267.5 230,-267.5 230,-246.5 464,-246.5 464,-267.5"/>
<text text-anchor="middle" x="347" y="-254.5" font-family="Vera" font-size="10.00">param.parameterized.ParameterizedFunction</text>
</g>
<!-- param.parameterized.Parameterized&#45;&gt;param.parameterized.ParameterizedFunction -->
<g id="edge24" class="edge"><title>param.parameterized.Parameterized&#45;&gt;param.parameterized.ParameterizedFunction</title>
<path fill="none" stroke="black" stroke-width="0.5" d="M194.014,-257C204.04,-257 214.319,-257 224.575,-257"/>
<polygon fill="black" stroke="black" points="224.607,-258.75 229.607,-257 224.607,-255.25 224.607,-258.75"/>
</g>
<!-- topo.command.analysis.PatternPresenter2 -->
<g id="node52" class="node"><title>topo.command.analysis.PatternPresenter2</title>
<polygon fill="none" stroke="black" stroke-width="0.5" points="457,-229.5 237,-229.5 237,-208.5 457,-208.5 457,-229.5"/>
<text text-anchor="middle" x="347" y="-216.5" font-family="Vera" font-size="10.00">topo.command.analysis.PatternPresenter2</text>
</g>
<!-- param.parameterized.Parameterized&#45;&gt;topo.command.analysis.PatternPresenter2 -->
<g id="edge52" class="edge"><title>param.parameterized.Parameterized&#45;&gt;topo.command.analysis.PatternPresenter2</title>
<path fill="none" stroke="black" stroke-width="0.5" d="M163.012,-246.966C197.758,-241.685 240.394,-235.204 275.872,-229.811"/>
<polygon fill="black" stroke="black" points="276.372,-231.506 281.052,-229.024 275.846,-228.045 276.372,-231.506"/>
</g>
<!-- topo.analysis.featureresponses.PatternPresentingCommand -->
<g id="node27" class="node"><title>topo.analysis.featureresponses.PatternPresentingCommand</title>
<polygon fill="none" stroke="black" stroke-width="0.5" points="813,-248.5 509,-248.5 509,-227.5 813,-227.5 813,-248.5"/>
<text text-anchor="middle" x="661" y="-235.5" font-family="Vera" font-size="10.00">topo.analysis.featureresponses.PatternPresentingCommand</text>
</g>
<!-- topo.analysis.featureresponses.PatternPresentingCommand&#45;&gt;topo.analysis.featureresponses.MeasureResponseCommand -->
<g id="edge22" class="edge"><title>topo.analysis.featureresponses.PatternPresentingCommand&#45;&gt;topo.analysis.featureresponses.MeasureResponseCommand</title>
<path fill="none" stroke="black" stroke-width="0.5" d="M756.949,-227.952C778.402,-225.351 801.013,-222.332 822,-219 869.694,-211.429 923.644,-200.4 961.836,-192.172"/>
<polygon fill="black" stroke="black" points="962.366,-193.848 966.883,-191.081 961.626,-190.427 962.366,-193.848"/>
</g>
<!-- param.parameterized.ParameterizedFunction&#45;&gt;topo.plotting.plotgroup.ProjectionSheetMeasurementCommand -->
<g id="edge28" class="edge"><title>param.parameterized.ParameterizedFunction&#45;&gt;topo.plotting.plotgroup.ProjectionSheetMeasurementCommand</title>
<path fill="none" stroke="black" stroke-width="0.5" d="M464.369,-264.102C474.323,-264.704 484.506,-265.32 494.741,-265.94"/>
<polygon fill="black" stroke="black" points="494.672,-267.689 499.769,-266.244 494.884,-264.195 494.672,-267.689"/>
</g>
<!-- param.parameterized.ParameterizedFunction&#45;&gt;topo.analysis.featureresponses.PatternPresentingCommand -->
<g id="edge38" class="edge"><title>param.parameterized.ParameterizedFunction&#45;&gt;topo.analysis.featureresponses.PatternPresentingCommand</title>
<path fill="none" stroke="black" stroke-width="0.5" d="M464.369,-249.898C477.055,-249.13 490.112,-248.34 503.176,-247.55"/>
<polygon fill="black" stroke="black" points="503.493,-249.284 508.378,-247.235 503.281,-245.79 503.493,-249.284"/>
</g>
<!-- topo.command.analysis.save_plotgroup -->
<g id="node47" class="node"><title>topo.command.analysis.save_plotgroup</title>
<polygon fill="none" stroke="black" stroke-width="0.5" points="765,-210.5 557,-210.5 557,-189.5 765,-189.5 765,-210.5"/>
<text text-anchor="middle" x="661" y="-197.5" font-family="Vera" font-size="10.00">topo.command.analysis.save_plotgroup</text>
</g>
<!-- param.parameterized.ParameterizedFunction&#45;&gt;topo.command.analysis.save_plotgroup -->
<g id="edge46" class="edge"><title>param.parameterized.ParameterizedFunction&#45;&gt;topo.command.analysis.save_plotgroup</title>
<path fill="none" stroke="black" stroke-width="0.5" d="M429.959,-246.969C441.538,-244.577 453.171,-241.629 464,-238 481.154,-232.252 482.725,-224.373 500,-219 516.459,-213.881 534.257,-210.123 551.812,-207.369"/>
<polygon fill="black" stroke="black" points="552.075,-209.1 556.755,-206.619 551.549,-205.639 552.075,-209.1"/>
</g>
</g>
</svg>
