<?xml version="1.0" encoding="UTF-8" standalone="no"?>
<!DOCTYPE svg PUBLIC "-//W3C//DTD SVG 1.1//EN"
 "http://www.w3.org/Graphics/SVG/1.1/DTD/svg11.dtd">
<!-- Generated by graphviz version 2.26.3 (20100126.1600)
 -->
<!-- Title: inheritance0f827376bc Pages: 1 -->
<svg width="2194pt" height="256pt"
 viewBox="0.00 0.00 2194.00 256.00" xmlns="http://www.w3.org/2000/svg" xmlns:xlink="http://www.w3.org/1999/xlink">
<g id="graph1" class="graph" transform="scale(1 1) rotate(0) translate(4 252)">
<title>inheritance0f827376bc</title>
<polygon fill="white" stroke="white" points="-4,5 -4,-252 2191,-252 2191,5 -4,5"/>
<!-- topo.analysis.featureresponses.FeatureCurveCommand -->
<g id="node1" class="node"><title>topo.analysis.featureresponses.FeatureCurveCommand</title>
<polygon fill="none" stroke="black" stroke-width="0.5" points="1882,-153.5 1598,-153.5 1598,-132.5 1882,-132.5 1882,-153.5"/>
<text text-anchor="middle" x="1740" y="-140.5" font-family="Vera" font-size="10.00">topo.analysis.featureresponses.FeatureCurveCommand</text>
</g>
<!-- topo.analysis.featureresponses.UnitCurveCommand -->
<g id="node16" class="node"><title>topo.analysis.featureresponses.UnitCurveCommand</title>
<polygon fill="none" stroke="black" stroke-width="0.5" points="2185,-153.5 1919,-153.5 1919,-132.5 2185,-132.5 2185,-153.5"/>
<text text-anchor="middle" x="2052" y="-140.5" font-family="Vera" font-size="10.00">topo.analysis.featureresponses.UnitCurveCommand</text>
</g>
<!-- topo.analysis.featureresponses.FeatureCurveCommand&#45;&gt;topo.analysis.featureresponses.UnitCurveCommand -->
<g id="edge14" class="edge"><title>topo.analysis.featureresponses.FeatureCurveCommand&#45;&gt;topo.analysis.featureresponses.UnitCurveCommand</title>
<path fill="none" stroke="black" stroke-width="0.5" d="M1882.3,-143C1892.43,-143 1902.64,-143 1912.75,-143"/>
<polygon fill="black" stroke="black" points="1913.03,-144.75 1918.03,-143 1913.03,-141.25 1913.03,-144.75"/>
</g>
<!-- topo.analysis.featureresponses.SinusoidalMeasureResponseCommand -->
<g id="node2" class="node"><title>topo.analysis.featureresponses.SinusoidalMeasureResponseCommand</title>
<polygon fill="none" stroke="black" stroke-width="0.5" points="1562,-153.5 1206,-153.5 1206,-132.5 1562,-132.5 1562,-153.5"/>
<text text-anchor="middle" x="1384" y="-140.5" font-family="Vera" font-size="10.00">topo.analysis.featureresponses.SinusoidalMeasureResponseCommand</text>
</g>
<!-- topo.analysis.featureresponses.SinusoidalMeasureResponseCommand&#45;&gt;topo.analysis.featureresponses.FeatureCurveCommand -->
<g id="edge2" class="edge"><title>topo.analysis.featureresponses.SinusoidalMeasureResponseCommand&#45;&gt;topo.analysis.featureresponses.FeatureCurveCommand</title>
<path fill="none" stroke="black" stroke-width="0.5" d="M1562,-143C1572.21,-143 1582.43,-143 1592.51,-143"/>
<polygon fill="black" stroke="black" points="1592.76,-144.75 1597.76,-143 1592.76,-141.25 1592.76,-144.75"/>
</g>
<!-- topo.analysis.featureresponses.ReverseCorrelation -->
<g id="node4" class="node"><title>topo.analysis.featureresponses.ReverseCorrelation</title>
<polygon fill="none" stroke="black" stroke-width="0.5" points="1146,-248.5 886,-248.5 886,-227.5 1146,-227.5 1146,-248.5"/>
<text text-anchor="middle" x="1016" y="-235.5" font-family="Vera" font-size="10.00">topo.analysis.featureresponses.ReverseCorrelation</text>
</g>
<!-- topo.analysis.featureresponses.FeatureResponses -->
<g id="node5" class="node"><title>topo.analysis.featureresponses.FeatureResponses</title>
<polygon fill="none" stroke="black" stroke-width="0.5" points="801,-210.5 545,-210.5 545,-189.5 801,-189.5 801,-210.5"/>
<text text-anchor="middle" x="673" y="-197.5" font-family="Vera" font-size="10.00">topo.analysis.featureresponses.FeatureResponses</text>
</g>
<!-- topo.analysis.featureresponses.FeatureResponses&#45;&gt;topo.analysis.featureresponses.ReverseCorrelation -->
<g id="edge4" class="edge"><title>topo.analysis.featureresponses.FeatureResponses&#45;&gt;topo.analysis.featureresponses.ReverseCorrelation</title>
<path fill="none" stroke="black" stroke-width="0.5" d="M763.568,-210.034C811.924,-215.391 871.418,-221.982 920.5,-227.42"/>
<polygon fill="black" stroke="black" points="920.357,-229.165 925.52,-227.976 920.743,-225.686 920.357,-229.165"/>
</g>
<!-- topo.analysis.featureresponses.FeatureMaps -->
<g id="node10" class="node"><title>topo.analysis.featureresponses.FeatureMaps</title>
<polygon fill="none" stroke="black" stroke-width="0.5" points="1131,-210.5 901,-210.5 901,-189.5 1131,-189.5 1131,-210.5"/>
<text text-anchor="middle" x="1016" y="-197.5" font-family="Vera" font-size="10.00">topo.analysis.featureresponses.FeatureMaps</text>
</g>
<!-- topo.analysis.featureresponses.FeatureResponses&#45;&gt;topo.analysis.featureresponses.FeatureMaps -->
<g id="edge8" class="edge"><title>topo.analysis.featureresponses.FeatureResponses&#45;&gt;topo.analysis.featureresponses.FeatureMaps</title>
<path fill="none" stroke="black" stroke-width="0.5" d="M801.696,-200C832.335,-200 864.92,-200 895.191,-200"/>
<polygon fill="black" stroke="black" points="895.42,-201.75 900.42,-200 895.42,-198.25 895.42,-201.75"/>
</g>
<!-- topo.analysis.featureresponses.FeatureCurves -->
<g id="node34" class="node"><title>topo.analysis.featureresponses.FeatureCurves</title>
<polygon fill="none" stroke="black" stroke-width="0.5" points="1135,-172.5 897,-172.5 897,-151.5 1135,-151.5 1135,-172.5"/>
<text text-anchor="middle" x="1016" y="-159.5" font-family="Vera" font-size="10.00">topo.analysis.featureresponses.FeatureCurves</text>
</g>
<!-- topo.analysis.featureresponses.FeatureResponses&#45;&gt;topo.analysis.featureresponses.FeatureCurves -->
<g id="edge34" class="edge"><title>topo.analysis.featureresponses.FeatureResponses&#45;&gt;topo.analysis.featureresponses.FeatureCurves</title>
<path fill="none" stroke="black" stroke-width="0.5" d="M763.568,-189.966C811.924,-184.609 871.418,-178.018 920.5,-172.58"/>
<polygon fill="black" stroke="black" points="920.743,-174.314 925.52,-172.024 920.357,-170.835 920.743,-174.314"/>
</g>
<!-- topo.analysis.featureresponses.FullMatrix -->
<g id="node7" class="node"><title>topo.analysis.featureresponses.FullMatrix</title>
<polygon fill="none" stroke="black" stroke-width="0.5" points="464,-248.5 250,-248.5 250,-227.5 464,-227.5 464,-248.5"/>
<text text-anchor="middle" x="357" y="-235.5" font-family="Vera" font-size="10.00">topo.analysis.featureresponses.FullMatrix</text>
</g>
<!-- param.parameterized.Parameterized -->
<g id="node8" class="node"><title>param.parameterized.Parameterized</title>
<polygon fill="none" stroke="black" stroke-width="0.5" points="194,-134.5 5.68434e-14,-134.5 0,-113.5 194,-113.5 194,-134.5"/>
<text text-anchor="middle" x="97" y="-121.5" font-family="Vera" font-size="10.00">param.parameterized.Parameterized</text>
</g>
<!-- param.parameterized.Parameterized&#45;&gt;topo.analysis.featureresponses.FullMatrix -->
<g id="edge6" class="edge"><title>param.parameterized.Parameterized&#45;&gt;topo.analysis.featureresponses.FullMatrix</title>
<path fill="none" stroke="black" stroke-width="0.5" d="M107.318,-134.077C128.386,-153.991 178.705,-198.251 230,-219 237.445,-222.012 245.31,-224.552 253.328,-226.694"/>
<polygon fill="black" stroke="black" points="253.06,-228.431 258.338,-227.976 253.929,-225.041 253.06,-228.431"/>
</g>
<!-- topo.base.functionfamily.PatternDrivenAnalysis -->
<g id="node12" class="node"><title>topo.base.functionfamily.PatternDrivenAnalysis</title>
<polygon fill="none" stroke="black" stroke-width="0.5" points="477,-210.5 237,-210.5 237,-189.5 477,-189.5 477,-210.5"/>
<text text-anchor="middle" x="357" y="-197.5" font-family="Vera" font-size="10.00">topo.base.functionfamily.PatternDrivenAnalysis</text>
</g>
<!-- param.parameterized.Parameterized&#45;&gt;topo.base.functionfamily.PatternDrivenAnalysis -->
<g id="edge10" class="edge"><title>param.parameterized.Parameterized&#45;&gt;topo.base.functionfamily.PatternDrivenAnalysis</title>
<path fill="none" stroke="black" stroke-width="0.5" d="M116.253,-134.123C141.62,-147.018 187.951,-169.059 230,-181 241.071,-184.144 252.842,-186.793 264.58,-189.018"/>
<polygon fill="black" stroke="black" points="264.372,-190.759 269.607,-189.946 265.007,-187.317 264.372,-190.759"/>
</g>
<!-- topo.analysis.featureresponses.PatternPresenter -->
<g id="node14" class="node"><title>topo.analysis.featureresponses.PatternPresenter</title>
<polygon fill="none" stroke="black" stroke-width="0.5" points="482,-172.5 232,-172.5 232,-151.5 482,-151.5 482,-172.5"/>
<text text-anchor="middle" x="357" y="-159.5" font-family="Vera" font-size="10.00">topo.analysis.featureresponses.PatternPresenter</text>
</g>
<!-- param.parameterized.Parameterized&#45;&gt;topo.analysis.featureresponses.PatternPresenter -->
<g id="edge12" class="edge"><title>param.parameterized.Parameterized&#45;&gt;topo.analysis.featureresponses.PatternPresenter</title>
<path fill="none" stroke="black" stroke-width="0.5" d="M165.652,-134.034C201.788,-139.315 246.13,-145.796 283.027,-151.189"/>
<polygon fill="black" stroke="black" points="283.214,-152.984 288.414,-151.976 283.72,-149.521 283.214,-152.984"/>
</g>
<!-- topo.analysis.featureresponses.DistributionMatrix -->
<g id="node21" class="node"><title>topo.analysis.featureresponses.DistributionMatrix</title>
<polygon fill="none" stroke="black" stroke-width="0.5" points="484,-134.5 230,-134.5 230,-113.5 484,-113.5 484,-134.5"/>
<text text-anchor="middle" x="357" y="-121.5" font-family="Vera" font-size="10.00">topo.analysis.featureresponses.DistributionMatrix</text>
</g>
<!-- param.parameterized.Parameterized&#45;&gt;topo.analysis.featureresponses.DistributionMatrix -->
<g id="edge18" class="edge"><title>param.parameterized.Parameterized&#45;&gt;topo.analysis.featureresponses.DistributionMatrix</title>
<path fill="none" stroke="black" stroke-width="0.5" d="M194.184,-124C204.224,-124 214.544,-124 224.882,-124"/>
<polygon fill="black" stroke="black" points="224.957,-125.75 229.957,-124 224.957,-122.25 224.957,-125.75"/>
</g>
<!-- param.parameterized.ParameterizedFunction -->
<g id="node24" class="node"><title>param.parameterized.ParameterizedFunction</title>
<polygon fill="none" stroke="black" stroke-width="0.5" points="474,-96.5 240,-96.5 240,-75.5 474,-75.5 474,-96.5"/>
<text text-anchor="middle" x="357" y="-83.5" font-family="Vera" font-size="10.00">param.parameterized.ParameterizedFunction</text>
</g>
<!-- param.parameterized.Parameterized&#45;&gt;param.parameterized.ParameterizedFunction -->
<g id="edge22" class="edge"><title>param.parameterized.Parameterized&#45;&gt;param.parameterized.ParameterizedFunction</title>
<path fill="none" stroke="black" stroke-width="0.5" d="M165.652,-113.966C201.788,-108.685 246.13,-102.204 283.027,-96.8115"/>
<polygon fill="black" stroke="black" points="283.72,-98.4788 288.414,-96.024 283.214,-95.0156 283.72,-98.4788"/>
</g>
<!-- topo.analysis.featureresponses.Feature -->
<g id="node26" class="node"><title>topo.analysis.featureresponses.Feature</title>
<polygon fill="none" stroke="black" stroke-width="0.5" points="460,-58.5 254,-58.5 254,-37.5 460,-37.5 460,-58.5"/>
<text text-anchor="middle" x="357" y="-45.5" font-family="Vera" font-size="10.00">topo.analysis.featureresponses.Feature</text>
</g>
<!-- param.parameterized.Parameterized&#45;&gt;topo.analysis.featureresponses.Feature -->
<g id="edge24" class="edge"><title>param.parameterized.Parameterized&#45;&gt;topo.analysis.featureresponses.Feature</title>
<path fill="none" stroke="black" stroke-width="0.5" d="M116.253,-113.877C141.62,-100.982 187.951,-78.9411 230,-67 241.071,-63.8559 252.842,-61.2072 264.58,-58.982"/>
<polygon fill="black" stroke="black" points="265.007,-60.6827 269.607,-58.054 264.372,-57.2409 265.007,-60.6827"/>
</g>
<!-- topo.analysis.featureresponses.Subplotting -->
<g id="node38" class="node"><title>topo.analysis.featureresponses.Subplotting</title>
<polygon fill="none" stroke="black" stroke-width="0.5" points="469,-20.5 245,-20.5 245,0.5 469,0.5 469,-20.5"/>
<text text-anchor="middle" x="357" y="-7.5" font-family="Vera" font-size="10.00">topo.analysis.featureresponses.Subplotting</text>
</g>
<!-- param.parameterized.Parameterized&#45;&gt;topo.analysis.featureresponses.Subplotting -->
<g id="edge38" class="edge"><title>param.parameterized.Parameterized&#45;&gt;topo.analysis.featureresponses.Subplotting</title>
<path fill="none" stroke="black" stroke-width="0.5" d="M107.318,-113.923C128.386,-94.0085 178.705,-49.7487 230,-29 237.445,-25.9885 245.31,-23.4483 253.328,-21.3064"/>
<polygon fill="black" stroke="black" points="253.929,-22.9592 258.338,-20.0236 253.06,-19.5686 253.929,-22.9592"/>
</g>
<!-- topo.base.functionfamily.PatternDrivenAnalysis&#45;&gt;topo.analysis.featureresponses.FeatureResponses -->
<g id="edge20" class="edge"><title>topo.base.functionfamily.PatternDrivenAnalysis&#45;&gt;topo.analysis.featureresponses.FeatureResponses</title>
<path fill="none" stroke="black" stroke-width="0.5" d="M477.368,-200C497.547,-200 518.595,-200 539.09,-200"/>
<polygon fill="black" stroke="black" points="539.288,-201.75 544.288,-200 539.288,-198.25 539.288,-201.75"/>
</g>
<!-- topo.analysis.featureresponses.MeasureResponseCommand -->
<g id="node18" class="node"><title>topo.analysis.featureresponses.MeasureResponseCommand</title>
<polygon fill="none" stroke="black" stroke-width="0.5" points="1169,-115.5 863,-115.5 863,-94.5 1169,-94.5 1169,-115.5"/>
<text text-anchor="middle" x="1016" y="-102.5" font-family="Vera" font-size="10.00">topo.analysis.featureresponses.MeasureResponseCommand</text>
</g>
<!-- topo.analysis.featureresponses.MeasureResponseCommand&#45;&gt;topo.analysis.featureresponses.SinusoidalMeasureResponseCommand -->
<g id="edge32" class="edge"><title>topo.analysis.featureresponses.MeasureResponseCommand&#45;&gt;topo.analysis.featureresponses.SinusoidalMeasureResponseCommand</title>
<path fill="none" stroke="black" stroke-width="0.5" d="M1113.17,-115.034C1165.15,-120.402 1229.14,-127.009 1281.86,-132.453"/>
<polygon fill="black" stroke="black" points="1281.77,-134.203 1286.93,-132.976 1282.13,-130.722 1281.77,-134.203"/>
</g>
<!-- topo.analysis.featureresponses.PositionMeasurementCommand -->
<g id="node28" class="node"><title>topo.analysis.featureresponses.PositionMeasurementCommand</title>
<polygon fill="none" stroke="black" stroke-width="0.5" points="1546,-115.5 1222,-115.5 1222,-94.5 1546,-94.5 1546,-115.5"/>
<text text-anchor="middle" x="1384" y="-102.5" font-family="Vera" font-size="10.00">topo.analysis.featureresponses.PositionMeasurementCommand</text>
</g>
<!-- topo.analysis.featureresponses.MeasureResponseCommand&#45;&gt;topo.analysis.featureresponses.PositionMeasurementCommand -->
<g id="edge26" class="edge"><title>topo.analysis.featureresponses.MeasureResponseCommand&#45;&gt;topo.analysis.featureresponses.PositionMeasurementCommand</title>
<path fill="none" stroke="black" stroke-width="0.5" d="M1169.67,-105C1185.16,-105 1200.95,-105 1216.58,-105"/>
<polygon fill="black" stroke="black" points="1216.87,-106.75 1221.87,-105 1216.87,-103.25 1216.87,-106.75"/>
</g>
<!-- topo.analysis.featureresponses.SingleInputResponseCommand -->
<g id="node31" class="node"><title>topo.analysis.featureresponses.SingleInputResponseCommand</title>
<polygon fill="none" stroke="black" stroke-width="0.5" points="1543,-77.5 1225,-77.5 1225,-56.5 1543,-56.5 1543,-77.5"/>
<text text-anchor="middle" x="1384" y="-64.5" font-family="Vera" font-size="10.00">topo.analysis.featureresponses.SingleInputResponseCommand</text>
</g>
<!-- topo.analysis.featureresponses.MeasureResponseCommand&#45;&gt;topo.analysis.featureresponses.SingleInputResponseCommand -->
<g id="edge30" class="edge"><title>topo.analysis.featureresponses.MeasureResponseCommand&#45;&gt;topo.analysis.featureresponses.SingleInputResponseCommand</title>
<path fill="none" stroke="black" stroke-width="0.5" d="M1113.17,-94.9662C1165.15,-89.5982 1229.14,-82.9912 1281.86,-77.5472"/>
<polygon fill="black" stroke="black" points="1282.13,-79.2785 1286.93,-77.024 1281.77,-75.797 1282.13,-79.2785"/>
</g>
<!-- topo.analysis.featureresponses.PatternPresentingCommand -->
<g id="node19" class="node"><title>topo.analysis.featureresponses.PatternPresentingCommand</title>
<polygon fill="none" stroke="black" stroke-width="0.5" points="825,-96.5 521,-96.5 521,-75.5 825,-75.5 825,-96.5"/>
<text text-anchor="middle" x="673" y="-83.5" font-family="Vera" font-size="10.00">topo.analysis.featureresponses.PatternPresentingCommand</text>
</g>
<!-- topo.analysis.featureresponses.PatternPresentingCommand&#45;&gt;topo.analysis.featureresponses.MeasureResponseCommand -->
<g id="edge16" class="edge"><title>topo.analysis.featureresponses.PatternPresentingCommand&#45;&gt;topo.analysis.featureresponses.MeasureResponseCommand</title>
<path fill="none" stroke="black" stroke-width="0.5" d="M825.942,-94.472C836.305,-95.046 846.759,-95.6251 857.151,-96.2008"/>
<polygon fill="black" stroke="black" points="857.158,-97.9538 862.247,-96.4831 857.352,-94.4591 857.158,-97.9538"/>
</g>
<!-- topo.analysis.featureresponses.pattern_response -->
<g id="node36" class="node"><title>topo.analysis.featureresponses.pattern_response</title>
<polygon fill="none" stroke="black" stroke-width="0.5" points="1143,-77.5 889,-77.5 889,-56.5 1143,-56.5 1143,-77.5"/>
<text text-anchor="middle" x="1016" y="-64.5" font-family="Vera" font-size="10.00">topo.analysis.featureresponses.pattern_response</text>
</g>
<!-- topo.analysis.featureresponses.PatternPresentingCommand&#45;&gt;topo.analysis.featureresponses.pattern_response -->
<g id="edge36" class="edge"><title>topo.analysis.featureresponses.PatternPresentingCommand&#45;&gt;topo.analysis.featureresponses.pattern_response</title>
<path fill="none" stroke="black" stroke-width="0.5" d="M825.942,-77.528C845.129,-76.4652 864.629,-75.385 883.468,-74.3414"/>
<polygon fill="black" stroke="black" points="883.867,-76.0721 888.763,-74.0481 883.673,-72.5774 883.867,-76.0721"/>
</g>
<!-- param.parameterized.ParameterizedFunction&#45;&gt;topo.analysis.featureresponses.PatternPresentingCommand -->
<g id="edge28" class="edge"><title>param.parameterized.ParameterizedFunction&#45;&gt;topo.analysis.featureresponses.PatternPresentingCommand</title>
<path fill="none" stroke="black" stroke-width="0.5" d="M474.218,-86C487.593,-86 501.386,-86 515.178,-86"/>
<polygon fill="black" stroke="black" points="515.259,-87.7501 520.259,-86 515.259,-84.2501 515.259,-87.7501"/>
</g>
</g>
</svg>
