<?xml version="1.0" encoding="UTF-8" standalone="no"?>
<!DOCTYPE svg PUBLIC "-//W3C//DTD SVG 1.1//EN"
 "http://www.w3.org/Graphics/SVG/1.1/DTD/svg11.dtd">
<!-- Generated by graphviz version 2.26.3 (20100126.1600)
 -->
<!-- Title: inheritance40f68afc84 Pages: 1 -->
<svg width="934pt" height="85pt"
 viewBox="0.00 0.00 934.00 85.00" xmlns="http://www.w3.org/2000/svg" xmlns:xlink="http://www.w3.org/1999/xlink">
<g id="graph1" class="graph" transform="scale(1 1) rotate(0) translate(4 81)">
<title>inheritance40f68afc84</title>
<polygon fill="white" stroke="white" points="-4,5 -4,-81 931,-81 931,5 -4,5"/>
<!-- lancet.dynamic.DynamicArgs -->
<g id="node1" class="node"><title>lancet.dynamic.DynamicArgs</title>
<polygon fill="none" stroke="black" stroke-width="0.5" points="636,-58.5 480,-58.5 480,-37.5 636,-37.5 636,-58.5"/>
<text text-anchor="middle" x="558" y="-45.5" font-family="Vera" font-size="10.00">lancet.dynamic.DynamicArgs</text>
</g>
<!-- lancet.dynamic.DynamicConcatenate -->
<g id="node4" class="node"><title>lancet.dynamic.DynamicConcatenate</title>
<polygon fill="none" stroke="black" stroke-width="0.5" points="915,-77.5 719,-77.5 719,-56.5 915,-56.5 915,-77.5"/>
<text text-anchor="middle" x="817" y="-64.5" font-family="Vera" font-size="10.00">lancet.dynamic.DynamicConcatenate</text>
</g>
<!-- lancet.dynamic.DynamicArgs&#45;&gt;lancet.dynamic.DynamicConcatenate -->
<g id="edge4" class="edge"><title>lancet.dynamic.DynamicArgs&#45;&gt;lancet.dynamic.DynamicConcatenate</title>
<path fill="none" stroke="black" stroke-width="0.5" d="M636.06,-53.7264C660.496,-55.519 687.851,-57.5257 713.744,-59.4253"/>
<polygon fill="black" stroke="black" points="713.788,-61.183 718.902,-59.8036 714.044,-57.6924 713.788,-61.183"/>
</g>
<!-- lancet.dynamic.DynamicCartesianProduct -->
<g id="node13" class="node"><title>lancet.dynamic.DynamicCartesianProduct</title>
<polygon fill="none" stroke="black" stroke-width="0.5" points="925,-39.5 709,-39.5 709,-18.5 925,-18.5 925,-39.5"/>
<text text-anchor="middle" x="817" y="-26.5" font-family="Vera" font-size="10.00">lancet.dynamic.DynamicCartesianProduct</text>
</g>
<!-- lancet.dynamic.DynamicArgs&#45;&gt;lancet.dynamic.DynamicCartesianProduct -->
<g id="edge12" class="edge"><title>lancet.dynamic.DynamicArgs&#45;&gt;lancet.dynamic.DynamicCartesianProduct</title>
<path fill="none" stroke="black" stroke-width="0.5" d="M636.06,-42.2736C657.246,-40.7194 680.626,-39.0043 703.346,-37.3376"/>
<polygon fill="black" stroke="black" points="703.629,-39.0716 708.488,-36.9604 703.373,-35.5809 703.629,-39.0716"/>
</g>
<!-- lancet.core.BaseArgs -->
<g id="node2" class="node"><title>lancet.core.BaseArgs</title>
<polygon fill="none" stroke="black" stroke-width="0.5" points="378,-58.5 260,-58.5 260,-37.5 378,-37.5 378,-58.5"/>
<text text-anchor="middle" x="319" y="-45.5" font-family="Vera" font-size="10.00">lancet.core.BaseArgs</text>
</g>
<!-- lancet.core.BaseArgs&#45;&gt;lancet.dynamic.DynamicArgs -->
<g id="edge2" class="edge"><title>lancet.core.BaseArgs&#45;&gt;lancet.dynamic.DynamicArgs</title>
<path fill="none" stroke="black" stroke-width="0.5" d="M378.693,-48C407.698,-48 443.035,-48 474.647,-48"/>
<polygon fill="black" stroke="black" points="474.687,-49.7501 479.687,-48 474.687,-46.2501 474.687,-49.7501"/>
</g>
<!-- lancet.dynamic.DynamicCommandTemplate -->
<g id="node6" class="node"><title>lancet.dynamic.DynamicCommandTemplate</title>
<polygon fill="none" stroke="black" stroke-width="0.5" points="672,-20.5 444,-20.5 444,0.5 672,0.5 672,-20.5"/>
<text text-anchor="middle" x="558" y="-7.5" font-family="Vera" font-size="10.00">lancet.dynamic.DynamicCommandTemplate</text>
</g>
<!-- lancet.launch.CommandTemplate -->
<g id="node7" class="node"><title>lancet.launch.CommandTemplate</title>
<polygon fill="none" stroke="black" stroke-width="0.5" points="407,-20.5 231,-20.5 231,0.5 407,0.5 407,-20.5"/>
<text text-anchor="middle" x="319" y="-7.5" font-family="Vera" font-size="10.00">lancet.launch.CommandTemplate</text>
</g>
<!-- lancet.launch.CommandTemplate&#45;&gt;lancet.dynamic.DynamicCommandTemplate -->
<g id="edge6" class="edge"><title>lancet.launch.CommandTemplate&#45;&gt;lancet.dynamic.DynamicCommandTemplate</title>
<path fill="none" stroke="black" stroke-width="0.5" d="M407.655,-10C417.816,-10 428.296,-10 438.773,-10"/>
<polygon fill="black" stroke="black" points="438.915,-11.7501 443.915,-10 438.915,-8.2501 438.915,-11.7501"/>
</g>
<!-- lancet.core.PrettyPrinted -->
<g id="node9" class="node"><title>lancet.core.PrettyPrinted</title>
<polygon fill="none" stroke="black" stroke-width="0.5" points="164,-58.5 30,-58.5 30,-37.5 164,-37.5 164,-58.5"/>
<text text-anchor="middle" x="97" y="-45.5" font-family="Vera" font-size="10.00">lancet.core.PrettyPrinted</text>
</g>
<!-- lancet.core.PrettyPrinted&#45;&gt;lancet.core.BaseArgs -->
<g id="edge8" class="edge"><title>lancet.core.PrettyPrinted&#45;&gt;lancet.core.BaseArgs</title>
<path fill="none" stroke="black" stroke-width="0.5" d="M164.512,-48C192.973,-48 225.966,-48 254.136,-48"/>
<polygon fill="black" stroke="black" points="254.338,-49.7501 259.338,-48 254.338,-46.2501 254.338,-49.7501"/>
</g>
<!-- lancet.core.PrettyPrinted&#45;&gt;lancet.launch.CommandTemplate -->
<g id="edge14" class="edge"><title>lancet.core.PrettyPrinted&#45;&gt;lancet.launch.CommandTemplate</title>
<path fill="none" stroke="black" stroke-width="0.5" d="M155.618,-37.9662C186.347,-32.7064 224.024,-26.2571 255.45,-20.8779"/>
<polygon fill="black" stroke="black" points="255.805,-22.5926 260.438,-20.024 255.215,-19.1428 255.805,-22.5926"/>
</g>
<!-- param.parameterized.Parameterized -->
<g id="node11" class="node"><title>param.parameterized.Parameterized</title>
<polygon fill="none" stroke="black" stroke-width="0.5" points="194,-20.5 5.68434e-14,-20.5 0,0.5 194,0.5 194,-20.5"/>
<text text-anchor="middle" x="97" y="-7.5" font-family="Vera" font-size="10.00">param.parameterized.Parameterized</text>
</g>
<!-- param.parameterized.Parameterized&#45;&gt;lancet.core.BaseArgs -->
<g id="edge10" class="edge"><title>param.parameterized.Parameterized&#45;&gt;lancet.core.BaseArgs</title>
<path fill="none" stroke="black" stroke-width="0.5" d="M155.618,-20.0338C186.347,-25.2936 224.024,-31.7429 255.45,-37.1221"/>
<polygon fill="black" stroke="black" points="255.215,-38.8572 260.438,-37.976 255.805,-35.4074 255.215,-38.8572"/>
</g>
<!-- param.parameterized.Parameterized&#45;&gt;lancet.launch.CommandTemplate -->
<g id="edge16" class="edge"><title>param.parameterized.Parameterized&#45;&gt;lancet.launch.CommandTemplate</title>
<path fill="none" stroke="black" stroke-width="0.5" d="M194.049,-10C204.377,-10 214.868,-10 225.158,-10"/>
<polygon fill="black" stroke="black" points="225.191,-11.7501 230.191,-10 225.191,-8.2501 225.191,-11.7501"/>
</g>
</g>
</svg>
