<?xml version="1.0" encoding="UTF-8" standalone="no"?>
<!DOCTYPE svg PUBLIC "-//W3C//DTD SVG 1.1//EN"
 "http://www.w3.org/Graphics/SVG/1.1/DTD/svg11.dtd">
<!-- Generated by graphviz version 2.26.3 (20100126.1600)
 -->
<!-- Title: inheritance1d39487c30 Pages: 1 -->
<svg width="1064pt" height="293pt"
 viewBox="0.00 0.00 1064.00 293.00" xmlns="http://www.w3.org/2000/svg" xmlns:xlink="http://www.w3.org/1999/xlink">
<g id="graph1" class="graph" transform="scale(1 1) rotate(0) translate(4 289)">
<title>inheritance1d39487c30</title>
<polygon fill="white" stroke="white" points="-4,5 -4,-289 1061,-289 1061,5 -4,5"/>
<!-- Tkinter.Misc -->
<g id="node1" class="node"><title>Tkinter.Misc</title>
<polygon fill="none" stroke="black" stroke-width="0.5" points="133,-162.5 61,-162.5 61,-141.5 133,-141.5 133,-162.5"/>
<text text-anchor="middle" x="97" y="-149.5" font-family="Vera" font-size="10.00">Tkinter.Misc</text>
</g>
<!-- Tkinter.BaseWidget -->
<g id="node26" class="node"><title>Tkinter.BaseWidget</title>
<polygon fill="none" stroke="black" stroke-width="0.5" points="373,-162.5 267,-162.5 267,-141.5 373,-141.5 373,-162.5"/>
<text text-anchor="middle" x="320" y="-149.5" font-family="Vera" font-size="10.00">Tkinter.BaseWidget</text>
</g>
<!-- Tkinter.Misc&#45;&gt;Tkinter.BaseWidget -->
<g id="edge18" class="edge"><title>Tkinter.Misc&#45;&gt;Tkinter.BaseWidget</title>
<path fill="none" stroke="black" stroke-width="0.5" d="M133.325,-152C167.814,-152 220.266,-152 260.798,-152"/>
<polygon fill="black" stroke="black" points="261.182,-153.75 266.182,-152 261.182,-150.25 261.182,-153.75"/>
</g>
<!-- topo.tkgui.editor.EditorObject -->
<g id="node2" class="node"><title>topo.tkgui.editor.EditorObject</title>
<polygon fill="none" stroke="black" stroke-width="0.5" points="175,-219.5 19,-219.5 19,-198.5 175,-198.5 175,-219.5"/>
<text text-anchor="middle" x="97" y="-206.5" font-family="Vera" font-size="10.00">topo.tkgui.editor.EditorObject</text>
</g>
<!-- topo.tkgui.editor.EditorConnection -->
<g id="node3" class="node"><title>topo.tkgui.editor.EditorConnection</title>
<polygon fill="none" stroke="black" stroke-width="0.5" points="409,-247.5 231,-247.5 231,-226.5 409,-226.5 409,-247.5"/>
<text text-anchor="middle" x="320" y="-234.5" font-family="Vera" font-size="10.00">topo.tkgui.editor.EditorConnection</text>
</g>
<!-- topo.tkgui.editor.EditorObject&#45;&gt;topo.tkgui.editor.EditorConnection -->
<g id="edge2" class="edge"><title>topo.tkgui.editor.EditorObject&#45;&gt;topo.tkgui.editor.EditorConnection</title>
<path fill="none" stroke="black" stroke-width="0.5" d="M175.308,-218.832C194.629,-221.258 215.413,-223.868 235.033,-226.331"/>
<polygon fill="black" stroke="black" points="234.815,-228.068 239.995,-226.954 235.252,-224.595 234.815,-228.068"/>
</g>
<!-- topo.tkgui.editor.EditorNode -->
<g id="node13" class="node"><title>topo.tkgui.editor.EditorNode</title>
<polygon fill="none" stroke="black" stroke-width="0.5" points="395,-209.5 245,-209.5 245,-188.5 395,-188.5 395,-209.5"/>
<text text-anchor="middle" x="320" y="-196.5" font-family="Vera" font-size="10.00">topo.tkgui.editor.EditorNode</text>
</g>
<!-- topo.tkgui.editor.EditorObject&#45;&gt;topo.tkgui.editor.EditorNode -->
<g id="edge8" class="edge"><title>topo.tkgui.editor.EditorObject&#45;&gt;topo.tkgui.editor.EditorNode</title>
<path fill="none" stroke="black" stroke-width="0.5" d="M175.308,-205.488C195.901,-204.565 218.157,-203.567 238.894,-202.637"/>
<polygon fill="black" stroke="black" points="239.215,-204.374 244.132,-202.402 239.058,-200.878 239.215,-204.374"/>
</g>
<!-- topo.tkgui.editor.EditorEPConnection -->
<g id="node40" class="node"><title>topo.tkgui.editor.EditorEPConnection</title>
<polygon fill="none" stroke="black" stroke-width="0.5" points="637,-247.5 447,-247.5 447,-226.5 637,-226.5 637,-247.5"/>
<text text-anchor="middle" x="542" y="-234.5" font-family="Vera" font-size="10.00">topo.tkgui.editor.EditorEPConnection</text>
</g>
<!-- topo.tkgui.editor.EditorConnection&#45;&gt;topo.tkgui.editor.EditorEPConnection -->
<g id="edge40" class="edge"><title>topo.tkgui.editor.EditorConnection&#45;&gt;topo.tkgui.editor.EditorEPConnection</title>
<path fill="none" stroke="black" stroke-width="0.5" d="M409.656,-237C419.998,-237 430.596,-237 441.074,-237"/>
<polygon fill="black" stroke="black" points="441.206,-238.75 446.206,-237 441.206,-235.25 441.206,-238.75"/>
</g>
<!-- param.parameterized.Parameterized -->
<g id="node5" class="node"><title>param.parameterized.Parameterized</title>
<polygon fill="none" stroke="black" stroke-width="0.5" points="194,-285.5 5.68434e-14,-285.5 0,-264.5 194,-264.5 194,-285.5"/>
<text text-anchor="middle" x="97" y="-272.5" font-family="Vera" font-size="10.00">param.parameterized.Parameterized</text>
</g>
<!-- topo.tkgui.editor.ModelEditor -->
<g id="node19" class="node"><title>topo.tkgui.editor.ModelEditor</title>
<polygon fill="none" stroke="black" stroke-width="0.5" points="397,-285.5 243,-285.5 243,-264.5 397,-264.5 397,-285.5"/>
<text text-anchor="middle" x="320" y="-272.5" font-family="Vera" font-size="10.00">topo.tkgui.editor.ModelEditor</text>
</g>
<!-- param.parameterized.Parameterized&#45;&gt;topo.tkgui.editor.ModelEditor -->
<g id="edge14" class="edge"><title>param.parameterized.Parameterized&#45;&gt;topo.tkgui.editor.ModelEditor</title>
<path fill="none" stroke="black" stroke-width="0.5" d="M194.162,-275C208.692,-275 223.553,-275 237.735,-275"/>
<polygon fill="black" stroke="black" points="237.927,-276.75 242.927,-275 237.927,-273.25 237.927,-276.75"/>
</g>
<!-- Tkinter.XView -->
<g id="node6" class="node"><title>Tkinter.XView</title>
<polygon fill="none" stroke="black" stroke-width="0.5" points="581,-58.5 503,-58.5 503,-37.5 581,-37.5 581,-58.5"/>
<text text-anchor="middle" x="542" y="-45.5" font-family="Vera" font-size="10.00">Tkinter.XView</text>
</g>
<!-- Tkinter.Canvas -->
<g id="node35" class="node"><title>Tkinter.Canvas</title>
<polygon fill="none" stroke="black" stroke-width="0.5" points="804,-39.5 718,-39.5 718,-18.5 804,-18.5 804,-39.5"/>
<text text-anchor="middle" x="761" y="-26.5" font-family="Vera" font-size="10.00">Tkinter.Canvas</text>
</g>
<!-- Tkinter.XView&#45;&gt;Tkinter.Canvas -->
<g id="edge32" class="edge"><title>Tkinter.XView&#45;&gt;Tkinter.Canvas</title>
<path fill="none" stroke="black" stroke-width="0.5" d="M581.659,-44.5592C618.464,-41.3661 673.336,-36.6055 712.685,-33.1917"/>
<polygon fill="black" stroke="black" points="713.058,-34.916 717.888,-32.7403 712.755,-31.4291 713.058,-34.916"/>
</g>
<!-- Tkinter.YView -->
<g id="node7" class="node"><title>Tkinter.YView</title>
<polygon fill="none" stroke="black" stroke-width="0.5" points="581,-20.5 503,-20.5 503,0.5 581,0.5 581,-20.5"/>
<text text-anchor="middle" x="542" y="-7.5" font-family="Vera" font-size="10.00">Tkinter.YView</text>
</g>
<!-- Tkinter.YView&#45;&gt;Tkinter.Canvas -->
<g id="edge34" class="edge"><title>Tkinter.YView&#45;&gt;Tkinter.Canvas</title>
<path fill="none" stroke="black" stroke-width="0.5" d="M581.153,-13.3968C617.889,-16.584 672.945,-21.3605 712.458,-24.7886"/>
<polygon fill="black" stroke="black" points="712.551,-26.5532 717.684,-25.242 712.854,-23.0663 712.551,-26.5532"/>
</g>
<!-- topo.tkgui.editor.ParametersTool -->
<g id="node8" class="node"><title>topo.tkgui.editor.ParametersTool</title>
<polygon fill="none" stroke="black" stroke-width="0.5" points="1055,-186.5 885,-186.5 885,-165.5 1055,-165.5 1055,-186.5"/>
<text text-anchor="middle" x="970" y="-173.5" font-family="Vera" font-size="10.00">topo.tkgui.editor.ParametersTool</text>
</g>
<!-- Tkinter.Frame -->
<g id="node9" class="node"><title>Tkinter.Frame</title>
<polygon fill="none" stroke="black" stroke-width="0.5" points="801,-110.5 721,-110.5 721,-89.5 801,-89.5 801,-110.5"/>
<text text-anchor="middle" x="761" y="-97.5" font-family="Vera" font-size="10.00">Tkinter.Frame</text>
</g>
<!-- Tkinter.Frame&#45;&gt;topo.tkgui.editor.ParametersTool -->
<g id="edge4" class="edge"><title>Tkinter.Frame&#45;&gt;topo.tkgui.editor.ParametersTool</title>
<path fill="none" stroke="black" stroke-width="0.5" d="M779.65,-110.2C803.307,-122.769 845.647,-144.047 884,-157 892.556,-159.89 901.742,-162.457 910.811,-164.698"/>
<polygon fill="black" stroke="black" points="910.562,-166.438 915.833,-165.909 911.383,-163.035 910.562,-166.438"/>
</g>
<!-- topo.tkgui.editor.ArrowTool -->
<g id="node11" class="node"><title>topo.tkgui.editor.ArrowTool</title>
<polygon fill="none" stroke="black" stroke-width="0.5" points="1041,-148.5 899,-148.5 899,-127.5 1041,-127.5 1041,-148.5"/>
<text text-anchor="middle" x="970" y="-135.5" font-family="Vera" font-size="10.00">topo.tkgui.editor.ArrowTool</text>
</g>
<!-- Tkinter.Frame&#45;&gt;topo.tkgui.editor.ArrowTool -->
<g id="edge6" class="edge"><title>Tkinter.Frame&#45;&gt;topo.tkgui.editor.ArrowTool</title>
<path fill="none" stroke="black" stroke-width="0.5" d="M801.793,-107.417C832.478,-112.996 875.012,-120.729 909.631,-127.024"/>
<polygon fill="black" stroke="black" points="909.446,-128.769 914.679,-127.942 910.072,-125.325 909.446,-128.769"/>
</g>
<!-- topo.tkgui.editor.NodeTool -->
<g id="node15" class="node"><title>topo.tkgui.editor.NodeTool</title>
<polygon fill="none" stroke="black" stroke-width="0.5" points="1040,-110.5 900,-110.5 900,-89.5 1040,-89.5 1040,-110.5"/>
<text text-anchor="middle" x="970" y="-97.5" font-family="Vera" font-size="10.00">topo.tkgui.editor.NodeTool</text>
</g>
<!-- Tkinter.Frame&#45;&gt;topo.tkgui.editor.NodeTool -->
<g id="edge10" class="edge"><title>Tkinter.Frame&#45;&gt;topo.tkgui.editor.NodeTool</title>
<path fill="none" stroke="black" stroke-width="0.5" d="M801.793,-100C827.959,-100 862.741,-100 893.884,-100"/>
<polygon fill="black" stroke="black" points="894.25,-101.75 899.25,-100 894.25,-98.2501 894.25,-101.75"/>
</g>
<!-- topo.tkgui.editor.ConnectionTool -->
<g id="node17" class="node"><title>topo.tkgui.editor.ConnectionTool</title>
<polygon fill="none" stroke="black" stroke-width="0.5" points="1055,-72.5 885,-72.5 885,-51.5 1055,-51.5 1055,-72.5"/>
<text text-anchor="middle" x="970" y="-59.5" font-family="Vera" font-size="10.00">topo.tkgui.editor.ConnectionTool</text>
</g>
<!-- Tkinter.Frame&#45;&gt;topo.tkgui.editor.ConnectionTool -->
<g id="edge12" class="edge"><title>Tkinter.Frame&#45;&gt;topo.tkgui.editor.ConnectionTool</title>
<path fill="none" stroke="black" stroke-width="0.5" d="M801.793,-92.583C832.478,-87.0041 875.012,-79.2705 909.631,-72.9762"/>
<polygon fill="black" stroke="black" points="910.072,-74.6747 914.679,-72.0584 909.446,-71.2312 910.072,-74.6747"/>
</g>
<!-- topo.tkgui.editor.EditorEP -->
<g id="node24" class="node"><title>topo.tkgui.editor.EditorEP</title>
<polygon fill="none" stroke="black" stroke-width="0.5" points="610,-209.5 474,-209.5 474,-188.5 610,-188.5 610,-209.5"/>
<text text-anchor="middle" x="542" y="-196.5" font-family="Vera" font-size="10.00">topo.tkgui.editor.EditorEP</text>
</g>
<!-- topo.tkgui.editor.EditorNode&#45;&gt;topo.tkgui.editor.EditorEP -->
<g id="edge16" class="edge"><title>topo.tkgui.editor.EditorNode&#45;&gt;topo.tkgui.editor.EditorEP</title>
<path fill="none" stroke="black" stroke-width="0.5" d="M395.779,-199C419.134,-199 444.811,-199 468.042,-199"/>
<polygon fill="black" stroke="black" points="468.269,-200.75 473.269,-199 468.269,-197.25 468.269,-200.75"/>
</g>
<!-- Tkinter.Pack -->
<g id="node21" class="node"><title>Tkinter.Pack</title>
<polygon fill="none" stroke="black" stroke-width="0.5" points="356,-124.5 284,-124.5 284,-103.5 356,-103.5 356,-124.5"/>
<text text-anchor="middle" x="320" y="-111.5" font-family="Vera" font-size="10.00">Tkinter.Pack</text>
</g>
<!-- Tkinter.Widget -->
<g id="node28" class="node"><title>Tkinter.Widget</title>
<polygon fill="none" stroke="black" stroke-width="0.5" points="583,-105.5 501,-105.5 501,-84.5 583,-84.5 583,-105.5"/>
<text text-anchor="middle" x="542" y="-92.5" font-family="Vera" font-size="10.00">Tkinter.Widget</text>
</g>
<!-- Tkinter.Pack&#45;&gt;Tkinter.Widget -->
<g id="edge22" class="edge"><title>Tkinter.Pack&#45;&gt;Tkinter.Widget</title>
<path fill="none" stroke="black" stroke-width="0.5" d="M356.659,-110.863C394.569,-107.618 453.892,-102.541 495.175,-99.0076"/>
<polygon fill="black" stroke="black" points="495.537,-100.733 500.37,-98.563 495.239,-97.2458 495.537,-100.733"/>
</g>
<!-- Tkinter.Place -->
<g id="node22" class="node"><title>Tkinter.Place</title>
<polygon fill="none" stroke="black" stroke-width="0.5" points="358,-86.5 282,-86.5 282,-65.5 358,-65.5 358,-86.5"/>
<text text-anchor="middle" x="320" y="-73.5" font-family="Vera" font-size="10.00">Tkinter.Place</text>
</g>
<!-- Tkinter.Place&#45;&gt;Tkinter.Widget -->
<g id="edge24" class="edge"><title>Tkinter.Place&#45;&gt;Tkinter.Widget</title>
<path fill="none" stroke="black" stroke-width="0.5" d="M358.669,-79.3095C396.595,-82.5554 454.475,-87.5091 495.028,-90.9799"/>
<polygon fill="black" stroke="black" points="495.251,-92.7553 500.382,-91.4381 495.549,-89.268 495.251,-92.7553"/>
</g>
<!-- Tkinter.Grid -->
<g id="node23" class="node"><title>Tkinter.Grid</title>
<polygon fill="none" stroke="black" stroke-width="0.5" points="355,-48.5 285,-48.5 285,-27.5 355,-27.5 355,-48.5"/>
<text text-anchor="middle" x="320" y="-35.5" font-family="Vera" font-size="10.00">Tkinter.Grid</text>
</g>
<!-- Tkinter.Grid&#45;&gt;Tkinter.Widget -->
<g id="edge26" class="edge"><title>Tkinter.Grid&#45;&gt;Tkinter.Widget</title>
<path fill="none" stroke="black" stroke-width="0.5" d="M355.614,-44.9017C372.208,-48.2751 392.18,-52.5602 410,-57 419.098,-59.2667 466.833,-73.0892 502.301,-83.4141"/>
<polygon fill="black" stroke="black" points="502.149,-85.1925 507.438,-84.9103 503.127,-81.8321 502.149,-85.1925"/>
</g>
<!-- topo.tkgui.editor.EditorSheet -->
<g id="node33" class="node"><title>topo.tkgui.editor.EditorSheet</title>
<polygon fill="none" stroke="black" stroke-width="0.5" points="838,-209.5 684,-209.5 684,-188.5 838,-188.5 838,-209.5"/>
<text text-anchor="middle" x="761" y="-196.5" font-family="Vera" font-size="10.00">topo.tkgui.editor.EditorSheet</text>
</g>
<!-- topo.tkgui.editor.EditorEP&#45;&gt;topo.tkgui.editor.EditorSheet -->
<g id="edge28" class="edge"><title>topo.tkgui.editor.EditorEP&#45;&gt;topo.tkgui.editor.EditorSheet</title>
<path fill="none" stroke="black" stroke-width="0.5" d="M610.692,-199C632.267,-199 656.308,-199 678.724,-199"/>
<polygon fill="black" stroke="black" points="678.78,-200.75 683.78,-199 678.78,-197.25 678.78,-200.75"/>
</g>
<!-- Tkinter.BaseWidget&#45;&gt;Tkinter.Widget -->
<g id="edge20" class="edge"><title>Tkinter.BaseWidget&#45;&gt;Tkinter.Widget</title>
<path fill="none" stroke="black" stroke-width="0.5" d="M370.603,-141.987C383.493,-139.253 397.294,-136.166 410,-133 442.24,-124.967 478.487,-114.422 504.829,-106.479"/>
<polygon fill="black" stroke="black" points="505.349,-108.15 509.629,-105.027 504.336,-104.8 505.349,-108.15"/>
</g>
<!-- Tkinter.Widget&#45;&gt;Tkinter.Frame -->
<g id="edge38" class="edge"><title>Tkinter.Widget&#45;&gt;Tkinter.Frame</title>
<path fill="none" stroke="black" stroke-width="0.5" d="M583.708,-95.9522C621.239,-96.8091 676.289,-98.066 715.067,-98.9513"/>
<polygon fill="black" stroke="black" points="715.15,-100.704 720.189,-99.0682 715.23,-97.2045 715.15,-100.704"/>
</g>
<!-- Tkinter.Widget&#45;&gt;Tkinter.Canvas -->
<g id="edge30" class="edge"><title>Tkinter.Widget&#45;&gt;Tkinter.Canvas</title>
<path fill="none" stroke="black" stroke-width="0.5" d="M577.148,-84.893C595.334,-79.6273 617.881,-73.0415 638,-67 666.877,-58.3286 699.476,-48.2438 723.856,-40.6433"/>
<polygon fill="black" stroke="black" points="724.677,-42.2204 728.929,-39.0606 723.635,-38.8792 724.677,-42.2204"/>
</g>
<!-- topo.tkgui.editor.EditorCanvas -->
<g id="node44" class="node"><title>topo.tkgui.editor.EditorCanvas</title>
<polygon fill="none" stroke="black" stroke-width="0.5" points="1050,-34.5 890,-34.5 890,-13.5 1050,-13.5 1050,-34.5"/>
<text text-anchor="middle" x="970" y="-21.5" font-family="Vera" font-size="10.00">topo.tkgui.editor.EditorCanvas</text>
</g>
<!-- Tkinter.Canvas&#45;&gt;topo.tkgui.editor.EditorCanvas -->
<g id="edge42" class="edge"><title>Tkinter.Canvas&#45;&gt;topo.tkgui.editor.EditorCanvas</title>
<path fill="none" stroke="black" stroke-width="0.5" d="M804.052,-27.9701C827.225,-27.4157 856.652,-26.7117 884.27,-26.051"/>
<polygon fill="black" stroke="black" points="884.448,-27.7973 889.404,-25.9281 884.364,-24.2983 884.448,-27.7973"/>
</g>
<!-- topo.tkgui.editor.EditorProjection -->
<g id="node39" class="node"><title>topo.tkgui.editor.EditorProjection</title>
<polygon fill="none" stroke="black" stroke-width="0.5" points="847,-247.5 675,-247.5 675,-226.5 847,-226.5 847,-247.5"/>
<text text-anchor="middle" x="761" y="-234.5" font-family="Vera" font-size="10.00">topo.tkgui.editor.EditorProjection</text>
</g>
<!-- topo.tkgui.editor.EditorEPConnection&#45;&gt;topo.tkgui.editor.EditorProjection -->
<g id="edge36" class="edge"><title>topo.tkgui.editor.EditorEPConnection&#45;&gt;topo.tkgui.editor.EditorProjection</title>
<path fill="none" stroke="black" stroke-width="0.5" d="M637.738,-237C648.223,-237 658.878,-237 669.312,-237"/>
<polygon fill="black" stroke="black" points="669.415,-238.75 674.415,-237 669.415,-235.25 669.415,-238.75"/>
</g>
</g>
</svg>
