<?xml version="1.0" encoding="UTF-8" standalone="no"?>
<!DOCTYPE svg PUBLIC "-//W3C//DTD SVG 1.1//EN"
 "http://www.w3.org/Graphics/SVG/1.1/DTD/svg11.dtd">
<!-- Generated by graphviz version 2.26.3 (20100126.1600)
 -->
<!-- Title: inheritance0f827376bc Pages: 1 -->
<svg width="2286pt" height="313pt"
 viewBox="0.00 0.00 2286.00 313.00" xmlns="http://www.w3.org/2000/svg" xmlns:xlink="http://www.w3.org/1999/xlink">
<g id="graph1" class="graph" transform="scale(1 1) rotate(0) translate(4 309)">
<title>inheritance0f827376bc</title>
<polygon fill="white" stroke="white" points="-4,5 -4,-309 2283,-309 2283,5 -4,5"/>
<!-- topo.analysis.featureresponses.FeatureCurves -->
<g id="node1" class="node"><title>topo.analysis.featureresponses.FeatureCurves</title>
<polygon fill="none" stroke="black" stroke-width="0.5" points="1595,-305.5 1357,-305.5 1357,-284.5 1595,-284.5 1595,-305.5"/>
<text text-anchor="middle" x="1476" y="-292.5" font-family="Vera" font-size="10.00">topo.analysis.featureresponses.FeatureCurves</text>
</g>
<!-- topo.analysis.featureresponses.FeatureResponses -->
<g id="node2" class="node"><title>topo.analysis.featureresponses.FeatureResponses</title>
<polygon fill="none" stroke="black" stroke-width="0.5" points="1236,-267.5 980,-267.5 980,-246.5 1236,-246.5 1236,-267.5"/>
<text text-anchor="middle" x="1108" y="-254.5" font-family="Vera" font-size="10.00">topo.analysis.featureresponses.FeatureResponses</text>
</g>
<!-- topo.analysis.featureresponses.FeatureResponses&#45;&gt;topo.analysis.featureresponses.FeatureCurves -->
<g id="edge2" class="edge"><title>topo.analysis.featureresponses.FeatureResponses&#45;&gt;topo.analysis.featureresponses.FeatureCurves</title>
<path fill="none" stroke="black" stroke-width="0.5" d="M1205.17,-267.034C1257.15,-272.402 1321.14,-279.009 1373.86,-284.453"/>
<polygon fill="black" stroke="black" points="1373.77,-286.203 1378.93,-284.976 1374.13,-282.722 1373.77,-286.203"/>
</g>
<!-- topo.analysis.featureresponses.FeatureMaps -->
<g id="node7" class="node"><title>topo.analysis.featureresponses.FeatureMaps</title>
<polygon fill="none" stroke="black" stroke-width="0.5" points="1591,-267.5 1361,-267.5 1361,-246.5 1591,-246.5 1591,-267.5"/>
<text text-anchor="middle" x="1476" y="-254.5" font-family="Vera" font-size="10.00">topo.analysis.featureresponses.FeatureMaps</text>
</g>
<!-- topo.analysis.featureresponses.FeatureResponses&#45;&gt;topo.analysis.featureresponses.FeatureMaps -->
<g id="edge6" class="edge"><title>topo.analysis.featureresponses.FeatureResponses&#45;&gt;topo.analysis.featureresponses.FeatureMaps</title>
<path fill="none" stroke="black" stroke-width="0.5" d="M1236.71,-257C1275.19,-257 1317.23,-257 1355.19,-257"/>
<polygon fill="black" stroke="black" points="1355.27,-258.75 1360.27,-257 1355.27,-255.25 1355.27,-258.75"/>
</g>
<!-- topo.analysis.featureresponses.ReverseCorrelation -->
<g id="node41" class="node"><title>topo.analysis.featureresponses.ReverseCorrelation</title>
<polygon fill="none" stroke="black" stroke-width="0.5" points="1606,-229.5 1346,-229.5 1346,-208.5 1606,-208.5 1606,-229.5"/>
<text text-anchor="middle" x="1476" y="-216.5" font-family="Vera" font-size="10.00">topo.analysis.featureresponses.ReverseCorrelation</text>
</g>
<!-- topo.analysis.featureresponses.FeatureResponses&#45;&gt;topo.analysis.featureresponses.ReverseCorrelation -->
<g id="edge38" class="edge"><title>topo.analysis.featureresponses.FeatureResponses&#45;&gt;topo.analysis.featureresponses.ReverseCorrelation</title>
<path fill="none" stroke="black" stroke-width="0.5" d="M1205.17,-246.966C1257.15,-241.598 1321.14,-234.991 1373.86,-229.547"/>
<polygon fill="black" stroke="black" points="1374.13,-231.278 1378.93,-229.024 1373.77,-227.797 1374.13,-231.278"/>
</g>
<!-- topo.analysis.featureresponses.contrast2centersurroundscale -->
<g id="node4" class="node"><title>topo.analysis.featureresponses.contrast2centersurroundscale</title>
<polygon fill="none" stroke="black" stroke-width="0.5" points="918,-305.5 604,-305.5 604,-284.5 918,-284.5 918,-305.5"/>
<text text-anchor="middle" x="761" y="-292.5" font-family="Vera" font-size="10.00">topo.analysis.featureresponses.contrast2centersurroundscale</text>
</g>
<!-- param.parameterized.ParameterizedFunction -->
<g id="node5" class="node"><title>param.parameterized.ParameterizedFunction</title>
<polygon fill="none" stroke="black" stroke-width="0.5" points="558,-172.5 324,-172.5 324,-151.5 558,-151.5 558,-172.5"/>
<text text-anchor="middle" x="441" y="-159.5" font-family="Vera" font-size="10.00">param.parameterized.ParameterizedFunction</text>
</g>
<!-- param.parameterized.ParameterizedFunction&#45;&gt;topo.analysis.featureresponses.contrast2centersurroundscale -->
<g id="edge4" class="edge"><title>param.parameterized.ParameterizedFunction&#45;&gt;topo.analysis.featureresponses.contrast2centersurroundscale</title>
<path fill="none" stroke="black" stroke-width="0.5" d="M451.361,-172.091C475.659,-195.066 539.171,-251.2 604,-276 611.751,-278.965 619.861,-281.495 628.136,-283.651"/>
<polygon fill="black" stroke="black" points="628.033,-285.429 633.308,-284.946 628.883,-282.034 628.033,-285.429"/>
</g>
<!-- topo.base.functionfamily.PatternDrivenAnalysis -->
<g id="node14" class="node"><title>topo.base.functionfamily.PatternDrivenAnalysis</title>
<polygon fill="none" stroke="black" stroke-width="0.5" points="881,-267.5 641,-267.5 641,-246.5 881,-246.5 881,-267.5"/>
<text text-anchor="middle" x="761" y="-254.5" font-family="Vera" font-size="10.00">topo.base.functionfamily.PatternDrivenAnalysis</text>
</g>
<!-- param.parameterized.ParameterizedFunction&#45;&gt;topo.base.functionfamily.PatternDrivenAnalysis -->
<g id="edge12" class="edge"><title>param.parameterized.ParameterizedFunction&#45;&gt;topo.base.functionfamily.PatternDrivenAnalysis</title>
<path fill="none" stroke="black" stroke-width="0.5" d="M457.906,-172.091C486.763,-188.799 547.86,-221.956 604,-238 615.203,-241.202 627.006,-243.864 638.903,-246.078"/>
<polygon fill="black" stroke="black" points="638.774,-247.833 644.005,-246.999 639.396,-244.388 638.774,-247.833"/>
</g>
<!-- topo.analysis.featureresponses.contrast2scale -->
<g id="node16" class="node"><title>topo.analysis.featureresponses.contrast2scale</title>
<polygon fill="none" stroke="black" stroke-width="0.5" points="881,-229.5 641,-229.5 641,-208.5 881,-208.5 881,-229.5"/>
<text text-anchor="middle" x="761" y="-216.5" font-family="Vera" font-size="10.00">topo.analysis.featureresponses.contrast2scale</text>
</g>
<!-- param.parameterized.ParameterizedFunction&#45;&gt;topo.analysis.featureresponses.contrast2scale -->
<g id="edge14" class="edge"><title>param.parameterized.ParameterizedFunction&#45;&gt;topo.analysis.featureresponses.contrast2scale</title>
<path fill="none" stroke="black" stroke-width="0.5" d="M478.637,-172.001C511.521,-180.443 560.648,-192.347 604,-200 621.794,-203.141 640.815,-205.923 659.257,-208.323"/>
<polygon fill="black" stroke="black" points="659.259,-210.087 664.441,-208.99 659.706,-206.616 659.259,-210.087"/>
</g>
<!-- topo.analysis.featureresponses.hue2rgbscale -->
<g id="node19" class="node"><title>topo.analysis.featureresponses.hue2rgbscale</title>
<polygon fill="none" stroke="black" stroke-width="0.5" points="878,-191.5 644,-191.5 644,-170.5 878,-170.5 878,-191.5"/>
<text text-anchor="middle" x="761" y="-178.5" font-family="Vera" font-size="10.00">topo.analysis.featureresponses.hue2rgbscale</text>
</g>
<!-- param.parameterized.ParameterizedFunction&#45;&gt;topo.analysis.featureresponses.hue2rgbscale -->
<g id="edge16" class="edge"><title>param.parameterized.ParameterizedFunction&#45;&gt;topo.analysis.featureresponses.hue2rgbscale</title>
<path fill="none" stroke="black" stroke-width="0.5" d="M558.339,-168.967C584.51,-170.521 612.324,-172.172 638.69,-173.738"/>
<polygon fill="black" stroke="black" points="638.848,-175.5 643.943,-174.05 639.055,-172.006 638.848,-175.5"/>
</g>
<!-- topo.analysis.featureresponses.phasedisparity2leftrightphase -->
<g id="node24" class="node"><title>topo.analysis.featureresponses.phasedisparity2leftrightphase</title>
<polygon fill="none" stroke="black" stroke-width="0.5" points="916,-153.5 606,-153.5 606,-132.5 916,-132.5 916,-153.5"/>
<text text-anchor="middle" x="761" y="-140.5" font-family="Vera" font-size="10.00">topo.analysis.featureresponses.phasedisparity2leftrightphase</text>
</g>
<!-- param.parameterized.ParameterizedFunction&#45;&gt;topo.analysis.featureresponses.phasedisparity2leftrightphase -->
<g id="edge22" class="edge"><title>param.parameterized.ParameterizedFunction&#45;&gt;topo.analysis.featureresponses.phasedisparity2leftrightphase</title>
<path fill="none" stroke="black" stroke-width="0.5" d="M558.339,-155.033C572.002,-154.222 586.112,-153.384 600.23,-152.546"/>
<polygon fill="black" stroke="black" points="600.543,-154.28 605.431,-152.237 600.336,-150.786 600.543,-154.28"/>
</g>
<!-- topo.analysis.featureresponses.PatternPresentingCommand -->
<g id="node30" class="node"><title>topo.analysis.featureresponses.PatternPresentingCommand</title>
<polygon fill="none" stroke="black" stroke-width="0.5" points="913,-115.5 609,-115.5 609,-94.5 913,-94.5 913,-115.5"/>
<text text-anchor="middle" x="761" y="-102.5" font-family="Vera" font-size="10.00">topo.analysis.featureresponses.PatternPresentingCommand</text>
</g>
<!-- param.parameterized.ParameterizedFunction&#45;&gt;topo.analysis.featureresponses.PatternPresentingCommand -->
<g id="edge42" class="edge"><title>param.parameterized.ParameterizedFunction&#45;&gt;topo.analysis.featureresponses.PatternPresentingCommand</title>
<path fill="none" stroke="black" stroke-width="0.5" d="M533.085,-151.987C544.978,-149.601 556.879,-146.649 568,-143 585.19,-137.359 586.733,-129.399 604,-124 614.112,-120.838 624.744,-118.198 635.507,-115.994"/>
<polygon fill="black" stroke="black" points="635.897,-117.701 640.461,-115.012 635.216,-114.268 635.897,-117.701"/>
</g>
<!-- topo.analysis.featureresponses.direction2translation -->
<g id="node36" class="node"><title>topo.analysis.featureresponses.direction2translation</title>
<polygon fill="none" stroke="black" stroke-width="0.5" points="895,-77.5 627,-77.5 627,-56.5 895,-56.5 895,-77.5"/>
<text text-anchor="middle" x="761" y="-64.5" font-family="Vera" font-size="10.00">topo.analysis.featureresponses.direction2translation</text>
</g>
<!-- param.parameterized.ParameterizedFunction&#45;&gt;topo.analysis.featureresponses.direction2translation -->
<g id="edge32" class="edge"><title>param.parameterized.ParameterizedFunction&#45;&gt;topo.analysis.featureresponses.direction2translation</title>
<path fill="none" stroke="black" stroke-width="0.5" d="M551.02,-151.878C556.968,-149.405 562.678,-146.471 568,-143 593.096,-126.63 578.677,-102.016 604,-86 609.64,-82.433 615.624,-79.3721 621.836,-76.7533"/>
<polygon fill="black" stroke="black" points="622.636,-78.3178 626.629,-74.8357 621.336,-75.0683 622.636,-78.3178"/>
</g>
<!-- topo.analysis.featureresponses.ocular2leftrightscale -->
<g id="node43" class="node"><title>topo.analysis.featureresponses.ocular2leftrightscale</title>
<polygon fill="none" stroke="black" stroke-width="0.5" points="894,-39.5 628,-39.5 628,-18.5 894,-18.5 894,-39.5"/>
<text text-anchor="middle" x="761" y="-26.5" font-family="Vera" font-size="10.00">topo.analysis.featureresponses.ocular2leftrightscale</text>
</g>
<!-- param.parameterized.ParameterizedFunction&#45;&gt;topo.analysis.featureresponses.ocular2leftrightscale -->
<g id="edge40" class="edge"><title>param.parameterized.ParameterizedFunction&#45;&gt;topo.analysis.featureresponses.ocular2leftrightscale</title>
<path fill="none" stroke="black" stroke-width="0.5" d="M554.301,-151.899C559.146,-149.374 563.748,-146.428 568,-143 603.151,-114.66 568.455,-75.8438 604,-48 609.883,-43.3916 616.29,-39.5483 623.043,-36.3596"/>
<polygon fill="black" stroke="black" points="623.914,-37.8872 627.771,-34.2553 622.491,-34.6896 623.914,-37.8872"/>
</g>
<!-- topo.analysis.featureresponses.FullMatrix -->
<g id="node9" class="node"><title>topo.analysis.featureresponses.FullMatrix</title>
<polygon fill="none" stroke="black" stroke-width="0.5" points="548,-134.5 334,-134.5 334,-113.5 548,-113.5 548,-134.5"/>
<text text-anchor="middle" x="441" y="-121.5" font-family="Vera" font-size="10.00">topo.analysis.featureresponses.FullMatrix</text>
</g>
<!-- param.parameterized.Parameterized -->
<g id="node10" class="node"><title>param.parameterized.Parameterized</title>
<polygon fill="none" stroke="black" stroke-width="0.5" points="236,-96.5 42,-96.5 42,-75.5 236,-75.5 236,-96.5"/>
<text text-anchor="middle" x="139" y="-83.5" font-family="Vera" font-size="10.00">param.parameterized.Parameterized</text>
</g>
<!-- param.parameterized.Parameterized&#45;&gt;param.parameterized.ParameterizedFunction -->
<g id="edge20" class="edge"><title>param.parameterized.Parameterized&#45;&gt;param.parameterized.ParameterizedFunction</title>
<path fill="none" stroke="black" stroke-width="0.5" d="M236.175,-90.703C250.698,-93.8161 265.107,-98.3834 278,-105 298.698,-115.622 293.37,-132.247 314,-143 319.329,-145.777 324.943,-148.18 330.724,-150.257"/>
<polygon fill="black" stroke="black" points="330.319,-151.968 335.616,-151.926 331.449,-148.656 330.319,-151.968"/>
</g>
<!-- param.parameterized.Parameterized&#45;&gt;topo.analysis.featureresponses.FullMatrix -->
<g id="edge8" class="edge"><title>param.parameterized.Parameterized&#45;&gt;topo.analysis.featureresponses.FullMatrix</title>
<path fill="none" stroke="black" stroke-width="0.5" d="M218.742,-96.0338C261.06,-101.358 313.065,-107.902 356.129,-113.321"/>
<polygon fill="black" stroke="black" points="356.156,-115.088 361.335,-113.976 356.593,-111.615 356.156,-115.088"/>
</g>
<!-- topo.analysis.featureresponses.DistributionMatrix -->
<g id="node12" class="node"><title>topo.analysis.featureresponses.DistributionMatrix</title>
<polygon fill="none" stroke="black" stroke-width="0.5" points="568,-96.5 314,-96.5 314,-75.5 568,-75.5 568,-96.5"/>
<text text-anchor="middle" x="441" y="-83.5" font-family="Vera" font-size="10.00">topo.analysis.featureresponses.DistributionMatrix</text>
</g>
<!-- param.parameterized.Parameterized&#45;&gt;topo.analysis.featureresponses.DistributionMatrix -->
<g id="edge10" class="edge"><title>param.parameterized.Parameterized&#45;&gt;topo.analysis.featureresponses.DistributionMatrix</title>
<path fill="none" stroke="black" stroke-width="0.5" d="M236.217,-86C259.318,-86 284.35,-86 308.722,-86"/>
<polygon fill="black" stroke="black" points="308.911,-87.7501 313.911,-86 308.911,-84.2501 308.911,-87.7501"/>
</g>
<!-- topo.analysis.featureresponses.Feature -->
<g id="node21" class="node"><title>topo.analysis.featureresponses.Feature</title>
<polygon fill="none" stroke="black" stroke-width="0.5" points="544,-58.5 338,-58.5 338,-37.5 544,-37.5 544,-58.5"/>
<text text-anchor="middle" x="441" y="-45.5" font-family="Vera" font-size="10.00">topo.analysis.featureresponses.Feature</text>
</g>
<!-- param.parameterized.Parameterized&#45;&gt;topo.analysis.featureresponses.Feature -->
<g id="edge18" class="edge"><title>param.parameterized.Parameterized&#45;&gt;topo.analysis.featureresponses.Feature</title>
<path fill="none" stroke="black" stroke-width="0.5" d="M218.742,-75.9662C261.06,-70.6415 313.065,-64.0977 356.129,-58.6791"/>
<polygon fill="black" stroke="black" points="356.593,-60.3847 361.335,-58.024 356.156,-56.912 356.593,-60.3847"/>
</g>
<!-- topo.analysis.featureresponses.Subplotting -->
<g id="node46" class="node"><title>topo.analysis.featureresponses.Subplotting</title>
<polygon fill="none" stroke="black" stroke-width="0.5" points="553,-20.5 329,-20.5 329,0.5 553,0.5 553,-20.5"/>
<text text-anchor="middle" x="441" y="-7.5" font-family="Vera" font-size="10.00">topo.analysis.featureresponses.Subplotting</text>
</g>
<!-- param.parameterized.Parameterized&#45;&gt;topo.analysis.featureresponses.Subplotting -->
<g id="edge44" class="edge"><title>param.parameterized.Parameterized&#45;&gt;topo.analysis.featureresponses.Subplotting</title>
<path fill="none" stroke="black" stroke-width="0.5" d="M165.292,-75.913C199.194,-63.2616 260.198,-41.6933 314,-29 327.238,-25.8769 341.379,-23.1632 355.24,-20.8413"/>
<polygon fill="black" stroke="black" points="355.683,-22.5421 360.333,-20.0035 355.115,-19.0885 355.683,-22.5421"/>
</g>
<!-- topo.base.functionfamily.PatternDrivenAnalysis&#45;&gt;topo.analysis.featureresponses.FeatureResponses -->
<g id="edge30" class="edge"><title>topo.base.functionfamily.PatternDrivenAnalysis&#45;&gt;topo.analysis.featureresponses.FeatureResponses</title>
<path fill="none" stroke="black" stroke-width="0.5" d="M881.39,-257C911.274,-257 943.485,-257 973.977,-257"/>
<polygon fill="black" stroke="black" points="974.251,-258.75 979.251,-257 974.251,-255.25 974.251,-258.75"/>
</g>
<!-- topo.analysis.featureresponses.MeasurementInterrupt -->
<g id="node18" class="node"><title>topo.analysis.featureresponses.MeasurementInterrupt</title>
<polygon fill="none" stroke="black" stroke-width="0.5" points="278,-134.5 1.13687e-13,-134.5 0,-113.5 278,-113.5 278,-134.5"/>
<text text-anchor="middle" x="139" y="-121.5" font-family="Vera" font-size="10.00">topo.analysis.featureresponses.MeasurementInterrupt</text>
</g>
<!-- topo.analysis.featureresponses.FeatureCurveCommand -->
<g id="node26" class="node"><title>topo.analysis.featureresponses.FeatureCurveCommand</title>
<polygon fill="none" stroke="black" stroke-width="0.5" points="1974,-125.5 1690,-125.5 1690,-104.5 1974,-104.5 1974,-125.5"/>
<text text-anchor="middle" x="1832" y="-112.5" font-family="Vera" font-size="10.00">topo.analysis.featureresponses.FeatureCurveCommand</text>
</g>
<!-- topo.analysis.featureresponses.UnitCurveCommand -->
<g id="node39" class="node"><title>topo.analysis.featureresponses.UnitCurveCommand</title>
<polygon fill="none" stroke="black" stroke-width="0.5" points="2277,-125.5 2011,-125.5 2011,-104.5 2277,-104.5 2277,-125.5"/>
<text text-anchor="middle" x="2144" y="-112.5" font-family="Vera" font-size="10.00">topo.analysis.featureresponses.UnitCurveCommand</text>
</g>
<!-- topo.analysis.featureresponses.FeatureCurveCommand&#45;&gt;topo.analysis.featureresponses.UnitCurveCommand -->
<g id="edge36" class="edge"><title>topo.analysis.featureresponses.FeatureCurveCommand&#45;&gt;topo.analysis.featureresponses.UnitCurveCommand</title>
<path fill="none" stroke="black" stroke-width="0.5" d="M1974.3,-115C1984.43,-115 1994.64,-115 2004.75,-115"/>
<polygon fill="black" stroke="black" points="2005.03,-116.75 2010.03,-115 2005.03,-113.25 2005.03,-116.75"/>
</g>
<!-- topo.analysis.featureresponses.SinusoidalMeasureResponseCommand -->
<g id="node27" class="node"><title>topo.analysis.featureresponses.SinusoidalMeasureResponseCommand</title>
<polygon fill="none" stroke="black" stroke-width="0.5" points="1654,-125.5 1298,-125.5 1298,-104.5 1654,-104.5 1654,-125.5"/>
<text text-anchor="middle" x="1476" y="-112.5" font-family="Vera" font-size="10.00">topo.analysis.featureresponses.SinusoidalMeasureResponseCommand</text>
</g>
<!-- topo.analysis.featureresponses.SinusoidalMeasureResponseCommand&#45;&gt;topo.analysis.featureresponses.FeatureCurveCommand -->
<g id="edge24" class="edge"><title>topo.analysis.featureresponses.SinusoidalMeasureResponseCommand&#45;&gt;topo.analysis.featureresponses.FeatureCurveCommand</title>
<path fill="none" stroke="black" stroke-width="0.5" d="M1654,-115C1664.21,-115 1674.43,-115 1684.51,-115"/>
<polygon fill="black" stroke="black" points="1684.76,-116.75 1689.76,-115 1684.76,-113.25 1684.76,-116.75"/>
</g>
<!-- topo.analysis.featureresponses.pattern_present -->
<g id="node29" class="node"><title>topo.analysis.featureresponses.pattern_present</title>
<polygon fill="none" stroke="black" stroke-width="0.5" points="1231,-153.5 985,-153.5 985,-132.5 1231,-132.5 1231,-153.5"/>
<text text-anchor="middle" x="1108" y="-140.5" font-family="Vera" font-size="10.00">topo.analysis.featureresponses.pattern_present</text>
</g>
<!-- topo.analysis.featureresponses.pattern_response -->
<g id="node49" class="node"><title>topo.analysis.featureresponses.pattern_response</title>
<polygon fill="none" stroke="black" stroke-width="0.5" points="1603,-163.5 1349,-163.5 1349,-142.5 1603,-142.5 1603,-163.5"/>
<text text-anchor="middle" x="1476" y="-150.5" font-family="Vera" font-size="10.00">topo.analysis.featureresponses.pattern_response</text>
</g>
<!-- topo.analysis.featureresponses.pattern_present&#45;&gt;topo.analysis.featureresponses.pattern_response -->
<g id="edge48" class="edge"><title>topo.analysis.featureresponses.pattern_present&#45;&gt;topo.analysis.featureresponses.pattern_response</title>
<path fill="none" stroke="black" stroke-width="0.5" d="M1231.56,-146.358C1267.58,-147.337 1307.08,-148.41 1343.63,-149.403"/>
<polygon fill="black" stroke="black" points="1343.95,-151.162 1349,-149.549 1344.04,-147.664 1343.95,-151.162"/>
</g>
<!-- topo.analysis.featureresponses.PatternPresentingCommand&#45;&gt;topo.analysis.featureresponses.pattern_present -->
<g id="edge26" class="edge"><title>topo.analysis.featureresponses.PatternPresentingCommand&#45;&gt;topo.analysis.featureresponses.pattern_present</title>
<path fill="none" stroke="black" stroke-width="0.5" d="M852.624,-115.034C901.544,-120.391 961.732,-126.982 1011.39,-132.42"/>
<polygon fill="black" stroke="black" points="1011.3,-134.171 1016.46,-132.976 1011.68,-130.692 1011.3,-134.171"/>
</g>
<!-- topo.analysis.featureresponses.MeasureResponseCommand -->
<g id="node33" class="node"><title>topo.analysis.featureresponses.MeasureResponseCommand</title>
<polygon fill="none" stroke="black" stroke-width="0.5" points="1261,-96.5 955,-96.5 955,-75.5 1261,-75.5 1261,-96.5"/>
<text text-anchor="middle" x="1108" y="-83.5" font-family="Vera" font-size="10.00">topo.analysis.featureresponses.MeasureResponseCommand</text>
</g>
<!-- topo.analysis.featureresponses.PatternPresentingCommand&#45;&gt;topo.analysis.featureresponses.MeasureResponseCommand -->
<g id="edge34" class="edge"><title>topo.analysis.featureresponses.PatternPresentingCommand&#45;&gt;topo.analysis.featureresponses.MeasureResponseCommand</title>
<path fill="none" stroke="black" stroke-width="0.5" d="M913.704,-96.6387C925.478,-95.994 937.381,-95.3423 949.192,-94.6955"/>
<polygon fill="black" stroke="black" points="949.351,-96.4395 954.248,-94.4187 949.16,-92.9448 949.351,-96.4395"/>
</g>
<!-- topo.analysis.featureresponses.PositionMeasurementCommand -->
<g id="node32" class="node"><title>topo.analysis.featureresponses.PositionMeasurementCommand</title>
<polygon fill="none" stroke="black" stroke-width="0.5" points="1638,-87.5 1314,-87.5 1314,-66.5 1638,-66.5 1638,-87.5"/>
<text text-anchor="middle" x="1476" y="-74.5" font-family="Vera" font-size="10.00">topo.analysis.featureresponses.PositionMeasurementCommand</text>
</g>
<!-- topo.analysis.featureresponses.MeasureResponseCommand&#45;&gt;topo.analysis.featureresponses.SinusoidalMeasureResponseCommand -->
<g id="edge46" class="edge"><title>topo.analysis.featureresponses.MeasureResponseCommand&#45;&gt;topo.analysis.featureresponses.SinusoidalMeasureResponseCommand</title>
<path fill="none" stroke="black" stroke-width="0.5" d="M1234.9,-96.0005C1270.06,-98.7713 1308.31,-101.785 1343.77,-104.58"/>
<polygon fill="black" stroke="black" points="1343.86,-106.342 1348.98,-104.99 1344.13,-102.853 1343.86,-106.342"/>
</g>
<!-- topo.analysis.featureresponses.MeasureResponseCommand&#45;&gt;topo.analysis.featureresponses.PositionMeasurementCommand -->
<g id="edge28" class="edge"><title>topo.analysis.featureresponses.MeasureResponseCommand&#45;&gt;topo.analysis.featureresponses.PositionMeasurementCommand</title>
<path fill="none" stroke="black" stroke-width="0.5" d="M1261.67,-82.2418C1277.16,-81.8629 1292.95,-81.4768 1308.58,-81.0946"/>
<polygon fill="black" stroke="black" points="1308.91,-82.837 1313.87,-80.9651 1308.83,-79.338 1308.91,-82.837"/>
</g>
<!-- topo.analysis.featureresponses.SingleInputResponseCommand -->
<g id="node51" class="node"><title>topo.analysis.featureresponses.SingleInputResponseCommand</title>
<polygon fill="none" stroke="black" stroke-width="0.5" points="1635,-49.5 1317,-49.5 1317,-28.5 1635,-28.5 1635,-49.5"/>
<text text-anchor="middle" x="1476" y="-36.5" font-family="Vera" font-size="10.00">topo.analysis.featureresponses.SingleInputResponseCommand</text>
</g>
<!-- topo.analysis.featureresponses.MeasureResponseCommand&#45;&gt;topo.analysis.featureresponses.SingleInputResponseCommand -->
<g id="edge50" class="edge"><title>topo.analysis.featureresponses.MeasureResponseCommand&#45;&gt;topo.analysis.featureresponses.SingleInputResponseCommand</title>
<path fill="none" stroke="black" stroke-width="0.5" d="M1171.68,-75.9665C1208.53,-70.3224 1255.83,-63.3561 1298,-58 1321.46,-55.0207 1346.7,-52.134 1370.58,-49.548"/>
<polygon fill="black" stroke="black" points="1370.88,-51.2767 1375.66,-49.0008 1370.5,-47.7969 1370.88,-51.2767"/>
</g>
</g>
</svg>
