<?xml version="1.0" encoding="UTF-8" standalone="no"?>
<!DOCTYPE svg PUBLIC "-//W3C//DTD SVG 1.1//EN"
 "http://www.w3.org/Graphics/SVG/1.1/DTD/svg11.dtd">
<!-- Generated by graphviz version 2.26.3 (20100126.1600)
 -->
<!-- Title: inheritanceb299c4dd19 Pages: 1 -->
<svg width="950pt" height="199pt"
 viewBox="0.00 0.00 950.00 199.00" xmlns="http://www.w3.org/2000/svg" xmlns:xlink="http://www.w3.org/1999/xlink">
<g id="graph1" class="graph" transform="scale(1 1) rotate(0) translate(4 195)">
<title>inheritanceb299c4dd19</title>
<polygon fill="white" stroke="white" points="-4,5 -4,-195 947,-195 947,5 -4,5"/>
<!-- imagen.random.RandomDotStereogram -->
<g id="node1" class="node"><title>imagen.random.RandomDotStereogram</title>
<polygon fill="none" stroke="black" stroke-width="0.5" points="701,-191.5 491,-191.5 491,-170.5 701,-170.5 701,-191.5"/>
<text text-anchor="middle" x="596" y="-178.5" font-family="Vera" font-size="10.00">imagen.random.RandomDotStereogram</text>
</g>
<!-- imagen.patterngenerator.PatternGenerator -->
<g id="node2" class="node"><title>imagen.patterngenerator.PatternGenerator</title>
<polygon fill="none" stroke="black" stroke-width="0.5" points="454,-153.5 230,-153.5 230,-132.5 454,-132.5 454,-153.5"/>
<text text-anchor="middle" x="342" y="-140.5" font-family="Vera" font-size="10.00">imagen.patterngenerator.PatternGenerator</text>
</g>
<!-- imagen.patterngenerator.PatternGenerator&#45;&gt;imagen.random.RandomDotStereogram -->
<g id="edge2" class="edge"><title>imagen.patterngenerator.PatternGenerator&#45;&gt;imagen.random.RandomDotStereogram</title>
<path fill="none" stroke="black" stroke-width="0.5" d="M409.068,-153.034C444.37,-158.315 487.689,-164.796 523.734,-170.189"/>
<polygon fill="black" stroke="black" points="523.793,-171.967 528.997,-170.976 524.311,-168.505 523.793,-171.967"/>
</g>
<!-- imagen.Composite -->
<g id="node4" class="node"><title>imagen.Composite</title>
<polygon fill="none" stroke="black" stroke-width="0.5" points="649,-153.5 543,-153.5 543,-132.5 649,-132.5 649,-153.5"/>
<text text-anchor="middle" x="596" y="-140.5" font-family="Vera" font-size="10.00">imagen.Composite</text>
</g>
<!-- imagen.patterngenerator.PatternGenerator&#45;&gt;imagen.Composite -->
<g id="edge4" class="edge"><title>imagen.patterngenerator.PatternGenerator&#45;&gt;imagen.Composite</title>
<path fill="none" stroke="black" stroke-width="0.5" d="M454.147,-143C482.808,-143 512.492,-143 537.251,-143"/>
<polygon fill="black" stroke="black" points="537.458,-144.75 542.458,-143 537.458,-141.25 537.458,-144.75"/>
</g>
<!-- imagen.random.RandomGenerator -->
<g id="node10" class="node"><title>imagen.random.RandomGenerator</title>
<polygon fill="none" stroke="black" stroke-width="0.5" points="688,-96.5 504,-96.5 504,-75.5 688,-75.5 688,-96.5"/>
<text text-anchor="middle" x="596" y="-83.5" font-family="Vera" font-size="10.00">imagen.random.RandomGenerator</text>
</g>
<!-- imagen.patterngenerator.PatternGenerator&#45;&gt;imagen.random.RandomGenerator -->
<g id="edge10" class="edge"><title>imagen.patterngenerator.PatternGenerator&#45;&gt;imagen.random.RandomGenerator</title>
<path fill="none" stroke="black" stroke-width="0.5" d="M386.825,-132.941C431.484,-122.919 499.901,-107.566 546.223,-97.1705"/>
<polygon fill="black" stroke="black" points="546.701,-98.8568 551.196,-96.0544 545.934,-95.4418 546.701,-98.8568"/>
</g>
<!-- imagen.random.GaussianCloud -->
<g id="node8" class="node"><title>imagen.random.GaussianCloud</title>
<polygon fill="none" stroke="black" stroke-width="0.5" points="923,-172.5 757,-172.5 757,-151.5 923,-151.5 923,-172.5"/>
<text text-anchor="middle" x="840" y="-159.5" font-family="Vera" font-size="10.00">imagen.random.GaussianCloud</text>
</g>
<!-- imagen.Composite&#45;&gt;imagen.random.GaussianCloud -->
<g id="edge8" class="edge"><title>imagen.Composite&#45;&gt;imagen.random.GaussianCloud</title>
<path fill="none" stroke="black" stroke-width="0.5" d="M649.547,-147.17C679.364,-149.491 717.246,-152.441 751.359,-155.098"/>
<polygon fill="black" stroke="black" points="751.243,-156.844 756.364,-155.487 751.515,-153.354 751.243,-156.844"/>
</g>
<!-- param.parameterized.Parameterized -->
<g id="node6" class="node"><title>param.parameterized.Parameterized</title>
<polygon fill="none" stroke="black" stroke-width="0.5" points="194,-153.5 5.68434e-14,-153.5 0,-132.5 194,-132.5 194,-153.5"/>
<text text-anchor="middle" x="97" y="-140.5" font-family="Vera" font-size="10.00">param.parameterized.Parameterized</text>
</g>
<!-- param.parameterized.Parameterized&#45;&gt;imagen.patterngenerator.PatternGenerator -->
<g id="edge6" class="edge"><title>param.parameterized.Parameterized&#45;&gt;imagen.patterngenerator.PatternGenerator</title>
<path fill="none" stroke="black" stroke-width="0.5" d="M194.182,-143C204.286,-143 214.629,-143 224.922,-143"/>
<polygon fill="black" stroke="black" points="224.969,-144.75 229.969,-143 224.969,-141.25 224.969,-144.75"/>
</g>
<!-- imagen.random.UniformRandomInts -->
<g id="node12" class="node"><title>imagen.random.UniformRandomInts</title>
<polygon fill="none" stroke="black" stroke-width="0.5" points="935,-134.5 745,-134.5 745,-113.5 935,-113.5 935,-134.5"/>
<text text-anchor="middle" x="840" y="-121.5" font-family="Vera" font-size="10.00">imagen.random.UniformRandomInts</text>
</g>
<!-- imagen.random.RandomGenerator&#45;&gt;imagen.random.UniformRandomInts -->
<g id="edge12" class="edge"><title>imagen.random.RandomGenerator&#45;&gt;imagen.random.UniformRandomInts</title>
<path fill="none" stroke="black" stroke-width="0.5" d="M660.427,-96.0338C694.34,-101.315 735.953,-107.796 770.579,-113.189"/>
<polygon fill="black" stroke="black" points="770.425,-114.936 775.635,-113.976 770.964,-111.477 770.425,-114.936"/>
</g>
<!-- imagen.random.GaussianRandom -->
<g id="node14" class="node"><title>imagen.random.GaussianRandom</title>
<polygon fill="none" stroke="black" stroke-width="0.5" points="930,-96.5 750,-96.5 750,-75.5 930,-75.5 930,-96.5"/>
<text text-anchor="middle" x="840" y="-83.5" font-family="Vera" font-size="10.00">imagen.random.GaussianRandom</text>
</g>
<!-- imagen.random.RandomGenerator&#45;&gt;imagen.random.GaussianRandom -->
<g id="edge14" class="edge"><title>imagen.random.RandomGenerator&#45;&gt;imagen.random.GaussianRandom</title>
<path fill="none" stroke="black" stroke-width="0.5" d="M688.594,-86C706.955,-86 726.261,-86 744.711,-86"/>
<polygon fill="black" stroke="black" points="744.89,-87.7501 749.89,-86 744.89,-84.2501 744.89,-87.7501"/>
</g>
<!-- imagen.random.BinaryUniformRandom -->
<g id="node16" class="node"><title>imagen.random.BinaryUniformRandom</title>
<polygon fill="none" stroke="black" stroke-width="0.5" points="942,-58.5 738,-58.5 738,-37.5 942,-37.5 942,-58.5"/>
<text text-anchor="middle" x="840" y="-45.5" font-family="Vera" font-size="10.00">imagen.random.BinaryUniformRandom</text>
</g>
<!-- imagen.random.RandomGenerator&#45;&gt;imagen.random.BinaryUniformRandom -->
<g id="edge16" class="edge"><title>imagen.random.RandomGenerator&#45;&gt;imagen.random.BinaryUniformRandom</title>
<path fill="none" stroke="black" stroke-width="0.5" d="M660.427,-75.9662C694.34,-70.6848 735.953,-64.204 770.579,-58.8115"/>
<polygon fill="black" stroke="black" points="770.964,-60.5227 775.635,-58.024 770.425,-57.0644 770.964,-60.5227"/>
</g>
<!-- imagen.random.UniformRandom -->
<g id="node18" class="node"><title>imagen.random.UniformRandom</title>
<polygon fill="none" stroke="black" stroke-width="0.5" points="927,-20.5 753,-20.5 753,0.5 927,0.5 927,-20.5"/>
<text text-anchor="middle" x="840" y="-7.5" font-family="Vera" font-size="10.00">imagen.random.UniformRandom</text>
</g>
<!-- imagen.random.RandomGenerator&#45;&gt;imagen.random.UniformRandom -->
<g id="edge18" class="edge"><title>imagen.random.RandomGenerator&#45;&gt;imagen.random.UniformRandom</title>
<path fill="none" stroke="black" stroke-width="0.5" d="M617.185,-75.9562C644.536,-63.3505 693.87,-41.8304 738,-29 748.35,-25.9909 759.434,-23.3505 770.343,-21.0708"/>
<polygon fill="black" stroke="black" points="770.792,-22.7652 775.34,-20.0487 770.091,-19.3362 770.792,-22.7652"/>
</g>
</g>
</svg>
