<?xml version="1.0" encoding="UTF-8" standalone="no"?>
<!DOCTYPE svg PUBLIC "-//W3C//DTD SVG 1.1//EN"
 "http://www.w3.org/Graphics/SVG/1.1/DTD/svg11.dtd">
<!-- Generated by graphviz version 2.26.3 (20100126.1600)
 -->
<!-- Title: inheritance0bce68b9cf Pages: 1 -->
<svg width="1872pt" height="398pt"
 viewBox="0.00 0.00 1872.00 398.00" xmlns="http://www.w3.org/2000/svg" xmlns:xlink="http://www.w3.org/1999/xlink">
<g id="graph1" class="graph" transform="scale(1 1) rotate(0) translate(4 394)">
<title>inheritance0bce68b9cf</title>
<polygon fill="white" stroke="white" points="-4,5 -4,-394 1869,-394 1869,5 -4,5"/>
<!-- topo.command.analysis.measure_log_frequency_preference -->
<g id="node1" class="node"><title>topo.command.analysis.measure_log_frequency_preference</title>
<polygon fill="none" stroke="black" stroke-width="0.5" points="1533,-267.5 1227,-267.5 1227,-246.5 1533,-246.5 1533,-267.5"/>
<text text-anchor="middle" x="1380" y="-254.5" font-family="Vera" font-size="10.00">topo.command.analysis.measure_log_frequency_preference</text>
</g>
<!-- topo.analysis.featureresponses.MeasureResponseCommand -->
<g id="node2" class="node"><title>topo.analysis.featureresponses.MeasureResponseCommand</title>
<polygon fill="none" stroke="black" stroke-width="0.5" points="1165,-153.5 859,-153.5 859,-132.5 1165,-132.5 1165,-153.5"/>
<text text-anchor="middle" x="1012" y="-140.5" font-family="Vera" font-size="10.00">topo.analysis.featureresponses.MeasureResponseCommand</text>
</g>
<!-- topo.analysis.featureresponses.MeasureResponseCommand&#45;&gt;topo.command.analysis.measure_log_frequency_preference -->
<g id="edge2" class="edge"><title>topo.analysis.featureresponses.MeasureResponseCommand&#45;&gt;topo.command.analysis.measure_log_frequency_preference</title>
<path fill="none" stroke="black" stroke-width="0.5" d="M1151.11,-153.083C1156.31,-155.653 1161.31,-158.608 1166,-162 1196.3,-183.886 1171.52,-216.363 1202,-238 1208.28,-242.458 1215.01,-246.232 1222.05,-249.411"/>
<polygon fill="black" stroke="black" points="1221.68,-251.158 1226.97,-251.518 1223.06,-247.941 1221.68,-251.158"/>
</g>
<!-- topo.analysis.featureresponses.SinusoidalMeasureResponseCommand -->
<g id="node8" class="node"><title>topo.analysis.featureresponses.SinusoidalMeasureResponseCommand</title>
<polygon fill="none" stroke="black" stroke-width="0.5" points="1558,-229.5 1202,-229.5 1202,-208.5 1558,-208.5 1558,-229.5"/>
<text text-anchor="middle" x="1380" y="-216.5" font-family="Vera" font-size="10.00">topo.analysis.featureresponses.SinusoidalMeasureResponseCommand</text>
</g>
<!-- topo.analysis.featureresponses.MeasureResponseCommand&#45;&gt;topo.analysis.featureresponses.SinusoidalMeasureResponseCommand -->
<g id="edge54" class="edge"><title>topo.analysis.featureresponses.MeasureResponseCommand&#45;&gt;topo.analysis.featureresponses.SinusoidalMeasureResponseCommand</title>
<path fill="none" stroke="black" stroke-width="0.5" d="M1129.83,-153.045C1142.18,-155.428 1154.43,-158.369 1166,-162 1183.26,-167.419 1184.99,-174.831 1202,-181 1235.41,-193.12 1273.83,-201.926 1306.4,-207.99"/>
<polygon fill="black" stroke="black" points="1306.34,-209.758 1311.57,-208.939 1306.97,-206.315 1306.34,-209.758"/>
</g>
<!-- topo.command.analysis.measure_latency_preference -->
<g id="node21" class="node"><title>topo.command.analysis.measure_latency_preference</title>
<polygon fill="none" stroke="black" stroke-width="0.5" points="1517,-172.5 1243,-172.5 1243,-151.5 1517,-151.5 1517,-172.5"/>
<text text-anchor="middle" x="1380" y="-159.5" font-family="Vera" font-size="10.00">topo.command.analysis.measure_latency_preference</text>
</g>
<!-- topo.analysis.featureresponses.MeasureResponseCommand&#45;&gt;topo.command.analysis.measure_latency_preference -->
<g id="edge18" class="edge"><title>topo.analysis.featureresponses.MeasureResponseCommand&#45;&gt;topo.command.analysis.measure_latency_preference</title>
<path fill="none" stroke="black" stroke-width="0.5" d="M1165.67,-150.934C1189.59,-152.169 1214.21,-153.44 1237.86,-154.661"/>
<polygon fill="black" stroke="black" points="1237.81,-156.411 1242.89,-154.921 1237.99,-152.915 1237.81,-156.411"/>
</g>
<!-- topo.analysis.featureresponses.PositionMeasurementCommand -->
<g id="node24" class="node"><title>topo.analysis.featureresponses.PositionMeasurementCommand</title>
<polygon fill="none" stroke="black" stroke-width="0.5" points="1542,-134.5 1218,-134.5 1218,-113.5 1542,-113.5 1542,-134.5"/>
<text text-anchor="middle" x="1380" y="-121.5" font-family="Vera" font-size="10.00">topo.analysis.featureresponses.PositionMeasurementCommand</text>
</g>
<!-- topo.analysis.featureresponses.MeasureResponseCommand&#45;&gt;topo.analysis.featureresponses.PositionMeasurementCommand -->
<g id="edge36" class="edge"><title>topo.analysis.featureresponses.MeasureResponseCommand&#45;&gt;topo.analysis.featureresponses.PositionMeasurementCommand</title>
<path fill="none" stroke="black" stroke-width="0.5" d="M1165.67,-135.066C1181.16,-134.266 1196.95,-133.451 1212.58,-132.644"/>
<polygon fill="black" stroke="black" points="1212.97,-134.376 1217.87,-132.371 1212.79,-130.881 1212.97,-134.376"/>
</g>
<!-- topo.command.analysis.measure_frequency_preference -->
<g id="node44" class="node"><title>topo.command.analysis.measure_frequency_preference</title>
<polygon fill="none" stroke="black" stroke-width="0.5" points="1523,-96.5 1237,-96.5 1237,-75.5 1523,-75.5 1523,-96.5"/>
<text text-anchor="middle" x="1380" y="-83.5" font-family="Vera" font-size="10.00">topo.command.analysis.measure_frequency_preference</text>
</g>
<!-- topo.analysis.featureresponses.MeasureResponseCommand&#45;&gt;topo.command.analysis.measure_frequency_preference -->
<g id="edge42" class="edge"><title>topo.analysis.featureresponses.MeasureResponseCommand&#45;&gt;topo.command.analysis.measure_frequency_preference</title>
<path fill="none" stroke="black" stroke-width="0.5" d="M1056.33,-132.944C1094.71,-124.525 1151.79,-112.685 1202,-105 1222.62,-101.844 1244.66,-99.0373 1265.97,-96.613"/>
<polygon fill="black" stroke="black" points="1266.3,-98.3364 1271.07,-96.0374 1265.91,-94.8584 1266.3,-98.3364"/>
</g>
<!-- topo.analysis.featureresponses.SingleInputResponseCommand -->
<g id="node50" class="node"><title>topo.analysis.featureresponses.SingleInputResponseCommand</title>
<polygon fill="none" stroke="black" stroke-width="0.5" points="1539,-58.5 1221,-58.5 1221,-37.5 1539,-37.5 1539,-58.5"/>
<text text-anchor="middle" x="1380" y="-45.5" font-family="Vera" font-size="10.00">topo.analysis.featureresponses.SingleInputResponseCommand</text>
</g>
<!-- topo.analysis.featureresponses.MeasureResponseCommand&#45;&gt;topo.analysis.featureresponses.SingleInputResponseCommand -->
<g id="edge48" class="edge"><title>topo.analysis.featureresponses.MeasureResponseCommand&#45;&gt;topo.analysis.featureresponses.SingleInputResponseCommand</title>
<path fill="none" stroke="black" stroke-width="0.5" d="M1031.92,-132.903C1065.86,-116.184 1137.52,-83.0127 1202,-67 1215.03,-63.7644 1228.73,-61.0797 1242.5,-58.8522"/>
<polygon fill="black" stroke="black" points="1242.91,-60.5593 1247.58,-58.0521 1242.37,-57.102 1242.91,-60.5593"/>
</g>
<!-- topo.command.analysis.log_frequency_mapper -->
<g id="node4" class="node"><title>topo.command.analysis.log_frequency_mapper</title>
<polygon fill="none" stroke="black" stroke-width="0.5" points="783,-305.5 539,-305.5 539,-284.5 783,-284.5 783,-305.5"/>
<text text-anchor="middle" x="661" y="-292.5" font-family="Vera" font-size="10.00">topo.command.analysis.log_frequency_mapper</text>
</g>
<!-- imagen.patterngenerator.PatternGenerator -->
<g id="node5" class="node"><title>imagen.patterngenerator.PatternGenerator</title>
<polygon fill="none" stroke="black" stroke-width="0.5" points="459,-248.5 235,-248.5 235,-227.5 459,-227.5 459,-248.5"/>
<text text-anchor="middle" x="347" y="-235.5" font-family="Vera" font-size="10.00">imagen.patterngenerator.PatternGenerator</text>
</g>
<!-- imagen.patterngenerator.PatternGenerator&#45;&gt;topo.command.analysis.log_frequency_mapper -->
<g id="edge4" class="edge"><title>imagen.patterngenerator.PatternGenerator&#45;&gt;topo.command.analysis.log_frequency_mapper</title>
<path fill="none" stroke="black" stroke-width="0.5" d="M381.973,-248.022C412.809,-256.537 459.074,-268.533 500,-276 517.463,-279.186 536.094,-281.955 554.257,-284.32"/>
<polygon fill="black" stroke="black" points="554.184,-286.075 559.366,-284.976 554.63,-282.603 554.184,-286.075"/>
</g>
<!-- topo.command.analysis.frequency_mapper -->
<g id="node52" class="node"><title>topo.command.analysis.frequency_mapper</title>
<polygon fill="none" stroke="black" stroke-width="0.5" points="773,-267.5 549,-267.5 549,-246.5 773,-246.5 773,-267.5"/>
<text text-anchor="middle" x="661" y="-254.5" font-family="Vera" font-size="10.00">topo.command.analysis.frequency_mapper</text>
</g>
<!-- imagen.patterngenerator.PatternGenerator&#45;&gt;topo.command.analysis.frequency_mapper -->
<g id="edge50" class="edge"><title>imagen.patterngenerator.PatternGenerator&#45;&gt;topo.command.analysis.frequency_mapper</title>
<path fill="none" stroke="black" stroke-width="0.5" d="M459.031,-244.779C486.472,-246.439 515.915,-248.221 543.6,-249.896"/>
<polygon fill="black" stroke="black" points="543.651,-251.652 548.748,-250.208 543.862,-248.159 543.651,-251.652"/>
</g>
<!-- topo.command.analysis.latency_mapper -->
<g id="node65" class="node"><title>topo.command.analysis.latency_mapper</title>
<polygon fill="none" stroke="black" stroke-width="0.5" points="767,-229.5 555,-229.5 555,-208.5 767,-208.5 767,-229.5"/>
<text text-anchor="middle" x="661" y="-216.5" font-family="Vera" font-size="10.00">topo.command.analysis.latency_mapper</text>
</g>
<!-- imagen.patterngenerator.PatternGenerator&#45;&gt;topo.command.analysis.latency_mapper -->
<g id="edge64" class="edge"><title>imagen.patterngenerator.PatternGenerator&#45;&gt;topo.command.analysis.latency_mapper</title>
<path fill="none" stroke="black" stroke-width="0.5" d="M459.031,-231.221C488.501,-229.438 520.279,-227.515 549.709,-225.734"/>
<polygon fill="black" stroke="black" points="549.907,-227.475 554.792,-225.427 549.696,-223.982 549.907,-227.475"/>
</g>
<!-- topo.command.analysis.measure_phasedisparity -->
<g id="node7" class="node"><title>topo.command.analysis.measure_phasedisparity</title>
<polygon fill="none" stroke="black" stroke-width="0.5" points="1855,-390.5 1603,-390.5 1603,-369.5 1855,-369.5 1855,-390.5"/>
<text text-anchor="middle" x="1729" y="-377.5" font-family="Vera" font-size="10.00">topo.command.analysis.measure_phasedisparity</text>
</g>
<!-- topo.analysis.featureresponses.SinusoidalMeasureResponseCommand&#45;&gt;topo.command.analysis.measure_phasedisparity -->
<g id="edge6" class="edge"><title>topo.analysis.featureresponses.SinusoidalMeasureResponseCommand&#45;&gt;topo.command.analysis.measure_phasedisparity</title>
<path fill="none" stroke="black" stroke-width="0.5" d="M1545.55,-229.138C1549.9,-231.768 1554.07,-234.711 1558,-238 1601.7,-274.529 1550.91,-323.745 1594,-361 1596.58,-363.235 1599.31,-365.278 1602.14,-367.145"/>
<polygon fill="black" stroke="black" points="1601.52,-368.812 1606.69,-369.933 1603.34,-365.828 1601.52,-368.812"/>
</g>
<!-- topo.command.analysis.measure_dr_pref -->
<g id="node19" class="node"><title>topo.command.analysis.measure_dr_pref</title>
<polygon fill="none" stroke="black" stroke-width="0.5" points="1837,-352.5 1621,-352.5 1621,-331.5 1837,-331.5 1837,-352.5"/>
<text text-anchor="middle" x="1729" y="-339.5" font-family="Vera" font-size="10.00">topo.command.analysis.measure_dr_pref</text>
</g>
<!-- topo.analysis.featureresponses.SinusoidalMeasureResponseCommand&#45;&gt;topo.command.analysis.measure_dr_pref -->
<g id="edge16" class="edge"><title>topo.analysis.featureresponses.SinusoidalMeasureResponseCommand&#45;&gt;topo.command.analysis.measure_dr_pref</title>
<path fill="none" stroke="black" stroke-width="0.5" d="M1543.83,-229.089C1548.77,-231.709 1553.51,-234.667 1558,-238 1590.95,-262.443 1561.46,-298.009 1594,-323 1600.68,-328.134 1608.12,-332.208 1615.97,-335.416"/>
<polygon fill="black" stroke="black" points="1615.61,-337.153 1620.91,-337.304 1616.86,-333.884 1615.61,-337.153"/>
</g>
<!-- topo.command.analysis.measure_second_or_pref -->
<g id="node26" class="node"><title>topo.command.analysis.measure_second_or_pref</title>
<polygon fill="none" stroke="black" stroke-width="0.5" points="1857,-314.5 1601,-314.5 1601,-293.5 1857,-293.5 1857,-314.5"/>
<text text-anchor="middle" x="1729" y="-301.5" font-family="Vera" font-size="10.00">topo.command.analysis.measure_second_or_pref</text>
</g>
<!-- topo.analysis.featureresponses.SinusoidalMeasureResponseCommand&#45;&gt;topo.command.analysis.measure_second_or_pref -->
<g id="edge22" class="edge"><title>topo.analysis.featureresponses.SinusoidalMeasureResponseCommand&#45;&gt;topo.command.analysis.measure_second_or_pref</title>
<path fill="none" stroke="black" stroke-width="0.5" d="M1538.9,-229.039C1545.5,-231.607 1551.9,-234.576 1558,-238 1580.94,-250.885 1571.28,-271.732 1594,-285 1598.52,-287.64 1603.27,-289.966 1608.17,-292.013"/>
<polygon fill="black" stroke="black" points="1607.83,-293.759 1613.12,-293.967 1609.12,-290.503 1607.83,-293.759"/>
</g>
<!-- topo.command.analysis.measure_od_pref -->
<g id="node29" class="node"><title>topo.command.analysis.measure_od_pref</title>
<polygon fill="none" stroke="black" stroke-width="0.5" points="1838,-276.5 1620,-276.5 1620,-255.5 1838,-255.5 1838,-276.5"/>
<text text-anchor="middle" x="1729" y="-263.5" font-family="Vera" font-size="10.00">topo.command.analysis.measure_od_pref</text>
</g>
<!-- topo.analysis.featureresponses.SinusoidalMeasureResponseCommand&#45;&gt;topo.command.analysis.measure_od_pref -->
<g id="edge26" class="edge"><title>topo.analysis.featureresponses.SinusoidalMeasureResponseCommand&#45;&gt;topo.command.analysis.measure_od_pref</title>
<path fill="none" stroke="black" stroke-width="0.5" d="M1496.19,-229.052C1516.84,-231.507 1538.11,-234.47 1558,-238 1574.24,-240.882 1577.81,-243.846 1594,-247 1609.69,-250.056 1626.49,-252.821 1642.73,-255.237"/>
<polygon fill="black" stroke="black" points="1642.54,-256.979 1647.74,-255.975 1643.05,-253.516 1642.54,-256.979"/>
</g>
<!-- topo.command.analysis.measure_hue_pref -->
<g id="node34" class="node"><title>topo.command.analysis.measure_hue_pref</title>
<polygon fill="none" stroke="black" stroke-width="0.5" points="1841,-238.5 1617,-238.5 1617,-217.5 1841,-217.5 1841,-238.5"/>
<text text-anchor="middle" x="1729" y="-225.5" font-family="Vera" font-size="10.00">topo.command.analysis.measure_hue_pref</text>
</g>
<!-- topo.analysis.featureresponses.SinusoidalMeasureResponseCommand&#45;&gt;topo.command.analysis.measure_hue_pref -->
<g id="edge32" class="edge"><title>topo.analysis.featureresponses.SinusoidalMeasureResponseCommand&#45;&gt;topo.command.analysis.measure_hue_pref</title>
<path fill="none" stroke="black" stroke-width="0.5" d="M1558.08,-223.592C1576.2,-224.06 1594.27,-224.526 1611.51,-224.97"/>
<polygon fill="black" stroke="black" points="1611.79,-226.728 1616.83,-225.107 1611.88,-223.229 1611.79,-226.728"/>
</g>
<!-- topo.command.analysis.measure_or_pref -->
<g id="node57" class="node"><title>topo.command.analysis.measure_or_pref</title>
<polygon fill="none" stroke="black" stroke-width="0.5" points="1837,-200.5 1621,-200.5 1621,-179.5 1837,-179.5 1837,-200.5"/>
<text text-anchor="middle" x="1729" y="-187.5" font-family="Vera" font-size="10.00">topo.command.analysis.measure_or_pref</text>
</g>
<!-- topo.analysis.featureresponses.SinusoidalMeasureResponseCommand&#45;&gt;topo.command.analysis.measure_or_pref -->
<g id="edge56" class="edge"><title>topo.analysis.featureresponses.SinusoidalMeasureResponseCommand&#45;&gt;topo.command.analysis.measure_or_pref</title>
<path fill="none" stroke="black" stroke-width="0.5" d="M1500.59,-208.979C1537.87,-205.882 1578.79,-202.482 1615.56,-199.426"/>
<polygon fill="black" stroke="black" points="1616.12,-201.136 1620.96,-198.978 1615.83,-197.648 1616.12,-201.136"/>
</g>
<!-- topo.command.analysis.measure_sine_pref -->
<g id="node59" class="node"><title>topo.command.analysis.measure_sine_pref</title>
<polygon fill="none" stroke="black" stroke-width="0.5" points="1842,-162.5 1616,-162.5 1616,-141.5 1842,-141.5 1842,-162.5"/>
<text text-anchor="middle" x="1729" y="-149.5" font-family="Vera" font-size="10.00">topo.command.analysis.measure_sine_pref</text>
</g>
<!-- topo.analysis.featureresponses.SinusoidalMeasureResponseCommand&#45;&gt;topo.command.analysis.measure_sine_pref -->
<g id="edge58" class="edge"><title>topo.analysis.featureresponses.SinusoidalMeasureResponseCommand&#45;&gt;topo.command.analysis.measure_sine_pref</title>
<path fill="none" stroke="black" stroke-width="0.5" d="M1431.21,-208.924C1466.88,-201.697 1515.5,-191.43 1558,-181 1574.13,-177.042 1577.74,-174.387 1594,-171 1608.88,-167.899 1624.8,-165.158 1640.29,-162.792"/>
<polygon fill="black" stroke="black" points="1640.84,-164.478 1645.53,-162.004 1640.32,-161.017 1640.84,-164.478"/>
</g>
<!-- param.parameterized.Parameterized -->
<g id="node10" class="node"><title>param.parameterized.Parameterized</title>
<polygon fill="none" stroke="black" stroke-width="0.5" points="194,-153.5 5.68434e-14,-153.5 0,-132.5 194,-132.5 194,-153.5"/>
<text text-anchor="middle" x="97" y="-140.5" font-family="Vera" font-size="10.00">param.parameterized.Parameterized</text>
</g>
<!-- param.parameterized.Parameterized&#45;&gt;imagen.patterngenerator.PatternGenerator -->
<g id="edge8" class="edge"><title>param.parameterized.Parameterized&#45;&gt;imagen.patterngenerator.PatternGenerator</title>
<path fill="none" stroke="black" stroke-width="0.5" d="M123.754,-153.167C170.275,-170.844 265.838,-207.159 315.489,-226.026"/>
<polygon fill="black" stroke="black" points="315.142,-227.766 320.438,-227.906 316.386,-224.494 315.142,-227.766"/>
</g>
<!-- param.parameterized.ParameterizedFunction -->
<g id="node15" class="node"><title>param.parameterized.ParameterizedFunction</title>
<polygon fill="none" stroke="black" stroke-width="0.5" points="464,-153.5 230,-153.5 230,-132.5 464,-132.5 464,-153.5"/>
<text text-anchor="middle" x="347" y="-140.5" font-family="Vera" font-size="10.00">param.parameterized.ParameterizedFunction</text>
</g>
<!-- param.parameterized.Parameterized&#45;&gt;param.parameterized.ParameterizedFunction -->
<g id="edge24" class="edge"><title>param.parameterized.Parameterized&#45;&gt;param.parameterized.ParameterizedFunction</title>
<path fill="none" stroke="black" stroke-width="0.5" d="M194.014,-143C204.04,-143 214.319,-143 224.575,-143"/>
<polygon fill="black" stroke="black" points="224.607,-144.75 229.607,-143 224.607,-141.25 224.607,-144.75"/>
</g>
<!-- topo.command.analysis.PatternPresenter2 -->
<g id="node46" class="node"><title>topo.command.analysis.PatternPresenter2</title>
<polygon fill="none" stroke="black" stroke-width="0.5" points="457,-115.5 237,-115.5 237,-94.5 457,-94.5 457,-115.5"/>
<text text-anchor="middle" x="347" y="-102.5" font-family="Vera" font-size="10.00">topo.command.analysis.PatternPresenter2</text>
</g>
<!-- param.parameterized.Parameterized&#45;&gt;topo.command.analysis.PatternPresenter2 -->
<g id="edge44" class="edge"><title>param.parameterized.Parameterized&#45;&gt;topo.command.analysis.PatternPresenter2</title>
<path fill="none" stroke="black" stroke-width="0.5" d="M163.012,-132.966C197.758,-127.685 240.394,-121.204 275.872,-115.811"/>
<polygon fill="black" stroke="black" points="276.372,-117.506 281.052,-115.024 275.846,-114.045 276.372,-117.506"/>
</g>
<!-- topo.plotting.plotgroup.UnitMeasurementCommand -->
<g id="node12" class="node"><title>topo.plotting.plotgroup.UnitMeasurementCommand</title>
<polygon fill="none" stroke="black" stroke-width="0.5" points="1145,-305.5 879,-305.5 879,-284.5 1145,-284.5 1145,-305.5"/>
<text text-anchor="middle" x="1012" y="-292.5" font-family="Vera" font-size="10.00">topo.plotting.plotgroup.UnitMeasurementCommand</text>
</g>
<!-- topo.command.analysis.update_projection -->
<g id="node31" class="node"><title>topo.command.analysis.update_projection</title>
<polygon fill="none" stroke="black" stroke-width="0.5" points="1490,-343.5 1270,-343.5 1270,-322.5 1490,-322.5 1490,-343.5"/>
<text text-anchor="middle" x="1380" y="-330.5" font-family="Vera" font-size="10.00">topo.command.analysis.update_projection</text>
</g>
<!-- topo.plotting.plotgroup.UnitMeasurementCommand&#45;&gt;topo.command.analysis.update_projection -->
<g id="edge28" class="edge"><title>topo.plotting.plotgroup.UnitMeasurementCommand&#45;&gt;topo.command.analysis.update_projection</title>
<path fill="none" stroke="black" stroke-width="0.5" d="M1109.17,-305.034C1161.15,-310.402 1225.14,-317.009 1277.86,-322.453"/>
<polygon fill="black" stroke="black" points="1277.77,-324.203 1282.93,-322.976 1278.13,-320.722 1277.77,-324.203"/>
</g>
<!-- topo.command.analysis.update_connectionfields -->
<g id="node48" class="node"><title>topo.command.analysis.update_connectionfields</title>
<polygon fill="none" stroke="black" stroke-width="0.5" points="1505,-305.5 1255,-305.5 1255,-284.5 1505,-284.5 1505,-305.5"/>
<text text-anchor="middle" x="1380" y="-292.5" font-family="Vera" font-size="10.00">topo.command.analysis.update_connectionfields</text>
</g>
<!-- topo.plotting.plotgroup.UnitMeasurementCommand&#45;&gt;topo.command.analysis.update_connectionfields -->
<g id="edge46" class="edge"><title>topo.plotting.plotgroup.UnitMeasurementCommand&#45;&gt;topo.command.analysis.update_connectionfields</title>
<path fill="none" stroke="black" stroke-width="0.5" d="M1145.12,-295C1178.91,-295 1215.19,-295 1248.88,-295"/>
<polygon fill="black" stroke="black" points="1249.27,-296.75 1254.27,-295 1249.27,-293.25 1249.27,-296.75"/>
</g>
<!-- topo.plotting.plotgroup.ProjectionSheetMeasurementCommand -->
<g id="node13" class="node"><title>topo.plotting.plotgroup.ProjectionSheetMeasurementCommand</title>
<polygon fill="none" stroke="black" stroke-width="0.5" points="822,-191.5 500,-191.5 500,-170.5 822,-170.5 822,-191.5"/>
<text text-anchor="middle" x="661" y="-178.5" font-family="Vera" font-size="10.00">topo.plotting.plotgroup.ProjectionSheetMeasurementCommand</text>
</g>
<!-- topo.plotting.plotgroup.ProjectionSheetMeasurementCommand&#45;&gt;topo.plotting.plotgroup.UnitMeasurementCommand -->
<g id="edge10" class="edge"><title>topo.plotting.plotgroup.ProjectionSheetMeasurementCommand&#45;&gt;topo.plotting.plotgroup.UnitMeasurementCommand</title>
<path fill="none" stroke="black" stroke-width="0.5" d="M784.094,-191.05C797.022,-193.432 809.865,-196.372 822,-200 887.94,-219.718 958.712,-261.173 992.228,-282.194"/>
<polygon fill="black" stroke="black" points="991.351,-283.71 996.514,-284.898 993.219,-280.75 991.351,-283.71"/>
</g>
<!-- topo.command.analysis.update_projectionactivity -->
<g id="node36" class="node"><title>topo.command.analysis.update_projectionactivity</title>
<polygon fill="none" stroke="black" stroke-width="0.5" points="1139,-191.5 885,-191.5 885,-170.5 1139,-170.5 1139,-191.5"/>
<text text-anchor="middle" x="1012" y="-178.5" font-family="Vera" font-size="10.00">topo.command.analysis.update_projectionactivity</text>
</g>
<!-- topo.plotting.plotgroup.ProjectionSheetMeasurementCommand&#45;&gt;topo.command.analysis.update_projectionactivity -->
<g id="edge34" class="edge"><title>topo.plotting.plotgroup.ProjectionSheetMeasurementCommand&#45;&gt;topo.command.analysis.update_projectionactivity</title>
<path fill="none" stroke="black" stroke-width="0.5" d="M822.118,-181C841.391,-181 860.898,-181 879.699,-181"/>
<polygon fill="black" stroke="black" points="879.982,-182.75 884.982,-181 879.982,-179.25 879.982,-182.75"/>
</g>
<!-- param.parameterized.ParameterizedFunction&#45;&gt;topo.plotting.plotgroup.ProjectionSheetMeasurementCommand -->
<g id="edge12" class="edge"><title>param.parameterized.ParameterizedFunction&#45;&gt;topo.plotting.plotgroup.ProjectionSheetMeasurementCommand</title>
<path fill="none" stroke="black" stroke-width="0.5" d="M426.793,-153.002C450.364,-155.932 476.218,-159.12 500,-162 522.73,-164.752 547.271,-167.674 570.177,-170.38"/>
<polygon fill="black" stroke="black" points="570.174,-172.141 575.345,-170.99 570.584,-168.665 570.174,-172.141"/>
</g>
<!-- topo.analysis.featureresponses.PatternPresentingCommand -->
<g id="node17" class="node"><title>topo.analysis.featureresponses.PatternPresentingCommand</title>
<polygon fill="none" stroke="black" stroke-width="0.5" points="813,-153.5 509,-153.5 509,-132.5 813,-132.5 813,-153.5"/>
<text text-anchor="middle" x="661" y="-140.5" font-family="Vera" font-size="10.00">topo.analysis.featureresponses.PatternPresentingCommand</text>
</g>
<!-- param.parameterized.ParameterizedFunction&#45;&gt;topo.analysis.featureresponses.PatternPresentingCommand -->
<g id="edge30" class="edge"><title>param.parameterized.ParameterizedFunction&#45;&gt;topo.analysis.featureresponses.PatternPresentingCommand</title>
<path fill="none" stroke="black" stroke-width="0.5" d="M464.369,-143C477.055,-143 490.112,-143 503.176,-143"/>
<polygon fill="black" stroke="black" points="503.378,-144.75 508.378,-143 503.378,-141.25 503.378,-144.75"/>
</g>
<!-- topo.base.functionfamily.PatternDrivenAnalysis -->
<g id="node40" class="node"><title>topo.base.functionfamily.PatternDrivenAnalysis</title>
<polygon fill="none" stroke="black" stroke-width="0.5" points="781,-115.5 541,-115.5 541,-94.5 781,-94.5 781,-115.5"/>
<text text-anchor="middle" x="661" y="-102.5" font-family="Vera" font-size="10.00">topo.base.functionfamily.PatternDrivenAnalysis</text>
</g>
<!-- param.parameterized.ParameterizedFunction&#45;&gt;topo.base.functionfamily.PatternDrivenAnalysis -->
<g id="edge66" class="edge"><title>param.parameterized.ParameterizedFunction&#45;&gt;topo.base.functionfamily.PatternDrivenAnalysis</title>
<path fill="none" stroke="black" stroke-width="0.5" d="M426.793,-132.998C450.364,-130.068 476.218,-126.88 500,-124 522.73,-121.248 547.271,-118.326 570.177,-115.62"/>
<polygon fill="black" stroke="black" points="570.584,-117.335 575.345,-115.01 570.174,-113.859 570.584,-117.335"/>
</g>
<!-- topo.command.analysis.save_plotgroup -->
<g id="node54" class="node"><title>topo.command.analysis.save_plotgroup</title>
<polygon fill="none" stroke="black" stroke-width="0.5" points="765,-77.5 557,-77.5 557,-56.5 765,-56.5 765,-77.5"/>
<text text-anchor="middle" x="661" y="-64.5" font-family="Vera" font-size="10.00">topo.command.analysis.save_plotgroup</text>
</g>
<!-- param.parameterized.ParameterizedFunction&#45;&gt;topo.command.analysis.save_plotgroup -->
<g id="edge52" class="edge"><title>param.parameterized.ParameterizedFunction&#45;&gt;topo.command.analysis.save_plotgroup</title>
<path fill="none" stroke="black" stroke-width="0.5" d="M442.297,-132.992C449.846,-130.569 457.179,-127.609 464,-124 484.563,-113.119 479.205,-96.4311 500,-86 515.982,-77.9831 533.946,-72.775 551.925,-69.4754"/>
<polygon fill="black" stroke="black" points="552.368,-71.1747 556.995,-68.5946 551.769,-67.7264 552.368,-71.1747"/>
</g>
<!-- topo.analysis.featureresponses.PatternPresentingCommand&#45;&gt;topo.analysis.featureresponses.MeasureResponseCommand -->
<g id="edge14" class="edge"><title>topo.analysis.featureresponses.PatternPresentingCommand&#45;&gt;topo.analysis.featureresponses.MeasureResponseCommand</title>
<path fill="none" stroke="black" stroke-width="0.5" d="M813.677,-143C826.734,-143 839.963,-143 853.067,-143"/>
<polygon fill="black" stroke="black" points="853.278,-144.75 858.278,-143 853.278,-141.25 853.278,-144.75"/>
</g>
<!-- topo.command.analysis.measure_corner_angle_pref -->
<g id="node23" class="node"><title>topo.command.analysis.measure_corner_angle_pref</title>
<polygon fill="none" stroke="black" stroke-width="0.5" points="1863,-124.5 1595,-124.5 1595,-103.5 1863,-103.5 1863,-124.5"/>
<text text-anchor="middle" x="1729" y="-111.5" font-family="Vera" font-size="10.00">topo.command.analysis.measure_corner_angle_pref</text>
</g>
<!-- topo.analysis.featureresponses.PositionMeasurementCommand&#45;&gt;topo.command.analysis.measure_corner_angle_pref -->
<g id="edge20" class="edge"><title>topo.analysis.featureresponses.PositionMeasurementCommand&#45;&gt;topo.command.analysis.measure_corner_angle_pref</title>
<path fill="none" stroke="black" stroke-width="0.5" d="M1542.24,-119.351C1557.91,-118.902 1573.72,-118.449 1589.15,-118.007"/>
<polygon fill="black" stroke="black" points="1589.42,-119.75 1594.36,-117.858 1589.32,-116.252 1589.42,-119.75"/>
</g>
<!-- topo.command.analysis.measure_corner_or_pref -->
<g id="node63" class="node"><title>topo.command.analysis.measure_corner_or_pref</title>
<polygon fill="none" stroke="black" stroke-width="0.5" points="1855,-86.5 1603,-86.5 1603,-65.5 1855,-65.5 1855,-86.5"/>
<text text-anchor="middle" x="1729" y="-73.5" font-family="Vera" font-size="10.00">topo.command.analysis.measure_corner_or_pref</text>
</g>
<!-- topo.analysis.featureresponses.PositionMeasurementCommand&#45;&gt;topo.command.analysis.measure_corner_or_pref -->
<g id="edge62" class="edge"><title>topo.analysis.featureresponses.PositionMeasurementCommand&#45;&gt;topo.command.analysis.measure_corner_or_pref</title>
<path fill="none" stroke="black" stroke-width="0.5" d="M1499.61,-113.97C1519.2,-111.543 1539.23,-108.584 1558,-105 1574.31,-101.886 1577.74,-98.3867 1594,-95 1608.88,-91.8992 1624.8,-89.1582 1640.29,-86.7917"/>
<polygon fill="black" stroke="black" points="1640.84,-88.4785 1645.53,-86.0035 1640.32,-85.0175 1640.84,-88.4785"/>
</g>
<!-- topo.analysis.featureresponses.FeatureResponses -->
<g id="node39" class="node"><title>topo.analysis.featureresponses.FeatureResponses</title>
<polygon fill="none" stroke="black" stroke-width="0.5" points="1140,-58.5 884,-58.5 884,-37.5 1140,-37.5 1140,-58.5"/>
<text text-anchor="middle" x="1012" y="-45.5" font-family="Vera" font-size="10.00">topo.analysis.featureresponses.FeatureResponses</text>
</g>
<!-- topo.command.analysis.measure_activity -->
<g id="node42" class="node"><title>topo.command.analysis.measure_activity</title>
<polygon fill="none" stroke="black" stroke-width="0.5" points="1488,-20.5 1272,-20.5 1272,0.5 1488,0.5 1488,-20.5"/>
<text text-anchor="middle" x="1380" y="-7.5" font-family="Vera" font-size="10.00">topo.command.analysis.measure_activity</text>
</g>
<!-- topo.analysis.featureresponses.FeatureResponses&#45;&gt;topo.command.analysis.measure_activity -->
<g id="edge40" class="edge"><title>topo.analysis.featureresponses.FeatureResponses&#45;&gt;topo.command.analysis.measure_activity</title>
<path fill="none" stroke="black" stroke-width="0.5" d="M1109.17,-37.9662C1161.15,-32.5982 1225.14,-25.9912 1277.86,-20.5472"/>
<polygon fill="black" stroke="black" points="1278.13,-22.2785 1282.93,-20.024 1277.77,-18.797 1278.13,-22.2785"/>
</g>
<!-- topo.base.functionfamily.PatternDrivenAnalysis&#45;&gt;topo.analysis.featureresponses.FeatureResponses -->
<g id="edge38" class="edge"><title>topo.base.functionfamily.PatternDrivenAnalysis&#45;&gt;topo.analysis.featureresponses.FeatureResponses</title>
<path fill="none" stroke="black" stroke-width="0.5" d="M756.949,-94.9518C778.402,-92.3507 801.013,-89.3316 822,-86 869.694,-78.4288 923.644,-67.3997 961.836,-59.1715"/>
<polygon fill="black" stroke="black" points="962.366,-60.8476 966.883,-58.0808 961.626,-57.4266 962.366,-60.8476"/>
</g>
<!-- topo.command.analysis.measure_rfs -->
<g id="node61" class="node"><title>topo.command.analysis.measure_rfs</title>
<polygon fill="none" stroke="black" stroke-width="0.5" points="1826,-48.5 1632,-48.5 1632,-27.5 1826,-27.5 1826,-48.5"/>
<text text-anchor="middle" x="1729" y="-35.5" font-family="Vera" font-size="10.00">topo.command.analysis.measure_rfs</text>
</g>
<!-- topo.analysis.featureresponses.SingleInputResponseCommand&#45;&gt;topo.command.analysis.measure_rfs -->
<g id="edge60" class="edge"><title>topo.analysis.featureresponses.SingleInputResponseCommand&#45;&gt;topo.command.analysis.measure_rfs</title>
<path fill="none" stroke="black" stroke-width="0.5" d="M1539.69,-43.4244C1569.26,-42.5771 1599.4,-41.7135 1626.68,-40.9317"/>
<polygon fill="black" stroke="black" points="1626.8,-42.6793 1631.74,-40.7867 1626.7,-39.1807 1626.8,-42.6793"/>
</g>
</g>
</svg>
