<?xml version="1.0" encoding="UTF-8" standalone="no"?>
<!DOCTYPE svg PUBLIC "-//W3C//DTD SVG 1.1//EN"
 "http://www.w3.org/Graphics/SVG/1.1/DTD/svg11.dtd">
<!-- Generated by graphviz version 2.26.3 (20100126.1600)
 -->
<!-- Title: inheritance1d39487c30 Pages: 1 -->
<svg width="1064pt" height="275pt"
 viewBox="0.00 0.00 1064.00 275.00" xmlns="http://www.w3.org/2000/svg" xmlns:xlink="http://www.w3.org/1999/xlink">
<g id="graph1" class="graph" transform="scale(1 1) rotate(0) translate(4 271)">
<title>inheritance1d39487c30</title>
<polygon fill="white" stroke="white" points="-4,5 -4,-271 1061,-271 1061,5 -4,5"/>
<!-- topo.tkgui.editor.EditorProjection -->
<g id="node1" class="node"><title>topo.tkgui.editor.EditorProjection</title>
<polygon fill="none" stroke="black" stroke-width="0.5" points="847,-20.5 675,-20.5 675,0.5 847,0.5 847,-20.5"/>
<text text-anchor="middle" x="761" y="-7.5" font-family="Vera" font-size="10.00">topo.tkgui.editor.EditorProjection</text>
</g>
<!-- topo.tkgui.editor.EditorEPConnection -->
<g id="node2" class="node"><title>topo.tkgui.editor.EditorEPConnection</title>
<polygon fill="none" stroke="black" stroke-width="0.5" points="637,-20.5 447,-20.5 447,0.5 637,0.5 637,-20.5"/>
<text text-anchor="middle" x="542" y="-7.5" font-family="Vera" font-size="10.00">topo.tkgui.editor.EditorEPConnection</text>
</g>
<!-- topo.tkgui.editor.EditorEPConnection&#45;&gt;topo.tkgui.editor.EditorProjection -->
<g id="edge2" class="edge"><title>topo.tkgui.editor.EditorEPConnection&#45;&gt;topo.tkgui.editor.EditorProjection</title>
<path fill="none" stroke="black" stroke-width="0.5" d="M637.738,-10C648.223,-10 658.878,-10 669.312,-10"/>
<polygon fill="black" stroke="black" points="669.415,-11.7501 674.415,-10 669.415,-8.2501 669.415,-11.7501"/>
</g>
<!-- topo.tkgui.editor.EditorSheet -->
<g id="node4" class="node"><title>topo.tkgui.editor.EditorSheet</title>
<polygon fill="none" stroke="black" stroke-width="0.5" points="838,-58.5 684,-58.5 684,-37.5 838,-37.5 838,-58.5"/>
<text text-anchor="middle" x="761" y="-45.5" font-family="Vera" font-size="10.00">topo.tkgui.editor.EditorSheet</text>
</g>
<!-- topo.tkgui.editor.EditorEP -->
<g id="node5" class="node"><title>topo.tkgui.editor.EditorEP</title>
<polygon fill="none" stroke="black" stroke-width="0.5" points="610,-58.5 474,-58.5 474,-37.5 610,-37.5 610,-58.5"/>
<text text-anchor="middle" x="542" y="-45.5" font-family="Vera" font-size="10.00">topo.tkgui.editor.EditorEP</text>
</g>
<!-- topo.tkgui.editor.EditorEP&#45;&gt;topo.tkgui.editor.EditorSheet -->
<g id="edge4" class="edge"><title>topo.tkgui.editor.EditorEP&#45;&gt;topo.tkgui.editor.EditorSheet</title>
<path fill="none" stroke="black" stroke-width="0.5" d="M610.692,-48C632.267,-48 656.308,-48 678.724,-48"/>
<polygon fill="black" stroke="black" points="678.78,-49.7501 683.78,-48 678.78,-46.2501 678.78,-49.7501"/>
</g>
<!-- Tkinter.Misc -->
<g id="node7" class="node"><title>Tkinter.Misc</title>
<polygon fill="none" stroke="black" stroke-width="0.5" points="133,-229.5 61,-229.5 61,-208.5 133,-208.5 133,-229.5"/>
<text text-anchor="middle" x="97" y="-216.5" font-family="Vera" font-size="10.00">Tkinter.Misc</text>
</g>
<!-- Tkinter.BaseWidget -->
<g id="node28" class="node"><title>Tkinter.BaseWidget</title>
<polygon fill="none" stroke="black" stroke-width="0.5" points="373,-229.5 267,-229.5 267,-208.5 373,-208.5 373,-229.5"/>
<text text-anchor="middle" x="320" y="-216.5" font-family="Vera" font-size="10.00">Tkinter.BaseWidget</text>
</g>
<!-- Tkinter.Misc&#45;&gt;Tkinter.BaseWidget -->
<g id="edge20" class="edge"><title>Tkinter.Misc&#45;&gt;Tkinter.BaseWidget</title>
<path fill="none" stroke="black" stroke-width="0.5" d="M133.325,-219C167.814,-219 220.266,-219 260.798,-219"/>
<polygon fill="black" stroke="black" points="261.182,-220.75 266.182,-219 261.182,-217.25 261.182,-220.75"/>
</g>
<!-- param.parameterized.Parameterized -->
<g id="node8" class="node"><title>param.parameterized.Parameterized</title>
<polygon fill="none" stroke="black" stroke-width="0.5" points="194,-267.5 5.68434e-14,-267.5 0,-246.5 194,-246.5 194,-267.5"/>
<text text-anchor="middle" x="97" y="-254.5" font-family="Vera" font-size="10.00">param.parameterized.Parameterized</text>
</g>
<!-- topo.tkgui.editor.ModelEditor -->
<g id="node43" class="node"><title>topo.tkgui.editor.ModelEditor</title>
<polygon fill="none" stroke="black" stroke-width="0.5" points="397,-267.5 243,-267.5 243,-246.5 397,-246.5 397,-267.5"/>
<text text-anchor="middle" x="320" y="-254.5" font-family="Vera" font-size="10.00">topo.tkgui.editor.ModelEditor</text>
</g>
<!-- param.parameterized.Parameterized&#45;&gt;topo.tkgui.editor.ModelEditor -->
<g id="edge40" class="edge"><title>param.parameterized.Parameterized&#45;&gt;topo.tkgui.editor.ModelEditor</title>
<path fill="none" stroke="black" stroke-width="0.5" d="M194.162,-257C208.692,-257 223.553,-257 237.735,-257"/>
<polygon fill="black" stroke="black" points="237.927,-258.75 242.927,-257 237.927,-255.25 237.927,-258.75"/>
</g>
<!-- topo.tkgui.editor.EditorNode -->
<g id="node9" class="node"><title>topo.tkgui.editor.EditorNode</title>
<polygon fill="none" stroke="black" stroke-width="0.5" points="395,-58.5 245,-58.5 245,-37.5 395,-37.5 395,-58.5"/>
<text text-anchor="middle" x="320" y="-45.5" font-family="Vera" font-size="10.00">topo.tkgui.editor.EditorNode</text>
</g>
<!-- topo.tkgui.editor.EditorNode&#45;&gt;topo.tkgui.editor.EditorEP -->
<g id="edge6" class="edge"><title>topo.tkgui.editor.EditorNode&#45;&gt;topo.tkgui.editor.EditorEP</title>
<path fill="none" stroke="black" stroke-width="0.5" d="M395.779,-48C419.134,-48 444.811,-48 468.042,-48"/>
<polygon fill="black" stroke="black" points="468.269,-49.7501 473.269,-48 468.269,-46.2501 468.269,-49.7501"/>
</g>
<!-- Tkinter.XView -->
<g id="node11" class="node"><title>Tkinter.XView</title>
<polygon fill="none" stroke="black" stroke-width="0.5" points="581,-134.5 503,-134.5 503,-113.5 581,-113.5 581,-134.5"/>
<text text-anchor="middle" x="542" y="-121.5" font-family="Vera" font-size="10.00">Tkinter.XView</text>
</g>
<!-- Tkinter.Canvas -->
<g id="node20" class="node"><title>Tkinter.Canvas</title>
<polygon fill="none" stroke="black" stroke-width="0.5" points="804,-124.5 718,-124.5 718,-103.5 804,-103.5 804,-124.5"/>
<text text-anchor="middle" x="761" y="-111.5" font-family="Vera" font-size="10.00">Tkinter.Canvas</text>
</g>
<!-- Tkinter.XView&#45;&gt;Tkinter.Canvas -->
<g id="edge28" class="edge"><title>Tkinter.XView&#45;&gt;Tkinter.Canvas</title>
<path fill="none" stroke="black" stroke-width="0.5" d="M581.659,-122.189C618.464,-120.508 673.336,-118.003 712.685,-116.206"/>
<polygon fill="black" stroke="black" points="712.973,-117.945 717.888,-115.969 712.813,-114.449 712.973,-117.945"/>
</g>
<!-- Tkinter.YView -->
<g id="node12" class="node"><title>Tkinter.YView</title>
<polygon fill="none" stroke="black" stroke-width="0.5" points="581,-96.5 503,-96.5 503,-75.5 581,-75.5 581,-96.5"/>
<text text-anchor="middle" x="542" y="-83.5" font-family="Vera" font-size="10.00">Tkinter.YView</text>
</g>
<!-- Tkinter.YView&#45;&gt;Tkinter.Canvas -->
<g id="edge30" class="edge"><title>Tkinter.YView&#45;&gt;Tkinter.Canvas</title>
<path fill="none" stroke="black" stroke-width="0.5" d="M581.153,-91.0058C617.889,-95.7027 672.945,-102.742 712.458,-107.794"/>
<polygon fill="black" stroke="black" points="712.502,-109.564 717.684,-108.462 712.946,-106.092 712.502,-109.564"/>
</g>
<!-- topo.tkgui.editor.NodeTool -->
<g id="node13" class="node"><title>topo.tkgui.editor.NodeTool</title>
<polygon fill="none" stroke="black" stroke-width="0.5" points="1040,-257.5 900,-257.5 900,-236.5 1040,-236.5 1040,-257.5"/>
<text text-anchor="middle" x="970" y="-244.5" font-family="Vera" font-size="10.00">topo.tkgui.editor.NodeTool</text>
</g>
<!-- Tkinter.Frame -->
<g id="node14" class="node"><title>Tkinter.Frame</title>
<polygon fill="none" stroke="black" stroke-width="0.5" points="801,-181.5 721,-181.5 721,-160.5 801,-160.5 801,-181.5"/>
<text text-anchor="middle" x="761" y="-168.5" font-family="Vera" font-size="10.00">Tkinter.Frame</text>
</g>
<!-- Tkinter.Frame&#45;&gt;topo.tkgui.editor.NodeTool -->
<g id="edge8" class="edge"><title>Tkinter.Frame&#45;&gt;topo.tkgui.editor.NodeTool</title>
<path fill="none" stroke="black" stroke-width="0.5" d="M779.65,-181.2C803.307,-193.769 845.647,-215.047 884,-228 892.556,-230.89 901.742,-233.457 910.811,-235.698"/>
<polygon fill="black" stroke="black" points="910.562,-237.438 915.833,-236.909 911.383,-234.035 910.562,-237.438"/>
</g>
<!-- topo.tkgui.editor.ArrowTool -->
<g id="node22" class="node"><title>topo.tkgui.editor.ArrowTool</title>
<polygon fill="none" stroke="black" stroke-width="0.5" points="1041,-219.5 899,-219.5 899,-198.5 1041,-198.5 1041,-219.5"/>
<text text-anchor="middle" x="970" y="-206.5" font-family="Vera" font-size="10.00">topo.tkgui.editor.ArrowTool</text>
</g>
<!-- Tkinter.Frame&#45;&gt;topo.tkgui.editor.ArrowTool -->
<g id="edge14" class="edge"><title>Tkinter.Frame&#45;&gt;topo.tkgui.editor.ArrowTool</title>
<path fill="none" stroke="black" stroke-width="0.5" d="M801.793,-178.417C832.478,-183.996 875.012,-191.729 909.631,-198.024"/>
<polygon fill="black" stroke="black" points="909.446,-199.769 914.679,-198.942 910.072,-196.325 909.446,-199.769"/>
</g>
<!-- topo.tkgui.editor.ConnectionTool -->
<g id="node25" class="node"><title>topo.tkgui.editor.ConnectionTool</title>
<polygon fill="none" stroke="black" stroke-width="0.5" points="1055,-181.5 885,-181.5 885,-160.5 1055,-160.5 1055,-181.5"/>
<text text-anchor="middle" x="970" y="-168.5" font-family="Vera" font-size="10.00">topo.tkgui.editor.ConnectionTool</text>
</g>
<!-- Tkinter.Frame&#45;&gt;topo.tkgui.editor.ConnectionTool -->
<g id="edge16" class="edge"><title>Tkinter.Frame&#45;&gt;topo.tkgui.editor.ConnectionTool</title>
<path fill="none" stroke="black" stroke-width="0.5" d="M801.793,-171C824.048,-171 852.537,-171 879.718,-171"/>
<polygon fill="black" stroke="black" points="879.776,-172.75 884.776,-171 879.776,-169.25 879.776,-172.75"/>
</g>
<!-- topo.tkgui.editor.ParametersTool -->
<g id="node31" class="node"><title>topo.tkgui.editor.ParametersTool</title>
<polygon fill="none" stroke="black" stroke-width="0.5" points="1055,-143.5 885,-143.5 885,-122.5 1055,-122.5 1055,-143.5"/>
<text text-anchor="middle" x="970" y="-130.5" font-family="Vera" font-size="10.00">topo.tkgui.editor.ParametersTool</text>
</g>
<!-- Tkinter.Frame&#45;&gt;topo.tkgui.editor.ParametersTool -->
<g id="edge24" class="edge"><title>Tkinter.Frame&#45;&gt;topo.tkgui.editor.ParametersTool</title>
<path fill="none" stroke="black" stroke-width="0.5" d="M801.793,-163.583C832.478,-158.004 875.012,-150.271 909.631,-143.976"/>
<polygon fill="black" stroke="black" points="910.072,-145.675 914.679,-143.058 909.446,-142.231 910.072,-145.675"/>
</g>
<!-- topo.tkgui.editor.EditorConnection -->
<g id="node16" class="node"><title>topo.tkgui.editor.EditorConnection</title>
<polygon fill="none" stroke="black" stroke-width="0.5" points="409,-20.5 231,-20.5 231,0.5 409,0.5 409,-20.5"/>
<text text-anchor="middle" x="320" y="-7.5" font-family="Vera" font-size="10.00">topo.tkgui.editor.EditorConnection</text>
</g>
<!-- topo.tkgui.editor.EditorConnection&#45;&gt;topo.tkgui.editor.EditorEPConnection -->
<g id="edge22" class="edge"><title>topo.tkgui.editor.EditorConnection&#45;&gt;topo.tkgui.editor.EditorEPConnection</title>
<path fill="none" stroke="black" stroke-width="0.5" d="M409.656,-10C419.998,-10 430.596,-10 441.074,-10"/>
<polygon fill="black" stroke="black" points="441.206,-11.7501 446.206,-10 441.206,-8.2501 441.206,-11.7501"/>
</g>
<!-- topo.tkgui.editor.EditorObject -->
<g id="node17" class="node"><title>topo.tkgui.editor.EditorObject</title>
<polygon fill="none" stroke="black" stroke-width="0.5" points="175,-39.5 19,-39.5 19,-18.5 175,-18.5 175,-39.5"/>
<text text-anchor="middle" x="97" y="-26.5" font-family="Vera" font-size="10.00">topo.tkgui.editor.EditorObject</text>
</g>
<!-- topo.tkgui.editor.EditorObject&#45;&gt;topo.tkgui.editor.EditorNode -->
<g id="edge18" class="edge"><title>topo.tkgui.editor.EditorObject&#45;&gt;topo.tkgui.editor.EditorNode</title>
<path fill="none" stroke="black" stroke-width="0.5" d="M175.308,-35.672C195.901,-37.4266 218.157,-39.3228 238.894,-41.0896"/>
<polygon fill="black" stroke="black" points="239.001,-42.855 244.132,-41.5359 239.298,-39.3676 239.001,-42.855"/>
</g>
<!-- topo.tkgui.editor.EditorObject&#45;&gt;topo.tkgui.editor.EditorConnection -->
<g id="edge10" class="edge"><title>topo.tkgui.editor.EditorObject&#45;&gt;topo.tkgui.editor.EditorConnection</title>
<path fill="none" stroke="black" stroke-width="0.5" d="M175.308,-22.328C191.458,-20.952 208.63,-19.4889 225.291,-18.0694"/>
<polygon fill="black" stroke="black" points="225.61,-19.7986 230.443,-17.6304 225.313,-16.3113 225.61,-19.7986"/>
</g>
<!-- topo.tkgui.editor.EditorCanvas -->
<g id="node19" class="node"><title>topo.tkgui.editor.EditorCanvas</title>
<polygon fill="none" stroke="black" stroke-width="0.5" points="1050,-105.5 890,-105.5 890,-84.5 1050,-84.5 1050,-105.5"/>
<text text-anchor="middle" x="970" y="-92.5" font-family="Vera" font-size="10.00">topo.tkgui.editor.EditorCanvas</text>
</g>
<!-- Tkinter.Canvas&#45;&gt;topo.tkgui.editor.EditorCanvas -->
<g id="edge12" class="edge"><title>Tkinter.Canvas&#45;&gt;topo.tkgui.editor.EditorCanvas</title>
<path fill="none" stroke="black" stroke-width="0.5" d="M804.052,-110.086C827.225,-107.98 856.652,-105.304 884.27,-102.794"/>
<polygon fill="black" stroke="black" points="884.583,-104.522 889.404,-102.327 884.266,-101.037 884.583,-104.522"/>
</g>
<!-- Tkinter.Grid -->
<g id="node24" class="node"><title>Tkinter.Grid</title>
<polygon fill="none" stroke="black" stroke-width="0.5" points="355,-191.5 285,-191.5 285,-170.5 355,-170.5 355,-191.5"/>
<text text-anchor="middle" x="320" y="-178.5" font-family="Vera" font-size="10.00">Tkinter.Grid</text>
</g>
<!-- Tkinter.Widget -->
<g id="node34" class="node"><title>Tkinter.Widget</title>
<polygon fill="none" stroke="black" stroke-width="0.5" points="583,-172.5 501,-172.5 501,-151.5 583,-151.5 583,-172.5"/>
<text text-anchor="middle" x="542" y="-159.5" font-family="Vera" font-size="10.00">Tkinter.Widget</text>
</g>
<!-- Tkinter.Grid&#45;&gt;Tkinter.Widget -->
<g id="edge38" class="edge"><title>Tkinter.Grid&#45;&gt;Tkinter.Widget</title>
<path fill="none" stroke="black" stroke-width="0.5" d="M355.668,-177.947C393.593,-174.701 453.732,-169.554 495.385,-165.99"/>
<polygon fill="black" stroke="black" points="495.537,-167.733 500.37,-165.563 495.239,-164.246 495.537,-167.733"/>
</g>
<!-- Tkinter.BaseWidget&#45;&gt;Tkinter.Widget -->
<g id="edge32" class="edge"><title>Tkinter.BaseWidget&#45;&gt;Tkinter.Widget</title>
<path fill="none" stroke="black" stroke-width="0.5" d="M370.603,-208.987C383.493,-206.253 397.294,-203.166 410,-200 442.24,-191.967 478.487,-181.422 504.829,-173.479"/>
<polygon fill="black" stroke="black" points="505.349,-175.15 509.629,-172.027 504.336,-171.8 505.349,-175.15"/>
</g>
<!-- Tkinter.Pack -->
<g id="node33" class="node"><title>Tkinter.Pack</title>
<polygon fill="none" stroke="black" stroke-width="0.5" points="356,-153.5 284,-153.5 284,-132.5 356,-132.5 356,-153.5"/>
<text text-anchor="middle" x="320" y="-140.5" font-family="Vera" font-size="10.00">Tkinter.Pack</text>
</g>
<!-- Tkinter.Pack&#45;&gt;Tkinter.Widget -->
<g id="edge34" class="edge"><title>Tkinter.Pack&#45;&gt;Tkinter.Widget</title>
<path fill="none" stroke="black" stroke-width="0.5" d="M356.659,-146.137C394.569,-149.382 453.892,-154.459 495.175,-157.992"/>
<polygon fill="black" stroke="black" points="495.239,-159.754 500.37,-158.437 495.537,-156.267 495.239,-159.754"/>
</g>
<!-- Tkinter.Widget&#45;&gt;Tkinter.Frame -->
<g id="edge42" class="edge"><title>Tkinter.Widget&#45;&gt;Tkinter.Frame</title>
<path fill="none" stroke="black" stroke-width="0.5" d="M583.708,-163.714C621.239,-165.256 676.289,-167.519 715.067,-169.112"/>
<polygon fill="black" stroke="black" points="715.121,-170.866 720.189,-169.323 715.265,-167.369 715.121,-170.866"/>
</g>
<!-- Tkinter.Widget&#45;&gt;Tkinter.Canvas -->
<g id="edge26" class="edge"><title>Tkinter.Widget&#45;&gt;Tkinter.Canvas</title>
<path fill="none" stroke="black" stroke-width="0.5" d="M583.651,-154.097C600.548,-150.802 620.233,-146.851 638,-143 663.516,-137.469 691.887,-130.814 714.947,-125.275"/>
<polygon fill="black" stroke="black" points="715.632,-126.91 720.084,-124.038 714.813,-123.507 715.632,-126.91"/>
</g>
<!-- Tkinter.Place -->
<g id="node40" class="node"><title>Tkinter.Place</title>
<polygon fill="none" stroke="black" stroke-width="0.5" points="358,-115.5 282,-115.5 282,-94.5 358,-94.5 358,-115.5"/>
<text text-anchor="middle" x="320" y="-102.5" font-family="Vera" font-size="10.00">Tkinter.Place</text>
</g>
<!-- Tkinter.Place&#45;&gt;Tkinter.Widget -->
<g id="edge36" class="edge"><title>Tkinter.Place&#45;&gt;Tkinter.Widget</title>
<path fill="none" stroke="black" stroke-width="0.5" d="M358.753,-110.747C374.884,-113.76 393.63,-118.083 410,-124 427.014,-130.15 428.947,-136.958 446,-143 461.539,-148.506 479.09,-152.567 494.896,-155.489"/>
<polygon fill="black" stroke="black" points="494.953,-157.277 500.184,-156.436 495.571,-153.832 494.953,-157.277"/>
</g>
</g>
</svg>
