<?xml version="1.0" encoding="UTF-8" standalone="no"?>
<!DOCTYPE svg PUBLIC "-//W3C//DTD SVG 1.1//EN"
 "http://www.w3.org/Graphics/SVG/1.1/DTD/svg11.dtd">
<!-- Generated by graphviz version 2.26.3 (20100126.1600)
 -->
<!-- Title: inheritance10172fd8d9 Pages: 1 -->
<svg width="2908pt" height="180pt"
 viewBox="0.00 0.00 2908.00 180.00" xmlns="http://www.w3.org/2000/svg" xmlns:xlink="http://www.w3.org/1999/xlink">
<g id="graph1" class="graph" transform="scale(1 1) rotate(0) translate(4 176)">
<title>inheritance10172fd8d9</title>
<polygon fill="white" stroke="white" points="-4,5 -4,-176 2905,-176 2905,5 -4,5"/>
<!-- Tkinter.Frame -->
<g id="node1" class="node"><title>Tkinter.Frame</title>
<polygon fill="none" stroke="black" stroke-width="0.5" points="648,-101.5 568,-101.5 568,-80.5 648,-80.5 648,-101.5"/>
<text text-anchor="middle" x="608" y="-88.5" font-family="Vera" font-size="10.00">Tkinter.Frame</text>
</g>
<!-- topo.tkgui.plotgrouppanel.PlotGroupPanel -->
<g id="node19" class="node"><title>topo.tkgui.plotgrouppanel.PlotGroupPanel</title>
<polygon fill="none" stroke="black" stroke-width="0.5" points="929,-124.5 715,-124.5 715,-103.5 929,-103.5 929,-124.5"/>
<text text-anchor="middle" x="822" y="-111.5" font-family="Vera" font-size="10.00">topo.tkgui.plotgrouppanel.PlotGroupPanel</text>
</g>
<!-- Tkinter.Frame&#45;&gt;topo.tkgui.plotgrouppanel.PlotGroupPanel -->
<g id="edge22" class="edge"><title>Tkinter.Frame&#45;&gt;topo.tkgui.plotgrouppanel.PlotGroupPanel</title>
<path fill="none" stroke="black" stroke-width="0.5" d="M648.503,-95.3532C669.86,-97.6485 697.073,-100.573 723.579,-103.422"/>
<polygon fill="black" stroke="black" points="723.71,-105.196 728.868,-103.991 724.084,-101.716 723.71,-105.196"/>
</g>
<!-- Tkinter.Widget -->
<g id="node2" class="node"><title>Tkinter.Widget</title>
<polygon fill="none" stroke="black" stroke-width="0.5" points="461,-96.5 379,-96.5 379,-75.5 461,-75.5 461,-96.5"/>
<text text-anchor="middle" x="420" y="-83.5" font-family="Vera" font-size="10.00">Tkinter.Widget</text>
</g>
<!-- Tkinter.Widget&#45;&gt;Tkinter.Frame -->
<g id="edge2" class="edge"><title>Tkinter.Widget&#45;&gt;Tkinter.Frame</title>
<path fill="none" stroke="black" stroke-width="0.5" d="M461.723,-87.1097C491.481,-87.9011 531.488,-88.9651 562.14,-89.7803"/>
<polygon fill="black" stroke="black" points="562.318,-91.5356 567.362,-89.9192 562.411,-88.0368 562.318,-91.5356"/>
</g>
<!-- paramtk.TkParameterizedBase -->
<g id="node4" class="node"><title>paramtk.TkParameterizedBase</title>
<polygon fill="none" stroke="black" stroke-width="0.5" points="502,-167.5 338,-167.5 338,-146.5 502,-146.5 502,-167.5"/>
<text text-anchor="middle" x="420" y="-154.5" font-family="Vera" font-size="10.00">paramtk.TkParameterizedBase</text>
</g>
<!-- paramtk.TkParameterized -->
<g id="node25" class="node"><title>paramtk.TkParameterized</title>
<polygon fill="none" stroke="black" stroke-width="0.5" points="678,-148.5 538,-148.5 538,-127.5 678,-127.5 678,-148.5"/>
<text text-anchor="middle" x="608" y="-135.5" font-family="Vera" font-size="10.00">paramtk.TkParameterized</text>
</g>
<!-- paramtk.TkParameterizedBase&#45;&gt;paramtk.TkParameterized -->
<g id="edge24" class="edge"><title>paramtk.TkParameterizedBase&#45;&gt;paramtk.TkParameterized</title>
<path fill="none" stroke="black" stroke-width="0.5" d="M502.186,-148.694C512.283,-147.674 522.564,-146.634 532.554,-145.625"/>
<polygon fill="black" stroke="black" points="532.951,-147.344 537.749,-145.1 532.599,-143.862 532.951,-147.344"/>
</g>
<!-- param.parameterized.Parameterized -->
<g id="node5" class="node"><title>param.parameterized.Parameterized</title>
<polygon fill="none" stroke="black" stroke-width="0.5" points="302,-172.5 108,-172.5 108,-151.5 302,-151.5 302,-172.5"/>
<text text-anchor="middle" x="205" y="-159.5" font-family="Vera" font-size="10.00">param.parameterized.Parameterized</text>
</g>
<!-- param.parameterized.Parameterized&#45;&gt;paramtk.TkParameterizedBase -->
<g id="edge4" class="edge"><title>param.parameterized.Parameterized&#45;&gt;paramtk.TkParameterizedBase</title>
<path fill="none" stroke="black" stroke-width="0.5" d="M302.121,-159.741C312.261,-159.506 322.525,-159.267 332.548,-159.034"/>
<polygon fill="black" stroke="black" points="332.808,-160.778 337.766,-158.912 332.726,-157.279 332.808,-160.778"/>
</g>
<!-- topo.tkgui.projectionpanel.ProjectionActivityPanel -->
<g id="node7" class="node"><title>topo.tkgui.projectionpanel.ProjectionActivityPanel</title>
<polygon fill="none" stroke="black" stroke-width="0.5" points="2347,-162.5 2097,-162.5 2097,-141.5 2347,-141.5 2347,-162.5"/>
<text text-anchor="middle" x="2222" y="-149.5" font-family="Vera" font-size="10.00">topo.tkgui.projectionpanel.ProjectionActivityPanel</text>
</g>
<!-- topo.tkgui.projectionpanel.ProjectionSheetPanel -->
<g id="node8" class="node"><title>topo.tkgui.projectionpanel.ProjectionSheetPanel</title>
<polygon fill="none" stroke="black" stroke-width="0.5" points="2059,-124.5 1815,-124.5 1815,-103.5 2059,-103.5 2059,-124.5"/>
<text text-anchor="middle" x="1937" y="-111.5" font-family="Vera" font-size="10.00">topo.tkgui.projectionpanel.ProjectionSheetPanel</text>
</g>
<!-- topo.tkgui.projectionpanel.ProjectionSheetPanel&#45;&gt;topo.tkgui.projectionpanel.ProjectionActivityPanel -->
<g id="edge6" class="edge"><title>topo.tkgui.projectionpanel.ProjectionSheetPanel&#45;&gt;topo.tkgui.projectionpanel.ProjectionActivityPanel</title>
<path fill="none" stroke="black" stroke-width="0.5" d="M2012.25,-124.034C2052.03,-129.337 2100.87,-135.849 2141.41,-141.255"/>
<polygon fill="black" stroke="black" points="2141.63,-143.05 2146.82,-141.976 2142.09,-139.58 2141.63,-143.05"/>
</g>
<!-- topo.tkgui.projectionpanel.UnitsPanel -->
<g id="node14" class="node"><title>topo.tkgui.projectionpanel.UnitsPanel</title>
<polygon fill="none" stroke="black" stroke-width="0.5" points="2319,-124.5 2125,-124.5 2125,-103.5 2319,-103.5 2319,-124.5"/>
<text text-anchor="middle" x="2222" y="-111.5" font-family="Vera" font-size="10.00">topo.tkgui.projectionpanel.UnitsPanel</text>
</g>
<!-- topo.tkgui.projectionpanel.ProjectionSheetPanel&#45;&gt;topo.tkgui.projectionpanel.UnitsPanel -->
<g id="edge26" class="edge"><title>topo.tkgui.projectionpanel.ProjectionSheetPanel&#45;&gt;topo.tkgui.projectionpanel.UnitsPanel</title>
<path fill="none" stroke="black" stroke-width="0.5" d="M2059.52,-114C2079.52,-114 2100.05,-114 2119.5,-114"/>
<polygon fill="black" stroke="black" points="2119.95,-115.75 2124.95,-114 2119.95,-112.25 2119.95,-115.75"/>
</g>
<!-- topo.tkgui.projectionpanel.PlotMatrixPanel -->
<g id="node21" class="node"><title>topo.tkgui.projectionpanel.PlotMatrixPanel</title>
<polygon fill="none" stroke="black" stroke-width="0.5" points="2330,-86.5 2114,-86.5 2114,-65.5 2330,-65.5 2330,-86.5"/>
<text text-anchor="middle" x="2222" y="-73.5" font-family="Vera" font-size="10.00">topo.tkgui.projectionpanel.PlotMatrixPanel</text>
</g>
<!-- topo.tkgui.projectionpanel.ProjectionSheetPanel&#45;&gt;topo.tkgui.projectionpanel.PlotMatrixPanel -->
<g id="edge16" class="edge"><title>topo.tkgui.projectionpanel.ProjectionSheetPanel&#45;&gt;topo.tkgui.projectionpanel.PlotMatrixPanel</title>
<path fill="none" stroke="black" stroke-width="0.5" d="M2012.25,-103.966C2052.03,-98.6631 2100.87,-92.1509 2141.41,-86.7453"/>
<polygon fill="black" stroke="black" points="2142.09,-88.4196 2146.82,-86.024 2141.63,-84.9503 2142.09,-88.4196"/>
</g>
<!-- Tkinter.Misc -->
<g id="node10" class="node"><title>Tkinter.Misc</title>
<polygon fill="none" stroke="black" stroke-width="0.5" points="72,-20.5 2.84217e-14,-20.5 0,0.5 72,0.5 72,-20.5"/>
<text text-anchor="middle" x="36" y="-7.5" font-family="Vera" font-size="10.00">Tkinter.Misc</text>
</g>
<!-- Tkinter.BaseWidget -->
<g id="node33" class="node"><title>Tkinter.BaseWidget</title>
<polygon fill="none" stroke="black" stroke-width="0.5" points="258,-20.5 152,-20.5 152,0.5 258,0.5 258,-20.5"/>
<text text-anchor="middle" x="205" y="-7.5" font-family="Vera" font-size="10.00">Tkinter.BaseWidget</text>
</g>
<!-- Tkinter.Misc&#45;&gt;Tkinter.BaseWidget -->
<g id="edge28" class="edge"><title>Tkinter.Misc&#45;&gt;Tkinter.BaseWidget</title>
<path fill="none" stroke="black" stroke-width="0.5" d="M72.2547,-10C93.805,-10 121.651,-10 146.27,-10"/>
<polygon fill="black" stroke="black" points="146.471,-11.7501 151.471,-10 146.471,-8.2501 146.471,-11.7501"/>
</g>
<!-- topo.tkgui.templateplotgrouppanel.SheetPanel -->
<g id="node11" class="node"><title>topo.tkgui.templateplotgrouppanel.SheetPanel</title>
<polygon fill="none" stroke="black" stroke-width="0.5" points="1778,-124.5 1538,-124.5 1538,-103.5 1778,-103.5 1778,-124.5"/>
<text text-anchor="middle" x="1658" y="-111.5" font-family="Vera" font-size="10.00">topo.tkgui.templateplotgrouppanel.SheetPanel</text>
</g>
<!-- topo.tkgui.templateplotgrouppanel.SheetPanel&#45;&gt;topo.tkgui.projectionpanel.ProjectionSheetPanel -->
<g id="edge8" class="edge"><title>topo.tkgui.templateplotgrouppanel.SheetPanel&#45;&gt;topo.tkgui.projectionpanel.ProjectionSheetPanel</title>
<path fill="none" stroke="black" stroke-width="0.5" d="M1778.35,-114C1788.61,-114 1799.02,-114 1809.34,-114"/>
<polygon fill="black" stroke="black" points="1809.4,-115.75 1814.4,-114 1809.4,-112.25 1809.4,-115.75"/>
</g>
<!-- topo.tkgui.projectionpanel.ConnectionFieldsPanel -->
<g id="node13" class="node"><title>topo.tkgui.projectionpanel.ConnectionFieldsPanel</title>
<polygon fill="none" stroke="black" stroke-width="0.5" points="2634,-124.5 2384,-124.5 2384,-103.5 2634,-103.5 2634,-124.5"/>
<text text-anchor="middle" x="2509" y="-111.5" font-family="Vera" font-size="10.00">topo.tkgui.projectionpanel.ConnectionFieldsPanel</text>
</g>
<!-- topo.tkgui.projectionpanel.UnitsPanel&#45;&gt;topo.tkgui.projectionpanel.ConnectionFieldsPanel -->
<g id="edge10" class="edge"><title>topo.tkgui.projectionpanel.UnitsPanel&#45;&gt;topo.tkgui.projectionpanel.ConnectionFieldsPanel</title>
<path fill="none" stroke="black" stroke-width="0.5" d="M2319.17,-114C2338.35,-114 2358.78,-114 2378.86,-114"/>
<polygon fill="black" stroke="black" points="2378.95,-115.75 2383.95,-114 2378.95,-112.25 2378.95,-115.75"/>
</g>
<!-- topo.tkgui.templateplotgrouppanel.TemplatePlotGroupPanel -->
<g id="node16" class="node"><title>topo.tkgui.templateplotgrouppanel.TemplatePlotGroupPanel</title>
<polygon fill="none" stroke="black" stroke-width="0.5" points="1502,-124.5 1200,-124.5 1200,-103.5 1502,-103.5 1502,-124.5"/>
<text text-anchor="middle" x="1351" y="-111.5" font-family="Vera" font-size="10.00">topo.tkgui.templateplotgrouppanel.TemplatePlotGroupPanel</text>
</g>
<!-- topo.tkgui.templateplotgrouppanel.TemplatePlotGroupPanel&#45;&gt;topo.tkgui.templateplotgrouppanel.SheetPanel -->
<g id="edge40" class="edge"><title>topo.tkgui.templateplotgrouppanel.TemplatePlotGroupPanel&#45;&gt;topo.tkgui.templateplotgrouppanel.SheetPanel</title>
<path fill="none" stroke="black" stroke-width="0.5" d="M1502.25,-114C1512.43,-114 1522.63,-114 1532.66,-114"/>
<polygon fill="black" stroke="black" points="1532.89,-115.75 1537.89,-114 1532.89,-112.25 1532.89,-115.75"/>
</g>
<!-- topo.tkgui.plotgrouppanel.SheetPanel -->
<g id="node17" class="node"><title>topo.tkgui.plotgrouppanel.SheetPanel</title>
<polygon fill="none" stroke="black" stroke-width="0.5" points="1163,-124.5 967,-124.5 967,-103.5 1163,-103.5 1163,-124.5"/>
<text text-anchor="middle" x="1065" y="-111.5" font-family="Vera" font-size="10.00">topo.tkgui.plotgrouppanel.SheetPanel</text>
</g>
<!-- topo.tkgui.plotgrouppanel.SheetPanel&#45;&gt;topo.tkgui.templateplotgrouppanel.TemplatePlotGroupPanel -->
<g id="edge12" class="edge"><title>topo.tkgui.plotgrouppanel.SheetPanel&#45;&gt;topo.tkgui.templateplotgrouppanel.TemplatePlotGroupPanel</title>
<path fill="none" stroke="black" stroke-width="0.5" d="M1163.83,-114C1173.89,-114 1184.27,-114 1194.75,-114"/>
<polygon fill="black" stroke="black" points="1194.9,-115.75 1199.9,-114 1194.9,-112.25 1194.9,-115.75"/>
</g>
<!-- topo.tkgui.plotgrouppanel.PlotGroupPanel&#45;&gt;topo.tkgui.plotgrouppanel.SheetPanel -->
<g id="edge14" class="edge"><title>topo.tkgui.plotgrouppanel.PlotGroupPanel&#45;&gt;topo.tkgui.plotgrouppanel.SheetPanel</title>
<path fill="none" stroke="black" stroke-width="0.5" d="M929.645,-114C940.118,-114 950.73,-114 961.165,-114"/>
<polygon fill="black" stroke="black" points="961.272,-115.75 966.272,-114 961.272,-112.25 961.272,-115.75"/>
</g>
<!-- topo.tkgui.projectionpanel.ProjectionPanel -->
<g id="node23" class="node"><title>topo.tkgui.projectionpanel.ProjectionPanel</title>
<polygon fill="none" stroke="black" stroke-width="0.5" points="2617,-86.5 2401,-86.5 2401,-65.5 2617,-65.5 2617,-86.5"/>
<text text-anchor="middle" x="2509" y="-73.5" font-family="Vera" font-size="10.00">topo.tkgui.projectionpanel.ProjectionPanel</text>
</g>
<!-- topo.tkgui.projectionpanel.PlotMatrixPanel&#45;&gt;topo.tkgui.projectionpanel.ProjectionPanel -->
<g id="edge18" class="edge"><title>topo.tkgui.projectionpanel.PlotMatrixPanel&#45;&gt;topo.tkgui.projectionpanel.ProjectionPanel</title>
<path fill="none" stroke="black" stroke-width="0.5" d="M2330.5,-76C2351.66,-76 2373.91,-76 2395.23,-76"/>
<polygon fill="black" stroke="black" points="2395.34,-77.7501 2400.34,-76 2395.34,-74.2501 2395.34,-77.7501"/>
</g>
<!-- topo.tkgui.projectionpanel.RFProjectionPanel -->
<g id="node39" class="node"><title>topo.tkgui.projectionpanel.RFProjectionPanel</title>
<polygon fill="none" stroke="black" stroke-width="0.5" points="2623,-48.5 2395,-48.5 2395,-27.5 2623,-27.5 2623,-48.5"/>
<text text-anchor="middle" x="2509" y="-35.5" font-family="Vera" font-size="10.00">topo.tkgui.projectionpanel.RFProjectionPanel</text>
</g>
<!-- topo.tkgui.projectionpanel.PlotMatrixPanel&#45;&gt;topo.tkgui.projectionpanel.RFProjectionPanel -->
<g id="edge38" class="edge"><title>topo.tkgui.projectionpanel.PlotMatrixPanel&#45;&gt;topo.tkgui.projectionpanel.RFProjectionPanel</title>
<path fill="none" stroke="black" stroke-width="0.5" d="M2297.78,-65.9662C2337.83,-60.6631 2387.02,-54.1509 2427.85,-48.7453"/>
<polygon fill="black" stroke="black" points="2428.57,-50.4153 2433.29,-48.024 2428.11,-46.9456 2428.57,-50.4153"/>
</g>
<!-- topo.tkgui.projectionpanel.CFProjectionPanel -->
<g id="node42" class="node"><title>topo.tkgui.projectionpanel.CFProjectionPanel</title>
<polygon fill="none" stroke="black" stroke-width="0.5" points="2899,-86.5 2671,-86.5 2671,-65.5 2899,-65.5 2899,-86.5"/>
<text text-anchor="middle" x="2785" y="-73.5" font-family="Vera" font-size="10.00">topo.tkgui.projectionpanel.CFProjectionPanel</text>
</g>
<!-- topo.tkgui.projectionpanel.ProjectionPanel&#45;&gt;topo.tkgui.projectionpanel.CFProjectionPanel -->
<g id="edge42" class="edge"><title>topo.tkgui.projectionpanel.ProjectionPanel&#45;&gt;topo.tkgui.projectionpanel.CFProjectionPanel</title>
<path fill="none" stroke="black" stroke-width="0.5" d="M2617.69,-76C2633.14,-76 2649.1,-76 2664.76,-76"/>
<polygon fill="black" stroke="black" points="2665.05,-77.7501 2670.05,-76 2665.05,-74.2501 2665.05,-77.7501"/>
</g>
<!-- paramtk.TkParameterized&#45;&gt;topo.tkgui.plotgrouppanel.PlotGroupPanel -->
<g id="edge20" class="edge"><title>paramtk.TkParameterized&#45;&gt;topo.tkgui.plotgrouppanel.PlotGroupPanel</title>
<path fill="none" stroke="black" stroke-width="0.5" d="M678.072,-130.142C693.869,-128.37 710.89,-126.461 727.503,-124.598"/>
<polygon fill="black" stroke="black" points="727.871,-126.318 732.644,-124.021 727.48,-122.839 727.871,-126.318"/>
</g>
<!-- Tkinter.Pack -->
<g id="node28" class="node"><title>Tkinter.Pack</title>
<polygon fill="none" stroke="black" stroke-width="0.5" points="241,-134.5 169,-134.5 169,-113.5 241,-113.5 241,-134.5"/>
<text text-anchor="middle" x="205" y="-121.5" font-family="Vera" font-size="10.00">Tkinter.Pack</text>
</g>
<!-- Tkinter.Pack&#45;&gt;Tkinter.Widget -->
<g id="edge32" class="edge"><title>Tkinter.Pack&#45;&gt;Tkinter.Widget</title>
<path fill="none" stroke="black" stroke-width="0.5" d="M241.96,-117.468C278.269,-111.05 333.801,-101.235 373.179,-94.2753"/>
<polygon fill="black" stroke="black" points="373.764,-95.9492 378.383,-93.3556 373.154,-92.5027 373.764,-95.9492"/>
</g>
<!-- Tkinter.Place -->
<g id="node30" class="node"><title>Tkinter.Place</title>
<polygon fill="none" stroke="black" stroke-width="0.5" points="243,-96.5 167,-96.5 167,-75.5 243,-75.5 243,-96.5"/>
<text text-anchor="middle" x="205" y="-83.5" font-family="Vera" font-size="10.00">Tkinter.Place</text>
</g>
<!-- Tkinter.Place&#45;&gt;Tkinter.Widget -->
<g id="edge34" class="edge"><title>Tkinter.Place&#45;&gt;Tkinter.Widget</title>
<path fill="none" stroke="black" stroke-width="0.5" d="M243.935,-86C280.299,-86 334.629,-86 373.308,-86"/>
<polygon fill="black" stroke="black" points="373.42,-87.7501 378.42,-86 373.42,-84.2501 373.42,-87.7501"/>
</g>
<!-- Tkinter.Grid -->
<g id="node31" class="node"><title>Tkinter.Grid</title>
<polygon fill="none" stroke="black" stroke-width="0.5" points="240,-58.5 170,-58.5 170,-37.5 240,-37.5 240,-58.5"/>
<text text-anchor="middle" x="205" y="-45.5" font-family="Vera" font-size="10.00">Tkinter.Grid</text>
</g>
<!-- Tkinter.Grid&#45;&gt;Tkinter.Widget -->
<g id="edge36" class="edge"><title>Tkinter.Grid&#45;&gt;Tkinter.Widget</title>
<path fill="none" stroke="black" stroke-width="0.5" d="M240.503,-54.2749C276.687,-60.6702 333.012,-70.6253 372.905,-77.6762"/>
<polygon fill="black" stroke="black" points="372.947,-79.4607 378.175,-78.6077 373.556,-76.0141 372.947,-79.4607"/>
</g>
<!-- Tkinter.BaseWidget&#45;&gt;Tkinter.Widget -->
<g id="edge30" class="edge"><title>Tkinter.BaseWidget&#45;&gt;Tkinter.Widget</title>
<path fill="none" stroke="black" stroke-width="0.5" d="M258.75,-17.9833C273,-20.7869 288.243,-24.4151 302,-29 337.006,-40.6672 375.019,-60.4296 398.178,-73.3469"/>
<polygon fill="black" stroke="black" points="397.39,-74.9115 402.607,-75.8347 399.105,-71.86 397.39,-74.9115"/>
</g>
</g>
</svg>
