<?xml version="1.0" encoding="UTF-8" standalone="no"?>
<!DOCTYPE svg PUBLIC "-//W3C//DTD SVG 1.1//EN"
 "http://www.w3.org/Graphics/SVG/1.1/DTD/svg11.dtd">
<!-- Generated by graphviz version 2.26.3 (20100126.1600)
 -->
<!-- Title: inheritance0f827376bc Pages: 1 -->
<svg width="2194pt" height="294pt"
 viewBox="0.00 0.00 2194.00 294.00" xmlns="http://www.w3.org/2000/svg" xmlns:xlink="http://www.w3.org/1999/xlink">
<g id="graph1" class="graph" transform="scale(1 1) rotate(0) translate(4 290)">
<title>inheritance0f827376bc</title>
<polygon fill="white" stroke="white" points="-4,5 -4,-290 2191,-290 2191,5 -4,5"/>
<!-- topo.analysis.featureresponses.Feature -->
<g id="node1" class="node"><title>topo.analysis.featureresponses.Feature</title>
<polygon fill="none" stroke="black" stroke-width="0.5" points="460,-286.5 254,-286.5 254,-265.5 460,-265.5 460,-286.5"/>
<text text-anchor="middle" x="357" y="-273.5" font-family="Vera" font-size="10.00">topo.analysis.featureresponses.Feature</text>
</g>
<!-- param.parameterized.Parameterized -->
<g id="node2" class="node"><title>param.parameterized.Parameterized</title>
<polygon fill="none" stroke="black" stroke-width="0.5" points="194,-172.5 5.68434e-14,-172.5 0,-151.5 194,-151.5 194,-172.5"/>
<text text-anchor="middle" x="97" y="-159.5" font-family="Vera" font-size="10.00">param.parameterized.Parameterized</text>
</g>
<!-- param.parameterized.Parameterized&#45;&gt;topo.analysis.featureresponses.Feature -->
<g id="edge2" class="edge"><title>param.parameterized.Parameterized&#45;&gt;topo.analysis.featureresponses.Feature</title>
<path fill="none" stroke="black" stroke-width="0.5" d="M107.318,-172.077C128.386,-191.991 178.705,-236.251 230,-257 237.445,-260.012 245.31,-262.552 253.328,-264.694"/>
<polygon fill="black" stroke="black" points="253.06,-266.431 258.338,-265.976 253.929,-263.041 253.06,-266.431"/>
</g>
<!-- topo.analysis.featureresponses.Subplotting -->
<g id="node7" class="node"><title>topo.analysis.featureresponses.Subplotting</title>
<polygon fill="none" stroke="black" stroke-width="0.5" points="469,-248.5 245,-248.5 245,-227.5 469,-227.5 469,-248.5"/>
<text text-anchor="middle" x="357" y="-235.5" font-family="Vera" font-size="10.00">topo.analysis.featureresponses.Subplotting</text>
</g>
<!-- param.parameterized.Parameterized&#45;&gt;topo.analysis.featureresponses.Subplotting -->
<g id="edge6" class="edge"><title>param.parameterized.Parameterized&#45;&gt;topo.analysis.featureresponses.Subplotting</title>
<path fill="none" stroke="black" stroke-width="0.5" d="M116.253,-172.123C141.62,-185.018 187.951,-207.059 230,-219 241.071,-222.144 252.842,-224.793 264.58,-227.018"/>
<polygon fill="black" stroke="black" points="264.372,-228.759 269.607,-227.946 265.007,-225.317 264.372,-228.759"/>
</g>
<!-- topo.analysis.featureresponses.PatternPresenter -->
<g id="node11" class="node"><title>topo.analysis.featureresponses.PatternPresenter</title>
<polygon fill="none" stroke="black" stroke-width="0.5" points="482,-210.5 232,-210.5 232,-189.5 482,-189.5 482,-210.5"/>
<text text-anchor="middle" x="357" y="-197.5" font-family="Vera" font-size="10.00">topo.analysis.featureresponses.PatternPresenter</text>
</g>
<!-- param.parameterized.Parameterized&#45;&gt;topo.analysis.featureresponses.PatternPresenter -->
<g id="edge10" class="edge"><title>param.parameterized.Parameterized&#45;&gt;topo.analysis.featureresponses.PatternPresenter</title>
<path fill="none" stroke="black" stroke-width="0.5" d="M165.652,-172.034C201.788,-177.315 246.13,-183.796 283.027,-189.189"/>
<polygon fill="black" stroke="black" points="283.214,-190.984 288.414,-189.976 283.72,-187.521 283.214,-190.984"/>
</g>
<!-- topo.analysis.featureresponses.DistributionMatrix -->
<g id="node16" class="node"><title>topo.analysis.featureresponses.DistributionMatrix</title>
<polygon fill="none" stroke="black" stroke-width="0.5" points="484,-172.5 230,-172.5 230,-151.5 484,-151.5 484,-172.5"/>
<text text-anchor="middle" x="357" y="-159.5" font-family="Vera" font-size="10.00">topo.analysis.featureresponses.DistributionMatrix</text>
</g>
<!-- param.parameterized.Parameterized&#45;&gt;topo.analysis.featureresponses.DistributionMatrix -->
<g id="edge14" class="edge"><title>param.parameterized.Parameterized&#45;&gt;topo.analysis.featureresponses.DistributionMatrix</title>
<path fill="none" stroke="black" stroke-width="0.5" d="M194.184,-162C204.224,-162 214.544,-162 224.882,-162"/>
<polygon fill="black" stroke="black" points="224.957,-163.75 229.957,-162 224.957,-160.25 224.957,-163.75"/>
</g>
<!-- param.parameterized.ParameterizedFunction -->
<g id="node20" class="node"><title>param.parameterized.ParameterizedFunction</title>
<polygon fill="none" stroke="black" stroke-width="0.5" points="474,-134.5 240,-134.5 240,-113.5 474,-113.5 474,-134.5"/>
<text text-anchor="middle" x="357" y="-121.5" font-family="Vera" font-size="10.00">param.parameterized.ParameterizedFunction</text>
</g>
<!-- param.parameterized.Parameterized&#45;&gt;param.parameterized.ParameterizedFunction -->
<g id="edge22" class="edge"><title>param.parameterized.Parameterized&#45;&gt;param.parameterized.ParameterizedFunction</title>
<path fill="none" stroke="black" stroke-width="0.5" d="M165.652,-151.966C201.788,-146.685 246.13,-140.204 283.027,-134.811"/>
<polygon fill="black" stroke="black" points="283.72,-136.479 288.414,-134.024 283.214,-133.016 283.72,-136.479"/>
</g>
<!-- topo.analysis.featureresponses.FullMatrix -->
<g id="node28" class="node"><title>topo.analysis.featureresponses.FullMatrix</title>
<polygon fill="none" stroke="black" stroke-width="0.5" points="464,-96.5 250,-96.5 250,-75.5 464,-75.5 464,-96.5"/>
<text text-anchor="middle" x="357" y="-83.5" font-family="Vera" font-size="10.00">topo.analysis.featureresponses.FullMatrix</text>
</g>
<!-- param.parameterized.Parameterized&#45;&gt;topo.analysis.featureresponses.FullMatrix -->
<g id="edge26" class="edge"><title>param.parameterized.Parameterized&#45;&gt;topo.analysis.featureresponses.FullMatrix</title>
<path fill="none" stroke="black" stroke-width="0.5" d="M116.253,-151.877C141.62,-138.982 187.951,-116.941 230,-105 241.071,-101.856 252.842,-99.2072 264.58,-96.982"/>
<polygon fill="black" stroke="black" points="265.007,-98.6827 269.607,-96.054 264.372,-95.2409 265.007,-98.6827"/>
</g>
<!-- topo.base.functionfamily.PatternDrivenAnalysis -->
<g id="node32" class="node"><title>topo.base.functionfamily.PatternDrivenAnalysis</title>
<polygon fill="none" stroke="black" stroke-width="0.5" points="477,-58.5 237,-58.5 237,-37.5 477,-37.5 477,-58.5"/>
<text text-anchor="middle" x="357" y="-45.5" font-family="Vera" font-size="10.00">topo.base.functionfamily.PatternDrivenAnalysis</text>
</g>
<!-- param.parameterized.Parameterized&#45;&gt;topo.base.functionfamily.PatternDrivenAnalysis -->
<g id="edge30" class="edge"><title>param.parameterized.Parameterized&#45;&gt;topo.base.functionfamily.PatternDrivenAnalysis</title>
<path fill="none" stroke="black" stroke-width="0.5" d="M107.318,-151.923C128.386,-132.009 178.705,-87.7487 230,-67 237.445,-63.9885 245.31,-61.4483 253.328,-59.3064"/>
<polygon fill="black" stroke="black" points="253.929,-60.9592 258.338,-58.0236 253.06,-57.5686 253.929,-60.9592"/>
</g>
<!-- topo.analysis.featureresponses.SingleInputResponseCommand -->
<g id="node4" class="node"><title>topo.analysis.featureresponses.SingleInputResponseCommand</title>
<polygon fill="none" stroke="black" stroke-width="0.5" points="1543,-210.5 1225,-210.5 1225,-189.5 1543,-189.5 1543,-210.5"/>
<text text-anchor="middle" x="1384" y="-197.5" font-family="Vera" font-size="10.00">topo.analysis.featureresponses.SingleInputResponseCommand</text>
</g>
<!-- topo.analysis.featureresponses.MeasureResponseCommand -->
<g id="node5" class="node"><title>topo.analysis.featureresponses.MeasureResponseCommand</title>
<polygon fill="none" stroke="black" stroke-width="0.5" points="1169,-172.5 863,-172.5 863,-151.5 1169,-151.5 1169,-172.5"/>
<text text-anchor="middle" x="1016" y="-159.5" font-family="Vera" font-size="10.00">topo.analysis.featureresponses.MeasureResponseCommand</text>
</g>
<!-- topo.analysis.featureresponses.MeasureResponseCommand&#45;&gt;topo.analysis.featureresponses.SingleInputResponseCommand -->
<g id="edge4" class="edge"><title>topo.analysis.featureresponses.MeasureResponseCommand&#45;&gt;topo.analysis.featureresponses.SingleInputResponseCommand</title>
<path fill="none" stroke="black" stroke-width="0.5" d="M1113.17,-172.034C1165.15,-177.402 1229.14,-184.009 1281.86,-189.453"/>
<polygon fill="black" stroke="black" points="1281.77,-191.203 1286.93,-189.976 1282.13,-187.722 1281.77,-191.203"/>
</g>
<!-- topo.analysis.featureresponses.PositionMeasurementCommand -->
<g id="node26" class="node"><title>topo.analysis.featureresponses.PositionMeasurementCommand</title>
<polygon fill="none" stroke="black" stroke-width="0.5" points="1546,-172.5 1222,-172.5 1222,-151.5 1546,-151.5 1546,-172.5"/>
<text text-anchor="middle" x="1384" y="-159.5" font-family="Vera" font-size="10.00">topo.analysis.featureresponses.PositionMeasurementCommand</text>
</g>
<!-- topo.analysis.featureresponses.MeasureResponseCommand&#45;&gt;topo.analysis.featureresponses.PositionMeasurementCommand -->
<g id="edge24" class="edge"><title>topo.analysis.featureresponses.MeasureResponseCommand&#45;&gt;topo.analysis.featureresponses.PositionMeasurementCommand</title>
<path fill="none" stroke="black" stroke-width="0.5" d="M1169.67,-162C1185.16,-162 1200.95,-162 1216.58,-162"/>
<polygon fill="black" stroke="black" points="1216.87,-163.75 1221.87,-162 1216.87,-160.25 1216.87,-163.75"/>
</g>
<!-- topo.analysis.featureresponses.SinusoidalMeasureResponseCommand -->
<g id="node34" class="node"><title>topo.analysis.featureresponses.SinusoidalMeasureResponseCommand</title>
<polygon fill="none" stroke="black" stroke-width="0.5" points="1562,-134.5 1206,-134.5 1206,-113.5 1562,-113.5 1562,-134.5"/>
<text text-anchor="middle" x="1384" y="-121.5" font-family="Vera" font-size="10.00">topo.analysis.featureresponses.SinusoidalMeasureResponseCommand</text>
</g>
<!-- topo.analysis.featureresponses.MeasureResponseCommand&#45;&gt;topo.analysis.featureresponses.SinusoidalMeasureResponseCommand -->
<g id="edge34" class="edge"><title>topo.analysis.featureresponses.MeasureResponseCommand&#45;&gt;topo.analysis.featureresponses.SinusoidalMeasureResponseCommand</title>
<path fill="none" stroke="black" stroke-width="0.5" d="M1113.17,-151.966C1165.15,-146.598 1229.14,-139.991 1281.86,-134.547"/>
<polygon fill="black" stroke="black" points="1282.13,-136.278 1286.93,-134.024 1281.77,-132.797 1282.13,-136.278"/>
</g>
<!-- topo.analysis.featureresponses.PatternPresentingCommand -->
<g id="node9" class="node"><title>topo.analysis.featureresponses.PatternPresentingCommand</title>
<polygon fill="none" stroke="black" stroke-width="0.5" points="825,-134.5 521,-134.5 521,-113.5 825,-113.5 825,-134.5"/>
<text text-anchor="middle" x="673" y="-121.5" font-family="Vera" font-size="10.00">topo.analysis.featureresponses.PatternPresentingCommand</text>
</g>
<!-- topo.analysis.featureresponses.PatternPresentingCommand&#45;&gt;topo.analysis.featureresponses.MeasureResponseCommand -->
<g id="edge8" class="edge"><title>topo.analysis.featureresponses.PatternPresentingCommand&#45;&gt;topo.analysis.featureresponses.MeasureResponseCommand</title>
<path fill="none" stroke="black" stroke-width="0.5" d="M763.568,-134.034C811.924,-139.391 871.418,-145.982 920.5,-151.42"/>
<polygon fill="black" stroke="black" points="920.357,-153.165 925.52,-151.976 920.743,-149.686 920.357,-153.165"/>
</g>
<!-- topo.analysis.featureresponses.pattern_response -->
<g id="node18" class="node"><title>topo.analysis.featureresponses.pattern_response</title>
<polygon fill="none" stroke="black" stroke-width="0.5" points="1143,-134.5 889,-134.5 889,-113.5 1143,-113.5 1143,-134.5"/>
<text text-anchor="middle" x="1016" y="-121.5" font-family="Vera" font-size="10.00">topo.analysis.featureresponses.pattern_response</text>
</g>
<!-- topo.analysis.featureresponses.PatternPresentingCommand&#45;&gt;topo.analysis.featureresponses.pattern_response -->
<g id="edge16" class="edge"><title>topo.analysis.featureresponses.PatternPresentingCommand&#45;&gt;topo.analysis.featureresponses.pattern_response</title>
<path fill="none" stroke="black" stroke-width="0.5" d="M825.942,-124C845.129,-124 864.629,-124 883.468,-124"/>
<polygon fill="black" stroke="black" points="883.763,-125.75 888.763,-124 883.763,-122.25 883.763,-125.75"/>
</g>
<!-- topo.analysis.featureresponses.UnitCurveCommand -->
<g id="node13" class="node"><title>topo.analysis.featureresponses.UnitCurveCommand</title>
<polygon fill="none" stroke="black" stroke-width="0.5" points="2185,-134.5 1919,-134.5 1919,-113.5 2185,-113.5 2185,-134.5"/>
<text text-anchor="middle" x="2052" y="-121.5" font-family="Vera" font-size="10.00">topo.analysis.featureresponses.UnitCurveCommand</text>
</g>
<!-- topo.analysis.featureresponses.FeatureCurveCommand -->
<g id="node14" class="node"><title>topo.analysis.featureresponses.FeatureCurveCommand</title>
<polygon fill="none" stroke="black" stroke-width="0.5" points="1882,-134.5 1598,-134.5 1598,-113.5 1882,-113.5 1882,-134.5"/>
<text text-anchor="middle" x="1740" y="-121.5" font-family="Vera" font-size="10.00">topo.analysis.featureresponses.FeatureCurveCommand</text>
</g>
<!-- topo.analysis.featureresponses.FeatureCurveCommand&#45;&gt;topo.analysis.featureresponses.UnitCurveCommand -->
<g id="edge12" class="edge"><title>topo.analysis.featureresponses.FeatureCurveCommand&#45;&gt;topo.analysis.featureresponses.UnitCurveCommand</title>
<path fill="none" stroke="black" stroke-width="0.5" d="M1882.3,-124C1892.43,-124 1902.64,-124 1912.75,-124"/>
<polygon fill="black" stroke="black" points="1913.03,-125.75 1918.03,-124 1913.03,-122.25 1913.03,-125.75"/>
</g>
<!-- param.parameterized.ParameterizedFunction&#45;&gt;topo.analysis.featureresponses.PatternPresentingCommand -->
<g id="edge18" class="edge"><title>param.parameterized.ParameterizedFunction&#45;&gt;topo.analysis.featureresponses.PatternPresentingCommand</title>
<path fill="none" stroke="black" stroke-width="0.5" d="M474.218,-124C487.593,-124 501.386,-124 515.178,-124"/>
<polygon fill="black" stroke="black" points="515.259,-125.75 520.259,-124 515.259,-122.25 515.259,-125.75"/>
</g>
<!-- topo.analysis.featureresponses.FeatureMaps -->
<g id="node22" class="node"><title>topo.analysis.featureresponses.FeatureMaps</title>
<polygon fill="none" stroke="black" stroke-width="0.5" points="1131,-96.5 901,-96.5 901,-75.5 1131,-75.5 1131,-96.5"/>
<text text-anchor="middle" x="1016" y="-83.5" font-family="Vera" font-size="10.00">topo.analysis.featureresponses.FeatureMaps</text>
</g>
<!-- topo.analysis.featureresponses.FeatureResponses -->
<g id="node23" class="node"><title>topo.analysis.featureresponses.FeatureResponses</title>
<polygon fill="none" stroke="black" stroke-width="0.5" points="801,-58.5 545,-58.5 545,-37.5 801,-37.5 801,-58.5"/>
<text text-anchor="middle" x="673" y="-45.5" font-family="Vera" font-size="10.00">topo.analysis.featureresponses.FeatureResponses</text>
</g>
<!-- topo.analysis.featureresponses.FeatureResponses&#45;&gt;topo.analysis.featureresponses.FeatureMaps -->
<g id="edge20" class="edge"><title>topo.analysis.featureresponses.FeatureResponses&#45;&gt;topo.analysis.featureresponses.FeatureMaps</title>
<path fill="none" stroke="black" stroke-width="0.5" d="M763.568,-58.0338C811.924,-63.391 871.418,-69.9821 920.5,-75.4199"/>
<polygon fill="black" stroke="black" points="920.357,-77.1647 925.52,-75.976 920.743,-73.6859 920.357,-77.1647"/>
</g>
<!-- topo.analysis.featureresponses.FeatureCurves -->
<g id="node30" class="node"><title>topo.analysis.featureresponses.FeatureCurves</title>
<polygon fill="none" stroke="black" stroke-width="0.5" points="1135,-58.5 897,-58.5 897,-37.5 1135,-37.5 1135,-58.5"/>
<text text-anchor="middle" x="1016" y="-45.5" font-family="Vera" font-size="10.00">topo.analysis.featureresponses.FeatureCurves</text>
</g>
<!-- topo.analysis.featureresponses.FeatureResponses&#45;&gt;topo.analysis.featureresponses.FeatureCurves -->
<g id="edge28" class="edge"><title>topo.analysis.featureresponses.FeatureResponses&#45;&gt;topo.analysis.featureresponses.FeatureCurves</title>
<path fill="none" stroke="black" stroke-width="0.5" d="M801.696,-48C831.077,-48 862.248,-48 891.451,-48"/>
<polygon fill="black" stroke="black" points="891.499,-49.7501 896.499,-48 891.499,-46.2501 891.499,-49.7501"/>
</g>
<!-- topo.analysis.featureresponses.ReverseCorrelation -->
<g id="node38" class="node"><title>topo.analysis.featureresponses.ReverseCorrelation</title>
<polygon fill="none" stroke="black" stroke-width="0.5" points="1146,-20.5 886,-20.5 886,0.5 1146,0.5 1146,-20.5"/>
<text text-anchor="middle" x="1016" y="-7.5" font-family="Vera" font-size="10.00">topo.analysis.featureresponses.ReverseCorrelation</text>
</g>
<!-- topo.analysis.featureresponses.FeatureResponses&#45;&gt;topo.analysis.featureresponses.ReverseCorrelation -->
<g id="edge38" class="edge"><title>topo.analysis.featureresponses.FeatureResponses&#45;&gt;topo.analysis.featureresponses.ReverseCorrelation</title>
<path fill="none" stroke="black" stroke-width="0.5" d="M763.568,-37.9662C811.924,-32.609 871.418,-26.0179 920.5,-20.5801"/>
<polygon fill="black" stroke="black" points="920.743,-22.3141 925.52,-20.024 920.357,-18.8353 920.743,-22.3141"/>
</g>
<!-- topo.base.functionfamily.PatternDrivenAnalysis&#45;&gt;topo.analysis.featureresponses.FeatureResponses -->
<g id="edge36" class="edge"><title>topo.base.functionfamily.PatternDrivenAnalysis&#45;&gt;topo.analysis.featureresponses.FeatureResponses</title>
<path fill="none" stroke="black" stroke-width="0.5" d="M477.368,-48C497.547,-48 518.595,-48 539.09,-48"/>
<polygon fill="black" stroke="black" points="539.288,-49.7501 544.288,-48 539.288,-46.2501 539.288,-49.7501"/>
</g>
<!-- topo.analysis.featureresponses.SinusoidalMeasureResponseCommand&#45;&gt;topo.analysis.featureresponses.FeatureCurveCommand -->
<g id="edge32" class="edge"><title>topo.analysis.featureresponses.SinusoidalMeasureResponseCommand&#45;&gt;topo.analysis.featureresponses.FeatureCurveCommand</title>
<path fill="none" stroke="black" stroke-width="0.5" d="M1562,-124C1572.21,-124 1582.43,-124 1592.51,-124"/>
<polygon fill="black" stroke="black" points="1592.76,-125.75 1597.76,-124 1592.76,-122.25 1592.76,-125.75"/>
</g>
</g>
</svg>
