<?xml version="1.0" encoding="UTF-8" standalone="no"?>
<!DOCTYPE svg PUBLIC "-//W3C//DTD SVG 1.1//EN"
 "http://www.w3.org/Graphics/SVG/1.1/DTD/svg11.dtd">
<!-- Generated by graphviz version 2.26.3 (20100126.1600)
 -->
<!-- Title: inheritance09fca71fec Pages: 1 -->
<svg width="1140pt" height="227pt"
 viewBox="0.00 0.00 1140.00 227.00" xmlns="http://www.w3.org/2000/svg" xmlns:xlink="http://www.w3.org/1999/xlink">
<g id="graph1" class="graph" transform="scale(1 1) rotate(0) translate(4 223)">
<title>inheritance09fca71fec</title>
<polygon fill="white" stroke="white" points="-4,5 -4,-223 1137,-223 1137,5 -4,5"/>
<!-- topo.tkgui.topoconsole.ControllableMenu -->
<g id="node1" class="node"><title>topo.tkgui.topoconsole.ControllableMenu</title>
<polygon fill="none" stroke="black" stroke-width="0.5" points="1132,-58.5 920,-58.5 920,-37.5 1132,-37.5 1132,-58.5"/>
<text text-anchor="middle" x="1026" y="-45.5" font-family="Vera" font-size="10.00">topo.tkgui.topoconsole.ControllableMenu</text>
</g>
<!-- paramtk.Menu -->
<g id="node2" class="node"><title>paramtk.Menu</title>
<polygon fill="none" stroke="black" stroke-width="0.5" points="846,-58.5 760,-58.5 760,-37.5 846,-37.5 846,-58.5"/>
<text text-anchor="middle" x="803" y="-45.5" font-family="Vera" font-size="10.00">paramtk.Menu</text>
</g>
<!-- paramtk.Menu&#45;&gt;topo.tkgui.topoconsole.ControllableMenu -->
<g id="edge2" class="edge"><title>paramtk.Menu&#45;&gt;topo.tkgui.topoconsole.ControllableMenu</title>
<path fill="none" stroke="black" stroke-width="0.5" d="M846.261,-48C866.009,-48 890.396,-48 914.767,-48"/>
<polygon fill="black" stroke="black" points="914.965,-49.7501 919.965,-48 914.965,-46.2501 914.965,-49.7501"/>
</g>
<!-- param.parameterized.Parameterized -->
<g id="node4" class="node"><title>param.parameterized.Parameterized</title>
<polygon fill="none" stroke="black" stroke-width="0.5" points="446,-200.5 252,-200.5 252,-179.5 446,-179.5 446,-200.5"/>
<text text-anchor="middle" x="349" y="-187.5" font-family="Vera" font-size="10.00">param.parameterized.Parameterized</text>
</g>
<!-- paramtk.TkParameterizedBase -->
<g id="node22" class="node"><title>paramtk.TkParameterizedBase</title>
<polygon fill="none" stroke="black" stroke-width="0.5" points="666,-181.5 502,-181.5 502,-160.5 666,-160.5 666,-181.5"/>
<text text-anchor="middle" x="584" y="-168.5" font-family="Vera" font-size="10.00">paramtk.TkParameterizedBase</text>
</g>
<!-- param.parameterized.Parameterized&#45;&gt;paramtk.TkParameterizedBase -->
<g id="edge18" class="edge"><title>param.parameterized.Parameterized&#45;&gt;paramtk.TkParameterizedBase</title>
<path fill="none" stroke="black" stroke-width="0.5" d="M446.28,-182.135C462.987,-180.784 480.256,-179.388 496.682,-178.06"/>
<polygon fill="black" stroke="black" points="496.908,-179.797 501.75,-177.65 496.626,-176.309 496.908,-179.797"/>
</g>
<!-- topo.tkgui.topoconsole.PlotsMenuEntry -->
<g id="node38" class="node"><title>topo.tkgui.topoconsole.PlotsMenuEntry</title>
<polygon fill="none" stroke="black" stroke-width="0.5" points="685,-219.5 483,-219.5 483,-198.5 685,-198.5 685,-219.5"/>
<text text-anchor="middle" x="584" y="-206.5" font-family="Vera" font-size="10.00">topo.tkgui.topoconsole.PlotsMenuEntry</text>
</g>
<!-- param.parameterized.Parameterized&#45;&gt;topo.tkgui.topoconsole.PlotsMenuEntry -->
<g id="edge36" class="edge"><title>param.parameterized.Parameterized&#45;&gt;topo.tkgui.topoconsole.PlotsMenuEntry</title>
<path fill="none" stroke="black" stroke-width="0.5" d="M446.28,-197.865C456.48,-198.69 466.89,-199.532 477.189,-200.364"/>
<polygon fill="black" stroke="black" points="477.11,-202.113 482.235,-200.772 477.392,-198.625 477.11,-202.113"/>
</g>
<!-- paramtk.tilewrapper.Style -->
<g id="node5" class="node"><title>paramtk.tilewrapper.Style</title>
<polygon fill="none" stroke="black" stroke-width="0.5" points="418,-96.5 280,-96.5 280,-75.5 418,-75.5 418,-96.5"/>
<text text-anchor="middle" x="349" y="-83.5" font-family="Vera" font-size="10.00">paramtk.tilewrapper.Style</text>
</g>
<!-- paramtk.tilewrapper.Widget -->
<g id="node25" class="node"><title>paramtk.tilewrapper.Widget</title>
<polygon fill="none" stroke="black" stroke-width="0.5" points="657,-96.5 511,-96.5 511,-75.5 657,-75.5 657,-96.5"/>
<text text-anchor="middle" x="584" y="-83.5" font-family="Vera" font-size="10.00">paramtk.tilewrapper.Widget</text>
</g>
<!-- paramtk.tilewrapper.Style&#45;&gt;paramtk.tilewrapper.Widget -->
<g id="edge22" class="edge"><title>paramtk.tilewrapper.Style&#45;&gt;paramtk.tilewrapper.Widget</title>
<path fill="none" stroke="black" stroke-width="0.5" d="M418.554,-86C445.693,-86 476.951,-86 504.939,-86"/>
<polygon fill="black" stroke="black" points="505.125,-87.7501 510.125,-86 505.125,-84.2501 505.125,-87.7501"/>
</g>
<!-- Tkinter.Menu -->
<g id="node6" class="node"><title>Tkinter.Menu</title>
<polygon fill="none" stroke="black" stroke-width="0.5" points="622,-58.5 546,-58.5 546,-37.5 622,-37.5 622,-58.5"/>
<text text-anchor="middle" x="584" y="-45.5" font-family="Vera" font-size="10.00">Tkinter.Menu</text>
</g>
<!-- Tkinter.Menu&#45;&gt;paramtk.Menu -->
<g id="edge4" class="edge"><title>Tkinter.Menu&#45;&gt;paramtk.Menu</title>
<path fill="none" stroke="black" stroke-width="0.5" d="M622.649,-48C659.432,-48 714.908,-48 754.613,-48"/>
<polygon fill="black" stroke="black" points="754.862,-49.7501 759.862,-48 754.862,-46.2501 754.862,-49.7501"/>
</g>
<!-- Tkinter.Misc -->
<g id="node8" class="node"><title>Tkinter.Misc</title>
<polygon fill="none" stroke="black" stroke-width="0.5" points="72,-134.5 2.84217e-14,-134.5 0,-113.5 72,-113.5 72,-134.5"/>
<text text-anchor="middle" x="36" y="-121.5" font-family="Vera" font-size="10.00">Tkinter.Misc</text>
</g>
<!-- Tkinter.BaseWidget -->
<g id="node11" class="node"><title>Tkinter.BaseWidget</title>
<polygon fill="none" stroke="black" stroke-width="0.5" points="215,-134.5 109,-134.5 109,-113.5 215,-113.5 215,-134.5"/>
<text text-anchor="middle" x="162" y="-121.5" font-family="Vera" font-size="10.00">Tkinter.BaseWidget</text>
</g>
<!-- Tkinter.Misc&#45;&gt;Tkinter.BaseWidget -->
<g id="edge34" class="edge"><title>Tkinter.Misc&#45;&gt;Tkinter.BaseWidget</title>
<path fill="none" stroke="black" stroke-width="0.5" d="M72.1065,-124C81.7306,-124 92.3855,-124 102.895,-124"/>
<polygon fill="black" stroke="black" points="103.038,-125.75 108.038,-124 103.038,-122.25 103.038,-125.75"/>
</g>
<!-- Tkinter.Widget -->
<g id="node9" class="node"><title>Tkinter.Widget</title>
<polygon fill="none" stroke="black" stroke-width="0.5" points="390,-58.5 308,-58.5 308,-37.5 390,-37.5 390,-58.5"/>
<text text-anchor="middle" x="349" y="-45.5" font-family="Vera" font-size="10.00">Tkinter.Widget</text>
</g>
<!-- Tkinter.Widget&#45;&gt;Tkinter.Menu -->
<g id="edge6" class="edge"><title>Tkinter.Widget&#45;&gt;Tkinter.Menu</title>
<path fill="none" stroke="black" stroke-width="0.5" d="M390.743,-48C432.821,-48 497.495,-48 540.269,-48"/>
<polygon fill="black" stroke="black" points="540.373,-49.7501 545.373,-48 540.373,-46.2501 540.373,-49.7501"/>
</g>
<!-- Tkinter.Widget&#45;&gt;paramtk.tilewrapper.Widget -->
<g id="edge20" class="edge"><title>Tkinter.Widget&#45;&gt;paramtk.tilewrapper.Widget</title>
<path fill="none" stroke="black" stroke-width="0.5" d="M390.743,-54.7499C425.581,-60.3833 475.909,-68.5215 516.472,-75.0806"/>
<polygon fill="black" stroke="black" points="516.659,-76.8835 521.875,-75.9542 517.218,-73.4284 516.659,-76.8835"/>
</g>
<!-- Tkinter.BaseWidget&#45;&gt;Tkinter.Widget -->
<g id="edge8" class="edge"><title>Tkinter.BaseWidget&#45;&gt;Tkinter.Widget</title>
<path fill="none" stroke="black" stroke-width="0.5" d="M198.273,-113.923C204.431,-111.47 210.58,-108.515 216,-105 235.519,-92.3407 231.616,-78.2132 252,-67 267.261,-58.6049 285.669,-53.88 302.329,-51.2347"/>
<polygon fill="black" stroke="black" points="302.748,-52.9419 307.438,-50.4788 302.236,-49.4796 302.748,-52.9419"/>
</g>
<!-- Tkinter.Toplevel -->
<g id="node20" class="node"><title>Tkinter.Toplevel</title>
<polygon fill="none" stroke="black" stroke-width="0.5" points="393,-143.5 305,-143.5 305,-122.5 393,-122.5 393,-143.5"/>
<text text-anchor="middle" x="349" y="-130.5" font-family="Vera" font-size="10.00">Tkinter.Toplevel</text>
</g>
<!-- Tkinter.BaseWidget&#45;&gt;Tkinter.Toplevel -->
<g id="edge40" class="edge"><title>Tkinter.BaseWidget&#45;&gt;Tkinter.Toplevel</title>
<path fill="none" stroke="black" stroke-width="0.5" d="M215.587,-126.579C241.894,-127.845 273.39,-129.361 299.173,-130.602"/>
<polygon fill="black" stroke="black" points="299.171,-132.354 304.25,-130.846 299.34,-128.858 299.171,-132.354"/>
</g>
<!-- Tkinter.Pack -->
<g id="node13" class="node"><title>Tkinter.Pack</title>
<polygon fill="none" stroke="black" stroke-width="0.5" points="198,-20.5 126,-20.5 126,0.5 198,0.5 198,-20.5"/>
<text text-anchor="middle" x="162" y="-7.5" font-family="Vera" font-size="10.00">Tkinter.Pack</text>
</g>
<!-- Tkinter.Pack&#45;&gt;Tkinter.Widget -->
<g id="edge10" class="edge"><title>Tkinter.Pack&#45;&gt;Tkinter.Widget</title>
<path fill="none" stroke="black" stroke-width="0.5" d="M198.945,-17.5076C228.549,-23.5232 270.267,-32.0009 302.204,-38.4907"/>
<polygon fill="black" stroke="black" points="301.994,-40.2337 307.243,-39.5146 302.691,-36.8038 301.994,-40.2337"/>
</g>
<!-- Tkinter.Place -->
<g id="node15" class="node"><title>Tkinter.Place</title>
<polygon fill="none" stroke="black" stroke-width="0.5" points="200,-96.5 124,-96.5 124,-75.5 200,-75.5 200,-96.5"/>
<text text-anchor="middle" x="162" y="-83.5" font-family="Vera" font-size="10.00">Tkinter.Place</text>
</g>
<!-- Tkinter.Place&#45;&gt;Tkinter.Widget -->
<g id="edge12" class="edge"><title>Tkinter.Place&#45;&gt;Tkinter.Widget</title>
<path fill="none" stroke="black" stroke-width="0.5" d="M200.515,-77.7398C216.441,-74.3579 235.099,-70.439 252,-67 268.316,-63.6799 286.199,-60.147 302.117,-57.0397"/>
<polygon fill="black" stroke="black" points="302.862,-58.6774 307.435,-56.0031 302.193,-55.2421 302.862,-58.6774"/>
</g>
<!-- Tkinter.Grid -->
<g id="node17" class="node"><title>Tkinter.Grid</title>
<polygon fill="none" stroke="black" stroke-width="0.5" points="197,-58.5 127,-58.5 127,-37.5 197,-37.5 197,-58.5"/>
<text text-anchor="middle" x="162" y="-45.5" font-family="Vera" font-size="10.00">Tkinter.Grid</text>
</g>
<!-- Tkinter.Grid&#45;&gt;Tkinter.Widget -->
<g id="edge14" class="edge"><title>Tkinter.Grid&#45;&gt;Tkinter.Widget</title>
<path fill="none" stroke="black" stroke-width="0.5" d="M197.613,-48C227.287,-48 269.785,-48 302.203,-48"/>
<polygon fill="black" stroke="black" points="302.316,-49.7501 307.316,-48 302.316,-46.2501 302.316,-49.7501"/>
</g>
<!-- paramtk.ScrolledWindow -->
<g id="node19" class="node"><title>paramtk.ScrolledWindow</title>
<polygon fill="none" stroke="black" stroke-width="0.5" points="651,-143.5 517,-143.5 517,-122.5 651,-122.5 651,-143.5"/>
<text text-anchor="middle" x="584" y="-130.5" font-family="Vera" font-size="10.00">paramtk.ScrolledWindow</text>
</g>
<!-- paramtk.AppWindow -->
<g id="node28" class="node"><title>paramtk.AppWindow</title>
<polygon fill="none" stroke="black" stroke-width="0.5" points="860,-143.5 746,-143.5 746,-122.5 860,-122.5 860,-143.5"/>
<text text-anchor="middle" x="803" y="-130.5" font-family="Vera" font-size="10.00">paramtk.AppWindow</text>
</g>
<!-- paramtk.ScrolledWindow&#45;&gt;paramtk.AppWindow -->
<g id="edge24" class="edge"><title>paramtk.ScrolledWindow&#45;&gt;paramtk.AppWindow</title>
<path fill="none" stroke="black" stroke-width="0.5" d="M651.196,-133C679.722,-133 712.775,-133 740.742,-133"/>
<polygon fill="black" stroke="black" points="740.902,-134.75 745.902,-133 740.902,-131.25 740.902,-134.75"/>
</g>
<!-- Tkinter.Toplevel&#45;&gt;paramtk.ScrolledWindow -->
<g id="edge16" class="edge"><title>Tkinter.Toplevel&#45;&gt;paramtk.ScrolledWindow</title>
<path fill="none" stroke="black" stroke-width="0.5" d="M393.755,-133C427.019,-133 473.106,-133 511.588,-133"/>
<polygon fill="black" stroke="black" points="511.724,-134.75 516.724,-133 511.724,-131.25 511.724,-134.75"/>
</g>
<!-- paramtk.TkParameterized -->
<g id="node30" class="node"><title>paramtk.TkParameterized</title>
<polygon fill="none" stroke="black" stroke-width="0.5" points="873,-181.5 733,-181.5 733,-160.5 873,-160.5 873,-181.5"/>
<text text-anchor="middle" x="803" y="-168.5" font-family="Vera" font-size="10.00">paramtk.TkParameterized</text>
</g>
<!-- paramtk.TkParameterizedBase&#45;&gt;paramtk.TkParameterized -->
<g id="edge26" class="edge"><title>paramtk.TkParameterizedBase&#45;&gt;paramtk.TkParameterized</title>
<path fill="none" stroke="black" stroke-width="0.5" d="M666.171,-171C686.423,-171 708.007,-171 727.904,-171"/>
<polygon fill="black" stroke="black" points="727.925,-172.75 732.925,-171 727.925,-169.25 727.925,-172.75"/>
</g>
<!-- Tkinter.Wm -->
<g id="node24" class="node"><title>Tkinter.Wm</title>
<polygon fill="none" stroke="black" stroke-width="0.5" points="196,-172.5 128,-172.5 128,-151.5 196,-151.5 196,-172.5"/>
<text text-anchor="middle" x="162" y="-159.5" font-family="Vera" font-size="10.00">Tkinter.Wm</text>
</g>
<!-- Tkinter.Wm&#45;&gt;Tkinter.Toplevel -->
<g id="edge42" class="edge"><title>Tkinter.Wm&#45;&gt;Tkinter.Toplevel</title>
<path fill="none" stroke="black" stroke-width="0.5" d="M196.735,-156.613C225.509,-152.151 266.771,-145.752 299.085,-140.741"/>
<polygon fill="black" stroke="black" points="299.518,-142.445 304.191,-139.949 298.982,-138.986 299.518,-142.445"/>
</g>
<!-- paramtk.tilewrapper.Notebook -->
<g id="node32" class="node"><title>paramtk.tilewrapper.Notebook</title>
<polygon fill="none" stroke="black" stroke-width="0.5" points="883,-96.5 723,-96.5 723,-75.5 883,-75.5 883,-96.5"/>
<text text-anchor="middle" x="803" y="-83.5" font-family="Vera" font-size="10.00">paramtk.tilewrapper.Notebook</text>
</g>
<!-- paramtk.tilewrapper.Widget&#45;&gt;paramtk.tilewrapper.Notebook -->
<g id="edge28" class="edge"><title>paramtk.tilewrapper.Widget&#45;&gt;paramtk.tilewrapper.Notebook</title>
<path fill="none" stroke="black" stroke-width="0.5" d="M657.533,-86C676.582,-86 697.265,-86 716.896,-86"/>
<polygon fill="black" stroke="black" points="717.132,-87.7501 722.132,-86 717.132,-84.2501 717.132,-87.7501"/>
</g>
<!-- topo.tkgui.topoconsole.TopoConsole -->
<g id="node34" class="node"><title>topo.tkgui.topoconsole.TopoConsole</title>
<polygon fill="none" stroke="black" stroke-width="0.5" points="1120,-153.5 932,-153.5 932,-132.5 1120,-132.5 1120,-153.5"/>
<text text-anchor="middle" x="1026" y="-140.5" font-family="Vera" font-size="10.00">topo.tkgui.topoconsole.TopoConsole</text>
</g>
<!-- paramtk.AppWindow&#45;&gt;topo.tkgui.topoconsole.TopoConsole -->
<g id="edge30" class="edge"><title>paramtk.AppWindow&#45;&gt;topo.tkgui.topoconsole.TopoConsole</title>
<path fill="none" stroke="black" stroke-width="0.5" d="M860.138,-135.562C880.294,-136.466 903.587,-137.511 926.228,-138.526"/>
<polygon fill="black" stroke="black" points="926.279,-140.28 931.352,-138.756 926.436,-136.783 926.279,-140.28"/>
</g>
<!-- paramtk.TkParameterized&#45;&gt;topo.tkgui.topoconsole.TopoConsole -->
<g id="edge32" class="edge"><title>paramtk.TkParameterized&#45;&gt;topo.tkgui.topoconsole.TopoConsole</title>
<path fill="none" stroke="black" stroke-width="0.5" d="M873.253,-162.179C894.736,-159.482 918.597,-156.486 940.952,-153.679"/>
<polygon fill="black" stroke="black" points="941.254,-155.405 945.997,-153.045 940.818,-151.932 941.254,-155.405"/>
</g>
<!-- topo.tkgui.topoconsole.DockManager -->
<g id="node40" class="node"><title>topo.tkgui.topoconsole.DockManager</title>
<polygon fill="none" stroke="black" stroke-width="0.5" points="1123,-96.5 929,-96.5 929,-75.5 1123,-75.5 1123,-96.5"/>
<text text-anchor="middle" x="1026" y="-83.5" font-family="Vera" font-size="10.00">topo.tkgui.topoconsole.DockManager</text>
</g>
<!-- paramtk.tilewrapper.Notebook&#45;&gt;topo.tkgui.topoconsole.DockManager -->
<g id="edge38" class="edge"><title>paramtk.tilewrapper.Notebook&#45;&gt;topo.tkgui.topoconsole.DockManager</title>
<path fill="none" stroke="black" stroke-width="0.5" d="M883.508,-86C896.394,-86 909.88,-86 923.2,-86"/>
<polygon fill="black" stroke="black" points="923.493,-87.7501 928.493,-86 923.493,-84.2501 923.493,-87.7501"/>
</g>
</g>
</svg>
