<?xml version="1.0" encoding="UTF-8" standalone="no"?>
<!DOCTYPE svg PUBLIC "-//W3C//DTD SVG 1.1//EN"
 "http://www.w3.org/Graphics/SVG/1.1/DTD/svg11.dtd">
<!-- Generated by graphviz version 2.26.3 (20100126.1600)
 -->
<!-- Title: inheritance273a80740e Pages: 1 -->
<svg width="876pt" height="940pt"
 viewBox="0.00 0.00 876.00 940.00" xmlns="http://www.w3.org/2000/svg" xmlns:xlink="http://www.w3.org/1999/xlink">
<g id="graph1" class="graph" transform="scale(1 1) rotate(0) translate(4 936)">
<title>inheritance273a80740e</title>
<polygon fill="white" stroke="white" points="-4,5 -4,-936 873,-936 873,5 -4,5"/>
<!-- imagen.Gaussian -->
<g id="node1" class="node"><title>imagen.Gaussian</title>
<polygon fill="none" stroke="black" stroke-width="0.5" points="632,-894.5 532,-894.5 532,-873.5 632,-873.5 632,-894.5"/>
<text text-anchor="middle" x="582" y="-881.5" font-family="Vera" font-size="10.00">imagen.Gaussian</text>
</g>
<!-- imagen.patterngenerator.PatternGenerator -->
<g id="node2" class="node"><title>imagen.patterngenerator.PatternGenerator</title>
<polygon fill="none" stroke="black" stroke-width="0.5" points="454,-457.5 230,-457.5 230,-436.5 454,-436.5 454,-457.5"/>
<text text-anchor="middle" x="342" y="-444.5" font-family="Vera" font-size="10.00">imagen.patterngenerator.PatternGenerator</text>
</g>
<!-- imagen.patterngenerator.PatternGenerator&#45;&gt;imagen.Gaussian -->
<g id="edge2" class="edge"><title>imagen.patterngenerator.PatternGenerator&#45;&gt;imagen.Gaussian</title>
<path fill="none" stroke="black" stroke-width="0.5" d="M344.205,-457.259C356.982,-515.776 423.271,-806.818 490,-865 500.291,-873.973 513.691,-879.109 527.065,-881.959"/>
<polygon fill="black" stroke="black" points="526.744,-883.679 531.985,-882.908 527.407,-880.242 526.744,-883.679"/>
</g>
<!-- imagen.Disk -->
<g id="node4" class="node"><title>imagen.Disk</title>
<polygon fill="none" stroke="black" stroke-width="0.5" points="620,-856.5 544,-856.5 544,-835.5 620,-835.5 620,-856.5"/>
<text text-anchor="middle" x="582" y="-843.5" font-family="Vera" font-size="10.00">imagen.Disk</text>
</g>
<!-- imagen.patterngenerator.PatternGenerator&#45;&gt;imagen.Disk -->
<g id="edge4" class="edge"><title>imagen.patterngenerator.PatternGenerator&#45;&gt;imagen.Disk</title>
<path fill="none" stroke="black" stroke-width="0.5" d="M342.586,-457.178C346.009,-506.641 367.778,-723.734 490,-827 503.435,-838.351 521.877,-843.511 538.724,-845.681"/>
<polygon fill="black" stroke="black" points="538.73,-847.442 543.894,-846.261 539.12,-843.964 538.73,-847.442"/>
</g>
<!-- imagen.Gabor -->
<g id="node7" class="node"><title>imagen.Gabor</title>
<polygon fill="none" stroke="black" stroke-width="0.5" points="624,-818.5 540,-818.5 540,-797.5 624,-797.5 624,-818.5"/>
<text text-anchor="middle" x="582" y="-805.5" font-family="Vera" font-size="10.00">imagen.Gabor</text>
</g>
<!-- imagen.patterngenerator.PatternGenerator&#45;&gt;imagen.Gabor -->
<g id="edge6" class="edge"><title>imagen.patterngenerator.PatternGenerator&#45;&gt;imagen.Gabor</title>
<path fill="none" stroke="black" stroke-width="0.5" d="M343.054,-457.096C348.456,-503.427 377.339,-697.332 490,-789 502.389,-799.08 518.762,-804.229 534.258,-806.744"/>
<polygon fill="black" stroke="black" points="534.274,-808.514 539.473,-807.499 534.776,-805.05 534.274,-808.514"/>
</g>
<!-- imagen.SigmoidedDoLG -->
<g id="node9" class="node"><title>imagen.SigmoidedDoLG</title>
<polygon fill="none" stroke="black" stroke-width="0.5" points="648,-780.5 516,-780.5 516,-759.5 648,-759.5 648,-780.5"/>
<text text-anchor="middle" x="582" y="-767.5" font-family="Vera" font-size="10.00">imagen.SigmoidedDoLG</text>
</g>
<!-- imagen.patterngenerator.PatternGenerator&#45;&gt;imagen.SigmoidedDoLG -->
<g id="edge8" class="edge"><title>imagen.patterngenerator.PatternGenerator&#45;&gt;imagen.SigmoidedDoLG</title>
<path fill="none" stroke="black" stroke-width="0.5" d="M343.642,-457.137C351.211,-500.38 386.877,-670.851 490,-751 496.068,-755.716 503.02,-759.34 510.324,-762.114"/>
<polygon fill="black" stroke="black" points="510.134,-763.901 515.431,-763.901 511.29,-760.598 510.134,-763.901"/>
</g>
<!-- imagen.GaussiansCorner -->
<g id="node11" class="node"><title>imagen.GaussiansCorner</title>
<polygon fill="none" stroke="black" stroke-width="0.5" points="650,-742.5 514,-742.5 514,-721.5 650,-721.5 650,-742.5"/>
<text text-anchor="middle" x="582" y="-729.5" font-family="Vera" font-size="10.00">imagen.GaussiansCorner</text>
</g>
<!-- imagen.patterngenerator.PatternGenerator&#45;&gt;imagen.GaussiansCorner -->
<g id="edge10" class="edge"><title>imagen.patterngenerator.PatternGenerator&#45;&gt;imagen.GaussiansCorner</title>
<path fill="none" stroke="black" stroke-width="0.5" d="M344.397,-457.219C354.341,-497.199 396.286,-644.188 490,-713 495.552,-717.077 501.776,-720.326 508.3,-722.909"/>
<polygon fill="black" stroke="black" points="508.044,-724.678 513.34,-724.757 509.248,-721.392 508.044,-724.678"/>
</g>
<!-- imagen.Rectangle -->
<g id="node14" class="node"><title>imagen.Rectangle</title>
<polygon fill="none" stroke="black" stroke-width="0.5" points="633,-704.5 531,-704.5 531,-683.5 633,-683.5 633,-704.5"/>
<text text-anchor="middle" x="582" y="-691.5" font-family="Vera" font-size="10.00">imagen.Rectangle</text>
</g>
<!-- imagen.patterngenerator.PatternGenerator&#45;&gt;imagen.Rectangle -->
<g id="edge18" class="edge"><title>imagen.patterngenerator.PatternGenerator&#45;&gt;imagen.Rectangle</title>
<path fill="none" stroke="black" stroke-width="0.5" d="M345.371,-457.24C357.895,-493.576 405.443,-617.232 490,-675 500.581,-682.229 513.333,-686.81 525.927,-689.688"/>
<polygon fill="black" stroke="black" points="525.674,-691.423 530.928,-690.746 526.399,-687.999 525.674,-691.423"/>
</g>
<!-- imagen.patterngenerator.Constant -->
<g id="node18" class="node"><title>imagen.patterngenerator.Constant</title>
<polygon fill="none" stroke="black" stroke-width="0.5" points="674,-666.5 490,-666.5 490,-645.5 674,-645.5 674,-666.5"/>
<text text-anchor="middle" x="582" y="-653.5" font-family="Vera" font-size="10.00">imagen.patterngenerator.Constant</text>
</g>
<!-- imagen.patterngenerator.PatternGenerator&#45;&gt;imagen.patterngenerator.Constant -->
<g id="edge48" class="edge"><title>imagen.patterngenerator.PatternGenerator&#45;&gt;imagen.patterngenerator.Constant</title>
<path fill="none" stroke="black" stroke-width="0.5" d="M346.723,-457.3C362.136,-489.668 414.37,-589.969 490,-637 494.363,-639.713 499.045,-642.046 503.901,-644.051"/>
<polygon fill="black" stroke="black" points="503.516,-645.779 508.811,-645.95 504.778,-642.514 503.516,-645.779"/>
</g>
<!-- imagen.Composite -->
<g id="node21" class="node"><title>imagen.Composite</title>
<polygon fill="none" stroke="black" stroke-width="0.5" points="635,-628.5 529,-628.5 529,-607.5 635,-607.5 635,-628.5"/>
<text text-anchor="middle" x="582" y="-615.5" font-family="Vera" font-size="10.00">imagen.Composite</text>
</g>
<!-- imagen.patterngenerator.PatternGenerator&#45;&gt;imagen.Composite -->
<g id="edge28" class="edge"><title>imagen.patterngenerator.PatternGenerator&#45;&gt;imagen.Composite</title>
<path fill="none" stroke="black" stroke-width="0.5" d="M348.572,-457.145C367.101,-484.853 422.812,-562.191 490,-599 500.138,-604.554 511.714,-608.489 523.154,-611.276"/>
<polygon fill="black" stroke="black" points="522.78,-612.985 528.045,-612.401 523.565,-609.574 522.78,-612.985"/>
</g>
<!-- imagen.Ring -->
<g id="node25" class="node"><title>imagen.Ring</title>
<polygon fill="none" stroke="black" stroke-width="0.5" points="620,-590.5 544,-590.5 544,-569.5 620,-569.5 620,-590.5"/>
<text text-anchor="middle" x="582" y="-577.5" font-family="Vera" font-size="10.00">imagen.Ring</text>
</g>
<!-- imagen.patterngenerator.PatternGenerator&#45;&gt;imagen.Ring -->
<g id="edge22" class="edge"><title>imagen.patterngenerator.PatternGenerator&#45;&gt;imagen.Ring</title>
<path fill="none" stroke="black" stroke-width="0.5" d="M351.684,-457.097C373.872,-479.589 431.039,-533.959 490,-561 505.05,-567.902 522.633,-572.318 538.372,-575.134"/>
<polygon fill="black" stroke="black" points="538.409,-576.916 543.632,-576.029 538.996,-573.466 538.409,-576.916"/>
</g>
<!-- imagen.SineGrating -->
<g id="node31" class="node"><title>imagen.SineGrating</title>
<polygon fill="none" stroke="black" stroke-width="0.5" points="638,-552.5 526,-552.5 526,-531.5 638,-531.5 638,-552.5"/>
<text text-anchor="middle" x="582" y="-539.5" font-family="Vera" font-size="10.00">imagen.SineGrating</text>
</g>
<!-- imagen.patterngenerator.PatternGenerator&#45;&gt;imagen.SineGrating -->
<g id="edge46" class="edge"><title>imagen.patterngenerator.PatternGenerator&#45;&gt;imagen.SineGrating</title>
<path fill="none" stroke="black" stroke-width="0.5" d="M358.209,-457.194C384.757,-473.453 439.606,-505.229 490,-523 499.781,-526.449 510.38,-529.357 520.787,-531.78"/>
<polygon fill="black" stroke="black" points="520.613,-533.535 525.876,-532.931 521.385,-530.121 520.613,-533.535"/>
</g>
<!-- imagen.PowerSpectrum -->
<g id="node35" class="node"><title>imagen.PowerSpectrum</title>
<polygon fill="none" stroke="black" stroke-width="0.5" points="647,-514.5 517,-514.5 517,-493.5 647,-493.5 647,-514.5"/>
<text text-anchor="middle" x="582" y="-501.5" font-family="Vera" font-size="10.00">imagen.PowerSpectrum</text>
</g>
<!-- imagen.patterngenerator.PatternGenerator&#45;&gt;imagen.PowerSpectrum -->
<g id="edge60" class="edge"><title>imagen.patterngenerator.PatternGenerator&#45;&gt;imagen.PowerSpectrum</title>
<path fill="none" stroke="black" stroke-width="0.5" d="M378.982,-457.017C408.848,-464.981 452.009,-476.205 490,-485 501.678,-487.704 514.235,-490.421 526.202,-492.921"/>
<polygon fill="black" stroke="black" points="526.039,-494.675 531.29,-493.979 526.751,-491.248 526.039,-494.675"/>
</g>
<!-- imagen.ExponentialDecay -->
<g id="node39" class="node"><title>imagen.ExponentialDecay</title>
<polygon fill="none" stroke="black" stroke-width="0.5" points="652,-476.5 512,-476.5 512,-455.5 652,-455.5 652,-476.5"/>
<text text-anchor="middle" x="582" y="-463.5" font-family="Vera" font-size="10.00">imagen.ExponentialDecay</text>
</g>
<!-- imagen.patterngenerator.PatternGenerator&#45;&gt;imagen.ExponentialDecay -->
<g id="edge34" class="edge"><title>imagen.patterngenerator.PatternGenerator&#45;&gt;imagen.ExponentialDecay</title>
<path fill="none" stroke="black" stroke-width="0.5" d="M454.27,-455.888C471.849,-457.28 489.651,-458.689 506.157,-459.996"/>
<polygon fill="black" stroke="black" points="506.113,-461.748 511.236,-460.398 506.39,-458.259 506.113,-461.748"/>
</g>
<!-- imagen.Arc -->
<g id="node41" class="node"><title>imagen.Arc</title>
<polygon fill="none" stroke="black" stroke-width="0.5" points="617,-438.5 547,-438.5 547,-417.5 617,-417.5 617,-438.5"/>
<text text-anchor="middle" x="582" y="-425.5" font-family="Vera" font-size="10.00">imagen.Arc</text>
</g>
<!-- imagen.patterngenerator.PatternGenerator&#45;&gt;imagen.Arc -->
<g id="edge36" class="edge"><title>imagen.patterngenerator.PatternGenerator&#45;&gt;imagen.Arc</title>
<path fill="none" stroke="black" stroke-width="0.5" d="M454.27,-438.112C485.364,-435.65 517.152,-433.134 541.239,-431.227"/>
<polygon fill="black" stroke="black" points="541.413,-432.969 546.259,-430.83 541.136,-429.48 541.413,-432.969"/>
</g>
<!-- imagen.Line -->
<g id="node43" class="node"><title>imagen.Line</title>
<polygon fill="none" stroke="black" stroke-width="0.5" points="619,-400.5 545,-400.5 545,-379.5 619,-379.5 619,-400.5"/>
<text text-anchor="middle" x="582" y="-387.5" font-family="Vera" font-size="10.00">imagen.Line</text>
</g>
<!-- imagen.patterngenerator.PatternGenerator&#45;&gt;imagen.Line -->
<g id="edge38" class="edge"><title>imagen.patterngenerator.PatternGenerator&#45;&gt;imagen.Line</title>
<path fill="none" stroke="black" stroke-width="0.5" d="M420.515,-436.949C431.895,-434.553 443.353,-431.609 454,-428 471.134,-422.192 472.972,-415.112 490,-409 505.584,-403.406 523.277,-399.261 538.955,-396.295"/>
<polygon fill="black" stroke="black" points="539.586,-397.958 544.188,-395.334 538.954,-394.516 539.586,-397.958"/>
</g>
<!-- imagen.HalfPlane -->
<g id="node45" class="node"><title>imagen.HalfPlane</title>
<polygon fill="none" stroke="black" stroke-width="0.5" points="632,-362.5 532,-362.5 532,-341.5 632,-341.5 632,-362.5"/>
<text text-anchor="middle" x="582" y="-349.5" font-family="Vera" font-size="10.00">imagen.HalfPlane</text>
</g>
<!-- imagen.patterngenerator.PatternGenerator&#45;&gt;imagen.HalfPlane -->
<g id="edge40" class="edge"><title>imagen.patterngenerator.PatternGenerator&#45;&gt;imagen.HalfPlane</title>
<path fill="none" stroke="black" stroke-width="0.5" d="M436.846,-436.968C442.881,-434.512 448.666,-431.554 454,-428 478.935,-411.386 465.365,-388.056 490,-371 500.654,-363.624 513.557,-358.996 526.286,-356.121"/>
<polygon fill="black" stroke="black" points="526.803,-357.801 531.34,-355.067 526.088,-354.375 526.803,-357.801"/>
</g>
<!-- imagen.Selector -->
<g id="node49" class="node"><title>imagen.Selector</title>
<polygon fill="none" stroke="black" stroke-width="0.5" points="629,-324.5 535,-324.5 535,-303.5 629,-303.5 629,-324.5"/>
<text text-anchor="middle" x="582" y="-311.5" font-family="Vera" font-size="10.00">imagen.Selector</text>
</g>
<!-- imagen.patterngenerator.PatternGenerator&#45;&gt;imagen.Selector -->
<g id="edge44" class="edge"><title>imagen.patterngenerator.PatternGenerator&#45;&gt;imagen.Selector</title>
<path fill="none" stroke="black" stroke-width="0.5" d="M440.125,-436.98C445.063,-434.476 449.735,-431.508 454,-428 488.872,-399.318 455.644,-362.298 490,-333 500.942,-323.669 515.26,-318.512 529.331,-315.76"/>
<polygon fill="black" stroke="black" points="529.875,-317.441 534.497,-314.852 529.269,-313.994 529.875,-317.441"/>
</g>
<!-- imagen.RawRectangle -->
<g id="node54" class="node"><title>imagen.RawRectangle</title>
<polygon fill="none" stroke="black" stroke-width="0.5" points="642,-286.5 522,-286.5 522,-265.5 642,-265.5 642,-286.5"/>
<text text-anchor="middle" x="582" y="-273.5" font-family="Vera" font-size="10.00">imagen.RawRectangle</text>
</g>
<!-- imagen.patterngenerator.PatternGenerator&#45;&gt;imagen.RawRectangle -->
<g id="edge52" class="edge"><title>imagen.patterngenerator.PatternGenerator&#45;&gt;imagen.RawRectangle</title>
<path fill="none" stroke="black" stroke-width="0.5" d="M441.576,-436.896C446.023,-434.39 450.204,-431.447 454,-428 499.336,-386.832 445.404,-336.968 490,-295 497.451,-287.988 506.775,-283.272 516.606,-280.147"/>
<polygon fill="black" stroke="black" points="517.153,-281.811 521.468,-278.738 516.178,-278.449 517.153,-281.811"/>
</g>
<!-- imagen.SquareGrating -->
<g id="node56" class="node"><title>imagen.SquareGrating</title>
<polygon fill="none" stroke="black" stroke-width="0.5" points="644,-248.5 520,-248.5 520,-227.5 644,-227.5 644,-248.5"/>
<text text-anchor="middle" x="582" y="-235.5" font-family="Vera" font-size="10.00">imagen.SquareGrating</text>
</g>
<!-- imagen.patterngenerator.PatternGenerator&#45;&gt;imagen.SquareGrating -->
<g id="edge54" class="edge"><title>imagen.patterngenerator.PatternGenerator&#45;&gt;imagen.SquareGrating</title>
<path fill="none" stroke="black" stroke-width="0.5" d="M442.322,-436.855C446.517,-434.348 450.445,-431.417 454,-428 509.991,-374.176 434.977,-311.813 490,-257 496.789,-250.237 505.308,-245.577 514.406,-242.412"/>
<polygon fill="black" stroke="black" points="514.972,-244.069 519.21,-240.89 513.915,-240.732 514.972,-244.069"/>
</g>
<!-- imagen.Sweeper -->
<g id="node58" class="node"><title>imagen.Sweeper</title>
<polygon fill="none" stroke="black" stroke-width="0.5" points="630,-210.5 534,-210.5 534,-189.5 630,-189.5 630,-210.5"/>
<text text-anchor="middle" x="582" y="-197.5" font-family="Vera" font-size="10.00">imagen.Sweeper</text>
</g>
<!-- imagen.patterngenerator.PatternGenerator&#45;&gt;imagen.Sweeper -->
<g id="edge56" class="edge"><title>imagen.patterngenerator.PatternGenerator&#45;&gt;imagen.Sweeper</title>
<path fill="none" stroke="black" stroke-width="0.5" d="M442.975,-436.706C446.942,-434.226 450.649,-431.343 454,-428 520.734,-361.435 424.462,-286.743 490,-219 499.999,-208.665 514.024,-203.195 528.115,-200.465"/>
<polygon fill="black" stroke="black" points="528.668,-202.146 533.302,-199.58 528.079,-198.696 528.668,-202.146"/>
</g>
<!-- imagen.DifferenceOfGaussians -->
<g id="node60" class="node"><title>imagen.DifferenceOfGaussians</title>
<polygon fill="none" stroke="black" stroke-width="0.5" points="664,-172.5 500,-172.5 500,-151.5 664,-151.5 664,-172.5"/>
<text text-anchor="middle" x="582" y="-159.5" font-family="Vera" font-size="10.00">imagen.DifferenceOfGaussians</text>
</g>
<!-- imagen.patterngenerator.PatternGenerator&#45;&gt;imagen.DifferenceOfGaussians -->
<g id="edge58" class="edge"><title>imagen.patterngenerator.PatternGenerator&#45;&gt;imagen.DifferenceOfGaussians</title>
<path fill="none" stroke="black" stroke-width="0.5" d="M443.082,-436.812C447.02,-434.304 450.692,-431.386 454,-428 531.525,-348.646 413.9,-261.722 490,-181 492.028,-178.849 494.23,-176.907 496.571,-175.156"/>
<polygon fill="black" stroke="black" points="497.769,-176.459 500.927,-172.206 495.806,-173.561 497.769,-176.459"/>
</g>
<!-- imagen.Sigmoid -->
<g id="node63" class="node"><title>imagen.Sigmoid</title>
<polygon fill="none" stroke="black" stroke-width="0.5" points="629,-134.5 535,-134.5 535,-113.5 629,-113.5 629,-134.5"/>
<text text-anchor="middle" x="582" y="-121.5" font-family="Vera" font-size="10.00">imagen.Sigmoid</text>
</g>
<!-- imagen.patterngenerator.PatternGenerator&#45;&gt;imagen.Sigmoid -->
<g id="edge62" class="edge"><title>imagen.patterngenerator.PatternGenerator&#45;&gt;imagen.Sigmoid</title>
<path fill="none" stroke="black" stroke-width="0.5" d="M443.162,-436.889C447.079,-434.361 450.725,-431.417 454,-428 542.345,-335.828 403.31,-236.73 490,-143 500.148,-132.028 514.82,-126.476 529.477,-123.87"/>
<polygon fill="black" stroke="black" points="529.769,-125.596 534.44,-123.096 529.23,-122.138 529.769,-125.596"/>
</g>
<!-- imagen.Translator -->
<g id="node65" class="node"><title>imagen.Translator</title>
<polygon fill="none" stroke="black" stroke-width="0.5" points="633,-96.5 531,-96.5 531,-75.5 633,-75.5 633,-96.5"/>
<text text-anchor="middle" x="582" y="-83.5" font-family="Vera" font-size="10.00">imagen.Translator</text>
</g>
<!-- imagen.patterngenerator.PatternGenerator&#45;&gt;imagen.Translator -->
<g id="edge64" class="edge"><title>imagen.patterngenerator.PatternGenerator&#45;&gt;imagen.Translator</title>
<path fill="none" stroke="black" stroke-width="0.5" d="M443.223,-436.948C447.125,-434.404 450.75,-431.441 454,-428 553.183,-322.991 392.702,-211.758 490,-105 499.295,-94.8011 512.496,-89.2683 526.005,-86.4314"/>
<polygon fill="black" stroke="black" points="526.393,-88.1392 530.989,-85.5045 525.753,-84.6982 526.393,-88.1392"/>
</g>
<!-- imagen.LogGaussian -->
<g id="node69" class="node"><title>imagen.LogGaussian</title>
<polygon fill="none" stroke="black" stroke-width="0.5" points="640,-58.5 524,-58.5 524,-37.5 640,-37.5 640,-58.5"/>
<text text-anchor="middle" x="582" y="-45.5" font-family="Vera" font-size="10.00">imagen.LogGaussian</text>
</g>
<!-- imagen.patterngenerator.PatternGenerator&#45;&gt;imagen.LogGaussian -->
<g id="edge68" class="edge"><title>imagen.patterngenerator.PatternGenerator&#45;&gt;imagen.LogGaussian</title>
<path fill="none" stroke="black" stroke-width="0.5" d="M443.273,-436.994C447.161,-434.438 450.77,-431.46 454,-428 509.017,-369.07 436.041,-126.9 490,-67 497.478,-58.6984 507.542,-53.4794 518.273,-50.2874"/>
<polygon fill="black" stroke="black" points="518.864,-51.9409 523.243,-48.9598 517.961,-48.5595 518.864,-51.9409"/>
</g>
<!-- imagen.SigmoidedDoG -->
<g id="node71" class="node"><title>imagen.SigmoidedDoG</title>
<polygon fill="none" stroke="black" stroke-width="0.5" points="646,-20.5 518,-20.5 518,0.5 646,0.5 646,-20.5"/>
<text text-anchor="middle" x="582" y="-7.5" font-family="Vera" font-size="10.00">imagen.SigmoidedDoG</text>
</g>
<!-- imagen.patterngenerator.PatternGenerator&#45;&gt;imagen.SigmoidedDoG -->
<g id="edge70" class="edge"><title>imagen.patterngenerator.PatternGenerator&#45;&gt;imagen.SigmoidedDoG</title>
<path fill="none" stroke="black" stroke-width="0.5" d="M443.796,-436.709C447.49,-434.215 450.92,-431.33 454,-428 514.447,-362.64 430.726,-95.426 490,-29 496.23,-22.0181 504.289,-17.2114 513.044,-13.9556"/>
<polygon fill="black" stroke="black" points="513.788,-15.5518 517.972,-12.3024 512.675,-12.2335 513.788,-15.5518"/>
</g>
<!-- param.parameterized.Parameter -->
<g id="node6" class="node"><title>param.parameterized.Parameter</title>
<polygon fill="none" stroke="black" stroke-width="0.5" points="184,-932.5 10,-932.5 10,-911.5 184,-911.5 184,-932.5"/>
<text text-anchor="middle" x="97" y="-919.5" font-family="Vera" font-size="10.00">param.parameterized.Parameter</text>
</g>
<!-- param.Selector -->
<g id="node47" class="node"><title>param.Selector</title>
<polygon fill="none" stroke="black" stroke-width="0.5" points="387,-932.5 297,-932.5 297,-911.5 387,-911.5 387,-932.5"/>
<text text-anchor="middle" x="342" y="-919.5" font-family="Vera" font-size="10.00">param.Selector</text>
</g>
<!-- param.parameterized.Parameter&#45;&gt;param.Selector -->
<g id="edge50" class="edge"><title>param.parameterized.Parameter&#45;&gt;param.Selector</title>
<path fill="none" stroke="black" stroke-width="0.5" d="M184.759,-922C220.453,-922 260.436,-922 291.152,-922"/>
<polygon fill="black" stroke="black" points="291.387,-923.75 296.387,-922 291.387,-920.25 291.387,-923.75"/>
</g>
<!-- imagen.TwoRectangles -->
<g id="node13" class="node"><title>imagen.TwoRectangles</title>
<polygon fill="none" stroke="black" stroke-width="0.5" points="851,-704.5 727,-704.5 727,-683.5 851,-683.5 851,-704.5"/>
<text text-anchor="middle" x="789" y="-691.5" font-family="Vera" font-size="10.00">imagen.TwoRectangles</text>
</g>
<!-- imagen.Rectangle&#45;&gt;imagen.TwoRectangles -->
<g id="edge12" class="edge"><title>imagen.Rectangle&#45;&gt;imagen.TwoRectangles</title>
<path fill="none" stroke="black" stroke-width="0.5" d="M633.169,-694C659.881,-694 692.903,-694 721.665,-694"/>
<polygon fill="black" stroke="black" points="721.983,-695.75 726.983,-694 721.983,-692.25 721.983,-695.75"/>
</g>
<!-- param.parameterized.Parameterized -->
<g id="node16" class="node"><title>param.parameterized.Parameterized</title>
<polygon fill="none" stroke="black" stroke-width="0.5" points="194,-438.5 5.68434e-14,-438.5 0,-417.5 194,-417.5 194,-438.5"/>
<text text-anchor="middle" x="97" y="-425.5" font-family="Vera" font-size="10.00">param.parameterized.Parameterized</text>
</g>
<!-- param.parameterized.Parameterized&#45;&gt;imagen.patterngenerator.PatternGenerator -->
<g id="edge20" class="edge"><title>param.parameterized.Parameterized&#45;&gt;imagen.patterngenerator.PatternGenerator</title>
<path fill="none" stroke="black" stroke-width="0.5" d="M194.182,-435.537C204.286,-436.32 214.629,-437.122 224.922,-437.92"/>
<polygon fill="black" stroke="black" points="224.849,-439.67 229.969,-438.312 225.12,-436.18 224.849,-439.67"/>
</g>
<!-- imagen.TimeSeries -->
<g id="node37" class="node"><title>imagen.TimeSeries</title>
<polygon fill="none" stroke="black" stroke-width="0.5" points="396,-419.5 288,-419.5 288,-398.5 396,-398.5 396,-419.5"/>
<text text-anchor="middle" x="342" y="-406.5" font-family="Vera" font-size="10.00">imagen.TimeSeries</text>
</g>
<!-- param.parameterized.Parameterized&#45;&gt;imagen.TimeSeries -->
<g id="edge32" class="edge"><title>param.parameterized.Parameterized&#45;&gt;imagen.TimeSeries</title>
<path fill="none" stroke="black" stroke-width="0.5" d="M194.182,-420.463C223.866,-418.161 255.624,-415.699 282.066,-413.648"/>
<polygon fill="black" stroke="black" points="282.431,-415.375 287.281,-413.244 282.161,-411.885 282.431,-415.375"/>
</g>
<!-- imagen.Null -->
<g id="node17" class="node"><title>imagen.Null</title>
<polygon fill="none" stroke="black" stroke-width="0.5" points="826,-666.5 752,-666.5 752,-645.5 826,-645.5 826,-666.5"/>
<text text-anchor="middle" x="789" y="-653.5" font-family="Vera" font-size="10.00">imagen.Null</text>
</g>
<!-- imagen.patterngenerator.Constant&#45;&gt;imagen.Null -->
<g id="edge14" class="edge"><title>imagen.patterngenerator.Constant&#45;&gt;imagen.Null</title>
<path fill="none" stroke="black" stroke-width="0.5" d="M674.3,-656C699.545,-656 725.69,-656 746.63,-656"/>
<polygon fill="black" stroke="black" points="746.839,-657.75 751.839,-656 746.838,-654.25 746.839,-657.75"/>
</g>
<!-- imagen.SeparatedComposite -->
<g id="node20" class="node"><title>imagen.SeparatedComposite</title>
<polygon fill="none" stroke="black" stroke-width="0.5" points="868,-628.5 710,-628.5 710,-607.5 868,-607.5 868,-628.5"/>
<text text-anchor="middle" x="789" y="-615.5" font-family="Vera" font-size="10.00">imagen.SeparatedComposite</text>
</g>
<!-- imagen.Composite&#45;&gt;imagen.SeparatedComposite -->
<g id="edge16" class="edge"><title>imagen.Composite&#45;&gt;imagen.SeparatedComposite</title>
<path fill="none" stroke="black" stroke-width="0.5" d="M635.577,-618C656.626,-618 681.297,-618 704.625,-618"/>
<polygon fill="black" stroke="black" points="704.893,-619.75 709.893,-618 704.892,-616.25 704.893,-619.75"/>
</g>
<!-- imagen.TimeSeriesParam -->
<g id="node27" class="node"><title>imagen.TimeSeriesParam</title>
<polygon fill="none" stroke="black" stroke-width="0.5" points="859,-932.5 719,-932.5 719,-911.5 859,-911.5 859,-932.5"/>
<text text-anchor="middle" x="789" y="-919.5" font-family="Vera" font-size="10.00">imagen.TimeSeriesParam</text>
</g>
<!-- param.ClassSelector -->
<g id="node28" class="node"><title>param.ClassSelector</title>
<polygon fill="none" stroke="black" stroke-width="0.5" points="640,-932.5 524,-932.5 524,-911.5 640,-911.5 640,-932.5"/>
<text text-anchor="middle" x="582" y="-919.5" font-family="Vera" font-size="10.00">param.ClassSelector</text>
</g>
<!-- param.ClassSelector&#45;&gt;imagen.TimeSeriesParam -->
<g id="edge24" class="edge"><title>param.ClassSelector&#45;&gt;imagen.TimeSeriesParam</title>
<path fill="none" stroke="black" stroke-width="0.5" d="M640.212,-922C662.986,-922 689.405,-922 713.606,-922"/>
<polygon fill="black" stroke="black" points="713.734,-923.75 718.734,-922 713.734,-920.25 713.734,-923.75"/>
</g>
<!-- imagen.OrientationContrast -->
<g id="node30" class="node"><title>imagen.OrientationContrast</title>
<polygon fill="none" stroke="black" stroke-width="0.5" points="864,-552.5 714,-552.5 714,-531.5 864,-531.5 864,-552.5"/>
<text text-anchor="middle" x="789" y="-539.5" font-family="Vera" font-size="10.00">imagen.OrientationContrast</text>
</g>
<!-- imagen.SineGrating&#45;&gt;imagen.OrientationContrast -->
<g id="edge26" class="edge"><title>imagen.SineGrating&#45;&gt;imagen.OrientationContrast</title>
<path fill="none" stroke="black" stroke-width="0.5" d="M638.017,-542C659.815,-542 685.2,-542 708.866,-542"/>
<polygon fill="black" stroke="black" points="708.888,-543.75 713.888,-542 708.887,-540.25 708.888,-543.75"/>
</g>
<!-- imagen.Spectrogram -->
<g id="node34" class="node"><title>imagen.Spectrogram</title>
<polygon fill="none" stroke="black" stroke-width="0.5" points="848,-514.5 730,-514.5 730,-493.5 848,-493.5 848,-514.5"/>
<text text-anchor="middle" x="789" y="-501.5" font-family="Vera" font-size="10.00">imagen.Spectrogram</text>
</g>
<!-- imagen.PowerSpectrum&#45;&gt;imagen.Spectrogram -->
<g id="edge30" class="edge"><title>imagen.PowerSpectrum&#45;&gt;imagen.Spectrogram</title>
<path fill="none" stroke="black" stroke-width="0.5" d="M647.781,-504C672.206,-504 699.878,-504 724.214,-504"/>
<polygon fill="black" stroke="black" points="724.354,-505.75 729.354,-504 724.354,-502.25 724.354,-505.75"/>
</g>
<!-- imagen.Curve -->
<g id="node67" class="node"><title>imagen.Curve</title>
<polygon fill="none" stroke="black" stroke-width="0.5" points="830,-438.5 748,-438.5 748,-417.5 830,-417.5 830,-438.5"/>
<text text-anchor="middle" x="789" y="-425.5" font-family="Vera" font-size="10.00">imagen.Curve</text>
</g>
<!-- imagen.Arc&#45;&gt;imagen.Curve -->
<g id="edge66" class="edge"><title>imagen.Arc&#45;&gt;imagen.Curve</title>
<path fill="none" stroke="black" stroke-width="0.5" d="M617.585,-428C652.1,-428 704.658,-428 742.474,-428"/>
<polygon fill="black" stroke="black" points="742.476,-429.75 747.476,-428 742.476,-426.25 742.476,-429.75"/>
</g>
<!-- param.Selector&#45;&gt;param.ClassSelector -->
<g id="edge42" class="edge"><title>param.Selector&#45;&gt;param.ClassSelector</title>
<path fill="none" stroke="black" stroke-width="0.5" d="M387.707,-922C424.748,-922 477.358,-922 518.494,-922"/>
<polygon fill="black" stroke="black" points="518.706,-923.75 523.706,-922 518.706,-920.25 518.706,-923.75"/>
</g>
</g>
</svg>
