<?xml version="1.0" encoding="UTF-8" standalone="no"?>
<!DOCTYPE svg PUBLIC "-//W3C//DTD SVG 1.1//EN"
 "http://www.w3.org/Graphics/SVG/1.1/DTD/svg11.dtd">
<!-- Generated by graphviz version 2.26.3 (20100126.1600)
 -->
<!-- Title: inheritancef415e0380d Pages: 1 -->
<svg width="732pt" height="218pt"
 viewBox="0.00 0.00 732.00 218.00" xmlns="http://www.w3.org/2000/svg" xmlns:xlink="http://www.w3.org/1999/xlink">
<g id="graph1" class="graph" transform="scale(1 1) rotate(0) translate(4 214)">
<title>inheritancef415e0380d</title>
<polygon fill="white" stroke="white" points="-4,5 -4,-214 729,-214 729,5 -4,5"/>
<!-- topo.command._VersionPrinter -->
<g id="node1" class="node"><title>topo.command._VersionPrinter</title>
<polygon fill="none" stroke="black" stroke-width="0.5" points="203,-20.5 39,-20.5 39,0.5 203,0.5 203,-20.5"/>
<text text-anchor="middle" x="121" y="-7.5" font-family="Vera" font-size="10.00">topo.command._VersionPrinter</text>
</g>
<!-- topo.command.UnpickleEnvironmentCreator -->
<g id="node2" class="node"><title>topo.command.UnpickleEnvironmentCreator</title>
<polygon fill="none" stroke="black" stroke-width="0.5" points="236,-58.5 6,-58.5 6,-37.5 236,-37.5 236,-58.5"/>
<text text-anchor="middle" x="121" y="-45.5" font-family="Vera" font-size="10.00">topo.command.UnpickleEnvironmentCreator</text>
</g>
<!-- param.parameterized.Parameterized -->
<g id="node3" class="node"><title>param.parameterized.Parameterized</title>
<polygon fill="none" stroke="black" stroke-width="0.5" points="218,-96.5 24,-96.5 24,-75.5 218,-75.5 218,-96.5"/>
<text text-anchor="middle" x="121" y="-83.5" font-family="Vera" font-size="10.00">param.parameterized.Parameterized</text>
</g>
<!-- param.parameterized.ParameterizedFunction -->
<g id="node7" class="node"><title>param.parameterized.ParameterizedFunction</title>
<polygon fill="none" stroke="black" stroke-width="0.5" points="512,-96.5 278,-96.5 278,-75.5 512,-75.5 512,-96.5"/>
<text text-anchor="middle" x="395" y="-83.5" font-family="Vera" font-size="10.00">param.parameterized.ParameterizedFunction</text>
</g>
<!-- param.parameterized.Parameterized&#45;&gt;param.parameterized.ParameterizedFunction -->
<g id="edge6" class="edge"><title>param.parameterized.Parameterized&#45;&gt;param.parameterized.ParameterizedFunction</title>
<path fill="none" stroke="black" stroke-width="0.5" d="M218.374,-86C235.949,-86 254.476,-86 272.655,-86"/>
<polygon fill="black" stroke="black" points="272.772,-87.7501 277.772,-86 272.772,-84.2501 272.772,-87.7501"/>
</g>
<!-- param.parameterized.ParameterizedMetaclass -->
<g id="node4" class="node"><title>param.parameterized.ParameterizedMetaclass</title>
<polygon fill="none" stroke="black" stroke-width="0.5" points="242,-134.5 9.9476e-14,-134.5 0,-113.5 242,-113.5 242,-134.5"/>
<text text-anchor="middle" x="121" y="-121.5" font-family="Vera" font-size="10.00">param.parameterized.ParameterizedMetaclass</text>
</g>
<!-- topo.command.CommandMetaclass -->
<g id="node13" class="node"><title>topo.command.CommandMetaclass</title>
<polygon fill="none" stroke="black" stroke-width="0.5" points="490,-134.5 300,-134.5 300,-113.5 490,-113.5 490,-134.5"/>
<text text-anchor="middle" x="395" y="-121.5" font-family="Vera" font-size="10.00">topo.command.CommandMetaclass</text>
</g>
<!-- param.parameterized.ParameterizedMetaclass&#45;&gt;topo.command.CommandMetaclass -->
<g id="edge8" class="edge"><title>param.parameterized.ParameterizedMetaclass&#45;&gt;topo.command.CommandMetaclass</title>
<path fill="none" stroke="black" stroke-width="0.5" d="M242.377,-124C259.63,-124 277.219,-124 294.028,-124"/>
<polygon fill="black" stroke="black" points="294.218,-125.75 299.218,-124 294.218,-122.25 294.218,-125.75"/>
</g>
<!-- topo.command.ImportErrorObject -->
<g id="node5" class="node"><title>topo.command.ImportErrorObject</title>
<polygon fill="none" stroke="black" stroke-width="0.5" points="210,-172.5 32,-172.5 32,-151.5 210,-151.5 210,-172.5"/>
<text text-anchor="middle" x="121" y="-159.5" font-family="Vera" font-size="10.00">topo.command.ImportErrorObject</text>
</g>
<!-- topo.command.param_formatter -->
<g id="node6" class="node"><title>topo.command.param_formatter</title>
<polygon fill="none" stroke="black" stroke-width="0.5" points="724,-153.5 548,-153.5 548,-132.5 724,-132.5 724,-153.5"/>
<text text-anchor="middle" x="636" y="-140.5" font-family="Vera" font-size="10.00">topo.command.param_formatter</text>
</g>
<!-- param.parameterized.ParameterizedFunction&#45;&gt;topo.command.param_formatter -->
<g id="edge2" class="edge"><title>param.parameterized.ParameterizedFunction&#45;&gt;topo.command.param_formatter</title>
<path fill="none" stroke="black" stroke-width="0.5" d="M477.959,-96.0309C489.538,-98.4233 501.171,-101.371 512,-105 529.154,-110.748 531,-117.811 548,-124 556.027,-126.922 564.638,-129.463 573.218,-131.651"/>
<polygon fill="black" stroke="black" points="573.276,-133.468 578.55,-132.969 574.116,-130.071 573.276,-133.468"/>
</g>
<!-- topo.command.Command -->
<g id="node10" class="node"><title>topo.command.Command</title>
<polygon fill="none" stroke="black" stroke-width="0.5" points="707,-115.5 565,-115.5 565,-94.5 707,-94.5 707,-115.5"/>
<text text-anchor="middle" x="636" y="-102.5" font-family="Vera" font-size="10.00">topo.command.Command</text>
</g>
<!-- param.parameterized.ParameterizedFunction&#45;&gt;topo.command.Command -->
<g id="edge4" class="edge"><title>param.parameterized.ParameterizedFunction&#45;&gt;topo.command.Command</title>
<path fill="none" stroke="black" stroke-width="0.5" d="M512.323,-95.2495C528.24,-96.5044 544.232,-97.7652 559.185,-98.944"/>
<polygon fill="black" stroke="black" points="559.093,-100.692 564.215,-99.3406 559.368,-97.2029 559.093,-100.692"/>
</g>
<!-- topo.command.runscript -->
<g id="node15" class="node"><title>topo.command.runscript</title>
<polygon fill="none" stroke="black" stroke-width="0.5" points="703,-77.5 569,-77.5 569,-56.5 703,-56.5 703,-77.5"/>
<text text-anchor="middle" x="636" y="-64.5" font-family="Vera" font-size="10.00">topo.command.runscript</text>
</g>
<!-- param.parameterized.ParameterizedFunction&#45;&gt;topo.command.runscript -->
<g id="edge10" class="edge"><title>param.parameterized.ParameterizedFunction&#45;&gt;topo.command.runscript</title>
<path fill="none" stroke="black" stroke-width="0.5" d="M512.323,-76.7505C529.639,-75.3853 547.042,-74.0133 563.101,-72.7473"/>
<polygon fill="black" stroke="black" points="563.646,-74.4598 568.493,-72.3221 563.371,-70.9706 563.646,-74.4598"/>
</g>
<!-- topo.command.run_batch -->
<g id="node17" class="node"><title>topo.command.run_batch</title>
<polygon fill="none" stroke="black" stroke-width="0.5" points="706,-39.5 566,-39.5 566,-18.5 706,-18.5 706,-39.5"/>
<text text-anchor="middle" x="636" y="-26.5" font-family="Vera" font-size="10.00">topo.command.run_batch</text>
</g>
<!-- param.parameterized.ParameterizedFunction&#45;&gt;topo.command.run_batch -->
<g id="edge12" class="edge"><title>param.parameterized.ParameterizedFunction&#45;&gt;topo.command.run_batch</title>
<path fill="none" stroke="black" stroke-width="0.5" d="M433.909,-75.9851C464.785,-68.1231 509.075,-57.0337 548,-48 559.324,-45.372 571.495,-42.6673 583.067,-40.1523"/>
<polygon fill="black" stroke="black" points="583.469,-41.8558 587.985,-39.0868 582.728,-38.4352 583.469,-41.8558"/>
</g>
<!-- topo.command.ImportErrorRaisingFakeModule -->
<g id="node9" class="node"><title>topo.command.ImportErrorRaisingFakeModule</title>
<polygon fill="none" stroke="black" stroke-width="0.5" points="240,-210.5 2,-210.5 2,-189.5 240,-189.5 240,-210.5"/>
<text text-anchor="middle" x="121" y="-197.5" font-family="Vera" font-size="10.00">topo.command.ImportErrorRaisingFakeModule</text>
</g>
</g>
</svg>
