<?xml version="1.0" encoding="UTF-8" standalone="no"?>
<!DOCTYPE svg PUBLIC "-//W3C//DTD SVG 1.1//EN"
 "http://www.w3.org/Graphics/SVG/1.1/DTD/svg11.dtd">
<!-- Generated by graphviz version 2.26.3 (20100126.1600)
 -->
<!-- Title: inheritancef415e0380d Pages: 1 -->
<svg width="732pt" height="218pt"
 viewBox="0.00 0.00 732.00 218.00" xmlns="http://www.w3.org/2000/svg" xmlns:xlink="http://www.w3.org/1999/xlink">
<g id="graph1" class="graph" transform="scale(1 1) rotate(0) translate(4 214)">
<title>inheritancef415e0380d</title>
<polygon fill="white" stroke="white" points="-4,5 -4,-214 729,-214 729,5 -4,5"/>
<!-- topo.command.ImportErrorRaisingFakeModule -->
<g id="node1" class="node"><title>topo.command.ImportErrorRaisingFakeModule</title>
<polygon fill="none" stroke="black" stroke-width="0.5" points="240,-20.5 2,-20.5 2,0.5 240,0.5 240,-20.5"/>
<text text-anchor="middle" x="121" y="-7.5" font-family="Vera" font-size="10.00">topo.command.ImportErrorRaisingFakeModule</text>
</g>
<!-- topo.command.UnpickleEnvironmentCreator -->
<g id="node2" class="node"><title>topo.command.UnpickleEnvironmentCreator</title>
<polygon fill="none" stroke="black" stroke-width="0.5" points="236,-58.5 6,-58.5 6,-37.5 236,-37.5 236,-58.5"/>
<text text-anchor="middle" x="121" y="-45.5" font-family="Vera" font-size="10.00">topo.command.UnpickleEnvironmentCreator</text>
</g>
<!-- topo.command.run_batch -->
<g id="node3" class="node"><title>topo.command.run_batch</title>
<polygon fill="none" stroke="black" stroke-width="0.5" points="706,-153.5 566,-153.5 566,-132.5 706,-132.5 706,-153.5"/>
<text text-anchor="middle" x="636" y="-140.5" font-family="Vera" font-size="10.00">topo.command.run_batch</text>
</g>
<!-- param.parameterized.ParameterizedFunction -->
<g id="node4" class="node"><title>param.parameterized.ParameterizedFunction</title>
<polygon fill="none" stroke="black" stroke-width="0.5" points="512,-96.5 278,-96.5 278,-75.5 512,-75.5 512,-96.5"/>
<text text-anchor="middle" x="395" y="-83.5" font-family="Vera" font-size="10.00">param.parameterized.ParameterizedFunction</text>
</g>
<!-- param.parameterized.ParameterizedFunction&#45;&gt;topo.command.run_batch -->
<g id="edge2" class="edge"><title>param.parameterized.ParameterizedFunction&#45;&gt;topo.command.run_batch</title>
<path fill="none" stroke="black" stroke-width="0.5" d="M433.909,-96.0149C464.785,-103.877 509.075,-114.966 548,-124 559.324,-126.628 571.495,-129.333 583.067,-131.848"/>
<polygon fill="black" stroke="black" points="582.728,-133.565 587.985,-132.913 583.469,-130.144 582.728,-133.565"/>
</g>
<!-- topo.command.runscript -->
<g id="node8" class="node"><title>topo.command.runscript</title>
<polygon fill="none" stroke="black" stroke-width="0.5" points="703,-115.5 569,-115.5 569,-94.5 703,-94.5 703,-115.5"/>
<text text-anchor="middle" x="636" y="-102.5" font-family="Vera" font-size="10.00">topo.command.runscript</text>
</g>
<!-- param.parameterized.ParameterizedFunction&#45;&gt;topo.command.runscript -->
<g id="edge4" class="edge"><title>param.parameterized.ParameterizedFunction&#45;&gt;topo.command.runscript</title>
<path fill="none" stroke="black" stroke-width="0.5" d="M512.323,-95.2495C529.639,-96.6147 547.042,-97.9867 563.101,-99.2527"/>
<polygon fill="black" stroke="black" points="563.371,-101.029 568.493,-99.6779 563.646,-97.5402 563.371,-101.029"/>
</g>
<!-- topo.command.param_formatter -->
<g id="node10" class="node"><title>topo.command.param_formatter</title>
<polygon fill="none" stroke="black" stroke-width="0.5" points="724,-77.5 548,-77.5 548,-56.5 724,-56.5 724,-77.5"/>
<text text-anchor="middle" x="636" y="-64.5" font-family="Vera" font-size="10.00">topo.command.param_formatter</text>
</g>
<!-- param.parameterized.ParameterizedFunction&#45;&gt;topo.command.param_formatter -->
<g id="edge6" class="edge"><title>param.parameterized.ParameterizedFunction&#45;&gt;topo.command.param_formatter</title>
<path fill="none" stroke="black" stroke-width="0.5" d="M512.323,-76.7505C522.517,-75.9468 532.741,-75.1407 542.703,-74.3553"/>
<polygon fill="black" stroke="black" points="543.041,-76.0843 547.888,-73.9466 542.766,-72.5951 543.041,-76.0843"/>
</g>
<!-- topo.command.Command -->
<g id="node14" class="node"><title>topo.command.Command</title>
<polygon fill="none" stroke="black" stroke-width="0.5" points="707,-39.5 565,-39.5 565,-18.5 707,-18.5 707,-39.5"/>
<text text-anchor="middle" x="636" y="-26.5" font-family="Vera" font-size="10.00">topo.command.Command</text>
</g>
<!-- param.parameterized.ParameterizedFunction&#45;&gt;topo.command.Command -->
<g id="edge8" class="edge"><title>param.parameterized.ParameterizedFunction&#45;&gt;topo.command.Command</title>
<path fill="none" stroke="black" stroke-width="0.5" d="M433.909,-75.9851C464.785,-68.1231 509.075,-57.0337 548,-48 559.324,-45.372 571.495,-42.6673 583.067,-40.1523"/>
<polygon fill="black" stroke="black" points="583.469,-41.8558 587.985,-39.0868 582.728,-38.4352 583.469,-41.8558"/>
</g>
<!-- topo.command.ImportErrorObject -->
<g id="node6" class="node"><title>topo.command.ImportErrorObject</title>
<polygon fill="none" stroke="black" stroke-width="0.5" points="210,-134.5 32,-134.5 32,-113.5 210,-113.5 210,-134.5"/>
<text text-anchor="middle" x="121" y="-121.5" font-family="Vera" font-size="10.00">topo.command.ImportErrorObject</text>
</g>
<!-- topo.command._VersionPrinter -->
<g id="node7" class="node"><title>topo.command._VersionPrinter</title>
<polygon fill="none" stroke="black" stroke-width="0.5" points="203,-172.5 39,-172.5 39,-151.5 203,-151.5 203,-172.5"/>
<text text-anchor="middle" x="121" y="-159.5" font-family="Vera" font-size="10.00">topo.command._VersionPrinter</text>
</g>
<!-- param.parameterized.Parameterized -->
<g id="node12" class="node"><title>param.parameterized.Parameterized</title>
<polygon fill="none" stroke="black" stroke-width="0.5" points="218,-96.5 24,-96.5 24,-75.5 218,-75.5 218,-96.5"/>
<text text-anchor="middle" x="121" y="-83.5" font-family="Vera" font-size="10.00">param.parameterized.Parameterized</text>
</g>
<!-- param.parameterized.Parameterized&#45;&gt;param.parameterized.ParameterizedFunction -->
<g id="edge12" class="edge"><title>param.parameterized.Parameterized&#45;&gt;param.parameterized.ParameterizedFunction</title>
<path fill="none" stroke="black" stroke-width="0.5" d="M218.374,-86C235.949,-86 254.476,-86 272.655,-86"/>
<polygon fill="black" stroke="black" points="272.772,-87.7501 277.772,-86 272.772,-84.2501 272.772,-87.7501"/>
</g>
<!-- param.parameterized.ParameterizedMetaclass -->
<g id="node13" class="node"><title>param.parameterized.ParameterizedMetaclass</title>
<polygon fill="none" stroke="black" stroke-width="0.5" points="242,-210.5 9.9476e-14,-210.5 0,-189.5 242,-189.5 242,-210.5"/>
<text text-anchor="middle" x="121" y="-197.5" font-family="Vera" font-size="10.00">param.parameterized.ParameterizedMetaclass</text>
</g>
<!-- topo.command.CommandMetaclass -->
<g id="node16" class="node"><title>topo.command.CommandMetaclass</title>
<polygon fill="none" stroke="black" stroke-width="0.5" points="490,-210.5 300,-210.5 300,-189.5 490,-189.5 490,-210.5"/>
<text text-anchor="middle" x="395" y="-197.5" font-family="Vera" font-size="10.00">topo.command.CommandMetaclass</text>
</g>
<!-- param.parameterized.ParameterizedMetaclass&#45;&gt;topo.command.CommandMetaclass -->
<g id="edge10" class="edge"><title>param.parameterized.ParameterizedMetaclass&#45;&gt;topo.command.CommandMetaclass</title>
<path fill="none" stroke="black" stroke-width="0.5" d="M242.377,-200C259.63,-200 277.219,-200 294.028,-200"/>
<polygon fill="black" stroke="black" points="294.218,-201.75 299.218,-200 294.218,-198.25 294.218,-201.75"/>
</g>
</g>
</svg>
