<?xml version="1.0" encoding="UTF-8" standalone="no"?>
<!DOCTYPE svg PUBLIC "-//W3C//DTD SVG 1.1//EN"
 "http://www.w3.org/Graphics/SVG/1.1/DTD/svg11.dtd">
<!-- Generated by graphviz version 2.26.3 (20100126.1600)
 -->
<!-- Title: inheritance0f827376bc Pages: 1 -->
<svg width="2194pt" height="323pt"
 viewBox="0.00 0.00 2194.00 323.00" xmlns="http://www.w3.org/2000/svg" xmlns:xlink="http://www.w3.org/1999/xlink">
<g id="graph1" class="graph" transform="scale(1 1) rotate(0) translate(4 319)">
<title>inheritance0f827376bc</title>
<polygon fill="white" stroke="white" points="-4,5 -4,-319 2191,-319 2191,5 -4,5"/>
<!-- topo.analysis.featureresponses.UnitCurveCommand -->
<g id="node1" class="node"><title>topo.analysis.featureresponses.UnitCurveCommand</title>
<polygon fill="none" stroke="black" stroke-width="0.5" points="2185,-201.5 1919,-201.5 1919,-180.5 2185,-180.5 2185,-201.5"/>
<text text-anchor="middle" x="2052" y="-188.5" font-family="Vera" font-size="10.00">topo.analysis.featureresponses.UnitCurveCommand</text>
</g>
<!-- topo.analysis.featureresponses.FeatureCurveCommand -->
<g id="node2" class="node"><title>topo.analysis.featureresponses.FeatureCurveCommand</title>
<polygon fill="none" stroke="black" stroke-width="0.5" points="1882,-201.5 1598,-201.5 1598,-180.5 1882,-180.5 1882,-201.5"/>
<text text-anchor="middle" x="1740" y="-188.5" font-family="Vera" font-size="10.00">topo.analysis.featureresponses.FeatureCurveCommand</text>
</g>
<!-- topo.analysis.featureresponses.FeatureCurveCommand&#45;&gt;topo.analysis.featureresponses.UnitCurveCommand -->
<g id="edge2" class="edge"><title>topo.analysis.featureresponses.FeatureCurveCommand&#45;&gt;topo.analysis.featureresponses.UnitCurveCommand</title>
<path fill="none" stroke="black" stroke-width="0.5" d="M1882.3,-191C1892.43,-191 1902.64,-191 1912.75,-191"/>
<polygon fill="black" stroke="black" points="1913.03,-192.75 1918.03,-191 1913.03,-189.25 1913.03,-192.75"/>
</g>
<!-- topo.analysis.featureresponses.FeatureCurves -->
<g id="node4" class="node"><title>topo.analysis.featureresponses.FeatureCurves</title>
<polygon fill="none" stroke="black" stroke-width="0.5" points="1135,-315.5 897,-315.5 897,-294.5 1135,-294.5 1135,-315.5"/>
<text text-anchor="middle" x="1016" y="-302.5" font-family="Vera" font-size="10.00">topo.analysis.featureresponses.FeatureCurves</text>
</g>
<!-- topo.analysis.featureresponses.FeatureResponses -->
<g id="node5" class="node"><title>topo.analysis.featureresponses.FeatureResponses</title>
<polygon fill="none" stroke="black" stroke-width="0.5" points="801,-258.5 545,-258.5 545,-237.5 801,-237.5 801,-258.5"/>
<text text-anchor="middle" x="673" y="-245.5" font-family="Vera" font-size="10.00">topo.analysis.featureresponses.FeatureResponses</text>
</g>
<!-- topo.analysis.featureresponses.FeatureResponses&#45;&gt;topo.analysis.featureresponses.FeatureCurves -->
<g id="edge4" class="edge"><title>topo.analysis.featureresponses.FeatureResponses&#45;&gt;topo.analysis.featureresponses.FeatureCurves</title>
<path fill="none" stroke="black" stroke-width="0.5" d="M717.887,-258.021C756.072,-266.306 812.442,-277.973 862,-286 880.716,-289.032 900.782,-291.832 920.04,-294.3"/>
<polygon fill="black" stroke="black" points="920.268,-296.093 925.448,-294.987 920.709,-292.621 920.268,-296.093"/>
</g>
<!-- topo.analysis.featureresponses.ReverseCorrelation -->
<g id="node21" class="node"><title>topo.analysis.featureresponses.ReverseCorrelation</title>
<polygon fill="none" stroke="black" stroke-width="0.5" points="1146,-277.5 886,-277.5 886,-256.5 1146,-256.5 1146,-277.5"/>
<text text-anchor="middle" x="1016" y="-264.5" font-family="Vera" font-size="10.00">topo.analysis.featureresponses.ReverseCorrelation</text>
</g>
<!-- topo.analysis.featureresponses.FeatureResponses&#45;&gt;topo.analysis.featureresponses.ReverseCorrelation -->
<g id="edge18" class="edge"><title>topo.analysis.featureresponses.FeatureResponses&#45;&gt;topo.analysis.featureresponses.ReverseCorrelation</title>
<path fill="none" stroke="black" stroke-width="0.5" d="M801.696,-255.129C827.448,-256.555 854.575,-258.058 880.547,-259.497"/>
<polygon fill="black" stroke="black" points="880.636,-261.254 885.726,-259.784 880.83,-257.76 880.636,-261.254"/>
</g>
<!-- topo.analysis.featureresponses.FeatureMaps -->
<g id="node36" class="node"><title>topo.analysis.featureresponses.FeatureMaps</title>
<polygon fill="none" stroke="black" stroke-width="0.5" points="1131,-239.5 901,-239.5 901,-218.5 1131,-218.5 1131,-239.5"/>
<text text-anchor="middle" x="1016" y="-226.5" font-family="Vera" font-size="10.00">topo.analysis.featureresponses.FeatureMaps</text>
</g>
<!-- topo.analysis.featureresponses.FeatureResponses&#45;&gt;topo.analysis.featureresponses.FeatureMaps -->
<g id="edge36" class="edge"><title>topo.analysis.featureresponses.FeatureResponses&#45;&gt;topo.analysis.featureresponses.FeatureMaps</title>
<path fill="none" stroke="black" stroke-width="0.5" d="M801.696,-240.871C832.335,-239.174 864.92,-237.369 895.191,-235.692"/>
<polygon fill="black" stroke="black" points="895.525,-237.426 900.42,-235.402 895.331,-233.932 895.525,-237.426"/>
</g>
<!-- topo.base.functionfamily.PatternDrivenAnalysis -->
<g id="node7" class="node"><title>topo.base.functionfamily.PatternDrivenAnalysis</title>
<polygon fill="none" stroke="black" stroke-width="0.5" points="477,-253.5 237,-253.5 237,-232.5 477,-232.5 477,-253.5"/>
<text text-anchor="middle" x="357" y="-240.5" font-family="Vera" font-size="10.00">topo.base.functionfamily.PatternDrivenAnalysis</text>
</g>
<!-- topo.base.functionfamily.PatternDrivenAnalysis&#45;&gt;topo.analysis.featureresponses.FeatureResponses -->
<g id="edge26" class="edge"><title>topo.base.functionfamily.PatternDrivenAnalysis&#45;&gt;topo.analysis.featureresponses.FeatureResponses</title>
<path fill="none" stroke="black" stroke-width="0.5" d="M477.368,-244.905C497.547,-245.224 518.595,-245.557 539.09,-245.881"/>
<polygon fill="black" stroke="black" points="539.261,-247.634 544.288,-245.963 539.317,-244.134 539.261,-247.634"/>
</g>
<!-- param.parameterized.Parameterized -->
<g id="node8" class="node"><title>param.parameterized.Parameterized</title>
<polygon fill="none" stroke="black" stroke-width="0.5" points="194,-134.5 5.68434e-14,-134.5 0,-113.5 194,-113.5 194,-134.5"/>
<text text-anchor="middle" x="97" y="-121.5" font-family="Vera" font-size="10.00">param.parameterized.Parameterized</text>
</g>
<!-- param.parameterized.Parameterized&#45;&gt;topo.base.functionfamily.PatternDrivenAnalysis -->
<g id="edge6" class="edge"><title>param.parameterized.Parameterized&#45;&gt;topo.base.functionfamily.PatternDrivenAnalysis</title>
<path fill="none" stroke="black" stroke-width="0.5" d="M107.716,-134.214C129.098,-153.974 179.372,-197.385 230,-219 242.59,-224.375 256.392,-228.551 270.113,-231.795"/>
<polygon fill="black" stroke="black" points="269.898,-233.541 275.162,-232.948 270.678,-230.129 269.898,-233.541"/>
</g>
<!-- param.parameterized.ParameterizedFunction -->
<g id="node10" class="node"><title>param.parameterized.ParameterizedFunction</title>
<polygon fill="none" stroke="black" stroke-width="0.5" points="474,-210.5 240,-210.5 240,-189.5 474,-189.5 474,-210.5"/>
<text text-anchor="middle" x="357" y="-197.5" font-family="Vera" font-size="10.00">param.parameterized.ParameterizedFunction</text>
</g>
<!-- param.parameterized.Parameterized&#45;&gt;param.parameterized.ParameterizedFunction -->
<g id="edge8" class="edge"><title>param.parameterized.Parameterized&#45;&gt;param.parameterized.ParameterizedFunction</title>
<path fill="none" stroke="black" stroke-width="0.5" d="M116.253,-134.123C141.62,-147.018 187.951,-169.059 230,-181 241.071,-184.144 252.842,-186.793 264.58,-189.018"/>
<polygon fill="black" stroke="black" points="264.372,-190.759 269.607,-189.946 265.007,-187.317 264.372,-190.759"/>
</g>
<!-- topo.analysis.featureresponses.Subplotting -->
<g id="node12" class="node"><title>topo.analysis.featureresponses.Subplotting</title>
<polygon fill="none" stroke="black" stroke-width="0.5" points="469,-172.5 245,-172.5 245,-151.5 469,-151.5 469,-172.5"/>
<text text-anchor="middle" x="357" y="-159.5" font-family="Vera" font-size="10.00">topo.analysis.featureresponses.Subplotting</text>
</g>
<!-- param.parameterized.Parameterized&#45;&gt;topo.analysis.featureresponses.Subplotting -->
<g id="edge10" class="edge"><title>param.parameterized.Parameterized&#45;&gt;topo.analysis.featureresponses.Subplotting</title>
<path fill="none" stroke="black" stroke-width="0.5" d="M165.652,-134.034C201.788,-139.315 246.13,-145.796 283.027,-151.189"/>
<polygon fill="black" stroke="black" points="283.214,-152.984 288.414,-151.976 283.72,-149.521 283.214,-152.984"/>
</g>
<!-- topo.analysis.featureresponses.Feature -->
<g id="node14" class="node"><title>topo.analysis.featureresponses.Feature</title>
<polygon fill="none" stroke="black" stroke-width="0.5" points="460,-134.5 254,-134.5 254,-113.5 460,-113.5 460,-134.5"/>
<text text-anchor="middle" x="357" y="-121.5" font-family="Vera" font-size="10.00">topo.analysis.featureresponses.Feature</text>
</g>
<!-- param.parameterized.Parameterized&#45;&gt;topo.analysis.featureresponses.Feature -->
<g id="edge12" class="edge"><title>param.parameterized.Parameterized&#45;&gt;topo.analysis.featureresponses.Feature</title>
<path fill="none" stroke="black" stroke-width="0.5" d="M194.184,-124C211.983,-124 230.659,-124 248.757,-124"/>
<polygon fill="black" stroke="black" points="248.845,-125.75 253.845,-124 248.845,-122.25 248.845,-125.75"/>
</g>
<!-- topo.analysis.featureresponses.FullMatrix -->
<g id="node24" class="node"><title>topo.analysis.featureresponses.FullMatrix</title>
<polygon fill="none" stroke="black" stroke-width="0.5" points="464,-96.5 250,-96.5 250,-75.5 464,-75.5 464,-96.5"/>
<text text-anchor="middle" x="357" y="-83.5" font-family="Vera" font-size="10.00">topo.analysis.featureresponses.FullMatrix</text>
</g>
<!-- param.parameterized.Parameterized&#45;&gt;topo.analysis.featureresponses.FullMatrix -->
<g id="edge22" class="edge"><title>param.parameterized.Parameterized&#45;&gt;topo.analysis.featureresponses.FullMatrix</title>
<path fill="none" stroke="black" stroke-width="0.5" d="M165.652,-113.966C201.788,-108.685 246.13,-102.204 283.027,-96.8115"/>
<polygon fill="black" stroke="black" points="283.72,-98.4788 288.414,-96.024 283.214,-95.0156 283.72,-98.4788"/>
</g>
<!-- topo.analysis.featureresponses.PatternPresenter -->
<g id="node26" class="node"><title>topo.analysis.featureresponses.PatternPresenter</title>
<polygon fill="none" stroke="black" stroke-width="0.5" points="482,-58.5 232,-58.5 232,-37.5 482,-37.5 482,-58.5"/>
<text text-anchor="middle" x="357" y="-45.5" font-family="Vera" font-size="10.00">topo.analysis.featureresponses.PatternPresenter</text>
</g>
<!-- param.parameterized.Parameterized&#45;&gt;topo.analysis.featureresponses.PatternPresenter -->
<g id="edge24" class="edge"><title>param.parameterized.Parameterized&#45;&gt;topo.analysis.featureresponses.PatternPresenter</title>
<path fill="none" stroke="black" stroke-width="0.5" d="M116.253,-113.877C141.62,-100.982 187.951,-78.9411 230,-67 241.071,-63.8559 252.842,-61.2072 264.58,-58.982"/>
<polygon fill="black" stroke="black" points="265.007,-60.6827 269.607,-58.054 264.372,-57.2409 265.007,-60.6827"/>
</g>
<!-- topo.analysis.featureresponses.DistributionMatrix -->
<g id="node33" class="node"><title>topo.analysis.featureresponses.DistributionMatrix</title>
<polygon fill="none" stroke="black" stroke-width="0.5" points="484,-20.5 230,-20.5 230,0.5 484,0.5 484,-20.5"/>
<text text-anchor="middle" x="357" y="-7.5" font-family="Vera" font-size="10.00">topo.analysis.featureresponses.DistributionMatrix</text>
</g>
<!-- param.parameterized.Parameterized&#45;&gt;topo.analysis.featureresponses.DistributionMatrix -->
<g id="edge32" class="edge"><title>param.parameterized.Parameterized&#45;&gt;topo.analysis.featureresponses.DistributionMatrix</title>
<path fill="none" stroke="black" stroke-width="0.5" d="M107.318,-113.923C128.386,-94.0085 178.705,-49.7487 230,-29 237.445,-25.9885 245.31,-23.4483 253.328,-21.3064"/>
<polygon fill="black" stroke="black" points="253.929,-22.9592 258.338,-20.0236 253.06,-19.5686 253.929,-22.9592"/>
</g>
<!-- topo.analysis.featureresponses.PatternPresentingCommand -->
<g id="node17" class="node"><title>topo.analysis.featureresponses.PatternPresentingCommand</title>
<polygon fill="none" stroke="black" stroke-width="0.5" points="825,-201.5 521,-201.5 521,-180.5 825,-180.5 825,-201.5"/>
<text text-anchor="middle" x="673" y="-188.5" font-family="Vera" font-size="10.00">topo.analysis.featureresponses.PatternPresentingCommand</text>
</g>
<!-- param.parameterized.ParameterizedFunction&#45;&gt;topo.analysis.featureresponses.PatternPresentingCommand -->
<g id="edge20" class="edge"><title>param.parameterized.ParameterizedFunction&#45;&gt;topo.analysis.featureresponses.PatternPresentingCommand</title>
<path fill="none" stroke="black" stroke-width="0.5" d="M474.218,-196.662C487.593,-196.281 501.386,-195.888 515.178,-195.495"/>
<polygon fill="black" stroke="black" points="515.311,-197.242 520.259,-195.35 515.211,-193.743 515.311,-197.242"/>
</g>
<!-- topo.analysis.featureresponses.pattern_response -->
<g id="node16" class="node"><title>topo.analysis.featureresponses.pattern_response</title>
<polygon fill="none" stroke="black" stroke-width="0.5" points="1143,-201.5 889,-201.5 889,-180.5 1143,-180.5 1143,-201.5"/>
<text text-anchor="middle" x="1016" y="-188.5" font-family="Vera" font-size="10.00">topo.analysis.featureresponses.pattern_response</text>
</g>
<!-- topo.analysis.featureresponses.PatternPresentingCommand&#45;&gt;topo.analysis.featureresponses.pattern_response -->
<g id="edge14" class="edge"><title>topo.analysis.featureresponses.PatternPresentingCommand&#45;&gt;topo.analysis.featureresponses.pattern_response</title>
<path fill="none" stroke="black" stroke-width="0.5" d="M825.942,-191C845.129,-191 864.629,-191 883.468,-191"/>
<polygon fill="black" stroke="black" points="883.763,-192.75 888.763,-191 883.763,-189.25 883.763,-192.75"/>
</g>
<!-- topo.analysis.featureresponses.MeasureResponseCommand -->
<g id="node19" class="node"><title>topo.analysis.featureresponses.MeasureResponseCommand</title>
<polygon fill="none" stroke="black" stroke-width="0.5" points="1169,-163.5 863,-163.5 863,-142.5 1169,-142.5 1169,-163.5"/>
<text text-anchor="middle" x="1016" y="-150.5" font-family="Vera" font-size="10.00">topo.analysis.featureresponses.MeasureResponseCommand</text>
</g>
<!-- topo.analysis.featureresponses.PatternPresentingCommand&#45;&gt;topo.analysis.featureresponses.MeasureResponseCommand -->
<g id="edge16" class="edge"><title>topo.analysis.featureresponses.PatternPresentingCommand&#45;&gt;topo.analysis.featureresponses.MeasureResponseCommand</title>
<path fill="none" stroke="black" stroke-width="0.5" d="M763.568,-180.966C811.924,-175.609 871.418,-169.018 920.5,-163.58"/>
<polygon fill="black" stroke="black" points="920.743,-165.314 925.52,-163.024 920.357,-161.835 920.743,-165.314"/>
</g>
<!-- topo.analysis.featureresponses.SinusoidalMeasureResponseCommand -->
<g id="node29" class="node"><title>topo.analysis.featureresponses.SinusoidalMeasureResponseCommand</title>
<polygon fill="none" stroke="black" stroke-width="0.5" points="1562,-201.5 1206,-201.5 1206,-180.5 1562,-180.5 1562,-201.5"/>
<text text-anchor="middle" x="1384" y="-188.5" font-family="Vera" font-size="10.00">topo.analysis.featureresponses.SinusoidalMeasureResponseCommand</text>
</g>
<!-- topo.analysis.featureresponses.MeasureResponseCommand&#45;&gt;topo.analysis.featureresponses.SinusoidalMeasureResponseCommand -->
<g id="edge28" class="edge"><title>topo.analysis.featureresponses.MeasureResponseCommand&#45;&gt;topo.analysis.featureresponses.SinusoidalMeasureResponseCommand</title>
<path fill="none" stroke="black" stroke-width="0.5" d="M1113.17,-163.034C1165.15,-168.402 1229.14,-175.009 1281.86,-180.453"/>
<polygon fill="black" stroke="black" points="1281.77,-182.203 1286.93,-180.976 1282.13,-178.722 1281.77,-182.203"/>
</g>
<!-- topo.analysis.featureresponses.SingleInputResponseCommand -->
<g id="node31" class="node"><title>topo.analysis.featureresponses.SingleInputResponseCommand</title>
<polygon fill="none" stroke="black" stroke-width="0.5" points="1543,-163.5 1225,-163.5 1225,-142.5 1543,-142.5 1543,-163.5"/>
<text text-anchor="middle" x="1384" y="-150.5" font-family="Vera" font-size="10.00">topo.analysis.featureresponses.SingleInputResponseCommand</text>
</g>
<!-- topo.analysis.featureresponses.MeasureResponseCommand&#45;&gt;topo.analysis.featureresponses.SingleInputResponseCommand -->
<g id="edge30" class="edge"><title>topo.analysis.featureresponses.MeasureResponseCommand&#45;&gt;topo.analysis.featureresponses.SingleInputResponseCommand</title>
<path fill="none" stroke="black" stroke-width="0.5" d="M1169.67,-153C1186.01,-153 1202.68,-153 1219.14,-153"/>
<polygon fill="black" stroke="black" points="1219.25,-154.75 1224.25,-153 1219.25,-151.25 1219.25,-154.75"/>
</g>
<!-- topo.analysis.featureresponses.PositionMeasurementCommand -->
<g id="node38" class="node"><title>topo.analysis.featureresponses.PositionMeasurementCommand</title>
<polygon fill="none" stroke="black" stroke-width="0.5" points="1546,-125.5 1222,-125.5 1222,-104.5 1546,-104.5 1546,-125.5"/>
<text text-anchor="middle" x="1384" y="-112.5" font-family="Vera" font-size="10.00">topo.analysis.featureresponses.PositionMeasurementCommand</text>
</g>
<!-- topo.analysis.featureresponses.MeasureResponseCommand&#45;&gt;topo.analysis.featureresponses.PositionMeasurementCommand -->
<g id="edge38" class="edge"><title>topo.analysis.featureresponses.MeasureResponseCommand&#45;&gt;topo.analysis.featureresponses.PositionMeasurementCommand</title>
<path fill="none" stroke="black" stroke-width="0.5" d="M1113.17,-142.966C1165.15,-137.598 1229.14,-130.991 1281.86,-125.547"/>
<polygon fill="black" stroke="black" points="1282.13,-127.278 1286.93,-125.024 1281.77,-123.797 1282.13,-127.278"/>
</g>
<!-- topo.analysis.featureresponses.SinusoidalMeasureResponseCommand&#45;&gt;topo.analysis.featureresponses.FeatureCurveCommand -->
<g id="edge34" class="edge"><title>topo.analysis.featureresponses.SinusoidalMeasureResponseCommand&#45;&gt;topo.analysis.featureresponses.FeatureCurveCommand</title>
<path fill="none" stroke="black" stroke-width="0.5" d="M1562,-191C1572.21,-191 1582.43,-191 1592.51,-191"/>
<polygon fill="black" stroke="black" points="1592.76,-192.75 1597.76,-191 1592.76,-189.25 1592.76,-192.75"/>
</g>
</g>
</svg>
