<?xml version="1.0" encoding="UTF-8" standalone="no"?>
<!DOCTYPE svg PUBLIC "-//W3C//DTD SVG 1.1//EN"
 "http://www.w3.org/Graphics/SVG/1.1/DTD/svg11.dtd">
<!-- Generated by graphviz version 2.26.3 (20100126.1600)
 -->
<!-- Title: inheritance95afd34832 Pages: 1 -->
<svg width="1474pt" height="587pt"
 viewBox="0.00 0.00 1474.00 587.00" xmlns="http://www.w3.org/2000/svg" xmlns:xlink="http://www.w3.org/1999/xlink">
<g id="graph1" class="graph" transform="scale(1 1) rotate(0) translate(4 583)">
<title>inheritance95afd34832</title>
<polygon fill="white" stroke="white" points="-4,5 -4,-583 1471,-583 1471,5 -4,5"/>
<!-- paramtk.ListWidget -->
<g id="node1" class="node"><title>paramtk.ListWidget</title>
<polygon fill="none" stroke="black" stroke-width="0.5" points="957,-238.5 849,-238.5 849,-217.5 957,-217.5 957,-238.5"/>
<text text-anchor="middle" x="903" y="-225.5" font-family="Vera" font-size="10.00">paramtk.ListWidget</text>
</g>
<!-- Tkinter.Frame -->
<g id="node2" class="node"><title>Tkinter.Frame</title>
<polygon fill="none" stroke="black" stroke-width="0.5" points="757,-238.5 677,-238.5 677,-217.5 757,-217.5 757,-238.5"/>
<text text-anchor="middle" x="717" y="-225.5" font-family="Vera" font-size="10.00">Tkinter.Frame</text>
</g>
<!-- Tkinter.Frame&#45;&gt;paramtk.ListWidget -->
<g id="edge2" class="edge"><title>Tkinter.Frame&#45;&gt;paramtk.ListWidget</title>
<path fill="none" stroke="black" stroke-width="0.5" d="M757.818,-228C782.785,-228 815.17,-228 843.017,-228"/>
<polygon fill="black" stroke="black" points="843.161,-229.75 848.161,-228 843.161,-226.25 843.161,-229.75"/>
</g>
<!-- paramtk.ProgressWindow -->
<g id="node7" class="node"><title>paramtk.ProgressWindow</title>
<polygon fill="none" stroke="black" stroke-width="0.5" points="971,-390.5 835,-390.5 835,-369.5 971,-369.5 971,-390.5"/>
<text text-anchor="middle" x="903" y="-377.5" font-family="Vera" font-size="10.00">paramtk.ProgressWindow</text>
</g>
<!-- Tkinter.Frame&#45;&gt;paramtk.ProgressWindow -->
<g id="edge8" class="edge"><title>Tkinter.Frame&#45;&gt;paramtk.ProgressWindow</title>
<path fill="none" stroke="black" stroke-width="0.5" d="M757.669,-230.7C769.999,-233.367 782.72,-238.241 792,-247 830.64,-283.47 789.36,-324.53 828,-361 830.5,-363.36 833.25,-365.437 836.175,-367.266"/>
<polygon fill="black" stroke="black" points="835.69,-369.002 840.903,-369.939 837.412,-365.955 835.69,-369.002"/>
</g>
<!-- paramtk.ListItemCtrlWidget -->
<g id="node11" class="node"><title>paramtk.ListItemCtrlWidget</title>
<polygon fill="none" stroke="black" stroke-width="0.5" points="976,-200.5 830,-200.5 830,-179.5 976,-179.5 976,-200.5"/>
<text text-anchor="middle" x="903" y="-187.5" font-family="Vera" font-size="10.00">paramtk.ListItemCtrlWidget</text>
</g>
<!-- Tkinter.Frame&#45;&gt;paramtk.ListItemCtrlWidget -->
<g id="edge10" class="edge"><title>Tkinter.Frame&#45;&gt;paramtk.ListItemCtrlWidget</title>
<path fill="none" stroke="black" stroke-width="0.5" d="M757.818,-219.661C784.607,-214.188 819.937,-206.97 849.036,-201.025"/>
<polygon fill="black" stroke="black" points="849.473,-202.722 854.021,-200.006 848.772,-199.293 849.473,-202.722"/>
</g>
<!-- paramtk.ParametersFrame -->
<g id="node14" class="node"><title>paramtk.ParametersFrame</title>
<polygon fill="none" stroke="black" stroke-width="0.5" points="976,-428.5 830,-428.5 830,-407.5 976,-407.5 976,-428.5"/>
<text text-anchor="middle" x="903" y="-415.5" font-family="Vera" font-size="10.00">paramtk.ParametersFrame</text>
</g>
<!-- Tkinter.Frame&#45;&gt;paramtk.ParametersFrame -->
<g id="edge32" class="edge"><title>Tkinter.Frame&#45;&gt;paramtk.ParametersFrame</title>
<path fill="none" stroke="black" stroke-width="0.5" d="M757.668,-230.22C770.145,-232.842 782.953,-237.811 792,-247 840.707,-296.471 779.293,-349.529 828,-399 830.288,-401.324 832.817,-403.378 835.52,-405.193"/>
<polygon fill="black" stroke="black" points="834.72,-406.754 839.902,-407.851 836.535,-403.762 834.72,-406.754"/>
</g>
<!-- paramtk.HackFileEntry -->
<g id="node21" class="node"><title>paramtk.HackFileEntry</title>
<polygon fill="none" stroke="black" stroke-width="0.5" points="965,-162.5 841,-162.5 841,-141.5 965,-141.5 965,-162.5"/>
<text text-anchor="middle" x="903" y="-149.5" font-family="Vera" font-size="10.00">paramtk.HackFileEntry</text>
</g>
<!-- Tkinter.Frame&#45;&gt;paramtk.HackFileEntry -->
<g id="edge18" class="edge"><title>Tkinter.Frame&#45;&gt;paramtk.HackFileEntry</title>
<path fill="none" stroke="black" stroke-width="0.5" d="M750.887,-217.936C764.139,-213.345 779.198,-207.291 792,-200 809.853,-189.832 809.619,-180.179 828,-171 833.746,-168.131 839.961,-165.671 846.271,-163.567"/>
<polygon fill="black" stroke="black" points="846.875,-165.211 851.108,-162.027 845.813,-161.876 846.875,-165.211"/>
</g>
<!-- paramtk.StatusBar -->
<g id="node35" class="node"><title>paramtk.StatusBar</title>
<polygon fill="none" stroke="black" stroke-width="0.5" points="957,-352.5 849,-352.5 849,-331.5 957,-331.5 957,-352.5"/>
<text text-anchor="middle" x="903" y="-339.5" font-family="Vera" font-size="10.00">paramtk.StatusBar</text>
</g>
<!-- Tkinter.Frame&#45;&gt;paramtk.StatusBar -->
<g id="edge28" class="edge"><title>Tkinter.Frame&#45;&gt;paramtk.StatusBar</title>
<path fill="none" stroke="black" stroke-width="0.5" d="M757.763,-231.649C769.816,-234.388 782.352,-239.065 792,-247 820.867,-270.741 799.133,-299.259 828,-323 832.782,-326.933 838.273,-330.065 844.064,-332.558"/>
<polygon fill="black" stroke="black" points="843.695,-334.294 848.989,-334.505 844.982,-331.04 843.695,-334.294"/>
</g>
<!-- paramtk.ScrolledFrame -->
<g id="node44" class="node"><title>paramtk.ScrolledFrame</title>
<polygon fill="none" stroke="black" stroke-width="0.5" points="967,-314.5 839,-314.5 839,-293.5 967,-293.5 967,-314.5"/>
<text text-anchor="middle" x="903" y="-301.5" font-family="Vera" font-size="10.00">paramtk.ScrolledFrame</text>
</g>
<!-- Tkinter.Frame&#45;&gt;paramtk.ScrolledFrame -->
<g id="edge36" class="edge"><title>Tkinter.Frame&#45;&gt;paramtk.ScrolledFrame</title>
<path fill="none" stroke="black" stroke-width="0.5" d="M757.554,-233.894C769.205,-236.722 781.571,-240.886 792,-247 812.07,-258.766 807.93,-273.234 828,-285 832.702,-287.757 837.798,-290.117 843.044,-292.137"/>
<polygon fill="black" stroke="black" points="842.601,-293.838 847.898,-293.898 843.795,-290.547 842.601,-293.838"/>
</g>
<!-- paramtk.TaggedSlider -->
<g id="node60" class="node"><title>paramtk.TaggedSlider</title>
<polygon fill="none" stroke="black" stroke-width="0.5" points="963,-276.5 843,-276.5 843,-255.5 963,-255.5 963,-276.5"/>
<text text-anchor="middle" x="903" y="-263.5" font-family="Vera" font-size="10.00">paramtk.TaggedSlider</text>
</g>
<!-- Tkinter.Frame&#45;&gt;paramtk.TaggedSlider -->
<g id="edge56" class="edge"><title>Tkinter.Frame&#45;&gt;paramtk.TaggedSlider</title>
<path fill="none" stroke="black" stroke-width="0.5" d="M757.818,-236.339C784.607,-241.812 819.937,-249.03 849.036,-254.975"/>
<polygon fill="black" stroke="black" points="848.772,-256.707 854.021,-255.994 849.473,-253.278 848.772,-256.707"/>
</g>
<!-- Tkinter.Menu -->
<g id="node4" class="node"><title>Tkinter.Menu</title>
<polygon fill="none" stroke="black" stroke-width="0.5" points="755,-191.5 679,-191.5 679,-170.5 755,-170.5 755,-191.5"/>
<text text-anchor="middle" x="717" y="-178.5" font-family="Vera" font-size="10.00">Tkinter.Menu</text>
</g>
<!-- paramtk.Menu -->
<g id="node54" class="node"><title>paramtk.Menu</title>
<polygon fill="none" stroke="black" stroke-width="0.5" points="946,-124.5 860,-124.5 860,-103.5 946,-103.5 946,-124.5"/>
<text text-anchor="middle" x="903" y="-111.5" font-family="Vera" font-size="10.00">paramtk.Menu</text>
</g>
<!-- Tkinter.Menu&#45;&gt;paramtk.Menu -->
<g id="edge48" class="edge"><title>Tkinter.Menu&#45;&gt;paramtk.Menu</title>
<path fill="none" stroke="black" stroke-width="0.5" d="M737.477,-170.965C759.461,-160.473 795.603,-144.029 828,-133 836.583,-130.078 845.854,-127.376 854.853,-124.981"/>
<polygon fill="black" stroke="black" points="855.424,-126.641 859.819,-123.683 854.539,-123.255 855.424,-126.641"/>
</g>
<!-- Tkinter.Widget -->
<g id="node5" class="node"><title>Tkinter.Widget</title>
<polygon fill="none" stroke="black" stroke-width="0.5" points="565,-215.5 483,-215.5 483,-194.5 565,-194.5 565,-215.5"/>
<text text-anchor="middle" x="524" y="-202.5" font-family="Vera" font-size="10.00">Tkinter.Widget</text>
</g>
<!-- Tkinter.Widget&#45;&gt;Tkinter.Frame -->
<g id="edge76" class="edge"><title>Tkinter.Widget&#45;&gt;Tkinter.Frame</title>
<path fill="none" stroke="black" stroke-width="0.5" d="M565.878,-209.991C596.922,-213.69 639.212,-218.73 671.161,-222.537"/>
<polygon fill="black" stroke="black" points="671.025,-224.283 676.197,-223.137 671.439,-220.808 671.025,-224.283"/>
</g>
<!-- Tkinter.Widget&#45;&gt;Tkinter.Menu -->
<g id="edge4" class="edge"><title>Tkinter.Widget&#45;&gt;Tkinter.Menu</title>
<path fill="none" stroke="black" stroke-width="0.5" d="M565.878,-199.792C597.659,-195.84 641.226,-190.423 673.418,-186.42"/>
<polygon fill="black" stroke="black" points="673.738,-188.143 678.483,-185.79 673.306,-184.67 673.738,-188.143"/>
</g>
<!-- paramtk.Balloon -->
<g id="node27" class="node"><title>paramtk.Balloon</title>
<polygon fill="none" stroke="black" stroke-width="0.5" points="764,-276.5 670,-276.5 670,-255.5 764,-255.5 764,-276.5"/>
<text text-anchor="middle" x="717" y="-263.5" font-family="Vera" font-size="10.00">paramtk.Balloon</text>
</g>
<!-- Tkinter.Widget&#45;&gt;paramtk.Balloon -->
<g id="edge22" class="edge"><title>Tkinter.Widget&#45;&gt;paramtk.Balloon</title>
<path fill="none" stroke="black" stroke-width="0.5" d="M550.011,-215.052C573.766,-224.042 609.959,-237.263 642,-247 650.783,-249.669 660.222,-252.268 669.341,-254.642"/>
<polygon fill="black" stroke="black" points="669.089,-256.385 674.368,-255.938 669.963,-252.995 669.089,-256.385"/>
</g>
<!-- Tkinter.Button -->
<g id="node64" class="node"><title>Tkinter.Button</title>
<polygon fill="none" stroke="black" stroke-width="0.5" points="758,-134.5 676,-134.5 676,-113.5 758,-113.5 758,-134.5"/>
<text text-anchor="middle" x="717" y="-121.5" font-family="Vera" font-size="10.00">Tkinter.Button</text>
</g>
<!-- Tkinter.Widget&#45;&gt;Tkinter.Button -->
<g id="edge78" class="edge"><title>Tkinter.Widget&#45;&gt;Tkinter.Button</title>
<path fill="none" stroke="black" stroke-width="0.5" d="M548.053,-194.905C583.545,-180.01 649.847,-152.183 687.986,-136.177"/>
<polygon fill="black" stroke="black" points="689.014,-137.643 692.947,-134.095 687.66,-134.416 689.014,-137.643"/>
</g>
<!-- paramtk.Scrodget -->
<g id="node77" class="node"><title>paramtk.Scrodget</title>
<polygon fill="none" stroke="black" stroke-width="0.5" points="769,-314.5 665,-314.5 665,-293.5 769,-293.5 769,-314.5"/>
<text text-anchor="middle" x="717" y="-301.5" font-family="Vera" font-size="10.00">paramtk.Scrodget</text>
</g>
<!-- Tkinter.Widget&#45;&gt;paramtk.Scrodget -->
<g id="edge72" class="edge"><title>Tkinter.Widget&#45;&gt;paramtk.Scrodget</title>
<path fill="none" stroke="black" stroke-width="0.5" d="M535.894,-215.171C556.276,-232.095 599.776,-266.045 642,-285 648.25,-287.806 654.986,-290.247 661.766,-292.359"/>
<polygon fill="black" stroke="black" points="661.661,-294.154 666.953,-293.91 662.664,-290.801 661.661,-294.154"/>
</g>
<!-- paramtk.ProgressController -->
<g id="node8" class="node"><title>paramtk.ProgressController</title>
<polygon fill="none" stroke="black" stroke-width="0.5" points="791,-390.5 643,-390.5 643,-369.5 791,-369.5 791,-390.5"/>
<text text-anchor="middle" x="717" y="-377.5" font-family="Vera" font-size="10.00">paramtk.ProgressController</text>
</g>
<!-- paramtk.ProgressController&#45;&gt;paramtk.ProgressWindow -->
<g id="edge6" class="edge"><title>paramtk.ProgressController&#45;&gt;paramtk.ProgressWindow</title>
<path fill="none" stroke="black" stroke-width="0.5" d="M791.582,-380C803.962,-380 816.797,-380 829.159,-380"/>
<polygon fill="black" stroke="black" points="829.426,-381.75 834.426,-380 829.426,-378.25 829.426,-381.75"/>
</g>
<!-- paramtk.ParametersFrameWithApply -->
<g id="node13" class="node"><title>paramtk.ParametersFrameWithApply</title>
<polygon fill="none" stroke="black" stroke-width="0.5" points="1206,-428.5 1014,-428.5 1014,-407.5 1206,-407.5 1206,-428.5"/>
<text text-anchor="middle" x="1110" y="-415.5" font-family="Vera" font-size="10.00">paramtk.ParametersFrameWithApply</text>
</g>
<!-- paramtk.EditingParametersFrameWithApply -->
<g id="node86" class="node"><title>paramtk.EditingParametersFrameWithApply</title>
<polygon fill="none" stroke="black" stroke-width="0.5" points="1466,-428.5 1242,-428.5 1242,-407.5 1466,-407.5 1466,-428.5"/>
<text text-anchor="middle" x="1354" y="-415.5" font-family="Vera" font-size="10.00">paramtk.EditingParametersFrameWithApply</text>
</g>
<!-- paramtk.ParametersFrameWithApply&#45;&gt;paramtk.EditingParametersFrameWithApply -->
<g id="edge84" class="edge"><title>paramtk.ParametersFrameWithApply&#45;&gt;paramtk.EditingParametersFrameWithApply</title>
<path fill="none" stroke="black" stroke-width="0.5" d="M1206.09,-418C1216.17,-418 1226.5,-418 1236.79,-418"/>
<polygon fill="black" stroke="black" points="1236.84,-419.75 1241.84,-418 1236.84,-416.25 1236.84,-419.75"/>
</g>
<!-- paramtk.ParametersFrame&#45;&gt;paramtk.ParametersFrameWithApply -->
<g id="edge12" class="edge"><title>paramtk.ParametersFrame&#45;&gt;paramtk.ParametersFrameWithApply</title>
<path fill="none" stroke="black" stroke-width="0.5" d="M976.272,-418C986.862,-418 997.915,-418 1008.93,-418"/>
<polygon fill="black" stroke="black" points="1008.99,-419.75 1013.99,-418 1008.99,-416.25 1008.99,-419.75"/>
</g>
<!-- paramtk.ScrolledWindow -->
<g id="node16" class="node"><title>paramtk.ScrolledWindow</title>
<polygon fill="none" stroke="black" stroke-width="0.5" points="784,-58.5 650,-58.5 650,-37.5 784,-37.5 784,-58.5"/>
<text text-anchor="middle" x="717" y="-45.5" font-family="Vera" font-size="10.00">paramtk.ScrolledWindow</text>
</g>
<!-- paramtk.AppWindow -->
<g id="node83" class="node"><title>paramtk.AppWindow</title>
<polygon fill="none" stroke="black" stroke-width="0.5" points="960,-48.5 846,-48.5 846,-27.5 960,-27.5 960,-48.5"/>
<text text-anchor="middle" x="903" y="-35.5" font-family="Vera" font-size="10.00">paramtk.AppWindow</text>
</g>
<!-- paramtk.ScrolledWindow&#45;&gt;paramtk.AppWindow -->
<g id="edge80" class="edge"><title>paramtk.ScrolledWindow&#45;&gt;paramtk.AppWindow</title>
<path fill="none" stroke="black" stroke-width="0.5" d="M784.15,-44.3898C802.603,-43.3977 822.53,-42.3264 840.697,-41.3496"/>
<polygon fill="black" stroke="black" points="840.873,-43.0928 845.771,-41.0768 840.685,-39.5979 840.873,-43.0928"/>
</g>
<!-- Tkinter.Toplevel -->
<g id="node17" class="node"><title>Tkinter.Toplevel</title>
<polygon fill="none" stroke="black" stroke-width="0.5" points="568,-58.5 480,-58.5 480,-37.5 568,-37.5 568,-58.5"/>
<text text-anchor="middle" x="524" y="-45.5" font-family="Vera" font-size="10.00">Tkinter.Toplevel</text>
</g>
<!-- Tkinter.Toplevel&#45;&gt;paramtk.ScrolledWindow -->
<g id="edge14" class="edge"><title>Tkinter.Toplevel&#45;&gt;paramtk.ScrolledWindow</title>
<path fill="none" stroke="black" stroke-width="0.5" d="M568.763,-48C591.313,-48 619.213,-48 644.705,-48"/>
<polygon fill="black" stroke="black" points="644.769,-49.7501 649.769,-48 644.769,-46.2501 644.769,-49.7501"/>
</g>
<!-- paramtk.ToolTip -->
<g id="node19" class="node"><title>paramtk.ToolTip</title>
<polygon fill="none" stroke="black" stroke-width="0.5" points="763,-20.5 671,-20.5 671,0.5 763,0.5 763,-20.5"/>
<text text-anchor="middle" x="717" y="-7.5" font-family="Vera" font-size="10.00">paramtk.ToolTip</text>
</g>
<!-- Tkinter.Toplevel&#45;&gt;paramtk.ToolTip -->
<g id="edge16" class="edge"><title>Tkinter.Toplevel&#45;&gt;paramtk.ToolTip</title>
<path fill="none" stroke="black" stroke-width="0.5" d="M568.763,-39.1865C597.711,-33.4869 635.478,-26.0509 665.646,-20.1111"/>
<polygon fill="black" stroke="black" points="666.235,-21.7789 670.802,-19.0959 665.558,-18.3449 666.235,-21.7789"/>
</g>
<!-- Tkinter.Wm -->
<g id="node23" class="node"><title>Tkinter.Wm</title>
<polygon fill="none" stroke="black" stroke-width="0.5" points="343,-58.5 275,-58.5 275,-37.5 343,-37.5 343,-58.5"/>
<text text-anchor="middle" x="309" y="-45.5" font-family="Vera" font-size="10.00">Tkinter.Wm</text>
</g>
<!-- Tkinter.Wm&#45;&gt;Tkinter.Toplevel -->
<g id="edge54" class="edge"><title>Tkinter.Wm&#45;&gt;Tkinter.Toplevel</title>
<path fill="none" stroke="black" stroke-width="0.5" d="M343.543,-48C378.874,-48 434.11,-48 474.169,-48"/>
<polygon fill="black" stroke="black" points="474.47,-49.7501 479.47,-48 474.47,-46.2501 474.47,-49.7501"/>
</g>
<!-- paramtk.Translator -->
<g id="node24" class="node"><title>paramtk.Translator</title>
<polygon fill="none" stroke="black" stroke-width="0.5" points="141,-484.5 35,-484.5 35,-463.5 141,-463.5 141,-484.5"/>
<text text-anchor="middle" x="88" y="-471.5" font-family="Vera" font-size="10.00">paramtk.Translator</text>
</g>
<!-- paramtk.DoNothingTranslator -->
<g id="node25" class="node"><title>paramtk.DoNothingTranslator</title>
<polygon fill="none" stroke="black" stroke-width="0.5" points="388,-541.5 230,-541.5 230,-520.5 388,-520.5 388,-541.5"/>
<text text-anchor="middle" x="309" y="-528.5" font-family="Vera" font-size="10.00">paramtk.DoNothingTranslator</text>
</g>
<!-- paramtk.Translator&#45;&gt;paramtk.DoNothingTranslator -->
<g id="edge20" class="edge"><title>paramtk.Translator&#45;&gt;paramtk.DoNothingTranslator</title>
<path fill="none" stroke="black" stroke-width="0.5" d="M117.572,-484.012C142.543,-492.236 179.347,-503.822 212,-512 223.434,-514.864 235.715,-517.558 247.566,-519.969"/>
<polygon fill="black" stroke="black" points="247.368,-521.714 252.615,-520.984 248.058,-518.282 247.368,-521.714"/>
</g>
<!-- paramtk.String_ObjectTranslator -->
<g id="node30" class="node"><title>paramtk.String_ObjectTranslator</title>
<polygon fill="none" stroke="black" stroke-width="0.5" points="394,-503.5 224,-503.5 224,-482.5 394,-482.5 394,-503.5"/>
<text text-anchor="middle" x="309" y="-490.5" font-family="Vera" font-size="10.00">paramtk.String_ObjectTranslator</text>
</g>
<!-- paramtk.Translator&#45;&gt;paramtk.String_ObjectTranslator -->
<g id="edge26" class="edge"><title>paramtk.Translator&#45;&gt;paramtk.String_ObjectTranslator</title>
<path fill="none" stroke="black" stroke-width="0.5" d="M141.78,-478.624C164.778,-480.601 192.273,-482.965 218.261,-485.199"/>
<polygon fill="black" stroke="black" points="218.305,-486.959 223.437,-485.644 218.605,-483.472 218.305,-486.959"/>
</g>
<!-- paramtk.ListTranslator -->
<g id="node56" class="node"><title>paramtk.ListTranslator</title>
<polygon fill="none" stroke="black" stroke-width="0.5" points="370,-465.5 248,-465.5 248,-444.5 370,-444.5 370,-465.5"/>
<text text-anchor="middle" x="309" y="-452.5" font-family="Vera" font-size="10.00">paramtk.ListTranslator</text>
</g>
<!-- paramtk.Translator&#45;&gt;paramtk.ListTranslator -->
<g id="edge50" class="edge"><title>paramtk.Translator&#45;&gt;paramtk.ListTranslator</title>
<path fill="none" stroke="black" stroke-width="0.5" d="M141.78,-469.376C171.978,-466.78 209.931,-463.517 242.043,-460.756"/>
<polygon fill="black" stroke="black" points="242.313,-462.49 247.145,-460.318 242.013,-459.003 242.313,-462.49"/>
</g>
<!-- paramtk.Eval_ReprTranslator -->
<g id="node75" class="node"><title>paramtk.Eval_ReprTranslator</title>
<polygon fill="none" stroke="black" stroke-width="0.5" points="385,-427.5 233,-427.5 233,-406.5 385,-406.5 385,-427.5"/>
<text text-anchor="middle" x="309" y="-414.5" font-family="Vera" font-size="10.00">paramtk.Eval_ReprTranslator</text>
</g>
<!-- paramtk.Translator&#45;&gt;paramtk.Eval_ReprTranslator -->
<g id="edge68" class="edge"><title>paramtk.Translator&#45;&gt;paramtk.Eval_ReprTranslator</title>
<path fill="none" stroke="black" stroke-width="0.5" d="M117.572,-463.988C142.543,-455.764 179.347,-444.178 212,-436 223.434,-433.136 235.715,-430.442 247.566,-428.031"/>
<polygon fill="black" stroke="black" points="248.058,-429.718 252.615,-427.016 247.368,-426.286 248.058,-429.718"/>
</g>
<!-- paramtk.BoolTranslator -->
<g id="node71" class="node"><title>paramtk.BoolTranslator</title>
<polygon fill="none" stroke="black" stroke-width="0.5" points="588,-541.5 460,-541.5 460,-520.5 588,-520.5 588,-541.5"/>
<text text-anchor="middle" x="524" y="-528.5" font-family="Vera" font-size="10.00">paramtk.BoolTranslator</text>
</g>
<!-- paramtk.DoNothingTranslator&#45;&gt;paramtk.BoolTranslator -->
<g id="edge64" class="edge"><title>paramtk.DoNothingTranslator&#45;&gt;paramtk.BoolTranslator</title>
<path fill="none" stroke="black" stroke-width="0.5" d="M388.142,-531C409.979,-531 433.497,-531 454.728,-531"/>
<polygon fill="black" stroke="black" points="454.788,-532.75 459.788,-531 454.788,-529.25 454.788,-532.75"/>
</g>
<!-- paramtk.CSPTranslator -->
<g id="node29" class="node"><title>paramtk.CSPTranslator</title>
<polygon fill="none" stroke="black" stroke-width="0.5" points="587,-503.5 461,-503.5 461,-482.5 587,-482.5 587,-503.5"/>
<text text-anchor="middle" x="524" y="-490.5" font-family="Vera" font-size="10.00">paramtk.CSPTranslator</text>
</g>
<!-- paramtk.String_ObjectTranslator&#45;&gt;paramtk.CSPTranslator -->
<g id="edge24" class="edge"><title>paramtk.String_ObjectTranslator&#45;&gt;paramtk.CSPTranslator</title>
<path fill="none" stroke="black" stroke-width="0.5" d="M394.591,-493C414.822,-493 436.133,-493 455.493,-493"/>
<polygon fill="black" stroke="black" points="455.899,-494.75 460.899,-493 455.899,-491.25 455.899,-494.75"/>
</g>
<!-- Tkinter.Pack -->
<g id="node33" class="node"><title>Tkinter.Pack</title>
<polygon fill="none" stroke="black" stroke-width="0.5" points="345,-253.5 273,-253.5 273,-232.5 345,-232.5 345,-253.5"/>
<text text-anchor="middle" x="309" y="-240.5" font-family="Vera" font-size="10.00">Tkinter.Pack</text>
</g>
<!-- Tkinter.Pack&#45;&gt;Tkinter.Widget -->
<g id="edge42" class="edge"><title>Tkinter.Pack&#45;&gt;Tkinter.Widget</title>
<path fill="none" stroke="black" stroke-width="0.5" d="M345.96,-236.468C382.269,-230.05 437.801,-220.235 477.179,-213.275"/>
<polygon fill="black" stroke="black" points="477.764,-214.949 482.383,-212.356 477.154,-211.503 477.764,-214.949"/>
</g>
<!-- Tkinter.Place -->
<g id="node34" class="node"><title>Tkinter.Place</title>
<polygon fill="none" stroke="black" stroke-width="0.5" points="347,-215.5 271,-215.5 271,-194.5 347,-194.5 347,-215.5"/>
<text text-anchor="middle" x="309" y="-202.5" font-family="Vera" font-size="10.00">Tkinter.Place</text>
</g>
<!-- Tkinter.Place&#45;&gt;Tkinter.Widget -->
<g id="edge44" class="edge"><title>Tkinter.Place&#45;&gt;Tkinter.Widget</title>
<path fill="none" stroke="black" stroke-width="0.5" d="M347.935,-205C384.299,-205 438.629,-205 477.308,-205"/>
<polygon fill="black" stroke="black" points="477.42,-206.75 482.42,-205 477.42,-203.25 477.42,-206.75"/>
</g>
<!-- Tkinter.Grid -->
<g id="node37" class="node"><title>Tkinter.Grid</title>
<polygon fill="none" stroke="black" stroke-width="0.5" points="344,-177.5 274,-177.5 274,-156.5 344,-156.5 344,-177.5"/>
<text text-anchor="middle" x="309" y="-164.5" font-family="Vera" font-size="10.00">Tkinter.Grid</text>
</g>
<!-- Tkinter.Grid&#45;&gt;Tkinter.Widget -->
<g id="edge46" class="edge"><title>Tkinter.Grid&#45;&gt;Tkinter.Widget</title>
<path fill="none" stroke="black" stroke-width="0.5" d="M344.503,-173.275C380.687,-179.67 437.012,-189.625 476.905,-196.676"/>
<polygon fill="black" stroke="black" points="476.947,-198.461 482.175,-197.608 477.556,-195.014 476.947,-198.461"/>
</g>
<!-- paramtk.TkParameterized -->
<g id="node38" class="node"><title>paramtk.TkParameterized</title>
<polygon fill="none" stroke="black" stroke-width="0.5" points="787,-428.5 647,-428.5 647,-407.5 787,-407.5 787,-428.5"/>
<text text-anchor="middle" x="717" y="-415.5" font-family="Vera" font-size="10.00">paramtk.TkParameterized</text>
</g>
<!-- paramtk.TkParameterized&#45;&gt;paramtk.ParametersFrame -->
<g id="edge30" class="edge"><title>paramtk.TkParameterized&#45;&gt;paramtk.ParametersFrame</title>
<path fill="none" stroke="black" stroke-width="0.5" d="M787.054,-418C799.308,-418 812.13,-418 824.593,-418"/>
<polygon fill="black" stroke="black" points="824.909,-419.75 829.909,-418 824.909,-416.25 824.909,-419.75"/>
</g>
<!-- Tkinter.BaseWidget -->
<g id="node41" class="node"><title>Tkinter.BaseWidget</title>
<polygon fill="none" stroke="black" stroke-width="0.5" points="362,-118.5 256,-118.5 256,-97.5 362,-97.5 362,-118.5"/>
<text text-anchor="middle" x="309" y="-105.5" font-family="Vera" font-size="10.00">Tkinter.BaseWidget</text>
</g>
<!-- Tkinter.BaseWidget&#45;&gt;Tkinter.Widget -->
<g id="edge40" class="edge"><title>Tkinter.BaseWidget&#45;&gt;Tkinter.Widget</title>
<path fill="none" stroke="black" stroke-width="0.5" d="M334.704,-118.12C354.357,-125.973 382.055,-137.291 406,-148 438.71,-162.63 475.836,-180.833 499.563,-192.676"/>
<polygon fill="black" stroke="black" points="498.87,-194.285 504.125,-194.956 500.435,-191.155 498.87,-194.285"/>
</g>
<!-- Tkinter.BaseWidget&#45;&gt;Tkinter.Toplevel -->
<g id="edge52" class="edge"><title>Tkinter.BaseWidget&#45;&gt;Tkinter.Toplevel</title>
<path fill="none" stroke="black" stroke-width="0.5" d="M344.986,-97.9573C382.969,-87.3576 442.75,-70.6745 482.647,-59.5405"/>
<polygon fill="black" stroke="black" points="483.551,-61.1051 487.896,-58.0754 482.61,-57.7339 483.551,-61.1051"/>
</g>
<!-- Tkinter.Misc -->
<g id="node42" class="node"><title>Tkinter.Misc</title>
<polygon fill="none" stroke="black" stroke-width="0.5" points="124,-118.5 52,-118.5 52,-97.5 124,-97.5 124,-118.5"/>
<text text-anchor="middle" x="88" y="-105.5" font-family="Vera" font-size="10.00">Tkinter.Misc</text>
</g>
<!-- Tkinter.Misc&#45;&gt;Tkinter.BaseWidget -->
<g id="edge34" class="edge"><title>Tkinter.Misc&#45;&gt;Tkinter.BaseWidget</title>
<path fill="none" stroke="black" stroke-width="0.5" d="M124.494,-108C158.637,-108 210.226,-108 250.18,-108"/>
<polygon fill="black" stroke="black" points="250.489,-109.75 255.489,-108 250.489,-106.25 250.489,-109.75"/>
</g>
<!-- param.parameterized.Parameter -->
<g id="node46" class="node"><title>param.parameterized.Parameter</title>
<polygon fill="none" stroke="black" stroke-width="0.5" points="175,-579.5 1,-579.5 1,-558.5 175,-558.5 175,-579.5"/>
<text text-anchor="middle" x="88" y="-566.5" font-family="Vera" font-size="10.00">param.parameterized.Parameter</text>
</g>
<!-- param.Callable -->
<g id="node48" class="node"><title>param.Callable</title>
<polygon fill="none" stroke="black" stroke-width="0.5" points="353,-579.5 265,-579.5 265,-558.5 353,-558.5 353,-579.5"/>
<text text-anchor="middle" x="309" y="-566.5" font-family="Vera" font-size="10.00">param.Callable</text>
</g>
<!-- param.parameterized.Parameter&#45;&gt;param.Callable -->
<g id="edge82" class="edge"><title>param.parameterized.Parameter&#45;&gt;param.Callable</title>
<path fill="none" stroke="black" stroke-width="0.5" d="M175.662,-569C204.015,-569 234.464,-569 259.097,-569"/>
<polygon fill="black" stroke="black" points="259.263,-570.75 264.263,-569 259.263,-567.25 259.263,-570.75"/>
</g>
<!-- paramtk.Button -->
<g id="node47" class="node"><title>paramtk.Button</title>
<polygon fill="none" stroke="black" stroke-width="0.5" points="570,-579.5 478,-579.5 478,-558.5 570,-558.5 570,-579.5"/>
<text text-anchor="middle" x="524" y="-566.5" font-family="Vera" font-size="10.00">paramtk.Button</text>
</g>
<!-- param.Callable&#45;&gt;paramtk.Button -->
<g id="edge38" class="edge"><title>param.Callable&#45;&gt;paramtk.Button</title>
<path fill="none" stroke="black" stroke-width="0.5" d="M353.548,-569C388.132,-569 436.136,-569 472.391,-569"/>
<polygon fill="black" stroke="black" points="472.652,-570.75 477.652,-569 472.652,-567.25 472.652,-570.75"/>
</g>
<!-- paramtk.ScrodgetWidget -->
<g id="node62" class="node"><title>paramtk.ScrodgetWidget</title>
<polygon fill="none" stroke="black" stroke-width="0.5" points="592,-314.5 456,-314.5 456,-293.5 592,-293.5 592,-314.5"/>
<text text-anchor="middle" x="524" y="-301.5" font-family="Vera" font-size="10.00">paramtk.ScrodgetWidget</text>
</g>
<!-- paramtk.ScrodgetWidget&#45;&gt;paramtk.Scrodget -->
<g id="edge70" class="edge"><title>paramtk.ScrodgetWidget&#45;&gt;paramtk.Scrodget</title>
<path fill="none" stroke="black" stroke-width="0.5" d="M592.045,-304C614.148,-304 638.44,-304 659.681,-304"/>
<polygon fill="black" stroke="black" points="659.728,-305.75 664.728,-304 659.728,-302.25 659.728,-305.75"/>
</g>
<!-- paramtk.FocusTakingButton -->
<g id="node63" class="node"><title>paramtk.FocusTakingButton</title>
<polygon fill="none" stroke="black" stroke-width="0.5" points="977,-86.5 829,-86.5 829,-65.5 977,-65.5 977,-86.5"/>
<text text-anchor="middle" x="903" y="-73.5" font-family="Vera" font-size="10.00">paramtk.FocusTakingButton</text>
</g>
<!-- Tkinter.Button&#45;&gt;paramtk.FocusTakingButton -->
<g id="edge58" class="edge"><title>Tkinter.Button&#45;&gt;paramtk.FocusTakingButton</title>
<path fill="none" stroke="black" stroke-width="0.5" d="M754.998,-113.998C776.426,-108.376 803.695,-101.253 828,-95 837.838,-92.4688 848.408,-89.7751 858.42,-87.2356"/>
<polygon fill="black" stroke="black" points="858.867,-88.9276 863.284,-86.0028 858.007,-85.5349 858.867,-88.9276"/>
</g>
<!-- paramtk.ListRepresenter -->
<g id="node66" class="node"><title>paramtk.ListRepresenter</title>
<polygon fill="none" stroke="black" stroke-width="0.5" points="784,-352.5 650,-352.5 650,-331.5 784,-331.5 784,-352.5"/>
<text text-anchor="middle" x="717" y="-339.5" font-family="Vera" font-size="10.00">paramtk.ListRepresenter</text>
</g>
<!-- paramtk.Representer -->
<g id="node67" class="node"><title>paramtk.Representer</title>
<polygon fill="none" stroke="black" stroke-width="0.5" points="583,-361.5 465,-361.5 465,-340.5 583,-340.5 583,-361.5"/>
<text text-anchor="middle" x="524" y="-348.5" font-family="Vera" font-size="10.00">paramtk.Representer</text>
</g>
<!-- paramtk.Representer&#45;&gt;paramtk.ListRepresenter -->
<g id="edge60" class="edge"><title>paramtk.Representer&#45;&gt;paramtk.ListRepresenter</title>
<path fill="none" stroke="black" stroke-width="0.5" d="M583.218,-348.239C602.627,-347.333 624.413,-346.318 644.678,-345.373"/>
<polygon fill="black" stroke="black" points="644.882,-347.115 649.795,-345.134 644.719,-343.619 644.882,-347.115"/>
</g>
<!-- param.parameterized.Parameterized -->
<g id="node69" class="node"><title>param.parameterized.Parameterized</title>
<polygon fill="none" stroke="black" stroke-width="0.5" points="406,-389.5 212,-389.5 212,-368.5 406,-368.5 406,-389.5"/>
<text text-anchor="middle" x="309" y="-376.5" font-family="Vera" font-size="10.00">param.parameterized.Parameterized</text>
</g>
<!-- param.parameterized.Parameterized&#45;&gt;paramtk.Representer -->
<g id="edge62" class="edge"><title>param.parameterized.Parameterized&#45;&gt;paramtk.Representer</title>
<path fill="none" stroke="black" stroke-width="0.5" d="M386.013,-368.97C410.097,-365.834 436.407,-362.407 459.534,-359.396"/>
<polygon fill="black" stroke="black" points="459.992,-361.101 464.725,-358.72 459.54,-357.63 459.992,-361.101"/>
</g>
<!-- paramtk.TkParameterizedBase -->
<g id="node73" class="node"><title>paramtk.TkParameterizedBase</title>
<polygon fill="none" stroke="black" stroke-width="0.5" points="606,-418.5 442,-418.5 442,-397.5 606,-397.5 606,-418.5"/>
<text text-anchor="middle" x="524" y="-405.5" font-family="Vera" font-size="10.00">paramtk.TkParameterizedBase</text>
</g>
<!-- param.parameterized.Parameterized&#45;&gt;paramtk.TkParameterizedBase -->
<g id="edge74" class="edge"><title>param.parameterized.Parameterized&#45;&gt;paramtk.TkParameterizedBase</title>
<path fill="none" stroke="black" stroke-width="0.5" d="M383.292,-389.021C403.097,-391.692 424.57,-394.589 444.636,-397.295"/>
<polygon fill="black" stroke="black" points="444.516,-399.045 449.705,-397.979 444.984,-395.576 444.516,-399.045"/>
</g>
<!-- paramtk.TkParameterizedBase&#45;&gt;paramtk.TkParameterized -->
<g id="edge66" class="edge"><title>paramtk.TkParameterizedBase&#45;&gt;paramtk.TkParameterized</title>
<path fill="none" stroke="black" stroke-width="0.5" d="M606.129,-412.255C617.873,-412.864 629.908,-413.487 641.516,-414.089"/>
<polygon fill="black" stroke="black" points="641.733,-415.852 646.817,-414.364 641.914,-412.357 641.733,-415.852"/>
</g>
</g>
</svg>
