<?xml version="1.0" encoding="UTF-8" standalone="no"?>
<!DOCTYPE svg PUBLIC "-//W3C//DTD SVG 1.1//EN"
 "http://www.w3.org/Graphics/SVG/1.1/DTD/svg11.dtd">
<!-- Generated by graphviz version 2.26.3 (20100126.1600)
 -->
<!-- Title: inheritance95afd34832 Pages: 1 -->
<svg width="1474pt" height="588pt"
 viewBox="0.00 0.00 1474.00 588.00" xmlns="http://www.w3.org/2000/svg" xmlns:xlink="http://www.w3.org/1999/xlink">
<g id="graph1" class="graph" transform="scale(1 1) rotate(0) translate(4 584)">
<title>inheritance95afd34832</title>
<polygon fill="white" stroke="white" points="-4,5 -4,-584 1471,-584 1471,5 -4,5"/>
<!-- paramtk.ListItemCtrlWidget -->
<g id="node1" class="node"><title>paramtk.ListItemCtrlWidget</title>
<polygon fill="none" stroke="black" stroke-width="0.5" points="976,-210.5 830,-210.5 830,-189.5 976,-189.5 976,-210.5"/>
<text text-anchor="middle" x="903" y="-197.5" font-family="Vera" font-size="10.00">paramtk.ListItemCtrlWidget</text>
</g>
<!-- Tkinter.Frame -->
<g id="node2" class="node"><title>Tkinter.Frame</title>
<polygon fill="none" stroke="black" stroke-width="0.5" points="757,-210.5 677,-210.5 677,-189.5 757,-189.5 757,-210.5"/>
<text text-anchor="middle" x="717" y="-197.5" font-family="Vera" font-size="10.00">Tkinter.Frame</text>
</g>
<!-- Tkinter.Frame&#45;&gt;paramtk.ListItemCtrlWidget -->
<g id="edge2" class="edge"><title>Tkinter.Frame&#45;&gt;paramtk.ListItemCtrlWidget</title>
<path fill="none" stroke="black" stroke-width="0.5" d="M757.818,-200C777.305,-200 801.31,-200 824.149,-200"/>
<polygon fill="black" stroke="black" points="824.308,-201.75 829.308,-200 824.308,-198.25 824.308,-201.75"/>
</g>
<!-- paramtk.HackFileEntry -->
<g id="node4" class="node"><title>paramtk.HackFileEntry</title>
<polygon fill="none" stroke="black" stroke-width="0.5" points="965,-172.5 841,-172.5 841,-151.5 965,-151.5 965,-172.5"/>
<text text-anchor="middle" x="903" y="-159.5" font-family="Vera" font-size="10.00">paramtk.HackFileEntry</text>
</g>
<!-- Tkinter.Frame&#45;&gt;paramtk.HackFileEntry -->
<g id="edge4" class="edge"><title>Tkinter.Frame&#45;&gt;paramtk.HackFileEntry</title>
<path fill="none" stroke="black" stroke-width="0.5" d="M757.818,-191.661C784.607,-186.188 819.937,-178.97 849.036,-173.025"/>
<polygon fill="black" stroke="black" points="849.473,-174.722 854.021,-172.006 848.772,-171.293 849.473,-174.722"/>
</g>
<!-- paramtk.TaggedSlider -->
<g id="node50" class="node"><title>paramtk.TaggedSlider</title>
<polygon fill="none" stroke="black" stroke-width="0.5" points="963,-134.5 843,-134.5 843,-113.5 963,-113.5 963,-134.5"/>
<text text-anchor="middle" x="903" y="-121.5" font-family="Vera" font-size="10.00">paramtk.TaggedSlider</text>
</g>
<!-- Tkinter.Frame&#45;&gt;paramtk.TaggedSlider -->
<g id="edge42" class="edge"><title>Tkinter.Frame&#45;&gt;paramtk.TaggedSlider</title>
<path fill="none" stroke="black" stroke-width="0.5" d="M752.85,-189.932C765.639,-185.615 779.871,-179.947 792,-173 810.073,-162.649 809.444,-152.459 828,-143 833.516,-140.188 839.477,-137.773 845.544,-135.703"/>
<polygon fill="black" stroke="black" points="846.442,-137.251 850.658,-134.044 845.362,-133.922 846.442,-137.251"/>
</g>
<!-- paramtk.ProgressWindow -->
<g id="node58" class="node"><title>paramtk.ProgressWindow</title>
<polygon fill="none" stroke="black" stroke-width="0.5" points="971,-362.5 835,-362.5 835,-341.5 971,-341.5 971,-362.5"/>
<text text-anchor="middle" x="903" y="-349.5" font-family="Vera" font-size="10.00">paramtk.ProgressWindow</text>
</g>
<!-- Tkinter.Frame&#45;&gt;paramtk.ProgressWindow -->
<g id="edge50" class="edge"><title>Tkinter.Frame&#45;&gt;paramtk.ProgressWindow</title>
<path fill="none" stroke="black" stroke-width="0.5" d="M757.669,-202.7C769.999,-205.367 782.72,-210.241 792,-219 830.64,-255.47 789.36,-296.53 828,-333 830.5,-335.36 833.25,-337.437 836.175,-339.266"/>
<polygon fill="black" stroke="black" points="835.69,-341.002 840.903,-341.939 837.412,-337.955 835.69,-341.002"/>
</g>
<!-- paramtk.ScrolledFrame -->
<g id="node61" class="node"><title>paramtk.ScrolledFrame</title>
<polygon fill="none" stroke="black" stroke-width="0.5" points="967,-324.5 839,-324.5 839,-303.5 967,-303.5 967,-324.5"/>
<text text-anchor="middle" x="903" y="-311.5" font-family="Vera" font-size="10.00">paramtk.ScrolledFrame</text>
</g>
<!-- Tkinter.Frame&#45;&gt;paramtk.ScrolledFrame -->
<g id="edge52" class="edge"><title>Tkinter.Frame&#45;&gt;paramtk.ScrolledFrame</title>
<path fill="none" stroke="black" stroke-width="0.5" d="M757.763,-203.649C769.816,-206.388 782.352,-211.065 792,-219 820.867,-242.741 799.133,-271.259 828,-295 830.996,-297.464 834.27,-299.613 837.721,-301.488"/>
<polygon fill="black" stroke="black" points="837.272,-303.219 842.528,-303.879 838.83,-300.085 837.272,-303.219"/>
</g>
<!-- paramtk.ParametersFrame -->
<g id="node66" class="node"><title>paramtk.ParametersFrame</title>
<polygon fill="none" stroke="black" stroke-width="0.5" points="976,-400.5 830,-400.5 830,-379.5 976,-379.5 976,-400.5"/>
<text text-anchor="middle" x="903" y="-387.5" font-family="Vera" font-size="10.00">paramtk.ParametersFrame</text>
</g>
<!-- Tkinter.Frame&#45;&gt;paramtk.ParametersFrame -->
<g id="edge82" class="edge"><title>Tkinter.Frame&#45;&gt;paramtk.ParametersFrame</title>
<path fill="none" stroke="black" stroke-width="0.5" d="M757.668,-202.22C770.145,-204.842 782.953,-209.811 792,-219 840.707,-268.471 779.293,-321.529 828,-371 830.288,-373.324 832.817,-375.378 835.52,-377.193"/>
<polygon fill="black" stroke="black" points="834.72,-378.754 839.902,-379.851 836.535,-375.762 834.72,-378.754"/>
</g>
<!-- paramtk.StatusBar -->
<g id="node73" class="node"><title>paramtk.StatusBar</title>
<polygon fill="none" stroke="black" stroke-width="0.5" points="957,-286.5 849,-286.5 849,-265.5 957,-265.5 957,-286.5"/>
<text text-anchor="middle" x="903" y="-273.5" font-family="Vera" font-size="10.00">paramtk.StatusBar</text>
</g>
<!-- Tkinter.Frame&#45;&gt;paramtk.StatusBar -->
<g id="edge68" class="edge"><title>Tkinter.Frame&#45;&gt;paramtk.StatusBar</title>
<path fill="none" stroke="black" stroke-width="0.5" d="M757.554,-205.894C769.205,-208.722 781.571,-212.886 792,-219 812.07,-230.766 807.93,-245.234 828,-257 832.979,-259.919 838.4,-262.394 843.973,-264.49"/>
<polygon fill="black" stroke="black" points="843.387,-266.139 848.685,-266.164 844.559,-262.841 843.387,-266.139"/>
</g>
<!-- paramtk.ListWidget -->
<g id="node83" class="node"><title>paramtk.ListWidget</title>
<polygon fill="none" stroke="black" stroke-width="0.5" points="957,-248.5 849,-248.5 849,-227.5 957,-227.5 957,-248.5"/>
<text text-anchor="middle" x="903" y="-235.5" font-family="Vera" font-size="10.00">paramtk.ListWidget</text>
</g>
<!-- Tkinter.Frame&#45;&gt;paramtk.ListWidget -->
<g id="edge78" class="edge"><title>Tkinter.Frame&#45;&gt;paramtk.ListWidget</title>
<path fill="none" stroke="black" stroke-width="0.5" d="M757.818,-208.339C784.607,-213.812 819.937,-221.03 849.036,-226.975"/>
<polygon fill="black" stroke="black" points="848.772,-228.707 854.021,-227.994 849.473,-225.278 848.772,-228.707"/>
</g>
<!-- paramtk.ToolTip -->
<g id="node6" class="node"><title>paramtk.ToolTip</title>
<polygon fill="none" stroke="black" stroke-width="0.5" points="763,-63.5 671,-63.5 671,-42.5 763,-42.5 763,-63.5"/>
<text text-anchor="middle" x="717" y="-50.5" font-family="Vera" font-size="10.00">paramtk.ToolTip</text>
</g>
<!-- Tkinter.Toplevel -->
<g id="node7" class="node"><title>Tkinter.Toplevel</title>
<polygon fill="none" stroke="black" stroke-width="0.5" points="568,-63.5 480,-63.5 480,-42.5 568,-42.5 568,-63.5"/>
<text text-anchor="middle" x="524" y="-50.5" font-family="Vera" font-size="10.00">Tkinter.Toplevel</text>
</g>
<!-- Tkinter.Toplevel&#45;&gt;paramtk.ToolTip -->
<g id="edge6" class="edge"><title>Tkinter.Toplevel&#45;&gt;paramtk.ToolTip</title>
<path fill="none" stroke="black" stroke-width="0.5" d="M568.763,-53C597.711,-53 635.478,-53 665.646,-53"/>
<polygon fill="black" stroke="black" points="665.802,-54.7501 670.802,-53 665.802,-51.2501 665.802,-54.7501"/>
</g>
<!-- paramtk.ScrolledWindow -->
<g id="node64" class="node"><title>paramtk.ScrolledWindow</title>
<polygon fill="none" stroke="black" stroke-width="0.5" points="784,-23.5 650,-23.5 650,-2.5 784,-2.5 784,-23.5"/>
<text text-anchor="middle" x="717" y="-10.5" font-family="Vera" font-size="10.00">paramtk.ScrolledWindow</text>
</g>
<!-- Tkinter.Toplevel&#45;&gt;paramtk.ScrolledWindow -->
<g id="edge56" class="edge"><title>Tkinter.Toplevel&#45;&gt;paramtk.ScrolledWindow</title>
<path fill="none" stroke="black" stroke-width="0.5" d="M568.763,-43.7227C596.974,-37.8758 633.561,-30.293 663.328,-24.1238"/>
<polygon fill="black" stroke="black" points="663.882,-25.7962 668.423,-23.0679 663.171,-22.3691 663.882,-25.7962"/>
</g>
<!-- Tkinter.Wm -->
<g id="node9" class="node"><title>Tkinter.Wm</title>
<polygon fill="none" stroke="black" stroke-width="0.5" points="343,-63.5 275,-63.5 275,-42.5 343,-42.5 343,-63.5"/>
<text text-anchor="middle" x="309" y="-50.5" font-family="Vera" font-size="10.00">Tkinter.Wm</text>
</g>
<!-- Tkinter.Wm&#45;&gt;Tkinter.Toplevel -->
<g id="edge36" class="edge"><title>Tkinter.Wm&#45;&gt;Tkinter.Toplevel</title>
<path fill="none" stroke="black" stroke-width="0.5" d="M343.543,-53C378.874,-53 434.11,-53 474.169,-53"/>
<polygon fill="black" stroke="black" points="474.47,-54.7501 479.47,-53 474.47,-51.2501 474.47,-54.7501"/>
</g>
<!-- paramtk.ListTranslator -->
<g id="node10" class="node"><title>paramtk.ListTranslator</title>
<polygon fill="none" stroke="black" stroke-width="0.5" points="370,-542.5 248,-542.5 248,-521.5 370,-521.5 370,-542.5"/>
<text text-anchor="middle" x="309" y="-529.5" font-family="Vera" font-size="10.00">paramtk.ListTranslator</text>
</g>
<!-- paramtk.Translator -->
<g id="node11" class="node"><title>paramtk.Translator</title>
<polygon fill="none" stroke="black" stroke-width="0.5" points="141,-485.5 35,-485.5 35,-464.5 141,-464.5 141,-485.5"/>
<text text-anchor="middle" x="88" y="-472.5" font-family="Vera" font-size="10.00">paramtk.Translator</text>
</g>
<!-- paramtk.Translator&#45;&gt;paramtk.ListTranslator -->
<g id="edge8" class="edge"><title>paramtk.Translator&#45;&gt;paramtk.ListTranslator</title>
<path fill="none" stroke="black" stroke-width="0.5" d="M117.572,-485.012C142.543,-493.236 179.347,-504.822 212,-513 223.434,-515.864 235.715,-518.558 247.566,-520.969"/>
<polygon fill="black" stroke="black" points="247.368,-522.714 252.615,-521.984 248.058,-519.282 247.368,-522.714"/>
</g>
<!-- paramtk.DoNothingTranslator -->
<g id="node21" class="node"><title>paramtk.DoNothingTranslator</title>
<polygon fill="none" stroke="black" stroke-width="0.5" points="388,-504.5 230,-504.5 230,-483.5 388,-483.5 388,-504.5"/>
<text text-anchor="middle" x="309" y="-491.5" font-family="Vera" font-size="10.00">paramtk.DoNothingTranslator</text>
</g>
<!-- paramtk.Translator&#45;&gt;paramtk.DoNothingTranslator -->
<g id="edge32" class="edge"><title>paramtk.Translator&#45;&gt;paramtk.DoNothingTranslator</title>
<path fill="none" stroke="black" stroke-width="0.5" d="M141.78,-479.624C166.678,-481.764 196.847,-484.358 224.668,-486.75"/>
<polygon fill="black" stroke="black" points="224.702,-488.509 229.834,-487.194 225.002,-485.022 224.702,-488.509"/>
</g>
<!-- paramtk.Eval_ReprTranslator -->
<g id="node28" class="node"><title>paramtk.Eval_ReprTranslator</title>
<polygon fill="none" stroke="black" stroke-width="0.5" points="385,-466.5 233,-466.5 233,-445.5 385,-445.5 385,-466.5"/>
<text text-anchor="middle" x="309" y="-453.5" font-family="Vera" font-size="10.00">paramtk.Eval_ReprTranslator</text>
</g>
<!-- paramtk.Translator&#45;&gt;paramtk.Eval_ReprTranslator -->
<g id="edge18" class="edge"><title>paramtk.Translator&#45;&gt;paramtk.Eval_ReprTranslator</title>
<path fill="none" stroke="black" stroke-width="0.5" d="M141.78,-470.376C167.52,-468.163 198.894,-465.466 227.482,-463.008"/>
<polygon fill="black" stroke="black" points="227.954,-464.724 232.786,-462.552 227.654,-461.237 227.954,-464.724"/>
</g>
<!-- paramtk.String_ObjectTranslator -->
<g id="node78" class="node"><title>paramtk.String_ObjectTranslator</title>
<polygon fill="none" stroke="black" stroke-width="0.5" points="394,-428.5 224,-428.5 224,-407.5 394,-407.5 394,-428.5"/>
<text text-anchor="middle" x="309" y="-415.5" font-family="Vera" font-size="10.00">paramtk.String_ObjectTranslator</text>
</g>
<!-- paramtk.Translator&#45;&gt;paramtk.String_ObjectTranslator -->
<g id="edge74" class="edge"><title>paramtk.Translator&#45;&gt;paramtk.String_ObjectTranslator</title>
<path fill="none" stroke="black" stroke-width="0.5" d="M117.572,-464.988C142.543,-456.764 179.347,-445.178 212,-437 223.434,-434.136 235.715,-431.442 247.566,-429.031"/>
<polygon fill="black" stroke="black" points="248.058,-430.718 252.615,-428.016 247.368,-427.286 248.058,-430.718"/>
</g>
<!-- paramtk.Representer -->
<g id="node13" class="node"><title>paramtk.Representer</title>
<polygon fill="none" stroke="black" stroke-width="0.5" points="583,-333.5 465,-333.5 465,-312.5 583,-312.5 583,-333.5"/>
<text text-anchor="middle" x="524" y="-320.5" font-family="Vera" font-size="10.00">paramtk.Representer</text>
</g>
<!-- paramtk.ListRepresenter -->
<g id="node46" class="node"><title>paramtk.ListRepresenter</title>
<polygon fill="none" stroke="black" stroke-width="0.5" points="784,-324.5 650,-324.5 650,-303.5 784,-303.5 784,-324.5"/>
<text text-anchor="middle" x="717" y="-311.5" font-family="Vera" font-size="10.00">paramtk.ListRepresenter</text>
</g>
<!-- paramtk.Representer&#45;&gt;paramtk.ListRepresenter -->
<g id="edge38" class="edge"><title>paramtk.Representer&#45;&gt;paramtk.ListRepresenter</title>
<path fill="none" stroke="black" stroke-width="0.5" d="M583.218,-320.239C602.627,-319.333 624.413,-318.318 644.678,-317.373"/>
<polygon fill="black" stroke="black" points="644.882,-319.115 649.795,-317.134 644.719,-315.619 644.882,-319.115"/>
</g>
<!-- param.parameterized.Parameterized -->
<g id="node14" class="node"><title>param.parameterized.Parameterized</title>
<polygon fill="none" stroke="black" stroke-width="0.5" points="406,-362.5 212,-362.5 212,-341.5 406,-341.5 406,-362.5"/>
<text text-anchor="middle" x="309" y="-349.5" font-family="Vera" font-size="10.00">param.parameterized.Parameterized</text>
</g>
<!-- param.parameterized.Parameterized&#45;&gt;paramtk.Representer -->
<g id="edge10" class="edge"><title>param.parameterized.Parameterized&#45;&gt;paramtk.Representer</title>
<path fill="none" stroke="black" stroke-width="0.5" d="M383.292,-341.979C408.221,-338.617 435.793,-334.898 459.876,-331.649"/>
<polygon fill="black" stroke="black" points="460.238,-333.366 464.959,-330.964 459.77,-329.898 460.238,-333.366"/>
</g>
<!-- paramtk.TkParameterizedBase -->
<g id="node25" class="node"><title>paramtk.TkParameterizedBase</title>
<polygon fill="none" stroke="black" stroke-width="0.5" points="606,-390.5 442,-390.5 442,-369.5 606,-369.5 606,-390.5"/>
<text text-anchor="middle" x="524" y="-377.5" font-family="Vera" font-size="10.00">paramtk.TkParameterizedBase</text>
</g>
<!-- param.parameterized.Parameterized&#45;&gt;paramtk.TkParameterizedBase -->
<g id="edge64" class="edge"><title>param.parameterized.Parameterized&#45;&gt;paramtk.TkParameterizedBase</title>
<path fill="none" stroke="black" stroke-width="0.5" d="M386.013,-362.03C404.185,-364.396 423.625,-366.928 442.009,-369.322"/>
<polygon fill="black" stroke="black" points="441.98,-371.083 447.164,-369.993 442.432,-367.612 441.98,-371.083"/>
</g>
<!-- paramtk.Button -->
<g id="node16" class="node"><title>paramtk.Button</title>
<polygon fill="none" stroke="black" stroke-width="0.5" points="570,-580.5 478,-580.5 478,-559.5 570,-559.5 570,-580.5"/>
<text text-anchor="middle" x="524" y="-567.5" font-family="Vera" font-size="10.00">paramtk.Button</text>
</g>
<!-- param.Callable -->
<g id="node17" class="node"><title>param.Callable</title>
<polygon fill="none" stroke="black" stroke-width="0.5" points="353,-580.5 265,-580.5 265,-559.5 353,-559.5 353,-580.5"/>
<text text-anchor="middle" x="309" y="-567.5" font-family="Vera" font-size="10.00">param.Callable</text>
</g>
<!-- param.Callable&#45;&gt;paramtk.Button -->
<g id="edge12" class="edge"><title>param.Callable&#45;&gt;paramtk.Button</title>
<path fill="none" stroke="black" stroke-width="0.5" d="M353.548,-570C388.132,-570 436.136,-570 472.391,-570"/>
<polygon fill="black" stroke="black" points="472.652,-571.75 477.652,-570 472.652,-568.25 472.652,-571.75"/>
</g>
<!-- Tkinter.Pack -->
<g id="node19" class="node"><title>Tkinter.Pack</title>
<polygon fill="none" stroke="black" stroke-width="0.5" points="345,-239.5 273,-239.5 273,-218.5 345,-218.5 345,-239.5"/>
<text text-anchor="middle" x="309" y="-226.5" font-family="Vera" font-size="10.00">Tkinter.Pack</text>
</g>
<!-- Tkinter.Widget -->
<g id="node33" class="node"><title>Tkinter.Widget</title>
<polygon fill="none" stroke="black" stroke-width="0.5" points="565,-201.5 483,-201.5 483,-180.5 565,-180.5 565,-201.5"/>
<text text-anchor="middle" x="524" y="-188.5" font-family="Vera" font-size="10.00">Tkinter.Widget</text>
</g>
<!-- Tkinter.Pack&#45;&gt;Tkinter.Widget -->
<g id="edge24" class="edge"><title>Tkinter.Pack&#45;&gt;Tkinter.Widget</title>
<path fill="none" stroke="black" stroke-width="0.5" d="M345.96,-222.468C382.269,-216.05 437.801,-206.235 477.179,-199.275"/>
<polygon fill="black" stroke="black" points="477.764,-200.949 482.383,-198.356 477.154,-197.503 477.764,-200.949"/>
</g>
<!-- paramtk.BoolTranslator -->
<g id="node20" class="node"><title>paramtk.BoolTranslator</title>
<polygon fill="none" stroke="black" stroke-width="0.5" points="588,-504.5 460,-504.5 460,-483.5 588,-483.5 588,-504.5"/>
<text text-anchor="middle" x="524" y="-491.5" font-family="Vera" font-size="10.00">paramtk.BoolTranslator</text>
</g>
<!-- paramtk.DoNothingTranslator&#45;&gt;paramtk.BoolTranslator -->
<g id="edge14" class="edge"><title>paramtk.DoNothingTranslator&#45;&gt;paramtk.BoolTranslator</title>
<path fill="none" stroke="black" stroke-width="0.5" d="M388.142,-494C409.979,-494 433.497,-494 454.728,-494"/>
<polygon fill="black" stroke="black" points="454.788,-495.75 459.788,-494 454.788,-492.25 454.788,-495.75"/>
</g>
<!-- Tkinter.Place -->
<g id="node23" class="node"><title>Tkinter.Place</title>
<polygon fill="none" stroke="black" stroke-width="0.5" points="347,-201.5 271,-201.5 271,-180.5 347,-180.5 347,-201.5"/>
<text text-anchor="middle" x="309" y="-188.5" font-family="Vera" font-size="10.00">Tkinter.Place</text>
</g>
<!-- Tkinter.Place&#45;&gt;Tkinter.Widget -->
<g id="edge26" class="edge"><title>Tkinter.Place&#45;&gt;Tkinter.Widget</title>
<path fill="none" stroke="black" stroke-width="0.5" d="M347.935,-191C384.299,-191 438.629,-191 477.308,-191"/>
<polygon fill="black" stroke="black" points="477.42,-192.75 482.42,-191 477.42,-189.25 477.42,-192.75"/>
</g>
<!-- paramtk.TkParameterized -->
<g id="node24" class="node"><title>paramtk.TkParameterized</title>
<polygon fill="none" stroke="black" stroke-width="0.5" points="787,-400.5 647,-400.5 647,-379.5 787,-379.5 787,-400.5"/>
<text text-anchor="middle" x="717" y="-387.5" font-family="Vera" font-size="10.00">paramtk.TkParameterized</text>
</g>
<!-- paramtk.TkParameterized&#45;&gt;paramtk.ParametersFrame -->
<g id="edge80" class="edge"><title>paramtk.TkParameterized&#45;&gt;paramtk.ParametersFrame</title>
<path fill="none" stroke="black" stroke-width="0.5" d="M787.054,-390C799.308,-390 812.13,-390 824.593,-390"/>
<polygon fill="black" stroke="black" points="824.909,-391.75 829.909,-390 824.909,-388.25 824.909,-391.75"/>
</g>
<!-- paramtk.TkParameterizedBase&#45;&gt;paramtk.TkParameterized -->
<g id="edge16" class="edge"><title>paramtk.TkParameterizedBase&#45;&gt;paramtk.TkParameterized</title>
<path fill="none" stroke="black" stroke-width="0.5" d="M606.129,-384.255C617.873,-384.864 629.908,-385.487 641.516,-386.089"/>
<polygon fill="black" stroke="black" points="641.733,-387.852 646.817,-386.364 641.914,-384.357 641.733,-387.852"/>
</g>
<!-- Tkinter.Grid -->
<g id="node27" class="node"><title>Tkinter.Grid</title>
<polygon fill="none" stroke="black" stroke-width="0.5" points="344,-163.5 274,-163.5 274,-142.5 344,-142.5 344,-163.5"/>
<text text-anchor="middle" x="309" y="-150.5" font-family="Vera" font-size="10.00">Tkinter.Grid</text>
</g>
<!-- Tkinter.Grid&#45;&gt;Tkinter.Widget -->
<g id="edge28" class="edge"><title>Tkinter.Grid&#45;&gt;Tkinter.Widget</title>
<path fill="none" stroke="black" stroke-width="0.5" d="M344.503,-159.275C380.687,-165.67 437.012,-175.625 476.905,-182.676"/>
<polygon fill="black" stroke="black" points="476.947,-184.461 482.175,-183.608 477.556,-181.014 476.947,-184.461"/>
</g>
<!-- Tkinter.BaseWidget -->
<g id="node30" class="node"><title>Tkinter.BaseWidget</title>
<polygon fill="none" stroke="black" stroke-width="0.5" points="362,-106.5 256,-106.5 256,-85.5 362,-85.5 362,-106.5"/>
<text text-anchor="middle" x="309" y="-93.5" font-family="Vera" font-size="10.00">Tkinter.BaseWidget</text>
</g>
<!-- Tkinter.BaseWidget&#45;&gt;Tkinter.Toplevel -->
<g id="edge34" class="edge"><title>Tkinter.BaseWidget&#45;&gt;Tkinter.Toplevel</title>
<path fill="none" stroke="black" stroke-width="0.5" d="M359.137,-85.9727C393.789,-79.0422 439.687,-69.8625 474.255,-62.9491"/>
<polygon fill="black" stroke="black" points="474.71,-64.6427 479.27,-61.946 474.024,-61.2107 474.71,-64.6427"/>
</g>
<!-- Tkinter.BaseWidget&#45;&gt;Tkinter.Widget -->
<g id="edge22" class="edge"><title>Tkinter.BaseWidget&#45;&gt;Tkinter.Widget</title>
<path fill="none" stroke="black" stroke-width="0.5" d="M336.406,-106.095C355.96,-113.453 382.795,-123.868 406,-134 438.839,-148.339 475.935,-166.609 499.62,-178.546"/>
<polygon fill="black" stroke="black" points="498.921,-180.154 504.173,-180.846 500.499,-177.03 498.921,-180.154"/>
</g>
<!-- Tkinter.Misc -->
<g id="node31" class="node"><title>Tkinter.Misc</title>
<polygon fill="none" stroke="black" stroke-width="0.5" points="124,-106.5 52,-106.5 52,-85.5 124,-85.5 124,-106.5"/>
<text text-anchor="middle" x="88" y="-93.5" font-family="Vera" font-size="10.00">Tkinter.Misc</text>
</g>
<!-- Tkinter.Misc&#45;&gt;Tkinter.BaseWidget -->
<g id="edge20" class="edge"><title>Tkinter.Misc&#45;&gt;Tkinter.BaseWidget</title>
<path fill="none" stroke="black" stroke-width="0.5" d="M124.494,-96C158.637,-96 210.226,-96 250.18,-96"/>
<polygon fill="black" stroke="black" points="250.489,-97.7501 255.489,-96 250.489,-94.2501 250.489,-97.7501"/>
</g>
<!-- Tkinter.Widget&#45;&gt;Tkinter.Frame -->
<g id="edge66" class="edge"><title>Tkinter.Widget&#45;&gt;Tkinter.Frame</title>
<path fill="none" stroke="black" stroke-width="0.5" d="M565.878,-192.953C596.922,-194.401 639.212,-196.373 671.161,-197.862"/>
<polygon fill="black" stroke="black" points="671.121,-199.612 676.197,-198.097 671.284,-196.116 671.121,-199.612"/>
</g>
<!-- Tkinter.Menu -->
<g id="node39" class="node"><title>Tkinter.Menu</title>
<polygon fill="none" stroke="black" stroke-width="0.5" points="755,-164.5 679,-164.5 679,-143.5 755,-143.5 755,-164.5"/>
<text text-anchor="middle" x="717" y="-151.5" font-family="Vera" font-size="10.00">Tkinter.Menu</text>
</g>
<!-- Tkinter.Widget&#45;&gt;Tkinter.Menu -->
<g id="edge54" class="edge"><title>Tkinter.Widget&#45;&gt;Tkinter.Menu</title>
<path fill="none" stroke="black" stroke-width="0.5" d="M565.878,-182.972C597.659,-176.879 641.226,-168.527 673.418,-162.355"/>
<polygon fill="black" stroke="black" points="673.902,-164.044 678.483,-161.384 673.243,-160.607 673.902,-164.044"/>
</g>
<!-- Tkinter.Button -->
<g id="node48" class="node"><title>Tkinter.Button</title>
<polygon fill="none" stroke="black" stroke-width="0.5" points="758,-110.5 676,-110.5 676,-89.5 758,-89.5 758,-110.5"/>
<text text-anchor="middle" x="717" y="-97.5" font-family="Vera" font-size="10.00">Tkinter.Button</text>
</g>
<!-- Tkinter.Widget&#45;&gt;Tkinter.Button -->
<g id="edge40" class="edge"><title>Tkinter.Widget&#45;&gt;Tkinter.Button</title>
<path fill="none" stroke="black" stroke-width="0.5" d="M545.297,-180.842C568.912,-169.59 608.146,-150.932 642,-135 658.119,-127.414 676.217,-118.966 690.596,-112.271"/>
<polygon fill="black" stroke="black" points="691.527,-113.768 695.321,-110.072 690.05,-110.595 691.527,-113.768"/>
</g>
<!-- paramtk.Scrodget -->
<g id="node68" class="node"><title>paramtk.Scrodget</title>
<polygon fill="none" stroke="black" stroke-width="0.5" points="769,-286.5 665,-286.5 665,-265.5 769,-265.5 769,-286.5"/>
<text text-anchor="middle" x="717" y="-273.5" font-family="Vera" font-size="10.00">paramtk.Scrodget</text>
</g>
<!-- Tkinter.Widget&#45;&gt;paramtk.Scrodget -->
<g id="edge62" class="edge"><title>Tkinter.Widget&#45;&gt;paramtk.Scrodget</title>
<path fill="none" stroke="black" stroke-width="0.5" d="M539.01,-201.101C560.828,-215.379 602.966,-241.453 642,-257 649.097,-259.827 656.743,-262.335 664.343,-264.528"/>
<polygon fill="black" stroke="black" points="664.303,-266.334 669.59,-265.995 665.246,-262.963 664.303,-266.334"/>
</g>
<!-- paramtk.Balloon -->
<g id="node81" class="node"><title>paramtk.Balloon</title>
<polygon fill="none" stroke="black" stroke-width="0.5" points="764,-248.5 670,-248.5 670,-227.5 764,-227.5 764,-248.5"/>
<text text-anchor="middle" x="717" y="-235.5" font-family="Vera" font-size="10.00">paramtk.Balloon</text>
</g>
<!-- Tkinter.Widget&#45;&gt;paramtk.Balloon -->
<g id="edge76" class="edge"><title>Tkinter.Widget&#45;&gt;paramtk.Balloon</title>
<path fill="none" stroke="black" stroke-width="0.5" d="M565.403,-201.083C596.314,-208.61 638.566,-218.899 670.613,-226.704"/>
<polygon fill="black" stroke="black" points="670.393,-228.451 675.665,-227.934 671.221,-225.051 670.393,-228.451"/>
</g>
<!-- paramtk.Menu -->
<g id="node38" class="node"><title>paramtk.Menu</title>
<polygon fill="none" stroke="black" stroke-width="0.5" points="946,-96.5 860,-96.5 860,-75.5 946,-75.5 946,-96.5"/>
<text text-anchor="middle" x="903" y="-83.5" font-family="Vera" font-size="10.00">paramtk.Menu</text>
</g>
<!-- Tkinter.Menu&#45;&gt;paramtk.Menu -->
<g id="edge30" class="edge"><title>Tkinter.Menu&#45;&gt;paramtk.Menu</title>
<path fill="none" stroke="black" stroke-width="0.5" d="M738.537,-143.977C765.621,-131.462 810.674,-110.972 828,-105 836.572,-102.046 845.838,-99.3282 854.835,-96.9283"/>
<polygon fill="black" stroke="black" points="855.407,-98.5878 859.8,-95.6282 854.52,-95.2019 855.407,-98.5878"/>
</g>
<!-- param.parameterized.Parameter -->
<g id="node42" class="node"><title>param.parameterized.Parameter</title>
<polygon fill="none" stroke="black" stroke-width="0.5" points="175,-580.5 1,-580.5 1,-559.5 175,-559.5 175,-580.5"/>
<text text-anchor="middle" x="88" y="-567.5" font-family="Vera" font-size="10.00">param.parameterized.Parameter</text>
</g>
<!-- param.parameterized.Parameter&#45;&gt;param.Callable -->
<g id="edge84" class="edge"><title>param.parameterized.Parameter&#45;&gt;param.Callable</title>
<path fill="none" stroke="black" stroke-width="0.5" d="M175.662,-570C204.015,-570 234.464,-570 259.097,-570"/>
<polygon fill="black" stroke="black" points="259.263,-571.75 264.263,-570 259.263,-568.25 259.263,-571.75"/>
</g>
<!-- paramtk.ProgressController -->
<g id="node45" class="node"><title>paramtk.ProgressController</title>
<polygon fill="none" stroke="black" stroke-width="0.5" points="791,-362.5 643,-362.5 643,-341.5 791,-341.5 791,-362.5"/>
<text text-anchor="middle" x="717" y="-349.5" font-family="Vera" font-size="10.00">paramtk.ProgressController</text>
</g>
<!-- paramtk.ProgressController&#45;&gt;paramtk.ProgressWindow -->
<g id="edge48" class="edge"><title>paramtk.ProgressController&#45;&gt;paramtk.ProgressWindow</title>
<path fill="none" stroke="black" stroke-width="0.5" d="M791.582,-352C803.962,-352 816.797,-352 829.159,-352"/>
<polygon fill="black" stroke="black" points="829.426,-353.75 834.426,-352 829.426,-350.25 829.426,-353.75"/>
</g>
<!-- paramtk.FocusTakingButton -->
<g id="node56" class="node"><title>paramtk.FocusTakingButton</title>
<polygon fill="none" stroke="black" stroke-width="0.5" points="977,-58.5 829,-58.5 829,-37.5 977,-37.5 977,-58.5"/>
<text text-anchor="middle" x="903" y="-45.5" font-family="Vera" font-size="10.00">paramtk.FocusTakingButton</text>
</g>
<!-- Tkinter.Button&#45;&gt;paramtk.FocusTakingButton -->
<g id="edge46" class="edge"><title>Tkinter.Button&#45;&gt;paramtk.FocusTakingButton</title>
<path fill="none" stroke="black" stroke-width="0.5" d="M749.442,-89.9747C771.522,-83.2451 801.444,-74.308 828,-67 837.374,-64.4203 847.443,-61.7805 857.065,-59.3207"/>
<polygon fill="black" stroke="black" points="857.635,-60.9813 862.049,-58.0521 856.772,-57.5895 857.635,-60.9813"/>
</g>
<!-- paramtk.ScrodgetWidget -->
<g id="node52" class="node"><title>paramtk.ScrodgetWidget</title>
<polygon fill="none" stroke="black" stroke-width="0.5" points="592,-286.5 456,-286.5 456,-265.5 592,-265.5 592,-286.5"/>
<text text-anchor="middle" x="524" y="-273.5" font-family="Vera" font-size="10.00">paramtk.ScrodgetWidget</text>
</g>
<!-- paramtk.ScrodgetWidget&#45;&gt;paramtk.Scrodget -->
<g id="edge60" class="edge"><title>paramtk.ScrodgetWidget&#45;&gt;paramtk.Scrodget</title>
<path fill="none" stroke="black" stroke-width="0.5" d="M592.045,-276C614.148,-276 638.44,-276 659.681,-276"/>
<polygon fill="black" stroke="black" points="659.728,-277.75 664.728,-276 659.728,-274.25 659.728,-277.75"/>
</g>
<!-- paramtk.EditingParametersFrameWithApply -->
<g id="node53" class="node"><title>paramtk.EditingParametersFrameWithApply</title>
<polygon fill="none" stroke="black" stroke-width="0.5" points="1466,-400.5 1242,-400.5 1242,-379.5 1466,-379.5 1466,-400.5"/>
<text text-anchor="middle" x="1354" y="-387.5" font-family="Vera" font-size="10.00">paramtk.EditingParametersFrameWithApply</text>
</g>
<!-- paramtk.ParametersFrameWithApply -->
<g id="node54" class="node"><title>paramtk.ParametersFrameWithApply</title>
<polygon fill="none" stroke="black" stroke-width="0.5" points="1206,-400.5 1014,-400.5 1014,-379.5 1206,-379.5 1206,-400.5"/>
<text text-anchor="middle" x="1110" y="-387.5" font-family="Vera" font-size="10.00">paramtk.ParametersFrameWithApply</text>
</g>
<!-- paramtk.ParametersFrameWithApply&#45;&gt;paramtk.EditingParametersFrameWithApply -->
<g id="edge44" class="edge"><title>paramtk.ParametersFrameWithApply&#45;&gt;paramtk.EditingParametersFrameWithApply</title>
<path fill="none" stroke="black" stroke-width="0.5" d="M1206.09,-390C1216.17,-390 1226.5,-390 1236.79,-390"/>
<polygon fill="black" stroke="black" points="1236.84,-391.75 1241.84,-390 1236.84,-388.25 1236.84,-391.75"/>
</g>
<!-- paramtk.AppWindow -->
<g id="node75" class="node"><title>paramtk.AppWindow</title>
<polygon fill="none" stroke="black" stroke-width="0.5" points="960,-20.5 846,-20.5 846,0.5 960,0.5 960,-20.5"/>
<text text-anchor="middle" x="903" y="-7.5" font-family="Vera" font-size="10.00">paramtk.AppWindow</text>
</g>
<!-- paramtk.ScrolledWindow&#45;&gt;paramtk.AppWindow -->
<g id="edge70" class="edge"><title>paramtk.ScrolledWindow&#45;&gt;paramtk.AppWindow</title>
<path fill="none" stroke="black" stroke-width="0.5" d="M784.15,-11.9169C802.603,-11.6193 822.53,-11.2979 840.697,-11.0049"/>
<polygon fill="black" stroke="black" points="840.8,-12.7535 845.771,-10.923 840.744,-9.254 840.8,-12.7535"/>
</g>
<!-- paramtk.ParametersFrame&#45;&gt;paramtk.ParametersFrameWithApply -->
<g id="edge58" class="edge"><title>paramtk.ParametersFrame&#45;&gt;paramtk.ParametersFrameWithApply</title>
<path fill="none" stroke="black" stroke-width="0.5" d="M976.272,-390C986.862,-390 997.915,-390 1008.93,-390"/>
<polygon fill="black" stroke="black" points="1008.99,-391.75 1013.99,-390 1008.99,-388.25 1008.99,-391.75"/>
</g>
<!-- paramtk.CSPTranslator -->
<g id="node77" class="node"><title>paramtk.CSPTranslator</title>
<polygon fill="none" stroke="black" stroke-width="0.5" points="587,-428.5 461,-428.5 461,-407.5 587,-407.5 587,-428.5"/>
<text text-anchor="middle" x="524" y="-415.5" font-family="Vera" font-size="10.00">paramtk.CSPTranslator</text>
</g>
<!-- paramtk.String_ObjectTranslator&#45;&gt;paramtk.CSPTranslator -->
<g id="edge72" class="edge"><title>paramtk.String_ObjectTranslator&#45;&gt;paramtk.CSPTranslator</title>
<path fill="none" stroke="black" stroke-width="0.5" d="M394.591,-418C414.822,-418 436.133,-418 455.493,-418"/>
<polygon fill="black" stroke="black" points="455.899,-419.75 460.899,-418 455.899,-416.25 455.899,-419.75"/>
</g>
</g>
</svg>
