<?xml version="1.0" encoding="UTF-8" standalone="no"?>
<!DOCTYPE svg PUBLIC "-//W3C//DTD SVG 1.1//EN"
 "http://www.w3.org/Graphics/SVG/1.1/DTD/svg11.dtd">
<!-- Generated by graphviz version 2.26.3 (20100126.1600)
 -->
<!-- Title: inheritance0bce68b9cf Pages: 1 -->
<svg width="1872pt" height="408pt"
 viewBox="0.00 0.00 1872.00 408.00" xmlns="http://www.w3.org/2000/svg" xmlns:xlink="http://www.w3.org/1999/xlink">
<g id="graph1" class="graph" transform="scale(1 1) rotate(0) translate(4 404)">
<title>inheritance0bce68b9cf</title>
<polygon fill="white" stroke="white" points="-4,5 -4,-404 1869,-404 1869,5 -4,5"/>
<!-- topo.command.analysis.measure_od_pref -->
<g id="node1" class="node"><title>topo.command.analysis.measure_od_pref</title>
<polygon fill="none" stroke="black" stroke-width="0.5" points="1838,-400.5 1620,-400.5 1620,-379.5 1838,-379.5 1838,-400.5"/>
<text text-anchor="middle" x="1729" y="-387.5" font-family="Vera" font-size="10.00">topo.command.analysis.measure_od_pref</text>
</g>
<!-- topo.analysis.featureresponses.SinusoidalMeasureResponseCommand -->
<g id="node2" class="node"><title>topo.analysis.featureresponses.SinusoidalMeasureResponseCommand</title>
<polygon fill="none" stroke="black" stroke-width="0.5" points="1558,-248.5 1202,-248.5 1202,-227.5 1558,-227.5 1558,-248.5"/>
<text text-anchor="middle" x="1380" y="-235.5" font-family="Vera" font-size="10.00">topo.analysis.featureresponses.SinusoidalMeasureResponseCommand</text>
</g>
<!-- topo.analysis.featureresponses.SinusoidalMeasureResponseCommand&#45;&gt;topo.command.analysis.measure_od_pref -->
<g id="edge2" class="edge"><title>topo.analysis.featureresponses.SinusoidalMeasureResponseCommand&#45;&gt;topo.command.analysis.measure_od_pref</title>
<path fill="none" stroke="black" stroke-width="0.5" d="M1545.06,-248.013C1549.58,-250.67 1553.91,-253.655 1558,-257 1599.13,-290.642 1553.44,-336.675 1594,-371 1600.36,-376.382 1607.52,-380.642 1615.14,-383.989"/>
<polygon fill="black" stroke="black" points="1614.66,-385.681 1619.95,-385.957 1615.98,-382.442 1614.66,-385.681"/>
</g>
<!-- topo.command.analysis.measure_dr_pref -->
<g id="node7" class="node"><title>topo.command.analysis.measure_dr_pref</title>
<polygon fill="none" stroke="black" stroke-width="0.5" points="1837,-362.5 1621,-362.5 1621,-341.5 1837,-341.5 1837,-362.5"/>
<text text-anchor="middle" x="1729" y="-349.5" font-family="Vera" font-size="10.00">topo.command.analysis.measure_dr_pref</text>
</g>
<!-- topo.analysis.featureresponses.SinusoidalMeasureResponseCommand&#45;&gt;topo.command.analysis.measure_dr_pref -->
<g id="edge6" class="edge"><title>topo.analysis.featureresponses.SinusoidalMeasureResponseCommand&#45;&gt;topo.command.analysis.measure_dr_pref</title>
<path fill="none" stroke="black" stroke-width="0.5" d="M1543.24,-248.123C1548.37,-250.725 1553.31,-253.672 1558,-257 1588.48,-278.637 1563.89,-310.856 1594,-333 1600.71,-337.935 1608.13,-341.873 1615.93,-344.994"/>
<polygon fill="black" stroke="black" points="1615.54,-346.716 1620.84,-346.833 1616.77,-343.439 1615.54,-346.716"/>
</g>
<!-- topo.command.analysis.measure_second_or_pref -->
<g id="node9" class="node"><title>topo.command.analysis.measure_second_or_pref</title>
<polygon fill="none" stroke="black" stroke-width="0.5" points="1857,-324.5 1601,-324.5 1601,-303.5 1857,-303.5 1857,-324.5"/>
<text text-anchor="middle" x="1729" y="-311.5" font-family="Vera" font-size="10.00">topo.command.analysis.measure_second_or_pref</text>
</g>
<!-- topo.analysis.featureresponses.SinusoidalMeasureResponseCommand&#45;&gt;topo.command.analysis.measure_second_or_pref -->
<g id="edge8" class="edge"><title>topo.analysis.featureresponses.SinusoidalMeasureResponseCommand&#45;&gt;topo.command.analysis.measure_second_or_pref</title>
<path fill="none" stroke="black" stroke-width="0.5" d="M1536.23,-248.077C1543.73,-250.602 1551.04,-253.555 1558,-257 1578.85,-267.315 1573.32,-284.337 1594,-295 1599.34,-297.754 1604.95,-300.149 1610.72,-302.229"/>
<polygon fill="black" stroke="black" points="1610.31,-303.937 1615.61,-303.903 1611.45,-300.626 1610.31,-303.937"/>
</g>
<!-- topo.command.analysis.measure_sine_pref -->
<g id="node11" class="node"><title>topo.command.analysis.measure_sine_pref</title>
<polygon fill="none" stroke="black" stroke-width="0.5" points="1842,-286.5 1616,-286.5 1616,-265.5 1842,-265.5 1842,-286.5"/>
<text text-anchor="middle" x="1729" y="-273.5" font-family="Vera" font-size="10.00">topo.command.analysis.measure_sine_pref</text>
</g>
<!-- topo.analysis.featureresponses.SinusoidalMeasureResponseCommand&#45;&gt;topo.command.analysis.measure_sine_pref -->
<g id="edge10" class="edge"><title>topo.analysis.featureresponses.SinusoidalMeasureResponseCommand&#45;&gt;topo.command.analysis.measure_sine_pref</title>
<path fill="none" stroke="black" stroke-width="0.5" d="M1474.7,-248.031C1501.62,-250.904 1530.97,-254.055 1558,-257 1582.67,-259.688 1609.34,-262.632 1634.12,-265.384"/>
<polygon fill="black" stroke="black" points="1634.21,-267.155 1639.37,-265.968 1634.6,-263.676 1634.21,-267.155"/>
</g>
<!-- topo.command.analysis.measure_or_pref -->
<g id="node44" class="node"><title>topo.command.analysis.measure_or_pref</title>
<polygon fill="none" stroke="black" stroke-width="0.5" points="1837,-248.5 1621,-248.5 1621,-227.5 1837,-227.5 1837,-248.5"/>
<text text-anchor="middle" x="1729" y="-235.5" font-family="Vera" font-size="10.00">topo.command.analysis.measure_or_pref</text>
</g>
<!-- topo.analysis.featureresponses.SinusoidalMeasureResponseCommand&#45;&gt;topo.command.analysis.measure_or_pref -->
<g id="edge42" class="edge"><title>topo.analysis.featureresponses.SinusoidalMeasureResponseCommand&#45;&gt;topo.command.analysis.measure_or_pref</title>
<path fill="none" stroke="black" stroke-width="0.5" d="M1558.08,-238C1577.59,-238 1597.03,-238 1615.45,-238"/>
<polygon fill="black" stroke="black" points="1615.61,-239.75 1620.61,-238 1615.61,-236.25 1615.61,-239.75"/>
</g>
<!-- topo.command.analysis.measure_hue_pref -->
<g id="node51" class="node"><title>topo.command.analysis.measure_hue_pref</title>
<polygon fill="none" stroke="black" stroke-width="0.5" points="1841,-210.5 1617,-210.5 1617,-189.5 1841,-189.5 1841,-210.5"/>
<text text-anchor="middle" x="1729" y="-197.5" font-family="Vera" font-size="10.00">topo.command.analysis.measure_hue_pref</text>
</g>
<!-- topo.analysis.featureresponses.SinusoidalMeasureResponseCommand&#45;&gt;topo.command.analysis.measure_hue_pref -->
<g id="edge50" class="edge"><title>topo.analysis.featureresponses.SinusoidalMeasureResponseCommand&#45;&gt;topo.command.analysis.measure_hue_pref</title>
<path fill="none" stroke="black" stroke-width="0.5" d="M1472.15,-227.966C1521.35,-222.609 1581.89,-216.018 1631.83,-210.58"/>
<polygon fill="black" stroke="black" points="1632.16,-212.305 1636.94,-210.024 1631.78,-208.826 1632.16,-212.305"/>
</g>
<!-- topo.command.analysis.measure_phasedisparity -->
<g id="node57" class="node"><title>topo.command.analysis.measure_phasedisparity</title>
<polygon fill="none" stroke="black" stroke-width="0.5" points="1855,-172.5 1603,-172.5 1603,-151.5 1855,-151.5 1855,-172.5"/>
<text text-anchor="middle" x="1729" y="-159.5" font-family="Vera" font-size="10.00">topo.command.analysis.measure_phasedisparity</text>
</g>
<!-- topo.analysis.featureresponses.SinusoidalMeasureResponseCommand&#45;&gt;topo.command.analysis.measure_phasedisparity -->
<g id="edge56" class="edge"><title>topo.analysis.featureresponses.SinusoidalMeasureResponseCommand&#45;&gt;topo.command.analysis.measure_phasedisparity</title>
<path fill="none" stroke="black" stroke-width="0.5" d="M1412.7,-227.97C1454.43,-215.479 1529,-194.181 1594,-181 1609.11,-177.936 1625.27,-175.201 1640.97,-172.827"/>
<polygon fill="black" stroke="black" points="1641.59,-174.504 1646.27,-172.035 1641.07,-171.042 1641.59,-174.504"/>
</g>
<!-- topo.command.analysis.save_plotgroup -->
<g id="node4" class="node"><title>topo.command.analysis.save_plotgroup</title>
<polygon fill="none" stroke="black" stroke-width="0.5" points="765,-324.5 557,-324.5 557,-303.5 765,-303.5 765,-324.5"/>
<text text-anchor="middle" x="661" y="-311.5" font-family="Vera" font-size="10.00">topo.command.analysis.save_plotgroup</text>
</g>
<!-- param.parameterized.ParameterizedFunction -->
<g id="node5" class="node"><title>param.parameterized.ParameterizedFunction</title>
<polygon fill="none" stroke="black" stroke-width="0.5" points="464,-257.5 230,-257.5 230,-236.5 464,-236.5 464,-257.5"/>
<text text-anchor="middle" x="347" y="-244.5" font-family="Vera" font-size="10.00">param.parameterized.ParameterizedFunction</text>
</g>
<!-- param.parameterized.ParameterizedFunction&#45;&gt;topo.command.analysis.save_plotgroup -->
<g id="edge4" class="edge"><title>param.parameterized.ParameterizedFunction&#45;&gt;topo.command.analysis.save_plotgroup</title>
<path fill="none" stroke="black" stroke-width="0.5" d="M373.678,-257.042C403.893,-268.02 454.81,-285.333 500,-295 516.462,-298.521 534.02,-301.435 551.264,-303.831"/>
<polygon fill="black" stroke="black" points="551.414,-305.618 556.604,-304.559 551.886,-302.15 551.414,-305.618"/>
</g>
<!-- topo.plotting.plotgroup.ProjectionSheetMeasurementCommand -->
<g id="node20" class="node"><title>topo.plotting.plotgroup.ProjectionSheetMeasurementCommand</title>
<polygon fill="none" stroke="black" stroke-width="0.5" points="822,-286.5 500,-286.5 500,-265.5 822,-265.5 822,-286.5"/>
<text text-anchor="middle" x="661" y="-273.5" font-family="Vera" font-size="10.00">topo.plotting.plotgroup.ProjectionSheetMeasurementCommand</text>
</g>
<!-- param.parameterized.ParameterizedFunction&#45;&gt;topo.plotting.plotgroup.ProjectionSheetMeasurementCommand -->
<g id="edge46" class="edge"><title>param.parameterized.ParameterizedFunction&#45;&gt;topo.plotting.plotgroup.ProjectionSheetMeasurementCommand</title>
<path fill="none" stroke="black" stroke-width="0.5" d="M455.501,-257.021C485.161,-259.76 517.382,-262.736 547.323,-265.501"/>
<polygon fill="black" stroke="black" points="547.355,-267.262 552.495,-265.979 547.677,-263.776 547.355,-267.262"/>
</g>
<!-- topo.analysis.featureresponses.PatternPresentingCommand -->
<g id="node26" class="node"><title>topo.analysis.featureresponses.PatternPresentingCommand</title>
<polygon fill="none" stroke="black" stroke-width="0.5" points="813,-248.5 509,-248.5 509,-227.5 813,-227.5 813,-248.5"/>
<text text-anchor="middle" x="661" y="-235.5" font-family="Vera" font-size="10.00">topo.analysis.featureresponses.PatternPresentingCommand</text>
</g>
<!-- param.parameterized.ParameterizedFunction&#45;&gt;topo.analysis.featureresponses.PatternPresentingCommand -->
<g id="edge24" class="edge"><title>param.parameterized.ParameterizedFunction&#45;&gt;topo.analysis.featureresponses.PatternPresentingCommand</title>
<path fill="none" stroke="black" stroke-width="0.5" d="M464.369,-243.636C477.055,-243.272 490.112,-242.898 503.176,-242.524"/>
<polygon fill="black" stroke="black" points="503.43,-244.267 508.378,-242.375 503.33,-240.769 503.43,-244.267"/>
</g>
<!-- topo.command.analysis.measure_latency_preference -->
<g id="node13" class="node"><title>topo.command.analysis.measure_latency_preference</title>
<polygon fill="none" stroke="black" stroke-width="0.5" points="1517,-172.5 1243,-172.5 1243,-151.5 1517,-151.5 1517,-172.5"/>
<text text-anchor="middle" x="1380" y="-159.5" font-family="Vera" font-size="10.00">topo.command.analysis.measure_latency_preference</text>
</g>
<!-- topo.analysis.featureresponses.MeasureResponseCommand -->
<g id="node14" class="node"><title>topo.analysis.featureresponses.MeasureResponseCommand</title>
<polygon fill="none" stroke="black" stroke-width="0.5" points="1165,-134.5 859,-134.5 859,-113.5 1165,-113.5 1165,-134.5"/>
<text text-anchor="middle" x="1012" y="-121.5" font-family="Vera" font-size="10.00">topo.analysis.featureresponses.MeasureResponseCommand</text>
</g>
<!-- topo.analysis.featureresponses.MeasureResponseCommand&#45;&gt;topo.analysis.featureresponses.SinusoidalMeasureResponseCommand -->
<g id="edge22" class="edge"><title>topo.analysis.featureresponses.MeasureResponseCommand&#45;&gt;topo.analysis.featureresponses.SinusoidalMeasureResponseCommand</title>
<path fill="none" stroke="black" stroke-width="0.5" d="M1044.34,-134.017C1112.42,-155.108 1270.21,-203.99 1342.55,-226.398"/>
<polygon fill="black" stroke="black" points="1342.31,-228.157 1347.61,-227.965 1343.35,-224.814 1342.31,-228.157"/>
</g>
<!-- topo.analysis.featureresponses.MeasureResponseCommand&#45;&gt;topo.command.analysis.measure_latency_preference -->
<g id="edge12" class="edge"><title>topo.analysis.featureresponses.MeasureResponseCommand&#45;&gt;topo.command.analysis.measure_latency_preference</title>
<path fill="none" stroke="black" stroke-width="0.5" d="M1109.17,-134.034C1161.15,-139.402 1225.14,-146.009 1277.86,-151.453"/>
<polygon fill="black" stroke="black" points="1277.77,-153.203 1282.93,-151.976 1278.13,-149.722 1277.77,-153.203"/>
</g>
<!-- topo.analysis.featureresponses.PositionMeasurementCommand -->
<g id="node17" class="node"><title>topo.analysis.featureresponses.PositionMeasurementCommand</title>
<polygon fill="none" stroke="black" stroke-width="0.5" points="1542,-134.5 1218,-134.5 1218,-113.5 1542,-113.5 1542,-134.5"/>
<text text-anchor="middle" x="1380" y="-121.5" font-family="Vera" font-size="10.00">topo.analysis.featureresponses.PositionMeasurementCommand</text>
</g>
<!-- topo.analysis.featureresponses.MeasureResponseCommand&#45;&gt;topo.analysis.featureresponses.PositionMeasurementCommand -->
<g id="edge14" class="edge"><title>topo.analysis.featureresponses.MeasureResponseCommand&#45;&gt;topo.analysis.featureresponses.PositionMeasurementCommand</title>
<path fill="none" stroke="black" stroke-width="0.5" d="M1165.67,-124C1181.16,-124 1196.95,-124 1212.58,-124"/>
<polygon fill="black" stroke="black" points="1212.87,-125.75 1217.87,-124 1212.87,-122.25 1212.87,-125.75"/>
</g>
<!-- topo.analysis.featureresponses.SingleInputResponseCommand -->
<g id="node34" class="node"><title>topo.analysis.featureresponses.SingleInputResponseCommand</title>
<polygon fill="none" stroke="black" stroke-width="0.5" points="1539,-96.5 1221,-96.5 1221,-75.5 1539,-75.5 1539,-96.5"/>
<text text-anchor="middle" x="1380" y="-83.5" font-family="Vera" font-size="10.00">topo.analysis.featureresponses.SingleInputResponseCommand</text>
</g>
<!-- topo.analysis.featureresponses.MeasureResponseCommand&#45;&gt;topo.analysis.featureresponses.SingleInputResponseCommand -->
<g id="edge58" class="edge"><title>topo.analysis.featureresponses.MeasureResponseCommand&#45;&gt;topo.analysis.featureresponses.SingleInputResponseCommand</title>
<path fill="none" stroke="black" stroke-width="0.5" d="M1109.17,-113.966C1161.15,-108.598 1225.14,-101.991 1277.86,-96.5472"/>
<polygon fill="black" stroke="black" points="1278.13,-98.2785 1282.93,-96.024 1277.77,-94.797 1278.13,-98.2785"/>
</g>
<!-- topo.command.analysis.measure_frequency_preference -->
<g id="node49" class="node"><title>topo.command.analysis.measure_frequency_preference</title>
<polygon fill="none" stroke="black" stroke-width="0.5" points="1523,-58.5 1237,-58.5 1237,-37.5 1523,-37.5 1523,-58.5"/>
<text text-anchor="middle" x="1380" y="-45.5" font-family="Vera" font-size="10.00">topo.command.analysis.measure_frequency_preference</text>
</g>
<!-- topo.analysis.featureresponses.MeasureResponseCommand&#45;&gt;topo.command.analysis.measure_frequency_preference -->
<g id="edge48" class="edge"><title>topo.analysis.featureresponses.MeasureResponseCommand&#45;&gt;topo.command.analysis.measure_frequency_preference</title>
<path fill="none" stroke="black" stroke-width="0.5" d="M1039.6,-113.958C1076.21,-101.045 1143.09,-78.8742 1202,-67 1218.29,-63.7166 1235.54,-60.976 1252.64,-58.6945"/>
<polygon fill="black" stroke="black" points="1253.21,-60.385 1257.94,-58.0011 1252.75,-56.9146 1253.21,-60.385"/>
</g>
<!-- topo.command.analysis.measure_log_frequency_preference -->
<g id="node55" class="node"><title>topo.command.analysis.measure_log_frequency_preference</title>
<polygon fill="none" stroke="black" stroke-width="0.5" points="1533,-20.5 1227,-20.5 1227,0.5 1533,0.5 1533,-20.5"/>
<text text-anchor="middle" x="1380" y="-7.5" font-family="Vera" font-size="10.00">topo.command.analysis.measure_log_frequency_preference</text>
</g>
<!-- topo.analysis.featureresponses.MeasureResponseCommand&#45;&gt;topo.command.analysis.measure_log_frequency_preference -->
<g id="edge54" class="edge"><title>topo.analysis.featureresponses.MeasureResponseCommand&#45;&gt;topo.command.analysis.measure_log_frequency_preference</title>
<path fill="none" stroke="black" stroke-width="0.5" d="M1027.47,-113.833C1058.87,-93.7561 1132.99,-49.219 1202,-29 1212.83,-25.8271 1224.17,-23.1721 1235.65,-20.9518"/>
<polygon fill="black" stroke="black" points="1235.99,-22.6688 1240.59,-20.0266 1235.35,-19.2289 1235.99,-22.6688"/>
</g>
<!-- param.parameterized.Parameterized -->
<g id="node16" class="node"><title>param.parameterized.Parameterized</title>
<polygon fill="none" stroke="black" stroke-width="0.5" points="194,-200.5 5.68434e-14,-200.5 0,-179.5 194,-179.5 194,-200.5"/>
<text text-anchor="middle" x="97" y="-187.5" font-family="Vera" font-size="10.00">param.parameterized.Parameterized</text>
</g>
<!-- param.parameterized.Parameterized&#45;&gt;param.parameterized.ParameterizedFunction -->
<g id="edge18" class="edge"><title>param.parameterized.Parameterized&#45;&gt;param.parameterized.ParameterizedFunction</title>
<path fill="none" stroke="black" stroke-width="0.5" d="M141.12,-200.059C185.075,-210.081 252.414,-225.434 298.007,-235.83"/>
<polygon fill="black" stroke="black" points="297.638,-237.54 302.902,-236.946 298.416,-234.128 297.638,-237.54"/>
</g>
<!-- imagen.patterngenerator.PatternGenerator -->
<g id="node29" class="node"><title>imagen.patterngenerator.PatternGenerator</title>
<polygon fill="none" stroke="black" stroke-width="0.5" points="459,-200.5 235,-200.5 235,-179.5 459,-179.5 459,-200.5"/>
<text text-anchor="middle" x="347" y="-187.5" font-family="Vera" font-size="10.00">imagen.patterngenerator.PatternGenerator</text>
</g>
<!-- param.parameterized.Parameterized&#45;&gt;imagen.patterngenerator.PatternGenerator -->
<g id="edge36" class="edge"><title>param.parameterized.Parameterized&#45;&gt;imagen.patterngenerator.PatternGenerator</title>
<path fill="none" stroke="black" stroke-width="0.5" d="M194.014,-190C205.664,-190 217.655,-190 229.554,-190"/>
<polygon fill="black" stroke="black" points="229.647,-191.75 234.647,-190 229.647,-188.25 229.647,-191.75"/>
</g>
<!-- topo.command.analysis.PatternPresenter2 -->
<g id="node37" class="node"><title>topo.command.analysis.PatternPresenter2</title>
<polygon fill="none" stroke="black" stroke-width="0.5" points="457,-162.5 237,-162.5 237,-141.5 457,-141.5 457,-162.5"/>
<text text-anchor="middle" x="347" y="-149.5" font-family="Vera" font-size="10.00">topo.command.analysis.PatternPresenter2</text>
</g>
<!-- param.parameterized.Parameterized&#45;&gt;topo.command.analysis.PatternPresenter2 -->
<g id="edge34" class="edge"><title>param.parameterized.Parameterized&#45;&gt;topo.command.analysis.PatternPresenter2</title>
<path fill="none" stroke="black" stroke-width="0.5" d="M163.012,-179.966C197.758,-174.685 240.394,-168.204 275.872,-162.811"/>
<polygon fill="black" stroke="black" points="276.372,-164.506 281.052,-162.024 275.846,-161.045 276.372,-164.506"/>
</g>
<!-- topo.command.analysis.measure_corner_angle_pref -->
<g id="node23" class="node"><title>topo.command.analysis.measure_corner_angle_pref</title>
<polygon fill="none" stroke="black" stroke-width="0.5" points="1863,-134.5 1595,-134.5 1595,-113.5 1863,-113.5 1863,-134.5"/>
<text text-anchor="middle" x="1729" y="-121.5" font-family="Vera" font-size="10.00">topo.command.analysis.measure_corner_angle_pref</text>
</g>
<!-- topo.analysis.featureresponses.PositionMeasurementCommand&#45;&gt;topo.command.analysis.measure_corner_angle_pref -->
<g id="edge20" class="edge"><title>topo.analysis.featureresponses.PositionMeasurementCommand&#45;&gt;topo.command.analysis.measure_corner_angle_pref</title>
<path fill="none" stroke="black" stroke-width="0.5" d="M1542.24,-124C1557.91,-124 1573.72,-124 1589.15,-124"/>
<polygon fill="black" stroke="black" points="1589.36,-125.75 1594.36,-124 1589.36,-122.25 1589.36,-125.75"/>
</g>
<!-- topo.command.analysis.measure_corner_or_pref -->
<g id="node31" class="node"><title>topo.command.analysis.measure_corner_or_pref</title>
<polygon fill="none" stroke="black" stroke-width="0.5" points="1855,-96.5 1603,-96.5 1603,-75.5 1855,-75.5 1855,-96.5"/>
<text text-anchor="middle" x="1729" y="-83.5" font-family="Vera" font-size="10.00">topo.command.analysis.measure_corner_or_pref</text>
</g>
<!-- topo.analysis.featureresponses.PositionMeasurementCommand&#45;&gt;topo.command.analysis.measure_corner_or_pref -->
<g id="edge28" class="edge"><title>topo.analysis.featureresponses.PositionMeasurementCommand&#45;&gt;topo.command.analysis.measure_corner_or_pref</title>
<path fill="none" stroke="black" stroke-width="0.5" d="M1474.7,-113.969C1501.62,-111.096 1530.97,-107.945 1558,-105 1582.67,-102.312 1609.34,-99.3679 1634.12,-96.6164"/>
<polygon fill="black" stroke="black" points="1634.6,-98.3239 1639.37,-96.0323 1634.21,-94.8453 1634.6,-98.3239"/>
</g>
<!-- topo.command.analysis.update_projectionactivity -->
<g id="node19" class="node"><title>topo.command.analysis.update_projectionactivity</title>
<polygon fill="none" stroke="black" stroke-width="0.5" points="1139,-324.5 885,-324.5 885,-303.5 1139,-303.5 1139,-324.5"/>
<text text-anchor="middle" x="1012" y="-311.5" font-family="Vera" font-size="10.00">topo.command.analysis.update_projectionactivity</text>
</g>
<!-- topo.plotting.plotgroup.ProjectionSheetMeasurementCommand&#45;&gt;topo.command.analysis.update_projectionactivity -->
<g id="edge16" class="edge"><title>topo.plotting.plotgroup.ProjectionSheetMeasurementCommand&#45;&gt;topo.command.analysis.update_projectionactivity</title>
<path fill="none" stroke="black" stroke-width="0.5" d="M753.68,-286.034C803.164,-291.391 864.045,-297.982 914.273,-303.42"/>
<polygon fill="black" stroke="black" points="914.25,-305.178 919.409,-303.976 914.627,-301.698 914.25,-305.178"/>
</g>
<!-- topo.plotting.plotgroup.UnitMeasurementCommand -->
<g id="node41" class="node"><title>topo.plotting.plotgroup.UnitMeasurementCommand</title>
<polygon fill="none" stroke="black" stroke-width="0.5" points="1145,-286.5 879,-286.5 879,-265.5 1145,-265.5 1145,-286.5"/>
<text text-anchor="middle" x="1012" y="-273.5" font-family="Vera" font-size="10.00">topo.plotting.plotgroup.UnitMeasurementCommand</text>
</g>
<!-- topo.plotting.plotgroup.ProjectionSheetMeasurementCommand&#45;&gt;topo.plotting.plotgroup.UnitMeasurementCommand -->
<g id="edge40" class="edge"><title>topo.plotting.plotgroup.ProjectionSheetMeasurementCommand&#45;&gt;topo.plotting.plotgroup.UnitMeasurementCommand</title>
<path fill="none" stroke="black" stroke-width="0.5" d="M822.118,-276C839.348,-276 856.765,-276 873.698,-276"/>
<polygon fill="black" stroke="black" points="873.936,-277.75 878.936,-276 873.936,-274.25 873.936,-277.75"/>
</g>
<!-- topo.analysis.featureresponses.PatternPresentingCommand&#45;&gt;topo.analysis.featureresponses.MeasureResponseCommand -->
<g id="edge32" class="edge"><title>topo.analysis.featureresponses.PatternPresentingCommand&#45;&gt;topo.analysis.featureresponses.MeasureResponseCommand</title>
<path fill="none" stroke="black" stroke-width="0.5" d="M784.094,-227.95C797.022,-225.568 809.865,-222.628 822,-219 887.94,-199.282 958.712,-157.827 992.228,-136.806"/>
<polygon fill="black" stroke="black" points="993.219,-138.25 996.514,-134.102 991.351,-135.29 993.219,-138.25"/>
</g>
<!-- topo.command.analysis.log_frequency_mapper -->
<g id="node28" class="node"><title>topo.command.analysis.log_frequency_mapper</title>
<polygon fill="none" stroke="black" stroke-width="0.5" points="783,-210.5 539,-210.5 539,-189.5 783,-189.5 783,-210.5"/>
<text text-anchor="middle" x="661" y="-197.5" font-family="Vera" font-size="10.00">topo.command.analysis.log_frequency_mapper</text>
</g>
<!-- imagen.patterngenerator.PatternGenerator&#45;&gt;topo.command.analysis.log_frequency_mapper -->
<g id="edge26" class="edge"><title>imagen.patterngenerator.PatternGenerator&#45;&gt;topo.command.analysis.log_frequency_mapper</title>
<path fill="none" stroke="black" stroke-width="0.5" d="M459.031,-193.568C483.203,-194.338 508.927,-195.157 533.635,-195.944"/>
<polygon fill="black" stroke="black" points="533.838,-197.701 538.891,-196.111 533.949,-194.203 533.838,-197.701"/>
</g>
<!-- topo.command.analysis.frequency_mapper -->
<g id="node53" class="node"><title>topo.command.analysis.frequency_mapper</title>
<polygon fill="none" stroke="black" stroke-width="0.5" points="773,-172.5 549,-172.5 549,-151.5 773,-151.5 773,-172.5"/>
<text text-anchor="middle" x="661" y="-159.5" font-family="Vera" font-size="10.00">topo.command.analysis.frequency_mapper</text>
</g>
<!-- imagen.patterngenerator.PatternGenerator&#45;&gt;topo.command.analysis.frequency_mapper -->
<g id="edge52" class="edge"><title>imagen.patterngenerator.PatternGenerator&#45;&gt;topo.command.analysis.frequency_mapper</title>
<path fill="none" stroke="black" stroke-width="0.5" d="M459.031,-180.01C486.472,-177.563 515.915,-174.938 543.6,-172.469"/>
<polygon fill="black" stroke="black" points="543.923,-174.197 548.748,-172.01 543.612,-170.711 543.923,-174.197"/>
</g>
<!-- topo.command.analysis.latency_mapper -->
<g id="node60" class="node"><title>topo.command.analysis.latency_mapper</title>
<polygon fill="none" stroke="black" stroke-width="0.5" points="767,-134.5 555,-134.5 555,-113.5 767,-113.5 767,-134.5"/>
<text text-anchor="middle" x="661" y="-121.5" font-family="Vera" font-size="10.00">topo.command.analysis.latency_mapper</text>
</g>
<!-- imagen.patterngenerator.PatternGenerator&#45;&gt;topo.command.analysis.latency_mapper -->
<g id="edge60" class="edge"><title>imagen.patterngenerator.PatternGenerator&#45;&gt;topo.command.analysis.latency_mapper</title>
<path fill="none" stroke="black" stroke-width="0.5" d="M437.742,-179.934C446.796,-177.553 455.7,-174.618 464,-171 482.582,-162.901 481.247,-150.692 500,-143 515.575,-136.611 532.661,-132.171 549.701,-129.117"/>
<polygon fill="black" stroke="black" points="550.353,-130.781 554.987,-128.213 549.763,-127.331 550.353,-130.781"/>
</g>
<!-- topo.command.analysis.measure_rfs -->
<g id="node33" class="node"><title>topo.command.analysis.measure_rfs</title>
<polygon fill="none" stroke="black" stroke-width="0.5" points="1826,-58.5 1632,-58.5 1632,-37.5 1826,-37.5 1826,-58.5"/>
<text text-anchor="middle" x="1729" y="-45.5" font-family="Vera" font-size="10.00">topo.command.analysis.measure_rfs</text>
</g>
<!-- topo.analysis.featureresponses.SingleInputResponseCommand&#45;&gt;topo.command.analysis.measure_rfs -->
<g id="edge30" class="edge"><title>topo.analysis.featureresponses.SingleInputResponseCommand&#45;&gt;topo.command.analysis.measure_rfs</title>
<path fill="none" stroke="black" stroke-width="0.5" d="M1474.7,-75.9688C1501.62,-73.096 1530.97,-69.9447 1558,-67 1582.67,-64.3125 1609.34,-61.3679 1634.12,-58.6164"/>
<polygon fill="black" stroke="black" points="1634.6,-60.3239 1639.37,-58.0323 1634.21,-56.8453 1634.6,-60.3239"/>
</g>
<!-- topo.command.analysis.update_projection -->
<g id="node40" class="node"><title>topo.command.analysis.update_projection</title>
<polygon fill="none" stroke="black" stroke-width="0.5" points="1490,-324.5 1270,-324.5 1270,-303.5 1490,-303.5 1490,-324.5"/>
<text text-anchor="middle" x="1380" y="-311.5" font-family="Vera" font-size="10.00">topo.command.analysis.update_projection</text>
</g>
<!-- topo.plotting.plotgroup.UnitMeasurementCommand&#45;&gt;topo.command.analysis.update_projection -->
<g id="edge38" class="edge"><title>topo.plotting.plotgroup.UnitMeasurementCommand&#45;&gt;topo.command.analysis.update_projection</title>
<path fill="none" stroke="black" stroke-width="0.5" d="M1109.17,-286.034C1161.15,-291.402 1225.14,-298.009 1277.86,-303.453"/>
<polygon fill="black" stroke="black" points="1277.77,-305.203 1282.93,-303.976 1278.13,-301.722 1277.77,-305.203"/>
</g>
<!-- topo.command.analysis.update_connectionfields -->
<g id="node46" class="node"><title>topo.command.analysis.update_connectionfields</title>
<polygon fill="none" stroke="black" stroke-width="0.5" points="1505,-286.5 1255,-286.5 1255,-265.5 1505,-265.5 1505,-286.5"/>
<text text-anchor="middle" x="1380" y="-273.5" font-family="Vera" font-size="10.00">topo.command.analysis.update_connectionfields</text>
</g>
<!-- topo.plotting.plotgroup.UnitMeasurementCommand&#45;&gt;topo.command.analysis.update_connectionfields -->
<g id="edge44" class="edge"><title>topo.plotting.plotgroup.UnitMeasurementCommand&#45;&gt;topo.command.analysis.update_connectionfields</title>
<path fill="none" stroke="black" stroke-width="0.5" d="M1145.12,-276C1178.91,-276 1215.19,-276 1248.88,-276"/>
<polygon fill="black" stroke="black" points="1249.27,-277.75 1254.27,-276 1249.27,-274.25 1249.27,-277.75"/>
</g>
</g>
</svg>
