<?xml version="1.0" encoding="UTF-8" standalone="no"?>
<!DOCTYPE svg PUBLIC "-//W3C//DTD SVG 1.1//EN"
 "http://www.w3.org/Graphics/SVG/1.1/DTD/svg11.dtd">
<!-- Generated by graphviz version 2.26.3 (20100126.1600)
 -->
<!-- Title: inheritancef4cea304dd Pages: 1 -->
<svg width="1124pt" height="270pt"
 viewBox="0.00 0.00 1124.00 270.00" xmlns="http://www.w3.org/2000/svg" xmlns:xlink="http://www.w3.org/1999/xlink">
<g id="graph1" class="graph" transform="scale(1 1) rotate(0) translate(4 266)">
<title>inheritancef4cea304dd</title>
<polygon fill="white" stroke="white" points="-4,5 -4,-266 1121,-266 1121,5 -4,5"/>
<!-- topo.base.cf.CFIter -->
<g id="node1" class="node"><title>topo.base.cf.CFIter</title>
<polygon fill="none" stroke="black" stroke-width="0.5" points="150,-115.5 44,-115.5 44,-94.5 150,-94.5 150,-115.5"/>
<text text-anchor="middle" x="97" y="-102.5" font-family="Vera" font-size="10.00">topo.base.cf.CFIter</text>
</g>
<!-- topo.base.simulation.EPConnection -->
<g id="node2" class="node"><title>topo.base.simulation.EPConnection</title>
<polygon fill="none" stroke="black" stroke-width="0.5" points="441,-238.5 255,-238.5 255,-217.5 441,-217.5 441,-238.5"/>
<text text-anchor="middle" x="348" y="-225.5" font-family="Vera" font-size="10.00">topo.base.simulation.EPConnection</text>
</g>
<!-- topo.base.projection.Projection -->
<g id="node17" class="node"><title>topo.base.projection.Projection</title>
<polygon fill="none" stroke="black" stroke-width="0.5" points="667,-262.5 503,-262.5 503,-241.5 667,-241.5 667,-262.5"/>
<text text-anchor="middle" x="585" y="-249.5" font-family="Vera" font-size="10.00">topo.base.projection.Projection</text>
</g>
<!-- topo.base.simulation.EPConnection&#45;&gt;topo.base.projection.Projection -->
<g id="edge14" class="edge"><title>topo.base.simulation.EPConnection&#45;&gt;topo.base.projection.Projection</title>
<path fill="none" stroke="black" stroke-width="0.5" d="M441.328,-237.451C459.681,-239.309 478.878,-241.253 497.046,-243.093"/>
<polygon fill="black" stroke="black" points="496.991,-244.847 502.142,-243.609 497.344,-241.364 496.991,-244.847"/>
</g>
<!-- param.parameterized.Parameterized -->
<g id="node3" class="node"><title>param.parameterized.Parameterized</title>
<polygon fill="none" stroke="black" stroke-width="0.5" points="194,-153.5 5.68434e-14,-153.5 0,-132.5 194,-132.5 194,-153.5"/>
<text text-anchor="middle" x="97" y="-140.5" font-family="Vera" font-size="10.00">param.parameterized.Parameterized</text>
</g>
<!-- param.parameterized.Parameterized&#45;&gt;topo.base.simulation.EPConnection -->
<g id="edge2" class="edge"><title>param.parameterized.Parameterized&#45;&gt;topo.base.simulation.EPConnection</title>
<path fill="none" stroke="black" stroke-width="0.5" d="M172.778,-153.022C180.177,-155.411 187.384,-158.361 194,-162 214.384,-173.213 209.842,-188.386 230,-200 242.621,-207.272 257.038,-212.658 271.358,-216.647"/>
<polygon fill="black" stroke="black" points="270.925,-218.342 276.208,-217.947 271.832,-214.962 270.925,-218.342"/>
</g>
<!-- topo.base.cf.CFPLearningFn -->
<g id="node6" class="node"><title>topo.base.cf.CFPLearningFn</title>
<polygon fill="none" stroke="black" stroke-width="0.5" points="422,-191.5 274,-191.5 274,-170.5 422,-170.5 422,-191.5"/>
<text text-anchor="middle" x="348" y="-178.5" font-family="Vera" font-size="10.00">topo.base.cf.CFPLearningFn</text>
</g>
<!-- param.parameterized.Parameterized&#45;&gt;topo.base.cf.CFPLearningFn -->
<g id="edge28" class="edge"><title>param.parameterized.Parameterized&#45;&gt;topo.base.cf.CFPLearningFn</title>
<path fill="none" stroke="black" stroke-width="0.5" d="M163.276,-153.034C198.161,-158.315 240.968,-164.796 276.587,-170.189"/>
<polygon fill="black" stroke="black" points="276.583,-171.958 281.789,-170.976 277.107,-168.497 276.583,-171.958"/>
</g>
<!-- topo.base.cf.CFPResponseFn -->
<g id="node9" class="node"><title>topo.base.cf.CFPResponseFn</title>
<polygon fill="none" stroke="black" stroke-width="0.5" points="424,-153.5 272,-153.5 272,-132.5 424,-132.5 424,-153.5"/>
<text text-anchor="middle" x="348" y="-140.5" font-family="Vera" font-size="10.00">topo.base.cf.CFPResponseFn</text>
</g>
<!-- param.parameterized.Parameterized&#45;&gt;topo.base.cf.CFPResponseFn -->
<g id="edge12" class="edge"><title>param.parameterized.Parameterized&#45;&gt;topo.base.cf.CFPResponseFn</title>
<path fill="none" stroke="black" stroke-width="0.5" d="M194.043,-143C217.898,-143 243.201,-143 266.253,-143"/>
<polygon fill="black" stroke="black" points="266.443,-144.75 271.443,-143 266.443,-141.25 266.443,-144.75"/>
</g>
<!-- topo.base.simulation.EventProcessor -->
<g id="node12" class="node"><title>topo.base.simulation.EventProcessor</title>
<polygon fill="none" stroke="black" stroke-width="0.5" points="445,-115.5 251,-115.5 251,-94.5 445,-94.5 445,-115.5"/>
<text text-anchor="middle" x="348" y="-102.5" font-family="Vera" font-size="10.00">topo.base.simulation.EventProcessor</text>
</g>
<!-- param.parameterized.Parameterized&#45;&gt;topo.base.simulation.EventProcessor -->
<g id="edge34" class="edge"><title>param.parameterized.Parameterized&#45;&gt;topo.base.simulation.EventProcessor</title>
<path fill="none" stroke="black" stroke-width="0.5" d="M163.276,-132.966C198.161,-127.685 240.968,-121.204 276.587,-115.811"/>
<polygon fill="black" stroke="black" points="277.107,-117.503 281.789,-115.024 276.583,-114.042 277.107,-117.503"/>
</g>
<!-- topo.base.cf.CFPOutputFn -->
<g id="node22" class="node"><title>topo.base.cf.CFPOutputFn</title>
<polygon fill="none" stroke="black" stroke-width="0.5" points="418,-39.5 278,-39.5 278,-18.5 418,-18.5 418,-39.5"/>
<text text-anchor="middle" x="348" y="-26.5" font-family="Vera" font-size="10.00">topo.base.cf.CFPOutputFn</text>
</g>
<!-- param.parameterized.Parameterized&#45;&gt;topo.base.cf.CFPOutputFn -->
<g id="edge32" class="edge"><title>param.parameterized.Parameterized&#45;&gt;topo.base.cf.CFPOutputFn</title>
<path fill="none" stroke="black" stroke-width="0.5" d="M178.93,-132.996C184.301,-130.547 189.394,-127.581 194,-124 223.505,-101.057 200.111,-70.4413 230,-48 242.299,-38.7654 257.368,-33.2855 272.572,-30.1602"/>
<polygon fill="black" stroke="black" points="273.14,-31.834 277.73,-29.1885 272.492,-28.3945 273.14,-31.834"/>
</g>
<!-- topo.base.cf.CFPLF_Identity -->
<g id="node5" class="node"><title>topo.base.cf.CFPLF_Identity</title>
<polygon fill="none" stroke="black" stroke-width="0.5" points="658,-224.5 512,-224.5 512,-203.5 658,-203.5 658,-224.5"/>
<text text-anchor="middle" x="585" y="-211.5" font-family="Vera" font-size="10.00">topo.base.cf.CFPLF_Identity</text>
</g>
<!-- topo.base.cf.CFPLearningFn&#45;&gt;topo.base.cf.CFPLF_Identity -->
<g id="edge4" class="edge"><title>topo.base.cf.CFPLearningFn&#45;&gt;topo.base.cf.CFPLF_Identity</title>
<path fill="none" stroke="black" stroke-width="0.5" d="M420.073,-191.035C447.765,-194.891 479.476,-199.307 507.645,-203.229"/>
<polygon fill="black" stroke="black" points="507.668,-204.999 512.861,-203.955 508.151,-201.532 507.668,-204.999"/>
</g>
<!-- topo.base.cf.CFPLF_Plugin -->
<g id="node34" class="node"><title>topo.base.cf.CFPLF_Plugin</title>
<polygon fill="none" stroke="black" stroke-width="0.5" points="655,-186.5 515,-186.5 515,-165.5 655,-165.5 655,-186.5"/>
<text text-anchor="middle" x="585" y="-173.5" font-family="Vera" font-size="10.00">topo.base.cf.CFPLF_Plugin</text>
</g>
<!-- topo.base.cf.CFPLearningFn&#45;&gt;topo.base.cf.CFPLF_Plugin -->
<g id="edge30" class="edge"><title>topo.base.cf.CFPLearningFn&#45;&gt;topo.base.cf.CFPLF_Plugin</title>
<path fill="none" stroke="black" stroke-width="0.5" d="M422.663,-179.425C450.381,-178.84 481.824,-178.177 509.606,-177.591"/>
<polygon fill="black" stroke="black" points="509.788,-179.337 514.75,-177.482 509.714,-175.838 509.788,-179.337"/>
</g>
<!-- topo.base.cf.CFPRF_Plugin -->
<g id="node8" class="node"><title>topo.base.cf.CFPRF_Plugin</title>
<polygon fill="none" stroke="black" stroke-width="0.5" points="655,-148.5 515,-148.5 515,-127.5 655,-127.5 655,-148.5"/>
<text text-anchor="middle" x="585" y="-135.5" font-family="Vera" font-size="10.00">topo.base.cf.CFPRF_Plugin</text>
</g>
<!-- topo.base.cf.CFPResponseFn&#45;&gt;topo.base.cf.CFPRF_Plugin -->
<g id="edge6" class="edge"><title>topo.base.cf.CFPResponseFn&#45;&gt;topo.base.cf.CFPRF_Plugin</title>
<path fill="none" stroke="black" stroke-width="0.5" d="M424.62,-141.384C451.738,-140.811 482.215,-140.168 509.259,-139.598"/>
<polygon fill="black" stroke="black" points="509.306,-141.347 514.268,-139.492 509.232,-137.848 509.306,-141.347"/>
</g>
<!-- topo.base.sheet.Sheet -->
<g id="node11" class="node"><title>topo.base.sheet.Sheet</title>
<polygon fill="none" stroke="black" stroke-width="0.5" points="648,-101.5 522,-101.5 522,-80.5 648,-80.5 648,-101.5"/>
<text text-anchor="middle" x="585" y="-88.5" font-family="Vera" font-size="10.00">topo.base.sheet.Sheet</text>
</g>
<!-- topo.base.projection.ProjectionSheet -->
<g id="node19" class="node"><title>topo.base.projection.ProjectionSheet</title>
<polygon fill="none" stroke="black" stroke-width="0.5" points="898,-101.5 704,-101.5 704,-80.5 898,-80.5 898,-101.5"/>
<text text-anchor="middle" x="801" y="-88.5" font-family="Vera" font-size="10.00">topo.base.projection.ProjectionSheet</text>
</g>
<!-- topo.base.sheet.Sheet&#45;&gt;topo.base.projection.ProjectionSheet -->
<g id="edge16" class="edge"><title>topo.base.sheet.Sheet&#45;&gt;topo.base.projection.ProjectionSheet</title>
<path fill="none" stroke="black" stroke-width="0.5" d="M648.057,-91C663.856,-91 681.216,-91 698.394,-91"/>
<polygon fill="black" stroke="black" points="698.717,-92.7501 703.717,-91 698.717,-89.2501 698.717,-92.7501"/>
</g>
<!-- topo.base.simulation.EventProcessor&#45;&gt;topo.base.sheet.Sheet -->
<g id="edge8" class="edge"><title>topo.base.simulation.EventProcessor&#45;&gt;topo.base.sheet.Sheet</title>
<path fill="none" stroke="black" stroke-width="0.5" d="M445.081,-99.2653C469.206,-97.8401 494.557,-96.3426 516.952,-95.0197"/>
<polygon fill="black" stroke="black" points="517.093,-96.7646 521.981,-94.7227 516.886,-93.2706 517.093,-96.7646"/>
</g>
<!-- imagen.sheetcoords.SheetCoordinateSystem -->
<g id="node14" class="node"><title>imagen.sheetcoords.SheetCoordinateSystem</title>
<polygon fill="none" stroke="black" stroke-width="0.5" points="466,-77.5 230,-77.5 230,-56.5 466,-56.5 466,-77.5"/>
<text text-anchor="middle" x="348" y="-64.5" font-family="Vera" font-size="10.00">imagen.sheetcoords.SheetCoordinateSystem</text>
</g>
<!-- imagen.sheetcoords.SheetCoordinateSystem&#45;&gt;topo.base.sheet.Sheet -->
<g id="edge10" class="edge"><title>imagen.sheetcoords.SheetCoordinateSystem&#45;&gt;topo.base.sheet.Sheet</title>
<path fill="none" stroke="black" stroke-width="0.5" d="M446.793,-77.0044C470.31,-79.3858 494.893,-81.8752 516.694,-84.083"/>
<polygon fill="black" stroke="black" points="516.731,-85.8456 521.882,-84.6083 517.084,-82.3634 516.731,-85.8456"/>
</g>
<!-- topo.base.cf.CFProjection -->
<g id="node30" class="node"><title>topo.base.cf.CFProjection</title>
<polygon fill="none" stroke="black" stroke-width="0.5" points="869,-262.5 733,-262.5 733,-241.5 869,-241.5 869,-262.5"/>
<text text-anchor="middle" x="801" y="-249.5" font-family="Vera" font-size="10.00">topo.base.cf.CFProjection</text>
</g>
<!-- topo.base.projection.Projection&#45;&gt;topo.base.cf.CFProjection -->
<g id="edge26" class="edge"><title>topo.base.projection.Projection&#45;&gt;topo.base.cf.CFProjection</title>
<path fill="none" stroke="black" stroke-width="0.5" d="M667.585,-252C687.071,-252 707.728,-252 726.817,-252"/>
<polygon fill="black" stroke="black" points="727.157,-253.75 732.157,-252 727.157,-250.25 727.157,-253.75"/>
</g>
<!-- topo.base.cf.CFSheet -->
<g id="node26" class="node"><title>topo.base.cf.CFSheet</title>
<polygon fill="none" stroke="black" stroke-width="0.5" points="1084,-101.5 966,-101.5 966,-80.5 1084,-80.5 1084,-101.5"/>
<text text-anchor="middle" x="1025" y="-88.5" font-family="Vera" font-size="10.00">topo.base.cf.CFSheet</text>
</g>
<!-- topo.base.projection.ProjectionSheet&#45;&gt;topo.base.cf.CFSheet -->
<g id="edge22" class="edge"><title>topo.base.projection.ProjectionSheet&#45;&gt;topo.base.cf.CFSheet</title>
<path fill="none" stroke="black" stroke-width="0.5" d="M898.272,-91C919.101,-91 940.622,-91 959.885,-91"/>
<polygon fill="black" stroke="black" points="960.255,-92.7501 965.255,-91 960.255,-89.2501 960.255,-92.7501"/>
</g>
<!-- topo.base.cf.CFPOF_Plugin -->
<g id="node21" class="node"><title>topo.base.cf.CFPOF_Plugin</title>
<polygon fill="none" stroke="black" stroke-width="0.5" points="656,-58.5 514,-58.5 514,-37.5 656,-37.5 656,-58.5"/>
<text text-anchor="middle" x="585" y="-45.5" font-family="Vera" font-size="10.00">topo.base.cf.CFPOF_Plugin</text>
</g>
<!-- topo.base.cf.CFPOutputFn&#45;&gt;topo.base.cf.CFPOF_Plugin -->
<g id="edge18" class="edge"><title>topo.base.cf.CFPOutputFn&#45;&gt;topo.base.cf.CFPOF_Plugin</title>
<path fill="none" stroke="black" stroke-width="0.5" d="M418.146,-34.6235C446.533,-36.8992 479.388,-39.5332 508.398,-41.8589"/>
<polygon fill="black" stroke="black" points="508.268,-43.6041 513.392,-42.2593 508.548,-40.1152 508.268,-43.6041"/>
</g>
<!-- topo.base.cf.CFPOF_Identity -->
<g id="node24" class="node"><title>topo.base.cf.CFPOF_Identity</title>
<polygon fill="none" stroke="black" stroke-width="0.5" points="659,-20.5 511,-20.5 511,0.5 659,0.5 659,-20.5"/>
<text text-anchor="middle" x="585" y="-7.5" font-family="Vera" font-size="10.00">topo.base.cf.CFPOF_Identity</text>
</g>
<!-- topo.base.cf.CFPOutputFn&#45;&gt;topo.base.cf.CFPOF_Identity -->
<g id="edge20" class="edge"><title>topo.base.cf.CFPOutputFn&#45;&gt;topo.base.cf.CFPOF_Identity</title>
<path fill="none" stroke="black" stroke-width="0.5" d="M418.146,-23.3765C445.516,-21.1823 477.04,-18.655 505.266,-16.3922"/>
<polygon fill="black" stroke="black" points="505.652,-18.1169 510.496,-15.9729 505.372,-14.6281 505.652,-18.1169"/>
</g>
<!-- topo.base.cf.ConnectionField -->
<g id="node28" class="node"><title>topo.base.cf.ConnectionField</title>
<polygon fill="none" stroke="black" stroke-width="0.5" points="173,-191.5 21,-191.5 21,-170.5 173,-170.5 173,-191.5"/>
<text text-anchor="middle" x="97" y="-178.5" font-family="Vera" font-size="10.00">topo.base.cf.ConnectionField</text>
</g>
<!-- topo.base.cf.ResizableCFProjection -->
<g id="node29" class="node"><title>topo.base.cf.ResizableCFProjection</title>
<polygon fill="none" stroke="black" stroke-width="0.5" points="1116,-262.5 934,-262.5 934,-241.5 1116,-241.5 1116,-262.5"/>
<text text-anchor="middle" x="1025" y="-249.5" font-family="Vera" font-size="10.00">topo.base.cf.ResizableCFProjection</text>
</g>
<!-- topo.base.cf.CFProjection&#45;&gt;topo.base.cf.ResizableCFProjection -->
<g id="edge24" class="edge"><title>topo.base.cf.CFProjection&#45;&gt;topo.base.cf.ResizableCFProjection</title>
<path fill="none" stroke="black" stroke-width="0.5" d="M869.73,-252C888.343,-252 908.841,-252 928.67,-252"/>
<polygon fill="black" stroke="black" points="928.696,-253.75 933.696,-252 928.696,-250.25 928.696,-253.75"/>
</g>
<!-- topo.base.cf.NullCFError -->
<g id="node37" class="node"><title>topo.base.cf.NullCFError</title>
<polygon fill="none" stroke="black" stroke-width="0.5" points="162,-229.5 32,-229.5 32,-208.5 162,-208.5 162,-229.5"/>
<text text-anchor="middle" x="97" y="-216.5" font-family="Vera" font-size="10.00">topo.base.cf.NullCFError</text>
</g>
</g>
</svg>
