<?xml version="1.0" encoding="UTF-8" standalone="no"?>
<!DOCTYPE svg PUBLIC "-//W3C//DTD SVG 1.1//EN"
 "http://www.w3.org/Graphics/SVG/1.1/DTD/svg11.dtd">
<!-- Generated by graphviz version 2.26.3 (20100126.1600)
 -->
<!-- Title: inheritance09fca71fec Pages: 1 -->
<svg width="1140pt" height="208pt"
 viewBox="0.00 0.00 1140.00 208.00" xmlns="http://www.w3.org/2000/svg" xmlns:xlink="http://www.w3.org/1999/xlink">
<g id="graph1" class="graph" transform="scale(1 1) rotate(0) translate(4 204)">
<title>inheritance09fca71fec</title>
<polygon fill="white" stroke="white" points="-4,5 -4,-204 1137,-204 1137,5 -4,5"/>
<!-- topo.tkgui.topoconsole.DockManager -->
<g id="node1" class="node"><title>topo.tkgui.topoconsole.DockManager</title>
<polygon fill="none" stroke="black" stroke-width="0.5" points="1123,-134.5 929,-134.5 929,-113.5 1123,-113.5 1123,-134.5"/>
<text text-anchor="middle" x="1026" y="-121.5" font-family="Vera" font-size="10.00">topo.tkgui.topoconsole.DockManager</text>
</g>
<!-- paramtk.tilewrapper.Notebook -->
<g id="node2" class="node"><title>paramtk.tilewrapper.Notebook</title>
<polygon fill="none" stroke="black" stroke-width="0.5" points="883,-134.5 723,-134.5 723,-113.5 883,-113.5 883,-134.5"/>
<text text-anchor="middle" x="803" y="-121.5" font-family="Vera" font-size="10.00">paramtk.tilewrapper.Notebook</text>
</g>
<!-- paramtk.tilewrapper.Notebook&#45;&gt;topo.tkgui.topoconsole.DockManager -->
<g id="edge2" class="edge"><title>paramtk.tilewrapper.Notebook&#45;&gt;topo.tkgui.topoconsole.DockManager</title>
<path fill="none" stroke="black" stroke-width="0.5" d="M883.508,-124C896.394,-124 909.88,-124 923.2,-124"/>
<polygon fill="black" stroke="black" points="923.493,-125.75 928.493,-124 923.493,-122.25 923.493,-125.75"/>
</g>
<!-- paramtk.AppWindow -->
<g id="node4" class="node"><title>paramtk.AppWindow</title>
<polygon fill="none" stroke="black" stroke-width="0.5" points="860,-39.5 746,-39.5 746,-18.5 860,-18.5 860,-39.5"/>
<text text-anchor="middle" x="803" y="-26.5" font-family="Vera" font-size="10.00">paramtk.AppWindow</text>
</g>
<!-- topo.tkgui.topoconsole.TopoConsole -->
<g id="node22" class="node"><title>topo.tkgui.topoconsole.TopoConsole</title>
<polygon fill="none" stroke="black" stroke-width="0.5" points="1120,-68.5 932,-68.5 932,-47.5 1120,-47.5 1120,-68.5"/>
<text text-anchor="middle" x="1026" y="-55.5" font-family="Vera" font-size="10.00">topo.tkgui.topoconsole.TopoConsole</text>
</g>
<!-- paramtk.AppWindow&#45;&gt;topo.tkgui.topoconsole.TopoConsole -->
<g id="edge18" class="edge"><title>paramtk.AppWindow&#45;&gt;topo.tkgui.topoconsole.TopoConsole</title>
<path fill="none" stroke="black" stroke-width="0.5" d="M860.138,-36.4306C885.529,-39.7325 915.899,-43.6819 943.671,-47.2935"/>
<polygon fill="black" stroke="black" points="943.641,-49.0543 948.825,-47.9638 944.092,-45.5835 943.641,-49.0543"/>
</g>
<!-- paramtk.ScrolledWindow -->
<g id="node5" class="node"><title>paramtk.ScrolledWindow</title>
<polygon fill="none" stroke="black" stroke-width="0.5" points="651,-20.5 517,-20.5 517,0.5 651,0.5 651,-20.5"/>
<text text-anchor="middle" x="584" y="-7.5" font-family="Vera" font-size="10.00">paramtk.ScrolledWindow</text>
</g>
<!-- paramtk.ScrolledWindow&#45;&gt;paramtk.AppWindow -->
<g id="edge4" class="edge"><title>paramtk.ScrolledWindow&#45;&gt;paramtk.AppWindow</title>
<path fill="none" stroke="black" stroke-width="0.5" d="M651.196,-15.8297C679.722,-18.3046 712.775,-21.1723 740.742,-23.5986"/>
<polygon fill="black" stroke="black" points="740.77,-25.3575 745.902,-24.0463 741.072,-21.8706 740.77,-25.3575"/>
</g>
<!-- paramtk.TkParameterizedBase -->
<g id="node7" class="node"><title>paramtk.TkParameterizedBase</title>
<polygon fill="none" stroke="black" stroke-width="0.5" points="666,-96.5 502,-96.5 502,-75.5 666,-75.5 666,-96.5"/>
<text text-anchor="middle" x="584" y="-83.5" font-family="Vera" font-size="10.00">paramtk.TkParameterizedBase</text>
</g>
<!-- paramtk.TkParameterized -->
<g id="node24" class="node"><title>paramtk.TkParameterized</title>
<polygon fill="none" stroke="black" stroke-width="0.5" points="873,-96.5 733,-96.5 733,-75.5 873,-75.5 873,-96.5"/>
<text text-anchor="middle" x="803" y="-83.5" font-family="Vera" font-size="10.00">paramtk.TkParameterized</text>
</g>
<!-- paramtk.TkParameterizedBase&#45;&gt;paramtk.TkParameterized -->
<g id="edge26" class="edge"><title>paramtk.TkParameterizedBase&#45;&gt;paramtk.TkParameterized</title>
<path fill="none" stroke="black" stroke-width="0.5" d="M666.171,-86C686.423,-86 708.007,-86 727.904,-86"/>
<polygon fill="black" stroke="black" points="727.925,-87.7501 732.925,-86 727.925,-84.2501 727.925,-87.7501"/>
</g>
<!-- param.parameterized.Parameterized -->
<g id="node8" class="node"><title>param.parameterized.Parameterized</title>
<polygon fill="none" stroke="black" stroke-width="0.5" points="446,-67.5 252,-67.5 252,-46.5 446,-46.5 446,-67.5"/>
<text text-anchor="middle" x="349" y="-54.5" font-family="Vera" font-size="10.00">param.parameterized.Parameterized</text>
</g>
<!-- param.parameterized.Parameterized&#45;&gt;paramtk.TkParameterizedBase -->
<g id="edge6" class="edge"><title>param.parameterized.Parameterized&#45;&gt;paramtk.TkParameterizedBase</title>
<path fill="none" stroke="black" stroke-width="0.5" d="M430.203,-67.0208C452.034,-69.7148 475.719,-72.6376 497.81,-75.3638"/>
<polygon fill="black" stroke="black" points="497.617,-77.1032 502.794,-75.9788 498.046,-73.6296 497.617,-77.1032"/>
</g>
<!-- topo.tkgui.topoconsole.PlotsMenuEntry -->
<g id="node26" class="node"><title>topo.tkgui.topoconsole.PlotsMenuEntry</title>
<polygon fill="none" stroke="black" stroke-width="0.5" points="685,-58.5 483,-58.5 483,-37.5 685,-37.5 685,-58.5"/>
<text text-anchor="middle" x="584" y="-45.5" font-family="Vera" font-size="10.00">topo.tkgui.topoconsole.PlotsMenuEntry</text>
</g>
<!-- param.parameterized.Parameterized&#45;&gt;topo.tkgui.topoconsole.PlotsMenuEntry -->
<g id="edge22" class="edge"><title>param.parameterized.Parameterized&#45;&gt;topo.tkgui.topoconsole.PlotsMenuEntry</title>
<path fill="none" stroke="black" stroke-width="0.5" d="M446.28,-53.2744C456.48,-52.8837 466.89,-52.4851 477.189,-52.0906"/>
<polygon fill="black" stroke="black" points="477.306,-53.8375 482.235,-51.8974 477.172,-50.3401 477.306,-53.8375"/>
</g>
<!-- topo.tkgui.topoconsole.ControllableMenu -->
<g id="node10" class="node"><title>topo.tkgui.topoconsole.ControllableMenu</title>
<polygon fill="none" stroke="black" stroke-width="0.5" points="1132,-172.5 920,-172.5 920,-151.5 1132,-151.5 1132,-172.5"/>
<text text-anchor="middle" x="1026" y="-159.5" font-family="Vera" font-size="10.00">topo.tkgui.topoconsole.ControllableMenu</text>
</g>
<!-- paramtk.Menu -->
<g id="node11" class="node"><title>paramtk.Menu</title>
<polygon fill="none" stroke="black" stroke-width="0.5" points="846,-172.5 760,-172.5 760,-151.5 846,-151.5 846,-172.5"/>
<text text-anchor="middle" x="803" y="-159.5" font-family="Vera" font-size="10.00">paramtk.Menu</text>
</g>
<!-- paramtk.Menu&#45;&gt;topo.tkgui.topoconsole.ControllableMenu -->
<g id="edge8" class="edge"><title>paramtk.Menu&#45;&gt;topo.tkgui.topoconsole.ControllableMenu</title>
<path fill="none" stroke="black" stroke-width="0.5" d="M846.261,-162C866.009,-162 890.396,-162 914.767,-162"/>
<polygon fill="black" stroke="black" points="914.965,-163.75 919.965,-162 914.965,-160.25 914.965,-163.75"/>
</g>
<!-- Tkinter.Menu -->
<g id="node13" class="node"><title>Tkinter.Menu</title>
<polygon fill="none" stroke="black" stroke-width="0.5" points="622,-172.5 546,-172.5 546,-151.5 622,-151.5 622,-172.5"/>
<text text-anchor="middle" x="584" y="-159.5" font-family="Vera" font-size="10.00">Tkinter.Menu</text>
</g>
<!-- Tkinter.Menu&#45;&gt;paramtk.Menu -->
<g id="edge24" class="edge"><title>Tkinter.Menu&#45;&gt;paramtk.Menu</title>
<path fill="none" stroke="black" stroke-width="0.5" d="M622.649,-162C659.432,-162 714.908,-162 754.613,-162"/>
<polygon fill="black" stroke="black" points="754.862,-163.75 759.862,-162 754.862,-160.25 754.862,-163.75"/>
</g>
<!-- Tkinter.Widget -->
<g id="node14" class="node"><title>Tkinter.Widget</title>
<polygon fill="none" stroke="black" stroke-width="0.5" points="390,-162.5 308,-162.5 308,-141.5 390,-141.5 390,-162.5"/>
<text text-anchor="middle" x="349" y="-149.5" font-family="Vera" font-size="10.00">Tkinter.Widget</text>
</g>
<!-- Tkinter.Widget&#45;&gt;Tkinter.Menu -->
<g id="edge10" class="edge"><title>Tkinter.Widget&#45;&gt;Tkinter.Menu</title>
<path fill="none" stroke="black" stroke-width="0.5" d="M390.743,-153.776C432.821,-155.567 497.495,-158.319 540.269,-160.139"/>
<polygon fill="black" stroke="black" points="540.304,-161.892 545.373,-160.356 540.452,-158.395 540.304,-161.892"/>
</g>
<!-- paramtk.tilewrapper.Widget -->
<g id="node17" class="node"><title>paramtk.tilewrapper.Widget</title>
<polygon fill="none" stroke="black" stroke-width="0.5" points="657,-134.5 511,-134.5 511,-113.5 657,-113.5 657,-134.5"/>
<text text-anchor="middle" x="584" y="-121.5" font-family="Vera" font-size="10.00">paramtk.tilewrapper.Widget</text>
</g>
<!-- Tkinter.Widget&#45;&gt;paramtk.tilewrapper.Widget -->
<g id="edge14" class="edge"><title>Tkinter.Widget&#45;&gt;paramtk.tilewrapper.Widget</title>
<path fill="none" stroke="black" stroke-width="0.5" d="M390.743,-147.026C422.425,-143.251 466.919,-137.95 505.228,-133.386"/>
<polygon fill="black" stroke="black" points="505.591,-135.105 510.349,-132.775 505.177,-131.629 505.591,-135.105"/>
</g>
<!-- paramtk.tilewrapper.Style -->
<g id="node16" class="node"><title>paramtk.tilewrapper.Style</title>
<polygon fill="none" stroke="black" stroke-width="0.5" points="418,-124.5 280,-124.5 280,-103.5 418,-103.5 418,-124.5"/>
<text text-anchor="middle" x="349" y="-111.5" font-family="Vera" font-size="10.00">paramtk.tilewrapper.Style</text>
</g>
<!-- paramtk.tilewrapper.Style&#45;&gt;paramtk.tilewrapper.Widget -->
<g id="edge16" class="edge"><title>paramtk.tilewrapper.Style&#45;&gt;paramtk.tilewrapper.Widget</title>
<path fill="none" stroke="black" stroke-width="0.5" d="M418.554,-116.96C445.693,-118.115 476.951,-119.445 504.939,-120.636"/>
<polygon fill="black" stroke="black" points="505.055,-122.392 510.125,-120.856 505.204,-118.895 505.055,-122.392"/>
</g>
<!-- paramtk.tilewrapper.Widget&#45;&gt;paramtk.tilewrapper.Notebook -->
<g id="edge12" class="edge"><title>paramtk.tilewrapper.Widget&#45;&gt;paramtk.tilewrapper.Notebook</title>
<path fill="none" stroke="black" stroke-width="0.5" d="M657.533,-124C676.582,-124 697.265,-124 716.896,-124"/>
<polygon fill="black" stroke="black" points="717.132,-125.75 722.132,-124 717.132,-122.25 717.132,-125.75"/>
</g>
<!-- Tkinter.Wm -->
<g id="node21" class="node"><title>Tkinter.Wm</title>
<polygon fill="none" stroke="black" stroke-width="0.5" points="196,-29.5 128,-29.5 128,-8.5 196,-8.5 196,-29.5"/>
<text text-anchor="middle" x="162" y="-16.5" font-family="Vera" font-size="10.00">Tkinter.Wm</text>
</g>
<!-- Tkinter.Toplevel -->
<g id="node40" class="node"><title>Tkinter.Toplevel</title>
<polygon fill="none" stroke="black" stroke-width="0.5" points="393,-29.5 305,-29.5 305,-8.5 393,-8.5 393,-29.5"/>
<text text-anchor="middle" x="349" y="-16.5" font-family="Vera" font-size="10.00">Tkinter.Toplevel</text>
</g>
<!-- Tkinter.Wm&#45;&gt;Tkinter.Toplevel -->
<g id="edge40" class="edge"><title>Tkinter.Wm&#45;&gt;Tkinter.Toplevel</title>
<path fill="none" stroke="black" stroke-width="0.5" d="M196.735,-19C225.509,-19 266.771,-19 299.085,-19"/>
<polygon fill="black" stroke="black" points="299.191,-20.7501 304.191,-19 299.191,-17.2501 299.191,-20.7501"/>
</g>
<!-- paramtk.TkParameterized&#45;&gt;topo.tkgui.topoconsole.TopoConsole -->
<g id="edge20" class="edge"><title>paramtk.TkParameterized&#45;&gt;topo.tkgui.topoconsole.TopoConsole</title>
<path fill="none" stroke="black" stroke-width="0.5" d="M873.253,-77.1791C894.736,-74.4816 918.597,-71.4856 940.952,-68.6786"/>
<polygon fill="black" stroke="black" points="941.254,-70.4046 945.997,-68.0452 940.818,-66.9319 941.254,-70.4046"/>
</g>
<!-- Tkinter.Pack -->
<g id="node28" class="node"><title>Tkinter.Pack</title>
<polygon fill="none" stroke="black" stroke-width="0.5" points="198,-200.5 126,-200.5 126,-179.5 198,-179.5 198,-200.5"/>
<text text-anchor="middle" x="162" y="-187.5" font-family="Vera" font-size="10.00">Tkinter.Pack</text>
</g>
<!-- Tkinter.Pack&#45;&gt;Tkinter.Widget -->
<g id="edge32" class="edge"><title>Tkinter.Pack&#45;&gt;Tkinter.Widget</title>
<path fill="none" stroke="black" stroke-width="0.5" d="M198.945,-182.492C228.549,-176.477 270.267,-167.999 302.204,-161.509"/>
<polygon fill="black" stroke="black" points="302.691,-163.196 307.243,-160.485 301.994,-159.766 302.691,-163.196"/>
</g>
<!-- Tkinter.Place -->
<g id="node31" class="node"><title>Tkinter.Place</title>
<polygon fill="none" stroke="black" stroke-width="0.5" points="200,-162.5 124,-162.5 124,-141.5 200,-141.5 200,-162.5"/>
<text text-anchor="middle" x="162" y="-149.5" font-family="Vera" font-size="10.00">Tkinter.Place</text>
</g>
<!-- Tkinter.Place&#45;&gt;Tkinter.Widget -->
<g id="edge34" class="edge"><title>Tkinter.Place&#45;&gt;Tkinter.Widget</title>
<path fill="none" stroke="black" stroke-width="0.5" d="M200.747,-152C230.175,-152 270.777,-152 302.051,-152"/>
<polygon fill="black" stroke="black" points="302.381,-153.75 307.381,-152 302.381,-150.25 302.381,-153.75"/>
</g>
<!-- Tkinter.Grid -->
<g id="node32" class="node"><title>Tkinter.Grid</title>
<polygon fill="none" stroke="black" stroke-width="0.5" points="197,-124.5 127,-124.5 127,-103.5 197,-103.5 197,-124.5"/>
<text text-anchor="middle" x="162" y="-111.5" font-family="Vera" font-size="10.00">Tkinter.Grid</text>
</g>
<!-- Tkinter.Grid&#45;&gt;Tkinter.Widget -->
<g id="edge36" class="edge"><title>Tkinter.Grid&#45;&gt;Tkinter.Widget</title>
<path fill="none" stroke="black" stroke-width="0.5" d="M197.887,-121.702C214.362,-125.205 234.16,-129.37 252,-133 268.316,-136.32 286.199,-139.853 302.117,-142.96"/>
<polygon fill="black" stroke="black" points="302.193,-144.758 307.435,-143.997 302.862,-141.323 302.193,-144.758"/>
</g>
<!-- Tkinter.BaseWidget -->
<g id="node33" class="node"><title>Tkinter.BaseWidget</title>
<polygon fill="none" stroke="black" stroke-width="0.5" points="215,-77.5 109,-77.5 109,-56.5 215,-56.5 215,-77.5"/>
<text text-anchor="middle" x="162" y="-64.5" font-family="Vera" font-size="10.00">Tkinter.BaseWidget</text>
</g>
<!-- Tkinter.BaseWidget&#45;&gt;Tkinter.Widget -->
<g id="edge30" class="edge"><title>Tkinter.BaseWidget&#45;&gt;Tkinter.Widget</title>
<path fill="none" stroke="black" stroke-width="0.5" d="M185.603,-77.1156C195.445,-81.8604 206.72,-88.0127 216,-95 234.585,-108.994 231.616,-121.787 252,-133 267.261,-141.395 285.669,-146.12 302.329,-148.765"/>
<polygon fill="black" stroke="black" points="302.236,-150.52 307.438,-149.521 302.748,-147.058 302.236,-150.52"/>
</g>
<!-- Tkinter.BaseWidget&#45;&gt;Tkinter.Toplevel -->
<g id="edge38" class="edge"><title>Tkinter.BaseWidget&#45;&gt;Tkinter.Toplevel</title>
<path fill="none" stroke="black" stroke-width="0.5" d="M190.123,-56.9909C207.746,-50.956 231.018,-43.4151 252,-38 267.227,-34.0702 283.982,-30.5192 299.22,-27.5793"/>
<polygon fill="black" stroke="black" points="299.742,-29.2616 304.325,-26.6061 299.086,-25.8235 299.742,-29.2616"/>
</g>
<!-- Tkinter.Misc -->
<g id="node34" class="node"><title>Tkinter.Misc</title>
<polygon fill="none" stroke="black" stroke-width="0.5" points="72,-77.5 2.84217e-14,-77.5 0,-56.5 72,-56.5 72,-77.5"/>
<text text-anchor="middle" x="36" y="-64.5" font-family="Vera" font-size="10.00">Tkinter.Misc</text>
</g>
<!-- Tkinter.Misc&#45;&gt;Tkinter.BaseWidget -->
<g id="edge28" class="edge"><title>Tkinter.Misc&#45;&gt;Tkinter.BaseWidget</title>
<path fill="none" stroke="black" stroke-width="0.5" d="M72.1065,-67C81.7306,-67 92.3855,-67 102.895,-67"/>
<polygon fill="black" stroke="black" points="103.038,-68.7501 108.038,-67 103.038,-65.2501 103.038,-68.7501"/>
</g>
<!-- Tkinter.Toplevel&#45;&gt;paramtk.ScrolledWindow -->
<g id="edge42" class="edge"><title>Tkinter.Toplevel&#45;&gt;paramtk.ScrolledWindow</title>
<path fill="none" stroke="black" stroke-width="0.5" d="M393.755,-17.286C427.019,-16.012 473.106,-14.247 511.588,-12.7732"/>
<polygon fill="black" stroke="black" points="511.794,-14.5167 516.724,-12.5765 511.66,-11.0193 511.794,-14.5167"/>
</g>
</g>
</svg>
