<?xml version="1.0" encoding="UTF-8" standalone="no"?>
<!DOCTYPE svg PUBLIC "-//W3C//DTD SVG 1.1//EN"
 "http://www.w3.org/Graphics/SVG/1.1/DTD/svg11.dtd">
<!-- Generated by graphviz version 2.26.3 (20100126.1600)
 -->
<!-- Title: inheritancebede3c61fc Pages: 1 -->
<svg width="2498pt" height="503pt"
 viewBox="0.00 0.00 2498.00 503.00" xmlns="http://www.w3.org/2000/svg" xmlns:xlink="http://www.w3.org/1999/xlink">
<g id="graph1" class="graph" transform="scale(1 1) rotate(0) translate(4 499)">
<title>inheritancebede3c61fc</title>
<polygon fill="white" stroke="white" points="-4,5 -4,-499 2495,-499 2495,5 -4,5"/>
<!-- topo.command.pylabplot.tuning_curve -->
<g id="node1" class="node"><title>topo.command.pylabplot.tuning_curve</title>
<polygon fill="none" stroke="black" stroke-width="0.5" points="1820,-343.5 1620,-343.5 1620,-322.5 1820,-322.5 1820,-343.5"/>
<text text-anchor="middle" x="1720" y="-330.5" font-family="Vera" font-size="10.00">topo.command.pylabplot.tuning_curve</text>
</g>
<!-- topo.command.pylabplot.unit_tuning_curve -->
<g id="node2" class="node"><title>topo.command.pylabplot.unit_tuning_curve</title>
<polygon fill="none" stroke="black" stroke-width="0.5" points="1476,-324.5 1252,-324.5 1252,-303.5 1476,-303.5 1476,-324.5"/>
<text text-anchor="middle" x="1364" y="-311.5" font-family="Vera" font-size="10.00">topo.command.pylabplot.unit_tuning_curve</text>
</g>
<!-- topo.command.pylabplot.unit_tuning_curve&#45;&gt;topo.command.pylabplot.tuning_curve -->
<g id="edge2" class="edge"><title>topo.command.pylabplot.unit_tuning_curve&#45;&gt;topo.command.pylabplot.tuning_curve</title>
<path fill="none" stroke="black" stroke-width="0.5" d="M1476.15,-319.986C1520.31,-322.342 1570.76,-325.035 1614.27,-327.357"/>
<polygon fill="black" stroke="black" points="1614.18,-329.105 1619.26,-327.624 1614.37,-325.61 1614.18,-329.105"/>
</g>
<!-- topo.command.pylabplot.cyclic_unit_tuning_curve -->
<g id="node42" class="node"><title>topo.command.pylabplot.cyclic_unit_tuning_curve</title>
<polygon fill="none" stroke="black" stroke-width="0.5" points="1847,-305.5 1593,-305.5 1593,-284.5 1847,-284.5 1847,-305.5"/>
<text text-anchor="middle" x="1720" y="-292.5" font-family="Vera" font-size="10.00">topo.command.pylabplot.cyclic_unit_tuning_curve</text>
</g>
<!-- topo.command.pylabplot.unit_tuning_curve&#45;&gt;topo.command.pylabplot.cyclic_unit_tuning_curve -->
<g id="edge36" class="edge"><title>topo.command.pylabplot.unit_tuning_curve&#45;&gt;topo.command.pylabplot.cyclic_unit_tuning_curve</title>
<path fill="none" stroke="black" stroke-width="0.5" d="M1476.15,-308.014C1511.31,-306.138 1550.46,-304.048 1586.92,-302.102"/>
<polygon fill="black" stroke="black" points="1587.38,-303.83 1592.28,-301.816 1587.2,-300.335 1587.38,-303.83"/>
</g>
<!-- topo.command.pylabplot.histogramplot -->
<g id="node4" class="node"><title>topo.command.pylabplot.histogramplot</title>
<polygon fill="none" stroke="black" stroke-width="0.5" points="1467,-286.5 1261,-286.5 1261,-265.5 1467,-265.5 1467,-286.5"/>
<text text-anchor="middle" x="1364" y="-273.5" font-family="Vera" font-size="10.00">topo.command.pylabplot.histogramplot</text>
</g>
<!-- topo.command.pylabplot.PylabPlotCommand -->
<g id="node5" class="node"><title>topo.command.pylabplot.PylabPlotCommand</title>
<polygon fill="none" stroke="black" stroke-width="0.5" points="1112,-191.5 880,-191.5 880,-170.5 1112,-170.5 1112,-191.5"/>
<text text-anchor="middle" x="996" y="-178.5" font-family="Vera" font-size="10.00">topo.command.pylabplot.PylabPlotCommand</text>
</g>
<!-- topo.command.pylabplot.PylabPlotCommand&#45;&gt;topo.command.pylabplot.unit_tuning_curve -->
<g id="edge14" class="edge"><title>topo.command.pylabplot.PylabPlotCommand&#45;&gt;topo.command.pylabplot.unit_tuning_curve</title>
<path fill="none" stroke="black" stroke-width="0.5" d="M1008.39,-191.123C1037.37,-214.165 1112.69,-270.43 1186,-295 1205.15,-301.419 1226.05,-305.803 1246.58,-308.772"/>
<polygon fill="black" stroke="black" points="1246.59,-310.541 1251.79,-309.496 1247.08,-307.074 1246.59,-310.541"/>
</g>
<!-- topo.command.pylabplot.PylabPlotCommand&#45;&gt;topo.command.pylabplot.histogramplot -->
<g id="edge4" class="edge"><title>topo.command.pylabplot.PylabPlotCommand&#45;&gt;topo.command.pylabplot.histogramplot</title>
<path fill="none" stroke="black" stroke-width="0.5" d="M1015.92,-191.097C1049.86,-207.816 1121.52,-240.987 1186,-257 1208.15,-262.502 1232.25,-266.41 1255.34,-269.187"/>
<polygon fill="black" stroke="black" points="1255.39,-270.955 1260.56,-269.798 1255.8,-267.479 1255.39,-270.955"/>
</g>
<!-- topo.command.pylabplot.plot_modulation_ratio -->
<g id="node7" class="node"><title>topo.command.pylabplot.plot_modulation_ratio</title>
<polygon fill="none" stroke="black" stroke-width="0.5" points="1486,-248.5 1242,-248.5 1242,-227.5 1486,-227.5 1486,-248.5"/>
<text text-anchor="middle" x="1364" y="-235.5" font-family="Vera" font-size="10.00">topo.command.pylabplot.plot_modulation_ratio</text>
</g>
<!-- topo.command.pylabplot.PylabPlotCommand&#45;&gt;topo.command.pylabplot.plot_modulation_ratio -->
<g id="edge6" class="edge"><title>topo.command.pylabplot.PylabPlotCommand&#45;&gt;topo.command.pylabplot.plot_modulation_ratio</title>
<path fill="none" stroke="black" stroke-width="0.5" d="M1040.33,-191.056C1078.71,-199.475 1135.79,-211.315 1186,-219 1206.62,-222.156 1228.66,-224.963 1249.97,-227.387"/>
<polygon fill="black" stroke="black" points="1249.91,-229.142 1255.07,-227.963 1250.3,-225.664 1249.91,-229.142"/>
</g>
<!-- topo.command.pylabplot.matrixplot -->
<g id="node13" class="node"><title>topo.command.pylabplot.matrixplot</title>
<polygon fill="none" stroke="black" stroke-width="0.5" points="1458,-210.5 1270,-210.5 1270,-189.5 1458,-189.5 1458,-210.5"/>
<text text-anchor="middle" x="1364" y="-197.5" font-family="Vera" font-size="10.00">topo.command.pylabplot.matrixplot</text>
</g>
<!-- topo.command.pylabplot.PylabPlotCommand&#45;&gt;topo.command.pylabplot.matrixplot -->
<g id="edge70" class="edge"><title>topo.command.pylabplot.PylabPlotCommand&#45;&gt;topo.command.pylabplot.matrixplot</title>
<path fill="none" stroke="black" stroke-width="0.5" d="M1112.69,-187.025C1161.64,-189.552 1217.96,-192.46 1264.87,-194.882"/>
<polygon fill="black" stroke="black" points="1264.87,-196.634 1269.95,-195.144 1265.05,-193.139 1264.87,-196.634"/>
</g>
<!-- topo.command.pylabplot.overlaid_plot -->
<g id="node36" class="node"><title>topo.command.pylabplot.overlaid_plot</title>
<polygon fill="none" stroke="black" stroke-width="0.5" points="1464,-172.5 1264,-172.5 1264,-151.5 1464,-151.5 1464,-172.5"/>
<text text-anchor="middle" x="1364" y="-159.5" font-family="Vera" font-size="10.00">topo.command.pylabplot.overlaid_plot</text>
</g>
<!-- topo.command.pylabplot.PylabPlotCommand&#45;&gt;topo.command.pylabplot.overlaid_plot -->
<g id="edge30" class="edge"><title>topo.command.pylabplot.PylabPlotCommand&#45;&gt;topo.command.pylabplot.overlaid_plot</title>
<path fill="none" stroke="black" stroke-width="0.5" d="M1112.69,-174.975C1159.51,-172.558 1213.08,-169.792 1258.7,-167.437"/>
<polygon fill="black" stroke="black" points="1259.04,-169.172 1263.94,-167.166 1258.86,-165.676 1259.04,-169.172"/>
</g>
<!-- topo.command.pylabplot.vectorplot -->
<g id="node51" class="node"><title>topo.command.pylabplot.vectorplot</title>
<polygon fill="none" stroke="black" stroke-width="0.5" points="1458,-134.5 1270,-134.5 1270,-113.5 1458,-113.5 1458,-134.5"/>
<text text-anchor="middle" x="1364" y="-121.5" font-family="Vera" font-size="10.00">topo.command.pylabplot.vectorplot</text>
</g>
<!-- topo.command.pylabplot.PylabPlotCommand&#45;&gt;topo.command.pylabplot.vectorplot -->
<g id="edge48" class="edge"><title>topo.command.pylabplot.PylabPlotCommand&#45;&gt;topo.command.pylabplot.vectorplot</title>
<path fill="none" stroke="black" stroke-width="0.5" d="M1040.33,-170.944C1078.71,-162.525 1135.79,-150.685 1186,-143 1211.34,-139.121 1238.84,-135.769 1264.47,-133.007"/>
<polygon fill="black" stroke="black" points="1264.78,-134.734 1269.57,-132.463 1264.41,-131.253 1264.78,-134.734"/>
</g>
<!-- topo.command.pylabplot.matrixplot3d -->
<g id="node57" class="node"><title>topo.command.pylabplot.matrixplot3d</title>
<polygon fill="none" stroke="black" stroke-width="0.5" points="1464,-96.5 1264,-96.5 1264,-75.5 1464,-75.5 1464,-96.5"/>
<text text-anchor="middle" x="1364" y="-83.5" font-family="Vera" font-size="10.00">topo.command.pylabplot.matrixplot3d</text>
</g>
<!-- topo.command.pylabplot.PylabPlotCommand&#45;&gt;topo.command.pylabplot.matrixplot3d -->
<g id="edge54" class="edge"><title>topo.command.pylabplot.PylabPlotCommand&#45;&gt;topo.command.pylabplot.matrixplot3d</title>
<path fill="none" stroke="black" stroke-width="0.5" d="M1015.92,-170.903C1049.86,-154.184 1121.52,-121.013 1186,-105 1209.23,-99.2306 1234.6,-95.2129 1258.71,-92.4152"/>
<polygon fill="black" stroke="black" points="1259.06,-94.1365 1263.83,-91.8365 1258.67,-90.6586 1259.06,-94.1365"/>
</g>
<!-- topo.command.pylabplot.xy_grid -->
<g id="node60" class="node"><title>topo.command.pylabplot.xy_grid</title>
<polygon fill="none" stroke="black" stroke-width="0.5" points="1450,-58.5 1278,-58.5 1278,-37.5 1450,-37.5 1450,-58.5"/>
<text text-anchor="middle" x="1364" y="-45.5" font-family="Vera" font-size="10.00">topo.command.pylabplot.xy_grid</text>
</g>
<!-- topo.command.pylabplot.PylabPlotCommand&#45;&gt;topo.command.pylabplot.xy_grid -->
<g id="edge58" class="edge"><title>topo.command.pylabplot.PylabPlotCommand&#45;&gt;topo.command.pylabplot.xy_grid</title>
<path fill="none" stroke="black" stroke-width="0.5" d="M1008.39,-170.877C1037.37,-147.835 1112.69,-91.5704 1186,-67 1213.19,-57.8888 1243.9,-52.877 1272.06,-50.1932"/>
<polygon fill="black" stroke="black" points="1272.46,-51.9136 1277.28,-49.7187 1272.15,-48.4279 1272.46,-51.9136"/>
</g>
<!-- topo.command.pylabplot.matrixplot3dx3 -->
<g id="node72" class="node"><title>topo.command.pylabplot.matrixplot3dx3</title>
<polygon fill="none" stroke="black" stroke-width="0.5" points="1470,-20.5 1258,-20.5 1258,0.5 1470,0.5 1470,-20.5"/>
<text text-anchor="middle" x="1364" y="-7.5" font-family="Vera" font-size="10.00">topo.command.pylabplot.matrixplot3dx3</text>
</g>
<!-- topo.command.pylabplot.PylabPlotCommand&#45;&gt;topo.command.pylabplot.matrixplot3dx3 -->
<g id="edge72" class="edge"><title>topo.command.pylabplot.PylabPlotCommand&#45;&gt;topo.command.pylabplot.matrixplot3dx3</title>
<path fill="none" stroke="black" stroke-width="0.5" d="M1004.61,-170.91C1029.38,-142.652 1104.36,-62.61 1186,-29 1206.71,-20.4756 1229.86,-15.2445 1252.44,-12.1281"/>
<polygon fill="black" stroke="black" points="1252.82,-13.843 1257.55,-11.4568 1252.36,-10.3728 1252.82,-13.843"/>
</g>
<!-- topo.analysis.featureresponses.MeasureResponseCommand -->
<g id="node9" class="node"><title>topo.analysis.featureresponses.MeasureResponseCommand</title>
<polygon fill="none" stroke="black" stroke-width="0.5" points="1149,-381.5 843,-381.5 843,-360.5 1149,-360.5 1149,-381.5"/>
<text text-anchor="middle" x="996" y="-368.5" font-family="Vera" font-size="10.00">topo.analysis.featureresponses.MeasureResponseCommand</text>
</g>
<!-- topo.analysis.featureresponses.PositionMeasurementCommand -->
<g id="node40" class="node"><title>topo.analysis.featureresponses.PositionMeasurementCommand</title>
<polygon fill="none" stroke="black" stroke-width="0.5" points="1526,-419.5 1202,-419.5 1202,-398.5 1526,-398.5 1526,-419.5"/>
<text text-anchor="middle" x="1364" y="-406.5" font-family="Vera" font-size="10.00">topo.analysis.featureresponses.PositionMeasurementCommand</text>
</g>
<!-- topo.analysis.featureresponses.MeasureResponseCommand&#45;&gt;topo.analysis.featureresponses.PositionMeasurementCommand -->
<g id="edge44" class="edge"><title>topo.analysis.featureresponses.MeasureResponseCommand&#45;&gt;topo.analysis.featureresponses.PositionMeasurementCommand</title>
<path fill="none" stroke="black" stroke-width="0.5" d="M1093.17,-381.034C1145.15,-386.402 1209.14,-393.009 1261.86,-398.453"/>
<polygon fill="black" stroke="black" points="1261.77,-400.203 1266.93,-398.976 1262.13,-396.722 1261.77,-400.203"/>
</g>
<!-- topo.analysis.featureresponses.SinusoidalMeasureResponseCommand -->
<g id="node49" class="node"><title>topo.analysis.featureresponses.SinusoidalMeasureResponseCommand</title>
<polygon fill="none" stroke="black" stroke-width="0.5" points="1542,-381.5 1186,-381.5 1186,-360.5 1542,-360.5 1542,-381.5"/>
<text text-anchor="middle" x="1364" y="-368.5" font-family="Vera" font-size="10.00">topo.analysis.featureresponses.SinusoidalMeasureResponseCommand</text>
</g>
<!-- topo.analysis.featureresponses.MeasureResponseCommand&#45;&gt;topo.analysis.featureresponses.SinusoidalMeasureResponseCommand -->
<g id="edge64" class="edge"><title>topo.analysis.featureresponses.MeasureResponseCommand&#45;&gt;topo.analysis.featureresponses.SinusoidalMeasureResponseCommand</title>
<path fill="none" stroke="black" stroke-width="0.5" d="M1149.67,-371C1159.91,-371 1170.29,-371 1180.66,-371"/>
<polygon fill="black" stroke="black" points="1180.75,-372.75 1185.75,-371 1180.75,-369.25 1180.75,-372.75"/>
</g>
<!-- topo.analysis.featureresponses.PatternPresentingCommand -->
<g id="node10" class="node"><title>topo.analysis.featureresponses.PatternPresentingCommand</title>
<polygon fill="none" stroke="black" stroke-width="0.5" points="805,-343.5 501,-343.5 501,-322.5 805,-322.5 805,-343.5"/>
<text text-anchor="middle" x="653" y="-330.5" font-family="Vera" font-size="10.00">topo.analysis.featureresponses.PatternPresentingCommand</text>
</g>
<!-- topo.analysis.featureresponses.PatternPresentingCommand&#45;&gt;topo.analysis.featureresponses.MeasureResponseCommand -->
<g id="edge8" class="edge"><title>topo.analysis.featureresponses.PatternPresentingCommand&#45;&gt;topo.analysis.featureresponses.MeasureResponseCommand</title>
<path fill="none" stroke="black" stroke-width="0.5" d="M743.568,-343.034C791.924,-348.391 851.418,-354.982 900.5,-360.42"/>
<polygon fill="black" stroke="black" points="900.357,-362.165 905.52,-360.976 900.743,-358.686 900.357,-362.165"/>
</g>
<!-- topo.command.pylabplot.autocorrelationplot -->
<g id="node12" class="node"><title>topo.command.pylabplot.autocorrelationplot</title>
<polygon fill="none" stroke="black" stroke-width="0.5" points="1835,-267.5 1605,-267.5 1605,-246.5 1835,-246.5 1835,-267.5"/>
<text text-anchor="middle" x="1720" y="-254.5" font-family="Vera" font-size="10.00">topo.command.pylabplot.autocorrelationplot</text>
</g>
<!-- topo.command.pylabplot.matrixplot&#45;&gt;topo.command.pylabplot.autocorrelationplot -->
<g id="edge10" class="edge"><title>topo.command.pylabplot.matrixplot&#45;&gt;topo.command.pylabplot.autocorrelationplot</title>
<path fill="none" stroke="black" stroke-width="0.5" d="M1458.18,-203.361C1485.64,-206.124 1515.39,-210.887 1542,-219 1559.3,-224.277 1560.77,-232.493 1578,-238 1587.77,-241.123 1598.08,-243.733 1608.5,-245.914"/>
<polygon fill="black" stroke="black" points="1608.38,-247.674 1613.63,-246.951 1609.07,-244.244 1608.38,-247.674"/>
</g>
<!-- topo.command.pylabplot.gradientplot -->
<g id="node25" class="node"><title>topo.command.pylabplot.gradientplot</title>
<polygon fill="none" stroke="black" stroke-width="0.5" points="1818,-229.5 1622,-229.5 1622,-208.5 1818,-208.5 1818,-229.5"/>
<text text-anchor="middle" x="1720" y="-216.5" font-family="Vera" font-size="10.00">topo.command.pylabplot.gradientplot</text>
</g>
<!-- topo.command.pylabplot.matrixplot&#45;&gt;topo.command.pylabplot.gradientplot -->
<g id="edge20" class="edge"><title>topo.command.pylabplot.matrixplot&#45;&gt;topo.command.pylabplot.gradientplot</title>
<path fill="none" stroke="black" stroke-width="0.5" d="M1458,-205.017C1506.7,-207.616 1566.27,-210.795 1616.3,-213.466"/>
<polygon fill="black" stroke="black" points="1616.34,-215.22 1621.42,-213.739 1616.52,-211.725 1616.34,-215.22"/>
</g>
<!-- topo.command.pylabplot.fftplot -->
<g id="node27" class="node"><title>topo.command.pylabplot.fftplot</title>
<polygon fill="none" stroke="black" stroke-width="0.5" points="1803,-191.5 1637,-191.5 1637,-170.5 1803,-170.5 1803,-191.5"/>
<text text-anchor="middle" x="1720" y="-178.5" font-family="Vera" font-size="10.00">topo.command.pylabplot.fftplot</text>
</g>
<!-- topo.command.pylabplot.matrixplot&#45;&gt;topo.command.pylabplot.fftplot -->
<g id="edge22" class="edge"><title>topo.command.pylabplot.matrixplot&#45;&gt;topo.command.pylabplot.fftplot</title>
<path fill="none" stroke="black" stroke-width="0.5" d="M1458,-194.983C1511.68,-192.118 1578.59,-188.547 1631.36,-185.731"/>
<polygon fill="black" stroke="black" points="1631.52,-187.475 1636.42,-185.461 1631.33,-183.98 1631.52,-187.475"/>
</g>
<!-- topo.command.pylabplot.activityplot -->
<g id="node34" class="node"><title>topo.command.pylabplot.activityplot</title>
<polygon fill="none" stroke="black" stroke-width="0.5" points="1815,-153.5 1625,-153.5 1625,-132.5 1815,-132.5 1815,-153.5"/>
<text text-anchor="middle" x="1720" y="-140.5" font-family="Vera" font-size="10.00">topo.command.pylabplot.activityplot</text>
</g>
<!-- topo.command.pylabplot.matrixplot&#45;&gt;topo.command.pylabplot.activityplot -->
<g id="edge28" class="edge"><title>topo.command.pylabplot.matrixplot&#45;&gt;topo.command.pylabplot.activityplot</title>
<path fill="none" stroke="black" stroke-width="0.5" d="M1458.18,-196.639C1485.64,-193.876 1515.39,-189.113 1542,-181 1559.3,-175.723 1560.77,-167.507 1578,-162 1591.08,-157.819 1605.13,-154.558 1619.11,-152.014"/>
<polygon fill="black" stroke="black" points="1619.64,-153.699 1624.26,-151.109 1619.03,-150.251 1619.64,-153.699"/>
</g>
<!-- param.parameterized.Parameterized -->
<g id="node15" class="node"><title>param.parameterized.Parameterized</title>
<polygon fill="none" stroke="black" stroke-width="0.5" points="194,-229.5 5.68434e-14,-229.5 0,-208.5 194,-208.5 194,-229.5"/>
<text text-anchor="middle" x="97" y="-216.5" font-family="Vera" font-size="10.00">param.parameterized.Parameterized</text>
</g>
<!-- param.parameterized.ParameterizedFunction -->
<g id="node32" class="node"><title>param.parameterized.ParameterizedFunction</title>
<polygon fill="none" stroke="black" stroke-width="0.5" points="464,-229.5 230,-229.5 230,-208.5 464,-208.5 464,-229.5"/>
<text text-anchor="middle" x="347" y="-216.5" font-family="Vera" font-size="10.00">param.parameterized.ParameterizedFunction</text>
</g>
<!-- param.parameterized.Parameterized&#45;&gt;param.parameterized.ParameterizedFunction -->
<g id="edge42" class="edge"><title>param.parameterized.Parameterized&#45;&gt;param.parameterized.ParameterizedFunction</title>
<path fill="none" stroke="black" stroke-width="0.5" d="M194.014,-219C204.04,-219 214.319,-219 224.575,-219"/>
<polygon fill="black" stroke="black" points="224.607,-220.75 229.607,-219 224.607,-217.25 224.607,-220.75"/>
</g>
<!-- topo.command.pylabplot.test_measure -->
<g id="node16" class="node"><title>topo.command.pylabplot.test_measure</title>
<polygon fill="none" stroke="black" stroke-width="0.5" points="2451,-495.5 2245,-495.5 2245,-474.5 2451,-474.5 2451,-495.5"/>
<text text-anchor="middle" x="2348" y="-482.5" font-family="Vera" font-size="10.00">topo.command.pylabplot.test_measure</text>
</g>
<!-- topo.analysis.featureresponses.UnitCurveCommand -->
<g id="node17" class="node"><title>topo.analysis.featureresponses.UnitCurveCommand</title>
<polygon fill="none" stroke="black" stroke-width="0.5" points="2167,-400.5 1901,-400.5 1901,-379.5 2167,-379.5 2167,-400.5"/>
<text text-anchor="middle" x="2034" y="-387.5" font-family="Vera" font-size="10.00">topo.analysis.featureresponses.UnitCurveCommand</text>
</g>
<!-- topo.analysis.featureresponses.UnitCurveCommand&#45;&gt;topo.command.pylabplot.test_measure -->
<g id="edge12" class="edge"><title>topo.analysis.featureresponses.UnitCurveCommand&#45;&gt;topo.command.pylabplot.test_measure</title>
<path fill="none" stroke="black" stroke-width="0.5" d="M2052.44,-400.247C2083.24,-416.878 2147.55,-449.538 2206,-466 2217.31,-469.186 2229.29,-471.843 2241.29,-474.058"/>
<polygon fill="black" stroke="black" points="2241.21,-475.821 2246.44,-474.981 2241.82,-472.376 2241.21,-475.821"/>
</g>
<!-- topo.command.pylabplot.measure_contrast_response -->
<g id="node20" class="node"><title>topo.command.pylabplot.measure_contrast_response</title>
<polygon fill="none" stroke="black" stroke-width="0.5" points="2486,-457.5 2210,-457.5 2210,-436.5 2486,-436.5 2486,-457.5"/>
<text text-anchor="middle" x="2348" y="-444.5" font-family="Vera" font-size="10.00">topo.command.pylabplot.measure_contrast_response</text>
</g>
<!-- topo.analysis.featureresponses.UnitCurveCommand&#45;&gt;topo.command.pylabplot.measure_contrast_response -->
<g id="edge16" class="edge"><title>topo.analysis.featureresponses.UnitCurveCommand&#45;&gt;topo.command.pylabplot.measure_contrast_response</title>
<path fill="none" stroke="black" stroke-width="0.5" d="M2074.81,-400.037C2109.54,-408.331 2160.83,-420.003 2206,-428 2223.13,-431.032 2241.49,-433.825 2259.14,-436.284"/>
<polygon fill="black" stroke="black" points="2258.9,-438.018 2264.1,-436.968 2259.38,-434.551 2258.9,-438.018"/>
</g>
<!-- topo.command.pylabplot.measure_or_tuning -->
<g id="node29" class="node"><title>topo.command.pylabplot.measure_or_tuning</title>
<polygon fill="none" stroke="black" stroke-width="0.5" points="2464,-419.5 2232,-419.5 2232,-398.5 2464,-398.5 2464,-419.5"/>
<text text-anchor="middle" x="2348" y="-406.5" font-family="Vera" font-size="10.00">topo.command.pylabplot.measure_or_tuning</text>
</g>
<!-- topo.analysis.featureresponses.UnitCurveCommand&#45;&gt;topo.command.pylabplot.measure_or_tuning -->
<g id="edge24" class="edge"><title>topo.analysis.featureresponses.UnitCurveCommand&#45;&gt;topo.command.pylabplot.measure_or_tuning</title>
<path fill="none" stroke="black" stroke-width="0.5" d="M2167.62,-398.085C2187,-399.258 2206.86,-400.46 2225.99,-401.617"/>
<polygon fill="black" stroke="black" points="2226.27,-403.387 2231.37,-401.943 2226.48,-399.894 2226.27,-403.387"/>
</g>
<!-- topo.command.pylabplot.measure_frequency_response -->
<g id="node53" class="node"><title>topo.command.pylabplot.measure_frequency_response</title>
<polygon fill="none" stroke="black" stroke-width="0.5" points="2490,-381.5 2206,-381.5 2206,-360.5 2490,-360.5 2490,-381.5"/>
<text text-anchor="middle" x="2348" y="-368.5" font-family="Vera" font-size="10.00">topo.command.pylabplot.measure_frequency_response</text>
</g>
<!-- topo.analysis.featureresponses.UnitCurveCommand&#45;&gt;topo.command.pylabplot.measure_frequency_response -->
<g id="edge50" class="edge"><title>topo.analysis.featureresponses.UnitCurveCommand&#45;&gt;topo.command.pylabplot.measure_frequency_response</title>
<path fill="none" stroke="black" stroke-width="0.5" d="M2167.62,-381.915C2178.62,-381.249 2189.78,-380.574 2200.87,-379.903"/>
<polygon fill="black" stroke="black" points="2201.08,-381.644 2205.96,-379.595 2200.86,-378.15 2201.08,-381.644"/>
</g>
<!-- topo.command.pylabplot.measure_size_response -->
<g id="node55" class="node"><title>topo.command.pylabplot.measure_size_response</title>
<polygon fill="none" stroke="black" stroke-width="0.5" points="2476,-343.5 2220,-343.5 2220,-322.5 2476,-322.5 2476,-343.5"/>
<text text-anchor="middle" x="2348" y="-330.5" font-family="Vera" font-size="10.00">topo.command.pylabplot.measure_size_response</text>
</g>
<!-- topo.analysis.featureresponses.UnitCurveCommand&#45;&gt;topo.command.pylabplot.measure_size_response -->
<g id="edge52" class="edge"><title>topo.analysis.featureresponses.UnitCurveCommand&#45;&gt;topo.command.pylabplot.measure_size_response</title>
<path fill="none" stroke="black" stroke-width="0.5" d="M2134.79,-379.932C2146.8,-377.558 2158.77,-374.625 2170,-371 2187.22,-365.443 2188.77,-357.507 2206,-352 2215.77,-348.877 2226.08,-346.267 2236.5,-344.086"/>
<polygon fill="black" stroke="black" points="2237.07,-345.756 2241.63,-343.049 2236.38,-342.326 2237.07,-345.756"/>
</g>
<!-- topo.command.pylabplot.measure_orientation_contrast -->
<g id="node63" class="node"><title>topo.command.pylabplot.measure_orientation_contrast</title>
<polygon fill="none" stroke="black" stroke-width="0.5" points="2490,-305.5 2206,-305.5 2206,-284.5 2490,-284.5 2490,-305.5"/>
<text text-anchor="middle" x="2348" y="-292.5" font-family="Vera" font-size="10.00">topo.command.pylabplot.measure_orientation_contrast</text>
</g>
<!-- topo.analysis.featureresponses.UnitCurveCommand&#45;&gt;topo.command.pylabplot.measure_orientation_contrast -->
<g id="edge60" class="edge"><title>topo.analysis.featureresponses.UnitCurveCommand&#45;&gt;topo.command.pylabplot.measure_orientation_contrast</title>
<path fill="none" stroke="black" stroke-width="0.5" d="M2152.8,-379.969C2158.81,-377.456 2164.59,-374.491 2170,-371 2195.17,-354.752 2180.78,-330.175 2206,-314 2209.92,-311.486 2214.03,-309.237 2218.27,-307.23"/>
<polygon fill="black" stroke="black" points="2219.08,-308.785 2222.93,-305.145 2217.65,-305.59 2219.08,-308.785"/>
</g>
<!-- topo.command.pylabplot.measure_or_tuning_fullfield -->
<g id="node22" class="node"><title>topo.command.pylabplot.measure_or_tuning_fullfield</title>
<polygon fill="none" stroke="black" stroke-width="0.5" points="2169,-362.5 1899,-362.5 1899,-341.5 2169,-341.5 2169,-362.5"/>
<text text-anchor="middle" x="2034" y="-349.5" font-family="Vera" font-size="10.00">topo.command.pylabplot.measure_or_tuning_fullfield</text>
</g>
<!-- topo.analysis.featureresponses.FeatureCurveCommand -->
<g id="node23" class="node"><title>topo.analysis.featureresponses.FeatureCurveCommand</title>
<polygon fill="none" stroke="black" stroke-width="0.5" points="1862,-381.5 1578,-381.5 1578,-360.5 1862,-360.5 1862,-381.5"/>
<text text-anchor="middle" x="1720" y="-368.5" font-family="Vera" font-size="10.00">topo.analysis.featureresponses.FeatureCurveCommand</text>
</g>
<!-- topo.analysis.featureresponses.FeatureCurveCommand&#45;&gt;topo.analysis.featureresponses.UnitCurveCommand -->
<g id="edge40" class="edge"><title>topo.analysis.featureresponses.FeatureCurveCommand&#45;&gt;topo.analysis.featureresponses.UnitCurveCommand</title>
<path fill="none" stroke="black" stroke-width="0.5" d="M1862.3,-379.611C1873.28,-380.275 1884.35,-380.945 1895.3,-381.607"/>
<polygon fill="black" stroke="black" points="1895.23,-383.356 1900.32,-381.911 1895.44,-379.862 1895.23,-383.356"/>
</g>
<!-- topo.analysis.featureresponses.FeatureCurveCommand&#45;&gt;topo.command.pylabplot.measure_or_tuning_fullfield -->
<g id="edge18" class="edge"><title>topo.analysis.featureresponses.FeatureCurveCommand&#45;&gt;topo.command.pylabplot.measure_or_tuning_fullfield</title>
<path fill="none" stroke="black" stroke-width="0.5" d="M1862.3,-362.389C1872.62,-361.765 1883.02,-361.135 1893.33,-360.512"/>
<polygon fill="black" stroke="black" points="1893.5,-362.255 1898.39,-360.206 1893.29,-358.761 1893.5,-362.255"/>
</g>
<!-- topo.command.Command -->
<g id="node31" class="node"><title>topo.command.Command</title>
<polygon fill="none" stroke="black" stroke-width="0.5" points="724,-229.5 582,-229.5 582,-208.5 724,-208.5 724,-229.5"/>
<text text-anchor="middle" x="653" y="-216.5" font-family="Vera" font-size="10.00">topo.command.Command</text>
</g>
<!-- topo.command.Command&#45;&gt;topo.command.pylabplot.PylabPlotCommand -->
<g id="edge32" class="edge"><title>topo.command.Command&#45;&gt;topo.command.pylabplot.PylabPlotCommand</title>
<path fill="none" stroke="black" stroke-width="0.5" d="M724.904,-211.034C775.913,-205.383 844.91,-197.739 900.531,-191.577"/>
<polygon fill="black" stroke="black" points="900.753,-193.313 905.529,-191.023 900.367,-189.834 900.753,-193.313"/>
</g>
<!-- param.parameterized.ParameterizedFunction&#45;&gt;topo.analysis.featureresponses.PatternPresentingCommand -->
<g id="edge68" class="edge"><title>param.parameterized.ParameterizedFunction&#45;&gt;topo.analysis.featureresponses.PatternPresentingCommand</title>
<path fill="none" stroke="black" stroke-width="0.5" d="M373.887,-229.017C430.202,-249.997 560.332,-298.477 620.905,-321.043"/>
<polygon fill="black" stroke="black" points="620.549,-322.778 625.845,-322.883 621.771,-319.498 620.549,-322.778"/>
</g>
<!-- param.parameterized.ParameterizedFunction&#45;&gt;topo.command.Command -->
<g id="edge26" class="edge"><title>param.parameterized.ParameterizedFunction&#45;&gt;topo.command.Command</title>
<path fill="none" stroke="black" stroke-width="0.5" d="M464.432,-219C501.869,-219 542.312,-219 576.108,-219"/>
<polygon fill="black" stroke="black" points="576.474,-220.75 581.474,-219 576.474,-217.25 576.474,-220.75"/>
</g>
<!-- topo.command.pylabplot.measure_cog -->
<g id="node65" class="node"><title>topo.command.pylabplot.measure_cog</title>
<polygon fill="none" stroke="black" stroke-width="0.5" points="755,-191.5 551,-191.5 551,-170.5 755,-170.5 755,-191.5"/>
<text text-anchor="middle" x="653" y="-178.5" font-family="Vera" font-size="10.00">topo.command.pylabplot.measure_cog</text>
</g>
<!-- param.parameterized.ParameterizedFunction&#45;&gt;topo.command.pylabplot.measure_cog -->
<g id="edge62" class="edge"><title>param.parameterized.ParameterizedFunction&#45;&gt;topo.command.pylabplot.measure_cog</title>
<path fill="none" stroke="black" stroke-width="0.5" d="M427.798,-208.966C470.763,-203.631 523.585,-197.071 567.271,-191.646"/>
<polygon fill="black" stroke="black" points="567.534,-193.377 572.28,-191.024 567.102,-189.904 567.534,-193.377"/>
</g>
<!-- topo.command.pylabplot.overlaid_plots -->
<g id="node68" class="node"><title>topo.command.pylabplot.overlaid_plots</title>
<polygon fill="none" stroke="black" stroke-width="0.5" points="1823,-115.5 1617,-115.5 1617,-94.5 1823,-94.5 1823,-115.5"/>
<text text-anchor="middle" x="1720" y="-102.5" font-family="Vera" font-size="10.00">topo.command.pylabplot.overlaid_plots</text>
</g>
<!-- topo.command.pylabplot.overlaid_plot&#45;&gt;topo.command.pylabplot.overlaid_plots -->
<g id="edge66" class="edge"><title>topo.command.pylabplot.overlaid_plot&#45;&gt;topo.command.pylabplot.overlaid_plots</title>
<path fill="none" stroke="black" stroke-width="0.5" d="M1464.2,-158.005C1489.94,-155.166 1517.33,-150.524 1542,-143 1559.3,-137.723 1560.77,-129.507 1578,-124 1588.78,-120.555 1600.21,-117.734 1611.73,-115.425"/>
<polygon fill="black" stroke="black" points="1612.09,-117.137 1616.67,-114.466 1611.42,-113.701 1612.09,-117.137"/>
</g>
<!-- topo.command.pylabplot.measure_position_pref -->
<g id="node39" class="node"><title>topo.command.pylabplot.measure_position_pref</title>
<polygon fill="none" stroke="black" stroke-width="0.5" points="1844,-419.5 1596,-419.5 1596,-398.5 1844,-398.5 1844,-419.5"/>
<text text-anchor="middle" x="1720" y="-406.5" font-family="Vera" font-size="10.00">topo.command.pylabplot.measure_position_pref</text>
</g>
<!-- topo.analysis.featureresponses.PositionMeasurementCommand&#45;&gt;topo.command.pylabplot.measure_position_pref -->
<g id="edge34" class="edge"><title>topo.analysis.featureresponses.PositionMeasurementCommand&#45;&gt;topo.command.pylabplot.measure_position_pref</title>
<path fill="none" stroke="black" stroke-width="0.5" d="M1526.11,-409C1547.52,-409 1569.23,-409 1590,-409"/>
<polygon fill="black" stroke="black" points="1590.26,-410.75 1595.26,-409 1590.26,-407.25 1590.26,-410.75"/>
</g>
<!-- topo.command.pylabplot.cyclic_tuning_curve -->
<g id="node44" class="node"><title>topo.command.pylabplot.cyclic_tuning_curve</title>
<polygon fill="none" stroke="black" stroke-width="0.5" points="2150,-305.5 1918,-305.5 1918,-284.5 2150,-284.5 2150,-305.5"/>
<text text-anchor="middle" x="2034" y="-292.5" font-family="Vera" font-size="10.00">topo.command.pylabplot.cyclic_tuning_curve</text>
</g>
<!-- topo.command.pylabplot.cyclic_unit_tuning_curve&#45;&gt;topo.command.pylabplot.cyclic_tuning_curve -->
<g id="edge38" class="edge"><title>topo.command.pylabplot.cyclic_unit_tuning_curve&#45;&gt;topo.command.pylabplot.cyclic_tuning_curve</title>
<path fill="none" stroke="black" stroke-width="0.5" d="M1847.72,-295C1869.17,-295 1891.38,-295 1912.67,-295"/>
<polygon fill="black" stroke="black" points="1912.78,-296.75 1917.78,-295 1912.78,-293.25 1912.78,-296.75"/>
</g>
<!-- topo.analysis.featureresponses.SinusoidalMeasureResponseCommand&#45;&gt;topo.analysis.featureresponses.FeatureCurveCommand -->
<g id="edge46" class="edge"><title>topo.analysis.featureresponses.SinusoidalMeasureResponseCommand&#45;&gt;topo.analysis.featureresponses.FeatureCurveCommand</title>
<path fill="none" stroke="black" stroke-width="0.5" d="M1542,-371C1552.21,-371 1562.43,-371 1572.51,-371"/>
<polygon fill="black" stroke="black" points="1572.76,-372.75 1577.76,-371 1572.76,-369.25 1572.76,-372.75"/>
</g>
<!-- topo.command.pylabplot.topographic_grid -->
<g id="node59" class="node"><title>topo.command.pylabplot.topographic_grid</title>
<polygon fill="none" stroke="black" stroke-width="0.5" points="1830,-58.5 1610,-58.5 1610,-37.5 1830,-37.5 1830,-58.5"/>
<text text-anchor="middle" x="1720" y="-45.5" font-family="Vera" font-size="10.00">topo.command.pylabplot.topographic_grid</text>
</g>
<!-- topo.command.pylabplot.xy_grid&#45;&gt;topo.command.pylabplot.topographic_grid -->
<g id="edge56" class="edge"><title>topo.command.pylabplot.xy_grid&#45;&gt;topo.command.pylabplot.topographic_grid</title>
<path fill="none" stroke="black" stroke-width="0.5" d="M1450.63,-48C1496.99,-48 1554.7,-48 1604.8,-48"/>
<polygon fill="black" stroke="black" points="1604.93,-49.7501 1609.93,-48 1604.93,-46.2501 1604.93,-49.7501"/>
</g>
</g>
</svg>
