<?xml version="1.0" encoding="UTF-8" standalone="no"?>
<!DOCTYPE svg PUBLIC "-//W3C//DTD SVG 1.1//EN"
 "http://www.w3.org/Graphics/SVG/1.1/DTD/svg11.dtd">
<!-- Generated by graphviz version 2.26.3 (20100126.1600)
 -->
<!-- Title: inheritancebede3c61fc Pages: 1 -->
<svg width="2498pt" height="522pt"
 viewBox="0.00 0.00 2498.00 522.00" xmlns="http://www.w3.org/2000/svg" xmlns:xlink="http://www.w3.org/1999/xlink">
<g id="graph1" class="graph" transform="scale(1 1) rotate(0) translate(4 518)">
<title>inheritancebede3c61fc</title>
<polygon fill="white" stroke="white" points="-4,5 -4,-518 2495,-518 2495,5 -4,5"/>
<!-- topo.analysis.featureresponses.MeasureResponseCommand -->
<g id="node1" class="node"><title>topo.analysis.featureresponses.MeasureResponseCommand</title>
<polygon fill="none" stroke="black" stroke-width="0.5" points="1149,-419.5 843,-419.5 843,-398.5 1149,-398.5 1149,-419.5"/>
<text text-anchor="middle" x="996" y="-406.5" font-family="Vera" font-size="10.00">topo.analysis.featureresponses.MeasureResponseCommand</text>
</g>
<!-- topo.analysis.featureresponses.PositionMeasurementCommand -->
<g id="node19" class="node"><title>topo.analysis.featureresponses.PositionMeasurementCommand</title>
<polygon fill="none" stroke="black" stroke-width="0.5" points="1526,-457.5 1202,-457.5 1202,-436.5 1526,-436.5 1526,-457.5"/>
<text text-anchor="middle" x="1364" y="-444.5" font-family="Vera" font-size="10.00">topo.analysis.featureresponses.PositionMeasurementCommand</text>
</g>
<!-- topo.analysis.featureresponses.MeasureResponseCommand&#45;&gt;topo.analysis.featureresponses.PositionMeasurementCommand -->
<g id="edge16" class="edge"><title>topo.analysis.featureresponses.MeasureResponseCommand&#45;&gt;topo.analysis.featureresponses.PositionMeasurementCommand</title>
<path fill="none" stroke="black" stroke-width="0.5" d="M1093.17,-419.034C1145.15,-424.402 1209.14,-431.009 1261.86,-436.453"/>
<polygon fill="black" stroke="black" points="1261.77,-438.203 1266.93,-436.976 1262.13,-434.722 1261.77,-438.203"/>
</g>
<!-- topo.analysis.featureresponses.SinusoidalMeasureResponseCommand -->
<g id="node22" class="node"><title>topo.analysis.featureresponses.SinusoidalMeasureResponseCommand</title>
<polygon fill="none" stroke="black" stroke-width="0.5" points="1542,-419.5 1186,-419.5 1186,-398.5 1542,-398.5 1542,-419.5"/>
<text text-anchor="middle" x="1364" y="-406.5" font-family="Vera" font-size="10.00">topo.analysis.featureresponses.SinusoidalMeasureResponseCommand</text>
</g>
<!-- topo.analysis.featureresponses.MeasureResponseCommand&#45;&gt;topo.analysis.featureresponses.SinusoidalMeasureResponseCommand -->
<g id="edge32" class="edge"><title>topo.analysis.featureresponses.MeasureResponseCommand&#45;&gt;topo.analysis.featureresponses.SinusoidalMeasureResponseCommand</title>
<path fill="none" stroke="black" stroke-width="0.5" d="M1149.67,-409C1159.91,-409 1170.29,-409 1180.66,-409"/>
<polygon fill="black" stroke="black" points="1180.75,-410.75 1185.75,-409 1180.75,-407.25 1180.75,-410.75"/>
</g>
<!-- topo.analysis.featureresponses.PatternPresentingCommand -->
<g id="node2" class="node"><title>topo.analysis.featureresponses.PatternPresentingCommand</title>
<polygon fill="none" stroke="black" stroke-width="0.5" points="805,-381.5 501,-381.5 501,-360.5 805,-360.5 805,-381.5"/>
<text text-anchor="middle" x="653" y="-368.5" font-family="Vera" font-size="10.00">topo.analysis.featureresponses.PatternPresentingCommand</text>
</g>
<!-- topo.analysis.featureresponses.PatternPresentingCommand&#45;&gt;topo.analysis.featureresponses.MeasureResponseCommand -->
<g id="edge2" class="edge"><title>topo.analysis.featureresponses.PatternPresentingCommand&#45;&gt;topo.analysis.featureresponses.MeasureResponseCommand</title>
<path fill="none" stroke="black" stroke-width="0.5" d="M743.568,-381.034C791.924,-386.391 851.418,-392.982 900.5,-398.42"/>
<polygon fill="black" stroke="black" points="900.357,-400.165 905.52,-398.976 900.743,-396.686 900.357,-400.165"/>
</g>
<!-- param.parameterized.Parameterized -->
<g id="node4" class="node"><title>param.parameterized.Parameterized</title>
<polygon fill="none" stroke="black" stroke-width="0.5" points="194,-267.5 5.68434e-14,-267.5 0,-246.5 194,-246.5 194,-267.5"/>
<text text-anchor="middle" x="97" y="-254.5" font-family="Vera" font-size="10.00">param.parameterized.Parameterized</text>
</g>
<!-- param.parameterized.ParameterizedFunction -->
<g id="node10" class="node"><title>param.parameterized.ParameterizedFunction</title>
<polygon fill="none" stroke="black" stroke-width="0.5" points="464,-267.5 230,-267.5 230,-246.5 464,-246.5 464,-267.5"/>
<text text-anchor="middle" x="347" y="-254.5" font-family="Vera" font-size="10.00">param.parameterized.ParameterizedFunction</text>
</g>
<!-- param.parameterized.Parameterized&#45;&gt;param.parameterized.ParameterizedFunction -->
<g id="edge8" class="edge"><title>param.parameterized.Parameterized&#45;&gt;param.parameterized.ParameterizedFunction</title>
<path fill="none" stroke="black" stroke-width="0.5" d="M194.014,-257C204.04,-257 214.319,-257 224.575,-257"/>
<polygon fill="black" stroke="black" points="224.607,-258.75 229.607,-257 224.607,-255.25 224.607,-258.75"/>
</g>
<!-- topo.command.pylabplot.measure_size_response -->
<g id="node5" class="node"><title>topo.command.pylabplot.measure_size_response</title>
<polygon fill="none" stroke="black" stroke-width="0.5" points="2476,-514.5 2220,-514.5 2220,-493.5 2476,-493.5 2476,-514.5"/>
<text text-anchor="middle" x="2348" y="-501.5" font-family="Vera" font-size="10.00">topo.command.pylabplot.measure_size_response</text>
</g>
<!-- topo.analysis.featureresponses.UnitCurveCommand -->
<g id="node6" class="node"><title>topo.analysis.featureresponses.UnitCurveCommand</title>
<polygon fill="none" stroke="black" stroke-width="0.5" points="2167,-438.5 1901,-438.5 1901,-417.5 2167,-417.5 2167,-438.5"/>
<text text-anchor="middle" x="2034" y="-425.5" font-family="Vera" font-size="10.00">topo.analysis.featureresponses.UnitCurveCommand</text>
</g>
<!-- topo.analysis.featureresponses.UnitCurveCommand&#45;&gt;topo.command.pylabplot.measure_size_response -->
<g id="edge4" class="edge"><title>topo.analysis.featureresponses.UnitCurveCommand&#45;&gt;topo.command.pylabplot.measure_size_response</title>
<path fill="none" stroke="black" stroke-width="0.5" d="M2059.22,-438.014C2092.37,-450.792 2152.66,-472.707 2206,-485 2219.71,-488.159 2234.29,-490.85 2248.69,-493.124"/>
<polygon fill="black" stroke="black" points="2248.77,-494.909 2253.98,-493.944 2249.31,-491.45 2248.77,-494.909"/>
</g>
<!-- topo.command.pylabplot.measure_orientation_contrast -->
<g id="node8" class="node"><title>topo.command.pylabplot.measure_orientation_contrast</title>
<polygon fill="none" stroke="black" stroke-width="0.5" points="2490,-476.5 2206,-476.5 2206,-455.5 2490,-455.5 2490,-476.5"/>
<text text-anchor="middle" x="2348" y="-463.5" font-family="Vera" font-size="10.00">topo.command.pylabplot.measure_orientation_contrast</text>
</g>
<!-- topo.analysis.featureresponses.UnitCurveCommand&#45;&gt;topo.command.pylabplot.measure_orientation_contrast -->
<g id="edge6" class="edge"><title>topo.analysis.featureresponses.UnitCurveCommand&#45;&gt;topo.command.pylabplot.measure_orientation_contrast</title>
<path fill="none" stroke="black" stroke-width="0.5" d="M2116.91,-438.034C2161,-443.369 2215.2,-449.929 2260.03,-455.354"/>
<polygon fill="black" stroke="black" points="2260,-457.112 2265.17,-455.976 2260.42,-453.638 2260,-457.112"/>
</g>
<!-- topo.command.pylabplot.measure_contrast_response -->
<g id="node17" class="node"><title>topo.command.pylabplot.measure_contrast_response</title>
<polygon fill="none" stroke="black" stroke-width="0.5" points="2486,-438.5 2210,-438.5 2210,-417.5 2486,-417.5 2486,-438.5"/>
<text text-anchor="middle" x="2348" y="-425.5" font-family="Vera" font-size="10.00">topo.command.pylabplot.measure_contrast_response</text>
</g>
<!-- topo.analysis.featureresponses.UnitCurveCommand&#45;&gt;topo.command.pylabplot.measure_contrast_response -->
<g id="edge14" class="edge"><title>topo.analysis.featureresponses.UnitCurveCommand&#45;&gt;topo.command.pylabplot.measure_contrast_response</title>
<path fill="none" stroke="black" stroke-width="0.5" d="M2167.62,-428C2179.74,-428 2192.05,-428 2204.26,-428"/>
<polygon fill="black" stroke="black" points="2204.48,-429.75 2209.48,-428 2204.48,-426.25 2204.48,-429.75"/>
</g>
<!-- topo.command.pylabplot.test_measure -->
<g id="node46" class="node"><title>topo.command.pylabplot.test_measure</title>
<polygon fill="none" stroke="black" stroke-width="0.5" points="2451,-400.5 2245,-400.5 2245,-379.5 2451,-379.5 2451,-400.5"/>
<text text-anchor="middle" x="2348" y="-387.5" font-family="Vera" font-size="10.00">topo.command.pylabplot.test_measure</text>
</g>
<!-- topo.analysis.featureresponses.UnitCurveCommand&#45;&gt;topo.command.pylabplot.test_measure -->
<g id="edge46" class="edge"><title>topo.analysis.featureresponses.UnitCurveCommand&#45;&gt;topo.command.pylabplot.test_measure</title>
<path fill="none" stroke="black" stroke-width="0.5" d="M2116.91,-417.966C2161,-412.631 2215.2,-406.071 2260.03,-400.646"/>
<polygon fill="black" stroke="black" points="2260.42,-402.362 2265.17,-400.024 2260,-398.888 2260.42,-402.362"/>
</g>
<!-- topo.command.pylabplot.measure_or_tuning -->
<g id="node56" class="node"><title>topo.command.pylabplot.measure_or_tuning</title>
<polygon fill="none" stroke="black" stroke-width="0.5" points="2464,-362.5 2232,-362.5 2232,-341.5 2464,-341.5 2464,-362.5"/>
<text text-anchor="middle" x="2348" y="-349.5" font-family="Vera" font-size="10.00">topo.command.pylabplot.measure_or_tuning</text>
</g>
<!-- topo.analysis.featureresponses.UnitCurveCommand&#45;&gt;topo.command.pylabplot.measure_or_tuning -->
<g id="edge56" class="edge"><title>topo.analysis.featureresponses.UnitCurveCommand&#45;&gt;topo.command.pylabplot.measure_or_tuning</title>
<path fill="none" stroke="black" stroke-width="0.5" d="M2148.23,-417.953C2155.78,-415.501 2163.11,-412.548 2170,-409 2190.68,-398.348 2185.29,-381.592 2206,-371 2212.48,-367.688 2219.33,-364.884 2226.38,-362.516"/>
<polygon fill="black" stroke="black" points="2227.07,-364.135 2231.3,-360.946 2226,-360.801 2227.07,-364.135"/>
</g>
<!-- param.parameterized.ParameterizedFunction&#45;&gt;topo.analysis.featureresponses.PatternPresentingCommand -->
<g id="edge36" class="edge"><title>param.parameterized.ParameterizedFunction&#45;&gt;topo.analysis.featureresponses.PatternPresentingCommand</title>
<path fill="none" stroke="black" stroke-width="0.5" d="M373.887,-267.017C430.202,-287.997 560.332,-336.477 620.905,-359.043"/>
<polygon fill="black" stroke="black" points="620.549,-360.778 625.845,-360.883 621.771,-357.498 620.549,-360.778"/>
</g>
<!-- topo.command.Command -->
<g id="node33" class="node"><title>topo.command.Command</title>
<polygon fill="none" stroke="black" stroke-width="0.5" points="724,-267.5 582,-267.5 582,-246.5 724,-246.5 724,-267.5"/>
<text text-anchor="middle" x="653" y="-254.5" font-family="Vera" font-size="10.00">topo.command.Command</text>
</g>
<!-- param.parameterized.ParameterizedFunction&#45;&gt;topo.command.Command -->
<g id="edge30" class="edge"><title>param.parameterized.ParameterizedFunction&#45;&gt;topo.command.Command</title>
<path fill="none" stroke="black" stroke-width="0.5" d="M464.432,-257C501.869,-257 542.312,-257 576.108,-257"/>
<polygon fill="black" stroke="black" points="576.474,-258.75 581.474,-257 576.474,-255.25 576.474,-258.75"/>
</g>
<!-- topo.command.pylabplot.measure_cog -->
<g id="node50" class="node"><title>topo.command.pylabplot.measure_cog</title>
<polygon fill="none" stroke="black" stroke-width="0.5" points="755,-229.5 551,-229.5 551,-208.5 755,-208.5 755,-229.5"/>
<text text-anchor="middle" x="653" y="-216.5" font-family="Vera" font-size="10.00">topo.command.pylabplot.measure_cog</text>
</g>
<!-- param.parameterized.ParameterizedFunction&#45;&gt;topo.command.pylabplot.measure_cog -->
<g id="edge50" class="edge"><title>param.parameterized.ParameterizedFunction&#45;&gt;topo.command.pylabplot.measure_cog</title>
<path fill="none" stroke="black" stroke-width="0.5" d="M427.798,-246.966C470.763,-241.631 523.585,-235.071 567.271,-229.646"/>
<polygon fill="black" stroke="black" points="567.534,-231.377 572.28,-229.024 567.102,-227.904 567.534,-231.377"/>
</g>
<!-- topo.command.pylabplot.matrixplot3d -->
<g id="node12" class="node"><title>topo.command.pylabplot.matrixplot3d</title>
<polygon fill="none" stroke="black" stroke-width="0.5" points="1464,-362.5 1264,-362.5 1264,-341.5 1464,-341.5 1464,-362.5"/>
<text text-anchor="middle" x="1364" y="-349.5" font-family="Vera" font-size="10.00">topo.command.pylabplot.matrixplot3d</text>
</g>
<!-- topo.command.pylabplot.PylabPlotCommand -->
<g id="node13" class="node"><title>topo.command.pylabplot.PylabPlotCommand</title>
<polygon fill="none" stroke="black" stroke-width="0.5" points="1112,-210.5 880,-210.5 880,-189.5 1112,-189.5 1112,-210.5"/>
<text text-anchor="middle" x="996" y="-197.5" font-family="Vera" font-size="10.00">topo.command.pylabplot.PylabPlotCommand</text>
</g>
<!-- topo.command.pylabplot.PylabPlotCommand&#45;&gt;topo.command.pylabplot.matrixplot3d -->
<g id="edge10" class="edge"><title>topo.command.pylabplot.PylabPlotCommand&#45;&gt;topo.command.pylabplot.matrixplot3d</title>
<path fill="none" stroke="black" stroke-width="0.5" d="M1006.41,-210.284C1033.37,-236.173 1108.71,-304.036 1186,-333 1208.69,-341.501 1234.06,-346.587 1258.39,-349.549"/>
<polygon fill="black" stroke="black" points="1258.39,-351.311 1263.56,-350.149 1258.79,-347.834 1258.39,-351.311"/>
</g>
<!-- topo.command.pylabplot.matrixplot -->
<g id="node15" class="node"><title>topo.command.pylabplot.matrixplot</title>
<polygon fill="none" stroke="black" stroke-width="0.5" points="1458,-324.5 1270,-324.5 1270,-303.5 1458,-303.5 1458,-324.5"/>
<text text-anchor="middle" x="1364" y="-311.5" font-family="Vera" font-size="10.00">topo.command.pylabplot.matrixplot</text>
</g>
<!-- topo.command.pylabplot.PylabPlotCommand&#45;&gt;topo.command.pylabplot.matrixplot -->
<g id="edge12" class="edge"><title>topo.command.pylabplot.PylabPlotCommand&#45;&gt;topo.command.pylabplot.matrixplot</title>
<path fill="none" stroke="black" stroke-width="0.5" d="M1011.47,-210.167C1042.87,-230.244 1116.99,-274.781 1186,-295 1211.02,-302.331 1238.77,-306.898 1264.76,-309.725"/>
<polygon fill="black" stroke="black" points="1264.78,-311.486 1269.93,-310.267 1265.14,-308.005 1264.78,-311.486"/>
</g>
<!-- topo.command.pylabplot.tuning_curve -->
<g id="node24" class="node"><title>topo.command.pylabplot.tuning_curve</title>
<polygon fill="none" stroke="black" stroke-width="0.5" points="1464,-286.5 1264,-286.5 1264,-265.5 1464,-265.5 1464,-286.5"/>
<text text-anchor="middle" x="1364" y="-273.5" font-family="Vera" font-size="10.00">topo.command.pylabplot.tuning_curve</text>
</g>
<!-- topo.command.pylabplot.PylabPlotCommand&#45;&gt;topo.command.pylabplot.tuning_curve -->
<g id="edge20" class="edge"><title>topo.command.pylabplot.PylabPlotCommand&#45;&gt;topo.command.pylabplot.tuning_curve</title>
<path fill="none" stroke="black" stroke-width="0.5" d="M1023.6,-210.042C1060.21,-222.955 1127.09,-245.126 1186,-257 1209.18,-261.672 1234.31,-265.246 1258.17,-267.961"/>
<polygon fill="black" stroke="black" points="1258.08,-269.711 1263.25,-268.527 1258.47,-266.233 1258.08,-269.711"/>
</g>
<!-- topo.command.pylabplot.vectorplot -->
<g id="node27" class="node"><title>topo.command.pylabplot.vectorplot</title>
<polygon fill="none" stroke="black" stroke-width="0.5" points="1458,-248.5 1270,-248.5 1270,-227.5 1458,-227.5 1458,-248.5"/>
<text text-anchor="middle" x="1364" y="-235.5" font-family="Vera" font-size="10.00">topo.command.pylabplot.vectorplot</text>
</g>
<!-- topo.command.pylabplot.PylabPlotCommand&#45;&gt;topo.command.pylabplot.vectorplot -->
<g id="edge24" class="edge"><title>topo.command.pylabplot.PylabPlotCommand&#45;&gt;topo.command.pylabplot.vectorplot</title>
<path fill="none" stroke="black" stroke-width="0.5" d="M1093.17,-210.034C1146.08,-215.498 1211.43,-222.245 1264.67,-227.743"/>
<polygon fill="black" stroke="black" points="1264.63,-229.499 1269.79,-228.271 1264.99,-226.017 1264.63,-229.499"/>
</g>
<!-- topo.command.pylabplot.plot_tracked_attributes -->
<g id="node31" class="node"><title>topo.command.pylabplot.plot_tracked_attributes</title>
<polygon fill="none" stroke="black" stroke-width="0.5" points="1489,-210.5 1239,-210.5 1239,-189.5 1489,-189.5 1489,-210.5"/>
<text text-anchor="middle" x="1364" y="-197.5" font-family="Vera" font-size="10.00">topo.command.pylabplot.plot_tracked_attributes</text>
</g>
<!-- topo.command.pylabplot.PylabPlotCommand&#45;&gt;topo.command.pylabplot.plot_tracked_attributes -->
<g id="edge28" class="edge"><title>topo.command.pylabplot.PylabPlotCommand&#45;&gt;topo.command.pylabplot.plot_tracked_attributes</title>
<path fill="none" stroke="black" stroke-width="0.5" d="M1112.69,-200C1150.97,-200 1193.76,-200 1233.02,-200"/>
<polygon fill="black" stroke="black" points="1233.29,-201.75 1238.29,-200 1233.29,-198.25 1233.29,-201.75"/>
</g>
<!-- topo.command.pylabplot.histogramplot -->
<g id="node41" class="node"><title>topo.command.pylabplot.histogramplot</title>
<polygon fill="none" stroke="black" stroke-width="0.5" points="1467,-172.5 1261,-172.5 1261,-151.5 1467,-151.5 1467,-172.5"/>
<text text-anchor="middle" x="1364" y="-159.5" font-family="Vera" font-size="10.00">topo.command.pylabplot.histogramplot</text>
</g>
<!-- topo.command.pylabplot.PylabPlotCommand&#45;&gt;topo.command.pylabplot.histogramplot -->
<g id="edge40" class="edge"><title>topo.command.pylabplot.PylabPlotCommand&#45;&gt;topo.command.pylabplot.histogramplot</title>
<path fill="none" stroke="black" stroke-width="0.5" d="M1093.17,-189.966C1145.15,-184.598 1209.14,-177.991 1261.86,-172.547"/>
<polygon fill="black" stroke="black" points="1262.13,-174.278 1266.93,-172.024 1261.77,-170.797 1262.13,-174.278"/>
</g>
<!-- topo.command.pylabplot.topographic_grid -->
<g id="node43" class="node"><title>topo.command.pylabplot.topographic_grid</title>
<polygon fill="none" stroke="black" stroke-width="0.5" points="1474,-134.5 1254,-134.5 1254,-113.5 1474,-113.5 1474,-134.5"/>
<text text-anchor="middle" x="1364" y="-121.5" font-family="Vera" font-size="10.00">topo.command.pylabplot.topographic_grid</text>
</g>
<!-- topo.command.pylabplot.PylabPlotCommand&#45;&gt;topo.command.pylabplot.topographic_grid -->
<g id="edge42" class="edge"><title>topo.command.pylabplot.PylabPlotCommand&#45;&gt;topo.command.pylabplot.topographic_grid</title>
<path fill="none" stroke="black" stroke-width="0.5" d="M1023.6,-189.958C1060.21,-177.045 1127.09,-154.874 1186,-143 1206.17,-138.935 1227.8,-135.702 1248.8,-133.143"/>
<polygon fill="black" stroke="black" points="1249.09,-134.872 1253.84,-132.54 1248.67,-131.396 1249.09,-134.872"/>
</g>
<!-- topo.command.pylabplot.matrixplot3dx3 -->
<g id="node58" class="node"><title>topo.command.pylabplot.matrixplot3dx3</title>
<polygon fill="none" stroke="black" stroke-width="0.5" points="1470,-96.5 1258,-96.5 1258,-75.5 1470,-75.5 1470,-96.5"/>
<text text-anchor="middle" x="1364" y="-83.5" font-family="Vera" font-size="10.00">topo.command.pylabplot.matrixplot3dx3</text>
</g>
<!-- topo.command.pylabplot.PylabPlotCommand&#45;&gt;topo.command.pylabplot.matrixplot3dx3 -->
<g id="edge58" class="edge"><title>topo.command.pylabplot.PylabPlotCommand&#45;&gt;topo.command.pylabplot.matrixplot3dx3</title>
<path fill="none" stroke="black" stroke-width="0.5" d="M1011.47,-189.833C1042.87,-169.756 1116.99,-125.219 1186,-105 1207.21,-98.7857 1230.38,-94.5577 1252.77,-91.6922"/>
<polygon fill="black" stroke="black" points="1253.09,-93.4161 1257.84,-91.0651 1252.66,-89.9426 1253.09,-93.4161"/>
</g>
<!-- topo.command.pylabplot.overlaid_plots -->
<g id="node62" class="node"><title>topo.command.pylabplot.overlaid_plots</title>
<polygon fill="none" stroke="black" stroke-width="0.5" points="1467,-58.5 1261,-58.5 1261,-37.5 1467,-37.5 1467,-58.5"/>
<text text-anchor="middle" x="1364" y="-45.5" font-family="Vera" font-size="10.00">topo.command.pylabplot.overlaid_plots</text>
</g>
<!-- topo.command.pylabplot.PylabPlotCommand&#45;&gt;topo.command.pylabplot.overlaid_plots -->
<g id="edge62" class="edge"><title>topo.command.pylabplot.PylabPlotCommand&#45;&gt;topo.command.pylabplot.overlaid_plots</title>
<path fill="none" stroke="black" stroke-width="0.5" d="M1006.41,-189.716C1033.37,-163.827 1108.71,-95.9642 1186,-67 1207.87,-58.8041 1232.24,-53.7829 1255.76,-50.7787"/>
<polygon fill="black" stroke="black" points="1256.01,-52.5109 1260.76,-50.1678 1255.59,-49.0367 1256.01,-52.5109"/>
</g>
<!-- topo.command.pylabplot.plot_modulation_ratio -->
<g id="node64" class="node"><title>topo.command.pylabplot.plot_modulation_ratio</title>
<polygon fill="none" stroke="black" stroke-width="0.5" points="1486,-20.5 1242,-20.5 1242,0.5 1486,0.5 1486,-20.5"/>
<text text-anchor="middle" x="1364" y="-7.5" font-family="Vera" font-size="10.00">topo.command.pylabplot.plot_modulation_ratio</text>
</g>
<!-- topo.command.pylabplot.PylabPlotCommand&#45;&gt;topo.command.pylabplot.plot_modulation_ratio -->
<g id="edge64" class="edge"><title>topo.command.pylabplot.PylabPlotCommand&#45;&gt;topo.command.pylabplot.plot_modulation_ratio</title>
<path fill="none" stroke="black" stroke-width="0.5" d="M1003.29,-189.979C1026.16,-159.445 1100.08,-67.3266 1186,-29 1201.83,-21.9408 1219.2,-17.0553 1236.7,-13.7315"/>
<polygon fill="black" stroke="black" points="1237.03,-15.4501 1241.64,-12.8349 1236.41,-12.0064 1237.03,-15.4501"/>
</g>
<!-- topo.command.pylabplot.gradientplot -->
<g id="node36" class="node"><title>topo.command.pylabplot.gradientplot</title>
<polygon fill="none" stroke="black" stroke-width="0.5" points="1818,-381.5 1622,-381.5 1622,-360.5 1818,-360.5 1818,-381.5"/>
<text text-anchor="middle" x="1720" y="-368.5" font-family="Vera" font-size="10.00">topo.command.pylabplot.gradientplot</text>
</g>
<!-- topo.command.pylabplot.matrixplot&#45;&gt;topo.command.pylabplot.gradientplot -->
<g id="edge34" class="edge"><title>topo.command.pylabplot.matrixplot&#45;&gt;topo.command.pylabplot.gradientplot</title>
<path fill="none" stroke="black" stroke-width="0.5" d="M1458.18,-317.361C1485.64,-320.124 1515.39,-324.887 1542,-333 1559.3,-338.277 1560.77,-346.493 1578,-352 1590.13,-355.877 1603.09,-358.963 1616.06,-361.419"/>
<polygon fill="black" stroke="black" points="1615.99,-363.186 1621.22,-362.365 1616.62,-359.743 1615.99,-363.186"/>
</g>
<!-- topo.command.pylabplot.autocorrelationplot -->
<g id="node39" class="node"><title>topo.command.pylabplot.autocorrelationplot</title>
<polygon fill="none" stroke="black" stroke-width="0.5" points="1835,-343.5 1605,-343.5 1605,-322.5 1835,-322.5 1835,-343.5"/>
<text text-anchor="middle" x="1720" y="-330.5" font-family="Vera" font-size="10.00">topo.command.pylabplot.autocorrelationplot</text>
</g>
<!-- topo.command.pylabplot.matrixplot&#45;&gt;topo.command.pylabplot.autocorrelationplot -->
<g id="edge38" class="edge"><title>topo.command.pylabplot.matrixplot&#45;&gt;topo.command.pylabplot.autocorrelationplot</title>
<path fill="none" stroke="black" stroke-width="0.5" d="M1458,-319.017C1501.43,-321.335 1553.51,-324.115 1599.76,-326.583"/>
<polygon fill="black" stroke="black" points="1599.71,-328.332 1604.79,-326.851 1599.9,-324.837 1599.71,-328.332"/>
</g>
<!-- topo.command.pylabplot.fftplot -->
<g id="node48" class="node"><title>topo.command.pylabplot.fftplot</title>
<polygon fill="none" stroke="black" stroke-width="0.5" points="1803,-305.5 1637,-305.5 1637,-284.5 1803,-284.5 1803,-305.5"/>
<text text-anchor="middle" x="1720" y="-292.5" font-family="Vera" font-size="10.00">topo.command.pylabplot.fftplot</text>
</g>
<!-- topo.command.pylabplot.matrixplot&#45;&gt;topo.command.pylabplot.fftplot -->
<g id="edge48" class="edge"><title>topo.command.pylabplot.matrixplot&#45;&gt;topo.command.pylabplot.fftplot</title>
<path fill="none" stroke="black" stroke-width="0.5" d="M1458,-308.983C1511.68,-306.118 1578.59,-302.547 1631.36,-299.731"/>
<polygon fill="black" stroke="black" points="1631.52,-301.475 1636.42,-299.461 1631.33,-297.98 1631.52,-301.475"/>
</g>
<!-- topo.command.pylabplot.activityplot -->
<g id="node60" class="node"><title>topo.command.pylabplot.activityplot</title>
<polygon fill="none" stroke="black" stroke-width="0.5" points="1815,-267.5 1625,-267.5 1625,-246.5 1815,-246.5 1815,-267.5"/>
<text text-anchor="middle" x="1720" y="-254.5" font-family="Vera" font-size="10.00">topo.command.pylabplot.activityplot</text>
</g>
<!-- topo.command.pylabplot.matrixplot&#45;&gt;topo.command.pylabplot.activityplot -->
<g id="edge60" class="edge"><title>topo.command.pylabplot.matrixplot&#45;&gt;topo.command.pylabplot.activityplot</title>
<path fill="none" stroke="black" stroke-width="0.5" d="M1458.18,-310.639C1485.64,-307.876 1515.39,-303.113 1542,-295 1559.3,-289.723 1560.77,-281.507 1578,-276 1591.08,-271.819 1605.13,-268.558 1619.11,-266.014"/>
<polygon fill="black" stroke="black" points="1619.64,-267.699 1624.26,-265.109 1619.03,-264.251 1619.64,-267.699"/>
</g>
<!-- topo.command.pylabplot.measure_position_pref -->
<g id="node52" class="node"><title>topo.command.pylabplot.measure_position_pref</title>
<polygon fill="none" stroke="black" stroke-width="0.5" points="1844,-457.5 1596,-457.5 1596,-436.5 1844,-436.5 1844,-457.5"/>
<text text-anchor="middle" x="1720" y="-444.5" font-family="Vera" font-size="10.00">topo.command.pylabplot.measure_position_pref</text>
</g>
<!-- topo.analysis.featureresponses.PositionMeasurementCommand&#45;&gt;topo.command.pylabplot.measure_position_pref -->
<g id="edge52" class="edge"><title>topo.analysis.featureresponses.PositionMeasurementCommand&#45;&gt;topo.command.pylabplot.measure_position_pref</title>
<path fill="none" stroke="black" stroke-width="0.5" d="M1526.11,-447C1547.52,-447 1569.23,-447 1590,-447"/>
<polygon fill="black" stroke="black" points="1590.26,-448.75 1595.26,-447 1590.26,-445.25 1590.26,-448.75"/>
</g>
<!-- topo.analysis.featureresponses.FeatureCurveCommand -->
<g id="node21" class="node"><title>topo.analysis.featureresponses.FeatureCurveCommand</title>
<polygon fill="none" stroke="black" stroke-width="0.5" points="1862,-419.5 1578,-419.5 1578,-398.5 1862,-398.5 1862,-419.5"/>
<text text-anchor="middle" x="1720" y="-406.5" font-family="Vera" font-size="10.00">topo.analysis.featureresponses.FeatureCurveCommand</text>
</g>
<!-- topo.analysis.featureresponses.FeatureCurveCommand&#45;&gt;topo.analysis.featureresponses.UnitCurveCommand -->
<g id="edge22" class="edge"><title>topo.analysis.featureresponses.FeatureCurveCommand&#45;&gt;topo.analysis.featureresponses.UnitCurveCommand</title>
<path fill="none" stroke="black" stroke-width="0.5" d="M1862.3,-417.611C1873.28,-418.275 1884.35,-418.945 1895.3,-419.607"/>
<polygon fill="black" stroke="black" points="1895.23,-421.356 1900.32,-419.911 1895.44,-417.862 1895.23,-421.356"/>
</g>
<!-- topo.command.pylabplot.measure_or_tuning_fullfield -->
<g id="node29" class="node"><title>topo.command.pylabplot.measure_or_tuning_fullfield</title>
<polygon fill="none" stroke="black" stroke-width="0.5" points="2169,-400.5 1899,-400.5 1899,-379.5 2169,-379.5 2169,-400.5"/>
<text text-anchor="middle" x="2034" y="-387.5" font-family="Vera" font-size="10.00">topo.command.pylabplot.measure_or_tuning_fullfield</text>
</g>
<!-- topo.analysis.featureresponses.FeatureCurveCommand&#45;&gt;topo.command.pylabplot.measure_or_tuning_fullfield -->
<g id="edge26" class="edge"><title>topo.analysis.featureresponses.FeatureCurveCommand&#45;&gt;topo.command.pylabplot.measure_or_tuning_fullfield</title>
<path fill="none" stroke="black" stroke-width="0.5" d="M1862.3,-400.389C1872.62,-399.765 1883.02,-399.135 1893.33,-398.512"/>
<polygon fill="black" stroke="black" points="1893.5,-400.255 1898.39,-398.206 1893.29,-396.761 1893.5,-400.255"/>
</g>
<!-- topo.analysis.featureresponses.SinusoidalMeasureResponseCommand&#45;&gt;topo.analysis.featureresponses.FeatureCurveCommand -->
<g id="edge18" class="edge"><title>topo.analysis.featureresponses.SinusoidalMeasureResponseCommand&#45;&gt;topo.analysis.featureresponses.FeatureCurveCommand</title>
<path fill="none" stroke="black" stroke-width="0.5" d="M1542,-409C1552.21,-409 1562.43,-409 1572.51,-409"/>
<polygon fill="black" stroke="black" points="1572.76,-410.75 1577.76,-409 1572.76,-407.25 1572.76,-410.75"/>
</g>
<!-- topo.command.pylabplot.cyclic_tuning_curve -->
<g id="node54" class="node"><title>topo.command.pylabplot.cyclic_tuning_curve</title>
<polygon fill="none" stroke="black" stroke-width="0.5" points="1836,-229.5 1604,-229.5 1604,-208.5 1836,-208.5 1836,-229.5"/>
<text text-anchor="middle" x="1720" y="-216.5" font-family="Vera" font-size="10.00">topo.command.pylabplot.cyclic_tuning_curve</text>
</g>
<!-- topo.command.pylabplot.tuning_curve&#45;&gt;topo.command.pylabplot.cyclic_tuning_curve -->
<g id="edge54" class="edge"><title>topo.command.pylabplot.tuning_curve&#45;&gt;topo.command.pylabplot.cyclic_tuning_curve</title>
<path fill="none" stroke="black" stroke-width="0.5" d="M1464.66,-271.953C1490.27,-269.11 1517.48,-264.479 1542,-257 1559.3,-251.723 1560.77,-243.507 1578,-238 1587.77,-234.877 1598.08,-232.267 1608.5,-230.086"/>
<polygon fill="black" stroke="black" points="1609.07,-231.756 1613.63,-229.049 1608.38,-228.326 1609.07,-231.756"/>
</g>
<!-- topo.command.Command&#45;&gt;topo.command.pylabplot.PylabPlotCommand -->
<g id="edge44" class="edge"><title>topo.command.Command&#45;&gt;topo.command.pylabplot.PylabPlotCommand</title>
<path fill="none" stroke="black" stroke-width="0.5" d="M724.766,-249.197C750.451,-246.112 779.577,-242.277 806,-238 853.67,-230.284 907.623,-219.272 945.823,-211.088"/>
<polygon fill="black" stroke="black" points="946.35,-212.764 950.871,-210.003 945.615,-209.342 946.35,-212.764"/>
</g>
</g>
</svg>
