<?xml version="1.0" encoding="UTF-8" standalone="no"?>
<!DOCTYPE svg PUBLIC "-//W3C//DTD SVG 1.1//EN"
 "http://www.w3.org/Graphics/SVG/1.1/DTD/svg11.dtd">
<!-- Generated by graphviz version 2.26.3 (20100126.1600)
 -->
<!-- Title: inheritance0f827376bc Pages: 1 -->
<svg width="2252pt" height="313pt"
 viewBox="0.00 0.00 2252.00 313.00" xmlns="http://www.w3.org/2000/svg" xmlns:xlink="http://www.w3.org/1999/xlink">
<g id="graph1" class="graph" transform="scale(1 1) rotate(0) translate(4 309)">
<title>inheritance0f827376bc</title>
<polygon fill="white" stroke="white" points="-4,5 -4,-309 2249,-309 2249,5 -4,5"/>
<!-- topo.analysis.featureresponses.FeatureResponses -->
<g id="node1" class="node"><title>topo.analysis.featureresponses.FeatureResponses</title>
<polygon fill="none" stroke="black" stroke-width="0.5" points="1202,-248.5 946,-248.5 946,-227.5 1202,-227.5 1202,-248.5"/>
<text text-anchor="middle" x="1074" y="-235.5" font-family="Vera" font-size="10.00">topo.analysis.featureresponses.FeatureResponses</text>
</g>
<!-- topo.analysis.featureresponses.ReverseCorrelation -->
<g id="node4" class="node"><title>topo.analysis.featureresponses.ReverseCorrelation</title>
<polygon fill="none" stroke="black" stroke-width="0.5" points="1572,-305.5 1312,-305.5 1312,-284.5 1572,-284.5 1572,-305.5"/>
<text text-anchor="middle" x="1442" y="-292.5" font-family="Vera" font-size="10.00">topo.analysis.featureresponses.ReverseCorrelation</text>
</g>
<!-- topo.analysis.featureresponses.FeatureResponses&#45;&gt;topo.analysis.featureresponses.ReverseCorrelation -->
<g id="edge4" class="edge"><title>topo.analysis.featureresponses.FeatureResponses&#45;&gt;topo.analysis.featureresponses.ReverseCorrelation</title>
<path fill="none" stroke="black" stroke-width="0.5" d="M1118.33,-248.056C1156.71,-256.475 1213.79,-268.315 1264,-276 1284.62,-279.156 1306.66,-281.963 1327.97,-284.387"/>
<polygon fill="black" stroke="black" points="1327.91,-286.142 1333.07,-284.963 1328.3,-282.664 1327.91,-286.142"/>
</g>
<!-- topo.analysis.featureresponses.FeatureMaps -->
<g id="node17" class="node"><title>topo.analysis.featureresponses.FeatureMaps</title>
<polygon fill="none" stroke="black" stroke-width="0.5" points="1557,-267.5 1327,-267.5 1327,-246.5 1557,-246.5 1557,-267.5"/>
<text text-anchor="middle" x="1442" y="-254.5" font-family="Vera" font-size="10.00">topo.analysis.featureresponses.FeatureMaps</text>
</g>
<!-- topo.analysis.featureresponses.FeatureResponses&#45;&gt;topo.analysis.featureresponses.FeatureMaps -->
<g id="edge14" class="edge"><title>topo.analysis.featureresponses.FeatureResponses&#45;&gt;topo.analysis.featureresponses.FeatureMaps</title>
<path fill="none" stroke="black" stroke-width="0.5" d="M1202.71,-244.645C1241.19,-246.632 1283.23,-248.803 1321.19,-250.762"/>
<polygon fill="black" stroke="black" points="1321.19,-252.515 1326.27,-251.025 1321.37,-249.019 1321.19,-252.515"/>
</g>
<!-- topo.analysis.featureresponses.FeatureCurves -->
<g id="node38" class="node"><title>topo.analysis.featureresponses.FeatureCurves</title>
<polygon fill="none" stroke="black" stroke-width="0.5" points="1561,-229.5 1323,-229.5 1323,-208.5 1561,-208.5 1561,-229.5"/>
<text text-anchor="middle" x="1442" y="-216.5" font-family="Vera" font-size="10.00">topo.analysis.featureresponses.FeatureCurves</text>
</g>
<!-- topo.analysis.featureresponses.FeatureResponses&#45;&gt;topo.analysis.featureresponses.FeatureCurves -->
<g id="edge38" class="edge"><title>topo.analysis.featureresponses.FeatureResponses&#45;&gt;topo.analysis.featureresponses.FeatureCurves</title>
<path fill="none" stroke="black" stroke-width="0.5" d="M1202.71,-231.355C1239.75,-229.442 1280.09,-227.36 1316.9,-225.459"/>
<polygon fill="black" stroke="black" points="1317.41,-227.185 1322.31,-225.18 1317.23,-223.69 1317.41,-227.185"/>
</g>
<!-- topo.base.functionfamily.PatternDrivenAnalysis -->
<g id="node2" class="node"><title>topo.base.functionfamily.PatternDrivenAnalysis</title>
<polygon fill="none" stroke="black" stroke-width="0.5" points="851,-248.5 611,-248.5 611,-227.5 851,-227.5 851,-248.5"/>
<text text-anchor="middle" x="731" y="-235.5" font-family="Vera" font-size="10.00">topo.base.functionfamily.PatternDrivenAnalysis</text>
</g>
<!-- topo.base.functionfamily.PatternDrivenAnalysis&#45;&gt;topo.analysis.featureresponses.FeatureResponses -->
<g id="edge2" class="edge"><title>topo.base.functionfamily.PatternDrivenAnalysis&#45;&gt;topo.analysis.featureresponses.FeatureResponses</title>
<path fill="none" stroke="black" stroke-width="0.5" d="M851.447,-238C880.186,-238 911.031,-238 940.326,-238"/>
<polygon fill="black" stroke="black" points="940.394,-239.75 945.394,-238 940.394,-236.25 940.394,-239.75"/>
</g>
<!-- topo.analysis.featureresponses.Subplotting -->
<g id="node6" class="node"><title>topo.analysis.featureresponses.Subplotting</title>
<polygon fill="none" stroke="black" stroke-width="0.5" points="498,-210.5 274,-210.5 274,-189.5 498,-189.5 498,-210.5"/>
<text text-anchor="middle" x="386" y="-197.5" font-family="Vera" font-size="10.00">topo.analysis.featureresponses.Subplotting</text>
</g>
<!-- param.parameterized.Parameterized -->
<g id="node7" class="node"><title>param.parameterized.Parameterized</title>
<polygon fill="none" stroke="black" stroke-width="0.5" points="194,-115.5 5.68434e-14,-115.5 0,-94.5 194,-94.5 194,-115.5"/>
<text text-anchor="middle" x="97" y="-102.5" font-family="Vera" font-size="10.00">param.parameterized.Parameterized</text>
</g>
<!-- param.parameterized.Parameterized&#45;&gt;topo.analysis.featureresponses.Subplotting -->
<g id="edge6" class="edge"><title>param.parameterized.Parameterized&#45;&gt;topo.analysis.featureresponses.Subplotting</title>
<path fill="none" stroke="black" stroke-width="0.5" d="M110.49,-115.176C133.587,-132.01 182.796,-165.348 230,-181 242.231,-185.056 255.259,-188.262 268.374,-190.793"/>
<polygon fill="black" stroke="black" points="268.363,-192.571 273.599,-191.766 269.004,-189.13 268.363,-192.571"/>
</g>
<!-- param.parameterized.ParameterizedFunction -->
<g id="node15" class="node"><title>param.parameterized.ParameterizedFunction</title>
<polygon fill="none" stroke="black" stroke-width="0.5" points="503,-172.5 269,-172.5 269,-151.5 503,-151.5 503,-172.5"/>
<text text-anchor="middle" x="386" y="-159.5" font-family="Vera" font-size="10.00">param.parameterized.ParameterizedFunction</text>
</g>
<!-- param.parameterized.Parameterized&#45;&gt;param.parameterized.ParameterizedFunction -->
<g id="edge12" class="edge"><title>param.parameterized.Parameterized&#45;&gt;param.parameterized.ParameterizedFunction</title>
<path fill="none" stroke="black" stroke-width="0.5" d="M127.039,-115.048C153.78,-123.64 194.106,-135.733 230,-143 245.873,-146.214 262.773,-148.958 279.369,-151.279"/>
<polygon fill="black" stroke="black" points="279.317,-153.038 284.508,-151.986 279.793,-149.571 279.317,-153.038"/>
</g>
<!-- topo.analysis.featureresponses.FullMatrix -->
<g id="node26" class="node"><title>topo.analysis.featureresponses.FullMatrix</title>
<polygon fill="none" stroke="black" stroke-width="0.5" points="493,-134.5 279,-134.5 279,-113.5 493,-113.5 493,-134.5"/>
<text text-anchor="middle" x="386" y="-121.5" font-family="Vera" font-size="10.00">topo.analysis.featureresponses.FullMatrix</text>
</g>
<!-- param.parameterized.Parameterized&#45;&gt;topo.analysis.featureresponses.FullMatrix -->
<g id="edge26" class="edge"><title>param.parameterized.Parameterized&#45;&gt;topo.analysis.featureresponses.FullMatrix</title>
<path fill="none" stroke="black" stroke-width="0.5" d="M194.037,-111.38C219.556,-113.057 247.297,-114.881 273.552,-116.607"/>
<polygon fill="black" stroke="black" points="273.678,-118.369 278.782,-116.951 273.907,-114.877 273.678,-118.369"/>
</g>
<!-- topo.analysis.featureresponses.CoordinatedPatternGenerator -->
<g id="node28" class="node"><title>topo.analysis.featureresponses.CoordinatedPatternGenerator</title>
<polygon fill="none" stroke="black" stroke-width="0.5" points="541,-96.5 231,-96.5 231,-75.5 541,-75.5 541,-96.5"/>
<text text-anchor="middle" x="386" y="-83.5" font-family="Vera" font-size="10.00">topo.analysis.featureresponses.CoordinatedPatternGenerator</text>
</g>
<!-- param.parameterized.Parameterized&#45;&gt;topo.analysis.featureresponses.CoordinatedPatternGenerator -->
<g id="edge28" class="edge"><title>param.parameterized.Parameterized&#45;&gt;topo.analysis.featureresponses.CoordinatedPatternGenerator</title>
<path fill="none" stroke="black" stroke-width="0.5" d="M194.037,-98.6204C205.3,-97.8799 216.996,-97.111 228.806,-96.3345"/>
<polygon fill="black" stroke="black" points="229,-98.0757 233.874,-96.0014 228.77,-94.5832 229,-98.0757"/>
</g>
<!-- topo.analysis.featureresponses.Feature -->
<g id="node30" class="node"><title>topo.analysis.featureresponses.Feature</title>
<polygon fill="none" stroke="black" stroke-width="0.5" points="489,-58.5 283,-58.5 283,-37.5 489,-37.5 489,-58.5"/>
<text text-anchor="middle" x="386" y="-45.5" font-family="Vera" font-size="10.00">topo.analysis.featureresponses.Feature</text>
</g>
<!-- param.parameterized.Parameterized&#45;&gt;topo.analysis.featureresponses.Feature -->
<g id="edge30" class="edge"><title>param.parameterized.Parameterized&#45;&gt;topo.analysis.featureresponses.Feature</title>
<path fill="none" stroke="black" stroke-width="0.5" d="M127.039,-94.9518C153.78,-86.3605 194.106,-74.2666 230,-67 245.873,-63.7865 262.773,-61.0417 279.369,-58.721"/>
<polygon fill="black" stroke="black" points="279.793,-60.4292 284.508,-58.0144 279.317,-56.9618 279.793,-60.4292"/>
</g>
<!-- topo.analysis.featureresponses.DistributionMatrix -->
<g id="node34" class="node"><title>topo.analysis.featureresponses.DistributionMatrix</title>
<polygon fill="none" stroke="black" stroke-width="0.5" points="513,-20.5 259,-20.5 259,0.5 513,0.5 513,-20.5"/>
<text text-anchor="middle" x="386" y="-7.5" font-family="Vera" font-size="10.00">topo.analysis.featureresponses.DistributionMatrix</text>
</g>
<!-- param.parameterized.Parameterized&#45;&gt;topo.analysis.featureresponses.DistributionMatrix -->
<g id="edge34" class="edge"><title>param.parameterized.Parameterized&#45;&gt;topo.analysis.featureresponses.DistributionMatrix</title>
<path fill="none" stroke="black" stroke-width="0.5" d="M110.49,-94.8239C133.587,-77.9898 182.796,-44.6519 230,-29 239.347,-25.9007 249.16,-23.2976 259.12,-21.1124"/>
<polygon fill="black" stroke="black" points="259.493,-22.8225 264.021,-20.073 258.766,-19.3987 259.493,-22.8225"/>
</g>
<!-- topo.analysis.featureresponses.UnitCurveCommand -->
<g id="node9" class="node"><title>topo.analysis.featureresponses.UnitCurveCommand</title>
<polygon fill="none" stroke="black" stroke-width="0.5" points="2243,-153.5 1977,-153.5 1977,-132.5 2243,-132.5 2243,-153.5"/>
<text text-anchor="middle" x="2110" y="-140.5" font-family="Vera" font-size="10.00">topo.analysis.featureresponses.UnitCurveCommand</text>
</g>
<!-- topo.analysis.featureresponses.FeatureCurveCommand -->
<g id="node10" class="node"><title>topo.analysis.featureresponses.FeatureCurveCommand</title>
<polygon fill="none" stroke="black" stroke-width="0.5" points="1940,-153.5 1656,-153.5 1656,-132.5 1940,-132.5 1940,-153.5"/>
<text text-anchor="middle" x="1798" y="-140.5" font-family="Vera" font-size="10.00">topo.analysis.featureresponses.FeatureCurveCommand</text>
</g>
<!-- topo.analysis.featureresponses.FeatureCurveCommand&#45;&gt;topo.analysis.featureresponses.UnitCurveCommand -->
<g id="edge8" class="edge"><title>topo.analysis.featureresponses.FeatureCurveCommand&#45;&gt;topo.analysis.featureresponses.UnitCurveCommand</title>
<path fill="none" stroke="black" stroke-width="0.5" d="M1940.3,-143C1950.43,-143 1960.64,-143 1970.75,-143"/>
<polygon fill="black" stroke="black" points="1971.03,-144.75 1976.03,-143 1971.03,-141.25 1971.03,-144.75"/>
</g>
<!-- topo.analysis.featureresponses.PositionMeasurementCommand -->
<g id="node12" class="node"><title>topo.analysis.featureresponses.PositionMeasurementCommand</title>
<polygon fill="none" stroke="black" stroke-width="0.5" points="1604,-191.5 1280,-191.5 1280,-170.5 1604,-170.5 1604,-191.5"/>
<text text-anchor="middle" x="1442" y="-178.5" font-family="Vera" font-size="10.00">topo.analysis.featureresponses.PositionMeasurementCommand</text>
</g>
<!-- topo.analysis.featureresponses.MeasureResponseCommand -->
<g id="node13" class="node"><title>topo.analysis.featureresponses.MeasureResponseCommand</title>
<polygon fill="none" stroke="black" stroke-width="0.5" points="1227,-172.5 921,-172.5 921,-151.5 1227,-151.5 1227,-172.5"/>
<text text-anchor="middle" x="1074" y="-159.5" font-family="Vera" font-size="10.00">topo.analysis.featureresponses.MeasureResponseCommand</text>
</g>
<!-- topo.analysis.featureresponses.MeasureResponseCommand&#45;&gt;topo.analysis.featureresponses.PositionMeasurementCommand -->
<g id="edge10" class="edge"><title>topo.analysis.featureresponses.MeasureResponseCommand&#45;&gt;topo.analysis.featureresponses.PositionMeasurementCommand</title>
<path fill="none" stroke="black" stroke-width="0.5" d="M1227.67,-169.934C1243.16,-170.734 1258.95,-171.549 1274.58,-172.356"/>
<polygon fill="black" stroke="black" points="1274.79,-174.119 1279.87,-172.629 1274.97,-170.624 1274.79,-174.119"/>
</g>
<!-- topo.analysis.featureresponses.SinusoidalMeasureResponseCommand -->
<g id="node20" class="node"><title>topo.analysis.featureresponses.SinusoidalMeasureResponseCommand</title>
<polygon fill="none" stroke="black" stroke-width="0.5" points="1620,-153.5 1264,-153.5 1264,-132.5 1620,-132.5 1620,-153.5"/>
<text text-anchor="middle" x="1442" y="-140.5" font-family="Vera" font-size="10.00">topo.analysis.featureresponses.SinusoidalMeasureResponseCommand</text>
</g>
<!-- topo.analysis.featureresponses.MeasureResponseCommand&#45;&gt;topo.analysis.featureresponses.SinusoidalMeasureResponseCommand -->
<g id="edge18" class="edge"><title>topo.analysis.featureresponses.MeasureResponseCommand&#45;&gt;topo.analysis.featureresponses.SinusoidalMeasureResponseCommand</title>
<path fill="none" stroke="black" stroke-width="0.5" d="M1227.67,-154.066C1237.91,-153.537 1248.29,-153.001 1258.66,-152.466"/>
<polygon fill="black" stroke="black" points="1258.85,-154.208 1263.75,-152.203 1258.67,-150.713 1258.85,-154.208"/>
</g>
<!-- topo.analysis.featureresponses.SingleInputResponseCommand -->
<g id="node40" class="node"><title>topo.analysis.featureresponses.SingleInputResponseCommand</title>
<polygon fill="none" stroke="black" stroke-width="0.5" points="1601,-115.5 1283,-115.5 1283,-94.5 1601,-94.5 1601,-115.5"/>
<text text-anchor="middle" x="1442" y="-102.5" font-family="Vera" font-size="10.00">topo.analysis.featureresponses.SingleInputResponseCommand</text>
</g>
<!-- topo.analysis.featureresponses.MeasureResponseCommand&#45;&gt;topo.analysis.featureresponses.SingleInputResponseCommand -->
<g id="edge40" class="edge"><title>topo.analysis.featureresponses.MeasureResponseCommand&#45;&gt;topo.analysis.featureresponses.SingleInputResponseCommand</title>
<path fill="none" stroke="black" stroke-width="0.5" d="M1191.83,-151.955C1204.18,-149.572 1216.43,-146.631 1228,-143 1245.26,-137.581 1246.7,-129.277 1264,-124 1274.31,-120.856 1285.1,-118.215 1296.04,-115.998"/>
<polygon fill="black" stroke="black" points="1296.51,-117.69 1301.07,-115.009 1295.83,-114.255 1296.51,-117.69"/>
</g>
<!-- param.parameterized.ParameterizedFunction&#45;&gt;topo.base.functionfamily.PatternDrivenAnalysis -->
<g id="edge16" class="edge"><title>param.parameterized.ParameterizedFunction&#45;&gt;topo.base.functionfamily.PatternDrivenAnalysis</title>
<path fill="none" stroke="black" stroke-width="0.5" d="M489.206,-172.031C506.903,-174.475 525.045,-177.438 542,-181 597.852,-192.733 661.014,-213.32 698.343,-226.278"/>
<polygon fill="black" stroke="black" points="697.914,-227.981 703.212,-227.975 699.067,-224.677 697.914,-227.981"/>
</g>
<!-- topo.analysis.featureresponses.PatternPresentingCommand -->
<g id="node22" class="node"><title>topo.analysis.featureresponses.PatternPresentingCommand</title>
<polygon fill="none" stroke="black" stroke-width="0.5" points="883,-172.5 579,-172.5 579,-151.5 883,-151.5 883,-172.5"/>
<text text-anchor="middle" x="731" y="-159.5" font-family="Vera" font-size="10.00">topo.analysis.featureresponses.PatternPresentingCommand</text>
</g>
<!-- param.parameterized.ParameterizedFunction&#45;&gt;topo.analysis.featureresponses.PatternPresentingCommand -->
<g id="edge20" class="edge"><title>param.parameterized.ParameterizedFunction&#45;&gt;topo.analysis.featureresponses.PatternPresentingCommand</title>
<path fill="none" stroke="black" stroke-width="0.5" d="M503.283,-162C525.806,-162 549.732,-162 573.289,-162"/>
<polygon fill="black" stroke="black" points="573.309,-163.75 578.309,-162 573.309,-160.25 573.309,-163.75"/>
</g>
<!-- topo.analysis.featureresponses.PatternResponse -->
<g id="node32" class="node"><title>topo.analysis.featureresponses.PatternResponse</title>
<polygon fill="none" stroke="black" stroke-width="0.5" points="856,-134.5 606,-134.5 606,-113.5 856,-113.5 856,-134.5"/>
<text text-anchor="middle" x="731" y="-121.5" font-family="Vera" font-size="10.00">topo.analysis.featureresponses.PatternResponse</text>
</g>
<!-- param.parameterized.ParameterizedFunction&#45;&gt;topo.analysis.featureresponses.PatternResponse -->
<g id="edge32" class="edge"><title>param.parameterized.ParameterizedFunction&#45;&gt;topo.analysis.featureresponses.PatternResponse</title>
<path fill="none" stroke="black" stroke-width="0.5" d="M477.096,-151.966C525.734,-146.609 585.575,-140.018 634.944,-134.58"/>
<polygon fill="black" stroke="black" points="635.214,-136.311 639.992,-134.024 634.831,-132.832 635.214,-136.311"/>
</g>
<!-- topo.analysis.featureresponses.SinusoidalMeasureResponseCommand&#45;&gt;topo.analysis.featureresponses.FeatureCurveCommand -->
<g id="edge24" class="edge"><title>topo.analysis.featureresponses.SinusoidalMeasureResponseCommand&#45;&gt;topo.analysis.featureresponses.FeatureCurveCommand</title>
<path fill="none" stroke="black" stroke-width="0.5" d="M1620,-143C1630.21,-143 1640.43,-143 1650.51,-143"/>
<polygon fill="black" stroke="black" points="1650.76,-144.75 1655.76,-143 1650.76,-141.25 1650.76,-144.75"/>
</g>
<!-- topo.analysis.featureresponses.PatternPresentingCommand&#45;&gt;topo.analysis.featureresponses.MeasureResponseCommand -->
<g id="edge22" class="edge"><title>topo.analysis.featureresponses.PatternPresentingCommand&#45;&gt;topo.analysis.featureresponses.MeasureResponseCommand</title>
<path fill="none" stroke="black" stroke-width="0.5" d="M883.942,-162C894.305,-162 904.759,-162 915.151,-162"/>
<polygon fill="black" stroke="black" points="915.247,-163.75 920.247,-162 915.247,-160.25 915.247,-163.75"/>
</g>
<!-- topo.analysis.featureresponses.PatternPresenter -->
<g id="node36" class="node"><title>topo.analysis.featureresponses.PatternPresenter</title>
<polygon fill="none" stroke="black" stroke-width="0.5" points="856,-96.5 606,-96.5 606,-75.5 856,-75.5 856,-96.5"/>
<text text-anchor="middle" x="731" y="-83.5" font-family="Vera" font-size="10.00">topo.analysis.featureresponses.PatternPresenter</text>
</g>
<!-- topo.analysis.featureresponses.CoordinatedPatternGenerator&#45;&gt;topo.analysis.featureresponses.PatternPresenter -->
<g id="edge36" class="edge"><title>topo.analysis.featureresponses.CoordinatedPatternGenerator&#45;&gt;topo.analysis.featureresponses.PatternPresenter</title>
<path fill="none" stroke="black" stroke-width="0.5" d="M541.594,-86C561.115,-86 580.927,-86 600.018,-86"/>
<polygon fill="black" stroke="black" points="600.383,-87.7501 605.383,-86 600.383,-84.2501 600.383,-87.7501"/>
</g>
<!-- topo.analysis.featureresponses.pattern_response -->
<g id="node42" class="node"><title>topo.analysis.featureresponses.pattern_response</title>
<polygon fill="none" stroke="black" stroke-width="0.5" points="1201,-134.5 947,-134.5 947,-113.5 1201,-113.5 1201,-134.5"/>
<text text-anchor="middle" x="1074" y="-121.5" font-family="Vera" font-size="10.00">topo.analysis.featureresponses.pattern_response</text>
</g>
<!-- topo.analysis.featureresponses.PatternResponse&#45;&gt;topo.analysis.featureresponses.pattern_response -->
<g id="edge42" class="edge"><title>topo.analysis.featureresponses.PatternResponse&#45;&gt;topo.analysis.featureresponses.pattern_response</title>
<path fill="none" stroke="black" stroke-width="0.5" d="M856.287,-124C884.031,-124 913.52,-124 941.539,-124"/>
<polygon fill="black" stroke="black" points="941.754,-125.75 946.754,-124 941.754,-122.25 941.754,-125.75"/>
</g>
</g>
</svg>
