<?xml version="1.0" encoding="UTF-8" standalone="no"?>
<!DOCTYPE svg PUBLIC "-//W3C//DTD SVG 1.1//EN"
 "http://www.w3.org/Graphics/SVG/1.1/DTD/svg11.dtd">
<!-- Generated by graphviz version 2.26.3 (20100126.1600)
 -->
<!-- Title: inheritanceea4ef9e090 Pages: 1 -->
<svg width="884pt" height="199pt"
 viewBox="0.00 0.00 884.00 199.00" xmlns="http://www.w3.org/2000/svg" xmlns:xlink="http://www.w3.org/1999/xlink">
<g id="graph1" class="graph" transform="scale(1 1) rotate(0) translate(4 195)">
<title>inheritanceea4ef9e090</title>
<polygon fill="white" stroke="white" points="-4,5 -4,-195 881,-195 881,5 -4,5"/>
<!-- imagen.sheetcoords.SheetCoordinateSystem -->
<g id="node1" class="node"><title>imagen.sheetcoords.SheetCoordinateSystem</title>
<polygon fill="none" stroke="black" stroke-width="0.5" points="236,-191.5 8.52651e-14,-191.5 0,-170.5 236,-170.5 236,-191.5"/>
<text text-anchor="middle" x="118" y="-178.5" font-family="Vera" font-size="10.00">imagen.sheetcoords.SheetCoordinateSystem</text>
</g>
<!-- imagen.views.ProjectionGrid -->
<g id="node10" class="node"><title>imagen.views.ProjectionGrid</title>
<polygon fill="none" stroke="black" stroke-width="0.5" points="875,-191.5 725,-191.5 725,-170.5 875,-170.5 875,-191.5"/>
<text text-anchor="middle" x="800" y="-178.5" font-family="Vera" font-size="10.00">imagen.views.ProjectionGrid</text>
</g>
<!-- imagen.sheetcoords.SheetCoordinateSystem&#45;&gt;imagen.views.ProjectionGrid -->
<g id="edge10" class="edge"><title>imagen.sheetcoords.SheetCoordinateSystem&#45;&gt;imagen.views.ProjectionGrid</title>
<path fill="none" stroke="black" stroke-width="0.5" d="M236.017,-181C374.072,-181 598.959,-181 718.795,-181"/>
<polygon fill="black" stroke="black" points="719.069,-182.75 724.069,-181 719.069,-179.25 719.069,-182.75"/>
</g>
<!-- imagen.views.SheetView -->
<g id="node18" class="node"><title>imagen.views.SheetView</title>
<polygon fill="none" stroke="black" stroke-width="0.5" points="445,-172.5 311,-172.5 311,-151.5 445,-151.5 445,-172.5"/>
<text text-anchor="middle" x="378" y="-159.5" font-family="Vera" font-size="10.00">imagen.views.SheetView</text>
</g>
<!-- imagen.sheetcoords.SheetCoordinateSystem&#45;&gt;imagen.views.SheetView -->
<g id="edge20" class="edge"><title>imagen.sheetcoords.SheetCoordinateSystem&#45;&gt;imagen.views.SheetView</title>
<path fill="none" stroke="black" stroke-width="0.5" d="M236.208,-172.362C259.928,-170.628 284.176,-168.856 305.759,-167.279"/>
<polygon fill="black" stroke="black" points="306.037,-169.014 310.896,-166.904 305.782,-165.523 306.037,-169.014"/>
</g>
<!-- imagen.ndmapping.NdMapping -->
<g id="node2" class="node"><title>imagen.ndmapping.NdMapping</title>
<polygon fill="none" stroke="black" stroke-width="0.5" points="687,-144.5 521,-144.5 521,-123.5 687,-123.5 687,-144.5"/>
<text text-anchor="middle" x="604" y="-131.5" font-family="Vera" font-size="10.00">imagen.ndmapping.NdMapping</text>
</g>
<!-- imagen.ndmapping.NdMapping&#45;&gt;imagen.views.ProjectionGrid -->
<g id="edge8" class="edge"><title>imagen.ndmapping.NdMapping&#45;&gt;imagen.views.ProjectionGrid</title>
<path fill="none" stroke="black" stroke-width="0.5" d="M646.047,-144.083C677.438,-151.61 720.347,-161.899 752.892,-169.704"/>
<polygon fill="black" stroke="black" points="752.752,-171.47 758.023,-170.934 753.569,-168.066 752.752,-171.47"/>
</g>
<!-- imagen.views.SheetStack -->
<g id="node15" class="node"><title>imagen.views.SheetStack</title>
<polygon fill="none" stroke="black" stroke-width="0.5" points="870,-144.5 730,-144.5 730,-123.5 870,-123.5 870,-144.5"/>
<text text-anchor="middle" x="800" y="-131.5" font-family="Vera" font-size="10.00">imagen.views.SheetStack</text>
</g>
<!-- imagen.ndmapping.NdMapping&#45;&gt;imagen.views.SheetStack -->
<g id="edge14" class="edge"><title>imagen.ndmapping.NdMapping&#45;&gt;imagen.views.SheetStack</title>
<path fill="none" stroke="black" stroke-width="0.5" d="M687.69,-134C699.981,-134 712.578,-134 724.687,-134"/>
<polygon fill="black" stroke="black" points="724.844,-135.75 729.844,-134 724.844,-132.25 724.844,-135.75"/>
</g>
<!-- imagen.ndmapping.NdIndexableMapping -->
<g id="node3" class="node"><title>imagen.ndmapping.NdIndexableMapping</title>
<polygon fill="none" stroke="black" stroke-width="0.5" points="484,-134.5 272,-134.5 272,-113.5 484,-113.5 484,-134.5"/>
<text text-anchor="middle" x="378" y="-121.5" font-family="Vera" font-size="10.00">imagen.ndmapping.NdIndexableMapping</text>
</g>
<!-- imagen.ndmapping.NdIndexableMapping&#45;&gt;imagen.ndmapping.NdMapping -->
<g id="edge2" class="edge"><title>imagen.ndmapping.NdIndexableMapping&#45;&gt;imagen.ndmapping.NdMapping</title>
<path fill="none" stroke="black" stroke-width="0.5" d="M484.052,-128.693C494.499,-129.155 505.025,-129.621 515.272,-130.074"/>
<polygon fill="black" stroke="black" points="515.206,-131.823 520.279,-130.296 515.361,-128.326 515.206,-131.823"/>
</g>
<!-- imagen.views.SheetPoints -->
<g id="node5" class="node"><title>imagen.views.SheetPoints</title>
<polygon fill="none" stroke="black" stroke-width="0.5" points="449,-96.5 307,-96.5 307,-75.5 449,-75.5 449,-96.5"/>
<text text-anchor="middle" x="378" y="-83.5" font-family="Vera" font-size="10.00">imagen.views.SheetPoints</text>
</g>
<!-- param.parameterized.Parameterized -->
<g id="node6" class="node"><title>param.parameterized.Parameterized</title>
<polygon fill="none" stroke="black" stroke-width="0.5" points="215,-96.5 21,-96.5 21,-75.5 215,-75.5 215,-96.5"/>
<text text-anchor="middle" x="118" y="-83.5" font-family="Vera" font-size="10.00">param.parameterized.Parameterized</text>
</g>
<!-- param.parameterized.Parameterized&#45;&gt;imagen.ndmapping.NdIndexableMapping -->
<g id="edge16" class="edge"><title>param.parameterized.Parameterized&#45;&gt;imagen.ndmapping.NdIndexableMapping</title>
<path fill="none" stroke="black" stroke-width="0.5" d="M186.652,-96.0338C222.788,-101.315 267.13,-107.796 304.027,-113.189"/>
<polygon fill="black" stroke="black" points="304.214,-114.984 309.414,-113.976 304.72,-111.521 304.214,-114.984"/>
</g>
<!-- param.parameterized.Parameterized&#45;&gt;imagen.views.SheetPoints -->
<g id="edge4" class="edge"><title>param.parameterized.Parameterized&#45;&gt;imagen.views.SheetPoints</title>
<path fill="none" stroke="black" stroke-width="0.5" d="M215.184,-86C243.835,-86 274.761,-86 301.885,-86"/>
<polygon fill="black" stroke="black" points="301.904,-87.7501 306.904,-86 301.903,-84.2501 301.904,-87.7501"/>
</g>
<!-- imagen.views.Timeline -->
<g id="node8" class="node"><title>imagen.views.Timeline</title>
<polygon fill="none" stroke="black" stroke-width="0.5" points="440,-58.5 316,-58.5 316,-37.5 440,-37.5 440,-58.5"/>
<text text-anchor="middle" x="378" y="-45.5" font-family="Vera" font-size="10.00">imagen.views.Timeline</text>
</g>
<!-- param.parameterized.Parameterized&#45;&gt;imagen.views.Timeline -->
<g id="edge6" class="edge"><title>param.parameterized.Parameterized&#45;&gt;imagen.views.Timeline</title>
<path fill="none" stroke="black" stroke-width="0.5" d="M186.652,-75.9662C224.952,-70.3685 272.47,-63.4236 310.571,-57.855"/>
<polygon fill="black" stroke="black" points="310.95,-59.5682 315.645,-57.1135 310.444,-56.105 310.95,-59.5682"/>
</g>
<!-- imagen.views.SheetContours -->
<g id="node13" class="node"><title>imagen.views.SheetContours</title>
<polygon fill="none" stroke="black" stroke-width="0.5" points="456,-20.5 300,-20.5 300,0.5 456,0.5 456,-20.5"/>
<text text-anchor="middle" x="378" y="-7.5" font-family="Vera" font-size="10.00">imagen.views.SheetContours</text>
</g>
<!-- param.parameterized.Parameterized&#45;&gt;imagen.views.SheetContours -->
<g id="edge12" class="edge"><title>param.parameterized.Parameterized&#45;&gt;imagen.views.SheetContours</title>
<path fill="none" stroke="black" stroke-width="0.5" d="M141.061,-75.9976C170.814,-63.4355 224.414,-41.9616 272,-29 283.128,-25.969 295.048,-23.2956 306.732,-20.9833"/>
<polygon fill="black" stroke="black" points="307.147,-22.6854 311.722,-20.0144 306.48,-19.2496 307.147,-22.6854"/>
</g>
<!-- param.parameterized.Parameterized&#45;&gt;imagen.views.SheetView -->
<g id="edge18" class="edge"><title>param.parameterized.Parameterized&#45;&gt;imagen.views.SheetView</title>
<path fill="none" stroke="black" stroke-width="0.5" d="M141.061,-96.0024C170.814,-108.564 224.414,-130.038 272,-143 283.128,-146.031 295.048,-148.704 306.732,-151.017"/>
<polygon fill="black" stroke="black" points="306.48,-152.75 311.722,-151.986 307.147,-149.315 306.48,-152.75"/>
</g>
</g>
</svg>
