<?xml version="1.0" encoding="UTF-8" standalone="no"?>
<!DOCTYPE svg PUBLIC "-//W3C//DTD SVG 1.1//EN"
 "http://www.w3.org/Graphics/SVG/1.1/DTD/svg11.dtd">
<!-- Generated by graphviz version 2.26.3 (20100126.1600)
 -->
<!-- Title: inheritancef4cea304dd Pages: 1 -->
<svg width="1124pt" height="284pt"
 viewBox="0.00 0.00 1124.00 284.00" xmlns="http://www.w3.org/2000/svg" xmlns:xlink="http://www.w3.org/1999/xlink">
<g id="graph1" class="graph" transform="scale(1 1) rotate(0) translate(4 280)">
<title>inheritancef4cea304dd</title>
<polygon fill="white" stroke="white" points="-4,5 -4,-280 1121,-280 1121,5 -4,5"/>
<!-- param.parameterized.Parameterized -->
<g id="node1" class="node"><title>param.parameterized.Parameterized</title>
<polygon fill="none" stroke="black" stroke-width="0.5" points="194,-162.5 5.68434e-14,-162.5 0,-141.5 194,-141.5 194,-162.5"/>
<text text-anchor="middle" x="97" y="-149.5" font-family="Vera" font-size="10.00">param.parameterized.Parameterized</text>
</g>
<!-- topo.base.simulation.EPConnection -->
<g id="node2" class="node"><title>topo.base.simulation.EPConnection</title>
<polygon fill="none" stroke="black" stroke-width="0.5" points="441,-243.5 255,-243.5 255,-222.5 441,-222.5 441,-243.5"/>
<text text-anchor="middle" x="348" y="-230.5" font-family="Vera" font-size="10.00">topo.base.simulation.EPConnection</text>
</g>
<!-- param.parameterized.Parameterized&#45;&gt;topo.base.simulation.EPConnection -->
<g id="edge2" class="edge"><title>param.parameterized.Parameterized&#45;&gt;topo.base.simulation.EPConnection</title>
<path fill="none" stroke="black" stroke-width="0.5" d="M172.778,-162.022C180.177,-164.411 187.384,-167.361 194,-171 214.384,-182.213 209.657,-197.713 230,-209 239.432,-214.233 249.856,-218.332 260.488,-221.541"/>
<polygon fill="black" stroke="black" points="260.096,-223.249 265.385,-222.953 261.066,-219.886 260.096,-223.249"/>
</g>
<!-- topo.base.cf.CFPLearningFn -->
<g id="node5" class="node"><title>topo.base.cf.CFPLearningFn</title>
<polygon fill="none" stroke="black" stroke-width="0.5" points="422,-200.5 274,-200.5 274,-179.5 422,-179.5 422,-200.5"/>
<text text-anchor="middle" x="348" y="-187.5" font-family="Vera" font-size="10.00">topo.base.cf.CFPLearningFn</text>
</g>
<!-- param.parameterized.Parameterized&#45;&gt;topo.base.cf.CFPLearningFn -->
<g id="edge12" class="edge"><title>param.parameterized.Parameterized&#45;&gt;topo.base.cf.CFPLearningFn</title>
<path fill="none" stroke="black" stroke-width="0.5" d="M163.276,-162.034C198.161,-167.315 240.968,-173.796 276.587,-179.189"/>
<polygon fill="black" stroke="black" points="276.583,-180.958 281.789,-179.976 277.107,-177.497 276.583,-180.958"/>
</g>
<!-- topo.base.simulation.EventProcessor -->
<g id="node7" class="node"><title>topo.base.simulation.EventProcessor</title>
<polygon fill="none" stroke="black" stroke-width="0.5" points="445,-162.5 251,-162.5 251,-141.5 445,-141.5 445,-162.5"/>
<text text-anchor="middle" x="348" y="-149.5" font-family="Vera" font-size="10.00">topo.base.simulation.EventProcessor</text>
</g>
<!-- param.parameterized.Parameterized&#45;&gt;topo.base.simulation.EventProcessor -->
<g id="edge6" class="edge"><title>param.parameterized.Parameterized&#45;&gt;topo.base.simulation.EventProcessor</title>
<path fill="none" stroke="black" stroke-width="0.5" d="M194.043,-152C210.921,-152 228.523,-152 245.54,-152"/>
<polygon fill="black" stroke="black" points="245.801,-153.75 250.801,-152 245.801,-150.25 245.801,-153.75"/>
</g>
<!-- topo.base.cf.CFPOutputFn -->
<g id="node16" class="node"><title>topo.base.cf.CFPOutputFn</title>
<polygon fill="none" stroke="black" stroke-width="0.5" points="418,-86.5 278,-86.5 278,-65.5 418,-65.5 418,-86.5"/>
<text text-anchor="middle" x="348" y="-73.5" font-family="Vera" font-size="10.00">topo.base.cf.CFPOutputFn</text>
</g>
<!-- param.parameterized.Parameterized&#45;&gt;topo.base.cf.CFPOutputFn -->
<g id="edge32" class="edge"><title>param.parameterized.Parameterized&#45;&gt;topo.base.cf.CFPOutputFn</title>
<path fill="none" stroke="black" stroke-width="0.5" d="M116.274,-141.949C141.663,-129.132 188.018,-107.175 230,-95 243.578,-91.0622 258.287,-87.8746 272.563,-85.3168"/>
<polygon fill="black" stroke="black" points="273.175,-86.9865 277.8,-84.4028 272.574,-83.5386 273.175,-86.9865"/>
</g>
<!-- topo.base.cf.CFPResponseFn -->
<g id="node24" class="node"><title>topo.base.cf.CFPResponseFn</title>
<polygon fill="none" stroke="black" stroke-width="0.5" points="424,-39.5 272,-39.5 272,-18.5 424,-18.5 424,-39.5"/>
<text text-anchor="middle" x="348" y="-26.5" font-family="Vera" font-size="10.00">topo.base.cf.CFPResponseFn</text>
</g>
<!-- param.parameterized.Parameterized&#45;&gt;topo.base.cf.CFPResponseFn -->
<g id="edge22" class="edge"><title>param.parameterized.Parameterized&#45;&gt;topo.base.cf.CFPResponseFn</title>
<path fill="none" stroke="black" stroke-width="0.5" d="M107.806,-141.991C129.346,-122.59 179.885,-79.7787 230,-57 245.807,-49.815 263.676,-44.3535 280.637,-40.2507"/>
<polygon fill="black" stroke="black" points="281.402,-41.8686 285.869,-39.0206 280.601,-38.4616 281.402,-41.8686"/>
</g>
<!-- topo.base.projection.Projection -->
<g id="node20" class="node"><title>topo.base.projection.Projection</title>
<polygon fill="none" stroke="black" stroke-width="0.5" points="667,-248.5 503,-248.5 503,-227.5 667,-227.5 667,-248.5"/>
<text text-anchor="middle" x="585" y="-235.5" font-family="Vera" font-size="10.00">topo.base.projection.Projection</text>
</g>
<!-- topo.base.simulation.EPConnection&#45;&gt;topo.base.projection.Projection -->
<g id="edge18" class="edge"><title>topo.base.simulation.EPConnection&#45;&gt;topo.base.projection.Projection</title>
<path fill="none" stroke="black" stroke-width="0.5" d="M441.328,-234.969C459.681,-235.356 478.878,-235.761 497.046,-236.144"/>
<polygon fill="black" stroke="black" points="497.106,-237.896 502.142,-236.252 497.18,-234.397 497.106,-237.896"/>
</g>
<!-- topo.base.cf.CFPLF_Plugin -->
<g id="node4" class="node"><title>topo.base.cf.CFPLF_Plugin</title>
<polygon fill="none" stroke="black" stroke-width="0.5" points="655,-210.5 515,-210.5 515,-189.5 655,-189.5 655,-210.5"/>
<text text-anchor="middle" x="585" y="-197.5" font-family="Vera" font-size="10.00">topo.base.cf.CFPLF_Plugin</text>
</g>
<!-- topo.base.cf.CFPLearningFn&#45;&gt;topo.base.cf.CFPLF_Plugin -->
<g id="edge4" class="edge"><title>topo.base.cf.CFPLearningFn&#45;&gt;topo.base.cf.CFPLF_Plugin</title>
<path fill="none" stroke="black" stroke-width="0.5" d="M422.663,-193.15C450.381,-194.32 481.824,-195.647 509.606,-196.819"/>
<polygon fill="black" stroke="black" points="509.68,-198.573 514.75,-197.036 509.828,-195.077 509.68,-198.573"/>
</g>
<!-- topo.base.cf.CFPLF_Identity -->
<g id="node36" class="node"><title>topo.base.cf.CFPLF_Identity</title>
<polygon fill="none" stroke="black" stroke-width="0.5" points="658,-172.5 512,-172.5 512,-151.5 658,-151.5 658,-172.5"/>
<text text-anchor="middle" x="585" y="-159.5" font-family="Vera" font-size="10.00">topo.base.cf.CFPLF_Identity</text>
</g>
<!-- topo.base.cf.CFPLearningFn&#45;&gt;topo.base.cf.CFPLF_Identity -->
<g id="edge34" class="edge"><title>topo.base.cf.CFPLearningFn&#45;&gt;topo.base.cf.CFPLF_Identity</title>
<path fill="none" stroke="black" stroke-width="0.5" d="M422.663,-181.179C449.231,-178.04 479.222,-174.497 506.131,-171.318"/>
<polygon fill="black" stroke="black" points="506.358,-173.053 511.118,-170.729 505.948,-169.577 506.358,-173.053"/>
</g>
<!-- topo.base.sheet.Sheet -->
<g id="node12" class="node"><title>topo.base.sheet.Sheet</title>
<polygon fill="none" stroke="black" stroke-width="0.5" points="648,-134.5 522,-134.5 522,-113.5 648,-113.5 648,-134.5"/>
<text text-anchor="middle" x="585" y="-121.5" font-family="Vera" font-size="10.00">topo.base.sheet.Sheet</text>
</g>
<!-- topo.base.simulation.EventProcessor&#45;&gt;topo.base.sheet.Sheet -->
<g id="edge24" class="edge"><title>topo.base.simulation.EventProcessor&#45;&gt;topo.base.sheet.Sheet</title>
<path fill="none" stroke="black" stroke-width="0.5" d="M432.893,-141.97C460.412,-138.719 490.567,-135.157 516.718,-132.067"/>
<polygon fill="black" stroke="black" points="517.133,-133.78 521.893,-131.456 516.722,-130.304 517.133,-133.78"/>
</g>
<!-- topo.base.cf.CFSheet -->
<g id="node9" class="node"><title>topo.base.cf.CFSheet</title>
<polygon fill="none" stroke="black" stroke-width="0.5" points="1084,-134.5 966,-134.5 966,-113.5 1084,-113.5 1084,-134.5"/>
<text text-anchor="middle" x="1025" y="-121.5" font-family="Vera" font-size="10.00">topo.base.cf.CFSheet</text>
</g>
<!-- topo.base.projection.ProjectionSheet -->
<g id="node10" class="node"><title>topo.base.projection.ProjectionSheet</title>
<polygon fill="none" stroke="black" stroke-width="0.5" points="898,-134.5 704,-134.5 704,-113.5 898,-113.5 898,-134.5"/>
<text text-anchor="middle" x="801" y="-121.5" font-family="Vera" font-size="10.00">topo.base.projection.ProjectionSheet</text>
</g>
<!-- topo.base.projection.ProjectionSheet&#45;&gt;topo.base.cf.CFSheet -->
<g id="edge8" class="edge"><title>topo.base.projection.ProjectionSheet&#45;&gt;topo.base.cf.CFSheet</title>
<path fill="none" stroke="black" stroke-width="0.5" d="M898.272,-124C919.101,-124 940.622,-124 959.885,-124"/>
<polygon fill="black" stroke="black" points="960.255,-125.75 965.255,-124 960.255,-122.25 960.255,-125.75"/>
</g>
<!-- topo.base.sheet.Sheet&#45;&gt;topo.base.projection.ProjectionSheet -->
<g id="edge10" class="edge"><title>topo.base.sheet.Sheet&#45;&gt;topo.base.projection.ProjectionSheet</title>
<path fill="none" stroke="black" stroke-width="0.5" d="M648.057,-124C663.856,-124 681.216,-124 698.394,-124"/>
<polygon fill="black" stroke="black" points="698.717,-125.75 703.717,-124 698.717,-122.25 698.717,-125.75"/>
</g>
<!-- topo.base.cf.CFPOF_Identity -->
<g id="node15" class="node"><title>topo.base.cf.CFPOF_Identity</title>
<polygon fill="none" stroke="black" stroke-width="0.5" points="659,-96.5 511,-96.5 511,-75.5 659,-75.5 659,-96.5"/>
<text text-anchor="middle" x="585" y="-83.5" font-family="Vera" font-size="10.00">topo.base.cf.CFPOF_Identity</text>
</g>
<!-- topo.base.cf.CFPOutputFn&#45;&gt;topo.base.cf.CFPOF_Identity -->
<g id="edge14" class="edge"><title>topo.base.cf.CFPOutputFn&#45;&gt;topo.base.cf.CFPOF_Identity</title>
<path fill="none" stroke="black" stroke-width="0.5" d="M418.146,-78.9597C445.516,-80.1146 477.04,-81.4447 505.266,-82.6357"/>
<polygon fill="black" stroke="black" points="505.427,-84.394 510.496,-82.8564 505.575,-80.8971 505.427,-84.394"/>
</g>
<!-- topo.base.cf.CFPOF_Plugin -->
<g id="node18" class="node"><title>topo.base.cf.CFPOF_Plugin</title>
<polygon fill="none" stroke="black" stroke-width="0.5" points="656,-58.5 514,-58.5 514,-37.5 656,-37.5 656,-58.5"/>
<text text-anchor="middle" x="585" y="-45.5" font-family="Vera" font-size="10.00">topo.base.cf.CFPOF_Plugin</text>
</g>
<!-- topo.base.cf.CFPOutputFn&#45;&gt;topo.base.cf.CFPOF_Plugin -->
<g id="edge16" class="edge"><title>topo.base.cf.CFPOutputFn&#45;&gt;topo.base.cf.CFPOF_Plugin</title>
<path fill="none" stroke="black" stroke-width="0.5" d="M418.146,-67.7127C446.533,-64.359 479.388,-60.4774 508.398,-57.0501"/>
<polygon fill="black" stroke="black" points="508.632,-58.7846 513.392,-56.46 508.222,-55.3088 508.632,-58.7846"/>
</g>
<!-- topo.base.cf.CFProjection -->
<g id="node22" class="node"><title>topo.base.cf.CFProjection</title>
<polygon fill="none" stroke="black" stroke-width="0.5" points="869,-248.5 733,-248.5 733,-227.5 869,-227.5 869,-248.5"/>
<text text-anchor="middle" x="801" y="-235.5" font-family="Vera" font-size="10.00">topo.base.cf.CFProjection</text>
</g>
<!-- topo.base.projection.Projection&#45;&gt;topo.base.cf.CFProjection -->
<g id="edge20" class="edge"><title>topo.base.projection.Projection&#45;&gt;topo.base.cf.CFProjection</title>
<path fill="none" stroke="black" stroke-width="0.5" d="M667.585,-238C687.071,-238 707.728,-238 726.817,-238"/>
<polygon fill="black" stroke="black" points="727.157,-239.75 732.157,-238 727.157,-236.25 727.157,-239.75"/>
</g>
<!-- topo.base.cf.ResizableCFProjection -->
<g id="node32" class="node"><title>topo.base.cf.ResizableCFProjection</title>
<polygon fill="none" stroke="black" stroke-width="0.5" points="1116,-248.5 934,-248.5 934,-227.5 1116,-227.5 1116,-248.5"/>
<text text-anchor="middle" x="1025" y="-235.5" font-family="Vera" font-size="10.00">topo.base.cf.ResizableCFProjection</text>
</g>
<!-- topo.base.cf.CFProjection&#45;&gt;topo.base.cf.ResizableCFProjection -->
<g id="edge30" class="edge"><title>topo.base.cf.CFProjection&#45;&gt;topo.base.cf.ResizableCFProjection</title>
<path fill="none" stroke="black" stroke-width="0.5" d="M869.73,-238C888.343,-238 908.841,-238 928.67,-238"/>
<polygon fill="black" stroke="black" points="928.696,-239.75 933.696,-238 928.696,-236.25 928.696,-239.75"/>
</g>
<!-- topo.base.cf.CFPRF_Plugin -->
<g id="node29" class="node"><title>topo.base.cf.CFPRF_Plugin</title>
<polygon fill="none" stroke="black" stroke-width="0.5" points="655,-20.5 515,-20.5 515,0.5 655,0.5 655,-20.5"/>
<text text-anchor="middle" x="585" y="-7.5" font-family="Vera" font-size="10.00">topo.base.cf.CFPRF_Plugin</text>
</g>
<!-- topo.base.cf.CFPResponseFn&#45;&gt;topo.base.cf.CFPRF_Plugin -->
<g id="edge28" class="edge"><title>topo.base.cf.CFPResponseFn&#45;&gt;topo.base.cf.CFPRF_Plugin</title>
<path fill="none" stroke="black" stroke-width="0.5" d="M424.62,-22.8575C451.738,-20.6834 482.215,-18.2402 509.259,-16.072"/>
<polygon fill="black" stroke="black" points="509.424,-17.8146 514.268,-15.6705 509.144,-14.3258 509.424,-17.8146"/>
</g>
<!-- imagen.sheetcoords.SheetCoordinateSystem -->
<g id="node27" class="node"><title>imagen.sheetcoords.SheetCoordinateSystem</title>
<polygon fill="none" stroke="black" stroke-width="0.5" points="466,-124.5 230,-124.5 230,-103.5 466,-103.5 466,-124.5"/>
<text text-anchor="middle" x="348" y="-111.5" font-family="Vera" font-size="10.00">imagen.sheetcoords.SheetCoordinateSystem</text>
</g>
<!-- imagen.sheetcoords.SheetCoordinateSystem&#45;&gt;topo.base.sheet.Sheet -->
<g id="edge26" class="edge"><title>imagen.sheetcoords.SheetCoordinateSystem&#45;&gt;topo.base.sheet.Sheet</title>
<path fill="none" stroke="black" stroke-width="0.5" d="M466.153,-118.985C483.445,-119.715 500.748,-120.445 516.587,-121.113"/>
<polygon fill="black" stroke="black" points="516.831,-122.875 521.901,-121.338 516.979,-119.378 516.831,-122.875"/>
</g>
<!-- topo.base.cf.CFIter -->
<g id="node31" class="node"><title>topo.base.cf.CFIter</title>
<polygon fill="none" stroke="black" stroke-width="0.5" points="150,-200.5 44,-200.5 44,-179.5 150,-179.5 150,-200.5"/>
<text text-anchor="middle" x="97" y="-187.5" font-family="Vera" font-size="10.00">topo.base.cf.CFIter</text>
</g>
<!-- topo.base.cf.NullCFError -->
<g id="node34" class="node"><title>topo.base.cf.NullCFError</title>
<polygon fill="none" stroke="black" stroke-width="0.5" points="162,-238.5 32,-238.5 32,-217.5 162,-217.5 162,-238.5"/>
<text text-anchor="middle" x="97" y="-225.5" font-family="Vera" font-size="10.00">topo.base.cf.NullCFError</text>
</g>
<!-- topo.base.cf.ConnectionField -->
<g id="node38" class="node"><title>topo.base.cf.ConnectionField</title>
<polygon fill="none" stroke="black" stroke-width="0.5" points="173,-276.5 21,-276.5 21,-255.5 173,-255.5 173,-276.5"/>
<text text-anchor="middle" x="97" y="-263.5" font-family="Vera" font-size="10.00">topo.base.cf.ConnectionField</text>
</g>
</g>
</svg>
