<?xml version="1.0" encoding="UTF-8" standalone="no"?>
<!DOCTYPE svg PUBLIC "-//W3C//DTD SVG 1.1//EN"
 "http://www.w3.org/Graphics/SVG/1.1/DTD/svg11.dtd">
<!-- Generated by graphviz version 2.26.3 (20100126.1600)
 -->
<!-- Title: inheritancebe3ab90ace Pages: 1 -->
<svg width="984pt" height="408pt"
 viewBox="0.00 0.00 984.00 408.00" xmlns="http://www.w3.org/2000/svg" xmlns:xlink="http://www.w3.org/1999/xlink">
<g id="graph1" class="graph" transform="scale(1 1) rotate(0) translate(4 404)">
<title>inheritancebe3ab90ace</title>
<polygon fill="white" stroke="white" points="-4,5 -4,-404 981,-404 981,5 -4,5"/>
<!-- topo.coordmapper.Cartesian2Polar -->
<g id="node1" class="node"><title>topo.coordmapper.Cartesian2Polar</title>
<polygon fill="none" stroke="black" stroke-width="0.5" points="706,-381.5 522,-381.5 522,-360.5 706,-360.5 706,-381.5"/>
<text text-anchor="middle" x="614" y="-368.5" font-family="Vera" font-size="10.00">topo.coordmapper.Cartesian2Polar</text>
</g>
<!-- topo.base.functionfamily.CoordinateMapperFn -->
<g id="node2" class="node"><title>topo.base.functionfamily.CoordinateMapperFn</title>
<polygon fill="none" stroke="black" stroke-width="0.5" points="466,-191.5 230,-191.5 230,-170.5 466,-170.5 466,-191.5"/>
<text text-anchor="middle" x="348" y="-178.5" font-family="Vera" font-size="10.00">topo.base.functionfamily.CoordinateMapperFn</text>
</g>
<!-- topo.base.functionfamily.CoordinateMapperFn&#45;&gt;topo.coordmapper.Cartesian2Polar -->
<g id="edge2" class="edge"><title>topo.base.functionfamily.CoordinateMapperFn&#45;&gt;topo.coordmapper.Cartesian2Polar</title>
<path fill="none" stroke="black" stroke-width="0.5" d="M353.756,-191.228C371.414,-221.551 428.136,-311.374 502,-352 507.13,-354.822 512.577,-357.244 518.197,-359.323"/>
<polygon fill="black" stroke="black" points="517.659,-360.988 522.956,-360.989 518.816,-357.685 517.659,-360.988"/>
</g>
<!-- topo.coordmapper.SingleDimensionMapper -->
<g id="node5" class="node"><title>topo.coordmapper.SingleDimensionMapper</title>
<polygon fill="none" stroke="black" stroke-width="0.5" points="726,-343.5 502,-343.5 502,-322.5 726,-322.5 726,-343.5"/>
<text text-anchor="middle" x="614" y="-330.5" font-family="Vera" font-size="10.00">topo.coordmapper.SingleDimensionMapper</text>
</g>
<!-- topo.base.functionfamily.CoordinateMapperFn&#45;&gt;topo.coordmapper.SingleDimensionMapper -->
<g id="edge12" class="edge"><title>topo.base.functionfamily.CoordinateMapperFn&#45;&gt;topo.coordmapper.SingleDimensionMapper</title>
<path fill="none" stroke="black" stroke-width="0.5" d="M359.147,-191.2C383.434,-212.966 443.645,-264.459 502,-295 523.389,-306.195 548.756,-315.122 569.935,-321.503"/>
<polygon fill="black" stroke="black" points="569.652,-323.245 574.944,-322.989 570.648,-319.889 569.652,-323.245"/>
</g>
<!-- topo.coordmapper.OttesSCMapper -->
<g id="node8" class="node"><title>topo.coordmapper.OttesSCMapper</title>
<polygon fill="none" stroke="black" stroke-width="0.5" points="706,-286.5 522,-286.5 522,-265.5 706,-265.5 706,-286.5"/>
<text text-anchor="middle" x="614" y="-273.5" font-family="Vera" font-size="10.00">topo.coordmapper.OttesSCMapper</text>
</g>
<!-- topo.base.functionfamily.CoordinateMapperFn&#45;&gt;topo.coordmapper.OttesSCMapper -->
<g id="edge16" class="edge"><title>topo.base.functionfamily.CoordinateMapperFn&#45;&gt;topo.coordmapper.OttesSCMapper</title>
<path fill="none" stroke="black" stroke-width="0.5" d="M364.412,-191.107C391.853,-207.535 449.243,-239.912 502,-257 511.594,-260.107 521.823,-262.732 532.052,-264.942"/>
<polygon fill="black" stroke="black" points="531.818,-266.68 537.07,-265.993 532.536,-263.255 531.818,-266.68"/>
</g>
<!-- topo.coordmapper.AffineTransform -->
<g id="node13" class="node"><title>topo.coordmapper.AffineTransform</title>
<polygon fill="none" stroke="black" stroke-width="0.5" points="705,-248.5 523,-248.5 523,-227.5 705,-227.5 705,-248.5"/>
<text text-anchor="middle" x="614" y="-235.5" font-family="Vera" font-size="10.00">topo.coordmapper.AffineTransform</text>
</g>
<!-- topo.base.functionfamily.CoordinateMapperFn&#45;&gt;topo.coordmapper.AffineTransform -->
<g id="edge24" class="edge"><title>topo.base.functionfamily.CoordinateMapperFn&#45;&gt;topo.coordmapper.AffineTransform</title>
<path fill="none" stroke="black" stroke-width="0.5" d="M385.48,-191.071C416.555,-199.223 461.962,-210.676 502,-219 515.758,-221.86 530.533,-224.6 544.694,-227.065"/>
<polygon fill="black" stroke="black" points="544.656,-228.834 549.881,-227.961 545.251,-225.385 544.656,-228.834"/>
</g>
<!-- topo.coordmapper.Jitter -->
<g id="node16" class="node"><title>topo.coordmapper.Jitter</title>
<polygon fill="none" stroke="black" stroke-width="0.5" points="679,-210.5 549,-210.5 549,-189.5 679,-189.5 679,-210.5"/>
<text text-anchor="middle" x="614" y="-197.5" font-family="Vera" font-size="10.00">topo.coordmapper.Jitter</text>
</g>
<!-- topo.base.functionfamily.CoordinateMapperFn&#45;&gt;topo.coordmapper.Jitter -->
<g id="edge14" class="edge"><title>topo.base.functionfamily.CoordinateMapperFn&#45;&gt;topo.coordmapper.Jitter</title>
<path fill="none" stroke="black" stroke-width="0.5" d="M466.221,-189.444C492.647,-191.332 519.861,-193.276 543.62,-194.973"/>
<polygon fill="black" stroke="black" points="543.524,-196.72 548.636,-195.331 543.774,-193.229 543.524,-196.72"/>
</g>
<!-- topo.coordmapper.ConstantMapper -->
<g id="node22" class="node"><title>topo.coordmapper.ConstantMapper</title>
<polygon fill="none" stroke="black" stroke-width="0.5" points="708,-172.5 520,-172.5 520,-151.5 708,-151.5 708,-172.5"/>
<text text-anchor="middle" x="614" y="-159.5" font-family="Vera" font-size="10.00">topo.coordmapper.ConstantMapper</text>
</g>
<!-- topo.base.functionfamily.CoordinateMapperFn&#45;&gt;topo.coordmapper.ConstantMapper -->
<g id="edge20" class="edge"><title>topo.base.functionfamily.CoordinateMapperFn&#45;&gt;topo.coordmapper.ConstantMapper</title>
<path fill="none" stroke="black" stroke-width="0.5" d="M466.221,-172.556C482.302,-171.407 498.675,-170.237 514.384,-169.115"/>
<polygon fill="black" stroke="black" points="514.822,-170.839 519.685,-168.737 514.573,-167.348 514.822,-170.839"/>
</g>
<!-- topo.coordmapper.Polar2Cartesian -->
<g id="node27" class="node"><title>topo.coordmapper.Polar2Cartesian</title>
<polygon fill="none" stroke="black" stroke-width="0.5" points="706,-134.5 522,-134.5 522,-113.5 706,-113.5 706,-134.5"/>
<text text-anchor="middle" x="614" y="-121.5" font-family="Vera" font-size="10.00">topo.coordmapper.Polar2Cartesian</text>
</g>
<!-- topo.base.functionfamily.CoordinateMapperFn&#45;&gt;topo.coordmapper.Polar2Cartesian -->
<g id="edge26" class="edge"><title>topo.base.functionfamily.CoordinateMapperFn&#45;&gt;topo.coordmapper.Polar2Cartesian</title>
<path fill="none" stroke="black" stroke-width="0.5" d="M385.48,-170.929C416.555,-162.777 461.962,-151.324 502,-143 515.758,-140.14 530.533,-137.4 544.694,-134.935"/>
<polygon fill="black" stroke="black" points="545.251,-136.615 549.881,-134.039 544.656,-133.166 545.251,-136.615"/>
</g>
<!-- topo.coordmapper.NormalJitter -->
<g id="node31" class="node"><title>topo.coordmapper.NormalJitter</title>
<polygon fill="none" stroke="black" stroke-width="0.5" points="696,-96.5 532,-96.5 532,-75.5 696,-75.5 696,-96.5"/>
<text text-anchor="middle" x="614" y="-83.5" font-family="Vera" font-size="10.00">topo.coordmapper.NormalJitter</text>
</g>
<!-- topo.base.functionfamily.CoordinateMapperFn&#45;&gt;topo.coordmapper.NormalJitter -->
<g id="edge30" class="edge"><title>topo.base.functionfamily.CoordinateMapperFn&#45;&gt;topo.coordmapper.NormalJitter</title>
<path fill="none" stroke="black" stroke-width="0.5" d="M364.412,-170.893C391.853,-154.465 449.243,-122.088 502,-105 511.594,-101.893 521.823,-99.2684 532.052,-97.0585"/>
<polygon fill="black" stroke="black" points="532.536,-98.7452 537.07,-96.0066 531.818,-95.3196 532.536,-98.7452"/>
</g>
<!-- topo.coordmapper.Pipeline -->
<g id="node33" class="node"><title>topo.coordmapper.Pipeline</title>
<polygon fill="none" stroke="black" stroke-width="0.5" points="686,-58.5 542,-58.5 542,-37.5 686,-37.5 686,-58.5"/>
<text text-anchor="middle" x="614" y="-45.5" font-family="Vera" font-size="10.00">topo.coordmapper.Pipeline</text>
</g>
<!-- topo.base.functionfamily.CoordinateMapperFn&#45;&gt;topo.coordmapper.Pipeline -->
<g id="edge32" class="edge"><title>topo.base.functionfamily.CoordinateMapperFn&#45;&gt;topo.coordmapper.Pipeline</title>
<path fill="none" stroke="black" stroke-width="0.5" d="M358.097,-170.764C381.227,-147.985 440.791,-93.0694 502,-67 512.796,-62.4018 524.624,-58.9146 536.421,-56.2704"/>
<polygon fill="black" stroke="black" points="536.95,-57.947 541.472,-55.1881 536.216,-54.5247 536.95,-57.947"/>
</g>
<!-- topo.coordmapper.Grid -->
<g id="node36" class="node"><title>topo.coordmapper.Grid</title>
<polygon fill="none" stroke="black" stroke-width="0.5" points="678,-20.5 550,-20.5 550,0.5 678,0.5 678,-20.5"/>
<text text-anchor="middle" x="614" y="-7.5" font-family="Vera" font-size="10.00">topo.coordmapper.Grid</text>
</g>
<!-- topo.base.functionfamily.CoordinateMapperFn&#45;&gt;topo.coordmapper.Grid -->
<g id="edge36" class="edge"><title>topo.base.functionfamily.CoordinateMapperFn&#45;&gt;topo.coordmapper.Grid</title>
<path fill="none" stroke="black" stroke-width="0.5" d="M354.877,-170.73C374.258,-142.704 432.458,-64.6275 502,-29 515.168,-22.2538 530.236,-17.8298 544.961,-14.9464"/>
<polygon fill="black" stroke="black" points="545.339,-16.6562 549.938,-14.0265 544.703,-13.2145 545.339,-16.6562"/>
</g>
<!-- topo.coordmapper.MagnifyingMapper -->
<g id="node4" class="node"><title>topo.coordmapper.MagnifyingMapper</title>
<polygon fill="none" stroke="black" stroke-width="0.5" points="966,-400.5 772,-400.5 772,-379.5 966,-379.5 966,-400.5"/>
<text text-anchor="middle" x="869" y="-387.5" font-family="Vera" font-size="10.00">topo.coordmapper.MagnifyingMapper</text>
</g>
<!-- topo.coordmapper.SingleDimensionMapper&#45;&gt;topo.coordmapper.MagnifyingMapper -->
<g id="edge4" class="edge"><title>topo.coordmapper.SingleDimensionMapper&#45;&gt;topo.coordmapper.MagnifyingMapper</title>
<path fill="none" stroke="black" stroke-width="0.5" d="M692.515,-343.051C703.895,-345.447 715.353,-348.391 726,-352 743.134,-357.808 744.889,-365.126 762,-371 770.966,-374.078 780.533,-376.679 790.122,-378.873"/>
<polygon fill="black" stroke="black" points="789.874,-380.611 795.135,-379.983 790.631,-377.193 789.874,-380.611"/>
</g>
<!-- topo.coordmapper.ReducingMapper -->
<g id="node10" class="node"><title>topo.coordmapper.ReducingMapper</title>
<polygon fill="none" stroke="black" stroke-width="0.5" points="962,-362.5 776,-362.5 776,-341.5 962,-341.5 962,-362.5"/>
<text text-anchor="middle" x="869" y="-349.5" font-family="Vera" font-size="10.00">topo.coordmapper.ReducingMapper</text>
</g>
<!-- topo.coordmapper.SingleDimensionMapper&#45;&gt;topo.coordmapper.ReducingMapper -->
<g id="edge8" class="edge"><title>topo.coordmapper.SingleDimensionMapper&#45;&gt;topo.coordmapper.ReducingMapper</title>
<path fill="none" stroke="black" stroke-width="0.5" d="M726.218,-341.361C740.855,-342.452 755.766,-343.563 770.162,-344.636"/>
<polygon fill="black" stroke="black" points="770.325,-346.402 775.441,-345.029 770.585,-342.912 770.325,-346.402"/>
</g>
<!-- topo.coordmapper.OttesSCSenseMapper -->
<g id="node7" class="node"><title>topo.coordmapper.OttesSCSenseMapper</title>
<polygon fill="none" stroke="black" stroke-width="0.5" points="976,-324.5 762,-324.5 762,-303.5 976,-303.5 976,-324.5"/>
<text text-anchor="middle" x="869" y="-311.5" font-family="Vera" font-size="10.00">topo.coordmapper.OttesSCSenseMapper</text>
</g>
<!-- topo.coordmapper.OttesSCMapper&#45;&gt;topo.coordmapper.OttesSCSenseMapper -->
<g id="edge6" class="edge"><title>topo.coordmapper.OttesSCMapper&#45;&gt;topo.coordmapper.OttesSCSenseMapper</title>
<path fill="none" stroke="black" stroke-width="0.5" d="M681.332,-286.034C716.773,-291.315 760.262,-297.796 796.449,-303.189"/>
<polygon fill="black" stroke="black" points="796.53,-304.97 801.733,-303.976 797.046,-301.508 796.53,-304.97"/>
</g>
<!-- topo.coordmapper.OttesSCMotorMapper -->
<g id="node29" class="node"><title>topo.coordmapper.OttesSCMotorMapper</title>
<polygon fill="none" stroke="black" stroke-width="0.5" points="975,-286.5 763,-286.5 763,-265.5 975,-265.5 975,-286.5"/>
<text text-anchor="middle" x="869" y="-273.5" font-family="Vera" font-size="10.00">topo.coordmapper.OttesSCMotorMapper</text>
</g>
<!-- topo.coordmapper.OttesSCMapper&#45;&gt;topo.coordmapper.OttesSCMotorMapper -->
<g id="edge28" class="edge"><title>topo.coordmapper.OttesSCMapper&#45;&gt;topo.coordmapper.OttesSCMotorMapper</title>
<path fill="none" stroke="black" stroke-width="0.5" d="M706.061,-276C722.739,-276 740.295,-276 757.46,-276"/>
<polygon fill="black" stroke="black" points="757.773,-277.75 762.773,-276 757.773,-274.25 757.773,-277.75"/>
</g>
<!-- topo.coordmapper.Scale2d -->
<g id="node12" class="node"><title>topo.coordmapper.Scale2d</title>
<polygon fill="none" stroke="black" stroke-width="0.5" points="942,-248.5 796,-248.5 796,-227.5 942,-227.5 942,-248.5"/>
<text text-anchor="middle" x="869" y="-235.5" font-family="Vera" font-size="10.00">topo.coordmapper.Scale2d</text>
</g>
<!-- topo.coordmapper.AffineTransform&#45;&gt;topo.coordmapper.Scale2d -->
<g id="edge10" class="edge"><title>topo.coordmapper.AffineTransform&#45;&gt;topo.coordmapper.Scale2d</title>
<path fill="none" stroke="black" stroke-width="0.5" d="M705.341,-238C733.324,-238 763.841,-238 790.86,-238"/>
<polygon fill="black" stroke="black" points="790.863,-239.75 795.863,-238 790.863,-236.25 790.863,-239.75"/>
</g>
<!-- topo.coordmapper.Translate2d -->
<g id="node20" class="node"><title>topo.coordmapper.Translate2d</title>
<polygon fill="none" stroke="black" stroke-width="0.5" points="950,-210.5 788,-210.5 788,-189.5 950,-189.5 950,-210.5"/>
<text text-anchor="middle" x="869" y="-197.5" font-family="Vera" font-size="10.00">topo.coordmapper.Translate2d</text>
</g>
<!-- topo.coordmapper.AffineTransform&#45;&gt;topo.coordmapper.Translate2d -->
<g id="edge18" class="edge"><title>topo.coordmapper.AffineTransform&#45;&gt;topo.coordmapper.Translate2d</title>
<path fill="none" stroke="black" stroke-width="0.5" d="M681.332,-227.966C716.773,-222.685 760.262,-216.204 796.449,-210.811"/>
<polygon fill="black" stroke="black" points="797.046,-212.492 801.733,-210.024 796.53,-209.03 797.046,-212.492"/>
</g>
<!-- topo.coordmapper.Rotate2d -->
<g id="node24" class="node"><title>topo.coordmapper.Rotate2d</title>
<polygon fill="none" stroke="black" stroke-width="0.5" points="944,-172.5 794,-172.5 794,-151.5 944,-151.5 944,-172.5"/>
<text text-anchor="middle" x="869" y="-159.5" font-family="Vera" font-size="10.00">topo.coordmapper.Rotate2d</text>
</g>
<!-- topo.coordmapper.AffineTransform&#45;&gt;topo.coordmapper.Rotate2d -->
<g id="edge22" class="edge"><title>topo.coordmapper.AffineTransform&#45;&gt;topo.coordmapper.Rotate2d</title>
<path fill="none" stroke="black" stroke-width="0.5" d="M704.367,-227.995C711.897,-225.58 719.214,-222.621 726,-219 746.524,-208.046 741.518,-192.032 762,-181 770.204,-176.581 779.225,-173.16 788.443,-170.516"/>
<polygon fill="black" stroke="black" points="788.911,-172.202 793.278,-169.203 787.994,-168.825 788.911,-172.202"/>
</g>
<!-- param.parameterized.Parameterized -->
<g id="node19" class="node"><title>param.parameterized.Parameterized</title>
<polygon fill="none" stroke="black" stroke-width="0.5" points="194,-191.5 5.68434e-14,-191.5 0,-170.5 194,-170.5 194,-191.5"/>
<text text-anchor="middle" x="97" y="-178.5" font-family="Vera" font-size="10.00">param.parameterized.Parameterized</text>
</g>
<!-- param.parameterized.Parameterized&#45;&gt;topo.base.functionfamily.CoordinateMapperFn -->
<g id="edge34" class="edge"><title>param.parameterized.Parameterized&#45;&gt;topo.base.functionfamily.CoordinateMapperFn</title>
<path fill="none" stroke="black" stroke-width="0.5" d="M194.043,-181C204.12,-181 214.455,-181 224.77,-181"/>
<polygon fill="black" stroke="black" points="224.831,-182.75 229.831,-181 224.831,-179.25 224.831,-182.75"/>
</g>
</g>
</svg>
