<?xml version="1.0" encoding="UTF-8" standalone="no"?>
<!DOCTYPE svg PUBLIC "-//W3C//DTD SVG 1.1//EN"
 "http://www.w3.org/Graphics/SVG/1.1/DTD/svg11.dtd">
<!-- Generated by graphviz version 2.26.3 (20100126.1600)
 -->
<!-- Title: inheritancef4cea304dd Pages: 1 -->
<svg width="1124pt" height="275pt"
 viewBox="0.00 0.00 1124.00 275.00" xmlns="http://www.w3.org/2000/svg" xmlns:xlink="http://www.w3.org/1999/xlink">
<g id="graph1" class="graph" transform="scale(1 1) rotate(0) translate(4 271)">
<title>inheritancef4cea304dd</title>
<polygon fill="white" stroke="white" points="-4,5 -4,-271 1121,-271 1121,5 -4,5"/>
<!-- topo.base.cf.CFProjection -->
<g id="node1" class="node"><title>topo.base.cf.CFProjection</title>
<polygon fill="none" stroke="black" stroke-width="0.5" points="869,-172.5 733,-172.5 733,-151.5 869,-151.5 869,-172.5"/>
<text text-anchor="middle" x="801" y="-159.5" font-family="Vera" font-size="10.00">topo.base.cf.CFProjection</text>
</g>
<!-- topo.base.cf.ResizableCFProjection -->
<g id="node4" class="node"><title>topo.base.cf.ResizableCFProjection</title>
<polygon fill="none" stroke="black" stroke-width="0.5" points="1116,-172.5 934,-172.5 934,-151.5 1116,-151.5 1116,-172.5"/>
<text text-anchor="middle" x="1025" y="-159.5" font-family="Vera" font-size="10.00">topo.base.cf.ResizableCFProjection</text>
</g>
<!-- topo.base.cf.CFProjection&#45;&gt;topo.base.cf.ResizableCFProjection -->
<g id="edge4" class="edge"><title>topo.base.cf.CFProjection&#45;&gt;topo.base.cf.ResizableCFProjection</title>
<path fill="none" stroke="black" stroke-width="0.5" d="M869.73,-162C888.343,-162 908.841,-162 928.67,-162"/>
<polygon fill="black" stroke="black" points="928.696,-163.75 933.696,-162 928.696,-160.25 928.696,-163.75"/>
</g>
<!-- topo.base.projection.Projection -->
<g id="node2" class="node"><title>topo.base.projection.Projection</title>
<polygon fill="none" stroke="black" stroke-width="0.5" points="667,-172.5 503,-172.5 503,-151.5 667,-151.5 667,-172.5"/>
<text text-anchor="middle" x="585" y="-159.5" font-family="Vera" font-size="10.00">topo.base.projection.Projection</text>
</g>
<!-- topo.base.projection.Projection&#45;&gt;topo.base.cf.CFProjection -->
<g id="edge2" class="edge"><title>topo.base.projection.Projection&#45;&gt;topo.base.cf.CFProjection</title>
<path fill="none" stroke="black" stroke-width="0.5" d="M667.585,-162C687.071,-162 707.728,-162 726.817,-162"/>
<polygon fill="black" stroke="black" points="727.157,-163.75 732.157,-162 727.157,-160.25 727.157,-163.75"/>
</g>
<!-- param.parameterized.Parameterized -->
<g id="node6" class="node"><title>param.parameterized.Parameterized</title>
<polygon fill="none" stroke="black" stroke-width="0.5" points="194,-153.5 5.68434e-14,-153.5 0,-132.5 194,-132.5 194,-153.5"/>
<text text-anchor="middle" x="97" y="-140.5" font-family="Vera" font-size="10.00">param.parameterized.Parameterized</text>
</g>
<!-- topo.base.cf.CFPResponseFn -->
<g id="node8" class="node"><title>topo.base.cf.CFPResponseFn</title>
<polygon fill="none" stroke="black" stroke-width="0.5" points="424,-267.5 272,-267.5 272,-246.5 424,-246.5 424,-267.5"/>
<text text-anchor="middle" x="348" y="-254.5" font-family="Vera" font-size="10.00">topo.base.cf.CFPResponseFn</text>
</g>
<!-- param.parameterized.Parameterized&#45;&gt;topo.base.cf.CFPResponseFn -->
<g id="edge6" class="edge"><title>param.parameterized.Parameterized&#45;&gt;topo.base.cf.CFPResponseFn</title>
<path fill="none" stroke="black" stroke-width="0.5" d="M178.93,-153.004C184.301,-155.453 189.394,-158.419 194,-162 223.505,-184.943 200.111,-215.559 230,-238 240.547,-245.919 253.131,-251.077 266.091,-254.357"/>
<polygon fill="black" stroke="black" points="266,-256.133 271.267,-255.566 266.796,-252.724 266,-256.133"/>
</g>
<!-- topo.base.simulation.EventProcessor -->
<g id="node10" class="node"><title>topo.base.simulation.EventProcessor</title>
<polygon fill="none" stroke="black" stroke-width="0.5" points="445,-229.5 251,-229.5 251,-208.5 445,-208.5 445,-229.5"/>
<text text-anchor="middle" x="348" y="-216.5" font-family="Vera" font-size="10.00">topo.base.simulation.EventProcessor</text>
</g>
<!-- param.parameterized.Parameterized&#45;&gt;topo.base.simulation.EventProcessor -->
<g id="edge8" class="edge"><title>param.parameterized.Parameterized&#45;&gt;topo.base.simulation.EventProcessor</title>
<path fill="none" stroke="black" stroke-width="0.5" d="M172.778,-153.022C180.177,-155.411 187.384,-158.361 194,-162 214.384,-173.213 209.43,-189.133 230,-200 235.303,-202.802 240.914,-205.213 246.694,-207.286"/>
<polygon fill="black" stroke="black" points="246.289,-208.997 251.586,-208.95 247.415,-205.683 246.289,-208.997"/>
</g>
<!-- topo.base.simulation.EPConnection -->
<g id="node16" class="node"><title>topo.base.simulation.EPConnection</title>
<polygon fill="none" stroke="black" stroke-width="0.5" points="441,-153.5 255,-153.5 255,-132.5 441,-132.5 441,-153.5"/>
<text text-anchor="middle" x="348" y="-140.5" font-family="Vera" font-size="10.00">topo.base.simulation.EPConnection</text>
</g>
<!-- param.parameterized.Parameterized&#45;&gt;topo.base.simulation.EPConnection -->
<g id="edge12" class="edge"><title>param.parameterized.Parameterized&#45;&gt;topo.base.simulation.EPConnection</title>
<path fill="none" stroke="black" stroke-width="0.5" d="M194.043,-143C212.327,-143 231.462,-143 249.781,-143"/>
<polygon fill="black" stroke="black" points="249.926,-144.75 254.926,-143 249.926,-141.25 249.926,-144.75"/>
</g>
<!-- topo.base.cf.CFPLearningFn -->
<g id="node21" class="node"><title>topo.base.cf.CFPLearningFn</title>
<polygon fill="none" stroke="black" stroke-width="0.5" points="422,-115.5 274,-115.5 274,-94.5 422,-94.5 422,-115.5"/>
<text text-anchor="middle" x="348" y="-102.5" font-family="Vera" font-size="10.00">topo.base.cf.CFPLearningFn</text>
</g>
<!-- param.parameterized.Parameterized&#45;&gt;topo.base.cf.CFPLearningFn -->
<g id="edge32" class="edge"><title>param.parameterized.Parameterized&#45;&gt;topo.base.cf.CFPLearningFn</title>
<path fill="none" stroke="black" stroke-width="0.5" d="M163.276,-132.966C198.161,-127.685 240.968,-121.204 276.587,-115.811"/>
<polygon fill="black" stroke="black" points="277.107,-117.503 281.789,-115.024 276.583,-114.042 277.107,-117.503"/>
</g>
<!-- topo.base.cf.CFPOutputFn -->
<g id="node25" class="node"><title>topo.base.cf.CFPOutputFn</title>
<polygon fill="none" stroke="black" stroke-width="0.5" points="418,-58.5 278,-58.5 278,-37.5 418,-37.5 418,-58.5"/>
<text text-anchor="middle" x="348" y="-45.5" font-family="Vera" font-size="10.00">topo.base.cf.CFPOutputFn</text>
</g>
<!-- param.parameterized.Parameterized&#45;&gt;topo.base.cf.CFPOutputFn -->
<g id="edge34" class="edge"><title>param.parameterized.Parameterized&#45;&gt;topo.base.cf.CFPOutputFn</title>
<path fill="none" stroke="black" stroke-width="0.5" d="M118.865,-132.882C145.013,-120.958 190.24,-100.885 230,-86 256.062,-76.243 285.901,-66.648 309.052,-59.5404"/>
<polygon fill="black" stroke="black" points="309.617,-61.1977 313.886,-58.0623 308.593,-57.8506 309.617,-61.1977"/>
</g>
<!-- imagen.sheetcoords.SheetCoordinateSystem -->
<g id="node7" class="node"><title>imagen.sheetcoords.SheetCoordinateSystem</title>
<polygon fill="none" stroke="black" stroke-width="0.5" points="466,-191.5 230,-191.5 230,-170.5 466,-170.5 466,-191.5"/>
<text text-anchor="middle" x="348" y="-178.5" font-family="Vera" font-size="10.00">imagen.sheetcoords.SheetCoordinateSystem</text>
</g>
<!-- topo.base.sheet.Sheet -->
<g id="node14" class="node"><title>topo.base.sheet.Sheet</title>
<polygon fill="none" stroke="black" stroke-width="0.5" points="648,-219.5 522,-219.5 522,-198.5 648,-198.5 648,-219.5"/>
<text text-anchor="middle" x="585" y="-206.5" font-family="Vera" font-size="10.00">topo.base.sheet.Sheet</text>
</g>
<!-- imagen.sheetcoords.SheetCoordinateSystem&#45;&gt;topo.base.sheet.Sheet -->
<g id="edge28" class="edge"><title>imagen.sheetcoords.SheetCoordinateSystem&#45;&gt;topo.base.sheet.Sheet</title>
<path fill="none" stroke="black" stroke-width="0.5" d="M432.893,-191.03C460.412,-194.281 490.567,-197.843 516.718,-200.933"/>
<polygon fill="black" stroke="black" points="516.722,-202.696 521.893,-201.544 517.133,-199.22 516.722,-202.696"/>
</g>
<!-- topo.base.cf.CFPRF_Plugin -->
<g id="node30" class="node"><title>topo.base.cf.CFPRF_Plugin</title>
<polygon fill="none" stroke="black" stroke-width="0.5" points="655,-267.5 515,-267.5 515,-246.5 655,-246.5 655,-267.5"/>
<text text-anchor="middle" x="585" y="-254.5" font-family="Vera" font-size="10.00">topo.base.cf.CFPRF_Plugin</text>
</g>
<!-- topo.base.cf.CFPResponseFn&#45;&gt;topo.base.cf.CFPRF_Plugin -->
<g id="edge24" class="edge"><title>topo.base.cf.CFPResponseFn&#45;&gt;topo.base.cf.CFPRF_Plugin</title>
<path fill="none" stroke="black" stroke-width="0.5" d="M424.62,-257C451.738,-257 482.215,-257 509.259,-257"/>
<polygon fill="black" stroke="black" points="509.268,-258.75 514.268,-257 509.268,-255.25 509.268,-258.75"/>
</g>
<!-- topo.base.simulation.EventProcessor&#45;&gt;topo.base.sheet.Sheet -->
<g id="edge26" class="edge"><title>topo.base.simulation.EventProcessor&#45;&gt;topo.base.sheet.Sheet</title>
<path fill="none" stroke="black" stroke-width="0.5" d="M445.081,-214.904C469.206,-213.886 494.557,-212.816 516.952,-211.871"/>
<polygon fill="black" stroke="black" points="517.059,-213.618 521.981,-211.659 516.911,-210.121 517.059,-213.618"/>
</g>
<!-- topo.base.cf.CFIter -->
<g id="node12" class="node"><title>topo.base.cf.CFIter</title>
<polygon fill="none" stroke="black" stroke-width="0.5" points="150,-191.5 44,-191.5 44,-170.5 150,-170.5 150,-191.5"/>
<text text-anchor="middle" x="97" y="-178.5" font-family="Vera" font-size="10.00">topo.base.cf.CFIter</text>
</g>
<!-- topo.base.projection.ProjectionSheet -->
<g id="node13" class="node"><title>topo.base.projection.ProjectionSheet</title>
<polygon fill="none" stroke="black" stroke-width="0.5" points="898,-219.5 704,-219.5 704,-198.5 898,-198.5 898,-219.5"/>
<text text-anchor="middle" x="801" y="-206.5" font-family="Vera" font-size="10.00">topo.base.projection.ProjectionSheet</text>
</g>
<!-- topo.base.cf.CFSheet -->
<g id="node18" class="node"><title>topo.base.cf.CFSheet</title>
<polygon fill="none" stroke="black" stroke-width="0.5" points="1084,-219.5 966,-219.5 966,-198.5 1084,-198.5 1084,-219.5"/>
<text text-anchor="middle" x="1025" y="-206.5" font-family="Vera" font-size="10.00">topo.base.cf.CFSheet</text>
</g>
<!-- topo.base.projection.ProjectionSheet&#45;&gt;topo.base.cf.CFSheet -->
<g id="edge14" class="edge"><title>topo.base.projection.ProjectionSheet&#45;&gt;topo.base.cf.CFSheet</title>
<path fill="none" stroke="black" stroke-width="0.5" d="M898.272,-209C919.101,-209 940.622,-209 959.885,-209"/>
<polygon fill="black" stroke="black" points="960.255,-210.75 965.255,-209 960.255,-207.25 960.255,-210.75"/>
</g>
<!-- topo.base.sheet.Sheet&#45;&gt;topo.base.projection.ProjectionSheet -->
<g id="edge10" class="edge"><title>topo.base.sheet.Sheet&#45;&gt;topo.base.projection.ProjectionSheet</title>
<path fill="none" stroke="black" stroke-width="0.5" d="M648.057,-209C663.856,-209 681.216,-209 698.394,-209"/>
<polygon fill="black" stroke="black" points="698.717,-210.75 703.717,-209 698.717,-207.25 698.717,-210.75"/>
</g>
<!-- topo.base.simulation.EPConnection&#45;&gt;topo.base.projection.Projection -->
<g id="edge18" class="edge"><title>topo.base.simulation.EPConnection&#45;&gt;topo.base.projection.Projection</title>
<path fill="none" stroke="black" stroke-width="0.5" d="M441.328,-150.482C459.681,-151.953 478.878,-153.492 497.046,-154.949"/>
<polygon fill="black" stroke="black" points="497.018,-156.702 502.142,-155.357 497.298,-153.213 497.018,-156.702"/>
</g>
<!-- topo.base.cf.CFPLF_Identity -->
<g id="node20" class="node"><title>topo.base.cf.CFPLF_Identity</title>
<polygon fill="none" stroke="black" stroke-width="0.5" points="658,-134.5 512,-134.5 512,-113.5 658,-113.5 658,-134.5"/>
<text text-anchor="middle" x="585" y="-121.5" font-family="Vera" font-size="10.00">topo.base.cf.CFPLF_Identity</text>
</g>
<!-- topo.base.cf.CFPLearningFn&#45;&gt;topo.base.cf.CFPLF_Identity -->
<g id="edge16" class="edge"><title>topo.base.cf.CFPLearningFn&#45;&gt;topo.base.cf.CFPLF_Identity</title>
<path fill="none" stroke="black" stroke-width="0.5" d="M422.663,-110.986C449.231,-113.116 479.222,-115.52 506.131,-117.677"/>
<polygon fill="black" stroke="black" points="505.994,-119.422 511.118,-118.077 506.274,-115.933 505.994,-119.422"/>
</g>
<!-- topo.base.cf.CFPLF_Plugin -->
<g id="node35" class="node"><title>topo.base.cf.CFPLF_Plugin</title>
<polygon fill="none" stroke="black" stroke-width="0.5" points="655,-96.5 515,-96.5 515,-75.5 655,-75.5 655,-96.5"/>
<text text-anchor="middle" x="585" y="-83.5" font-family="Vera" font-size="10.00">topo.base.cf.CFPLF_Plugin</text>
</g>
<!-- topo.base.cf.CFPLearningFn&#45;&gt;topo.base.cf.CFPLF_Plugin -->
<g id="edge30" class="edge"><title>topo.base.cf.CFPLearningFn&#45;&gt;topo.base.cf.CFPLF_Plugin</title>
<path fill="none" stroke="black" stroke-width="0.5" d="M422.663,-99.0144C450.381,-96.7923 481.824,-94.2715 509.606,-92.0442"/>
<polygon fill="black" stroke="black" points="509.906,-93.7759 514.75,-91.6319 509.626,-90.2871 509.906,-93.7759"/>
</g>
<!-- topo.base.cf.CFPOF_Identity -->
<g id="node24" class="node"><title>topo.base.cf.CFPOF_Identity</title>
<polygon fill="none" stroke="black" stroke-width="0.5" points="659,-58.5 511,-58.5 511,-37.5 659,-37.5 659,-58.5"/>
<text text-anchor="middle" x="585" y="-45.5" font-family="Vera" font-size="10.00">topo.base.cf.CFPOF_Identity</text>
</g>
<!-- topo.base.cf.CFPOutputFn&#45;&gt;topo.base.cf.CFPOF_Identity -->
<g id="edge20" class="edge"><title>topo.base.cf.CFPOutputFn&#45;&gt;topo.base.cf.CFPOF_Identity</title>
<path fill="none" stroke="black" stroke-width="0.5" d="M418.146,-48C445.516,-48 477.04,-48 505.266,-48"/>
<polygon fill="black" stroke="black" points="505.496,-49.7501 510.496,-48 505.496,-46.2501 505.496,-49.7501"/>
</g>
<!-- topo.base.cf.CFPOF_Plugin -->
<g id="node27" class="node"><title>topo.base.cf.CFPOF_Plugin</title>
<polygon fill="none" stroke="black" stroke-width="0.5" points="656,-20.5 514,-20.5 514,0.5 656,0.5 656,-20.5"/>
<text text-anchor="middle" x="585" y="-7.5" font-family="Vera" font-size="10.00">topo.base.cf.CFPOF_Plugin</text>
</g>
<!-- topo.base.cf.CFPOutputFn&#45;&gt;topo.base.cf.CFPOF_Plugin -->
<g id="edge22" class="edge"><title>topo.base.cf.CFPOutputFn&#45;&gt;topo.base.cf.CFPOF_Plugin</title>
<path fill="none" stroke="black" stroke-width="0.5" d="M410.579,-37.9662C443.384,-32.7064 483.607,-26.2571 517.157,-20.8779"/>
<polygon fill="black" stroke="black" points="517.822,-22.5436 522.482,-20.024 517.268,-19.0878 517.822,-22.5436"/>
</g>
<!-- topo.base.cf.ConnectionField -->
<g id="node29" class="node"><title>topo.base.cf.ConnectionField</title>
<polygon fill="none" stroke="black" stroke-width="0.5" points="173,-229.5 21,-229.5 21,-208.5 173,-208.5 173,-229.5"/>
<text text-anchor="middle" x="97" y="-216.5" font-family="Vera" font-size="10.00">topo.base.cf.ConnectionField</text>
</g>
<!-- topo.base.cf.NullCFError -->
<g id="node34" class="node"><title>topo.base.cf.NullCFError</title>
<polygon fill="none" stroke="black" stroke-width="0.5" points="162,-267.5 32,-267.5 32,-246.5 162,-246.5 162,-267.5"/>
<text text-anchor="middle" x="97" y="-254.5" font-family="Vera" font-size="10.00">topo.base.cf.NullCFError</text>
</g>
</g>
</svg>
