<?xml version="1.0" encoding="UTF-8" standalone="no"?>
<!DOCTYPE svg PUBLIC "-//W3C//DTD SVG 1.1//EN"
 "http://www.w3.org/Graphics/SVG/1.1/DTD/svg11.dtd">
<!-- Generated by graphviz version 2.26.3 (20100126.1600)
 -->
<!-- Title: inheritance0bce68b9cf Pages: 1 -->
<svg width="1872pt" height="408pt"
 viewBox="0.00 0.00 1872.00 408.00" xmlns="http://www.w3.org/2000/svg" xmlns:xlink="http://www.w3.org/1999/xlink">
<g id="graph1" class="graph" transform="scale(1 1) rotate(0) translate(4 404)">
<title>inheritance0bce68b9cf</title>
<polygon fill="white" stroke="white" points="-4,5 -4,-404 1869,-404 1869,5 -4,5"/>
<!-- topo.command.analysis.measure_frequency_preference -->
<g id="node1" class="node"><title>topo.command.analysis.measure_frequency_preference</title>
<polygon fill="none" stroke="black" stroke-width="0.5" points="1523,-305.5 1237,-305.5 1237,-284.5 1523,-284.5 1523,-305.5"/>
<text text-anchor="middle" x="1380" y="-292.5" font-family="Vera" font-size="10.00">topo.command.analysis.measure_frequency_preference</text>
</g>
<!-- topo.analysis.featureresponses.MeasureResponseCommand -->
<g id="node2" class="node"><title>topo.analysis.featureresponses.MeasureResponseCommand</title>
<polygon fill="none" stroke="black" stroke-width="0.5" points="1165,-210.5 859,-210.5 859,-189.5 1165,-189.5 1165,-210.5"/>
<text text-anchor="middle" x="1012" y="-197.5" font-family="Vera" font-size="10.00">topo.analysis.featureresponses.MeasureResponseCommand</text>
</g>
<!-- topo.analysis.featureresponses.MeasureResponseCommand&#45;&gt;topo.command.analysis.measure_frequency_preference -->
<g id="edge2" class="edge"><title>topo.analysis.featureresponses.MeasureResponseCommand&#45;&gt;topo.command.analysis.measure_frequency_preference</title>
<path fill="none" stroke="black" stroke-width="0.5" d="M1088.92,-210.042C1114.64,-215.672 1142.68,-224.423 1166,-238 1186.11,-249.704 1181.15,-265.685 1202,-276 1211.22,-280.559 1221.02,-284.257 1231.12,-287.241"/>
<polygon fill="black" stroke="black" points="1230.8,-288.971 1236.09,-288.648 1231.76,-285.603 1230.8,-288.971"/>
</g>
<!-- topo.analysis.featureresponses.PositionMeasurementCommand -->
<g id="node5" class="node"><title>topo.analysis.featureresponses.PositionMeasurementCommand</title>
<polygon fill="none" stroke="black" stroke-width="0.5" points="1542,-267.5 1218,-267.5 1218,-246.5 1542,-246.5 1542,-267.5"/>
<text text-anchor="middle" x="1380" y="-254.5" font-family="Vera" font-size="10.00">topo.analysis.featureresponses.PositionMeasurementCommand</text>
</g>
<!-- topo.analysis.featureresponses.MeasureResponseCommand&#45;&gt;topo.analysis.featureresponses.PositionMeasurementCommand -->
<g id="edge28" class="edge"><title>topo.analysis.featureresponses.MeasureResponseCommand&#45;&gt;topo.analysis.featureresponses.PositionMeasurementCommand</title>
<path fill="none" stroke="black" stroke-width="0.5" d="M1056.33,-210.056C1094.71,-218.475 1151.79,-230.315 1202,-238 1222.62,-241.156 1244.66,-243.963 1265.97,-246.387"/>
<polygon fill="black" stroke="black" points="1265.91,-248.142 1271.07,-246.963 1266.3,-244.664 1265.91,-248.142"/>
</g>
<!-- topo.analysis.featureresponses.SinusoidalMeasureResponseCommand -->
<g id="node8" class="node"><title>topo.analysis.featureresponses.SinusoidalMeasureResponseCommand</title>
<polygon fill="none" stroke="black" stroke-width="0.5" points="1558,-229.5 1202,-229.5 1202,-208.5 1558,-208.5 1558,-229.5"/>
<text text-anchor="middle" x="1380" y="-216.5" font-family="Vera" font-size="10.00">topo.analysis.featureresponses.SinusoidalMeasureResponseCommand</text>
</g>
<!-- topo.analysis.featureresponses.MeasureResponseCommand&#45;&gt;topo.analysis.featureresponses.SinusoidalMeasureResponseCommand -->
<g id="edge60" class="edge"><title>topo.analysis.featureresponses.MeasureResponseCommand&#45;&gt;topo.analysis.featureresponses.SinusoidalMeasureResponseCommand</title>
<path fill="none" stroke="black" stroke-width="0.5" d="M1165.67,-207.934C1175.91,-208.463 1186.29,-208.999 1196.66,-209.534"/>
<polygon fill="black" stroke="black" points="1196.67,-211.287 1201.75,-209.797 1196.85,-207.792 1196.67,-211.287"/>
</g>
<!-- topo.analysis.featureresponses.SingleInputResponseCommand -->
<g id="node31" class="node"><title>topo.analysis.featureresponses.SingleInputResponseCommand</title>
<polygon fill="none" stroke="black" stroke-width="0.5" points="1539,-191.5 1221,-191.5 1221,-170.5 1539,-170.5 1539,-191.5"/>
<text text-anchor="middle" x="1380" y="-178.5" font-family="Vera" font-size="10.00">topo.analysis.featureresponses.SingleInputResponseCommand</text>
</g>
<!-- topo.analysis.featureresponses.MeasureResponseCommand&#45;&gt;topo.analysis.featureresponses.SingleInputResponseCommand -->
<g id="edge26" class="edge"><title>topo.analysis.featureresponses.MeasureResponseCommand&#45;&gt;topo.analysis.featureresponses.SingleInputResponseCommand</title>
<path fill="none" stroke="black" stroke-width="0.5" d="M1165.67,-192.066C1182.01,-191.222 1198.68,-190.362 1215.14,-189.512"/>
<polygon fill="black" stroke="black" points="1215.34,-191.254 1220.25,-189.248 1215.16,-187.758 1215.34,-191.254"/>
</g>
<!-- topo.command.analysis.measure_latency_preference -->
<g id="node59" class="node"><title>topo.command.analysis.measure_latency_preference</title>
<polygon fill="none" stroke="black" stroke-width="0.5" points="1517,-153.5 1243,-153.5 1243,-132.5 1517,-132.5 1517,-153.5"/>
<text text-anchor="middle" x="1380" y="-140.5" font-family="Vera" font-size="10.00">topo.command.analysis.measure_latency_preference</text>
</g>
<!-- topo.analysis.featureresponses.MeasureResponseCommand&#45;&gt;topo.command.analysis.measure_latency_preference -->
<g id="edge56" class="edge"><title>topo.analysis.featureresponses.MeasureResponseCommand&#45;&gt;topo.command.analysis.measure_latency_preference</title>
<path fill="none" stroke="black" stroke-width="0.5" d="M1056.33,-189.944C1094.71,-181.525 1151.79,-169.685 1202,-162 1222.62,-158.844 1244.66,-156.037 1265.97,-153.613"/>
<polygon fill="black" stroke="black" points="1266.3,-155.336 1271.07,-153.037 1265.91,-151.858 1266.3,-155.336"/>
</g>
<!-- topo.command.analysis.measure_log_frequency_preference -->
<g id="node64" class="node"><title>topo.command.analysis.measure_log_frequency_preference</title>
<polygon fill="none" stroke="black" stroke-width="0.5" points="1533,-115.5 1227,-115.5 1227,-94.5 1533,-94.5 1533,-115.5"/>
<text text-anchor="middle" x="1380" y="-102.5" font-family="Vera" font-size="10.00">topo.command.analysis.measure_log_frequency_preference</text>
</g>
<!-- topo.analysis.featureresponses.MeasureResponseCommand&#45;&gt;topo.command.analysis.measure_log_frequency_preference -->
<g id="edge64" class="edge"><title>topo.analysis.featureresponses.MeasureResponseCommand&#45;&gt;topo.command.analysis.measure_log_frequency_preference</title>
<path fill="none" stroke="black" stroke-width="0.5" d="M1031.92,-189.903C1065.86,-173.184 1137.52,-140.013 1202,-124 1215.03,-120.764 1228.73,-118.08 1242.5,-115.852"/>
<polygon fill="black" stroke="black" points="1242.91,-117.559 1247.58,-115.052 1242.37,-114.102 1242.91,-117.559"/>
</g>
<!-- topo.command.analysis.measure_corner_or_pref -->
<g id="node4" class="node"><title>topo.command.analysis.measure_corner_or_pref</title>
<polygon fill="none" stroke="black" stroke-width="0.5" points="1855,-400.5 1603,-400.5 1603,-379.5 1855,-379.5 1855,-400.5"/>
<text text-anchor="middle" x="1729" y="-387.5" font-family="Vera" font-size="10.00">topo.command.analysis.measure_corner_or_pref</text>
</g>
<!-- topo.analysis.featureresponses.PositionMeasurementCommand&#45;&gt;topo.command.analysis.measure_corner_or_pref -->
<g id="edge4" class="edge"><title>topo.analysis.featureresponses.PositionMeasurementCommand&#45;&gt;topo.command.analysis.measure_corner_or_pref</title>
<path fill="none" stroke="black" stroke-width="0.5" d="M1542.37,-265.986C1547.84,-268.881 1553.08,-272.202 1558,-276 1593.74,-303.593 1558.73,-342.813 1594,-371 1596.92,-373.336 1600,-375.457 1603.2,-377.379"/>
<polygon fill="black" stroke="black" points="1602.43,-378.95 1607.64,-379.878 1604.14,-375.9 1602.43,-378.95"/>
</g>
<!-- topo.command.analysis.measure_corner_angle_pref -->
<g id="node40" class="node"><title>topo.command.analysis.measure_corner_angle_pref</title>
<polygon fill="none" stroke="black" stroke-width="0.5" points="1863,-362.5 1595,-362.5 1595,-341.5 1863,-341.5 1863,-362.5"/>
<text text-anchor="middle" x="1729" y="-349.5" font-family="Vera" font-size="10.00">topo.command.analysis.measure_corner_angle_pref</text>
</g>
<!-- topo.analysis.featureresponses.PositionMeasurementCommand&#45;&gt;topo.command.analysis.measure_corner_angle_pref -->
<g id="edge36" class="edge"><title>topo.analysis.featureresponses.PositionMeasurementCommand&#45;&gt;topo.command.analysis.measure_corner_angle_pref</title>
<path fill="none" stroke="black" stroke-width="0.5" d="M1541.03,-267.105C1546.91,-269.682 1552.59,-272.632 1558,-276 1583.44,-291.837 1568.83,-316.739 1594,-333 1597.94,-335.547 1602.08,-337.813 1606.37,-339.827"/>
<polygon fill="black" stroke="black" points="1605.79,-341.486 1611.07,-341.915 1607.21,-338.287 1605.79,-341.486"/>
</g>
<!-- topo.command.analysis.measure_hue_pref -->
<g id="node7" class="node"><title>topo.command.analysis.measure_hue_pref</title>
<polygon fill="none" stroke="black" stroke-width="0.5" points="1841,-324.5 1617,-324.5 1617,-303.5 1841,-303.5 1841,-324.5"/>
<text text-anchor="middle" x="1729" y="-311.5" font-family="Vera" font-size="10.00">topo.command.analysis.measure_hue_pref</text>
</g>
<!-- topo.analysis.featureresponses.SinusoidalMeasureResponseCommand&#45;&gt;topo.command.analysis.measure_hue_pref -->
<g id="edge6" class="edge"><title>topo.analysis.featureresponses.SinusoidalMeasureResponseCommand&#45;&gt;topo.command.analysis.measure_hue_pref</title>
<path fill="none" stroke="black" stroke-width="0.5" d="M1541.03,-229.105C1546.91,-231.682 1552.59,-234.632 1558,-238 1583.44,-253.837 1568.83,-278.739 1594,-295 1599.62,-298.634 1605.65,-301.696 1611.93,-304.27"/>
<polygon fill="black" stroke="black" points="1611.48,-305.972 1616.78,-306.144 1612.74,-302.708 1611.48,-305.972"/>
</g>
<!-- topo.command.analysis.measure_od_pref -->
<g id="node11" class="node"><title>topo.command.analysis.measure_od_pref</title>
<polygon fill="none" stroke="black" stroke-width="0.5" points="1838,-286.5 1620,-286.5 1620,-265.5 1838,-265.5 1838,-286.5"/>
<text text-anchor="middle" x="1729" y="-273.5" font-family="Vera" font-size="10.00">topo.command.analysis.measure_od_pref</text>
</g>
<!-- topo.analysis.featureresponses.SinusoidalMeasureResponseCommand&#45;&gt;topo.command.analysis.measure_od_pref -->
<g id="edge8" class="edge"><title>topo.analysis.featureresponses.SinusoidalMeasureResponseCommand&#45;&gt;topo.command.analysis.measure_od_pref</title>
<path fill="none" stroke="black" stroke-width="0.5" d="M1520.93,-229.009C1533.59,-231.417 1546.11,-234.374 1558,-238 1575.3,-243.277 1576.79,-251.434 1594,-257 1603.68,-260.129 1613.91,-262.743 1624.24,-264.926"/>
<polygon fill="black" stroke="black" points="1624.06,-266.677 1629.31,-265.964 1624.76,-263.248 1624.06,-266.677"/>
</g>
<!-- topo.command.analysis.measure_or_pref -->
<g id="node16" class="node"><title>topo.command.analysis.measure_or_pref</title>
<polygon fill="none" stroke="black" stroke-width="0.5" points="1837,-248.5 1621,-248.5 1621,-227.5 1837,-227.5 1837,-248.5"/>
<text text-anchor="middle" x="1729" y="-235.5" font-family="Vera" font-size="10.00">topo.command.analysis.measure_or_pref</text>
</g>
<!-- topo.analysis.featureresponses.SinusoidalMeasureResponseCommand&#45;&gt;topo.command.analysis.measure_or_pref -->
<g id="edge12" class="edge"><title>topo.analysis.featureresponses.SinusoidalMeasureResponseCommand&#45;&gt;topo.command.analysis.measure_or_pref</title>
<path fill="none" stroke="black" stroke-width="0.5" d="M1558.08,-228.695C1577.59,-229.757 1597.03,-230.816 1615.45,-231.818"/>
<polygon fill="black" stroke="black" points="1615.53,-233.575 1620.61,-232.099 1615.72,-230.08 1615.53,-233.575"/>
</g>
<!-- topo.command.analysis.measure_dr_pref -->
<g id="node20" class="node"><title>topo.command.analysis.measure_dr_pref</title>
<polygon fill="none" stroke="black" stroke-width="0.5" points="1837,-210.5 1621,-210.5 1621,-189.5 1837,-189.5 1837,-210.5"/>
<text text-anchor="middle" x="1729" y="-197.5" font-family="Vera" font-size="10.00">topo.command.analysis.measure_dr_pref</text>
</g>
<!-- topo.analysis.featureresponses.SinusoidalMeasureResponseCommand&#45;&gt;topo.command.analysis.measure_dr_pref -->
<g id="edge16" class="edge"><title>topo.analysis.featureresponses.SinusoidalMeasureResponseCommand&#45;&gt;topo.command.analysis.measure_dr_pref</title>
<path fill="none" stroke="black" stroke-width="0.5" d="M1558.08,-209.305C1577.59,-208.243 1597.03,-207.184 1615.45,-206.182"/>
<polygon fill="black" stroke="black" points="1615.72,-207.92 1620.61,-205.901 1615.53,-204.425 1615.72,-207.92"/>
</g>
<!-- topo.command.analysis.measure_phasedisparity -->
<g id="node50" class="node"><title>topo.command.analysis.measure_phasedisparity</title>
<polygon fill="none" stroke="black" stroke-width="0.5" points="1855,-172.5 1603,-172.5 1603,-151.5 1855,-151.5 1855,-172.5"/>
<text text-anchor="middle" x="1729" y="-159.5" font-family="Vera" font-size="10.00">topo.command.analysis.measure_phasedisparity</text>
</g>
<!-- topo.analysis.featureresponses.SinusoidalMeasureResponseCommand&#45;&gt;topo.command.analysis.measure_phasedisparity -->
<g id="edge46" class="edge"><title>topo.analysis.featureresponses.SinusoidalMeasureResponseCommand&#45;&gt;topo.command.analysis.measure_phasedisparity</title>
<path fill="none" stroke="black" stroke-width="0.5" d="M1520.93,-208.991C1533.59,-206.583 1546.11,-203.626 1558,-200 1575.3,-194.723 1576.79,-186.566 1594,-181 1603.68,-177.871 1613.91,-175.257 1624.24,-173.074"/>
<polygon fill="black" stroke="black" points="1624.76,-174.752 1629.31,-172.036 1624.06,-171.323 1624.76,-174.752"/>
</g>
<!-- topo.command.analysis.measure_sine_pref -->
<g id="node52" class="node"><title>topo.command.analysis.measure_sine_pref</title>
<polygon fill="none" stroke="black" stroke-width="0.5" points="1842,-134.5 1616,-134.5 1616,-113.5 1842,-113.5 1842,-134.5"/>
<text text-anchor="middle" x="1729" y="-121.5" font-family="Vera" font-size="10.00">topo.command.analysis.measure_sine_pref</text>
</g>
<!-- topo.analysis.featureresponses.SinusoidalMeasureResponseCommand&#45;&gt;topo.command.analysis.measure_sine_pref -->
<g id="edge48" class="edge"><title>topo.analysis.featureresponses.SinusoidalMeasureResponseCommand&#45;&gt;topo.command.analysis.measure_sine_pref</title>
<path fill="none" stroke="black" stroke-width="0.5" d="M1541.03,-208.895C1546.91,-206.318 1552.59,-203.368 1558,-200 1583.44,-184.163 1568.83,-159.261 1594,-143 1599.28,-139.588 1604.92,-136.68 1610.78,-134.207"/>
<polygon fill="black" stroke="black" points="1611.76,-135.703 1615.76,-132.231 1610.47,-132.45 1611.76,-135.703"/>
</g>
<!-- topo.command.analysis.measure_second_or_pref -->
<g id="node54" class="node"><title>topo.command.analysis.measure_second_or_pref</title>
<polygon fill="none" stroke="black" stroke-width="0.5" points="1857,-96.5 1601,-96.5 1601,-75.5 1857,-75.5 1857,-96.5"/>
<text text-anchor="middle" x="1729" y="-83.5" font-family="Vera" font-size="10.00">topo.command.analysis.measure_second_or_pref</text>
</g>
<!-- topo.analysis.featureresponses.SinusoidalMeasureResponseCommand&#45;&gt;topo.command.analysis.measure_second_or_pref -->
<g id="edge50" class="edge"><title>topo.analysis.featureresponses.SinusoidalMeasureResponseCommand&#45;&gt;topo.command.analysis.measure_second_or_pref</title>
<path fill="none" stroke="black" stroke-width="0.5" d="M1544.41,-208.908C1549.15,-206.282 1553.69,-203.324 1558,-200 1593.74,-172.407 1558.73,-133.187 1594,-105 1596.92,-102.664 1600,-100.543 1603.2,-98.6215"/>
<polygon fill="black" stroke="black" points="1604.14,-100.1 1607.64,-96.122 1602.43,-97.0502 1604.14,-100.1"/>
</g>
<!-- param.parameterized.Parameterized -->
<g id="node10" class="node"><title>param.parameterized.Parameterized</title>
<polygon fill="none" stroke="black" stroke-width="0.5" points="194,-77.5 5.68434e-14,-77.5 0,-56.5 194,-56.5 194,-77.5"/>
<text text-anchor="middle" x="97" y="-64.5" font-family="Vera" font-size="10.00">param.parameterized.Parameterized</text>
</g>
<!-- param.parameterized.ParameterizedFunction -->
<g id="node18" class="node"><title>param.parameterized.ParameterizedFunction</title>
<polygon fill="none" stroke="black" stroke-width="0.5" points="464,-172.5 230,-172.5 230,-151.5 464,-151.5 464,-172.5"/>
<text text-anchor="middle" x="347" y="-159.5" font-family="Vera" font-size="10.00">param.parameterized.ParameterizedFunction</text>
</g>
<!-- param.parameterized.Parameterized&#45;&gt;param.parameterized.ParameterizedFunction -->
<g id="edge14" class="edge"><title>param.parameterized.Parameterized&#45;&gt;param.parameterized.ParameterizedFunction</title>
<path fill="none" stroke="black" stroke-width="0.5" d="M123.754,-77.1667C170.275,-94.8444 265.838,-131.159 315.489,-150.026"/>
<polygon fill="black" stroke="black" points="315.142,-151.766 320.438,-151.906 316.386,-148.494 315.142,-151.766"/>
</g>
<!-- imagen.patterngenerator.PatternGenerator -->
<g id="node24" class="node"><title>imagen.patterngenerator.PatternGenerator</title>
<polygon fill="none" stroke="black" stroke-width="0.5" points="459,-77.5 235,-77.5 235,-56.5 459,-56.5 459,-77.5"/>
<text text-anchor="middle" x="347" y="-64.5" font-family="Vera" font-size="10.00">imagen.patterngenerator.PatternGenerator</text>
</g>
<!-- param.parameterized.Parameterized&#45;&gt;imagen.patterngenerator.PatternGenerator -->
<g id="edge58" class="edge"><title>param.parameterized.Parameterized&#45;&gt;imagen.patterngenerator.PatternGenerator</title>
<path fill="none" stroke="black" stroke-width="0.5" d="M194.014,-67C205.664,-67 217.655,-67 229.554,-67"/>
<polygon fill="black" stroke="black" points="229.647,-68.7501 234.647,-67 229.647,-65.2501 229.647,-68.7501"/>
</g>
<!-- topo.command.analysis.PatternPresenter2 -->
<g id="node48" class="node"><title>topo.command.analysis.PatternPresenter2</title>
<polygon fill="none" stroke="black" stroke-width="0.5" points="457,-39.5 237,-39.5 237,-18.5 457,-18.5 457,-39.5"/>
<text text-anchor="middle" x="347" y="-26.5" font-family="Vera" font-size="10.00">topo.command.analysis.PatternPresenter2</text>
</g>
<!-- param.parameterized.Parameterized&#45;&gt;topo.command.analysis.PatternPresenter2 -->
<g id="edge44" class="edge"><title>param.parameterized.Parameterized&#45;&gt;topo.command.analysis.PatternPresenter2</title>
<path fill="none" stroke="black" stroke-width="0.5" d="M163.012,-56.9662C197.758,-51.6848 240.394,-45.204 275.872,-39.8115"/>
<polygon fill="black" stroke="black" points="276.372,-41.5056 281.052,-39.024 275.846,-38.0454 276.372,-41.5056"/>
</g>
<!-- topo.plotting.plotgroup.UnitMeasurementCommand -->
<g id="node13" class="node"><title>topo.plotting.plotgroup.UnitMeasurementCommand</title>
<polygon fill="none" stroke="black" stroke-width="0.5" points="1145,-343.5 879,-343.5 879,-322.5 1145,-322.5 1145,-343.5"/>
<text text-anchor="middle" x="1012" y="-330.5" font-family="Vera" font-size="10.00">topo.plotting.plotgroup.UnitMeasurementCommand</text>
</g>
<!-- topo.command.analysis.update_projection -->
<g id="node36" class="node"><title>topo.command.analysis.update_projection</title>
<polygon fill="none" stroke="black" stroke-width="0.5" points="1490,-381.5 1270,-381.5 1270,-360.5 1490,-360.5 1490,-381.5"/>
<text text-anchor="middle" x="1380" y="-368.5" font-family="Vera" font-size="10.00">topo.command.analysis.update_projection</text>
</g>
<!-- topo.plotting.plotgroup.UnitMeasurementCommand&#45;&gt;topo.command.analysis.update_projection -->
<g id="edge32" class="edge"><title>topo.plotting.plotgroup.UnitMeasurementCommand&#45;&gt;topo.command.analysis.update_projection</title>
<path fill="none" stroke="black" stroke-width="0.5" d="M1109.17,-343.034C1161.15,-348.402 1225.14,-355.009 1277.86,-360.453"/>
<polygon fill="black" stroke="black" points="1277.77,-362.203 1282.93,-360.976 1278.13,-358.722 1277.77,-362.203"/>
</g>
<!-- topo.command.analysis.update_connectionfields -->
<g id="node56" class="node"><title>topo.command.analysis.update_connectionfields</title>
<polygon fill="none" stroke="black" stroke-width="0.5" points="1505,-343.5 1255,-343.5 1255,-322.5 1505,-322.5 1505,-343.5"/>
<text text-anchor="middle" x="1380" y="-330.5" font-family="Vera" font-size="10.00">topo.command.analysis.update_connectionfields</text>
</g>
<!-- topo.plotting.plotgroup.UnitMeasurementCommand&#45;&gt;topo.command.analysis.update_connectionfields -->
<g id="edge52" class="edge"><title>topo.plotting.plotgroup.UnitMeasurementCommand&#45;&gt;topo.command.analysis.update_connectionfields</title>
<path fill="none" stroke="black" stroke-width="0.5" d="M1145.12,-333C1178.91,-333 1215.19,-333 1248.88,-333"/>
<polygon fill="black" stroke="black" points="1249.27,-334.75 1254.27,-333 1249.27,-331.25 1249.27,-334.75"/>
</g>
<!-- topo.plotting.plotgroup.ProjectionSheetMeasurementCommand -->
<g id="node14" class="node"><title>topo.plotting.plotgroup.ProjectionSheetMeasurementCommand</title>
<polygon fill="none" stroke="black" stroke-width="0.5" points="822,-267.5 500,-267.5 500,-246.5 822,-246.5 822,-267.5"/>
<text text-anchor="middle" x="661" y="-254.5" font-family="Vera" font-size="10.00">topo.plotting.plotgroup.ProjectionSheetMeasurementCommand</text>
</g>
<!-- topo.plotting.plotgroup.ProjectionSheetMeasurementCommand&#45;&gt;topo.plotting.plotgroup.UnitMeasurementCommand -->
<g id="edge10" class="edge"><title>topo.plotting.plotgroup.ProjectionSheetMeasurementCommand&#45;&gt;topo.plotting.plotgroup.UnitMeasurementCommand</title>
<path fill="none" stroke="black" stroke-width="0.5" d="M707.248,-267.014C772.744,-281.195 892.133,-307.046 960.418,-321.831"/>
<polygon fill="black" stroke="black" points="960.392,-323.616 965.65,-322.964 961.133,-320.195 960.392,-323.616"/>
</g>
<!-- topo.command.analysis.update_projectionactivity -->
<g id="node26" class="node"><title>topo.command.analysis.update_projectionactivity</title>
<polygon fill="none" stroke="black" stroke-width="0.5" points="1139,-267.5 885,-267.5 885,-246.5 1139,-246.5 1139,-267.5"/>
<text text-anchor="middle" x="1012" y="-254.5" font-family="Vera" font-size="10.00">topo.command.analysis.update_projectionactivity</text>
</g>
<!-- topo.plotting.plotgroup.ProjectionSheetMeasurementCommand&#45;&gt;topo.command.analysis.update_projectionactivity -->
<g id="edge22" class="edge"><title>topo.plotting.plotgroup.ProjectionSheetMeasurementCommand&#45;&gt;topo.command.analysis.update_projectionactivity</title>
<path fill="none" stroke="black" stroke-width="0.5" d="M822.118,-257C841.391,-257 860.898,-257 879.699,-257"/>
<polygon fill="black" stroke="black" points="879.982,-258.75 884.982,-257 879.982,-255.25 879.982,-258.75"/>
</g>
<!-- param.parameterized.ParameterizedFunction&#45;&gt;topo.plotting.plotgroup.ProjectionSheetMeasurementCommand -->
<g id="edge18" class="edge"><title>param.parameterized.ParameterizedFunction&#45;&gt;topo.plotting.plotgroup.ProjectionSheetMeasurementCommand</title>
<path fill="none" stroke="black" stroke-width="0.5" d="M371.059,-172.03C400.929,-184.234 453.611,-204.944 500,-219 534.96,-229.593 574.925,-239.04 606.292,-245.866"/>
<polygon fill="black" stroke="black" points="605.993,-247.591 611.25,-246.938 606.733,-244.17 605.993,-247.591"/>
</g>
<!-- topo.analysis.featureresponses.PatternPresentingCommand -->
<g id="node38" class="node"><title>topo.analysis.featureresponses.PatternPresentingCommand</title>
<polygon fill="none" stroke="black" stroke-width="0.5" points="813,-210.5 509,-210.5 509,-189.5 813,-189.5 813,-210.5"/>
<text text-anchor="middle" x="661" y="-197.5" font-family="Vera" font-size="10.00">topo.analysis.featureresponses.PatternPresentingCommand</text>
</g>
<!-- param.parameterized.ParameterizedFunction&#45;&gt;topo.analysis.featureresponses.PatternPresentingCommand -->
<g id="edge54" class="edge"><title>param.parameterized.ParameterizedFunction&#45;&gt;topo.analysis.featureresponses.PatternPresentingCommand</title>
<path fill="none" stroke="black" stroke-width="0.5" d="M426.793,-172.002C450.364,-174.932 476.218,-178.12 500,-181 522.73,-183.752 547.271,-186.674 570.177,-189.38"/>
<polygon fill="black" stroke="black" points="570.174,-191.141 575.345,-189.99 570.584,-187.665 570.174,-191.141"/>
</g>
<!-- topo.command.analysis.save_plotgroup -->
<g id="node42" class="node"><title>topo.command.analysis.save_plotgroup</title>
<polygon fill="none" stroke="black" stroke-width="0.5" points="765,-172.5 557,-172.5 557,-151.5 765,-151.5 765,-172.5"/>
<text text-anchor="middle" x="661" y="-159.5" font-family="Vera" font-size="10.00">topo.command.analysis.save_plotgroup</text>
</g>
<!-- param.parameterized.ParameterizedFunction&#45;&gt;topo.command.analysis.save_plotgroup -->
<g id="edge38" class="edge"><title>param.parameterized.ParameterizedFunction&#45;&gt;topo.command.analysis.save_plotgroup</title>
<path fill="none" stroke="black" stroke-width="0.5" d="M464.369,-162C492.984,-162 523.479,-162 551.702,-162"/>
<polygon fill="black" stroke="black" points="551.945,-163.75 556.945,-162 551.945,-160.25 551.945,-163.75"/>
</g>
<!-- topo.base.functionfamily.PatternDrivenAnalysis -->
<g id="node44" class="node"><title>topo.base.functionfamily.PatternDrivenAnalysis</title>
<polygon fill="none" stroke="black" stroke-width="0.5" points="781,-134.5 541,-134.5 541,-113.5 781,-113.5 781,-134.5"/>
<text text-anchor="middle" x="661" y="-121.5" font-family="Vera" font-size="10.00">topo.base.functionfamily.PatternDrivenAnalysis</text>
</g>
<!-- param.parameterized.ParameterizedFunction&#45;&gt;topo.base.functionfamily.PatternDrivenAnalysis -->
<g id="edge40" class="edge"><title>param.parameterized.ParameterizedFunction&#45;&gt;topo.base.functionfamily.PatternDrivenAnalysis</title>
<path fill="none" stroke="black" stroke-width="0.5" d="M426.793,-151.998C450.364,-149.068 476.218,-145.88 500,-143 522.73,-140.248 547.271,-137.326 570.177,-134.62"/>
<polygon fill="black" stroke="black" points="570.584,-136.335 575.345,-134.01 570.174,-132.859 570.584,-136.335"/>
</g>
<!-- topo.command.analysis.log_frequency_mapper -->
<g id="node23" class="node"><title>topo.command.analysis.log_frequency_mapper</title>
<polygon fill="none" stroke="black" stroke-width="0.5" points="783,-96.5 539,-96.5 539,-75.5 783,-75.5 783,-96.5"/>
<text text-anchor="middle" x="661" y="-83.5" font-family="Vera" font-size="10.00">topo.command.analysis.log_frequency_mapper</text>
</g>
<!-- imagen.patterngenerator.PatternGenerator&#45;&gt;topo.command.analysis.log_frequency_mapper -->
<g id="edge20" class="edge"><title>imagen.patterngenerator.PatternGenerator&#45;&gt;topo.command.analysis.log_frequency_mapper</title>
<path fill="none" stroke="black" stroke-width="0.5" d="M459.031,-73.779C483.203,-75.2416 508.927,-76.7981 533.635,-78.2932"/>
<polygon fill="black" stroke="black" points="533.794,-80.056 538.891,-78.6112 534.006,-76.5623 533.794,-80.056"/>
</g>
<!-- topo.command.analysis.latency_mapper -->
<g id="node34" class="node"><title>topo.command.analysis.latency_mapper</title>
<polygon fill="none" stroke="black" stroke-width="0.5" points="767,-58.5 555,-58.5 555,-37.5 767,-37.5 767,-58.5"/>
<text text-anchor="middle" x="661" y="-45.5" font-family="Vera" font-size="10.00">topo.command.analysis.latency_mapper</text>
</g>
<!-- imagen.patterngenerator.PatternGenerator&#45;&gt;topo.command.analysis.latency_mapper -->
<g id="edge30" class="edge"><title>imagen.patterngenerator.PatternGenerator&#45;&gt;topo.command.analysis.latency_mapper</title>
<path fill="none" stroke="black" stroke-width="0.5" d="M459.031,-60.221C488.501,-58.4379 520.279,-56.515 549.709,-54.7342"/>
<polygon fill="black" stroke="black" points="549.907,-56.4755 554.792,-54.4266 549.696,-52.9819 549.907,-56.4755"/>
</g>
<!-- topo.command.analysis.frequency_mapper -->
<g id="node46" class="node"><title>topo.command.analysis.frequency_mapper</title>
<polygon fill="none" stroke="black" stroke-width="0.5" points="773,-20.5 549,-20.5 549,0.5 773,0.5 773,-20.5"/>
<text text-anchor="middle" x="661" y="-7.5" font-family="Vera" font-size="10.00">topo.command.analysis.frequency_mapper</text>
</g>
<!-- imagen.patterngenerator.PatternGenerator&#45;&gt;topo.command.analysis.frequency_mapper -->
<g id="edge42" class="edge"><title>imagen.patterngenerator.PatternGenerator&#45;&gt;topo.command.analysis.frequency_mapper</title>
<path fill="none" stroke="black" stroke-width="0.5" d="M429.959,-56.9691C441.538,-54.5767 453.171,-51.6285 464,-48 481.154,-42.2522 482.725,-34.3732 500,-29 513.884,-24.6817 528.721,-21.3325 543.56,-18.7372"/>
<polygon fill="black" stroke="black" points="543.954,-20.4455 548.591,-17.8856 543.369,-16.9946 543.954,-20.4455"/>
</g>
<!-- topo.command.analysis.measure_activity -->
<g id="node28" class="node"><title>topo.command.analysis.measure_activity</title>
<polygon fill="none" stroke="black" stroke-width="0.5" points="1488,-77.5 1272,-77.5 1272,-56.5 1488,-56.5 1488,-77.5"/>
<text text-anchor="middle" x="1380" y="-64.5" font-family="Vera" font-size="10.00">topo.command.analysis.measure_activity</text>
</g>
<!-- topo.analysis.featureresponses.FeatureResponses -->
<g id="node29" class="node"><title>topo.analysis.featureresponses.FeatureResponses</title>
<polygon fill="none" stroke="black" stroke-width="0.5" points="1140,-96.5 884,-96.5 884,-75.5 1140,-75.5 1140,-96.5"/>
<text text-anchor="middle" x="1012" y="-83.5" font-family="Vera" font-size="10.00">topo.analysis.featureresponses.FeatureResponses</text>
</g>
<!-- topo.analysis.featureresponses.FeatureResponses&#45;&gt;topo.command.analysis.measure_activity -->
<g id="edge24" class="edge"><title>topo.analysis.featureresponses.FeatureResponses&#45;&gt;topo.command.analysis.measure_activity</title>
<path fill="none" stroke="black" stroke-width="0.5" d="M1140.71,-79.3547C1181.67,-77.2399 1226.66,-74.9169 1266.47,-72.8616"/>
<polygon fill="black" stroke="black" points="1266.9,-74.592 1271.8,-72.5865 1266.72,-71.0967 1266.9,-74.592"/>
</g>
<!-- topo.command.analysis.measure_rfs -->
<g id="node66" class="node"><title>topo.command.analysis.measure_rfs</title>
<polygon fill="none" stroke="black" stroke-width="0.5" points="1826,-58.5 1632,-58.5 1632,-37.5 1826,-37.5 1826,-58.5"/>
<text text-anchor="middle" x="1729" y="-45.5" font-family="Vera" font-size="10.00">topo.command.analysis.measure_rfs</text>
</g>
<!-- topo.analysis.featureresponses.SingleInputResponseCommand&#45;&gt;topo.command.analysis.measure_rfs -->
<g id="edge66" class="edge"><title>topo.analysis.featureresponses.SingleInputResponseCommand&#45;&gt;topo.command.analysis.measure_rfs</title>
<path fill="none" stroke="black" stroke-width="0.5" d="M1539.89,-173.288C1546.26,-170.105 1552.34,-166.368 1558,-162 1593.74,-134.407 1558.73,-95.1871 1594,-67 1603.63,-59.3075 1614.92,-53.958 1626.81,-50.3167"/>
<polygon fill="black" stroke="black" points="1627.6,-51.9097 1631.93,-48.8589 1626.65,-48.5432 1627.6,-51.9097"/>
</g>
<!-- topo.analysis.featureresponses.PatternPresentingCommand&#45;&gt;topo.analysis.featureresponses.MeasureResponseCommand -->
<g id="edge34" class="edge"><title>topo.analysis.featureresponses.PatternPresentingCommand&#45;&gt;topo.analysis.featureresponses.MeasureResponseCommand</title>
<path fill="none" stroke="black" stroke-width="0.5" d="M813.677,-200C826.734,-200 839.963,-200 853.067,-200"/>
<polygon fill="black" stroke="black" points="853.278,-201.75 858.278,-200 853.278,-198.25 853.278,-201.75"/>
</g>
<!-- topo.base.functionfamily.PatternDrivenAnalysis&#45;&gt;topo.analysis.featureresponses.FeatureResponses -->
<g id="edge62" class="edge"><title>topo.base.functionfamily.PatternDrivenAnalysis&#45;&gt;topo.analysis.featureresponses.FeatureResponses</title>
<path fill="none" stroke="black" stroke-width="0.5" d="M753.68,-113.966C803.164,-108.609 864.045,-102.018 914.273,-96.5801"/>
<polygon fill="black" stroke="black" points="914.627,-98.3021 919.409,-96.024 914.25,-94.8225 914.627,-98.3021"/>
</g>
</g>
</svg>
