<?xml version="1.0" encoding="UTF-8" standalone="no"?>
<!DOCTYPE svg PUBLIC "-//W3C//DTD SVG 1.1//EN"
 "http://www.w3.org/Graphics/SVG/1.1/DTD/svg11.dtd">
<!-- Generated by graphviz version 2.26.3 (20100126.1600)
 -->
<!-- Title: inheritance95afd34832 Pages: 1 -->
<svg width="1474pt" height="465pt"
 viewBox="0.00 0.00 1474.00 465.00" xmlns="http://www.w3.org/2000/svg" xmlns:xlink="http://www.w3.org/1999/xlink">
<g id="graph1" class="graph" transform="scale(1 1) rotate(0) translate(4 461)">
<title>inheritance95afd34832</title>
<polygon fill="white" stroke="white" points="-4,5 -4,-461 1471,-461 1471,5 -4,5"/>
<!-- Tkinter.Button -->
<g id="node1" class="node"><title>Tkinter.Button</title>
<polygon fill="none" stroke="black" stroke-width="0.5" points="758,-362.5 676,-362.5 676,-341.5 758,-341.5 758,-362.5"/>
<text text-anchor="middle" x="717" y="-349.5" font-family="Vera" font-size="10.00">Tkinter.Button</text>
</g>
<!-- paramtk.FocusTakingButton -->
<g id="node41" class="node"><title>paramtk.FocusTakingButton</title>
<polygon fill="none" stroke="black" stroke-width="0.5" points="977,-362.5 829,-362.5 829,-341.5 977,-341.5 977,-362.5"/>
<text text-anchor="middle" x="903" y="-349.5" font-family="Vera" font-size="10.00">paramtk.FocusTakingButton</text>
</g>
<!-- Tkinter.Button&#45;&gt;paramtk.FocusTakingButton -->
<g id="edge34" class="edge"><title>Tkinter.Button&#45;&gt;paramtk.FocusTakingButton</title>
<path fill="none" stroke="black" stroke-width="0.5" d="M758.742,-352C777.861,-352 801.182,-352 823.453,-352"/>
<polygon fill="black" stroke="black" points="823.485,-353.75 828.485,-352 823.485,-350.25 823.485,-353.75"/>
</g>
<!-- Tkinter.Widget -->
<g id="node2" class="node"><title>Tkinter.Widget</title>
<polygon fill="none" stroke="black" stroke-width="0.5" points="565,-229.5 483,-229.5 483,-208.5 565,-208.5 565,-229.5"/>
<text text-anchor="middle" x="524" y="-216.5" font-family="Vera" font-size="10.00">Tkinter.Widget</text>
</g>
<!-- Tkinter.Widget&#45;&gt;Tkinter.Button -->
<g id="edge2" class="edge"><title>Tkinter.Widget&#45;&gt;Tkinter.Button</title>
<path fill="none" stroke="black" stroke-width="0.5" d="M531.579,-229.336C548.644,-251.832 592.477,-305.42 642,-333 650.694,-337.842 660.637,-341.472 670.379,-344.188"/>
<polygon fill="black" stroke="black" points="670.166,-345.941 675.447,-345.525 671.059,-342.557 670.166,-345.941"/>
</g>
<!-- Tkinter.Frame -->
<g id="node17" class="node"><title>Tkinter.Frame</title>
<polygon fill="none" stroke="black" stroke-width="0.5" points="757,-210.5 677,-210.5 677,-189.5 757,-189.5 757,-210.5"/>
<text text-anchor="middle" x="717" y="-197.5" font-family="Vera" font-size="10.00">Tkinter.Frame</text>
</g>
<!-- Tkinter.Widget&#45;&gt;Tkinter.Frame -->
<g id="edge18" class="edge"><title>Tkinter.Widget&#45;&gt;Tkinter.Frame</title>
<path fill="none" stroke="black" stroke-width="0.5" d="M565.878,-214.877C596.922,-211.821 639.212,-207.658 671.161,-204.513"/>
<polygon fill="black" stroke="black" points="671.392,-206.248 676.197,-204.017 671.049,-202.765 671.392,-206.248"/>
</g>
<!-- Tkinter.Menu -->
<g id="node19" class="node"><title>Tkinter.Menu</title>
<polygon fill="none" stroke="black" stroke-width="0.5" points="755,-400.5 679,-400.5 679,-379.5 755,-379.5 755,-400.5"/>
<text text-anchor="middle" x="717" y="-387.5" font-family="Vera" font-size="10.00">Tkinter.Menu</text>
</g>
<!-- Tkinter.Widget&#45;&gt;Tkinter.Menu -->
<g id="edge14" class="edge"><title>Tkinter.Widget&#45;&gt;Tkinter.Menu</title>
<path fill="none" stroke="black" stroke-width="0.5" d="M528.757,-229.015C542.296,-256.389 583.853,-332.955 642,-371 651.357,-377.122 662.56,-381.272 673.419,-384.085"/>
<polygon fill="black" stroke="black" points="673.104,-385.809 678.375,-385.285 673.928,-382.407 673.104,-385.809"/>
</g>
<!-- paramtk.Balloon -->
<g id="node21" class="node"><title>paramtk.Balloon</title>
<polygon fill="none" stroke="black" stroke-width="0.5" points="764,-248.5 670,-248.5 670,-227.5 764,-227.5 764,-248.5"/>
<text text-anchor="middle" x="717" y="-235.5" font-family="Vera" font-size="10.00">paramtk.Balloon</text>
</g>
<!-- Tkinter.Widget&#45;&gt;paramtk.Balloon -->
<g id="edge16" class="edge"><title>Tkinter.Widget&#45;&gt;paramtk.Balloon</title>
<path fill="none" stroke="black" stroke-width="0.5" d="M565.878,-223.123C594.699,-225.96 633.211,-229.751 664.144,-232.797"/>
<polygon fill="black" stroke="black" points="664.286,-234.569 669.433,-233.317 664.629,-231.086 664.286,-234.569"/>
</g>
<!-- paramtk.Scrodget -->
<g id="node33" class="node"><title>paramtk.Scrodget</title>
<polygon fill="none" stroke="black" stroke-width="0.5" points="769,-172.5 665,-172.5 665,-151.5 769,-151.5 769,-172.5"/>
<text text-anchor="middle" x="717" y="-159.5" font-family="Vera" font-size="10.00">paramtk.Scrodget</text>
</g>
<!-- Tkinter.Widget&#45;&gt;paramtk.Scrodget -->
<g id="edge28" class="edge"><title>Tkinter.Widget&#45;&gt;paramtk.Scrodget</title>
<path fill="none" stroke="black" stroke-width="0.5" d="M553.422,-208.952C577.199,-200.971 611.593,-189.738 642,-181 651.125,-178.378 660.928,-175.755 670.339,-173.332"/>
<polygon fill="black" stroke="black" points="670.809,-175.019 675.219,-172.085 669.942,-171.628 670.809,-175.019"/>
</g>
<!-- paramtk.DoNothingTranslator -->
<g id="node4" class="node"><title>paramtk.DoNothingTranslator</title>
<polygon fill="none" stroke="black" stroke-width="0.5" points="388,-419.5 230,-419.5 230,-398.5 388,-398.5 388,-419.5"/>
<text text-anchor="middle" x="309" y="-406.5" font-family="Vera" font-size="10.00">paramtk.DoNothingTranslator</text>
</g>
<!-- paramtk.BoolTranslator -->
<g id="node74" class="node"><title>paramtk.BoolTranslator</title>
<polygon fill="none" stroke="black" stroke-width="0.5" points="588,-419.5 460,-419.5 460,-398.5 588,-398.5 588,-419.5"/>
<text text-anchor="middle" x="524" y="-406.5" font-family="Vera" font-size="10.00">paramtk.BoolTranslator</text>
</g>
<!-- paramtk.DoNothingTranslator&#45;&gt;paramtk.BoolTranslator -->
<g id="edge66" class="edge"><title>paramtk.DoNothingTranslator&#45;&gt;paramtk.BoolTranslator</title>
<path fill="none" stroke="black" stroke-width="0.5" d="M388.142,-409C409.979,-409 433.497,-409 454.728,-409"/>
<polygon fill="black" stroke="black" points="454.788,-410.75 459.788,-409 454.788,-407.25 454.788,-410.75"/>
</g>
<!-- paramtk.Translator -->
<g id="node5" class="node"><title>paramtk.Translator</title>
<polygon fill="none" stroke="black" stroke-width="0.5" points="141,-362.5 35,-362.5 35,-341.5 141,-341.5 141,-362.5"/>
<text text-anchor="middle" x="88" y="-349.5" font-family="Vera" font-size="10.00">paramtk.Translator</text>
</g>
<!-- paramtk.Translator&#45;&gt;paramtk.DoNothingTranslator -->
<g id="edge4" class="edge"><title>paramtk.Translator&#45;&gt;paramtk.DoNothingTranslator</title>
<path fill="none" stroke="black" stroke-width="0.5" d="M117.572,-362.012C142.543,-370.236 179.347,-381.822 212,-390 223.434,-392.864 235.715,-395.558 247.566,-397.969"/>
<polygon fill="black" stroke="black" points="247.368,-399.714 252.615,-398.984 248.058,-396.282 247.368,-399.714"/>
</g>
<!-- paramtk.String_ObjectTranslator -->
<g id="node13" class="node"><title>paramtk.String_ObjectTranslator</title>
<polygon fill="none" stroke="black" stroke-width="0.5" points="394,-381.5 224,-381.5 224,-360.5 394,-360.5 394,-381.5"/>
<text text-anchor="middle" x="309" y="-368.5" font-family="Vera" font-size="10.00">paramtk.String_ObjectTranslator</text>
</g>
<!-- paramtk.Translator&#45;&gt;paramtk.String_ObjectTranslator -->
<g id="edge72" class="edge"><title>paramtk.Translator&#45;&gt;paramtk.String_ObjectTranslator</title>
<path fill="none" stroke="black" stroke-width="0.5" d="M141.78,-356.624C164.778,-358.601 192.273,-360.965 218.261,-363.199"/>
<polygon fill="black" stroke="black" points="218.305,-364.959 223.437,-363.644 218.605,-361.472 218.305,-364.959"/>
</g>
<!-- paramtk.Eval_ReprTranslator -->
<g id="node58" class="node"><title>paramtk.Eval_ReprTranslator</title>
<polygon fill="none" stroke="black" stroke-width="0.5" points="385,-343.5 233,-343.5 233,-322.5 385,-322.5 385,-343.5"/>
<text text-anchor="middle" x="309" y="-330.5" font-family="Vera" font-size="10.00">paramtk.Eval_ReprTranslator</text>
</g>
<!-- paramtk.Translator&#45;&gt;paramtk.Eval_ReprTranslator -->
<g id="edge52" class="edge"><title>paramtk.Translator&#45;&gt;paramtk.Eval_ReprTranslator</title>
<path fill="none" stroke="black" stroke-width="0.5" d="M141.78,-347.376C167.52,-345.163 198.894,-342.466 227.482,-340.008"/>
<polygon fill="black" stroke="black" points="227.954,-341.724 232.786,-339.552 227.654,-338.237 227.954,-341.724"/>
</g>
<!-- paramtk.ListTranslator -->
<g id="node64" class="node"><title>paramtk.ListTranslator</title>
<polygon fill="none" stroke="black" stroke-width="0.5" points="370,-305.5 248,-305.5 248,-284.5 370,-284.5 370,-305.5"/>
<text text-anchor="middle" x="309" y="-292.5" font-family="Vera" font-size="10.00">paramtk.ListTranslator</text>
</g>
<!-- paramtk.Translator&#45;&gt;paramtk.ListTranslator -->
<g id="edge58" class="edge"><title>paramtk.Translator&#45;&gt;paramtk.ListTranslator</title>
<path fill="none" stroke="black" stroke-width="0.5" d="M117.572,-341.988C142.543,-333.764 179.347,-322.178 212,-314 223.434,-311.136 235.715,-308.442 247.566,-306.031"/>
<polygon fill="black" stroke="black" points="248.058,-307.718 252.615,-305.016 247.368,-304.286 248.058,-307.718"/>
</g>
<!-- paramtk.ProgressController -->
<g id="node7" class="node"><title>paramtk.ProgressController</title>
<polygon fill="none" stroke="black" stroke-width="0.5" points="791,-324.5 643,-324.5 643,-303.5 791,-303.5 791,-324.5"/>
<text text-anchor="middle" x="717" y="-311.5" font-family="Vera" font-size="10.00">paramtk.ProgressController</text>
</g>
<!-- paramtk.ProgressWindow -->
<g id="node15" class="node"><title>paramtk.ProgressWindow</title>
<polygon fill="none" stroke="black" stroke-width="0.5" points="971,-324.5 835,-324.5 835,-303.5 971,-303.5 971,-324.5"/>
<text text-anchor="middle" x="903" y="-311.5" font-family="Vera" font-size="10.00">paramtk.ProgressWindow</text>
</g>
<!-- paramtk.ProgressController&#45;&gt;paramtk.ProgressWindow -->
<g id="edge10" class="edge"><title>paramtk.ProgressController&#45;&gt;paramtk.ProgressWindow</title>
<path fill="none" stroke="black" stroke-width="0.5" d="M791.582,-314C803.962,-314 816.797,-314 829.159,-314"/>
<polygon fill="black" stroke="black" points="829.426,-315.75 834.426,-314 829.426,-312.25 829.426,-315.75"/>
</g>
<!-- paramtk.TkParameterized -->
<g id="node8" class="node"><title>paramtk.TkParameterized</title>
<polygon fill="none" stroke="black" stroke-width="0.5" points="787,-96.5 647,-96.5 647,-75.5 787,-75.5 787,-96.5"/>
<text text-anchor="middle" x="717" y="-83.5" font-family="Vera" font-size="10.00">paramtk.TkParameterized</text>
</g>
<!-- paramtk.ParametersFrame -->
<g id="node39" class="node"><title>paramtk.ParametersFrame</title>
<polygon fill="none" stroke="black" stroke-width="0.5" points="976,-58.5 830,-58.5 830,-37.5 976,-37.5 976,-58.5"/>
<text text-anchor="middle" x="903" y="-45.5" font-family="Vera" font-size="10.00">paramtk.ParametersFrame</text>
</g>
<!-- paramtk.TkParameterized&#45;&gt;paramtk.ParametersFrame -->
<g id="edge44" class="edge"><title>paramtk.TkParameterized&#45;&gt;paramtk.ParametersFrame</title>
<path fill="none" stroke="black" stroke-width="0.5" d="M766.356,-75.9165C791.681,-70.7425 822.591,-64.4277 848.602,-59.1135"/>
<polygon fill="black" stroke="black" points="849.188,-60.7802 853.736,-58.0647 848.487,-57.351 849.188,-60.7802"/>
</g>
<!-- paramtk.TkParameterizedBase -->
<g id="node9" class="node"><title>paramtk.TkParameterizedBase</title>
<polygon fill="none" stroke="black" stroke-width="0.5" points="606,-96.5 442,-96.5 442,-75.5 606,-75.5 606,-96.5"/>
<text text-anchor="middle" x="524" y="-83.5" font-family="Vera" font-size="10.00">paramtk.TkParameterizedBase</text>
</g>
<!-- paramtk.TkParameterizedBase&#45;&gt;paramtk.TkParameterized -->
<g id="edge6" class="edge"><title>paramtk.TkParameterizedBase&#45;&gt;paramtk.TkParameterized</title>
<path fill="none" stroke="black" stroke-width="0.5" d="M606.129,-86C617.873,-86 629.908,-86 641.516,-86"/>
<polygon fill="black" stroke="black" points="641.817,-87.7501 646.817,-86 641.817,-84.2501 641.817,-87.7501"/>
</g>
<!-- Tkinter.Misc -->
<g id="node11" class="node"><title>Tkinter.Misc</title>
<polygon fill="none" stroke="black" stroke-width="0.5" points="124,-96.5 52,-96.5 52,-75.5 124,-75.5 124,-96.5"/>
<text text-anchor="middle" x="88" y="-83.5" font-family="Vera" font-size="10.00">Tkinter.Misc</text>
</g>
<!-- Tkinter.BaseWidget -->
<g id="node79" class="node"><title>Tkinter.BaseWidget</title>
<polygon fill="none" stroke="black" stroke-width="0.5" points="362,-96.5 256,-96.5 256,-75.5 362,-75.5 362,-96.5"/>
<text text-anchor="middle" x="309" y="-83.5" font-family="Vera" font-size="10.00">Tkinter.BaseWidget</text>
</g>
<!-- Tkinter.Misc&#45;&gt;Tkinter.BaseWidget -->
<g id="edge70" class="edge"><title>Tkinter.Misc&#45;&gt;Tkinter.BaseWidget</title>
<path fill="none" stroke="black" stroke-width="0.5" d="M124.494,-86C158.637,-86 210.226,-86 250.18,-86"/>
<polygon fill="black" stroke="black" points="250.489,-87.7501 255.489,-86 250.489,-84.2501 250.489,-87.7501"/>
</g>
<!-- paramtk.CSPTranslator -->
<g id="node12" class="node"><title>paramtk.CSPTranslator</title>
<polygon fill="none" stroke="black" stroke-width="0.5" points="587,-381.5 461,-381.5 461,-360.5 587,-360.5 587,-381.5"/>
<text text-anchor="middle" x="524" y="-368.5" font-family="Vera" font-size="10.00">paramtk.CSPTranslator</text>
</g>
<!-- paramtk.String_ObjectTranslator&#45;&gt;paramtk.CSPTranslator -->
<g id="edge8" class="edge"><title>paramtk.String_ObjectTranslator&#45;&gt;paramtk.CSPTranslator</title>
<path fill="none" stroke="black" stroke-width="0.5" d="M394.591,-371C414.822,-371 436.133,-371 455.493,-371"/>
<polygon fill="black" stroke="black" points="455.899,-372.75 460.899,-371 455.899,-369.25 455.899,-372.75"/>
</g>
<!-- Tkinter.Frame&#45;&gt;paramtk.ProgressWindow -->
<g id="edge12" class="edge"><title>Tkinter.Frame&#45;&gt;paramtk.ProgressWindow</title>
<path fill="none" stroke="black" stroke-width="0.5" d="M757.763,-203.649C769.816,-206.388 782.352,-211.065 792,-219 820.867,-242.741 799.133,-271.259 828,-295 830.996,-297.464 834.27,-299.613 837.721,-301.488"/>
<polygon fill="black" stroke="black" points="837.272,-303.219 842.528,-303.879 838.83,-300.085 837.272,-303.219"/>
</g>
<!-- paramtk.TaggedSlider -->
<g id="node37" class="node"><title>paramtk.TaggedSlider</title>
<polygon fill="none" stroke="black" stroke-width="0.5" points="963,-96.5 843,-96.5 843,-75.5 963,-75.5 963,-96.5"/>
<text text-anchor="middle" x="903" y="-83.5" font-family="Vera" font-size="10.00">paramtk.TaggedSlider</text>
</g>
<!-- Tkinter.Frame&#45;&gt;paramtk.TaggedSlider -->
<g id="edge30" class="edge"><title>Tkinter.Frame&#45;&gt;paramtk.TaggedSlider</title>
<path fill="none" stroke="black" stroke-width="0.5" d="M757.763,-196.351C769.816,-193.612 782.352,-188.935 792,-181 820.867,-157.259 799.133,-128.741 828,-105 830.996,-102.536 834.27,-100.387 837.721,-98.5117"/>
<polygon fill="black" stroke="black" points="838.83,-99.9145 842.528,-96.1212 837.272,-96.7806 838.83,-99.9145"/>
</g>
<!-- Tkinter.Frame&#45;&gt;paramtk.ParametersFrame -->
<g id="edge46" class="edge"><title>Tkinter.Frame&#45;&gt;paramtk.ParametersFrame</title>
<path fill="none" stroke="black" stroke-width="0.5" d="M757.669,-197.3C769.999,-194.633 782.72,-189.759 792,-181 830.64,-144.53 789.36,-103.47 828,-67 830.5,-64.6403 833.25,-62.5626 836.175,-60.7339"/>
<polygon fill="black" stroke="black" points="837.412,-62.0447 840.903,-58.0607 835.69,-58.9978 837.412,-62.0447"/>
</g>
<!-- paramtk.ScrolledFrame -->
<g id="node43" class="node"><title>paramtk.ScrolledFrame</title>
<polygon fill="none" stroke="black" stroke-width="0.5" points="967,-286.5 839,-286.5 839,-265.5 967,-265.5 967,-286.5"/>
<text text-anchor="middle" x="903" y="-273.5" font-family="Vera" font-size="10.00">paramtk.ScrolledFrame</text>
</g>
<!-- Tkinter.Frame&#45;&gt;paramtk.ScrolledFrame -->
<g id="edge36" class="edge"><title>Tkinter.Frame&#45;&gt;paramtk.ScrolledFrame</title>
<path fill="none" stroke="black" stroke-width="0.5" d="M757.554,-205.894C769.205,-208.722 781.571,-212.886 792,-219 812.07,-230.766 807.93,-245.234 828,-257 832.702,-259.757 837.798,-262.117 843.044,-264.137"/>
<polygon fill="black" stroke="black" points="842.601,-265.838 847.898,-265.898 843.795,-262.547 842.601,-265.838"/>
</g>
<!-- paramtk.StatusBar -->
<g id="node54" class="node"><title>paramtk.StatusBar</title>
<polygon fill="none" stroke="black" stroke-width="0.5" points="957,-248.5 849,-248.5 849,-227.5 957,-227.5 957,-248.5"/>
<text text-anchor="middle" x="903" y="-235.5" font-family="Vera" font-size="10.00">paramtk.StatusBar</text>
</g>
<!-- Tkinter.Frame&#45;&gt;paramtk.StatusBar -->
<g id="edge48" class="edge"><title>Tkinter.Frame&#45;&gt;paramtk.StatusBar</title>
<path fill="none" stroke="black" stroke-width="0.5" d="M757.818,-208.339C784.607,-213.812 819.937,-221.03 849.036,-226.975"/>
<polygon fill="black" stroke="black" points="848.772,-228.707 854.021,-227.994 849.473,-225.278 848.772,-228.707"/>
</g>
<!-- paramtk.ListWidget -->
<g id="node66" class="node"><title>paramtk.ListWidget</title>
<polygon fill="none" stroke="black" stroke-width="0.5" points="957,-210.5 849,-210.5 849,-189.5 957,-189.5 957,-210.5"/>
<text text-anchor="middle" x="903" y="-197.5" font-family="Vera" font-size="10.00">paramtk.ListWidget</text>
</g>
<!-- Tkinter.Frame&#45;&gt;paramtk.ListWidget -->
<g id="edge60" class="edge"><title>Tkinter.Frame&#45;&gt;paramtk.ListWidget</title>
<path fill="none" stroke="black" stroke-width="0.5" d="M757.818,-200C782.785,-200 815.17,-200 843.017,-200"/>
<polygon fill="black" stroke="black" points="843.161,-201.75 848.161,-200 843.161,-198.25 843.161,-201.75"/>
</g>
<!-- paramtk.ListItemCtrlWidget -->
<g id="node69" class="node"><title>paramtk.ListItemCtrlWidget</title>
<polygon fill="none" stroke="black" stroke-width="0.5" points="976,-172.5 830,-172.5 830,-151.5 976,-151.5 976,-172.5"/>
<text text-anchor="middle" x="903" y="-159.5" font-family="Vera" font-size="10.00">paramtk.ListItemCtrlWidget</text>
</g>
<!-- Tkinter.Frame&#45;&gt;paramtk.ListItemCtrlWidget -->
<g id="edge62" class="edge"><title>Tkinter.Frame&#45;&gt;paramtk.ListItemCtrlWidget</title>
<path fill="none" stroke="black" stroke-width="0.5" d="M757.818,-191.661C784.607,-186.188 819.937,-178.97 849.036,-173.025"/>
<polygon fill="black" stroke="black" points="849.473,-174.722 854.021,-172.006 848.772,-171.293 849.473,-174.722"/>
</g>
<!-- paramtk.HackFileEntry -->
<g id="node77" class="node"><title>paramtk.HackFileEntry</title>
<polygon fill="none" stroke="black" stroke-width="0.5" points="965,-134.5 841,-134.5 841,-113.5 965,-113.5 965,-134.5"/>
<text text-anchor="middle" x="903" y="-121.5" font-family="Vera" font-size="10.00">paramtk.HackFileEntry</text>
</g>
<!-- Tkinter.Frame&#45;&gt;paramtk.HackFileEntry -->
<g id="edge68" class="edge"><title>Tkinter.Frame&#45;&gt;paramtk.HackFileEntry</title>
<path fill="none" stroke="black" stroke-width="0.5" d="M757.554,-194.106C769.205,-191.278 781.571,-187.114 792,-181 812.07,-169.234 807.93,-154.766 828,-143 832.702,-140.243 837.798,-137.883 843.044,-135.863"/>
<polygon fill="black" stroke="black" points="843.795,-137.453 847.898,-134.102 842.601,-134.162 843.795,-137.453"/>
</g>
<!-- paramtk.Menu -->
<g id="node28" class="node"><title>paramtk.Menu</title>
<polygon fill="none" stroke="black" stroke-width="0.5" points="946,-400.5 860,-400.5 860,-379.5 946,-379.5 946,-400.5"/>
<text text-anchor="middle" x="903" y="-387.5" font-family="Vera" font-size="10.00">paramtk.Menu</text>
</g>
<!-- Tkinter.Menu&#45;&gt;paramtk.Menu -->
<g id="edge22" class="edge"><title>Tkinter.Menu&#45;&gt;paramtk.Menu</title>
<path fill="none" stroke="black" stroke-width="0.5" d="M755.539,-390C784.308,-390 823.811,-390 854.69,-390"/>
<polygon fill="black" stroke="black" points="854.959,-391.75 859.959,-390 854.959,-388.25 854.959,-391.75"/>
</g>
<!-- param.parameterized.Parameterized -->
<g id="node23" class="node"><title>param.parameterized.Parameterized</title>
<polygon fill="none" stroke="black" stroke-width="0.5" points="406,-134.5 212,-134.5 212,-113.5 406,-113.5 406,-134.5"/>
<text text-anchor="middle" x="309" y="-121.5" font-family="Vera" font-size="10.00">param.parameterized.Parameterized</text>
</g>
<!-- param.parameterized.Parameterized&#45;&gt;paramtk.TkParameterizedBase -->
<g id="edge40" class="edge"><title>param.parameterized.Parameterized&#45;&gt;paramtk.TkParameterizedBase</title>
<path fill="none" stroke="black" stroke-width="0.5" d="M365.77,-113.966C395.407,-108.728 431.719,-102.31 462.078,-96.9443"/>
<polygon fill="black" stroke="black" points="462.666,-98.6176 467.285,-96.024 462.057,-95.1711 462.666,-98.6176"/>
</g>
<!-- paramtk.Representer -->
<g id="node60" class="node"><title>paramtk.Representer</title>
<polygon fill="none" stroke="black" stroke-width="0.5" points="583,-134.5 465,-134.5 465,-113.5 583,-113.5 583,-134.5"/>
<text text-anchor="middle" x="524" y="-121.5" font-family="Vera" font-size="10.00">paramtk.Representer</text>
</g>
<!-- param.parameterized.Parameterized&#45;&gt;paramtk.Representer -->
<g id="edge54" class="edge"><title>param.parameterized.Parameterized&#45;&gt;paramtk.Representer</title>
<path fill="none" stroke="black" stroke-width="0.5" d="M406.121,-124C424.274,-124 442.826,-124 459.679,-124"/>
<polygon fill="black" stroke="black" points="459.853,-125.75 464.853,-124 459.852,-122.25 459.853,-125.75"/>
</g>
<!-- paramtk.EditingParametersFrameWithApply -->
<g id="node25" class="node"><title>paramtk.EditingParametersFrameWithApply</title>
<polygon fill="none" stroke="black" stroke-width="0.5" points="1466,-58.5 1242,-58.5 1242,-37.5 1466,-37.5 1466,-58.5"/>
<text text-anchor="middle" x="1354" y="-45.5" font-family="Vera" font-size="10.00">paramtk.EditingParametersFrameWithApply</text>
</g>
<!-- paramtk.ParametersFrameWithApply -->
<g id="node26" class="node"><title>paramtk.ParametersFrameWithApply</title>
<polygon fill="none" stroke="black" stroke-width="0.5" points="1206,-58.5 1014,-58.5 1014,-37.5 1206,-37.5 1206,-58.5"/>
<text text-anchor="middle" x="1110" y="-45.5" font-family="Vera" font-size="10.00">paramtk.ParametersFrameWithApply</text>
</g>
<!-- paramtk.ParametersFrameWithApply&#45;&gt;paramtk.EditingParametersFrameWithApply -->
<g id="edge20" class="edge"><title>paramtk.ParametersFrameWithApply&#45;&gt;paramtk.EditingParametersFrameWithApply</title>
<path fill="none" stroke="black" stroke-width="0.5" d="M1206.09,-48C1216.17,-48 1226.5,-48 1236.79,-48"/>
<polygon fill="black" stroke="black" points="1236.84,-49.7501 1241.84,-48 1236.84,-46.2501 1236.84,-49.7501"/>
</g>
<!-- param.Callable -->
<g id="node30" class="node"><title>param.Callable</title>
<polygon fill="none" stroke="black" stroke-width="0.5" points="353,-457.5 265,-457.5 265,-436.5 353,-436.5 353,-457.5"/>
<text text-anchor="middle" x="309" y="-444.5" font-family="Vera" font-size="10.00">param.Callable</text>
</g>
<!-- paramtk.Button -->
<g id="node71" class="node"><title>paramtk.Button</title>
<polygon fill="none" stroke="black" stroke-width="0.5" points="570,-457.5 478,-457.5 478,-436.5 570,-436.5 570,-457.5"/>
<text text-anchor="middle" x="524" y="-444.5" font-family="Vera" font-size="10.00">paramtk.Button</text>
</g>
<!-- param.Callable&#45;&gt;paramtk.Button -->
<g id="edge64" class="edge"><title>param.Callable&#45;&gt;paramtk.Button</title>
<path fill="none" stroke="black" stroke-width="0.5" d="M353.548,-447C388.132,-447 436.136,-447 472.391,-447"/>
<polygon fill="black" stroke="black" points="472.652,-448.75 477.652,-447 472.652,-445.25 472.652,-448.75"/>
</g>
<!-- param.parameterized.Parameter -->
<g id="node31" class="node"><title>param.parameterized.Parameter</title>
<polygon fill="none" stroke="black" stroke-width="0.5" points="175,-457.5 1,-457.5 1,-436.5 175,-436.5 175,-457.5"/>
<text text-anchor="middle" x="88" y="-444.5" font-family="Vera" font-size="10.00">param.parameterized.Parameter</text>
</g>
<!-- param.parameterized.Parameter&#45;&gt;param.Callable -->
<g id="edge24" class="edge"><title>param.parameterized.Parameter&#45;&gt;param.Callable</title>
<path fill="none" stroke="black" stroke-width="0.5" d="M175.662,-447C204.015,-447 234.464,-447 259.097,-447"/>
<polygon fill="black" stroke="black" points="259.263,-448.75 264.263,-447 259.263,-445.25 259.263,-448.75"/>
</g>
<!-- paramtk.ScrodgetWidget -->
<g id="node34" class="node"><title>paramtk.ScrodgetWidget</title>
<polygon fill="none" stroke="black" stroke-width="0.5" points="592,-172.5 456,-172.5 456,-151.5 592,-151.5 592,-172.5"/>
<text text-anchor="middle" x="524" y="-159.5" font-family="Vera" font-size="10.00">paramtk.ScrodgetWidget</text>
</g>
<!-- paramtk.ScrodgetWidget&#45;&gt;paramtk.Scrodget -->
<g id="edge26" class="edge"><title>paramtk.ScrodgetWidget&#45;&gt;paramtk.Scrodget</title>
<path fill="none" stroke="black" stroke-width="0.5" d="M592.045,-162C614.148,-162 638.44,-162 659.681,-162"/>
<polygon fill="black" stroke="black" points="659.728,-163.75 664.728,-162 659.728,-160.25 659.728,-163.75"/>
</g>
<!-- paramtk.ParametersFrame&#45;&gt;paramtk.ParametersFrameWithApply -->
<g id="edge32" class="edge"><title>paramtk.ParametersFrame&#45;&gt;paramtk.ParametersFrameWithApply</title>
<path fill="none" stroke="black" stroke-width="0.5" d="M976.272,-48C986.862,-48 997.915,-48 1008.93,-48"/>
<polygon fill="black" stroke="black" points="1008.99,-49.7501 1013.99,-48 1008.99,-46.2501 1008.99,-49.7501"/>
</g>
<!-- paramtk.ScrolledWindow -->
<g id="node45" class="node"><title>paramtk.ScrolledWindow</title>
<polygon fill="none" stroke="black" stroke-width="0.5" points="784,-20.5 650,-20.5 650,0.5 784,0.5 784,-20.5"/>
<text text-anchor="middle" x="717" y="-7.5" font-family="Vera" font-size="10.00">paramtk.ScrolledWindow</text>
</g>
<!-- paramtk.AppWindow -->
<g id="node56" class="node"><title>paramtk.AppWindow</title>
<polygon fill="none" stroke="black" stroke-width="0.5" points="960,-20.5 846,-20.5 846,0.5 960,0.5 960,-20.5"/>
<text text-anchor="middle" x="903" y="-7.5" font-family="Vera" font-size="10.00">paramtk.AppWindow</text>
</g>
<!-- paramtk.ScrolledWindow&#45;&gt;paramtk.AppWindow -->
<g id="edge50" class="edge"><title>paramtk.ScrolledWindow&#45;&gt;paramtk.AppWindow</title>
<path fill="none" stroke="black" stroke-width="0.5" d="M784.15,-10C802.603,-10 822.53,-10 840.697,-10"/>
<polygon fill="black" stroke="black" points="840.771,-11.7501 845.771,-10 840.771,-8.2501 840.771,-11.7501"/>
</g>
<!-- Tkinter.Toplevel -->
<g id="node46" class="node"><title>Tkinter.Toplevel</title>
<polygon fill="none" stroke="black" stroke-width="0.5" points="568,-58.5 480,-58.5 480,-37.5 568,-37.5 568,-58.5"/>
<text text-anchor="middle" x="524" y="-45.5" font-family="Vera" font-size="10.00">Tkinter.Toplevel</text>
</g>
<!-- Tkinter.Toplevel&#45;&gt;paramtk.ScrolledWindow -->
<g id="edge38" class="edge"><title>Tkinter.Toplevel&#45;&gt;paramtk.ScrolledWindow</title>
<path fill="none" stroke="black" stroke-width="0.5" d="M568.763,-39.1865C596.238,-33.7771 631.656,-26.8035 660.982,-21.0295"/>
<polygon fill="black" stroke="black" points="661.44,-22.723 666.007,-20.04 660.764,-19.2889 661.44,-22.723"/>
</g>
<!-- paramtk.ToolTip -->
<g id="node49" class="node"><title>paramtk.ToolTip</title>
<polygon fill="none" stroke="black" stroke-width="0.5" points="763,-58.5 671,-58.5 671,-37.5 763,-37.5 763,-58.5"/>
<text text-anchor="middle" x="717" y="-45.5" font-family="Vera" font-size="10.00">paramtk.ToolTip</text>
</g>
<!-- Tkinter.Toplevel&#45;&gt;paramtk.ToolTip -->
<g id="edge42" class="edge"><title>Tkinter.Toplevel&#45;&gt;paramtk.ToolTip</title>
<path fill="none" stroke="black" stroke-width="0.5" d="M568.763,-48C597.711,-48 635.478,-48 665.646,-48"/>
<polygon fill="black" stroke="black" points="665.802,-49.7501 670.802,-48 665.802,-46.2501 665.802,-49.7501"/>
</g>
<!-- Tkinter.Wm -->
<g id="node53" class="node"><title>Tkinter.Wm</title>
<polygon fill="none" stroke="black" stroke-width="0.5" points="343,-58.5 275,-58.5 275,-37.5 343,-37.5 343,-58.5"/>
<text text-anchor="middle" x="309" y="-45.5" font-family="Vera" font-size="10.00">Tkinter.Wm</text>
</g>
<!-- Tkinter.Wm&#45;&gt;Tkinter.Toplevel -->
<g id="edge84" class="edge"><title>Tkinter.Wm&#45;&gt;Tkinter.Toplevel</title>
<path fill="none" stroke="black" stroke-width="0.5" d="M343.543,-48C378.874,-48 434.11,-48 474.169,-48"/>
<polygon fill="black" stroke="black" points="474.47,-49.7501 479.47,-48 474.47,-46.2501 474.47,-49.7501"/>
</g>
<!-- paramtk.ListRepresenter -->
<g id="node62" class="node"><title>paramtk.ListRepresenter</title>
<polygon fill="none" stroke="black" stroke-width="0.5" points="784,-134.5 650,-134.5 650,-113.5 784,-113.5 784,-134.5"/>
<text text-anchor="middle" x="717" y="-121.5" font-family="Vera" font-size="10.00">paramtk.ListRepresenter</text>
</g>
<!-- paramtk.Representer&#45;&gt;paramtk.ListRepresenter -->
<g id="edge56" class="edge"><title>paramtk.Representer&#45;&gt;paramtk.ListRepresenter</title>
<path fill="none" stroke="black" stroke-width="0.5" d="M583.218,-124C602.627,-124 624.413,-124 644.678,-124"/>
<polygon fill="black" stroke="black" points="644.795,-125.75 649.795,-124 644.795,-122.25 644.795,-125.75"/>
</g>
<!-- Tkinter.Pack -->
<g id="node68" class="node"><title>Tkinter.Pack</title>
<polygon fill="none" stroke="black" stroke-width="0.5" points="345,-267.5 273,-267.5 273,-246.5 345,-246.5 345,-267.5"/>
<text text-anchor="middle" x="309" y="-254.5" font-family="Vera" font-size="10.00">Tkinter.Pack</text>
</g>
<!-- Tkinter.Pack&#45;&gt;Tkinter.Widget -->
<g id="edge76" class="edge"><title>Tkinter.Pack&#45;&gt;Tkinter.Widget</title>
<path fill="none" stroke="black" stroke-width="0.5" d="M345.96,-250.468C382.269,-244.05 437.801,-234.235 477.179,-227.275"/>
<polygon fill="black" stroke="black" points="477.764,-228.949 482.383,-226.356 477.154,-225.503 477.764,-228.949"/>
</g>
<!-- Tkinter.Place -->
<g id="node73" class="node"><title>Tkinter.Place</title>
<polygon fill="none" stroke="black" stroke-width="0.5" points="347,-229.5 271,-229.5 271,-208.5 347,-208.5 347,-229.5"/>
<text text-anchor="middle" x="309" y="-216.5" font-family="Vera" font-size="10.00">Tkinter.Place</text>
</g>
<!-- Tkinter.Place&#45;&gt;Tkinter.Widget -->
<g id="edge78" class="edge"><title>Tkinter.Place&#45;&gt;Tkinter.Widget</title>
<path fill="none" stroke="black" stroke-width="0.5" d="M347.935,-219C384.299,-219 438.629,-219 477.308,-219"/>
<polygon fill="black" stroke="black" points="477.42,-220.75 482.42,-219 477.42,-217.25 477.42,-220.75"/>
</g>
<!-- Tkinter.Grid -->
<g id="node76" class="node"><title>Tkinter.Grid</title>
<polygon fill="none" stroke="black" stroke-width="0.5" points="344,-191.5 274,-191.5 274,-170.5 344,-170.5 344,-191.5"/>
<text text-anchor="middle" x="309" y="-178.5" font-family="Vera" font-size="10.00">Tkinter.Grid</text>
</g>
<!-- Tkinter.Grid&#45;&gt;Tkinter.Widget -->
<g id="edge80" class="edge"><title>Tkinter.Grid&#45;&gt;Tkinter.Widget</title>
<path fill="none" stroke="black" stroke-width="0.5" d="M344.503,-187.275C380.687,-193.67 437.012,-203.625 476.905,-210.676"/>
<polygon fill="black" stroke="black" points="476.947,-212.461 482.175,-211.608 477.556,-209.014 476.947,-212.461"/>
</g>
<!-- Tkinter.BaseWidget&#45;&gt;Tkinter.Widget -->
<g id="edge74" class="edge"><title>Tkinter.BaseWidget&#45;&gt;Tkinter.Widget</title>
<path fill="none" stroke="black" stroke-width="0.5" d="M362.58,-87.5581C377.852,-90.2426 393.672,-95.4142 406,-105 435.505,-127.943 415.46,-154.683 442,-181 453.712,-192.613 469.631,-201.096 484.328,-207.062"/>
<polygon fill="black" stroke="black" points="483.963,-208.798 489.257,-208.989 485.238,-205.539 483.963,-208.798"/>
</g>
<!-- Tkinter.BaseWidget&#45;&gt;Tkinter.Toplevel -->
<g id="edge82" class="edge"><title>Tkinter.BaseWidget&#45;&gt;Tkinter.Toplevel</title>
<path fill="none" stroke="black" stroke-width="0.5" d="M362.699,-76.509C396.819,-70.4785 440.681,-62.7261 474.052,-56.8281"/>
<polygon fill="black" stroke="black" points="474.695,-58.4916 479.314,-55.898 474.086,-55.045 474.695,-58.4916"/>
</g>
</g>
</svg>
