<?xml version="1.0" encoding="UTF-8" standalone="no"?>
<!DOCTYPE svg PUBLIC "-//W3C//DTD SVG 1.1//EN"
 "http://www.w3.org/Graphics/SVG/1.1/DTD/svg11.dtd">
<!-- Generated by graphviz version 2.26.3 (20100126.1600)
 -->
<!-- Title: inheritance40f68afc84 Pages: 1 -->
<svg width="934pt" height="85pt"
 viewBox="0.00 0.00 934.00 85.00" xmlns="http://www.w3.org/2000/svg" xmlns:xlink="http://www.w3.org/1999/xlink">
<g id="graph1" class="graph" transform="scale(1 1) rotate(0) translate(4 81)">
<title>inheritance40f68afc84</title>
<polygon fill="white" stroke="white" points="-4,5 -4,-81 931,-81 931,5 -4,5"/>
<!-- lancet.dynamic.DynamicCommandTemplate -->
<g id="node1" class="node"><title>lancet.dynamic.DynamicCommandTemplate</title>
<polygon fill="none" stroke="black" stroke-width="0.5" points="672,-77.5 444,-77.5 444,-56.5 672,-56.5 672,-77.5"/>
<text text-anchor="middle" x="558" y="-64.5" font-family="Vera" font-size="10.00">lancet.dynamic.DynamicCommandTemplate</text>
</g>
<!-- lancet.launch.CommandTemplate -->
<g id="node2" class="node"><title>lancet.launch.CommandTemplate</title>
<polygon fill="none" stroke="black" stroke-width="0.5" points="407,-77.5 231,-77.5 231,-56.5 407,-56.5 407,-77.5"/>
<text text-anchor="middle" x="319" y="-64.5" font-family="Vera" font-size="10.00">lancet.launch.CommandTemplate</text>
</g>
<!-- lancet.launch.CommandTemplate&#45;&gt;lancet.dynamic.DynamicCommandTemplate -->
<g id="edge2" class="edge"><title>lancet.launch.CommandTemplate&#45;&gt;lancet.dynamic.DynamicCommandTemplate</title>
<path fill="none" stroke="black" stroke-width="0.5" d="M407.655,-67C417.816,-67 428.296,-67 438.773,-67"/>
<polygon fill="black" stroke="black" points="438.915,-68.7501 443.915,-67 438.915,-65.2501 438.915,-68.7501"/>
</g>
<!-- lancet.core.PrettyPrinted -->
<g id="node4" class="node"><title>lancet.core.PrettyPrinted</title>
<polygon fill="none" stroke="black" stroke-width="0.5" points="164,-77.5 30,-77.5 30,-56.5 164,-56.5 164,-77.5"/>
<text text-anchor="middle" x="97" y="-64.5" font-family="Vera" font-size="10.00">lancet.core.PrettyPrinted</text>
</g>
<!-- lancet.core.PrettyPrinted&#45;&gt;lancet.launch.CommandTemplate -->
<g id="edge8" class="edge"><title>lancet.core.PrettyPrinted&#45;&gt;lancet.launch.CommandTemplate</title>
<path fill="none" stroke="black" stroke-width="0.5" d="M164.512,-67C183.68,-67 204.904,-67 225.326,-67"/>
<polygon fill="black" stroke="black" points="225.499,-68.7501 230.499,-67 225.499,-65.2501 225.499,-68.7501"/>
</g>
<!-- lancet.core.BaseArgs -->
<g id="node6" class="node"><title>lancet.core.BaseArgs</title>
<polygon fill="none" stroke="black" stroke-width="0.5" points="378,-39.5 260,-39.5 260,-18.5 378,-18.5 378,-39.5"/>
<text text-anchor="middle" x="319" y="-26.5" font-family="Vera" font-size="10.00">lancet.core.BaseArgs</text>
</g>
<!-- lancet.core.PrettyPrinted&#45;&gt;lancet.core.BaseArgs -->
<g id="edge12" class="edge"><title>lancet.core.PrettyPrinted&#45;&gt;lancet.core.BaseArgs</title>
<path fill="none" stroke="black" stroke-width="0.5" d="M155.618,-56.9662C186.347,-51.7064 224.024,-45.2571 255.45,-39.8779"/>
<polygon fill="black" stroke="black" points="255.805,-41.5926 260.438,-39.024 255.215,-38.1428 255.805,-41.5926"/>
</g>
<!-- lancet.dynamic.DynamicArgs -->
<g id="node5" class="node"><title>lancet.dynamic.DynamicArgs</title>
<polygon fill="none" stroke="black" stroke-width="0.5" points="636,-39.5 480,-39.5 480,-18.5 636,-18.5 636,-39.5"/>
<text text-anchor="middle" x="558" y="-26.5" font-family="Vera" font-size="10.00">lancet.dynamic.DynamicArgs</text>
</g>
<!-- lancet.dynamic.DynamicConcatenate -->
<g id="node8" class="node"><title>lancet.dynamic.DynamicConcatenate</title>
<polygon fill="none" stroke="black" stroke-width="0.5" points="915,-58.5 719,-58.5 719,-37.5 915,-37.5 915,-58.5"/>
<text text-anchor="middle" x="817" y="-45.5" font-family="Vera" font-size="10.00">lancet.dynamic.DynamicConcatenate</text>
</g>
<!-- lancet.dynamic.DynamicArgs&#45;&gt;lancet.dynamic.DynamicConcatenate -->
<g id="edge6" class="edge"><title>lancet.dynamic.DynamicArgs&#45;&gt;lancet.dynamic.DynamicConcatenate</title>
<path fill="none" stroke="black" stroke-width="0.5" d="M636.06,-34.7264C660.496,-36.519 687.851,-38.5257 713.744,-40.4253"/>
<polygon fill="black" stroke="black" points="713.788,-42.183 718.902,-40.8036 714.044,-38.6924 713.788,-42.183"/>
</g>
<!-- lancet.dynamic.DynamicCartesianProduct -->
<g id="node15" class="node"><title>lancet.dynamic.DynamicCartesianProduct</title>
<polygon fill="none" stroke="black" stroke-width="0.5" points="925,-20.5 709,-20.5 709,0.5 925,0.5 925,-20.5"/>
<text text-anchor="middle" x="817" y="-7.5" font-family="Vera" font-size="10.00">lancet.dynamic.DynamicCartesianProduct</text>
</g>
<!-- lancet.dynamic.DynamicArgs&#45;&gt;lancet.dynamic.DynamicCartesianProduct -->
<g id="edge16" class="edge"><title>lancet.dynamic.DynamicArgs&#45;&gt;lancet.dynamic.DynamicCartesianProduct</title>
<path fill="none" stroke="black" stroke-width="0.5" d="M636.06,-23.2736C657.246,-21.7194 680.626,-20.0043 703.346,-18.3376"/>
<polygon fill="black" stroke="black" points="703.629,-20.0716 708.488,-17.9604 703.373,-16.5809 703.629,-20.0716"/>
</g>
<!-- lancet.core.BaseArgs&#45;&gt;lancet.dynamic.DynamicArgs -->
<g id="edge4" class="edge"><title>lancet.core.BaseArgs&#45;&gt;lancet.dynamic.DynamicArgs</title>
<path fill="none" stroke="black" stroke-width="0.5" d="M378.693,-29C407.698,-29 443.035,-29 474.647,-29"/>
<polygon fill="black" stroke="black" points="474.687,-30.7501 479.687,-29 474.687,-27.2501 474.687,-30.7501"/>
</g>
<!-- param.parameterized.Parameterized -->
<g id="node11" class="node"><title>param.parameterized.Parameterized</title>
<polygon fill="none" stroke="black" stroke-width="0.5" points="194,-39.5 5.68434e-14,-39.5 0,-18.5 194,-18.5 194,-39.5"/>
<text text-anchor="middle" x="97" y="-26.5" font-family="Vera" font-size="10.00">param.parameterized.Parameterized</text>
</g>
<!-- param.parameterized.Parameterized&#45;&gt;lancet.launch.CommandTemplate -->
<g id="edge10" class="edge"><title>param.parameterized.Parameterized&#45;&gt;lancet.launch.CommandTemplate</title>
<path fill="none" stroke="black" stroke-width="0.5" d="M155.618,-39.0338C186.347,-44.2936 224.024,-50.7429 255.45,-56.1221"/>
<polygon fill="black" stroke="black" points="255.215,-57.8572 260.438,-56.976 255.805,-54.4074 255.215,-57.8572"/>
</g>
<!-- param.parameterized.Parameterized&#45;&gt;lancet.core.BaseArgs -->
<g id="edge14" class="edge"><title>param.parameterized.Parameterized&#45;&gt;lancet.core.BaseArgs</title>
<path fill="none" stroke="black" stroke-width="0.5" d="M194.049,-29C214.312,-29 235.205,-29 253.97,-29"/>
<polygon fill="black" stroke="black" points="254.204,-30.7501 259.203,-29 254.203,-27.2501 254.204,-30.7501"/>
</g>
</g>
</svg>
