<?xml version="1.0" encoding="UTF-8" standalone="no"?>
<!DOCTYPE svg PUBLIC "-//W3C//DTD SVG 1.1//EN"
 "http://www.w3.org/Graphics/SVG/1.1/DTD/svg11.dtd">
<!-- Generated by graphviz version 2.26.3 (20100126.1600)
 -->
<!-- Title: inheritance3d1eaa8e0e Pages: 1 -->
<svg width="1284pt" height="199pt"
 viewBox="0.00 0.00 1284.00 199.00" xmlns="http://www.w3.org/2000/svg" xmlns:xlink="http://www.w3.org/1999/xlink">
<g id="graph1" class="graph" transform="scale(1 1) rotate(0) translate(4 195)">
<title>inheritance3d1eaa8e0e</title>
<polygon fill="white" stroke="white" points="-4,5 -4,-195 1281,-195 1281,5 -4,5"/>
<!-- topo.misc.distribution.Distribution -->
<g id="node1" class="node"><title>topo.misc.distribution.Distribution</title>
<polygon fill="none" stroke="black" stroke-width="0.5" points="186,-20.5 8,-20.5 8,0.5 186,0.5 186,-20.5"/>
<text text-anchor="middle" x="97" y="-7.5" font-family="Vera" font-size="10.00">topo.misc.distribution.Distribution</text>
</g>
<!-- topo.misc.distribution.Pref -->
<g id="node2" class="node"><title>topo.misc.distribution.Pref</title>
<polygon fill="none" stroke="black" stroke-width="0.5" points="168,-58.5 26,-58.5 26,-37.5 168,-37.5 168,-58.5"/>
<text text-anchor="middle" x="97" y="-45.5" font-family="Vera" font-size="10.00">topo.misc.distribution.Pref</text>
</g>
<!-- topo.misc.distribution.DSF_MaxValue -->
<g id="node3" class="node"><title>topo.misc.distribution.DSF_MaxValue</title>
<polygon fill="none" stroke="black" stroke-width="0.5" points="988,-191.5 794,-191.5 794,-170.5 988,-170.5 988,-191.5"/>
<text text-anchor="middle" x="891" y="-178.5" font-family="Vera" font-size="10.00">topo.misc.distribution.DSF_MaxValue</text>
</g>
<!-- topo.misc.distribution.DescriptiveStatisticFn -->
<g id="node4" class="node"><title>topo.misc.distribution.DescriptiveStatisticFn</title>
<polygon fill="none" stroke="black" stroke-width="0.5" points="721,-134.5 495,-134.5 495,-113.5 721,-113.5 721,-134.5"/>
<text text-anchor="middle" x="608" y="-121.5" font-family="Vera" font-size="10.00">topo.misc.distribution.DescriptiveStatisticFn</text>
</g>
<!-- topo.misc.distribution.DescriptiveStatisticFn&#45;&gt;topo.misc.distribution.DSF_MaxValue -->
<g id="edge2" class="edge"><title>topo.misc.distribution.DescriptiveStatisticFn&#45;&gt;topo.misc.distribution.DSF_MaxValue</title>
<path fill="none" stroke="black" stroke-width="0.5" d="M643.219,-134.05C673.465,-142.409 718.335,-154.166 758,-162 773.316,-165.025 789.715,-167.767 805.584,-170.168"/>
<polygon fill="black" stroke="black" points="805.739,-171.96 810.943,-170.968 806.256,-168.499 805.739,-171.96"/>
</g>
<!-- topo.misc.distribution.DSF_WeightedAverage -->
<g id="node6" class="node"><title>topo.misc.distribution.DSF_WeightedAverage</title>
<polygon fill="none" stroke="black" stroke-width="0.5" points="1006,-153.5 776,-153.5 776,-132.5 1006,-132.5 1006,-153.5"/>
<text text-anchor="middle" x="891" y="-140.5" font-family="Vera" font-size="10.00">topo.misc.distribution.DSF_WeightedAverage</text>
</g>
<!-- topo.misc.distribution.DescriptiveStatisticFn&#45;&gt;topo.misc.distribution.DSF_WeightedAverage -->
<g id="edge4" class="edge"><title>topo.misc.distribution.DescriptiveStatisticFn&#45;&gt;topo.misc.distribution.DSF_WeightedAverage</title>
<path fill="none" stroke="black" stroke-width="0.5" d="M721.884,-131.646C738.03,-132.73 754.675,-133.847 770.934,-134.939"/>
<polygon fill="black" stroke="black" points="770.86,-136.688 775.966,-135.277 771.095,-133.196 770.86,-136.688"/>
</g>
<!-- topo.misc.distribution.DescriptiveBimodalStatisticFn -->
<g id="node13" class="node"><title>topo.misc.distribution.DescriptiveBimodalStatisticFn</title>
<polygon fill="none" stroke="black" stroke-width="0.5" points="1024,-115.5 758,-115.5 758,-94.5 1024,-94.5 1024,-115.5"/>
<text text-anchor="middle" x="891" y="-102.5" font-family="Vera" font-size="10.00">topo.misc.distribution.DescriptiveBimodalStatisticFn</text>
</g>
<!-- topo.misc.distribution.DescriptiveStatisticFn&#45;&gt;topo.misc.distribution.DescriptiveBimodalStatisticFn -->
<g id="edge10" class="edge"><title>topo.misc.distribution.DescriptiveStatisticFn&#45;&gt;topo.misc.distribution.DescriptiveBimodalStatisticFn</title>
<path fill="none" stroke="black" stroke-width="0.5" d="M721.884,-116.354C732.047,-115.672 742.408,-114.976 752.746,-114.282"/>
<polygon fill="black" stroke="black" points="752.947,-116.023 757.818,-113.942 752.712,-112.53 752.947,-116.023"/>
</g>
<!-- param.parameterized.Parameterized -->
<g id="node8" class="node"><title>param.parameterized.Parameterized</title>
<polygon fill="none" stroke="black" stroke-width="0.5" points="194,-96.5 5.68434e-14,-96.5 0,-75.5 194,-75.5 194,-96.5"/>
<text text-anchor="middle" x="97" y="-83.5" font-family="Vera" font-size="10.00">param.parameterized.Parameterized</text>
</g>
<!-- topo.misc.distribution.DistributionStatisticFn -->
<g id="node10" class="node"><title>topo.misc.distribution.DistributionStatisticFn</title>
<polygon fill="none" stroke="black" stroke-width="0.5" points="458,-96.5 230,-96.5 230,-75.5 458,-75.5 458,-96.5"/>
<text text-anchor="middle" x="344" y="-83.5" font-family="Vera" font-size="10.00">topo.misc.distribution.DistributionStatisticFn</text>
</g>
<!-- param.parameterized.Parameterized&#45;&gt;topo.misc.distribution.DistributionStatisticFn -->
<g id="edge20" class="edge"><title>param.parameterized.Parameterized&#45;&gt;topo.misc.distribution.DistributionStatisticFn</title>
<path fill="none" stroke="black" stroke-width="0.5" d="M194.266,-86C204.153,-86 214.275,-86 224.362,-86"/>
<polygon fill="black" stroke="black" points="224.633,-87.7501 229.633,-86 224.633,-84.2501 224.633,-87.7501"/>
</g>
<!-- topo.misc.distribution.VonMisesStatisticFn -->
<g id="node9" class="node"><title>topo.misc.distribution.VonMisesStatisticFn</title>
<polygon fill="none" stroke="black" stroke-width="0.5" points="717,-77.5 499,-77.5 499,-56.5 717,-56.5 717,-77.5"/>
<text text-anchor="middle" x="608" y="-64.5" font-family="Vera" font-size="10.00">topo.misc.distribution.VonMisesStatisticFn</text>
</g>
<!-- topo.misc.distribution.DSF_VonMisesFit -->
<g id="node16" class="node"><title>topo.misc.distribution.DSF_VonMisesFit</title>
<polygon fill="none" stroke="black" stroke-width="0.5" points="992,-77.5 790,-77.5 790,-56.5 992,-56.5 992,-77.5"/>
<text text-anchor="middle" x="891" y="-64.5" font-family="Vera" font-size="10.00">topo.misc.distribution.DSF_VonMisesFit</text>
</g>
<!-- topo.misc.distribution.VonMisesStatisticFn&#45;&gt;topo.misc.distribution.DSF_VonMisesFit -->
<g id="edge12" class="edge"><title>topo.misc.distribution.VonMisesStatisticFn&#45;&gt;topo.misc.distribution.DSF_VonMisesFit</title>
<path fill="none" stroke="black" stroke-width="0.5" d="M717.01,-67C739.065,-67 762.234,-67 784.211,-67"/>
<polygon fill="black" stroke="black" points="784.473,-68.7501 789.473,-67 784.473,-65.2501 784.473,-68.7501"/>
</g>
<!-- topo.misc.distribution.DSF_BimodalVonMisesFit -->
<g id="node21" class="node"><title>topo.misc.distribution.DSF_BimodalVonMisesFit</title>
<polygon fill="none" stroke="black" stroke-width="0.5" points="1012,-39.5 770,-39.5 770,-18.5 1012,-18.5 1012,-39.5"/>
<text text-anchor="middle" x="891" y="-26.5" font-family="Vera" font-size="10.00">topo.misc.distribution.DSF_BimodalVonMisesFit</text>
</g>
<!-- topo.misc.distribution.VonMisesStatisticFn&#45;&gt;topo.misc.distribution.DSF_BimodalVonMisesFit -->
<g id="edge18" class="edge"><title>topo.misc.distribution.VonMisesStatisticFn&#45;&gt;topo.misc.distribution.DSF_BimodalVonMisesFit</title>
<path fill="none" stroke="black" stroke-width="0.5" d="M682.725,-56.9662C722.219,-51.6631 770.718,-45.1509 810.976,-39.7453"/>
<polygon fill="black" stroke="black" points="811.625,-41.424 816.347,-39.024 811.159,-37.9551 811.625,-41.424"/>
</g>
<!-- topo.misc.distribution.DistributionStatisticFn&#45;&gt;topo.misc.distribution.DescriptiveStatisticFn -->
<g id="edge16" class="edge"><title>topo.misc.distribution.DistributionStatisticFn&#45;&gt;topo.misc.distribution.DescriptiveStatisticFn</title>
<path fill="none" stroke="black" stroke-width="0.5" d="M413.708,-96.0338C450.551,-101.337 495.794,-107.849 533.349,-113.255"/>
<polygon fill="black" stroke="black" points="533.161,-114.996 538.359,-113.976 533.66,-111.531 533.161,-114.996"/>
</g>
<!-- topo.misc.distribution.DistributionStatisticFn&#45;&gt;topo.misc.distribution.VonMisesStatisticFn -->
<g id="edge6" class="edge"><title>topo.misc.distribution.DistributionStatisticFn&#45;&gt;topo.misc.distribution.VonMisesStatisticFn</title>
<path fill="none" stroke="black" stroke-width="0.5" d="M458.259,-77.7768C470.086,-76.9256 482.108,-76.0604 493.933,-75.2094"/>
<polygon fill="black" stroke="black" points="494.127,-76.95 498.988,-74.8456 493.875,-73.4591 494.127,-76.95"/>
</g>
<!-- topo.misc.distribution.DSF_BimodalPeaks -->
<g id="node12" class="node"><title>topo.misc.distribution.DSF_BimodalPeaks</title>
<polygon fill="none" stroke="black" stroke-width="0.5" points="1275,-134.5 1061,-134.5 1061,-113.5 1275,-113.5 1275,-134.5"/>
<text text-anchor="middle" x="1168" y="-121.5" font-family="Vera" font-size="10.00">topo.misc.distribution.DSF_BimodalPeaks</text>
</g>
<!-- topo.misc.distribution.DescriptiveBimodalStatisticFn&#45;&gt;topo.misc.distribution.DSF_BimodalPeaks -->
<g id="edge8" class="edge"><title>topo.misc.distribution.DescriptiveBimodalStatisticFn&#45;&gt;topo.misc.distribution.DSF_BimodalPeaks</title>
<path fill="none" stroke="black" stroke-width="0.5" d="M1024.23,-114.138C1034.59,-114.849 1044.99,-115.563 1055.2,-116.263"/>
<polygon fill="black" stroke="black" points="1055.09,-118.009 1060.19,-116.605 1055.33,-114.517 1055.09,-118.009"/>
</g>
<!-- topo.misc.distribution.DSF_TopTwoValues -->
<g id="node18" class="node"><title>topo.misc.distribution.DSF_TopTwoValues</title>
<polygon fill="none" stroke="black" stroke-width="0.5" points="1274,-96.5 1062,-96.5 1062,-75.5 1274,-75.5 1274,-96.5"/>
<text text-anchor="middle" x="1168" y="-83.5" font-family="Vera" font-size="10.00">topo.misc.distribution.DSF_TopTwoValues</text>
</g>
<!-- topo.misc.distribution.DescriptiveBimodalStatisticFn&#45;&gt;topo.misc.distribution.DSF_TopTwoValues -->
<g id="edge14" class="edge"><title>topo.misc.distribution.DescriptiveBimodalStatisticFn&#45;&gt;topo.misc.distribution.DSF_TopTwoValues</title>
<path fill="none" stroke="black" stroke-width="0.5" d="M1024.23,-95.8617C1035.07,-95.1183 1045.95,-94.3719 1056.61,-93.6407"/>
<polygon fill="black" stroke="black" points="1056.95,-95.3713 1061.82,-93.2831 1056.71,-91.8795 1056.95,-95.3713"/>
</g>
</g>
</svg>
