<?xml version="1.0" encoding="UTF-8" standalone="no"?>
<!DOCTYPE svg PUBLIC "-//W3C//DTD SVG 1.1//EN"
 "http://www.w3.org/Graphics/SVG/1.1/DTD/svg11.dtd">
<!-- Generated by graphviz version 2.26.3 (20100126.1600)
 -->
<!-- Title: inheritance0bce68b9cf Pages: 1 -->
<svg width="1872pt" height="422pt"
 viewBox="0.00 0.00 1872.00 422.00" xmlns="http://www.w3.org/2000/svg" xmlns:xlink="http://www.w3.org/1999/xlink">
<g id="graph1" class="graph" transform="scale(1 1) rotate(0) translate(4 418)">
<title>inheritance0bce68b9cf</title>
<polygon fill="white" stroke="white" points="-4,5 -4,-418 1869,-418 1869,5 -4,5"/>
<!-- topo.plotting.plotgroup.ProjectionSheetMeasurementCommand -->
<g id="node1" class="node"><title>topo.plotting.plotgroup.ProjectionSheetMeasurementCommand</title>
<polygon fill="none" stroke="black" stroke-width="0.5" points="822,-343.5 500,-343.5 500,-322.5 822,-322.5 822,-343.5"/>
<text text-anchor="middle" x="661" y="-330.5" font-family="Vera" font-size="10.00">topo.plotting.plotgroup.ProjectionSheetMeasurementCommand</text>
</g>
<!-- topo.plotting.plotgroup.UnitMeasurementCommand -->
<g id="node4" class="node"><title>topo.plotting.plotgroup.UnitMeasurementCommand</title>
<polygon fill="none" stroke="black" stroke-width="0.5" points="1145,-381.5 879,-381.5 879,-360.5 1145,-360.5 1145,-381.5"/>
<text text-anchor="middle" x="1012" y="-368.5" font-family="Vera" font-size="10.00">topo.plotting.plotgroup.UnitMeasurementCommand</text>
</g>
<!-- topo.plotting.plotgroup.ProjectionSheetMeasurementCommand&#45;&gt;topo.plotting.plotgroup.UnitMeasurementCommand -->
<g id="edge4" class="edge"><title>topo.plotting.plotgroup.ProjectionSheetMeasurementCommand&#45;&gt;topo.plotting.plotgroup.UnitMeasurementCommand</title>
<path fill="none" stroke="black" stroke-width="0.5" d="M753.68,-343.034C803.164,-348.391 864.045,-354.982 914.273,-360.42"/>
<polygon fill="black" stroke="black" points="914.25,-362.178 919.409,-360.976 914.627,-358.698 914.25,-362.178"/>
</g>
<!-- topo.command.analysis.update_projectionactivity -->
<g id="node46" class="node"><title>topo.command.analysis.update_projectionactivity</title>
<polygon fill="none" stroke="black" stroke-width="0.5" points="1139,-343.5 885,-343.5 885,-322.5 1139,-322.5 1139,-343.5"/>
<text text-anchor="middle" x="1012" y="-330.5" font-family="Vera" font-size="10.00">topo.command.analysis.update_projectionactivity</text>
</g>
<!-- topo.plotting.plotgroup.ProjectionSheetMeasurementCommand&#45;&gt;topo.command.analysis.update_projectionactivity -->
<g id="edge44" class="edge"><title>topo.plotting.plotgroup.ProjectionSheetMeasurementCommand&#45;&gt;topo.command.analysis.update_projectionactivity</title>
<path fill="none" stroke="black" stroke-width="0.5" d="M822.118,-333C841.391,-333 860.898,-333 879.699,-333"/>
<polygon fill="black" stroke="black" points="879.982,-334.75 884.982,-333 879.982,-331.25 879.982,-334.75"/>
</g>
<!-- param.parameterized.ParameterizedFunction -->
<g id="node2" class="node"><title>param.parameterized.ParameterizedFunction</title>
<polygon fill="none" stroke="black" stroke-width="0.5" points="464,-267.5 230,-267.5 230,-246.5 464,-246.5 464,-267.5"/>
<text text-anchor="middle" x="347" y="-254.5" font-family="Vera" font-size="10.00">param.parameterized.ParameterizedFunction</text>
</g>
<!-- param.parameterized.ParameterizedFunction&#45;&gt;topo.plotting.plotgroup.ProjectionSheetMeasurementCommand -->
<g id="edge2" class="edge"><title>param.parameterized.ParameterizedFunction&#45;&gt;topo.plotting.plotgroup.ProjectionSheetMeasurementCommand</title>
<path fill="none" stroke="black" stroke-width="0.5" d="M368.777,-267.01C397.99,-279.992 451.782,-302.351 500,-314 513.401,-317.238 527.569,-319.932 541.718,-322.172"/>
<polygon fill="black" stroke="black" points="541.721,-323.943 546.929,-322.977 542.255,-320.484 541.721,-323.943"/>
</g>
<!-- topo.base.functionfamily.PatternDrivenAnalysis -->
<g id="node19" class="node"><title>topo.base.functionfamily.PatternDrivenAnalysis</title>
<polygon fill="none" stroke="black" stroke-width="0.5" points="781,-305.5 541,-305.5 541,-284.5 781,-284.5 781,-305.5"/>
<text text-anchor="middle" x="661" y="-292.5" font-family="Vera" font-size="10.00">topo.base.functionfamily.PatternDrivenAnalysis</text>
</g>
<!-- param.parameterized.ParameterizedFunction&#45;&gt;topo.base.functionfamily.PatternDrivenAnalysis -->
<g id="edge16" class="edge"><title>param.parameterized.ParameterizedFunction&#45;&gt;topo.base.functionfamily.PatternDrivenAnalysis</title>
<path fill="none" stroke="black" stroke-width="0.5" d="M426.793,-267.002C450.364,-269.932 476.218,-273.12 500,-276 522.73,-278.752 547.271,-281.674 570.177,-284.38"/>
<polygon fill="black" stroke="black" points="570.174,-286.141 575.345,-284.99 570.584,-282.665 570.174,-286.141"/>
</g>
<!-- topo.command.analysis.save_plotgroup -->
<g id="node21" class="node"><title>topo.command.analysis.save_plotgroup</title>
<polygon fill="none" stroke="black" stroke-width="0.5" points="765,-267.5 557,-267.5 557,-246.5 765,-246.5 765,-267.5"/>
<text text-anchor="middle" x="661" y="-254.5" font-family="Vera" font-size="10.00">topo.command.analysis.save_plotgroup</text>
</g>
<!-- param.parameterized.ParameterizedFunction&#45;&gt;topo.command.analysis.save_plotgroup -->
<g id="edge18" class="edge"><title>param.parameterized.ParameterizedFunction&#45;&gt;topo.command.analysis.save_plotgroup</title>
<path fill="none" stroke="black" stroke-width="0.5" d="M464.369,-257C492.984,-257 523.479,-257 551.702,-257"/>
<polygon fill="black" stroke="black" points="551.945,-258.75 556.945,-257 551.945,-255.25 551.945,-258.75"/>
</g>
<!-- topo.analysis.featureresponses.PatternPresentingCommand -->
<g id="node28" class="node"><title>topo.analysis.featureresponses.PatternPresentingCommand</title>
<polygon fill="none" stroke="black" stroke-width="0.5" points="813,-229.5 509,-229.5 509,-208.5 813,-208.5 813,-229.5"/>
<text text-anchor="middle" x="661" y="-216.5" font-family="Vera" font-size="10.00">topo.analysis.featureresponses.PatternPresentingCommand</text>
</g>
<!-- param.parameterized.ParameterizedFunction&#45;&gt;topo.analysis.featureresponses.PatternPresentingCommand -->
<g id="edge62" class="edge"><title>param.parameterized.ParameterizedFunction&#45;&gt;topo.analysis.featureresponses.PatternPresentingCommand</title>
<path fill="none" stroke="black" stroke-width="0.5" d="M426.793,-246.998C450.364,-244.068 476.218,-240.88 500,-238 522.73,-235.248 547.271,-232.326 570.177,-229.62"/>
<polygon fill="black" stroke="black" points="570.584,-231.335 575.345,-229.01 570.174,-227.859 570.584,-231.335"/>
</g>
<!-- topo.command.analysis.update_projection -->
<g id="node17" class="node"><title>topo.command.analysis.update_projection</title>
<polygon fill="none" stroke="black" stroke-width="0.5" points="1490,-414.5 1270,-414.5 1270,-393.5 1490,-393.5 1490,-414.5"/>
<text text-anchor="middle" x="1380" y="-401.5" font-family="Vera" font-size="10.00">topo.command.analysis.update_projection</text>
</g>
<!-- topo.plotting.plotgroup.UnitMeasurementCommand&#45;&gt;topo.command.analysis.update_projection -->
<g id="edge14" class="edge"><title>topo.plotting.plotgroup.UnitMeasurementCommand&#45;&gt;topo.command.analysis.update_projection</title>
<path fill="none" stroke="black" stroke-width="0.5" d="M1123.66,-381.013C1168.16,-385.003 1219.37,-389.596 1264.27,-393.622"/>
<polygon fill="black" stroke="black" points="1264.29,-395.381 1269.43,-394.085 1264.6,-391.895 1264.29,-395.381"/>
</g>
<!-- topo.command.analysis.update_connectionfields -->
<g id="node58" class="node"><title>topo.command.analysis.update_connectionfields</title>
<polygon fill="none" stroke="black" stroke-width="0.5" points="1505,-376.5 1255,-376.5 1255,-355.5 1505,-355.5 1505,-376.5"/>
<text text-anchor="middle" x="1380" y="-363.5" font-family="Vera" font-size="10.00">topo.command.analysis.update_connectionfields</text>
</g>
<!-- topo.plotting.plotgroup.UnitMeasurementCommand&#45;&gt;topo.command.analysis.update_connectionfields -->
<g id="edge56" class="edge"><title>topo.plotting.plotgroup.UnitMeasurementCommand&#45;&gt;topo.command.analysis.update_connectionfields</title>
<path fill="none" stroke="black" stroke-width="0.5" d="M1145.12,-369.191C1178.91,-368.732 1215.19,-368.239 1248.88,-367.782"/>
<polygon fill="black" stroke="black" points="1249.29,-369.526 1254.27,-367.708 1249.24,-366.027 1249.29,-369.526"/>
</g>
<!-- imagen.patterngenerator.PatternGenerator -->
<g id="node6" class="node"><title>imagen.patterngenerator.PatternGenerator</title>
<polygon fill="none" stroke="black" stroke-width="0.5" points="459,-172.5 235,-172.5 235,-151.5 459,-151.5 459,-172.5"/>
<text text-anchor="middle" x="347" y="-159.5" font-family="Vera" font-size="10.00">imagen.patterngenerator.PatternGenerator</text>
</g>
<!-- topo.command.analysis.log_frequency_mapper -->
<g id="node15" class="node"><title>topo.command.analysis.log_frequency_mapper</title>
<polygon fill="none" stroke="black" stroke-width="0.5" points="783,-191.5 539,-191.5 539,-170.5 783,-170.5 783,-191.5"/>
<text text-anchor="middle" x="661" y="-178.5" font-family="Vera" font-size="10.00">topo.command.analysis.log_frequency_mapper</text>
</g>
<!-- imagen.patterngenerator.PatternGenerator&#45;&gt;topo.command.analysis.log_frequency_mapper -->
<g id="edge12" class="edge"><title>imagen.patterngenerator.PatternGenerator&#45;&gt;topo.command.analysis.log_frequency_mapper</title>
<path fill="none" stroke="black" stroke-width="0.5" d="M459.031,-168.779C483.203,-170.242 508.927,-171.798 533.635,-173.293"/>
<polygon fill="black" stroke="black" points="533.794,-175.056 538.891,-173.611 534.006,-171.562 533.794,-175.056"/>
</g>
<!-- topo.command.analysis.latency_mapper -->
<g id="node37" class="node"><title>topo.command.analysis.latency_mapper</title>
<polygon fill="none" stroke="black" stroke-width="0.5" points="767,-153.5 555,-153.5 555,-132.5 767,-132.5 767,-153.5"/>
<text text-anchor="middle" x="661" y="-140.5" font-family="Vera" font-size="10.00">topo.command.analysis.latency_mapper</text>
</g>
<!-- imagen.patterngenerator.PatternGenerator&#45;&gt;topo.command.analysis.latency_mapper -->
<g id="edge34" class="edge"><title>imagen.patterngenerator.PatternGenerator&#45;&gt;topo.command.analysis.latency_mapper</title>
<path fill="none" stroke="black" stroke-width="0.5" d="M459.031,-155.221C488.501,-153.438 520.279,-151.515 549.709,-149.734"/>
<polygon fill="black" stroke="black" points="549.907,-151.475 554.792,-149.427 549.696,-147.982 549.907,-151.475"/>
</g>
<!-- topo.command.analysis.frequency_mapper -->
<g id="node54" class="node"><title>topo.command.analysis.frequency_mapper</title>
<polygon fill="none" stroke="black" stroke-width="0.5" points="773,-115.5 549,-115.5 549,-94.5 773,-94.5 773,-115.5"/>
<text text-anchor="middle" x="661" y="-102.5" font-family="Vera" font-size="10.00">topo.command.analysis.frequency_mapper</text>
</g>
<!-- imagen.patterngenerator.PatternGenerator&#45;&gt;topo.command.analysis.frequency_mapper -->
<g id="edge52" class="edge"><title>imagen.patterngenerator.PatternGenerator&#45;&gt;topo.command.analysis.frequency_mapper</title>
<path fill="none" stroke="black" stroke-width="0.5" d="M429.959,-151.969C441.538,-149.577 453.171,-146.629 464,-143 481.154,-137.252 482.725,-129.373 500,-124 513.884,-119.682 528.721,-116.333 543.56,-113.737"/>
<polygon fill="black" stroke="black" points="543.954,-115.446 548.591,-112.886 543.369,-111.995 543.954,-115.446"/>
</g>
<!-- param.parameterized.Parameterized -->
<g id="node7" class="node"><title>param.parameterized.Parameterized</title>
<polygon fill="none" stroke="black" stroke-width="0.5" points="194,-172.5 5.68434e-14,-172.5 0,-151.5 194,-151.5 194,-172.5"/>
<text text-anchor="middle" x="97" y="-159.5" font-family="Vera" font-size="10.00">param.parameterized.Parameterized</text>
</g>
<!-- param.parameterized.Parameterized&#45;&gt;param.parameterized.ParameterizedFunction -->
<g id="edge36" class="edge"><title>param.parameterized.Parameterized&#45;&gt;param.parameterized.ParameterizedFunction</title>
<path fill="none" stroke="black" stroke-width="0.5" d="M123.754,-172.167C170.275,-189.844 265.838,-226.159 315.489,-245.026"/>
<polygon fill="black" stroke="black" points="315.142,-246.766 320.438,-246.906 316.386,-243.494 315.142,-246.766"/>
</g>
<!-- param.parameterized.Parameterized&#45;&gt;imagen.patterngenerator.PatternGenerator -->
<g id="edge6" class="edge"><title>param.parameterized.Parameterized&#45;&gt;imagen.patterngenerator.PatternGenerator</title>
<path fill="none" stroke="black" stroke-width="0.5" d="M194.014,-162C205.664,-162 217.655,-162 229.554,-162"/>
<polygon fill="black" stroke="black" points="229.647,-163.75 234.647,-162 229.647,-160.25 229.647,-163.75"/>
</g>
<!-- topo.command.analysis.PatternPresenter2 -->
<g id="node26" class="node"><title>topo.command.analysis.PatternPresenter2</title>
<polygon fill="none" stroke="black" stroke-width="0.5" points="457,-134.5 237,-134.5 237,-113.5 457,-113.5 457,-134.5"/>
<text text-anchor="middle" x="347" y="-121.5" font-family="Vera" font-size="10.00">topo.command.analysis.PatternPresenter2</text>
</g>
<!-- param.parameterized.Parameterized&#45;&gt;topo.command.analysis.PatternPresenter2 -->
<g id="edge22" class="edge"><title>param.parameterized.Parameterized&#45;&gt;topo.command.analysis.PatternPresenter2</title>
<path fill="none" stroke="black" stroke-width="0.5" d="M163.012,-151.966C197.758,-146.685 240.394,-140.204 275.872,-134.811"/>
<polygon fill="black" stroke="black" points="276.372,-136.506 281.052,-134.024 275.846,-133.045 276.372,-136.506"/>
</g>
<!-- topo.command.analysis.measure_corner_angle_pref -->
<g id="node9" class="node"><title>topo.command.analysis.measure_corner_angle_pref</title>
<polygon fill="none" stroke="black" stroke-width="0.5" points="1863,-362.5 1595,-362.5 1595,-341.5 1863,-341.5 1863,-362.5"/>
<text text-anchor="middle" x="1729" y="-349.5" font-family="Vera" font-size="10.00">topo.command.analysis.measure_corner_angle_pref</text>
</g>
<!-- topo.analysis.featureresponses.PositionMeasurementCommand -->
<g id="node10" class="node"><title>topo.analysis.featureresponses.PositionMeasurementCommand</title>
<polygon fill="none" stroke="black" stroke-width="0.5" points="1542,-291.5 1218,-291.5 1218,-270.5 1542,-270.5 1542,-291.5"/>
<text text-anchor="middle" x="1380" y="-278.5" font-family="Vera" font-size="10.00">topo.analysis.featureresponses.PositionMeasurementCommand</text>
</g>
<!-- topo.analysis.featureresponses.PositionMeasurementCommand&#45;&gt;topo.command.analysis.measure_corner_angle_pref -->
<g id="edge8" class="edge"><title>topo.analysis.featureresponses.PositionMeasurementCommand&#45;&gt;topo.command.analysis.measure_corner_angle_pref</title>
<path fill="none" stroke="black" stroke-width="0.5" d="M1534.12,-291.121C1542.34,-293.61 1550.35,-296.547 1558,-300 1577.78,-308.933 1574.37,-323.738 1594,-333 1600.06,-335.857 1606.42,-338.315 1612.95,-340.427"/>
<polygon fill="black" stroke="black" points="1612.69,-342.176 1617.98,-341.975 1613.72,-338.831 1612.69,-342.176"/>
</g>
<!-- topo.command.analysis.measure_corner_or_pref -->
<g id="node52" class="node"><title>topo.command.analysis.measure_corner_or_pref</title>
<polygon fill="none" stroke="black" stroke-width="0.5" points="1855,-324.5 1603,-324.5 1603,-303.5 1855,-303.5 1855,-324.5"/>
<text text-anchor="middle" x="1729" y="-311.5" font-family="Vera" font-size="10.00">topo.command.analysis.measure_corner_or_pref</text>
</g>
<!-- topo.analysis.featureresponses.PositionMeasurementCommand&#45;&gt;topo.command.analysis.measure_corner_or_pref -->
<g id="edge50" class="edge"><title>topo.analysis.featureresponses.PositionMeasurementCommand&#45;&gt;topo.command.analysis.measure_corner_or_pref</title>
<path fill="none" stroke="black" stroke-width="0.5" d="M1486.13,-291.035C1527.85,-294.981 1575.77,-299.511 1617.96,-303.5"/>
<polygon fill="black" stroke="black" points="1617.93,-305.255 1623.07,-303.984 1618.26,-301.771 1617.93,-305.255"/>
</g>
<!-- topo.analysis.featureresponses.SingleInputResponseCommand -->
<g id="node12" class="node"><title>topo.analysis.featureresponses.SingleInputResponseCommand</title>
<polygon fill="none" stroke="black" stroke-width="0.5" points="1539,-234.5 1221,-234.5 1221,-213.5 1539,-213.5 1539,-234.5"/>
<text text-anchor="middle" x="1380" y="-221.5" font-family="Vera" font-size="10.00">topo.analysis.featureresponses.SingleInputResponseCommand</text>
</g>
<!-- topo.command.analysis.measure_rfs -->
<g id="node30" class="node"><title>topo.command.analysis.measure_rfs</title>
<polygon fill="none" stroke="black" stroke-width="0.5" points="1826,-286.5 1632,-286.5 1632,-265.5 1826,-265.5 1826,-286.5"/>
<text text-anchor="middle" x="1729" y="-273.5" font-family="Vera" font-size="10.00">topo.command.analysis.measure_rfs</text>
</g>
<!-- topo.analysis.featureresponses.SingleInputResponseCommand&#45;&gt;topo.command.analysis.measure_rfs -->
<g id="edge26" class="edge"><title>topo.analysis.featureresponses.SingleInputResponseCommand&#45;&gt;topo.command.analysis.measure_rfs</title>
<path fill="none" stroke="black" stroke-width="0.5" d="M1443.64,-234.039C1486.19,-240.694 1543.42,-249.541 1594,-257 1612.51,-259.73 1632.47,-262.586 1651.21,-265.23"/>
<polygon fill="black" stroke="black" points="1651.27,-267.005 1656.46,-265.97 1651.75,-263.539 1651.27,-267.005"/>
</g>
<!-- topo.analysis.featureresponses.MeasureResponseCommand -->
<g id="node13" class="node"><title>topo.analysis.featureresponses.MeasureResponseCommand</title>
<polygon fill="none" stroke="black" stroke-width="0.5" points="1165,-191.5 859,-191.5 859,-170.5 1165,-170.5 1165,-191.5"/>
<text text-anchor="middle" x="1012" y="-178.5" font-family="Vera" font-size="10.00">topo.analysis.featureresponses.MeasureResponseCommand</text>
</g>
<!-- topo.analysis.featureresponses.MeasureResponseCommand&#45;&gt;topo.analysis.featureresponses.PositionMeasurementCommand -->
<g id="edge42" class="edge"><title>topo.analysis.featureresponses.MeasureResponseCommand&#45;&gt;topo.analysis.featureresponses.PositionMeasurementCommand</title>
<path fill="none" stroke="black" stroke-width="0.5" d="M1039.73,-191.067C1076.49,-204.175 1143.53,-227.266 1202,-243 1241.26,-253.566 1286.02,-263.11 1320.84,-269.991"/>
<polygon fill="black" stroke="black" points="1320.66,-271.739 1325.9,-270.986 1321.33,-268.304 1320.66,-271.739"/>
</g>
<!-- topo.analysis.featureresponses.MeasureResponseCommand&#45;&gt;topo.analysis.featureresponses.SingleInputResponseCommand -->
<g id="edge10" class="edge"><title>topo.analysis.featureresponses.MeasureResponseCommand&#45;&gt;topo.analysis.featureresponses.SingleInputResponseCommand</title>
<path fill="none" stroke="black" stroke-width="0.5" d="M1097.82,-191.027C1155.23,-197.736 1230.69,-206.553 1289.12,-213.381"/>
<polygon fill="black" stroke="black" points="1289.2,-215.152 1294.37,-213.994 1289.6,-211.675 1289.2,-215.152"/>
</g>
<!-- topo.analysis.featureresponses.SinusoidalMeasureResponseCommand -->
<g id="node24" class="node"><title>topo.analysis.featureresponses.SinusoidalMeasureResponseCommand</title>
<polygon fill="none" stroke="black" stroke-width="0.5" points="1558,-191.5 1202,-191.5 1202,-170.5 1558,-170.5 1558,-191.5"/>
<text text-anchor="middle" x="1380" y="-178.5" font-family="Vera" font-size="10.00">topo.analysis.featureresponses.SinusoidalMeasureResponseCommand</text>
</g>
<!-- topo.analysis.featureresponses.MeasureResponseCommand&#45;&gt;topo.analysis.featureresponses.SinusoidalMeasureResponseCommand -->
<g id="edge30" class="edge"><title>topo.analysis.featureresponses.MeasureResponseCommand&#45;&gt;topo.analysis.featureresponses.SinusoidalMeasureResponseCommand</title>
<path fill="none" stroke="black" stroke-width="0.5" d="M1165.67,-181C1175.91,-181 1186.29,-181 1196.66,-181"/>
<polygon fill="black" stroke="black" points="1196.75,-182.75 1201.75,-181 1196.75,-179.25 1196.75,-182.75"/>
</g>
<!-- topo.command.analysis.measure_frequency_preference -->
<g id="node48" class="node"><title>topo.command.analysis.measure_frequency_preference</title>
<polygon fill="none" stroke="black" stroke-width="0.5" points="1523,-153.5 1237,-153.5 1237,-132.5 1523,-132.5 1523,-153.5"/>
<text text-anchor="middle" x="1380" y="-140.5" font-family="Vera" font-size="10.00">topo.command.analysis.measure_frequency_preference</text>
</g>
<!-- topo.analysis.featureresponses.MeasureResponseCommand&#45;&gt;topo.command.analysis.measure_frequency_preference -->
<g id="edge46" class="edge"><title>topo.analysis.featureresponses.MeasureResponseCommand&#45;&gt;topo.command.analysis.measure_frequency_preference</title>
<path fill="none" stroke="black" stroke-width="0.5" d="M1109.17,-170.966C1161.15,-165.598 1225.14,-158.991 1277.86,-153.547"/>
<polygon fill="black" stroke="black" points="1278.13,-155.278 1282.93,-153.024 1277.77,-151.797 1278.13,-155.278"/>
</g>
<!-- topo.command.analysis.measure_latency_preference -->
<g id="node60" class="node"><title>topo.command.analysis.measure_latency_preference</title>
<polygon fill="none" stroke="black" stroke-width="0.5" points="1517,-115.5 1243,-115.5 1243,-94.5 1517,-94.5 1517,-115.5"/>
<text text-anchor="middle" x="1380" y="-102.5" font-family="Vera" font-size="10.00">topo.command.analysis.measure_latency_preference</text>
</g>
<!-- topo.analysis.featureresponses.MeasureResponseCommand&#45;&gt;topo.command.analysis.measure_latency_preference -->
<g id="edge58" class="edge"><title>topo.analysis.featureresponses.MeasureResponseCommand&#45;&gt;topo.command.analysis.measure_latency_preference</title>
<path fill="none" stroke="black" stroke-width="0.5" d="M1039.6,-170.958C1076.21,-158.045 1143.09,-135.874 1202,-124 1218.29,-120.717 1235.54,-117.976 1252.64,-115.695"/>
<polygon fill="black" stroke="black" points="1253.21,-117.385 1257.94,-115.001 1252.75,-113.915 1253.21,-117.385"/>
</g>
<!-- topo.command.analysis.measure_log_frequency_preference -->
<g id="node62" class="node"><title>topo.command.analysis.measure_log_frequency_preference</title>
<polygon fill="none" stroke="black" stroke-width="0.5" points="1533,-77.5 1227,-77.5 1227,-56.5 1533,-56.5 1533,-77.5"/>
<text text-anchor="middle" x="1380" y="-64.5" font-family="Vera" font-size="10.00">topo.command.analysis.measure_log_frequency_preference</text>
</g>
<!-- topo.analysis.featureresponses.MeasureResponseCommand&#45;&gt;topo.command.analysis.measure_log_frequency_preference -->
<g id="edge60" class="edge"><title>topo.analysis.featureresponses.MeasureResponseCommand&#45;&gt;topo.command.analysis.measure_log_frequency_preference</title>
<path fill="none" stroke="black" stroke-width="0.5" d="M1027.47,-170.833C1058.87,-150.756 1132.99,-106.219 1202,-86 1212.83,-82.8271 1224.17,-80.1721 1235.65,-77.9518"/>
<polygon fill="black" stroke="black" points="1235.99,-79.6688 1240.59,-77.0266 1235.35,-76.2289 1235.99,-79.6688"/>
</g>
<!-- topo.analysis.featureresponses.FeatureResponses -->
<g id="node43" class="node"><title>topo.analysis.featureresponses.FeatureResponses</title>
<polygon fill="none" stroke="black" stroke-width="0.5" points="1140,-305.5 884,-305.5 884,-284.5 1140,-284.5 1140,-305.5"/>
<text text-anchor="middle" x="1012" y="-292.5" font-family="Vera" font-size="10.00">topo.analysis.featureresponses.FeatureResponses</text>
</g>
<!-- topo.base.functionfamily.PatternDrivenAnalysis&#45;&gt;topo.analysis.featureresponses.FeatureResponses -->
<g id="edge64" class="edge"><title>topo.base.functionfamily.PatternDrivenAnalysis&#45;&gt;topo.analysis.featureresponses.FeatureResponses</title>
<path fill="none" stroke="black" stroke-width="0.5" d="M781.303,-295C812.573,-295 846.446,-295 878.359,-295"/>
<polygon fill="black" stroke="black" points="878.463,-296.75 883.463,-295 878.463,-293.25 878.463,-296.75"/>
</g>
<!-- topo.command.analysis.measure_od_pref -->
<g id="node23" class="node"><title>topo.command.analysis.measure_od_pref</title>
<polygon fill="none" stroke="black" stroke-width="0.5" points="1838,-248.5 1620,-248.5 1620,-227.5 1838,-227.5 1838,-248.5"/>
<text text-anchor="middle" x="1729" y="-235.5" font-family="Vera" font-size="10.00">topo.command.analysis.measure_od_pref</text>
</g>
<!-- topo.analysis.featureresponses.SinusoidalMeasureResponseCommand&#45;&gt;topo.command.analysis.measure_od_pref -->
<g id="edge20" class="edge"><title>topo.analysis.featureresponses.SinusoidalMeasureResponseCommand&#45;&gt;topo.command.analysis.measure_od_pref</title>
<path fill="none" stroke="black" stroke-width="0.5" d="M1485.75,-191.063C1509.71,-194.501 1534.9,-199.042 1558,-205 1574.62,-209.288 1577.39,-214.664 1594,-219 1606.13,-222.167 1619.02,-224.836 1631.84,-227.079"/>
<polygon fill="black" stroke="black" points="1631.71,-228.833 1636.93,-227.95 1632.3,-225.383 1631.71,-228.833"/>
</g>
<!-- topo.command.analysis.measure_dr_pref -->
<g id="node32" class="node"><title>topo.command.analysis.measure_dr_pref</title>
<polygon fill="none" stroke="black" stroke-width="0.5" points="1837,-210.5 1621,-210.5 1621,-189.5 1837,-189.5 1837,-210.5"/>
<text text-anchor="middle" x="1729" y="-197.5" font-family="Vera" font-size="10.00">topo.command.analysis.measure_dr_pref</text>
</g>
<!-- topo.analysis.featureresponses.SinusoidalMeasureResponseCommand&#45;&gt;topo.command.analysis.measure_dr_pref -->
<g id="edge28" class="edge"><title>topo.analysis.featureresponses.SinusoidalMeasureResponseCommand&#45;&gt;topo.command.analysis.measure_dr_pref</title>
<path fill="none" stroke="black" stroke-width="0.5" d="M1558.08,-190.695C1577.59,-191.757 1597.03,-192.816 1615.45,-193.818"/>
<polygon fill="black" stroke="black" points="1615.53,-195.575 1620.61,-194.099 1615.72,-192.08 1615.53,-195.575"/>
</g>
<!-- topo.command.analysis.measure_hue_pref -->
<g id="node35" class="node"><title>topo.command.analysis.measure_hue_pref</title>
<polygon fill="none" stroke="black" stroke-width="0.5" points="1841,-172.5 1617,-172.5 1617,-151.5 1841,-151.5 1841,-172.5"/>
<text text-anchor="middle" x="1729" y="-159.5" font-family="Vera" font-size="10.00">topo.command.analysis.measure_hue_pref</text>
</g>
<!-- topo.analysis.featureresponses.SinusoidalMeasureResponseCommand&#45;&gt;topo.command.analysis.measure_hue_pref -->
<g id="edge32" class="edge"><title>topo.analysis.featureresponses.SinusoidalMeasureResponseCommand&#45;&gt;topo.command.analysis.measure_hue_pref</title>
<path fill="none" stroke="black" stroke-width="0.5" d="M1558.08,-171.305C1576.2,-170.319 1594.27,-169.335 1611.51,-168.396"/>
<polygon fill="black" stroke="black" points="1611.94,-170.126 1616.83,-168.107 1611.74,-166.631 1611.94,-170.126"/>
</g>
<!-- topo.command.analysis.measure_second_or_pref -->
<g id="node40" class="node"><title>topo.command.analysis.measure_second_or_pref</title>
<polygon fill="none" stroke="black" stroke-width="0.5" points="1857,-134.5 1601,-134.5 1601,-113.5 1857,-113.5 1857,-134.5"/>
<text text-anchor="middle" x="1729" y="-121.5" font-family="Vera" font-size="10.00">topo.command.analysis.measure_second_or_pref</text>
</g>
<!-- topo.analysis.featureresponses.SinusoidalMeasureResponseCommand&#45;&gt;topo.command.analysis.measure_second_or_pref -->
<g id="edge38" class="edge"><title>topo.analysis.featureresponses.SinusoidalMeasureResponseCommand&#45;&gt;topo.command.analysis.measure_second_or_pref</title>
<path fill="none" stroke="black" stroke-width="0.5" d="M1520.93,-170.991C1533.59,-168.583 1546.11,-165.626 1558,-162 1575.3,-156.723 1576.79,-148.566 1594,-143 1603.68,-139.871 1613.91,-137.257 1624.24,-135.074"/>
<polygon fill="black" stroke="black" points="1624.76,-136.752 1629.31,-134.036 1624.06,-133.323 1624.76,-136.752"/>
</g>
<!-- topo.command.analysis.measure_or_pref -->
<g id="node50" class="node"><title>topo.command.analysis.measure_or_pref</title>
<polygon fill="none" stroke="black" stroke-width="0.5" points="1837,-96.5 1621,-96.5 1621,-75.5 1837,-75.5 1837,-96.5"/>
<text text-anchor="middle" x="1729" y="-83.5" font-family="Vera" font-size="10.00">topo.command.analysis.measure_or_pref</text>
</g>
<!-- topo.analysis.featureresponses.SinusoidalMeasureResponseCommand&#45;&gt;topo.command.analysis.measure_or_pref -->
<g id="edge48" class="edge"><title>topo.analysis.featureresponses.SinusoidalMeasureResponseCommand&#45;&gt;topo.command.analysis.measure_or_pref</title>
<path fill="none" stroke="black" stroke-width="0.5" d="M1541.03,-170.895C1546.91,-168.318 1552.59,-165.368 1558,-162 1583.44,-146.163 1568.83,-121.261 1594,-105 1600.83,-100.586 1608.26,-97.0139 1616.01,-94.1384"/>
<polygon fill="black" stroke="black" points="1616.73,-95.7406 1620.87,-92.4366 1615.57,-92.4372 1616.73,-95.7406"/>
</g>
<!-- topo.command.analysis.measure_phasedisparity -->
<g id="node56" class="node"><title>topo.command.analysis.measure_phasedisparity</title>
<polygon fill="none" stroke="black" stroke-width="0.5" points="1855,-58.5 1603,-58.5 1603,-37.5 1855,-37.5 1855,-58.5"/>
<text text-anchor="middle" x="1729" y="-45.5" font-family="Vera" font-size="10.00">topo.command.analysis.measure_phasedisparity</text>
</g>
<!-- topo.analysis.featureresponses.SinusoidalMeasureResponseCommand&#45;&gt;topo.command.analysis.measure_phasedisparity -->
<g id="edge54" class="edge"><title>topo.analysis.featureresponses.SinusoidalMeasureResponseCommand&#45;&gt;topo.command.analysis.measure_phasedisparity</title>
<path fill="none" stroke="black" stroke-width="0.5" d="M1544.41,-170.908C1549.15,-168.282 1553.69,-165.324 1558,-162 1593.74,-134.407 1558.73,-95.1871 1594,-67 1596.92,-64.6636 1600,-62.5434 1603.2,-60.6215"/>
<polygon fill="black" stroke="black" points="1604.14,-62.1 1607.64,-58.122 1602.43,-59.0502 1604.14,-62.1"/>
</g>
<!-- topo.command.analysis.measure_sine_pref -->
<g id="node66" class="node"><title>topo.command.analysis.measure_sine_pref</title>
<polygon fill="none" stroke="black" stroke-width="0.5" points="1842,-20.5 1616,-20.5 1616,0.5 1842,0.5 1842,-20.5"/>
<text text-anchor="middle" x="1729" y="-7.5" font-family="Vera" font-size="10.00">topo.command.analysis.measure_sine_pref</text>
</g>
<!-- topo.analysis.featureresponses.SinusoidalMeasureResponseCommand&#45;&gt;topo.command.analysis.measure_sine_pref -->
<g id="edge66" class="edge"><title>topo.analysis.featureresponses.SinusoidalMeasureResponseCommand&#45;&gt;topo.command.analysis.measure_sine_pref</title>
<path fill="none" stroke="black" stroke-width="0.5" d="M1545.63,-170.966C1549.96,-168.307 1554.1,-165.329 1558,-162 1604.58,-122.25 1548.09,-69.5238 1594,-29 1599.16,-24.4444 1604.89,-20.6788 1611,-17.5824"/>
<polygon fill="black" stroke="black" points="1611.96,-19.0618 1615.74,-15.343 1610.47,-15.8974 1611.96,-19.0618"/>
</g>
<!-- topo.analysis.featureresponses.PatternPresentingCommand&#45;&gt;topo.analysis.featureresponses.MeasureResponseCommand -->
<g id="edge24" class="edge"><title>topo.analysis.featureresponses.PatternPresentingCommand&#45;&gt;topo.analysis.featureresponses.MeasureResponseCommand</title>
<path fill="none" stroke="black" stroke-width="0.5" d="M753.68,-208.966C803.164,-203.609 864.045,-197.018 914.273,-191.58"/>
<polygon fill="black" stroke="black" points="914.627,-193.302 919.409,-191.024 914.25,-189.822 914.627,-193.302"/>
</g>
<!-- topo.command.analysis.measure_activity -->
<g id="node42" class="node"><title>topo.command.analysis.measure_activity</title>
<polygon fill="none" stroke="black" stroke-width="0.5" points="1488,-329.5 1272,-329.5 1272,-308.5 1488,-308.5 1488,-329.5"/>
<text text-anchor="middle" x="1380" y="-316.5" font-family="Vera" font-size="10.00">topo.command.analysis.measure_activity</text>
</g>
<!-- topo.analysis.featureresponses.FeatureResponses&#45;&gt;topo.command.analysis.measure_activity -->
<g id="edge40" class="edge"><title>topo.analysis.featureresponses.FeatureResponses&#45;&gt;topo.command.analysis.measure_activity</title>
<path fill="none" stroke="black" stroke-width="0.5" d="M1140.71,-303.394C1181.67,-306.065 1226.66,-309 1266.47,-311.596"/>
<polygon fill="black" stroke="black" points="1266.7,-313.364 1271.8,-311.943 1266.92,-309.872 1266.7,-313.364"/>
</g>
</g>
</svg>
