<?xml version="1.0" encoding="UTF-8" standalone="no"?>
<!DOCTYPE svg PUBLIC "-//W3C//DTD SVG 1.1//EN"
 "http://www.w3.org/Graphics/SVG/1.1/DTD/svg11.dtd">
<!-- Generated by graphviz version 2.26.3 (20100126.1600)
 -->
<!-- Title: inheritance95afd34832 Pages: 1 -->
<svg width="1474pt" height="674pt"
 viewBox="0.00 0.00 1474.00 674.00" xmlns="http://www.w3.org/2000/svg" xmlns:xlink="http://www.w3.org/1999/xlink">
<g id="graph1" class="graph" transform="scale(1 1) rotate(0) translate(4 670)">
<title>inheritance95afd34832</title>
<polygon fill="white" stroke="white" points="-4,5 -4,-670 1471,-670 1471,5 -4,5"/>
<!-- Tkinter.Pack -->
<g id="node1" class="node"><title>Tkinter.Pack</title>
<polygon fill="none" stroke="black" stroke-width="0.5" points="345,-362.5 273,-362.5 273,-341.5 345,-341.5 345,-362.5"/>
<text text-anchor="middle" x="309" y="-349.5" font-family="Vera" font-size="10.00">Tkinter.Pack</text>
</g>
<!-- Tkinter.Widget -->
<g id="node3" class="node"><title>Tkinter.Widget</title>
<polygon fill="none" stroke="black" stroke-width="0.5" points="565,-324.5 483,-324.5 483,-303.5 565,-303.5 565,-324.5"/>
<text text-anchor="middle" x="524" y="-311.5" font-family="Vera" font-size="10.00">Tkinter.Widget</text>
</g>
<!-- Tkinter.Pack&#45;&gt;Tkinter.Widget -->
<g id="edge12" class="edge"><title>Tkinter.Pack&#45;&gt;Tkinter.Widget</title>
<path fill="none" stroke="black" stroke-width="0.5" d="M345.96,-345.468C382.269,-339.05 437.801,-329.235 477.179,-322.275"/>
<polygon fill="black" stroke="black" points="477.764,-323.949 482.383,-321.356 477.154,-320.503 477.764,-323.949"/>
</g>
<!-- Tkinter.Button -->
<g id="node2" class="node"><title>Tkinter.Button</title>
<polygon fill="none" stroke="black" stroke-width="0.5" points="758,-305.5 676,-305.5 676,-284.5 758,-284.5 758,-305.5"/>
<text text-anchor="middle" x="717" y="-292.5" font-family="Vera" font-size="10.00">Tkinter.Button</text>
</g>
<!-- paramtk.FocusTakingButton -->
<g id="node38" class="node"><title>paramtk.FocusTakingButton</title>
<polygon fill="none" stroke="black" stroke-width="0.5" points="977,-324.5 829,-324.5 829,-303.5 977,-303.5 977,-324.5"/>
<text text-anchor="middle" x="903" y="-311.5" font-family="Vera" font-size="10.00">paramtk.FocusTakingButton</text>
</g>
<!-- Tkinter.Button&#45;&gt;paramtk.FocusTakingButton -->
<g id="edge34" class="edge"><title>Tkinter.Button&#45;&gt;paramtk.FocusTakingButton</title>
<path fill="none" stroke="black" stroke-width="0.5" d="M758.742,-299.264C777.861,-301.217 801.182,-303.599 823.453,-305.874"/>
<polygon fill="black" stroke="black" points="823.333,-307.621 828.485,-306.388 823.689,-304.139 823.333,-307.621"/>
</g>
<!-- Tkinter.Widget&#45;&gt;Tkinter.Button -->
<g id="edge2" class="edge"><title>Tkinter.Widget&#45;&gt;Tkinter.Button</title>
<path fill="none" stroke="black" stroke-width="0.5" d="M565.878,-309.877C596.607,-306.852 638.353,-302.742 670.183,-299.609"/>
<polygon fill="black" stroke="black" points="670.399,-301.346 675.204,-299.115 670.056,-297.863 670.399,-301.346"/>
</g>
<!-- Tkinter.Menu -->
<g id="node13" class="node"><title>Tkinter.Menu</title>
<polygon fill="none" stroke="black" stroke-width="0.5" points="755,-381.5 679,-381.5 679,-360.5 755,-360.5 755,-381.5"/>
<text text-anchor="middle" x="717" y="-368.5" font-family="Vera" font-size="10.00">Tkinter.Menu</text>
</g>
<!-- Tkinter.Widget&#45;&gt;Tkinter.Menu -->
<g id="edge8" class="edge"><title>Tkinter.Widget&#45;&gt;Tkinter.Menu</title>
<path fill="none" stroke="black" stroke-width="0.5" d="M553.422,-324.048C577.199,-332.029 611.593,-343.262 642,-352 652.096,-354.901 663.022,-357.803 673.33,-360.434"/>
<polygon fill="black" stroke="black" points="673.057,-362.17 678.334,-361.703 673.917,-358.778 673.057,-362.17"/>
</g>
<!-- Tkinter.Frame -->
<g id="node31" class="node"><title>Tkinter.Frame</title>
<polygon fill="none" stroke="black" stroke-width="0.5" points="757,-210.5 677,-210.5 677,-189.5 757,-189.5 757,-210.5"/>
<text text-anchor="middle" x="717" y="-197.5" font-family="Vera" font-size="10.00">Tkinter.Frame</text>
</g>
<!-- Tkinter.Widget&#45;&gt;Tkinter.Frame -->
<g id="edge54" class="edge"><title>Tkinter.Widget&#45;&gt;Tkinter.Frame</title>
<path fill="none" stroke="black" stroke-width="0.5" d="M538.597,-303.901C560.593,-288.846 603.737,-259.937 642,-238 657.928,-228.868 676.31,-219.536 690.889,-212.406"/>
<polygon fill="black" stroke="black" points="691.948,-213.836 695.678,-210.075 690.416,-210.689 691.948,-213.836"/>
</g>
<!-- paramtk.Balloon -->
<g id="node48" class="node"><title>paramtk.Balloon</title>
<polygon fill="none" stroke="black" stroke-width="0.5" points="764,-343.5 670,-343.5 670,-322.5 764,-322.5 764,-343.5"/>
<text text-anchor="middle" x="717" y="-330.5" font-family="Vera" font-size="10.00">paramtk.Balloon</text>
</g>
<!-- Tkinter.Widget&#45;&gt;paramtk.Balloon -->
<g id="edge44" class="edge"><title>Tkinter.Widget&#45;&gt;paramtk.Balloon</title>
<path fill="none" stroke="black" stroke-width="0.5" d="M565.878,-318.123C594.699,-320.96 633.211,-324.751 664.144,-327.797"/>
<polygon fill="black" stroke="black" points="664.286,-329.569 669.433,-328.317 664.629,-326.086 664.286,-329.569"/>
</g>
<!-- paramtk.Scrodget -->
<g id="node52" class="node"><title>paramtk.Scrodget</title>
<polygon fill="none" stroke="black" stroke-width="0.5" points="769,-419.5 665,-419.5 665,-398.5 769,-398.5 769,-419.5"/>
<text text-anchor="middle" x="717" y="-406.5" font-family="Vera" font-size="10.00">paramtk.Scrodget</text>
</g>
<!-- Tkinter.Widget&#45;&gt;paramtk.Scrodget -->
<g id="edge50" class="edge"><title>Tkinter.Widget&#45;&gt;paramtk.Scrodget</title>
<path fill="none" stroke="black" stroke-width="0.5" d="M536.655,-324.147C557.445,-340.34 600.659,-372.024 642,-390 648.606,-392.872 655.735,-395.375 662.878,-397.537"/>
<polygon fill="black" stroke="black" points="662.53,-399.258 667.82,-398.979 663.51,-395.898 662.53,-399.258"/>
</g>
<!-- Tkinter.Place -->
<g id="node5" class="node"><title>Tkinter.Place</title>
<polygon fill="none" stroke="black" stroke-width="0.5" points="347,-324.5 271,-324.5 271,-303.5 347,-303.5 347,-324.5"/>
<text text-anchor="middle" x="309" y="-311.5" font-family="Vera" font-size="10.00">Tkinter.Place</text>
</g>
<!-- Tkinter.Place&#45;&gt;Tkinter.Widget -->
<g id="edge14" class="edge"><title>Tkinter.Place&#45;&gt;Tkinter.Widget</title>
<path fill="none" stroke="black" stroke-width="0.5" d="M347.935,-314C384.299,-314 438.629,-314 477.308,-314"/>
<polygon fill="black" stroke="black" points="477.42,-315.75 482.42,-314 477.42,-312.25 477.42,-315.75"/>
</g>
<!-- paramtk.ToolTip -->
<g id="node6" class="node"><title>paramtk.ToolTip</title>
<polygon fill="none" stroke="black" stroke-width="0.5" points="763,-144.5 671,-144.5 671,-123.5 763,-123.5 763,-144.5"/>
<text text-anchor="middle" x="717" y="-131.5" font-family="Vera" font-size="10.00">paramtk.ToolTip</text>
</g>
<!-- Tkinter.Toplevel -->
<g id="node7" class="node"><title>Tkinter.Toplevel</title>
<polygon fill="none" stroke="black" stroke-width="0.5" points="568,-144.5 480,-144.5 480,-123.5 568,-123.5 568,-144.5"/>
<text text-anchor="middle" x="524" y="-131.5" font-family="Vera" font-size="10.00">Tkinter.Toplevel</text>
</g>
<!-- Tkinter.Toplevel&#45;&gt;paramtk.ToolTip -->
<g id="edge4" class="edge"><title>Tkinter.Toplevel&#45;&gt;paramtk.ToolTip</title>
<path fill="none" stroke="black" stroke-width="0.5" d="M568.763,-134C597.711,-134 635.478,-134 665.646,-134"/>
<polygon fill="black" stroke="black" points="665.802,-135.75 670.802,-134 665.802,-132.25 665.802,-135.75"/>
</g>
<!-- paramtk.ScrolledWindow -->
<g id="node50" class="node"><title>paramtk.ScrolledWindow</title>
<polygon fill="none" stroke="black" stroke-width="0.5" points="784,-49.5 650,-49.5 650,-28.5 784,-28.5 784,-49.5"/>
<text text-anchor="middle" x="717" y="-36.5" font-family="Vera" font-size="10.00">paramtk.ScrolledWindow</text>
</g>
<!-- Tkinter.Toplevel&#45;&gt;paramtk.ScrolledWindow -->
<g id="edge46" class="edge"><title>Tkinter.Toplevel&#45;&gt;paramtk.ScrolledWindow</title>
<path fill="none" stroke="black" stroke-width="0.5" d="M544.654,-123.833C580.35,-106.263 653.45,-70.2809 691.973,-51.3192"/>
<polygon fill="black" stroke="black" points="692.781,-52.8719 696.494,-49.0936 691.235,-49.7316 692.781,-52.8719"/>
</g>
<!-- Tkinter.BaseWidget -->
<g id="node9" class="node"><title>Tkinter.BaseWidget</title>
<polygon fill="none" stroke="black" stroke-width="0.5" points="362,-225.5 256,-225.5 256,-204.5 362,-204.5 362,-225.5"/>
<text text-anchor="middle" x="309" y="-212.5" font-family="Vera" font-size="10.00">Tkinter.BaseWidget</text>
</g>
<!-- Tkinter.BaseWidget&#45;&gt;Tkinter.Widget -->
<g id="edge10" class="edge"><title>Tkinter.BaseWidget&#45;&gt;Tkinter.Widget</title>
<path fill="none" stroke="black" stroke-width="0.5" d="M333.04,-225.082C352.743,-233.424 381.305,-245.695 406,-257 438.387,-271.826 475.295,-289.837 499.08,-301.592"/>
<polygon fill="black" stroke="black" points="498.399,-303.208 503.657,-303.857 499.952,-300.071 498.399,-303.208"/>
</g>
<!-- Tkinter.BaseWidget&#45;&gt;Tkinter.Toplevel -->
<g id="edge18" class="edge"><title>Tkinter.BaseWidget&#45;&gt;Tkinter.Toplevel</title>
<path fill="none" stroke="black" stroke-width="0.5" d="M335.795,-204.905C375.574,-189.918 450.098,-161.842 492.456,-145.884"/>
<polygon fill="black" stroke="black" points="493.144,-147.495 497.206,-144.095 491.91,-144.22 493.144,-147.495"/>
</g>
<!-- Tkinter.Misc -->
<g id="node10" class="node"><title>Tkinter.Misc</title>
<polygon fill="none" stroke="black" stroke-width="0.5" points="124,-225.5 52,-225.5 52,-204.5 124,-204.5 124,-225.5"/>
<text text-anchor="middle" x="88" y="-212.5" font-family="Vera" font-size="10.00">Tkinter.Misc</text>
</g>
<!-- Tkinter.Misc&#45;&gt;Tkinter.BaseWidget -->
<g id="edge6" class="edge"><title>Tkinter.Misc&#45;&gt;Tkinter.BaseWidget</title>
<path fill="none" stroke="black" stroke-width="0.5" d="M124.494,-215C158.637,-215 210.226,-215 250.18,-215"/>
<polygon fill="black" stroke="black" points="250.489,-216.75 255.489,-215 250.489,-213.25 250.489,-216.75"/>
</g>
<!-- Tkinter.Grid -->
<g id="node12" class="node"><title>Tkinter.Grid</title>
<polygon fill="none" stroke="black" stroke-width="0.5" points="344,-286.5 274,-286.5 274,-265.5 344,-265.5 344,-286.5"/>
<text text-anchor="middle" x="309" y="-273.5" font-family="Vera" font-size="10.00">Tkinter.Grid</text>
</g>
<!-- Tkinter.Grid&#45;&gt;Tkinter.Widget -->
<g id="edge16" class="edge"><title>Tkinter.Grid&#45;&gt;Tkinter.Widget</title>
<path fill="none" stroke="black" stroke-width="0.5" d="M344.503,-282.275C380.687,-288.67 437.012,-298.625 476.905,-305.676"/>
<polygon fill="black" stroke="black" points="476.947,-307.461 482.175,-306.608 477.556,-304.014 476.947,-307.461"/>
</g>
<!-- paramtk.Menu -->
<g id="node69" class="node"><title>paramtk.Menu</title>
<polygon fill="none" stroke="black" stroke-width="0.5" points="946,-400.5 860,-400.5 860,-379.5 946,-379.5 946,-400.5"/>
<text text-anchor="middle" x="903" y="-387.5" font-family="Vera" font-size="10.00">paramtk.Menu</text>
</g>
<!-- Tkinter.Menu&#45;&gt;paramtk.Menu -->
<g id="edge66" class="edge"><title>Tkinter.Menu&#45;&gt;paramtk.Menu</title>
<path fill="none" stroke="black" stroke-width="0.5" d="M755.539,-374.937C784.308,-377.876 823.811,-381.911 854.69,-385.065"/>
<polygon fill="black" stroke="black" points="854.807,-386.836 859.959,-385.603 855.163,-383.354 854.807,-386.836"/>
</g>
<!-- paramtk.Translator -->
<g id="node15" class="node"><title>paramtk.Translator</title>
<polygon fill="none" stroke="black" stroke-width="0.5" points="141,-571.5 35,-571.5 35,-550.5 141,-550.5 141,-571.5"/>
<text text-anchor="middle" x="88" y="-558.5" font-family="Vera" font-size="10.00">paramtk.Translator</text>
</g>
<!-- paramtk.String_ObjectTranslator -->
<g id="node27" class="node"><title>paramtk.String_ObjectTranslator</title>
<polygon fill="none" stroke="black" stroke-width="0.5" points="394,-628.5 224,-628.5 224,-607.5 394,-607.5 394,-628.5"/>
<text text-anchor="middle" x="309" y="-615.5" font-family="Vera" font-size="10.00">paramtk.String_ObjectTranslator</text>
</g>
<!-- paramtk.Translator&#45;&gt;paramtk.String_ObjectTranslator -->
<g id="edge26" class="edge"><title>paramtk.Translator&#45;&gt;paramtk.String_ObjectTranslator</title>
<path fill="none" stroke="black" stroke-width="0.5" d="M117.572,-571.012C142.543,-579.236 179.347,-590.822 212,-599 223.434,-601.864 235.715,-604.558 247.566,-606.969"/>
<polygon fill="black" stroke="black" points="247.368,-608.714 252.615,-607.984 248.058,-605.282 247.368,-608.714"/>
</g>
<!-- paramtk.DoNothingTranslator -->
<g id="node46" class="node"><title>paramtk.DoNothingTranslator</title>
<polygon fill="none" stroke="black" stroke-width="0.5" points="388,-590.5 230,-590.5 230,-569.5 388,-569.5 388,-590.5"/>
<text text-anchor="middle" x="309" y="-577.5" font-family="Vera" font-size="10.00">paramtk.DoNothingTranslator</text>
</g>
<!-- paramtk.Translator&#45;&gt;paramtk.DoNothingTranslator -->
<g id="edge42" class="edge"><title>paramtk.Translator&#45;&gt;paramtk.DoNothingTranslator</title>
<path fill="none" stroke="black" stroke-width="0.5" d="M141.78,-565.624C166.678,-567.764 196.847,-570.358 224.668,-572.75"/>
<polygon fill="black" stroke="black" points="224.702,-574.509 229.834,-573.194 225.002,-571.022 224.702,-574.509"/>
</g>
<!-- paramtk.ListTranslator -->
<g id="node59" class="node"><title>paramtk.ListTranslator</title>
<polygon fill="none" stroke="black" stroke-width="0.5" points="370,-552.5 248,-552.5 248,-531.5 370,-531.5 370,-552.5"/>
<text text-anchor="middle" x="309" y="-539.5" font-family="Vera" font-size="10.00">paramtk.ListTranslator</text>
</g>
<!-- paramtk.Translator&#45;&gt;paramtk.ListTranslator -->
<g id="edge56" class="edge"><title>paramtk.Translator&#45;&gt;paramtk.ListTranslator</title>
<path fill="none" stroke="black" stroke-width="0.5" d="M141.78,-556.376C171.978,-553.78 209.931,-550.517 242.043,-547.756"/>
<polygon fill="black" stroke="black" points="242.313,-549.49 247.145,-547.318 242.013,-546.003 242.313,-549.49"/>
</g>
<!-- paramtk.Eval_ReprTranslator -->
<g id="node77" class="node"><title>paramtk.Eval_ReprTranslator</title>
<polygon fill="none" stroke="black" stroke-width="0.5" points="385,-514.5 233,-514.5 233,-493.5 385,-493.5 385,-514.5"/>
<text text-anchor="middle" x="309" y="-501.5" font-family="Vera" font-size="10.00">paramtk.Eval_ReprTranslator</text>
</g>
<!-- paramtk.Translator&#45;&gt;paramtk.Eval_ReprTranslator -->
<g id="edge74" class="edge"><title>paramtk.Translator&#45;&gt;paramtk.Eval_ReprTranslator</title>
<path fill="none" stroke="black" stroke-width="0.5" d="M117.572,-550.988C142.543,-542.764 179.347,-531.178 212,-523 223.434,-520.136 235.715,-517.442 247.566,-515.031"/>
<polygon fill="black" stroke="black" points="248.058,-516.718 252.615,-514.016 247.368,-513.286 248.058,-516.718"/>
</g>
<!-- Tkinter.Wm -->
<g id="node21" class="node"><title>Tkinter.Wm</title>
<polygon fill="none" stroke="black" stroke-width="0.5" points="343,-144.5 275,-144.5 275,-123.5 343,-123.5 343,-144.5"/>
<text text-anchor="middle" x="309" y="-131.5" font-family="Vera" font-size="10.00">Tkinter.Wm</text>
</g>
<!-- Tkinter.Wm&#45;&gt;Tkinter.Toplevel -->
<g id="edge20" class="edge"><title>Tkinter.Wm&#45;&gt;Tkinter.Toplevel</title>
<path fill="none" stroke="black" stroke-width="0.5" d="M343.543,-134C378.874,-134 434.11,-134 474.169,-134"/>
<polygon fill="black" stroke="black" points="474.47,-135.75 479.47,-134 474.47,-132.25 474.47,-135.75"/>
</g>
<!-- paramtk.Representer -->
<g id="node23" class="node"><title>paramtk.Representer</title>
<polygon fill="none" stroke="black" stroke-width="0.5" points="583,-495.5 465,-495.5 465,-474.5 583,-474.5 583,-495.5"/>
<text text-anchor="middle" x="524" y="-482.5" font-family="Vera" font-size="10.00">paramtk.Representer</text>
</g>
<!-- paramtk.ListRepresenter -->
<g id="node82" class="node"><title>paramtk.ListRepresenter</title>
<polygon fill="none" stroke="black" stroke-width="0.5" points="784,-495.5 650,-495.5 650,-474.5 784,-474.5 784,-495.5"/>
<text text-anchor="middle" x="717" y="-482.5" font-family="Vera" font-size="10.00">paramtk.ListRepresenter</text>
</g>
<!-- paramtk.Representer&#45;&gt;paramtk.ListRepresenter -->
<g id="edge78" class="edge"><title>paramtk.Representer&#45;&gt;paramtk.ListRepresenter</title>
<path fill="none" stroke="black" stroke-width="0.5" d="M583.218,-485C602.627,-485 624.413,-485 644.678,-485"/>
<polygon fill="black" stroke="black" points="644.795,-486.75 649.795,-485 644.795,-483.25 644.795,-486.75"/>
</g>
<!-- param.parameterized.Parameterized -->
<g id="node24" class="node"><title>param.parameterized.Parameterized</title>
<polygon fill="none" stroke="black" stroke-width="0.5" points="406,-476.5 212,-476.5 212,-455.5 406,-455.5 406,-476.5"/>
<text text-anchor="middle" x="309" y="-463.5" font-family="Vera" font-size="10.00">param.parameterized.Parameterized</text>
</g>
<!-- param.parameterized.Parameterized&#45;&gt;paramtk.Representer -->
<g id="edge22" class="edge"><title>param.parameterized.Parameterized&#45;&gt;paramtk.Representer</title>
<path fill="none" stroke="black" stroke-width="0.5" d="M406.121,-474.583C424.274,-476.187 442.826,-477.826 459.679,-479.316"/>
<polygon fill="black" stroke="black" points="459.718,-481.076 464.853,-479.773 460.026,-477.59 459.718,-481.076"/>
</g>
<!-- paramtk.TkParameterizedBase -->
<g id="node56" class="node"><title>paramtk.TkParameterizedBase</title>
<polygon fill="none" stroke="black" stroke-width="0.5" points="606,-457.5 442,-457.5 442,-436.5 606,-436.5 606,-457.5"/>
<text text-anchor="middle" x="524" y="-444.5" font-family="Vera" font-size="10.00">paramtk.TkParameterizedBase</text>
</g>
<!-- param.parameterized.Parameterized&#45;&gt;paramtk.TkParameterizedBase -->
<g id="edge82" class="edge"><title>param.parameterized.Parameterized&#45;&gt;paramtk.TkParameterizedBase</title>
<path fill="none" stroke="black" stroke-width="0.5" d="M406.121,-457.417C416.261,-456.521 426.525,-455.614 436.548,-454.728"/>
<polygon fill="black" stroke="black" points="436.939,-456.451 441.766,-454.267 436.631,-452.964 436.939,-456.451"/>
</g>
<!-- paramtk.CSPTranslator -->
<g id="node26" class="node"><title>paramtk.CSPTranslator</title>
<polygon fill="none" stroke="black" stroke-width="0.5" points="587,-628.5 461,-628.5 461,-607.5 587,-607.5 587,-628.5"/>
<text text-anchor="middle" x="524" y="-615.5" font-family="Vera" font-size="10.00">paramtk.CSPTranslator</text>
</g>
<!-- paramtk.String_ObjectTranslator&#45;&gt;paramtk.CSPTranslator -->
<g id="edge24" class="edge"><title>paramtk.String_ObjectTranslator&#45;&gt;paramtk.CSPTranslator</title>
<path fill="none" stroke="black" stroke-width="0.5" d="M394.591,-618C414.822,-618 436.133,-618 455.493,-618"/>
<polygon fill="black" stroke="black" points="455.899,-619.75 460.899,-618 455.899,-616.25 455.899,-619.75"/>
</g>
<!-- paramtk.TaggedSlider -->
<g id="node30" class="node"><title>paramtk.TaggedSlider</title>
<polygon fill="none" stroke="black" stroke-width="0.5" points="963,-248.5 843,-248.5 843,-227.5 963,-227.5 963,-248.5"/>
<text text-anchor="middle" x="903" y="-235.5" font-family="Vera" font-size="10.00">paramtk.TaggedSlider</text>
</g>
<!-- Tkinter.Frame&#45;&gt;paramtk.TaggedSlider -->
<g id="edge28" class="edge"><title>Tkinter.Frame&#45;&gt;paramtk.TaggedSlider</title>
<path fill="none" stroke="black" stroke-width="0.5" d="M757.818,-208.339C784.607,-213.812 819.937,-221.03 849.036,-226.975"/>
<polygon fill="black" stroke="black" points="848.772,-228.707 854.021,-227.994 849.473,-225.278 848.772,-228.707"/>
</g>
<!-- paramtk.ParametersFrame -->
<g id="node34" class="node"><title>paramtk.ParametersFrame</title>
<polygon fill="none" stroke="black" stroke-width="0.5" points="976,-362.5 830,-362.5 830,-341.5 976,-341.5 976,-362.5"/>
<text text-anchor="middle" x="903" y="-349.5" font-family="Vera" font-size="10.00">paramtk.ParametersFrame</text>
</g>
<!-- Tkinter.Frame&#45;&gt;paramtk.ParametersFrame -->
<g id="edge32" class="edge"><title>Tkinter.Frame&#45;&gt;paramtk.ParametersFrame</title>
<path fill="none" stroke="black" stroke-width="0.5" d="M748.85,-210.053C763.654,-216.114 780.488,-225.188 792,-238 822.179,-271.585 794.304,-302.945 828,-333 830.757,-335.459 833.786,-337.608 836.999,-339.487"/>
<polygon fill="black" stroke="black" points="836.25,-341.071 841.485,-341.885 837.9,-337.984 836.25,-341.071"/>
</g>
<!-- paramtk.ProgressWindow -->
<g id="node40" class="node"><title>paramtk.ProgressWindow</title>
<polygon fill="none" stroke="black" stroke-width="0.5" points="971,-286.5 835,-286.5 835,-265.5 971,-265.5 971,-286.5"/>
<text text-anchor="middle" x="903" y="-273.5" font-family="Vera" font-size="10.00">paramtk.ProgressWindow</text>
</g>
<!-- Tkinter.Frame&#45;&gt;paramtk.ProgressWindow -->
<g id="edge38" class="edge"><title>Tkinter.Frame&#45;&gt;paramtk.ProgressWindow</title>
<path fill="none" stroke="black" stroke-width="0.5" d="M737.101,-210.071C752.23,-217.678 773.459,-228.411 792,-238 808.07,-246.311 811.112,-250.511 828,-257 835.372,-259.833 843.314,-262.367 851.175,-264.589"/>
<polygon fill="black" stroke="black" points="850.769,-266.293 856.054,-265.933 851.698,-262.918 850.769,-266.293"/>
</g>
<!-- paramtk.ScrolledFrame -->
<g id="node44" class="node"><title>paramtk.ScrolledFrame</title>
<polygon fill="none" stroke="black" stroke-width="0.5" points="967,-210.5 839,-210.5 839,-189.5 967,-189.5 967,-210.5"/>
<text text-anchor="middle" x="903" y="-197.5" font-family="Vera" font-size="10.00">paramtk.ScrolledFrame</text>
</g>
<!-- Tkinter.Frame&#45;&gt;paramtk.ScrolledFrame -->
<g id="edge40" class="edge"><title>Tkinter.Frame&#45;&gt;paramtk.ScrolledFrame</title>
<path fill="none" stroke="black" stroke-width="0.5" d="M757.818,-200C780.075,-200 808.227,-200 833.803,-200"/>
<polygon fill="black" stroke="black" points="833.882,-201.75 838.882,-200 833.882,-198.25 833.882,-201.75"/>
</g>
<!-- paramtk.StatusBar -->
<g id="node61" class="node"><title>paramtk.StatusBar</title>
<polygon fill="none" stroke="black" stroke-width="0.5" points="957,-172.5 849,-172.5 849,-151.5 957,-151.5 957,-172.5"/>
<text text-anchor="middle" x="903" y="-159.5" font-family="Vera" font-size="10.00">paramtk.StatusBar</text>
</g>
<!-- Tkinter.Frame&#45;&gt;paramtk.StatusBar -->
<g id="edge58" class="edge"><title>Tkinter.Frame&#45;&gt;paramtk.StatusBar</title>
<path fill="none" stroke="black" stroke-width="0.5" d="M757.818,-191.661C784.607,-186.188 819.937,-178.97 849.036,-173.025"/>
<polygon fill="black" stroke="black" points="849.473,-174.722 854.021,-172.006 848.772,-171.293 849.473,-174.722"/>
</g>
<!-- paramtk.ListWidget -->
<g id="node65" class="node"><title>paramtk.ListWidget</title>
<polygon fill="none" stroke="black" stroke-width="0.5" points="957,-134.5 849,-134.5 849,-113.5 957,-113.5 957,-134.5"/>
<text text-anchor="middle" x="903" y="-121.5" font-family="Vera" font-size="10.00">paramtk.ListWidget</text>
</g>
<!-- Tkinter.Frame&#45;&gt;paramtk.ListWidget -->
<g id="edge62" class="edge"><title>Tkinter.Frame&#45;&gt;paramtk.ListWidget</title>
<path fill="none" stroke="black" stroke-width="0.5" d="M733.752,-189.87C755.019,-177.373 793.144,-156.17 828,-143 835.492,-140.169 843.563,-137.626 851.536,-135.391"/>
<polygon fill="black" stroke="black" points="852.12,-137.046 856.482,-134.039 851.197,-133.669 852.12,-137.046"/>
</g>
<!-- paramtk.ListItemCtrlWidget -->
<g id="node71" class="node"><title>paramtk.ListItemCtrlWidget</title>
<polygon fill="none" stroke="black" stroke-width="0.5" points="976,-96.5 830,-96.5 830,-75.5 976,-75.5 976,-96.5"/>
<text text-anchor="middle" x="903" y="-83.5" font-family="Vera" font-size="10.00">paramtk.ListItemCtrlWidget</text>
</g>
<!-- Tkinter.Frame&#45;&gt;paramtk.ListItemCtrlWidget -->
<g id="edge68" class="edge"><title>Tkinter.Frame&#45;&gt;paramtk.ListItemCtrlWidget</title>
<path fill="none" stroke="black" stroke-width="0.5" d="M737.495,-189.836C753.414,-181.338 775.486,-168.186 792,-153 811.629,-134.949 805.808,-119.785 828,-105 832.108,-102.263 836.582,-99.9203 841.233,-97.9151"/>
<polygon fill="black" stroke="black" points="841.952,-99.5123 845.935,-96.0203 840.643,-96.2659 841.952,-99.5123"/>
</g>
<!-- paramtk.HackFileEntry -->
<g id="node73" class="node"><title>paramtk.HackFileEntry</title>
<polygon fill="none" stroke="black" stroke-width="0.5" points="965,-58.5 841,-58.5 841,-37.5 965,-37.5 965,-58.5"/>
<text text-anchor="middle" x="903" y="-45.5" font-family="Vera" font-size="10.00">paramtk.HackFileEntry</text>
</g>
<!-- Tkinter.Frame&#45;&gt;paramtk.HackFileEntry -->
<g id="edge70" class="edge"><title>Tkinter.Frame&#45;&gt;paramtk.HackFileEntry</title>
<path fill="none" stroke="black" stroke-width="0.5" d="M740.668,-189.898C756.955,-181.921 778.08,-169.402 792,-153 818.811,-121.408 796.61,-94.0481 828,-67 830.868,-64.5285 834.014,-62.3709 837.342,-60.4881"/>
<polygon fill="black" stroke="black" points="838.346,-61.9388 841.983,-58.0872 836.738,-58.8301 838.346,-61.9388"/>
</g>
<!-- paramtk.ScrodgetWidget -->
<g id="node33" class="node"><title>paramtk.ScrodgetWidget</title>
<polygon fill="none" stroke="black" stroke-width="0.5" points="592,-419.5 456,-419.5 456,-398.5 592,-398.5 592,-419.5"/>
<text text-anchor="middle" x="524" y="-406.5" font-family="Vera" font-size="10.00">paramtk.ScrodgetWidget</text>
</g>
<!-- paramtk.ScrodgetWidget&#45;&gt;paramtk.Scrodget -->
<g id="edge48" class="edge"><title>paramtk.ScrodgetWidget&#45;&gt;paramtk.Scrodget</title>
<path fill="none" stroke="black" stroke-width="0.5" d="M592.045,-409C614.148,-409 638.44,-409 659.681,-409"/>
<polygon fill="black" stroke="black" points="659.728,-410.75 664.728,-409 659.728,-407.25 659.728,-410.75"/>
</g>
<!-- paramtk.ParametersFrameWithApply -->
<g id="node75" class="node"><title>paramtk.ParametersFrameWithApply</title>
<polygon fill="none" stroke="black" stroke-width="0.5" points="1206,-362.5 1014,-362.5 1014,-341.5 1206,-341.5 1206,-362.5"/>
<text text-anchor="middle" x="1110" y="-349.5" font-family="Vera" font-size="10.00">paramtk.ParametersFrameWithApply</text>
</g>
<!-- paramtk.ParametersFrame&#45;&gt;paramtk.ParametersFrameWithApply -->
<g id="edge72" class="edge"><title>paramtk.ParametersFrame&#45;&gt;paramtk.ParametersFrameWithApply</title>
<path fill="none" stroke="black" stroke-width="0.5" d="M976.272,-352C986.862,-352 997.915,-352 1008.93,-352"/>
<polygon fill="black" stroke="black" points="1008.99,-353.75 1013.99,-352 1008.99,-350.25 1008.99,-353.75"/>
</g>
<!-- paramtk.TkParameterized -->
<g id="node35" class="node"><title>paramtk.TkParameterized</title>
<polygon fill="none" stroke="black" stroke-width="0.5" points="787,-457.5 647,-457.5 647,-436.5 787,-436.5 787,-457.5"/>
<text text-anchor="middle" x="717" y="-444.5" font-family="Vera" font-size="10.00">paramtk.TkParameterized</text>
</g>
<!-- paramtk.TkParameterized&#45;&gt;paramtk.ParametersFrame -->
<g id="edge30" class="edge"><title>paramtk.TkParameterized&#45;&gt;paramtk.ParametersFrame</title>
<path fill="none" stroke="black" stroke-width="0.5" d="M775.511,-436.946C781.374,-434.568 786.999,-431.629 792,-428 816.25,-410.401 803.75,-388.599 828,-371 831.672,-368.335 835.681,-366.042 839.875,-364.07"/>
<polygon fill="black" stroke="black" points="840.608,-365.659 844.489,-362.054 839.207,-362.452 840.608,-365.659"/>
</g>
<!-- paramtk.ProgressController -->
<g id="node41" class="node"><title>paramtk.ProgressController</title>
<polygon fill="none" stroke="black" stroke-width="0.5" points="791,-267.5 643,-267.5 643,-246.5 791,-246.5 791,-267.5"/>
<text text-anchor="middle" x="717" y="-254.5" font-family="Vera" font-size="10.00">paramtk.ProgressController</text>
</g>
<!-- paramtk.ProgressController&#45;&gt;paramtk.ProgressWindow -->
<g id="edge36" class="edge"><title>paramtk.ProgressController&#45;&gt;paramtk.ProgressWindow</title>
<path fill="none" stroke="black" stroke-width="0.5" d="M791.582,-264.619C803.962,-265.883 816.797,-267.194 829.159,-268.457"/>
<polygon fill="black" stroke="black" points="829.274,-270.228 834.426,-268.995 829.629,-266.746 829.274,-270.228"/>
</g>
<!-- paramtk.BoolTranslator -->
<g id="node67" class="node"><title>paramtk.BoolTranslator</title>
<polygon fill="none" stroke="black" stroke-width="0.5" points="588,-590.5 460,-590.5 460,-569.5 588,-569.5 588,-590.5"/>
<text text-anchor="middle" x="524" y="-577.5" font-family="Vera" font-size="10.00">paramtk.BoolTranslator</text>
</g>
<!-- paramtk.DoNothingTranslator&#45;&gt;paramtk.BoolTranslator -->
<g id="edge64" class="edge"><title>paramtk.DoNothingTranslator&#45;&gt;paramtk.BoolTranslator</title>
<path fill="none" stroke="black" stroke-width="0.5" d="M388.142,-580C409.979,-580 433.497,-580 454.728,-580"/>
<polygon fill="black" stroke="black" points="454.788,-581.75 459.788,-580 454.788,-578.25 454.788,-581.75"/>
</g>
<!-- paramtk.AppWindow -->
<g id="node63" class="node"><title>paramtk.AppWindow</title>
<polygon fill="none" stroke="black" stroke-width="0.5" points="960,-20.5 846,-20.5 846,0.5 960,0.5 960,-20.5"/>
<text text-anchor="middle" x="903" y="-7.5" font-family="Vera" font-size="10.00">paramtk.AppWindow</text>
</g>
<!-- paramtk.ScrolledWindow&#45;&gt;paramtk.AppWindow -->
<g id="edge60" class="edge"><title>paramtk.ScrolledWindow&#45;&gt;paramtk.AppWindow</title>
<path fill="none" stroke="black" stroke-width="0.5" d="M781.271,-28.9792C800.467,-25.9863 821.474,-22.711 840.552,-19.7365"/>
<polygon fill="black" stroke="black" points="841.208,-21.4055 845.878,-18.9061 840.668,-17.9473 841.208,-21.4055"/>
</g>
<!-- param.parameterized.Parameter -->
<g id="node55" class="node"><title>param.parameterized.Parameter</title>
<polygon fill="none" stroke="black" stroke-width="0.5" points="175,-666.5 1,-666.5 1,-645.5 175,-645.5 175,-666.5"/>
<text text-anchor="middle" x="88" y="-653.5" font-family="Vera" font-size="10.00">param.parameterized.Parameter</text>
</g>
<!-- param.Callable -->
<g id="node80" class="node"><title>param.Callable</title>
<polygon fill="none" stroke="black" stroke-width="0.5" points="353,-666.5 265,-666.5 265,-645.5 353,-645.5 353,-666.5"/>
<text text-anchor="middle" x="309" y="-653.5" font-family="Vera" font-size="10.00">param.Callable</text>
</g>
<!-- param.parameterized.Parameter&#45;&gt;param.Callable -->
<g id="edge84" class="edge"><title>param.parameterized.Parameter&#45;&gt;param.Callable</title>
<path fill="none" stroke="black" stroke-width="0.5" d="M175.662,-656C204.015,-656 234.464,-656 259.097,-656"/>
<polygon fill="black" stroke="black" points="259.263,-657.75 264.263,-656 259.263,-654.25 259.263,-657.75"/>
</g>
<!-- paramtk.TkParameterizedBase&#45;&gt;paramtk.TkParameterized -->
<g id="edge52" class="edge"><title>paramtk.TkParameterizedBase&#45;&gt;paramtk.TkParameterized</title>
<path fill="none" stroke="black" stroke-width="0.5" d="M606.129,-447C617.873,-447 629.908,-447 641.516,-447"/>
<polygon fill="black" stroke="black" points="641.817,-448.75 646.817,-447 641.817,-445.25 641.817,-448.75"/>
</g>
<!-- paramtk.EditingParametersFrameWithApply -->
<g id="node84" class="node"><title>paramtk.EditingParametersFrameWithApply</title>
<polygon fill="none" stroke="black" stroke-width="0.5" points="1466,-362.5 1242,-362.5 1242,-341.5 1466,-341.5 1466,-362.5"/>
<text text-anchor="middle" x="1354" y="-349.5" font-family="Vera" font-size="10.00">paramtk.EditingParametersFrameWithApply</text>
</g>
<!-- paramtk.ParametersFrameWithApply&#45;&gt;paramtk.EditingParametersFrameWithApply -->
<g id="edge80" class="edge"><title>paramtk.ParametersFrameWithApply&#45;&gt;paramtk.EditingParametersFrameWithApply</title>
<path fill="none" stroke="black" stroke-width="0.5" d="M1206.09,-352C1216.17,-352 1226.5,-352 1236.79,-352"/>
<polygon fill="black" stroke="black" points="1236.84,-353.75 1241.84,-352 1236.84,-350.25 1236.84,-353.75"/>
</g>
<!-- paramtk.Button -->
<g id="node79" class="node"><title>paramtk.Button</title>
<polygon fill="none" stroke="black" stroke-width="0.5" points="570,-666.5 478,-666.5 478,-645.5 570,-645.5 570,-666.5"/>
<text text-anchor="middle" x="524" y="-653.5" font-family="Vera" font-size="10.00">paramtk.Button</text>
</g>
<!-- param.Callable&#45;&gt;paramtk.Button -->
<g id="edge76" class="edge"><title>param.Callable&#45;&gt;paramtk.Button</title>
<path fill="none" stroke="black" stroke-width="0.5" d="M353.548,-656C388.132,-656 436.136,-656 472.391,-656"/>
<polygon fill="black" stroke="black" points="472.652,-657.75 477.652,-656 472.652,-654.25 472.652,-657.75"/>
</g>
</g>
</svg>
