<?xml version="1.0" encoding="UTF-8" standalone="no"?>
<!DOCTYPE svg PUBLIC "-//W3C//DTD SVG 1.1//EN"
 "http://www.w3.org/Graphics/SVG/1.1/DTD/svg11.dtd">
<!-- Generated by graphviz version 2.26.3 (20100126.1600)
 -->
<!-- Title: inheritance273a80740e Pages: 1 -->
<svg width="856pt" height="902pt"
 viewBox="0.00 0.00 856.00 902.00" xmlns="http://www.w3.org/2000/svg" xmlns:xlink="http://www.w3.org/1999/xlink">
<g id="graph1" class="graph" transform="scale(1 1) rotate(0) translate(4 898)">
<title>inheritance273a80740e</title>
<polygon fill="white" stroke="white" points="-4,5 -4,-898 853,-898 853,5 -4,5"/>
<!-- imagen.Arc -->
<g id="node1" class="node"><title>imagen.Arc</title>
<polygon fill="none" stroke="black" stroke-width="0.5" points="607,-856.5 537,-856.5 537,-835.5 607,-835.5 607,-856.5"/>
<text text-anchor="middle" x="572" y="-843.5" font-family="Vera" font-size="10.00">imagen.Arc</text>
</g>
<!-- imagen.Curve -->
<g id="node54" class="node"><title>imagen.Curve</title>
<polygon fill="none" stroke="black" stroke-width="0.5" points="810,-856.5 728,-856.5 728,-835.5 810,-835.5 810,-856.5"/>
<text text-anchor="middle" x="769" y="-843.5" font-family="Vera" font-size="10.00">imagen.Curve</text>
</g>
<!-- imagen.Arc&#45;&gt;imagen.Curve -->
<g id="edge52" class="edge"><title>imagen.Arc&#45;&gt;imagen.Curve</title>
<path fill="none" stroke="black" stroke-width="0.5" d="M607.675,-846C639.802,-846 687.233,-846 722.357,-846"/>
<polygon fill="black" stroke="black" points="722.447,-847.75 727.447,-846 722.447,-844.25 722.447,-847.75"/>
</g>
<!-- imagen.patterngenerator.PatternGenerator -->
<g id="node2" class="node"><title>imagen.patterngenerator.PatternGenerator</title>
<polygon fill="none" stroke="black" stroke-width="0.5" points="454,-438.5 230,-438.5 230,-417.5 454,-417.5 454,-438.5"/>
<text text-anchor="middle" x="342" y="-425.5" font-family="Vera" font-size="10.00">imagen.patterngenerator.PatternGenerator</text>
</g>
<!-- imagen.patterngenerator.PatternGenerator&#45;&gt;imagen.Arc -->
<g id="edge2" class="edge"><title>imagen.patterngenerator.PatternGenerator&#45;&gt;imagen.Arc</title>
<path fill="none" stroke="black" stroke-width="0.5" d="M342.438,-438.27C345.191,-489.18 364.371,-716.449 490,-827 501.236,-836.888 516.607,-841.905 531.006,-844.366"/>
<polygon fill="black" stroke="black" points="531.051,-846.143 536.257,-845.161 531.575,-842.682 531.051,-846.143"/>
</g>
<!-- imagen.Sweeper -->
<g id="node4" class="node"><title>imagen.Sweeper</title>
<polygon fill="none" stroke="black" stroke-width="0.5" points="620,-818.5 524,-818.5 524,-797.5 620,-797.5 620,-818.5"/>
<text text-anchor="middle" x="572" y="-805.5" font-family="Vera" font-size="10.00">imagen.Sweeper</text>
</g>
<!-- imagen.patterngenerator.PatternGenerator&#45;&gt;imagen.Sweeper -->
<g id="edge4" class="edge"><title>imagen.patterngenerator.PatternGenerator&#45;&gt;imagen.Sweeper</title>
<path fill="none" stroke="black" stroke-width="0.5" d="M342.878,-438.255C347.555,-486.225 373.897,-690.27 490,-789 498.036,-795.834 508.06,-800.324 518.313,-803.25"/>
<polygon fill="black" stroke="black" points="518.076,-804.996 523.356,-804.563 518.959,-801.609 518.076,-804.996"/>
</g>
<!-- imagen.HalfPlane -->
<g id="node6" class="node"><title>imagen.HalfPlane</title>
<polygon fill="none" stroke="black" stroke-width="0.5" points="622,-780.5 522,-780.5 522,-759.5 622,-759.5 622,-780.5"/>
<text text-anchor="middle" x="572" y="-767.5" font-family="Vera" font-size="10.00">imagen.HalfPlane</text>
</g>
<!-- imagen.patterngenerator.PatternGenerator&#45;&gt;imagen.HalfPlane -->
<g id="edge6" class="edge"><title>imagen.patterngenerator.PatternGenerator&#45;&gt;imagen.HalfPlane</title>
<path fill="none" stroke="black" stroke-width="0.5" d="M343.386,-438.081C350.072,-482.676 383.187,-663.842 490,-751 497.617,-757.215 506.893,-761.476 516.431,-764.38"/>
<polygon fill="black" stroke="black" points="516.148,-766.118 521.435,-765.779 517.09,-762.747 516.148,-766.118"/>
</g>
<!-- imagen.Line -->
<g id="node11" class="node"><title>imagen.Line</title>
<polygon fill="none" stroke="black" stroke-width="0.5" points="609,-742.5 535,-742.5 535,-721.5 609,-721.5 609,-742.5"/>
<text text-anchor="middle" x="572" y="-729.5" font-family="Vera" font-size="10.00">imagen.Line</text>
</g>
<!-- imagen.patterngenerator.PatternGenerator&#45;&gt;imagen.Line -->
<g id="edge10" class="edge"><title>imagen.patterngenerator.PatternGenerator&#45;&gt;imagen.Line</title>
<path fill="none" stroke="black" stroke-width="0.5" d="M344.023,-438.009C352.903,-479.239 392.423,-637.308 490,-713 501.209,-721.695 515.709,-726.528 529.391,-729.177"/>
<polygon fill="black" stroke="black" points="529.16,-730.913 534.388,-730.058 529.767,-727.466 529.16,-730.913"/>
</g>
<!-- imagen.RawRectangle -->
<g id="node13" class="node"><title>imagen.RawRectangle</title>
<polygon fill="none" stroke="black" stroke-width="0.5" points="632,-704.5 512,-704.5 512,-683.5 632,-683.5 632,-704.5"/>
<text text-anchor="middle" x="572" y="-691.5" font-family="Vera" font-size="10.00">imagen.RawRectangle</text>
</g>
<!-- imagen.patterngenerator.PatternGenerator&#45;&gt;imagen.RawRectangle -->
<g id="edge12" class="edge"><title>imagen.patterngenerator.PatternGenerator&#45;&gt;imagen.RawRectangle</title>
<path fill="none" stroke="black" stroke-width="0.5" d="M344.912,-438.209C356.313,-476.227 401.696,-610.707 490,-675 494.984,-678.629 500.552,-681.577 506.377,-683.972"/>
<polygon fill="black" stroke="black" points="506.027,-685.711 511.322,-685.855 507.273,-682.44 506.027,-685.711"/>
</g>
<!-- imagen.Composite -->
<g id="node16" class="node"><title>imagen.Composite</title>
<polygon fill="none" stroke="black" stroke-width="0.5" points="625,-666.5 519,-666.5 519,-645.5 625,-645.5 625,-666.5"/>
<text text-anchor="middle" x="572" y="-653.5" font-family="Vera" font-size="10.00">imagen.Composite</text>
</g>
<!-- imagen.patterngenerator.PatternGenerator&#45;&gt;imagen.Composite -->
<g id="edge54" class="edge"><title>imagen.patterngenerator.PatternGenerator&#45;&gt;imagen.Composite</title>
<path fill="none" stroke="black" stroke-width="0.5" d="M346.065,-438.266C360.187,-472.52 410.631,-583.725 490,-637 497.034,-641.721 505.086,-645.278 513.336,-647.957"/>
<polygon fill="black" stroke="black" points="513.198,-649.743 518.491,-649.514 514.21,-646.393 513.198,-649.743"/>
</g>
<!-- imagen.SineGrating -->
<g id="node18" class="node"><title>imagen.SineGrating</title>
<polygon fill="none" stroke="black" stroke-width="0.5" points="628,-628.5 516,-628.5 516,-607.5 628,-607.5 628,-628.5"/>
<text text-anchor="middle" x="572" y="-615.5" font-family="Vera" font-size="10.00">imagen.SineGrating</text>
</g>
<!-- imagen.patterngenerator.PatternGenerator&#45;&gt;imagen.SineGrating -->
<g id="edge16" class="edge"><title>imagen.patterngenerator.PatternGenerator&#45;&gt;imagen.SineGrating</title>
<path fill="none" stroke="black" stroke-width="0.5" d="M347.535,-438.029C364.516,-467.796 419.052,-556.227 490,-599 496.406,-602.862 503.529,-605.939 510.825,-608.391"/>
<polygon fill="black" stroke="black" points="510.603,-610.156 515.898,-609.991 511.656,-606.818 510.603,-610.156"/>
</g>
<!-- imagen.SquareGrating -->
<g id="node20" class="node"><title>imagen.SquareGrating</title>
<polygon fill="none" stroke="black" stroke-width="0.5" points="634,-590.5 510,-590.5 510,-569.5 634,-569.5 634,-590.5"/>
<text text-anchor="middle" x="572" y="-577.5" font-family="Vera" font-size="10.00">imagen.SquareGrating</text>
</g>
<!-- imagen.patterngenerator.PatternGenerator&#45;&gt;imagen.SquareGrating -->
<g id="edge18" class="edge"><title>imagen.patterngenerator.PatternGenerator&#45;&gt;imagen.SquareGrating</title>
<path fill="none" stroke="black" stroke-width="0.5" d="M350.101,-438.206C370.623,-463.326 427.488,-528.465 490,-561 495.469,-563.846 501.362,-566.27 507.391,-568.334"/>
<polygon fill="black" stroke="black" points="507.185,-570.107 512.481,-569.984 508.265,-566.778 507.185,-570.107"/>
</g>
<!-- imagen.LogGaussian -->
<g id="node22" class="node"><title>imagen.LogGaussian</title>
<polygon fill="none" stroke="black" stroke-width="0.5" points="630,-552.5 514,-552.5 514,-531.5 630,-531.5 630,-552.5"/>
<text text-anchor="middle" x="572" y="-539.5" font-family="Vera" font-size="10.00">imagen.LogGaussian</text>
</g>
<!-- imagen.patterngenerator.PatternGenerator&#45;&gt;imagen.LogGaussian -->
<g id="edge20" class="edge"><title>imagen.patterngenerator.PatternGenerator&#45;&gt;imagen.LogGaussian</title>
<path fill="none" stroke="black" stroke-width="0.5" d="M354.613,-438.267C379.157,-457.732 435.705,-500.098 490,-523 496.892,-525.907 504.306,-528.411 511.759,-530.558"/>
<polygon fill="black" stroke="black" points="511.632,-532.338 516.918,-531.987 512.567,-528.965 511.632,-532.338"/>
</g>
<!-- imagen.SigmoidedDoG -->
<g id="node24" class="node"><title>imagen.SigmoidedDoG</title>
<polygon fill="none" stroke="black" stroke-width="0.5" points="636,-514.5 508,-514.5 508,-493.5 636,-493.5 636,-514.5"/>
<text text-anchor="middle" x="572" y="-501.5" font-family="Vera" font-size="10.00">imagen.SigmoidedDoG</text>
</g>
<!-- imagen.patterngenerator.PatternGenerator&#45;&gt;imagen.SigmoidedDoG -->
<g id="edge22" class="edge"><title>imagen.patterngenerator.PatternGenerator&#45;&gt;imagen.SigmoidedDoG</title>
<path fill="none" stroke="black" stroke-width="0.5" d="M364.974,-438.004C393.776,-450.276 444.855,-471.151 490,-485 499.161,-487.81 509.008,-490.427 518.59,-492.766"/>
<polygon fill="black" stroke="black" points="518.3,-494.496 523.571,-493.963 519.118,-491.093 518.3,-494.496"/>
</g>
<!-- imagen.Translator -->
<g id="node26" class="node"><title>imagen.Translator</title>
<polygon fill="none" stroke="black" stroke-width="0.5" points="623,-476.5 521,-476.5 521,-455.5 623,-455.5 623,-476.5"/>
<text text-anchor="middle" x="572" y="-463.5" font-family="Vera" font-size="10.00">imagen.Translator</text>
</g>
<!-- imagen.patterngenerator.PatternGenerator&#45;&gt;imagen.Translator -->
<g id="edge24" class="edge"><title>imagen.patterngenerator.PatternGenerator&#45;&gt;imagen.Translator</title>
<path fill="none" stroke="black" stroke-width="0.5" d="M402.731,-438.034C437.742,-443.818 481.46,-451.041 515.696,-456.698"/>
<polygon fill="black" stroke="black" points="515.458,-458.432 520.676,-457.52 516.029,-454.979 515.458,-458.432"/>
</g>
<!-- imagen.PowerSpectrum -->
<g id="node28" class="node"><title>imagen.PowerSpectrum</title>
<polygon fill="none" stroke="black" stroke-width="0.5" points="637,-438.5 507,-438.5 507,-417.5 637,-417.5 637,-438.5"/>
<text text-anchor="middle" x="572" y="-425.5" font-family="Vera" font-size="10.00">imagen.PowerSpectrum</text>
</g>
<!-- imagen.patterngenerator.PatternGenerator&#45;&gt;imagen.PowerSpectrum -->
<g id="edge26" class="edge"><title>imagen.patterngenerator.PatternGenerator&#45;&gt;imagen.PowerSpectrum</title>
<path fill="none" stroke="black" stroke-width="0.5" d="M454.305,-428C470.287,-428 486.339,-428 501.224,-428"/>
<polygon fill="black" stroke="black" points="501.226,-429.75 506.226,-428 501.226,-426.25 501.226,-429.75"/>
</g>
<!-- imagen.SigmoidedDoLG -->
<g id="node32" class="node"><title>imagen.SigmoidedDoLG</title>
<polygon fill="none" stroke="black" stroke-width="0.5" points="638,-400.5 506,-400.5 506,-379.5 638,-379.5 638,-400.5"/>
<text text-anchor="middle" x="572" y="-387.5" font-family="Vera" font-size="10.00">imagen.SigmoidedDoLG</text>
</g>
<!-- imagen.patterngenerator.PatternGenerator&#45;&gt;imagen.SigmoidedDoLG -->
<g id="edge30" class="edge"><title>imagen.patterngenerator.PatternGenerator&#45;&gt;imagen.SigmoidedDoLG</title>
<path fill="none" stroke="black" stroke-width="0.5" d="M402.731,-417.966C434.566,-412.706 473.602,-406.257 506.16,-400.878"/>
<polygon fill="black" stroke="black" points="506.68,-402.566 511.328,-400.024 506.11,-399.113 506.68,-402.566"/>
</g>
<!-- imagen.Sigmoid -->
<g id="node34" class="node"><title>imagen.Sigmoid</title>
<polygon fill="none" stroke="black" stroke-width="0.5" points="619,-362.5 525,-362.5 525,-341.5 619,-341.5 619,-362.5"/>
<text text-anchor="middle" x="572" y="-349.5" font-family="Vera" font-size="10.00">imagen.Sigmoid</text>
</g>
<!-- imagen.patterngenerator.PatternGenerator&#45;&gt;imagen.Sigmoid -->
<g id="edge32" class="edge"><title>imagen.patterngenerator.PatternGenerator&#45;&gt;imagen.Sigmoid</title>
<path fill="none" stroke="black" stroke-width="0.5" d="M432.367,-417.995C439.897,-415.58 447.214,-412.621 454,-409 474.524,-398.046 469.811,-382.561 490,-371 498.936,-365.883 509.166,-362.143 519.3,-359.41"/>
<polygon fill="black" stroke="black" points="519.848,-361.077 524.262,-358.148 518.985,-357.685 519.848,-361.077"/>
</g>
<!-- imagen.Gaussian -->
<g id="node36" class="node"><title>imagen.Gaussian</title>
<polygon fill="none" stroke="black" stroke-width="0.5" points="622,-324.5 522,-324.5 522,-303.5 622,-303.5 622,-324.5"/>
<text text-anchor="middle" x="572" y="-311.5" font-family="Vera" font-size="10.00">imagen.Gaussian</text>
</g>
<!-- imagen.patterngenerator.PatternGenerator&#45;&gt;imagen.Gaussian -->
<g id="edge34" class="edge"><title>imagen.patterngenerator.PatternGenerator&#45;&gt;imagen.Gaussian</title>
<path fill="none" stroke="black" stroke-width="0.5" d="M438.989,-417.948C444.306,-415.468 449.362,-412.513 454,-409 483.794,-386.433 460.892,-356.445 490,-333 497.753,-326.755 507.187,-322.489 516.857,-319.59"/>
<polygon fill="black" stroke="black" points="517.572,-321.208 521.929,-318.195 516.643,-317.833 517.572,-321.208"/>
</g>
<!-- imagen.Rectangle -->
<g id="node39" class="node"><title>imagen.Rectangle</title>
<polygon fill="none" stroke="black" stroke-width="0.5" points="623,-286.5 521,-286.5 521,-265.5 623,-265.5 623,-286.5"/>
<text text-anchor="middle" x="572" y="-273.5" font-family="Vera" font-size="10.00">imagen.Rectangle</text>
</g>
<!-- imagen.patterngenerator.PatternGenerator&#45;&gt;imagen.Rectangle -->
<g id="edge42" class="edge"><title>imagen.patterngenerator.PatternGenerator&#45;&gt;imagen.Rectangle</title>
<path fill="none" stroke="black" stroke-width="0.5" d="M440.885,-417.984C445.57,-415.468 449.984,-412.497 454,-409 494.069,-374.106 450.99,-331.074 490,-295 497.218,-288.326 506.305,-283.847 515.78,-280.871"/>
<polygon fill="black" stroke="black" points="516.436,-282.504 520.763,-279.448 515.474,-279.138 516.436,-282.504"/>
</g>
<!-- imagen.Selector -->
<g id="node41" class="node"><title>imagen.Selector</title>
<polygon fill="none" stroke="black" stroke-width="0.5" points="619,-248.5 525,-248.5 525,-227.5 619,-227.5 619,-248.5"/>
<text text-anchor="middle" x="572" y="-235.5" font-family="Vera" font-size="10.00">imagen.Selector</text>
</g>
<!-- imagen.patterngenerator.PatternGenerator&#45;&gt;imagen.Selector -->
<g id="edge38" class="edge"><title>imagen.patterngenerator.PatternGenerator&#45;&gt;imagen.Selector</title>
<path fill="none" stroke="black" stroke-width="0.5" d="M441.964,-417.894C446.282,-415.383 450.331,-412.44 454,-409 504.648,-361.518 440.79,-305.971 490,-257 497.905,-249.134 508.383,-244.269 519.199,-241.315"/>
<polygon fill="black" stroke="black" points="519.747,-242.983 524.184,-240.088 518.91,-239.584 519.747,-242.983"/>
</g>
<!-- imagen.Disk -->
<g id="node43" class="node"><title>imagen.Disk</title>
<polygon fill="none" stroke="black" stroke-width="0.5" points="610,-210.5 534,-210.5 534,-189.5 610,-189.5 610,-210.5"/>
<text text-anchor="middle" x="572" y="-197.5" font-family="Vera" font-size="10.00">imagen.Disk</text>
</g>
<!-- imagen.patterngenerator.PatternGenerator&#45;&gt;imagen.Disk -->
<g id="edge40" class="edge"><title>imagen.patterngenerator.PatternGenerator&#45;&gt;imagen.Disk</title>
<path fill="none" stroke="black" stroke-width="0.5" d="M442.407,-417.942C446.58,-415.412 450.48,-412.453 454,-409 515.355,-348.813 430.467,-280.99 490,-219 500.007,-208.58 514.513,-203.375 528.552,-200.91"/>
<polygon fill="black" stroke="black" points="529.017,-202.609 533.694,-200.121 528.486,-199.15 529.017,-202.609"/>
</g>
<!-- imagen.Gabor -->
<g id="node46" class="node"><title>imagen.Gabor</title>
<polygon fill="none" stroke="black" stroke-width="0.5" points="614,-172.5 530,-172.5 530,-151.5 614,-151.5 614,-172.5"/>
<text text-anchor="middle" x="572" y="-159.5" font-family="Vera" font-size="10.00">imagen.Gabor</text>
</g>
<!-- imagen.patterngenerator.PatternGenerator&#45;&gt;imagen.Gabor -->
<g id="edge44" class="edge"><title>imagen.patterngenerator.PatternGenerator&#45;&gt;imagen.Gabor</title>
<path fill="none" stroke="black" stroke-width="0.5" d="M443.032,-417.763C446.984,-415.268 450.672,-412.366 454,-409 526.125,-336.045 420.082,-256.073 490,-181 498.88,-171.465 511.522,-166.267 524.228,-163.542"/>
<polygon fill="black" stroke="black" points="524.696,-165.234 529.282,-162.583 524.044,-161.796 524.696,-165.234"/>
</g>
<!-- imagen.Ring -->
<g id="node50" class="node"><title>imagen.Ring</title>
<polygon fill="none" stroke="black" stroke-width="0.5" points="610,-134.5 534,-134.5 534,-113.5 610,-113.5 610,-134.5"/>
<text text-anchor="middle" x="572" y="-121.5" font-family="Vera" font-size="10.00">imagen.Ring</text>
</g>
<!-- imagen.patterngenerator.PatternGenerator&#45;&gt;imagen.Ring -->
<g id="edge48" class="edge"><title>imagen.patterngenerator.PatternGenerator&#45;&gt;imagen.Ring</title>
<path fill="none" stroke="black" stroke-width="0.5" d="M443.124,-417.853C447.052,-415.334 450.71,-412.403 454,-409 536.932,-323.24 409.662,-231.195 490,-143 499.816,-132.224 514.432,-126.961 528.618,-124.551"/>
<polygon fill="black" stroke="black" points="529.122,-126.245 533.814,-123.787 528.613,-122.783 529.122,-126.245"/>
</g>
<!-- imagen.GaussiansCorner -->
<g id="node52" class="node"><title>imagen.GaussiansCorner</title>
<polygon fill="none" stroke="black" stroke-width="0.5" points="640,-96.5 504,-96.5 504,-75.5 640,-75.5 640,-96.5"/>
<text text-anchor="middle" x="572" y="-83.5" font-family="Vera" font-size="10.00">imagen.GaussiansCorner</text>
</g>
<!-- imagen.patterngenerator.PatternGenerator&#45;&gt;imagen.GaussiansCorner -->
<g id="edge50" class="edge"><title>imagen.patterngenerator.PatternGenerator&#45;&gt;imagen.GaussiansCorner</title>
<path fill="none" stroke="black" stroke-width="0.5" d="M443.194,-417.92C447.103,-415.384 450.738,-412.43 454,-409 547.762,-310.412 399.219,-206.34 490,-105 492.614,-102.082 495.581,-99.566 498.796,-97.401"/>
<polygon fill="black" stroke="black" points="499.954,-98.7462 503.326,-94.6611 498.142,-95.7513 499.954,-98.7462"/>
</g>
<!-- imagen.ExponentialDecay -->
<g id="node64" class="node"><title>imagen.ExponentialDecay</title>
<polygon fill="none" stroke="black" stroke-width="0.5" points="642,-58.5 502,-58.5 502,-37.5 642,-37.5 642,-58.5"/>
<text text-anchor="middle" x="572" y="-45.5" font-family="Vera" font-size="10.00">imagen.ExponentialDecay</text>
</g>
<!-- imagen.patterngenerator.PatternGenerator&#45;&gt;imagen.ExponentialDecay -->
<g id="edge62" class="edge"><title>imagen.patterngenerator.PatternGenerator&#45;&gt;imagen.ExponentialDecay</title>
<path fill="none" stroke="black" stroke-width="0.5" d="M443.249,-417.972C447.144,-415.422 450.76,-412.451 454,-409 558.607,-297.567 388.762,-181.503 490,-67 492.16,-64.5573 494.566,-62.396 497.159,-60.4857"/>
<polygon fill="black" stroke="black" points="498.181,-61.9083 501.38,-57.686 496.246,-58.9917 498.181,-61.9083"/>
</g>
<!-- imagen.DifferenceOfGaussians -->
<g id="node67" class="node"><title>imagen.DifferenceOfGaussians</title>
<polygon fill="none" stroke="black" stroke-width="0.5" points="654,-20.5 490,-20.5 490,0.5 654,0.5 654,-20.5"/>
<text text-anchor="middle" x="572" y="-7.5" font-family="Vera" font-size="10.00">imagen.DifferenceOfGaussians</text>
</g>
<!-- imagen.patterngenerator.PatternGenerator&#45;&gt;imagen.DifferenceOfGaussians -->
<g id="edge66" class="edge"><title>imagen.patterngenerator.PatternGenerator&#45;&gt;imagen.DifferenceOfGaussians</title>
<path fill="none" stroke="black" stroke-width="0.5" d="M443.778,-417.692C447.476,-415.203 450.913,-412.323 454,-409 511.732,-346.856 434.147,-92.8382 490,-29 491.924,-26.8004 494.049,-24.8285 496.33,-23.0622"/>
<polygon fill="black" stroke="black" points="497.487,-24.3892 500.596,-20.1 495.491,-21.5143 497.487,-24.3892"/>
</g>
<!-- param.parameterized.Parameter -->
<g id="node8" class="node"><title>param.parameterized.Parameter</title>
<polygon fill="none" stroke="black" stroke-width="0.5" points="184,-894.5 10,-894.5 10,-873.5 184,-873.5 184,-894.5"/>
<text text-anchor="middle" x="97" y="-881.5" font-family="Vera" font-size="10.00">param.parameterized.Parameter</text>
</g>
<!-- param.Selector -->
<g id="node9" class="node"><title>param.Selector</title>
<polygon fill="none" stroke="black" stroke-width="0.5" points="387,-894.5 297,-894.5 297,-873.5 387,-873.5 387,-894.5"/>
<text text-anchor="middle" x="342" y="-881.5" font-family="Vera" font-size="10.00">param.Selector</text>
</g>
<!-- param.parameterized.Parameter&#45;&gt;param.Selector -->
<g id="edge8" class="edge"><title>param.parameterized.Parameter&#45;&gt;param.Selector</title>
<path fill="none" stroke="black" stroke-width="0.5" d="M184.759,-884C220.453,-884 260.436,-884 291.152,-884"/>
<polygon fill="black" stroke="black" points="291.387,-885.75 296.387,-884 291.387,-882.25 291.387,-885.75"/>
</g>
<!-- param.ClassSelector -->
<g id="node30" class="node"><title>param.ClassSelector</title>
<polygon fill="none" stroke="black" stroke-width="0.5" points="630,-894.5 514,-894.5 514,-873.5 630,-873.5 630,-894.5"/>
<text text-anchor="middle" x="572" y="-881.5" font-family="Vera" font-size="10.00">param.ClassSelector</text>
</g>
<!-- param.Selector&#45;&gt;param.ClassSelector -->
<g id="edge28" class="edge"><title>param.Selector&#45;&gt;param.ClassSelector</title>
<path fill="none" stroke="black" stroke-width="0.5" d="M387.716,-884C422.32,-884 470.267,-884 508.58,-884"/>
<polygon fill="black" stroke="black" points="508.68,-885.75 513.68,-884 508.68,-882.25 508.68,-885.75"/>
</g>
<!-- imagen.SeparatedComposite -->
<g id="node15" class="node"><title>imagen.SeparatedComposite</title>
<polygon fill="none" stroke="black" stroke-width="0.5" points="848,-666.5 690,-666.5 690,-645.5 848,-645.5 848,-666.5"/>
<text text-anchor="middle" x="769" y="-653.5" font-family="Vera" font-size="10.00">imagen.SeparatedComposite</text>
</g>
<!-- imagen.Composite&#45;&gt;imagen.SeparatedComposite -->
<g id="edge14" class="edge"><title>imagen.Composite&#45;&gt;imagen.SeparatedComposite</title>
<path fill="none" stroke="black" stroke-width="0.5" d="M625.571,-656C643.847,-656 664.75,-656 684.839,-656"/>
<polygon fill="black" stroke="black" points="684.927,-657.75 689.927,-656 684.927,-654.25 684.927,-657.75"/>
</g>
<!-- imagen.OrientationContrast -->
<g id="node57" class="node"><title>imagen.OrientationContrast</title>
<polygon fill="none" stroke="black" stroke-width="0.5" points="844,-628.5 694,-628.5 694,-607.5 844,-607.5 844,-628.5"/>
<text text-anchor="middle" x="769" y="-615.5" font-family="Vera" font-size="10.00">imagen.OrientationContrast</text>
</g>
<!-- imagen.SineGrating&#45;&gt;imagen.OrientationContrast -->
<g id="edge56" class="edge"><title>imagen.SineGrating&#45;&gt;imagen.OrientationContrast</title>
<path fill="none" stroke="black" stroke-width="0.5" d="M628.189,-618C647.06,-618 668.49,-618 688.837,-618"/>
<polygon fill="black" stroke="black" points="688.985,-619.75 693.985,-618 688.985,-616.25 688.985,-619.75"/>
</g>
<!-- imagen.Spectrogram -->
<g id="node59" class="node"><title>imagen.Spectrogram</title>
<polygon fill="none" stroke="black" stroke-width="0.5" points="828,-438.5 710,-438.5 710,-417.5 828,-417.5 828,-438.5"/>
<text text-anchor="middle" x="769" y="-425.5" font-family="Vera" font-size="10.00">imagen.Spectrogram</text>
</g>
<!-- imagen.PowerSpectrum&#45;&gt;imagen.Spectrogram -->
<g id="edge58" class="edge"><title>imagen.PowerSpectrum&#45;&gt;imagen.Spectrogram</title>
<path fill="none" stroke="black" stroke-width="0.5" d="M637.598,-428C659.048,-428 682.849,-428 704.237,-428"/>
<polygon fill="black" stroke="black" points="704.332,-429.75 709.332,-428 704.332,-426.25 704.332,-429.75"/>
</g>
<!-- imagen.TimeSeriesParam -->
<g id="node48" class="node"><title>imagen.TimeSeriesParam</title>
<polygon fill="none" stroke="black" stroke-width="0.5" points="839,-894.5 699,-894.5 699,-873.5 839,-873.5 839,-894.5"/>
<text text-anchor="middle" x="769" y="-881.5" font-family="Vera" font-size="10.00">imagen.TimeSeriesParam</text>
</g>
<!-- param.ClassSelector&#45;&gt;imagen.TimeSeriesParam -->
<g id="edge46" class="edge"><title>param.ClassSelector&#45;&gt;imagen.TimeSeriesParam</title>
<path fill="none" stroke="black" stroke-width="0.5" d="M630.041,-884C650.005,-884 672.652,-884 693.784,-884"/>
<polygon fill="black" stroke="black" points="693.834,-885.75 698.834,-884 693.834,-882.25 693.834,-885.75"/>
</g>
<!-- imagen.TwoRectangles -->
<g id="node38" class="node"><title>imagen.TwoRectangles</title>
<polygon fill="none" stroke="black" stroke-width="0.5" points="831,-286.5 707,-286.5 707,-265.5 831,-265.5 831,-286.5"/>
<text text-anchor="middle" x="769" y="-273.5" font-family="Vera" font-size="10.00">imagen.TwoRectangles</text>
</g>
<!-- imagen.Rectangle&#45;&gt;imagen.TwoRectangles -->
<g id="edge36" class="edge"><title>imagen.Rectangle&#45;&gt;imagen.TwoRectangles</title>
<path fill="none" stroke="black" stroke-width="0.5" d="M623.245,-276C647.186,-276 676.008,-276 701.679,-276"/>
<polygon fill="black" stroke="black" points="701.769,-277.75 706.769,-276 701.769,-274.25 701.769,-277.75"/>
</g>
<!-- imagen.TimeSeries -->
<g id="node61" class="node"><title>imagen.TimeSeries</title>
<polygon fill="none" stroke="black" stroke-width="0.5" points="396,-400.5 288,-400.5 288,-379.5 396,-379.5 396,-400.5"/>
<text text-anchor="middle" x="342" y="-387.5" font-family="Vera" font-size="10.00">imagen.TimeSeries</text>
</g>
<!-- param.parameterized.Parameterized -->
<g id="node62" class="node"><title>param.parameterized.Parameterized</title>
<polygon fill="none" stroke="black" stroke-width="0.5" points="194,-419.5 5.68434e-14,-419.5 0,-398.5 194,-398.5 194,-419.5"/>
<text text-anchor="middle" x="97" y="-406.5" font-family="Vera" font-size="10.00">param.parameterized.Parameterized</text>
</g>
<!-- param.parameterized.Parameterized&#45;&gt;imagen.patterngenerator.PatternGenerator -->
<g id="edge64" class="edge"><title>param.parameterized.Parameterized&#45;&gt;imagen.patterngenerator.PatternGenerator</title>
<path fill="none" stroke="black" stroke-width="0.5" d="M194.182,-416.537C204.286,-417.32 214.629,-418.122 224.922,-418.92"/>
<polygon fill="black" stroke="black" points="224.849,-420.67 229.969,-419.312 225.12,-417.18 224.849,-420.67"/>
</g>
<!-- param.parameterized.Parameterized&#45;&gt;imagen.TimeSeries -->
<g id="edge60" class="edge"><title>param.parameterized.Parameterized&#45;&gt;imagen.TimeSeries</title>
<path fill="none" stroke="black" stroke-width="0.5" d="M194.182,-401.463C223.866,-399.161 255.624,-396.699 282.066,-394.648"/>
<polygon fill="black" stroke="black" points="282.431,-396.375 287.281,-394.244 282.161,-392.885 282.431,-396.375"/>
</g>
</g>
</svg>
