<?xml version="1.0" encoding="UTF-8" standalone="no"?>
<!DOCTYPE svg PUBLIC "-//W3C//DTD SVG 1.1//EN"
 "http://www.w3.org/Graphics/SVG/1.1/DTD/svg11.dtd">
<!-- Generated by graphviz version 2.26.3 (20100126.1600)
 -->
<!-- Title: inheritancebede3c61fc Pages: 1 -->
<svg width="1742pt" height="408pt"
 viewBox="0.00 0.00 1742.00 408.00" xmlns="http://www.w3.org/2000/svg" xmlns:xlink="http://www.w3.org/1999/xlink">
<g id="graph1" class="graph" transform="scale(1 1) rotate(0) translate(4 404)">
<title>inheritancebede3c61fc</title>
<polygon fill="white" stroke="white" points="-4,5 -4,-404 1739,-404 1739,5 -4,5"/>
<!-- param.parameterized.ParameterizedFunction -->
<g id="node1" class="node"><title>param.parameterized.ParameterizedFunction</title>
<polygon fill="none" stroke="black" stroke-width="0.5" points="464,-153.5 230,-153.5 230,-132.5 464,-132.5 464,-153.5"/>
<text text-anchor="middle" x="347" y="-140.5" font-family="Vera" font-size="10.00">param.parameterized.ParameterizedFunction</text>
</g>
<!-- topo.command.Command -->
<g id="node32" class="node"><title>topo.command.Command</title>
<polygon fill="none" stroke="black" stroke-width="0.5" points="643,-153.5 501,-153.5 501,-132.5 643,-132.5 643,-153.5"/>
<text text-anchor="middle" x="572" y="-140.5" font-family="Vera" font-size="10.00">topo.command.Command</text>
</g>
<!-- param.parameterized.ParameterizedFunction&#45;&gt;topo.command.Command -->
<g id="edge30" class="edge"><title>param.parameterized.ParameterizedFunction&#45;&gt;topo.command.Command</title>
<path fill="none" stroke="black" stroke-width="0.5" d="M464.113,-143C474.661,-143 485.155,-143 495.222,-143"/>
<polygon fill="black" stroke="black" points="495.446,-144.75 500.446,-143 495.446,-141.25 495.446,-144.75"/>
</g>
<!-- param.parameterized.Parameterized -->
<g id="node2" class="node"><title>param.parameterized.Parameterized</title>
<polygon fill="none" stroke="black" stroke-width="0.5" points="194,-153.5 5.68434e-14,-153.5 0,-132.5 194,-132.5 194,-153.5"/>
<text text-anchor="middle" x="97" y="-140.5" font-family="Vera" font-size="10.00">param.parameterized.Parameterized</text>
</g>
<!-- param.parameterized.Parameterized&#45;&gt;param.parameterized.ParameterizedFunction -->
<g id="edge2" class="edge"><title>param.parameterized.Parameterized&#45;&gt;param.parameterized.ParameterizedFunction</title>
<path fill="none" stroke="black" stroke-width="0.5" d="M194.014,-143C204.04,-143 214.319,-143 224.575,-143"/>
<polygon fill="black" stroke="black" points="224.607,-144.75 229.607,-143 224.607,-141.25 224.607,-144.75"/>
</g>
<!-- topo.command.pylabplot.unit_tuning_curve -->
<g id="node4" class="node"><title>topo.command.pylabplot.unit_tuning_curve</title>
<polygon fill="none" stroke="black" stroke-width="0.5" points="1174,-362.5 950,-362.5 950,-341.5 1174,-341.5 1174,-362.5"/>
<text text-anchor="middle" x="1062" y="-349.5" font-family="Vera" font-size="10.00">topo.command.pylabplot.unit_tuning_curve</text>
</g>
<!-- topo.command.pylabplot.cyclic_unit_tuning_curve -->
<g id="node11" class="node"><title>topo.command.pylabplot.cyclic_unit_tuning_curve</title>
<polygon fill="none" stroke="black" stroke-width="0.5" points="1465,-400.5 1211,-400.5 1211,-379.5 1465,-379.5 1465,-400.5"/>
<text text-anchor="middle" x="1338" y="-387.5" font-family="Vera" font-size="10.00">topo.command.pylabplot.cyclic_unit_tuning_curve</text>
</g>
<!-- topo.command.pylabplot.unit_tuning_curve&#45;&gt;topo.command.pylabplot.cyclic_unit_tuning_curve -->
<g id="edge28" class="edge"><title>topo.command.pylabplot.unit_tuning_curve&#45;&gt;topo.command.pylabplot.cyclic_unit_tuning_curve</title>
<path fill="none" stroke="black" stroke-width="0.5" d="M1134.88,-362.034C1173.39,-367.337 1220.69,-373.849 1259.96,-379.255"/>
<polygon fill="black" stroke="black" points="1260,-381.028 1265.19,-379.976 1260.48,-377.56 1260,-381.028"/>
</g>
<!-- topo.command.pylabplot.tuning_curve -->
<g id="node24" class="node"><title>topo.command.pylabplot.tuning_curve</title>
<polygon fill="none" stroke="black" stroke-width="0.5" points="1438,-362.5 1238,-362.5 1238,-341.5 1438,-341.5 1438,-362.5"/>
<text text-anchor="middle" x="1338" y="-349.5" font-family="Vera" font-size="10.00">topo.command.pylabplot.tuning_curve</text>
</g>
<!-- topo.command.pylabplot.unit_tuning_curve&#45;&gt;topo.command.pylabplot.tuning_curve -->
<g id="edge20" class="edge"><title>topo.command.pylabplot.unit_tuning_curve&#45;&gt;topo.command.pylabplot.tuning_curve</title>
<path fill="none" stroke="black" stroke-width="0.5" d="M1174.26,-352C1193.36,-352 1213.14,-352 1232.07,-352"/>
<polygon fill="black" stroke="black" points="1232.38,-353.75 1237.38,-352 1232.38,-350.25 1232.38,-353.75"/>
</g>
<!-- topo.command.pylabplot.PylabPlotCommand -->
<g id="node5" class="node"><title>topo.command.pylabplot.PylabPlotCommand</title>
<polygon fill="none" stroke="black" stroke-width="0.5" points="913,-153.5 681,-153.5 681,-132.5 913,-132.5 913,-153.5"/>
<text text-anchor="middle" x="797" y="-140.5" font-family="Vera" font-size="10.00">topo.command.pylabplot.PylabPlotCommand</text>
</g>
<!-- topo.command.pylabplot.PylabPlotCommand&#45;&gt;topo.command.pylabplot.unit_tuning_curve -->
<g id="edge4" class="edge"><title>topo.command.pylabplot.PylabPlotCommand&#45;&gt;topo.command.pylabplot.unit_tuning_curve</title>
<path fill="none" stroke="black" stroke-width="0.5" d="M809.782,-153.081C853.237,-187.353 995.32,-299.411 1044.81,-338.445"/>
<polygon fill="black" stroke="black" points="1044.03,-340.054 1049.04,-341.776 1046.19,-337.305 1044.03,-340.054"/>
</g>
<!-- topo.command.pylabplot.matrixplot -->
<g id="node8" class="node"><title>topo.command.pylabplot.matrixplot</title>
<polygon fill="none" stroke="black" stroke-width="0.5" points="1156,-248.5 968,-248.5 968,-227.5 1156,-227.5 1156,-248.5"/>
<text text-anchor="middle" x="1062" y="-235.5" font-family="Vera" font-size="10.00">topo.command.pylabplot.matrixplot</text>
</g>
<!-- topo.command.pylabplot.PylabPlotCommand&#45;&gt;topo.command.pylabplot.matrixplot -->
<g id="edge38" class="edge"><title>topo.command.pylabplot.PylabPlotCommand&#45;&gt;topo.command.pylabplot.matrixplot</title>
<path fill="none" stroke="black" stroke-width="0.5" d="M813.296,-153.111C840.544,-169.547 897.541,-201.933 950,-219 959.509,-222.094 969.645,-224.707 979.786,-226.909"/>
<polygon fill="black" stroke="black" points="979.509,-228.639 984.763,-227.958 980.231,-225.215 979.509,-228.639"/>
</g>
<!-- topo.command.pylabplot.xy_grid -->
<g id="node16" class="node"><title>topo.command.pylabplot.xy_grid</title>
<polygon fill="none" stroke="black" stroke-width="0.5" points="1148,-210.5 976,-210.5 976,-189.5 1148,-189.5 1148,-210.5"/>
<text text-anchor="middle" x="1062" y="-197.5" font-family="Vera" font-size="10.00">topo.command.pylabplot.xy_grid</text>
</g>
<!-- topo.command.pylabplot.PylabPlotCommand&#45;&gt;topo.command.pylabplot.xy_grid -->
<g id="edge16" class="edge"><title>topo.command.pylabplot.PylabPlotCommand&#45;&gt;topo.command.pylabplot.xy_grid</title>
<path fill="none" stroke="black" stroke-width="0.5" d="M834.232,-153.082C865.102,-161.24 910.213,-172.697 950,-181 963.756,-183.871 978.53,-186.615 992.691,-189.082"/>
<polygon fill="black" stroke="black" points="992.652,-190.851 997.877,-189.977 993.248,-187.402 992.652,-190.851"/>
</g>
<!-- topo.command.pylabplot.matrixplot3dx3 -->
<g id="node18" class="node"><title>topo.command.pylabplot.matrixplot3dx3</title>
<polygon fill="none" stroke="black" stroke-width="0.5" points="1168,-172.5 956,-172.5 956,-151.5 1168,-151.5 1168,-172.5"/>
<text text-anchor="middle" x="1062" y="-159.5" font-family="Vera" font-size="10.00">topo.command.pylabplot.matrixplot3dx3</text>
</g>
<!-- topo.command.pylabplot.PylabPlotCommand&#45;&gt;topo.command.pylabplot.matrixplot3dx3 -->
<g id="edge14" class="edge"><title>topo.command.pylabplot.PylabPlotCommand&#45;&gt;topo.command.pylabplot.matrixplot3dx3</title>
<path fill="none" stroke="black" stroke-width="0.5" d="M913.618,-151.361C925.89,-152.241 938.346,-153.134 950.558,-154.01"/>
<polygon fill="black" stroke="black" points="950.662,-155.772 955.775,-154.384 950.913,-152.281 950.662,-155.772"/>
</g>
<!-- topo.command.pylabplot.overlaid_plot -->
<g id="node22" class="node"><title>topo.command.pylabplot.overlaid_plot</title>
<polygon fill="none" stroke="black" stroke-width="0.5" points="1162,-134.5 962,-134.5 962,-113.5 1162,-113.5 1162,-134.5"/>
<text text-anchor="middle" x="1062" y="-121.5" font-family="Vera" font-size="10.00">topo.command.pylabplot.overlaid_plot</text>
</g>
<!-- topo.command.pylabplot.PylabPlotCommand&#45;&gt;topo.command.pylabplot.overlaid_plot -->
<g id="edge24" class="edge"><title>topo.command.pylabplot.PylabPlotCommand&#45;&gt;topo.command.pylabplot.overlaid_plot</title>
<path fill="none" stroke="black" stroke-width="0.5" d="M913.618,-134.639C927.964,-133.61 942.562,-132.563 956.727,-131.548"/>
<polygon fill="black" stroke="black" points="957.062,-133.278 961.924,-131.175 956.812,-129.787 957.062,-133.278"/>
</g>
<!-- topo.command.pylabplot.vectorplot -->
<g id="node29" class="node"><title>topo.command.pylabplot.vectorplot</title>
<polygon fill="none" stroke="black" stroke-width="0.5" points="1156,-96.5 968,-96.5 968,-75.5 1156,-75.5 1156,-96.5"/>
<text text-anchor="middle" x="1062" y="-83.5" font-family="Vera" font-size="10.00">topo.command.pylabplot.vectorplot</text>
</g>
<!-- topo.command.pylabplot.PylabPlotCommand&#45;&gt;topo.command.pylabplot.vectorplot -->
<g id="edge26" class="edge"><title>topo.command.pylabplot.PylabPlotCommand&#45;&gt;topo.command.pylabplot.vectorplot</title>
<path fill="none" stroke="black" stroke-width="0.5" d="M834.232,-132.918C865.102,-124.76 910.213,-113.303 950,-105 963.756,-102.129 978.53,-99.3847 992.691,-96.9185"/>
<polygon fill="black" stroke="black" points="993.248,-98.5982 997.877,-96.0227 992.652,-95.1493 993.248,-98.5982"/>
</g>
<!-- topo.command.pylabplot.matrixplot3d -->
<g id="node34" class="node"><title>topo.command.pylabplot.matrixplot3d</title>
<polygon fill="none" stroke="black" stroke-width="0.5" points="1162,-58.5 962,-58.5 962,-37.5 1162,-37.5 1162,-58.5"/>
<text text-anchor="middle" x="1062" y="-45.5" font-family="Vera" font-size="10.00">topo.command.pylabplot.matrixplot3d</text>
</g>
<!-- topo.command.pylabplot.PylabPlotCommand&#45;&gt;topo.command.pylabplot.matrixplot3d -->
<g id="edge32" class="edge"><title>topo.command.pylabplot.PylabPlotCommand&#45;&gt;topo.command.pylabplot.matrixplot3d</title>
<path fill="none" stroke="black" stroke-width="0.5" d="M813.296,-132.889C840.544,-116.453 897.541,-84.067 950,-67 959.509,-63.9063 969.645,-61.2928 979.786,-59.0905"/>
<polygon fill="black" stroke="black" points="980.231,-60.7854 984.763,-58.0422 979.509,-57.3606 980.231,-60.7854"/>
</g>
<!-- topo.command.pylabplot.histogramplot -->
<g id="node40" class="node"><title>topo.command.pylabplot.histogramplot</title>
<polygon fill="none" stroke="black" stroke-width="0.5" points="1165,-20.5 959,-20.5 959,0.5 1165,0.5 1165,-20.5"/>
<text text-anchor="middle" x="1062" y="-7.5" font-family="Vera" font-size="10.00">topo.command.pylabplot.histogramplot</text>
</g>
<!-- topo.command.pylabplot.PylabPlotCommand&#45;&gt;topo.command.pylabplot.histogramplot -->
<g id="edge40" class="edge"><title>topo.command.pylabplot.PylabPlotCommand&#45;&gt;topo.command.pylabplot.histogramplot</title>
<path fill="none" stroke="black" stroke-width="0.5" d="M807.017,-132.762C829.967,-109.979 889.088,-55.0551 950,-29 956.925,-26.038 964.275,-23.5369 971.771,-21.4251"/>
<polygon fill="black" stroke="black" points="972.606,-23.0128 976.98,-20.0244 971.698,-19.6329 972.606,-23.0128"/>
</g>
<!-- topo.command.pylabplot.activityplot -->
<g id="node7" class="node"><title>topo.command.pylabplot.activityplot</title>
<polygon fill="none" stroke="black" stroke-width="0.5" points="1433,-324.5 1243,-324.5 1243,-303.5 1433,-303.5 1433,-324.5"/>
<text text-anchor="middle" x="1338" y="-311.5" font-family="Vera" font-size="10.00">topo.command.pylabplot.activityplot</text>
</g>
<!-- topo.command.pylabplot.matrixplot&#45;&gt;topo.command.pylabplot.activityplot -->
<g id="edge6" class="edge"><title>topo.command.pylabplot.matrixplot&#45;&gt;topo.command.pylabplot.activityplot</title>
<path fill="none" stroke="black" stroke-width="0.5" d="M1083.57,-248.043C1111.95,-260.851 1163.67,-282.799 1210,-295 1221.99,-298.157 1234.75,-300.835 1247.41,-303.095"/>
<polygon fill="black" stroke="black" points="1247.21,-304.837 1252.44,-303.973 1247.81,-301.389 1247.21,-304.837"/>
</g>
<!-- topo.command.pylabplot.autocorrelationplot -->
<g id="node13" class="node"><title>topo.command.pylabplot.autocorrelationplot</title>
<polygon fill="none" stroke="black" stroke-width="0.5" points="1453,-286.5 1223,-286.5 1223,-265.5 1453,-265.5 1453,-286.5"/>
<text text-anchor="middle" x="1338" y="-273.5" font-family="Vera" font-size="10.00">topo.command.pylabplot.autocorrelationplot</text>
</g>
<!-- topo.command.pylabplot.matrixplot&#45;&gt;topo.command.pylabplot.autocorrelationplot -->
<g id="edge10" class="edge"><title>topo.command.pylabplot.matrixplot&#45;&gt;topo.command.pylabplot.autocorrelationplot</title>
<path fill="none" stroke="black" stroke-width="0.5" d="M1134.88,-248.034C1173.39,-253.337 1220.69,-259.849 1259.96,-265.255"/>
<polygon fill="black" stroke="black" points="1260,-267.028 1265.19,-265.976 1260.48,-263.56 1260,-267.028"/>
</g>
<!-- topo.command.pylabplot.fftplot -->
<g id="node26" class="node"><title>topo.command.pylabplot.fftplot</title>
<polygon fill="none" stroke="black" stroke-width="0.5" points="1421,-248.5 1255,-248.5 1255,-227.5 1421,-227.5 1421,-248.5"/>
<text text-anchor="middle" x="1338" y="-235.5" font-family="Vera" font-size="10.00">topo.command.pylabplot.fftplot</text>
</g>
<!-- topo.command.pylabplot.matrixplot&#45;&gt;topo.command.pylabplot.fftplot -->
<g id="edge22" class="edge"><title>topo.command.pylabplot.matrixplot&#45;&gt;topo.command.pylabplot.fftplot</title>
<path fill="none" stroke="black" stroke-width="0.5" d="M1156.21,-238C1186.33,-238 1219.55,-238 1249.26,-238"/>
<polygon fill="black" stroke="black" points="1249.38,-239.75 1254.38,-238 1249.38,-236.25 1249.38,-239.75"/>
</g>
<!-- topo.command.pylabplot.gradientplot -->
<g id="node36" class="node"><title>topo.command.pylabplot.gradientplot</title>
<polygon fill="none" stroke="black" stroke-width="0.5" points="1436,-210.5 1240,-210.5 1240,-189.5 1436,-189.5 1436,-210.5"/>
<text text-anchor="middle" x="1338" y="-197.5" font-family="Vera" font-size="10.00">topo.command.pylabplot.gradientplot</text>
</g>
<!-- topo.command.pylabplot.matrixplot&#45;&gt;topo.command.pylabplot.gradientplot -->
<g id="edge34" class="edge"><title>topo.command.pylabplot.matrixplot&#45;&gt;topo.command.pylabplot.gradientplot</title>
<path fill="none" stroke="black" stroke-width="0.5" d="M1134.88,-227.966C1173.39,-222.663 1220.69,-216.151 1259.96,-210.745"/>
<polygon fill="black" stroke="black" points="1260.48,-212.44 1265.19,-210.024 1260,-208.972 1260.48,-212.44"/>
</g>
<!-- topo.command.pylabplot.cyclic_tuning_curve -->
<g id="node10" class="node"><title>topo.command.pylabplot.cyclic_tuning_curve</title>
<polygon fill="none" stroke="black" stroke-width="0.5" points="1734,-400.5 1502,-400.5 1502,-379.5 1734,-379.5 1734,-400.5"/>
<text text-anchor="middle" x="1618" y="-387.5" font-family="Vera" font-size="10.00">topo.command.pylabplot.cyclic_tuning_curve</text>
</g>
<!-- topo.command.pylabplot.cyclic_unit_tuning_curve&#45;&gt;topo.command.pylabplot.cyclic_tuning_curve -->
<g id="edge8" class="edge"><title>topo.command.pylabplot.cyclic_unit_tuning_curve&#45;&gt;topo.command.pylabplot.cyclic_tuning_curve</title>
<path fill="none" stroke="black" stroke-width="0.5" d="M1465.71,-390C1476,-390 1486.37,-390 1496.62,-390"/>
<polygon fill="black" stroke="black" points="1496.63,-391.75 1501.63,-390 1496.63,-388.25 1496.63,-391.75"/>
</g>
<!-- topo.command.pylabplot.topographic_grid -->
<g id="node15" class="node"><title>topo.command.pylabplot.topographic_grid</title>
<polygon fill="none" stroke="black" stroke-width="0.5" points="1448,-172.5 1228,-172.5 1228,-151.5 1448,-151.5 1448,-172.5"/>
<text text-anchor="middle" x="1338" y="-159.5" font-family="Vera" font-size="10.00">topo.command.pylabplot.topographic_grid</text>
</g>
<!-- topo.command.pylabplot.xy_grid&#45;&gt;topo.command.pylabplot.topographic_grid -->
<g id="edge12" class="edge"><title>topo.command.pylabplot.xy_grid&#45;&gt;topo.command.pylabplot.topographic_grid</title>
<path fill="none" stroke="black" stroke-width="0.5" d="M1134.88,-189.966C1173.39,-184.663 1220.69,-178.151 1259.96,-172.745"/>
<polygon fill="black" stroke="black" points="1260.48,-174.44 1265.19,-172.024 1260,-170.972 1260.48,-174.44"/>
</g>
<!-- topo.command.pylabplot.overlaid_plots -->
<g id="node21" class="node"><title>topo.command.pylabplot.overlaid_plots</title>
<polygon fill="none" stroke="black" stroke-width="0.5" points="1441,-134.5 1235,-134.5 1235,-113.5 1441,-113.5 1441,-134.5"/>
<text text-anchor="middle" x="1338" y="-121.5" font-family="Vera" font-size="10.00">topo.command.pylabplot.overlaid_plots</text>
</g>
<!-- topo.command.pylabplot.overlaid_plot&#45;&gt;topo.command.pylabplot.overlaid_plots -->
<g id="edge18" class="edge"><title>topo.command.pylabplot.overlaid_plot&#45;&gt;topo.command.pylabplot.overlaid_plots</title>
<path fill="none" stroke="black" stroke-width="0.5" d="M1162.03,-124C1183.98,-124 1207.31,-124 1229.57,-124"/>
<polygon fill="black" stroke="black" points="1229.6,-125.75 1234.6,-124 1229.6,-122.25 1229.6,-125.75"/>
</g>
<!-- topo.command.Command&#45;&gt;topo.command.pylabplot.PylabPlotCommand -->
<g id="edge36" class="edge"><title>topo.command.Command&#45;&gt;topo.command.pylabplot.PylabPlotCommand</title>
<path fill="none" stroke="black" stroke-width="0.5" d="M643.501,-143C653.767,-143 664.56,-143 675.468,-143"/>
<polygon fill="black" stroke="black" points="675.486,-144.75 680.486,-143 675.486,-141.25 675.486,-144.75"/>
</g>
</g>
</svg>
