<?xml version="1.0" encoding="UTF-8" standalone="no"?>
<!DOCTYPE svg PUBLIC "-//W3C//DTD SVG 1.1//EN"
 "http://www.w3.org/Graphics/SVG/1.1/DTD/svg11.dtd">
<!-- Generated by graphviz version 2.26.3 (20100126.1600)
 -->
<!-- Title: inheritancef4cea304dd Pages: 1 -->
<svg width="1124pt" height="294pt"
 viewBox="0.00 0.00 1124.00 294.00" xmlns="http://www.w3.org/2000/svg" xmlns:xlink="http://www.w3.org/1999/xlink">
<g id="graph1" class="graph" transform="scale(1 1) rotate(0) translate(4 290)">
<title>inheritancef4cea304dd</title>
<polygon fill="white" stroke="white" points="-4,5 -4,-290 1121,-290 1121,5 -4,5"/>
<!-- topo.base.cf.CFPLF_Identity -->
<g id="node1" class="node"><title>topo.base.cf.CFPLF_Identity</title>
<polygon fill="none" stroke="black" stroke-width="0.5" points="658,-286.5 512,-286.5 512,-265.5 658,-265.5 658,-286.5"/>
<text text-anchor="middle" x="585" y="-273.5" font-family="Vera" font-size="10.00">topo.base.cf.CFPLF_Identity</text>
</g>
<!-- topo.base.cf.CFPLearningFn -->
<g id="node2" class="node"><title>topo.base.cf.CFPLearningFn</title>
<polygon fill="none" stroke="black" stroke-width="0.5" points="422,-248.5 274,-248.5 274,-227.5 422,-227.5 422,-248.5"/>
<text text-anchor="middle" x="348" y="-235.5" font-family="Vera" font-size="10.00">topo.base.cf.CFPLearningFn</text>
</g>
<!-- topo.base.cf.CFPLearningFn&#45;&gt;topo.base.cf.CFPLF_Identity -->
<g id="edge2" class="edge"><title>topo.base.cf.CFPLearningFn&#45;&gt;topo.base.cf.CFPLF_Identity</title>
<path fill="none" stroke="black" stroke-width="0.5" d="M410.579,-248.034C443.384,-253.294 483.607,-259.743 517.157,-265.122"/>
<polygon fill="black" stroke="black" points="517.268,-266.912 522.482,-265.976 517.822,-263.456 517.268,-266.912"/>
</g>
<!-- topo.base.cf.CFPLF_Plugin -->
<g id="node35" class="node"><title>topo.base.cf.CFPLF_Plugin</title>
<polygon fill="none" stroke="black" stroke-width="0.5" points="655,-248.5 515,-248.5 515,-227.5 655,-227.5 655,-248.5"/>
<text text-anchor="middle" x="585" y="-235.5" font-family="Vera" font-size="10.00">topo.base.cf.CFPLF_Plugin</text>
</g>
<!-- topo.base.cf.CFPLearningFn&#45;&gt;topo.base.cf.CFPLF_Plugin -->
<g id="edge30" class="edge"><title>topo.base.cf.CFPLearningFn&#45;&gt;topo.base.cf.CFPLF_Plugin</title>
<path fill="none" stroke="black" stroke-width="0.5" d="M422.663,-238C450.381,-238 481.824,-238 509.606,-238"/>
<polygon fill="black" stroke="black" points="509.75,-239.75 514.75,-238 509.75,-236.25 509.75,-239.75"/>
</g>
<!-- topo.base.cf.CFPRF_Plugin -->
<g id="node4" class="node"><title>topo.base.cf.CFPRF_Plugin</title>
<polygon fill="none" stroke="black" stroke-width="0.5" points="655,-210.5 515,-210.5 515,-189.5 655,-189.5 655,-210.5"/>
<text text-anchor="middle" x="585" y="-197.5" font-family="Vera" font-size="10.00">topo.base.cf.CFPRF_Plugin</text>
</g>
<!-- topo.base.cf.CFPResponseFn -->
<g id="node5" class="node"><title>topo.base.cf.CFPResponseFn</title>
<polygon fill="none" stroke="black" stroke-width="0.5" points="424,-210.5 272,-210.5 272,-189.5 424,-189.5 424,-210.5"/>
<text text-anchor="middle" x="348" y="-197.5" font-family="Vera" font-size="10.00">topo.base.cf.CFPResponseFn</text>
</g>
<!-- topo.base.cf.CFPResponseFn&#45;&gt;topo.base.cf.CFPRF_Plugin -->
<g id="edge4" class="edge"><title>topo.base.cf.CFPResponseFn&#45;&gt;topo.base.cf.CFPRF_Plugin</title>
<path fill="none" stroke="black" stroke-width="0.5" d="M424.62,-200C451.738,-200 482.215,-200 509.259,-200"/>
<polygon fill="black" stroke="black" points="509.268,-201.75 514.268,-200 509.268,-198.25 509.268,-201.75"/>
</g>
<!-- topo.base.cf.CFProjection -->
<g id="node7" class="node"><title>topo.base.cf.CFProjection</title>
<polygon fill="none" stroke="black" stroke-width="0.5" points="869,-96.5 733,-96.5 733,-75.5 869,-75.5 869,-96.5"/>
<text text-anchor="middle" x="801" y="-83.5" font-family="Vera" font-size="10.00">topo.base.cf.CFProjection</text>
</g>
<!-- topo.base.cf.ResizableCFProjection -->
<g id="node27" class="node"><title>topo.base.cf.ResizableCFProjection</title>
<polygon fill="none" stroke="black" stroke-width="0.5" points="1116,-96.5 934,-96.5 934,-75.5 1116,-75.5 1116,-96.5"/>
<text text-anchor="middle" x="1025" y="-83.5" font-family="Vera" font-size="10.00">topo.base.cf.ResizableCFProjection</text>
</g>
<!-- topo.base.cf.CFProjection&#45;&gt;topo.base.cf.ResizableCFProjection -->
<g id="edge22" class="edge"><title>topo.base.cf.CFProjection&#45;&gt;topo.base.cf.ResizableCFProjection</title>
<path fill="none" stroke="black" stroke-width="0.5" d="M869.73,-86C888.343,-86 908.841,-86 928.67,-86"/>
<polygon fill="black" stroke="black" points="928.696,-87.7501 933.696,-86 928.696,-84.2501 928.696,-87.7501"/>
</g>
<!-- topo.base.projection.Projection -->
<g id="node8" class="node"><title>topo.base.projection.Projection</title>
<polygon fill="none" stroke="black" stroke-width="0.5" points="667,-96.5 503,-96.5 503,-75.5 667,-75.5 667,-96.5"/>
<text text-anchor="middle" x="585" y="-83.5" font-family="Vera" font-size="10.00">topo.base.projection.Projection</text>
</g>
<!-- topo.base.projection.Projection&#45;&gt;topo.base.cf.CFProjection -->
<g id="edge6" class="edge"><title>topo.base.projection.Projection&#45;&gt;topo.base.cf.CFProjection</title>
<path fill="none" stroke="black" stroke-width="0.5" d="M667.585,-86C687.071,-86 707.728,-86 726.817,-86"/>
<polygon fill="black" stroke="black" points="727.157,-87.7501 732.157,-86 727.157,-84.2501 727.157,-87.7501"/>
</g>
<!-- topo.base.sheet.Sheet -->
<g id="node10" class="node"><title>topo.base.sheet.Sheet</title>
<polygon fill="none" stroke="black" stroke-width="0.5" points="648,-153.5 522,-153.5 522,-132.5 648,-132.5 648,-153.5"/>
<text text-anchor="middle" x="585" y="-140.5" font-family="Vera" font-size="10.00">topo.base.sheet.Sheet</text>
</g>
<!-- topo.base.projection.ProjectionSheet -->
<g id="node20" class="node"><title>topo.base.projection.ProjectionSheet</title>
<polygon fill="none" stroke="black" stroke-width="0.5" points="898,-153.5 704,-153.5 704,-132.5 898,-132.5 898,-153.5"/>
<text text-anchor="middle" x="801" y="-140.5" font-family="Vera" font-size="10.00">topo.base.projection.ProjectionSheet</text>
</g>
<!-- topo.base.sheet.Sheet&#45;&gt;topo.base.projection.ProjectionSheet -->
<g id="edge34" class="edge"><title>topo.base.sheet.Sheet&#45;&gt;topo.base.projection.ProjectionSheet</title>
<path fill="none" stroke="black" stroke-width="0.5" d="M648.057,-143C663.856,-143 681.216,-143 698.394,-143"/>
<polygon fill="black" stroke="black" points="698.717,-144.75 703.717,-143 698.717,-141.25 698.717,-144.75"/>
</g>
<!-- topo.base.simulation.EventProcessor -->
<g id="node11" class="node"><title>topo.base.simulation.EventProcessor</title>
<polygon fill="none" stroke="black" stroke-width="0.5" points="445,-172.5 251,-172.5 251,-151.5 445,-151.5 445,-172.5"/>
<text text-anchor="middle" x="348" y="-159.5" font-family="Vera" font-size="10.00">topo.base.simulation.EventProcessor</text>
</g>
<!-- topo.base.simulation.EventProcessor&#45;&gt;topo.base.sheet.Sheet -->
<g id="edge8" class="edge"><title>topo.base.simulation.EventProcessor&#45;&gt;topo.base.sheet.Sheet</title>
<path fill="none" stroke="black" stroke-width="0.5" d="M445.081,-154.217C469.206,-152.283 494.557,-150.251 516.952,-148.455"/>
<polygon fill="black" stroke="black" points="517.137,-150.196 521.981,-148.052 516.857,-146.707 517.137,-150.196"/>
</g>
<!-- imagen.sheetcoords.SheetCoordinateSystem -->
<g id="node13" class="node"><title>imagen.sheetcoords.SheetCoordinateSystem</title>
<polygon fill="none" stroke="black" stroke-width="0.5" points="466,-134.5 230,-134.5 230,-113.5 466,-113.5 466,-134.5"/>
<text text-anchor="middle" x="348" y="-121.5" font-family="Vera" font-size="10.00">imagen.sheetcoords.SheetCoordinateSystem</text>
</g>
<!-- imagen.sheetcoords.SheetCoordinateSystem&#45;&gt;topo.base.sheet.Sheet -->
<g id="edge10" class="edge"><title>imagen.sheetcoords.SheetCoordinateSystem&#45;&gt;topo.base.sheet.Sheet</title>
<path fill="none" stroke="black" stroke-width="0.5" d="M466.153,-133.472C483.445,-134.858 500.748,-136.246 516.587,-137.515"/>
<polygon fill="black" stroke="black" points="516.777,-139.286 521.901,-137.941 517.056,-135.797 516.777,-139.286"/>
</g>
<!-- param.parameterized.Parameterized -->
<g id="node15" class="node"><title>param.parameterized.Parameterized</title>
<polygon fill="none" stroke="black" stroke-width="0.5" points="194,-172.5 5.68434e-14,-172.5 0,-151.5 194,-151.5 194,-172.5"/>
<text text-anchor="middle" x="97" y="-159.5" font-family="Vera" font-size="10.00">param.parameterized.Parameterized</text>
</g>
<!-- param.parameterized.Parameterized&#45;&gt;topo.base.cf.CFPLearningFn -->
<g id="edge26" class="edge"><title>param.parameterized.Parameterized&#45;&gt;topo.base.cf.CFPLearningFn</title>
<path fill="none" stroke="black" stroke-width="0.5" d="M172.778,-172.022C180.177,-174.411 187.384,-177.361 194,-181 214.384,-192.213 209.43,-208.133 230,-219 241.765,-225.215 255.04,-229.509 268.33,-232.454"/>
<polygon fill="black" stroke="black" points="267.972,-234.167 273.224,-233.479 268.689,-230.741 267.972,-234.167"/>
</g>
<!-- param.parameterized.Parameterized&#45;&gt;topo.base.cf.CFPResponseFn -->
<g id="edge12" class="edge"><title>param.parameterized.Parameterized&#45;&gt;topo.base.cf.CFPResponseFn</title>
<path fill="none" stroke="black" stroke-width="0.5" d="M163.276,-172.034C198.161,-177.315 240.968,-183.796 276.587,-189.189"/>
<polygon fill="black" stroke="black" points="276.583,-190.958 281.789,-189.976 277.107,-187.497 276.583,-190.958"/>
</g>
<!-- param.parameterized.Parameterized&#45;&gt;topo.base.simulation.EventProcessor -->
<g id="edge28" class="edge"><title>param.parameterized.Parameterized&#45;&gt;topo.base.simulation.EventProcessor</title>
<path fill="none" stroke="black" stroke-width="0.5" d="M194.043,-162C210.921,-162 228.523,-162 245.54,-162"/>
<polygon fill="black" stroke="black" points="245.801,-163.75 250.801,-162 245.801,-160.25 245.801,-163.75"/>
</g>
<!-- topo.base.simulation.EPConnection -->
<g id="node17" class="node"><title>topo.base.simulation.EPConnection</title>
<polygon fill="none" stroke="black" stroke-width="0.5" points="441,-96.5 255,-96.5 255,-75.5 441,-75.5 441,-96.5"/>
<text text-anchor="middle" x="348" y="-83.5" font-family="Vera" font-size="10.00">topo.base.simulation.EPConnection</text>
</g>
<!-- param.parameterized.Parameterized&#45;&gt;topo.base.simulation.EPConnection -->
<g id="edge20" class="edge"><title>param.parameterized.Parameterized&#45;&gt;topo.base.simulation.EPConnection</title>
<path fill="none" stroke="black" stroke-width="0.5" d="M116.274,-151.949C141.663,-139.132 188.018,-117.175 230,-105 240.715,-101.893 252.134,-99.2523 263.489,-97.0201"/>
<polygon fill="black" stroke="black" points="264.117,-98.6817 268.698,-96.0229 263.459,-95.2441 264.117,-98.6817"/>
</g>
<!-- topo.base.cf.CFPOutputFn -->
<g id="node23" class="node"><title>topo.base.cf.CFPOutputFn</title>
<polygon fill="none" stroke="black" stroke-width="0.5" points="418,-58.5 278,-58.5 278,-37.5 418,-37.5 418,-58.5"/>
<text text-anchor="middle" x="348" y="-45.5" font-family="Vera" font-size="10.00">topo.base.cf.CFPOutputFn</text>
</g>
<!-- param.parameterized.Parameterized&#45;&gt;topo.base.cf.CFPOutputFn -->
<g id="edge32" class="edge"><title>param.parameterized.Parameterized&#45;&gt;topo.base.cf.CFPOutputFn</title>
<path fill="none" stroke="black" stroke-width="0.5" d="M107.338,-151.972C128.441,-132.145 178.821,-88.0342 230,-67 243.45,-61.4723 258.378,-57.5472 272.968,-54.7614"/>
<polygon fill="black" stroke="black" points="273.296,-56.4805 277.9,-53.8597 272.667,-53.0375 273.296,-56.4805"/>
</g>
<!-- topo.base.simulation.EPConnection&#45;&gt;topo.base.projection.Projection -->
<g id="edge14" class="edge"><title>topo.base.simulation.EPConnection&#45;&gt;topo.base.projection.Projection</title>
<path fill="none" stroke="black" stroke-width="0.5" d="M441.328,-86C459.681,-86 478.878,-86 497.046,-86"/>
<polygon fill="black" stroke="black" points="497.142,-87.7501 502.142,-86 497.142,-84.2501 497.142,-87.7501"/>
</g>
<!-- topo.base.cf.CFSheet -->
<g id="node19" class="node"><title>topo.base.cf.CFSheet</title>
<polygon fill="none" stroke="black" stroke-width="0.5" points="1084,-153.5 966,-153.5 966,-132.5 1084,-132.5 1084,-153.5"/>
<text text-anchor="middle" x="1025" y="-140.5" font-family="Vera" font-size="10.00">topo.base.cf.CFSheet</text>
</g>
<!-- topo.base.projection.ProjectionSheet&#45;&gt;topo.base.cf.CFSheet -->
<g id="edge16" class="edge"><title>topo.base.projection.ProjectionSheet&#45;&gt;topo.base.cf.CFSheet</title>
<path fill="none" stroke="black" stroke-width="0.5" d="M898.272,-143C919.101,-143 940.622,-143 959.885,-143"/>
<polygon fill="black" stroke="black" points="960.255,-144.75 965.255,-143 960.255,-141.25 960.255,-144.75"/>
</g>
<!-- topo.base.cf.CFPOF_Identity -->
<g id="node22" class="node"><title>topo.base.cf.CFPOF_Identity</title>
<polygon fill="none" stroke="black" stroke-width="0.5" points="659,-58.5 511,-58.5 511,-37.5 659,-37.5 659,-58.5"/>
<text text-anchor="middle" x="585" y="-45.5" font-family="Vera" font-size="10.00">topo.base.cf.CFPOF_Identity</text>
</g>
<!-- topo.base.cf.CFPOutputFn&#45;&gt;topo.base.cf.CFPOF_Identity -->
<g id="edge18" class="edge"><title>topo.base.cf.CFPOutputFn&#45;&gt;topo.base.cf.CFPOF_Identity</title>
<path fill="none" stroke="black" stroke-width="0.5" d="M418.146,-48C445.516,-48 477.04,-48 505.266,-48"/>
<polygon fill="black" stroke="black" points="505.496,-49.7501 510.496,-48 505.496,-46.2501 505.496,-49.7501"/>
</g>
<!-- topo.base.cf.CFPOF_Plugin -->
<g id="node29" class="node"><title>topo.base.cf.CFPOF_Plugin</title>
<polygon fill="none" stroke="black" stroke-width="0.5" points="656,-20.5 514,-20.5 514,0.5 656,0.5 656,-20.5"/>
<text text-anchor="middle" x="585" y="-7.5" font-family="Vera" font-size="10.00">topo.base.cf.CFPOF_Plugin</text>
</g>
<!-- topo.base.cf.CFPOutputFn&#45;&gt;topo.base.cf.CFPOF_Plugin -->
<g id="edge24" class="edge"><title>topo.base.cf.CFPOutputFn&#45;&gt;topo.base.cf.CFPOF_Plugin</title>
<path fill="none" stroke="black" stroke-width="0.5" d="M410.579,-37.9662C443.384,-32.7064 483.607,-26.2571 517.157,-20.8779"/>
<polygon fill="black" stroke="black" points="517.822,-22.5436 522.482,-20.024 517.268,-19.0878 517.822,-22.5436"/>
</g>
<!-- topo.base.cf.NullCFError -->
<g id="node25" class="node"><title>topo.base.cf.NullCFError</title>
<polygon fill="none" stroke="black" stroke-width="0.5" points="162,-210.5 32,-210.5 32,-189.5 162,-189.5 162,-210.5"/>
<text text-anchor="middle" x="97" y="-197.5" font-family="Vera" font-size="10.00">topo.base.cf.NullCFError</text>
</g>
<!-- topo.base.cf.CFIter -->
<g id="node31" class="node"><title>topo.base.cf.CFIter</title>
<polygon fill="none" stroke="black" stroke-width="0.5" points="150,-248.5 44,-248.5 44,-227.5 150,-227.5 150,-248.5"/>
<text text-anchor="middle" x="97" y="-235.5" font-family="Vera" font-size="10.00">topo.base.cf.CFIter</text>
</g>
<!-- topo.base.cf.ConnectionField -->
<g id="node32" class="node"><title>topo.base.cf.ConnectionField</title>
<polygon fill="none" stroke="black" stroke-width="0.5" points="173,-286.5 21,-286.5 21,-265.5 173,-265.5 173,-286.5"/>
<text text-anchor="middle" x="97" y="-273.5" font-family="Vera" font-size="10.00">topo.base.cf.ConnectionField</text>
</g>
</g>
</svg>
