<?xml version="1.0" encoding="UTF-8" standalone="no"?>
<!DOCTYPE svg PUBLIC "-//W3C//DTD SVG 1.1//EN"
 "http://www.w3.org/Graphics/SVG/1.1/DTD/svg11.dtd">
<!-- Generated by graphviz version 2.26.3 (20100126.1600)
 -->
<!-- Title: inheritance489beebb75 Pages: 1 -->
<svg width="796pt" height="560pt"
 viewBox="0.00 0.00 796.00 560.00" xmlns="http://www.w3.org/2000/svg" xmlns:xlink="http://www.w3.org/1999/xlink">
<g id="graph1" class="graph" transform="scale(1 1) rotate(0) translate(4 556)">
<title>inheritance489beebb75</title>
<polygon fill="white" stroke="white" points="-4,5 -4,-556 793,-556 793,5 -4,5"/>
<!-- paramtk.tilewrapper.Widget -->
<g id="node1" class="node"><title>paramtk.tilewrapper.Widget</title>
<polygon fill="none" stroke="black" stroke-width="0.5" points="575,-262.5 429,-262.5 429,-241.5 575,-241.5 575,-262.5"/>
<text text-anchor="middle" x="502" y="-249.5" font-family="Vera" font-size="10.00">paramtk.tilewrapper.Widget</text>
</g>
<!-- paramtk.tilewrapper.Button -->
<g id="node6" class="node"><title>paramtk.tilewrapper.Button</title>
<polygon fill="none" stroke="black" stroke-width="0.5" points="773,-438.5 627,-438.5 627,-417.5 773,-417.5 773,-438.5"/>
<text text-anchor="middle" x="700" y="-425.5" font-family="Vera" font-size="10.00">paramtk.tilewrapper.Button</text>
</g>
<!-- paramtk.tilewrapper.Widget&#45;&gt;paramtk.tilewrapper.Button -->
<g id="edge6" class="edge"><title>paramtk.tilewrapper.Widget&#45;&gt;paramtk.tilewrapper.Button</title>
<path fill="none" stroke="black" stroke-width="0.5" d="M539.502,-262.108C552.643,-267.323 566.481,-274.979 576,-286 613.233,-329.106 570.298,-370.201 612,-409 614.911,-411.708 618.112,-414.066 621.517,-416.116"/>
<polygon fill="black" stroke="black" points="621.053,-417.857 626.279,-418.724 622.735,-414.787 621.053,-417.857"/>
</g>
<!-- paramtk.tilewrapper.Frame -->
<g id="node10" class="node"><title>paramtk.tilewrapper.Frame</title>
<polygon fill="none" stroke="black" stroke-width="0.5" points="772,-400.5 628,-400.5 628,-379.5 772,-379.5 772,-400.5"/>
<text text-anchor="middle" x="700" y="-387.5" font-family="Vera" font-size="10.00">paramtk.tilewrapper.Frame</text>
</g>
<!-- paramtk.tilewrapper.Widget&#45;&gt;paramtk.tilewrapper.Frame -->
<g id="edge10" class="edge"><title>paramtk.tilewrapper.Widget&#45;&gt;paramtk.tilewrapper.Frame</title>
<path fill="none" stroke="black" stroke-width="0.5" d="M537.317,-262.113C550.809,-267.422 565.465,-275.143 576,-286 604.571,-315.443 580.395,-344.841 612,-371 615.289,-373.722 618.877,-376.079 622.664,-378.119"/>
<polygon fill="black" stroke="black" points="621.938,-379.713 627.195,-380.37 623.496,-376.578 621.938,-379.713"/>
</g>
<!-- paramtk.tilewrapper.Checkbutton -->
<g id="node14" class="node"><title>paramtk.tilewrapper.Checkbutton</title>
<polygon fill="none" stroke="black" stroke-width="0.5" points="788,-210.5 612,-210.5 612,-189.5 788,-189.5 788,-210.5"/>
<text text-anchor="middle" x="700" y="-197.5" font-family="Vera" font-size="10.00">paramtk.tilewrapper.Checkbutton</text>
</g>
<!-- paramtk.tilewrapper.Widget&#45;&gt;paramtk.tilewrapper.Checkbutton -->
<g id="edge14" class="edge"><title>paramtk.tilewrapper.Widget&#45;&gt;paramtk.tilewrapper.Checkbutton</title>
<path fill="none" stroke="black" stroke-width="0.5" d="M533.11,-241.953C555.038,-235.047 585.162,-225.912 612,-219 622.632,-216.262 634.054,-213.596 645.033,-211.169"/>
<polygon fill="black" stroke="black" points="645.533,-212.851 650.042,-210.071 644.784,-209.432 645.533,-212.851"/>
</g>
<!-- paramtk.tilewrapper.LabelFrame -->
<g id="node18" class="node"><title>paramtk.tilewrapper.LabelFrame</title>
<polygon fill="none" stroke="black" stroke-width="0.5" points="785,-172.5 615,-172.5 615,-151.5 785,-151.5 785,-172.5"/>
<text text-anchor="middle" x="700" y="-159.5" font-family="Vera" font-size="10.00">paramtk.tilewrapper.LabelFrame</text>
</g>
<!-- paramtk.tilewrapper.Widget&#45;&gt;paramtk.tilewrapper.LabelFrame -->
<g id="edge18" class="edge"><title>paramtk.tilewrapper.Widget&#45;&gt;paramtk.tilewrapper.LabelFrame</title>
<path fill="none" stroke="black" stroke-width="0.5" d="M543.536,-241.929C554.696,-238.053 566.337,-232.854 576,-226 596.891,-211.182 590.223,-194.482 612,-181 616.385,-178.285 621.102,-175.954 625.993,-173.954"/>
<polygon fill="black" stroke="black" points="626.892,-175.484 630.935,-172.061 625.64,-172.215 626.892,-175.484"/>
</g>
<!-- paramtk.tilewrapper.Combobox -->
<g id="node26" class="node"><title>paramtk.tilewrapper.Combobox</title>
<polygon fill="none" stroke="black" stroke-width="0.5" points="783,-552.5 617,-552.5 617,-531.5 783,-531.5 783,-552.5"/>
<text text-anchor="middle" x="700" y="-539.5" font-family="Vera" font-size="10.00">paramtk.tilewrapper.Combobox</text>
</g>
<!-- paramtk.tilewrapper.Widget&#45;&gt;paramtk.tilewrapper.Combobox -->
<g id="edge26" class="edge"><title>paramtk.tilewrapper.Widget&#45;&gt;paramtk.tilewrapper.Combobox</title>
<path fill="none" stroke="black" stroke-width="0.5" d="M541.859,-262.062C554.606,-267.201 567.58,-274.819 576,-286 640.089,-371.11 539.031,-445.369 612,-523 614.074,-525.207 616.338,-527.188 618.752,-528.966"/>
<polygon fill="black" stroke="black" points="618.115,-530.643 623.249,-531.95 620.051,-527.727 618.115,-530.643"/>
</g>
<!-- paramtk.tilewrapper.Entry -->
<g id="node29" class="node"><title>paramtk.tilewrapper.Entry</title>
<polygon fill="none" stroke="black" stroke-width="0.5" points="770,-514.5 630,-514.5 630,-493.5 770,-493.5 770,-514.5"/>
<text text-anchor="middle" x="700" y="-501.5" font-family="Vera" font-size="10.00">paramtk.tilewrapper.Entry</text>
</g>
<!-- paramtk.tilewrapper.Widget&#45;&gt;paramtk.tilewrapper.Entry -->
<g id="edge30" class="edge"><title>paramtk.tilewrapper.Widget&#45;&gt;paramtk.tilewrapper.Entry</title>
<path fill="none" stroke="black" stroke-width="0.5" d="M541.296,-262.042C554.15,-267.195 567.337,-274.827 576,-286 631.074,-357.03 549.524,-420.384 612,-485 615.826,-488.957 620.265,-492.185 625.076,-494.81"/>
<polygon fill="black" stroke="black" points="624.335,-496.396 629.592,-497.054 625.893,-493.262 624.335,-496.396"/>
</g>
<!-- paramtk.tilewrapper.Label -->
<g id="node32" class="node"><title>paramtk.tilewrapper.Label</title>
<polygon fill="none" stroke="black" stroke-width="0.5" points="770,-134.5 630,-134.5 630,-113.5 770,-113.5 770,-134.5"/>
<text text-anchor="middle" x="700" y="-121.5" font-family="Vera" font-size="10.00">paramtk.tilewrapper.Label</text>
</g>
<!-- paramtk.tilewrapper.Widget&#45;&gt;paramtk.tilewrapper.Label -->
<g id="edge34" class="edge"><title>paramtk.tilewrapper.Widget&#45;&gt;paramtk.tilewrapper.Label</title>
<path fill="none" stroke="black" stroke-width="0.5" d="M549.073,-241.973C558.827,-238.209 568.426,-233.052 576,-226 605.429,-198.6 580.915,-168.505 612,-143 615.987,-139.728 620.409,-136.985 625.087,-134.687"/>
<polygon fill="black" stroke="black" points="626.01,-136.19 629.844,-132.535 624.567,-133.001 626.01,-136.19"/>
</g>
<!-- paramtk.tilewrapper.Menubutton -->
<g id="node44" class="node"><title>paramtk.tilewrapper.Menubutton</title>
<polygon fill="none" stroke="black" stroke-width="0.5" points="786,-96.5 614,-96.5 614,-75.5 786,-75.5 786,-96.5"/>
<text text-anchor="middle" x="700" y="-83.5" font-family="Vera" font-size="10.00">paramtk.tilewrapper.Menubutton</text>
</g>
<!-- paramtk.tilewrapper.Widget&#45;&gt;paramtk.tilewrapper.Menubutton -->
<g id="edge48" class="edge"><title>paramtk.tilewrapper.Widget&#45;&gt;paramtk.tilewrapper.Menubutton</title>
<path fill="none" stroke="black" stroke-width="0.5" d="M551.635,-241.859C560.671,-238.118 569.332,-233.001 576,-226 614.696,-185.372 570.837,-143.127 612,-105 614.483,-102.7 617.176,-100.653 620.025,-98.8328"/>
<polygon fill="black" stroke="black" points="621.183,-100.184 624.624,-96.1555 619.422,-97.159 621.183,-100.184"/>
</g>
<!-- paramtk.tilewrapper.Notebook -->
<g id="node48" class="node"><title>paramtk.tilewrapper.Notebook</title>
<polygon fill="none" stroke="black" stroke-width="0.5" points="780,-362.5 620,-362.5 620,-341.5 780,-341.5 780,-362.5"/>
<text text-anchor="middle" x="700" y="-349.5" font-family="Vera" font-size="10.00">paramtk.tilewrapper.Notebook</text>
</g>
<!-- paramtk.tilewrapper.Widget&#45;&gt;paramtk.tilewrapper.Notebook -->
<g id="edge52" class="edge"><title>paramtk.tilewrapper.Widget&#45;&gt;paramtk.tilewrapper.Notebook</title>
<path fill="none" stroke="black" stroke-width="0.5" d="M532.326,-262.056C546.507,-267.688 563.075,-275.677 576,-286 596.56,-302.421 589.775,-318.914 612,-333 616.258,-335.698 620.839,-338.018 625.595,-340.013"/>
<polygon fill="black" stroke="black" points="625.11,-341.702 630.404,-341.9 626.389,-338.444 625.11,-341.702"/>
</g>
<!-- paramtk.tilewrapper.Paned -->
<g id="node50" class="node"><title>paramtk.tilewrapper.Paned</title>
<polygon fill="none" stroke="black" stroke-width="0.5" points="772,-324.5 628,-324.5 628,-303.5 772,-303.5 772,-324.5"/>
<text text-anchor="middle" x="700" y="-311.5" font-family="Vera" font-size="10.00">paramtk.tilewrapper.Paned</text>
</g>
<!-- paramtk.tilewrapper.Widget&#45;&gt;paramtk.tilewrapper.Paned -->
<g id="edge54" class="edge"><title>paramtk.tilewrapper.Widget&#45;&gt;paramtk.tilewrapper.Paned</title>
<path fill="none" stroke="black" stroke-width="0.5" d="M524.799,-262.152C546.788,-271.644 581.177,-285.713 612,-295 621.517,-297.867 631.736,-300.483 641.721,-302.794"/>
<polygon fill="black" stroke="black" points="641.336,-304.501 646.6,-303.904 642.113,-301.089 641.336,-304.501"/>
</g>
<!-- paramtk.tilewrapper.Progressbar -->
<g id="node53" class="node"><title>paramtk.tilewrapper.Progressbar</title>
<polygon fill="none" stroke="black" stroke-width="0.5" points="786,-286.5 614,-286.5 614,-265.5 786,-265.5 786,-286.5"/>
<text text-anchor="middle" x="700" y="-273.5" font-family="Vera" font-size="10.00">paramtk.tilewrapper.Progressbar</text>
</g>
<!-- paramtk.tilewrapper.Widget&#45;&gt;paramtk.tilewrapper.Progressbar -->
<g id="edge58" class="edge"><title>paramtk.tilewrapper.Widget&#45;&gt;paramtk.tilewrapper.Progressbar</title>
<path fill="none" stroke="black" stroke-width="0.5" d="M575.728,-260.937C587.561,-262.371 599.911,-263.868 612.037,-265.338"/>
<polygon fill="black" stroke="black" points="612.043,-267.101 617.218,-265.966 612.465,-263.627 612.043,-267.101"/>
</g>
<!-- paramtk.tilewrapper.Radiobutton -->
<g id="node55" class="node"><title>paramtk.tilewrapper.Radiobutton</title>
<polygon fill="none" stroke="black" stroke-width="0.5" points="786,-58.5 614,-58.5 614,-37.5 786,-37.5 786,-58.5"/>
<text text-anchor="middle" x="700" y="-45.5" font-family="Vera" font-size="10.00">paramtk.tilewrapper.Radiobutton</text>
</g>
<!-- paramtk.tilewrapper.Widget&#45;&gt;paramtk.tilewrapper.Radiobutton -->
<g id="edge60" class="edge"><title>paramtk.tilewrapper.Widget&#45;&gt;paramtk.tilewrapper.Radiobutton</title>
<path fill="none" stroke="black" stroke-width="0.5" d="M552.765,-241.878C561.493,-238.138 569.75,-233.015 576,-226 624.199,-171.901 560.51,-117.976 612,-67 614.333,-64.6907 616.874,-62.6325 619.576,-60.7996"/>
<polygon fill="black" stroke="black" points="620.611,-62.2175 623.945,-58.1012 618.771,-59.2397 620.611,-62.2175"/>
</g>
<!-- paramtk.tilewrapper.Scrollbar -->
<g id="node58" class="node"><title>paramtk.tilewrapper.Scrollbar</title>
<polygon fill="none" stroke="black" stroke-width="0.5" points="778,-20.5 622,-20.5 622,0.5 778,0.5 778,-20.5"/>
<text text-anchor="middle" x="700" y="-7.5" font-family="Vera" font-size="10.00">paramtk.tilewrapper.Scrollbar</text>
</g>
<!-- paramtk.tilewrapper.Widget&#45;&gt;paramtk.tilewrapper.Scrollbar -->
<g id="edge64" class="edge"><title>paramtk.tilewrapper.Widget&#45;&gt;paramtk.tilewrapper.Scrollbar</title>
<path fill="none" stroke="black" stroke-width="0.5" d="M553.381,-241.921C561.947,-238.176 569.987,-233.041 576,-226 633.803,-158.318 550.075,-92.9321 612,-29 614.107,-26.8248 616.399,-24.87 618.836,-23.1148"/>
<polygon fill="black" stroke="black" points="620.133,-24.359 623.371,-20.1663 618.225,-21.4247 620.133,-24.359"/>
</g>
<!-- paramtk.tilewrapper.Separator -->
<g id="node62" class="node"><title>paramtk.tilewrapper.Separator</title>
<polygon fill="none" stroke="black" stroke-width="0.5" points="781,-248.5 619,-248.5 619,-227.5 781,-227.5 781,-248.5"/>
<text text-anchor="middle" x="700" y="-235.5" font-family="Vera" font-size="10.00">paramtk.tilewrapper.Separator</text>
</g>
<!-- paramtk.tilewrapper.Widget&#45;&gt;paramtk.tilewrapper.Separator -->
<g id="edge68" class="edge"><title>paramtk.tilewrapper.Widget&#45;&gt;paramtk.tilewrapper.Separator</title>
<path fill="none" stroke="black" stroke-width="0.5" d="M575.728,-246.787C587.85,-245.93 600.514,-245.034 612.924,-244.157"/>
<polygon fill="black" stroke="black" points="613.36,-245.881 618.224,-243.782 613.113,-242.389 613.36,-245.881"/>
</g>
<!-- paramtk.tilewrapper.Treeview -->
<g id="node72" class="node"><title>paramtk.tilewrapper.Treeview</title>
<polygon fill="none" stroke="black" stroke-width="0.5" points="777,-476.5 623,-476.5 623,-455.5 777,-455.5 777,-476.5"/>
<text text-anchor="middle" x="700" y="-463.5" font-family="Vera" font-size="10.00">paramtk.tilewrapper.Treeview</text>
</g>
<!-- paramtk.tilewrapper.Widget&#45;&gt;paramtk.tilewrapper.Treeview -->
<g id="edge78" class="edge"><title>paramtk.tilewrapper.Widget&#45;&gt;paramtk.tilewrapper.Treeview</title>
<path fill="none" stroke="black" stroke-width="0.5" d="M540.658,-262.088C553.608,-267.262 567.02,-274.897 576,-286 622.107,-343.012 559.963,-395.344 612,-447 614.329,-449.312 616.869,-451.373 619.568,-453.208"/>
<polygon fill="black" stroke="black" points="618.761,-454.767 623.934,-455.91 620.603,-451.791 618.761,-454.767"/>
</g>
<!-- Tkinter.Widget -->
<g id="node2" class="node"><title>Tkinter.Widget</title>
<polygon fill="none" stroke="black" stroke-width="0.5" points="363,-217.5 281,-217.5 281,-196.5 363,-196.5 363,-217.5"/>
<text text-anchor="middle" x="322" y="-204.5" font-family="Vera" font-size="10.00">Tkinter.Widget</text>
</g>
<!-- Tkinter.Widget&#45;&gt;paramtk.tilewrapper.Widget -->
<g id="edge2" class="edge"><title>Tkinter.Widget&#45;&gt;paramtk.tilewrapper.Widget</title>
<path fill="none" stroke="black" stroke-width="0.5" d="M362.396,-217.099C390.419,-224.105 427.773,-233.443 456.79,-240.698"/>
<polygon fill="black" stroke="black" points="456.464,-242.42 461.739,-241.935 457.313,-239.024 456.464,-242.42"/>
</g>
<!-- Tkinter.Button -->
<g id="node8" class="node"><title>Tkinter.Button</title>
<polygon fill="none" stroke="black" stroke-width="0.5" points="543,-410.5 461,-410.5 461,-389.5 543,-389.5 543,-410.5"/>
<text text-anchor="middle" x="502" y="-397.5" font-family="Vera" font-size="10.00">Tkinter.Button</text>
</g>
<!-- Tkinter.Widget&#45;&gt;Tkinter.Button -->
<g id="edge38" class="edge"><title>Tkinter.Widget&#45;&gt;Tkinter.Button</title>
<path fill="none" stroke="black" stroke-width="0.5" d="M363.799,-216.122C374.008,-219.963 384.219,-225.381 392,-233 423.077,-263.429 404.369,-287.485 428,-324 444.05,-348.8 469.04,-372.36 485.465,-386.497"/>
<polygon fill="black" stroke="black" points="484.503,-387.976 489.445,-389.883 486.771,-385.31 484.503,-387.976"/>
</g>
<!-- Tkinter.Frame -->
<g id="node12" class="node"><title>Tkinter.Frame</title>
<polygon fill="none" stroke="black" stroke-width="0.5" points="542,-315.5 462,-315.5 462,-294.5 542,-294.5 542,-315.5"/>
<text text-anchor="middle" x="502" y="-302.5" font-family="Vera" font-size="10.00">Tkinter.Frame</text>
</g>
<!-- Tkinter.Widget&#45;&gt;Tkinter.Frame -->
<g id="edge56" class="edge"><title>Tkinter.Widget&#45;&gt;Tkinter.Frame</title>
<path fill="none" stroke="black" stroke-width="0.5" d="M358.765,-217.114C369.953,-221.103 381.942,-226.352 392,-233 411.408,-245.828 409.087,-257.453 428,-271 440.387,-279.872 455.458,-287.3 468.759,-292.927"/>
<polygon fill="black" stroke="black" points="468.282,-294.623 473.571,-294.918 469.62,-291.389 468.282,-294.623"/>
</g>
<!-- Tkinter.Checkbutton -->
<g id="node16" class="node"><title>Tkinter.Checkbutton</title>
<polygon fill="none" stroke="black" stroke-width="0.5" points="558,-217.5 446,-217.5 446,-196.5 558,-196.5 558,-217.5"/>
<text text-anchor="middle" x="502" y="-204.5" font-family="Vera" font-size="10.00">Tkinter.Checkbutton</text>
</g>
<!-- Tkinter.Widget&#45;&gt;Tkinter.Checkbutton -->
<g id="edge88" class="edge"><title>Tkinter.Widget&#45;&gt;Tkinter.Checkbutton</title>
<path fill="none" stroke="black" stroke-width="0.5" d="M363.748,-207C386.629,-207 415.416,-207 440.791,-207"/>
<polygon fill="black" stroke="black" points="440.818,-208.75 445.818,-207 440.818,-205.25 440.818,-208.75"/>
</g>
<!-- Tkinter.Label -->
<g id="node20" class="node"><title>Tkinter.Label</title>
<polygon fill="none" stroke="black" stroke-width="0.5" points="540,-172.5 464,-172.5 464,-151.5 540,-151.5 540,-172.5"/>
<text text-anchor="middle" x="502" y="-159.5" font-family="Vera" font-size="10.00">Tkinter.Label</text>
</g>
<!-- Tkinter.Widget&#45;&gt;Tkinter.Label -->
<g id="edge84" class="edge"><title>Tkinter.Widget&#45;&gt;Tkinter.Label</title>
<path fill="none" stroke="black" stroke-width="0.5" d="M362.396,-196.901C390.909,-189.773 429.082,-180.229 458.305,-172.924"/>
<polygon fill="black" stroke="black" points="458.856,-174.59 463.283,-171.679 458.008,-171.194 458.856,-174.59"/>
</g>
<!-- Tkinter.Entry -->
<g id="node22" class="node"><title>Tkinter.Entry</title>
<polygon fill="none" stroke="black" stroke-width="0.5" points="540,-514.5 464,-514.5 464,-493.5 540,-493.5 540,-514.5"/>
<text text-anchor="middle" x="502" y="-501.5" font-family="Vera" font-size="10.00">Tkinter.Entry</text>
</g>
<!-- Tkinter.Widget&#45;&gt;Tkinter.Entry -->
<g id="edge22" class="edge"><title>Tkinter.Widget&#45;&gt;Tkinter.Entry</title>
<path fill="none" stroke="black" stroke-width="0.5" d="M363.621,-214.421C374.33,-218.271 384.84,-224.119 392,-233 463.01,-321.077 352.495,-400.745 428,-485 435.9,-493.816 447.287,-498.794 458.768,-501.539"/>
<polygon fill="black" stroke="black" points="458.429,-503.256 463.684,-502.584 459.157,-499.833 458.429,-503.256"/>
</g>
<!-- Tkinter.Listbox -->
<g id="node36" class="node"><title>Tkinter.Listbox</title>
<polygon fill="none" stroke="black" stroke-width="0.5" points="544,-476.5 460,-476.5 460,-455.5 544,-455.5 544,-476.5"/>
<text text-anchor="middle" x="502" y="-463.5" font-family="Vera" font-size="10.00">Tkinter.Listbox</text>
</g>
<!-- Tkinter.Widget&#45;&gt;Tkinter.Listbox -->
<g id="edge40" class="edge"><title>Tkinter.Widget&#45;&gt;Tkinter.Listbox</title>
<path fill="none" stroke="black" stroke-width="0.5" d="M363.706,-214.784C374.286,-218.638 384.707,-224.397 392,-233 446.448,-297.228 380.591,-349.414 428,-419 438.562,-434.502 456.106,-445.972 471.461,-453.698"/>
<polygon fill="black" stroke="black" points="470.885,-455.363 476.146,-455.976 472.415,-452.216 470.885,-455.363"/>
</g>
<!-- Tkinter.Radiobutton -->
<g id="node41" class="node"><title>Tkinter.Radiobutton</title>
<polygon fill="none" stroke="black" stroke-width="0.5" points="556,-82.5 448,-82.5 448,-61.5 556,-61.5 556,-82.5"/>
<text text-anchor="middle" x="502" y="-69.5" font-family="Vera" font-size="10.00">Tkinter.Radiobutton</text>
</g>
<!-- Tkinter.Widget&#45;&gt;Tkinter.Radiobutton -->
<g id="edge46" class="edge"><title>Tkinter.Widget&#45;&gt;Tkinter.Radiobutton</title>
<path fill="none" stroke="black" stroke-width="0.5" d="M329.655,-196.722C345.716,-175.805 385.016,-127.911 428,-100 438.181,-93.3889 450.152,-88.0055 461.463,-83.79"/>
<polygon fill="black" stroke="black" points="462.156,-85.4004 466.263,-82.0546 460.966,-82.1088 462.156,-85.4004"/>
</g>
<!-- Tkinter.Menubutton -->
<g id="node46" class="node"><title>Tkinter.Menubutton</title>
<polygon fill="none" stroke="black" stroke-width="0.5" points="556,-129.5 448,-129.5 448,-108.5 556,-108.5 556,-129.5"/>
<text text-anchor="middle" x="502" y="-116.5" font-family="Vera" font-size="10.00">Tkinter.Menubutton</text>
</g>
<!-- Tkinter.Widget&#45;&gt;Tkinter.Menubutton -->
<g id="edge82" class="edge"><title>Tkinter.Widget&#45;&gt;Tkinter.Menubutton</title>
<path fill="none" stroke="black" stroke-width="0.5" d="M336.165,-196.993C355.966,-183.35 393.389,-158.807 428,-143 438.228,-138.329 449.629,-134.158 460.359,-130.656"/>
<polygon fill="black" stroke="black" points="461.007,-132.286 465.235,-129.094 459.94,-128.953 461.007,-132.286"/>
</g>
<!-- Tkinter.Scrollbar -->
<g id="node60" class="node"><title>Tkinter.Scrollbar</title>
<polygon fill="none" stroke="black" stroke-width="0.5" points="548,-25.5 456,-25.5 456,-4.5 548,-4.5 548,-25.5"/>
<text text-anchor="middle" x="502" y="-12.5" font-family="Vera" font-size="10.00">Tkinter.Scrollbar</text>
</g>
<!-- Tkinter.Widget&#45;&gt;Tkinter.Scrollbar -->
<g id="edge90" class="edge"><title>Tkinter.Widget&#45;&gt;Tkinter.Scrollbar</title>
<path fill="none" stroke="black" stroke-width="0.5" d="M326.805,-196.723C339.747,-169.963 377.785,-97.1472 428,-53 440.278,-42.2053 456.168,-33.5269 470.074,-27.2039"/>
<polygon fill="black" stroke="black" points="470.844,-28.7767 474.706,-25.1502 469.425,-25.5771 470.844,-28.7767"/>
</g>
<!-- paramtk.tilewrapper.Style -->
<g id="node4" class="node"><title>paramtk.tilewrapper.Style</title>
<polygon fill="none" stroke="black" stroke-width="0.5" points="391,-262.5 253,-262.5 253,-241.5 391,-241.5 391,-262.5"/>
<text text-anchor="middle" x="322" y="-249.5" font-family="Vera" font-size="10.00">paramtk.tilewrapper.Style</text>
</g>
<!-- paramtk.tilewrapper.Style&#45;&gt;paramtk.tilewrapper.Widget -->
<g id="edge4" class="edge"><title>paramtk.tilewrapper.Style&#45;&gt;paramtk.tilewrapper.Widget</title>
<path fill="none" stroke="black" stroke-width="0.5" d="M391.593,-252C401.965,-252 412.719,-252 423.263,-252"/>
<polygon fill="black" stroke="black" points="423.42,-253.75 428.42,-252 423.42,-250.25 423.42,-253.75"/>
</g>
<!-- Tkinter.Button&#45;&gt;paramtk.tilewrapper.Button -->
<g id="edge8" class="edge"><title>Tkinter.Button&#45;&gt;paramtk.tilewrapper.Button</title>
<path fill="none" stroke="black" stroke-width="0.5" d="M543.507,-405.87C566.78,-409.161 596.539,-413.369 623.845,-417.231"/>
<polygon fill="black" stroke="black" points="623.717,-418.98 628.913,-417.947 624.207,-415.514 623.717,-418.98"/>
</g>
<!-- Tkinter.Frame&#45;&gt;paramtk.tilewrapper.Frame -->
<g id="edge12" class="edge"><title>Tkinter.Frame&#45;&gt;paramtk.tilewrapper.Frame</title>
<path fill="none" stroke="black" stroke-width="0.5" d="M515.471,-315.1C535.483,-329.619 574.721,-356.26 612,-371 619.463,-373.951 627.472,-376.482 635.508,-378.644"/>
<polygon fill="black" stroke="black" points="635.231,-380.38 640.51,-379.942 636.11,-376.992 635.231,-380.38"/>
</g>
<!-- Tkinter.Checkbutton&#45;&gt;paramtk.tilewrapper.Checkbutton -->
<g id="edge16" class="edge"><title>Tkinter.Checkbutton&#45;&gt;paramtk.tilewrapper.Checkbutton</title>
<path fill="none" stroke="black" stroke-width="0.5" d="M558.209,-205.013C573.337,-204.478 590.115,-203.885 606.68,-203.299"/>
<polygon fill="black" stroke="black" points="606.877,-205.043 611.812,-203.118 606.753,-201.546 606.877,-205.043"/>
</g>
<!-- Tkinter.Label&#45;&gt;paramtk.tilewrapper.LabelFrame -->
<g id="edge20" class="edge"><title>Tkinter.Label&#45;&gt;paramtk.tilewrapper.LabelFrame</title>
<path fill="none" stroke="black" stroke-width="0.5" d="M540.646,-162C560.399,-162 585.336,-162 609.581,-162"/>
<polygon fill="black" stroke="black" points="609.742,-163.75 614.742,-162 609.742,-160.25 609.742,-163.75"/>
</g>
<!-- Tkinter.Label&#45;&gt;paramtk.tilewrapper.Label -->
<g id="edge36" class="edge"><title>Tkinter.Label&#45;&gt;paramtk.tilewrapper.Label</title>
<path fill="none" stroke="black" stroke-width="0.5" d="M540.646,-154.583C569.597,-149.027 609.681,-141.334 642.404,-135.054"/>
<polygon fill="black" stroke="black" points="643.01,-136.72 647.59,-134.058 642.35,-133.282 643.01,-136.72"/>
</g>
<!-- Tkinter.Entry&#45;&gt;paramtk.tilewrapper.Combobox -->
<g id="edge28" class="edge"><title>Tkinter.Entry&#45;&gt;paramtk.tilewrapper.Combobox</title>
<path fill="none" stroke="black" stroke-width="0.5" d="M540.176,-511.327C569.19,-516.895 609.584,-524.647 642.503,-530.965"/>
<polygon fill="black" stroke="black" points="642.479,-532.742 647.719,-531.966 643.138,-529.305 642.479,-532.742"/>
</g>
<!-- Tkinter.Entry&#45;&gt;paramtk.tilewrapper.Entry -->
<g id="edge32" class="edge"><title>Tkinter.Entry&#45;&gt;paramtk.tilewrapper.Entry</title>
<path fill="none" stroke="black" stroke-width="0.5" d="M540.176,-504C564.085,-504 595.721,-504 624.534,-504"/>
<polygon fill="black" stroke="black" points="624.879,-505.75 629.879,-504 624.879,-502.25 624.879,-505.75"/>
</g>
<!-- Tkinter.XView -->
<g id="node24" class="node"><title>Tkinter.XView</title>
<polygon fill="none" stroke="black" stroke-width="0.5" points="361,-514.5 283,-514.5 283,-493.5 361,-493.5 361,-514.5"/>
<text text-anchor="middle" x="322" y="-501.5" font-family="Vera" font-size="10.00">Tkinter.XView</text>
</g>
<!-- Tkinter.XView&#45;&gt;Tkinter.Entry -->
<g id="edge24" class="edge"><title>Tkinter.XView&#45;&gt;Tkinter.Entry</title>
<path fill="none" stroke="black" stroke-width="0.5" d="M361.502,-504C390.263,-504 429.198,-504 458.787,-504"/>
<polygon fill="black" stroke="black" points="458.825,-505.75 463.825,-504 458.825,-502.25 458.825,-505.75"/>
</g>
<!-- Tkinter.XView&#45;&gt;Tkinter.Listbox -->
<g id="edge42" class="edge"><title>Tkinter.XView&#45;&gt;Tkinter.Listbox</title>
<path fill="none" stroke="black" stroke-width="0.5" d="M361.502,-495.661C388.894,-489.878 425.513,-482.147 454.499,-476.028"/>
<polygon fill="black" stroke="black" points="454.919,-477.728 459.449,-474.983 454.196,-474.304 454.919,-477.728"/>
</g>
<!-- Tkinter.Listbox&#45;&gt;paramtk.tilewrapper.Treeview -->
<g id="edge80" class="edge"><title>Tkinter.Listbox&#45;&gt;paramtk.tilewrapper.Treeview</title>
<path fill="none" stroke="black" stroke-width="0.5" d="M544.963,-466C566.094,-466 592.303,-466 617.123,-466"/>
<polygon fill="black" stroke="black" points="617.396,-467.75 622.396,-466 617.395,-464.25 617.396,-467.75"/>
</g>
<!-- Tkinter.YView -->
<g id="node39" class="node"><title>Tkinter.YView</title>
<polygon fill="none" stroke="black" stroke-width="0.5" points="361,-476.5 283,-476.5 283,-455.5 361,-455.5 361,-476.5"/>
<text text-anchor="middle" x="322" y="-463.5" font-family="Vera" font-size="10.00">Tkinter.YView</text>
</g>
<!-- Tkinter.YView&#45;&gt;Tkinter.Listbox -->
<g id="edge44" class="edge"><title>Tkinter.YView&#45;&gt;Tkinter.Listbox</title>
<path fill="none" stroke="black" stroke-width="0.5" d="M361.057,-466C388.312,-466 424.861,-466 453.91,-466"/>
<polygon fill="black" stroke="black" points="454.243,-467.75 459.243,-466 454.243,-464.25 454.243,-467.75"/>
</g>
<!-- Tkinter.Radiobutton&#45;&gt;paramtk.tilewrapper.Radiobutton -->
<g id="edge62" class="edge"><title>Tkinter.Radiobutton&#45;&gt;paramtk.tilewrapper.Radiobutton</title>
<path fill="none" stroke="black" stroke-width="0.5" d="M556.629,-65.3784C573.788,-63.2985 593.189,-60.9467 612.049,-58.6607"/>
<polygon fill="black" stroke="black" points="612.599,-60.357 617.352,-58.0179 612.178,-56.8824 612.599,-60.357"/>
</g>
<!-- Tkinter.Misc -->
<g id="node43" class="node"><title>Tkinter.Misc</title>
<polygon fill="none" stroke="black" stroke-width="0.5" points="72,-274.5 2.84217e-14,-274.5 0,-253.5 72,-253.5 72,-274.5"/>
<text text-anchor="middle" x="36" y="-261.5" font-family="Vera" font-size="10.00">Tkinter.Misc</text>
</g>
<!-- Tkinter.BaseWidget -->
<g id="node64" class="node"><title>Tkinter.BaseWidget</title>
<polygon fill="none" stroke="black" stroke-width="0.5" points="215,-274.5 109,-274.5 109,-253.5 215,-253.5 215,-274.5"/>
<text text-anchor="middle" x="162" y="-261.5" font-family="Vera" font-size="10.00">Tkinter.BaseWidget</text>
</g>
<!-- Tkinter.Misc&#45;&gt;Tkinter.BaseWidget -->
<g id="edge86" class="edge"><title>Tkinter.Misc&#45;&gt;Tkinter.BaseWidget</title>
<path fill="none" stroke="black" stroke-width="0.5" d="M72.1065,-264C81.7306,-264 92.3855,-264 102.895,-264"/>
<polygon fill="black" stroke="black" points="103.038,-265.75 108.038,-264 103.038,-262.25 103.038,-265.75"/>
</g>
<!-- Tkinter.Menubutton&#45;&gt;paramtk.tilewrapper.Menubutton -->
<g id="edge50" class="edge"><title>Tkinter.Menubutton&#45;&gt;paramtk.tilewrapper.Menubutton</title>
<path fill="none" stroke="black" stroke-width="0.5" d="M556.629,-109.895C580.881,-105.853 609.613,-101.064 634.964,-96.8393"/>
<polygon fill="black" stroke="black" points="635.343,-98.5505 639.987,-96.0022 634.767,-95.0981 635.343,-98.5505"/>
</g>
<!-- Tkinter.Scrollbar&#45;&gt;paramtk.tilewrapper.Scrollbar -->
<g id="edge66" class="edge"><title>Tkinter.Scrollbar&#45;&gt;paramtk.tilewrapper.Scrollbar</title>
<path fill="none" stroke="black" stroke-width="0.5" d="M548.673,-13.8214C568.868,-13.3114 593.14,-12.6985 616.273,-12.1143"/>
<polygon fill="black" stroke="black" points="616.545,-13.8581 621.5,-11.9823 616.457,-10.3592 616.545,-13.8581"/>
</g>
<!-- Tkinter.BaseWidget&#45;&gt;Tkinter.Widget -->
<g id="edge70" class="edge"><title>Tkinter.BaseWidget&#45;&gt;Tkinter.Widget</title>
<path fill="none" stroke="black" stroke-width="0.5" d="M190.596,-253.974C198.802,-251.087 207.759,-247.927 216,-245 240.559,-236.277 268.285,-226.335 289.22,-218.808"/>
<polygon fill="black" stroke="black" points="290.006,-220.385 294.119,-217.046 288.821,-217.091 290.006,-220.385"/>
</g>
<!-- Tkinter.Pack -->
<g id="node66" class="node"><title>Tkinter.Pack</title>
<polygon fill="none" stroke="black" stroke-width="0.5" points="198,-236.5 126,-236.5 126,-215.5 198,-215.5 198,-236.5"/>
<text text-anchor="middle" x="162" y="-223.5" font-family="Vera" font-size="10.00">Tkinter.Pack</text>
</g>
<!-- Tkinter.Pack&#45;&gt;Tkinter.Widget -->
<g id="edge72" class="edge"><title>Tkinter.Pack&#45;&gt;Tkinter.Widget</title>
<path fill="none" stroke="black" stroke-width="0.5" d="M198.707,-221.641C221.447,-218.941 250.864,-215.447 275.261,-212.55"/>
<polygon fill="black" stroke="black" points="275.627,-214.269 280.386,-211.942 275.215,-210.794 275.627,-214.269"/>
</g>
<!-- Tkinter.Place -->
<g id="node68" class="node"><title>Tkinter.Place</title>
<polygon fill="none" stroke="black" stroke-width="0.5" points="200,-198.5 124,-198.5 124,-177.5 200,-177.5 200,-198.5"/>
<text text-anchor="middle" x="162" y="-185.5" font-family="Vera" font-size="10.00">Tkinter.Place</text>
</g>
<!-- Tkinter.Place&#45;&gt;Tkinter.Widget -->
<g id="edge74" class="edge"><title>Tkinter.Place&#45;&gt;Tkinter.Widget</title>
<path fill="none" stroke="black" stroke-width="0.5" d="M200.732,-192.599C223.181,-195.265 251.601,-198.64 275.284,-201.452"/>
<polygon fill="black" stroke="black" points="275.091,-203.192 280.262,-202.044 275.503,-199.716 275.091,-203.192"/>
</g>
<!-- Tkinter.Grid -->
<g id="node70" class="node"><title>Tkinter.Grid</title>
<polygon fill="none" stroke="black" stroke-width="0.5" points="197,-160.5 127,-160.5 127,-139.5 197,-139.5 197,-160.5"/>
<text text-anchor="middle" x="162" y="-147.5" font-family="Vera" font-size="10.00">Tkinter.Grid</text>
</g>
<!-- Tkinter.Grid&#45;&gt;Tkinter.Widget -->
<g id="edge76" class="edge"><title>Tkinter.Grid&#45;&gt;Tkinter.Widget</title>
<path fill="none" stroke="black" stroke-width="0.5" d="M190.596,-160.026C198.802,-162.913 207.759,-166.073 216,-169 240.559,-177.723 268.285,-187.665 289.22,-195.192"/>
<polygon fill="black" stroke="black" points="288.821,-196.909 294.119,-196.954 290.006,-193.615 288.821,-196.909"/>
</g>
</g>
</svg>
