<?xml version="1.0" encoding="UTF-8" standalone="no"?>
<!DOCTYPE svg PUBLIC "-//W3C//DTD SVG 1.1//EN"
 "http://www.w3.org/Graphics/SVG/1.1/DTD/svg11.dtd">
<!-- Generated by graphviz version 2.26.3 (20100126.1600)
 -->
<!-- Title: inheritance95afd34832 Pages: 1 -->
<svg width="1474pt" height="636pt"
 viewBox="0.00 0.00 1474.00 636.00" xmlns="http://www.w3.org/2000/svg" xmlns:xlink="http://www.w3.org/1999/xlink">
<g id="graph1" class="graph" transform="scale(1 1) rotate(0) translate(4 632)">
<title>inheritance95afd34832</title>
<polygon fill="white" stroke="white" points="-4,5 -4,-632 1471,-632 1471,5 -4,5"/>
<!-- paramtk.ListTranslator -->
<g id="node1" class="node"><title>paramtk.ListTranslator</title>
<polygon fill="none" stroke="black" stroke-width="0.5" points="370,-134.5 248,-134.5 248,-113.5 370,-113.5 370,-134.5"/>
<text text-anchor="middle" x="309" y="-121.5" font-family="Vera" font-size="10.00">paramtk.ListTranslator</text>
</g>
<!-- paramtk.Translator -->
<g id="node2" class="node"><title>paramtk.Translator</title>
<polygon fill="none" stroke="black" stroke-width="0.5" points="141,-77.5 35,-77.5 35,-56.5 141,-56.5 141,-77.5"/>
<text text-anchor="middle" x="88" y="-64.5" font-family="Vera" font-size="10.00">paramtk.Translator</text>
</g>
<!-- paramtk.Translator&#45;&gt;paramtk.ListTranslator -->
<g id="edge2" class="edge"><title>paramtk.Translator&#45;&gt;paramtk.ListTranslator</title>
<path fill="none" stroke="black" stroke-width="0.5" d="M117.572,-77.012C142.543,-85.2365 179.347,-96.8223 212,-105 223.434,-107.864 235.715,-110.558 247.566,-112.969"/>
<polygon fill="black" stroke="black" points="247.368,-114.714 252.615,-113.984 248.058,-111.282 247.368,-114.714"/>
</g>
<!-- paramtk.String_ObjectTranslator -->
<g id="node26" class="node"><title>paramtk.String_ObjectTranslator</title>
<polygon fill="none" stroke="black" stroke-width="0.5" points="394,-96.5 224,-96.5 224,-75.5 394,-75.5 394,-96.5"/>
<text text-anchor="middle" x="309" y="-83.5" font-family="Vera" font-size="10.00">paramtk.String_ObjectTranslator</text>
</g>
<!-- paramtk.Translator&#45;&gt;paramtk.String_ObjectTranslator -->
<g id="edge32" class="edge"><title>paramtk.Translator&#45;&gt;paramtk.String_ObjectTranslator</title>
<path fill="none" stroke="black" stroke-width="0.5" d="M141.78,-71.6236C164.778,-73.6008 192.273,-75.9647 218.261,-78.1989"/>
<polygon fill="black" stroke="black" points="218.305,-79.9591 223.437,-78.6439 218.605,-76.472 218.305,-79.9591"/>
</g>
<!-- paramtk.DoNothingTranslator -->
<g id="node54" class="node"><title>paramtk.DoNothingTranslator</title>
<polygon fill="none" stroke="black" stroke-width="0.5" points="388,-58.5 230,-58.5 230,-37.5 388,-37.5 388,-58.5"/>
<text text-anchor="middle" x="309" y="-45.5" font-family="Vera" font-size="10.00">paramtk.DoNothingTranslator</text>
</g>
<!-- paramtk.Translator&#45;&gt;paramtk.DoNothingTranslator -->
<g id="edge48" class="edge"><title>paramtk.Translator&#45;&gt;paramtk.DoNothingTranslator</title>
<path fill="none" stroke="black" stroke-width="0.5" d="M141.78,-62.3764C166.678,-60.2358 196.847,-57.6421 224.668,-55.2502"/>
<polygon fill="black" stroke="black" points="225.002,-56.9781 229.834,-54.8061 224.702,-53.4909 225.002,-56.9781"/>
</g>
<!-- paramtk.Eval_ReprTranslator -->
<g id="node82" class="node"><title>paramtk.Eval_ReprTranslator</title>
<polygon fill="none" stroke="black" stroke-width="0.5" points="385,-20.5 233,-20.5 233,0.5 385,0.5 385,-20.5"/>
<text text-anchor="middle" x="309" y="-7.5" font-family="Vera" font-size="10.00">paramtk.Eval_ReprTranslator</text>
</g>
<!-- paramtk.Translator&#45;&gt;paramtk.Eval_ReprTranslator -->
<g id="edge80" class="edge"><title>paramtk.Translator&#45;&gt;paramtk.Eval_ReprTranslator</title>
<path fill="none" stroke="black" stroke-width="0.5" d="M117.572,-56.988C142.543,-48.7635 179.347,-37.1777 212,-29 223.434,-26.1365 235.715,-23.4417 247.566,-21.0314"/>
<polygon fill="black" stroke="black" points="248.058,-22.7176 252.615,-20.0161 247.368,-19.2863 248.058,-22.7176"/>
</g>
<!-- paramtk.ListWidget -->
<g id="node4" class="node"><title>paramtk.ListWidget</title>
<polygon fill="none" stroke="black" stroke-width="0.5" points="957,-476.5 849,-476.5 849,-455.5 957,-455.5 957,-476.5"/>
<text text-anchor="middle" x="903" y="-463.5" font-family="Vera" font-size="10.00">paramtk.ListWidget</text>
</g>
<!-- Tkinter.Frame -->
<g id="node5" class="node"><title>Tkinter.Frame</title>
<polygon fill="none" stroke="black" stroke-width="0.5" points="757,-419.5 677,-419.5 677,-398.5 757,-398.5 757,-419.5"/>
<text text-anchor="middle" x="717" y="-406.5" font-family="Vera" font-size="10.00">Tkinter.Frame</text>
</g>
<!-- Tkinter.Frame&#45;&gt;paramtk.ListWidget -->
<g id="edge4" class="edge"><title>Tkinter.Frame&#45;&gt;paramtk.ListWidget</title>
<path fill="none" stroke="black" stroke-width="0.5" d="M757.64,-417.428C768.936,-420.271 781.092,-423.808 792,-428 808.888,-434.489 811.112,-440.511 828,-447 835.372,-449.833 843.314,-452.367 851.175,-454.589"/>
<polygon fill="black" stroke="black" points="850.769,-456.293 856.054,-455.933 851.698,-452.918 850.769,-456.293"/>
</g>
<!-- paramtk.ListItemCtrlWidget -->
<g id="node11" class="node"><title>paramtk.ListItemCtrlWidget</title>
<polygon fill="none" stroke="black" stroke-width="0.5" points="976,-438.5 830,-438.5 830,-417.5 976,-417.5 976,-438.5"/>
<text text-anchor="middle" x="903" y="-425.5" font-family="Vera" font-size="10.00">paramtk.ListItemCtrlWidget</text>
</g>
<!-- Tkinter.Frame&#45;&gt;paramtk.ListItemCtrlWidget -->
<g id="edge8" class="edge"><title>Tkinter.Frame&#45;&gt;paramtk.ListItemCtrlWidget</title>
<path fill="none" stroke="black" stroke-width="0.5" d="M757.818,-413.17C777.305,-415.16 801.31,-417.612 824.149,-419.945"/>
<polygon fill="black" stroke="black" points="824.156,-421.705 829.308,-420.472 824.512,-418.223 824.156,-421.705"/>
</g>
<!-- paramtk.HackFileEntry -->
<g id="node16" class="node"><title>paramtk.HackFileEntry</title>
<polygon fill="none" stroke="black" stroke-width="0.5" points="965,-400.5 841,-400.5 841,-379.5 965,-379.5 965,-400.5"/>
<text text-anchor="middle" x="903" y="-387.5" font-family="Vera" font-size="10.00">paramtk.HackFileEntry</text>
</g>
<!-- Tkinter.Frame&#45;&gt;paramtk.HackFileEntry -->
<g id="edge12" class="edge"><title>Tkinter.Frame&#45;&gt;paramtk.HackFileEntry</title>
<path fill="none" stroke="black" stroke-width="0.5" d="M757.818,-404.83C780.576,-402.506 809.498,-399.551 835.527,-396.892"/>
<polygon fill="black" stroke="black" points="835.896,-398.614 840.692,-396.365 835.54,-395.132 835.896,-398.614"/>
</g>
<!-- paramtk.ProgressWindow -->
<g id="node21" class="node"><title>paramtk.ProgressWindow</title>
<polygon fill="none" stroke="black" stroke-width="0.5" points="971,-324.5 835,-324.5 835,-303.5 971,-303.5 971,-324.5"/>
<text text-anchor="middle" x="903" y="-311.5" font-family="Vera" font-size="10.00">paramtk.ProgressWindow</text>
</g>
<!-- Tkinter.Frame&#45;&gt;paramtk.ProgressWindow -->
<g id="edge18" class="edge"><title>Tkinter.Frame&#45;&gt;paramtk.ProgressWindow</title>
<path fill="none" stroke="black" stroke-width="0.5" d="M728.792,-398.809C748.191,-382.555 788.623,-350.785 828,-333 834.243,-330.18 840.975,-327.73 847.754,-325.614"/>
<polygon fill="black" stroke="black" points="848.652,-327.171 852.939,-324.06 847.648,-323.819 848.652,-327.171"/>
</g>
<!-- paramtk.ParametersFrame -->
<g id="node35" class="node"><title>paramtk.ParametersFrame</title>
<polygon fill="none" stroke="black" stroke-width="0.5" points="976,-590.5 830,-590.5 830,-569.5 976,-569.5 976,-590.5"/>
<text text-anchor="middle" x="903" y="-577.5" font-family="Vera" font-size="10.00">paramtk.ParametersFrame</text>
</g>
<!-- Tkinter.Frame&#45;&gt;paramtk.ParametersFrame -->
<g id="edge70" class="edge"><title>Tkinter.Frame&#45;&gt;paramtk.ParametersFrame</title>
<path fill="none" stroke="black" stroke-width="0.5" d="M757.888,-411.473C770.231,-414.127 782.904,-419.05 792,-428 835.652,-470.949 784.348,-518.051 828,-561 830.388,-563.349 833.022,-565.421 835.832,-567.247"/>
<polygon fill="black" stroke="black" points="835.184,-568.897 840.382,-569.919 836.957,-565.878 835.184,-568.897"/>
</g>
<!-- paramtk.TaggedSlider -->
<g id="node56" class="node"><title>paramtk.TaggedSlider</title>
<polygon fill="none" stroke="black" stroke-width="0.5" points="963,-362.5 843,-362.5 843,-341.5 963,-341.5 963,-362.5"/>
<text text-anchor="middle" x="903" y="-349.5" font-family="Vera" font-size="10.00">paramtk.TaggedSlider</text>
</g>
<!-- Tkinter.Frame&#45;&gt;paramtk.TaggedSlider -->
<g id="edge50" class="edge"><title>Tkinter.Frame&#45;&gt;paramtk.TaggedSlider</title>
<path fill="none" stroke="black" stroke-width="0.5" d="M744.624,-398.84C766.96,-390.796 799.299,-379.533 828,-371 836.908,-368.352 846.479,-365.747 855.704,-363.356"/>
<polygon fill="black" stroke="black" points="856.38,-364.989 860.788,-362.051 855.509,-361.599 856.38,-364.989"/>
</g>
<!-- paramtk.ScrolledFrame -->
<g id="node69" class="node"><title>paramtk.ScrolledFrame</title>
<polygon fill="none" stroke="black" stroke-width="0.5" points="967,-552.5 839,-552.5 839,-531.5 967,-531.5 967,-552.5"/>
<text text-anchor="middle" x="903" y="-539.5" font-family="Vera" font-size="10.00">paramtk.ScrolledFrame</text>
</g>
<!-- Tkinter.Frame&#45;&gt;paramtk.ScrolledFrame -->
<g id="edge60" class="edge"><title>Tkinter.Frame&#45;&gt;paramtk.ScrolledFrame</title>
<path fill="none" stroke="black" stroke-width="0.5" d="M757.77,-412.099C769.962,-414.801 782.577,-419.596 792,-428 825.696,-458.055 794.304,-492.945 828,-523 830.757,-525.459 833.786,-527.608 836.999,-529.487"/>
<polygon fill="black" stroke="black" points="836.25,-531.071 841.485,-531.885 837.9,-527.984 836.25,-531.071"/>
</g>
<!-- paramtk.StatusBar -->
<g id="node79" class="node"><title>paramtk.StatusBar</title>
<polygon fill="none" stroke="black" stroke-width="0.5" points="957,-514.5 849,-514.5 849,-493.5 957,-493.5 957,-514.5"/>
<text text-anchor="middle" x="903" y="-501.5" font-family="Vera" font-size="10.00">paramtk.StatusBar</text>
</g>
<!-- Tkinter.Frame&#45;&gt;paramtk.StatusBar -->
<g id="edge76" class="edge"><title>Tkinter.Frame&#45;&gt;paramtk.StatusBar</title>
<path fill="none" stroke="black" stroke-width="0.5" d="M757.59,-413.466C769.5,-416.246 781.999,-420.742 792,-428 816.25,-445.599 803.75,-467.401 828,-485 832.841,-488.513 838.267,-491.379 843.929,-493.717"/>
<polygon fill="black" stroke="black" points="843.437,-495.402 848.732,-495.559 844.69,-492.134 843.437,-495.402"/>
</g>
<!-- paramtk.Balloon -->
<g id="node7" class="node"><title>paramtk.Balloon</title>
<polygon fill="none" stroke="black" stroke-width="0.5" points="764,-210.5 670,-210.5 670,-189.5 764,-189.5 764,-210.5"/>
<text text-anchor="middle" x="717" y="-197.5" font-family="Vera" font-size="10.00">paramtk.Balloon</text>
</g>
<!-- Tkinter.Widget -->
<g id="node8" class="node"><title>Tkinter.Widget</title>
<polygon fill="none" stroke="black" stroke-width="0.5" points="565,-286.5 483,-286.5 483,-265.5 565,-265.5 565,-286.5"/>
<text text-anchor="middle" x="524" y="-273.5" font-family="Vera" font-size="10.00">Tkinter.Widget</text>
</g>
<!-- Tkinter.Widget&#45;&gt;Tkinter.Frame -->
<g id="edge78" class="edge"><title>Tkinter.Widget&#45;&gt;Tkinter.Frame</title>
<path fill="none" stroke="black" stroke-width="0.5" d="M538.824,-286.215C573.431,-310.064 659.514,-369.385 697.946,-395.869"/>
<polygon fill="black" stroke="black" points="697.28,-397.536 702.39,-398.932 699.266,-394.654 697.28,-397.536"/>
</g>
<!-- Tkinter.Widget&#45;&gt;paramtk.Balloon -->
<g id="edge6" class="edge"><title>Tkinter.Widget&#45;&gt;paramtk.Balloon</title>
<path fill="none" stroke="black" stroke-width="0.5" d="M541.899,-265.939C564.601,-253.514 605.228,-232.383 642,-219 649.735,-216.185 658.065,-213.629 666.261,-211.369"/>
<polygon fill="black" stroke="black" points="666.968,-212.991 671.34,-210 666.057,-209.611 666.968,-212.991"/>
</g>
<!-- Tkinter.Menu -->
<g id="node29" class="node"><title>Tkinter.Menu</title>
<polygon fill="none" stroke="black" stroke-width="0.5" points="755,-286.5 679,-286.5 679,-265.5 755,-265.5 755,-286.5"/>
<text text-anchor="middle" x="717" y="-273.5" font-family="Vera" font-size="10.00">Tkinter.Menu</text>
</g>
<!-- Tkinter.Widget&#45;&gt;Tkinter.Menu -->
<g id="edge22" class="edge"><title>Tkinter.Widget&#45;&gt;Tkinter.Menu</title>
<path fill="none" stroke="black" stroke-width="0.5" d="M565.878,-276C597.659,-276 641.226,-276 673.418,-276"/>
<polygon fill="black" stroke="black" points="673.483,-277.75 678.483,-276 673.483,-274.25 673.483,-277.75"/>
</g>
<!-- Tkinter.Button -->
<g id="node61" class="node"><title>Tkinter.Button</title>
<polygon fill="none" stroke="black" stroke-width="0.5" points="758,-248.5 676,-248.5 676,-227.5 758,-227.5 758,-248.5"/>
<text text-anchor="middle" x="717" y="-235.5" font-family="Vera" font-size="10.00">Tkinter.Button</text>
</g>
<!-- Tkinter.Widget&#45;&gt;Tkinter.Button -->
<g id="edge54" class="edge"><title>Tkinter.Widget&#45;&gt;Tkinter.Button</title>
<path fill="none" stroke="black" stroke-width="0.5" d="M565.878,-267.755C596.607,-261.704 638.353,-253.485 670.183,-247.218"/>
<polygon fill="black" stroke="black" points="670.636,-248.912 675.204,-246.229 669.96,-245.478 670.636,-248.912"/>
</g>
<!-- paramtk.Scrodget -->
<g id="node76" class="node"><title>paramtk.Scrodget</title>
<polygon fill="none" stroke="black" stroke-width="0.5" points="769,-457.5 665,-457.5 665,-436.5 769,-436.5 769,-457.5"/>
<text text-anchor="middle" x="717" y="-444.5" font-family="Vera" font-size="10.00">paramtk.Scrodget</text>
</g>
<!-- Tkinter.Widget&#45;&gt;paramtk.Scrodget -->
<g id="edge74" class="edge"><title>Tkinter.Widget&#45;&gt;paramtk.Scrodget</title>
<path fill="none" stroke="black" stroke-width="0.5" d="M528.757,-286.015C542.296,-313.389 583.853,-389.955 642,-428 647.464,-431.575 653.557,-434.477 659.843,-436.833"/>
<polygon fill="black" stroke="black" points="659.383,-438.527 664.68,-438.531 660.542,-435.224 659.383,-438.527"/>
</g>
<!-- param.parameterized.Parameterized -->
<g id="node10" class="node"><title>param.parameterized.Parameterized</title>
<polygon fill="none" stroke="black" stroke-width="0.5" points="406,-571.5 212,-571.5 212,-550.5 406,-550.5 406,-571.5"/>
<text text-anchor="middle" x="309" y="-558.5" font-family="Vera" font-size="10.00">param.parameterized.Parameterized</text>
</g>
<!-- paramtk.TkParameterizedBase -->
<g id="node59" class="node"><title>paramtk.TkParameterizedBase</title>
<polygon fill="none" stroke="black" stroke-width="0.5" points="606,-590.5 442,-590.5 442,-569.5 606,-569.5 606,-590.5"/>
<text text-anchor="middle" x="524" y="-577.5" font-family="Vera" font-size="10.00">paramtk.TkParameterizedBase</text>
</g>
<!-- param.parameterized.Parameterized&#45;&gt;paramtk.TkParameterizedBase -->
<g id="edge66" class="edge"><title>param.parameterized.Parameterized&#45;&gt;paramtk.TkParameterizedBase</title>
<path fill="none" stroke="black" stroke-width="0.5" d="M406.121,-569.583C416.261,-570.479 426.525,-571.386 436.548,-572.272"/>
<polygon fill="black" stroke="black" points="436.631,-574.036 441.766,-572.733 436.939,-570.549 436.631,-574.036"/>
</g>
<!-- paramtk.Representer -->
<g id="node64" class="node"><title>paramtk.Representer</title>
<polygon fill="none" stroke="black" stroke-width="0.5" points="583,-552.5 465,-552.5 465,-531.5 583,-531.5 583,-552.5"/>
<text text-anchor="middle" x="524" y="-539.5" font-family="Vera" font-size="10.00">paramtk.Representer</text>
</g>
<!-- param.parameterized.Parameterized&#45;&gt;paramtk.Representer -->
<g id="edge64" class="edge"><title>param.parameterized.Parameterized&#45;&gt;paramtk.Representer</title>
<path fill="none" stroke="black" stroke-width="0.5" d="M406.121,-552.417C424.274,-550.813 442.826,-549.174 459.679,-547.684"/>
<polygon fill="black" stroke="black" points="460.026,-549.41 464.853,-547.227 459.718,-545.924 460.026,-549.41"/>
</g>
<!-- paramtk.EditingParametersFrameWithApply -->
<g id="node13" class="node"><title>paramtk.EditingParametersFrameWithApply</title>
<polygon fill="none" stroke="black" stroke-width="0.5" points="1466,-590.5 1242,-590.5 1242,-569.5 1466,-569.5 1466,-590.5"/>
<text text-anchor="middle" x="1354" y="-577.5" font-family="Vera" font-size="10.00">paramtk.EditingParametersFrameWithApply</text>
</g>
<!-- paramtk.ParametersFrameWithApply -->
<g id="node14" class="node"><title>paramtk.ParametersFrameWithApply</title>
<polygon fill="none" stroke="black" stroke-width="0.5" points="1206,-590.5 1014,-590.5 1014,-569.5 1206,-569.5 1206,-590.5"/>
<text text-anchor="middle" x="1110" y="-577.5" font-family="Vera" font-size="10.00">paramtk.ParametersFrameWithApply</text>
</g>
<!-- paramtk.ParametersFrameWithApply&#45;&gt;paramtk.EditingParametersFrameWithApply -->
<g id="edge10" class="edge"><title>paramtk.ParametersFrameWithApply&#45;&gt;paramtk.EditingParametersFrameWithApply</title>
<path fill="none" stroke="black" stroke-width="0.5" d="M1206.09,-580C1216.17,-580 1226.5,-580 1236.79,-580"/>
<polygon fill="black" stroke="black" points="1236.84,-581.75 1241.84,-580 1236.84,-578.25 1236.84,-581.75"/>
</g>
<!-- paramtk.ToolTip -->
<g id="node18" class="node"><title>paramtk.ToolTip</title>
<polygon fill="none" stroke="black" stroke-width="0.5" points="763,-172.5 671,-172.5 671,-151.5 763,-151.5 763,-172.5"/>
<text text-anchor="middle" x="717" y="-159.5" font-family="Vera" font-size="10.00">paramtk.ToolTip</text>
</g>
<!-- Tkinter.Toplevel -->
<g id="node19" class="node"><title>Tkinter.Toplevel</title>
<polygon fill="none" stroke="black" stroke-width="0.5" points="568,-172.5 480,-172.5 480,-151.5 568,-151.5 568,-172.5"/>
<text text-anchor="middle" x="524" y="-159.5" font-family="Vera" font-size="10.00">Tkinter.Toplevel</text>
</g>
<!-- Tkinter.Toplevel&#45;&gt;paramtk.ToolTip -->
<g id="edge14" class="edge"><title>Tkinter.Toplevel&#45;&gt;paramtk.ToolTip</title>
<path fill="none" stroke="black" stroke-width="0.5" d="M568.763,-162C597.711,-162 635.478,-162 665.646,-162"/>
<polygon fill="black" stroke="black" points="665.802,-163.75 670.802,-162 665.802,-160.25 665.802,-163.75"/>
</g>
<!-- paramtk.ScrolledWindow -->
<g id="node46" class="node"><title>paramtk.ScrolledWindow</title>
<polygon fill="none" stroke="black" stroke-width="0.5" points="784,-134.5 650,-134.5 650,-113.5 784,-113.5 784,-134.5"/>
<text text-anchor="middle" x="717" y="-121.5" font-family="Vera" font-size="10.00">paramtk.ScrolledWindow</text>
</g>
<!-- Tkinter.Toplevel&#45;&gt;paramtk.ScrolledWindow -->
<g id="edge62" class="edge"><title>Tkinter.Toplevel&#45;&gt;paramtk.ScrolledWindow</title>
<path fill="none" stroke="black" stroke-width="0.5" d="M568.763,-153.187C596.238,-147.777 631.656,-140.804 660.982,-135.03"/>
<polygon fill="black" stroke="black" points="661.44,-136.723 666.007,-134.04 660.764,-133.289 661.44,-136.723"/>
</g>
<!-- paramtk.ProgressController -->
<g id="node22" class="node"><title>paramtk.ProgressController</title>
<polygon fill="none" stroke="black" stroke-width="0.5" points="791,-324.5 643,-324.5 643,-303.5 791,-303.5 791,-324.5"/>
<text text-anchor="middle" x="717" y="-311.5" font-family="Vera" font-size="10.00">paramtk.ProgressController</text>
</g>
<!-- paramtk.ProgressController&#45;&gt;paramtk.ProgressWindow -->
<g id="edge16" class="edge"><title>paramtk.ProgressController&#45;&gt;paramtk.ProgressWindow</title>
<path fill="none" stroke="black" stroke-width="0.5" d="M791.582,-314C803.962,-314 816.797,-314 829.159,-314"/>
<polygon fill="black" stroke="black" points="829.426,-315.75 834.426,-314 829.426,-312.25 829.426,-315.75"/>
</g>
<!-- paramtk.CSPTranslator -->
<g id="node25" class="node"><title>paramtk.CSPTranslator</title>
<polygon fill="none" stroke="black" stroke-width="0.5" points="587,-96.5 461,-96.5 461,-75.5 587,-75.5 587,-96.5"/>
<text text-anchor="middle" x="524" y="-83.5" font-family="Vera" font-size="10.00">paramtk.CSPTranslator</text>
</g>
<!-- paramtk.String_ObjectTranslator&#45;&gt;paramtk.CSPTranslator -->
<g id="edge20" class="edge"><title>paramtk.String_ObjectTranslator&#45;&gt;paramtk.CSPTranslator</title>
<path fill="none" stroke="black" stroke-width="0.5" d="M394.591,-86C414.822,-86 436.133,-86 455.493,-86"/>
<polygon fill="black" stroke="black" points="455.899,-87.7501 460.899,-86 455.899,-84.2501 455.899,-87.7501"/>
</g>
<!-- Tkinter.Wm -->
<g id="node28" class="node"><title>Tkinter.Wm</title>
<polygon fill="none" stroke="black" stroke-width="0.5" points="343,-172.5 275,-172.5 275,-151.5 343,-151.5 343,-172.5"/>
<text text-anchor="middle" x="309" y="-159.5" font-family="Vera" font-size="10.00">Tkinter.Wm</text>
</g>
<!-- Tkinter.Wm&#45;&gt;Tkinter.Toplevel -->
<g id="edge46" class="edge"><title>Tkinter.Wm&#45;&gt;Tkinter.Toplevel</title>
<path fill="none" stroke="black" stroke-width="0.5" d="M343.543,-162C378.874,-162 434.11,-162 474.169,-162"/>
<polygon fill="black" stroke="black" points="474.47,-163.75 479.47,-162 474.47,-160.25 474.47,-163.75"/>
</g>
<!-- paramtk.Menu -->
<g id="node38" class="node"><title>paramtk.Menu</title>
<polygon fill="none" stroke="black" stroke-width="0.5" points="946,-286.5 860,-286.5 860,-265.5 946,-265.5 946,-286.5"/>
<text text-anchor="middle" x="903" y="-273.5" font-family="Vera" font-size="10.00">paramtk.Menu</text>
</g>
<!-- Tkinter.Menu&#45;&gt;paramtk.Menu -->
<g id="edge28" class="edge"><title>Tkinter.Menu&#45;&gt;paramtk.Menu</title>
<path fill="none" stroke="black" stroke-width="0.5" d="M755.539,-276C784.308,-276 823.811,-276 854.69,-276"/>
<polygon fill="black" stroke="black" points="854.959,-277.75 859.959,-276 854.959,-274.25 854.959,-277.75"/>
</g>
<!-- Tkinter.Pack -->
<g id="node31" class="node"><title>Tkinter.Pack</title>
<polygon fill="none" stroke="black" stroke-width="0.5" points="345,-324.5 273,-324.5 273,-303.5 345,-303.5 345,-324.5"/>
<text text-anchor="middle" x="309" y="-311.5" font-family="Vera" font-size="10.00">Tkinter.Pack</text>
</g>
<!-- Tkinter.Pack&#45;&gt;Tkinter.Widget -->
<g id="edge38" class="edge"><title>Tkinter.Pack&#45;&gt;Tkinter.Widget</title>
<path fill="none" stroke="black" stroke-width="0.5" d="M345.96,-307.468C382.269,-301.05 437.801,-291.235 477.179,-284.275"/>
<polygon fill="black" stroke="black" points="477.764,-285.949 482.383,-283.356 477.154,-282.503 477.764,-285.949"/>
</g>
<!-- paramtk.Button -->
<g id="node32" class="node"><title>paramtk.Button</title>
<polygon fill="none" stroke="black" stroke-width="0.5" points="570,-628.5 478,-628.5 478,-607.5 570,-607.5 570,-628.5"/>
<text text-anchor="middle" x="524" y="-615.5" font-family="Vera" font-size="10.00">paramtk.Button</text>
</g>
<!-- param.Callable -->
<g id="node33" class="node"><title>param.Callable</title>
<polygon fill="none" stroke="black" stroke-width="0.5" points="353,-628.5 265,-628.5 265,-607.5 353,-607.5 353,-628.5"/>
<text text-anchor="middle" x="309" y="-615.5" font-family="Vera" font-size="10.00">param.Callable</text>
</g>
<!-- param.Callable&#45;&gt;paramtk.Button -->
<g id="edge24" class="edge"><title>param.Callable&#45;&gt;paramtk.Button</title>
<path fill="none" stroke="black" stroke-width="0.5" d="M353.548,-618C388.132,-618 436.136,-618 472.391,-618"/>
<polygon fill="black" stroke="black" points="472.652,-619.75 477.652,-618 472.652,-616.25 472.652,-619.75"/>
</g>
<!-- paramtk.ParametersFrame&#45;&gt;paramtk.ParametersFrameWithApply -->
<g id="edge26" class="edge"><title>paramtk.ParametersFrame&#45;&gt;paramtk.ParametersFrameWithApply</title>
<path fill="none" stroke="black" stroke-width="0.5" d="M976.272,-580C986.862,-580 997.915,-580 1008.93,-580"/>
<polygon fill="black" stroke="black" points="1008.99,-581.75 1013.99,-580 1008.99,-578.25 1008.99,-581.75"/>
</g>
<!-- Tkinter.Place -->
<g id="node37" class="node"><title>Tkinter.Place</title>
<polygon fill="none" stroke="black" stroke-width="0.5" points="347,-286.5 271,-286.5 271,-265.5 347,-265.5 347,-286.5"/>
<text text-anchor="middle" x="309" y="-273.5" font-family="Vera" font-size="10.00">Tkinter.Place</text>
</g>
<!-- Tkinter.Place&#45;&gt;Tkinter.Widget -->
<g id="edge40" class="edge"><title>Tkinter.Place&#45;&gt;Tkinter.Widget</title>
<path fill="none" stroke="black" stroke-width="0.5" d="M347.935,-276C384.299,-276 438.629,-276 477.308,-276"/>
<polygon fill="black" stroke="black" points="477.42,-277.75 482.42,-276 477.42,-274.25 477.42,-277.75"/>
</g>
<!-- Tkinter.Grid -->
<g id="node40" class="node"><title>Tkinter.Grid</title>
<polygon fill="none" stroke="black" stroke-width="0.5" points="344,-248.5 274,-248.5 274,-227.5 344,-227.5 344,-248.5"/>
<text text-anchor="middle" x="309" y="-235.5" font-family="Vera" font-size="10.00">Tkinter.Grid</text>
</g>
<!-- Tkinter.Grid&#45;&gt;Tkinter.Widget -->
<g id="edge42" class="edge"><title>Tkinter.Grid&#45;&gt;Tkinter.Widget</title>
<path fill="none" stroke="black" stroke-width="0.5" d="M344.503,-244.275C380.687,-250.67 437.012,-260.625 476.905,-267.676"/>
<polygon fill="black" stroke="black" points="476.947,-269.461 482.175,-268.608 477.556,-266.014 476.947,-269.461"/>
</g>
<!-- Tkinter.BaseWidget -->
<g id="node41" class="node"><title>Tkinter.BaseWidget</title>
<polygon fill="none" stroke="black" stroke-width="0.5" points="362,-210.5 256,-210.5 256,-189.5 362,-189.5 362,-210.5"/>
<text text-anchor="middle" x="309" y="-197.5" font-family="Vera" font-size="10.00">Tkinter.BaseWidget</text>
</g>
<!-- Tkinter.BaseWidget&#45;&gt;Tkinter.Widget -->
<g id="edge36" class="edge"><title>Tkinter.BaseWidget&#45;&gt;Tkinter.Widget</title>
<path fill="none" stroke="black" stroke-width="0.5" d="M362.75,-207.983C377,-210.787 392.243,-214.415 406,-219 441.006,-230.667 479.019,-250.43 502.178,-263.347"/>
<polygon fill="black" stroke="black" points="501.39,-264.912 506.607,-265.835 503.105,-261.86 501.39,-264.912"/>
</g>
<!-- Tkinter.BaseWidget&#45;&gt;Tkinter.Toplevel -->
<g id="edge44" class="edge"><title>Tkinter.BaseWidget&#45;&gt;Tkinter.Toplevel</title>
<path fill="none" stroke="black" stroke-width="0.5" d="M362.699,-190.509C396.819,-184.479 440.681,-176.726 474.052,-170.828"/>
<polygon fill="black" stroke="black" points="474.695,-172.492 479.314,-169.898 474.086,-169.045 474.695,-172.492"/>
</g>
<!-- Tkinter.Misc -->
<g id="node42" class="node"><title>Tkinter.Misc</title>
<polygon fill="none" stroke="black" stroke-width="0.5" points="124,-210.5 52,-210.5 52,-189.5 124,-189.5 124,-210.5"/>
<text text-anchor="middle" x="88" y="-197.5" font-family="Vera" font-size="10.00">Tkinter.Misc</text>
</g>
<!-- Tkinter.Misc&#45;&gt;Tkinter.BaseWidget -->
<g id="edge30" class="edge"><title>Tkinter.Misc&#45;&gt;Tkinter.BaseWidget</title>
<path fill="none" stroke="black" stroke-width="0.5" d="M124.494,-200C158.637,-200 210.226,-200 250.18,-200"/>
<polygon fill="black" stroke="black" points="250.489,-201.75 255.489,-200 250.489,-198.25 250.489,-201.75"/>
</g>
<!-- paramtk.AppWindow -->
<g id="node45" class="node"><title>paramtk.AppWindow</title>
<polygon fill="none" stroke="black" stroke-width="0.5" points="960,-134.5 846,-134.5 846,-113.5 960,-113.5 960,-134.5"/>
<text text-anchor="middle" x="903" y="-121.5" font-family="Vera" font-size="10.00">paramtk.AppWindow</text>
</g>
<!-- paramtk.ScrolledWindow&#45;&gt;paramtk.AppWindow -->
<g id="edge34" class="edge"><title>paramtk.ScrolledWindow&#45;&gt;paramtk.AppWindow</title>
<path fill="none" stroke="black" stroke-width="0.5" d="M784.15,-124C802.603,-124 822.53,-124 840.697,-124"/>
<polygon fill="black" stroke="black" points="840.771,-125.75 845.771,-124 840.771,-122.25 840.771,-125.75"/>
</g>
<!-- paramtk.BoolTranslator -->
<g id="node67" class="node"><title>paramtk.BoolTranslator</title>
<polygon fill="none" stroke="black" stroke-width="0.5" points="588,-58.5 460,-58.5 460,-37.5 588,-37.5 588,-58.5"/>
<text text-anchor="middle" x="524" y="-45.5" font-family="Vera" font-size="10.00">paramtk.BoolTranslator</text>
</g>
<!-- paramtk.DoNothingTranslator&#45;&gt;paramtk.BoolTranslator -->
<g id="edge58" class="edge"><title>paramtk.DoNothingTranslator&#45;&gt;paramtk.BoolTranslator</title>
<path fill="none" stroke="black" stroke-width="0.5" d="M388.142,-48C409.979,-48 433.497,-48 454.728,-48"/>
<polygon fill="black" stroke="black" points="454.788,-49.7501 459.788,-48 454.788,-46.2501 454.788,-49.7501"/>
</g>
<!-- paramtk.TkParameterized -->
<g id="node58" class="node"><title>paramtk.TkParameterized</title>
<polygon fill="none" stroke="black" stroke-width="0.5" points="787,-590.5 647,-590.5 647,-569.5 787,-569.5 787,-590.5"/>
<text text-anchor="middle" x="717" y="-577.5" font-family="Vera" font-size="10.00">paramtk.TkParameterized</text>
</g>
<!-- paramtk.TkParameterized&#45;&gt;paramtk.ParametersFrame -->
<g id="edge68" class="edge"><title>paramtk.TkParameterized&#45;&gt;paramtk.ParametersFrame</title>
<path fill="none" stroke="black" stroke-width="0.5" d="M787.054,-580C799.308,-580 812.13,-580 824.593,-580"/>
<polygon fill="black" stroke="black" points="824.909,-581.75 829.909,-580 824.909,-578.25 824.909,-581.75"/>
</g>
<!-- paramtk.TkParameterizedBase&#45;&gt;paramtk.TkParameterized -->
<g id="edge52" class="edge"><title>paramtk.TkParameterizedBase&#45;&gt;paramtk.TkParameterized</title>
<path fill="none" stroke="black" stroke-width="0.5" d="M606.129,-580C617.873,-580 629.908,-580 641.516,-580"/>
<polygon fill="black" stroke="black" points="641.817,-581.75 646.817,-580 641.817,-578.25 641.817,-581.75"/>
</g>
<!-- paramtk.FocusTakingButton -->
<g id="node86" class="node"><title>paramtk.FocusTakingButton</title>
<polygon fill="none" stroke="black" stroke-width="0.5" points="977,-248.5 829,-248.5 829,-227.5 977,-227.5 977,-248.5"/>
<text text-anchor="middle" x="903" y="-235.5" font-family="Vera" font-size="10.00">paramtk.FocusTakingButton</text>
</g>
<!-- Tkinter.Button&#45;&gt;paramtk.FocusTakingButton -->
<g id="edge84" class="edge"><title>Tkinter.Button&#45;&gt;paramtk.FocusTakingButton</title>
<path fill="none" stroke="black" stroke-width="0.5" d="M758.742,-238C777.861,-238 801.182,-238 823.453,-238"/>
<polygon fill="black" stroke="black" points="823.485,-239.75 828.485,-238 823.485,-236.25 823.485,-239.75"/>
</g>
<!-- paramtk.ListRepresenter -->
<g id="node63" class="node"><title>paramtk.ListRepresenter</title>
<polygon fill="none" stroke="black" stroke-width="0.5" points="784,-552.5 650,-552.5 650,-531.5 784,-531.5 784,-552.5"/>
<text text-anchor="middle" x="717" y="-539.5" font-family="Vera" font-size="10.00">paramtk.ListRepresenter</text>
</g>
<!-- paramtk.Representer&#45;&gt;paramtk.ListRepresenter -->
<g id="edge56" class="edge"><title>paramtk.Representer&#45;&gt;paramtk.ListRepresenter</title>
<path fill="none" stroke="black" stroke-width="0.5" d="M583.218,-542C602.627,-542 624.413,-542 644.678,-542"/>
<polygon fill="black" stroke="black" points="644.795,-543.75 649.795,-542 644.795,-540.25 644.795,-543.75"/>
</g>
<!-- paramtk.ScrodgetWidget -->
<g id="node66" class="node"><title>paramtk.ScrodgetWidget</title>
<polygon fill="none" stroke="black" stroke-width="0.5" points="592,-457.5 456,-457.5 456,-436.5 592,-436.5 592,-457.5"/>
<text text-anchor="middle" x="524" y="-444.5" font-family="Vera" font-size="10.00">paramtk.ScrodgetWidget</text>
</g>
<!-- paramtk.ScrodgetWidget&#45;&gt;paramtk.Scrodget -->
<g id="edge72" class="edge"><title>paramtk.ScrodgetWidget&#45;&gt;paramtk.Scrodget</title>
<path fill="none" stroke="black" stroke-width="0.5" d="M592.045,-447C614.148,-447 638.44,-447 659.681,-447"/>
<polygon fill="black" stroke="black" points="659.728,-448.75 664.728,-447 659.728,-445.25 659.728,-448.75"/>
</g>
<!-- param.parameterized.Parameter -->
<g id="node84" class="node"><title>param.parameterized.Parameter</title>
<polygon fill="none" stroke="black" stroke-width="0.5" points="175,-628.5 1,-628.5 1,-607.5 175,-607.5 175,-628.5"/>
<text text-anchor="middle" x="88" y="-615.5" font-family="Vera" font-size="10.00">param.parameterized.Parameter</text>
</g>
<!-- param.parameterized.Parameter&#45;&gt;param.Callable -->
<g id="edge82" class="edge"><title>param.parameterized.Parameter&#45;&gt;param.Callable</title>
<path fill="none" stroke="black" stroke-width="0.5" d="M175.662,-618C204.015,-618 234.464,-618 259.097,-618"/>
<polygon fill="black" stroke="black" points="259.263,-619.75 264.263,-618 259.263,-616.25 259.263,-619.75"/>
</g>
</g>
</svg>
