<?xml version="1.0" encoding="UTF-8" standalone="no"?>
<!DOCTYPE svg PUBLIC "-//W3C//DTD SVG 1.1//EN"
 "http://www.w3.org/Graphics/SVG/1.1/DTD/svg11.dtd">
<!-- Generated by graphviz version 2.26.3 (20100126.1600)
 -->
<!-- Title: inheritancef4cea304dd Pages: 1 -->
<svg width="1136pt" height="256pt"
 viewBox="0.00 0.00 1136.00 256.00" xmlns="http://www.w3.org/2000/svg" xmlns:xlink="http://www.w3.org/1999/xlink">
<g id="graph1" class="graph" transform="scale(1 1) rotate(0) translate(4 252)">
<title>inheritancef4cea304dd</title>
<polygon fill="white" stroke="white" points="-4,5 -4,-252 1133,-252 1133,5 -4,5"/>
<!-- dataviews.sheetcoords.SheetCoordinateSystem -->
<g id="node1" class="node"><title>dataviews.sheetcoords.SheetCoordinateSystem</title>
<polygon fill="none" stroke="black" stroke-width="0.5" points="477,-248.5 231,-248.5 231,-227.5 477,-227.5 477,-248.5"/>
<text text-anchor="middle" x="354" y="-235.5" font-family="Vera" font-size="10.00">dataviews.sheetcoords.SheetCoordinateSystem</text>
</g>
<!-- topo.base.sheet.Sheet -->
<g id="node2" class="node"><title>topo.base.sheet.Sheet</title>
<polygon fill="none" stroke="black" stroke-width="0.5" points="660,-248.5 534,-248.5 534,-227.5 660,-227.5 660,-248.5"/>
<text text-anchor="middle" x="597" y="-235.5" font-family="Vera" font-size="10.00">topo.base.sheet.Sheet</text>
</g>
<!-- dataviews.sheetcoords.SheetCoordinateSystem&#45;&gt;topo.base.sheet.Sheet -->
<g id="edge4" class="edge"><title>dataviews.sheetcoords.SheetCoordinateSystem&#45;&gt;topo.base.sheet.Sheet</title>
<path fill="none" stroke="black" stroke-width="0.5" d="M477.636,-238C495.122,-238 512.549,-238 528.468,-238"/>
<polygon fill="black" stroke="black" points="528.806,-239.75 533.806,-238 528.806,-236.25 528.806,-239.75"/>
</g>
<!-- topo.base.projection.ProjectionSheet -->
<g id="node13" class="node"><title>topo.base.projection.ProjectionSheet</title>
<polygon fill="none" stroke="black" stroke-width="0.5" points="910,-248.5 716,-248.5 716,-227.5 910,-227.5 910,-248.5"/>
<text text-anchor="middle" x="813" y="-235.5" font-family="Vera" font-size="10.00">topo.base.projection.ProjectionSheet</text>
</g>
<!-- topo.base.sheet.Sheet&#45;&gt;topo.base.projection.ProjectionSheet -->
<g id="edge12" class="edge"><title>topo.base.sheet.Sheet&#45;&gt;topo.base.projection.ProjectionSheet</title>
<path fill="none" stroke="black" stroke-width="0.5" d="M660.057,-238C675.856,-238 693.216,-238 710.394,-238"/>
<polygon fill="black" stroke="black" points="710.717,-239.75 715.717,-238 710.717,-236.25 710.717,-239.75"/>
</g>
<!-- topo.base.simulation.EventProcessor -->
<g id="node3" class="node"><title>topo.base.simulation.EventProcessor</title>
<polygon fill="none" stroke="black" stroke-width="0.5" points="451,-210.5 257,-210.5 257,-189.5 451,-189.5 451,-210.5"/>
<text text-anchor="middle" x="354" y="-197.5" font-family="Vera" font-size="10.00">topo.base.simulation.EventProcessor</text>
</g>
<!-- topo.base.simulation.EventProcessor&#45;&gt;topo.base.sheet.Sheet -->
<g id="edge2" class="edge"><title>topo.base.simulation.EventProcessor&#45;&gt;topo.base.sheet.Sheet</title>
<path fill="none" stroke="black" stroke-width="0.5" d="M419.974,-210.03C438.729,-212.903 459.172,-216.055 478,-219 494.672,-221.608 512.651,-224.459 529.458,-227.14"/>
<polygon fill="black" stroke="black" points="529.42,-228.907 534.634,-227.967 529.972,-225.45 529.42,-228.907"/>
</g>
<!-- topo.base.cf.CFPLearningFn -->
<g id="node6" class="node"><title>topo.base.cf.CFPLearningFn</title>
<polygon fill="none" stroke="black" stroke-width="0.5" points="428,-172.5 280,-172.5 280,-151.5 428,-151.5 428,-172.5"/>
<text text-anchor="middle" x="354" y="-159.5" font-family="Vera" font-size="10.00">topo.base.cf.CFPLearningFn</text>
</g>
<!-- topo.base.cf.CFPLF_Identity -->
<g id="node21" class="node"><title>topo.base.cf.CFPLF_Identity</title>
<polygon fill="none" stroke="black" stroke-width="0.5" points="670,-210.5 524,-210.5 524,-189.5 670,-189.5 670,-210.5"/>
<text text-anchor="middle" x="597" y="-197.5" font-family="Vera" font-size="10.00">topo.base.cf.CFPLF_Identity</text>
</g>
<!-- topo.base.cf.CFPLearningFn&#45;&gt;topo.base.cf.CFPLF_Identity -->
<g id="edge20" class="edge"><title>topo.base.cf.CFPLearningFn&#45;&gt;topo.base.cf.CFPLF_Identity</title>
<path fill="none" stroke="black" stroke-width="0.5" d="M419.974,-172.03C438.729,-174.903 459.172,-178.055 478,-181 494.672,-183.608 512.651,-186.459 529.458,-189.14"/>
<polygon fill="black" stroke="black" points="529.42,-190.907 534.634,-189.967 529.972,-187.45 529.42,-190.907"/>
</g>
<!-- topo.base.cf.CFPLF_Plugin -->
<g id="node26" class="node"><title>topo.base.cf.CFPLF_Plugin</title>
<polygon fill="none" stroke="black" stroke-width="0.5" points="667,-172.5 527,-172.5 527,-151.5 667,-151.5 667,-172.5"/>
<text text-anchor="middle" x="597" y="-159.5" font-family="Vera" font-size="10.00">topo.base.cf.CFPLF_Plugin</text>
</g>
<!-- topo.base.cf.CFPLearningFn&#45;&gt;topo.base.cf.CFPLF_Plugin -->
<g id="edge24" class="edge"><title>topo.base.cf.CFPLearningFn&#45;&gt;topo.base.cf.CFPLF_Plugin</title>
<path fill="none" stroke="black" stroke-width="0.5" d="M428.559,-162C458.101,-162 492.018,-162 521.639,-162"/>
<polygon fill="black" stroke="black" points="521.735,-163.75 526.735,-162 521.735,-160.25 521.735,-163.75"/>
</g>
<!-- param.parameterized.Parameterized -->
<g id="node7" class="node"><title>param.parameterized.Parameterized</title>
<polygon fill="none" stroke="black" stroke-width="0.5" points="194,-129.5 5.68434e-14,-129.5 0,-108.5 194,-108.5 194,-129.5"/>
<text text-anchor="middle" x="97" y="-116.5" font-family="Vera" font-size="10.00">param.parameterized.Parameterized</text>
</g>
<!-- param.parameterized.Parameterized&#45;&gt;topo.base.simulation.EventProcessor -->
<g id="edge18" class="edge"><title>param.parameterized.Parameterized&#45;&gt;topo.base.simulation.EventProcessor</title>
<path fill="none" stroke="black" stroke-width="0.5" d="M174.515,-129.122C181.337,-131.502 187.942,-134.421 194,-138 215.46,-150.678 208.283,-168.769 230,-181 236.915,-184.894 244.373,-188.065 252.08,-190.639"/>
<polygon fill="black" stroke="black" points="251.613,-192.327 256.908,-192.165 252.669,-188.989 251.613,-192.327"/>
</g>
<!-- param.parameterized.Parameterized&#45;&gt;topo.base.cf.CFPLearningFn -->
<g id="edge6" class="edge"><title>param.parameterized.Parameterized&#45;&gt;topo.base.cf.CFPLearningFn</title>
<path fill="none" stroke="black" stroke-width="0.5" d="M156.931,-129.027C196.393,-135.63 248.056,-144.274 288.585,-151.055"/>
<polygon fill="black" stroke="black" points="288.754,-152.858 293.974,-151.957 289.332,-149.406 288.754,-152.858"/>
</g>
<!-- topo.base.cf.CFPOutputFn -->
<g id="node10" class="node"><title>topo.base.cf.CFPOutputFn</title>
<polygon fill="none" stroke="black" stroke-width="0.5" points="424,-129.5 284,-129.5 284,-108.5 424,-108.5 424,-129.5"/>
<text text-anchor="middle" x="354" y="-116.5" font-family="Vera" font-size="10.00">topo.base.cf.CFPOutputFn</text>
</g>
<!-- param.parameterized.Parameterized&#45;&gt;topo.base.cf.CFPOutputFn -->
<g id="edge10" class="edge"><title>param.parameterized.Parameterized&#45;&gt;topo.base.cf.CFPOutputFn</title>
<path fill="none" stroke="black" stroke-width="0.5" d="M194.161,-119C222.145,-119 252.242,-119 278.689,-119"/>
<polygon fill="black" stroke="black" points="278.928,-120.75 283.928,-119 278.927,-117.25 278.928,-120.75"/>
</g>
<!-- topo.base.simulation.EPConnection -->
<g id="node15" class="node"><title>topo.base.simulation.EPConnection</title>
<polygon fill="none" stroke="black" stroke-width="0.5" points="447,-82.5 261,-82.5 261,-61.5 447,-61.5 447,-82.5"/>
<text text-anchor="middle" x="354" y="-69.5" font-family="Vera" font-size="10.00">topo.base.simulation.EPConnection</text>
</g>
<!-- param.parameterized.Parameterized&#45;&gt;topo.base.simulation.EPConnection -->
<g id="edge14" class="edge"><title>param.parameterized.Parameterized&#45;&gt;topo.base.simulation.EPConnection</title>
<path fill="none" stroke="black" stroke-width="0.5" d="M151.818,-108.975C193.607,-101.333 251.1,-90.8183 294.097,-82.955"/>
<polygon fill="black" stroke="black" points="294.663,-84.6306 299.267,-82.0096 294.033,-81.1877 294.663,-84.6306"/>
</g>
<!-- topo.base.cf.CFPResponseFn -->
<g id="node18" class="node"><title>topo.base.cf.CFPResponseFn</title>
<polygon fill="none" stroke="black" stroke-width="0.5" points="430,-25.5 278,-25.5 278,-4.5 430,-4.5 430,-25.5"/>
<text text-anchor="middle" x="354" y="-12.5" font-family="Vera" font-size="10.00">topo.base.cf.CFPResponseFn</text>
</g>
<!-- param.parameterized.Parameterized&#45;&gt;topo.base.cf.CFPResponseFn -->
<g id="edge30" class="edge"><title>param.parameterized.Parameterized&#45;&gt;topo.base.cf.CFPResponseFn</title>
<path fill="none" stroke="black" stroke-width="0.5" d="M115.07,-108.846C140.259,-94.9696 187.612,-69.881 230,-53 256.169,-42.5781 286.373,-33.2675 310.42,-26.4708"/>
<polygon fill="black" stroke="black" points="311.112,-28.0943 315.454,-25.0592 310.167,-24.7243 311.112,-28.0943"/>
</g>
<!-- topo.base.cf.CFPOF_Plugin -->
<g id="node9" class="node"><title>topo.base.cf.CFPOF_Plugin</title>
<polygon fill="none" stroke="black" stroke-width="0.5" points="668,-134.5 526,-134.5 526,-113.5 668,-113.5 668,-134.5"/>
<text text-anchor="middle" x="597" y="-121.5" font-family="Vera" font-size="10.00">topo.base.cf.CFPOF_Plugin</text>
</g>
<!-- topo.base.cf.CFPOutputFn&#45;&gt;topo.base.cf.CFPOF_Plugin -->
<g id="edge8" class="edge"><title>topo.base.cf.CFPOutputFn&#45;&gt;topo.base.cf.CFPOF_Plugin</title>
<path fill="none" stroke="black" stroke-width="0.5" d="M424.286,-120.446C454.232,-121.062 489.258,-121.783 519.912,-122.414"/>
<polygon fill="black" stroke="black" points="520.151,-124.169 525.186,-122.522 520.223,-120.67 520.151,-124.169"/>
</g>
<!-- topo.base.cf.CFPOF_Identity -->
<g id="node32" class="node"><title>topo.base.cf.CFPOF_Identity</title>
<polygon fill="none" stroke="black" stroke-width="0.5" points="671,-96.5 523,-96.5 523,-75.5 671,-75.5 671,-96.5"/>
<text text-anchor="middle" x="597" y="-83.5" font-family="Vera" font-size="10.00">topo.base.cf.CFPOF_Identity</text>
</g>
<!-- topo.base.cf.CFPOutputFn&#45;&gt;topo.base.cf.CFPOF_Identity -->
<g id="edge28" class="edge"><title>topo.base.cf.CFPOutputFn&#45;&gt;topo.base.cf.CFPOF_Identity</title>
<path fill="none" stroke="black" stroke-width="0.5" d="M424.286,-109.455C453.569,-105.478 487.711,-100.842 517.871,-96.7459"/>
<polygon fill="black" stroke="black" points="518.345,-98.4478 523.064,-96.0408 517.873,-94.9796 518.345,-98.4478"/>
</g>
<!-- topo.base.cf.CFSheet -->
<g id="node35" class="node"><title>topo.base.cf.CFSheet</title>
<polygon fill="none" stroke="black" stroke-width="0.5" points="1096,-248.5 978,-248.5 978,-227.5 1096,-227.5 1096,-248.5"/>
<text text-anchor="middle" x="1037" y="-235.5" font-family="Vera" font-size="10.00">topo.base.cf.CFSheet</text>
</g>
<!-- topo.base.projection.ProjectionSheet&#45;&gt;topo.base.cf.CFSheet -->
<g id="edge32" class="edge"><title>topo.base.projection.ProjectionSheet&#45;&gt;topo.base.cf.CFSheet</title>
<path fill="none" stroke="black" stroke-width="0.5" d="M910.272,-238C931.101,-238 952.622,-238 971.885,-238"/>
<polygon fill="black" stroke="black" points="972.255,-239.75 977.255,-238 972.255,-236.25 972.255,-239.75"/>
</g>
<!-- topo.base.projection.Projection -->
<g id="node29" class="node"><title>topo.base.projection.Projection</title>
<polygon fill="none" stroke="black" stroke-width="0.5" points="679,-58.5 515,-58.5 515,-37.5 679,-37.5 679,-58.5"/>
<text text-anchor="middle" x="597" y="-45.5" font-family="Vera" font-size="10.00">topo.base.projection.Projection</text>
</g>
<!-- topo.base.simulation.EPConnection&#45;&gt;topo.base.projection.Projection -->
<g id="edge26" class="edge"><title>topo.base.simulation.EPConnection&#45;&gt;topo.base.projection.Projection</title>
<path fill="none" stroke="black" stroke-width="0.5" d="M447.255,-62.7896C467.614,-60.7789 489.093,-58.6575 509.229,-56.6687"/>
<polygon fill="black" stroke="black" points="509.514,-58.3992 514.318,-56.1661 509.17,-54.9161 509.514,-58.3992"/>
</g>
<!-- topo.base.cf.CFPRF_Plugin -->
<g id="node17" class="node"><title>topo.base.cf.CFPRF_Plugin</title>
<polygon fill="none" stroke="black" stroke-width="0.5" points="667,-20.5 527,-20.5 527,0.5 667,0.5 667,-20.5"/>
<text text-anchor="middle" x="597" y="-7.5" font-family="Vera" font-size="10.00">topo.base.cf.CFPRF_Plugin</text>
</g>
<!-- topo.base.cf.CFPResponseFn&#45;&gt;topo.base.cf.CFPRF_Plugin -->
<g id="edge16" class="edge"><title>topo.base.cf.CFPResponseFn&#45;&gt;topo.base.cf.CFPRF_Plugin</title>
<path fill="none" stroke="black" stroke-width="0.5" d="M430.553,-13.4248C459.366,-12.832 492.104,-12.1584 520.877,-11.5663"/>
<polygon fill="black" stroke="black" points="521.239,-13.3093 526.202,-11.4568 521.167,-9.81008 521.239,-13.3093"/>
</g>
<!-- topo.base.cf.ResizableCFProjection -->
<g id="node23" class="node"><title>topo.base.cf.ResizableCFProjection</title>
<polygon fill="none" stroke="black" stroke-width="0.5" points="1128,-58.5 946,-58.5 946,-37.5 1128,-37.5 1128,-58.5"/>
<text text-anchor="middle" x="1037" y="-45.5" font-family="Vera" font-size="10.00">topo.base.cf.ResizableCFProjection</text>
</g>
<!-- topo.base.cf.CFProjection -->
<g id="node24" class="node"><title>topo.base.cf.CFProjection</title>
<polygon fill="none" stroke="black" stroke-width="0.5" points="881,-58.5 745,-58.5 745,-37.5 881,-37.5 881,-58.5"/>
<text text-anchor="middle" x="813" y="-45.5" font-family="Vera" font-size="10.00">topo.base.cf.CFProjection</text>
</g>
<!-- topo.base.cf.CFProjection&#45;&gt;topo.base.cf.ResizableCFProjection -->
<g id="edge22" class="edge"><title>topo.base.cf.CFProjection&#45;&gt;topo.base.cf.ResizableCFProjection</title>
<path fill="none" stroke="black" stroke-width="0.5" d="M881.73,-48C900.343,-48 920.841,-48 940.67,-48"/>
<polygon fill="black" stroke="black" points="940.696,-49.7501 945.696,-48 940.696,-46.2501 940.696,-49.7501"/>
</g>
<!-- topo.base.cf.NullCFError -->
<g id="node28" class="node"><title>topo.base.cf.NullCFError</title>
<polygon fill="none" stroke="black" stroke-width="0.5" points="162,-167.5 32,-167.5 32,-146.5 162,-146.5 162,-167.5"/>
<text text-anchor="middle" x="97" y="-154.5" font-family="Vera" font-size="10.00">topo.base.cf.NullCFError</text>
</g>
<!-- topo.base.projection.Projection&#45;&gt;topo.base.cf.CFProjection -->
<g id="edge34" class="edge"><title>topo.base.projection.Projection&#45;&gt;topo.base.cf.CFProjection</title>
<path fill="none" stroke="black" stroke-width="0.5" d="M679.585,-48C699.071,-48 719.728,-48 738.817,-48"/>
<polygon fill="black" stroke="black" points="739.157,-49.7501 744.157,-48 739.157,-46.2501 739.157,-49.7501"/>
</g>
<!-- topo.base.cf.CFIter -->
<g id="node31" class="node"><title>topo.base.cf.CFIter</title>
<polygon fill="none" stroke="black" stroke-width="0.5" points="150,-205.5 44,-205.5 44,-184.5 150,-184.5 150,-205.5"/>
<text text-anchor="middle" x="97" y="-192.5" font-family="Vera" font-size="10.00">topo.base.cf.CFIter</text>
</g>
<!-- topo.base.cf.ConnectionField -->
<g id="node37" class="node"><title>topo.base.cf.ConnectionField</title>
<polygon fill="none" stroke="black" stroke-width="0.5" points="173,-243.5 21,-243.5 21,-222.5 173,-222.5 173,-243.5"/>
<text text-anchor="middle" x="97" y="-230.5" font-family="Vera" font-size="10.00">topo.base.cf.ConnectionField</text>
</g>
</g>
</svg>
