<?xml version="1.0" encoding="UTF-8" standalone="no"?>
<!DOCTYPE svg PUBLIC "-//W3C//DTD SVG 1.1//EN"
 "http://www.w3.org/Graphics/SVG/1.1/DTD/svg11.dtd">
<!-- Generated by graphviz version 2.26.3 (20100126.1600)
 -->
<!-- Title: inheritancebede3c61fc Pages: 1 -->
<svg width="2498pt" height="617pt"
 viewBox="0.00 0.00 2498.00 617.00" xmlns="http://www.w3.org/2000/svg" xmlns:xlink="http://www.w3.org/1999/xlink">
<g id="graph1" class="graph" transform="scale(1 1) rotate(0) translate(4 613)">
<title>inheritancebede3c61fc</title>
<polygon fill="white" stroke="white" points="-4,5 -4,-613 2495,-613 2495,5 -4,5"/>
<!-- topo.command.pylabplot.autocorrelationplot -->
<g id="node1" class="node"><title>topo.command.pylabplot.autocorrelationplot</title>
<polygon fill="none" stroke="black" stroke-width="0.5" points="1835,-438.5 1605,-438.5 1605,-417.5 1835,-417.5 1835,-438.5"/>
<text text-anchor="middle" x="1720" y="-425.5" font-family="Vera" font-size="10.00">topo.command.pylabplot.autocorrelationplot</text>
</g>
<!-- topo.command.pylabplot.matrixplot -->
<g id="node2" class="node"><title>topo.command.pylabplot.matrixplot</title>
<polygon fill="none" stroke="black" stroke-width="0.5" points="1458,-362.5 1270,-362.5 1270,-341.5 1458,-341.5 1458,-362.5"/>
<text text-anchor="middle" x="1364" y="-349.5" font-family="Vera" font-size="10.00">topo.command.pylabplot.matrixplot</text>
</g>
<!-- topo.command.pylabplot.matrixplot&#45;&gt;topo.command.pylabplot.autocorrelationplot -->
<g id="edge2" class="edge"><title>topo.command.pylabplot.matrixplot&#45;&gt;topo.command.pylabplot.autocorrelationplot</title>
<path fill="none" stroke="black" stroke-width="0.5" d="M1396.69,-362.1C1438.4,-374.666 1512.96,-396.041 1578,-409 1593.7,-412.127 1610.47,-414.883 1626.79,-417.256"/>
<polygon fill="black" stroke="black" points="1626.64,-419.002 1631.84,-417.98 1627.14,-415.538 1626.64,-419.002"/>
</g>
<!-- topo.command.pylabplot.gradientplot -->
<g id="node18" class="node"><title>topo.command.pylabplot.gradientplot</title>
<polygon fill="none" stroke="black" stroke-width="0.5" points="1818,-400.5 1622,-400.5 1622,-379.5 1818,-379.5 1818,-400.5"/>
<text text-anchor="middle" x="1720" y="-387.5" font-family="Vera" font-size="10.00">topo.command.pylabplot.gradientplot</text>
</g>
<!-- topo.command.pylabplot.matrixplot&#45;&gt;topo.command.pylabplot.gradientplot -->
<g id="edge14" class="edge"><title>topo.command.pylabplot.matrixplot&#45;&gt;topo.command.pylabplot.gradientplot</title>
<path fill="none" stroke="black" stroke-width="0.5" d="M1458,-362.034C1508.19,-367.391 1569.94,-373.982 1620.88,-379.42"/>
<polygon fill="black" stroke="black" points="1620.93,-381.185 1626.09,-379.976 1621.3,-377.705 1620.93,-381.185"/>
</g>
<!-- topo.command.pylabplot.activityplot -->
<g id="node33" class="node"><title>topo.command.pylabplot.activityplot</title>
<polygon fill="none" stroke="black" stroke-width="0.5" points="1815,-362.5 1625,-362.5 1625,-341.5 1815,-341.5 1815,-362.5"/>
<text text-anchor="middle" x="1720" y="-349.5" font-family="Vera" font-size="10.00">topo.command.pylabplot.activityplot</text>
</g>
<!-- topo.command.pylabplot.matrixplot&#45;&gt;topo.command.pylabplot.activityplot -->
<g id="edge28" class="edge"><title>topo.command.pylabplot.matrixplot&#45;&gt;topo.command.pylabplot.activityplot</title>
<path fill="none" stroke="black" stroke-width="0.5" d="M1458,-352C1507.59,-352 1568.47,-352 1619.06,-352"/>
<polygon fill="black" stroke="black" points="1619.23,-353.75 1624.23,-352 1619.23,-350.25 1619.23,-353.75"/>
</g>
<!-- topo.command.pylabplot.fftplot -->
<g id="node37" class="node"><title>topo.command.pylabplot.fftplot</title>
<polygon fill="none" stroke="black" stroke-width="0.5" points="1803,-324.5 1637,-324.5 1637,-303.5 1803,-303.5 1803,-324.5"/>
<text text-anchor="middle" x="1720" y="-311.5" font-family="Vera" font-size="10.00">topo.command.pylabplot.fftplot</text>
</g>
<!-- topo.command.pylabplot.matrixplot&#45;&gt;topo.command.pylabplot.fftplot -->
<g id="edge32" class="edge"><title>topo.command.pylabplot.matrixplot&#45;&gt;topo.command.pylabplot.fftplot</title>
<path fill="none" stroke="black" stroke-width="0.5" d="M1458,-341.966C1511.68,-336.236 1578.59,-329.094 1631.36,-323.462"/>
<polygon fill="black" stroke="black" points="1631.63,-325.193 1636.42,-322.922 1631.26,-321.712 1631.63,-325.193"/>
</g>
<!-- topo.command.pylabplot.unit_tuning_curve -->
<g id="node4" class="node"><title>topo.command.pylabplot.unit_tuning_curve</title>
<polygon fill="none" stroke="black" stroke-width="0.5" points="1476,-286.5 1252,-286.5 1252,-265.5 1476,-265.5 1476,-286.5"/>
<text text-anchor="middle" x="1364" y="-273.5" font-family="Vera" font-size="10.00">topo.command.pylabplot.unit_tuning_curve</text>
</g>
<!-- topo.command.pylabplot.cyclic_unit_tuning_curve -->
<g id="node30" class="node"><title>topo.command.pylabplot.cyclic_unit_tuning_curve</title>
<polygon fill="none" stroke="black" stroke-width="0.5" points="1847,-286.5 1593,-286.5 1593,-265.5 1847,-265.5 1847,-286.5"/>
<text text-anchor="middle" x="1720" y="-273.5" font-family="Vera" font-size="10.00">topo.command.pylabplot.cyclic_unit_tuning_curve</text>
</g>
<!-- topo.command.pylabplot.unit_tuning_curve&#45;&gt;topo.command.pylabplot.cyclic_unit_tuning_curve -->
<g id="edge58" class="edge"><title>topo.command.pylabplot.unit_tuning_curve&#45;&gt;topo.command.pylabplot.cyclic_unit_tuning_curve</title>
<path fill="none" stroke="black" stroke-width="0.5" d="M1476.15,-276C1511.31,-276 1550.46,-276 1586.92,-276"/>
<polygon fill="black" stroke="black" points="1587.28,-277.75 1592.28,-276 1587.28,-274.25 1587.28,-277.75"/>
</g>
<!-- topo.command.pylabplot.tuning_curve -->
<g id="node35" class="node"><title>topo.command.pylabplot.tuning_curve</title>
<polygon fill="none" stroke="black" stroke-width="0.5" points="1820,-248.5 1620,-248.5 1620,-227.5 1820,-227.5 1820,-248.5"/>
<text text-anchor="middle" x="1720" y="-235.5" font-family="Vera" font-size="10.00">topo.command.pylabplot.tuning_curve</text>
</g>
<!-- topo.command.pylabplot.unit_tuning_curve&#45;&gt;topo.command.pylabplot.tuning_curve -->
<g id="edge30" class="edge"><title>topo.command.pylabplot.unit_tuning_curve&#45;&gt;topo.command.pylabplot.tuning_curve</title>
<path fill="none" stroke="black" stroke-width="0.5" d="M1458,-265.966C1508.19,-260.609 1569.94,-254.018 1620.88,-248.58"/>
<polygon fill="black" stroke="black" points="1621.3,-250.295 1626.09,-248.024 1620.93,-246.815 1621.3,-250.295"/>
</g>
<!-- topo.command.pylabplot.PylabPlotCommand -->
<g id="node5" class="node"><title>topo.command.pylabplot.PylabPlotCommand</title>
<polygon fill="none" stroke="black" stroke-width="0.5" points="1112,-186.5 880,-186.5 880,-165.5 1112,-165.5 1112,-186.5"/>
<text text-anchor="middle" x="996" y="-173.5" font-family="Vera" font-size="10.00">topo.command.pylabplot.PylabPlotCommand</text>
</g>
<!-- topo.command.pylabplot.PylabPlotCommand&#45;&gt;topo.command.pylabplot.matrixplot -->
<g id="edge16" class="edge"><title>topo.command.pylabplot.PylabPlotCommand&#45;&gt;topo.command.pylabplot.matrixplot</title>
<path fill="none" stroke="black" stroke-width="0.5" d="M1009.62,-186.22C1039.91,-208.566 1115.75,-262.379 1186,-295 1229.23,-315.076 1281.46,-330.881 1318.13,-340.706"/>
<polygon fill="black" stroke="black" points="1317.69,-342.4 1322.97,-341.993 1318.59,-339.017 1317.69,-342.4"/>
</g>
<!-- topo.command.pylabplot.PylabPlotCommand&#45;&gt;topo.command.pylabplot.unit_tuning_curve -->
<g id="edge4" class="edge"><title>topo.command.pylabplot.PylabPlotCommand&#45;&gt;topo.command.pylabplot.unit_tuning_curve</title>
<path fill="none" stroke="black" stroke-width="0.5" d="M1014.49,-186.092C1047.73,-203.723 1120.24,-239.882 1186,-257 1205.41,-262.052 1226.34,-265.765 1246.8,-268.492"/>
<polygon fill="black" stroke="black" points="1246.81,-270.257 1251.99,-269.164 1247.26,-266.786 1246.81,-270.257"/>
</g>
<!-- topo.command.pylabplot.overlaid_plot -->
<g id="node22" class="node"><title>topo.command.pylabplot.overlaid_plot</title>
<polygon fill="none" stroke="black" stroke-width="0.5" points="1464,-248.5 1264,-248.5 1264,-227.5 1464,-227.5 1464,-248.5"/>
<text text-anchor="middle" x="1364" y="-235.5" font-family="Vera" font-size="10.00">topo.command.pylabplot.overlaid_plot</text>
</g>
<!-- topo.command.pylabplot.PylabPlotCommand&#45;&gt;topo.command.pylabplot.overlaid_plot -->
<g id="edge64" class="edge"><title>topo.command.pylabplot.PylabPlotCommand&#45;&gt;topo.command.pylabplot.overlaid_plot</title>
<path fill="none" stroke="black" stroke-width="0.5" d="M1034.31,-186.05C1072.51,-195.741 1132.95,-210.196 1186,-219 1209.47,-222.895 1234.82,-226.16 1258.83,-228.822"/>
<polygon fill="black" stroke="black" points="1258.77,-230.576 1263.93,-229.382 1259.15,-227.097 1258.77,-230.576"/>
</g>
<!-- topo.command.pylabplot.matrixplot3dx3 -->
<g id="node24" class="node"><title>topo.command.pylabplot.matrixplot3dx3</title>
<polygon fill="none" stroke="black" stroke-width="0.5" points="1470,-210.5 1258,-210.5 1258,-189.5 1470,-189.5 1470,-210.5"/>
<text text-anchor="middle" x="1364" y="-197.5" font-family="Vera" font-size="10.00">topo.command.pylabplot.matrixplot3dx3</text>
</g>
<!-- topo.command.pylabplot.PylabPlotCommand&#45;&gt;topo.command.pylabplot.matrixplot3dx3 -->
<g id="edge20" class="edge"><title>topo.command.pylabplot.PylabPlotCommand&#45;&gt;topo.command.pylabplot.matrixplot3dx3</title>
<path fill="none" stroke="black" stroke-width="0.5" d="M1112.69,-183.61C1157.49,-186.532 1208.46,-189.856 1252.73,-192.744"/>
<polygon fill="black" stroke="black" points="1252.72,-194.496 1257.82,-193.075 1252.95,-191.004 1252.72,-194.496"/>
</g>
<!-- topo.command.pylabplot.vectorplot -->
<g id="node49" class="node"><title>topo.command.pylabplot.vectorplot</title>
<polygon fill="none" stroke="black" stroke-width="0.5" points="1458,-172.5 1270,-172.5 1270,-151.5 1458,-151.5 1458,-172.5"/>
<text text-anchor="middle" x="1364" y="-159.5" font-family="Vera" font-size="10.00">topo.command.pylabplot.vectorplot</text>
</g>
<!-- topo.command.pylabplot.PylabPlotCommand&#45;&gt;topo.command.pylabplot.vectorplot -->
<g id="edge44" class="edge"><title>topo.command.pylabplot.PylabPlotCommand&#45;&gt;topo.command.pylabplot.vectorplot</title>
<path fill="none" stroke="black" stroke-width="0.5" d="M1112.69,-171.561C1161.64,-169.698 1217.96,-167.556 1264.87,-165.771"/>
<polygon fill="black" stroke="black" points="1265.02,-167.517 1269.95,-165.578 1264.89,-164.019 1265.02,-167.517"/>
</g>
<!-- topo.command.pylabplot.xy_grid -->
<g id="node51" class="node"><title>topo.command.pylabplot.xy_grid</title>
<polygon fill="none" stroke="black" stroke-width="0.5" points="1450,-134.5 1278,-134.5 1278,-113.5 1450,-113.5 1450,-134.5"/>
<text text-anchor="middle" x="1364" y="-121.5" font-family="Vera" font-size="10.00">topo.command.pylabplot.xy_grid</text>
</g>
<!-- topo.command.pylabplot.PylabPlotCommand&#45;&gt;topo.command.pylabplot.xy_grid -->
<g id="edge46" class="edge"><title>topo.command.pylabplot.PylabPlotCommand&#45;&gt;topo.command.pylabplot.xy_grid</title>
<path fill="none" stroke="black" stroke-width="0.5" d="M1048.27,-165.969C1086.36,-158.894 1139.25,-149.548 1186,-143 1213.96,-139.084 1244.49,-135.555 1272.25,-132.631"/>
<polygon fill="black" stroke="black" points="1272.61,-134.353 1277.4,-132.092 1272.24,-130.872 1272.61,-134.353"/>
</g>
<!-- topo.command.pylabplot.plot_modulation_ratio -->
<g id="node55" class="node"><title>topo.command.pylabplot.plot_modulation_ratio</title>
<polygon fill="none" stroke="black" stroke-width="0.5" points="1486,-96.5 1242,-96.5 1242,-75.5 1486,-75.5 1486,-96.5"/>
<text text-anchor="middle" x="1364" y="-83.5" font-family="Vera" font-size="10.00">topo.command.pylabplot.plot_modulation_ratio</text>
</g>
<!-- topo.command.pylabplot.PylabPlotCommand&#45;&gt;topo.command.pylabplot.plot_modulation_ratio -->
<g id="edge50" class="edge"><title>topo.command.pylabplot.PylabPlotCommand&#45;&gt;topo.command.pylabplot.plot_modulation_ratio</title>
<path fill="none" stroke="black" stroke-width="0.5" d="M1017.39,-165.974C1051.99,-150.222 1122.77,-119.937 1186,-105 1202.17,-101.18 1219.35,-98.1263 1236.42,-95.6863"/>
<polygon fill="black" stroke="black" points="1237,-97.3724 1241.71,-94.9485 1236.51,-93.9059 1237,-97.3724"/>
</g>
<!-- topo.command.pylabplot.histogramplot -->
<g id="node63" class="node"><title>topo.command.pylabplot.histogramplot</title>
<polygon fill="none" stroke="black" stroke-width="0.5" points="1467,-58.5 1261,-58.5 1261,-37.5 1467,-37.5 1467,-58.5"/>
<text text-anchor="middle" x="1364" y="-45.5" font-family="Vera" font-size="10.00">topo.command.pylabplot.histogramplot</text>
</g>
<!-- topo.command.pylabplot.PylabPlotCommand&#45;&gt;topo.command.pylabplot.histogramplot -->
<g id="edge62" class="edge"><title>topo.command.pylabplot.PylabPlotCommand&#45;&gt;topo.command.pylabplot.histogramplot</title>
<path fill="none" stroke="black" stroke-width="0.5" d="M1009.36,-165.667C1039.13,-143.26 1114.01,-90.3447 1186,-67 1208.08,-59.8397 1232.43,-55.2402 1255.84,-52.3168"/>
<polygon fill="black" stroke="black" points="1256.06,-54.0524 1260.82,-51.7181 1255.65,-50.5774 1256.06,-54.0524"/>
</g>
<!-- topo.command.pylabplot.matrixplot3d -->
<g id="node66" class="node"><title>topo.command.pylabplot.matrixplot3d</title>
<polygon fill="none" stroke="black" stroke-width="0.5" points="1464,-20.5 1264,-20.5 1264,0.5 1464,0.5 1464,-20.5"/>
<text text-anchor="middle" x="1364" y="-7.5" font-family="Vera" font-size="10.00">topo.command.pylabplot.matrixplot3d</text>
</g>
<!-- topo.command.pylabplot.PylabPlotCommand&#45;&gt;topo.command.pylabplot.matrixplot3d -->
<g id="edge66" class="edge"><title>topo.command.pylabplot.PylabPlotCommand&#45;&gt;topo.command.pylabplot.matrixplot3d</title>
<path fill="none" stroke="black" stroke-width="0.5" d="M1005.05,-165.848C1030.39,-138.182 1105.52,-61.3712 1186,-29 1208.61,-19.9053 1234.07,-14.5996 1258.52,-11.6151"/>
<polygon fill="black" stroke="black" points="1258.95,-13.3266 1263.72,-11.0129 1258.55,-9.84984 1258.95,-13.3266"/>
</g>
<!-- topo.analysis.featureresponses.MeasureResponseCommand -->
<g id="node7" class="node"><title>topo.analysis.featureresponses.MeasureResponseCommand</title>
<polygon fill="none" stroke="black" stroke-width="0.5" points="1149,-476.5 843,-476.5 843,-455.5 1149,-455.5 1149,-476.5"/>
<text text-anchor="middle" x="996" y="-463.5" font-family="Vera" font-size="10.00">topo.analysis.featureresponses.MeasureResponseCommand</text>
</g>
<!-- topo.analysis.featureresponses.SinusoidalMeasureResponseCommand -->
<g id="node27" class="node"><title>topo.analysis.featureresponses.SinusoidalMeasureResponseCommand</title>
<polygon fill="none" stroke="black" stroke-width="0.5" points="1542,-514.5 1186,-514.5 1186,-493.5 1542,-493.5 1542,-514.5"/>
<text text-anchor="middle" x="1364" y="-501.5" font-family="Vera" font-size="10.00">topo.analysis.featureresponses.SinusoidalMeasureResponseCommand</text>
</g>
<!-- topo.analysis.featureresponses.MeasureResponseCommand&#45;&gt;topo.analysis.featureresponses.SinusoidalMeasureResponseCommand -->
<g id="edge60" class="edge"><title>topo.analysis.featureresponses.MeasureResponseCommand&#45;&gt;topo.analysis.featureresponses.SinusoidalMeasureResponseCommand</title>
<path fill="none" stroke="black" stroke-width="0.5" d="M1093.17,-476.034C1145.15,-481.402 1209.14,-488.009 1261.86,-493.453"/>
<polygon fill="black" stroke="black" points="1261.77,-495.203 1266.93,-493.976 1262.13,-491.722 1261.77,-495.203"/>
</g>
<!-- topo.analysis.featureresponses.PositionMeasurementCommand -->
<g id="node59" class="node"><title>topo.analysis.featureresponses.PositionMeasurementCommand</title>
<polygon fill="none" stroke="black" stroke-width="0.5" points="1526,-476.5 1202,-476.5 1202,-455.5 1526,-455.5 1526,-476.5"/>
<text text-anchor="middle" x="1364" y="-463.5" font-family="Vera" font-size="10.00">topo.analysis.featureresponses.PositionMeasurementCommand</text>
</g>
<!-- topo.analysis.featureresponses.MeasureResponseCommand&#45;&gt;topo.analysis.featureresponses.PositionMeasurementCommand -->
<g id="edge56" class="edge"><title>topo.analysis.featureresponses.MeasureResponseCommand&#45;&gt;topo.analysis.featureresponses.PositionMeasurementCommand</title>
<path fill="none" stroke="black" stroke-width="0.5" d="M1149.67,-466C1165.16,-466 1180.95,-466 1196.58,-466"/>
<polygon fill="black" stroke="black" points="1196.87,-467.75 1201.87,-466 1196.87,-464.25 1196.87,-467.75"/>
</g>
<!-- topo.analysis.featureresponses.PatternPresentingCommand -->
<g id="node8" class="node"><title>topo.analysis.featureresponses.PatternPresentingCommand</title>
<polygon fill="none" stroke="black" stroke-width="0.5" points="805,-448.5 501,-448.5 501,-427.5 805,-427.5 805,-448.5"/>
<text text-anchor="middle" x="653" y="-435.5" font-family="Vera" font-size="10.00">topo.analysis.featureresponses.PatternPresentingCommand</text>
</g>
<!-- topo.analysis.featureresponses.PatternPresentingCommand&#45;&gt;topo.analysis.featureresponses.MeasureResponseCommand -->
<g id="edge6" class="edge"><title>topo.analysis.featureresponses.PatternPresentingCommand&#45;&gt;topo.analysis.featureresponses.MeasureResponseCommand</title>
<path fill="none" stroke="black" stroke-width="0.5" d="M775.862,-448.03C805.845,-450.477 837.99,-453.101 868.197,-455.567"/>
<polygon fill="black" stroke="black" points="868.294,-457.331 873.42,-455.993 868.579,-453.842 868.294,-457.331"/>
</g>
<!-- param.parameterized.Parameterized -->
<g id="node10" class="node"><title>param.parameterized.Parameterized</title>
<polygon fill="none" stroke="black" stroke-width="0.5" points="194,-296.5 5.68434e-14,-296.5 0,-275.5 194,-275.5 194,-296.5"/>
<text text-anchor="middle" x="97" y="-283.5" font-family="Vera" font-size="10.00">param.parameterized.Parameterized</text>
</g>
<!-- param.parameterized.ParameterizedFunction -->
<g id="node12" class="node"><title>param.parameterized.ParameterizedFunction</title>
<polygon fill="none" stroke="black" stroke-width="0.5" points="464,-296.5 230,-296.5 230,-275.5 464,-275.5 464,-296.5"/>
<text text-anchor="middle" x="347" y="-283.5" font-family="Vera" font-size="10.00">param.parameterized.ParameterizedFunction</text>
</g>
<!-- param.parameterized.Parameterized&#45;&gt;param.parameterized.ParameterizedFunction -->
<g id="edge10" class="edge"><title>param.parameterized.Parameterized&#45;&gt;param.parameterized.ParameterizedFunction</title>
<path fill="none" stroke="black" stroke-width="0.5" d="M194.014,-286C204.04,-286 214.319,-286 224.575,-286"/>
<polygon fill="black" stroke="black" points="224.607,-287.75 229.607,-286 224.607,-284.25 224.607,-287.75"/>
</g>
<!-- topo.command.pylabplot.measure_cog -->
<g id="node11" class="node"><title>topo.command.pylabplot.measure_cog</title>
<polygon fill="none" stroke="black" stroke-width="0.5" points="755,-296.5 551,-296.5 551,-275.5 755,-275.5 755,-296.5"/>
<text text-anchor="middle" x="653" y="-283.5" font-family="Vera" font-size="10.00">topo.command.pylabplot.measure_cog</text>
</g>
<!-- param.parameterized.ParameterizedFunction&#45;&gt;topo.analysis.featureresponses.PatternPresentingCommand -->
<g id="edge52" class="edge"><title>param.parameterized.ParameterizedFunction&#45;&gt;topo.analysis.featureresponses.PatternPresentingCommand</title>
<path fill="none" stroke="black" stroke-width="0.5" d="M367.553,-296.209C421.773,-323.142 568.57,-396.061 627.757,-425.461"/>
<polygon fill="black" stroke="black" points="627.28,-427.178 632.537,-427.835 628.837,-424.044 627.28,-427.178"/>
</g>
<!-- param.parameterized.ParameterizedFunction&#45;&gt;topo.command.pylabplot.measure_cog -->
<g id="edge8" class="edge"><title>param.parameterized.ParameterizedFunction&#45;&gt;topo.command.pylabplot.measure_cog</title>
<path fill="none" stroke="black" stroke-width="0.5" d="M464.432,-286C490.978,-286 519.035,-286 545.163,-286"/>
<polygon fill="black" stroke="black" points="545.362,-287.75 550.362,-286 545.362,-284.25 545.362,-287.75"/>
</g>
<!-- topo.command.Command -->
<g id="node41" class="node"><title>topo.command.Command</title>
<polygon fill="none" stroke="black" stroke-width="0.5" points="724,-243.5 582,-243.5 582,-222.5 724,-222.5 724,-243.5"/>
<text text-anchor="middle" x="653" y="-230.5" font-family="Vera" font-size="10.00">topo.command.Command</text>
</g>
<!-- param.parameterized.ParameterizedFunction&#45;&gt;topo.command.Command -->
<g id="edge54" class="edge"><title>param.parameterized.ParameterizedFunction&#45;&gt;topo.command.Command</title>
<path fill="none" stroke="black" stroke-width="0.5" d="M404.916,-275.969C457.706,-266.826 535.515,-253.349 589.875,-243.933"/>
<polygon fill="black" stroke="black" points="590.433,-245.613 595.061,-243.035 589.836,-242.164 590.433,-245.613"/>
</g>
<!-- topo.command.pylabplot.test_measure -->
<g id="node15" class="node"><title>topo.command.pylabplot.test_measure</title>
<polygon fill="none" stroke="black" stroke-width="0.5" points="2451,-609.5 2245,-609.5 2245,-588.5 2451,-588.5 2451,-609.5"/>
<text text-anchor="middle" x="2348" y="-596.5" font-family="Vera" font-size="10.00">topo.command.pylabplot.test_measure</text>
</g>
<!-- topo.analysis.featureresponses.UnitCurveCommand -->
<g id="node16" class="node"><title>topo.analysis.featureresponses.UnitCurveCommand</title>
<polygon fill="none" stroke="black" stroke-width="0.5" points="2167,-533.5 1901,-533.5 1901,-512.5 2167,-512.5 2167,-533.5"/>
<text text-anchor="middle" x="2034" y="-520.5" font-family="Vera" font-size="10.00">topo.analysis.featureresponses.UnitCurveCommand</text>
</g>
<!-- topo.analysis.featureresponses.UnitCurveCommand&#45;&gt;topo.command.pylabplot.test_measure -->
<g id="edge12" class="edge"><title>topo.analysis.featureresponses.UnitCurveCommand&#45;&gt;topo.command.pylabplot.test_measure</title>
<path fill="none" stroke="black" stroke-width="0.5" d="M2059.22,-533.014C2092.37,-545.792 2152.66,-567.707 2206,-580 2219.71,-583.159 2234.29,-585.85 2248.69,-588.124"/>
<polygon fill="black" stroke="black" points="2248.77,-589.909 2253.98,-588.944 2249.31,-586.45 2248.77,-589.909"/>
</g>
<!-- topo.command.pylabplot.measure_or_tuning -->
<g id="node39" class="node"><title>topo.command.pylabplot.measure_or_tuning</title>
<polygon fill="none" stroke="black" stroke-width="0.5" points="2464,-571.5 2232,-571.5 2232,-550.5 2464,-550.5 2464,-571.5"/>
<text text-anchor="middle" x="2348" y="-558.5" font-family="Vera" font-size="10.00">topo.command.pylabplot.measure_or_tuning</text>
</g>
<!-- topo.analysis.featureresponses.UnitCurveCommand&#45;&gt;topo.command.pylabplot.measure_or_tuning -->
<g id="edge34" class="edge"><title>topo.analysis.featureresponses.UnitCurveCommand&#45;&gt;topo.command.pylabplot.measure_or_tuning</title>
<path fill="none" stroke="black" stroke-width="0.5" d="M2116.91,-533.034C2161,-538.369 2215.2,-544.929 2260.03,-550.354"/>
<polygon fill="black" stroke="black" points="2260,-552.112 2265.17,-550.976 2260.42,-548.638 2260,-552.112"/>
</g>
<!-- topo.command.pylabplot.measure_contrast_response -->
<g id="node43" class="node"><title>topo.command.pylabplot.measure_contrast_response</title>
<polygon fill="none" stroke="black" stroke-width="0.5" points="2486,-533.5 2210,-533.5 2210,-512.5 2486,-512.5 2486,-533.5"/>
<text text-anchor="middle" x="2348" y="-520.5" font-family="Vera" font-size="10.00">topo.command.pylabplot.measure_contrast_response</text>
</g>
<!-- topo.analysis.featureresponses.UnitCurveCommand&#45;&gt;topo.command.pylabplot.measure_contrast_response -->
<g id="edge38" class="edge"><title>topo.analysis.featureresponses.UnitCurveCommand&#45;&gt;topo.command.pylabplot.measure_contrast_response</title>
<path fill="none" stroke="black" stroke-width="0.5" d="M2167.62,-523C2179.74,-523 2192.05,-523 2204.26,-523"/>
<polygon fill="black" stroke="black" points="2204.48,-524.75 2209.48,-523 2204.48,-521.25 2204.48,-524.75"/>
</g>
<!-- topo.command.pylabplot.measure_orientation_contrast -->
<g id="node45" class="node"><title>topo.command.pylabplot.measure_orientation_contrast</title>
<polygon fill="none" stroke="black" stroke-width="0.5" points="2490,-495.5 2206,-495.5 2206,-474.5 2490,-474.5 2490,-495.5"/>
<text text-anchor="middle" x="2348" y="-482.5" font-family="Vera" font-size="10.00">topo.command.pylabplot.measure_orientation_contrast</text>
</g>
<!-- topo.analysis.featureresponses.UnitCurveCommand&#45;&gt;topo.command.pylabplot.measure_orientation_contrast -->
<g id="edge40" class="edge"><title>topo.analysis.featureresponses.UnitCurveCommand&#45;&gt;topo.command.pylabplot.measure_orientation_contrast</title>
<path fill="none" stroke="black" stroke-width="0.5" d="M2116.91,-512.966C2161,-507.631 2215.2,-501.071 2260.03,-495.646"/>
<polygon fill="black" stroke="black" points="2260.42,-497.362 2265.17,-495.024 2260,-493.888 2260.42,-497.362"/>
</g>
<!-- topo.command.pylabplot.measure_size_response -->
<g id="node53" class="node"><title>topo.command.pylabplot.measure_size_response</title>
<polygon fill="none" stroke="black" stroke-width="0.5" points="2476,-457.5 2220,-457.5 2220,-436.5 2476,-436.5 2476,-457.5"/>
<text text-anchor="middle" x="2348" y="-444.5" font-family="Vera" font-size="10.00">topo.command.pylabplot.measure_size_response</text>
</g>
<!-- topo.analysis.featureresponses.UnitCurveCommand&#45;&gt;topo.command.pylabplot.measure_size_response -->
<g id="edge48" class="edge"><title>topo.analysis.featureresponses.UnitCurveCommand&#45;&gt;topo.command.pylabplot.measure_size_response</title>
<path fill="none" stroke="black" stroke-width="0.5" d="M2148.23,-512.953C2155.78,-510.501 2163.11,-507.548 2170,-504 2190.68,-493.348 2185.29,-476.592 2206,-466 2211.36,-463.257 2216.98,-460.864 2222.76,-458.777"/>
<polygon fill="black" stroke="black" points="2223.49,-460.377 2227.65,-457.096 2222.35,-457.067 2223.49,-460.377"/>
</g>
<!-- topo.command.pylabplot.overlaid_plots -->
<g id="node21" class="node"><title>topo.command.pylabplot.overlaid_plots</title>
<polygon fill="none" stroke="black" stroke-width="0.5" points="1823,-210.5 1617,-210.5 1617,-189.5 1823,-189.5 1823,-210.5"/>
<text text-anchor="middle" x="1720" y="-197.5" font-family="Vera" font-size="10.00">topo.command.pylabplot.overlaid_plots</text>
</g>
<!-- topo.command.pylabplot.overlaid_plot&#45;&gt;topo.command.pylabplot.overlaid_plots -->
<g id="edge18" class="edge"><title>topo.command.pylabplot.overlaid_plot&#45;&gt;topo.command.pylabplot.overlaid_plots</title>
<path fill="none" stroke="black" stroke-width="0.5" d="M1458,-227.966C1508.19,-222.609 1569.94,-216.018 1620.88,-210.58"/>
<polygon fill="black" stroke="black" points="1621.3,-212.295 1626.09,-210.024 1620.93,-208.815 1621.3,-212.295"/>
</g>
<!-- topo.analysis.featureresponses.FeatureCurveCommand -->
<g id="node26" class="node"><title>topo.analysis.featureresponses.FeatureCurveCommand</title>
<polygon fill="none" stroke="black" stroke-width="0.5" points="1862,-514.5 1578,-514.5 1578,-493.5 1862,-493.5 1862,-514.5"/>
<text text-anchor="middle" x="1720" y="-501.5" font-family="Vera" font-size="10.00">topo.analysis.featureresponses.FeatureCurveCommand</text>
</g>
<!-- topo.analysis.featureresponses.FeatureCurveCommand&#45;&gt;topo.analysis.featureresponses.UnitCurveCommand -->
<g id="edge26" class="edge"><title>topo.analysis.featureresponses.FeatureCurveCommand&#45;&gt;topo.analysis.featureresponses.UnitCurveCommand</title>
<path fill="none" stroke="black" stroke-width="0.5" d="M1862.3,-512.611C1873.28,-513.275 1884.35,-513.945 1895.3,-514.607"/>
<polygon fill="black" stroke="black" points="1895.23,-516.356 1900.32,-514.911 1895.44,-512.862 1895.23,-516.356"/>
</g>
<!-- topo.command.pylabplot.measure_or_tuning_fullfield -->
<g id="node47" class="node"><title>topo.command.pylabplot.measure_or_tuning_fullfield</title>
<polygon fill="none" stroke="black" stroke-width="0.5" points="2169,-495.5 1899,-495.5 1899,-474.5 2169,-474.5 2169,-495.5"/>
<text text-anchor="middle" x="2034" y="-482.5" font-family="Vera" font-size="10.00">topo.command.pylabplot.measure_or_tuning_fullfield</text>
</g>
<!-- topo.analysis.featureresponses.FeatureCurveCommand&#45;&gt;topo.command.pylabplot.measure_or_tuning_fullfield -->
<g id="edge42" class="edge"><title>topo.analysis.featureresponses.FeatureCurveCommand&#45;&gt;topo.command.pylabplot.measure_or_tuning_fullfield</title>
<path fill="none" stroke="black" stroke-width="0.5" d="M1862.3,-495.389C1872.62,-494.765 1883.02,-494.135 1893.33,-493.512"/>
<polygon fill="black" stroke="black" points="1893.5,-495.255 1898.39,-493.206 1893.29,-491.761 1893.5,-495.255"/>
</g>
<!-- topo.analysis.featureresponses.SinusoidalMeasureResponseCommand&#45;&gt;topo.analysis.featureresponses.FeatureCurveCommand -->
<g id="edge22" class="edge"><title>topo.analysis.featureresponses.SinusoidalMeasureResponseCommand&#45;&gt;topo.analysis.featureresponses.FeatureCurveCommand</title>
<path fill="none" stroke="black" stroke-width="0.5" d="M1542,-504C1552.21,-504 1562.43,-504 1572.51,-504"/>
<polygon fill="black" stroke="black" points="1572.76,-505.75 1577.76,-504 1572.76,-502.25 1572.76,-505.75"/>
</g>
<!-- topo.command.pylabplot.cyclic_tuning_curve -->
<g id="node29" class="node"><title>topo.command.pylabplot.cyclic_tuning_curve</title>
<polygon fill="none" stroke="black" stroke-width="0.5" points="2150,-286.5 1918,-286.5 1918,-265.5 2150,-265.5 2150,-286.5"/>
<text text-anchor="middle" x="2034" y="-273.5" font-family="Vera" font-size="10.00">topo.command.pylabplot.cyclic_tuning_curve</text>
</g>
<!-- topo.command.pylabplot.cyclic_unit_tuning_curve&#45;&gt;topo.command.pylabplot.cyclic_tuning_curve -->
<g id="edge24" class="edge"><title>topo.command.pylabplot.cyclic_unit_tuning_curve&#45;&gt;topo.command.pylabplot.cyclic_tuning_curve</title>
<path fill="none" stroke="black" stroke-width="0.5" d="M1847.72,-276C1869.17,-276 1891.38,-276 1912.67,-276"/>
<polygon fill="black" stroke="black" points="1912.78,-277.75 1917.78,-276 1912.78,-274.25 1912.78,-277.75"/>
</g>
<!-- topo.command.Command&#45;&gt;topo.command.pylabplot.PylabPlotCommand -->
<g id="edge36" class="edge"><title>topo.command.Command&#45;&gt;topo.command.pylabplot.PylabPlotCommand</title>
<path fill="none" stroke="black" stroke-width="0.5" d="M713.532,-222.941C774.421,-212.822 868.014,-197.269 930.583,-186.871"/>
<polygon fill="black" stroke="black" points="931.14,-188.553 935.785,-186.006 930.566,-185.1 931.14,-188.553"/>
</g>
<!-- topo.command.pylabplot.topographic_grid -->
<g id="node70" class="node"><title>topo.command.pylabplot.topographic_grid</title>
<polygon fill="none" stroke="black" stroke-width="0.5" points="1830,-134.5 1610,-134.5 1610,-113.5 1830,-113.5 1830,-134.5"/>
<text text-anchor="middle" x="1720" y="-121.5" font-family="Vera" font-size="10.00">topo.command.pylabplot.topographic_grid</text>
</g>
<!-- topo.command.pylabplot.xy_grid&#45;&gt;topo.command.pylabplot.topographic_grid -->
<g id="edge70" class="edge"><title>topo.command.pylabplot.xy_grid&#45;&gt;topo.command.pylabplot.topographic_grid</title>
<path fill="none" stroke="black" stroke-width="0.5" d="M1450.63,-124C1496.99,-124 1554.7,-124 1604.8,-124"/>
<polygon fill="black" stroke="black" points="1604.93,-125.75 1609.93,-124 1604.93,-122.25 1604.93,-125.75"/>
</g>
<!-- topo.command.pylabplot.measure_position_pref -->
<g id="node68" class="node"><title>topo.command.pylabplot.measure_position_pref</title>
<polygon fill="none" stroke="black" stroke-width="0.5" points="1844,-476.5 1596,-476.5 1596,-455.5 1844,-455.5 1844,-476.5"/>
<text text-anchor="middle" x="1720" y="-463.5" font-family="Vera" font-size="10.00">topo.command.pylabplot.measure_position_pref</text>
</g>
<!-- topo.analysis.featureresponses.PositionMeasurementCommand&#45;&gt;topo.command.pylabplot.measure_position_pref -->
<g id="edge68" class="edge"><title>topo.analysis.featureresponses.PositionMeasurementCommand&#45;&gt;topo.command.pylabplot.measure_position_pref</title>
<path fill="none" stroke="black" stroke-width="0.5" d="M1526.11,-466C1547.52,-466 1569.23,-466 1590,-466"/>
<polygon fill="black" stroke="black" points="1590.26,-467.75 1595.26,-466 1590.26,-464.25 1590.26,-467.75"/>
</g>
</g>
</svg>
