<?xml version="1.0" encoding="UTF-8" standalone="no"?>
<!DOCTYPE svg PUBLIC "-//W3C//DTD SVG 1.1//EN"
 "http://www.w3.org/Graphics/SVG/1.1/DTD/svg11.dtd">
<!-- Generated by graphviz version 2.26.3 (20100126.1600)
 -->
<!-- Title: inheritance489beebb75 Pages: 1 -->
<svg width="796pt" height="560pt"
 viewBox="0.00 0.00 796.00 560.00" xmlns="http://www.w3.org/2000/svg" xmlns:xlink="http://www.w3.org/1999/xlink">
<g id="graph1" class="graph" transform="scale(1 1) rotate(0) translate(4 556)">
<title>inheritance489beebb75</title>
<polygon fill="white" stroke="white" points="-4,5 -4,-556 793,-556 793,5 -4,5"/>
<!-- Tkinter.Entry -->
<g id="node1" class="node"><title>Tkinter.Entry</title>
<polygon fill="none" stroke="black" stroke-width="0.5" points="540,-514.5 464,-514.5 464,-493.5 540,-493.5 540,-514.5"/>
<text text-anchor="middle" x="502" y="-501.5" font-family="Vera" font-size="10.00">Tkinter.Entry</text>
</g>
<!-- paramtk.tilewrapper.Entry -->
<g id="node15" class="node"><title>paramtk.tilewrapper.Entry</title>
<polygon fill="none" stroke="black" stroke-width="0.5" points="770,-552.5 630,-552.5 630,-531.5 770,-531.5 770,-552.5"/>
<text text-anchor="middle" x="700" y="-539.5" font-family="Vera" font-size="10.00">paramtk.tilewrapper.Entry</text>
</g>
<!-- Tkinter.Entry&#45;&gt;paramtk.tilewrapper.Entry -->
<g id="edge16" class="edge"><title>Tkinter.Entry&#45;&gt;paramtk.tilewrapper.Entry</title>
<path fill="none" stroke="black" stroke-width="0.5" d="M540.176,-511.327C569.19,-516.895 609.584,-524.647 642.503,-530.965"/>
<polygon fill="black" stroke="black" points="642.479,-532.742 647.719,-531.966 643.138,-529.305 642.479,-532.742"/>
</g>
<!-- paramtk.tilewrapper.Combobox -->
<g id="node69" class="node"><title>paramtk.tilewrapper.Combobox</title>
<polygon fill="none" stroke="black" stroke-width="0.5" points="783,-514.5 617,-514.5 617,-493.5 783,-493.5 783,-514.5"/>
<text text-anchor="middle" x="700" y="-501.5" font-family="Vera" font-size="10.00">paramtk.tilewrapper.Combobox</text>
</g>
<!-- Tkinter.Entry&#45;&gt;paramtk.tilewrapper.Combobox -->
<g id="edge76" class="edge"><title>Tkinter.Entry&#45;&gt;paramtk.tilewrapper.Combobox</title>
<path fill="none" stroke="black" stroke-width="0.5" d="M540.176,-504C560.425,-504 586.215,-504 611.14,-504"/>
<polygon fill="black" stroke="black" points="611.443,-505.75 616.443,-504 611.443,-502.25 611.443,-505.75"/>
</g>
<!-- Tkinter.Widget -->
<g id="node2" class="node"><title>Tkinter.Widget</title>
<polygon fill="none" stroke="black" stroke-width="0.5" points="363,-229.5 281,-229.5 281,-208.5 363,-208.5 363,-229.5"/>
<text text-anchor="middle" x="322" y="-216.5" font-family="Vera" font-size="10.00">Tkinter.Widget</text>
</g>
<!-- Tkinter.Widget&#45;&gt;Tkinter.Entry -->
<g id="edge2" class="edge"><title>Tkinter.Widget&#45;&gt;Tkinter.Entry</title>
<path fill="none" stroke="black" stroke-width="0.5" d="M353.963,-229.064C367.767,-235.024 382.825,-244.012 392,-257 451.192,-340.79 358.975,-409.106 428,-485 435.965,-493.758 447.371,-498.718 458.85,-501.465"/>
<polygon fill="black" stroke="black" points="458.509,-503.182 463.764,-502.511 459.238,-499.758 458.509,-503.182"/>
</g>
<!-- paramtk.tilewrapper.Widget -->
<g id="node7" class="node"><title>paramtk.tilewrapper.Widget</title>
<polygon fill="none" stroke="black" stroke-width="0.5" points="575,-286.5 429,-286.5 429,-265.5 575,-265.5 575,-286.5"/>
<text text-anchor="middle" x="502" y="-273.5" font-family="Vera" font-size="10.00">paramtk.tilewrapper.Widget</text>
</g>
<!-- Tkinter.Widget&#45;&gt;paramtk.tilewrapper.Widget -->
<g id="edge50" class="edge"><title>Tkinter.Widget&#45;&gt;paramtk.tilewrapper.Widget</title>
<path fill="none" stroke="black" stroke-width="0.5" d="M347.911,-229.051C369.234,-237.137 400.34,-248.511 428,-257 436.666,-259.66 445.979,-262.253 454.976,-264.627"/>
<polygon fill="black" stroke="black" points="454.656,-266.352 459.936,-265.922 455.54,-262.965 454.656,-266.352"/>
</g>
<!-- Tkinter.Menubutton -->
<g id="node9" class="node"><title>Tkinter.Menubutton</title>
<polygon fill="none" stroke="black" stroke-width="0.5" points="556,-381.5 448,-381.5 448,-360.5 556,-360.5 556,-381.5"/>
<text text-anchor="middle" x="502" y="-368.5" font-family="Vera" font-size="10.00">Tkinter.Menubutton</text>
</g>
<!-- Tkinter.Widget&#45;&gt;Tkinter.Menubutton -->
<g id="edge30" class="edge"><title>Tkinter.Widget&#45;&gt;Tkinter.Menubutton</title>
<path fill="none" stroke="black" stroke-width="0.5" d="M344.848,-229.13C359.089,-235.979 377.414,-245.799 392,-257 410.452,-271.17 411.885,-278.221 428,-295 448.933,-316.795 473.434,-341.875 488.329,-357.074"/>
<polygon fill="black" stroke="black" points="487.151,-358.372 491.901,-360.718 489.65,-355.922 487.151,-358.372"/>
</g>
<!-- Tkinter.Label -->
<g id="node13" class="node"><title>Tkinter.Label</title>
<polygon fill="none" stroke="black" stroke-width="0.5" points="540,-172.5 464,-172.5 464,-151.5 540,-151.5 540,-172.5"/>
<text text-anchor="middle" x="502" y="-159.5" font-family="Vera" font-size="10.00">Tkinter.Label</text>
</g>
<!-- Tkinter.Widget&#45;&gt;Tkinter.Label -->
<g id="edge12" class="edge"><title>Tkinter.Widget&#45;&gt;Tkinter.Label</title>
<path fill="none" stroke="black" stroke-width="0.5" d="M347.911,-208.949C369.234,-200.863 400.34,-189.489 428,-181 437.807,-177.99 448.443,-175.065 458.512,-172.447"/>
<polygon fill="black" stroke="black" points="458.997,-174.13 463.403,-171.188 458.125,-170.74 458.997,-174.13"/>
</g>
<!-- Tkinter.Radiobutton -->
<g id="node20" class="node"><title>Tkinter.Radiobutton</title>
<polygon fill="none" stroke="black" stroke-width="0.5" points="556,-210.5 448,-210.5 448,-189.5 556,-189.5 556,-210.5"/>
<text text-anchor="middle" x="502" y="-197.5" font-family="Vera" font-size="10.00">Tkinter.Radiobutton</text>
</g>
<!-- Tkinter.Widget&#45;&gt;Tkinter.Radiobutton -->
<g id="edge20" class="edge"><title>Tkinter.Widget&#45;&gt;Tkinter.Radiobutton</title>
<path fill="none" stroke="black" stroke-width="0.5" d="M363.748,-214.593C387.018,-212.137 416.398,-209.036 442.084,-206.324"/>
<polygon fill="black" stroke="black" points="442.38,-208.053 447.169,-205.788 442.013,-204.572 442.38,-208.053"/>
</g>
<!-- Tkinter.Frame -->
<g id="node24" class="node"><title>Tkinter.Frame</title>
<polygon fill="none" stroke="black" stroke-width="0.5" points="542,-248.5 462,-248.5 462,-227.5 542,-227.5 542,-248.5"/>
<text text-anchor="middle" x="502" y="-235.5" font-family="Vera" font-size="10.00">Tkinter.Frame</text>
</g>
<!-- Tkinter.Widget&#45;&gt;Tkinter.Frame -->
<g id="edge34" class="edge"><title>Tkinter.Widget&#45;&gt;Tkinter.Frame</title>
<path fill="none" stroke="black" stroke-width="0.5" d="M363.748,-223.407C391.417,-226.327 427.724,-230.16 456.188,-233.164"/>
<polygon fill="black" stroke="black" points="456.252,-234.931 461.408,-233.715 456.619,-231.45 456.252,-234.931"/>
</g>
<!-- Tkinter.Listbox -->
<g id="node38" class="node"><title>Tkinter.Listbox</title>
<polygon fill="none" stroke="black" stroke-width="0.5" points="544,-476.5 460,-476.5 460,-455.5 544,-455.5 544,-476.5"/>
<text text-anchor="middle" x="502" y="-463.5" font-family="Vera" font-size="10.00">Tkinter.Listbox</text>
</g>
<!-- Tkinter.Widget&#45;&gt;Tkinter.Listbox -->
<g id="edge84" class="edge"><title>Tkinter.Widget&#45;&gt;Tkinter.Listbox</title>
<path fill="none" stroke="black" stroke-width="0.5" d="M352.272,-229.063C366.219,-235.126 381.881,-244.199 392,-257 429.975,-305.042 397.667,-336.802 428,-390 442.548,-415.514 467.69,-438.735 484.58,-452.617"/>
<polygon fill="black" stroke="black" points="483.697,-454.155 488.684,-455.941 485.9,-451.435 483.697,-454.155"/>
</g>
<!-- Tkinter.Scrollbar -->
<g id="node40" class="node"><title>Tkinter.Scrollbar</title>
<polygon fill="none" stroke="black" stroke-width="0.5" points="548,-82.5 456,-82.5 456,-61.5 548,-61.5 548,-82.5"/>
<text text-anchor="middle" x="502" y="-69.5" font-family="Vera" font-size="10.00">Tkinter.Scrollbar</text>
</g>
<!-- Tkinter.Widget&#45;&gt;Tkinter.Scrollbar -->
<g id="edge40" class="edge"><title>Tkinter.Widget&#45;&gt;Tkinter.Scrollbar</title>
<path fill="none" stroke="black" stroke-width="0.5" d="M328.452,-208.909C343.355,-186.35 382.406,-131.355 428,-100 437.619,-93.3853 449.006,-88.0767 459.928,-83.9359"/>
<polygon fill="black" stroke="black" points="460.811,-85.4764 464.906,-82.115 459.609,-82.1894 460.811,-85.4764"/>
</g>
<!-- Tkinter.Checkbutton -->
<g id="node44" class="node"><title>Tkinter.Checkbutton</title>
<polygon fill="none" stroke="black" stroke-width="0.5" points="558,-129.5 446,-129.5 446,-108.5 558,-108.5 558,-129.5"/>
<text text-anchor="middle" x="502" y="-116.5" font-family="Vera" font-size="10.00">Tkinter.Checkbutton</text>
</g>
<!-- Tkinter.Widget&#45;&gt;Tkinter.Checkbutton -->
<g id="edge90" class="edge"><title>Tkinter.Widget&#45;&gt;Tkinter.Checkbutton</title>
<path fill="none" stroke="black" stroke-width="0.5" d="M333.613,-208.805C352.322,-192.83 390.812,-161.789 428,-143 437.531,-138.185 448.233,-134.055 458.474,-130.646"/>
<polygon fill="black" stroke="black" points="459.24,-132.237 463.457,-129.03 458.161,-128.907 459.24,-132.237"/>
</g>
<!-- Tkinter.Button -->
<g id="node57" class="node"><title>Tkinter.Button</title>
<polygon fill="none" stroke="black" stroke-width="0.5" points="543,-25.5 461,-25.5 461,-4.5 543,-4.5 543,-25.5"/>
<text text-anchor="middle" x="502" y="-12.5" font-family="Vera" font-size="10.00">Tkinter.Button</text>
</g>
<!-- Tkinter.Widget&#45;&gt;Tkinter.Button -->
<g id="edge78" class="edge"><title>Tkinter.Widget&#45;&gt;Tkinter.Button</title>
<path fill="none" stroke="black" stroke-width="0.5" d="M326.235,-208.73C338.3,-180.54 375.404,-100.876 428,-53 439.994,-42.0821 455.706,-33.4303 469.566,-27.1575"/>
<polygon fill="black" stroke="black" points="470.317,-28.739 474.187,-25.1216 468.906,-25.536 470.317,-28.739"/>
</g>
<!-- Tkinter.XView -->
<g id="node4" class="node"><title>Tkinter.XView</title>
<polygon fill="none" stroke="black" stroke-width="0.5" points="361,-514.5 283,-514.5 283,-493.5 361,-493.5 361,-514.5"/>
<text text-anchor="middle" x="322" y="-501.5" font-family="Vera" font-size="10.00">Tkinter.XView</text>
</g>
<!-- Tkinter.XView&#45;&gt;Tkinter.Entry -->
<g id="edge4" class="edge"><title>Tkinter.XView&#45;&gt;Tkinter.Entry</title>
<path fill="none" stroke="black" stroke-width="0.5" d="M361.502,-504C390.263,-504 429.198,-504 458.787,-504"/>
<polygon fill="black" stroke="black" points="458.825,-505.75 463.825,-504 458.825,-502.25 458.825,-505.75"/>
</g>
<!-- Tkinter.XView&#45;&gt;Tkinter.Listbox -->
<g id="edge86" class="edge"><title>Tkinter.XView&#45;&gt;Tkinter.Listbox</title>
<path fill="none" stroke="black" stroke-width="0.5" d="M361.502,-495.661C388.894,-489.878 425.513,-482.147 454.499,-476.028"/>
<polygon fill="black" stroke="black" points="454.919,-477.728 459.449,-474.983 454.196,-474.304 454.919,-477.728"/>
</g>
<!-- paramtk.tilewrapper.Menubutton -->
<g id="node6" class="node"><title>paramtk.tilewrapper.Menubutton</title>
<polygon fill="none" stroke="black" stroke-width="0.5" points="786,-438.5 614,-438.5 614,-417.5 786,-417.5 786,-438.5"/>
<text text-anchor="middle" x="700" y="-425.5" font-family="Vera" font-size="10.00">paramtk.tilewrapper.Menubutton</text>
</g>
<!-- paramtk.tilewrapper.Widget&#45;&gt;paramtk.tilewrapper.Menubutton -->
<g id="edge6" class="edge"><title>paramtk.tilewrapper.Widget&#45;&gt;paramtk.tilewrapper.Menubutton</title>
<path fill="none" stroke="black" stroke-width="0.5" d="M513.284,-286.17C528.481,-300.171 555.931,-326.548 576,-352 594.552,-375.529 587.442,-391.834 612,-409 615.763,-411.63 619.821,-413.907 624.057,-415.877"/>
<polygon fill="black" stroke="black" points="623.434,-417.515 628.718,-417.897 624.826,-414.303 623.434,-417.515"/>
</g>
<!-- paramtk.tilewrapper.Notebook -->
<g id="node11" class="node"><title>paramtk.tilewrapper.Notebook</title>
<polygon fill="none" stroke="black" stroke-width="0.5" points="780,-400.5 620,-400.5 620,-379.5 780,-379.5 780,-400.5"/>
<text text-anchor="middle" x="700" y="-387.5" font-family="Vera" font-size="10.00">paramtk.tilewrapper.Notebook</text>
</g>
<!-- paramtk.tilewrapper.Widget&#45;&gt;paramtk.tilewrapper.Notebook -->
<g id="edge10" class="edge"><title>paramtk.tilewrapper.Widget&#45;&gt;paramtk.tilewrapper.Notebook</title>
<path fill="none" stroke="black" stroke-width="0.5" d="M510.522,-286.174C527.609,-305.864 568.19,-349.158 612,-371 617.796,-373.89 624.022,-376.342 630.385,-378.422"/>
<polygon fill="black" stroke="black" points="629.98,-380.129 635.274,-379.942 631.019,-376.786 629.98,-380.129"/>
</g>
<!-- paramtk.tilewrapper.Widget&#45;&gt;paramtk.tilewrapper.Entry -->
<g id="edge14" class="edge"><title>paramtk.tilewrapper.Widget&#45;&gt;paramtk.tilewrapper.Entry</title>
<path fill="none" stroke="black" stroke-width="0.5" d="M515.86,-286.15C532.816,-299.349 561.099,-324.049 576,-352 612.537,-420.535 557.223,-467.941 612,-523 615.882,-526.902 620.362,-530.091 625.201,-532.687"/>
<polygon fill="black" stroke="black" points="624.479,-534.282 629.739,-534.909 626.018,-531.139 624.479,-534.282"/>
</g>
<!-- paramtk.tilewrapper.Progressbar -->
<g id="node18" class="node"><title>paramtk.tilewrapper.Progressbar</title>
<polygon fill="none" stroke="black" stroke-width="0.5" points="786,-362.5 614,-362.5 614,-341.5 786,-341.5 786,-362.5"/>
<text text-anchor="middle" x="700" y="-349.5" font-family="Vera" font-size="10.00">paramtk.tilewrapper.Progressbar</text>
</g>
<!-- paramtk.tilewrapper.Widget&#45;&gt;paramtk.tilewrapper.Progressbar -->
<g id="edge18" class="edge"><title>paramtk.tilewrapper.Widget&#45;&gt;paramtk.tilewrapper.Progressbar</title>
<path fill="none" stroke="black" stroke-width="0.5" d="M518.15,-286.117C539.061,-298.801 576.987,-320.403 612,-333 620.038,-335.892 628.655,-338.415 637.238,-340.595"/>
<polygon fill="black" stroke="black" points="637.298,-342.412 642.572,-341.909 638.135,-339.014 637.298,-342.412"/>
</g>
<!-- paramtk.tilewrapper.Frame -->
<g id="node22" class="node"><title>paramtk.tilewrapper.Frame</title>
<polygon fill="none" stroke="black" stroke-width="0.5" points="772,-248.5 628,-248.5 628,-227.5 772,-227.5 772,-248.5"/>
<text text-anchor="middle" x="700" y="-235.5" font-family="Vera" font-size="10.00">paramtk.tilewrapper.Frame</text>
</g>
<!-- paramtk.tilewrapper.Widget&#45;&gt;paramtk.tilewrapper.Frame -->
<g id="edge22" class="edge"><title>paramtk.tilewrapper.Widget&#45;&gt;paramtk.tilewrapper.Frame</title>
<path fill="none" stroke="black" stroke-width="0.5" d="M554.281,-265.966C581.462,-260.75 614.739,-254.363 642.627,-249.011"/>
<polygon fill="black" stroke="black" points="643.189,-250.685 647.769,-248.024 642.529,-247.248 643.189,-250.685"/>
</g>
<!-- paramtk.tilewrapper.Radiobutton -->
<g id="node27" class="node"><title>paramtk.tilewrapper.Radiobutton</title>
<polygon fill="none" stroke="black" stroke-width="0.5" points="786,-210.5 614,-210.5 614,-189.5 786,-189.5 786,-210.5"/>
<text text-anchor="middle" x="700" y="-197.5" font-family="Vera" font-size="10.00">paramtk.tilewrapper.Radiobutton</text>
</g>
<!-- paramtk.tilewrapper.Widget&#45;&gt;paramtk.tilewrapper.Radiobutton -->
<g id="edge26" class="edge"><title>paramtk.tilewrapper.Widget&#45;&gt;paramtk.tilewrapper.Radiobutton</title>
<path fill="none" stroke="black" stroke-width="0.5" d="M555.981,-265.964C562.966,-263.578 569.827,-260.632 576,-257 596.051,-245.201 591.725,-230.409 612,-219 616.902,-216.242 622.164,-213.884 627.589,-211.868"/>
<polygon fill="black" stroke="black" points="628.469,-213.414 632.611,-210.111 627.313,-210.11 628.469,-213.414"/>
</g>
<!-- paramtk.tilewrapper.Separator -->
<g id="node32" class="node"><title>paramtk.tilewrapper.Separator</title>
<polygon fill="none" stroke="black" stroke-width="0.5" points="781,-324.5 619,-324.5 619,-303.5 781,-303.5 781,-324.5"/>
<text text-anchor="middle" x="700" y="-311.5" font-family="Vera" font-size="10.00">paramtk.tilewrapper.Separator</text>
</g>
<!-- paramtk.tilewrapper.Widget&#45;&gt;paramtk.tilewrapper.Separator -->
<g id="edge32" class="edge"><title>paramtk.tilewrapper.Widget&#45;&gt;paramtk.tilewrapper.Separator</title>
<path fill="none" stroke="black" stroke-width="0.5" d="M554.281,-286.034C581.462,-291.25 614.739,-297.637 642.627,-302.989"/>
<polygon fill="black" stroke="black" points="642.529,-304.752 647.769,-303.976 643.189,-301.315 642.529,-304.752"/>
</g>
<!-- paramtk.tilewrapper.Treeview -->
<g id="node36" class="node"><title>paramtk.tilewrapper.Treeview</title>
<polygon fill="none" stroke="black" stroke-width="0.5" points="777,-476.5 623,-476.5 623,-455.5 777,-455.5 777,-476.5"/>
<text text-anchor="middle" x="700" y="-463.5" font-family="Vera" font-size="10.00">paramtk.tilewrapper.Treeview</text>
</g>
<!-- paramtk.tilewrapper.Widget&#45;&gt;paramtk.tilewrapper.Treeview -->
<g id="edge36" class="edge"><title>paramtk.tilewrapper.Widget&#45;&gt;paramtk.tilewrapper.Treeview</title>
<path fill="none" stroke="black" stroke-width="0.5" d="M514.615,-286.079C530.786,-299.576 558.785,-324.973 576,-352 600.257,-390.083 577.776,-417.548 612,-447 614.851,-449.453 617.943,-451.613 621.206,-453.513"/>
<polygon fill="black" stroke="black" points="620.521,-455.131 625.755,-455.946 622.172,-452.045 620.521,-455.131"/>
</g>
<!-- paramtk.tilewrapper.Checkbutton -->
<g id="node42" class="node"><title>paramtk.tilewrapper.Checkbutton</title>
<polygon fill="none" stroke="black" stroke-width="0.5" points="788,-96.5 612,-96.5 612,-75.5 788,-75.5 788,-96.5"/>
<text text-anchor="middle" x="700" y="-83.5" font-family="Vera" font-size="10.00">paramtk.tilewrapper.Checkbutton</text>
</g>
<!-- paramtk.tilewrapper.Widget&#45;&gt;paramtk.tilewrapper.Checkbutton -->
<g id="edge42" class="edge"><title>paramtk.tilewrapper.Widget&#45;&gt;paramtk.tilewrapper.Checkbutton</title>
<path fill="none" stroke="black" stroke-width="0.5" d="M563.912,-265.958C568.357,-263.545 572.47,-260.597 576,-257 624.628,-207.451 562.423,-153.599 612,-105 614.344,-102.702 616.895,-100.654 619.605,-98.8289"/>
<polygon fill="black" stroke="black" points="620.638,-100.248 623.985,-96.1417 618.808,-97.2647 620.638,-100.248"/>
</g>
<!-- paramtk.tilewrapper.Scrollbar -->
<g id="node47" class="node"><title>paramtk.tilewrapper.Scrollbar</title>
<polygon fill="none" stroke="black" stroke-width="0.5" points="778,-58.5 622,-58.5 622,-37.5 778,-37.5 778,-58.5"/>
<text text-anchor="middle" x="700" y="-45.5" font-family="Vera" font-size="10.00">paramtk.tilewrapper.Scrollbar</text>
</g>
<!-- paramtk.tilewrapper.Widget&#45;&gt;paramtk.tilewrapper.Scrollbar -->
<g id="edge46" class="edge"><title>paramtk.tilewrapper.Widget&#45;&gt;paramtk.tilewrapper.Scrollbar</title>
<path fill="none" stroke="black" stroke-width="0.5" d="M564.439,-265.935C568.71,-263.521 572.643,-260.58 576,-257 634.796,-194.311 552.003,-128.54 612,-67 614.114,-64.8317 616.412,-62.8827 618.854,-61.1324"/>
<polygon fill="black" stroke="black" points="620.151,-62.3779 623.397,-58.1917 618.249,-59.4397 620.151,-62.3779"/>
</g>
<!-- paramtk.tilewrapper.Paned -->
<g id="node53" class="node"><title>paramtk.tilewrapper.Paned</title>
<polygon fill="none" stroke="black" stroke-width="0.5" points="772,-286.5 628,-286.5 628,-265.5 772,-265.5 772,-286.5"/>
<text text-anchor="middle" x="700" y="-273.5" font-family="Vera" font-size="10.00">paramtk.tilewrapper.Paned</text>
</g>
<!-- paramtk.tilewrapper.Widget&#45;&gt;paramtk.tilewrapper.Paned -->
<g id="edge54" class="edge"><title>paramtk.tilewrapper.Widget&#45;&gt;paramtk.tilewrapper.Paned</title>
<path fill="none" stroke="black" stroke-width="0.5" d="M575.728,-276C591.039,-276 607.215,-276 622.652,-276"/>
<polygon fill="black" stroke="black" points="622.857,-277.75 627.857,-276 622.857,-274.25 622.857,-277.75"/>
</g>
<!-- paramtk.tilewrapper.Button -->
<g id="node55" class="node"><title>paramtk.tilewrapper.Button</title>
<polygon fill="none" stroke="black" stroke-width="0.5" points="773,-20.5 627,-20.5 627,0.5 773,0.5 773,-20.5"/>
<text text-anchor="middle" x="700" y="-7.5" font-family="Vera" font-size="10.00">paramtk.tilewrapper.Button</text>
</g>
<!-- paramtk.tilewrapper.Widget&#45;&gt;paramtk.tilewrapper.Button -->
<g id="edge56" class="edge"><title>paramtk.tilewrapper.Widget&#45;&gt;paramtk.tilewrapper.Button</title>
<path fill="none" stroke="black" stroke-width="0.5" d="M564.903,-265.848C569.015,-263.447 572.787,-260.533 576,-257 645.025,-181.106 541.52,-103.545 612,-29 614.805,-26.0329 617.954,-23.4735 621.348,-21.2696"/>
<polygon fill="black" stroke="black" points="622.686,-22.5146 626.118,-18.4795 620.919,-19.4935 622.686,-22.5146"/>
</g>
<!-- paramtk.tilewrapper.LabelFrame -->
<g id="node61" class="node"><title>paramtk.tilewrapper.LabelFrame</title>
<polygon fill="none" stroke="black" stroke-width="0.5" points="785,-172.5 615,-172.5 615,-151.5 785,-151.5 785,-172.5"/>
<text text-anchor="middle" x="700" y="-159.5" font-family="Vera" font-size="10.00">paramtk.tilewrapper.LabelFrame</text>
</g>
<!-- paramtk.tilewrapper.Widget&#45;&gt;paramtk.tilewrapper.LabelFrame -->
<g id="edge62" class="edge"><title>paramtk.tilewrapper.Widget&#45;&gt;paramtk.tilewrapper.LabelFrame</title>
<path fill="none" stroke="black" stroke-width="0.5" d="M561.301,-265.967C566.592,-263.576 571.601,-260.63 576,-257 604.829,-233.213 582.717,-204.225 612,-181 615.115,-178.529 618.48,-176.362 622.014,-174.462"/>
<polygon fill="black" stroke="black" points="623.223,-175.817 626.931,-172.034 621.673,-172.679 623.223,-175.817"/>
</g>
<!-- paramtk.tilewrapper.Widget&#45;&gt;paramtk.tilewrapper.Combobox -->
<g id="edge74" class="edge"><title>paramtk.tilewrapper.Widget&#45;&gt;paramtk.tilewrapper.Combobox</title>
<path fill="none" stroke="black" stroke-width="0.5" d="M515.316,-286.059C531.973,-299.346 560.219,-324.323 576,-352 606.333,-405.198 567.593,-442.832 612,-485 614.454,-487.331 617.123,-489.403 619.953,-491.244"/>
<polygon fill="black" stroke="black" points="619.33,-492.909 624.524,-493.951 621.113,-489.897 619.33,-492.909"/>
</g>
<!-- paramtk.tilewrapper.Label -->
<g id="node73" class="node"><title>paramtk.tilewrapper.Label</title>
<polygon fill="none" stroke="black" stroke-width="0.5" points="770,-134.5 630,-134.5 630,-113.5 770,-113.5 770,-134.5"/>
<text text-anchor="middle" x="700" y="-121.5" font-family="Vera" font-size="10.00">paramtk.tilewrapper.Label</text>
</g>
<!-- paramtk.tilewrapper.Widget&#45;&gt;paramtk.tilewrapper.Label -->
<g id="edge80" class="edge"><title>paramtk.tilewrapper.Widget&#45;&gt;paramtk.tilewrapper.Label</title>
<path fill="none" stroke="black" stroke-width="0.5" d="M563.274,-265.855C567.915,-263.471 572.244,-260.557 576,-257 614.581,-220.468 572.719,-178.779 612,-143 615.9,-139.448 620.301,-136.502 625.003,-134.064"/>
<polygon fill="black" stroke="black" points="626.029,-135.515 629.799,-131.793 624.531,-132.352 626.029,-135.515"/>
</g>
<!-- Tkinter.Menubutton&#45;&gt;paramtk.tilewrapper.Menubutton -->
<g id="edge8" class="edge"><title>Tkinter.Menubutton&#45;&gt;paramtk.tilewrapper.Menubutton</title>
<path fill="none" stroke="black" stroke-width="0.5" d="M528.391,-381.118C550.5,-389.351 583.007,-400.894 612,-409 622.09,-411.821 632.929,-414.467 643.434,-416.837"/>
<polygon fill="black" stroke="black" points="643.298,-418.6 648.559,-417.978 644.059,-415.183 643.298,-418.6"/>
</g>
<!-- Tkinter.Label&#45;&gt;paramtk.tilewrapper.LabelFrame -->
<g id="edge64" class="edge"><title>Tkinter.Label&#45;&gt;paramtk.tilewrapper.LabelFrame</title>
<path fill="none" stroke="black" stroke-width="0.5" d="M540.646,-162C560.399,-162 585.336,-162 609.581,-162"/>
<polygon fill="black" stroke="black" points="609.742,-163.75 614.742,-162 609.742,-160.25 609.742,-163.75"/>
</g>
<!-- Tkinter.Label&#45;&gt;paramtk.tilewrapper.Label -->
<g id="edge82" class="edge"><title>Tkinter.Label&#45;&gt;paramtk.tilewrapper.Label</title>
<path fill="none" stroke="black" stroke-width="0.5" d="M540.646,-154.583C569.597,-149.027 609.681,-141.334 642.404,-135.054"/>
<polygon fill="black" stroke="black" points="643.01,-136.72 647.59,-134.058 642.35,-133.282 643.01,-136.72"/>
</g>
<!-- Tkinter.Radiobutton&#45;&gt;paramtk.tilewrapper.Radiobutton -->
<g id="edge28" class="edge"><title>Tkinter.Radiobutton&#45;&gt;paramtk.tilewrapper.Radiobutton</title>
<path fill="none" stroke="black" stroke-width="0.5" d="M556.629,-200C572.5,-200 590.29,-200 607.795,-200"/>
<polygon fill="black" stroke="black" points="608.216,-201.75 613.216,-200 608.216,-198.25 608.216,-201.75"/>
</g>
<!-- Tkinter.Frame&#45;&gt;paramtk.tilewrapper.Frame -->
<g id="edge24" class="edge"><title>Tkinter.Frame&#45;&gt;paramtk.tilewrapper.Frame</title>
<path fill="none" stroke="black" stroke-width="0.5" d="M542.546,-238C565.552,-238 595.12,-238 622.409,-238"/>
<polygon fill="black" stroke="black" points="622.475,-239.75 627.475,-238 622.475,-236.25 622.475,-239.75"/>
</g>
<!-- Tkinter.Misc -->
<g id="node26" class="node"><title>Tkinter.Misc</title>
<polygon fill="none" stroke="black" stroke-width="0.5" points="72,-210.5 2.84217e-14,-210.5 0,-189.5 72,-189.5 72,-210.5"/>
<text text-anchor="middle" x="36" y="-197.5" font-family="Vera" font-size="10.00">Tkinter.Misc</text>
</g>
<!-- Tkinter.BaseWidget -->
<g id="node59" class="node"><title>Tkinter.BaseWidget</title>
<polygon fill="none" stroke="black" stroke-width="0.5" points="215,-210.5 109,-210.5 109,-189.5 215,-189.5 215,-210.5"/>
<text text-anchor="middle" x="162" y="-197.5" font-family="Vera" font-size="10.00">Tkinter.BaseWidget</text>
</g>
<!-- Tkinter.Misc&#45;&gt;Tkinter.BaseWidget -->
<g id="edge60" class="edge"><title>Tkinter.Misc&#45;&gt;Tkinter.BaseWidget</title>
<path fill="none" stroke="black" stroke-width="0.5" d="M72.1065,-200C81.7306,-200 92.3855,-200 102.895,-200"/>
<polygon fill="black" stroke="black" points="103.038,-201.75 108.038,-200 103.038,-198.25 103.038,-201.75"/>
</g>
<!-- paramtk.tilewrapper.Style -->
<g id="node31" class="node"><title>paramtk.tilewrapper.Style</title>
<polygon fill="none" stroke="black" stroke-width="0.5" points="391,-286.5 253,-286.5 253,-265.5 391,-265.5 391,-286.5"/>
<text text-anchor="middle" x="322" y="-273.5" font-family="Vera" font-size="10.00">paramtk.tilewrapper.Style</text>
</g>
<!-- paramtk.tilewrapper.Style&#45;&gt;paramtk.tilewrapper.Widget -->
<g id="edge52" class="edge"><title>paramtk.tilewrapper.Style&#45;&gt;paramtk.tilewrapper.Widget</title>
<path fill="none" stroke="black" stroke-width="0.5" d="M391.593,-276C401.965,-276 412.719,-276 423.263,-276"/>
<polygon fill="black" stroke="black" points="423.42,-277.75 428.42,-276 423.42,-274.25 423.42,-277.75"/>
</g>
<!-- Tkinter.YView -->
<g id="node35" class="node"><title>Tkinter.YView</title>
<polygon fill="none" stroke="black" stroke-width="0.5" points="361,-476.5 283,-476.5 283,-455.5 361,-455.5 361,-476.5"/>
<text text-anchor="middle" x="322" y="-463.5" font-family="Vera" font-size="10.00">Tkinter.YView</text>
</g>
<!-- Tkinter.YView&#45;&gt;Tkinter.Listbox -->
<g id="edge88" class="edge"><title>Tkinter.YView&#45;&gt;Tkinter.Listbox</title>
<path fill="none" stroke="black" stroke-width="0.5" d="M361.057,-466C388.312,-466 424.861,-466 453.91,-466"/>
<polygon fill="black" stroke="black" points="454.243,-467.75 459.243,-466 454.243,-464.25 454.243,-467.75"/>
</g>
<!-- Tkinter.Listbox&#45;&gt;paramtk.tilewrapper.Treeview -->
<g id="edge38" class="edge"><title>Tkinter.Listbox&#45;&gt;paramtk.tilewrapper.Treeview</title>
<path fill="none" stroke="black" stroke-width="0.5" d="M544.963,-466C566.094,-466 592.303,-466 617.123,-466"/>
<polygon fill="black" stroke="black" points="617.396,-467.75 622.396,-466 617.395,-464.25 617.396,-467.75"/>
</g>
<!-- Tkinter.Scrollbar&#45;&gt;paramtk.tilewrapper.Scrollbar -->
<g id="edge48" class="edge"><title>Tkinter.Scrollbar&#45;&gt;paramtk.tilewrapper.Scrollbar</title>
<path fill="none" stroke="black" stroke-width="0.5" d="M548.673,-66.3427C568.868,-63.8948 593.14,-60.9527 616.273,-58.1487"/>
<polygon fill="black" stroke="black" points="616.747,-59.8542 621.5,-57.5152 616.325,-56.3796 616.747,-59.8542"/>
</g>
<!-- Tkinter.Checkbutton&#45;&gt;paramtk.tilewrapper.Checkbutton -->
<g id="edge44" class="edge"><title>Tkinter.Checkbutton&#45;&gt;paramtk.tilewrapper.Checkbutton</title>
<path fill="none" stroke="black" stroke-width="0.5" d="M558.209,-109.632C582.012,-105.665 609.901,-101.016 634.618,-96.897"/>
<polygon fill="black" stroke="black" points="635.197,-98.5746 639.842,-96.0264 634.622,-95.1223 635.197,-98.5746"/>
</g>
<!-- Tkinter.Pack -->
<g id="node46" class="node"><title>Tkinter.Pack</title>
<polygon fill="none" stroke="black" stroke-width="0.5" points="198,-286.5 126,-286.5 126,-265.5 198,-265.5 198,-286.5"/>
<text text-anchor="middle" x="162" y="-273.5" font-family="Vera" font-size="10.00">Tkinter.Pack</text>
</g>
<!-- Tkinter.Pack&#45;&gt;Tkinter.Widget -->
<g id="edge68" class="edge"><title>Tkinter.Pack&#45;&gt;Tkinter.Widget</title>
<path fill="none" stroke="black" stroke-width="0.5" d="M190.596,-265.974C198.802,-263.087 207.759,-259.927 216,-257 240.559,-248.277 268.285,-238.335 289.22,-230.808"/>
<polygon fill="black" stroke="black" points="290.006,-232.385 294.119,-229.046 288.821,-229.091 290.006,-232.385"/>
</g>
<!-- Tkinter.Place -->
<g id="node52" class="node"><title>Tkinter.Place</title>
<polygon fill="none" stroke="black" stroke-width="0.5" points="200,-248.5 124,-248.5 124,-227.5 200,-227.5 200,-248.5"/>
<text text-anchor="middle" x="162" y="-235.5" font-family="Vera" font-size="10.00">Tkinter.Place</text>
</g>
<!-- Tkinter.Place&#45;&gt;Tkinter.Widget -->
<g id="edge70" class="edge"><title>Tkinter.Place&#45;&gt;Tkinter.Widget</title>
<path fill="none" stroke="black" stroke-width="0.5" d="M200.732,-233.401C223.181,-230.735 251.601,-227.36 275.284,-224.548"/>
<polygon fill="black" stroke="black" points="275.503,-226.284 280.262,-223.956 275.091,-222.808 275.503,-226.284"/>
</g>
<!-- Tkinter.Button&#45;&gt;paramtk.tilewrapper.Button -->
<g id="edge58" class="edge"><title>Tkinter.Button&#45;&gt;paramtk.tilewrapper.Button</title>
<path fill="none" stroke="black" stroke-width="0.5" d="M543.507,-13.9518C565.939,-13.3854 594.397,-12.6667 620.876,-11.9981"/>
<polygon fill="black" stroke="black" points="621.189,-13.7408 626.143,-11.8651 621.101,-10.2419 621.189,-13.7408"/>
</g>
<!-- Tkinter.BaseWidget&#45;&gt;Tkinter.Widget -->
<g id="edge66" class="edge"><title>Tkinter.BaseWidget&#45;&gt;Tkinter.Widget</title>
<path fill="none" stroke="black" stroke-width="0.5" d="M215.723,-206.38C234.975,-208.666 256.511,-211.223 275.136,-213.435"/>
<polygon fill="black" stroke="black" points="275.136,-215.197 280.308,-214.049 275.549,-211.722 275.136,-215.197"/>
</g>
<!-- Tkinter.Grid -->
<g id="node67" class="node"><title>Tkinter.Grid</title>
<polygon fill="none" stroke="black" stroke-width="0.5" points="197,-172.5 127,-172.5 127,-151.5 197,-151.5 197,-172.5"/>
<text text-anchor="middle" x="162" y="-159.5" font-family="Vera" font-size="10.00">Tkinter.Grid</text>
</g>
<!-- Tkinter.Grid&#45;&gt;Tkinter.Widget -->
<g id="edge72" class="edge"><title>Tkinter.Grid&#45;&gt;Tkinter.Widget</title>
<path fill="none" stroke="black" stroke-width="0.5" d="M190.596,-172.026C198.802,-174.913 207.759,-178.073 216,-181 240.559,-189.723 268.285,-199.665 289.22,-207.192"/>
<polygon fill="black" stroke="black" points="288.821,-208.909 294.119,-208.954 290.006,-205.615 288.821,-208.909"/>
</g>
</g>
</svg>
