<?xml version="1.0" encoding="UTF-8" standalone="no"?>
<!DOCTYPE svg PUBLIC "-//W3C//DTD SVG 1.1//EN"
 "http://www.w3.org/Graphics/SVG/1.1/DTD/svg11.dtd">
<!-- Generated by graphviz version 2.26.3 (20100126.1600)
 -->
<!-- Title: inheritance273a80740e Pages: 1 -->
<svg width="1224pt" height="940pt"
 viewBox="0.00 0.00 1224.00 940.00" xmlns="http://www.w3.org/2000/svg" xmlns:xlink="http://www.w3.org/1999/xlink">
<g id="graph1" class="graph" transform="scale(1 1) rotate(0) translate(4 936)">
<title>inheritance273a80740e</title>
<polygon fill="white" stroke="white" points="-4,5 -4,-936 1221,-936 1221,5 -4,5"/>
<!-- imagen.HalfPlane -->
<g id="node1" class="node"><title>imagen.HalfPlane</title>
<polygon fill="none" stroke="black" stroke-width="0.5" points="629,-894.5 529,-894.5 529,-873.5 629,-873.5 629,-894.5"/>
<text text-anchor="middle" x="579" y="-881.5" font-family="Vera" font-size="10.00">imagen.HalfPlane</text>
</g>
<!-- imagen.patterngenerator.PatternGenerator -->
<g id="node2" class="node"><title>imagen.patterngenerator.PatternGenerator</title>
<polygon fill="none" stroke="black" stroke-width="0.5" points="454,-457.5 230,-457.5 230,-436.5 454,-436.5 454,-457.5"/>
<text text-anchor="middle" x="342" y="-444.5" font-family="Vera" font-size="10.00">imagen.patterngenerator.PatternGenerator</text>
</g>
<!-- imagen.patterngenerator.PatternGenerator&#45;&gt;imagen.HalfPlane -->
<g id="edge2" class="edge"><title>imagen.patterngenerator.PatternGenerator&#45;&gt;imagen.HalfPlane</title>
<path fill="none" stroke="black" stroke-width="0.5" d="M344.211,-457.252C357.021,-515.731 423.466,-806.596 490,-865 499.247,-873.117 511.104,-878.054 523.127,-880.994"/>
<polygon fill="black" stroke="black" points="523.023,-882.763 528.283,-882.135 523.779,-879.346 523.023,-882.763"/>
</g>
<!-- imagen.SineGrating -->
<g id="node5" class="node"><title>imagen.SineGrating</title>
<polygon fill="none" stroke="black" stroke-width="0.5" points="635,-856.5 523,-856.5 523,-835.5 635,-835.5 635,-856.5"/>
<text text-anchor="middle" x="579" y="-843.5" font-family="Vera" font-size="10.00">imagen.SineGrating</text>
</g>
<!-- imagen.patterngenerator.PatternGenerator&#45;&gt;imagen.SineGrating -->
<g id="edge24" class="edge"><title>imagen.patterngenerator.PatternGenerator&#45;&gt;imagen.SineGrating</title>
<path fill="none" stroke="black" stroke-width="0.5" d="M342.6,-457.161C346.09,-506.546 368.123,-723.327 490,-827 497.963,-833.774 507.757,-838.316 517.901,-841.326"/>
<polygon fill="black" stroke="black" points="517.619,-843.063 522.903,-842.684 518.536,-839.685 517.619,-843.063"/>
</g>
<!-- imagen.Line -->
<g id="node7" class="node"><title>imagen.Line</title>
<polygon fill="none" stroke="black" stroke-width="0.5" points="616,-818.5 542,-818.5 542,-797.5 616,-797.5 616,-818.5"/>
<text text-anchor="middle" x="579" y="-805.5" font-family="Vera" font-size="10.00">imagen.Line</text>
</g>
<!-- imagen.patterngenerator.PatternGenerator&#45;&gt;imagen.Line -->
<g id="edge6" class="edge"><title>imagen.patterngenerator.PatternGenerator&#45;&gt;imagen.Line</title>
<path fill="none" stroke="black" stroke-width="0.5" d="M343.068,-457.079C348.531,-503.335 377.646,-696.957 490,-789 502.847,-799.525 520.15,-804.61 536.083,-806.948"/>
<polygon fill="black" stroke="black" points="536.242,-808.733 541.425,-807.639 536.691,-805.262 536.242,-808.733"/>
</g>
<!-- imagen.Rectangle -->
<g id="node16" class="node"><title>imagen.Rectangle</title>
<polygon fill="none" stroke="black" stroke-width="0.5" points="630,-780.5 528,-780.5 528,-759.5 630,-759.5 630,-780.5"/>
<text text-anchor="middle" x="579" y="-767.5" font-family="Vera" font-size="10.00">imagen.Rectangle</text>
</g>
<!-- imagen.patterngenerator.PatternGenerator&#45;&gt;imagen.Rectangle -->
<g id="edge74" class="edge"><title>imagen.patterngenerator.PatternGenerator&#45;&gt;imagen.Rectangle</title>
<path fill="none" stroke="black" stroke-width="0.5" d="M343.656,-457.12C351.281,-500.29 387.144,-670.507 490,-751 499.363,-758.327 510.911,-762.989 522.552,-765.918"/>
<polygon fill="black" stroke="black" points="522.274,-767.65 527.54,-767.07 523.062,-764.24 522.274,-767.65"/>
</g>
<!-- imagen.PowerSpectrum -->
<g id="node18" class="node"><title>imagen.PowerSpectrum</title>
<polygon fill="none" stroke="black" stroke-width="0.5" points="644,-742.5 514,-742.5 514,-721.5 644,-721.5 644,-742.5"/>
<text text-anchor="middle" x="579" y="-729.5" font-family="Vera" font-size="10.00">imagen.PowerSpectrum</text>
</g>
<!-- imagen.patterngenerator.PatternGenerator&#45;&gt;imagen.PowerSpectrum -->
<g id="edge14" class="edge"><title>imagen.patterngenerator.PatternGenerator&#45;&gt;imagen.PowerSpectrum</title>
<path fill="none" stroke="black" stroke-width="0.5" d="M344.411,-457.2C354.406,-497.111 396.516,-643.876 490,-713 495.568,-717.117 501.838,-720.381 508.407,-722.964"/>
<polygon fill="black" stroke="black" points="508.184,-724.745 513.481,-724.809 509.38,-721.456 508.184,-724.745"/>
</g>
<!-- imagen.Arc -->
<g id="node23" class="node"><title>imagen.Arc</title>
<polygon fill="none" stroke="black" stroke-width="0.5" points="614,-704.5 544,-704.5 544,-683.5 614,-683.5 614,-704.5"/>
<text text-anchor="middle" x="579" y="-691.5" font-family="Vera" font-size="10.00">imagen.Arc</text>
</g>
<!-- imagen.patterngenerator.PatternGenerator&#45;&gt;imagen.Arc -->
<g id="edge20" class="edge"><title>imagen.patterngenerator.PatternGenerator&#45;&gt;imagen.Arc</title>
<path fill="none" stroke="black" stroke-width="0.5" d="M345.384,-457.221C357.954,-493.49 405.636,-616.951 490,-675 503.916,-684.575 521.731,-689.467 537.762,-691.916"/>
<polygon fill="black" stroke="black" points="537.93,-693.706 543.122,-692.657 538.409,-690.239 537.93,-693.706"/>
</g>
<!-- imagen.Translator -->
<g id="node25" class="node"><title>imagen.Translator</title>
<polygon fill="none" stroke="black" stroke-width="0.5" points="630,-666.5 528,-666.5 528,-645.5 630,-645.5 630,-666.5"/>
<text text-anchor="middle" x="579" y="-653.5" font-family="Vera" font-size="10.00">imagen.Translator</text>
</g>
<!-- imagen.patterngenerator.PatternGenerator&#45;&gt;imagen.Translator -->
<g id="edge22" class="edge"><title>imagen.patterngenerator.PatternGenerator&#45;&gt;imagen.Translator</title>
<path fill="none" stroke="black" stroke-width="0.5" d="M346.736,-457.279C362.189,-489.583 414.528,-589.717 490,-637 499.841,-643.165 511.367,-647.357 522.8,-650.199"/>
<polygon fill="black" stroke="black" points="522.423,-651.908 527.689,-651.337 523.216,-648.499 522.423,-651.908"/>
</g>
<!-- imagen.Composite -->
<g id="node31" class="node"><title>imagen.Composite</title>
<polygon fill="none" stroke="black" stroke-width="0.5" points="632,-628.5 526,-628.5 526,-607.5 632,-607.5 632,-628.5"/>
<text text-anchor="middle" x="579" y="-615.5" font-family="Vera" font-size="10.00">imagen.Composite</text>
</g>
<!-- imagen.patterngenerator.PatternGenerator&#45;&gt;imagen.Composite -->
<g id="edge28" class="edge"><title>imagen.patterngenerator.PatternGenerator&#45;&gt;imagen.Composite</title>
<path fill="none" stroke="black" stroke-width="0.5" d="M348.585,-457.122C367.148,-484.769 422.935,-561.967 490,-599 499.271,-604.119 509.789,-607.861 520.265,-610.594"/>
<polygon fill="black" stroke="black" points="520.126,-612.362 525.399,-611.857 520.962,-608.963 520.126,-612.362"/>
</g>
<!-- imagen.SquareGrating -->
<g id="node33" class="node"><title>imagen.SquareGrating</title>
<polygon fill="none" stroke="black" stroke-width="0.5" points="641,-590.5 517,-590.5 517,-569.5 641,-569.5 641,-590.5"/>
<text text-anchor="middle" x="579" y="-577.5" font-family="Vera" font-size="10.00">imagen.SquareGrating</text>
</g>
<!-- imagen.patterngenerator.PatternGenerator&#45;&gt;imagen.SquareGrating -->
<g id="edge30" class="edge"><title>imagen.patterngenerator.PatternGenerator&#45;&gt;imagen.SquareGrating</title>
<path fill="none" stroke="black" stroke-width="0.5" d="M351.697,-457.069C373.912,-479.503 431.129,-533.762 490,-561 496.641,-564.072 503.792,-566.655 511.051,-568.825"/>
<polygon fill="black" stroke="black" points="510.8,-570.573 516.088,-570.261 511.76,-567.207 510.8,-570.573"/>
</g>
<!-- imagen.Sweeper -->
<g id="node35" class="node"><title>imagen.Sweeper</title>
<polygon fill="none" stroke="black" stroke-width="0.5" points="627,-552.5 531,-552.5 531,-531.5 627,-531.5 627,-552.5"/>
<text text-anchor="middle" x="579" y="-539.5" font-family="Vera" font-size="10.00">imagen.Sweeper</text>
</g>
<!-- imagen.patterngenerator.PatternGenerator&#45;&gt;imagen.Sweeper -->
<g id="edge32" class="edge"><title>imagen.patterngenerator.PatternGenerator&#45;&gt;imagen.Sweeper</title>
<path fill="none" stroke="black" stroke-width="0.5" d="M358.223,-457.155C384.79,-473.36 439.665,-505.061 490,-523 501.199,-526.991 513.504,-530.278 525.298,-532.929"/>
<polygon fill="black" stroke="black" points="525.058,-534.668 530.316,-534.027 525.805,-531.249 525.058,-534.668"/>
</g>
<!-- imagen.ExponentialDecay -->
<g id="node39" class="node"><title>imagen.ExponentialDecay</title>
<polygon fill="none" stroke="black" stroke-width="0.5" points="649,-514.5 509,-514.5 509,-493.5 649,-493.5 649,-514.5"/>
<text text-anchor="middle" x="579" y="-501.5" font-family="Vera" font-size="10.00">imagen.ExponentialDecay</text>
</g>
<!-- imagen.patterngenerator.PatternGenerator&#45;&gt;imagen.ExponentialDecay -->
<g id="edge36" class="edge"><title>imagen.patterngenerator.PatternGenerator&#45;&gt;imagen.ExponentialDecay</title>
<path fill="none" stroke="black" stroke-width="0.5" d="M379.304,-457.029C409.167,-464.949 452.167,-476.109 490,-485 501.305,-487.657 513.454,-490.354 525.032,-492.85"/>
<polygon fill="black" stroke="black" points="524.699,-494.568 529.955,-493.906 525.433,-491.146 524.699,-494.568"/>
</g>
<!-- imagen.Sigmoid -->
<g id="node41" class="node"><title>imagen.Sigmoid</title>
<polygon fill="none" stroke="black" stroke-width="0.5" points="626,-476.5 532,-476.5 532,-455.5 626,-455.5 626,-476.5"/>
<text text-anchor="middle" x="579" y="-463.5" font-family="Vera" font-size="10.00">imagen.Sigmoid</text>
</g>
<!-- imagen.patterngenerator.PatternGenerator&#45;&gt;imagen.Sigmoid -->
<g id="edge38" class="edge"><title>imagen.patterngenerator.PatternGenerator&#45;&gt;imagen.Sigmoid</title>
<path fill="none" stroke="black" stroke-width="0.5" d="M454.254,-455.999C479.397,-458.015 504.916,-460.061 526.267,-461.772"/>
<polygon fill="black" stroke="black" points="526.195,-463.522 531.319,-462.177 526.475,-460.033 526.195,-463.522"/>
</g>
<!-- imagen.Selector -->
<g id="node43" class="node"><title>imagen.Selector</title>
<polygon fill="none" stroke="black" stroke-width="0.5" points="626,-438.5 532,-438.5 532,-417.5 626,-417.5 626,-438.5"/>
<text text-anchor="middle" x="579" y="-425.5" font-family="Vera" font-size="10.00">imagen.Selector</text>
</g>
<!-- imagen.patterngenerator.PatternGenerator&#45;&gt;imagen.Selector -->
<g id="edge40" class="edge"><title>imagen.patterngenerator.PatternGenerator&#45;&gt;imagen.Selector</title>
<path fill="none" stroke="black" stroke-width="0.5" d="M454.254,-438.001C479.397,-435.985 504.916,-433.939 526.267,-432.228"/>
<polygon fill="black" stroke="black" points="526.475,-433.967 531.319,-431.823 526.195,-430.478 526.475,-433.967"/>
</g>
<!-- imagen.SigmoidedDoG -->
<g id="node45" class="node"><title>imagen.SigmoidedDoG</title>
<polygon fill="none" stroke="black" stroke-width="0.5" points="643,-400.5 515,-400.5 515,-379.5 643,-379.5 643,-400.5"/>
<text text-anchor="middle" x="579" y="-387.5" font-family="Vera" font-size="10.00">imagen.SigmoidedDoG</text>
</g>
<!-- imagen.patterngenerator.PatternGenerator&#45;&gt;imagen.SigmoidedDoG -->
<g id="edge42" class="edge"><title>imagen.patterngenerator.PatternGenerator&#45;&gt;imagen.SigmoidedDoG</title>
<path fill="none" stroke="black" stroke-width="0.5" d="M379.304,-436.971C409.167,-429.051 452.167,-417.891 490,-409 501.305,-406.343 513.454,-403.646 525.032,-401.15"/>
<polygon fill="black" stroke="black" points="525.433,-402.854 529.955,-400.094 524.699,-399.432 525.433,-402.854"/>
</g>
<!-- imagen.Gabor -->
<g id="node47" class="node"><title>imagen.Gabor</title>
<polygon fill="none" stroke="black" stroke-width="0.5" points="621,-362.5 537,-362.5 537,-341.5 621,-341.5 621,-362.5"/>
<text text-anchor="middle" x="579" y="-349.5" font-family="Vera" font-size="10.00">imagen.Gabor</text>
</g>
<!-- imagen.patterngenerator.PatternGenerator&#45;&gt;imagen.Gabor -->
<g id="edge44" class="edge"><title>imagen.patterngenerator.PatternGenerator&#45;&gt;imagen.Gabor</title>
<path fill="none" stroke="black" stroke-width="0.5" d="M358.223,-436.845C384.79,-420.64 439.665,-388.939 490,-371 503.122,-366.323 517.763,-362.614 531.32,-359.761"/>
<polygon fill="black" stroke="black" points="531.714,-361.467 536.26,-358.748 531.011,-358.038 531.714,-361.467"/>
</g>
<!-- imagen.LogGaussian -->
<g id="node52" class="node"><title>imagen.LogGaussian</title>
<polygon fill="none" stroke="black" stroke-width="0.5" points="637,-324.5 521,-324.5 521,-303.5 637,-303.5 637,-324.5"/>
<text text-anchor="middle" x="579" y="-311.5" font-family="Vera" font-size="10.00">imagen.LogGaussian</text>
</g>
<!-- imagen.patterngenerator.PatternGenerator&#45;&gt;imagen.LogGaussian -->
<g id="edge48" class="edge"><title>imagen.patterngenerator.PatternGenerator&#45;&gt;imagen.LogGaussian</title>
<path fill="none" stroke="black" stroke-width="0.5" d="M351.697,-436.931C373.912,-414.497 431.129,-360.238 490,-333 497.985,-329.306 506.708,-326.319 515.469,-323.908"/>
<polygon fill="black" stroke="black" points="515.946,-325.592 520.336,-322.627 515.055,-322.207 515.946,-325.592"/>
</g>
<!-- imagen.Gaussian -->
<g id="node59" class="node"><title>imagen.Gaussian</title>
<polygon fill="none" stroke="black" stroke-width="0.5" points="629,-286.5 529,-286.5 529,-265.5 629,-265.5 629,-286.5"/>
<text text-anchor="middle" x="579" y="-273.5" font-family="Vera" font-size="10.00">imagen.Gaussian</text>
</g>
<!-- imagen.patterngenerator.PatternGenerator&#45;&gt;imagen.Gaussian -->
<g id="edge56" class="edge"><title>imagen.patterngenerator.PatternGenerator&#45;&gt;imagen.Gaussian</title>
<path fill="none" stroke="black" stroke-width="0.5" d="M348.585,-436.878C367.148,-409.231 422.935,-332.033 490,-295 500.287,-289.32 512.109,-285.336 523.705,-282.543"/>
<polygon fill="black" stroke="black" points="524.169,-284.232 528.656,-281.417 523.393,-280.82 524.169,-284.232"/>
</g>
<!-- imagen.Disk -->
<g id="node61" class="node"><title>imagen.Disk</title>
<polygon fill="none" stroke="black" stroke-width="0.5" points="617,-248.5 541,-248.5 541,-227.5 617,-227.5 617,-248.5"/>
<text text-anchor="middle" x="579" y="-235.5" font-family="Vera" font-size="10.00">imagen.Disk</text>
</g>
<!-- imagen.patterngenerator.PatternGenerator&#45;&gt;imagen.Disk -->
<g id="edge58" class="edge"><title>imagen.patterngenerator.PatternGenerator&#45;&gt;imagen.Disk</title>
<path fill="none" stroke="black" stroke-width="0.5" d="M346.736,-436.721C362.189,-404.417 414.528,-304.283 490,-257 503.593,-248.484 520.402,-243.734 535.738,-241.103"/>
<polygon fill="black" stroke="black" points="536.211,-242.8 540.876,-240.29 535.664,-239.343 536.211,-242.8"/>
</g>
<!-- imagen.DifferenceOfGaussians -->
<g id="node67" class="node"><title>imagen.DifferenceOfGaussians</title>
<polygon fill="none" stroke="black" stroke-width="0.5" points="661,-210.5 497,-210.5 497,-189.5 661,-189.5 661,-210.5"/>
<text text-anchor="middle" x="579" y="-197.5" font-family="Vera" font-size="10.00">imagen.DifferenceOfGaussians</text>
</g>
<!-- imagen.patterngenerator.PatternGenerator&#45;&gt;imagen.DifferenceOfGaussians -->
<g id="edge64" class="edge"><title>imagen.patterngenerator.PatternGenerator&#45;&gt;imagen.DifferenceOfGaussians</title>
<path fill="none" stroke="black" stroke-width="0.5" d="M345.384,-436.779C357.954,-400.51 405.636,-277.049 490,-219 493.823,-216.369 497.941,-214.092 502.236,-212.122"/>
<polygon fill="black" stroke="black" points="503.05,-213.677 506.959,-210.102 501.674,-210.459 503.05,-213.677"/>
</g>
<!-- imagen.GaussiansCorner -->
<g id="node69" class="node"><title>imagen.GaussiansCorner</title>
<polygon fill="none" stroke="black" stroke-width="0.5" points="647,-172.5 511,-172.5 511,-151.5 647,-151.5 647,-172.5"/>
<text text-anchor="middle" x="579" y="-159.5" font-family="Vera" font-size="10.00">imagen.GaussiansCorner</text>
</g>
<!-- imagen.patterngenerator.PatternGenerator&#45;&gt;imagen.GaussiansCorner -->
<g id="edge66" class="edge"><title>imagen.patterngenerator.PatternGenerator&#45;&gt;imagen.GaussiansCorner</title>
<path fill="none" stroke="black" stroke-width="0.5" d="M347.292,-436.95C372.311,-389.503 478.022,-189.856 490,-181 494.764,-177.477 500.042,-174.579 505.581,-172.198"/>
<polygon fill="black" stroke="black" points="506.296,-173.797 510.29,-170.317 504.998,-170.547 506.296,-173.797"/>
</g>
<!-- imagen.SigmoidedDoLG -->
<g id="node72" class="node"><title>imagen.SigmoidedDoLG</title>
<polygon fill="none" stroke="black" stroke-width="0.5" points="645,-134.5 513,-134.5 513,-113.5 645,-113.5 645,-134.5"/>
<text text-anchor="middle" x="579" y="-121.5" font-family="Vera" font-size="10.00">imagen.SigmoidedDoLG</text>
</g>
<!-- imagen.patterngenerator.PatternGenerator&#45;&gt;imagen.SigmoidedDoLG -->
<g id="edge70" class="edge"><title>imagen.patterngenerator.PatternGenerator&#45;&gt;imagen.SigmoidedDoLG</title>
<path fill="none" stroke="black" stroke-width="0.5" d="M348.081,-436.802C365.765,-406.916 418.191,-316.684 454,-238 472.703,-196.904 455.742,-172.413 490,-143 495.158,-138.571 501.097,-135.094 507.408,-132.375"/>
<polygon fill="black" stroke="black" points="508.295,-133.906 512.301,-130.439 507.007,-130.652 508.295,-133.906"/>
</g>
<!-- imagen.RawRectangle -->
<g id="node74" class="node"><title>imagen.RawRectangle</title>
<polygon fill="none" stroke="black" stroke-width="0.5" points="639,-96.5 519,-96.5 519,-75.5 639,-75.5 639,-96.5"/>
<text text-anchor="middle" x="579" y="-83.5" font-family="Vera" font-size="10.00">imagen.RawRectangle</text>
</g>
<!-- imagen.patterngenerator.PatternGenerator&#45;&gt;imagen.RawRectangle -->
<g id="edge72" class="edge"><title>imagen.patterngenerator.PatternGenerator&#45;&gt;imagen.RawRectangle</title>
<path fill="none" stroke="black" stroke-width="0.5" d="M348.458,-436.963C367.164,-407.512 422.083,-318.342 454,-238 476.609,-181.088 445.544,-147.117 490,-105 496.581,-98.7655 504.682,-94.3712 513.292,-91.3054"/>
<polygon fill="black" stroke="black" points="513.907,-92.9457 518.121,-89.7356 512.825,-89.6171 513.907,-92.9457"/>
</g>
<!-- imagen.Ring -->
<g id="node77" class="node"><title>imagen.Ring</title>
<polygon fill="none" stroke="black" stroke-width="0.5" points="617,-58.5 541,-58.5 541,-37.5 617,-37.5 617,-58.5"/>
<text text-anchor="middle" x="579" y="-45.5" font-family="Vera" font-size="10.00">imagen.Ring</text>
</g>
<!-- imagen.patterngenerator.PatternGenerator&#45;&gt;imagen.Ring -->
<g id="edge76" class="edge"><title>imagen.patterngenerator.PatternGenerator&#45;&gt;imagen.Ring</title>
<path fill="none" stroke="black" stroke-width="0.5" d="M348.958,-436.626C368.525,-406.982 424.521,-318.83 454,-238 480.611,-165.035 435.16,-121.996 490,-67 501.93,-55.0361 519.423,-49.752 535.75,-47.6548"/>
<polygon fill="black" stroke="black" points="535.993,-49.3886 540.772,-47.1023 535.611,-45.9096 535.993,-49.3886"/>
</g>
<!-- imagen.OrientationContrast -->
<g id="node4" class="node"><title>imagen.OrientationContrast</title>
<polygon fill="none" stroke="black" stroke-width="0.5" points="858,-856.5 708,-856.5 708,-835.5 858,-835.5 858,-856.5"/>
<text text-anchor="middle" x="783" y="-843.5" font-family="Vera" font-size="10.00">imagen.OrientationContrast</text>
</g>
<!-- imagen.SineGrating&#45;&gt;imagen.OrientationContrast -->
<g id="edge4" class="edge"><title>imagen.SineGrating&#45;&gt;imagen.OrientationContrast</title>
<path fill="none" stroke="black" stroke-width="0.5" d="M635.014,-846C655.959,-846 680.176,-846 702.876,-846"/>
<polygon fill="black" stroke="black" points="702.998,-847.75 707.998,-846 702.998,-844.25 702.998,-847.75"/>
</g>
<!-- dataviews.dataviews.Stack -->
<g id="node9" class="node"><title>dataviews.dataviews.Stack</title>
<polygon fill="none" stroke="black" stroke-width="0.5" points="855,-20.5 711,-20.5 711,0.5 855,0.5 855,-20.5"/>
<text text-anchor="middle" x="783" y="-7.5" font-family="Vera" font-size="10.00">dataviews.dataviews.Stack</text>
</g>
<!-- dataviews.sheetviews.SheetStack -->
<g id="node55" class="node"><title>dataviews.sheetviews.SheetStack</title>
<polygon fill="none" stroke="black" stroke-width="0.5" points="1076,-20.5 898,-20.5 898,0.5 1076,0.5 1076,-20.5"/>
<text text-anchor="middle" x="987" y="-7.5" font-family="Vera" font-size="10.00">dataviews.sheetviews.SheetStack</text>
</g>
<!-- dataviews.dataviews.Stack&#45;&gt;dataviews.sheetviews.SheetStack -->
<g id="edge54" class="edge"><title>dataviews.dataviews.Stack&#45;&gt;dataviews.sheetviews.SheetStack</title>
<path fill="none" stroke="black" stroke-width="0.5" d="M855.21,-10C867.352,-10 880.112,-10 892.714,-10"/>
<polygon fill="black" stroke="black" points="892.722,-11.7501 897.722,-10 892.722,-8.2501 892.722,-11.7501"/>
</g>
<!-- dataviews.ndmapping.NdMapping -->
<g id="node10" class="node"><title>dataviews.ndmapping.NdMapping</title>
<polygon fill="none" stroke="black" stroke-width="0.5" points="668,-20.5 490,-20.5 490,0.5 668,0.5 668,-20.5"/>
<text text-anchor="middle" x="579" y="-7.5" font-family="Vera" font-size="10.00">dataviews.ndmapping.NdMapping</text>
</g>
<!-- dataviews.ndmapping.NdMapping&#45;&gt;dataviews.dataviews.Stack -->
<g id="edge8" class="edge"><title>dataviews.ndmapping.NdMapping&#45;&gt;dataviews.dataviews.Stack</title>
<path fill="none" stroke="black" stroke-width="0.5" d="M668.181,-10C680.658,-10 693.395,-10 705.629,-10"/>
<polygon fill="black" stroke="black" points="705.839,-11.7501 710.839,-10 705.839,-8.2501 705.839,-11.7501"/>
</g>
<!-- dataviews.ndmapping.NdIndexableMapping -->
<g id="node12" class="node"><title>dataviews.ndmapping.NdIndexableMapping</title>
<polygon fill="none" stroke="black" stroke-width="0.5" points="454,-229.5 230,-229.5 230,-208.5 454,-208.5 454,-229.5"/>
<text text-anchor="middle" x="342" y="-216.5" font-family="Vera" font-size="10.00">dataviews.ndmapping.NdIndexableMapping</text>
</g>
<!-- dataviews.ndmapping.NdIndexableMapping&#45;&gt;dataviews.ndmapping.NdMapping -->
<g id="edge18" class="edge"><title>dataviews.ndmapping.NdIndexableMapping&#45;&gt;dataviews.ndmapping.NdMapping</title>
<path fill="none" stroke="black" stroke-width="0.5" d="M442.322,-208.855C446.517,-206.348 450.445,-203.417 454,-200 509.991,-146.176 435.16,-83.9958 490,-29 492.27,-26.724 494.74,-24.6897 497.366,-22.8732"/>
<polygon fill="black" stroke="black" points="498.318,-24.3419 501.614,-20.1943 496.451,-21.3815 498.318,-24.3419"/>
</g>
<!-- param.parameterized.Parameterized -->
<g id="node13" class="node"><title>param.parameterized.Parameterized</title>
<polygon fill="none" stroke="black" stroke-width="0.5" points="194,-229.5 5.68434e-14,-229.5 0,-208.5 194,-208.5 194,-229.5"/>
<text text-anchor="middle" x="97" y="-216.5" font-family="Vera" font-size="10.00">param.parameterized.Parameterized</text>
</g>
<!-- param.parameterized.Parameterized&#45;&gt;imagen.patterngenerator.PatternGenerator -->
<g id="edge68" class="edge"><title>param.parameterized.Parameterized&#45;&gt;imagen.patterngenerator.PatternGenerator</title>
<path fill="none" stroke="black" stroke-width="0.5" d="M107.843,-229.091C147.127,-265.649 282.049,-391.209 327.169,-433.198"/>
<polygon fill="black" stroke="black" points="326.151,-434.642 331.004,-436.767 328.536,-432.079 326.151,-434.642"/>
</g>
<!-- param.parameterized.Parameterized&#45;&gt;dataviews.ndmapping.NdIndexableMapping -->
<g id="edge10" class="edge"><title>param.parameterized.Parameterized&#45;&gt;dataviews.ndmapping.NdIndexableMapping</title>
<path fill="none" stroke="black" stroke-width="0.5" d="M194.182,-219C204.286,-219 214.629,-219 224.922,-219"/>
<polygon fill="black" stroke="black" points="224.969,-220.75 229.969,-219 224.969,-217.25 224.969,-220.75"/>
</g>
<!-- imagen.TimeSeries -->
<g id="node20" class="node"><title>imagen.TimeSeries</title>
<polygon fill="none" stroke="black" stroke-width="0.5" points="396,-191.5 288,-191.5 288,-170.5 396,-170.5 396,-191.5"/>
<text text-anchor="middle" x="342" y="-178.5" font-family="Vera" font-size="10.00">imagen.TimeSeries</text>
</g>
<!-- param.parameterized.Parameterized&#45;&gt;imagen.TimeSeries -->
<g id="edge16" class="edge"><title>param.parameterized.Parameterized&#45;&gt;imagen.TimeSeries</title>
<path fill="none" stroke="black" stroke-width="0.5" d="M161.691,-208.966C198.986,-203.182 245.556,-195.959 282.024,-190.302"/>
<polygon fill="black" stroke="black" points="282.657,-191.975 287.329,-189.48 282.12,-188.517 282.657,-191.975"/>
</g>
<!-- imagen.TwoRectangles -->
<g id="node15" class="node"><title>imagen.TwoRectangles</title>
<polygon fill="none" stroke="black" stroke-width="0.5" points="845,-780.5 721,-780.5 721,-759.5 845,-759.5 845,-780.5"/>
<text text-anchor="middle" x="783" y="-767.5" font-family="Vera" font-size="10.00">imagen.TwoRectangles</text>
</g>
<!-- imagen.Rectangle&#45;&gt;imagen.TwoRectangles -->
<g id="edge12" class="edge"><title>imagen.Rectangle&#45;&gt;imagen.TwoRectangles</title>
<path fill="none" stroke="black" stroke-width="0.5" d="M630.214,-770C656.103,-770 687.851,-770 715.687,-770"/>
<polygon fill="black" stroke="black" points="715.837,-771.75 720.837,-770 715.837,-768.25 715.837,-771.75"/>
</g>
<!-- imagen.Spectrogram -->
<g id="node65" class="node"><title>imagen.Spectrogram</title>
<polygon fill="none" stroke="black" stroke-width="0.5" points="842,-742.5 724,-742.5 724,-721.5 842,-721.5 842,-742.5"/>
<text text-anchor="middle" x="783" y="-729.5" font-family="Vera" font-size="10.00">imagen.Spectrogram</text>
</g>
<!-- imagen.PowerSpectrum&#45;&gt;imagen.Spectrogram -->
<g id="edge62" class="edge"><title>imagen.PowerSpectrum&#45;&gt;imagen.Spectrogram</title>
<path fill="none" stroke="black" stroke-width="0.5" d="M644.67,-732C668.168,-732 694.625,-732 718.061,-732"/>
<polygon fill="black" stroke="black" points="718.324,-733.75 723.324,-732 718.324,-730.25 718.324,-733.75"/>
</g>
<!-- imagen.Curve -->
<g id="node37" class="node"><title>imagen.Curve</title>
<polygon fill="none" stroke="black" stroke-width="0.5" points="824,-704.5 742,-704.5 742,-683.5 824,-683.5 824,-704.5"/>
<text text-anchor="middle" x="783" y="-691.5" font-family="Vera" font-size="10.00">imagen.Curve</text>
</g>
<!-- imagen.Arc&#45;&gt;imagen.Curve -->
<g id="edge34" class="edge"><title>imagen.Arc&#45;&gt;imagen.Curve</title>
<path fill="none" stroke="black" stroke-width="0.5" d="M614.534,-694C648.155,-694 698.839,-694 735.832,-694"/>
<polygon fill="black" stroke="black" points="736.187,-695.75 741.187,-694 736.187,-692.25 736.187,-695.75"/>
</g>
<!-- param.Selector -->
<g id="node28" class="node"><title>param.Selector</title>
<polygon fill="none" stroke="black" stroke-width="0.5" points="387,-932.5 297,-932.5 297,-911.5 387,-911.5 387,-932.5"/>
<text text-anchor="middle" x="342" y="-919.5" font-family="Vera" font-size="10.00">param.Selector</text>
</g>
<!-- param.ClassSelector -->
<g id="node50" class="node"><title>param.ClassSelector</title>
<polygon fill="none" stroke="black" stroke-width="0.5" points="637,-932.5 521,-932.5 521,-911.5 637,-911.5 637,-932.5"/>
<text text-anchor="middle" x="579" y="-919.5" font-family="Vera" font-size="10.00">param.ClassSelector</text>
</g>
<!-- param.Selector&#45;&gt;param.ClassSelector -->
<g id="edge52" class="edge"><title>param.Selector&#45;&gt;param.ClassSelector</title>
<path fill="none" stroke="black" stroke-width="0.5" d="M387.696,-922C423.998,-922 475.183,-922 515.475,-922"/>
<polygon fill="black" stroke="black" points="515.834,-923.75 520.834,-922 515.834,-920.25 515.834,-923.75"/>
</g>
<!-- param.parameterized.Parameter -->
<g id="node29" class="node"><title>param.parameterized.Parameter</title>
<polygon fill="none" stroke="black" stroke-width="0.5" points="184,-932.5 10,-932.5 10,-911.5 184,-911.5 184,-932.5"/>
<text text-anchor="middle" x="97" y="-919.5" font-family="Vera" font-size="10.00">param.parameterized.Parameter</text>
</g>
<!-- param.parameterized.Parameter&#45;&gt;param.Selector -->
<g id="edge26" class="edge"><title>param.parameterized.Parameter&#45;&gt;param.Selector</title>
<path fill="none" stroke="black" stroke-width="0.5" d="M184.759,-922C220.453,-922 260.436,-922 291.152,-922"/>
<polygon fill="black" stroke="black" points="291.387,-923.75 296.387,-922 291.387,-920.25 291.387,-923.75"/>
</g>
<!-- imagen.SeparatedComposite -->
<g id="node63" class="node"><title>imagen.SeparatedComposite</title>
<polygon fill="none" stroke="black" stroke-width="0.5" points="862,-628.5 704,-628.5 704,-607.5 862,-607.5 862,-628.5"/>
<text text-anchor="middle" x="783" y="-615.5" font-family="Vera" font-size="10.00">imagen.SeparatedComposite</text>
</g>
<!-- imagen.Composite&#45;&gt;imagen.SeparatedComposite -->
<g id="edge60" class="edge"><title>imagen.Composite&#45;&gt;imagen.SeparatedComposite</title>
<path fill="none" stroke="black" stroke-width="0.5" d="M632.599,-618C652.793,-618 676.282,-618 698.61,-618"/>
<polygon fill="black" stroke="black" points="698.654,-619.75 703.654,-618 698.654,-616.25 698.654,-619.75"/>
</g>
<!-- imagen.TimeSeriesParam -->
<g id="node49" class="node"><title>imagen.TimeSeriesParam</title>
<polygon fill="none" stroke="black" stroke-width="0.5" points="853,-932.5 713,-932.5 713,-911.5 853,-911.5 853,-932.5"/>
<text text-anchor="middle" x="783" y="-919.5" font-family="Vera" font-size="10.00">imagen.TimeSeriesParam</text>
</g>
<!-- param.ClassSelector&#45;&gt;imagen.TimeSeriesParam -->
<g id="edge46" class="edge"><title>param.ClassSelector&#45;&gt;imagen.TimeSeriesParam</title>
<path fill="none" stroke="black" stroke-width="0.5" d="M637.185,-922C659.083,-922 684.306,-922 707.552,-922"/>
<polygon fill="black" stroke="black" points="707.79,-923.75 712.79,-922 707.79,-920.25 707.79,-923.75"/>
</g>
<!-- imagen.Animation -->
<g id="node54" class="node"><title>imagen.Animation</title>
<polygon fill="none" stroke="black" stroke-width="0.5" points="1216,-20.5 1112,-20.5 1112,0.5 1216,0.5 1216,-20.5"/>
<text text-anchor="middle" x="1164" y="-7.5" font-family="Vera" font-size="10.00">imagen.Animation</text>
</g>
<!-- dataviews.sheetviews.SheetStack&#45;&gt;imagen.Animation -->
<g id="edge50" class="edge"><title>dataviews.sheetviews.SheetStack&#45;&gt;imagen.Animation</title>
<path fill="none" stroke="black" stroke-width="0.5" d="M1076.02,-10C1086.43,-10 1096.83,-10 1106.64,-10"/>
<polygon fill="black" stroke="black" points="1106.72,-11.7501 1111.72,-10 1106.72,-8.2501 1106.72,-11.7501"/>
</g>
</g>
</svg>
