<?xml version="1.0" encoding="UTF-8" standalone="no"?>
<!DOCTYPE svg PUBLIC "-//W3C//DTD SVG 1.1//EN"
 "http://www.w3.org/Graphics/SVG/1.1/DTD/svg11.dtd">
<!-- Generated by graphviz version 2.26.3 (20100126.1600)
 -->
<!-- Title: inheritance0bce68b9cf Pages: 1 -->
<svg width="1872pt" height="408pt"
 viewBox="0.00 0.00 1872.00 408.00" xmlns="http://www.w3.org/2000/svg" xmlns:xlink="http://www.w3.org/1999/xlink">
<g id="graph1" class="graph" transform="scale(1 1) rotate(0) translate(4 404)">
<title>inheritance0bce68b9cf</title>
<polygon fill="white" stroke="white" points="-4,5 -4,-404 1869,-404 1869,5 -4,5"/>
<!-- param.parameterized.Parameterized -->
<g id="node1" class="node"><title>param.parameterized.Parameterized</title>
<polygon fill="none" stroke="black" stroke-width="0.5" points="194,-139.5 5.68434e-14,-139.5 0,-118.5 194,-118.5 194,-139.5"/>
<text text-anchor="middle" x="97" y="-126.5" font-family="Vera" font-size="10.00">param.parameterized.Parameterized</text>
</g>
<!-- param.parameterized.ParameterizedFunction -->
<g id="node7" class="node"><title>param.parameterized.ParameterizedFunction</title>
<polygon fill="none" stroke="black" stroke-width="0.5" points="464,-186.5 230,-186.5 230,-165.5 464,-165.5 464,-186.5"/>
<text text-anchor="middle" x="347" y="-173.5" font-family="Vera" font-size="10.00">param.parameterized.ParameterizedFunction</text>
</g>
<!-- param.parameterized.Parameterized&#45;&gt;param.parameterized.ParameterizedFunction -->
<g id="edge6" class="edge"><title>param.parameterized.Parameterized&#45;&gt;param.parameterized.ParameterizedFunction</title>
<path fill="none" stroke="black" stroke-width="0.5" d="M150.325,-139.025C190.976,-146.667 246.903,-157.182 288.728,-165.045"/>
<polygon fill="black" stroke="black" points="288.52,-166.786 293.757,-165.99 289.167,-163.347 288.52,-166.786"/>
</g>
<!-- topo.command.analysis.PatternPresenter2 -->
<g id="node9" class="node"><title>topo.command.analysis.PatternPresenter2</title>
<polygon fill="none" stroke="black" stroke-width="0.5" points="457,-139.5 237,-139.5 237,-118.5 457,-118.5 457,-139.5"/>
<text text-anchor="middle" x="347" y="-126.5" font-family="Vera" font-size="10.00">topo.command.analysis.PatternPresenter2</text>
</g>
<!-- param.parameterized.Parameterized&#45;&gt;topo.command.analysis.PatternPresenter2 -->
<g id="edge8" class="edge"><title>param.parameterized.Parameterized&#45;&gt;topo.command.analysis.PatternPresenter2</title>
<path fill="none" stroke="black" stroke-width="0.5" d="M194.014,-129C206.144,-129 218.644,-129 231.026,-129"/>
<polygon fill="black" stroke="black" points="231.324,-130.75 236.324,-129 231.324,-127.25 231.324,-130.75"/>
</g>
<!-- imagen.patterngenerator.PatternGenerator -->
<g id="node23" class="node"><title>imagen.patterngenerator.PatternGenerator</title>
<polygon fill="none" stroke="black" stroke-width="0.5" points="459,-82.5 235,-82.5 235,-61.5 459,-61.5 459,-82.5"/>
<text text-anchor="middle" x="347" y="-69.5" font-family="Vera" font-size="10.00">imagen.patterngenerator.PatternGenerator</text>
</g>
<!-- param.parameterized.Parameterized&#45;&gt;imagen.patterngenerator.PatternGenerator -->
<g id="edge44" class="edge"><title>param.parameterized.Parameterized&#45;&gt;imagen.patterngenerator.PatternGenerator</title>
<path fill="none" stroke="black" stroke-width="0.5" d="M141.12,-118.941C185.075,-108.919 252.414,-93.5656 298.007,-83.1705"/>
<polygon fill="black" stroke="black" points="298.416,-84.8722 302.902,-82.0544 297.638,-81.4597 298.416,-84.8722"/>
</g>
<!-- topo.command.analysis.measure_dr_pref -->
<g id="node2" class="node"><title>topo.command.analysis.measure_dr_pref</title>
<polygon fill="none" stroke="black" stroke-width="0.5" points="1837,-400.5 1621,-400.5 1621,-379.5 1837,-379.5 1837,-400.5"/>
<text text-anchor="middle" x="1729" y="-387.5" font-family="Vera" font-size="10.00">topo.command.analysis.measure_dr_pref</text>
</g>
<!-- topo.analysis.featureresponses.SinusoidalMeasureResponseCommand -->
<g id="node3" class="node"><title>topo.analysis.featureresponses.SinusoidalMeasureResponseCommand</title>
<polygon fill="none" stroke="black" stroke-width="0.5" points="1558,-248.5 1202,-248.5 1202,-227.5 1558,-227.5 1558,-248.5"/>
<text text-anchor="middle" x="1380" y="-235.5" font-family="Vera" font-size="10.00">topo.analysis.featureresponses.SinusoidalMeasureResponseCommand</text>
</g>
<!-- topo.analysis.featureresponses.SinusoidalMeasureResponseCommand&#45;&gt;topo.command.analysis.measure_dr_pref -->
<g id="edge2" class="edge"><title>topo.analysis.featureresponses.SinusoidalMeasureResponseCommand&#45;&gt;topo.command.analysis.measure_dr_pref</title>
<path fill="none" stroke="black" stroke-width="0.5" d="M1545.06,-248.013C1549.58,-250.67 1553.91,-253.655 1558,-257 1599.13,-290.642 1553.44,-336.675 1594,-371 1600.58,-376.571 1608.03,-380.942 1615.95,-384.34"/>
<polygon fill="black" stroke="black" points="1615.66,-386.105 1620.95,-386.333 1616.95,-382.854 1615.66,-386.105"/>
</g>
<!-- topo.command.analysis.measure_or_pref -->
<g id="node5" class="node"><title>topo.command.analysis.measure_or_pref</title>
<polygon fill="none" stroke="black" stroke-width="0.5" points="1837,-362.5 1621,-362.5 1621,-341.5 1837,-341.5 1837,-362.5"/>
<text text-anchor="middle" x="1729" y="-349.5" font-family="Vera" font-size="10.00">topo.command.analysis.measure_or_pref</text>
</g>
<!-- topo.analysis.featureresponses.SinusoidalMeasureResponseCommand&#45;&gt;topo.command.analysis.measure_or_pref -->
<g id="edge4" class="edge"><title>topo.analysis.featureresponses.SinusoidalMeasureResponseCommand&#45;&gt;topo.command.analysis.measure_or_pref</title>
<path fill="none" stroke="black" stroke-width="0.5" d="M1543.24,-248.123C1548.37,-250.725 1553.31,-253.672 1558,-257 1588.48,-278.637 1563.89,-310.856 1594,-333 1600.71,-337.935 1608.13,-341.873 1615.93,-344.994"/>
<polygon fill="black" stroke="black" points="1615.54,-346.716 1620.84,-346.833 1616.77,-343.439 1615.54,-346.716"/>
</g>
<!-- topo.command.analysis.measure_sine_pref -->
<g id="node20" class="node"><title>topo.command.analysis.measure_sine_pref</title>
<polygon fill="none" stroke="black" stroke-width="0.5" points="1842,-324.5 1616,-324.5 1616,-303.5 1842,-303.5 1842,-324.5"/>
<text text-anchor="middle" x="1729" y="-311.5" font-family="Vera" font-size="10.00">topo.command.analysis.measure_sine_pref</text>
</g>
<!-- topo.analysis.featureresponses.SinusoidalMeasureResponseCommand&#45;&gt;topo.command.analysis.measure_sine_pref -->
<g id="edge16" class="edge"><title>topo.analysis.featureresponses.SinusoidalMeasureResponseCommand&#45;&gt;topo.command.analysis.measure_sine_pref</title>
<path fill="none" stroke="black" stroke-width="0.5" d="M1536.23,-248.077C1543.73,-250.602 1551.04,-253.555 1558,-257 1578.85,-267.315 1573.32,-284.337 1594,-295 1599.42,-297.797 1605.12,-300.223 1610.99,-302.325"/>
<polygon fill="black" stroke="black" points="1610.66,-304.06 1615.95,-304.015 1611.79,-300.747 1610.66,-304.06"/>
</g>
<!-- topo.command.analysis.measure_second_or_pref -->
<g id="node41" class="node"><title>topo.command.analysis.measure_second_or_pref</title>
<polygon fill="none" stroke="black" stroke-width="0.5" points="1857,-286.5 1601,-286.5 1601,-265.5 1857,-265.5 1857,-286.5"/>
<text text-anchor="middle" x="1729" y="-273.5" font-family="Vera" font-size="10.00">topo.command.analysis.measure_second_or_pref</text>
</g>
<!-- topo.analysis.featureresponses.SinusoidalMeasureResponseCommand&#45;&gt;topo.command.analysis.measure_second_or_pref -->
<g id="edge36" class="edge"><title>topo.analysis.featureresponses.SinusoidalMeasureResponseCommand&#45;&gt;topo.command.analysis.measure_second_or_pref</title>
<path fill="none" stroke="black" stroke-width="0.5" d="M1474.7,-248.031C1501.62,-250.904 1530.97,-254.055 1558,-257 1582.67,-259.688 1609.34,-262.632 1634.12,-265.384"/>
<polygon fill="black" stroke="black" points="1634.21,-267.155 1639.37,-265.968 1634.6,-263.676 1634.21,-267.155"/>
</g>
<!-- topo.command.analysis.measure_hue_pref -->
<g id="node51" class="node"><title>topo.command.analysis.measure_hue_pref</title>
<polygon fill="none" stroke="black" stroke-width="0.5" points="1841,-248.5 1617,-248.5 1617,-227.5 1841,-227.5 1841,-248.5"/>
<text text-anchor="middle" x="1729" y="-235.5" font-family="Vera" font-size="10.00">topo.command.analysis.measure_hue_pref</text>
</g>
<!-- topo.analysis.featureresponses.SinusoidalMeasureResponseCommand&#45;&gt;topo.command.analysis.measure_hue_pref -->
<g id="edge50" class="edge"><title>topo.analysis.featureresponses.SinusoidalMeasureResponseCommand&#45;&gt;topo.command.analysis.measure_hue_pref</title>
<path fill="none" stroke="black" stroke-width="0.5" d="M1558.08,-238C1576.2,-238 1594.27,-238 1611.51,-238"/>
<polygon fill="black" stroke="black" points="1611.83,-239.75 1616.83,-238 1611.83,-236.25 1611.83,-239.75"/>
</g>
<!-- topo.command.analysis.measure_phasedisparity -->
<g id="node57" class="node"><title>topo.command.analysis.measure_phasedisparity</title>
<polygon fill="none" stroke="black" stroke-width="0.5" points="1855,-210.5 1603,-210.5 1603,-189.5 1855,-189.5 1855,-210.5"/>
<text text-anchor="middle" x="1729" y="-197.5" font-family="Vera" font-size="10.00">topo.command.analysis.measure_phasedisparity</text>
</g>
<!-- topo.analysis.featureresponses.SinusoidalMeasureResponseCommand&#45;&gt;topo.command.analysis.measure_phasedisparity -->
<g id="edge56" class="edge"><title>topo.analysis.featureresponses.SinusoidalMeasureResponseCommand&#45;&gt;topo.command.analysis.measure_phasedisparity</title>
<path fill="none" stroke="black" stroke-width="0.5" d="M1472.15,-227.966C1521.35,-222.609 1581.89,-216.018 1631.83,-210.58"/>
<polygon fill="black" stroke="black" points="1632.16,-212.305 1636.94,-210.024 1631.78,-208.826 1632.16,-212.305"/>
</g>
<!-- topo.command.analysis.measure_od_pref -->
<g id="node60" class="node"><title>topo.command.analysis.measure_od_pref</title>
<polygon fill="none" stroke="black" stroke-width="0.5" points="1838,-172.5 1620,-172.5 1620,-151.5 1838,-151.5 1838,-172.5"/>
<text text-anchor="middle" x="1729" y="-159.5" font-family="Vera" font-size="10.00">topo.command.analysis.measure_od_pref</text>
</g>
<!-- topo.analysis.featureresponses.SinusoidalMeasureResponseCommand&#45;&gt;topo.command.analysis.measure_od_pref -->
<g id="edge60" class="edge"><title>topo.analysis.featureresponses.SinusoidalMeasureResponseCommand&#45;&gt;topo.command.analysis.measure_od_pref</title>
<path fill="none" stroke="black" stroke-width="0.5" d="M1412.7,-227.97C1454.43,-215.479 1529,-194.181 1594,-181 1609.11,-177.936 1625.27,-175.201 1640.97,-172.827"/>
<polygon fill="black" stroke="black" points="1641.59,-174.504 1646.27,-172.035 1641.07,-171.042 1641.59,-174.504"/>
</g>
<!-- topo.plotting.plotgroup.ProjectionSheetMeasurementCommand -->
<g id="node12" class="node"><title>topo.plotting.plotgroup.ProjectionSheetMeasurementCommand</title>
<polygon fill="none" stroke="black" stroke-width="0.5" points="822,-239.5 500,-239.5 500,-218.5 822,-218.5 822,-239.5"/>
<text text-anchor="middle" x="661" y="-226.5" font-family="Vera" font-size="10.00">topo.plotting.plotgroup.ProjectionSheetMeasurementCommand</text>
</g>
<!-- param.parameterized.ParameterizedFunction&#45;&gt;topo.plotting.plotgroup.ProjectionSheetMeasurementCommand -->
<g id="edge46" class="edge"><title>param.parameterized.ParameterizedFunction&#45;&gt;topo.plotting.plotgroup.ProjectionSheetMeasurementCommand</title>
<path fill="none" stroke="black" stroke-width="0.5" d="M406.43,-186.031C460.709,-195.193 540.766,-208.706 596.562,-218.124"/>
<polygon fill="black" stroke="black" points="596.325,-219.858 601.546,-218.965 596.907,-216.407 596.325,-219.858"/>
</g>
<!-- topo.command.analysis.save_plotgroup -->
<g id="node30" class="node"><title>topo.command.analysis.save_plotgroup</title>
<polygon fill="none" stroke="black" stroke-width="0.5" points="765,-191.5 557,-191.5 557,-170.5 765,-170.5 765,-191.5"/>
<text text-anchor="middle" x="661" y="-178.5" font-family="Vera" font-size="10.00">topo.command.analysis.save_plotgroup</text>
</g>
<!-- param.parameterized.ParameterizedFunction&#45;&gt;topo.command.analysis.save_plotgroup -->
<g id="edge26" class="edge"><title>param.parameterized.ParameterizedFunction&#45;&gt;topo.command.analysis.save_plotgroup</title>
<path fill="none" stroke="black" stroke-width="0.5" d="M464.369,-177.869C492.984,-178.325 523.479,-178.81 551.702,-179.26"/>
<polygon fill="black" stroke="black" points="551.917,-181.013 556.945,-179.343 551.973,-177.514 551.917,-181.013"/>
</g>
<!-- topo.analysis.featureresponses.PatternPresentingCommand -->
<g id="node32" class="node"><title>topo.analysis.featureresponses.PatternPresentingCommand</title>
<polygon fill="none" stroke="black" stroke-width="0.5" points="813,-153.5 509,-153.5 509,-132.5 813,-132.5 813,-153.5"/>
<text text-anchor="middle" x="661" y="-140.5" font-family="Vera" font-size="10.00">topo.analysis.featureresponses.PatternPresentingCommand</text>
</g>
<!-- param.parameterized.ParameterizedFunction&#45;&gt;topo.analysis.featureresponses.PatternPresentingCommand -->
<g id="edge38" class="edge"><title>param.parameterized.ParameterizedFunction&#45;&gt;topo.analysis.featureresponses.PatternPresentingCommand</title>
<path fill="none" stroke="black" stroke-width="0.5" d="M442.489,-165.965C479.874,-162.036 522.786,-157.526 560.629,-153.549"/>
<polygon fill="black" stroke="black" points="560.905,-155.279 565.695,-153.016 560.539,-151.798 560.905,-155.279"/>
</g>
<!-- topo.plotting.plotgroup.UnitMeasurementCommand -->
<g id="node11" class="node"><title>topo.plotting.plotgroup.UnitMeasurementCommand</title>
<polygon fill="none" stroke="black" stroke-width="0.5" points="1145,-286.5 879,-286.5 879,-265.5 1145,-265.5 1145,-286.5"/>
<text text-anchor="middle" x="1012" y="-273.5" font-family="Vera" font-size="10.00">topo.plotting.plotgroup.UnitMeasurementCommand</text>
</g>
<!-- topo.command.analysis.update_connectionfields -->
<g id="node28" class="node"><title>topo.command.analysis.update_connectionfields</title>
<polygon fill="none" stroke="black" stroke-width="0.5" points="1505,-324.5 1255,-324.5 1255,-303.5 1505,-303.5 1505,-324.5"/>
<text text-anchor="middle" x="1380" y="-311.5" font-family="Vera" font-size="10.00">topo.command.analysis.update_connectionfields</text>
</g>
<!-- topo.plotting.plotgroup.UnitMeasurementCommand&#45;&gt;topo.command.analysis.update_connectionfields -->
<g id="edge24" class="edge"><title>topo.plotting.plotgroup.UnitMeasurementCommand&#45;&gt;topo.command.analysis.update_connectionfields</title>
<path fill="none" stroke="black" stroke-width="0.5" d="M1109.17,-286.034C1161.15,-291.402 1225.14,-298.009 1277.86,-303.453"/>
<polygon fill="black" stroke="black" points="1277.77,-305.203 1282.93,-303.976 1278.13,-301.722 1277.77,-305.203"/>
</g>
<!-- topo.command.analysis.update_projection -->
<g id="node36" class="node"><title>topo.command.analysis.update_projection</title>
<polygon fill="none" stroke="black" stroke-width="0.5" points="1490,-286.5 1270,-286.5 1270,-265.5 1490,-265.5 1490,-286.5"/>
<text text-anchor="middle" x="1380" y="-273.5" font-family="Vera" font-size="10.00">topo.command.analysis.update_projection</text>
</g>
<!-- topo.plotting.plotgroup.UnitMeasurementCommand&#45;&gt;topo.command.analysis.update_projection -->
<g id="edge32" class="edge"><title>topo.plotting.plotgroup.UnitMeasurementCommand&#45;&gt;topo.command.analysis.update_projection</title>
<path fill="none" stroke="black" stroke-width="0.5" d="M1145.12,-276C1184.11,-276 1226.42,-276 1264.24,-276"/>
<polygon fill="black" stroke="black" points="1264.3,-277.75 1269.3,-276 1264.3,-274.25 1264.3,-277.75"/>
</g>
<!-- topo.plotting.plotgroup.ProjectionSheetMeasurementCommand&#45;&gt;topo.plotting.plotgroup.UnitMeasurementCommand -->
<g id="edge10" class="edge"><title>topo.plotting.plotgroup.ProjectionSheetMeasurementCommand&#45;&gt;topo.plotting.plotgroup.UnitMeasurementCommand</title>
<path fill="none" stroke="black" stroke-width="0.5" d="M735.868,-239.025C793.522,-246.745 873.062,-257.396 931.971,-265.284"/>
<polygon fill="black" stroke="black" points="932.059,-267.061 937.247,-265.99 932.524,-263.592 932.059,-267.061"/>
</g>
<!-- topo.command.analysis.update_projectionactivity -->
<g id="node26" class="node"><title>topo.command.analysis.update_projectionactivity</title>
<polygon fill="none" stroke="black" stroke-width="0.5" points="1139,-239.5 885,-239.5 885,-218.5 1139,-218.5 1139,-239.5"/>
<text text-anchor="middle" x="1012" y="-226.5" font-family="Vera" font-size="10.00">topo.command.analysis.update_projectionactivity</text>
</g>
<!-- topo.plotting.plotgroup.ProjectionSheetMeasurementCommand&#45;&gt;topo.command.analysis.update_projectionactivity -->
<g id="edge22" class="edge"><title>topo.plotting.plotgroup.ProjectionSheetMeasurementCommand&#45;&gt;topo.command.analysis.update_projectionactivity</title>
<path fill="none" stroke="black" stroke-width="0.5" d="M822.118,-229C841.391,-229 860.898,-229 879.699,-229"/>
<polygon fill="black" stroke="black" points="879.982,-230.75 884.982,-229 879.982,-227.25 879.982,-230.75"/>
</g>
<!-- topo.command.analysis.measure_rfs -->
<g id="node14" class="node"><title>topo.command.analysis.measure_rfs</title>
<polygon fill="none" stroke="black" stroke-width="0.5" points="1826,-134.5 1632,-134.5 1632,-113.5 1826,-113.5 1826,-134.5"/>
<text text-anchor="middle" x="1729" y="-121.5" font-family="Vera" font-size="10.00">topo.command.analysis.measure_rfs</text>
</g>
<!-- topo.analysis.featureresponses.SingleInputResponseCommand -->
<g id="node15" class="node"><title>topo.analysis.featureresponses.SingleInputResponseCommand</title>
<polygon fill="none" stroke="black" stroke-width="0.5" points="1539,-172.5 1221,-172.5 1221,-151.5 1539,-151.5 1539,-172.5"/>
<text text-anchor="middle" x="1380" y="-159.5" font-family="Vera" font-size="10.00">topo.analysis.featureresponses.SingleInputResponseCommand</text>
</g>
<!-- topo.analysis.featureresponses.SingleInputResponseCommand&#45;&gt;topo.command.analysis.measure_rfs -->
<g id="edge12" class="edge"><title>topo.analysis.featureresponses.SingleInputResponseCommand&#45;&gt;topo.command.analysis.measure_rfs</title>
<path fill="none" stroke="black" stroke-width="0.5" d="M1474.7,-151.969C1501.62,-149.096 1530.97,-145.945 1558,-143 1582.67,-140.312 1609.34,-137.368 1634.12,-134.616"/>
<polygon fill="black" stroke="black" points="1634.6,-136.324 1639.37,-134.032 1634.21,-132.845 1634.6,-136.324"/>
</g>
<!-- topo.command.analysis.measure_latency_preference -->
<g id="node17" class="node"><title>topo.command.analysis.measure_latency_preference</title>
<polygon fill="none" stroke="black" stroke-width="0.5" points="1517,-134.5 1243,-134.5 1243,-113.5 1517,-113.5 1517,-134.5"/>
<text text-anchor="middle" x="1380" y="-121.5" font-family="Vera" font-size="10.00">topo.command.analysis.measure_latency_preference</text>
</g>
<!-- topo.analysis.featureresponses.MeasureResponseCommand -->
<g id="node18" class="node"><title>topo.analysis.featureresponses.MeasureResponseCommand</title>
<polygon fill="none" stroke="black" stroke-width="0.5" points="1165,-134.5 859,-134.5 859,-113.5 1165,-113.5 1165,-134.5"/>
<text text-anchor="middle" x="1012" y="-121.5" font-family="Vera" font-size="10.00">topo.analysis.featureresponses.MeasureResponseCommand</text>
</g>
<!-- topo.analysis.featureresponses.MeasureResponseCommand&#45;&gt;topo.analysis.featureresponses.SinusoidalMeasureResponseCommand -->
<g id="edge20" class="edge"><title>topo.analysis.featureresponses.MeasureResponseCommand&#45;&gt;topo.analysis.featureresponses.SinusoidalMeasureResponseCommand</title>
<path fill="none" stroke="black" stroke-width="0.5" d="M1044.34,-134.017C1112.42,-155.108 1270.21,-203.99 1342.55,-226.398"/>
<polygon fill="black" stroke="black" points="1342.31,-228.157 1347.61,-227.965 1343.35,-224.814 1342.31,-228.157"/>
</g>
<!-- topo.analysis.featureresponses.MeasureResponseCommand&#45;&gt;topo.analysis.featureresponses.SingleInputResponseCommand -->
<g id="edge58" class="edge"><title>topo.analysis.featureresponses.MeasureResponseCommand&#45;&gt;topo.analysis.featureresponses.SingleInputResponseCommand</title>
<path fill="none" stroke="black" stroke-width="0.5" d="M1109.17,-134.034C1161.15,-139.402 1225.14,-146.009 1277.86,-151.453"/>
<polygon fill="black" stroke="black" points="1277.77,-153.203 1282.93,-151.976 1278.13,-149.722 1277.77,-153.203"/>
</g>
<!-- topo.analysis.featureresponses.MeasureResponseCommand&#45;&gt;topo.command.analysis.measure_latency_preference -->
<g id="edge14" class="edge"><title>topo.analysis.featureresponses.MeasureResponseCommand&#45;&gt;topo.command.analysis.measure_latency_preference</title>
<path fill="none" stroke="black" stroke-width="0.5" d="M1165.67,-124C1189.59,-124 1214.21,-124 1237.86,-124"/>
<polygon fill="black" stroke="black" points="1237.89,-125.75 1242.89,-124 1237.89,-122.25 1237.89,-125.75"/>
</g>
<!-- topo.analysis.featureresponses.PositionMeasurementCommand -->
<g id="node39" class="node"><title>topo.analysis.featureresponses.PositionMeasurementCommand</title>
<polygon fill="none" stroke="black" stroke-width="0.5" points="1542,-96.5 1218,-96.5 1218,-75.5 1542,-75.5 1542,-96.5"/>
<text text-anchor="middle" x="1380" y="-83.5" font-family="Vera" font-size="10.00">topo.analysis.featureresponses.PositionMeasurementCommand</text>
</g>
<!-- topo.analysis.featureresponses.MeasureResponseCommand&#45;&gt;topo.analysis.featureresponses.PositionMeasurementCommand -->
<g id="edge48" class="edge"><title>topo.analysis.featureresponses.MeasureResponseCommand&#45;&gt;topo.analysis.featureresponses.PositionMeasurementCommand</title>
<path fill="none" stroke="black" stroke-width="0.5" d="M1109.17,-113.966C1161.15,-108.598 1225.14,-101.991 1277.86,-96.5472"/>
<polygon fill="black" stroke="black" points="1278.13,-98.2785 1282.93,-96.024 1277.77,-94.797 1278.13,-98.2785"/>
</g>
<!-- topo.command.analysis.measure_log_frequency_preference -->
<g id="node46" class="node"><title>topo.command.analysis.measure_log_frequency_preference</title>
<polygon fill="none" stroke="black" stroke-width="0.5" points="1533,-58.5 1227,-58.5 1227,-37.5 1533,-37.5 1533,-58.5"/>
<text text-anchor="middle" x="1380" y="-45.5" font-family="Vera" font-size="10.00">topo.command.analysis.measure_log_frequency_preference</text>
</g>
<!-- topo.analysis.featureresponses.MeasureResponseCommand&#45;&gt;topo.command.analysis.measure_log_frequency_preference -->
<g id="edge42" class="edge"><title>topo.analysis.featureresponses.MeasureResponseCommand&#45;&gt;topo.command.analysis.measure_log_frequency_preference</title>
<path fill="none" stroke="black" stroke-width="0.5" d="M1039.6,-113.958C1076.21,-101.045 1143.09,-78.8742 1202,-67 1218.29,-63.7166 1235.54,-60.976 1252.64,-58.6945"/>
<polygon fill="black" stroke="black" points="1253.21,-60.385 1257.94,-58.0011 1252.75,-56.9146 1253.21,-60.385"/>
</g>
<!-- topo.command.analysis.measure_frequency_preference -->
<g id="node55" class="node"><title>topo.command.analysis.measure_frequency_preference</title>
<polygon fill="none" stroke="black" stroke-width="0.5" points="1523,-20.5 1237,-20.5 1237,0.5 1523,0.5 1523,-20.5"/>
<text text-anchor="middle" x="1380" y="-7.5" font-family="Vera" font-size="10.00">topo.command.analysis.measure_frequency_preference</text>
</g>
<!-- topo.analysis.featureresponses.MeasureResponseCommand&#45;&gt;topo.command.analysis.measure_frequency_preference -->
<g id="edge54" class="edge"><title>topo.analysis.featureresponses.MeasureResponseCommand&#45;&gt;topo.command.analysis.measure_frequency_preference</title>
<path fill="none" stroke="black" stroke-width="0.5" d="M1027.47,-113.833C1058.87,-93.7561 1132.99,-49.219 1202,-29 1212.83,-25.8271 1224.17,-23.1721 1235.65,-20.9518"/>
<polygon fill="black" stroke="black" points="1235.99,-22.6688 1240.59,-20.0266 1235.35,-19.2289 1235.99,-22.6688"/>
</g>
<!-- topo.command.analysis.frequency_mapper -->
<g id="node22" class="node"><title>topo.command.analysis.frequency_mapper</title>
<polygon fill="none" stroke="black" stroke-width="0.5" points="773,-115.5 549,-115.5 549,-94.5 773,-94.5 773,-115.5"/>
<text text-anchor="middle" x="661" y="-102.5" font-family="Vera" font-size="10.00">topo.command.analysis.frequency_mapper</text>
</g>
<!-- imagen.patterngenerator.PatternGenerator&#45;&gt;topo.command.analysis.frequency_mapper -->
<g id="edge18" class="edge"><title>imagen.patterngenerator.PatternGenerator&#45;&gt;topo.command.analysis.frequency_mapper</title>
<path fill="none" stroke="black" stroke-width="0.5" d="M442.489,-82.0355C479.874,-85.9645 522.786,-90.4743 560.629,-94.4515"/>
<polygon fill="black" stroke="black" points="560.539,-96.2016 565.695,-94.9838 560.905,-92.7207 560.539,-96.2016"/>
</g>
<!-- topo.command.analysis.latency_mapper -->
<g id="node34" class="node"><title>topo.command.analysis.latency_mapper</title>
<polygon fill="none" stroke="black" stroke-width="0.5" points="767,-77.5 555,-77.5 555,-56.5 767,-56.5 767,-77.5"/>
<text text-anchor="middle" x="661" y="-64.5" font-family="Vera" font-size="10.00">topo.command.analysis.latency_mapper</text>
</g>
<!-- imagen.patterngenerator.PatternGenerator&#45;&gt;topo.command.analysis.latency_mapper -->
<g id="edge30" class="edge"><title>imagen.patterngenerator.PatternGenerator&#45;&gt;topo.command.analysis.latency_mapper</title>
<path fill="none" stroke="black" stroke-width="0.5" d="M459.031,-70.2161C488.501,-69.7468 520.279,-69.2408 549.709,-68.7721"/>
<polygon fill="black" stroke="black" points="549.821,-70.5207 554.792,-68.6912 549.765,-67.0211 549.821,-70.5207"/>
</g>
<!-- topo.command.analysis.log_frequency_mapper -->
<g id="node53" class="node"><title>topo.command.analysis.log_frequency_mapper</title>
<polygon fill="none" stroke="black" stroke-width="0.5" points="783,-39.5 539,-39.5 539,-18.5 783,-18.5 783,-39.5"/>
<text text-anchor="middle" x="661" y="-26.5" font-family="Vera" font-size="10.00">topo.command.analysis.log_frequency_mapper</text>
</g>
<!-- imagen.patterngenerator.PatternGenerator&#45;&gt;topo.command.analysis.log_frequency_mapper -->
<g id="edge52" class="edge"><title>imagen.patterngenerator.PatternGenerator&#45;&gt;topo.command.analysis.log_frequency_mapper</title>
<path fill="none" stroke="black" stroke-width="0.5" d="M407.603,-61.9491C435.677,-57.4333 469.501,-52.1902 500,-48 521.167,-45.0919 543.939,-42.2377 565.501,-39.6613"/>
<polygon fill="black" stroke="black" points="565.904,-41.3757 570.662,-39.0471 565.49,-37.9003 565.904,-41.3757"/>
</g>
<!-- topo.analysis.featureresponses.PatternPresentingCommand&#45;&gt;topo.analysis.featureresponses.MeasureResponseCommand -->
<g id="edge28" class="edge"><title>topo.analysis.featureresponses.PatternPresentingCommand&#45;&gt;topo.analysis.featureresponses.MeasureResponseCommand</title>
<path fill="none" stroke="black" stroke-width="0.5" d="M813.677,-134.735C826.734,-134.029 839.963,-133.313 853.067,-132.603"/>
<polygon fill="black" stroke="black" points="853.38,-134.339 858.278,-132.321 853.19,-130.844 853.38,-134.339"/>
</g>
<!-- topo.command.analysis.measure_corner_angle_pref -->
<g id="node38" class="node"><title>topo.command.analysis.measure_corner_angle_pref</title>
<polygon fill="none" stroke="black" stroke-width="0.5" points="1863,-96.5 1595,-96.5 1595,-75.5 1863,-75.5 1863,-96.5"/>
<text text-anchor="middle" x="1729" y="-83.5" font-family="Vera" font-size="10.00">topo.command.analysis.measure_corner_angle_pref</text>
</g>
<!-- topo.analysis.featureresponses.PositionMeasurementCommand&#45;&gt;topo.command.analysis.measure_corner_angle_pref -->
<g id="edge34" class="edge"><title>topo.analysis.featureresponses.PositionMeasurementCommand&#45;&gt;topo.command.analysis.measure_corner_angle_pref</title>
<path fill="none" stroke="black" stroke-width="0.5" d="M1542.24,-86C1557.91,-86 1573.72,-86 1589.15,-86"/>
<polygon fill="black" stroke="black" points="1589.36,-87.7501 1594.36,-86 1589.36,-84.2501 1589.36,-87.7501"/>
</g>
<!-- topo.command.analysis.measure_corner_or_pref -->
<g id="node44" class="node"><title>topo.command.analysis.measure_corner_or_pref</title>
<polygon fill="none" stroke="black" stroke-width="0.5" points="1855,-58.5 1603,-58.5 1603,-37.5 1855,-37.5 1855,-58.5"/>
<text text-anchor="middle" x="1729" y="-45.5" font-family="Vera" font-size="10.00">topo.command.analysis.measure_corner_or_pref</text>
</g>
<!-- topo.analysis.featureresponses.PositionMeasurementCommand&#45;&gt;topo.command.analysis.measure_corner_or_pref -->
<g id="edge40" class="edge"><title>topo.analysis.featureresponses.PositionMeasurementCommand&#45;&gt;topo.command.analysis.measure_corner_or_pref</title>
<path fill="none" stroke="black" stroke-width="0.5" d="M1474.7,-75.9688C1501.62,-73.096 1530.97,-69.9447 1558,-67 1582.67,-64.3125 1609.34,-61.3679 1634.12,-58.6164"/>
<polygon fill="black" stroke="black" points="1634.6,-60.3239 1639.37,-58.0323 1634.21,-56.8453 1634.6,-60.3239"/>
</g>
</g>
</svg>
