<?xml version="1.0" encoding="UTF-8" standalone="no"?>
<!DOCTYPE svg PUBLIC "-//W3C//DTD SVG 1.1//EN"
 "http://www.w3.org/Graphics/SVG/1.1/DTD/svg11.dtd">
<!-- Generated by graphviz version 2.26.3 (20100126.1600)
 -->
<!-- Title: inheritance95afd34832 Pages: 1 -->
<svg width="1474pt" height="636pt"
 viewBox="0.00 0.00 1474.00 636.00" xmlns="http://www.w3.org/2000/svg" xmlns:xlink="http://www.w3.org/1999/xlink">
<g id="graph1" class="graph" transform="scale(1 1) rotate(0) translate(4 632)">
<title>inheritance95afd34832</title>
<polygon fill="white" stroke="white" points="-4,5 -4,-632 1471,-632 1471,5 -4,5"/>
<!-- Tkinter.Toplevel -->
<g id="node1" class="node"><title>Tkinter.Toplevel</title>
<polygon fill="none" stroke="black" stroke-width="0.5" points="568,-58.5 480,-58.5 480,-37.5 568,-37.5 568,-58.5"/>
<text text-anchor="middle" x="524" y="-45.5" font-family="Vera" font-size="10.00">Tkinter.Toplevel</text>
</g>
<!-- paramtk.ScrolledWindow -->
<g id="node53" class="node"><title>paramtk.ScrolledWindow</title>
<polygon fill="none" stroke="black" stroke-width="0.5" points="784,-58.5 650,-58.5 650,-37.5 784,-37.5 784,-58.5"/>
<text text-anchor="middle" x="717" y="-45.5" font-family="Vera" font-size="10.00">paramtk.ScrolledWindow</text>
</g>
<!-- Tkinter.Toplevel&#45;&gt;paramtk.ScrolledWindow -->
<g id="edge46" class="edge"><title>Tkinter.Toplevel&#45;&gt;paramtk.ScrolledWindow</title>
<path fill="none" stroke="black" stroke-width="0.5" d="M568.763,-48C591.313,-48 619.213,-48 644.705,-48"/>
<polygon fill="black" stroke="black" points="644.769,-49.7501 649.769,-48 644.769,-46.2501 644.769,-49.7501"/>
</g>
<!-- paramtk.ToolTip -->
<g id="node59" class="node"><title>paramtk.ToolTip</title>
<polygon fill="none" stroke="black" stroke-width="0.5" points="763,-20.5 671,-20.5 671,0.5 763,0.5 763,-20.5"/>
<text text-anchor="middle" x="717" y="-7.5" font-family="Vera" font-size="10.00">paramtk.ToolTip</text>
</g>
<!-- Tkinter.Toplevel&#45;&gt;paramtk.ToolTip -->
<g id="edge52" class="edge"><title>Tkinter.Toplevel&#45;&gt;paramtk.ToolTip</title>
<path fill="none" stroke="black" stroke-width="0.5" d="M568.763,-39.1865C597.711,-33.4869 635.478,-26.0509 665.646,-20.1111"/>
<polygon fill="black" stroke="black" points="666.235,-21.7789 670.802,-19.0959 665.558,-18.3449 666.235,-21.7789"/>
</g>
<!-- Tkinter.BaseWidget -->
<g id="node2" class="node"><title>Tkinter.BaseWidget</title>
<polygon fill="none" stroke="black" stroke-width="0.5" points="362,-106.5 256,-106.5 256,-85.5 362,-85.5 362,-106.5"/>
<text text-anchor="middle" x="309" y="-93.5" font-family="Vera" font-size="10.00">Tkinter.BaseWidget</text>
</g>
<!-- Tkinter.BaseWidget&#45;&gt;Tkinter.Toplevel -->
<g id="edge2" class="edge"><title>Tkinter.BaseWidget&#45;&gt;Tkinter.Toplevel</title>
<path fill="none" stroke="black" stroke-width="0.5" d="M353.809,-85.9961C388.882,-78.166 437.638,-67.2808 473.98,-59.1673"/>
<polygon fill="black" stroke="black" points="474.75,-60.7885 479.248,-57.9911 473.987,-57.3726 474.75,-60.7885"/>
</g>
<!-- Tkinter.Widget -->
<g id="node12" class="node"><title>Tkinter.Widget</title>
<polygon fill="none" stroke="black" stroke-width="0.5" points="565,-191.5 483,-191.5 483,-170.5 565,-170.5 565,-191.5"/>
<text text-anchor="middle" x="524" y="-178.5" font-family="Vera" font-size="10.00">Tkinter.Widget</text>
</g>
<!-- Tkinter.BaseWidget&#45;&gt;Tkinter.Widget -->
<g id="edge78" class="edge"><title>Tkinter.BaseWidget&#45;&gt;Tkinter.Widget</title>
<path fill="none" stroke="black" stroke-width="0.5" d="M349.617,-106.08C367.18,-110.858 387.829,-117.046 406,-124 440.063,-137.036 477.738,-156.098 501.144,-168.527"/>
<polygon fill="black" stroke="black" points="500.394,-170.11 505.629,-170.92 502.042,-167.022 500.394,-170.11"/>
</g>
<!-- Tkinter.Wm -->
<g id="node4" class="node"><title>Tkinter.Wm</title>
<polygon fill="none" stroke="black" stroke-width="0.5" points="343,-58.5 275,-58.5 275,-37.5 343,-37.5 343,-58.5"/>
<text text-anchor="middle" x="309" y="-45.5" font-family="Vera" font-size="10.00">Tkinter.Wm</text>
</g>
<!-- Tkinter.Wm&#45;&gt;Tkinter.Toplevel -->
<g id="edge4" class="edge"><title>Tkinter.Wm&#45;&gt;Tkinter.Toplevel</title>
<path fill="none" stroke="black" stroke-width="0.5" d="M343.543,-48C378.874,-48 434.11,-48 474.169,-48"/>
<polygon fill="black" stroke="black" points="474.47,-49.7501 479.47,-48 474.47,-46.2501 474.47,-49.7501"/>
</g>
<!-- paramtk.String_ObjectTranslator -->
<g id="node6" class="node"><title>paramtk.String_ObjectTranslator</title>
<polygon fill="none" stroke="black" stroke-width="0.5" points="394,-590.5 224,-590.5 224,-569.5 394,-569.5 394,-590.5"/>
<text text-anchor="middle" x="309" y="-577.5" font-family="Vera" font-size="10.00">paramtk.String_ObjectTranslator</text>
</g>
<!-- paramtk.CSPTranslator -->
<g id="node48" class="node"><title>paramtk.CSPTranslator</title>
<polygon fill="none" stroke="black" stroke-width="0.5" points="587,-590.5 461,-590.5 461,-569.5 587,-569.5 587,-590.5"/>
<text text-anchor="middle" x="524" y="-577.5" font-family="Vera" font-size="10.00">paramtk.CSPTranslator</text>
</g>
<!-- paramtk.String_ObjectTranslator&#45;&gt;paramtk.CSPTranslator -->
<g id="edge42" class="edge"><title>paramtk.String_ObjectTranslator&#45;&gt;paramtk.CSPTranslator</title>
<path fill="none" stroke="black" stroke-width="0.5" d="M394.591,-580C414.822,-580 436.133,-580 455.493,-580"/>
<polygon fill="black" stroke="black" points="455.899,-581.75 460.899,-580 455.899,-578.25 455.899,-581.75"/>
</g>
<!-- paramtk.Translator -->
<g id="node7" class="node"><title>paramtk.Translator</title>
<polygon fill="none" stroke="black" stroke-width="0.5" points="141,-533.5 35,-533.5 35,-512.5 141,-512.5 141,-533.5"/>
<text text-anchor="middle" x="88" y="-520.5" font-family="Vera" font-size="10.00">paramtk.Translator</text>
</g>
<!-- paramtk.Translator&#45;&gt;paramtk.String_ObjectTranslator -->
<g id="edge6" class="edge"><title>paramtk.Translator&#45;&gt;paramtk.String_ObjectTranslator</title>
<path fill="none" stroke="black" stroke-width="0.5" d="M117.572,-533.012C142.543,-541.236 179.347,-552.822 212,-561 223.434,-563.864 235.715,-566.558 247.566,-568.969"/>
<polygon fill="black" stroke="black" points="247.368,-570.714 252.615,-569.984 248.058,-567.282 247.368,-570.714"/>
</g>
<!-- paramtk.ListTranslator -->
<g id="node9" class="node"><title>paramtk.ListTranslator</title>
<polygon fill="none" stroke="black" stroke-width="0.5" points="370,-552.5 248,-552.5 248,-531.5 370,-531.5 370,-552.5"/>
<text text-anchor="middle" x="309" y="-539.5" font-family="Vera" font-size="10.00">paramtk.ListTranslator</text>
</g>
<!-- paramtk.Translator&#45;&gt;paramtk.ListTranslator -->
<g id="edge8" class="edge"><title>paramtk.Translator&#45;&gt;paramtk.ListTranslator</title>
<path fill="none" stroke="black" stroke-width="0.5" d="M141.78,-527.624C171.978,-530.22 209.931,-533.483 242.043,-536.244"/>
<polygon fill="black" stroke="black" points="242.013,-537.997 247.145,-536.682 242.313,-534.51 242.013,-537.997"/>
</g>
<!-- paramtk.Eval_ReprTranslator -->
<g id="node17" class="node"><title>paramtk.Eval_ReprTranslator</title>
<polygon fill="none" stroke="black" stroke-width="0.5" points="385,-514.5 233,-514.5 233,-493.5 385,-493.5 385,-514.5"/>
<text text-anchor="middle" x="309" y="-501.5" font-family="Vera" font-size="10.00">paramtk.Eval_ReprTranslator</text>
</g>
<!-- paramtk.Translator&#45;&gt;paramtk.Eval_ReprTranslator -->
<g id="edge14" class="edge"><title>paramtk.Translator&#45;&gt;paramtk.Eval_ReprTranslator</title>
<path fill="none" stroke="black" stroke-width="0.5" d="M141.78,-518.376C167.52,-516.163 198.894,-513.466 227.482,-511.008"/>
<polygon fill="black" stroke="black" points="227.954,-512.724 232.786,-510.552 227.654,-509.237 227.954,-512.724"/>
</g>
<!-- paramtk.DoNothingTranslator -->
<g id="node23" class="node"><title>paramtk.DoNothingTranslator</title>
<polygon fill="none" stroke="black" stroke-width="0.5" points="388,-476.5 230,-476.5 230,-455.5 388,-455.5 388,-476.5"/>
<text text-anchor="middle" x="309" y="-463.5" font-family="Vera" font-size="10.00">paramtk.DoNothingTranslator</text>
</g>
<!-- paramtk.Translator&#45;&gt;paramtk.DoNothingTranslator -->
<g id="edge26" class="edge"><title>paramtk.Translator&#45;&gt;paramtk.DoNothingTranslator</title>
<path fill="none" stroke="black" stroke-width="0.5" d="M117.572,-512.988C142.543,-504.764 179.347,-493.178 212,-485 223.434,-482.136 235.715,-479.442 247.566,-477.031"/>
<polygon fill="black" stroke="black" points="248.058,-478.718 252.615,-476.016 247.368,-475.286 248.058,-478.718"/>
</g>
<!-- Tkinter.Button -->
<g id="node11" class="node"><title>Tkinter.Button</title>
<polygon fill="none" stroke="black" stroke-width="0.5" points="758,-134.5 676,-134.5 676,-113.5 758,-113.5 758,-134.5"/>
<text text-anchor="middle" x="717" y="-121.5" font-family="Vera" font-size="10.00">Tkinter.Button</text>
</g>
<!-- paramtk.FocusTakingButton -->
<g id="node46" class="node"><title>paramtk.FocusTakingButton</title>
<polygon fill="none" stroke="black" stroke-width="0.5" points="977,-134.5 829,-134.5 829,-113.5 977,-113.5 977,-134.5"/>
<text text-anchor="middle" x="903" y="-121.5" font-family="Vera" font-size="10.00">paramtk.FocusTakingButton</text>
</g>
<!-- Tkinter.Button&#45;&gt;paramtk.FocusTakingButton -->
<g id="edge40" class="edge"><title>Tkinter.Button&#45;&gt;paramtk.FocusTakingButton</title>
<path fill="none" stroke="black" stroke-width="0.5" d="M758.742,-124C777.861,-124 801.182,-124 823.453,-124"/>
<polygon fill="black" stroke="black" points="823.485,-125.75 828.485,-124 823.485,-122.25 823.485,-125.75"/>
</g>
<!-- Tkinter.Widget&#45;&gt;Tkinter.Button -->
<g id="edge10" class="edge"><title>Tkinter.Widget&#45;&gt;Tkinter.Button</title>
<path fill="none" stroke="black" stroke-width="0.5" d="M553.422,-170.952C577.199,-162.971 611.593,-151.738 642,-143 651.125,-140.378 660.928,-137.755 670.339,-135.332"/>
<polygon fill="black" stroke="black" points="670.809,-137.019 675.219,-134.085 669.942,-133.628 670.809,-137.019"/>
</g>
<!-- Tkinter.Menu -->
<g id="node15" class="node"><title>Tkinter.Menu</title>
<polygon fill="none" stroke="black" stroke-width="0.5" points="755,-96.5 679,-96.5 679,-75.5 755,-75.5 755,-96.5"/>
<text text-anchor="middle" x="717" y="-83.5" font-family="Vera" font-size="10.00">Tkinter.Menu</text>
</g>
<!-- Tkinter.Widget&#45;&gt;Tkinter.Menu -->
<g id="edge12" class="edge"><title>Tkinter.Widget&#45;&gt;Tkinter.Menu</title>
<path fill="none" stroke="black" stroke-width="0.5" d="M536.655,-170.853C557.445,-154.66 600.659,-122.976 642,-105 651.845,-100.719 662.853,-97.2596 673.338,-94.5255"/>
<polygon fill="black" stroke="black" points="674.014,-96.1597 678.435,-93.2411 673.159,-92.7658 674.014,-96.1597"/>
</g>
<!-- Tkinter.Frame -->
<g id="node20" class="node"><title>Tkinter.Frame</title>
<polygon fill="none" stroke="black" stroke-width="0.5" points="757,-267.5 677,-267.5 677,-246.5 757,-246.5 757,-267.5"/>
<text text-anchor="middle" x="717" y="-254.5" font-family="Vera" font-size="10.00">Tkinter.Frame</text>
</g>
<!-- Tkinter.Widget&#45;&gt;Tkinter.Frame -->
<g id="edge20" class="edge"><title>Tkinter.Widget&#45;&gt;Tkinter.Frame</title>
<path fill="none" stroke="black" stroke-width="0.5" d="M549.629,-191.092C585.055,-205.042 648.88,-230.176 686.648,-245.048"/>
<polygon fill="black" stroke="black" points="686.279,-246.783 691.572,-246.987 687.561,-243.527 686.279,-246.783"/>
</g>
<!-- paramtk.Balloon -->
<g id="node57" class="node"><title>paramtk.Balloon</title>
<polygon fill="none" stroke="black" stroke-width="0.5" points="764,-210.5 670,-210.5 670,-189.5 764,-189.5 764,-210.5"/>
<text text-anchor="middle" x="717" y="-197.5" font-family="Vera" font-size="10.00">paramtk.Balloon</text>
</g>
<!-- Tkinter.Widget&#45;&gt;paramtk.Balloon -->
<g id="edge50" class="edge"><title>Tkinter.Widget&#45;&gt;paramtk.Balloon</title>
<path fill="none" stroke="black" stroke-width="0.5" d="M565.878,-185.123C594.699,-187.96 633.211,-191.751 664.144,-194.797"/>
<polygon fill="black" stroke="black" points="664.286,-196.569 669.433,-195.317 664.629,-193.086 664.286,-196.569"/>
</g>
<!-- paramtk.Scrodget -->
<g id="node61" class="node"><title>paramtk.Scrodget</title>
<polygon fill="none" stroke="black" stroke-width="0.5" points="769,-305.5 665,-305.5 665,-284.5 769,-284.5 769,-305.5"/>
<text text-anchor="middle" x="717" y="-292.5" font-family="Vera" font-size="10.00">paramtk.Scrodget</text>
</g>
<!-- Tkinter.Widget&#45;&gt;paramtk.Scrodget -->
<g id="edge56" class="edge"><title>Tkinter.Widget&#45;&gt;paramtk.Scrodget</title>
<path fill="none" stroke="black" stroke-width="0.5" d="M533.378,-191.008C552.123,-210.406 596.349,-253.213 642,-276 647.746,-278.868 653.962,-281.328 660.272,-283.431"/>
<polygon fill="black" stroke="black" points="659.814,-285.122 665.109,-284.972 660.876,-281.787 659.814,-285.122"/>
</g>
<!-- paramtk.ProgressController -->
<g id="node14" class="node"><title>paramtk.ProgressController</title>
<polygon fill="none" stroke="black" stroke-width="0.5" points="791,-172.5 643,-172.5 643,-151.5 791,-151.5 791,-172.5"/>
<text text-anchor="middle" x="717" y="-159.5" font-family="Vera" font-size="10.00">paramtk.ProgressController</text>
</g>
<!-- paramtk.ProgressWindow -->
<g id="node40" class="node"><title>paramtk.ProgressWindow</title>
<polygon fill="none" stroke="black" stroke-width="0.5" points="971,-172.5 835,-172.5 835,-151.5 971,-151.5 971,-172.5"/>
<text text-anchor="middle" x="903" y="-159.5" font-family="Vera" font-size="10.00">paramtk.ProgressWindow</text>
</g>
<!-- paramtk.ProgressController&#45;&gt;paramtk.ProgressWindow -->
<g id="edge34" class="edge"><title>paramtk.ProgressController&#45;&gt;paramtk.ProgressWindow</title>
<path fill="none" stroke="black" stroke-width="0.5" d="M791.582,-162C803.962,-162 816.797,-162 829.159,-162"/>
<polygon fill="black" stroke="black" points="829.426,-163.75 834.426,-162 829.426,-160.25 829.426,-163.75"/>
</g>
<!-- paramtk.Menu -->
<g id="node80" class="node"><title>paramtk.Menu</title>
<polygon fill="none" stroke="black" stroke-width="0.5" points="946,-96.5 860,-96.5 860,-75.5 946,-75.5 946,-96.5"/>
<text text-anchor="middle" x="903" y="-83.5" font-family="Vera" font-size="10.00">paramtk.Menu</text>
</g>
<!-- Tkinter.Menu&#45;&gt;paramtk.Menu -->
<g id="edge74" class="edge"><title>Tkinter.Menu&#45;&gt;paramtk.Menu</title>
<path fill="none" stroke="black" stroke-width="0.5" d="M755.539,-86C784.308,-86 823.811,-86 854.69,-86"/>
<polygon fill="black" stroke="black" points="854.959,-87.7501 859.959,-86 854.959,-84.2501 854.959,-87.7501"/>
</g>
<!-- paramtk.HackFileEntry -->
<g id="node19" class="node"><title>paramtk.HackFileEntry</title>
<polygon fill="none" stroke="black" stroke-width="0.5" points="965,-362.5 841,-362.5 841,-341.5 965,-341.5 965,-362.5"/>
<text text-anchor="middle" x="903" y="-349.5" font-family="Vera" font-size="10.00">paramtk.HackFileEntry</text>
</g>
<!-- Tkinter.Frame&#45;&gt;paramtk.HackFileEntry -->
<g id="edge16" class="edge"><title>Tkinter.Frame&#45;&gt;paramtk.HackFileEntry</title>
<path fill="none" stroke="black" stroke-width="0.5" d="M757.59,-261.466C769.5,-264.246 781.999,-268.742 792,-276 816.25,-293.599 803.75,-315.401 828,-333 831.672,-335.665 835.681,-337.958 839.875,-339.93"/>
<polygon fill="black" stroke="black" points="839.207,-341.548 844.489,-341.946 840.608,-338.341 839.207,-341.548"/>
</g>
<!-- paramtk.ListWidget -->
<g id="node30" class="node"><title>paramtk.ListWidget</title>
<polygon fill="none" stroke="black" stroke-width="0.5" points="957,-324.5 849,-324.5 849,-303.5 957,-303.5 957,-324.5"/>
<text text-anchor="middle" x="903" y="-311.5" font-family="Vera" font-size="10.00">paramtk.ListWidget</text>
</g>
<!-- Tkinter.Frame&#45;&gt;paramtk.ListWidget -->
<g id="edge24" class="edge"><title>Tkinter.Frame&#45;&gt;paramtk.ListWidget</title>
<path fill="none" stroke="black" stroke-width="0.5" d="M757.64,-265.428C768.936,-268.271 781.092,-271.808 792,-276 808.888,-282.489 811.112,-288.511 828,-295 835.372,-297.833 843.314,-300.367 851.175,-302.589"/>
<polygon fill="black" stroke="black" points="850.769,-304.293 856.054,-303.933 851.698,-300.918 850.769,-304.293"/>
</g>
<!-- paramtk.ParametersFrame -->
<g id="node36" class="node"><title>paramtk.ParametersFrame</title>
<polygon fill="none" stroke="black" stroke-width="0.5" points="976,-438.5 830,-438.5 830,-417.5 976,-417.5 976,-438.5"/>
<text text-anchor="middle" x="903" y="-425.5" font-family="Vera" font-size="10.00">paramtk.ParametersFrame</text>
</g>
<!-- Tkinter.Frame&#45;&gt;paramtk.ParametersFrame -->
<g id="edge32" class="edge"><title>Tkinter.Frame&#45;&gt;paramtk.ParametersFrame</title>
<path fill="none" stroke="black" stroke-width="0.5" d="M757.888,-259.473C770.231,-262.127 782.904,-267.05 792,-276 835.652,-318.949 784.348,-366.051 828,-409 830.388,-411.349 833.022,-413.421 835.832,-415.247"/>
<polygon fill="black" stroke="black" points="835.184,-416.897 840.382,-417.919 836.957,-413.878 835.184,-416.897"/>
</g>
<!-- Tkinter.Frame&#45;&gt;paramtk.ProgressWindow -->
<g id="edge36" class="edge"><title>Tkinter.Frame&#45;&gt;paramtk.ProgressWindow</title>
<path fill="none" stroke="black" stroke-width="0.5" d="M741.871,-246.997C757.096,-240.26 776.553,-230.517 792,-219 810.651,-205.094 807.93,-192.766 828,-181 832.702,-178.243 837.798,-175.883 843.044,-173.863"/>
<polygon fill="black" stroke="black" points="843.795,-175.453 847.898,-172.102 842.601,-172.162 843.795,-175.453"/>
</g>
<!-- paramtk.TaggedSlider -->
<g id="node43" class="node"><title>paramtk.TaggedSlider</title>
<polygon fill="none" stroke="black" stroke-width="0.5" points="963,-286.5 843,-286.5 843,-265.5 963,-265.5 963,-286.5"/>
<text text-anchor="middle" x="903" y="-273.5" font-family="Vera" font-size="10.00">paramtk.TaggedSlider</text>
</g>
<!-- Tkinter.Frame&#45;&gt;paramtk.TaggedSlider -->
<g id="edge38" class="edge"><title>Tkinter.Frame&#45;&gt;paramtk.TaggedSlider</title>
<path fill="none" stroke="black" stroke-width="0.5" d="M757.818,-261.17C781.077,-263.546 810.775,-266.579 837.243,-269.283"/>
<polygon fill="black" stroke="black" points="837.339,-271.052 842.491,-269.819 837.694,-267.57 837.339,-271.052"/>
</g>
<!-- paramtk.ScrolledFrame -->
<g id="node51" class="node"><title>paramtk.ScrolledFrame</title>
<polygon fill="none" stroke="black" stroke-width="0.5" points="967,-248.5 839,-248.5 839,-227.5 967,-227.5 967,-248.5"/>
<text text-anchor="middle" x="903" y="-235.5" font-family="Vera" font-size="10.00">paramtk.ScrolledFrame</text>
</g>
<!-- Tkinter.Frame&#45;&gt;paramtk.ScrolledFrame -->
<g id="edge44" class="edge"><title>Tkinter.Frame&#45;&gt;paramtk.ScrolledFrame</title>
<path fill="none" stroke="black" stroke-width="0.5" d="M757.818,-252.83C780.075,-250.557 808.227,-247.681 833.803,-245.069"/>
<polygon fill="black" stroke="black" points="834.085,-246.799 838.882,-244.55 833.73,-243.317 834.085,-246.799"/>
</g>
<!-- paramtk.StatusBar -->
<g id="node66" class="node"><title>paramtk.StatusBar</title>
<polygon fill="none" stroke="black" stroke-width="0.5" points="957,-210.5 849,-210.5 849,-189.5 957,-189.5 957,-210.5"/>
<text text-anchor="middle" x="903" y="-197.5" font-family="Vera" font-size="10.00">paramtk.StatusBar</text>
</g>
<!-- Tkinter.Frame&#45;&gt;paramtk.StatusBar -->
<g id="edge60" class="edge"><title>Tkinter.Frame&#45;&gt;paramtk.StatusBar</title>
<path fill="none" stroke="black" stroke-width="0.5" d="M744.624,-246.84C766.96,-238.796 799.299,-227.533 828,-219 836.908,-216.352 846.479,-213.747 855.704,-211.356"/>
<polygon fill="black" stroke="black" points="856.38,-212.989 860.788,-210.051 855.509,-209.599 856.38,-212.989"/>
</g>
<!-- paramtk.ListItemCtrlWidget -->
<g id="node75" class="node"><title>paramtk.ListItemCtrlWidget</title>
<polygon fill="none" stroke="black" stroke-width="0.5" points="976,-400.5 830,-400.5 830,-379.5 976,-379.5 976,-400.5"/>
<text text-anchor="middle" x="903" y="-387.5" font-family="Vera" font-size="10.00">paramtk.ListItemCtrlWidget</text>
</g>
<!-- Tkinter.Frame&#45;&gt;paramtk.ListItemCtrlWidget -->
<g id="edge68" class="edge"><title>Tkinter.Frame&#45;&gt;paramtk.ListItemCtrlWidget</title>
<path fill="none" stroke="black" stroke-width="0.5" d="M757.77,-260.099C769.962,-262.801 782.577,-267.596 792,-276 825.696,-306.055 794.304,-340.945 828,-371 830.757,-373.459 833.786,-375.608 836.999,-377.487"/>
<polygon fill="black" stroke="black" points="836.25,-379.071 841.485,-379.885 837.9,-375.984 836.25,-379.071"/>
</g>
<!-- paramtk.BoolTranslator -->
<g id="node22" class="node"><title>paramtk.BoolTranslator</title>
<polygon fill="none" stroke="black" stroke-width="0.5" points="588,-476.5 460,-476.5 460,-455.5 588,-455.5 588,-476.5"/>
<text text-anchor="middle" x="524" y="-463.5" font-family="Vera" font-size="10.00">paramtk.BoolTranslator</text>
</g>
<!-- paramtk.DoNothingTranslator&#45;&gt;paramtk.BoolTranslator -->
<g id="edge18" class="edge"><title>paramtk.DoNothingTranslator&#45;&gt;paramtk.BoolTranslator</title>
<path fill="none" stroke="black" stroke-width="0.5" d="M388.142,-466C409.979,-466 433.497,-466 454.728,-466"/>
<polygon fill="black" stroke="black" points="454.788,-467.75 459.788,-466 454.788,-464.25 454.788,-467.75"/>
</g>
<!-- param.parameterized.Parameterized -->
<g id="node25" class="node"><title>param.parameterized.Parameterized</title>
<polygon fill="none" stroke="black" stroke-width="0.5" points="406,-419.5 212,-419.5 212,-398.5 406,-398.5 406,-419.5"/>
<text text-anchor="middle" x="309" y="-406.5" font-family="Vera" font-size="10.00">param.parameterized.Parameterized</text>
</g>
<!-- paramtk.TkParameterizedBase -->
<g id="node55" class="node"><title>paramtk.TkParameterizedBase</title>
<polygon fill="none" stroke="black" stroke-width="0.5" points="606,-438.5 442,-438.5 442,-417.5 606,-417.5 606,-438.5"/>
<text text-anchor="middle" x="524" y="-425.5" font-family="Vera" font-size="10.00">paramtk.TkParameterizedBase</text>
</g>
<!-- param.parameterized.Parameterized&#45;&gt;paramtk.TkParameterizedBase -->
<g id="edge70" class="edge"><title>param.parameterized.Parameterized&#45;&gt;paramtk.TkParameterizedBase</title>
<path fill="none" stroke="black" stroke-width="0.5" d="M406.121,-417.583C416.261,-418.479 426.525,-419.386 436.548,-420.272"/>
<polygon fill="black" stroke="black" points="436.631,-422.036 441.766,-420.733 436.939,-418.549 436.631,-422.036"/>
</g>
<!-- paramtk.Representer -->
<g id="node64" class="node"><title>paramtk.Representer</title>
<polygon fill="none" stroke="black" stroke-width="0.5" points="583,-400.5 465,-400.5 465,-379.5 583,-379.5 583,-400.5"/>
<text text-anchor="middle" x="524" y="-387.5" font-family="Vera" font-size="10.00">paramtk.Representer</text>
</g>
<!-- param.parameterized.Parameterized&#45;&gt;paramtk.Representer -->
<g id="edge58" class="edge"><title>param.parameterized.Parameterized&#45;&gt;paramtk.Representer</title>
<path fill="none" stroke="black" stroke-width="0.5" d="M406.121,-400.417C424.274,-398.813 442.826,-397.174 459.679,-395.684"/>
<polygon fill="black" stroke="black" points="460.026,-397.41 464.853,-395.227 459.718,-393.924 460.026,-397.41"/>
</g>
<!-- param.parameterized.Parameter -->
<g id="node26" class="node"><title>param.parameterized.Parameter</title>
<polygon fill="none" stroke="black" stroke-width="0.5" points="175,-628.5 1,-628.5 1,-607.5 175,-607.5 175,-628.5"/>
<text text-anchor="middle" x="88" y="-615.5" font-family="Vera" font-size="10.00">param.parameterized.Parameter</text>
</g>
<!-- param.Callable -->
<g id="node28" class="node"><title>param.Callable</title>
<polygon fill="none" stroke="black" stroke-width="0.5" points="353,-628.5 265,-628.5 265,-607.5 353,-607.5 353,-628.5"/>
<text text-anchor="middle" x="309" y="-615.5" font-family="Vera" font-size="10.00">param.Callable</text>
</g>
<!-- param.parameterized.Parameter&#45;&gt;param.Callable -->
<g id="edge22" class="edge"><title>param.parameterized.Parameter&#45;&gt;param.Callable</title>
<path fill="none" stroke="black" stroke-width="0.5" d="M175.662,-618C204.015,-618 234.464,-618 259.097,-618"/>
<polygon fill="black" stroke="black" points="259.263,-619.75 264.263,-618 259.263,-616.25 259.263,-619.75"/>
</g>
<!-- paramtk.Button -->
<g id="node72" class="node"><title>paramtk.Button</title>
<polygon fill="none" stroke="black" stroke-width="0.5" points="570,-628.5 478,-628.5 478,-607.5 570,-607.5 570,-628.5"/>
<text text-anchor="middle" x="524" y="-615.5" font-family="Vera" font-size="10.00">paramtk.Button</text>
</g>
<!-- param.Callable&#45;&gt;paramtk.Button -->
<g id="edge66" class="edge"><title>param.Callable&#45;&gt;paramtk.Button</title>
<path fill="none" stroke="black" stroke-width="0.5" d="M353.548,-618C388.132,-618 436.136,-618 472.391,-618"/>
<polygon fill="black" stroke="black" points="472.652,-619.75 477.652,-618 472.652,-616.25 472.652,-619.75"/>
</g>
<!-- paramtk.EditingParametersFrameWithApply -->
<g id="node33" class="node"><title>paramtk.EditingParametersFrameWithApply</title>
<polygon fill="none" stroke="black" stroke-width="0.5" points="1466,-438.5 1242,-438.5 1242,-417.5 1466,-417.5 1466,-438.5"/>
<text text-anchor="middle" x="1354" y="-425.5" font-family="Vera" font-size="10.00">paramtk.EditingParametersFrameWithApply</text>
</g>
<!-- paramtk.ParametersFrameWithApply -->
<g id="node34" class="node"><title>paramtk.ParametersFrameWithApply</title>
<polygon fill="none" stroke="black" stroke-width="0.5" points="1206,-438.5 1014,-438.5 1014,-417.5 1206,-417.5 1206,-438.5"/>
<text text-anchor="middle" x="1110" y="-425.5" font-family="Vera" font-size="10.00">paramtk.ParametersFrameWithApply</text>
</g>
<!-- paramtk.ParametersFrameWithApply&#45;&gt;paramtk.EditingParametersFrameWithApply -->
<g id="edge28" class="edge"><title>paramtk.ParametersFrameWithApply&#45;&gt;paramtk.EditingParametersFrameWithApply</title>
<path fill="none" stroke="black" stroke-width="0.5" d="M1206.09,-428C1216.17,-428 1226.5,-428 1236.79,-428"/>
<polygon fill="black" stroke="black" points="1236.84,-429.75 1241.84,-428 1236.84,-426.25 1236.84,-429.75"/>
</g>
<!-- paramtk.ParametersFrame&#45;&gt;paramtk.ParametersFrameWithApply -->
<g id="edge72" class="edge"><title>paramtk.ParametersFrame&#45;&gt;paramtk.ParametersFrameWithApply</title>
<path fill="none" stroke="black" stroke-width="0.5" d="M976.272,-428C986.862,-428 997.915,-428 1008.93,-428"/>
<polygon fill="black" stroke="black" points="1008.99,-429.75 1013.99,-428 1008.99,-426.25 1008.99,-429.75"/>
</g>
<!-- paramtk.TkParameterized -->
<g id="node37" class="node"><title>paramtk.TkParameterized</title>
<polygon fill="none" stroke="black" stroke-width="0.5" points="787,-438.5 647,-438.5 647,-417.5 787,-417.5 787,-438.5"/>
<text text-anchor="middle" x="717" y="-425.5" font-family="Vera" font-size="10.00">paramtk.TkParameterized</text>
</g>
<!-- paramtk.TkParameterized&#45;&gt;paramtk.ParametersFrame -->
<g id="edge30" class="edge"><title>paramtk.TkParameterized&#45;&gt;paramtk.ParametersFrame</title>
<path fill="none" stroke="black" stroke-width="0.5" d="M787.054,-428C799.308,-428 812.13,-428 824.593,-428"/>
<polygon fill="black" stroke="black" points="824.909,-429.75 829.909,-428 824.909,-426.25 824.909,-429.75"/>
</g>
<!-- Tkinter.Misc -->
<g id="node45" class="node"><title>Tkinter.Misc</title>
<polygon fill="none" stroke="black" stroke-width="0.5" points="124,-106.5 52,-106.5 52,-85.5 124,-85.5 124,-106.5"/>
<text text-anchor="middle" x="88" y="-93.5" font-family="Vera" font-size="10.00">Tkinter.Misc</text>
</g>
<!-- Tkinter.Misc&#45;&gt;Tkinter.BaseWidget -->
<g id="edge76" class="edge"><title>Tkinter.Misc&#45;&gt;Tkinter.BaseWidget</title>
<path fill="none" stroke="black" stroke-width="0.5" d="M124.494,-96C158.637,-96 210.226,-96 250.18,-96"/>
<polygon fill="black" stroke="black" points="250.489,-97.7501 255.489,-96 250.489,-94.2501 250.489,-97.7501"/>
</g>
<!-- paramtk.ScrodgetWidget -->
<g id="node50" class="node"><title>paramtk.ScrodgetWidget</title>
<polygon fill="none" stroke="black" stroke-width="0.5" points="592,-305.5 456,-305.5 456,-284.5 592,-284.5 592,-305.5"/>
<text text-anchor="middle" x="524" y="-292.5" font-family="Vera" font-size="10.00">paramtk.ScrodgetWidget</text>
</g>
<!-- paramtk.ScrodgetWidget&#45;&gt;paramtk.Scrodget -->
<g id="edge54" class="edge"><title>paramtk.ScrodgetWidget&#45;&gt;paramtk.Scrodget</title>
<path fill="none" stroke="black" stroke-width="0.5" d="M592.045,-295C614.148,-295 638.44,-295 659.681,-295"/>
<polygon fill="black" stroke="black" points="659.728,-296.75 664.728,-295 659.728,-293.25 659.728,-296.75"/>
</g>
<!-- paramtk.AppWindow -->
<g id="node70" class="node"><title>paramtk.AppWindow</title>
<polygon fill="none" stroke="black" stroke-width="0.5" points="960,-58.5 846,-58.5 846,-37.5 960,-37.5 960,-58.5"/>
<text text-anchor="middle" x="903" y="-45.5" font-family="Vera" font-size="10.00">paramtk.AppWindow</text>
</g>
<!-- paramtk.ScrolledWindow&#45;&gt;paramtk.AppWindow -->
<g id="edge64" class="edge"><title>paramtk.ScrolledWindow&#45;&gt;paramtk.AppWindow</title>
<path fill="none" stroke="black" stroke-width="0.5" d="M784.15,-48C802.603,-48 822.53,-48 840.697,-48"/>
<polygon fill="black" stroke="black" points="840.771,-49.7501 845.771,-48 840.771,-46.2501 840.771,-49.7501"/>
</g>
<!-- paramtk.TkParameterizedBase&#45;&gt;paramtk.TkParameterized -->
<g id="edge48" class="edge"><title>paramtk.TkParameterizedBase&#45;&gt;paramtk.TkParameterized</title>
<path fill="none" stroke="black" stroke-width="0.5" d="M606.129,-428C617.873,-428 629.908,-428 641.516,-428"/>
<polygon fill="black" stroke="black" points="641.817,-429.75 646.817,-428 641.817,-426.25 641.817,-429.75"/>
</g>
<!-- paramtk.ListRepresenter -->
<g id="node68" class="node"><title>paramtk.ListRepresenter</title>
<polygon fill="none" stroke="black" stroke-width="0.5" points="784,-400.5 650,-400.5 650,-379.5 784,-379.5 784,-400.5"/>
<text text-anchor="middle" x="717" y="-387.5" font-family="Vera" font-size="10.00">paramtk.ListRepresenter</text>
</g>
<!-- paramtk.Representer&#45;&gt;paramtk.ListRepresenter -->
<g id="edge62" class="edge"><title>paramtk.Representer&#45;&gt;paramtk.ListRepresenter</title>
<path fill="none" stroke="black" stroke-width="0.5" d="M583.218,-390C602.627,-390 624.413,-390 644.678,-390"/>
<polygon fill="black" stroke="black" points="644.795,-391.75 649.795,-390 644.795,-388.25 644.795,-391.75"/>
</g>
<!-- Tkinter.Pack -->
<g id="node74" class="node"><title>Tkinter.Pack</title>
<polygon fill="none" stroke="black" stroke-width="0.5" points="345,-229.5 273,-229.5 273,-208.5 345,-208.5 345,-229.5"/>
<text text-anchor="middle" x="309" y="-216.5" font-family="Vera" font-size="10.00">Tkinter.Pack</text>
</g>
<!-- Tkinter.Pack&#45;&gt;Tkinter.Widget -->
<g id="edge80" class="edge"><title>Tkinter.Pack&#45;&gt;Tkinter.Widget</title>
<path fill="none" stroke="black" stroke-width="0.5" d="M345.96,-212.468C382.269,-206.05 437.801,-196.235 477.179,-189.275"/>
<polygon fill="black" stroke="black" points="477.764,-190.949 482.383,-188.356 477.154,-187.503 477.764,-190.949"/>
</g>
<!-- Tkinter.Place -->
<g id="node79" class="node"><title>Tkinter.Place</title>
<polygon fill="none" stroke="black" stroke-width="0.5" points="347,-191.5 271,-191.5 271,-170.5 347,-170.5 347,-191.5"/>
<text text-anchor="middle" x="309" y="-178.5" font-family="Vera" font-size="10.00">Tkinter.Place</text>
</g>
<!-- Tkinter.Place&#45;&gt;Tkinter.Widget -->
<g id="edge82" class="edge"><title>Tkinter.Place&#45;&gt;Tkinter.Widget</title>
<path fill="none" stroke="black" stroke-width="0.5" d="M347.935,-181C384.299,-181 438.629,-181 477.308,-181"/>
<polygon fill="black" stroke="black" points="477.42,-182.75 482.42,-181 477.42,-179.25 477.42,-182.75"/>
</g>
<!-- Tkinter.Grid -->
<g id="node82" class="node"><title>Tkinter.Grid</title>
<polygon fill="none" stroke="black" stroke-width="0.5" points="344,-153.5 274,-153.5 274,-132.5 344,-132.5 344,-153.5"/>
<text text-anchor="middle" x="309" y="-140.5" font-family="Vera" font-size="10.00">Tkinter.Grid</text>
</g>
<!-- Tkinter.Grid&#45;&gt;Tkinter.Widget -->
<g id="edge84" class="edge"><title>Tkinter.Grid&#45;&gt;Tkinter.Widget</title>
<path fill="none" stroke="black" stroke-width="0.5" d="M344.503,-149.275C380.687,-155.67 437.012,-165.625 476.905,-172.676"/>
<polygon fill="black" stroke="black" points="476.947,-174.461 482.175,-173.608 477.556,-171.014 476.947,-174.461"/>
</g>
</g>
</svg>
