<?xml version="1.0" encoding="UTF-8" standalone="no"?>
<!DOCTYPE svg PUBLIC "-//W3C//DTD SVG 1.1//EN"
 "http://www.w3.org/Graphics/SVG/1.1/DTD/svg11.dtd">
<!-- Generated by graphviz version 2.26.3 (20100126.1600)
 -->
<!-- Title: inheritancef1ac05fc54 Pages: 1 -->
<svg width="990pt" height="427pt"
 viewBox="0.00 0.00 990.00 427.00" xmlns="http://www.w3.org/2000/svg" xmlns:xlink="http://www.w3.org/1999/xlink">
<g id="graph1" class="graph" transform="scale(1 1) rotate(0) translate(4 423)">
<title>inheritancef1ac05fc54</title>
<polygon fill="white" stroke="white" points="-4,5 -4,-423 987,-423 987,5 -4,5"/>
<!-- numbergen.ScaledTime -->
<g id="node1" class="node"><title>numbergen.ScaledTime</title>
<polygon fill="none" stroke="black" stroke-width="0.5" points="744,-20.5 614,-20.5 614,0.5 744,0.5 744,-20.5"/>
<text text-anchor="middle" x="679" y="-7.5" font-family="Vera" font-size="10.00">numbergen.ScaledTime</text>
</g>
<!-- numbergen.NumberGenerator -->
<g id="node2" class="node"><title>numbergen.NumberGenerator</title>
<polygon fill="none" stroke="black" stroke-width="0.5" points="557,-172.5 395,-172.5 395,-151.5 557,-151.5 557,-172.5"/>
<text text-anchor="middle" x="476" y="-159.5" font-family="Vera" font-size="10.00">numbergen.NumberGenerator</text>
</g>
<!-- numbergen.NumberGenerator&#45;&gt;numbergen.ScaledTime -->
<g id="edge2" class="edge"><title>numbergen.NumberGenerator&#45;&gt;numbergen.ScaledTime</title>
<path fill="none" stroke="black" stroke-width="0.5" d="M512.451,-151.981C528.22,-146.061 545.814,-137.093 558,-124 588.762,-90.9484 559.883,-58.5767 594,-29 598.286,-25.2841 603.142,-22.2492 608.307,-19.7756"/>
<polygon fill="black" stroke="black" points="609.256,-21.2704 613.131,-17.6583 607.85,-18.0655 609.256,-21.2704"/>
</g>
<!-- numbergen.UnaryOperator -->
<g id="node8" class="node"><title>numbergen.UnaryOperator</title>
<polygon fill="none" stroke="black" stroke-width="0.5" points="752,-286.5 606,-286.5 606,-265.5 752,-265.5 752,-286.5"/>
<text text-anchor="middle" x="679" y="-273.5" font-family="Vera" font-size="10.00">numbergen.UnaryOperator</text>
</g>
<!-- numbergen.NumberGenerator&#45;&gt;numbergen.UnaryOperator -->
<g id="edge8" class="edge"><title>numbergen.NumberGenerator&#45;&gt;numbergen.UnaryOperator</title>
<path fill="none" stroke="black" stroke-width="0.5" d="M485.323,-172.122C503.969,-191.719 548.032,-234.859 594,-257 599.971,-259.876 606.389,-262.324 612.925,-264.406"/>
<polygon fill="black" stroke="black" points="612.649,-266.151 617.942,-265.929 613.665,-262.802 612.649,-266.151"/>
</g>
<!-- numbergen.BoxCar -->
<g id="node10" class="node"><title>numbergen.BoxCar</title>
<polygon fill="none" stroke="black" stroke-width="0.5" points="734,-172.5 624,-172.5 624,-151.5 734,-151.5 734,-172.5"/>
<text text-anchor="middle" x="679" y="-159.5" font-family="Vera" font-size="10.00">numbergen.BoxCar</text>
</g>
<!-- numbergen.NumberGenerator&#45;&gt;numbergen.BoxCar -->
<g id="edge10" class="edge"><title>numbergen.NumberGenerator&#45;&gt;numbergen.BoxCar</title>
<path fill="none" stroke="black" stroke-width="0.5" d="M557.69,-162C578.033,-162 599.48,-162 618.589,-162"/>
<polygon fill="black" stroke="black" points="618.914,-163.75 623.914,-162 618.914,-160.25 618.914,-163.75"/>
</g>
<!-- numbergen.RandomDistribution -->
<g id="node16" class="node"><title>numbergen.RandomDistribution</title>
<polygon fill="none" stroke="black" stroke-width="0.5" points="764,-324.5 594,-324.5 594,-303.5 764,-303.5 764,-324.5"/>
<text text-anchor="middle" x="679" y="-311.5" font-family="Vera" font-size="10.00">numbergen.RandomDistribution</text>
</g>
<!-- numbergen.NumberGenerator&#45;&gt;numbergen.RandomDistribution -->
<g id="edge32" class="edge"><title>numbergen.NumberGenerator&#45;&gt;numbergen.RandomDistribution</title>
<path fill="none" stroke="black" stroke-width="0.5" d="M487.541,-172.131C504.053,-186.898 534.965,-215.571 558,-243 576.077,-264.525 570.683,-279.301 594,-295 597.961,-297.667 602.238,-299.965 606.693,-301.944"/>
<polygon fill="black" stroke="black" points="606.301,-303.676 611.59,-303.97 607.639,-300.442 606.301,-303.676"/>
</g>
<!-- numbergen.ExponentialDecay -->
<g id="node20" class="node"><title>numbergen.ExponentialDecay</title>
<polygon fill="none" stroke="black" stroke-width="0.5" points="759,-134.5 599,-134.5 599,-113.5 759,-113.5 759,-134.5"/>
<text text-anchor="middle" x="679" y="-121.5" font-family="Vera" font-size="10.00">numbergen.ExponentialDecay</text>
</g>
<!-- numbergen.NumberGenerator&#45;&gt;numbergen.ExponentialDecay -->
<g id="edge20" class="edge"><title>numbergen.NumberGenerator&#45;&gt;numbergen.ExponentialDecay</title>
<path fill="none" stroke="black" stroke-width="0.5" d="M529.601,-151.966C557.584,-146.728 591.869,-140.31 620.534,-134.944"/>
<polygon fill="black" stroke="black" points="620.858,-136.664 625.45,-134.024 620.214,-133.224 620.858,-136.664"/>
</g>
<!-- numbergen.BinaryOperator -->
<g id="node24" class="node"><title>numbergen.BinaryOperator</title>
<polygon fill="none" stroke="black" stroke-width="0.5" points="753,-248.5 605,-248.5 605,-227.5 753,-227.5 753,-248.5"/>
<text text-anchor="middle" x="679" y="-235.5" font-family="Vera" font-size="10.00">numbergen.BinaryOperator</text>
</g>
<!-- numbergen.NumberGenerator&#45;&gt;numbergen.BinaryOperator -->
<g id="edge26" class="edge"><title>numbergen.NumberGenerator&#45;&gt;numbergen.BinaryOperator</title>
<path fill="none" stroke="black" stroke-width="0.5" d="M493.446,-172.01C516.008,-184.579 556.828,-206.062 594,-219 602.435,-221.936 611.502,-224.528 620.46,-226.78"/>
<polygon fill="black" stroke="black" points="620.149,-228.505 625.422,-227.995 620.982,-225.106 620.149,-228.505"/>
</g>
<!-- numbergen.SquareWave -->
<g id="node32" class="node"><title>numbergen.SquareWave</title>
<polygon fill="none" stroke="black" stroke-width="0.5" points="746,-96.5 612,-96.5 612,-75.5 746,-75.5 746,-96.5"/>
<text text-anchor="middle" x="679" y="-83.5" font-family="Vera" font-size="10.00">numbergen.SquareWave</text>
</g>
<!-- numbergen.NumberGenerator&#45;&gt;numbergen.SquareWave -->
<g id="edge36" class="edge"><title>numbergen.NumberGenerator&#45;&gt;numbergen.SquareWave</title>
<path fill="none" stroke="black" stroke-width="0.5" d="M498.422,-151.987C514.988,-144.497 538.033,-133.887 558,-124 574.213,-115.972 577.022,-111.251 594,-105 601.873,-102.101 610.326,-99.5666 618.738,-97.3743"/>
<polygon fill="black" stroke="black" points="619.546,-98.9752 623.965,-96.0533 618.689,-95.5819 619.546,-98.9752"/>
</g>
<!-- numbergen.BoundedNumber -->
<g id="node35" class="node"><title>numbergen.BoundedNumber</title>
<polygon fill="none" stroke="black" stroke-width="0.5" points="757,-210.5 601,-210.5 601,-189.5 757,-189.5 757,-210.5"/>
<text text-anchor="middle" x="679" y="-197.5" font-family="Vera" font-size="10.00">numbergen.BoundedNumber</text>
</g>
<!-- numbergen.NumberGenerator&#45;&gt;numbergen.BoundedNumber -->
<g id="edge40" class="edge"><title>numbergen.NumberGenerator&#45;&gt;numbergen.BoundedNumber</title>
<path fill="none" stroke="black" stroke-width="0.5" d="M529.601,-172.034C557.584,-177.272 591.869,-183.69 620.534,-189.056"/>
<polygon fill="black" stroke="black" points="620.214,-190.776 625.45,-189.976 620.858,-187.336 620.214,-190.776"/>
</g>
<!-- numbergen.TimeSampledFn -->
<g id="node41" class="node"><title>numbergen.TimeSampledFn</title>
<polygon fill="none" stroke="black" stroke-width="0.5" points="755,-58.5 603,-58.5 603,-37.5 755,-37.5 755,-58.5"/>
<text text-anchor="middle" x="679" y="-45.5" font-family="Vera" font-size="10.00">numbergen.TimeSampledFn</text>
</g>
<!-- numbergen.NumberGenerator&#45;&gt;numbergen.TimeSampledFn -->
<g id="edge46" class="edge"><title>numbergen.NumberGenerator&#45;&gt;numbergen.TimeSampledFn</title>
<path fill="none" stroke="black" stroke-width="0.5" d="M508.46,-151.896C524.636,-145.703 543.736,-136.529 558,-124 580.512,-104.227 569.505,-84.2555 594,-67 597.722,-64.378 601.744,-62.11 605.945,-60.1489"/>
<polygon fill="black" stroke="black" points="606.68,-61.7378 610.567,-58.1392 605.284,-58.5281 606.68,-61.7378"/>
</g>
<!-- numbergen.TimeDependent -->
<g id="node4" class="node"><title>numbergen.TimeDependent</title>
<polygon fill="none" stroke="black" stroke-width="0.5" points="552,-115.5 400,-115.5 400,-94.5 552,-94.5 552,-115.5"/>
<text text-anchor="middle" x="476" y="-102.5" font-family="Vera" font-size="10.00">numbergen.TimeDependent</text>
</g>
<!-- numbergen.TimeDependent&#45;&gt;numbergen.ScaledTime -->
<g id="edge4" class="edge"><title>numbergen.TimeDependent&#45;&gt;numbergen.ScaledTime</title>
<path fill="none" stroke="black" stroke-width="0.5" d="M488.264,-94.9824C508.841,-78.6819 552.185,-46.4849 594,-29 600.914,-26.1088 608.337,-23.6249 615.813,-21.499"/>
<polygon fill="black" stroke="black" points="616.629,-23.0902 620.991,-20.0839 615.707,-19.714 616.629,-23.0902"/>
</g>
<!-- numbergen.TimeDependent&#45;&gt;numbergen.BoxCar -->
<g id="edge12" class="edge"><title>numbergen.TimeDependent&#45;&gt;numbergen.BoxCar</title>
<path fill="none" stroke="black" stroke-width="0.5" d="M504.874,-115.117C528.629,-123.241 563.265,-134.635 594,-143 604.031,-145.73 614.804,-148.364 625.198,-150.757"/>
<polygon fill="black" stroke="black" points="625.001,-152.507 630.265,-151.911 625.779,-149.094 625.001,-152.507"/>
</g>
<!-- numbergen.TimeDependent&#45;&gt;numbergen.ExponentialDecay -->
<g id="edge22" class="edge"><title>numbergen.TimeDependent&#45;&gt;numbergen.ExponentialDecay</title>
<path fill="none" stroke="black" stroke-width="0.5" d="M552.167,-112.129C565.594,-113.386 579.652,-114.701 593.319,-115.981"/>
<polygon fill="black" stroke="black" points="593.193,-117.726 598.334,-116.45 593.519,-114.242 593.193,-117.726"/>
</g>
<!-- numbergen.TimeDependent&#45;&gt;numbergen.SquareWave -->
<g id="edge38" class="edge"><title>numbergen.TimeDependent&#45;&gt;numbergen.SquareWave</title>
<path fill="none" stroke="black" stroke-width="0.5" d="M552.167,-97.871C569.908,-96.2106 588.751,-94.4469 606.336,-92.8011"/>
<polygon fill="black" stroke="black" points="606.935,-94.5028 611.75,-92.2944 606.608,-91.018 606.935,-94.5028"/>
</g>
<!-- numbergen.TimeDependent&#45;&gt;numbergen.TimeSampledFn -->
<g id="edge48" class="edge"><title>numbergen.TimeDependent&#45;&gt;numbergen.TimeSampledFn</title>
<path fill="none" stroke="black" stroke-width="0.5" d="M504.874,-94.8833C528.629,-86.7587 563.265,-75.365 594,-67 604.031,-64.2699 614.804,-61.6359 625.198,-59.2432"/>
<polygon fill="black" stroke="black" points="625.779,-60.9058 630.265,-58.0886 625.001,-57.4933 625.779,-60.9058"/>
</g>
<!-- param.parameterized.Parameterized -->
<g id="node6" class="node"><title>param.parameterized.Parameterized</title>
<polygon fill="none" stroke="black" stroke-width="0.5" points="194,-153.5 5.68434e-14,-153.5 0,-132.5 194,-132.5 194,-153.5"/>
<text text-anchor="middle" x="97" y="-140.5" font-family="Vera" font-size="10.00">param.parameterized.Parameterized</text>
</g>
<!-- param.parameterized.Parameterized&#45;&gt;numbergen.NumberGenerator -->
<g id="edge6" class="edge"><title>param.parameterized.Parameterized&#45;&gt;numbergen.NumberGenerator</title>
<path fill="none" stroke="black" stroke-width="0.5" d="M194.11,-147.868C254.253,-150.883 330.834,-154.723 388.993,-157.638"/>
<polygon fill="black" stroke="black" points="389.126,-159.397 394.208,-157.9 389.302,-155.901 389.126,-159.397"/>
</g>
<!-- numbergen.TimeAware -->
<g id="node13" class="node"><title>numbergen.TimeAware</title>
<polygon fill="none" stroke="black" stroke-width="0.5" points="357,-134.5 231,-134.5 231,-113.5 357,-113.5 357,-134.5"/>
<text text-anchor="middle" x="294" y="-121.5" font-family="Vera" font-size="10.00">numbergen.TimeAware</text>
</g>
<!-- param.parameterized.Parameterized&#45;&gt;numbergen.TimeAware -->
<g id="edge14" class="edge"><title>param.parameterized.Parameterized&#45;&gt;numbergen.TimeAware</title>
<path fill="none" stroke="black" stroke-width="0.5" d="M194.057,-133.639C204.561,-132.626 215.086,-131.611 225.156,-130.64"/>
<polygon fill="black" stroke="black" points="225.568,-132.358 230.377,-130.136 225.232,-128.874 225.568,-132.358"/>
</g>
<!-- numbergen.TimeAware&#45;&gt;numbergen.TimeDependent -->
<g id="edge24" class="edge"><title>numbergen.TimeAware&#45;&gt;numbergen.TimeDependent</title>
<path fill="none" stroke="black" stroke-width="0.5" d="M357.655,-117.355C369.584,-116.109 382.204,-114.792 394.585,-113.499"/>
<polygon fill="black" stroke="black" points="395.083,-115.207 399.874,-112.947 394.72,-111.726 395.083,-115.207"/>
</g>
<!-- numbergen.TimeAware&#45;&gt;numbergen.RandomDistribution -->
<g id="edge34" class="edge"><title>numbergen.TimeAware&#45;&gt;numbergen.RandomDistribution</title>
<path fill="none" stroke="black" stroke-width="0.5" d="M308.204,-134.181C349.928,-163.614 476.578,-249.593 594,-295 601.592,-297.936 609.749,-300.477 617.898,-302.66"/>
<polygon fill="black" stroke="black" points="617.686,-304.413 622.966,-303.973 618.564,-301.024 617.686,-304.413"/>
</g>
<!-- numbergen.NormalRandom -->
<g id="node15" class="node"><title>numbergen.NormalRandom</title>
<polygon fill="none" stroke="black" stroke-width="0.5" points="966,-419.5 816,-419.5 816,-398.5 966,-398.5 966,-419.5"/>
<text text-anchor="middle" x="891" y="-406.5" font-family="Vera" font-size="10.00">numbergen.NormalRandom</text>
</g>
<!-- numbergen.RandomDistribution&#45;&gt;numbergen.NormalRandom -->
<g id="edge16" class="edge"><title>numbergen.RandomDistribution&#45;&gt;numbergen.NormalRandom</title>
<path fill="none" stroke="black" stroke-width="0.5" d="M691.595,-324.069C712.723,-340.443 757.208,-372.743 800,-390 807.313,-392.949 815.15,-395.465 823.043,-397.605"/>
<polygon fill="black" stroke="black" points="822.681,-399.319 827.961,-398.889 823.566,-395.933 822.681,-399.319"/>
</g>
<!-- numbergen.UniformRandomInt -->
<g id="node18" class="node"><title>numbergen.UniformRandomInt</title>
<polygon fill="none" stroke="black" stroke-width="0.5" points="973,-381.5 809,-381.5 809,-360.5 973,-360.5 973,-381.5"/>
<text text-anchor="middle" x="891" y="-368.5" font-family="Vera" font-size="10.00">numbergen.UniformRandomInt</text>
</g>
<!-- numbergen.RandomDistribution&#45;&gt;numbergen.UniformRandomInt -->
<g id="edge18" class="edge"><title>numbergen.RandomDistribution&#45;&gt;numbergen.UniformRandomInt</title>
<path fill="none" stroke="black" stroke-width="0.5" d="M708.107,-324.028C732.472,-332.208 768.254,-343.722 800,-352 810.699,-354.79 822.189,-357.447 833.279,-359.843"/>
<polygon fill="black" stroke="black" points="833.088,-361.591 838.343,-360.925 833.819,-358.169 833.088,-361.591"/>
</g>
<!-- numbergen.UniformRandom -->
<g id="node26" class="node"><title>numbergen.UniformRandom</title>
<polygon fill="none" stroke="black" stroke-width="0.5" points="967,-343.5 815,-343.5 815,-322.5 967,-322.5 967,-343.5"/>
<text text-anchor="middle" x="891" y="-330.5" font-family="Vera" font-size="10.00">numbergen.UniformRandom</text>
</g>
<!-- numbergen.RandomDistribution&#45;&gt;numbergen.UniformRandom -->
<g id="edge28" class="edge"><title>numbergen.RandomDistribution&#45;&gt;numbergen.UniformRandom</title>
<path fill="none" stroke="black" stroke-width="0.5" d="M764.007,-321.619C778.91,-322.954 794.391,-324.342 809.204,-325.669"/>
<polygon fill="black" stroke="black" points="809.065,-327.414 814.201,-326.117 809.377,-323.928 809.065,-327.414"/>
</g>
<!-- numbergen.VonMisesRandom -->
<g id="node28" class="node"><title>numbergen.VonMisesRandom</title>
<polygon fill="none" stroke="black" stroke-width="0.5" points="971,-305.5 811,-305.5 811,-284.5 971,-284.5 971,-305.5"/>
<text text-anchor="middle" x="891" y="-292.5" font-family="Vera" font-size="10.00">numbergen.VonMisesRandom</text>
</g>
<!-- numbergen.RandomDistribution&#45;&gt;numbergen.VonMisesRandom -->
<g id="edge30" class="edge"><title>numbergen.RandomDistribution&#45;&gt;numbergen.VonMisesRandom</title>
<path fill="none" stroke="black" stroke-width="0.5" d="M764.007,-306.381C777.755,-305.149 791.993,-303.873 805.747,-302.641"/>
<polygon fill="black" stroke="black" points="805.967,-304.378 810.791,-302.189 805.654,-300.892 805.967,-304.378"/>
</g>
<!-- numbergen.UniformRandomOffset -->
<g id="node37" class="node"><title>numbergen.UniformRandomOffset</title>
<polygon fill="none" stroke="black" stroke-width="0.5" points="982,-267.5 800,-267.5 800,-246.5 982,-246.5 982,-267.5"/>
<text text-anchor="middle" x="891" y="-254.5" font-family="Vera" font-size="10.00">numbergen.UniformRandomOffset</text>
</g>
<!-- numbergen.RandomDistribution&#45;&gt;numbergen.UniformRandomOffset -->
<g id="edge42" class="edge"><title>numbergen.RandomDistribution&#45;&gt;numbergen.UniformRandomOffset</title>
<path fill="none" stroke="black" stroke-width="0.5" d="M734.035,-303.947C744.14,-301.47 754.493,-298.5 764,-295 780.978,-288.749 782.979,-282.131 800,-276 808.328,-273 817.264,-270.414 826.165,-268.201"/>
<polygon fill="black" stroke="black" points="826.653,-269.884 831.103,-267.01 825.832,-266.482 826.653,-269.884"/>
</g>
<!-- numbergen.Choice -->
<g id="node39" class="node"><title>numbergen.Choice</title>
<polygon fill="none" stroke="black" stroke-width="0.5" points="944,-229.5 838,-229.5 838,-208.5 944,-208.5 944,-229.5"/>
<text text-anchor="middle" x="891" y="-216.5" font-family="Vera" font-size="10.00">numbergen.Choice</text>
</g>
<!-- numbergen.RandomDistribution&#45;&gt;numbergen.Choice -->
<g id="edge44" class="edge"><title>numbergen.RandomDistribution&#45;&gt;numbergen.Choice</title>
<path fill="none" stroke="black" stroke-width="0.5" d="M747.433,-303.861C753.306,-301.484 758.932,-298.57 764,-295 788.495,-277.745 775.384,-255.083 800,-238 809.514,-231.398 820.843,-227.004 832.222,-224.099"/>
<polygon fill="black" stroke="black" points="832.636,-225.8 837.097,-222.944 831.828,-222.394 832.636,-225.8"/>
</g>
</g>
</svg>
