<?xml version="1.0" encoding="UTF-8" standalone="no"?>
<!DOCTYPE svg PUBLIC "-//W3C//DTD SVG 1.1//EN"
 "http://www.w3.org/Graphics/SVG/1.1/DTD/svg11.dtd">
<!-- Generated by graphviz version 2.26.3 (20100126.1600)
 -->
<!-- Title: inheritance0f827376bc Pages: 1 -->
<svg width="2286pt" height="313pt"
 viewBox="0.00 0.00 2286.00 313.00" xmlns="http://www.w3.org/2000/svg" xmlns:xlink="http://www.w3.org/1999/xlink">
<g id="graph1" class="graph" transform="scale(1 1) rotate(0) translate(4 309)">
<title>inheritance0f827376bc</title>
<polygon fill="white" stroke="white" points="-4,5 -4,-309 2283,-309 2283,5 -4,5"/>
<!-- topo.analysis.featureresponses.ReverseCorrelation -->
<g id="node1" class="node"><title>topo.analysis.featureresponses.ReverseCorrelation</title>
<polygon fill="none" stroke="black" stroke-width="0.5" points="1606,-267.5 1346,-267.5 1346,-246.5 1606,-246.5 1606,-267.5"/>
<text text-anchor="middle" x="1476" y="-254.5" font-family="Vera" font-size="10.00">topo.analysis.featureresponses.ReverseCorrelation</text>
</g>
<!-- topo.analysis.featureresponses.FeatureResponses -->
<g id="node2" class="node"><title>topo.analysis.featureresponses.FeatureResponses</title>
<polygon fill="none" stroke="black" stroke-width="0.5" points="1236,-229.5 980,-229.5 980,-208.5 1236,-208.5 1236,-229.5"/>
<text text-anchor="middle" x="1108" y="-216.5" font-family="Vera" font-size="10.00">topo.analysis.featureresponses.FeatureResponses</text>
</g>
<!-- topo.analysis.featureresponses.FeatureResponses&#45;&gt;topo.analysis.featureresponses.ReverseCorrelation -->
<g id="edge2" class="edge"><title>topo.analysis.featureresponses.FeatureResponses&#45;&gt;topo.analysis.featureresponses.ReverseCorrelation</title>
<path fill="none" stroke="black" stroke-width="0.5" d="M1205.17,-229.034C1257.15,-234.402 1321.14,-241.009 1373.86,-246.453"/>
<polygon fill="black" stroke="black" points="1373.77,-248.203 1378.93,-246.976 1374.13,-244.722 1373.77,-248.203"/>
</g>
<!-- topo.analysis.featureresponses.FeatureCurves -->
<g id="node35" class="node"><title>topo.analysis.featureresponses.FeatureCurves</title>
<polygon fill="none" stroke="black" stroke-width="0.5" points="1595,-229.5 1357,-229.5 1357,-208.5 1595,-208.5 1595,-229.5"/>
<text text-anchor="middle" x="1476" y="-216.5" font-family="Vera" font-size="10.00">topo.analysis.featureresponses.FeatureCurves</text>
</g>
<!-- topo.analysis.featureresponses.FeatureResponses&#45;&gt;topo.analysis.featureresponses.FeatureCurves -->
<g id="edge32" class="edge"><title>topo.analysis.featureresponses.FeatureResponses&#45;&gt;topo.analysis.featureresponses.FeatureCurves</title>
<path fill="none" stroke="black" stroke-width="0.5" d="M1236.71,-219C1273.75,-219 1314.09,-219 1350.9,-219"/>
<polygon fill="black" stroke="black" points="1351.31,-220.75 1356.31,-219 1351.31,-217.25 1351.31,-220.75"/>
</g>
<!-- topo.analysis.featureresponses.FeatureMaps -->
<g id="node44" class="node"><title>topo.analysis.featureresponses.FeatureMaps</title>
<polygon fill="none" stroke="black" stroke-width="0.5" points="1591,-191.5 1361,-191.5 1361,-170.5 1591,-170.5 1591,-191.5"/>
<text text-anchor="middle" x="1476" y="-178.5" font-family="Vera" font-size="10.00">topo.analysis.featureresponses.FeatureMaps</text>
</g>
<!-- topo.analysis.featureresponses.FeatureResponses&#45;&gt;topo.analysis.featureresponses.FeatureMaps -->
<g id="edge44" class="edge"><title>topo.analysis.featureresponses.FeatureResponses&#45;&gt;topo.analysis.featureresponses.FeatureMaps</title>
<path fill="none" stroke="black" stroke-width="0.5" d="M1205.17,-208.966C1257.15,-203.598 1321.14,-196.991 1373.86,-191.547"/>
<polygon fill="black" stroke="black" points="1374.13,-193.278 1378.93,-191.024 1373.77,-189.797 1374.13,-193.278"/>
</g>
<!-- topo.analysis.featureresponses.PositionMeasurementCommand -->
<g id="node4" class="node"><title>topo.analysis.featureresponses.PositionMeasurementCommand</title>
<polygon fill="none" stroke="black" stroke-width="0.5" points="1638,-153.5 1314,-153.5 1314,-132.5 1638,-132.5 1638,-153.5"/>
<text text-anchor="middle" x="1476" y="-140.5" font-family="Vera" font-size="10.00">topo.analysis.featureresponses.PositionMeasurementCommand</text>
</g>
<!-- topo.analysis.featureresponses.MeasureResponseCommand -->
<g id="node5" class="node"><title>topo.analysis.featureresponses.MeasureResponseCommand</title>
<polygon fill="none" stroke="black" stroke-width="0.5" points="1261,-115.5 955,-115.5 955,-94.5 1261,-94.5 1261,-115.5"/>
<text text-anchor="middle" x="1108" y="-102.5" font-family="Vera" font-size="10.00">topo.analysis.featureresponses.MeasureResponseCommand</text>
</g>
<!-- topo.analysis.featureresponses.MeasureResponseCommand&#45;&gt;topo.analysis.featureresponses.PositionMeasurementCommand -->
<g id="edge4" class="edge"><title>topo.analysis.featureresponses.MeasureResponseCommand&#45;&gt;topo.analysis.featureresponses.PositionMeasurementCommand</title>
<path fill="none" stroke="black" stroke-width="0.5" d="M1205.17,-115.034C1257.15,-120.402 1321.14,-127.009 1373.86,-132.453"/>
<polygon fill="black" stroke="black" points="1373.77,-134.203 1378.93,-132.976 1374.13,-130.722 1373.77,-134.203"/>
</g>
<!-- topo.analysis.featureresponses.SinusoidalMeasureResponseCommand -->
<g id="node20" class="node"><title>topo.analysis.featureresponses.SinusoidalMeasureResponseCommand</title>
<polygon fill="none" stroke="black" stroke-width="0.5" points="1654,-115.5 1298,-115.5 1298,-94.5 1654,-94.5 1654,-115.5"/>
<text text-anchor="middle" x="1476" y="-102.5" font-family="Vera" font-size="10.00">topo.analysis.featureresponses.SinusoidalMeasureResponseCommand</text>
</g>
<!-- topo.analysis.featureresponses.MeasureResponseCommand&#45;&gt;topo.analysis.featureresponses.SinusoidalMeasureResponseCommand -->
<g id="edge22" class="edge"><title>topo.analysis.featureresponses.MeasureResponseCommand&#45;&gt;topo.analysis.featureresponses.SinusoidalMeasureResponseCommand</title>
<path fill="none" stroke="black" stroke-width="0.5" d="M1261.67,-105C1271.91,-105 1282.29,-105 1292.66,-105"/>
<polygon fill="black" stroke="black" points="1292.75,-106.75 1297.75,-105 1292.75,-103.25 1292.75,-106.75"/>
</g>
<!-- topo.analysis.featureresponses.SingleInputResponseCommand -->
<g id="node41" class="node"><title>topo.analysis.featureresponses.SingleInputResponseCommand</title>
<polygon fill="none" stroke="black" stroke-width="0.5" points="1635,-77.5 1317,-77.5 1317,-56.5 1635,-56.5 1635,-77.5"/>
<text text-anchor="middle" x="1476" y="-64.5" font-family="Vera" font-size="10.00">topo.analysis.featureresponses.SingleInputResponseCommand</text>
</g>
<!-- topo.analysis.featureresponses.MeasureResponseCommand&#45;&gt;topo.analysis.featureresponses.SingleInputResponseCommand -->
<g id="edge40" class="edge"><title>topo.analysis.featureresponses.MeasureResponseCommand&#45;&gt;topo.analysis.featureresponses.SingleInputResponseCommand</title>
<path fill="none" stroke="black" stroke-width="0.5" d="M1205.17,-94.9662C1257.15,-89.5982 1321.14,-82.9912 1373.86,-77.5472"/>
<polygon fill="black" stroke="black" points="1374.13,-79.2785 1378.93,-77.024 1373.77,-75.797 1374.13,-79.2785"/>
</g>
<!-- param.parameterized.Parameterized -->
<g id="node7" class="node"><title>param.parameterized.Parameterized</title>
<polygon fill="none" stroke="black" stroke-width="0.5" points="236,-96.5 42,-96.5 42,-75.5 236,-75.5 236,-96.5"/>
<text text-anchor="middle" x="139" y="-83.5" font-family="Vera" font-size="10.00">param.parameterized.Parameterized</text>
</g>
<!-- param.parameterized.ParameterizedFunction -->
<g id="node9" class="node"><title>param.parameterized.ParameterizedFunction</title>
<polygon fill="none" stroke="black" stroke-width="0.5" points="558,-172.5 324,-172.5 324,-151.5 558,-151.5 558,-172.5"/>
<text text-anchor="middle" x="441" y="-159.5" font-family="Vera" font-size="10.00">param.parameterized.ParameterizedFunction</text>
</g>
<!-- param.parameterized.Parameterized&#45;&gt;param.parameterized.ParameterizedFunction -->
<g id="edge10" class="edge"><title>param.parameterized.Parameterized&#45;&gt;param.parameterized.ParameterizedFunction</title>
<path fill="none" stroke="black" stroke-width="0.5" d="M236.175,-90.703C250.698,-93.8161 265.107,-98.3834 278,-105 298.698,-115.622 293.37,-132.247 314,-143 319.329,-145.777 324.943,-148.18 330.724,-150.257"/>
<polygon fill="black" stroke="black" points="330.319,-151.968 335.616,-151.926 331.449,-148.656 330.319,-151.968"/>
</g>
<!-- topo.analysis.featureresponses.DistributionMatrix -->
<g id="node24" class="node"><title>topo.analysis.featureresponses.DistributionMatrix</title>
<polygon fill="none" stroke="black" stroke-width="0.5" points="568,-134.5 314,-134.5 314,-113.5 568,-113.5 568,-134.5"/>
<text text-anchor="middle" x="441" y="-121.5" font-family="Vera" font-size="10.00">topo.analysis.featureresponses.DistributionMatrix</text>
</g>
<!-- param.parameterized.Parameterized&#45;&gt;topo.analysis.featureresponses.DistributionMatrix -->
<g id="edge20" class="edge"><title>param.parameterized.Parameterized&#45;&gt;topo.analysis.featureresponses.DistributionMatrix</title>
<path fill="none" stroke="black" stroke-width="0.5" d="M218.742,-96.0338C261.06,-101.358 313.065,-107.902 356.129,-113.321"/>
<polygon fill="black" stroke="black" points="356.156,-115.088 361.335,-113.976 356.593,-111.615 356.156,-115.088"/>
</g>
<!-- topo.analysis.featureresponses.Subplotting -->
<g id="node29" class="node"><title>topo.analysis.featureresponses.Subplotting</title>
<polygon fill="none" stroke="black" stroke-width="0.5" points="553,-96.5 329,-96.5 329,-75.5 553,-75.5 553,-96.5"/>
<text text-anchor="middle" x="441" y="-83.5" font-family="Vera" font-size="10.00">topo.analysis.featureresponses.Subplotting</text>
</g>
<!-- param.parameterized.Parameterized&#45;&gt;topo.analysis.featureresponses.Subplotting -->
<g id="edge26" class="edge"><title>param.parameterized.Parameterized&#45;&gt;topo.analysis.featureresponses.Subplotting</title>
<path fill="none" stroke="black" stroke-width="0.5" d="M236.217,-86C264.172,-86 294.955,-86 323.973,-86"/>
<polygon fill="black" stroke="black" points="323.991,-87.7501 328.991,-86 323.991,-84.2501 323.991,-87.7501"/>
</g>
<!-- topo.analysis.featureresponses.FullMatrix -->
<g id="node49" class="node"><title>topo.analysis.featureresponses.FullMatrix</title>
<polygon fill="none" stroke="black" stroke-width="0.5" points="548,-58.5 334,-58.5 334,-37.5 548,-37.5 548,-58.5"/>
<text text-anchor="middle" x="441" y="-45.5" font-family="Vera" font-size="10.00">topo.analysis.featureresponses.FullMatrix</text>
</g>
<!-- param.parameterized.Parameterized&#45;&gt;topo.analysis.featureresponses.FullMatrix -->
<g id="edge48" class="edge"><title>param.parameterized.Parameterized&#45;&gt;topo.analysis.featureresponses.FullMatrix</title>
<path fill="none" stroke="black" stroke-width="0.5" d="M218.742,-75.9662C261.06,-70.6415 313.065,-64.0977 356.129,-58.6791"/>
<polygon fill="black" stroke="black" points="356.593,-60.3847 361.335,-58.024 356.156,-56.912 356.593,-60.3847"/>
</g>
<!-- topo.analysis.featureresponses.Feature -->
<g id="node51" class="node"><title>topo.analysis.featureresponses.Feature</title>
<polygon fill="none" stroke="black" stroke-width="0.5" points="544,-20.5 338,-20.5 338,0.5 544,0.5 544,-20.5"/>
<text text-anchor="middle" x="441" y="-7.5" font-family="Vera" font-size="10.00">topo.analysis.featureresponses.Feature</text>
</g>
<!-- param.parameterized.Parameterized&#45;&gt;topo.analysis.featureresponses.Feature -->
<g id="edge50" class="edge"><title>param.parameterized.Parameterized&#45;&gt;topo.analysis.featureresponses.Feature</title>
<path fill="none" stroke="black" stroke-width="0.5" d="M165.292,-75.913C199.194,-63.2616 260.198,-41.6933 314,-29 327.238,-25.8769 341.379,-23.1632 355.24,-20.8413"/>
<polygon fill="black" stroke="black" points="355.683,-22.5421 360.333,-20.0035 355.115,-19.0885 355.683,-22.5421"/>
</g>
<!-- topo.analysis.featureresponses.ocular2leftrightscale -->
<g id="node8" class="node"><title>topo.analysis.featureresponses.ocular2leftrightscale</title>
<polygon fill="none" stroke="black" stroke-width="0.5" points="894,-305.5 628,-305.5 628,-284.5 894,-284.5 894,-305.5"/>
<text text-anchor="middle" x="761" y="-292.5" font-family="Vera" font-size="10.00">topo.analysis.featureresponses.ocular2leftrightscale</text>
</g>
<!-- param.parameterized.ParameterizedFunction&#45;&gt;topo.analysis.featureresponses.ocular2leftrightscale -->
<g id="edge6" class="edge"><title>param.parameterized.ParameterizedFunction&#45;&gt;topo.analysis.featureresponses.ocular2leftrightscale</title>
<path fill="none" stroke="black" stroke-width="0.5" d="M451.361,-172.091C475.659,-195.066 539.171,-251.2 604,-276 611.751,-278.965 619.861,-281.495 628.136,-283.651"/>
<polygon fill="black" stroke="black" points="628.033,-285.429 633.308,-284.946 628.883,-282.034 628.033,-285.429"/>
</g>
<!-- topo.analysis.featureresponses.direction2translation -->
<g id="node15" class="node"><title>topo.analysis.featureresponses.direction2translation</title>
<polygon fill="none" stroke="black" stroke-width="0.5" points="895,-267.5 627,-267.5 627,-246.5 895,-246.5 895,-267.5"/>
<text text-anchor="middle" x="761" y="-254.5" font-family="Vera" font-size="10.00">topo.analysis.featureresponses.direction2translation</text>
</g>
<!-- param.parameterized.ParameterizedFunction&#45;&gt;topo.analysis.featureresponses.direction2translation -->
<g id="edge12" class="edge"><title>param.parameterized.ParameterizedFunction&#45;&gt;topo.analysis.featureresponses.direction2translation</title>
<path fill="none" stroke="black" stroke-width="0.5" d="M457.906,-172.091C486.763,-188.799 547.86,-221.956 604,-238 615.203,-241.202 627.006,-243.864 638.903,-246.078"/>
<polygon fill="black" stroke="black" points="638.774,-247.833 644.005,-246.999 639.396,-244.388 638.774,-247.833"/>
</g>
<!-- topo.base.functionfamily.PatternDrivenAnalysis -->
<g id="node17" class="node"><title>topo.base.functionfamily.PatternDrivenAnalysis</title>
<polygon fill="none" stroke="black" stroke-width="0.5" points="881,-229.5 641,-229.5 641,-208.5 881,-208.5 881,-229.5"/>
<text text-anchor="middle" x="761" y="-216.5" font-family="Vera" font-size="10.00">topo.base.functionfamily.PatternDrivenAnalysis</text>
</g>
<!-- param.parameterized.ParameterizedFunction&#45;&gt;topo.base.functionfamily.PatternDrivenAnalysis -->
<g id="edge42" class="edge"><title>param.parameterized.ParameterizedFunction&#45;&gt;topo.base.functionfamily.PatternDrivenAnalysis</title>
<path fill="none" stroke="black" stroke-width="0.5" d="M478.637,-172.001C511.521,-180.443 560.648,-192.347 604,-200 621.794,-203.141 640.815,-205.923 659.257,-208.323"/>
<polygon fill="black" stroke="black" points="659.259,-210.087 664.441,-208.99 659.706,-206.616 659.259,-210.087"/>
</g>
<!-- topo.analysis.featureresponses.hue2rgbscale -->
<g id="node22" class="node"><title>topo.analysis.featureresponses.hue2rgbscale</title>
<polygon fill="none" stroke="black" stroke-width="0.5" points="878,-191.5 644,-191.5 644,-170.5 878,-170.5 878,-191.5"/>
<text text-anchor="middle" x="761" y="-178.5" font-family="Vera" font-size="10.00">topo.analysis.featureresponses.hue2rgbscale</text>
</g>
<!-- param.parameterized.ParameterizedFunction&#45;&gt;topo.analysis.featureresponses.hue2rgbscale -->
<g id="edge18" class="edge"><title>param.parameterized.ParameterizedFunction&#45;&gt;topo.analysis.featureresponses.hue2rgbscale</title>
<path fill="none" stroke="black" stroke-width="0.5" d="M558.339,-168.967C584.51,-170.521 612.324,-172.172 638.69,-173.738"/>
<polygon fill="black" stroke="black" points="638.848,-175.5 643.943,-174.05 639.055,-172.006 638.848,-175.5"/>
</g>
<!-- topo.analysis.featureresponses.contrast2centersurroundscale -->
<g id="node27" class="node"><title>topo.analysis.featureresponses.contrast2centersurroundscale</title>
<polygon fill="none" stroke="black" stroke-width="0.5" points="918,-153.5 604,-153.5 604,-132.5 918,-132.5 918,-153.5"/>
<text text-anchor="middle" x="761" y="-140.5" font-family="Vera" font-size="10.00">topo.analysis.featureresponses.contrast2centersurroundscale</text>
</g>
<!-- param.parameterized.ParameterizedFunction&#45;&gt;topo.analysis.featureresponses.contrast2centersurroundscale -->
<g id="edge24" class="edge"><title>param.parameterized.ParameterizedFunction&#45;&gt;topo.analysis.featureresponses.contrast2centersurroundscale</title>
<path fill="none" stroke="black" stroke-width="0.5" d="M558.339,-155.033C571.525,-154.25 585.128,-153.442 598.752,-152.633"/>
<polygon fill="black" stroke="black" points="598.885,-154.379 603.772,-152.335 598.677,-150.885 598.885,-154.379"/>
</g>
<!-- topo.analysis.featureresponses.PatternPresentingCommand -->
<g id="node31" class="node"><title>topo.analysis.featureresponses.PatternPresentingCommand</title>
<polygon fill="none" stroke="black" stroke-width="0.5" points="913,-115.5 609,-115.5 609,-94.5 913,-94.5 913,-115.5"/>
<text text-anchor="middle" x="761" y="-102.5" font-family="Vera" font-size="10.00">topo.analysis.featureresponses.PatternPresentingCommand</text>
</g>
<!-- param.parameterized.ParameterizedFunction&#45;&gt;topo.analysis.featureresponses.PatternPresentingCommand -->
<g id="edge36" class="edge"><title>param.parameterized.ParameterizedFunction&#45;&gt;topo.analysis.featureresponses.PatternPresentingCommand</title>
<path fill="none" stroke="black" stroke-width="0.5" d="M533.085,-151.987C544.978,-149.601 556.879,-146.649 568,-143 585.19,-137.359 586.733,-129.399 604,-124 614.112,-120.838 624.744,-118.198 635.507,-115.994"/>
<polygon fill="black" stroke="black" points="635.897,-117.701 640.461,-115.012 635.216,-114.268 635.897,-117.701"/>
</g>
<!-- topo.analysis.featureresponses.contrast2scale -->
<g id="node33" class="node"><title>topo.analysis.featureresponses.contrast2scale</title>
<polygon fill="none" stroke="black" stroke-width="0.5" points="881,-77.5 641,-77.5 641,-56.5 881,-56.5 881,-77.5"/>
<text text-anchor="middle" x="761" y="-64.5" font-family="Vera" font-size="10.00">topo.analysis.featureresponses.contrast2scale</text>
</g>
<!-- param.parameterized.ParameterizedFunction&#45;&gt;topo.analysis.featureresponses.contrast2scale -->
<g id="edge30" class="edge"><title>param.parameterized.ParameterizedFunction&#45;&gt;topo.analysis.featureresponses.contrast2scale</title>
<path fill="none" stroke="black" stroke-width="0.5" d="M551.02,-151.878C556.968,-149.405 562.678,-146.471 568,-143 593.096,-126.63 578.677,-102.016 604,-86 613.847,-79.7718 624.744,-75.0865 636.072,-71.6035"/>
<polygon fill="black" stroke="black" points="636.64,-73.261 640.951,-70.1834 635.662,-69.9004 636.64,-73.261"/>
</g>
<!-- topo.analysis.featureresponses.phasedisparity2leftrightphase -->
<g id="node37" class="node"><title>topo.analysis.featureresponses.phasedisparity2leftrightphase</title>
<polygon fill="none" stroke="black" stroke-width="0.5" points="916,-39.5 606,-39.5 606,-18.5 916,-18.5 916,-39.5"/>
<text text-anchor="middle" x="761" y="-26.5" font-family="Vera" font-size="10.00">topo.analysis.featureresponses.phasedisparity2leftrightphase</text>
</g>
<!-- param.parameterized.ParameterizedFunction&#45;&gt;topo.analysis.featureresponses.phasedisparity2leftrightphase -->
<g id="edge34" class="edge"><title>param.parameterized.ParameterizedFunction&#45;&gt;topo.analysis.featureresponses.phasedisparity2leftrightphase</title>
<path fill="none" stroke="black" stroke-width="0.5" d="M554.301,-151.899C559.146,-149.374 563.748,-146.428 568,-143 603.151,-114.66 568.455,-75.8438 604,-48 606.972,-45.672 610.077,-43.5392 613.294,-41.5875"/>
<polygon fill="black" stroke="black" points="614.278,-43.0408 617.746,-39.0369 612.538,-40.0038 614.278,-43.0408"/>
</g>
<!-- topo.analysis.featureresponses.pattern_response -->
<g id="node11" class="node"><title>topo.analysis.featureresponses.pattern_response</title>
<polygon fill="none" stroke="black" stroke-width="0.5" points="1603,-39.5 1349,-39.5 1349,-18.5 1603,-18.5 1603,-39.5"/>
<text text-anchor="middle" x="1476" y="-26.5" font-family="Vera" font-size="10.00">topo.analysis.featureresponses.pattern_response</text>
</g>
<!-- topo.analysis.featureresponses.pattern_present -->
<g id="node12" class="node"><title>topo.analysis.featureresponses.pattern_present</title>
<polygon fill="none" stroke="black" stroke-width="0.5" points="1231,-58.5 985,-58.5 985,-37.5 1231,-37.5 1231,-58.5"/>
<text text-anchor="middle" x="1108" y="-45.5" font-family="Vera" font-size="10.00">topo.analysis.featureresponses.pattern_present</text>
</g>
<!-- topo.analysis.featureresponses.pattern_present&#45;&gt;topo.analysis.featureresponses.pattern_response -->
<g id="edge8" class="edge"><title>topo.analysis.featureresponses.pattern_present&#45;&gt;topo.analysis.featureresponses.pattern_response</title>
<path fill="none" stroke="black" stroke-width="0.5" d="M1231.56,-41.6204C1267.58,-39.7606 1307.08,-37.7213 1343.63,-35.8345"/>
<polygon fill="black" stroke="black" points="1344.09,-37.5629 1349,-35.5573 1343.91,-34.0675 1344.09,-37.5629"/>
</g>
<!-- topo.base.functionfamily.PatternDrivenAnalysis&#45;&gt;topo.analysis.featureresponses.FeatureResponses -->
<g id="edge14" class="edge"><title>topo.base.functionfamily.PatternDrivenAnalysis&#45;&gt;topo.analysis.featureresponses.FeatureResponses</title>
<path fill="none" stroke="black" stroke-width="0.5" d="M881.39,-219C911.274,-219 943.485,-219 973.977,-219"/>
<polygon fill="black" stroke="black" points="974.251,-220.75 979.251,-219 974.251,-217.25 974.251,-220.75"/>
</g>
<!-- topo.analysis.featureresponses.FeatureCurveCommand -->
<g id="node19" class="node"><title>topo.analysis.featureresponses.FeatureCurveCommand</title>
<polygon fill="none" stroke="black" stroke-width="0.5" points="1974,-115.5 1690,-115.5 1690,-94.5 1974,-94.5 1974,-115.5"/>
<text text-anchor="middle" x="1832" y="-102.5" font-family="Vera" font-size="10.00">topo.analysis.featureresponses.FeatureCurveCommand</text>
</g>
<!-- topo.analysis.featureresponses.UnitCurveCommand -->
<g id="node46" class="node"><title>topo.analysis.featureresponses.UnitCurveCommand</title>
<polygon fill="none" stroke="black" stroke-width="0.5" points="2277,-115.5 2011,-115.5 2011,-94.5 2277,-94.5 2277,-115.5"/>
<text text-anchor="middle" x="2144" y="-102.5" font-family="Vera" font-size="10.00">topo.analysis.featureresponses.UnitCurveCommand</text>
</g>
<!-- topo.analysis.featureresponses.FeatureCurveCommand&#45;&gt;topo.analysis.featureresponses.UnitCurveCommand -->
<g id="edge46" class="edge"><title>topo.analysis.featureresponses.FeatureCurveCommand&#45;&gt;topo.analysis.featureresponses.UnitCurveCommand</title>
<path fill="none" stroke="black" stroke-width="0.5" d="M1974.3,-105C1984.43,-105 1994.64,-105 2004.75,-105"/>
<polygon fill="black" stroke="black" points="2005.03,-106.75 2010.03,-105 2005.03,-103.25 2005.03,-106.75"/>
</g>
<!-- topo.analysis.featureresponses.SinusoidalMeasureResponseCommand&#45;&gt;topo.analysis.featureresponses.FeatureCurveCommand -->
<g id="edge16" class="edge"><title>topo.analysis.featureresponses.SinusoidalMeasureResponseCommand&#45;&gt;topo.analysis.featureresponses.FeatureCurveCommand</title>
<path fill="none" stroke="black" stroke-width="0.5" d="M1654,-105C1664.21,-105 1674.43,-105 1684.51,-105"/>
<polygon fill="black" stroke="black" points="1684.76,-106.75 1689.76,-105 1684.76,-103.25 1684.76,-106.75"/>
</g>
<!-- topo.analysis.featureresponses.PatternPresentingCommand&#45;&gt;topo.analysis.featureresponses.MeasureResponseCommand -->
<g id="edge28" class="edge"><title>topo.analysis.featureresponses.PatternPresentingCommand&#45;&gt;topo.analysis.featureresponses.MeasureResponseCommand</title>
<path fill="none" stroke="black" stroke-width="0.5" d="M913.704,-105C925.478,-105 937.381,-105 949.192,-105"/>
<polygon fill="black" stroke="black" points="949.248,-106.75 954.248,-105 949.248,-103.25 949.248,-106.75"/>
</g>
<!-- topo.analysis.featureresponses.PatternPresentingCommand&#45;&gt;topo.analysis.featureresponses.pattern_present -->
<g id="edge38" class="edge"><title>topo.analysis.featureresponses.PatternPresentingCommand&#45;&gt;topo.analysis.featureresponses.pattern_present</title>
<path fill="none" stroke="black" stroke-width="0.5" d="M853.731,-94.9783C874.897,-92.3577 897.261,-89.3238 918,-86 965.682,-78.3581 1019.63,-67.3376 1057.83,-59.1306"/>
<polygon fill="black" stroke="black" points="1058.36,-60.807 1062.88,-58.0428 1057.62,-57.3856 1058.36,-60.807"/>
</g>
<!-- topo.analysis.featureresponses.MeasurementInterrupt -->
<g id="node48" class="node"><title>topo.analysis.featureresponses.MeasurementInterrupt</title>
<polygon fill="none" stroke="black" stroke-width="0.5" points="278,-134.5 1.13687e-13,-134.5 0,-113.5 278,-113.5 278,-134.5"/>
<text text-anchor="middle" x="139" y="-121.5" font-family="Vera" font-size="10.00">topo.analysis.featureresponses.MeasurementInterrupt</text>
</g>
</g>
</svg>
