<?xml version="1.0" encoding="UTF-8" standalone="no"?>
<!DOCTYPE svg PUBLIC "-//W3C//DTD SVG 1.1//EN"
 "http://www.w3.org/Graphics/SVG/1.1/DTD/svg11.dtd">
<!-- Generated by graphviz version 2.26.3 (20100126.1600)
 -->
<!-- Title: inheritance0bce68b9cf Pages: 1 -->
<svg width="1872pt" height="370pt"
 viewBox="0.00 0.00 1872.00 370.00" xmlns="http://www.w3.org/2000/svg" xmlns:xlink="http://www.w3.org/1999/xlink">
<g id="graph1" class="graph" transform="scale(1 1) rotate(0) translate(4 366)">
<title>inheritance0bce68b9cf</title>
<polygon fill="white" stroke="white" points="-4,5 -4,-366 1869,-366 1869,5 -4,5"/>
<!-- topo.analysis.featureresponses.SinusoidalMeasureResponseCommand -->
<g id="node1" class="node"><title>topo.analysis.featureresponses.SinusoidalMeasureResponseCommand</title>
<polygon fill="none" stroke="black" stroke-width="0.5" points="1558,-210.5 1202,-210.5 1202,-189.5 1558,-189.5 1558,-210.5"/>
<text text-anchor="middle" x="1380" y="-197.5" font-family="Vera" font-size="10.00">topo.analysis.featureresponses.SinusoidalMeasureResponseCommand</text>
</g>
<!-- topo.command.analysis.measure_hue_pref -->
<g id="node8" class="node"><title>topo.command.analysis.measure_hue_pref</title>
<polygon fill="none" stroke="black" stroke-width="0.5" points="1841,-362.5 1617,-362.5 1617,-341.5 1841,-341.5 1841,-362.5"/>
<text text-anchor="middle" x="1729" y="-349.5" font-family="Vera" font-size="10.00">topo.command.analysis.measure_hue_pref</text>
</g>
<!-- topo.analysis.featureresponses.SinusoidalMeasureResponseCommand&#45;&gt;topo.command.analysis.measure_hue_pref -->
<g id="edge8" class="edge"><title>topo.analysis.featureresponses.SinusoidalMeasureResponseCommand&#45;&gt;topo.command.analysis.measure_hue_pref</title>
<path fill="none" stroke="black" stroke-width="0.5" d="M1545.06,-210.013C1549.58,-212.67 1553.91,-215.655 1558,-219 1599.13,-252.642 1553.44,-298.675 1594,-333 1599.58,-337.721 1605.77,-341.58 1612.36,-344.715"/>
<polygon fill="black" stroke="black" points="1611.7,-346.336 1616.98,-346.772 1613.12,-343.139 1611.7,-346.336"/>
</g>
<!-- topo.command.analysis.measure_dr_pref -->
<g id="node31" class="node"><title>topo.command.analysis.measure_dr_pref</title>
<polygon fill="none" stroke="black" stroke-width="0.5" points="1837,-324.5 1621,-324.5 1621,-303.5 1837,-303.5 1837,-324.5"/>
<text text-anchor="middle" x="1729" y="-311.5" font-family="Vera" font-size="10.00">topo.command.analysis.measure_dr_pref</text>
</g>
<!-- topo.analysis.featureresponses.SinusoidalMeasureResponseCommand&#45;&gt;topo.command.analysis.measure_dr_pref -->
<g id="edge28" class="edge"><title>topo.analysis.featureresponses.SinusoidalMeasureResponseCommand&#45;&gt;topo.command.analysis.measure_dr_pref</title>
<path fill="none" stroke="black" stroke-width="0.5" d="M1543.24,-210.123C1548.37,-212.725 1553.31,-215.672 1558,-219 1588.48,-240.637 1563.89,-272.856 1594,-295 1600.71,-299.935 1608.13,-303.873 1615.93,-306.994"/>
<polygon fill="black" stroke="black" points="1615.54,-308.716 1620.84,-308.833 1616.77,-305.439 1615.54,-308.716"/>
</g>
<!-- topo.command.analysis.measure_sine_pref -->
<g id="node34" class="node"><title>topo.command.analysis.measure_sine_pref</title>
<polygon fill="none" stroke="black" stroke-width="0.5" points="1842,-286.5 1616,-286.5 1616,-265.5 1842,-265.5 1842,-286.5"/>
<text text-anchor="middle" x="1729" y="-273.5" font-family="Vera" font-size="10.00">topo.command.analysis.measure_sine_pref</text>
</g>
<!-- topo.analysis.featureresponses.SinusoidalMeasureResponseCommand&#45;&gt;topo.command.analysis.measure_sine_pref -->
<g id="edge32" class="edge"><title>topo.analysis.featureresponses.SinusoidalMeasureResponseCommand&#45;&gt;topo.command.analysis.measure_sine_pref</title>
<path fill="none" stroke="black" stroke-width="0.5" d="M1536.23,-210.077C1543.73,-212.602 1551.04,-215.555 1558,-219 1578.85,-229.315 1573.32,-246.337 1594,-257 1599.42,-259.797 1605.12,-262.223 1610.99,-264.325"/>
<polygon fill="black" stroke="black" points="1610.66,-266.06 1615.95,-266.015 1611.79,-262.747 1610.66,-266.06"/>
</g>
<!-- topo.command.analysis.measure_or_pref -->
<g id="node41" class="node"><title>topo.command.analysis.measure_or_pref</title>
<polygon fill="none" stroke="black" stroke-width="0.5" points="1837,-248.5 1621,-248.5 1621,-227.5 1837,-227.5 1837,-248.5"/>
<text text-anchor="middle" x="1729" y="-235.5" font-family="Vera" font-size="10.00">topo.command.analysis.measure_or_pref</text>
</g>
<!-- topo.analysis.featureresponses.SinusoidalMeasureResponseCommand&#45;&gt;topo.command.analysis.measure_or_pref -->
<g id="edge40" class="edge"><title>topo.analysis.featureresponses.SinusoidalMeasureResponseCommand&#45;&gt;topo.command.analysis.measure_or_pref</title>
<path fill="none" stroke="black" stroke-width="0.5" d="M1474.7,-210.031C1501.62,-212.904 1530.97,-216.055 1558,-219 1582.67,-221.688 1609.34,-224.632 1634.12,-227.384"/>
<polygon fill="black" stroke="black" points="1634.21,-229.155 1639.37,-227.968 1634.6,-225.676 1634.21,-229.155"/>
</g>
<!-- topo.command.analysis.measure_od_pref -->
<g id="node48" class="node"><title>topo.command.analysis.measure_od_pref</title>
<polygon fill="none" stroke="black" stroke-width="0.5" points="1838,-210.5 1620,-210.5 1620,-189.5 1838,-189.5 1838,-210.5"/>
<text text-anchor="middle" x="1729" y="-197.5" font-family="Vera" font-size="10.00">topo.command.analysis.measure_od_pref</text>
</g>
<!-- topo.analysis.featureresponses.SinusoidalMeasureResponseCommand&#45;&gt;topo.command.analysis.measure_od_pref -->
<g id="edge48" class="edge"><title>topo.analysis.featureresponses.SinusoidalMeasureResponseCommand&#45;&gt;topo.command.analysis.measure_od_pref</title>
<path fill="none" stroke="black" stroke-width="0.5" d="M1558.08,-200C1577.28,-200 1596.42,-200 1614.58,-200"/>
<polygon fill="black" stroke="black" points="1614.67,-201.75 1619.67,-200 1614.67,-198.25 1614.67,-201.75"/>
</g>
<!-- topo.command.analysis.measure_second_or_pref -->
<g id="node50" class="node"><title>topo.command.analysis.measure_second_or_pref</title>
<polygon fill="none" stroke="black" stroke-width="0.5" points="1857,-172.5 1601,-172.5 1601,-151.5 1857,-151.5 1857,-172.5"/>
<text text-anchor="middle" x="1729" y="-159.5" font-family="Vera" font-size="10.00">topo.command.analysis.measure_second_or_pref</text>
</g>
<!-- topo.analysis.featureresponses.SinusoidalMeasureResponseCommand&#45;&gt;topo.command.analysis.measure_second_or_pref -->
<g id="edge50" class="edge"><title>topo.analysis.featureresponses.SinusoidalMeasureResponseCommand&#45;&gt;topo.command.analysis.measure_second_or_pref</title>
<path fill="none" stroke="black" stroke-width="0.5" d="M1474.7,-189.969C1501.62,-187.096 1530.97,-183.945 1558,-181 1582.67,-178.312 1609.34,-175.368 1634.12,-172.616"/>
<polygon fill="black" stroke="black" points="1634.6,-174.324 1639.37,-172.032 1634.21,-170.845 1634.6,-174.324"/>
</g>
<!-- topo.command.analysis.measure_phasedisparity -->
<g id="node62" class="node"><title>topo.command.analysis.measure_phasedisparity</title>
<polygon fill="none" stroke="black" stroke-width="0.5" points="1855,-134.5 1603,-134.5 1603,-113.5 1855,-113.5 1855,-134.5"/>
<text text-anchor="middle" x="1729" y="-121.5" font-family="Vera" font-size="10.00">topo.command.analysis.measure_phasedisparity</text>
</g>
<!-- topo.analysis.featureresponses.SinusoidalMeasureResponseCommand&#45;&gt;topo.command.analysis.measure_phasedisparity -->
<g id="edge62" class="edge"><title>topo.analysis.featureresponses.SinusoidalMeasureResponseCommand&#45;&gt;topo.command.analysis.measure_phasedisparity</title>
<path fill="none" stroke="black" stroke-width="0.5" d="M1536.23,-189.923C1543.73,-187.398 1551.04,-184.445 1558,-181 1578.85,-170.685 1573.32,-153.663 1594,-143 1599.34,-140.246 1604.95,-137.851 1610.72,-135.771"/>
<polygon fill="black" stroke="black" points="1611.45,-137.374 1615.61,-134.097 1610.31,-134.063 1611.45,-137.374"/>
</g>
<!-- topo.analysis.featureresponses.MeasureResponseCommand -->
<g id="node2" class="node"><title>topo.analysis.featureresponses.MeasureResponseCommand</title>
<polygon fill="none" stroke="black" stroke-width="0.5" points="1165,-134.5 859,-134.5 859,-113.5 1165,-113.5 1165,-134.5"/>
<text text-anchor="middle" x="1012" y="-121.5" font-family="Vera" font-size="10.00">topo.analysis.featureresponses.MeasureResponseCommand</text>
</g>
<!-- topo.analysis.featureresponses.MeasureResponseCommand&#45;&gt;topo.analysis.featureresponses.SinusoidalMeasureResponseCommand -->
<g id="edge2" class="edge"><title>topo.analysis.featureresponses.MeasureResponseCommand&#45;&gt;topo.analysis.featureresponses.SinusoidalMeasureResponseCommand</title>
<path fill="none" stroke="black" stroke-width="0.5" d="M1039.6,-134.042C1076.21,-146.955 1143.09,-169.126 1202,-181 1218.29,-184.283 1235.54,-187.024 1252.64,-189.305"/>
<polygon fill="black" stroke="black" points="1252.75,-191.085 1257.94,-189.999 1253.21,-187.615 1252.75,-191.085"/>
</g>
<!-- topo.analysis.featureresponses.SingleInputResponseCommand -->
<g id="node4" class="node"><title>topo.analysis.featureresponses.SingleInputResponseCommand</title>
<polygon fill="none" stroke="black" stroke-width="0.5" points="1539,-172.5 1221,-172.5 1221,-151.5 1539,-151.5 1539,-172.5"/>
<text text-anchor="middle" x="1380" y="-159.5" font-family="Vera" font-size="10.00">topo.analysis.featureresponses.SingleInputResponseCommand</text>
</g>
<!-- topo.analysis.featureresponses.MeasureResponseCommand&#45;&gt;topo.analysis.featureresponses.SingleInputResponseCommand -->
<g id="edge4" class="edge"><title>topo.analysis.featureresponses.MeasureResponseCommand&#45;&gt;topo.analysis.featureresponses.SingleInputResponseCommand</title>
<path fill="none" stroke="black" stroke-width="0.5" d="M1109.17,-134.034C1161.15,-139.402 1225.14,-146.009 1277.86,-151.453"/>
<polygon fill="black" stroke="black" points="1277.77,-153.203 1282.93,-151.976 1278.13,-149.722 1277.77,-153.203"/>
</g>
<!-- topo.command.analysis.measure_log_frequency_preference -->
<g id="node6" class="node"><title>topo.command.analysis.measure_log_frequency_preference</title>
<polygon fill="none" stroke="black" stroke-width="0.5" points="1533,-134.5 1227,-134.5 1227,-113.5 1533,-113.5 1533,-134.5"/>
<text text-anchor="middle" x="1380" y="-121.5" font-family="Vera" font-size="10.00">topo.command.analysis.measure_log_frequency_preference</text>
</g>
<!-- topo.analysis.featureresponses.MeasureResponseCommand&#45;&gt;topo.command.analysis.measure_log_frequency_preference -->
<g id="edge6" class="edge"><title>topo.analysis.featureresponses.MeasureResponseCommand&#45;&gt;topo.command.analysis.measure_log_frequency_preference</title>
<path fill="none" stroke="black" stroke-width="0.5" d="M1165.67,-124C1184.13,-124 1203.02,-124 1221.55,-124"/>
<polygon fill="black" stroke="black" points="1221.77,-125.75 1226.77,-124 1221.77,-122.25 1221.77,-125.75"/>
</g>
<!-- topo.command.analysis.measure_frequency_preference -->
<g id="node16" class="node"><title>topo.command.analysis.measure_frequency_preference</title>
<polygon fill="none" stroke="black" stroke-width="0.5" points="1523,-96.5 1237,-96.5 1237,-75.5 1523,-75.5 1523,-96.5"/>
<text text-anchor="middle" x="1380" y="-83.5" font-family="Vera" font-size="10.00">topo.command.analysis.measure_frequency_preference</text>
</g>
<!-- topo.analysis.featureresponses.MeasureResponseCommand&#45;&gt;topo.command.analysis.measure_frequency_preference -->
<g id="edge14" class="edge"><title>topo.analysis.featureresponses.MeasureResponseCommand&#45;&gt;topo.command.analysis.measure_frequency_preference</title>
<path fill="none" stroke="black" stroke-width="0.5" d="M1109.17,-113.966C1161.15,-108.598 1225.14,-101.991 1277.86,-96.5472"/>
<polygon fill="black" stroke="black" points="1278.13,-98.2785 1282.93,-96.024 1277.77,-94.797 1278.13,-98.2785"/>
</g>
<!-- topo.analysis.featureresponses.PositionMeasurementCommand -->
<g id="node29" class="node"><title>topo.analysis.featureresponses.PositionMeasurementCommand</title>
<polygon fill="none" stroke="black" stroke-width="0.5" points="1542,-58.5 1218,-58.5 1218,-37.5 1542,-37.5 1542,-58.5"/>
<text text-anchor="middle" x="1380" y="-45.5" font-family="Vera" font-size="10.00">topo.analysis.featureresponses.PositionMeasurementCommand</text>
</g>
<!-- topo.analysis.featureresponses.MeasureResponseCommand&#45;&gt;topo.analysis.featureresponses.PositionMeasurementCommand -->
<g id="edge30" class="edge"><title>topo.analysis.featureresponses.MeasureResponseCommand&#45;&gt;topo.analysis.featureresponses.PositionMeasurementCommand</title>
<path fill="none" stroke="black" stroke-width="0.5" d="M1039.6,-113.958C1076.21,-101.045 1143.09,-78.8742 1202,-67 1218.29,-63.7166 1235.54,-60.976 1252.64,-58.6945"/>
<polygon fill="black" stroke="black" points="1253.21,-60.385 1257.94,-58.0011 1252.75,-56.9146 1253.21,-60.385"/>
</g>
<!-- topo.command.analysis.measure_latency_preference -->
<g id="node64" class="node"><title>topo.command.analysis.measure_latency_preference</title>
<polygon fill="none" stroke="black" stroke-width="0.5" points="1517,-20.5 1243,-20.5 1243,0.5 1517,0.5 1517,-20.5"/>
<text text-anchor="middle" x="1380" y="-7.5" font-family="Vera" font-size="10.00">topo.command.analysis.measure_latency_preference</text>
</g>
<!-- topo.analysis.featureresponses.MeasureResponseCommand&#45;&gt;topo.command.analysis.measure_latency_preference -->
<g id="edge64" class="edge"><title>topo.analysis.featureresponses.MeasureResponseCommand&#45;&gt;topo.command.analysis.measure_latency_preference</title>
<path fill="none" stroke="black" stroke-width="0.5" d="M1027.47,-113.833C1058.87,-93.7561 1132.99,-49.219 1202,-29 1213.48,-25.636 1225.54,-22.8541 1237.73,-20.5553"/>
<polygon fill="black" stroke="black" points="1238.36,-22.2193 1242.97,-19.5993 1237.73,-18.7763 1238.36,-22.2193"/>
</g>
<!-- topo.command.analysis.measure_rfs -->
<g id="node60" class="node"><title>topo.command.analysis.measure_rfs</title>
<polygon fill="none" stroke="black" stroke-width="0.5" points="1826,-96.5 1632,-96.5 1632,-75.5 1826,-75.5 1826,-96.5"/>
<text text-anchor="middle" x="1729" y="-83.5" font-family="Vera" font-size="10.00">topo.command.analysis.measure_rfs</text>
</g>
<!-- topo.analysis.featureresponses.SingleInputResponseCommand&#45;&gt;topo.command.analysis.measure_rfs -->
<g id="edge60" class="edge"><title>topo.analysis.featureresponses.SingleInputResponseCommand&#45;&gt;topo.command.analysis.measure_rfs</title>
<path fill="none" stroke="black" stroke-width="0.5" d="M1536.23,-151.923C1543.73,-149.398 1551.04,-146.445 1558,-143 1578.85,-132.685 1573.32,-115.663 1594,-105 1604.22,-99.7319 1615.41,-95.7788 1626.85,-92.8313"/>
<polygon fill="black" stroke="black" points="1627.33,-94.5169 1631.77,-91.6288 1626.5,-91.1171 1627.33,-94.5169"/>
</g>
<!-- param.parameterized.Parameterized -->
<g id="node10" class="node"><title>param.parameterized.Parameterized</title>
<polygon fill="none" stroke="black" stroke-width="0.5" points="194,-134.5 5.68434e-14,-134.5 0,-113.5 194,-113.5 194,-134.5"/>
<text text-anchor="middle" x="97" y="-121.5" font-family="Vera" font-size="10.00">param.parameterized.Parameterized</text>
</g>
<!-- param.parameterized.ParameterizedFunction -->
<g id="node14" class="node"><title>param.parameterized.ParameterizedFunction</title>
<polygon fill="none" stroke="black" stroke-width="0.5" points="464,-229.5 230,-229.5 230,-208.5 464,-208.5 464,-229.5"/>
<text text-anchor="middle" x="347" y="-216.5" font-family="Vera" font-size="10.00">param.parameterized.ParameterizedFunction</text>
</g>
<!-- param.parameterized.Parameterized&#45;&gt;param.parameterized.ParameterizedFunction -->
<g id="edge12" class="edge"><title>param.parameterized.Parameterized&#45;&gt;param.parameterized.ParameterizedFunction</title>
<path fill="none" stroke="black" stroke-width="0.5" d="M123.754,-134.167C170.275,-151.844 265.838,-188.159 315.489,-207.026"/>
<polygon fill="black" stroke="black" points="315.142,-208.766 320.438,-208.906 316.386,-205.494 315.142,-208.766"/>
</g>
<!-- imagen.patterngenerator.PatternGenerator -->
<g id="node23" class="node"><title>imagen.patterngenerator.PatternGenerator</title>
<polygon fill="none" stroke="black" stroke-width="0.5" points="459,-134.5 235,-134.5 235,-113.5 459,-113.5 459,-134.5"/>
<text text-anchor="middle" x="347" y="-121.5" font-family="Vera" font-size="10.00">imagen.patterngenerator.PatternGenerator</text>
</g>
<!-- param.parameterized.Parameterized&#45;&gt;imagen.patterngenerator.PatternGenerator -->
<g id="edge34" class="edge"><title>param.parameterized.Parameterized&#45;&gt;imagen.patterngenerator.PatternGenerator</title>
<path fill="none" stroke="black" stroke-width="0.5" d="M194.014,-124C205.664,-124 217.655,-124 229.554,-124"/>
<polygon fill="black" stroke="black" points="229.647,-125.75 234.647,-124 229.647,-122.25 229.647,-125.75"/>
</g>
<!-- topo.command.analysis.PatternPresenter2 -->
<g id="node37" class="node"><title>topo.command.analysis.PatternPresenter2</title>
<polygon fill="none" stroke="black" stroke-width="0.5" points="457,-96.5 237,-96.5 237,-75.5 457,-75.5 457,-96.5"/>
<text text-anchor="middle" x="347" y="-83.5" font-family="Vera" font-size="10.00">topo.command.analysis.PatternPresenter2</text>
</g>
<!-- param.parameterized.Parameterized&#45;&gt;topo.command.analysis.PatternPresenter2 -->
<g id="edge36" class="edge"><title>param.parameterized.Parameterized&#45;&gt;topo.command.analysis.PatternPresenter2</title>
<path fill="none" stroke="black" stroke-width="0.5" d="M163.012,-113.966C197.758,-108.685 240.394,-102.204 275.872,-96.8115"/>
<polygon fill="black" stroke="black" points="276.372,-98.5056 281.052,-96.024 275.846,-95.0454 276.372,-98.5056"/>
</g>
<!-- topo.analysis.featureresponses.FeatureResponses -->
<g id="node11" class="node"><title>topo.analysis.featureresponses.FeatureResponses</title>
<polygon fill="none" stroke="black" stroke-width="0.5" points="1140,-324.5 884,-324.5 884,-303.5 1140,-303.5 1140,-324.5"/>
<text text-anchor="middle" x="1012" y="-311.5" font-family="Vera" font-size="10.00">topo.analysis.featureresponses.FeatureResponses</text>
</g>
<!-- topo.command.analysis.measure_activity -->
<g id="node52" class="node"><title>topo.command.analysis.measure_activity</title>
<polygon fill="none" stroke="black" stroke-width="0.5" points="1488,-324.5 1272,-324.5 1272,-303.5 1488,-303.5 1488,-324.5"/>
<text text-anchor="middle" x="1380" y="-311.5" font-family="Vera" font-size="10.00">topo.command.analysis.measure_activity</text>
</g>
<!-- topo.analysis.featureresponses.FeatureResponses&#45;&gt;topo.command.analysis.measure_activity -->
<g id="edge52" class="edge"><title>topo.analysis.featureresponses.FeatureResponses&#45;&gt;topo.command.analysis.measure_activity</title>
<path fill="none" stroke="black" stroke-width="0.5" d="M1140.71,-314C1181.67,-314 1226.66,-314 1266.47,-314"/>
<polygon fill="black" stroke="black" points="1266.8,-315.75 1271.8,-314 1266.8,-312.25 1266.8,-315.75"/>
</g>
<!-- topo.base.functionfamily.PatternDrivenAnalysis -->
<g id="node12" class="node"><title>topo.base.functionfamily.PatternDrivenAnalysis</title>
<polygon fill="none" stroke="black" stroke-width="0.5" points="781,-324.5 541,-324.5 541,-303.5 781,-303.5 781,-324.5"/>
<text text-anchor="middle" x="661" y="-311.5" font-family="Vera" font-size="10.00">topo.base.functionfamily.PatternDrivenAnalysis</text>
</g>
<!-- topo.base.functionfamily.PatternDrivenAnalysis&#45;&gt;topo.analysis.featureresponses.FeatureResponses -->
<g id="edge10" class="edge"><title>topo.base.functionfamily.PatternDrivenAnalysis&#45;&gt;topo.analysis.featureresponses.FeatureResponses</title>
<path fill="none" stroke="black" stroke-width="0.5" d="M781.303,-314C812.573,-314 846.446,-314 878.359,-314"/>
<polygon fill="black" stroke="black" points="878.463,-315.75 883.463,-314 878.463,-312.25 878.463,-315.75"/>
</g>
<!-- param.parameterized.ParameterizedFunction&#45;&gt;topo.base.functionfamily.PatternDrivenAnalysis -->
<g id="edge24" class="edge"><title>param.parameterized.ParameterizedFunction&#45;&gt;topo.base.functionfamily.PatternDrivenAnalysis</title>
<path fill="none" stroke="black" stroke-width="0.5" d="M371.059,-229.03C400.929,-241.234 453.611,-261.944 500,-276 534.96,-286.593 574.925,-296.04 606.292,-302.866"/>
<polygon fill="black" stroke="black" points="605.993,-304.591 611.25,-303.938 606.733,-301.17 605.993,-304.591"/>
</g>
<!-- topo.plotting.plotgroup.ProjectionSheetMeasurementCommand -->
<g id="node18" class="node"><title>topo.plotting.plotgroup.ProjectionSheetMeasurementCommand</title>
<polygon fill="none" stroke="black" stroke-width="0.5" points="822,-267.5 500,-267.5 500,-246.5 822,-246.5 822,-267.5"/>
<text text-anchor="middle" x="661" y="-254.5" font-family="Vera" font-size="10.00">topo.plotting.plotgroup.ProjectionSheetMeasurementCommand</text>
</g>
<!-- param.parameterized.ParameterizedFunction&#45;&gt;topo.plotting.plotgroup.ProjectionSheetMeasurementCommand -->
<g id="edge16" class="edge"><title>param.parameterized.ParameterizedFunction&#45;&gt;topo.plotting.plotgroup.ProjectionSheetMeasurementCommand</title>
<path fill="none" stroke="black" stroke-width="0.5" d="M426.793,-229.002C450.364,-231.932 476.218,-235.12 500,-238 522.73,-240.752 547.271,-243.674 570.177,-246.38"/>
<polygon fill="black" stroke="black" points="570.174,-248.141 575.345,-246.99 570.584,-244.665 570.174,-248.141"/>
</g>
<!-- topo.analysis.featureresponses.PatternPresentingCommand -->
<g id="node39" class="node"><title>topo.analysis.featureresponses.PatternPresentingCommand</title>
<polygon fill="none" stroke="black" stroke-width="0.5" points="813,-229.5 509,-229.5 509,-208.5 813,-208.5 813,-229.5"/>
<text text-anchor="middle" x="661" y="-216.5" font-family="Vera" font-size="10.00">topo.analysis.featureresponses.PatternPresentingCommand</text>
</g>
<!-- param.parameterized.ParameterizedFunction&#45;&gt;topo.analysis.featureresponses.PatternPresentingCommand -->
<g id="edge38" class="edge"><title>param.parameterized.ParameterizedFunction&#45;&gt;topo.analysis.featureresponses.PatternPresentingCommand</title>
<path fill="none" stroke="black" stroke-width="0.5" d="M464.369,-219C477.055,-219 490.112,-219 503.176,-219"/>
<polygon fill="black" stroke="black" points="503.378,-220.75 508.378,-219 503.378,-217.25 503.378,-220.75"/>
</g>
<!-- topo.command.analysis.save_plotgroup -->
<g id="node54" class="node"><title>topo.command.analysis.save_plotgroup</title>
<polygon fill="none" stroke="black" stroke-width="0.5" points="765,-191.5 557,-191.5 557,-170.5 765,-170.5 765,-191.5"/>
<text text-anchor="middle" x="661" y="-178.5" font-family="Vera" font-size="10.00">topo.command.analysis.save_plotgroup</text>
</g>
<!-- param.parameterized.ParameterizedFunction&#45;&gt;topo.command.analysis.save_plotgroup -->
<g id="edge54" class="edge"><title>param.parameterized.ParameterizedFunction&#45;&gt;topo.command.analysis.save_plotgroup</title>
<path fill="none" stroke="black" stroke-width="0.5" d="M426.793,-208.998C450.364,-206.068 476.218,-202.88 500,-200 522.73,-197.248 547.271,-194.326 570.177,-191.62"/>
<polygon fill="black" stroke="black" points="570.584,-193.335 575.345,-191.01 570.174,-189.859 570.584,-193.335"/>
</g>
<!-- topo.command.analysis.update_projectionactivity -->
<g id="node20" class="node"><title>topo.command.analysis.update_projectionactivity</title>
<polygon fill="none" stroke="black" stroke-width="0.5" points="1139,-286.5 885,-286.5 885,-265.5 1139,-265.5 1139,-286.5"/>
<text text-anchor="middle" x="1012" y="-273.5" font-family="Vera" font-size="10.00">topo.command.analysis.update_projectionactivity</text>
</g>
<!-- topo.plotting.plotgroup.ProjectionSheetMeasurementCommand&#45;&gt;topo.command.analysis.update_projectionactivity -->
<g id="edge18" class="edge"><title>topo.plotting.plotgroup.ProjectionSheetMeasurementCommand&#45;&gt;topo.command.analysis.update_projectionactivity</title>
<path fill="none" stroke="black" stroke-width="0.5" d="M822.118,-265.721C841.391,-266.765 860.898,-267.821 879.699,-268.838"/>
<polygon fill="black" stroke="black" points="879.895,-270.601 884.982,-269.124 880.084,-267.107 879.895,-270.601"/>
</g>
<!-- topo.plotting.plotgroup.UnitMeasurementCommand -->
<g id="node56" class="node"><title>topo.plotting.plotgroup.UnitMeasurementCommand</title>
<polygon fill="none" stroke="black" stroke-width="0.5" points="1145,-248.5 879,-248.5 879,-227.5 1145,-227.5 1145,-248.5"/>
<text text-anchor="middle" x="1012" y="-235.5" font-family="Vera" font-size="10.00">topo.plotting.plotgroup.UnitMeasurementCommand</text>
</g>
<!-- topo.plotting.plotgroup.ProjectionSheetMeasurementCommand&#45;&gt;topo.plotting.plotgroup.UnitMeasurementCommand -->
<g id="edge56" class="edge"><title>topo.plotting.plotgroup.ProjectionSheetMeasurementCommand&#45;&gt;topo.plotting.plotgroup.UnitMeasurementCommand</title>
<path fill="none" stroke="black" stroke-width="0.5" d="M822.118,-248.279C839.348,-247.346 856.765,-246.403 873.698,-245.486"/>
<polygon fill="black" stroke="black" points="874.038,-247.221 878.936,-245.203 873.849,-243.726 874.038,-247.221"/>
</g>
<!-- topo.command.analysis.latency_mapper -->
<g id="node22" class="node"><title>topo.command.analysis.latency_mapper</title>
<polygon fill="none" stroke="black" stroke-width="0.5" points="767,-153.5 555,-153.5 555,-132.5 767,-132.5 767,-153.5"/>
<text text-anchor="middle" x="661" y="-140.5" font-family="Vera" font-size="10.00">topo.command.analysis.latency_mapper</text>
</g>
<!-- imagen.patterngenerator.PatternGenerator&#45;&gt;topo.command.analysis.latency_mapper -->
<g id="edge20" class="edge"><title>imagen.patterngenerator.PatternGenerator&#45;&gt;topo.command.analysis.latency_mapper</title>
<path fill="none" stroke="black" stroke-width="0.5" d="M459.031,-130.779C488.501,-132.562 520.279,-134.485 549.709,-136.266"/>
<polygon fill="black" stroke="black" points="549.696,-138.018 554.792,-136.573 549.907,-134.525 549.696,-138.018"/>
</g>
<!-- topo.command.analysis.frequency_mapper -->
<g id="node25" class="node"><title>topo.command.analysis.frequency_mapper</title>
<polygon fill="none" stroke="black" stroke-width="0.5" points="773,-115.5 549,-115.5 549,-94.5 773,-94.5 773,-115.5"/>
<text text-anchor="middle" x="661" y="-102.5" font-family="Vera" font-size="10.00">topo.command.analysis.frequency_mapper</text>
</g>
<!-- imagen.patterngenerator.PatternGenerator&#45;&gt;topo.command.analysis.frequency_mapper -->
<g id="edge22" class="edge"><title>imagen.patterngenerator.PatternGenerator&#45;&gt;topo.command.analysis.frequency_mapper</title>
<path fill="none" stroke="black" stroke-width="0.5" d="M459.031,-117.221C486.472,-115.561 515.915,-113.779 543.6,-112.104"/>
<polygon fill="black" stroke="black" points="543.862,-113.841 548.748,-111.792 543.651,-110.348 543.862,-113.841"/>
</g>
<!-- topo.command.analysis.log_frequency_mapper -->
<g id="node43" class="node"><title>topo.command.analysis.log_frequency_mapper</title>
<polygon fill="none" stroke="black" stroke-width="0.5" points="783,-77.5 539,-77.5 539,-56.5 783,-56.5 783,-77.5"/>
<text text-anchor="middle" x="661" y="-64.5" font-family="Vera" font-size="10.00">topo.command.analysis.log_frequency_mapper</text>
</g>
<!-- imagen.patterngenerator.PatternGenerator&#45;&gt;topo.command.analysis.log_frequency_mapper -->
<g id="edge42" class="edge"><title>imagen.patterngenerator.PatternGenerator&#45;&gt;topo.command.analysis.log_frequency_mapper</title>
<path fill="none" stroke="black" stroke-width="0.5" d="M429.959,-113.969C441.538,-111.577 453.171,-108.629 464,-105 481.154,-99.2522 482.725,-91.3732 500,-86 510.817,-82.6355 522.213,-79.8593 533.738,-77.5695"/>
<polygon fill="black" stroke="black" points="534.105,-79.2811 538.684,-76.6177 533.443,-75.8442 534.105,-79.2811"/>
</g>
<!-- topo.command.analysis.measure_corner_or_pref -->
<g id="node28" class="node"><title>topo.command.analysis.measure_corner_or_pref</title>
<polygon fill="none" stroke="black" stroke-width="0.5" points="1855,-58.5 1603,-58.5 1603,-37.5 1855,-37.5 1855,-58.5"/>
<text text-anchor="middle" x="1729" y="-45.5" font-family="Vera" font-size="10.00">topo.command.analysis.measure_corner_or_pref</text>
</g>
<!-- topo.analysis.featureresponses.PositionMeasurementCommand&#45;&gt;topo.command.analysis.measure_corner_or_pref -->
<g id="edge26" class="edge"><title>topo.analysis.featureresponses.PositionMeasurementCommand&#45;&gt;topo.command.analysis.measure_corner_or_pref</title>
<path fill="none" stroke="black" stroke-width="0.5" d="M1542.24,-48C1560.87,-48 1579.69,-48 1597.84,-48"/>
<polygon fill="black" stroke="black" points="1597.94,-49.7501 1602.94,-48 1597.94,-46.2501 1597.94,-49.7501"/>
</g>
<!-- topo.command.analysis.measure_corner_angle_pref -->
<g id="node46" class="node"><title>topo.command.analysis.measure_corner_angle_pref</title>
<polygon fill="none" stroke="black" stroke-width="0.5" points="1863,-20.5 1595,-20.5 1595,0.5 1863,0.5 1863,-20.5"/>
<text text-anchor="middle" x="1729" y="-7.5" font-family="Vera" font-size="10.00">topo.command.analysis.measure_corner_angle_pref</text>
</g>
<!-- topo.analysis.featureresponses.PositionMeasurementCommand&#45;&gt;topo.command.analysis.measure_corner_angle_pref -->
<g id="edge46" class="edge"><title>topo.analysis.featureresponses.PositionMeasurementCommand&#45;&gt;topo.command.analysis.measure_corner_angle_pref</title>
<path fill="none" stroke="black" stroke-width="0.5" d="M1474.7,-37.9688C1501.62,-35.096 1530.97,-31.9447 1558,-29 1582.67,-26.3125 1609.34,-23.3679 1634.12,-20.6164"/>
<polygon fill="black" stroke="black" points="1634.6,-22.3239 1639.37,-20.0323 1634.21,-18.8453 1634.6,-22.3239"/>
</g>
<!-- topo.analysis.featureresponses.PatternPresentingCommand&#45;&gt;topo.analysis.featureresponses.MeasureResponseCommand -->
<g id="edge44" class="edge"><title>topo.analysis.featureresponses.PatternPresentingCommand&#45;&gt;topo.analysis.featureresponses.MeasureResponseCommand</title>
<path fill="none" stroke="black" stroke-width="0.5" d="M777.316,-208.972C792.461,-206.588 807.679,-203.641 822,-200 883.62,-184.332 951.941,-153.428 987.479,-136.248"/>
<polygon fill="black" stroke="black" points="988.332,-137.779 992.064,-134.019 986.802,-134.631 988.332,-137.779"/>
</g>
<!-- topo.command.analysis.update_connectionfields -->
<g id="node58" class="node"><title>topo.command.analysis.update_connectionfields</title>
<polygon fill="none" stroke="black" stroke-width="0.5" points="1505,-286.5 1255,-286.5 1255,-265.5 1505,-265.5 1505,-286.5"/>
<text text-anchor="middle" x="1380" y="-273.5" font-family="Vera" font-size="10.00">topo.command.analysis.update_connectionfields</text>
</g>
<!-- topo.plotting.plotgroup.UnitMeasurementCommand&#45;&gt;topo.command.analysis.update_connectionfields -->
<g id="edge58" class="edge"><title>topo.plotting.plotgroup.UnitMeasurementCommand&#45;&gt;topo.command.analysis.update_connectionfields</title>
<path fill="none" stroke="black" stroke-width="0.5" d="M1109.17,-248.034C1161.15,-253.402 1225.14,-260.009 1277.86,-265.453"/>
<polygon fill="black" stroke="black" points="1277.77,-267.203 1282.93,-265.976 1278.13,-263.722 1277.77,-267.203"/>
</g>
<!-- topo.command.analysis.update_projection -->
<g id="node66" class="node"><title>topo.command.analysis.update_projection</title>
<polygon fill="none" stroke="black" stroke-width="0.5" points="1490,-248.5 1270,-248.5 1270,-227.5 1490,-227.5 1490,-248.5"/>
<text text-anchor="middle" x="1380" y="-235.5" font-family="Vera" font-size="10.00">topo.command.analysis.update_projection</text>
</g>
<!-- topo.plotting.plotgroup.UnitMeasurementCommand&#45;&gt;topo.command.analysis.update_projection -->
<g id="edge66" class="edge"><title>topo.plotting.plotgroup.UnitMeasurementCommand&#45;&gt;topo.command.analysis.update_projection</title>
<path fill="none" stroke="black" stroke-width="0.5" d="M1145.12,-238C1184.11,-238 1226.42,-238 1264.24,-238"/>
<polygon fill="black" stroke="black" points="1264.3,-239.75 1269.3,-238 1264.3,-236.25 1264.3,-239.75"/>
</g>
</g>
</svg>
