<?xml version="1.0" encoding="UTF-8" standalone="no"?>
<!DOCTYPE svg PUBLIC "-//W3C//DTD SVG 1.1//EN"
 "http://www.w3.org/Graphics/SVG/1.1/DTD/svg11.dtd">
<!-- Generated by graphviz version 2.26.3 (20100126.1600)
 -->
<!-- Title: inheritancebede3c61fc Pages: 1 -->
<svg width="2498pt" height="541pt"
 viewBox="0.00 0.00 2498.00 541.00" xmlns="http://www.w3.org/2000/svg" xmlns:xlink="http://www.w3.org/1999/xlink">
<g id="graph1" class="graph" transform="scale(1 1) rotate(0) translate(4 537)">
<title>inheritancebede3c61fc</title>
<polygon fill="white" stroke="white" points="-4,5 -4,-537 2495,-537 2495,5 -4,5"/>
<!-- topo.command.pylabplot.test_measure -->
<g id="node1" class="node"><title>topo.command.pylabplot.test_measure</title>
<polygon fill="none" stroke="black" stroke-width="0.5" points="2451,-533.5 2245,-533.5 2245,-512.5 2451,-512.5 2451,-533.5"/>
<text text-anchor="middle" x="2348" y="-520.5" font-family="Vera" font-size="10.00">topo.command.pylabplot.test_measure</text>
</g>
<!-- topo.analysis.featureresponses.UnitCurveCommand -->
<g id="node2" class="node"><title>topo.analysis.featureresponses.UnitCurveCommand</title>
<polygon fill="none" stroke="black" stroke-width="0.5" points="2167,-457.5 1901,-457.5 1901,-436.5 2167,-436.5 2167,-457.5"/>
<text text-anchor="middle" x="2034" y="-444.5" font-family="Vera" font-size="10.00">topo.analysis.featureresponses.UnitCurveCommand</text>
</g>
<!-- topo.analysis.featureresponses.UnitCurveCommand&#45;&gt;topo.command.pylabplot.test_measure -->
<g id="edge2" class="edge"><title>topo.analysis.featureresponses.UnitCurveCommand&#45;&gt;topo.command.pylabplot.test_measure</title>
<path fill="none" stroke="black" stroke-width="0.5" d="M2059.22,-457.014C2092.37,-469.792 2152.66,-491.707 2206,-504 2219.71,-507.159 2234.29,-509.85 2248.69,-512.124"/>
<polygon fill="black" stroke="black" points="2248.77,-513.909 2253.98,-512.944 2249.31,-510.45 2248.77,-513.909"/>
</g>
<!-- topo.command.pylabplot.measure_or_tuning -->
<g id="node42" class="node"><title>topo.command.pylabplot.measure_or_tuning</title>
<polygon fill="none" stroke="black" stroke-width="0.5" points="2464,-495.5 2232,-495.5 2232,-474.5 2464,-474.5 2464,-495.5"/>
<text text-anchor="middle" x="2348" y="-482.5" font-family="Vera" font-size="10.00">topo.command.pylabplot.measure_or_tuning</text>
</g>
<!-- topo.analysis.featureresponses.UnitCurveCommand&#45;&gt;topo.command.pylabplot.measure_or_tuning -->
<g id="edge40" class="edge"><title>topo.analysis.featureresponses.UnitCurveCommand&#45;&gt;topo.command.pylabplot.measure_or_tuning</title>
<path fill="none" stroke="black" stroke-width="0.5" d="M2116.91,-457.034C2161,-462.369 2215.2,-468.929 2260.03,-474.354"/>
<polygon fill="black" stroke="black" points="2260,-476.112 2265.17,-474.976 2260.42,-472.638 2260,-476.112"/>
</g>
<!-- topo.command.pylabplot.measure_orientation_contrast -->
<g id="node48" class="node"><title>topo.command.pylabplot.measure_orientation_contrast</title>
<polygon fill="none" stroke="black" stroke-width="0.5" points="2490,-457.5 2206,-457.5 2206,-436.5 2490,-436.5 2490,-457.5"/>
<text text-anchor="middle" x="2348" y="-444.5" font-family="Vera" font-size="10.00">topo.command.pylabplot.measure_orientation_contrast</text>
</g>
<!-- topo.analysis.featureresponses.UnitCurveCommand&#45;&gt;topo.command.pylabplot.measure_orientation_contrast -->
<g id="edge46" class="edge"><title>topo.analysis.featureresponses.UnitCurveCommand&#45;&gt;topo.command.pylabplot.measure_orientation_contrast</title>
<path fill="none" stroke="black" stroke-width="0.5" d="M2167.62,-447C2178.62,-447 2189.78,-447 2200.87,-447"/>
<polygon fill="black" stroke="black" points="2200.96,-448.75 2205.96,-447 2200.96,-445.25 2200.96,-448.75"/>
</g>
<!-- topo.command.pylabplot.measure_size_response -->
<g id="node54" class="node"><title>topo.command.pylabplot.measure_size_response</title>
<polygon fill="none" stroke="black" stroke-width="0.5" points="2476,-419.5 2220,-419.5 2220,-398.5 2476,-398.5 2476,-419.5"/>
<text text-anchor="middle" x="2348" y="-406.5" font-family="Vera" font-size="10.00">topo.command.pylabplot.measure_size_response</text>
</g>
<!-- topo.analysis.featureresponses.UnitCurveCommand&#45;&gt;topo.command.pylabplot.measure_size_response -->
<g id="edge52" class="edge"><title>topo.analysis.featureresponses.UnitCurveCommand&#45;&gt;topo.command.pylabplot.measure_size_response</title>
<path fill="none" stroke="black" stroke-width="0.5" d="M2116.91,-436.966C2161,-431.631 2215.2,-425.071 2260.03,-419.646"/>
<polygon fill="black" stroke="black" points="2260.42,-421.362 2265.17,-419.024 2260,-417.888 2260.42,-421.362"/>
</g>
<!-- topo.command.pylabplot.measure_contrast_response -->
<g id="node64" class="node"><title>topo.command.pylabplot.measure_contrast_response</title>
<polygon fill="none" stroke="black" stroke-width="0.5" points="2486,-381.5 2210,-381.5 2210,-360.5 2486,-360.5 2486,-381.5"/>
<text text-anchor="middle" x="2348" y="-368.5" font-family="Vera" font-size="10.00">topo.command.pylabplot.measure_contrast_response</text>
</g>
<!-- topo.analysis.featureresponses.UnitCurveCommand&#45;&gt;topo.command.pylabplot.measure_contrast_response -->
<g id="edge64" class="edge"><title>topo.analysis.featureresponses.UnitCurveCommand&#45;&gt;topo.command.pylabplot.measure_contrast_response</title>
<path fill="none" stroke="black" stroke-width="0.5" d="M2148.23,-436.953C2155.78,-434.501 2163.11,-431.548 2170,-428 2190.68,-417.348 2185.29,-400.592 2206,-390 2211.36,-387.257 2216.98,-384.864 2222.76,-382.777"/>
<polygon fill="black" stroke="black" points="2223.49,-384.377 2227.65,-381.096 2222.35,-381.067 2223.49,-384.377"/>
</g>
<!-- topo.command.pylabplot.tuning_curve -->
<g id="node4" class="node"><title>topo.command.pylabplot.tuning_curve</title>
<polygon fill="none" stroke="black" stroke-width="0.5" points="1464,-362.5 1264,-362.5 1264,-341.5 1464,-341.5 1464,-362.5"/>
<text text-anchor="middle" x="1364" y="-349.5" font-family="Vera" font-size="10.00">topo.command.pylabplot.tuning_curve</text>
</g>
<!-- topo.command.pylabplot.cyclic_tuning_curve -->
<g id="node58" class="node"><title>topo.command.pylabplot.cyclic_tuning_curve</title>
<polygon fill="none" stroke="black" stroke-width="0.5" points="1836,-362.5 1604,-362.5 1604,-341.5 1836,-341.5 1836,-362.5"/>
<text text-anchor="middle" x="1720" y="-349.5" font-family="Vera" font-size="10.00">topo.command.pylabplot.cyclic_tuning_curve</text>
</g>
<!-- topo.command.pylabplot.tuning_curve&#45;&gt;topo.command.pylabplot.cyclic_tuning_curve -->
<g id="edge56" class="edge"><title>topo.command.pylabplot.tuning_curve&#45;&gt;topo.command.pylabplot.cyclic_tuning_curve</title>
<path fill="none" stroke="black" stroke-width="0.5" d="M1464.59,-352C1506.36,-352 1555.2,-352 1598.92,-352"/>
<polygon fill="black" stroke="black" points="1598.95,-353.75 1603.95,-352 1598.95,-350.25 1598.95,-353.75"/>
</g>
<!-- topo.command.pylabplot.PylabPlotCommand -->
<g id="node5" class="node"><title>topo.command.pylabplot.PylabPlotCommand</title>
<polygon fill="none" stroke="black" stroke-width="0.5" points="1112,-210.5 880,-210.5 880,-189.5 1112,-189.5 1112,-210.5"/>
<text text-anchor="middle" x="996" y="-197.5" font-family="Vera" font-size="10.00">topo.command.pylabplot.PylabPlotCommand</text>
</g>
<!-- topo.command.pylabplot.PylabPlotCommand&#45;&gt;topo.command.pylabplot.tuning_curve -->
<g id="edge4" class="edge"><title>topo.command.pylabplot.PylabPlotCommand&#45;&gt;topo.command.pylabplot.tuning_curve</title>
<path fill="none" stroke="black" stroke-width="0.5" d="M1006.41,-210.284C1033.37,-236.173 1108.71,-304.036 1186,-333 1208.55,-341.45 1233.76,-346.526 1257.95,-349.495"/>
<polygon fill="black" stroke="black" points="1257.92,-351.254 1263.09,-350.098 1258.33,-347.778 1257.92,-351.254"/>
</g>
<!-- topo.command.pylabplot.matrixplot3d -->
<g id="node8" class="node"><title>topo.command.pylabplot.matrixplot3d</title>
<polygon fill="none" stroke="black" stroke-width="0.5" points="1464,-324.5 1264,-324.5 1264,-303.5 1464,-303.5 1464,-324.5"/>
<text text-anchor="middle" x="1364" y="-311.5" font-family="Vera" font-size="10.00">topo.command.pylabplot.matrixplot3d</text>
</g>
<!-- topo.command.pylabplot.PylabPlotCommand&#45;&gt;topo.command.pylabplot.matrixplot3d -->
<g id="edge6" class="edge"><title>topo.command.pylabplot.PylabPlotCommand&#45;&gt;topo.command.pylabplot.matrixplot3d</title>
<path fill="none" stroke="black" stroke-width="0.5" d="M1011.47,-210.167C1042.87,-230.244 1116.99,-274.781 1186,-295 1209.11,-301.771 1234.54,-306.183 1258.76,-309.045"/>
<polygon fill="black" stroke="black" points="1258.75,-310.805 1263.91,-309.633 1259.15,-307.327 1258.75,-310.805"/>
</g>
<!-- topo.command.pylabplot.histogramplot -->
<g id="node15" class="node"><title>topo.command.pylabplot.histogramplot</title>
<polygon fill="none" stroke="black" stroke-width="0.5" points="1467,-286.5 1261,-286.5 1261,-265.5 1467,-265.5 1467,-286.5"/>
<text text-anchor="middle" x="1364" y="-273.5" font-family="Vera" font-size="10.00">topo.command.pylabplot.histogramplot</text>
</g>
<!-- topo.command.pylabplot.PylabPlotCommand&#45;&gt;topo.command.pylabplot.histogramplot -->
<g id="edge12" class="edge"><title>topo.command.pylabplot.PylabPlotCommand&#45;&gt;topo.command.pylabplot.histogramplot</title>
<path fill="none" stroke="black" stroke-width="0.5" d="M1023.6,-210.042C1060.21,-222.955 1127.09,-245.126 1186,-257 1208.38,-261.51 1232.56,-264.996 1255.68,-267.675"/>
<polygon fill="black" stroke="black" points="1255.74,-269.443 1260.91,-268.269 1256.14,-265.965 1255.74,-269.443"/>
</g>
<!-- topo.command.pylabplot.matrixplot -->
<g id="node20" class="node"><title>topo.command.pylabplot.matrixplot</title>
<polygon fill="none" stroke="black" stroke-width="0.5" points="1458,-248.5 1270,-248.5 1270,-227.5 1458,-227.5 1458,-248.5"/>
<text text-anchor="middle" x="1364" y="-235.5" font-family="Vera" font-size="10.00">topo.command.pylabplot.matrixplot</text>
</g>
<!-- topo.command.pylabplot.PylabPlotCommand&#45;&gt;topo.command.pylabplot.matrixplot -->
<g id="edge26" class="edge"><title>topo.command.pylabplot.PylabPlotCommand&#45;&gt;topo.command.pylabplot.matrixplot</title>
<path fill="none" stroke="black" stroke-width="0.5" d="M1093.17,-210.034C1146.08,-215.498 1211.43,-222.245 1264.67,-227.743"/>
<polygon fill="black" stroke="black" points="1264.63,-229.499 1269.79,-228.271 1264.99,-226.017 1264.63,-229.499"/>
</g>
<!-- topo.command.pylabplot.vectorplot -->
<g id="node33" class="node"><title>topo.command.pylabplot.vectorplot</title>
<polygon fill="none" stroke="black" stroke-width="0.5" points="1458,-210.5 1270,-210.5 1270,-189.5 1458,-189.5 1458,-210.5"/>
<text text-anchor="middle" x="1364" y="-197.5" font-family="Vera" font-size="10.00">topo.command.pylabplot.vectorplot</text>
</g>
<!-- topo.command.pylabplot.PylabPlotCommand&#45;&gt;topo.command.pylabplot.vectorplot -->
<g id="edge30" class="edge"><title>topo.command.pylabplot.PylabPlotCommand&#45;&gt;topo.command.pylabplot.vectorplot</title>
<path fill="none" stroke="black" stroke-width="0.5" d="M1112.69,-200C1161.64,-200 1217.96,-200 1264.87,-200"/>
<polygon fill="black" stroke="black" points="1264.95,-201.75 1269.95,-200 1264.95,-198.25 1264.95,-201.75"/>
</g>
<!-- topo.command.pylabplot.topographic_grid -->
<g id="node44" class="node"><title>topo.command.pylabplot.topographic_grid</title>
<polygon fill="none" stroke="black" stroke-width="0.5" points="1474,-172.5 1254,-172.5 1254,-151.5 1474,-151.5 1474,-172.5"/>
<text text-anchor="middle" x="1364" y="-159.5" font-family="Vera" font-size="10.00">topo.command.pylabplot.topographic_grid</text>
</g>
<!-- topo.command.pylabplot.PylabPlotCommand&#45;&gt;topo.command.pylabplot.topographic_grid -->
<g id="edge42" class="edge"><title>topo.command.pylabplot.PylabPlotCommand&#45;&gt;topo.command.pylabplot.topographic_grid</title>
<path fill="none" stroke="black" stroke-width="0.5" d="M1093.17,-189.966C1145.15,-184.598 1209.14,-177.991 1261.86,-172.547"/>
<polygon fill="black" stroke="black" points="1262.13,-174.278 1266.93,-172.024 1261.77,-170.797 1262.13,-174.278"/>
</g>
<!-- topo.command.pylabplot.plot_modulation_ratio -->
<g id="node46" class="node"><title>topo.command.pylabplot.plot_modulation_ratio</title>
<polygon fill="none" stroke="black" stroke-width="0.5" points="1486,-134.5 1242,-134.5 1242,-113.5 1486,-113.5 1486,-134.5"/>
<text text-anchor="middle" x="1364" y="-121.5" font-family="Vera" font-size="10.00">topo.command.pylabplot.plot_modulation_ratio</text>
</g>
<!-- topo.command.pylabplot.PylabPlotCommand&#45;&gt;topo.command.pylabplot.plot_modulation_ratio -->
<g id="edge44" class="edge"><title>topo.command.pylabplot.PylabPlotCommand&#45;&gt;topo.command.pylabplot.plot_modulation_ratio</title>
<path fill="none" stroke="black" stroke-width="0.5" d="M1023.6,-189.958C1060.21,-177.045 1127.09,-154.874 1186,-143 1202.29,-139.717 1219.54,-136.976 1236.64,-134.695"/>
<polygon fill="black" stroke="black" points="1237.21,-136.385 1241.94,-134.001 1236.75,-132.915 1237.21,-136.385"/>
</g>
<!-- topo.command.pylabplot.overlaid_plots -->
<g id="node50" class="node"><title>topo.command.pylabplot.overlaid_plots</title>
<polygon fill="none" stroke="black" stroke-width="0.5" points="1467,-96.5 1261,-96.5 1261,-75.5 1467,-75.5 1467,-96.5"/>
<text text-anchor="middle" x="1364" y="-83.5" font-family="Vera" font-size="10.00">topo.command.pylabplot.overlaid_plots</text>
</g>
<!-- topo.command.pylabplot.PylabPlotCommand&#45;&gt;topo.command.pylabplot.overlaid_plots -->
<g id="edge48" class="edge"><title>topo.command.pylabplot.PylabPlotCommand&#45;&gt;topo.command.pylabplot.overlaid_plots</title>
<path fill="none" stroke="black" stroke-width="0.5" d="M1011.47,-189.833C1042.87,-169.756 1116.99,-125.219 1186,-105 1208.04,-98.542 1232.2,-94.2292 1255.4,-91.3613"/>
<polygon fill="black" stroke="black" points="1255.89,-93.0653 1260.65,-90.7351 1255.48,-89.59 1255.89,-93.0653"/>
</g>
<!-- topo.command.pylabplot.matrixplot3dx3 -->
<g id="node52" class="node"><title>topo.command.pylabplot.matrixplot3dx3</title>
<polygon fill="none" stroke="black" stroke-width="0.5" points="1470,-58.5 1258,-58.5 1258,-37.5 1470,-37.5 1470,-58.5"/>
<text text-anchor="middle" x="1364" y="-45.5" font-family="Vera" font-size="10.00">topo.command.pylabplot.matrixplot3dx3</text>
</g>
<!-- topo.command.pylabplot.PylabPlotCommand&#45;&gt;topo.command.pylabplot.matrixplot3dx3 -->
<g id="edge50" class="edge"><title>topo.command.pylabplot.PylabPlotCommand&#45;&gt;topo.command.pylabplot.matrixplot3dx3</title>
<path fill="none" stroke="black" stroke-width="0.5" d="M1006.41,-189.716C1033.37,-163.827 1108.71,-95.9642 1186,-67 1206.97,-59.1426 1230.23,-54.203 1252.84,-51.1613"/>
<polygon fill="black" stroke="black" points="1253.22,-52.8768 1257.96,-50.5033 1252.78,-49.4054 1253.22,-52.8768"/>
</g>
<!-- topo.command.pylabplot.plot_tracked_attributes -->
<g id="node56" class="node"><title>topo.command.pylabplot.plot_tracked_attributes</title>
<polygon fill="none" stroke="black" stroke-width="0.5" points="1489,-20.5 1239,-20.5 1239,0.5 1489,0.5 1489,-20.5"/>
<text text-anchor="middle" x="1364" y="-7.5" font-family="Vera" font-size="10.00">topo.command.pylabplot.plot_tracked_attributes</text>
</g>
<!-- topo.command.pylabplot.PylabPlotCommand&#45;&gt;topo.command.pylabplot.plot_tracked_attributes -->
<g id="edge54" class="edge"><title>topo.command.pylabplot.PylabPlotCommand&#45;&gt;topo.command.pylabplot.plot_tracked_attributes</title>
<path fill="none" stroke="black" stroke-width="0.5" d="M1003.29,-189.979C1026.16,-159.445 1100.08,-67.3266 1186,-29 1200.79,-22.4027 1216.93,-17.7039 1233.27,-14.4042"/>
<polygon fill="black" stroke="black" points="1233.76,-16.0907 1238.34,-13.4245 1233.1,-12.6542 1233.76,-16.0907"/>
</g>
<!-- param.parameterized.Parameterized -->
<g id="node7" class="node"><title>param.parameterized.Parameterized</title>
<polygon fill="none" stroke="black" stroke-width="0.5" points="194,-291.5 5.68434e-14,-291.5 0,-270.5 194,-270.5 194,-291.5"/>
<text text-anchor="middle" x="97" y="-278.5" font-family="Vera" font-size="10.00">param.parameterized.Parameterized</text>
</g>
<!-- param.parameterized.ParameterizedFunction -->
<g id="node10" class="node"><title>param.parameterized.ParameterizedFunction</title>
<polygon fill="none" stroke="black" stroke-width="0.5" points="464,-291.5 230,-291.5 230,-270.5 464,-270.5 464,-291.5"/>
<text text-anchor="middle" x="347" y="-278.5" font-family="Vera" font-size="10.00">param.parameterized.ParameterizedFunction</text>
</g>
<!-- param.parameterized.Parameterized&#45;&gt;param.parameterized.ParameterizedFunction -->
<g id="edge8" class="edge"><title>param.parameterized.Parameterized&#45;&gt;param.parameterized.ParameterizedFunction</title>
<path fill="none" stroke="black" stroke-width="0.5" d="M194.014,-281C204.04,-281 214.319,-281 224.575,-281"/>
<polygon fill="black" stroke="black" points="224.607,-282.75 229.607,-281 224.607,-279.25 224.607,-282.75"/>
</g>
<!-- topo.analysis.featureresponses.PatternPresentingCommand -->
<g id="node17" class="node"><title>topo.analysis.featureresponses.PatternPresentingCommand</title>
<polygon fill="none" stroke="black" stroke-width="0.5" points="805,-386.5 501,-386.5 501,-365.5 805,-365.5 805,-386.5"/>
<text text-anchor="middle" x="653" y="-373.5" font-family="Vera" font-size="10.00">topo.analysis.featureresponses.PatternPresentingCommand</text>
</g>
<!-- param.parameterized.ParameterizedFunction&#45;&gt;topo.analysis.featureresponses.PatternPresentingCommand -->
<g id="edge14" class="edge"><title>param.parameterized.ParameterizedFunction&#45;&gt;topo.analysis.featureresponses.PatternPresentingCommand</title>
<path fill="none" stroke="black" stroke-width="0.5" d="M379.458,-291.077C436.608,-308.819 554.867,-345.534 615.445,-364.341"/>
<polygon fill="black" stroke="black" points="615.121,-366.072 620.415,-365.884 616.158,-362.73 615.121,-366.072"/>
</g>
<!-- topo.command.pylabplot.measure_cog -->
<g id="node27" class="node"><title>topo.command.pylabplot.measure_cog</title>
<polygon fill="none" stroke="black" stroke-width="0.5" points="755,-291.5 551,-291.5 551,-270.5 755,-270.5 755,-291.5"/>
<text text-anchor="middle" x="653" y="-278.5" font-family="Vera" font-size="10.00">topo.command.pylabplot.measure_cog</text>
</g>
<!-- param.parameterized.ParameterizedFunction&#45;&gt;topo.command.pylabplot.measure_cog -->
<g id="edge22" class="edge"><title>param.parameterized.ParameterizedFunction&#45;&gt;topo.command.pylabplot.measure_cog</title>
<path fill="none" stroke="black" stroke-width="0.5" d="M464.432,-281C490.978,-281 519.035,-281 545.163,-281"/>
<polygon fill="black" stroke="black" points="545.362,-282.75 550.362,-281 545.362,-279.25 545.362,-282.75"/>
</g>
<!-- topo.command.Command -->
<g id="node40" class="node"><title>topo.command.Command</title>
<polygon fill="none" stroke="black" stroke-width="0.5" points="724,-238.5 582,-238.5 582,-217.5 724,-217.5 724,-238.5"/>
<text text-anchor="middle" x="653" y="-225.5" font-family="Vera" font-size="10.00">topo.command.Command</text>
</g>
<!-- param.parameterized.ParameterizedFunction&#45;&gt;topo.command.Command -->
<g id="edge58" class="edge"><title>param.parameterized.ParameterizedFunction&#45;&gt;topo.command.Command</title>
<path fill="none" stroke="black" stroke-width="0.5" d="M404.916,-270.969C457.706,-261.826 535.515,-248.349 589.875,-238.933"/>
<polygon fill="black" stroke="black" points="590.433,-240.613 595.061,-238.035 589.836,-237.164 590.433,-240.613"/>
</g>
<!-- topo.analysis.featureresponses.FeatureCurveCommand -->
<g id="node12" class="node"><title>topo.analysis.featureresponses.FeatureCurveCommand</title>
<polygon fill="none" stroke="black" stroke-width="0.5" points="1862,-438.5 1578,-438.5 1578,-417.5 1862,-417.5 1862,-438.5"/>
<text text-anchor="middle" x="1720" y="-425.5" font-family="Vera" font-size="10.00">topo.analysis.featureresponses.FeatureCurveCommand</text>
</g>
<!-- topo.analysis.featureresponses.FeatureCurveCommand&#45;&gt;topo.analysis.featureresponses.UnitCurveCommand -->
<g id="edge24" class="edge"><title>topo.analysis.featureresponses.FeatureCurveCommand&#45;&gt;topo.analysis.featureresponses.UnitCurveCommand</title>
<path fill="none" stroke="black" stroke-width="0.5" d="M1862.3,-436.611C1873.28,-437.275 1884.35,-437.945 1895.3,-438.607"/>
<polygon fill="black" stroke="black" points="1895.23,-440.356 1900.32,-438.911 1895.44,-436.862 1895.23,-440.356"/>
</g>
<!-- topo.command.pylabplot.measure_or_tuning_fullfield -->
<g id="node31" class="node"><title>topo.command.pylabplot.measure_or_tuning_fullfield</title>
<polygon fill="none" stroke="black" stroke-width="0.5" points="2169,-419.5 1899,-419.5 1899,-398.5 2169,-398.5 2169,-419.5"/>
<text text-anchor="middle" x="2034" y="-406.5" font-family="Vera" font-size="10.00">topo.command.pylabplot.measure_or_tuning_fullfield</text>
</g>
<!-- topo.analysis.featureresponses.FeatureCurveCommand&#45;&gt;topo.command.pylabplot.measure_or_tuning_fullfield -->
<g id="edge28" class="edge"><title>topo.analysis.featureresponses.FeatureCurveCommand&#45;&gt;topo.command.pylabplot.measure_or_tuning_fullfield</title>
<path fill="none" stroke="black" stroke-width="0.5" d="M1862.3,-419.389C1872.62,-418.765 1883.02,-418.135 1893.33,-417.512"/>
<polygon fill="black" stroke="black" points="1893.5,-419.255 1898.39,-417.206 1893.29,-415.761 1893.5,-419.255"/>
</g>
<!-- topo.analysis.featureresponses.SinusoidalMeasureResponseCommand -->
<g id="node13" class="node"><title>topo.analysis.featureresponses.SinusoidalMeasureResponseCommand</title>
<polygon fill="none" stroke="black" stroke-width="0.5" points="1542,-438.5 1186,-438.5 1186,-417.5 1542,-417.5 1542,-438.5"/>
<text text-anchor="middle" x="1364" y="-425.5" font-family="Vera" font-size="10.00">topo.analysis.featureresponses.SinusoidalMeasureResponseCommand</text>
</g>
<!-- topo.analysis.featureresponses.SinusoidalMeasureResponseCommand&#45;&gt;topo.analysis.featureresponses.FeatureCurveCommand -->
<g id="edge10" class="edge"><title>topo.analysis.featureresponses.SinusoidalMeasureResponseCommand&#45;&gt;topo.analysis.featureresponses.FeatureCurveCommand</title>
<path fill="none" stroke="black" stroke-width="0.5" d="M1542,-428C1552.21,-428 1562.43,-428 1572.51,-428"/>
<polygon fill="black" stroke="black" points="1572.76,-429.75 1577.76,-428 1572.76,-426.25 1572.76,-429.75"/>
</g>
<!-- topo.analysis.featureresponses.MeasureResponseCommand -->
<g id="node35" class="node"><title>topo.analysis.featureresponses.MeasureResponseCommand</title>
<polygon fill="none" stroke="black" stroke-width="0.5" points="1149,-400.5 843,-400.5 843,-379.5 1149,-379.5 1149,-400.5"/>
<text text-anchor="middle" x="996" y="-387.5" font-family="Vera" font-size="10.00">topo.analysis.featureresponses.MeasureResponseCommand</text>
</g>
<!-- topo.analysis.featureresponses.PatternPresentingCommand&#45;&gt;topo.analysis.featureresponses.MeasureResponseCommand -->
<g id="edge36" class="edge"><title>topo.analysis.featureresponses.PatternPresentingCommand&#45;&gt;topo.analysis.featureresponses.MeasureResponseCommand</title>
<path fill="none" stroke="black" stroke-width="0.5" d="M805.942,-382.243C816.305,-382.666 826.759,-383.092 837.151,-383.516"/>
<polygon fill="black" stroke="black" points="837.18,-385.269 842.247,-383.724 837.323,-381.772 837.18,-385.269"/>
</g>
<!-- topo.command.pylabplot.activityplot -->
<g id="node19" class="node"><title>topo.command.pylabplot.activityplot</title>
<polygon fill="none" stroke="black" stroke-width="0.5" points="1815,-305.5 1625,-305.5 1625,-284.5 1815,-284.5 1815,-305.5"/>
<text text-anchor="middle" x="1720" y="-292.5" font-family="Vera" font-size="10.00">topo.command.pylabplot.activityplot</text>
</g>
<!-- topo.command.pylabplot.matrixplot&#45;&gt;topo.command.pylabplot.activityplot -->
<g id="edge16" class="edge"><title>topo.command.pylabplot.matrixplot&#45;&gt;topo.command.pylabplot.activityplot</title>
<path fill="none" stroke="black" stroke-width="0.5" d="M1458.18,-241.361C1485.64,-244.124 1515.39,-248.887 1542,-257 1559.3,-262.277 1560.77,-270.493 1578,-276 1591.08,-280.181 1605.13,-283.442 1619.11,-285.986"/>
<polygon fill="black" stroke="black" points="1619.03,-287.749 1624.26,-286.891 1619.64,-284.301 1619.03,-287.749"/>
</g>
<!-- topo.command.pylabplot.gradientplot -->
<g id="node25" class="node"><title>topo.command.pylabplot.gradientplot</title>
<polygon fill="none" stroke="black" stroke-width="0.5" points="1818,-267.5 1622,-267.5 1622,-246.5 1818,-246.5 1818,-267.5"/>
<text text-anchor="middle" x="1720" y="-254.5" font-family="Vera" font-size="10.00">topo.command.pylabplot.gradientplot</text>
</g>
<!-- topo.command.pylabplot.matrixplot&#45;&gt;topo.command.pylabplot.gradientplot -->
<g id="edge20" class="edge"><title>topo.command.pylabplot.matrixplot&#45;&gt;topo.command.pylabplot.gradientplot</title>
<path fill="none" stroke="black" stroke-width="0.5" d="M1458,-243.017C1506.7,-245.616 1566.27,-248.795 1616.3,-251.466"/>
<polygon fill="black" stroke="black" points="1616.34,-253.22 1621.42,-251.739 1616.52,-249.725 1616.34,-253.22"/>
</g>
<!-- topo.command.pylabplot.autocorrelationplot -->
<g id="node37" class="node"><title>topo.command.pylabplot.autocorrelationplot</title>
<polygon fill="none" stroke="black" stroke-width="0.5" points="1835,-229.5 1605,-229.5 1605,-208.5 1835,-208.5 1835,-229.5"/>
<text text-anchor="middle" x="1720" y="-216.5" font-family="Vera" font-size="10.00">topo.command.pylabplot.autocorrelationplot</text>
</g>
<!-- topo.command.pylabplot.matrixplot&#45;&gt;topo.command.pylabplot.autocorrelationplot -->
<g id="edge34" class="edge"><title>topo.command.pylabplot.matrixplot&#45;&gt;topo.command.pylabplot.autocorrelationplot</title>
<path fill="none" stroke="black" stroke-width="0.5" d="M1458,-232.983C1501.43,-230.665 1553.51,-227.885 1599.76,-225.417"/>
<polygon fill="black" stroke="black" points="1599.9,-227.163 1604.79,-225.149 1599.71,-223.668 1599.9,-227.163"/>
</g>
<!-- topo.command.pylabplot.fftplot -->
<g id="node62" class="node"><title>topo.command.pylabplot.fftplot</title>
<polygon fill="none" stroke="black" stroke-width="0.5" points="1803,-191.5 1637,-191.5 1637,-170.5 1803,-170.5 1803,-191.5"/>
<text text-anchor="middle" x="1720" y="-178.5" font-family="Vera" font-size="10.00">topo.command.pylabplot.fftplot</text>
</g>
<!-- topo.command.pylabplot.matrixplot&#45;&gt;topo.command.pylabplot.fftplot -->
<g id="edge62" class="edge"><title>topo.command.pylabplot.matrixplot&#45;&gt;topo.command.pylabplot.fftplot</title>
<path fill="none" stroke="black" stroke-width="0.5" d="M1458.18,-234.639C1485.64,-231.876 1515.39,-227.113 1542,-219 1559.3,-213.723 1560.77,-205.507 1578,-200 1594.89,-194.602 1613.39,-190.737 1631.29,-187.97"/>
<polygon fill="black" stroke="black" points="1631.63,-189.688 1636.32,-187.218 1631.11,-186.226 1631.63,-189.688"/>
</g>
<!-- topo.command.pylabplot.measure_position_pref -->
<g id="node22" class="node"><title>topo.command.pylabplot.measure_position_pref</title>
<polygon fill="none" stroke="black" stroke-width="0.5" points="1844,-400.5 1596,-400.5 1596,-379.5 1844,-379.5 1844,-400.5"/>
<text text-anchor="middle" x="1720" y="-387.5" font-family="Vera" font-size="10.00">topo.command.pylabplot.measure_position_pref</text>
</g>
<!-- topo.analysis.featureresponses.PositionMeasurementCommand -->
<g id="node23" class="node"><title>topo.analysis.featureresponses.PositionMeasurementCommand</title>
<polygon fill="none" stroke="black" stroke-width="0.5" points="1526,-400.5 1202,-400.5 1202,-379.5 1526,-379.5 1526,-400.5"/>
<text text-anchor="middle" x="1364" y="-387.5" font-family="Vera" font-size="10.00">topo.analysis.featureresponses.PositionMeasurementCommand</text>
</g>
<!-- topo.analysis.featureresponses.PositionMeasurementCommand&#45;&gt;topo.command.pylabplot.measure_position_pref -->
<g id="edge18" class="edge"><title>topo.analysis.featureresponses.PositionMeasurementCommand&#45;&gt;topo.command.pylabplot.measure_position_pref</title>
<path fill="none" stroke="black" stroke-width="0.5" d="M1526.11,-390C1547.52,-390 1569.23,-390 1590,-390"/>
<polygon fill="black" stroke="black" points="1590.26,-391.75 1595.26,-390 1590.26,-388.25 1590.26,-391.75"/>
</g>
<!-- topo.analysis.featureresponses.MeasureResponseCommand&#45;&gt;topo.analysis.featureresponses.SinusoidalMeasureResponseCommand -->
<g id="edge32" class="edge"><title>topo.analysis.featureresponses.MeasureResponseCommand&#45;&gt;topo.analysis.featureresponses.SinusoidalMeasureResponseCommand</title>
<path fill="none" stroke="black" stroke-width="0.5" d="M1093.17,-400.034C1145.15,-405.402 1209.14,-412.009 1261.86,-417.453"/>
<polygon fill="black" stroke="black" points="1261.77,-419.203 1266.93,-417.976 1262.13,-415.722 1261.77,-419.203"/>
</g>
<!-- topo.analysis.featureresponses.MeasureResponseCommand&#45;&gt;topo.analysis.featureresponses.PositionMeasurementCommand -->
<g id="edge60" class="edge"><title>topo.analysis.featureresponses.MeasureResponseCommand&#45;&gt;topo.analysis.featureresponses.PositionMeasurementCommand</title>
<path fill="none" stroke="black" stroke-width="0.5" d="M1149.67,-390C1165.16,-390 1180.95,-390 1196.58,-390"/>
<polygon fill="black" stroke="black" points="1196.87,-391.75 1201.87,-390 1196.87,-388.25 1196.87,-391.75"/>
</g>
<!-- topo.command.Command&#45;&gt;topo.command.pylabplot.PylabPlotCommand -->
<g id="edge38" class="edge"><title>topo.command.Command&#45;&gt;topo.command.pylabplot.PylabPlotCommand</title>
<path fill="none" stroke="black" stroke-width="0.5" d="M724.904,-222.13C768.111,-218.603 824.224,-214.023 874.182,-209.944"/>
<polygon fill="black" stroke="black" points="874.466,-211.677 879.307,-209.526 874.181,-208.189 874.466,-211.677"/>
</g>
</g>
</svg>
