<?xml version="1.0" encoding="UTF-8" standalone="no"?>
<!DOCTYPE svg PUBLIC "-//W3C//DTD SVG 1.1//EN"
 "http://www.w3.org/Graphics/SVG/1.1/DTD/svg11.dtd">
<!-- Generated by graphviz version 2.26.3 (20100126.1600)
 -->
<!-- Title: inheritance97c36bc686 Pages: 1 -->
<svg width="2280pt" height="151pt"
 viewBox="0.00 0.00 2280.00 151.00" xmlns="http://www.w3.org/2000/svg" xmlns:xlink="http://www.w3.org/1999/xlink">
<g id="graph1" class="graph" transform="scale(1 1) rotate(0) translate(4 147)">
<title>inheritance97c36bc686</title>
<polygon fill="white" stroke="white" points="-4,5 -4,-147 2277,-147 2277,5 -4,5"/>
<!-- topo.plotting.plotgroup.UnitMeasurementCommand -->
<g id="node1" class="node"><title>topo.plotting.plotgroup.UnitMeasurementCommand</title>
<polygon fill="none" stroke="black" stroke-width="0.5" points="1124,-39.5 858,-39.5 858,-18.5 1124,-18.5 1124,-39.5"/>
<text text-anchor="middle" x="991" y="-26.5" font-family="Vera" font-size="10.00">topo.plotting.plotgroup.UnitMeasurementCommand</text>
</g>
<!-- topo.plotting.plotgroup.ProjectionSheetMeasurementCommand -->
<g id="node2" class="node"><title>topo.plotting.plotgroup.ProjectionSheetMeasurementCommand</title>
<polygon fill="none" stroke="black" stroke-width="0.5" points="822,-39.5 500,-39.5 500,-18.5 822,-18.5 822,-39.5"/>
<text text-anchor="middle" x="661" y="-26.5" font-family="Vera" font-size="10.00">topo.plotting.plotgroup.ProjectionSheetMeasurementCommand</text>
</g>
<!-- topo.plotting.plotgroup.ProjectionSheetMeasurementCommand&#45;&gt;topo.plotting.plotgroup.UnitMeasurementCommand -->
<g id="edge2" class="edge"><title>topo.plotting.plotgroup.ProjectionSheetMeasurementCommand&#45;&gt;topo.plotting.plotgroup.UnitMeasurementCommand</title>
<path fill="none" stroke="black" stroke-width="0.5" d="M822.133,-29C832.304,-29 842.494,-29 852.549,-29"/>
<polygon fill="black" stroke="black" points="852.794,-30.7501 857.794,-29 852.794,-27.2501 852.794,-30.7501"/>
</g>
<!-- topo.plotting.plotgroup.TwoOrientationsPlotGroup -->
<g id="node4" class="node"><title>topo.plotting.plotgroup.TwoOrientationsPlotGroup</title>
<polygon fill="none" stroke="black" stroke-width="0.5" points="1411,-115.5 1161,-115.5 1161,-94.5 1411,-94.5 1411,-115.5"/>
<text text-anchor="middle" x="1286" y="-102.5" font-family="Vera" font-size="10.00">topo.plotting.plotgroup.TwoOrientationsPlotGroup</text>
</g>
<!-- topo.plotting.plotgroup.TemplatePlotGroup -->
<g id="node5" class="node"><title>topo.plotting.plotgroup.TemplatePlotGroup</title>
<polygon fill="none" stroke="black" stroke-width="0.5" points="1101,-77.5 881,-77.5 881,-56.5 1101,-56.5 1101,-77.5"/>
<text text-anchor="middle" x="991" y="-64.5" font-family="Vera" font-size="10.00">topo.plotting.plotgroup.TemplatePlotGroup</text>
</g>
<!-- topo.plotting.plotgroup.TemplatePlotGroup&#45;&gt;topo.plotting.plotgroup.TwoOrientationsPlotGroup -->
<g id="edge4" class="edge"><title>topo.plotting.plotgroup.TemplatePlotGroup&#45;&gt;topo.plotting.plotgroup.TwoOrientationsPlotGroup</title>
<path fill="none" stroke="black" stroke-width="0.5" d="M1068.89,-77.0338C1110.23,-82.3585 1161.03,-88.9023 1203.1,-94.3209"/>
<polygon fill="black" stroke="black" points="1203,-96.0727 1208.18,-94.976 1203.45,-92.6014 1203,-96.0727"/>
</g>
<!-- topo.plotting.plotgroup.ProjectionSheetPlotGroup -->
<g id="node11" class="node"><title>topo.plotting.plotgroup.ProjectionSheetPlotGroup</title>
<polygon fill="none" stroke="black" stroke-width="0.5" points="1412,-77.5 1160,-77.5 1160,-56.5 1412,-56.5 1412,-77.5"/>
<text text-anchor="middle" x="1286" y="-64.5" font-family="Vera" font-size="10.00">topo.plotting.plotgroup.ProjectionSheetPlotGroup</text>
</g>
<!-- topo.plotting.plotgroup.TemplatePlotGroup&#45;&gt;topo.plotting.plotgroup.ProjectionSheetPlotGroup -->
<g id="edge10" class="edge"><title>topo.plotting.plotgroup.TemplatePlotGroup&#45;&gt;topo.plotting.plotgroup.ProjectionSheetPlotGroup</title>
<path fill="none" stroke="black" stroke-width="0.5" d="M1101.27,-67C1118.77,-67 1137.02,-67 1154.94,-67"/>
<polygon fill="black" stroke="black" points="1154.99,-68.7501 1159.99,-67 1154.99,-65.2501 1154.99,-68.7501"/>
</g>
<!-- topo.plotting.plotgroup.RetinotopyPlotGroup -->
<g id="node28" class="node"><title>topo.plotting.plotgroup.RetinotopyPlotGroup</title>
<polygon fill="none" stroke="black" stroke-width="0.5" points="1399,-39.5 1173,-39.5 1173,-18.5 1399,-18.5 1399,-39.5"/>
<text text-anchor="middle" x="1286" y="-26.5" font-family="Vera" font-size="10.00">topo.plotting.plotgroup.RetinotopyPlotGroup</text>
</g>
<!-- topo.plotting.plotgroup.TemplatePlotGroup&#45;&gt;topo.plotting.plotgroup.RetinotopyPlotGroup -->
<g id="edge26" class="edge"><title>topo.plotting.plotgroup.TemplatePlotGroup&#45;&gt;topo.plotting.plotgroup.RetinotopyPlotGroup</title>
<path fill="none" stroke="black" stroke-width="0.5" d="M1068.89,-56.9662C1110.23,-51.6415 1161.03,-45.0977 1203.1,-39.6791"/>
<polygon fill="black" stroke="black" points="1203.45,-41.3986 1208.18,-39.024 1203,-37.9273 1203.45,-41.3986"/>
</g>
<!-- topo.plotting.plotgroup.RFProjectionPlotGroup -->
<g id="node7" class="node"><title>topo.plotting.plotgroup.RFProjectionPlotGroup</title>
<polygon fill="none" stroke="black" stroke-width="0.5" points="1988,-143.5 1754,-143.5 1754,-122.5 1988,-122.5 1988,-143.5"/>
<text text-anchor="middle" x="1871" y="-130.5" font-family="Vera" font-size="10.00">topo.plotting.plotgroup.RFProjectionPlotGroup</text>
</g>
<!-- topo.plotting.plotgroup.GridPlotGroup -->
<g id="node8" class="node"><title>topo.plotting.plotgroup.GridPlotGroup</title>
<polygon fill="none" stroke="black" stroke-width="0.5" points="1675,-115.5 1479,-115.5 1479,-94.5 1675,-94.5 1675,-115.5"/>
<text text-anchor="middle" x="1577" y="-102.5" font-family="Vera" font-size="10.00">topo.plotting.plotgroup.GridPlotGroup</text>
</g>
<!-- topo.plotting.plotgroup.GridPlotGroup&#45;&gt;topo.plotting.plotgroup.RFProjectionPlotGroup -->
<g id="edge6" class="edge"><title>topo.plotting.plotgroup.GridPlotGroup&#45;&gt;topo.plotting.plotgroup.RFProjectionPlotGroup</title>
<path fill="none" stroke="black" stroke-width="0.5" d="M1675.31,-114.363C1702.73,-116.974 1732.7,-119.829 1760.76,-122.501"/>
<polygon fill="black" stroke="black" points="1760.83,-124.266 1765.98,-122.998 1761.17,-120.782 1760.83,-124.266"/>
</g>
<!-- topo.plotting.plotgroup.ProjectionPlotGroup -->
<g id="node18" class="node"><title>topo.plotting.plotgroup.ProjectionPlotGroup</title>
<polygon fill="none" stroke="black" stroke-width="0.5" points="1983,-105.5 1759,-105.5 1759,-84.5 1983,-84.5 1983,-105.5"/>
<text text-anchor="middle" x="1871" y="-92.5" font-family="Vera" font-size="10.00">topo.plotting.plotgroup.ProjectionPlotGroup</text>
</g>
<!-- topo.plotting.plotgroup.GridPlotGroup&#45;&gt;topo.plotting.plotgroup.ProjectionPlotGroup -->
<g id="edge16" class="edge"><title>topo.plotting.plotgroup.GridPlotGroup&#45;&gt;topo.plotting.plotgroup.ProjectionPlotGroup</title>
<path fill="none" stroke="black" stroke-width="0.5" d="M1675.31,-101.656C1700.42,-100.802 1727.68,-99.8748 1753.65,-98.9916"/>
<polygon fill="black" stroke="black" points="1753.89,-100.735 1758.82,-98.8155 1753.77,-97.2366 1753.89,-100.735"/>
</g>
<!-- topo.plotting.plotgroup.ProjectionActivityPlotGroup -->
<g id="node10" class="node"><title>topo.plotting.plotgroup.ProjectionActivityPlotGroup</title>
<polygon fill="none" stroke="black" stroke-width="0.5" points="1706,-77.5 1448,-77.5 1448,-56.5 1706,-56.5 1706,-77.5"/>
<text text-anchor="middle" x="1577" y="-64.5" font-family="Vera" font-size="10.00">topo.plotting.plotgroup.ProjectionActivityPlotGroup</text>
</g>
<!-- topo.plotting.plotgroup.ProjectionSheetPlotGroup&#45;&gt;topo.plotting.plotgroup.GridPlotGroup -->
<g id="edge12" class="edge"><title>topo.plotting.plotgroup.ProjectionSheetPlotGroup&#45;&gt;topo.plotting.plotgroup.GridPlotGroup</title>
<path fill="none" stroke="black" stroke-width="0.5" d="M1362.84,-77.0338C1403.61,-82.3585 1453.73,-88.9023 1495.22,-94.3209"/>
<polygon fill="black" stroke="black" points="1495.05,-96.0637 1500.24,-94.976 1495.51,-92.5932 1495.05,-96.0637"/>
</g>
<!-- topo.plotting.plotgroup.ProjectionSheetPlotGroup&#45;&gt;topo.plotting.plotgroup.ProjectionActivityPlotGroup -->
<g id="edge8" class="edge"><title>topo.plotting.plotgroup.ProjectionSheetPlotGroup&#45;&gt;topo.plotting.plotgroup.ProjectionActivityPlotGroup</title>
<path fill="none" stroke="black" stroke-width="0.5" d="M1412.37,-67C1422.52,-67 1432.79,-67 1442.99,-67"/>
<polygon fill="black" stroke="black" points="1442.99,-68.7501 1447.99,-67 1442.99,-65.2501 1442.99,-68.7501"/>
</g>
<!-- topo.plotting.plotgroup.UnitPlotGroup -->
<g id="node24" class="node"><title>topo.plotting.plotgroup.UnitPlotGroup</title>
<polygon fill="none" stroke="black" stroke-width="0.5" points="1675,-39.5 1479,-39.5 1479,-18.5 1675,-18.5 1675,-39.5"/>
<text text-anchor="middle" x="1577" y="-26.5" font-family="Vera" font-size="10.00">topo.plotting.plotgroup.UnitPlotGroup</text>
</g>
<!-- topo.plotting.plotgroup.ProjectionSheetPlotGroup&#45;&gt;topo.plotting.plotgroup.UnitPlotGroup -->
<g id="edge22" class="edge"><title>topo.plotting.plotgroup.ProjectionSheetPlotGroup&#45;&gt;topo.plotting.plotgroup.UnitPlotGroup</title>
<path fill="none" stroke="black" stroke-width="0.5" d="M1362.84,-56.9662C1403.61,-51.6415 1453.73,-45.0977 1495.22,-39.6791"/>
<polygon fill="black" stroke="black" points="1495.51,-41.4068 1500.24,-39.024 1495.05,-37.9363 1495.51,-41.4068"/>
</g>
<!-- topo.plotting.plotgroup.PlotGroup -->
<g id="node15" class="node"><title>topo.plotting.plotgroup.PlotGroup</title>
<polygon fill="none" stroke="black" stroke-width="0.5" points="435,-77.5 259,-77.5 259,-56.5 435,-56.5 435,-77.5"/>
<text text-anchor="middle" x="347" y="-64.5" font-family="Vera" font-size="10.00">topo.plotting.plotgroup.PlotGroup</text>
</g>
<!-- topo.plotting.plotgroup.SheetPlotGroup -->
<g id="node20" class="node"><title>topo.plotting.plotgroup.SheetPlotGroup</title>
<polygon fill="none" stroke="black" stroke-width="0.5" points="763,-77.5 559,-77.5 559,-56.5 763,-56.5 763,-77.5"/>
<text text-anchor="middle" x="661" y="-64.5" font-family="Vera" font-size="10.00">topo.plotting.plotgroup.SheetPlotGroup</text>
</g>
<!-- topo.plotting.plotgroup.PlotGroup&#45;&gt;topo.plotting.plotgroup.SheetPlotGroup -->
<g id="edge28" class="edge"><title>topo.plotting.plotgroup.PlotGroup&#45;&gt;topo.plotting.plotgroup.SheetPlotGroup</title>
<path fill="none" stroke="black" stroke-width="0.5" d="M435.302,-67C471.932,-67 514.775,-67 553.234,-67"/>
<polygon fill="black" stroke="black" points="553.387,-68.7501 558.387,-67 553.387,-65.2501 553.387,-68.7501"/>
</g>
<!-- param.parameterized.Parameterized -->
<g id="node16" class="node"><title>param.parameterized.Parameterized</title>
<polygon fill="none" stroke="black" stroke-width="0.5" points="194,-58.5 5.68434e-14,-58.5 0,-37.5 194,-37.5 194,-58.5"/>
<text text-anchor="middle" x="97" y="-45.5" font-family="Vera" font-size="10.00">param.parameterized.Parameterized</text>
</g>
<!-- param.parameterized.Parameterized&#45;&gt;topo.plotting.plotgroup.PlotGroup -->
<g id="edge14" class="edge"><title>param.parameterized.Parameterized&#45;&gt;topo.plotting.plotgroup.PlotGroup</title>
<path fill="none" stroke="black" stroke-width="0.5" d="M194.014,-55.3731C213.46,-56.851 233.859,-58.4013 253.193,-59.8707"/>
<polygon fill="black" stroke="black" points="253.499,-61.6489 258.617,-60.2829 253.764,-58.1589 253.499,-61.6489"/>
</g>
<!-- param.parameterized.ParameterizedFunction -->
<g id="node22" class="node"><title>param.parameterized.ParameterizedFunction</title>
<polygon fill="none" stroke="black" stroke-width="0.5" points="464,-39.5 230,-39.5 230,-18.5 464,-18.5 464,-39.5"/>
<text text-anchor="middle" x="347" y="-26.5" font-family="Vera" font-size="10.00">param.parameterized.ParameterizedFunction</text>
</g>
<!-- param.parameterized.Parameterized&#45;&gt;param.parameterized.ParameterizedFunction -->
<g id="edge34" class="edge"><title>param.parameterized.Parameterized&#45;&gt;param.parameterized.ParameterizedFunction</title>
<path fill="none" stroke="black" stroke-width="0.5" d="M194.014,-40.6269C204.04,-39.8649 214.319,-39.0837 224.575,-38.3043"/>
<polygon fill="black" stroke="black" points="224.754,-40.0458 229.607,-37.9219 224.489,-36.5559 224.754,-40.0458"/>
</g>
<!-- topo.plotting.plotgroup.CFProjectionPlotGroup -->
<g id="node31" class="node"><title>topo.plotting.plotgroup.CFProjectionPlotGroup</title>
<polygon fill="none" stroke="black" stroke-width="0.5" points="2272,-105.5 2036,-105.5 2036,-84.5 2272,-84.5 2272,-105.5"/>
<text text-anchor="middle" x="2154" y="-92.5" font-family="Vera" font-size="10.00">topo.plotting.plotgroup.CFProjectionPlotGroup</text>
</g>
<!-- topo.plotting.plotgroup.ProjectionPlotGroup&#45;&gt;topo.plotting.plotgroup.CFProjectionPlotGroup -->
<g id="edge30" class="edge"><title>topo.plotting.plotgroup.ProjectionPlotGroup&#45;&gt;topo.plotting.plotgroup.CFProjectionPlotGroup</title>
<path fill="none" stroke="black" stroke-width="0.5" d="M1983.26,-95C1998.78,-95 2014.8,-95 2030.52,-95"/>
<polygon fill="black" stroke="black" points="2030.84,-96.7501 2035.84,-95 2030.84,-93.2501 2030.84,-96.7501"/>
</g>
<!-- topo.plotting.plotgroup.SheetPlotGroup&#45;&gt;topo.plotting.plotgroup.TemplatePlotGroup -->
<g id="edge18" class="edge"><title>topo.plotting.plotgroup.SheetPlotGroup&#45;&gt;topo.plotting.plotgroup.TemplatePlotGroup</title>
<path fill="none" stroke="black" stroke-width="0.5" d="M763.605,-67C799.041,-67 838.979,-67 875.385,-67"/>
<polygon fill="black" stroke="black" points="875.73,-68.7501 880.729,-67 875.729,-65.2501 875.73,-68.7501"/>
</g>
<!-- param.parameterized.ParameterizedFunction&#45;&gt;topo.plotting.plotgroup.ProjectionSheetMeasurementCommand -->
<g id="edge20" class="edge"><title>param.parameterized.ParameterizedFunction&#45;&gt;topo.plotting.plotgroup.ProjectionSheetMeasurementCommand</title>
<path fill="none" stroke="black" stroke-width="0.5" d="M464.369,-29C474.323,-29 484.506,-29 494.741,-29"/>
<polygon fill="black" stroke="black" points="494.769,-30.7501 499.769,-29 494.769,-27.2501 494.769,-30.7501"/>
</g>
<!-- topo.plotting.plotgroup.FeatureCurvePlotGroup -->
<g id="node26" class="node"><title>topo.plotting.plotgroup.FeatureCurvePlotGroup</title>
<polygon fill="none" stroke="black" stroke-width="0.5" points="1991,-58.5 1751,-58.5 1751,-37.5 1991,-37.5 1991,-58.5"/>
<text text-anchor="middle" x="1871" y="-45.5" font-family="Vera" font-size="10.00">topo.plotting.plotgroup.FeatureCurvePlotGroup</text>
</g>
<!-- topo.plotting.plotgroup.UnitPlotGroup&#45;&gt;topo.plotting.plotgroup.FeatureCurvePlotGroup -->
<g id="edge24" class="edge"><title>topo.plotting.plotgroup.UnitPlotGroup&#45;&gt;topo.plotting.plotgroup.FeatureCurvePlotGroup</title>
<path fill="none" stroke="black" stroke-width="0.5" d="M1675.31,-35.3531C1697.9,-36.8135 1722.23,-38.3857 1745.8,-39.9086"/>
<polygon fill="black" stroke="black" points="1745.71,-41.6565 1750.81,-40.2327 1745.94,-38.1638 1745.71,-41.6565"/>
</g>
<!-- topo.plotting.plotgroup.ConnectionFieldsPlotGroup -->
<g id="node33" class="node"><title>topo.plotting.plotgroup.ConnectionFieldsPlotGroup</title>
<polygon fill="none" stroke="black" stroke-width="0.5" points="1999,-20.5 1743,-20.5 1743,0.5 1999,0.5 1999,-20.5"/>
<text text-anchor="middle" x="1871" y="-7.5" font-family="Vera" font-size="10.00">topo.plotting.plotgroup.ConnectionFieldsPlotGroup</text>
</g>
<!-- topo.plotting.plotgroup.UnitPlotGroup&#45;&gt;topo.plotting.plotgroup.ConnectionFieldsPlotGroup -->
<g id="edge32" class="edge"><title>topo.plotting.plotgroup.UnitPlotGroup&#45;&gt;topo.plotting.plotgroup.ConnectionFieldsPlotGroup</title>
<path fill="none" stroke="black" stroke-width="0.5" d="M1675.31,-22.6469C1695.24,-21.3585 1716.52,-19.9831 1737.44,-18.6313"/>
<polygon fill="black" stroke="black" points="1737.59,-20.3756 1742.46,-18.3067 1737.36,-16.8829 1737.59,-20.3756"/>
</g>
</g>
</svg>
