<?xml version="1.0" encoding="UTF-8" standalone="no"?>
<!DOCTYPE svg PUBLIC "-//W3C//DTD SVG 1.1//EN"
 "http://www.w3.org/Graphics/SVG/1.1/DTD/svg11.dtd">
<!-- Generated by graphviz version 2.26.3 (20100126.1600)
 -->
<!-- Title: inheritancebede3c61fc Pages: 1 -->
<svg width="1742pt" height="408pt"
 viewBox="0.00 0.00 1742.00 408.00" xmlns="http://www.w3.org/2000/svg" xmlns:xlink="http://www.w3.org/1999/xlink">
<g id="graph1" class="graph" transform="scale(1 1) rotate(0) translate(4 404)">
<title>inheritancebede3c61fc</title>
<polygon fill="white" stroke="white" points="-4,5 -4,-404 1739,-404 1739,5 -4,5"/>
<!-- param.parameterized.ParameterizedFunction -->
<g id="node1" class="node"><title>param.parameterized.ParameterizedFunction</title>
<polygon fill="none" stroke="black" stroke-width="0.5" points="464,-153.5 230,-153.5 230,-132.5 464,-132.5 464,-153.5"/>
<text text-anchor="middle" x="347" y="-140.5" font-family="Vera" font-size="10.00">param.parameterized.ParameterizedFunction</text>
</g>
<!-- topo.command.Command -->
<g id="node18" class="node"><title>topo.command.Command</title>
<polygon fill="none" stroke="black" stroke-width="0.5" points="643,-153.5 501,-153.5 501,-132.5 643,-132.5 643,-153.5"/>
<text text-anchor="middle" x="572" y="-140.5" font-family="Vera" font-size="10.00">topo.command.Command</text>
</g>
<!-- param.parameterized.ParameterizedFunction&#45;&gt;topo.command.Command -->
<g id="edge16" class="edge"><title>param.parameterized.ParameterizedFunction&#45;&gt;topo.command.Command</title>
<path fill="none" stroke="black" stroke-width="0.5" d="M464.113,-143C474.661,-143 485.155,-143 495.222,-143"/>
<polygon fill="black" stroke="black" points="495.446,-144.75 500.446,-143 495.446,-141.25 495.446,-144.75"/>
</g>
<!-- param.parameterized.Parameterized -->
<g id="node2" class="node"><title>param.parameterized.Parameterized</title>
<polygon fill="none" stroke="black" stroke-width="0.5" points="194,-153.5 5.68434e-14,-153.5 0,-132.5 194,-132.5 194,-153.5"/>
<text text-anchor="middle" x="97" y="-140.5" font-family="Vera" font-size="10.00">param.parameterized.Parameterized</text>
</g>
<!-- param.parameterized.Parameterized&#45;&gt;param.parameterized.ParameterizedFunction -->
<g id="edge2" class="edge"><title>param.parameterized.Parameterized&#45;&gt;param.parameterized.ParameterizedFunction</title>
<path fill="none" stroke="black" stroke-width="0.5" d="M194.014,-143C204.04,-143 214.319,-143 224.575,-143"/>
<polygon fill="black" stroke="black" points="224.607,-144.75 229.607,-143 224.607,-141.25 224.607,-144.75"/>
</g>
<!-- topo.command.pylabplot.activityplot -->
<g id="node4" class="node"><title>topo.command.pylabplot.activityplot</title>
<polygon fill="none" stroke="black" stroke-width="0.5" points="1433,-400.5 1243,-400.5 1243,-379.5 1433,-379.5 1433,-400.5"/>
<text text-anchor="middle" x="1338" y="-387.5" font-family="Vera" font-size="10.00">topo.command.pylabplot.activityplot</text>
</g>
<!-- topo.command.pylabplot.matrixplot -->
<g id="node5" class="node"><title>topo.command.pylabplot.matrixplot</title>
<polygon fill="none" stroke="black" stroke-width="0.5" points="1156,-324.5 968,-324.5 968,-303.5 1156,-303.5 1156,-324.5"/>
<text text-anchor="middle" x="1062" y="-311.5" font-family="Vera" font-size="10.00">topo.command.pylabplot.matrixplot</text>
</g>
<!-- topo.command.pylabplot.matrixplot&#45;&gt;topo.command.pylabplot.activityplot -->
<g id="edge4" class="edge"><title>topo.command.pylabplot.matrixplot&#45;&gt;topo.command.pylabplot.activityplot</title>
<path fill="none" stroke="black" stroke-width="0.5" d="M1083.57,-324.043C1111.95,-336.851 1163.67,-358.799 1210,-371 1221.99,-374.157 1234.75,-376.835 1247.41,-379.095"/>
<polygon fill="black" stroke="black" points="1247.21,-380.837 1252.44,-379.973 1247.81,-377.389 1247.21,-380.837"/>
</g>
<!-- topo.command.pylabplot.fftplot -->
<g id="node14" class="node"><title>topo.command.pylabplot.fftplot</title>
<polygon fill="none" stroke="black" stroke-width="0.5" points="1421,-362.5 1255,-362.5 1255,-341.5 1421,-341.5 1421,-362.5"/>
<text text-anchor="middle" x="1338" y="-349.5" font-family="Vera" font-size="10.00">topo.command.pylabplot.fftplot</text>
</g>
<!-- topo.command.pylabplot.matrixplot&#45;&gt;topo.command.pylabplot.fftplot -->
<g id="edge12" class="edge"><title>topo.command.pylabplot.matrixplot&#45;&gt;topo.command.pylabplot.fftplot</title>
<path fill="none" stroke="black" stroke-width="0.5" d="M1134.88,-324.034C1173.39,-329.337 1220.69,-335.849 1259.96,-341.255"/>
<polygon fill="black" stroke="black" points="1260,-343.028 1265.19,-341.976 1260.48,-339.56 1260,-343.028"/>
</g>
<!-- topo.command.pylabplot.gradientplot -->
<g id="node16" class="node"><title>topo.command.pylabplot.gradientplot</title>
<polygon fill="none" stroke="black" stroke-width="0.5" points="1436,-324.5 1240,-324.5 1240,-303.5 1436,-303.5 1436,-324.5"/>
<text text-anchor="middle" x="1338" y="-311.5" font-family="Vera" font-size="10.00">topo.command.pylabplot.gradientplot</text>
</g>
<!-- topo.command.pylabplot.matrixplot&#45;&gt;topo.command.pylabplot.gradientplot -->
<g id="edge14" class="edge"><title>topo.command.pylabplot.matrixplot&#45;&gt;topo.command.pylabplot.gradientplot</title>
<path fill="none" stroke="black" stroke-width="0.5" d="M1156.21,-314C1181.25,-314 1208.43,-314 1233.95,-314"/>
<polygon fill="black" stroke="black" points="1234.04,-315.75 1239.04,-314 1234.04,-312.25 1234.04,-315.75"/>
</g>
<!-- topo.command.pylabplot.autocorrelationplot -->
<g id="node27" class="node"><title>topo.command.pylabplot.autocorrelationplot</title>
<polygon fill="none" stroke="black" stroke-width="0.5" points="1453,-286.5 1223,-286.5 1223,-265.5 1453,-265.5 1453,-286.5"/>
<text text-anchor="middle" x="1338" y="-273.5" font-family="Vera" font-size="10.00">topo.command.pylabplot.autocorrelationplot</text>
</g>
<!-- topo.command.pylabplot.matrixplot&#45;&gt;topo.command.pylabplot.autocorrelationplot -->
<g id="edge24" class="edge"><title>topo.command.pylabplot.matrixplot&#45;&gt;topo.command.pylabplot.autocorrelationplot</title>
<path fill="none" stroke="black" stroke-width="0.5" d="M1134.88,-303.966C1173.39,-298.663 1220.69,-292.151 1259.96,-286.745"/>
<polygon fill="black" stroke="black" points="1260.48,-288.44 1265.19,-286.024 1260,-284.972 1260.48,-288.44"/>
</g>
<!-- topo.command.pylabplot.xy_grid -->
<g id="node7" class="node"><title>topo.command.pylabplot.xy_grid</title>
<polygon fill="none" stroke="black" stroke-width="0.5" points="1148,-248.5 976,-248.5 976,-227.5 1148,-227.5 1148,-248.5"/>
<text text-anchor="middle" x="1062" y="-235.5" font-family="Vera" font-size="10.00">topo.command.pylabplot.xy_grid</text>
</g>
<!-- topo.command.pylabplot.topographic_grid -->
<g id="node36" class="node"><title>topo.command.pylabplot.topographic_grid</title>
<polygon fill="none" stroke="black" stroke-width="0.5" points="1448,-248.5 1228,-248.5 1228,-227.5 1448,-227.5 1448,-248.5"/>
<text text-anchor="middle" x="1338" y="-235.5" font-family="Vera" font-size="10.00">topo.command.pylabplot.topographic_grid</text>
</g>
<!-- topo.command.pylabplot.xy_grid&#45;&gt;topo.command.pylabplot.topographic_grid -->
<g id="edge34" class="edge"><title>topo.command.pylabplot.xy_grid&#45;&gt;topo.command.pylabplot.topographic_grid</title>
<path fill="none" stroke="black" stroke-width="0.5" d="M1148.57,-238C1172.04,-238 1197.82,-238 1222.6,-238"/>
<polygon fill="black" stroke="black" points="1222.87,-239.75 1227.87,-238 1222.87,-236.25 1222.87,-239.75"/>
</g>
<!-- topo.command.pylabplot.PylabPlotCommand -->
<g id="node8" class="node"><title>topo.command.pylabplot.PylabPlotCommand</title>
<polygon fill="none" stroke="black" stroke-width="0.5" points="913,-153.5 681,-153.5 681,-132.5 913,-132.5 913,-153.5"/>
<text text-anchor="middle" x="797" y="-140.5" font-family="Vera" font-size="10.00">topo.command.pylabplot.PylabPlotCommand</text>
</g>
<!-- topo.command.pylabplot.PylabPlotCommand&#45;&gt;topo.command.pylabplot.matrixplot -->
<g id="edge10" class="edge"><title>topo.command.pylabplot.PylabPlotCommand&#45;&gt;topo.command.pylabplot.matrixplot</title>
<path fill="none" stroke="black" stroke-width="0.5" d="M809.184,-153.208C834.458,-174.124 894.839,-222.757 950,-257 977.862,-274.296 1011.62,-290.932 1034.74,-301.72"/>
<polygon fill="black" stroke="black" points="1034.23,-303.414 1039.51,-303.931 1035.71,-300.239 1034.23,-303.414"/>
</g>
<!-- topo.command.pylabplot.PylabPlotCommand&#45;&gt;topo.command.pylabplot.xy_grid -->
<g id="edge6" class="edge"><title>topo.command.pylabplot.PylabPlotCommand&#45;&gt;topo.command.pylabplot.xy_grid</title>
<path fill="none" stroke="black" stroke-width="0.5" d="M813.296,-153.111C840.544,-169.547 897.541,-201.933 950,-219 959.509,-222.094 969.645,-224.707 979.786,-226.909"/>
<polygon fill="black" stroke="black" points="979.509,-228.639 984.763,-227.958 980.231,-225.215 979.509,-228.639"/>
</g>
<!-- topo.command.pylabplot.unit_tuning_curve -->
<g id="node11" class="node"><title>topo.command.pylabplot.unit_tuning_curve</title>
<polygon fill="none" stroke="black" stroke-width="0.5" points="1174,-210.5 950,-210.5 950,-189.5 1174,-189.5 1174,-210.5"/>
<text text-anchor="middle" x="1062" y="-197.5" font-family="Vera" font-size="10.00">topo.command.pylabplot.unit_tuning_curve</text>
</g>
<!-- topo.command.pylabplot.PylabPlotCommand&#45;&gt;topo.command.pylabplot.unit_tuning_curve -->
<g id="edge36" class="edge"><title>topo.command.pylabplot.PylabPlotCommand&#45;&gt;topo.command.pylabplot.unit_tuning_curve</title>
<path fill="none" stroke="black" stroke-width="0.5" d="M834.232,-153.082C865.102,-161.24 910.213,-172.697 950,-181 963.756,-183.871 978.53,-186.615 992.691,-189.082"/>
<polygon fill="black" stroke="black" points="992.652,-190.851 997.877,-189.977 993.248,-187.402 992.652,-190.851"/>
</g>
<!-- topo.command.pylabplot.overlaid_plot -->
<g id="node23" class="node"><title>topo.command.pylabplot.overlaid_plot</title>
<polygon fill="none" stroke="black" stroke-width="0.5" points="1162,-172.5 962,-172.5 962,-151.5 1162,-151.5 1162,-172.5"/>
<text text-anchor="middle" x="1062" y="-159.5" font-family="Vera" font-size="10.00">topo.command.pylabplot.overlaid_plot</text>
</g>
<!-- topo.command.pylabplot.PylabPlotCommand&#45;&gt;topo.command.pylabplot.overlaid_plot -->
<g id="edge26" class="edge"><title>topo.command.pylabplot.PylabPlotCommand&#45;&gt;topo.command.pylabplot.overlaid_plot</title>
<path fill="none" stroke="black" stroke-width="0.5" d="M913.618,-151.361C927.964,-152.39 942.562,-153.437 956.727,-154.452"/>
<polygon fill="black" stroke="black" points="956.812,-156.213 961.924,-154.825 957.062,-152.722 956.812,-156.213"/>
</g>
<!-- topo.command.pylabplot.histogramplot -->
<g id="node25" class="node"><title>topo.command.pylabplot.histogramplot</title>
<polygon fill="none" stroke="black" stroke-width="0.5" points="1165,-134.5 959,-134.5 959,-113.5 1165,-113.5 1165,-134.5"/>
<text text-anchor="middle" x="1062" y="-121.5" font-family="Vera" font-size="10.00">topo.command.pylabplot.histogramplot</text>
</g>
<!-- topo.command.pylabplot.PylabPlotCommand&#45;&gt;topo.command.pylabplot.histogramplot -->
<g id="edge22" class="edge"><title>topo.command.pylabplot.PylabPlotCommand&#45;&gt;topo.command.pylabplot.histogramplot</title>
<path fill="none" stroke="black" stroke-width="0.5" d="M913.618,-134.639C926.858,-133.689 940.312,-132.725 953.442,-131.783"/>
<polygon fill="black" stroke="black" points="953.79,-133.513 958.652,-131.41 953.539,-130.022 953.79,-133.513"/>
</g>
<!-- topo.command.pylabplot.matrixplot3dx3 -->
<g id="node30" class="node"><title>topo.command.pylabplot.matrixplot3dx3</title>
<polygon fill="none" stroke="black" stroke-width="0.5" points="1168,-96.5 956,-96.5 956,-75.5 1168,-75.5 1168,-96.5"/>
<text text-anchor="middle" x="1062" y="-83.5" font-family="Vera" font-size="10.00">topo.command.pylabplot.matrixplot3dx3</text>
</g>
<!-- topo.command.pylabplot.PylabPlotCommand&#45;&gt;topo.command.pylabplot.matrixplot3dx3 -->
<g id="edge28" class="edge"><title>topo.command.pylabplot.PylabPlotCommand&#45;&gt;topo.command.pylabplot.matrixplot3dx3</title>
<path fill="none" stroke="black" stroke-width="0.5" d="M834.232,-132.918C865.102,-124.76 910.213,-113.303 950,-105 963.756,-102.129 978.53,-99.3847 992.691,-96.9185"/>
<polygon fill="black" stroke="black" points="993.248,-98.5982 997.877,-96.0227 992.652,-95.1493 993.248,-98.5982"/>
</g>
<!-- topo.command.pylabplot.matrixplot3d -->
<g id="node32" class="node"><title>topo.command.pylabplot.matrixplot3d</title>
<polygon fill="none" stroke="black" stroke-width="0.5" points="1162,-58.5 962,-58.5 962,-37.5 1162,-37.5 1162,-58.5"/>
<text text-anchor="middle" x="1062" y="-45.5" font-family="Vera" font-size="10.00">topo.command.pylabplot.matrixplot3d</text>
</g>
<!-- topo.command.pylabplot.PylabPlotCommand&#45;&gt;topo.command.pylabplot.matrixplot3d -->
<g id="edge30" class="edge"><title>topo.command.pylabplot.PylabPlotCommand&#45;&gt;topo.command.pylabplot.matrixplot3d</title>
<path fill="none" stroke="black" stroke-width="0.5" d="M813.296,-132.889C840.544,-116.453 897.541,-84.067 950,-67 959.509,-63.9063 969.645,-61.2928 979.786,-59.0905"/>
<polygon fill="black" stroke="black" points="980.231,-60.7854 984.763,-58.0422 979.509,-57.3606 980.231,-60.7854"/>
</g>
<!-- topo.command.pylabplot.vectorplot -->
<g id="node34" class="node"><title>topo.command.pylabplot.vectorplot</title>
<polygon fill="none" stroke="black" stroke-width="0.5" points="1156,-20.5 968,-20.5 968,0.5 1156,0.5 1156,-20.5"/>
<text text-anchor="middle" x="1062" y="-7.5" font-family="Vera" font-size="10.00">topo.command.pylabplot.vectorplot</text>
</g>
<!-- topo.command.pylabplot.PylabPlotCommand&#45;&gt;topo.command.pylabplot.vectorplot -->
<g id="edge32" class="edge"><title>topo.command.pylabplot.PylabPlotCommand&#45;&gt;topo.command.pylabplot.vectorplot</title>
<path fill="none" stroke="black" stroke-width="0.5" d="M807.017,-132.762C829.967,-109.979 889.088,-55.0551 950,-29 956.925,-26.038 964.275,-23.5369 971.771,-21.4251"/>
<polygon fill="black" stroke="black" points="972.606,-23.0128 976.98,-20.0244 971.698,-19.6329 972.606,-23.0128"/>
</g>
<!-- topo.command.pylabplot.cyclic_unit_tuning_curve -->
<g id="node10" class="node"><title>topo.command.pylabplot.cyclic_unit_tuning_curve</title>
<polygon fill="none" stroke="black" stroke-width="0.5" points="1465,-210.5 1211,-210.5 1211,-189.5 1465,-189.5 1465,-210.5"/>
<text text-anchor="middle" x="1338" y="-197.5" font-family="Vera" font-size="10.00">topo.command.pylabplot.cyclic_unit_tuning_curve</text>
</g>
<!-- topo.command.pylabplot.cyclic_tuning_curve -->
<g id="node39" class="node"><title>topo.command.pylabplot.cyclic_tuning_curve</title>
<polygon fill="none" stroke="black" stroke-width="0.5" points="1734,-210.5 1502,-210.5 1502,-189.5 1734,-189.5 1734,-210.5"/>
<text text-anchor="middle" x="1618" y="-197.5" font-family="Vera" font-size="10.00">topo.command.pylabplot.cyclic_tuning_curve</text>
</g>
<!-- topo.command.pylabplot.cyclic_unit_tuning_curve&#45;&gt;topo.command.pylabplot.cyclic_tuning_curve -->
<g id="edge38" class="edge"><title>topo.command.pylabplot.cyclic_unit_tuning_curve&#45;&gt;topo.command.pylabplot.cyclic_tuning_curve</title>
<path fill="none" stroke="black" stroke-width="0.5" d="M1465.71,-200C1476,-200 1486.37,-200 1496.62,-200"/>
<polygon fill="black" stroke="black" points="1496.63,-201.75 1501.63,-200 1496.63,-198.25 1496.63,-201.75"/>
</g>
<!-- topo.command.pylabplot.unit_tuning_curve&#45;&gt;topo.command.pylabplot.cyclic_unit_tuning_curve -->
<g id="edge8" class="edge"><title>topo.command.pylabplot.unit_tuning_curve&#45;&gt;topo.command.pylabplot.cyclic_unit_tuning_curve</title>
<path fill="none" stroke="black" stroke-width="0.5" d="M1174.26,-200C1184.39,-200 1194.72,-200 1205,-200"/>
<polygon fill="black" stroke="black" points="1205.05,-201.75 1210.05,-200 1205.05,-198.25 1205.05,-201.75"/>
</g>
<!-- topo.command.pylabplot.tuning_curve -->
<g id="node20" class="node"><title>topo.command.pylabplot.tuning_curve</title>
<polygon fill="none" stroke="black" stroke-width="0.5" points="1438,-172.5 1238,-172.5 1238,-151.5 1438,-151.5 1438,-172.5"/>
<text text-anchor="middle" x="1338" y="-159.5" font-family="Vera" font-size="10.00">topo.command.pylabplot.tuning_curve</text>
</g>
<!-- topo.command.pylabplot.unit_tuning_curve&#45;&gt;topo.command.pylabplot.tuning_curve -->
<g id="edge18" class="edge"><title>topo.command.pylabplot.unit_tuning_curve&#45;&gt;topo.command.pylabplot.tuning_curve</title>
<path fill="none" stroke="black" stroke-width="0.5" d="M1134.88,-189.966C1173.39,-184.663 1220.69,-178.151 1259.96,-172.745"/>
<polygon fill="black" stroke="black" points="1260.48,-174.44 1265.19,-172.024 1260,-170.972 1260.48,-174.44"/>
</g>
<!-- topo.command.Command&#45;&gt;topo.command.pylabplot.PylabPlotCommand -->
<g id="edge40" class="edge"><title>topo.command.Command&#45;&gt;topo.command.pylabplot.PylabPlotCommand</title>
<path fill="none" stroke="black" stroke-width="0.5" d="M643.501,-143C653.767,-143 664.56,-143 675.468,-143"/>
<polygon fill="black" stroke="black" points="675.486,-144.75 680.486,-143 675.486,-141.25 675.486,-144.75"/>
</g>
<!-- topo.command.pylabplot.overlaid_plots -->
<g id="node22" class="node"><title>topo.command.pylabplot.overlaid_plots</title>
<polygon fill="none" stroke="black" stroke-width="0.5" points="1441,-134.5 1235,-134.5 1235,-113.5 1441,-113.5 1441,-134.5"/>
<text text-anchor="middle" x="1338" y="-121.5" font-family="Vera" font-size="10.00">topo.command.pylabplot.overlaid_plots</text>
</g>
<!-- topo.command.pylabplot.overlaid_plot&#45;&gt;topo.command.pylabplot.overlaid_plots -->
<g id="edge20" class="edge"><title>topo.command.pylabplot.overlaid_plot&#45;&gt;topo.command.pylabplot.overlaid_plots</title>
<path fill="none" stroke="black" stroke-width="0.5" d="M1134.88,-151.966C1173.39,-146.663 1220.69,-140.151 1259.96,-134.745"/>
<polygon fill="black" stroke="black" points="1260.48,-136.44 1265.19,-134.024 1260,-132.972 1260.48,-136.44"/>
</g>
</g>
</svg>
