<?xml version="1.0" encoding="UTF-8" standalone="no"?>
<!DOCTYPE svg PUBLIC "-//W3C//DTD SVG 1.1//EN"
 "http://www.w3.org/Graphics/SVG/1.1/DTD/svg11.dtd">
<!-- Generated by graphviz version 2.26.3 (20100126.1600)
 -->
<!-- Title: inheritancee3a8736439 Pages: 1 -->
<svg width="1172pt" height="180pt"
 viewBox="0.00 0.00 1172.00 180.00" xmlns="http://www.w3.org/2000/svg" xmlns:xlink="http://www.w3.org/1999/xlink">
<g id="graph1" class="graph" transform="scale(1 1) rotate(0) translate(4 176)">
<title>inheritancee3a8736439</title>
<polygon fill="white" stroke="white" points="-4,5 -4,-176 1169,-176 1169,5 -4,5"/>
<!-- Tkinter.Frame -->
<g id="node1" class="node"><title>Tkinter.Frame</title>
<polygon fill="none" stroke="black" stroke-width="0.5" points="648,-101.5 568,-101.5 568,-80.5 648,-80.5 648,-101.5"/>
<text text-anchor="middle" x="608" y="-88.5" font-family="Vera" font-size="10.00">Tkinter.Frame</text>
</g>
<!-- topo.tkgui.plotgrouppanel.PlotGroupPanel -->
<g id="node9" class="node"><title>topo.tkgui.plotgrouppanel.PlotGroupPanel</title>
<polygon fill="none" stroke="black" stroke-width="0.5" points="929,-124.5 715,-124.5 715,-103.5 929,-103.5 929,-124.5"/>
<text text-anchor="middle" x="822" y="-111.5" font-family="Vera" font-size="10.00">topo.tkgui.plotgrouppanel.PlotGroupPanel</text>
</g>
<!-- Tkinter.Frame&#45;&gt;topo.tkgui.plotgrouppanel.PlotGroupPanel -->
<g id="edge22" class="edge"><title>Tkinter.Frame&#45;&gt;topo.tkgui.plotgrouppanel.PlotGroupPanel</title>
<path fill="none" stroke="black" stroke-width="0.5" d="M648.503,-95.3532C669.86,-97.6485 697.073,-100.573 723.579,-103.422"/>
<polygon fill="black" stroke="black" points="723.71,-105.196 728.868,-103.991 724.084,-101.716 723.71,-105.196"/>
</g>
<!-- Tkinter.Widget -->
<g id="node2" class="node"><title>Tkinter.Widget</title>
<polygon fill="none" stroke="black" stroke-width="0.5" points="461,-96.5 379,-96.5 379,-75.5 461,-75.5 461,-96.5"/>
<text text-anchor="middle" x="420" y="-83.5" font-family="Vera" font-size="10.00">Tkinter.Widget</text>
</g>
<!-- Tkinter.Widget&#45;&gt;Tkinter.Frame -->
<g id="edge2" class="edge"><title>Tkinter.Widget&#45;&gt;Tkinter.Frame</title>
<path fill="none" stroke="black" stroke-width="0.5" d="M461.723,-87.1097C491.481,-87.9011 531.488,-88.9651 562.14,-89.7803"/>
<polygon fill="black" stroke="black" points="562.318,-91.5356 567.362,-89.9192 562.411,-88.0368 562.318,-91.5356"/>
</g>
<!-- paramtk.TkParameterized -->
<g id="node4" class="node"><title>paramtk.TkParameterized</title>
<polygon fill="none" stroke="black" stroke-width="0.5" points="678,-148.5 538,-148.5 538,-127.5 678,-127.5 678,-148.5"/>
<text text-anchor="middle" x="608" y="-135.5" font-family="Vera" font-size="10.00">paramtk.TkParameterized</text>
</g>
<!-- paramtk.TkParameterized&#45;&gt;topo.tkgui.plotgrouppanel.PlotGroupPanel -->
<g id="edge20" class="edge"><title>paramtk.TkParameterized&#45;&gt;topo.tkgui.plotgrouppanel.PlotGroupPanel</title>
<path fill="none" stroke="black" stroke-width="0.5" d="M678.072,-130.142C693.869,-128.37 710.89,-126.461 727.503,-124.598"/>
<polygon fill="black" stroke="black" points="727.871,-126.318 732.644,-124.021 727.48,-122.839 727.871,-126.318"/>
</g>
<!-- paramtk.TkParameterizedBase -->
<g id="node5" class="node"><title>paramtk.TkParameterizedBase</title>
<polygon fill="none" stroke="black" stroke-width="0.5" points="502,-167.5 338,-167.5 338,-146.5 502,-146.5 502,-167.5"/>
<text text-anchor="middle" x="420" y="-154.5" font-family="Vera" font-size="10.00">paramtk.TkParameterizedBase</text>
</g>
<!-- paramtk.TkParameterizedBase&#45;&gt;paramtk.TkParameterized -->
<g id="edge4" class="edge"><title>paramtk.TkParameterizedBase&#45;&gt;paramtk.TkParameterized</title>
<path fill="none" stroke="black" stroke-width="0.5" d="M502.186,-148.694C512.283,-147.674 522.564,-146.634 532.554,-145.625"/>
<polygon fill="black" stroke="black" points="532.951,-147.344 537.749,-145.1 532.599,-143.862 532.951,-147.344"/>
</g>
<!-- Tkinter.Place -->
<g id="node7" class="node"><title>Tkinter.Place</title>
<polygon fill="none" stroke="black" stroke-width="0.5" points="243,-134.5 167,-134.5 167,-113.5 243,-113.5 243,-134.5"/>
<text text-anchor="middle" x="205" y="-121.5" font-family="Vera" font-size="10.00">Tkinter.Place</text>
</g>
<!-- Tkinter.Place&#45;&gt;Tkinter.Widget -->
<g id="edge16" class="edge"><title>Tkinter.Place&#45;&gt;Tkinter.Widget</title>
<path fill="none" stroke="black" stroke-width="0.5" d="M243.935,-117.118C280.299,-110.691 334.629,-101.089 373.308,-94.2525"/>
<polygon fill="black" stroke="black" points="373.801,-95.9426 378.42,-93.3489 373.192,-92.496 373.801,-95.9426"/>
</g>
<!-- topo.tkgui.plotgrouppanel.SheetPanel -->
<g id="node8" class="node"><title>topo.tkgui.plotgrouppanel.SheetPanel</title>
<polygon fill="none" stroke="black" stroke-width="0.5" points="1163,-124.5 967,-124.5 967,-103.5 1163,-103.5 1163,-124.5"/>
<text text-anchor="middle" x="1065" y="-111.5" font-family="Vera" font-size="10.00">topo.tkgui.plotgrouppanel.SheetPanel</text>
</g>
<!-- topo.tkgui.plotgrouppanel.PlotGroupPanel&#45;&gt;topo.tkgui.plotgrouppanel.SheetPanel -->
<g id="edge6" class="edge"><title>topo.tkgui.plotgrouppanel.PlotGroupPanel&#45;&gt;topo.tkgui.plotgrouppanel.SheetPanel</title>
<path fill="none" stroke="black" stroke-width="0.5" d="M929.645,-114C940.118,-114 950.73,-114 961.165,-114"/>
<polygon fill="black" stroke="black" points="961.272,-115.75 966.272,-114 961.272,-112.25 961.272,-115.75"/>
</g>
<!-- Tkinter.Grid -->
<g id="node11" class="node"><title>Tkinter.Grid</title>
<polygon fill="none" stroke="black" stroke-width="0.5" points="240,-96.5 170,-96.5 170,-75.5 240,-75.5 240,-96.5"/>
<text text-anchor="middle" x="205" y="-83.5" font-family="Vera" font-size="10.00">Tkinter.Grid</text>
</g>
<!-- Tkinter.Grid&#45;&gt;Tkinter.Widget -->
<g id="edge18" class="edge"><title>Tkinter.Grid&#45;&gt;Tkinter.Widget</title>
<path fill="none" stroke="black" stroke-width="0.5" d="M240.503,-86C276.687,-86 333.012,-86 372.905,-86"/>
<polygon fill="black" stroke="black" points="373.175,-87.7501 378.175,-86 373.175,-84.2501 373.175,-87.7501"/>
</g>
<!-- param.parameterized.Parameterized -->
<g id="node12" class="node"><title>param.parameterized.Parameterized</title>
<polygon fill="none" stroke="black" stroke-width="0.5" points="302,-172.5 108,-172.5 108,-151.5 302,-151.5 302,-172.5"/>
<text text-anchor="middle" x="205" y="-159.5" font-family="Vera" font-size="10.00">param.parameterized.Parameterized</text>
</g>
<!-- param.parameterized.Parameterized&#45;&gt;paramtk.TkParameterizedBase -->
<g id="edge8" class="edge"><title>param.parameterized.Parameterized&#45;&gt;paramtk.TkParameterizedBase</title>
<path fill="none" stroke="black" stroke-width="0.5" d="M302.121,-159.741C312.261,-159.506 322.525,-159.267 332.548,-159.034"/>
<polygon fill="black" stroke="black" points="332.808,-160.778 337.766,-158.912 332.726,-157.279 332.808,-160.778"/>
</g>
<!-- Tkinter.Misc -->
<g id="node14" class="node"><title>Tkinter.Misc</title>
<polygon fill="none" stroke="black" stroke-width="0.5" points="72,-58.5 2.84217e-14,-58.5 0,-37.5 72,-37.5 72,-58.5"/>
<text text-anchor="middle" x="36" y="-45.5" font-family="Vera" font-size="10.00">Tkinter.Misc</text>
</g>
<!-- Tkinter.BaseWidget -->
<g id="node15" class="node"><title>Tkinter.BaseWidget</title>
<polygon fill="none" stroke="black" stroke-width="0.5" points="258,-58.5 152,-58.5 152,-37.5 258,-37.5 258,-58.5"/>
<text text-anchor="middle" x="205" y="-45.5" font-family="Vera" font-size="10.00">Tkinter.BaseWidget</text>
</g>
<!-- Tkinter.Misc&#45;&gt;Tkinter.BaseWidget -->
<g id="edge10" class="edge"><title>Tkinter.Misc&#45;&gt;Tkinter.BaseWidget</title>
<path fill="none" stroke="black" stroke-width="0.5" d="M72.2547,-48C93.805,-48 121.651,-48 146.27,-48"/>
<polygon fill="black" stroke="black" points="146.471,-49.7501 151.471,-48 146.471,-46.2501 146.471,-49.7501"/>
</g>
<!-- Tkinter.BaseWidget&#45;&gt;Tkinter.Widget -->
<g id="edge12" class="edge"><title>Tkinter.BaseWidget&#45;&gt;Tkinter.Widget</title>
<path fill="none" stroke="black" stroke-width="0.5" d="M258.699,-57.491C293.881,-63.7093 339.423,-71.7584 373.138,-77.7174"/>
<polygon fill="black" stroke="black" points="373.216,-79.5083 378.444,-78.6553 373.825,-76.0617 373.216,-79.5083"/>
</g>
<!-- Tkinter.Pack -->
<g id="node18" class="node"><title>Tkinter.Pack</title>
<polygon fill="none" stroke="black" stroke-width="0.5" points="241,-20.5 169,-20.5 169,0.5 241,0.5 241,-20.5"/>
<text text-anchor="middle" x="205" y="-7.5" font-family="Vera" font-size="10.00">Tkinter.Pack</text>
</g>
<!-- Tkinter.Pack&#45;&gt;Tkinter.Widget -->
<g id="edge14" class="edge"><title>Tkinter.Pack&#45;&gt;Tkinter.Widget</title>
<path fill="none" stroke="black" stroke-width="0.5" d="M241.5,-14.8766C259.93,-17.9071 282.464,-22.4889 302,-29 337.006,-40.6672 375.019,-60.4296 398.178,-73.3469"/>
<polygon fill="black" stroke="black" points="397.39,-74.9115 402.607,-75.8347 399.105,-71.86 397.39,-74.9115"/>
</g>
</g>
</svg>
