<?xml version="1.0" encoding="UTF-8" standalone="no"?>
<!DOCTYPE svg PUBLIC "-//W3C//DTD SVG 1.1//EN"
 "http://www.w3.org/Graphics/SVG/1.1/DTD/svg11.dtd">
<!-- Generated by graphviz version 2.26.3 (20100126.1600)
 -->
<!-- Title: inheritancebe3ab90ace Pages: 1 -->
<svg width="984pt" height="370pt"
 viewBox="0.00 0.00 984.00 370.00" xmlns="http://www.w3.org/2000/svg" xmlns:xlink="http://www.w3.org/1999/xlink">
<g id="graph1" class="graph" transform="scale(1 1) rotate(0) translate(4 366)">
<title>inheritancebe3ab90ace</title>
<polygon fill="white" stroke="white" points="-4,5 -4,-366 981,-366 981,5 -4,5"/>
<!-- topo.coordmapper.NormalJitter -->
<g id="node1" class="node"><title>topo.coordmapper.NormalJitter</title>
<polygon fill="none" stroke="black" stroke-width="0.5" points="696,-362.5 532,-362.5 532,-341.5 696,-341.5 696,-362.5"/>
<text text-anchor="middle" x="614" y="-349.5" font-family="Vera" font-size="10.00">topo.coordmapper.NormalJitter</text>
</g>
<!-- topo.base.functionfamily.CoordinateMapperFn -->
<g id="node2" class="node"><title>topo.base.functionfamily.CoordinateMapperFn</title>
<polygon fill="none" stroke="black" stroke-width="0.5" points="466,-191.5 230,-191.5 230,-170.5 466,-170.5 466,-191.5"/>
<text text-anchor="middle" x="348" y="-178.5" font-family="Vera" font-size="10.00">topo.base.functionfamily.CoordinateMapperFn</text>
</g>
<!-- topo.base.functionfamily.CoordinateMapperFn&#45;&gt;topo.coordmapper.NormalJitter -->
<g id="edge2" class="edge"><title>topo.base.functionfamily.CoordinateMapperFn&#45;&gt;topo.coordmapper.NormalJitter</title>
<path fill="none" stroke="black" stroke-width="0.5" d="M354.877,-191.27C374.258,-219.296 432.458,-297.373 502,-333 509.559,-336.872 517.744,-339.98 526.13,-342.47"/>
<polygon fill="black" stroke="black" points="526.087,-344.275 531.374,-343.942 527.033,-340.905 526.087,-344.275"/>
</g>
<!-- topo.coordmapper.AffineTransform -->
<g id="node5" class="node"><title>topo.coordmapper.AffineTransform</title>
<polygon fill="none" stroke="black" stroke-width="0.5" points="705,-324.5 523,-324.5 523,-303.5 705,-303.5 705,-324.5"/>
<text text-anchor="middle" x="614" y="-311.5" font-family="Vera" font-size="10.00">topo.coordmapper.AffineTransform</text>
</g>
<!-- topo.base.functionfamily.CoordinateMapperFn&#45;&gt;topo.coordmapper.AffineTransform -->
<g id="edge28" class="edge"><title>topo.base.functionfamily.CoordinateMapperFn&#45;&gt;topo.coordmapper.AffineTransform</title>
<path fill="none" stroke="black" stroke-width="0.5" d="M358.097,-191.236C381.227,-214.015 440.791,-268.931 502,-295 508.929,-297.951 516.283,-300.445 523.781,-302.551"/>
<polygon fill="black" stroke="black" points="523.709,-304.344 528.992,-303.949 524.616,-300.963 523.709,-304.344"/>
</g>
<!-- topo.coordmapper.Grid -->
<g id="node9" class="node"><title>topo.coordmapper.Grid</title>
<polygon fill="none" stroke="black" stroke-width="0.5" points="678,-286.5 550,-286.5 550,-265.5 678,-265.5 678,-286.5"/>
<text text-anchor="middle" x="614" y="-273.5" font-family="Vera" font-size="10.00">topo.coordmapper.Grid</text>
</g>
<!-- topo.base.functionfamily.CoordinateMapperFn&#45;&gt;topo.coordmapper.Grid -->
<g id="edge8" class="edge"><title>topo.base.functionfamily.CoordinateMapperFn&#45;&gt;topo.coordmapper.Grid</title>
<path fill="none" stroke="black" stroke-width="0.5" d="M364.412,-191.107C391.853,-207.535 449.243,-239.912 502,-257 515.535,-261.384 530.336,-264.806 544.615,-267.46"/>
<polygon fill="black" stroke="black" points="544.617,-269.239 549.848,-268.404 545.238,-265.794 544.617,-269.239"/>
</g>
<!-- topo.coordmapper.Polar2Cartesian -->
<g id="node11" class="node"><title>topo.coordmapper.Polar2Cartesian</title>
<polygon fill="none" stroke="black" stroke-width="0.5" points="706,-248.5 522,-248.5 522,-227.5 706,-227.5 706,-248.5"/>
<text text-anchor="middle" x="614" y="-235.5" font-family="Vera" font-size="10.00">topo.coordmapper.Polar2Cartesian</text>
</g>
<!-- topo.base.functionfamily.CoordinateMapperFn&#45;&gt;topo.coordmapper.Polar2Cartesian -->
<g id="edge10" class="edge"><title>topo.base.functionfamily.CoordinateMapperFn&#45;&gt;topo.coordmapper.Polar2Cartesian</title>
<path fill="none" stroke="black" stroke-width="0.5" d="M385.48,-191.071C416.555,-199.223 461.962,-210.676 502,-219 515.758,-221.86 530.533,-224.6 544.694,-227.065"/>
<polygon fill="black" stroke="black" points="544.656,-228.834 549.881,-227.961 545.251,-225.385 544.656,-228.834"/>
</g>
<!-- topo.coordmapper.OttesSCMapper -->
<g id="node13" class="node"><title>topo.coordmapper.OttesSCMapper</title>
<polygon fill="none" stroke="black" stroke-width="0.5" points="706,-210.5 522,-210.5 522,-189.5 706,-189.5 706,-210.5"/>
<text text-anchor="middle" x="614" y="-197.5" font-family="Vera" font-size="10.00">topo.coordmapper.OttesSCMapper</text>
</g>
<!-- topo.base.functionfamily.CoordinateMapperFn&#45;&gt;topo.coordmapper.OttesSCMapper -->
<g id="edge12" class="edge"><title>topo.base.functionfamily.CoordinateMapperFn&#45;&gt;topo.coordmapper.OttesSCMapper</title>
<path fill="none" stroke="black" stroke-width="0.5" d="M466.221,-189.444C483.07,-190.648 500.241,-191.874 516.632,-193.045"/>
<polygon fill="black" stroke="black" points="516.58,-194.796 521.692,-193.407 516.83,-191.305 516.58,-194.796"/>
</g>
<!-- topo.coordmapper.Cartesian2Polar -->
<g id="node19" class="node"><title>topo.coordmapper.Cartesian2Polar</title>
<polygon fill="none" stroke="black" stroke-width="0.5" points="706,-172.5 522,-172.5 522,-151.5 706,-151.5 706,-172.5"/>
<text text-anchor="middle" x="614" y="-159.5" font-family="Vera" font-size="10.00">topo.coordmapper.Cartesian2Polar</text>
</g>
<!-- topo.base.functionfamily.CoordinateMapperFn&#45;&gt;topo.coordmapper.Cartesian2Polar -->
<g id="edge18" class="edge"><title>topo.base.functionfamily.CoordinateMapperFn&#45;&gt;topo.coordmapper.Cartesian2Polar</title>
<path fill="none" stroke="black" stroke-width="0.5" d="M466.221,-172.556C483.07,-171.352 500.241,-170.126 516.632,-168.955"/>
<polygon fill="black" stroke="black" points="516.83,-170.695 521.692,-168.593 516.58,-167.204 516.83,-170.695"/>
</g>
<!-- topo.coordmapper.Jitter -->
<g id="node23" class="node"><title>topo.coordmapper.Jitter</title>
<polygon fill="none" stroke="black" stroke-width="0.5" points="679,-134.5 549,-134.5 549,-113.5 679,-113.5 679,-134.5"/>
<text text-anchor="middle" x="614" y="-121.5" font-family="Vera" font-size="10.00">topo.coordmapper.Jitter</text>
</g>
<!-- topo.base.functionfamily.CoordinateMapperFn&#45;&gt;topo.coordmapper.Jitter -->
<g id="edge22" class="edge"><title>topo.base.functionfamily.CoordinateMapperFn&#45;&gt;topo.coordmapper.Jitter</title>
<path fill="none" stroke="black" stroke-width="0.5" d="M385.48,-170.929C416.555,-162.777 461.962,-151.324 502,-143 515.758,-140.14 530.533,-137.4 544.694,-134.935"/>
<polygon fill="black" stroke="black" points="545.251,-136.615 549.881,-134.039 544.656,-133.166 545.251,-136.615"/>
</g>
<!-- topo.coordmapper.SingleDimensionMapper -->
<g id="node26" class="node"><title>topo.coordmapper.SingleDimensionMapper</title>
<polygon fill="none" stroke="black" stroke-width="0.5" points="726,-96.5 502,-96.5 502,-75.5 726,-75.5 726,-96.5"/>
<text text-anchor="middle" x="614" y="-83.5" font-family="Vera" font-size="10.00">topo.coordmapper.SingleDimensionMapper</text>
</g>
<!-- topo.base.functionfamily.CoordinateMapperFn&#45;&gt;topo.coordmapper.SingleDimensionMapper -->
<g id="edge30" class="edge"><title>topo.base.functionfamily.CoordinateMapperFn&#45;&gt;topo.coordmapper.SingleDimensionMapper</title>
<path fill="none" stroke="black" stroke-width="0.5" d="M364.412,-170.893C391.853,-154.465 449.243,-122.088 502,-105 511.594,-101.893 521.823,-99.2684 532.052,-97.0585"/>
<polygon fill="black" stroke="black" points="532.536,-98.7452 537.07,-96.0066 531.818,-95.3196 532.536,-98.7452"/>
</g>
<!-- topo.coordmapper.ConstantMapper -->
<g id="node28" class="node"><title>topo.coordmapper.ConstantMapper</title>
<polygon fill="none" stroke="black" stroke-width="0.5" points="708,-58.5 520,-58.5 520,-37.5 708,-37.5 708,-58.5"/>
<text text-anchor="middle" x="614" y="-45.5" font-family="Vera" font-size="10.00">topo.coordmapper.ConstantMapper</text>
</g>
<!-- topo.base.functionfamily.CoordinateMapperFn&#45;&gt;topo.coordmapper.ConstantMapper -->
<g id="edge26" class="edge"><title>topo.base.functionfamily.CoordinateMapperFn&#45;&gt;topo.coordmapper.ConstantMapper</title>
<path fill="none" stroke="black" stroke-width="0.5" d="M358.097,-170.764C381.227,-147.985 440.791,-93.0694 502,-67 508.929,-64.0488 516.283,-61.5553 523.781,-59.4486"/>
<polygon fill="black" stroke="black" points="524.616,-61.0367 528.992,-58.051 523.709,-57.6562 524.616,-61.0367"/>
</g>
<!-- topo.coordmapper.Pipeline -->
<g id="node36" class="node"><title>topo.coordmapper.Pipeline</title>
<polygon fill="none" stroke="black" stroke-width="0.5" points="686,-20.5 542,-20.5 542,0.5 686,0.5 686,-20.5"/>
<text text-anchor="middle" x="614" y="-7.5" font-family="Vera" font-size="10.00">topo.coordmapper.Pipeline</text>
</g>
<!-- topo.base.functionfamily.CoordinateMapperFn&#45;&gt;topo.coordmapper.Pipeline -->
<g id="edge36" class="edge"><title>topo.base.functionfamily.CoordinateMapperFn&#45;&gt;topo.coordmapper.Pipeline</title>
<path fill="none" stroke="black" stroke-width="0.5" d="M354.877,-170.73C374.258,-142.704 432.458,-64.6275 502,-29 512.597,-23.5707 524.426,-19.6455 536.315,-16.817"/>
<polygon fill="black" stroke="black" points="536.917,-18.4754 541.411,-15.6707 536.149,-15.0608 536.917,-18.4754"/>
</g>
<!-- topo.coordmapper.Translate2d -->
<g id="node4" class="node"><title>topo.coordmapper.Translate2d</title>
<polygon fill="none" stroke="black" stroke-width="0.5" points="950,-362.5 788,-362.5 788,-341.5 950,-341.5 950,-362.5"/>
<text text-anchor="middle" x="869" y="-349.5" font-family="Vera" font-size="10.00">topo.coordmapper.Translate2d</text>
</g>
<!-- topo.coordmapper.AffineTransform&#45;&gt;topo.coordmapper.Translate2d -->
<g id="edge4" class="edge"><title>topo.coordmapper.AffineTransform&#45;&gt;topo.coordmapper.Translate2d</title>
<path fill="none" stroke="black" stroke-width="0.5" d="M681.332,-324.034C716.773,-329.315 760.262,-335.796 796.449,-341.189"/>
<polygon fill="black" stroke="black" points="796.53,-342.97 801.733,-341.976 797.046,-339.508 796.53,-342.97"/>
</g>
<!-- topo.coordmapper.Scale2d -->
<g id="node17" class="node"><title>topo.coordmapper.Scale2d</title>
<polygon fill="none" stroke="black" stroke-width="0.5" points="942,-324.5 796,-324.5 796,-303.5 942,-303.5 942,-324.5"/>
<text text-anchor="middle" x="869" y="-311.5" font-family="Vera" font-size="10.00">topo.coordmapper.Scale2d</text>
</g>
<!-- topo.coordmapper.AffineTransform&#45;&gt;topo.coordmapper.Scale2d -->
<g id="edge16" class="edge"><title>topo.coordmapper.AffineTransform&#45;&gt;topo.coordmapper.Scale2d</title>
<path fill="none" stroke="black" stroke-width="0.5" d="M705.341,-314C733.324,-314 763.841,-314 790.86,-314"/>
<polygon fill="black" stroke="black" points="790.863,-315.75 795.863,-314 790.863,-312.25 790.863,-315.75"/>
</g>
<!-- topo.coordmapper.Rotate2d -->
<g id="node21" class="node"><title>topo.coordmapper.Rotate2d</title>
<polygon fill="none" stroke="black" stroke-width="0.5" points="944,-286.5 794,-286.5 794,-265.5 944,-265.5 944,-286.5"/>
<text text-anchor="middle" x="869" y="-273.5" font-family="Vera" font-size="10.00">topo.coordmapper.Rotate2d</text>
</g>
<!-- topo.coordmapper.AffineTransform&#45;&gt;topo.coordmapper.Rotate2d -->
<g id="edge20" class="edge"><title>topo.coordmapper.AffineTransform&#45;&gt;topo.coordmapper.Rotate2d</title>
<path fill="none" stroke="black" stroke-width="0.5" d="M681.332,-303.966C716.773,-298.685 760.262,-292.204 796.449,-286.811"/>
<polygon fill="black" stroke="black" points="797.046,-288.492 801.733,-286.024 796.53,-285.03 797.046,-288.492"/>
</g>
<!-- param.parameterized.Parameterized -->
<g id="node7" class="node"><title>param.parameterized.Parameterized</title>
<polygon fill="none" stroke="black" stroke-width="0.5" points="194,-191.5 5.68434e-14,-191.5 0,-170.5 194,-170.5 194,-191.5"/>
<text text-anchor="middle" x="97" y="-178.5" font-family="Vera" font-size="10.00">param.parameterized.Parameterized</text>
</g>
<!-- param.parameterized.Parameterized&#45;&gt;topo.base.functionfamily.CoordinateMapperFn -->
<g id="edge6" class="edge"><title>param.parameterized.Parameterized&#45;&gt;topo.base.functionfamily.CoordinateMapperFn</title>
<path fill="none" stroke="black" stroke-width="0.5" d="M194.043,-181C204.12,-181 214.455,-181 224.77,-181"/>
<polygon fill="black" stroke="black" points="224.831,-182.75 229.831,-181 224.831,-179.25 224.831,-182.75"/>
</g>
<!-- topo.coordmapper.OttesSCMotorMapper -->
<g id="node15" class="node"><title>topo.coordmapper.OttesSCMotorMapper</title>
<polygon fill="none" stroke="black" stroke-width="0.5" points="975,-229.5 763,-229.5 763,-208.5 975,-208.5 975,-229.5"/>
<text text-anchor="middle" x="869" y="-216.5" font-family="Vera" font-size="10.00">topo.coordmapper.OttesSCMotorMapper</text>
</g>
<!-- topo.coordmapper.OttesSCMapper&#45;&gt;topo.coordmapper.OttesSCMotorMapper -->
<g id="edge14" class="edge"><title>topo.coordmapper.OttesSCMapper&#45;&gt;topo.coordmapper.OttesSCMotorMapper</title>
<path fill="none" stroke="black" stroke-width="0.5" d="M706.061,-206.859C722.739,-208.102 740.295,-209.41 757.46,-210.689"/>
<polygon fill="black" stroke="black" points="757.656,-212.459 762.773,-211.085 757.917,-208.968 757.656,-212.459"/>
</g>
<!-- topo.coordmapper.OttesSCSenseMapper -->
<g id="node32" class="node"><title>topo.coordmapper.OttesSCSenseMapper</title>
<polygon fill="none" stroke="black" stroke-width="0.5" points="976,-191.5 762,-191.5 762,-170.5 976,-170.5 976,-191.5"/>
<text text-anchor="middle" x="869" y="-178.5" font-family="Vera" font-size="10.00">topo.coordmapper.OttesSCSenseMapper</text>
</g>
<!-- topo.coordmapper.OttesSCMapper&#45;&gt;topo.coordmapper.OttesSCSenseMapper -->
<g id="edge32" class="edge"><title>topo.coordmapper.OttesSCMapper&#45;&gt;topo.coordmapper.OttesSCSenseMapper</title>
<path fill="none" stroke="black" stroke-width="0.5" d="M706.061,-193.141C722.48,-191.917 739.751,-190.63 756.661,-189.37"/>
<polygon fill="black" stroke="black" points="757.04,-191.097 761.896,-188.98 756.78,-187.607 757.04,-191.097"/>
</g>
<!-- topo.coordmapper.MagnifyingMapper -->
<g id="node25" class="node"><title>topo.coordmapper.MagnifyingMapper</title>
<polygon fill="none" stroke="black" stroke-width="0.5" points="966,-115.5 772,-115.5 772,-94.5 966,-94.5 966,-115.5"/>
<text text-anchor="middle" x="869" y="-102.5" font-family="Vera" font-size="10.00">topo.coordmapper.MagnifyingMapper</text>
</g>
<!-- topo.coordmapper.SingleDimensionMapper&#45;&gt;topo.coordmapper.MagnifyingMapper -->
<g id="edge24" class="edge"><title>topo.coordmapper.SingleDimensionMapper&#45;&gt;topo.coordmapper.MagnifyingMapper</title>
<path fill="none" stroke="black" stroke-width="0.5" d="M726.218,-94.3613C739.429,-95.3457 752.863,-96.3467 765.941,-97.3211"/>
<polygon fill="black" stroke="black" points="766.012,-99.0811 771.128,-97.7076 766.272,-95.5908 766.012,-99.0811"/>
</g>
<!-- topo.coordmapper.ReducingMapper -->
<g id="node34" class="node"><title>topo.coordmapper.ReducingMapper</title>
<polygon fill="none" stroke="black" stroke-width="0.5" points="962,-77.5 776,-77.5 776,-56.5 962,-56.5 962,-77.5"/>
<text text-anchor="middle" x="869" y="-64.5" font-family="Vera" font-size="10.00">topo.coordmapper.ReducingMapper</text>
</g>
<!-- topo.coordmapper.SingleDimensionMapper&#45;&gt;topo.coordmapper.ReducingMapper -->
<g id="edge34" class="edge"><title>topo.coordmapper.SingleDimensionMapper&#45;&gt;topo.coordmapper.ReducingMapper</title>
<path fill="none" stroke="black" stroke-width="0.5" d="M726.218,-77.6387C740.855,-76.548 755.766,-75.4371 770.162,-74.3644"/>
<polygon fill="black" stroke="black" points="770.585,-76.0878 775.441,-73.9711 770.325,-72.5975 770.585,-76.0878"/>
</g>
</g>
</svg>
