<?xml version="1.0" encoding="UTF-8" standalone="no"?>
<!DOCTYPE svg PUBLIC "-//W3C//DTD SVG 1.1//EN"
 "http://www.w3.org/Graphics/SVG/1.1/DTD/svg11.dtd">
<!-- Generated by graphviz version 2.26.3 (20100126.1600)
 -->
<!-- Title: inheritance09fca71fec Pages: 1 -->
<svg width="1140pt" height="218pt"
 viewBox="0.00 0.00 1140.00 218.00" xmlns="http://www.w3.org/2000/svg" xmlns:xlink="http://www.w3.org/1999/xlink">
<g id="graph1" class="graph" transform="scale(1 1) rotate(0) translate(4 214)">
<title>inheritance09fca71fec</title>
<polygon fill="white" stroke="white" points="-4,5 -4,-214 1137,-214 1137,5 -4,5"/>
<!-- paramtk.TkParameterizedBase -->
<g id="node1" class="node"><title>paramtk.TkParameterizedBase</title>
<polygon fill="none" stroke="black" stroke-width="0.5" points="666,-58.5 502,-58.5 502,-37.5 666,-37.5 666,-58.5"/>
<text text-anchor="middle" x="584" y="-45.5" font-family="Vera" font-size="10.00">paramtk.TkParameterizedBase</text>
</g>
<!-- paramtk.TkParameterized -->
<g id="node7" class="node"><title>paramtk.TkParameterized</title>
<polygon fill="none" stroke="black" stroke-width="0.5" points="873,-58.5 733,-58.5 733,-37.5 873,-37.5 873,-58.5"/>
<text text-anchor="middle" x="803" y="-45.5" font-family="Vera" font-size="10.00">paramtk.TkParameterized</text>
</g>
<!-- paramtk.TkParameterizedBase&#45;&gt;paramtk.TkParameterized -->
<g id="edge6" class="edge"><title>paramtk.TkParameterizedBase&#45;&gt;paramtk.TkParameterized</title>
<path fill="none" stroke="black" stroke-width="0.5" d="M666.171,-48C686.423,-48 708.007,-48 727.904,-48"/>
<polygon fill="black" stroke="black" points="727.925,-49.7501 732.925,-48 727.925,-46.2501 727.925,-49.7501"/>
</g>
<!-- param.parameterized.Parameterized -->
<g id="node2" class="node"><title>param.parameterized.Parameterized</title>
<polygon fill="none" stroke="black" stroke-width="0.5" points="446,-39.5 252,-39.5 252,-18.5 446,-18.5 446,-39.5"/>
<text text-anchor="middle" x="349" y="-26.5" font-family="Vera" font-size="10.00">param.parameterized.Parameterized</text>
</g>
<!-- param.parameterized.Parameterized&#45;&gt;paramtk.TkParameterizedBase -->
<g id="edge2" class="edge"><title>param.parameterized.Parameterized&#45;&gt;paramtk.TkParameterizedBase</title>
<path fill="none" stroke="black" stroke-width="0.5" d="M446.28,-36.8652C462.987,-38.216 480.256,-39.6122 496.682,-40.9402"/>
<polygon fill="black" stroke="black" points="496.626,-42.6913 501.75,-41.35 496.908,-39.2027 496.626,-42.6913"/>
</g>
<!-- topo.tkgui.topoconsole.PlotsMenuEntry -->
<g id="node19" class="node"><title>topo.tkgui.topoconsole.PlotsMenuEntry</title>
<polygon fill="none" stroke="black" stroke-width="0.5" points="685,-20.5 483,-20.5 483,0.5 685,0.5 685,-20.5"/>
<text text-anchor="middle" x="584" y="-7.5" font-family="Vera" font-size="10.00">topo.tkgui.topoconsole.PlotsMenuEntry</text>
</g>
<!-- param.parameterized.Parameterized&#45;&gt;topo.tkgui.topoconsole.PlotsMenuEntry -->
<g id="edge14" class="edge"><title>param.parameterized.Parameterized&#45;&gt;topo.tkgui.topoconsole.PlotsMenuEntry</title>
<path fill="none" stroke="black" stroke-width="0.5" d="M446.28,-21.1348C456.48,-20.3101 466.89,-19.4685 477.189,-18.6358"/>
<polygon fill="black" stroke="black" points="477.392,-20.3751 482.235,-18.2278 477.11,-16.8865 477.392,-20.3751"/>
</g>
<!-- paramtk.tilewrapper.Notebook -->
<g id="node4" class="node"><title>paramtk.tilewrapper.Notebook</title>
<polygon fill="none" stroke="black" stroke-width="0.5" points="883,-172.5 723,-172.5 723,-151.5 883,-151.5 883,-172.5"/>
<text text-anchor="middle" x="803" y="-159.5" font-family="Vera" font-size="10.00">paramtk.tilewrapper.Notebook</text>
</g>
<!-- topo.tkgui.topoconsole.DockManager -->
<g id="node36" class="node"><title>topo.tkgui.topoconsole.DockManager</title>
<polygon fill="none" stroke="black" stroke-width="0.5" points="1123,-172.5 929,-172.5 929,-151.5 1123,-151.5 1123,-172.5"/>
<text text-anchor="middle" x="1026" y="-159.5" font-family="Vera" font-size="10.00">topo.tkgui.topoconsole.DockManager</text>
</g>
<!-- paramtk.tilewrapper.Notebook&#45;&gt;topo.tkgui.topoconsole.DockManager -->
<g id="edge34" class="edge"><title>paramtk.tilewrapper.Notebook&#45;&gt;topo.tkgui.topoconsole.DockManager</title>
<path fill="none" stroke="black" stroke-width="0.5" d="M883.508,-162C896.394,-162 909.88,-162 923.2,-162"/>
<polygon fill="black" stroke="black" points="923.493,-163.75 928.493,-162 923.493,-160.25 923.493,-163.75"/>
</g>
<!-- paramtk.tilewrapper.Widget -->
<g id="node5" class="node"><title>paramtk.tilewrapper.Widget</title>
<polygon fill="none" stroke="black" stroke-width="0.5" points="657,-172.5 511,-172.5 511,-151.5 657,-151.5 657,-172.5"/>
<text text-anchor="middle" x="584" y="-159.5" font-family="Vera" font-size="10.00">paramtk.tilewrapper.Widget</text>
</g>
<!-- paramtk.tilewrapper.Widget&#45;&gt;paramtk.tilewrapper.Notebook -->
<g id="edge4" class="edge"><title>paramtk.tilewrapper.Widget&#45;&gt;paramtk.tilewrapper.Notebook</title>
<path fill="none" stroke="black" stroke-width="0.5" d="M657.533,-162C676.582,-162 697.265,-162 716.896,-162"/>
<polygon fill="black" stroke="black" points="717.132,-163.75 722.132,-162 717.132,-160.25 717.132,-163.75"/>
</g>
<!-- topo.tkgui.topoconsole.TopoConsole -->
<g id="node40" class="node"><title>topo.tkgui.topoconsole.TopoConsole</title>
<polygon fill="none" stroke="black" stroke-width="0.5" points="1120,-77.5 932,-77.5 932,-56.5 1120,-56.5 1120,-77.5"/>
<text text-anchor="middle" x="1026" y="-64.5" font-family="Vera" font-size="10.00">topo.tkgui.topoconsole.TopoConsole</text>
</g>
<!-- paramtk.TkParameterized&#45;&gt;topo.tkgui.topoconsole.TopoConsole -->
<g id="edge40" class="edge"><title>paramtk.TkParameterized&#45;&gt;topo.tkgui.topoconsole.TopoConsole</title>
<path fill="none" stroke="black" stroke-width="0.5" d="M873.253,-53.9856C890.057,-55.4174 908.316,-56.9731 926.172,-58.4944"/>
<polygon fill="black" stroke="black" points="926.065,-60.2416 931.196,-58.9225 926.362,-56.7542 926.065,-60.2416"/>
</g>
<!-- Tkinter.Wm -->
<g id="node9" class="node"><title>Tkinter.Wm</title>
<polygon fill="none" stroke="black" stroke-width="0.5" points="196,-58.5 128,-58.5 128,-37.5 196,-37.5 196,-58.5"/>
<text text-anchor="middle" x="162" y="-45.5" font-family="Vera" font-size="10.00">Tkinter.Wm</text>
</g>
<!-- Tkinter.Toplevel -->
<g id="node10" class="node"><title>Tkinter.Toplevel</title>
<polygon fill="none" stroke="black" stroke-width="0.5" points="393,-96.5 305,-96.5 305,-75.5 393,-75.5 393,-96.5"/>
<text text-anchor="middle" x="349" y="-83.5" font-family="Vera" font-size="10.00">Tkinter.Toplevel</text>
</g>
<!-- Tkinter.Wm&#45;&gt;Tkinter.Toplevel -->
<g id="edge10" class="edge"><title>Tkinter.Wm&#45;&gt;Tkinter.Toplevel</title>
<path fill="none" stroke="black" stroke-width="0.5" d="M196.735,-55.0585C225.509,-60.9057 266.771,-69.2904 299.085,-75.8569"/>
<polygon fill="black" stroke="black" points="298.943,-77.6136 304.191,-76.8945 299.64,-74.1837 298.943,-77.6136"/>
</g>
<!-- paramtk.ScrolledWindow -->
<g id="node34" class="node"><title>paramtk.ScrolledWindow</title>
<polygon fill="none" stroke="black" stroke-width="0.5" points="651,-96.5 517,-96.5 517,-75.5 651,-75.5 651,-96.5"/>
<text text-anchor="middle" x="584" y="-83.5" font-family="Vera" font-size="10.00">paramtk.ScrolledWindow</text>
</g>
<!-- Tkinter.Toplevel&#45;&gt;paramtk.ScrolledWindow -->
<g id="edge32" class="edge"><title>Tkinter.Toplevel&#45;&gt;paramtk.ScrolledWindow</title>
<path fill="none" stroke="black" stroke-width="0.5" d="M393.755,-86C427.019,-86 473.106,-86 511.588,-86"/>
<polygon fill="black" stroke="black" points="511.724,-87.7501 516.724,-86 511.724,-84.2501 511.724,-87.7501"/>
</g>
<!-- Tkinter.BaseWidget -->
<g id="node11" class="node"><title>Tkinter.BaseWidget</title>
<polygon fill="none" stroke="black" stroke-width="0.5" points="215,-96.5 109,-96.5 109,-75.5 215,-75.5 215,-96.5"/>
<text text-anchor="middle" x="162" y="-83.5" font-family="Vera" font-size="10.00">Tkinter.BaseWidget</text>
</g>
<!-- Tkinter.BaseWidget&#45;&gt;Tkinter.Toplevel -->
<g id="edge8" class="edge"><title>Tkinter.BaseWidget&#45;&gt;Tkinter.Toplevel</title>
<path fill="none" stroke="black" stroke-width="0.5" d="M215.587,-86C241.894,-86 273.39,-86 299.173,-86"/>
<polygon fill="black" stroke="black" points="299.25,-87.7501 304.25,-86 299.25,-84.2501 299.25,-87.7501"/>
</g>
<!-- Tkinter.Widget -->
<g id="node21" class="node"><title>Tkinter.Widget</title>
<polygon fill="none" stroke="black" stroke-width="0.5" points="390,-134.5 308,-134.5 308,-113.5 390,-113.5 390,-134.5"/>
<text text-anchor="middle" x="349" y="-121.5" font-family="Vera" font-size="10.00">Tkinter.Widget</text>
</g>
<!-- Tkinter.BaseWidget&#45;&gt;Tkinter.Widget -->
<g id="edge16" class="edge"><title>Tkinter.BaseWidget&#45;&gt;Tkinter.Widget</title>
<path fill="none" stroke="black" stroke-width="0.5" d="M209.15,-96.0894C222.951,-99.0061 238.073,-102.166 252,-105 268.316,-108.32 286.199,-111.853 302.117,-114.96"/>
<polygon fill="black" stroke="black" points="302.193,-116.758 307.435,-115.997 302.862,-113.323 302.193,-116.758"/>
</g>
<!-- topo.tkgui.topoconsole.ControllableMenu -->
<g id="node14" class="node"><title>topo.tkgui.topoconsole.ControllableMenu</title>
<polygon fill="none" stroke="black" stroke-width="0.5" points="1132,-134.5 920,-134.5 920,-113.5 1132,-113.5 1132,-134.5"/>
<text text-anchor="middle" x="1026" y="-121.5" font-family="Vera" font-size="10.00">topo.tkgui.topoconsole.ControllableMenu</text>
</g>
<!-- paramtk.Menu -->
<g id="node15" class="node"><title>paramtk.Menu</title>
<polygon fill="none" stroke="black" stroke-width="0.5" points="846,-134.5 760,-134.5 760,-113.5 846,-113.5 846,-134.5"/>
<text text-anchor="middle" x="803" y="-121.5" font-family="Vera" font-size="10.00">paramtk.Menu</text>
</g>
<!-- paramtk.Menu&#45;&gt;topo.tkgui.topoconsole.ControllableMenu -->
<g id="edge12" class="edge"><title>paramtk.Menu&#45;&gt;topo.tkgui.topoconsole.ControllableMenu</title>
<path fill="none" stroke="black" stroke-width="0.5" d="M846.261,-124C866.009,-124 890.396,-124 914.767,-124"/>
<polygon fill="black" stroke="black" points="914.965,-125.75 919.965,-124 914.965,-122.25 914.965,-125.75"/>
</g>
<!-- Tkinter.Place -->
<g id="node17" class="node"><title>Tkinter.Place</title>
<polygon fill="none" stroke="black" stroke-width="0.5" points="200,-134.5 124,-134.5 124,-113.5 200,-113.5 200,-134.5"/>
<text text-anchor="middle" x="162" y="-121.5" font-family="Vera" font-size="10.00">Tkinter.Place</text>
</g>
<!-- Tkinter.Place&#45;&gt;Tkinter.Widget -->
<g id="edge20" class="edge"><title>Tkinter.Place&#45;&gt;Tkinter.Widget</title>
<path fill="none" stroke="black" stroke-width="0.5" d="M200.747,-124C230.175,-124 270.777,-124 302.051,-124"/>
<polygon fill="black" stroke="black" points="302.381,-125.75 307.381,-124 302.381,-122.25 302.381,-125.75"/>
</g>
<!-- Tkinter.Grid -->
<g id="node18" class="node"><title>Tkinter.Grid</title>
<polygon fill="none" stroke="black" stroke-width="0.5" points="197,-210.5 127,-210.5 127,-189.5 197,-189.5 197,-210.5"/>
<text text-anchor="middle" x="162" y="-197.5" font-family="Vera" font-size="10.00">Tkinter.Grid</text>
</g>
<!-- Tkinter.Grid&#45;&gt;Tkinter.Widget -->
<g id="edge22" class="edge"><title>Tkinter.Grid&#45;&gt;Tkinter.Widget</title>
<path fill="none" stroke="black" stroke-width="0.5" d="M197.705,-190.148C204.052,-187.651 210.413,-184.623 216,-181 235.519,-168.341 231.616,-154.213 252,-143 267.261,-134.605 285.669,-129.88 302.329,-127.235"/>
<polygon fill="black" stroke="black" points="302.748,-128.942 307.438,-126.479 302.236,-125.48 302.748,-128.942"/>
</g>
<!-- Tkinter.Widget&#45;&gt;paramtk.tilewrapper.Widget -->
<g id="edge28" class="edge"><title>Tkinter.Widget&#45;&gt;paramtk.tilewrapper.Widget</title>
<path fill="none" stroke="black" stroke-width="0.5" d="M390.743,-130.75C425.581,-136.383 475.909,-144.521 516.472,-151.081"/>
<polygon fill="black" stroke="black" points="516.659,-152.884 521.875,-151.954 517.218,-149.428 516.659,-152.884"/>
</g>
<!-- Tkinter.Menu -->
<g id="node27" class="node"><title>Tkinter.Menu</title>
<polygon fill="none" stroke="black" stroke-width="0.5" points="622,-134.5 546,-134.5 546,-113.5 622,-113.5 622,-134.5"/>
<text text-anchor="middle" x="584" y="-121.5" font-family="Vera" font-size="10.00">Tkinter.Menu</text>
</g>
<!-- Tkinter.Widget&#45;&gt;Tkinter.Menu -->
<g id="edge42" class="edge"><title>Tkinter.Widget&#45;&gt;Tkinter.Menu</title>
<path fill="none" stroke="black" stroke-width="0.5" d="M390.743,-124C432.821,-124 497.495,-124 540.269,-124"/>
<polygon fill="black" stroke="black" points="540.373,-125.75 545.373,-124 540.373,-122.25 540.373,-125.75"/>
</g>
<!-- Tkinter.Pack -->
<g id="node23" class="node"><title>Tkinter.Pack</title>
<polygon fill="none" stroke="black" stroke-width="0.5" points="198,-172.5 126,-172.5 126,-151.5 198,-151.5 198,-172.5"/>
<text text-anchor="middle" x="162" y="-159.5" font-family="Vera" font-size="10.00">Tkinter.Pack</text>
</g>
<!-- Tkinter.Pack&#45;&gt;Tkinter.Widget -->
<g id="edge18" class="edge"><title>Tkinter.Pack&#45;&gt;Tkinter.Widget</title>
<path fill="none" stroke="black" stroke-width="0.5" d="M198.757,-154.113C215.056,-150.649 234.473,-146.566 252,-143 268.316,-139.68 286.199,-136.147 302.117,-133.04"/>
<polygon fill="black" stroke="black" points="302.862,-134.677 307.435,-132.003 302.193,-131.242 302.862,-134.677"/>
</g>
<!-- Tkinter.Menu&#45;&gt;paramtk.Menu -->
<g id="edge24" class="edge"><title>Tkinter.Menu&#45;&gt;paramtk.Menu</title>
<path fill="none" stroke="black" stroke-width="0.5" d="M622.649,-124C659.432,-124 714.908,-124 754.613,-124"/>
<polygon fill="black" stroke="black" points="754.862,-125.75 759.862,-124 754.862,-122.25 754.862,-125.75"/>
</g>
<!-- Tkinter.Misc -->
<g id="node29" class="node"><title>Tkinter.Misc</title>
<polygon fill="none" stroke="black" stroke-width="0.5" points="72,-96.5 2.84217e-14,-96.5 0,-75.5 72,-75.5 72,-96.5"/>
<text text-anchor="middle" x="36" y="-83.5" font-family="Vera" font-size="10.00">Tkinter.Misc</text>
</g>
<!-- Tkinter.Misc&#45;&gt;Tkinter.BaseWidget -->
<g id="edge26" class="edge"><title>Tkinter.Misc&#45;&gt;Tkinter.BaseWidget</title>
<path fill="none" stroke="black" stroke-width="0.5" d="M72.1065,-86C81.7306,-86 92.3855,-86 102.895,-86"/>
<polygon fill="black" stroke="black" points="103.038,-87.7501 108.038,-86 103.038,-84.2501 103.038,-87.7501"/>
</g>
<!-- paramtk.tilewrapper.Style -->
<g id="node32" class="node"><title>paramtk.tilewrapper.Style</title>
<polygon fill="none" stroke="black" stroke-width="0.5" points="418,-172.5 280,-172.5 280,-151.5 418,-151.5 418,-172.5"/>
<text text-anchor="middle" x="349" y="-159.5" font-family="Vera" font-size="10.00">paramtk.tilewrapper.Style</text>
</g>
<!-- paramtk.tilewrapper.Style&#45;&gt;paramtk.tilewrapper.Widget -->
<g id="edge30" class="edge"><title>paramtk.tilewrapper.Style&#45;&gt;paramtk.tilewrapper.Widget</title>
<path fill="none" stroke="black" stroke-width="0.5" d="M418.554,-162C445.693,-162 476.951,-162 504.939,-162"/>
<polygon fill="black" stroke="black" points="505.125,-163.75 510.125,-162 505.125,-160.25 505.125,-163.75"/>
</g>
<!-- paramtk.AppWindow -->
<g id="node38" class="node"><title>paramtk.AppWindow</title>
<polygon fill="none" stroke="black" stroke-width="0.5" points="860,-96.5 746,-96.5 746,-75.5 860,-75.5 860,-96.5"/>
<text text-anchor="middle" x="803" y="-83.5" font-family="Vera" font-size="10.00">paramtk.AppWindow</text>
</g>
<!-- paramtk.ScrolledWindow&#45;&gt;paramtk.AppWindow -->
<g id="edge36" class="edge"><title>paramtk.ScrolledWindow&#45;&gt;paramtk.AppWindow</title>
<path fill="none" stroke="black" stroke-width="0.5" d="M651.196,-86C679.722,-86 712.775,-86 740.742,-86"/>
<polygon fill="black" stroke="black" points="740.902,-87.7501 745.902,-86 740.902,-84.2501 740.902,-87.7501"/>
</g>
<!-- paramtk.AppWindow&#45;&gt;topo.tkgui.topoconsole.TopoConsole -->
<g id="edge38" class="edge"><title>paramtk.AppWindow&#45;&gt;topo.tkgui.topoconsole.TopoConsole</title>
<path fill="none" stroke="black" stroke-width="0.5" d="M860.138,-81.1317C880.294,-79.4144 903.587,-77.4298 926.228,-75.5008"/>
<polygon fill="black" stroke="black" points="926.519,-77.2324 931.352,-75.0642 926.222,-73.745 926.519,-77.2324"/>
</g>
</g>
</svg>
