<?xml version="1.0" encoding="UTF-8" standalone="no"?>
<!DOCTYPE svg PUBLIC "-//W3C//DTD SVG 1.1//EN"
 "http://www.w3.org/Graphics/SVG/1.1/DTD/svg11.dtd">
<!-- Generated by graphviz version 2.26.3 (20100126.1600)
 -->
<!-- Title: inheritance8ed98380c7 Pages: 1 -->
<svg width="704pt" height="170pt"
 viewBox="0.00 0.00 704.00 170.00" xmlns="http://www.w3.org/2000/svg" xmlns:xlink="http://www.w3.org/1999/xlink">
<g id="graph1" class="graph" transform="scale(1 1) rotate(0) translate(4 166)">
<title>inheritance8ed98380c7</title>
<polygon fill="white" stroke="white" points="-4,5 -4,-166 701,-166 701,5 -4,5"/>
<!-- param.parameterized.Parameterized -->
<g id="node1" class="node"><title>param.parameterized.Parameterized</title>
<polygon fill="none" stroke="black" stroke-width="0.5" points="194,-105.5 5.68434e-14,-105.5 0,-84.5 194,-84.5 194,-105.5"/>
<text text-anchor="middle" x="97" y="-92.5" font-family="Vera" font-size="10.00">param.parameterized.Parameterized</text>
</g>
<!-- topo.base.functionfamily.PatternDrivenAnalysis -->
<g id="node2" class="node"><title>topo.base.functionfamily.PatternDrivenAnalysis</title>
<polygon fill="none" stroke="black" stroke-width="0.5" points="470,-162.5 230,-162.5 230,-141.5 470,-141.5 470,-162.5"/>
<text text-anchor="middle" x="350" y="-149.5" font-family="Vera" font-size="10.00">topo.base.functionfamily.PatternDrivenAnalysis</text>
</g>
<!-- param.parameterized.Parameterized&#45;&gt;topo.base.functionfamily.PatternDrivenAnalysis -->
<g id="edge2" class="edge"><title>param.parameterized.Parameterized&#45;&gt;topo.base.functionfamily.PatternDrivenAnalysis</title>
<path fill="none" stroke="black" stroke-width="0.5" d="M128.167,-105.065C154.948,-113.434 194.711,-125.195 230,-133 243.573,-136.002 258.112,-138.718 272.218,-141.095"/>
<polygon fill="black" stroke="black" points="272.173,-142.862 277.393,-141.956 272.748,-139.409 272.173,-142.862"/>
</g>
<!-- topo.base.functionfamily.ResponseFn -->
<g id="node5" class="node"><title>topo.base.functionfamily.ResponseFn</title>
<polygon fill="none" stroke="black" stroke-width="0.5" points="446,-124.5 254,-124.5 254,-103.5 446,-103.5 446,-124.5"/>
<text text-anchor="middle" x="350" y="-111.5" font-family="Vera" font-size="10.00">topo.base.functionfamily.ResponseFn</text>
</g>
<!-- param.parameterized.Parameterized&#45;&gt;topo.base.functionfamily.ResponseFn -->
<g id="edge16" class="edge"><title>param.parameterized.Parameterized&#45;&gt;topo.base.functionfamily.ResponseFn</title>
<path fill="none" stroke="black" stroke-width="0.5" d="M194.093,-102.292C211.798,-103.621 230.317,-105.012 248.155,-106.352"/>
<polygon fill="black" stroke="black" points="248.05,-108.099 253.167,-106.728 248.312,-104.608 248.05,-108.099"/>
</g>
<!-- topo.base.functionfamily.LearningFn -->
<g id="node8" class="node"><title>topo.base.functionfamily.LearningFn</title>
<polygon fill="none" stroke="black" stroke-width="0.5" points="444,-86.5 256,-86.5 256,-65.5 444,-65.5 444,-86.5"/>
<text text-anchor="middle" x="350" y="-73.5" font-family="Vera" font-size="10.00">topo.base.functionfamily.LearningFn</text>
</g>
<!-- param.parameterized.Parameterized&#45;&gt;topo.base.functionfamily.LearningFn -->
<g id="edge12" class="edge"><title>param.parameterized.Parameterized&#45;&gt;topo.base.functionfamily.LearningFn</title>
<path fill="none" stroke="black" stroke-width="0.5" d="M194.093,-87.7084C212.562,-86.3214 231.917,-84.8679 250.461,-83.4753"/>
<polygon fill="black" stroke="black" points="250.814,-85.2038 255.668,-83.0842 250.551,-81.7136 250.814,-85.2038"/>
</g>
<!-- topo.base.functionfamily.CoordinateMapperFn -->
<g id="node13" class="node"><title>topo.base.functionfamily.CoordinateMapperFn</title>
<polygon fill="none" stroke="black" stroke-width="0.5" points="468,-39.5 232,-39.5 232,-18.5 468,-18.5 468,-39.5"/>
<text text-anchor="middle" x="350" y="-26.5" font-family="Vera" font-size="10.00">topo.base.functionfamily.CoordinateMapperFn</text>
</g>
<!-- param.parameterized.Parameterized&#45;&gt;topo.base.functionfamily.CoordinateMapperFn -->
<g id="edge14" class="edge"><title>param.parameterized.Parameterized&#45;&gt;topo.base.functionfamily.CoordinateMapperFn</title>
<path fill="none" stroke="black" stroke-width="0.5" d="M130.492,-84.9382C157.312,-77.0002 195.946,-65.8322 230,-57 252.718,-51.108 278.002,-45.1239 299.481,-40.2086"/>
<polygon fill="black" stroke="black" points="300.084,-41.866 304.57,-39.0477 299.306,-38.4536 300.084,-41.866"/>
</g>
<!-- topo.base.functionfamily.DotProduct -->
<g id="node4" class="node"><title>topo.base.functionfamily.DotProduct</title>
<polygon fill="none" stroke="black" stroke-width="0.5" points="696,-134.5 506,-134.5 506,-113.5 696,-113.5 696,-134.5"/>
<text text-anchor="middle" x="601" y="-121.5" font-family="Vera" font-size="10.00">topo.base.functionfamily.DotProduct</text>
</g>
<!-- topo.base.functionfamily.ResponseFn&#45;&gt;topo.base.functionfamily.DotProduct -->
<g id="edge4" class="edge"><title>topo.base.functionfamily.ResponseFn&#45;&gt;topo.base.functionfamily.DotProduct</title>
<path fill="none" stroke="black" stroke-width="0.5" d="M446.684,-117.852C464.206,-118.55 482.519,-119.28 500.157,-119.982"/>
<polygon fill="black" stroke="black" points="500.541,-121.749 505.607,-120.199 500.681,-118.252 500.541,-121.749"/>
</g>
<!-- topo.base.functionfamily.Hebbian -->
<g id="node7" class="node"><title>topo.base.functionfamily.Hebbian</title>
<polygon fill="none" stroke="black" stroke-width="0.5" points="689,-96.5 513,-96.5 513,-75.5 689,-75.5 689,-96.5"/>
<text text-anchor="middle" x="601" y="-83.5" font-family="Vera" font-size="10.00">topo.base.functionfamily.Hebbian</text>
</g>
<!-- topo.base.functionfamily.LearningFn&#45;&gt;topo.base.functionfamily.Hebbian -->
<g id="edge6" class="edge"><title>topo.base.functionfamily.LearningFn&#45;&gt;topo.base.functionfamily.Hebbian</title>
<path fill="none" stroke="black" stroke-width="0.5" d="M444.177,-79.7521C464.952,-80.5798 486.95,-81.4562 507.69,-82.2825"/>
<polygon fill="black" stroke="black" points="507.868,-84.0409 512.934,-82.4914 508.008,-80.5437 507.868,-84.0409"/>
</g>
<!-- topo.base.functionfamily.IdentityLF -->
<g id="node10" class="node"><title>topo.base.functionfamily.IdentityLF</title>
<polygon fill="none" stroke="black" stroke-width="0.5" points="692,-58.5 510,-58.5 510,-37.5 692,-37.5 692,-58.5"/>
<text text-anchor="middle" x="601" y="-45.5" font-family="Vera" font-size="10.00">topo.base.functionfamily.IdentityLF</text>
</g>
<!-- topo.base.functionfamily.LearningFn&#45;&gt;topo.base.functionfamily.IdentityLF -->
<g id="edge8" class="edge"><title>topo.base.functionfamily.LearningFn&#45;&gt;topo.base.functionfamily.IdentityLF</title>
<path fill="none" stroke="black" stroke-width="0.5" d="M439.908,-65.9704C461.395,-63.5734 484.4,-61.0071 506.105,-58.5859"/>
<polygon fill="black" stroke="black" points="506.523,-60.3002 511.298,-58.0066 506.135,-56.8218 506.523,-60.3002"/>
</g>
<!-- topo.base.functionfamily.IdentityMF -->
<g id="node12" class="node"><title>topo.base.functionfamily.IdentityMF</title>
<polygon fill="none" stroke="black" stroke-width="0.5" points="693,-20.5 509,-20.5 509,0.5 693,0.5 693,-20.5"/>
<text text-anchor="middle" x="601" y="-7.5" font-family="Vera" font-size="10.00">topo.base.functionfamily.IdentityMF</text>
</g>
<!-- topo.base.functionfamily.CoordinateMapperFn&#45;&gt;topo.base.functionfamily.IdentityMF -->
<g id="edge10" class="edge"><title>topo.base.functionfamily.CoordinateMapperFn&#45;&gt;topo.base.functionfamily.IdentityMF</title>
<path fill="none" stroke="black" stroke-width="0.5" d="M468.15,-20.0564C479.838,-19.1716 491.612,-18.2804 503.063,-17.4136"/>
<polygon fill="black" stroke="black" points="503.446,-19.1396 508.3,-17.0171 503.182,-15.6496 503.446,-19.1396"/>
</g>
</g>
</svg>
