<?xml version="1.0" encoding="UTF-8" standalone="no"?>
<!DOCTYPE svg PUBLIC "-//W3C//DTD SVG 1.1//EN"
 "http://www.w3.org/Graphics/SVG/1.1/DTD/svg11.dtd">
<!-- Generated by graphviz version 2.26.3 (20100126.1600)
 -->
<!-- Title: inheritance95afd34832 Pages: 1 -->
<svg width="1474pt" height="593pt"
 viewBox="0.00 0.00 1474.00 593.00" xmlns="http://www.w3.org/2000/svg" xmlns:xlink="http://www.w3.org/1999/xlink">
<g id="graph1" class="graph" transform="scale(1 1) rotate(0) translate(4 589)">
<title>inheritance95afd34832</title>
<polygon fill="white" stroke="white" points="-4,5 -4,-589 1471,-589 1471,5 -4,5"/>
<!-- Tkinter.Wm -->
<g id="node1" class="node"><title>Tkinter.Wm</title>
<polygon fill="none" stroke="black" stroke-width="0.5" points="343,-395.5 275,-395.5 275,-374.5 343,-374.5 343,-395.5"/>
<text text-anchor="middle" x="309" y="-382.5" font-family="Vera" font-size="10.00">Tkinter.Wm</text>
</g>
<!-- Tkinter.Toplevel -->
<g id="node41" class="node"><title>Tkinter.Toplevel</title>
<polygon fill="none" stroke="black" stroke-width="0.5" points="568,-395.5 480,-395.5 480,-374.5 568,-374.5 568,-395.5"/>
<text text-anchor="middle" x="524" y="-382.5" font-family="Vera" font-size="10.00">Tkinter.Toplevel</text>
</g>
<!-- Tkinter.Wm&#45;&gt;Tkinter.Toplevel -->
<g id="edge36" class="edge"><title>Tkinter.Wm&#45;&gt;Tkinter.Toplevel</title>
<path fill="none" stroke="black" stroke-width="0.5" d="M343.543,-385C378.874,-385 434.11,-385 474.169,-385"/>
<polygon fill="black" stroke="black" points="474.47,-386.75 479.47,-385 474.47,-383.25 474.47,-386.75"/>
</g>
<!-- param.parameterized.Parameterized -->
<g id="node2" class="node"><title>param.parameterized.Parameterized</title>
<polygon fill="none" stroke="black" stroke-width="0.5" points="406,-39.5 212,-39.5 212,-18.5 406,-18.5 406,-39.5"/>
<text text-anchor="middle" x="309" y="-26.5" font-family="Vera" font-size="10.00">param.parameterized.Parameterized</text>
</g>
<!-- paramtk.Representer -->
<g id="node34" class="node"><title>paramtk.Representer</title>
<polygon fill="none" stroke="black" stroke-width="0.5" points="583,-58.5 465,-58.5 465,-37.5 583,-37.5 583,-58.5"/>
<text text-anchor="middle" x="524" y="-45.5" font-family="Vera" font-size="10.00">paramtk.Representer</text>
</g>
<!-- param.parameterized.Parameterized&#45;&gt;paramtk.Representer -->
<g id="edge58" class="edge"><title>param.parameterized.Parameterized&#45;&gt;paramtk.Representer</title>
<path fill="none" stroke="black" stroke-width="0.5" d="M406.121,-37.5828C424.274,-39.187 442.826,-40.8265 459.679,-42.3158"/>
<polygon fill="black" stroke="black" points="459.718,-44.076 464.853,-42.773 460.026,-40.5896 459.718,-44.076"/>
</g>
<!-- paramtk.TkParameterizedBase -->
<g id="node64" class="node"><title>paramtk.TkParameterizedBase</title>
<polygon fill="none" stroke="black" stroke-width="0.5" points="606,-20.5 442,-20.5 442,0.5 606,0.5 606,-20.5"/>
<text text-anchor="middle" x="524" y="-7.5" font-family="Vera" font-size="10.00">paramtk.TkParameterizedBase</text>
</g>
<!-- param.parameterized.Parameterized&#45;&gt;paramtk.TkParameterizedBase -->
<g id="edge70" class="edge"><title>param.parameterized.Parameterized&#45;&gt;paramtk.TkParameterizedBase</title>
<path fill="none" stroke="black" stroke-width="0.5" d="M406.121,-20.4172C416.261,-19.5211 426.525,-18.6141 436.548,-17.7283"/>
<polygon fill="black" stroke="black" points="436.939,-19.4507 441.766,-17.2672 436.631,-15.9642 436.939,-19.4507"/>
</g>
<!-- paramtk.ParametersFrameWithApply -->
<g id="node3" class="node"><title>paramtk.ParametersFrameWithApply</title>
<polygon fill="none" stroke="black" stroke-width="0.5" points="1206,-20.5 1014,-20.5 1014,0.5 1206,0.5 1206,-20.5"/>
<text text-anchor="middle" x="1110" y="-7.5" font-family="Vera" font-size="10.00">paramtk.ParametersFrameWithApply</text>
</g>
<!-- paramtk.EditingParametersFrameWithApply -->
<g id="node46" class="node"><title>paramtk.EditingParametersFrameWithApply</title>
<polygon fill="none" stroke="black" stroke-width="0.5" points="1466,-20.5 1242,-20.5 1242,0.5 1466,0.5 1466,-20.5"/>
<text text-anchor="middle" x="1354" y="-7.5" font-family="Vera" font-size="10.00">paramtk.EditingParametersFrameWithApply</text>
</g>
<!-- paramtk.ParametersFrameWithApply&#45;&gt;paramtk.EditingParametersFrameWithApply -->
<g id="edge40" class="edge"><title>paramtk.ParametersFrameWithApply&#45;&gt;paramtk.EditingParametersFrameWithApply</title>
<path fill="none" stroke="black" stroke-width="0.5" d="M1206.09,-10C1216.17,-10 1226.5,-10 1236.79,-10"/>
<polygon fill="black" stroke="black" points="1236.84,-11.7501 1241.84,-10 1236.84,-8.2501 1236.84,-11.7501"/>
</g>
<!-- paramtk.ParametersFrame -->
<g id="node4" class="node"><title>paramtk.ParametersFrame</title>
<polygon fill="none" stroke="black" stroke-width="0.5" points="976,-20.5 830,-20.5 830,0.5 976,0.5 976,-20.5"/>
<text text-anchor="middle" x="903" y="-7.5" font-family="Vera" font-size="10.00">paramtk.ParametersFrame</text>
</g>
<!-- paramtk.ParametersFrame&#45;&gt;paramtk.ParametersFrameWithApply -->
<g id="edge2" class="edge"><title>paramtk.ParametersFrame&#45;&gt;paramtk.ParametersFrameWithApply</title>
<path fill="none" stroke="black" stroke-width="0.5" d="M976.272,-10C986.862,-10 997.915,-10 1008.93,-10"/>
<polygon fill="black" stroke="black" points="1008.99,-11.7501 1013.99,-10 1008.99,-8.2501 1008.99,-11.7501"/>
</g>
<!-- paramtk.DoNothingTranslator -->
<g id="node6" class="node"><title>paramtk.DoNothingTranslator</title>
<polygon fill="none" stroke="black" stroke-width="0.5" points="388,-547.5 230,-547.5 230,-526.5 388,-526.5 388,-547.5"/>
<text text-anchor="middle" x="309" y="-534.5" font-family="Vera" font-size="10.00">paramtk.DoNothingTranslator</text>
</g>
<!-- paramtk.BoolTranslator -->
<g id="node84" class="node"><title>paramtk.BoolTranslator</title>
<polygon fill="none" stroke="black" stroke-width="0.5" points="588,-547.5 460,-547.5 460,-526.5 588,-526.5 588,-547.5"/>
<text text-anchor="middle" x="524" y="-534.5" font-family="Vera" font-size="10.00">paramtk.BoolTranslator</text>
</g>
<!-- paramtk.DoNothingTranslator&#45;&gt;paramtk.BoolTranslator -->
<g id="edge82" class="edge"><title>paramtk.DoNothingTranslator&#45;&gt;paramtk.BoolTranslator</title>
<path fill="none" stroke="black" stroke-width="0.5" d="M388.142,-537C409.979,-537 433.497,-537 454.728,-537"/>
<polygon fill="black" stroke="black" points="454.788,-538.75 459.788,-537 454.788,-535.25 454.788,-538.75"/>
</g>
<!-- paramtk.Translator -->
<g id="node7" class="node"><title>paramtk.Translator</title>
<polygon fill="none" stroke="black" stroke-width="0.5" points="141,-490.5 35,-490.5 35,-469.5 141,-469.5 141,-490.5"/>
<text text-anchor="middle" x="88" y="-477.5" font-family="Vera" font-size="10.00">paramtk.Translator</text>
</g>
<!-- paramtk.Translator&#45;&gt;paramtk.DoNothingTranslator -->
<g id="edge4" class="edge"><title>paramtk.Translator&#45;&gt;paramtk.DoNothingTranslator</title>
<path fill="none" stroke="black" stroke-width="0.5" d="M117.572,-490.012C142.543,-498.236 179.347,-509.822 212,-518 223.434,-520.864 235.715,-523.558 247.566,-525.969"/>
<polygon fill="black" stroke="black" points="247.368,-527.714 252.615,-526.984 248.058,-524.282 247.368,-527.714"/>
</g>
<!-- paramtk.String_ObjectTranslator -->
<g id="node17" class="node"><title>paramtk.String_ObjectTranslator</title>
<polygon fill="none" stroke="black" stroke-width="0.5" points="394,-509.5 224,-509.5 224,-488.5 394,-488.5 394,-509.5"/>
<text text-anchor="middle" x="309" y="-496.5" font-family="Vera" font-size="10.00">paramtk.String_ObjectTranslator</text>
</g>
<!-- paramtk.Translator&#45;&gt;paramtk.String_ObjectTranslator -->
<g id="edge12" class="edge"><title>paramtk.Translator&#45;&gt;paramtk.String_ObjectTranslator</title>
<path fill="none" stroke="black" stroke-width="0.5" d="M141.78,-484.624C164.778,-486.601 192.273,-488.965 218.261,-491.199"/>
<polygon fill="black" stroke="black" points="218.305,-492.959 223.437,-491.644 218.605,-489.472 218.305,-492.959"/>
</g>
<!-- paramtk.ListTranslator -->
<g id="node28" class="node"><title>paramtk.ListTranslator</title>
<polygon fill="none" stroke="black" stroke-width="0.5" points="370,-471.5 248,-471.5 248,-450.5 370,-450.5 370,-471.5"/>
<text text-anchor="middle" x="309" y="-458.5" font-family="Vera" font-size="10.00">paramtk.ListTranslator</text>
</g>
<!-- paramtk.Translator&#45;&gt;paramtk.ListTranslator -->
<g id="edge20" class="edge"><title>paramtk.Translator&#45;&gt;paramtk.ListTranslator</title>
<path fill="none" stroke="black" stroke-width="0.5" d="M141.78,-475.376C171.978,-472.78 209.931,-469.517 242.043,-466.756"/>
<polygon fill="black" stroke="black" points="242.313,-468.49 247.145,-466.318 242.013,-465.003 242.313,-468.49"/>
</g>
<!-- paramtk.Eval_ReprTranslator -->
<g id="node59" class="node"><title>paramtk.Eval_ReprTranslator</title>
<polygon fill="none" stroke="black" stroke-width="0.5" points="385,-433.5 233,-433.5 233,-412.5 385,-412.5 385,-433.5"/>
<text text-anchor="middle" x="309" y="-420.5" font-family="Vera" font-size="10.00">paramtk.Eval_ReprTranslator</text>
</g>
<!-- paramtk.Translator&#45;&gt;paramtk.Eval_ReprTranslator -->
<g id="edge52" class="edge"><title>paramtk.Translator&#45;&gt;paramtk.Eval_ReprTranslator</title>
<path fill="none" stroke="black" stroke-width="0.5" d="M117.572,-469.988C142.543,-461.764 179.347,-450.178 212,-442 223.434,-439.136 235.715,-436.442 247.566,-434.031"/>
<polygon fill="black" stroke="black" points="248.058,-435.718 252.615,-433.016 247.368,-432.286 248.058,-435.718"/>
</g>
<!-- paramtk.HackFileEntry -->
<g id="node9" class="node"><title>paramtk.HackFileEntry</title>
<polygon fill="none" stroke="black" stroke-width="0.5" points="965,-210.5 841,-210.5 841,-189.5 965,-189.5 965,-210.5"/>
<text text-anchor="middle" x="903" y="-197.5" font-family="Vera" font-size="10.00">paramtk.HackFileEntry</text>
</g>
<!-- Tkinter.Frame -->
<g id="node10" class="node"><title>Tkinter.Frame</title>
<polygon fill="none" stroke="black" stroke-width="0.5" points="757,-215.5 677,-215.5 677,-194.5 757,-194.5 757,-215.5"/>
<text text-anchor="middle" x="717" y="-202.5" font-family="Vera" font-size="10.00">Tkinter.Frame</text>
</g>
<!-- Tkinter.Frame&#45;&gt;paramtk.ParametersFrame -->
<g id="edge62" class="edge"><title>Tkinter.Frame&#45;&gt;paramtk.ParametersFrame</title>
<path fill="none" stroke="black" stroke-width="0.5" d="M757.706,-202.818C770.186,-200.198 782.986,-195.221 792,-186 842.043,-134.808 777.957,-80.1924 828,-29 830.28,-26.6677 832.802,-24.607 835.5,-22.7872"/>
<polygon fill="black" stroke="black" points="836.515,-24.2177 839.875,-20.1215 834.694,-21.2289 836.515,-24.2177"/>
</g>
<!-- Tkinter.Frame&#45;&gt;paramtk.HackFileEntry -->
<g id="edge6" class="edge"><title>Tkinter.Frame&#45;&gt;paramtk.HackFileEntry</title>
<path fill="none" stroke="black" stroke-width="0.5" d="M757.818,-203.903C780.576,-203.291 809.498,-202.514 835.527,-201.814"/>
<polygon fill="black" stroke="black" points="835.741,-203.559 840.692,-201.675 835.647,-200.06 835.741,-203.559"/>
</g>
<!-- paramtk.ProgressWindow -->
<g id="node20" class="node"><title>paramtk.ProgressWindow</title>
<polygon fill="none" stroke="black" stroke-width="0.5" points="971,-324.5 835,-324.5 835,-303.5 971,-303.5 971,-324.5"/>
<text text-anchor="middle" x="903" y="-311.5" font-family="Vera" font-size="10.00">paramtk.ProgressWindow</text>
</g>
<!-- Tkinter.Frame&#45;&gt;paramtk.ProgressWindow -->
<g id="edge16" class="edge"><title>Tkinter.Frame&#45;&gt;paramtk.ProgressWindow</title>
<path fill="none" stroke="black" stroke-width="0.5" d="M744.655,-215.094C759.753,-221.518 778.138,-230.913 792,-243 813.186,-261.474 804.907,-278.974 828,-295 831.809,-297.643 835.954,-299.919 840.275,-301.879"/>
<polygon fill="black" stroke="black" points="839.739,-303.552 845.026,-303.883 841.1,-300.327 839.739,-303.552"/>
</g>
<!-- paramtk.ListItemCtrlWidget -->
<g id="node25" class="node"><title>paramtk.ListItemCtrlWidget</title>
<polygon fill="none" stroke="black" stroke-width="0.5" points="976,-172.5 830,-172.5 830,-151.5 976,-151.5 976,-172.5"/>
<text text-anchor="middle" x="903" y="-159.5" font-family="Vera" font-size="10.00">paramtk.ListItemCtrlWidget</text>
</g>
<!-- Tkinter.Frame&#45;&gt;paramtk.ListItemCtrlWidget -->
<g id="edge18" class="edge"><title>Tkinter.Frame&#45;&gt;paramtk.ListItemCtrlWidget</title>
<path fill="none" stroke="black" stroke-width="0.5" d="M757.818,-195.563C786.326,-188.973 824.505,-180.147 854.556,-173.199"/>
<polygon fill="black" stroke="black" points="855.209,-174.845 859.686,-172.013 854.421,-171.435 855.209,-174.845"/>
</g>
<!-- paramtk.TaggedSlider -->
<g id="node51" class="node"><title>paramtk.TaggedSlider</title>
<polygon fill="none" stroke="black" stroke-width="0.5" points="963,-134.5 843,-134.5 843,-113.5 963,-113.5 963,-134.5"/>
<text text-anchor="middle" x="903" y="-121.5" font-family="Vera" font-size="10.00">paramtk.TaggedSlider</text>
</g>
<!-- Tkinter.Frame&#45;&gt;paramtk.TaggedSlider -->
<g id="edge44" class="edge"><title>Tkinter.Frame&#45;&gt;paramtk.TaggedSlider</title>
<path fill="none" stroke="black" stroke-width="0.5" d="M757.796,-199.506C769.455,-196.689 781.764,-192.431 792,-186 813.105,-172.74 806.895,-156.26 828,-143 832.35,-140.267 837.075,-137.926 841.965,-135.922"/>
<polygon fill="black" stroke="black" points="842.861,-137.452 846.903,-134.027 841.608,-134.185 842.861,-137.452"/>
</g>
<!-- paramtk.StatusBar -->
<g id="node79" class="node"><title>paramtk.StatusBar</title>
<polygon fill="none" stroke="black" stroke-width="0.5" points="957,-96.5 849,-96.5 849,-75.5 957,-75.5 957,-96.5"/>
<text text-anchor="middle" x="903" y="-83.5" font-family="Vera" font-size="10.00">paramtk.StatusBar</text>
</g>
<!-- Tkinter.Frame&#45;&gt;paramtk.StatusBar -->
<g id="edge76" class="edge"><title>Tkinter.Frame&#45;&gt;paramtk.StatusBar</title>
<path fill="none" stroke="black" stroke-width="0.5" d="M757.881,-201.492C769.939,-198.76 782.448,-194.051 792,-186 822.123,-160.61 797.877,-130.39 828,-105 832.734,-101.01 838.195,-97.8405 843.967,-95.3259"/>
<polygon fill="black" stroke="black" points="844.886,-96.8436 848.88,-93.3639 843.587,-93.5931 844.886,-96.8436"/>
</g>
<!-- paramtk.ListWidget -->
<g id="node81" class="node"><title>paramtk.ListWidget</title>
<polygon fill="none" stroke="black" stroke-width="0.5" points="957,-286.5 849,-286.5 849,-265.5 957,-265.5 957,-286.5"/>
<text text-anchor="middle" x="903" y="-273.5" font-family="Vera" font-size="10.00">paramtk.ListWidget</text>
</g>
<!-- Tkinter.Frame&#45;&gt;paramtk.ListWidget -->
<g id="edge78" class="edge"><title>Tkinter.Frame&#45;&gt;paramtk.ListWidget</title>
<path fill="none" stroke="black" stroke-width="0.5" d="M735.785,-215.15C757.493,-226.558 794.533,-245.044 828,-257 835.752,-259.769 844.09,-262.301 852.289,-264.551"/>
<polygon fill="black" stroke="black" points="852.088,-266.309 857.371,-265.915 852.995,-262.929 852.088,-266.309"/>
</g>
<!-- paramtk.ScrolledFrame -->
<g id="node86" class="node"><title>paramtk.ScrolledFrame</title>
<polygon fill="none" stroke="black" stroke-width="0.5" points="967,-248.5 839,-248.5 839,-227.5 967,-227.5 967,-248.5"/>
<text text-anchor="middle" x="903" y="-235.5" font-family="Vera" font-size="10.00">paramtk.ScrolledFrame</text>
</g>
<!-- Tkinter.Frame&#45;&gt;paramtk.ScrolledFrame -->
<g id="edge84" class="edge"><title>Tkinter.Frame&#45;&gt;paramtk.ScrolledFrame</title>
<path fill="none" stroke="black" stroke-width="0.5" d="M757.818,-212.242C782.282,-216.582 813.867,-222.186 841.327,-227.058"/>
<polygon fill="black" stroke="black" points="841.175,-228.808 846.404,-227.959 841.786,-225.362 841.175,-228.808"/>
</g>
<!-- paramtk.Button -->
<g id="node12" class="node"><title>paramtk.Button</title>
<polygon fill="none" stroke="black" stroke-width="0.5" points="570,-585.5 478,-585.5 478,-564.5 570,-564.5 570,-585.5"/>
<text text-anchor="middle" x="524" y="-572.5" font-family="Vera" font-size="10.00">paramtk.Button</text>
</g>
<!-- param.Callable -->
<g id="node13" class="node"><title>param.Callable</title>
<polygon fill="none" stroke="black" stroke-width="0.5" points="353,-585.5 265,-585.5 265,-564.5 353,-564.5 353,-585.5"/>
<text text-anchor="middle" x="309" y="-572.5" font-family="Vera" font-size="10.00">param.Callable</text>
</g>
<!-- param.Callable&#45;&gt;paramtk.Button -->
<g id="edge8" class="edge"><title>param.Callable&#45;&gt;paramtk.Button</title>
<path fill="none" stroke="black" stroke-width="0.5" d="M353.548,-575C388.132,-575 436.136,-575 472.391,-575"/>
<polygon fill="black" stroke="black" points="472.652,-576.75 477.652,-575 472.652,-573.25 472.652,-576.75"/>
</g>
<!-- Tkinter.Pack -->
<g id="node15" class="node"><title>Tkinter.Pack</title>
<polygon fill="none" stroke="black" stroke-width="0.5" points="345,-262.5 273,-262.5 273,-241.5 345,-241.5 345,-262.5"/>
<text text-anchor="middle" x="309" y="-249.5" font-family="Vera" font-size="10.00">Tkinter.Pack</text>
</g>
<!-- Tkinter.Widget -->
<g id="node36" class="node"><title>Tkinter.Widget</title>
<polygon fill="none" stroke="black" stroke-width="0.5" points="565,-224.5 483,-224.5 483,-203.5 565,-203.5 565,-224.5"/>
<text text-anchor="middle" x="524" y="-211.5" font-family="Vera" font-size="10.00">Tkinter.Widget</text>
</g>
<!-- Tkinter.Pack&#45;&gt;Tkinter.Widget -->
<g id="edge28" class="edge"><title>Tkinter.Pack&#45;&gt;Tkinter.Widget</title>
<path fill="none" stroke="black" stroke-width="0.5" d="M345.96,-245.468C382.269,-239.05 437.801,-229.235 477.179,-222.275"/>
<polygon fill="black" stroke="black" points="477.764,-223.949 482.383,-221.356 477.154,-220.503 477.764,-223.949"/>
</g>
<!-- paramtk.CSPTranslator -->
<g id="node16" class="node"><title>paramtk.CSPTranslator</title>
<polygon fill="none" stroke="black" stroke-width="0.5" points="587,-509.5 461,-509.5 461,-488.5 587,-488.5 587,-509.5"/>
<text text-anchor="middle" x="524" y="-496.5" font-family="Vera" font-size="10.00">paramtk.CSPTranslator</text>
</g>
<!-- paramtk.String_ObjectTranslator&#45;&gt;paramtk.CSPTranslator -->
<g id="edge10" class="edge"><title>paramtk.String_ObjectTranslator&#45;&gt;paramtk.CSPTranslator</title>
<path fill="none" stroke="black" stroke-width="0.5" d="M394.591,-499C414.822,-499 436.133,-499 455.493,-499"/>
<polygon fill="black" stroke="black" points="455.899,-500.75 460.899,-499 455.899,-497.25 455.899,-500.75"/>
</g>
<!-- paramtk.ProgressController -->
<g id="node21" class="node"><title>paramtk.ProgressController</title>
<polygon fill="none" stroke="black" stroke-width="0.5" points="791,-272.5 643,-272.5 643,-251.5 791,-251.5 791,-272.5"/>
<text text-anchor="middle" x="717" y="-259.5" font-family="Vera" font-size="10.00">paramtk.ProgressController</text>
</g>
<!-- paramtk.ProgressController&#45;&gt;paramtk.ProgressWindow -->
<g id="edge14" class="edge"><title>paramtk.ProgressController&#45;&gt;paramtk.ProgressWindow</title>
<path fill="none" stroke="black" stroke-width="0.5" d="M760.486,-272.053C770.881,-274.721 781.893,-277.768 792,-281 808.352,-286.229 811.648,-289.771 828,-295 836.528,-297.727 845.7,-300.322 854.602,-302.669"/>
<polygon fill="black" stroke="black" points="854.234,-304.382 859.514,-303.947 855.115,-300.994 854.234,-304.382"/>
</g>
<!-- Tkinter.Place -->
<g id="node24" class="node"><title>Tkinter.Place</title>
<polygon fill="none" stroke="black" stroke-width="0.5" points="347,-224.5 271,-224.5 271,-203.5 347,-203.5 347,-224.5"/>
<text text-anchor="middle" x="309" y="-211.5" font-family="Vera" font-size="10.00">Tkinter.Place</text>
</g>
<!-- Tkinter.Place&#45;&gt;Tkinter.Widget -->
<g id="edge30" class="edge"><title>Tkinter.Place&#45;&gt;Tkinter.Widget</title>
<path fill="none" stroke="black" stroke-width="0.5" d="M347.935,-214C384.299,-214 438.629,-214 477.308,-214"/>
<polygon fill="black" stroke="black" points="477.42,-215.75 482.42,-214 477.42,-212.25 477.42,-215.75"/>
</g>
<!-- Tkinter.Grid -->
<g id="node27" class="node"><title>Tkinter.Grid</title>
<polygon fill="none" stroke="black" stroke-width="0.5" points="344,-186.5 274,-186.5 274,-165.5 344,-165.5 344,-186.5"/>
<text text-anchor="middle" x="309" y="-173.5" font-family="Vera" font-size="10.00">Tkinter.Grid</text>
</g>
<!-- Tkinter.Grid&#45;&gt;Tkinter.Widget -->
<g id="edge32" class="edge"><title>Tkinter.Grid&#45;&gt;Tkinter.Widget</title>
<path fill="none" stroke="black" stroke-width="0.5" d="M344.503,-182.275C380.687,-188.67 437.012,-198.625 476.905,-205.676"/>
<polygon fill="black" stroke="black" points="476.947,-207.461 482.175,-206.608 477.556,-204.014 476.947,-207.461"/>
</g>
<!-- Tkinter.BaseWidget -->
<g id="node30" class="node"><title>Tkinter.BaseWidget</title>
<polygon fill="none" stroke="black" stroke-width="0.5" points="362,-319.5 256,-319.5 256,-298.5 362,-298.5 362,-319.5"/>
<text text-anchor="middle" x="309" y="-306.5" font-family="Vera" font-size="10.00">Tkinter.BaseWidget</text>
</g>
<!-- Tkinter.BaseWidget&#45;&gt;Tkinter.Widget -->
<g id="edge26" class="edge"><title>Tkinter.BaseWidget&#45;&gt;Tkinter.Widget</title>
<path fill="none" stroke="black" stroke-width="0.5" d="M336.406,-298.905C355.96,-291.547 382.795,-281.132 406,-271 438.839,-256.661 475.935,-238.391 499.62,-226.454"/>
<polygon fill="black" stroke="black" points="500.499,-227.97 504.173,-224.154 498.921,-224.846 500.499,-227.97"/>
</g>
<!-- Tkinter.BaseWidget&#45;&gt;Tkinter.Toplevel -->
<g id="edge34" class="edge"><title>Tkinter.BaseWidget&#45;&gt;Tkinter.Toplevel</title>
<path fill="none" stroke="black" stroke-width="0.5" d="M337.55,-319.092C377.256,-333.128 448.987,-358.484 490.958,-373.32"/>
<polygon fill="black" stroke="black" points="490.377,-374.971 495.674,-374.987 491.543,-371.671 490.377,-374.971"/>
</g>
<!-- Tkinter.Misc -->
<g id="node31" class="node"><title>Tkinter.Misc</title>
<polygon fill="none" stroke="black" stroke-width="0.5" points="124,-319.5 52,-319.5 52,-298.5 124,-298.5 124,-319.5"/>
<text text-anchor="middle" x="88" y="-306.5" font-family="Vera" font-size="10.00">Tkinter.Misc</text>
</g>
<!-- Tkinter.Misc&#45;&gt;Tkinter.BaseWidget -->
<g id="edge22" class="edge"><title>Tkinter.Misc&#45;&gt;Tkinter.BaseWidget</title>
<path fill="none" stroke="black" stroke-width="0.5" d="M124.494,-309C158.637,-309 210.226,-309 250.18,-309"/>
<polygon fill="black" stroke="black" points="250.489,-310.75 255.489,-309 250.489,-307.25 250.489,-310.75"/>
</g>
<!-- paramtk.ListRepresenter -->
<g id="node33" class="node"><title>paramtk.ListRepresenter</title>
<polygon fill="none" stroke="black" stroke-width="0.5" points="784,-58.5 650,-58.5 650,-37.5 784,-37.5 784,-58.5"/>
<text text-anchor="middle" x="717" y="-45.5" font-family="Vera" font-size="10.00">paramtk.ListRepresenter</text>
</g>
<!-- paramtk.Representer&#45;&gt;paramtk.ListRepresenter -->
<g id="edge24" class="edge"><title>paramtk.Representer&#45;&gt;paramtk.ListRepresenter</title>
<path fill="none" stroke="black" stroke-width="0.5" d="M583.218,-48C602.627,-48 624.413,-48 644.678,-48"/>
<polygon fill="black" stroke="black" points="644.795,-49.7501 649.795,-48 644.795,-46.2501 644.795,-49.7501"/>
</g>
<!-- Tkinter.Widget&#45;&gt;Tkinter.Frame -->
<g id="edge50" class="edge"><title>Tkinter.Widget&#45;&gt;Tkinter.Frame</title>
<path fill="none" stroke="black" stroke-width="0.5" d="M565.878,-212.047C596.922,-210.599 639.212,-208.627 671.161,-207.138"/>
<polygon fill="black" stroke="black" points="671.284,-208.884 676.197,-206.903 671.121,-205.388 671.284,-208.884"/>
</g>
<!-- Tkinter.Button -->
<g id="node44" class="node"><title>Tkinter.Button</title>
<polygon fill="none" stroke="black" stroke-width="0.5" points="758,-177.5 676,-177.5 676,-156.5 758,-156.5 758,-177.5"/>
<text text-anchor="middle" x="717" y="-164.5" font-family="Vera" font-size="10.00">Tkinter.Button</text>
</g>
<!-- Tkinter.Widget&#45;&gt;Tkinter.Button -->
<g id="edge38" class="edge"><title>Tkinter.Widget&#45;&gt;Tkinter.Button</title>
<path fill="none" stroke="black" stroke-width="0.5" d="M565.403,-203.917C596.314,-196.39 638.566,-186.101 670.613,-178.296"/>
<polygon fill="black" stroke="black" points="671.221,-179.949 675.665,-177.066 670.393,-176.549 671.221,-179.949"/>
</g>
<!-- Tkinter.Menu -->
<g id="node49" class="node"><title>Tkinter.Menu</title>
<polygon fill="none" stroke="black" stroke-width="0.5" points="755,-310.5 679,-310.5 679,-289.5 755,-289.5 755,-310.5"/>
<text text-anchor="middle" x="717" y="-297.5" font-family="Vera" font-size="10.00">Tkinter.Menu</text>
</g>
<!-- Tkinter.Widget&#45;&gt;Tkinter.Menu -->
<g id="edge72" class="edge"><title>Tkinter.Widget&#45;&gt;Tkinter.Menu</title>
<path fill="none" stroke="black" stroke-width="0.5" d="M538.622,-224.027C560.302,-238.485 602.656,-265.182 642,-281 651.853,-284.961 662.774,-288.288 673.163,-290.994"/>
<polygon fill="black" stroke="black" points="672.937,-292.742 678.213,-292.273 673.796,-289.349 672.937,-292.742"/>
</g>
<!-- paramtk.Balloon -->
<g id="node69" class="node"><title>paramtk.Balloon</title>
<polygon fill="none" stroke="black" stroke-width="0.5" points="764,-348.5 670,-348.5 670,-327.5 764,-327.5 764,-348.5"/>
<text text-anchor="middle" x="717" y="-335.5" font-family="Vera" font-size="10.00">paramtk.Balloon</text>
</g>
<!-- Tkinter.Widget&#45;&gt;paramtk.Balloon -->
<g id="edge64" class="edge"><title>Tkinter.Widget&#45;&gt;paramtk.Balloon</title>
<path fill="none" stroke="black" stroke-width="0.5" d="M532.309,-224.127C550.125,-245.154 594.275,-293.688 642,-319 648.977,-322.7 656.706,-325.703 664.472,-328.134"/>
<polygon fill="black" stroke="black" points="664.015,-329.824 669.307,-329.574 665.015,-326.469 664.015,-329.824"/>
</g>
<!-- paramtk.Scrodget -->
<g id="node71" class="node"><title>paramtk.Scrodget</title>
<polygon fill="none" stroke="black" stroke-width="0.5" points="769,-139.5 665,-139.5 665,-118.5 769,-118.5 769,-139.5"/>
<text text-anchor="middle" x="717" y="-126.5" font-family="Vera" font-size="10.00">paramtk.Scrodget</text>
</g>
<!-- Tkinter.Widget&#45;&gt;paramtk.Scrodget -->
<g id="edge68" class="edge"><title>Tkinter.Widget&#45;&gt;paramtk.Scrodget</title>
<path fill="none" stroke="black" stroke-width="0.5" d="M539.01,-203.899C560.828,-189.621 602.966,-163.547 642,-148 649.097,-145.173 656.743,-142.665 664.343,-140.472"/>
<polygon fill="black" stroke="black" points="665.246,-142.037 669.59,-139.005 664.303,-138.666 665.246,-142.037"/>
</g>
<!-- paramtk.ToolTip -->
<g id="node53" class="node"><title>paramtk.ToolTip</title>
<polygon fill="none" stroke="black" stroke-width="0.5" points="763,-433.5 671,-433.5 671,-412.5 763,-412.5 763,-433.5"/>
<text text-anchor="middle" x="717" y="-420.5" font-family="Vera" font-size="10.00">paramtk.ToolTip</text>
</g>
<!-- Tkinter.Toplevel&#45;&gt;paramtk.ToolTip -->
<g id="edge46" class="edge"><title>Tkinter.Toplevel&#45;&gt;paramtk.ToolTip</title>
<path fill="none" stroke="black" stroke-width="0.5" d="M568.763,-393.813C597.711,-399.513 635.478,-406.949 665.646,-412.889"/>
<polygon fill="black" stroke="black" points="665.558,-414.655 670.802,-413.904 666.235,-411.221 665.558,-414.655"/>
</g>
<!-- paramtk.ScrolledWindow -->
<g id="node61" class="node"><title>paramtk.ScrolledWindow</title>
<polygon fill="none" stroke="black" stroke-width="0.5" points="784,-395.5 650,-395.5 650,-374.5 784,-374.5 784,-395.5"/>
<text text-anchor="middle" x="717" y="-382.5" font-family="Vera" font-size="10.00">paramtk.ScrolledWindow</text>
</g>
<!-- Tkinter.Toplevel&#45;&gt;paramtk.ScrolledWindow -->
<g id="edge54" class="edge"><title>Tkinter.Toplevel&#45;&gt;paramtk.ScrolledWindow</title>
<path fill="none" stroke="black" stroke-width="0.5" d="M568.763,-385C591.313,-385 619.213,-385 644.705,-385"/>
<polygon fill="black" stroke="black" points="644.769,-386.75 649.769,-385 644.769,-383.25 644.769,-386.75"/>
</g>
<!-- paramtk.FocusTakingButton -->
<g id="node55" class="node"><title>paramtk.FocusTakingButton</title>
<polygon fill="none" stroke="black" stroke-width="0.5" points="977,-58.5 829,-58.5 829,-37.5 977,-37.5 977,-58.5"/>
<text text-anchor="middle" x="903" y="-45.5" font-family="Vera" font-size="10.00">paramtk.FocusTakingButton</text>
</g>
<!-- Tkinter.Button&#45;&gt;paramtk.FocusTakingButton -->
<g id="edge48" class="edge"><title>Tkinter.Button&#45;&gt;paramtk.FocusTakingButton</title>
<path fill="none" stroke="black" stroke-width="0.5" d="M758.659,-163.313C770.475,-160.556 782.654,-155.878 792,-148 822.123,-122.61 797.877,-92.3896 828,-67 830.966,-64.5004 834.216,-62.3229 837.65,-60.4267"/>
<polygon fill="black" stroke="black" points="838.761,-61.8264 842.437,-58.0115 837.184,-58.7016 838.761,-61.8264"/>
</g>
<!-- paramtk.Menu -->
<g id="node48" class="node"><title>paramtk.Menu</title>
<polygon fill="none" stroke="black" stroke-width="0.5" points="946,-362.5 860,-362.5 860,-341.5 946,-341.5 946,-362.5"/>
<text text-anchor="middle" x="903" y="-349.5" font-family="Vera" font-size="10.00">paramtk.Menu</text>
</g>
<!-- Tkinter.Menu&#45;&gt;paramtk.Menu -->
<g id="edge42" class="edge"><title>Tkinter.Menu&#45;&gt;paramtk.Menu</title>
<path fill="none" stroke="black" stroke-width="0.5" d="M755.797,-308.865C767.515,-311.8 780.358,-315.277 792,-319 808.352,-324.229 811.648,-327.771 828,-333 836.636,-335.762 845.932,-338.388 854.94,-340.758"/>
<polygon fill="black" stroke="black" points="854.629,-342.485 859.908,-342.048 855.508,-339.098 854.629,-342.485"/>
</g>
<!-- paramtk.ScrodgetWidget -->
<g id="node57" class="node"><title>paramtk.ScrodgetWidget</title>
<polygon fill="none" stroke="black" stroke-width="0.5" points="592,-139.5 456,-139.5 456,-118.5 592,-118.5 592,-139.5"/>
<text text-anchor="middle" x="524" y="-126.5" font-family="Vera" font-size="10.00">paramtk.ScrodgetWidget</text>
</g>
<!-- paramtk.ScrodgetWidget&#45;&gt;paramtk.Scrodget -->
<g id="edge66" class="edge"><title>paramtk.ScrodgetWidget&#45;&gt;paramtk.Scrodget</title>
<path fill="none" stroke="black" stroke-width="0.5" d="M592.045,-129C614.148,-129 638.44,-129 659.681,-129"/>
<polygon fill="black" stroke="black" points="659.728,-130.75 664.728,-129 659.728,-127.25 659.728,-130.75"/>
</g>
<!-- paramtk.AppWindow -->
<g id="node77" class="node"><title>paramtk.AppWindow</title>
<polygon fill="none" stroke="black" stroke-width="0.5" points="960,-400.5 846,-400.5 846,-379.5 960,-379.5 960,-400.5"/>
<text text-anchor="middle" x="903" y="-387.5" font-family="Vera" font-size="10.00">paramtk.AppWindow</text>
</g>
<!-- paramtk.ScrolledWindow&#45;&gt;paramtk.AppWindow -->
<g id="edge74" class="edge"><title>paramtk.ScrolledWindow&#45;&gt;paramtk.AppWindow</title>
<path fill="none" stroke="black" stroke-width="0.5" d="M784.15,-386.805C802.603,-387.301 822.53,-387.837 840.697,-388.325"/>
<polygon fill="black" stroke="black" points="840.726,-390.077 845.771,-388.462 840.82,-386.578 840.726,-390.077"/>
</g>
<!-- paramtk.TkParameterized -->
<g id="node63" class="node"><title>paramtk.TkParameterized</title>
<polygon fill="none" stroke="black" stroke-width="0.5" points="787,-20.5 647,-20.5 647,0.5 787,0.5 787,-20.5"/>
<text text-anchor="middle" x="717" y="-7.5" font-family="Vera" font-size="10.00">paramtk.TkParameterized</text>
</g>
<!-- paramtk.TkParameterized&#45;&gt;paramtk.ParametersFrame -->
<g id="edge60" class="edge"><title>paramtk.TkParameterized&#45;&gt;paramtk.ParametersFrame</title>
<path fill="none" stroke="black" stroke-width="0.5" d="M787.054,-10C799.308,-10 812.13,-10 824.593,-10"/>
<polygon fill="black" stroke="black" points="824.909,-11.7501 829.909,-10 824.909,-8.25009 824.909,-11.7501"/>
</g>
<!-- paramtk.TkParameterizedBase&#45;&gt;paramtk.TkParameterized -->
<g id="edge56" class="edge"><title>paramtk.TkParameterizedBase&#45;&gt;paramtk.TkParameterized</title>
<path fill="none" stroke="black" stroke-width="0.5" d="M606.129,-10C617.873,-10 629.908,-10 641.516,-10"/>
<polygon fill="black" stroke="black" points="641.817,-11.7501 646.817,-10 641.817,-8.25009 641.817,-11.7501"/>
</g>
<!-- param.parameterized.Parameter -->
<g id="node76" class="node"><title>param.parameterized.Parameter</title>
<polygon fill="none" stroke="black" stroke-width="0.5" points="175,-585.5 1,-585.5 1,-564.5 175,-564.5 175,-585.5"/>
<text text-anchor="middle" x="88" y="-572.5" font-family="Vera" font-size="10.00">param.parameterized.Parameter</text>
</g>
<!-- param.parameterized.Parameter&#45;&gt;param.Callable -->
<g id="edge80" class="edge"><title>param.parameterized.Parameter&#45;&gt;param.Callable</title>
<path fill="none" stroke="black" stroke-width="0.5" d="M175.662,-575C204.015,-575 234.464,-575 259.097,-575"/>
<polygon fill="black" stroke="black" points="259.263,-576.75 264.263,-575 259.263,-573.25 259.263,-576.75"/>
</g>
</g>
</svg>
