<?xml version="1.0" encoding="UTF-8" standalone="no"?>
<!DOCTYPE svg PUBLIC "-//W3C//DTD SVG 1.1//EN"
 "http://www.w3.org/Graphics/SVG/1.1/DTD/svg11.dtd">
<!-- Generated by graphviz version 2.26.3 (20100126.1600)
 -->
<!-- Title: inheritance8744d36cfd Pages: 1 -->
<svg width="606pt" height="104pt"
 viewBox="0.00 0.00 606.00 104.00" xmlns="http://www.w3.org/2000/svg" xmlns:xlink="http://www.w3.org/1999/xlink">
<g id="graph1" class="graph" transform="scale(1 1) rotate(0) translate(4 100)">
<title>inheritance8744d36cfd</title>
<polygon fill="white" stroke="white" points="-4,5 -4,-100 603,-100 603,5 -4,5"/>
<!-- param.parameterized.Parameterized -->
<g id="node1" class="node"><title>param.parameterized.Parameterized</title>
<polygon fill="none" stroke="black" stroke-width="0.5" points="194,-77.5 5.68434e-14,-77.5 0,-56.5 194,-56.5 194,-77.5"/>
<text text-anchor="middle" x="97" y="-64.5" font-family="Vera" font-size="10.00">param.parameterized.Parameterized</text>
</g>
<!-- lancet.launch.Launcher -->
<g id="node3" class="node"><title>lancet.launch.Launcher</title>
<polygon fill="none" stroke="black" stroke-width="0.5" points="381,-96.5 253,-96.5 253,-75.5 381,-75.5 381,-96.5"/>
<text text-anchor="middle" x="317" y="-83.5" font-family="Vera" font-size="10.00">lancet.launch.Launcher</text>
</g>
<!-- param.parameterized.Parameterized&#45;&gt;lancet.launch.Launcher -->
<g id="edge4" class="edge"><title>param.parameterized.Parameterized&#45;&gt;lancet.launch.Launcher</title>
<path fill="none" stroke="black" stroke-width="0.5" d="M194.136,-75.389C212.182,-76.9476 230.697,-78.5466 247.702,-80.0151"/>
<polygon fill="black" stroke="black" points="247.796,-81.7797 252.928,-80.4665 248.097,-78.2927 247.796,-81.7797"/>
</g>
<!-- lancet.launch.review_and_launch -->
<g id="node6" class="node"><title>lancet.launch.review_and_launch</title>
<polygon fill="none" stroke="black" stroke-width="0.5" points="403,-58.5 231,-58.5 231,-37.5 403,-37.5 403,-58.5"/>
<text text-anchor="middle" x="317" y="-45.5" font-family="Vera" font-size="10.00">lancet.launch.review_and_launch</text>
</g>
<!-- param.parameterized.Parameterized&#45;&gt;lancet.launch.review_and_launch -->
<g id="edge8" class="edge"><title>param.parameterized.Parameterized&#45;&gt;lancet.launch.review_and_launch</title>
<path fill="none" stroke="black" stroke-width="0.5" d="M194.136,-58.611C204.522,-57.714 215.064,-56.8036 225.384,-55.9123"/>
<polygon fill="black" stroke="black" points="225.599,-57.6503 230.43,-55.4765 225.298,-54.1633 225.599,-57.6503"/>
</g>
<!-- lancet.launch.Command -->
<g id="node9" class="node"><title>lancet.launch.Command</title>
<polygon fill="none" stroke="black" stroke-width="0.5" points="384,-20.5 250,-20.5 250,0.5 384,0.5 384,-20.5"/>
<text text-anchor="middle" x="317" y="-7.5" font-family="Vera" font-size="10.00">lancet.launch.Command</text>
</g>
<!-- param.parameterized.Parameterized&#45;&gt;lancet.launch.Command -->
<g id="edge12" class="edge"><title>param.parameterized.Parameterized&#45;&gt;lancet.launch.Command</title>
<path fill="none" stroke="black" stroke-width="0.5" d="M162.145,-56.9666C172.93,-54.5322 183.887,-51.5719 194,-48 211.059,-41.9748 213.007,-35.209 230,-29 237.937,-26.1 246.45,-23.5722 254.932,-21.39"/>
<polygon fill="black" stroke="black" points="255.776,-22.9833 260.204,-20.0756 254.929,-19.5872 255.776,-22.9833"/>
</g>
<!-- lancet.core.PrettyPrinted -->
<g id="node2" class="node"><title>lancet.core.PrettyPrinted</title>
<polygon fill="none" stroke="black" stroke-width="0.5" points="164,-39.5 30,-39.5 30,-18.5 164,-18.5 164,-39.5"/>
<text text-anchor="middle" x="97" y="-26.5" font-family="Vera" font-size="10.00">lancet.core.PrettyPrinted</text>
</g>
<!-- lancet.core.PrettyPrinted&#45;&gt;lancet.launch.Launcher -->
<g id="edge2" class="edge"><title>lancet.core.PrettyPrinted&#45;&gt;lancet.launch.Launcher</title>
<path fill="none" stroke="black" stroke-width="0.5" d="M162.145,-39.0334C172.93,-41.4678 183.887,-44.4281 194,-48 211.059,-54.0252 213.007,-60.791 230,-67 237.937,-69.9 246.45,-72.4278 254.932,-74.61"/>
<polygon fill="black" stroke="black" points="254.929,-76.4128 260.204,-75.9244 255.776,-73.0167 254.929,-76.4128"/>
</g>
<!-- lancet.core.PrettyPrinted&#45;&gt;lancet.launch.review_and_launch -->
<g id="edge6" class="edge"><title>lancet.core.PrettyPrinted&#45;&gt;lancet.launch.review_and_launch</title>
<path fill="none" stroke="black" stroke-width="0.5" d="M164.502,-34.8297C183.599,-36.479 204.714,-38.3026 224.991,-40.0538"/>
<polygon fill="black" stroke="black" points="224.995,-41.8105 230.127,-40.4973 225.296,-38.3235 224.995,-41.8105"/>
</g>
<!-- lancet.core.PrettyPrinted&#45;&gt;lancet.launch.Command -->
<g id="edge10" class="edge"><title>lancet.core.PrettyPrinted&#45;&gt;lancet.launch.Command</title>
<path fill="none" stroke="black" stroke-width="0.5" d="M164.502,-23.1703C189.843,-20.9817 218.739,-18.4861 244.514,-16.2602"/>
<polygon fill="black" stroke="black" points="244.794,-17.9925 249.625,-15.8187 244.493,-14.5055 244.794,-17.9925"/>
</g>
<!-- lancet.launch.QLauncher -->
<g id="node12" class="node"><title>lancet.launch.QLauncher</title>
<polygon fill="none" stroke="black" stroke-width="0.5" points="586,-96.5 452,-96.5 452,-75.5 586,-75.5 586,-96.5"/>
<text text-anchor="middle" x="519" y="-83.5" font-family="Vera" font-size="10.00">lancet.launch.QLauncher</text>
</g>
<!-- lancet.launch.Launcher&#45;&gt;lancet.launch.QLauncher -->
<g id="edge14" class="edge"><title>lancet.launch.Launcher&#45;&gt;lancet.launch.QLauncher</title>
<path fill="none" stroke="black" stroke-width="0.5" d="M381.192,-86C401.94,-86 425.089,-86 446.402,-86"/>
<polygon fill="black" stroke="black" points="446.49,-87.7501 451.49,-86 446.49,-84.2501 446.49,-87.7501"/>
</g>
<!-- lancet.launch.ShellCommand -->
<g id="node14" class="node"><title>lancet.launch.ShellCommand</title>
<polygon fill="none" stroke="black" stroke-width="0.5" points="597,-20.5 441,-20.5 441,0.5 597,0.5 597,-20.5"/>
<text text-anchor="middle" x="519" y="-7.5" font-family="Vera" font-size="10.00">lancet.launch.ShellCommand</text>
</g>
<!-- lancet.launch.Command&#45;&gt;lancet.launch.ShellCommand -->
<g id="edge16" class="edge"><title>lancet.launch.Command&#45;&gt;lancet.launch.ShellCommand</title>
<path fill="none" stroke="black" stroke-width="0.5" d="M384.263,-10C400.593,-10 418.251,-10 435.24,-10"/>
<polygon fill="black" stroke="black" points="435.488,-11.7501 440.488,-10 435.488,-8.2501 435.488,-11.7501"/>
</g>
</g>
</svg>
