<?xml version="1.0" encoding="UTF-8" standalone="no"?>
<!DOCTYPE svg PUBLIC "-//W3C//DTD SVG 1.1//EN"
 "http://www.w3.org/Graphics/SVG/1.1/DTD/svg11.dtd">
<!-- Generated by graphviz version 2.26.3 (20100126.1600)
 -->
<!-- Title: inheritancefc96a479df Pages: 1 -->
<svg width="682pt" height="256pt"
 viewBox="0.00 0.00 682.00 256.00" xmlns="http://www.w3.org/2000/svg" xmlns:xlink="http://www.w3.org/1999/xlink">
<g id="graph1" class="graph" transform="scale(1 1) rotate(0) translate(4 252)">
<title>inheritancefc96a479df</title>
<polygon fill="white" stroke="white" points="-4,5 -4,-252 679,-252 679,5 -4,5"/>
<!-- lancet.core.List -->
<g id="node1" class="node"><title>lancet.core.List</title>
<polygon fill="none" stroke="black" stroke-width="0.5" points="640,-248.5 552,-248.5 552,-227.5 640,-227.5 640,-248.5"/>
<text text-anchor="middle" x="596" y="-235.5" font-family="Vera" font-size="10.00">lancet.core.List</text>
</g>
<!-- lancet.core.Args -->
<g id="node2" class="node"><title>lancet.core.Args</title>
<polygon fill="none" stroke="black" stroke-width="0.5" points="481,-134.5 387,-134.5 387,-113.5 481,-113.5 481,-134.5"/>
<text text-anchor="middle" x="434" y="-121.5" font-family="Vera" font-size="10.00">lancet.core.Args</text>
</g>
<!-- lancet.core.Args&#45;&gt;lancet.core.List -->
<g id="edge2" class="edge"><title>lancet.core.Args&#45;&gt;lancet.core.List</title>
<path fill="none" stroke="black" stroke-width="0.5" d="M439.959,-134.135C452.047,-153.756 481.43,-196.936 518,-219 526.536,-224.15 536.392,-227.906 546.164,-230.644"/>
<polygon fill="black" stroke="black" points="545.978,-232.404 551.258,-231.985 546.869,-229.02 545.978,-232.404"/>
</g>
<!-- lancet.core.Range -->
<g id="node4" class="node"><title>lancet.core.Range</title>
<polygon fill="none" stroke="black" stroke-width="0.5" points="647,-210.5 545,-210.5 545,-189.5 647,-189.5 647,-210.5"/>
<text text-anchor="middle" x="596" y="-197.5" font-family="Vera" font-size="10.00">lancet.core.Range</text>
</g>
<!-- lancet.core.Args&#45;&gt;lancet.core.Range -->
<g id="edge4" class="edge"><title>lancet.core.Args&#45;&gt;lancet.core.Range</title>
<path fill="none" stroke="black" stroke-width="0.5" d="M445.975,-134.191C461.567,-146.952 490.13,-168.635 518,-181 524.728,-183.985 532,-186.547 539.305,-188.734"/>
<polygon fill="black" stroke="black" points="539.072,-190.488 544.361,-190.188 540.04,-187.124 539.072,-190.488"/>
</g>
<!-- lancet.core.FileInfo -->
<g id="node6" class="node"><title>lancet.core.FileInfo</title>
<polygon fill="none" stroke="black" stroke-width="0.5" points="648,-172.5 544,-172.5 544,-151.5 648,-151.5 648,-172.5"/>
<text text-anchor="middle" x="596" y="-159.5" font-family="Vera" font-size="10.00">lancet.core.FileInfo</text>
</g>
<!-- lancet.core.Args&#45;&gt;lancet.core.FileInfo -->
<g id="edge6" class="edge"><title>lancet.core.Args&#45;&gt;lancet.core.FileInfo</title>
<path fill="none" stroke="black" stroke-width="0.5" d="M476.988,-134.084C498.861,-139.214 525.518,-145.467 548.054,-150.753"/>
<polygon fill="black" stroke="black" points="547.825,-152.497 553.093,-151.935 548.625,-149.09 547.825,-152.497"/>
</g>
<!-- lancet.core.Log -->
<g id="node9" class="node"><title>lancet.core.Log</title>
<polygon fill="none" stroke="black" stroke-width="0.5" points="641,-134.5 551,-134.5 551,-113.5 641,-113.5 641,-134.5"/>
<text text-anchor="middle" x="596" y="-121.5" font-family="Vera" font-size="10.00">lancet.core.Log</text>
</g>
<!-- lancet.core.Args&#45;&gt;lancet.core.Log -->
<g id="edge8" class="edge"><title>lancet.core.Args&#45;&gt;lancet.core.Log</title>
<path fill="none" stroke="black" stroke-width="0.5" d="M481.729,-124C501.863,-124 525.315,-124 545.717,-124"/>
<polygon fill="black" stroke="black" points="545.834,-125.75 550.834,-124 545.834,-122.25 545.834,-125.75"/>
</g>
<!-- lancet.core.Concatenate -->
<g id="node11" class="node"><title>lancet.core.Concatenate</title>
<polygon fill="none" stroke="black" stroke-width="0.5" points="663,-96.5 529,-96.5 529,-75.5 663,-75.5 663,-96.5"/>
<text text-anchor="middle" x="596" y="-83.5" font-family="Vera" font-size="10.00">lancet.core.Concatenate</text>
</g>
<!-- lancet.core.Args&#45;&gt;lancet.core.Concatenate -->
<g id="edge10" class="edge"><title>lancet.core.Args&#45;&gt;lancet.core.Concatenate</title>
<path fill="none" stroke="black" stroke-width="0.5" d="M476.988,-113.916C498.861,-108.786 525.518,-102.533 548.054,-97.2466"/>
<polygon fill="black" stroke="black" points="548.625,-98.9103 553.093,-96.0647 547.825,-95.5028 548.625,-98.9103"/>
</g>
<!-- lancet.core.FilePattern -->
<g id="node15" class="node"><title>lancet.core.FilePattern</title>
<polygon fill="none" stroke="black" stroke-width="0.5" points="657,-58.5 535,-58.5 535,-37.5 657,-37.5 657,-58.5"/>
<text text-anchor="middle" x="596" y="-45.5" font-family="Vera" font-size="10.00">lancet.core.FilePattern</text>
</g>
<!-- lancet.core.Args&#45;&gt;lancet.core.FilePattern -->
<g id="edge14" class="edge"><title>lancet.core.Args&#45;&gt;lancet.core.FilePattern</title>
<path fill="none" stroke="black" stroke-width="0.5" d="M445.975,-113.809C461.567,-101.048 490.13,-79.3646 518,-67 524.521,-64.1068 531.553,-61.6109 538.631,-59.4692"/>
<polygon fill="black" stroke="black" points="539.221,-61.1202 543.532,-58.0425 538.242,-57.7597 539.221,-61.1202"/>
</g>
<!-- lancet.core.CartesianProduct -->
<g id="node20" class="node"><title>lancet.core.CartesianProduct</title>
<polygon fill="none" stroke="black" stroke-width="0.5" points="673,-20.5 519,-20.5 519,0.5 673,0.5 673,-20.5"/>
<text text-anchor="middle" x="596" y="-7.5" font-family="Vera" font-size="10.00">lancet.core.CartesianProduct</text>
</g>
<!-- lancet.core.Args&#45;&gt;lancet.core.CartesianProduct -->
<g id="edge20" class="edge"><title>lancet.core.Args&#45;&gt;lancet.core.CartesianProduct</title>
<path fill="none" stroke="black" stroke-width="0.5" d="M439.959,-113.865C452.047,-94.2436 481.43,-51.0636 518,-29 522.568,-26.2438 527.515,-23.887 532.624,-21.8718"/>
<polygon fill="black" stroke="black" points="533.277,-23.4962 537.355,-20.1156 532.059,-20.2149 533.277,-23.4962"/>
</g>
<!-- lancet.core.PrettyPrinted -->
<g id="node8" class="node"><title>lancet.core.PrettyPrinted</title>
<polygon fill="none" stroke="black" stroke-width="0.5" points="164,-153.5 30,-153.5 30,-132.5 164,-132.5 164,-153.5"/>
<text text-anchor="middle" x="97" y="-140.5" font-family="Vera" font-size="10.00">lancet.core.PrettyPrinted</text>
</g>
<!-- lancet.core.BaseArgs -->
<g id="node13" class="node"><title>lancet.core.BaseArgs</title>
<polygon fill="none" stroke="black" stroke-width="0.5" points="349,-134.5 231,-134.5 231,-113.5 349,-113.5 349,-134.5"/>
<text text-anchor="middle" x="290" y="-121.5" font-family="Vera" font-size="10.00">lancet.core.BaseArgs</text>
</g>
<!-- lancet.core.PrettyPrinted&#45;&gt;lancet.core.BaseArgs -->
<g id="edge16" class="edge"><title>lancet.core.PrettyPrinted&#45;&gt;lancet.core.BaseArgs</title>
<path fill="none" stroke="black" stroke-width="0.5" d="M164.502,-136.355C184.076,-134.428 205.405,-132.328 224.833,-130.415"/>
<polygon fill="black" stroke="black" points="225.455,-132.113 230.259,-129.881 225.112,-128.63 225.455,-132.113"/>
</g>
<!-- lancet.core.BaseArgs&#45;&gt;lancet.core.Args -->
<g id="edge12" class="edge"><title>lancet.core.BaseArgs&#45;&gt;lancet.core.Args</title>
<path fill="none" stroke="black" stroke-width="0.5" d="M349.818,-124C360.215,-124 370.961,-124 381.154,-124"/>
<polygon fill="black" stroke="black" points="381.43,-125.75 386.43,-124 381.43,-122.25 381.43,-125.75"/>
</g>
<!-- param.parameterized.Parameterized -->
<g id="node17" class="node"><title>param.parameterized.Parameterized</title>
<polygon fill="none" stroke="black" stroke-width="0.5" points="194,-115.5 5.68434e-14,-115.5 0,-94.5 194,-94.5 194,-115.5"/>
<text text-anchor="middle" x="97" y="-102.5" font-family="Vera" font-size="10.00">param.parameterized.Parameterized</text>
</g>
<!-- param.parameterized.Parameterized&#45;&gt;lancet.core.BaseArgs -->
<g id="edge18" class="edge"><title>param.parameterized.Parameterized&#45;&gt;lancet.core.BaseArgs</title>
<path fill="none" stroke="black" stroke-width="0.5" d="M194.065,-114.556C204.617,-115.594 215.159,-116.632 225.188,-117.62"/>
<polygon fill="black" stroke="black" points="225.236,-119.383 230.383,-118.131 225.579,-115.899 225.236,-119.383"/>
</g>
</g>
</svg>
