<?xml version="1.0" encoding="UTF-8" standalone="no"?>
<!DOCTYPE svg PUBLIC "-//W3C//DTD SVG 1.1//EN"
 "http://www.w3.org/Graphics/SVG/1.1/DTD/svg11.dtd">
<!-- Generated by graphviz version 2.26.3 (20100126.1600)
 -->
<!-- Title: inheritance0bce68b9cf Pages: 1 -->
<svg width="1872pt" height="531pt"
 viewBox="0.00 0.00 1872.00 531.00" xmlns="http://www.w3.org/2000/svg" xmlns:xlink="http://www.w3.org/1999/xlink">
<g id="graph1" class="graph" transform="scale(1 1) rotate(0) translate(4 527)">
<title>inheritance0bce68b9cf</title>
<polygon fill="white" stroke="white" points="-4,5 -4,-527 1869,-527 1869,5 -4,5"/>
<!-- topo.command.analysis.measure_corner_or_pref -->
<g id="node1" class="node"><title>topo.command.analysis.measure_corner_or_pref</title>
<polygon fill="none" stroke="black" stroke-width="0.5" points="1855,-362.5 1603,-362.5 1603,-341.5 1855,-341.5 1855,-362.5"/>
<text text-anchor="middle" x="1729" y="-349.5" font-family="Vera" font-size="10.00">topo.command.analysis.measure_corner_or_pref</text>
</g>
<!-- topo.analysis.featureresponses.PositionMeasurementCommand -->
<g id="node2" class="node"><title>topo.analysis.featureresponses.PositionMeasurementCommand</title>
<polygon fill="none" stroke="black" stroke-width="0.5" points="1542,-314.5 1218,-314.5 1218,-293.5 1542,-293.5 1542,-314.5"/>
<text text-anchor="middle" x="1380" y="-301.5" font-family="Vera" font-size="10.00">topo.analysis.featureresponses.PositionMeasurementCommand</text>
</g>
<!-- topo.analysis.featureresponses.PositionMeasurementCommand&#45;&gt;topo.command.analysis.measure_corner_or_pref -->
<g id="edge2" class="edge"><title>topo.analysis.featureresponses.PositionMeasurementCommand&#45;&gt;topo.command.analysis.measure_corner_or_pref</title>
<path fill="none" stroke="black" stroke-width="0.5" d="M1499.61,-314.03C1519.2,-316.457 1539.23,-319.416 1558,-323 1574.31,-326.114 1577.74,-329.613 1594,-333 1608.88,-336.101 1624.8,-338.842 1640.29,-341.208"/>
<polygon fill="black" stroke="black" points="1640.32,-342.983 1645.53,-341.996 1640.84,-339.522 1640.32,-342.983"/>
</g>
<!-- topo.command.analysis.measure_corner_angle_pref -->
<g id="node53" class="node"><title>topo.command.analysis.measure_corner_angle_pref</title>
<polygon fill="none" stroke="black" stroke-width="0.5" points="1863,-324.5 1595,-324.5 1595,-303.5 1863,-303.5 1863,-324.5"/>
<text text-anchor="middle" x="1729" y="-311.5" font-family="Vera" font-size="10.00">topo.command.analysis.measure_corner_angle_pref</text>
</g>
<!-- topo.analysis.featureresponses.PositionMeasurementCommand&#45;&gt;topo.command.analysis.measure_corner_angle_pref -->
<g id="edge48" class="edge"><title>topo.analysis.featureresponses.PositionMeasurementCommand&#45;&gt;topo.command.analysis.measure_corner_angle_pref</title>
<path fill="none" stroke="black" stroke-width="0.5" d="M1542.24,-308.649C1557.91,-309.098 1573.72,-309.551 1589.15,-309.993"/>
<polygon fill="black" stroke="black" points="1589.32,-311.748 1594.36,-310.142 1589.42,-308.25 1589.32,-311.748"/>
</g>
<!-- topo.command.analysis.frequency_mapper -->
<g id="node4" class="node"><title>topo.command.analysis.frequency_mapper</title>
<polygon fill="none" stroke="black" stroke-width="0.5" points="773,-523.5 549,-523.5 549,-502.5 773,-502.5 773,-523.5"/>
<text text-anchor="middle" x="661" y="-510.5" font-family="Vera" font-size="10.00">topo.command.analysis.frequency_mapper</text>
</g>
<!-- imagen.patterngenerator.PatternGenerator -->
<g id="node5" class="node"><title>imagen.patterngenerator.PatternGenerator</title>
<polygon fill="none" stroke="black" stroke-width="0.5" points="459,-466.5 235,-466.5 235,-445.5 459,-445.5 459,-466.5"/>
<text text-anchor="middle" x="347" y="-453.5" font-family="Vera" font-size="10.00">imagen.patterngenerator.PatternGenerator</text>
</g>
<!-- imagen.patterngenerator.PatternGenerator&#45;&gt;topo.command.analysis.frequency_mapper -->
<g id="edge4" class="edge"><title>imagen.patterngenerator.PatternGenerator&#45;&gt;topo.command.analysis.frequency_mapper</title>
<path fill="none" stroke="black" stroke-width="0.5" d="M381.973,-466.022C412.809,-474.537 459.074,-486.533 500,-494 517.463,-497.186 536.094,-499.955 554.257,-502.32"/>
<polygon fill="black" stroke="black" points="554.184,-504.075 559.366,-502.976 554.63,-500.603 554.184,-504.075"/>
</g>
<!-- topo.command.analysis.log_frequency_mapper -->
<g id="node35" class="node"><title>topo.command.analysis.log_frequency_mapper</title>
<polygon fill="none" stroke="black" stroke-width="0.5" points="783,-485.5 539,-485.5 539,-464.5 783,-464.5 783,-485.5"/>
<text text-anchor="middle" x="661" y="-472.5" font-family="Vera" font-size="10.00">topo.command.analysis.log_frequency_mapper</text>
</g>
<!-- imagen.patterngenerator.PatternGenerator&#45;&gt;topo.command.analysis.log_frequency_mapper -->
<g id="edge30" class="edge"><title>imagen.patterngenerator.PatternGenerator&#45;&gt;topo.command.analysis.log_frequency_mapper</title>
<path fill="none" stroke="black" stroke-width="0.5" d="M459.031,-462.779C483.203,-464.242 508.927,-465.798 533.635,-467.293"/>
<polygon fill="black" stroke="black" points="533.794,-469.056 538.891,-467.611 534.006,-465.562 533.794,-469.056"/>
</g>
<!-- topo.command.analysis.latency_mapper -->
<g id="node57" class="node"><title>topo.command.analysis.latency_mapper</title>
<polygon fill="none" stroke="black" stroke-width="0.5" points="767,-447.5 555,-447.5 555,-426.5 767,-426.5 767,-447.5"/>
<text text-anchor="middle" x="661" y="-434.5" font-family="Vera" font-size="10.00">topo.command.analysis.latency_mapper</text>
</g>
<!-- imagen.patterngenerator.PatternGenerator&#45;&gt;topo.command.analysis.latency_mapper -->
<g id="edge52" class="edge"><title>imagen.patterngenerator.PatternGenerator&#45;&gt;topo.command.analysis.latency_mapper</title>
<path fill="none" stroke="black" stroke-width="0.5" d="M459.031,-449.221C488.501,-447.438 520.279,-445.515 549.709,-443.734"/>
<polygon fill="black" stroke="black" points="549.907,-445.475 554.792,-443.427 549.696,-441.982 549.907,-445.475"/>
</g>
<!-- param.parameterized.Parameterized -->
<g id="node7" class="node"><title>param.parameterized.Parameterized</title>
<polygon fill="none" stroke="black" stroke-width="0.5" points="194,-371.5 5.68434e-14,-371.5 0,-350.5 194,-350.5 194,-371.5"/>
<text text-anchor="middle" x="97" y="-358.5" font-family="Vera" font-size="10.00">param.parameterized.Parameterized</text>
</g>
<!-- param.parameterized.Parameterized&#45;&gt;imagen.patterngenerator.PatternGenerator -->
<g id="edge6" class="edge"><title>param.parameterized.Parameterized&#45;&gt;imagen.patterngenerator.PatternGenerator</title>
<path fill="none" stroke="black" stroke-width="0.5" d="M123.754,-371.167C170.275,-388.844 265.838,-425.159 315.489,-444.026"/>
<polygon fill="black" stroke="black" points="315.142,-445.766 320.438,-445.906 316.386,-442.494 315.142,-445.766"/>
</g>
<!-- param.parameterized.ParameterizedFunction -->
<g id="node26" class="node"><title>param.parameterized.ParameterizedFunction</title>
<polygon fill="none" stroke="black" stroke-width="0.5" points="464,-371.5 230,-371.5 230,-350.5 464,-350.5 464,-371.5"/>
<text text-anchor="middle" x="347" y="-358.5" font-family="Vera" font-size="10.00">param.parameterized.ParameterizedFunction</text>
</g>
<!-- param.parameterized.Parameterized&#45;&gt;param.parameterized.ParameterizedFunction -->
<g id="edge20" class="edge"><title>param.parameterized.Parameterized&#45;&gt;param.parameterized.ParameterizedFunction</title>
<path fill="none" stroke="black" stroke-width="0.5" d="M194.014,-361C204.04,-361 214.319,-361 224.575,-361"/>
<polygon fill="black" stroke="black" points="224.607,-362.75 229.607,-361 224.607,-359.25 224.607,-362.75"/>
</g>
<!-- topo.command.analysis.PatternPresenter2 -->
<g id="node44" class="node"><title>topo.command.analysis.PatternPresenter2</title>
<polygon fill="none" stroke="black" stroke-width="0.5" points="457,-333.5 237,-333.5 237,-312.5 457,-312.5 457,-333.5"/>
<text text-anchor="middle" x="347" y="-320.5" font-family="Vera" font-size="10.00">topo.command.analysis.PatternPresenter2</text>
</g>
<!-- param.parameterized.Parameterized&#45;&gt;topo.command.analysis.PatternPresenter2 -->
<g id="edge38" class="edge"><title>param.parameterized.Parameterized&#45;&gt;topo.command.analysis.PatternPresenter2</title>
<path fill="none" stroke="black" stroke-width="0.5" d="M163.012,-350.966C197.758,-345.685 240.394,-339.204 275.872,-333.811"/>
<polygon fill="black" stroke="black" points="276.372,-335.506 281.052,-333.024 275.846,-332.045 276.372,-335.506"/>
</g>
<!-- topo.command.analysis.measure_rfs -->
<g id="node9" class="node"><title>topo.command.analysis.measure_rfs</title>
<polygon fill="none" stroke="black" stroke-width="0.5" points="1826,-286.5 1632,-286.5 1632,-265.5 1826,-265.5 1826,-286.5"/>
<text text-anchor="middle" x="1729" y="-273.5" font-family="Vera" font-size="10.00">topo.command.analysis.measure_rfs</text>
</g>
<!-- topo.analysis.featureresponses.SingleInputResponseCommand -->
<g id="node10" class="node"><title>topo.analysis.featureresponses.SingleInputResponseCommand</title>
<polygon fill="none" stroke="black" stroke-width="0.5" points="1539,-257.5 1221,-257.5 1221,-236.5 1539,-236.5 1539,-257.5"/>
<text text-anchor="middle" x="1380" y="-244.5" font-family="Vera" font-size="10.00">topo.analysis.featureresponses.SingleInputResponseCommand</text>
</g>
<!-- topo.analysis.featureresponses.SingleInputResponseCommand&#45;&gt;topo.command.analysis.measure_rfs -->
<g id="edge8" class="edge"><title>topo.analysis.featureresponses.SingleInputResponseCommand&#45;&gt;topo.command.analysis.measure_rfs</title>
<path fill="none" stroke="black" stroke-width="0.5" d="M1500.59,-257.021C1541.61,-260.429 1587.02,-264.202 1626.48,-267.482"/>
<polygon fill="black" stroke="black" points="1626.63,-269.25 1631.76,-267.92 1626.92,-265.762 1626.63,-269.25"/>
</g>
<!-- topo.command.analysis.measure_second_or_pref -->
<g id="node12" class="node"><title>topo.command.analysis.measure_second_or_pref</title>
<polygon fill="none" stroke="black" stroke-width="0.5" points="1857,-248.5 1601,-248.5 1601,-227.5 1857,-227.5 1857,-248.5"/>
<text text-anchor="middle" x="1729" y="-235.5" font-family="Vera" font-size="10.00">topo.command.analysis.measure_second_or_pref</text>
</g>
<!-- topo.analysis.featureresponses.SinusoidalMeasureResponseCommand -->
<g id="node13" class="node"><title>topo.analysis.featureresponses.SinusoidalMeasureResponseCommand</title>
<polygon fill="none" stroke="black" stroke-width="0.5" points="1558,-181.5 1202,-181.5 1202,-160.5 1558,-160.5 1558,-181.5"/>
<text text-anchor="middle" x="1380" y="-168.5" font-family="Vera" font-size="10.00">topo.analysis.featureresponses.SinusoidalMeasureResponseCommand</text>
</g>
<!-- topo.analysis.featureresponses.SinusoidalMeasureResponseCommand&#45;&gt;topo.command.analysis.measure_second_or_pref -->
<g id="edge10" class="edge"><title>topo.analysis.featureresponses.SinusoidalMeasureResponseCommand&#45;&gt;topo.command.analysis.measure_second_or_pref</title>
<path fill="none" stroke="black" stroke-width="0.5" d="M1420.43,-181.093C1463.31,-191.558 1533.13,-207.909 1594,-219 1610.35,-221.98 1627.9,-224.755 1644.74,-227.213"/>
<polygon fill="black" stroke="black" points="1644.75,-228.982 1649.95,-227.966 1645.25,-225.518 1644.75,-228.982"/>
</g>
<!-- topo.command.analysis.measure_phasedisparity -->
<g id="node28" class="node"><title>topo.command.analysis.measure_phasedisparity</title>
<polygon fill="none" stroke="black" stroke-width="0.5" points="1855,-210.5 1603,-210.5 1603,-189.5 1855,-189.5 1855,-210.5"/>
<text text-anchor="middle" x="1729" y="-197.5" font-family="Vera" font-size="10.00">topo.command.analysis.measure_phasedisparity</text>
</g>
<!-- topo.analysis.featureresponses.SinusoidalMeasureResponseCommand&#45;&gt;topo.command.analysis.measure_phasedisparity -->
<g id="edge22" class="edge"><title>topo.analysis.featureresponses.SinusoidalMeasureResponseCommand&#45;&gt;topo.command.analysis.measure_phasedisparity</title>
<path fill="none" stroke="black" stroke-width="0.5" d="M1500.59,-181.021C1533.7,-183.771 1569.67,-186.761 1603.06,-189.535"/>
<polygon fill="black" stroke="black" points="1603.27,-191.309 1608.4,-189.979 1603.56,-187.821 1603.27,-191.309"/>
</g>
<!-- topo.command.analysis.measure_hue_pref -->
<g id="node40" class="node"><title>topo.command.analysis.measure_hue_pref</title>
<polygon fill="none" stroke="black" stroke-width="0.5" points="1841,-172.5 1617,-172.5 1617,-151.5 1841,-151.5 1841,-172.5"/>
<text text-anchor="middle" x="1729" y="-159.5" font-family="Vera" font-size="10.00">topo.command.analysis.measure_hue_pref</text>
</g>
<!-- topo.analysis.featureresponses.SinusoidalMeasureResponseCommand&#45;&gt;topo.command.analysis.measure_hue_pref -->
<g id="edge34" class="edge"><title>topo.analysis.featureresponses.SinusoidalMeasureResponseCommand&#45;&gt;topo.command.analysis.measure_hue_pref</title>
<path fill="none" stroke="black" stroke-width="0.5" d="M1558.08,-166.408C1576.2,-165.94 1594.27,-165.474 1611.51,-165.03"/>
<polygon fill="black" stroke="black" points="1611.88,-166.771 1616.83,-164.893 1611.79,-163.272 1611.88,-166.771"/>
</g>
<!-- topo.command.analysis.measure_od_pref -->
<g id="node49" class="node"><title>topo.command.analysis.measure_od_pref</title>
<polygon fill="none" stroke="black" stroke-width="0.5" points="1838,-134.5 1620,-134.5 1620,-113.5 1838,-113.5 1838,-134.5"/>
<text text-anchor="middle" x="1729" y="-121.5" font-family="Vera" font-size="10.00">topo.command.analysis.measure_od_pref</text>
</g>
<!-- topo.analysis.featureresponses.SinusoidalMeasureResponseCommand&#45;&gt;topo.command.analysis.measure_od_pref -->
<g id="edge44" class="edge"><title>topo.analysis.featureresponses.SinusoidalMeasureResponseCommand&#45;&gt;topo.command.analysis.measure_od_pref</title>
<path fill="none" stroke="black" stroke-width="0.5" d="M1496.19,-160.948C1516.84,-158.493 1538.11,-155.53 1558,-152 1574.24,-149.118 1577.81,-146.154 1594,-143 1609.69,-139.944 1626.49,-137.179 1642.73,-134.763"/>
<polygon fill="black" stroke="black" points="1643.05,-136.484 1647.74,-134.025 1642.54,-133.021 1643.05,-136.484"/>
</g>
<!-- topo.command.analysis.measure_sine_pref -->
<g id="node51" class="node"><title>topo.command.analysis.measure_sine_pref</title>
<polygon fill="none" stroke="black" stroke-width="0.5" points="1842,-96.5 1616,-96.5 1616,-75.5 1842,-75.5 1842,-96.5"/>
<text text-anchor="middle" x="1729" y="-83.5" font-family="Vera" font-size="10.00">topo.command.analysis.measure_sine_pref</text>
</g>
<!-- topo.analysis.featureresponses.SinusoidalMeasureResponseCommand&#45;&gt;topo.command.analysis.measure_sine_pref -->
<g id="edge46" class="edge"><title>topo.analysis.featureresponses.SinusoidalMeasureResponseCommand&#45;&gt;topo.command.analysis.measure_sine_pref</title>
<path fill="none" stroke="black" stroke-width="0.5" d="M1538.9,-160.961C1545.5,-158.393 1551.9,-155.424 1558,-152 1580.94,-139.115 1571.28,-118.268 1594,-105 1599.35,-101.877 1605.02,-99.1932 1610.88,-96.8925"/>
<polygon fill="black" stroke="black" points="1611.77,-98.429 1615.85,-95.0487 1610.55,-95.1477 1611.77,-98.429"/>
</g>
<!-- topo.command.analysis.measure_or_pref -->
<g id="node55" class="node"><title>topo.command.analysis.measure_or_pref</title>
<polygon fill="none" stroke="black" stroke-width="0.5" points="1837,-58.5 1621,-58.5 1621,-37.5 1837,-37.5 1837,-58.5"/>
<text text-anchor="middle" x="1729" y="-45.5" font-family="Vera" font-size="10.00">topo.command.analysis.measure_or_pref</text>
</g>
<!-- topo.analysis.featureresponses.SinusoidalMeasureResponseCommand&#45;&gt;topo.command.analysis.measure_or_pref -->
<g id="edge50" class="edge"><title>topo.analysis.featureresponses.SinusoidalMeasureResponseCommand&#45;&gt;topo.command.analysis.measure_or_pref</title>
<path fill="none" stroke="black" stroke-width="0.5" d="M1543.83,-160.911C1548.77,-158.291 1553.51,-155.333 1558,-152 1590.95,-127.557 1561.46,-91.9915 1594,-67 1600.68,-61.8659 1608.12,-57.7925 1615.97,-54.584"/>
<polygon fill="black" stroke="black" points="1616.86,-56.1162 1620.91,-52.6963 1615.61,-52.8469 1616.86,-56.1162"/>
</g>
<!-- topo.command.analysis.measure_dr_pref -->
<g id="node62" class="node"><title>topo.command.analysis.measure_dr_pref</title>
<polygon fill="none" stroke="black" stroke-width="0.5" points="1837,-20.5 1621,-20.5 1621,0.5 1837,0.5 1837,-20.5"/>
<text text-anchor="middle" x="1729" y="-7.5" font-family="Vera" font-size="10.00">topo.command.analysis.measure_dr_pref</text>
</g>
<!-- topo.analysis.featureresponses.SinusoidalMeasureResponseCommand&#45;&gt;topo.command.analysis.measure_dr_pref -->
<g id="edge60" class="edge"><title>topo.analysis.featureresponses.SinusoidalMeasureResponseCommand&#45;&gt;topo.command.analysis.measure_dr_pref</title>
<path fill="none" stroke="black" stroke-width="0.5" d="M1545.55,-160.862C1549.9,-158.232 1554.07,-155.289 1558,-152 1601.7,-115.471 1550.91,-66.2555 1594,-29 1600.52,-23.3592 1607.93,-18.9393 1615.82,-15.5069"/>
<polygon fill="black" stroke="black" points="1616.82,-16.9912 1620.8,-13.4953 1615.51,-13.7462 1616.82,-16.9912"/>
</g>
<!-- topo.command.analysis.measure_log_frequency_preference -->
<g id="node15" class="node"><title>topo.command.analysis.measure_log_frequency_preference</title>
<polygon fill="none" stroke="black" stroke-width="0.5" points="1533,-143.5 1227,-143.5 1227,-122.5 1533,-122.5 1533,-143.5"/>
<text text-anchor="middle" x="1380" y="-130.5" font-family="Vera" font-size="10.00">topo.command.analysis.measure_log_frequency_preference</text>
</g>
<!-- topo.analysis.featureresponses.MeasureResponseCommand -->
<g id="node16" class="node"><title>topo.analysis.featureresponses.MeasureResponseCommand</title>
<polygon fill="none" stroke="black" stroke-width="0.5" points="1165,-181.5 859,-181.5 859,-160.5 1165,-160.5 1165,-181.5"/>
<text text-anchor="middle" x="1012" y="-168.5" font-family="Vera" font-size="10.00">topo.analysis.featureresponses.MeasureResponseCommand</text>
</g>
<!-- topo.analysis.featureresponses.MeasureResponseCommand&#45;&gt;topo.analysis.featureresponses.PositionMeasurementCommand -->
<g id="edge54" class="edge"><title>topo.analysis.featureresponses.MeasureResponseCommand&#45;&gt;topo.analysis.featureresponses.PositionMeasurementCommand</title>
<path fill="none" stroke="black" stroke-width="0.5" d="M1028.65,-181.153C1060.95,-200.421 1134.83,-242.465 1202,-266 1236.25,-278 1275.6,-286.882 1308.57,-293.027"/>
<polygon fill="black" stroke="black" points="1308.58,-294.807 1313.81,-293.99 1309.21,-291.364 1308.58,-294.807"/>
</g>
<!-- topo.analysis.featureresponses.MeasureResponseCommand&#45;&gt;topo.analysis.featureresponses.SingleInputResponseCommand -->
<g id="edge58" class="edge"><title>topo.analysis.featureresponses.MeasureResponseCommand&#45;&gt;topo.analysis.featureresponses.SingleInputResponseCommand</title>
<path fill="none" stroke="black" stroke-width="0.5" d="M1060.49,-181.014C1129.29,-195.224 1254.83,-221.149 1326.35,-235.92"/>
<polygon fill="black" stroke="black" points="1326.15,-237.666 1331.4,-236.964 1326.86,-234.239 1326.15,-237.666"/>
</g>
<!-- topo.analysis.featureresponses.MeasureResponseCommand&#45;&gt;topo.analysis.featureresponses.SinusoidalMeasureResponseCommand -->
<g id="edge56" class="edge"><title>topo.analysis.featureresponses.MeasureResponseCommand&#45;&gt;topo.analysis.featureresponses.SinusoidalMeasureResponseCommand</title>
<path fill="none" stroke="black" stroke-width="0.5" d="M1165.67,-171C1175.91,-171 1186.29,-171 1196.66,-171"/>
<polygon fill="black" stroke="black" points="1196.75,-172.75 1201.75,-171 1196.75,-169.25 1196.75,-172.75"/>
</g>
<!-- topo.analysis.featureresponses.MeasureResponseCommand&#45;&gt;topo.command.analysis.measure_log_frequency_preference -->
<g id="edge12" class="edge"><title>topo.analysis.featureresponses.MeasureResponseCommand&#45;&gt;topo.command.analysis.measure_log_frequency_preference</title>
<path fill="none" stroke="black" stroke-width="0.5" d="M1109.17,-160.966C1161.15,-155.598 1225.14,-148.991 1277.86,-143.547"/>
<polygon fill="black" stroke="black" points="1278.13,-145.278 1282.93,-143.024 1277.77,-141.797 1278.13,-145.278"/>
</g>
<!-- topo.command.analysis.measure_latency_preference -->
<g id="node47" class="node"><title>topo.command.analysis.measure_latency_preference</title>
<polygon fill="none" stroke="black" stroke-width="0.5" points="1517,-105.5 1243,-105.5 1243,-84.5 1517,-84.5 1517,-105.5"/>
<text text-anchor="middle" x="1380" y="-92.5" font-family="Vera" font-size="10.00">topo.command.analysis.measure_latency_preference</text>
</g>
<!-- topo.analysis.featureresponses.MeasureResponseCommand&#45;&gt;topo.command.analysis.measure_latency_preference -->
<g id="edge42" class="edge"><title>topo.analysis.featureresponses.MeasureResponseCommand&#45;&gt;topo.command.analysis.measure_latency_preference</title>
<path fill="none" stroke="black" stroke-width="0.5" d="M1039.6,-160.958C1076.21,-148.045 1143.09,-125.874 1202,-114 1218.29,-110.717 1235.54,-107.976 1252.64,-105.695"/>
<polygon fill="black" stroke="black" points="1253.21,-107.385 1257.94,-105.001 1252.75,-103.915 1253.21,-107.385"/>
</g>
<!-- topo.command.analysis.measure_frequency_preference -->
<g id="node65" class="node"><title>topo.command.analysis.measure_frequency_preference</title>
<polygon fill="none" stroke="black" stroke-width="0.5" points="1523,-67.5 1237,-67.5 1237,-46.5 1523,-46.5 1523,-67.5"/>
<text text-anchor="middle" x="1380" y="-54.5" font-family="Vera" font-size="10.00">topo.command.analysis.measure_frequency_preference</text>
</g>
<!-- topo.analysis.featureresponses.MeasureResponseCommand&#45;&gt;topo.command.analysis.measure_frequency_preference -->
<g id="edge64" class="edge"><title>topo.analysis.featureresponses.MeasureResponseCommand&#45;&gt;topo.command.analysis.measure_frequency_preference</title>
<path fill="none" stroke="black" stroke-width="0.5" d="M1027.47,-160.833C1058.87,-140.756 1132.99,-96.219 1202,-76 1212.83,-72.8271 1224.17,-70.1721 1235.65,-67.9518"/>
<polygon fill="black" stroke="black" points="1235.99,-69.6688 1240.59,-67.0266 1235.35,-66.2289 1235.99,-69.6688"/>
</g>
<!-- topo.analysis.featureresponses.FeatureResponses -->
<g id="node18" class="node"><title>topo.analysis.featureresponses.FeatureResponses</title>
<polygon fill="none" stroke="black" stroke-width="0.5" points="1140,-428.5 884,-428.5 884,-407.5 1140,-407.5 1140,-428.5"/>
<text text-anchor="middle" x="1012" y="-415.5" font-family="Vera" font-size="10.00">topo.analysis.featureresponses.FeatureResponses</text>
</g>
<!-- topo.command.analysis.measure_activity -->
<g id="node33" class="node"><title>topo.command.analysis.measure_activity</title>
<polygon fill="none" stroke="black" stroke-width="0.5" points="1488,-428.5 1272,-428.5 1272,-407.5 1488,-407.5 1488,-428.5"/>
<text text-anchor="middle" x="1380" y="-415.5" font-family="Vera" font-size="10.00">topo.command.analysis.measure_activity</text>
</g>
<!-- topo.analysis.featureresponses.FeatureResponses&#45;&gt;topo.command.analysis.measure_activity -->
<g id="edge28" class="edge"><title>topo.analysis.featureresponses.FeatureResponses&#45;&gt;topo.command.analysis.measure_activity</title>
<path fill="none" stroke="black" stroke-width="0.5" d="M1140.71,-418C1181.67,-418 1226.66,-418 1266.47,-418"/>
<polygon fill="black" stroke="black" points="1266.8,-419.75 1271.8,-418 1266.8,-416.25 1266.8,-419.75"/>
</g>
<!-- topo.base.functionfamily.PatternDrivenAnalysis -->
<g id="node19" class="node"><title>topo.base.functionfamily.PatternDrivenAnalysis</title>
<polygon fill="none" stroke="black" stroke-width="0.5" points="781,-409.5 541,-409.5 541,-388.5 781,-388.5 781,-409.5"/>
<text text-anchor="middle" x="661" y="-396.5" font-family="Vera" font-size="10.00">topo.base.functionfamily.PatternDrivenAnalysis</text>
</g>
<!-- topo.base.functionfamily.PatternDrivenAnalysis&#45;&gt;topo.analysis.featureresponses.FeatureResponses -->
<g id="edge14" class="edge"><title>topo.base.functionfamily.PatternDrivenAnalysis&#45;&gt;topo.analysis.featureresponses.FeatureResponses</title>
<path fill="none" stroke="black" stroke-width="0.5" d="M781.303,-405.512C812.573,-407.205 846.446,-409.038 878.359,-410.766"/>
<polygon fill="black" stroke="black" points="878.375,-412.519 883.463,-411.042 878.565,-409.024 878.375,-412.519"/>
</g>
<!-- topo.command.analysis.update_projectionactivity -->
<g id="node21" class="node"><title>topo.command.analysis.update_projectionactivity</title>
<polygon fill="none" stroke="black" stroke-width="0.5" points="1139,-390.5 885,-390.5 885,-369.5 1139,-369.5 1139,-390.5"/>
<text text-anchor="middle" x="1012" y="-377.5" font-family="Vera" font-size="10.00">topo.command.analysis.update_projectionactivity</text>
</g>
<!-- topo.plotting.plotgroup.ProjectionSheetMeasurementCommand -->
<g id="node22" class="node"><title>topo.plotting.plotgroup.ProjectionSheetMeasurementCommand</title>
<polygon fill="none" stroke="black" stroke-width="0.5" points="822,-371.5 500,-371.5 500,-350.5 822,-350.5 822,-371.5"/>
<text text-anchor="middle" x="661" y="-358.5" font-family="Vera" font-size="10.00">topo.plotting.plotgroup.ProjectionSheetMeasurementCommand</text>
</g>
<!-- topo.plotting.plotgroup.ProjectionSheetMeasurementCommand&#45;&gt;topo.command.analysis.update_projectionactivity -->
<g id="edge16" class="edge"><title>topo.plotting.plotgroup.ProjectionSheetMeasurementCommand&#45;&gt;topo.command.analysis.update_projectionactivity</title>
<path fill="none" stroke="black" stroke-width="0.5" d="M822.118,-369.721C841.391,-370.765 860.898,-371.821 879.699,-372.838"/>
<polygon fill="black" stroke="black" points="879.895,-374.601 884.982,-373.124 880.084,-371.107 879.895,-374.601"/>
</g>
<!-- topo.plotting.plotgroup.UnitMeasurementCommand -->
<g id="node38" class="node"><title>topo.plotting.plotgroup.UnitMeasurementCommand</title>
<polygon fill="none" stroke="black" stroke-width="0.5" points="1145,-352.5 879,-352.5 879,-331.5 1145,-331.5 1145,-352.5"/>
<text text-anchor="middle" x="1012" y="-339.5" font-family="Vera" font-size="10.00">topo.plotting.plotgroup.UnitMeasurementCommand</text>
</g>
<!-- topo.plotting.plotgroup.ProjectionSheetMeasurementCommand&#45;&gt;topo.plotting.plotgroup.UnitMeasurementCommand -->
<g id="edge40" class="edge"><title>topo.plotting.plotgroup.ProjectionSheetMeasurementCommand&#45;&gt;topo.plotting.plotgroup.UnitMeasurementCommand</title>
<path fill="none" stroke="black" stroke-width="0.5" d="M822.118,-352.279C839.348,-351.346 856.765,-350.403 873.698,-349.486"/>
<polygon fill="black" stroke="black" points="874.038,-351.221 878.936,-349.203 873.849,-347.726 874.038,-351.221"/>
</g>
<!-- topo.analysis.featureresponses.PatternPresentingCommand -->
<g id="node24" class="node"><title>topo.analysis.featureresponses.PatternPresentingCommand</title>
<polygon fill="none" stroke="black" stroke-width="0.5" points="813,-333.5 509,-333.5 509,-312.5 813,-312.5 813,-333.5"/>
<text text-anchor="middle" x="661" y="-320.5" font-family="Vera" font-size="10.00">topo.analysis.featureresponses.PatternPresentingCommand</text>
</g>
<!-- topo.analysis.featureresponses.PatternPresentingCommand&#45;&gt;topo.analysis.featureresponses.MeasureResponseCommand -->
<g id="edge18" class="edge"><title>topo.analysis.featureresponses.PatternPresentingCommand&#45;&gt;topo.analysis.featureresponses.MeasureResponseCommand</title>
<path fill="none" stroke="black" stroke-width="0.5" d="M792.791,-312.914C802.82,-310.495 812.663,-307.558 822,-304 895.817,-275.869 968.084,-212.741 997.821,-184.78"/>
<polygon fill="black" stroke="black" points="999.139,-185.942 1001.57,-181.233 996.732,-183.401 999.139,-185.942"/>
</g>
<!-- param.parameterized.ParameterizedFunction&#45;&gt;topo.base.functionfamily.PatternDrivenAnalysis -->
<g id="edge66" class="edge"><title>param.parameterized.ParameterizedFunction&#45;&gt;topo.base.functionfamily.PatternDrivenAnalysis</title>
<path fill="none" stroke="black" stroke-width="0.5" d="M426.793,-371.002C450.364,-373.932 476.218,-377.12 500,-380 522.73,-382.752 547.271,-385.674 570.177,-388.38"/>
<polygon fill="black" stroke="black" points="570.174,-390.141 575.345,-388.99 570.584,-386.665 570.174,-390.141"/>
</g>
<!-- param.parameterized.ParameterizedFunction&#45;&gt;topo.plotting.plotgroup.ProjectionSheetMeasurementCommand -->
<g id="edge24" class="edge"><title>param.parameterized.ParameterizedFunction&#45;&gt;topo.plotting.plotgroup.ProjectionSheetMeasurementCommand</title>
<path fill="none" stroke="black" stroke-width="0.5" d="M464.369,-361C474.323,-361 484.506,-361 494.741,-361"/>
<polygon fill="black" stroke="black" points="494.769,-362.75 499.769,-361 494.769,-359.25 494.769,-362.75"/>
</g>
<!-- param.parameterized.ParameterizedFunction&#45;&gt;topo.analysis.featureresponses.PatternPresentingCommand -->
<g id="edge62" class="edge"><title>param.parameterized.ParameterizedFunction&#45;&gt;topo.analysis.featureresponses.PatternPresentingCommand</title>
<path fill="none" stroke="black" stroke-width="0.5" d="M426.793,-350.998C450.364,-348.068 476.218,-344.88 500,-342 522.73,-339.248 547.271,-336.326 570.177,-333.62"/>
<polygon fill="black" stroke="black" points="570.584,-335.335 575.345,-333.01 570.174,-331.859 570.584,-335.335"/>
</g>
<!-- topo.command.analysis.save_plotgroup -->
<g id="node31" class="node"><title>topo.command.analysis.save_plotgroup</title>
<polygon fill="none" stroke="black" stroke-width="0.5" points="765,-295.5 557,-295.5 557,-274.5 765,-274.5 765,-295.5"/>
<text text-anchor="middle" x="661" y="-282.5" font-family="Vera" font-size="10.00">topo.command.analysis.save_plotgroup</text>
</g>
<!-- param.parameterized.ParameterizedFunction&#45;&gt;topo.command.analysis.save_plotgroup -->
<g id="edge26" class="edge"><title>param.parameterized.ParameterizedFunction&#45;&gt;topo.command.analysis.save_plotgroup</title>
<path fill="none" stroke="black" stroke-width="0.5" d="M442.297,-350.992C449.846,-348.569 457.179,-345.609 464,-342 484.563,-331.119 479.205,-314.431 500,-304 515.982,-295.983 533.946,-290.775 551.925,-287.475"/>
<polygon fill="black" stroke="black" points="552.368,-289.175 556.995,-286.595 551.769,-285.726 552.368,-289.175"/>
</g>
<!-- topo.command.analysis.update_projection -->
<g id="node37" class="node"><title>topo.command.analysis.update_projection</title>
<polygon fill="none" stroke="black" stroke-width="0.5" points="1490,-390.5 1270,-390.5 1270,-369.5 1490,-369.5 1490,-390.5"/>
<text text-anchor="middle" x="1380" y="-377.5" font-family="Vera" font-size="10.00">topo.command.analysis.update_projection</text>
</g>
<!-- topo.plotting.plotgroup.UnitMeasurementCommand&#45;&gt;topo.command.analysis.update_projection -->
<g id="edge32" class="edge"><title>topo.plotting.plotgroup.UnitMeasurementCommand&#45;&gt;topo.command.analysis.update_projection</title>
<path fill="none" stroke="black" stroke-width="0.5" d="M1109.17,-352.034C1161.15,-357.402 1225.14,-364.009 1277.86,-369.453"/>
<polygon fill="black" stroke="black" points="1277.77,-371.203 1282.93,-369.976 1278.13,-367.722 1277.77,-371.203"/>
</g>
<!-- topo.command.analysis.update_connectionfields -->
<g id="node42" class="node"><title>topo.command.analysis.update_connectionfields</title>
<polygon fill="none" stroke="black" stroke-width="0.5" points="1505,-352.5 1255,-352.5 1255,-331.5 1505,-331.5 1505,-352.5"/>
<text text-anchor="middle" x="1380" y="-339.5" font-family="Vera" font-size="10.00">topo.command.analysis.update_connectionfields</text>
</g>
<!-- topo.plotting.plotgroup.UnitMeasurementCommand&#45;&gt;topo.command.analysis.update_connectionfields -->
<g id="edge36" class="edge"><title>topo.plotting.plotgroup.UnitMeasurementCommand&#45;&gt;topo.command.analysis.update_connectionfields</title>
<path fill="none" stroke="black" stroke-width="0.5" d="M1145.12,-342C1178.91,-342 1215.19,-342 1248.88,-342"/>
<polygon fill="black" stroke="black" points="1249.27,-343.75 1254.27,-342 1249.27,-340.25 1249.27,-343.75"/>
</g>
</g>
</svg>
