<?xml version="1.0" encoding="UTF-8" standalone="no"?>
<!DOCTYPE svg PUBLIC "-//W3C//DTD SVG 1.1//EN"
 "http://www.w3.org/Graphics/SVG/1.1/DTD/svg11.dtd">
<!-- Generated by graphviz version 2.26.3 (20100126.1600)
 -->
<!-- Title: inheritancebede3c61fc Pages: 1 -->
<svg width="2498pt" height="598pt"
 viewBox="0.00 0.00 2498.00 598.00" xmlns="http://www.w3.org/2000/svg" xmlns:xlink="http://www.w3.org/1999/xlink">
<g id="graph1" class="graph" transform="scale(1 1) rotate(0) translate(4 594)">
<title>inheritancebede3c61fc</title>
<polygon fill="white" stroke="white" points="-4,5 -4,-594 2495,-594 2495,5 -4,5"/>
<!-- topo.command.pylabplot.cyclic_tuning_curve -->
<g id="node1" class="node"><title>topo.command.pylabplot.cyclic_tuning_curve</title>
<polygon fill="none" stroke="black" stroke-width="0.5" points="2150,-438.5 1918,-438.5 1918,-417.5 2150,-417.5 2150,-438.5"/>
<text text-anchor="middle" x="2034" y="-425.5" font-family="Vera" font-size="10.00">topo.command.pylabplot.cyclic_tuning_curve</text>
</g>
<!-- topo.command.pylabplot.cyclic_unit_tuning_curve -->
<g id="node2" class="node"><title>topo.command.pylabplot.cyclic_unit_tuning_curve</title>
<polygon fill="none" stroke="black" stroke-width="0.5" points="1847,-438.5 1593,-438.5 1593,-417.5 1847,-417.5 1847,-438.5"/>
<text text-anchor="middle" x="1720" y="-425.5" font-family="Vera" font-size="10.00">topo.command.pylabplot.cyclic_unit_tuning_curve</text>
</g>
<!-- topo.command.pylabplot.cyclic_unit_tuning_curve&#45;&gt;topo.command.pylabplot.cyclic_tuning_curve -->
<g id="edge2" class="edge"><title>topo.command.pylabplot.cyclic_unit_tuning_curve&#45;&gt;topo.command.pylabplot.cyclic_tuning_curve</title>
<path fill="none" stroke="black" stroke-width="0.5" d="M1847.72,-428C1869.17,-428 1891.38,-428 1912.67,-428"/>
<polygon fill="black" stroke="black" points="1912.78,-429.75 1917.78,-428 1912.78,-426.25 1912.78,-429.75"/>
</g>
<!-- topo.command.pylabplot.measure_position_pref -->
<g id="node4" class="node"><title>topo.command.pylabplot.measure_position_pref</title>
<polygon fill="none" stroke="black" stroke-width="0.5" points="1844,-153.5 1596,-153.5 1596,-132.5 1844,-132.5 1844,-153.5"/>
<text text-anchor="middle" x="1720" y="-140.5" font-family="Vera" font-size="10.00">topo.command.pylabplot.measure_position_pref</text>
</g>
<!-- topo.analysis.featureresponses.PositionMeasurementCommand -->
<g id="node5" class="node"><title>topo.analysis.featureresponses.PositionMeasurementCommand</title>
<polygon fill="none" stroke="black" stroke-width="0.5" points="1526,-153.5 1202,-153.5 1202,-132.5 1526,-132.5 1526,-153.5"/>
<text text-anchor="middle" x="1364" y="-140.5" font-family="Vera" font-size="10.00">topo.analysis.featureresponses.PositionMeasurementCommand</text>
</g>
<!-- topo.analysis.featureresponses.PositionMeasurementCommand&#45;&gt;topo.command.pylabplot.measure_position_pref -->
<g id="edge4" class="edge"><title>topo.analysis.featureresponses.PositionMeasurementCommand&#45;&gt;topo.command.pylabplot.measure_position_pref</title>
<path fill="none" stroke="black" stroke-width="0.5" d="M1526.11,-143C1547.52,-143 1569.23,-143 1590,-143"/>
<polygon fill="black" stroke="black" points="1590.26,-144.75 1595.26,-143 1590.26,-141.25 1590.26,-144.75"/>
</g>
<!-- param.parameterized.Parameterized -->
<g id="node7" class="node"><title>param.parameterized.Parameterized</title>
<polygon fill="none" stroke="black" stroke-width="0.5" points="194,-296.5 5.68434e-14,-296.5 0,-275.5 194,-275.5 194,-296.5"/>
<text text-anchor="middle" x="97" y="-283.5" font-family="Vera" font-size="10.00">param.parameterized.Parameterized</text>
</g>
<!-- param.parameterized.ParameterizedFunction -->
<g id="node11" class="node"><title>param.parameterized.ParameterizedFunction</title>
<polygon fill="none" stroke="black" stroke-width="0.5" points="464,-296.5 230,-296.5 230,-275.5 464,-275.5 464,-296.5"/>
<text text-anchor="middle" x="347" y="-283.5" font-family="Vera" font-size="10.00">param.parameterized.ParameterizedFunction</text>
</g>
<!-- param.parameterized.Parameterized&#45;&gt;param.parameterized.ParameterizedFunction -->
<g id="edge8" class="edge"><title>param.parameterized.Parameterized&#45;&gt;param.parameterized.ParameterizedFunction</title>
<path fill="none" stroke="black" stroke-width="0.5" d="M194.014,-286C204.04,-286 214.319,-286 224.575,-286"/>
<polygon fill="black" stroke="black" points="224.607,-287.75 229.607,-286 224.607,-284.25 224.607,-287.75"/>
</g>
<!-- topo.command.pylabplot.measure_or_tuning_fullfield -->
<g id="node8" class="node"><title>topo.command.pylabplot.measure_or_tuning_fullfield</title>
<polygon fill="none" stroke="black" stroke-width="0.5" points="2169,-134.5 1899,-134.5 1899,-113.5 2169,-113.5 2169,-134.5"/>
<text text-anchor="middle" x="2034" y="-121.5" font-family="Vera" font-size="10.00">topo.command.pylabplot.measure_or_tuning_fullfield</text>
</g>
<!-- topo.analysis.featureresponses.FeatureCurveCommand -->
<g id="node9" class="node"><title>topo.analysis.featureresponses.FeatureCurveCommand</title>
<polygon fill="none" stroke="black" stroke-width="0.5" points="1862,-115.5 1578,-115.5 1578,-94.5 1862,-94.5 1862,-115.5"/>
<text text-anchor="middle" x="1720" y="-102.5" font-family="Vera" font-size="10.00">topo.analysis.featureresponses.FeatureCurveCommand</text>
</g>
<!-- topo.analysis.featureresponses.FeatureCurveCommand&#45;&gt;topo.command.pylabplot.measure_or_tuning_fullfield -->
<g id="edge6" class="edge"><title>topo.analysis.featureresponses.FeatureCurveCommand&#45;&gt;topo.command.pylabplot.measure_or_tuning_fullfield</title>
<path fill="none" stroke="black" stroke-width="0.5" d="M1862.3,-113.611C1872.62,-114.235 1883.02,-114.865 1893.33,-115.488"/>
<polygon fill="black" stroke="black" points="1893.29,-117.239 1898.39,-115.794 1893.5,-113.745 1893.29,-117.239"/>
</g>
<!-- topo.analysis.featureresponses.UnitCurveCommand -->
<g id="node27" class="node"><title>topo.analysis.featureresponses.UnitCurveCommand</title>
<polygon fill="none" stroke="black" stroke-width="0.5" points="2167,-96.5 1901,-96.5 1901,-75.5 2167,-75.5 2167,-96.5"/>
<text text-anchor="middle" x="2034" y="-83.5" font-family="Vera" font-size="10.00">topo.analysis.featureresponses.UnitCurveCommand</text>
</g>
<!-- topo.analysis.featureresponses.FeatureCurveCommand&#45;&gt;topo.analysis.featureresponses.UnitCurveCommand -->
<g id="edge66" class="edge"><title>topo.analysis.featureresponses.FeatureCurveCommand&#45;&gt;topo.analysis.featureresponses.UnitCurveCommand</title>
<path fill="none" stroke="black" stroke-width="0.5" d="M1862.3,-96.3895C1873.28,-95.7253 1884.35,-95.0553 1895.3,-94.3926"/>
<polygon fill="black" stroke="black" points="1895.44,-96.1376 1900.32,-94.0887 1895.23,-92.644 1895.44,-96.1376"/>
</g>
<!-- topo.command.pylabplot.measure_cog -->
<g id="node13" class="node"><title>topo.command.pylabplot.measure_cog</title>
<polygon fill="none" stroke="black" stroke-width="0.5" points="755,-334.5 551,-334.5 551,-313.5 755,-313.5 755,-334.5"/>
<text text-anchor="middle" x="653" y="-321.5" font-family="Vera" font-size="10.00">topo.command.pylabplot.measure_cog</text>
</g>
<!-- param.parameterized.ParameterizedFunction&#45;&gt;topo.command.pylabplot.measure_cog -->
<g id="edge10" class="edge"><title>param.parameterized.ParameterizedFunction&#45;&gt;topo.command.pylabplot.measure_cog</title>
<path fill="none" stroke="black" stroke-width="0.5" d="M427.798,-296.034C470.763,-301.369 523.585,-307.929 567.271,-313.354"/>
<polygon fill="black" stroke="black" points="567.102,-315.096 572.28,-313.976 567.534,-311.623 567.102,-315.096"/>
</g>
<!-- topo.command.Command -->
<g id="node40" class="node"><title>topo.command.Command</title>
<polygon fill="none" stroke="black" stroke-width="0.5" points="724,-296.5 582,-296.5 582,-275.5 724,-275.5 724,-296.5"/>
<text text-anchor="middle" x="653" y="-283.5" font-family="Vera" font-size="10.00">topo.command.Command</text>
</g>
<!-- param.parameterized.ParameterizedFunction&#45;&gt;topo.command.Command -->
<g id="edge50" class="edge"><title>param.parameterized.ParameterizedFunction&#45;&gt;topo.command.Command</title>
<path fill="none" stroke="black" stroke-width="0.5" d="M464.432,-286C501.869,-286 542.312,-286 576.108,-286"/>
<polygon fill="black" stroke="black" points="576.474,-287.75 581.474,-286 576.474,-284.25 576.474,-287.75"/>
</g>
<!-- topo.analysis.featureresponses.PatternPresentingCommand -->
<g id="node48" class="node"><title>topo.analysis.featureresponses.PatternPresentingCommand</title>
<polygon fill="none" stroke="black" stroke-width="0.5" points="805,-201.5 501,-201.5 501,-180.5 805,-180.5 805,-201.5"/>
<text text-anchor="middle" x="653" y="-188.5" font-family="Vera" font-size="10.00">topo.analysis.featureresponses.PatternPresentingCommand</text>
</g>
<!-- param.parameterized.ParameterizedFunction&#45;&gt;topo.analysis.featureresponses.PatternPresentingCommand -->
<g id="edge62" class="edge"><title>param.parameterized.ParameterizedFunction&#45;&gt;topo.analysis.featureresponses.PatternPresentingCommand</title>
<path fill="none" stroke="black" stroke-width="0.5" d="M379.458,-275.923C436.608,-258.181 554.867,-221.466 615.445,-202.659"/>
<polygon fill="black" stroke="black" points="616.158,-204.27 620.415,-201.116 615.121,-200.928 616.158,-204.27"/>
</g>
<!-- topo.command.pylabplot.fftplot -->
<g id="node15" class="node"><title>topo.command.pylabplot.fftplot</title>
<polygon fill="none" stroke="black" stroke-width="0.5" points="1803,-590.5 1637,-590.5 1637,-569.5 1803,-569.5 1803,-590.5"/>
<text text-anchor="middle" x="1720" y="-577.5" font-family="Vera" font-size="10.00">topo.command.pylabplot.fftplot</text>
</g>
<!-- topo.command.pylabplot.matrixplot -->
<g id="node16" class="node"><title>topo.command.pylabplot.matrixplot</title>
<polygon fill="none" stroke="black" stroke-width="0.5" points="1458,-514.5 1270,-514.5 1270,-493.5 1458,-493.5 1458,-514.5"/>
<text text-anchor="middle" x="1364" y="-501.5" font-family="Vera" font-size="10.00">topo.command.pylabplot.matrixplot</text>
</g>
<!-- topo.command.pylabplot.matrixplot&#45;&gt;topo.command.pylabplot.fftplot -->
<g id="edge12" class="edge"><title>topo.command.pylabplot.matrixplot&#45;&gt;topo.command.pylabplot.fftplot</title>
<path fill="none" stroke="black" stroke-width="0.5" d="M1396.69,-514.1C1438.4,-526.666 1512.96,-548.041 1578,-561 1595.17,-564.421 1613.63,-567.397 1631.38,-569.914"/>
<polygon fill="black" stroke="black" points="1631.17,-571.651 1636.36,-570.611 1631.65,-568.185 1631.17,-571.651"/>
</g>
<!-- topo.command.pylabplot.gradientplot -->
<g id="node54" class="node"><title>topo.command.pylabplot.gradientplot</title>
<polygon fill="none" stroke="black" stroke-width="0.5" points="1818,-552.5 1622,-552.5 1622,-531.5 1818,-531.5 1818,-552.5"/>
<text text-anchor="middle" x="1720" y="-539.5" font-family="Vera" font-size="10.00">topo.command.pylabplot.gradientplot</text>
</g>
<!-- topo.command.pylabplot.matrixplot&#45;&gt;topo.command.pylabplot.gradientplot -->
<g id="edge48" class="edge"><title>topo.command.pylabplot.matrixplot&#45;&gt;topo.command.pylabplot.gradientplot</title>
<path fill="none" stroke="black" stroke-width="0.5" d="M1458,-514.034C1508.19,-519.391 1569.94,-525.982 1620.88,-531.42"/>
<polygon fill="black" stroke="black" points="1620.93,-533.185 1626.09,-531.976 1621.3,-529.705 1620.93,-533.185"/>
</g>
<!-- topo.command.pylabplot.activityplot -->
<g id="node63" class="node"><title>topo.command.pylabplot.activityplot</title>
<polygon fill="none" stroke="black" stroke-width="0.5" points="1815,-514.5 1625,-514.5 1625,-493.5 1815,-493.5 1815,-514.5"/>
<text text-anchor="middle" x="1720" y="-501.5" font-family="Vera" font-size="10.00">topo.command.pylabplot.activityplot</text>
</g>
<!-- topo.command.pylabplot.matrixplot&#45;&gt;topo.command.pylabplot.activityplot -->
<g id="edge60" class="edge"><title>topo.command.pylabplot.matrixplot&#45;&gt;topo.command.pylabplot.activityplot</title>
<path fill="none" stroke="black" stroke-width="0.5" d="M1458,-504C1507.59,-504 1568.47,-504 1619.06,-504"/>
<polygon fill="black" stroke="black" points="1619.23,-505.75 1624.23,-504 1619.23,-502.25 1619.23,-505.75"/>
</g>
<!-- topo.command.pylabplot.autocorrelationplot -->
<g id="node68" class="node"><title>topo.command.pylabplot.autocorrelationplot</title>
<polygon fill="none" stroke="black" stroke-width="0.5" points="1835,-476.5 1605,-476.5 1605,-455.5 1835,-455.5 1835,-476.5"/>
<text text-anchor="middle" x="1720" y="-463.5" font-family="Vera" font-size="10.00">topo.command.pylabplot.autocorrelationplot</text>
</g>
<!-- topo.command.pylabplot.matrixplot&#45;&gt;topo.command.pylabplot.autocorrelationplot -->
<g id="edge68" class="edge"><title>topo.command.pylabplot.matrixplot&#45;&gt;topo.command.pylabplot.autocorrelationplot</title>
<path fill="none" stroke="black" stroke-width="0.5" d="M1458,-493.966C1508.19,-488.609 1569.94,-482.018 1620.88,-476.58"/>
<polygon fill="black" stroke="black" points="1621.3,-478.295 1626.09,-476.024 1620.93,-474.815 1621.3,-478.295"/>
</g>
<!-- topo.command.pylabplot.vectorplot -->
<g id="node18" class="node"><title>topo.command.pylabplot.vectorplot</title>
<polygon fill="none" stroke="black" stroke-width="0.5" points="1458,-457.5 1270,-457.5 1270,-436.5 1458,-436.5 1458,-457.5"/>
<text text-anchor="middle" x="1364" y="-444.5" font-family="Vera" font-size="10.00">topo.command.pylabplot.vectorplot</text>
</g>
<!-- topo.command.pylabplot.PylabPlotCommand -->
<g id="node19" class="node"><title>topo.command.pylabplot.PylabPlotCommand</title>
<polygon fill="none" stroke="black" stroke-width="0.5" points="1112,-324.5 880,-324.5 880,-303.5 1112,-303.5 1112,-324.5"/>
<text text-anchor="middle" x="996" y="-311.5" font-family="Vera" font-size="10.00">topo.command.pylabplot.PylabPlotCommand</text>
</g>
<!-- topo.command.pylabplot.PylabPlotCommand&#45;&gt;topo.command.pylabplot.matrixplot -->
<g id="edge64" class="edge"><title>topo.command.pylabplot.PylabPlotCommand&#45;&gt;topo.command.pylabplot.matrixplot</title>
<path fill="none" stroke="black" stroke-width="0.5" d="M1005.16,-324.059C1030.79,-351.546 1106.6,-428.374 1186,-466 1212.99,-478.792 1244.32,-487.318 1273.11,-492.985"/>
<polygon fill="black" stroke="black" points="1272.83,-494.714 1278.07,-493.94 1273.49,-491.277 1272.83,-494.714"/>
</g>
<!-- topo.command.pylabplot.PylabPlotCommand&#45;&gt;topo.command.pylabplot.vectorplot -->
<g id="edge14" class="edge"><title>topo.command.pylabplot.PylabPlotCommand&#45;&gt;topo.command.pylabplot.vectorplot</title>
<path fill="none" stroke="black" stroke-width="0.5" d="M1008.39,-324.123C1037.37,-347.165 1112.69,-403.43 1186,-428 1210.86,-436.333 1238.67,-441.237 1264.79,-444.067"/>
<polygon fill="black" stroke="black" points="1264.83,-445.831 1269.99,-444.606 1265.19,-442.349 1264.83,-445.831"/>
</g>
<!-- topo.command.pylabplot.unit_tuning_curve -->
<g id="node24" class="node"><title>topo.command.pylabplot.unit_tuning_curve</title>
<polygon fill="none" stroke="black" stroke-width="0.5" points="1476,-419.5 1252,-419.5 1252,-398.5 1476,-398.5 1476,-419.5"/>
<text text-anchor="middle" x="1364" y="-406.5" font-family="Vera" font-size="10.00">topo.command.pylabplot.unit_tuning_curve</text>
</g>
<!-- topo.command.pylabplot.PylabPlotCommand&#45;&gt;topo.command.pylabplot.unit_tuning_curve -->
<g id="edge58" class="edge"><title>topo.command.pylabplot.PylabPlotCommand&#45;&gt;topo.command.pylabplot.unit_tuning_curve</title>
<path fill="none" stroke="black" stroke-width="0.5" d="M1015.92,-324.097C1049.86,-340.816 1121.52,-373.987 1186,-390 1205.32,-394.799 1226.13,-398.386 1246.45,-401.068"/>
<polygon fill="black" stroke="black" points="1246.43,-402.829 1251.61,-401.73 1246.87,-399.357 1246.43,-402.829"/>
</g>
<!-- topo.command.pylabplot.overlaid_plot -->
<g id="node30" class="node"><title>topo.command.pylabplot.overlaid_plot</title>
<polygon fill="none" stroke="black" stroke-width="0.5" points="1464,-381.5 1264,-381.5 1264,-360.5 1464,-360.5 1464,-381.5"/>
<text text-anchor="middle" x="1364" y="-368.5" font-family="Vera" font-size="10.00">topo.command.pylabplot.overlaid_plot</text>
</g>
<!-- topo.command.pylabplot.PylabPlotCommand&#45;&gt;topo.command.pylabplot.overlaid_plot -->
<g id="edge44" class="edge"><title>topo.command.pylabplot.PylabPlotCommand&#45;&gt;topo.command.pylabplot.overlaid_plot</title>
<path fill="none" stroke="black" stroke-width="0.5" d="M1040.33,-324.056C1078.71,-332.475 1135.79,-344.315 1186,-352 1209.37,-355.577 1234.58,-358.707 1258.46,-361.338"/>
<polygon fill="black" stroke="black" points="1258.37,-363.089 1263.53,-361.892 1258.75,-359.61 1258.37,-363.089"/>
</g>
<!-- topo.command.pylabplot.matrixplot3d -->
<g id="node36" class="node"><title>topo.command.pylabplot.matrixplot3d</title>
<polygon fill="none" stroke="black" stroke-width="0.5" points="1464,-343.5 1264,-343.5 1264,-322.5 1464,-322.5 1464,-343.5"/>
<text text-anchor="middle" x="1364" y="-330.5" font-family="Vera" font-size="10.00">topo.command.pylabplot.matrixplot3d</text>
</g>
<!-- topo.command.pylabplot.PylabPlotCommand&#45;&gt;topo.command.pylabplot.matrixplot3d -->
<g id="edge28" class="edge"><title>topo.command.pylabplot.PylabPlotCommand&#45;&gt;topo.command.pylabplot.matrixplot3d</title>
<path fill="none" stroke="black" stroke-width="0.5" d="M1112.69,-320.025C1159.51,-322.442 1213.08,-325.208 1258.7,-327.563"/>
<polygon fill="black" stroke="black" points="1258.86,-329.324 1263.94,-327.834 1259.04,-325.828 1258.86,-329.324"/>
</g>
<!-- topo.command.pylabplot.xy_grid -->
<g id="node38" class="node"><title>topo.command.pylabplot.xy_grid</title>
<polygon fill="none" stroke="black" stroke-width="0.5" points="1450,-305.5 1278,-305.5 1278,-284.5 1450,-284.5 1450,-305.5"/>
<text text-anchor="middle" x="1364" y="-292.5" font-family="Vera" font-size="10.00">topo.command.pylabplot.xy_grid</text>
</g>
<!-- topo.command.pylabplot.PylabPlotCommand&#45;&gt;topo.command.pylabplot.xy_grid -->
<g id="edge30" class="edge"><title>topo.command.pylabplot.PylabPlotCommand&#45;&gt;topo.command.pylabplot.xy_grid</title>
<path fill="none" stroke="black" stroke-width="0.5" d="M1112.69,-307.975C1164.18,-305.317 1223.83,-302.237 1272.09,-299.746"/>
<polygon fill="black" stroke="black" points="1272.41,-301.481 1277.31,-299.476 1272.23,-297.986 1272.41,-301.481"/>
</g>
<!-- topo.command.pylabplot.plot_modulation_ratio -->
<g id="node42" class="node"><title>topo.command.pylabplot.plot_modulation_ratio</title>
<polygon fill="none" stroke="black" stroke-width="0.5" points="1486,-267.5 1242,-267.5 1242,-246.5 1486,-246.5 1486,-267.5"/>
<text text-anchor="middle" x="1364" y="-254.5" font-family="Vera" font-size="10.00">topo.command.pylabplot.plot_modulation_ratio</text>
</g>
<!-- topo.command.pylabplot.PylabPlotCommand&#45;&gt;topo.command.pylabplot.plot_modulation_ratio -->
<g id="edge34" class="edge"><title>topo.command.pylabplot.PylabPlotCommand&#45;&gt;topo.command.pylabplot.plot_modulation_ratio</title>
<path fill="none" stroke="black" stroke-width="0.5" d="M1040.33,-303.944C1078.71,-295.525 1135.79,-283.685 1186,-276 1206.62,-272.844 1228.66,-270.037 1249.97,-267.613"/>
<polygon fill="black" stroke="black" points="1250.3,-269.336 1255.07,-267.037 1249.91,-265.858 1250.3,-269.336"/>
</g>
<!-- topo.command.pylabplot.matrixplot3dx3 -->
<g id="node44" class="node"><title>topo.command.pylabplot.matrixplot3dx3</title>
<polygon fill="none" stroke="black" stroke-width="0.5" points="1470,-229.5 1258,-229.5 1258,-208.5 1470,-208.5 1470,-229.5"/>
<text text-anchor="middle" x="1364" y="-216.5" font-family="Vera" font-size="10.00">topo.command.pylabplot.matrixplot3dx3</text>
</g>
<!-- topo.command.pylabplot.PylabPlotCommand&#45;&gt;topo.command.pylabplot.matrixplot3dx3 -->
<g id="edge36" class="edge"><title>topo.command.pylabplot.PylabPlotCommand&#45;&gt;topo.command.pylabplot.matrixplot3dx3</title>
<path fill="none" stroke="black" stroke-width="0.5" d="M1015.92,-303.903C1049.86,-287.184 1121.52,-254.013 1186,-238 1207.31,-232.707 1230.42,-228.889 1252.71,-226.134"/>
<polygon fill="black" stroke="black" points="1252.99,-227.862 1257.75,-225.527 1252.57,-224.387 1252.99,-227.862"/>
</g>
<!-- topo.command.pylabplot.histogramplot -->
<g id="node70" class="node"><title>topo.command.pylabplot.histogramplot</title>
<polygon fill="none" stroke="black" stroke-width="0.5" points="1467,-191.5 1261,-191.5 1261,-170.5 1467,-170.5 1467,-191.5"/>
<text text-anchor="middle" x="1364" y="-178.5" font-family="Vera" font-size="10.00">topo.command.pylabplot.histogramplot</text>
</g>
<!-- topo.command.pylabplot.PylabPlotCommand&#45;&gt;topo.command.pylabplot.histogramplot -->
<g id="edge70" class="edge"><title>topo.command.pylabplot.PylabPlotCommand&#45;&gt;topo.command.pylabplot.histogramplot</title>
<path fill="none" stroke="black" stroke-width="0.5" d="M1008.39,-303.877C1037.37,-280.835 1112.69,-224.57 1186,-200 1208.01,-192.624 1232.33,-187.935 1255.73,-184.992"/>
<polygon fill="black" stroke="black" points="1255.96,-186.728 1260.71,-184.39 1255.54,-183.253 1255.96,-186.728"/>
</g>
<!-- topo.analysis.featureresponses.SinusoidalMeasureResponseCommand -->
<g id="node21" class="node"><title>topo.analysis.featureresponses.SinusoidalMeasureResponseCommand</title>
<polygon fill="none" stroke="black" stroke-width="0.5" points="1542,-115.5 1186,-115.5 1186,-94.5 1542,-94.5 1542,-115.5"/>
<text text-anchor="middle" x="1364" y="-102.5" font-family="Vera" font-size="10.00">topo.analysis.featureresponses.SinusoidalMeasureResponseCommand</text>
</g>
<!-- topo.analysis.featureresponses.SinusoidalMeasureResponseCommand&#45;&gt;topo.analysis.featureresponses.FeatureCurveCommand -->
<g id="edge16" class="edge"><title>topo.analysis.featureresponses.SinusoidalMeasureResponseCommand&#45;&gt;topo.analysis.featureresponses.FeatureCurveCommand</title>
<path fill="none" stroke="black" stroke-width="0.5" d="M1542,-105C1552.21,-105 1562.43,-105 1572.51,-105"/>
<polygon fill="black" stroke="black" points="1572.76,-106.75 1577.76,-105 1572.76,-103.25 1572.76,-106.75"/>
</g>
<!-- topo.command.pylabplot.tuning_curve -->
<g id="node23" class="node"><title>topo.command.pylabplot.tuning_curve</title>
<polygon fill="none" stroke="black" stroke-width="0.5" points="1820,-400.5 1620,-400.5 1620,-379.5 1820,-379.5 1820,-400.5"/>
<text text-anchor="middle" x="1720" y="-387.5" font-family="Vera" font-size="10.00">topo.command.pylabplot.tuning_curve</text>
</g>
<!-- topo.command.pylabplot.unit_tuning_curve&#45;&gt;topo.command.pylabplot.cyclic_unit_tuning_curve -->
<g id="edge52" class="edge"><title>topo.command.pylabplot.unit_tuning_curve&#45;&gt;topo.command.pylabplot.cyclic_unit_tuning_curve</title>
<path fill="none" stroke="black" stroke-width="0.5" d="M1476.15,-414.986C1511.31,-416.862 1550.46,-418.952 1586.92,-420.898"/>
<polygon fill="black" stroke="black" points="1587.2,-422.665 1592.28,-421.184 1587.38,-419.17 1587.2,-422.665"/>
</g>
<!-- topo.command.pylabplot.unit_tuning_curve&#45;&gt;topo.command.pylabplot.tuning_curve -->
<g id="edge18" class="edge"><title>topo.command.pylabplot.unit_tuning_curve&#45;&gt;topo.command.pylabplot.tuning_curve</title>
<path fill="none" stroke="black" stroke-width="0.5" d="M1476.15,-403.014C1520.31,-400.658 1570.76,-397.965 1614.27,-395.643"/>
<polygon fill="black" stroke="black" points="1614.37,-397.39 1619.26,-395.376 1614.18,-393.895 1614.37,-397.39"/>
</g>
<!-- topo.command.pylabplot.measure_size_response -->
<g id="node26" class="node"><title>topo.command.pylabplot.measure_size_response</title>
<polygon fill="none" stroke="black" stroke-width="0.5" points="2476,-172.5 2220,-172.5 2220,-151.5 2476,-151.5 2476,-172.5"/>
<text text-anchor="middle" x="2348" y="-159.5" font-family="Vera" font-size="10.00">topo.command.pylabplot.measure_size_response</text>
</g>
<!-- topo.analysis.featureresponses.UnitCurveCommand&#45;&gt;topo.command.pylabplot.measure_size_response -->
<g id="edge20" class="edge"><title>topo.analysis.featureresponses.UnitCurveCommand&#45;&gt;topo.command.pylabplot.measure_size_response</title>
<path fill="none" stroke="black" stroke-width="0.5" d="M2148.23,-96.0467C2155.78,-98.4991 2163.11,-101.452 2170,-105 2190.68,-115.652 2185.29,-132.408 2206,-143 2211.36,-145.743 2216.98,-148.136 2222.76,-150.223"/>
<polygon fill="black" stroke="black" points="2222.35,-151.933 2227.65,-151.904 2223.49,-148.623 2222.35,-151.933"/>
</g>
<!-- topo.command.pylabplot.measure_orientation_contrast -->
<g id="node32" class="node"><title>topo.command.pylabplot.measure_orientation_contrast</title>
<polygon fill="none" stroke="black" stroke-width="0.5" points="2490,-134.5 2206,-134.5 2206,-113.5 2490,-113.5 2490,-134.5"/>
<text text-anchor="middle" x="2348" y="-121.5" font-family="Vera" font-size="10.00">topo.command.pylabplot.measure_orientation_contrast</text>
</g>
<!-- topo.analysis.featureresponses.UnitCurveCommand&#45;&gt;topo.command.pylabplot.measure_orientation_contrast -->
<g id="edge24" class="edge"><title>topo.analysis.featureresponses.UnitCurveCommand&#45;&gt;topo.command.pylabplot.measure_orientation_contrast</title>
<path fill="none" stroke="black" stroke-width="0.5" d="M2116.91,-96.0338C2161,-101.369 2215.2,-107.929 2260.03,-113.354"/>
<polygon fill="black" stroke="black" points="2260,-115.112 2265.17,-113.976 2260.42,-111.638 2260,-115.112"/>
</g>
<!-- topo.command.pylabplot.measure_contrast_response -->
<g id="node34" class="node"><title>topo.command.pylabplot.measure_contrast_response</title>
<polygon fill="none" stroke="black" stroke-width="0.5" points="2486,-96.5 2210,-96.5 2210,-75.5 2486,-75.5 2486,-96.5"/>
<text text-anchor="middle" x="2348" y="-83.5" font-family="Vera" font-size="10.00">topo.command.pylabplot.measure_contrast_response</text>
</g>
<!-- topo.analysis.featureresponses.UnitCurveCommand&#45;&gt;topo.command.pylabplot.measure_contrast_response -->
<g id="edge26" class="edge"><title>topo.analysis.featureresponses.UnitCurveCommand&#45;&gt;topo.command.pylabplot.measure_contrast_response</title>
<path fill="none" stroke="black" stroke-width="0.5" d="M2167.62,-86C2179.74,-86 2192.05,-86 2204.26,-86"/>
<polygon fill="black" stroke="black" points="2204.48,-87.7501 2209.48,-86 2204.48,-84.2501 2204.48,-87.7501"/>
</g>
<!-- topo.command.pylabplot.measure_or_tuning -->
<g id="node58" class="node"><title>topo.command.pylabplot.measure_or_tuning</title>
<polygon fill="none" stroke="black" stroke-width="0.5" points="2464,-58.5 2232,-58.5 2232,-37.5 2464,-37.5 2464,-58.5"/>
<text text-anchor="middle" x="2348" y="-45.5" font-family="Vera" font-size="10.00">topo.command.pylabplot.measure_or_tuning</text>
</g>
<!-- topo.analysis.featureresponses.UnitCurveCommand&#45;&gt;topo.command.pylabplot.measure_or_tuning -->
<g id="edge54" class="edge"><title>topo.analysis.featureresponses.UnitCurveCommand&#45;&gt;topo.command.pylabplot.measure_or_tuning</title>
<path fill="none" stroke="black" stroke-width="0.5" d="M2116.91,-75.9662C2161,-70.6307 2215.2,-64.0711 2260.03,-58.6461"/>
<polygon fill="black" stroke="black" points="2260.42,-60.3622 2265.17,-58.024 2260,-56.8875 2260.42,-60.3622"/>
</g>
<!-- topo.command.pylabplot.test_measure -->
<g id="node60" class="node"><title>topo.command.pylabplot.test_measure</title>
<polygon fill="none" stroke="black" stroke-width="0.5" points="2451,-20.5 2245,-20.5 2245,0.5 2451,0.5 2451,-20.5"/>
<text text-anchor="middle" x="2348" y="-7.5" font-family="Vera" font-size="10.00">topo.command.pylabplot.test_measure</text>
</g>
<!-- topo.analysis.featureresponses.UnitCurveCommand&#45;&gt;topo.command.pylabplot.test_measure -->
<g id="edge56" class="edge"><title>topo.analysis.featureresponses.UnitCurveCommand&#45;&gt;topo.command.pylabplot.test_measure</title>
<path fill="none" stroke="black" stroke-width="0.5" d="M2059.22,-75.9856C2092.37,-63.2076 2152.66,-41.2927 2206,-29 2219.71,-25.841 2234.29,-23.1504 2248.69,-20.8756"/>
<polygon fill="black" stroke="black" points="2249.31,-22.5503 2253.98,-20.0562 2248.77,-19.0915 2249.31,-22.5503"/>
</g>
<!-- topo.command.pylabplot.overlaid_plots -->
<g id="node29" class="node"><title>topo.command.pylabplot.overlaid_plots</title>
<polygon fill="none" stroke="black" stroke-width="0.5" points="1823,-362.5 1617,-362.5 1617,-341.5 1823,-341.5 1823,-362.5"/>
<text text-anchor="middle" x="1720" y="-349.5" font-family="Vera" font-size="10.00">topo.command.pylabplot.overlaid_plots</text>
</g>
<!-- topo.command.pylabplot.overlaid_plot&#45;&gt;topo.command.pylabplot.overlaid_plots -->
<g id="edge22" class="edge"><title>topo.command.pylabplot.overlaid_plot&#45;&gt;topo.command.pylabplot.overlaid_plots</title>
<path fill="none" stroke="black" stroke-width="0.5" d="M1464.11,-365.657C1510.15,-363.2 1564.84,-360.281 1611.82,-357.774"/>
<polygon fill="black" stroke="black" points="1612.03,-359.515 1616.93,-357.501 1611.84,-356.02 1612.03,-359.515"/>
</g>
<!-- topo.command.pylabplot.topographic_grid -->
<g id="node50" class="node"><title>topo.command.pylabplot.topographic_grid</title>
<polygon fill="none" stroke="black" stroke-width="0.5" points="1830,-305.5 1610,-305.5 1610,-284.5 1830,-284.5 1830,-305.5"/>
<text text-anchor="middle" x="1720" y="-292.5" font-family="Vera" font-size="10.00">topo.command.pylabplot.topographic_grid</text>
</g>
<!-- topo.command.pylabplot.xy_grid&#45;&gt;topo.command.pylabplot.topographic_grid -->
<g id="edge42" class="edge"><title>topo.command.pylabplot.xy_grid&#45;&gt;topo.command.pylabplot.topographic_grid</title>
<path fill="none" stroke="black" stroke-width="0.5" d="M1450.63,-295C1496.99,-295 1554.7,-295 1604.8,-295"/>
<polygon fill="black" stroke="black" points="1604.93,-296.75 1609.93,-295 1604.93,-293.25 1604.93,-296.75"/>
</g>
<!-- topo.command.Command&#45;&gt;topo.command.pylabplot.PylabPlotCommand -->
<g id="edge32" class="edge"><title>topo.command.Command&#45;&gt;topo.command.pylabplot.PylabPlotCommand</title>
<path fill="none" stroke="black" stroke-width="0.5" d="M724.904,-291.87C768.111,-295.397 824.224,-299.977 874.182,-304.056"/>
<polygon fill="black" stroke="black" points="874.181,-305.811 879.307,-304.474 874.466,-302.323 874.181,-305.811"/>
</g>
<!-- topo.analysis.featureresponses.MeasureResponseCommand -->
<g id="node46" class="node"><title>topo.analysis.featureresponses.MeasureResponseCommand</title>
<polygon fill="none" stroke="black" stroke-width="0.5" points="1149,-153.5 843,-153.5 843,-132.5 1149,-132.5 1149,-153.5"/>
<text text-anchor="middle" x="996" y="-140.5" font-family="Vera" font-size="10.00">topo.analysis.featureresponses.MeasureResponseCommand</text>
</g>
<!-- topo.analysis.featureresponses.MeasureResponseCommand&#45;&gt;topo.analysis.featureresponses.PositionMeasurementCommand -->
<g id="edge46" class="edge"><title>topo.analysis.featureresponses.MeasureResponseCommand&#45;&gt;topo.analysis.featureresponses.PositionMeasurementCommand</title>
<path fill="none" stroke="black" stroke-width="0.5" d="M1149.67,-143C1165.16,-143 1180.95,-143 1196.58,-143"/>
<polygon fill="black" stroke="black" points="1196.87,-144.75 1201.87,-143 1196.87,-141.25 1196.87,-144.75"/>
</g>
<!-- topo.analysis.featureresponses.MeasureResponseCommand&#45;&gt;topo.analysis.featureresponses.SinusoidalMeasureResponseCommand -->
<g id="edge38" class="edge"><title>topo.analysis.featureresponses.MeasureResponseCommand&#45;&gt;topo.analysis.featureresponses.SinusoidalMeasureResponseCommand</title>
<path fill="none" stroke="black" stroke-width="0.5" d="M1093.17,-132.966C1145.15,-127.598 1209.14,-120.991 1261.86,-115.547"/>
<polygon fill="black" stroke="black" points="1262.13,-117.278 1266.93,-115.024 1261.77,-113.797 1262.13,-117.278"/>
</g>
<!-- topo.analysis.featureresponses.PatternPresentingCommand&#45;&gt;topo.analysis.featureresponses.MeasureResponseCommand -->
<g id="edge40" class="edge"><title>topo.analysis.featureresponses.PatternPresentingCommand&#45;&gt;topo.analysis.featureresponses.MeasureResponseCommand</title>
<path fill="none" stroke="black" stroke-width="0.5" d="M724.487,-180.996C781.376,-173.035 860.833,-161.915 919.095,-153.762"/>
<polygon fill="black" stroke="black" points="919.602,-155.458 924.311,-153.032 919.117,-151.992 919.602,-155.458"/>
</g>
</g>
</svg>
