<?xml version="1.0" encoding="UTF-8" standalone="no"?>
<!DOCTYPE svg PUBLIC "-//W3C//DTD SVG 1.1//EN"
 "http://www.w3.org/Graphics/SVG/1.1/DTD/svg11.dtd">
<!-- Generated by graphviz version 2.26.3 (20100126.1600)
 -->
<!-- Title: inheritance0f827376bc Pages: 1 -->
<svg width="2286pt" height="313pt"
 viewBox="0.00 0.00 2286.00 313.00" xmlns="http://www.w3.org/2000/svg" xmlns:xlink="http://www.w3.org/1999/xlink">
<g id="graph1" class="graph" transform="scale(1 1) rotate(0) translate(4 309)">
<title>inheritance0f827376bc</title>
<polygon fill="white" stroke="white" points="-4,5 -4,-309 2283,-309 2283,5 -4,5"/>
<!-- topo.analysis.featureresponses.UnitCurveCommand -->
<g id="node1" class="node"><title>topo.analysis.featureresponses.UnitCurveCommand</title>
<polygon fill="none" stroke="black" stroke-width="0.5" points="2277,-106.5 2011,-106.5 2011,-85.5 2277,-85.5 2277,-106.5"/>
<text text-anchor="middle" x="2144" y="-93.5" font-family="Vera" font-size="10.00">topo.analysis.featureresponses.UnitCurveCommand</text>
</g>
<!-- topo.analysis.featureresponses.FeatureCurveCommand -->
<g id="node2" class="node"><title>topo.analysis.featureresponses.FeatureCurveCommand</title>
<polygon fill="none" stroke="black" stroke-width="0.5" points="1974,-106.5 1690,-106.5 1690,-85.5 1974,-85.5 1974,-106.5"/>
<text text-anchor="middle" x="1832" y="-93.5" font-family="Vera" font-size="10.00">topo.analysis.featureresponses.FeatureCurveCommand</text>
</g>
<!-- topo.analysis.featureresponses.FeatureCurveCommand&#45;&gt;topo.analysis.featureresponses.UnitCurveCommand -->
<g id="edge2" class="edge"><title>topo.analysis.featureresponses.FeatureCurveCommand&#45;&gt;topo.analysis.featureresponses.UnitCurveCommand</title>
<path fill="none" stroke="black" stroke-width="0.5" d="M1974.3,-96C1984.43,-96 1994.64,-96 2004.75,-96"/>
<polygon fill="black" stroke="black" points="2005.03,-97.7501 2010.03,-96 2005.03,-94.2501 2005.03,-97.7501"/>
</g>
<!-- param.parameterized.Parameterized -->
<g id="node4" class="node"><title>param.parameterized.Parameterized</title>
<polygon fill="none" stroke="black" stroke-width="0.5" points="236,-96.5 42,-96.5 42,-75.5 236,-75.5 236,-96.5"/>
<text text-anchor="middle" x="139" y="-83.5" font-family="Vera" font-size="10.00">param.parameterized.Parameterized</text>
</g>
<!-- param.parameterized.ParameterizedFunction -->
<g id="node6" class="node"><title>param.parameterized.ParameterizedFunction</title>
<polygon fill="none" stroke="black" stroke-width="0.5" points="558,-172.5 324,-172.5 324,-151.5 558,-151.5 558,-172.5"/>
<text text-anchor="middle" x="441" y="-159.5" font-family="Vera" font-size="10.00">param.parameterized.ParameterizedFunction</text>
</g>
<!-- param.parameterized.Parameterized&#45;&gt;param.parameterized.ParameterizedFunction -->
<g id="edge10" class="edge"><title>param.parameterized.Parameterized&#45;&gt;param.parameterized.ParameterizedFunction</title>
<path fill="none" stroke="black" stroke-width="0.5" d="M236.175,-90.703C250.698,-93.8161 265.107,-98.3834 278,-105 298.698,-115.622 293.37,-132.247 314,-143 319.329,-145.777 324.943,-148.18 330.724,-150.257"/>
<polygon fill="black" stroke="black" points="330.319,-151.968 335.616,-151.926 331.449,-148.656 330.319,-151.968"/>
</g>
<!-- topo.analysis.featureresponses.Subplotting -->
<g id="node22" class="node"><title>topo.analysis.featureresponses.Subplotting</title>
<polygon fill="none" stroke="black" stroke-width="0.5" points="553,-134.5 329,-134.5 329,-113.5 553,-113.5 553,-134.5"/>
<text text-anchor="middle" x="441" y="-121.5" font-family="Vera" font-size="10.00">topo.analysis.featureresponses.Subplotting</text>
</g>
<!-- param.parameterized.Parameterized&#45;&gt;topo.analysis.featureresponses.Subplotting -->
<g id="edge18" class="edge"><title>param.parameterized.Parameterized&#45;&gt;topo.analysis.featureresponses.Subplotting</title>
<path fill="none" stroke="black" stroke-width="0.5" d="M218.742,-96.0338C261.06,-101.358 313.065,-107.902 356.129,-113.321"/>
<polygon fill="black" stroke="black" points="356.156,-115.088 361.335,-113.976 356.593,-111.615 356.156,-115.088"/>
</g>
<!-- topo.analysis.featureresponses.Feature -->
<g id="node30" class="node"><title>topo.analysis.featureresponses.Feature</title>
<polygon fill="none" stroke="black" stroke-width="0.5" points="544,-96.5 338,-96.5 338,-75.5 544,-75.5 544,-96.5"/>
<text text-anchor="middle" x="441" y="-83.5" font-family="Vera" font-size="10.00">topo.analysis.featureresponses.Feature</text>
</g>
<!-- param.parameterized.Parameterized&#45;&gt;topo.analysis.featureresponses.Feature -->
<g id="edge26" class="edge"><title>param.parameterized.Parameterized&#45;&gt;topo.analysis.featureresponses.Feature</title>
<path fill="none" stroke="black" stroke-width="0.5" d="M236.217,-86C267.07,-86 301.368,-86 332.936,-86"/>
<polygon fill="black" stroke="black" points="332.978,-87.7501 337.978,-86 332.978,-84.2501 332.978,-87.7501"/>
</g>
<!-- topo.analysis.featureresponses.DistributionMatrix -->
<g id="node35" class="node"><title>topo.analysis.featureresponses.DistributionMatrix</title>
<polygon fill="none" stroke="black" stroke-width="0.5" points="568,-58.5 314,-58.5 314,-37.5 568,-37.5 568,-58.5"/>
<text text-anchor="middle" x="441" y="-45.5" font-family="Vera" font-size="10.00">topo.analysis.featureresponses.DistributionMatrix</text>
</g>
<!-- param.parameterized.Parameterized&#45;&gt;topo.analysis.featureresponses.DistributionMatrix -->
<g id="edge32" class="edge"><title>param.parameterized.Parameterized&#45;&gt;topo.analysis.featureresponses.DistributionMatrix</title>
<path fill="none" stroke="black" stroke-width="0.5" d="M218.742,-75.9662C261.06,-70.6415 313.065,-64.0977 356.129,-58.6791"/>
<polygon fill="black" stroke="black" points="356.593,-60.3847 361.335,-58.024 356.156,-56.912 356.593,-60.3847"/>
</g>
<!-- topo.analysis.featureresponses.FullMatrix -->
<g id="node41" class="node"><title>topo.analysis.featureresponses.FullMatrix</title>
<polygon fill="none" stroke="black" stroke-width="0.5" points="548,-20.5 334,-20.5 334,0.5 548,0.5 548,-20.5"/>
<text text-anchor="middle" x="441" y="-7.5" font-family="Vera" font-size="10.00">topo.analysis.featureresponses.FullMatrix</text>
</g>
<!-- param.parameterized.Parameterized&#45;&gt;topo.analysis.featureresponses.FullMatrix -->
<g id="edge38" class="edge"><title>param.parameterized.Parameterized&#45;&gt;topo.analysis.featureresponses.FullMatrix</title>
<path fill="none" stroke="black" stroke-width="0.5" d="M165.292,-75.913C199.194,-63.2616 260.198,-41.6933 314,-29 327.238,-25.8769 341.379,-23.1632 355.24,-20.8413"/>
<polygon fill="black" stroke="black" points="355.683,-22.5421 360.333,-20.0035 355.115,-19.0885 355.683,-22.5421"/>
</g>
<!-- topo.analysis.featureresponses.hue2rgbscale -->
<g id="node5" class="node"><title>topo.analysis.featureresponses.hue2rgbscale</title>
<polygon fill="none" stroke="black" stroke-width="0.5" points="878,-305.5 644,-305.5 644,-284.5 878,-284.5 878,-305.5"/>
<text text-anchor="middle" x="761" y="-292.5" font-family="Vera" font-size="10.00">topo.analysis.featureresponses.hue2rgbscale</text>
</g>
<!-- param.parameterized.ParameterizedFunction&#45;&gt;topo.analysis.featureresponses.hue2rgbscale -->
<g id="edge4" class="edge"><title>param.parameterized.ParameterizedFunction&#45;&gt;topo.analysis.featureresponses.hue2rgbscale</title>
<path fill="none" stroke="black" stroke-width="0.5" d="M451.361,-172.091C475.659,-195.066 539.171,-251.2 604,-276 614.995,-280.206 626.71,-283.536 638.597,-286.166"/>
<polygon fill="black" stroke="black" points="638.446,-287.923 643.7,-287.25 639.173,-284.499 638.446,-287.923"/>
</g>
<!-- topo.base.functionfamily.PatternDrivenAnalysis -->
<g id="node11" class="node"><title>topo.base.functionfamily.PatternDrivenAnalysis</title>
<polygon fill="none" stroke="black" stroke-width="0.5" points="881,-267.5 641,-267.5 641,-246.5 881,-246.5 881,-267.5"/>
<text text-anchor="middle" x="761" y="-254.5" font-family="Vera" font-size="10.00">topo.base.functionfamily.PatternDrivenAnalysis</text>
</g>
<!-- param.parameterized.ParameterizedFunction&#45;&gt;topo.base.functionfamily.PatternDrivenAnalysis -->
<g id="edge8" class="edge"><title>param.parameterized.ParameterizedFunction&#45;&gt;topo.base.functionfamily.PatternDrivenAnalysis</title>
<path fill="none" stroke="black" stroke-width="0.5" d="M457.906,-172.091C486.763,-188.799 547.86,-221.956 604,-238 615.203,-241.202 627.006,-243.864 638.903,-246.078"/>
<polygon fill="black" stroke="black" points="638.774,-247.833 644.005,-246.999 639.396,-244.388 638.774,-247.833"/>
</g>
<!-- topo.analysis.featureresponses.contrast2centersurroundscale -->
<g id="node20" class="node"><title>topo.analysis.featureresponses.contrast2centersurroundscale</title>
<polygon fill="none" stroke="black" stroke-width="0.5" points="918,-229.5 604,-229.5 604,-208.5 918,-208.5 918,-229.5"/>
<text text-anchor="middle" x="761" y="-216.5" font-family="Vera" font-size="10.00">topo.analysis.featureresponses.contrast2centersurroundscale</text>
</g>
<!-- param.parameterized.ParameterizedFunction&#45;&gt;topo.analysis.featureresponses.contrast2centersurroundscale -->
<g id="edge16" class="edge"><title>param.parameterized.ParameterizedFunction&#45;&gt;topo.analysis.featureresponses.contrast2centersurroundscale</title>
<path fill="none" stroke="black" stroke-width="0.5" d="M478.637,-172.001C511.521,-180.443 560.648,-192.347 604,-200 621.794,-203.141 640.815,-205.923 659.257,-208.323"/>
<polygon fill="black" stroke="black" points="659.259,-210.087 664.441,-208.99 659.706,-206.616 659.259,-210.087"/>
</g>
<!-- topo.analysis.featureresponses.phasedisparity2leftrightphase -->
<g id="node26" class="node"><title>topo.analysis.featureresponses.phasedisparity2leftrightphase</title>
<polygon fill="none" stroke="black" stroke-width="0.5" points="916,-191.5 606,-191.5 606,-170.5 916,-170.5 916,-191.5"/>
<text text-anchor="middle" x="761" y="-178.5" font-family="Vera" font-size="10.00">topo.analysis.featureresponses.phasedisparity2leftrightphase</text>
</g>
<!-- param.parameterized.ParameterizedFunction&#45;&gt;topo.analysis.featureresponses.phasedisparity2leftrightphase -->
<g id="edge22" class="edge"><title>param.parameterized.ParameterizedFunction&#45;&gt;topo.analysis.featureresponses.phasedisparity2leftrightphase</title>
<path fill="none" stroke="black" stroke-width="0.5" d="M558.339,-168.967C572.002,-169.778 586.112,-170.616 600.23,-171.454"/>
<polygon fill="black" stroke="black" points="600.336,-173.214 605.431,-171.763 600.543,-169.72 600.336,-173.214"/>
</g>
<!-- topo.analysis.featureresponses.PatternPresentingCommand -->
<g id="node38" class="node"><title>topo.analysis.featureresponses.PatternPresentingCommand</title>
<polygon fill="none" stroke="black" stroke-width="0.5" points="913,-153.5 609,-153.5 609,-132.5 913,-132.5 913,-153.5"/>
<text text-anchor="middle" x="761" y="-140.5" font-family="Vera" font-size="10.00">topo.analysis.featureresponses.PatternPresentingCommand</text>
</g>
<!-- param.parameterized.ParameterizedFunction&#45;&gt;topo.analysis.featureresponses.PatternPresentingCommand -->
<g id="edge36" class="edge"><title>param.parameterized.ParameterizedFunction&#45;&gt;topo.analysis.featureresponses.PatternPresentingCommand</title>
<path fill="none" stroke="black" stroke-width="0.5" d="M558.339,-155.033C573.003,-154.162 588.182,-153.261 603.334,-152.361"/>
<polygon fill="black" stroke="black" points="603.583,-154.1 608.47,-152.056 603.375,-150.606 603.583,-154.1"/>
</g>
<!-- topo.analysis.featureresponses.contrast2scale -->
<g id="node45" class="node"><title>topo.analysis.featureresponses.contrast2scale</title>
<polygon fill="none" stroke="black" stroke-width="0.5" points="881,-115.5 641,-115.5 641,-94.5 881,-94.5 881,-115.5"/>
<text text-anchor="middle" x="761" y="-102.5" font-family="Vera" font-size="10.00">topo.analysis.featureresponses.contrast2scale</text>
</g>
<!-- param.parameterized.ParameterizedFunction&#45;&gt;topo.analysis.featureresponses.contrast2scale -->
<g id="edge42" class="edge"><title>param.parameterized.ParameterizedFunction&#45;&gt;topo.analysis.featureresponses.contrast2scale</title>
<path fill="none" stroke="black" stroke-width="0.5" d="M533.085,-151.987C544.978,-149.601 556.879,-146.649 568,-143 585.19,-137.359 586.733,-129.399 604,-124 614.226,-120.803 624.983,-118.139 635.87,-115.92"/>
<polygon fill="black" stroke="black" points="636.314,-117.616 640.881,-114.931 635.636,-114.182 636.314,-117.616"/>
</g>
<!-- topo.analysis.featureresponses.ocular2leftrightscale -->
<g id="node49" class="node"><title>topo.analysis.featureresponses.ocular2leftrightscale</title>
<polygon fill="none" stroke="black" stroke-width="0.5" points="894,-77.5 628,-77.5 628,-56.5 894,-56.5 894,-77.5"/>
<text text-anchor="middle" x="761" y="-64.5" font-family="Vera" font-size="10.00">topo.analysis.featureresponses.ocular2leftrightscale</text>
</g>
<!-- param.parameterized.ParameterizedFunction&#45;&gt;topo.analysis.featureresponses.ocular2leftrightscale -->
<g id="edge48" class="edge"><title>param.parameterized.ParameterizedFunction&#45;&gt;topo.analysis.featureresponses.ocular2leftrightscale</title>
<path fill="none" stroke="black" stroke-width="0.5" d="M551.02,-151.878C556.968,-149.405 562.678,-146.471 568,-143 593.096,-126.63 578.677,-102.016 604,-86 610.033,-82.1842 616.46,-78.9475 623.139,-76.2117"/>
<polygon fill="black" stroke="black" points="623.777,-77.8414 627.801,-74.3967 622.507,-74.5798 623.777,-77.8414"/>
</g>
<!-- topo.analysis.featureresponses.direction2translation -->
<g id="node51" class="node"><title>topo.analysis.featureresponses.direction2translation</title>
<polygon fill="none" stroke="black" stroke-width="0.5" points="895,-39.5 627,-39.5 627,-18.5 895,-18.5 895,-39.5"/>
<text text-anchor="middle" x="761" y="-26.5" font-family="Vera" font-size="10.00">topo.analysis.featureresponses.direction2translation</text>
</g>
<!-- param.parameterized.ParameterizedFunction&#45;&gt;topo.analysis.featureresponses.direction2translation -->
<g id="edge50" class="edge"><title>param.parameterized.ParameterizedFunction&#45;&gt;topo.analysis.featureresponses.direction2translation</title>
<path fill="none" stroke="black" stroke-width="0.5" d="M554.301,-151.899C559.146,-149.374 563.748,-146.428 568,-143 603.151,-114.66 568.455,-75.8438 604,-48 609.512,-43.6826 615.483,-40.0367 621.768,-36.9715"/>
<polygon fill="black" stroke="black" points="622.818,-38.4152 626.632,-34.7392 621.358,-35.2341 622.818,-38.4152"/>
</g>
<!-- topo.analysis.featureresponses.FeatureMaps -->
<g id="node8" class="node"><title>topo.analysis.featureresponses.FeatureMaps</title>
<polygon fill="none" stroke="black" stroke-width="0.5" points="1591,-305.5 1361,-305.5 1361,-284.5 1591,-284.5 1591,-305.5"/>
<text text-anchor="middle" x="1476" y="-292.5" font-family="Vera" font-size="10.00">topo.analysis.featureresponses.FeatureMaps</text>
</g>
<!-- topo.analysis.featureresponses.FeatureResponses -->
<g id="node9" class="node"><title>topo.analysis.featureresponses.FeatureResponses</title>
<polygon fill="none" stroke="black" stroke-width="0.5" points="1236,-267.5 980,-267.5 980,-246.5 1236,-246.5 1236,-267.5"/>
<text text-anchor="middle" x="1108" y="-254.5" font-family="Vera" font-size="10.00">topo.analysis.featureresponses.FeatureResponses</text>
</g>
<!-- topo.analysis.featureresponses.FeatureResponses&#45;&gt;topo.analysis.featureresponses.FeatureMaps -->
<g id="edge6" class="edge"><title>topo.analysis.featureresponses.FeatureResponses&#45;&gt;topo.analysis.featureresponses.FeatureMaps</title>
<path fill="none" stroke="black" stroke-width="0.5" d="M1205.17,-267.034C1257.15,-272.402 1321.14,-279.009 1373.86,-284.453"/>
<polygon fill="black" stroke="black" points="1373.77,-286.203 1378.93,-284.976 1374.13,-282.722 1373.77,-286.203"/>
</g>
<!-- topo.analysis.featureresponses.ReverseCorrelation -->
<g id="node33" class="node"><title>topo.analysis.featureresponses.ReverseCorrelation</title>
<polygon fill="none" stroke="black" stroke-width="0.5" points="1606,-267.5 1346,-267.5 1346,-246.5 1606,-246.5 1606,-267.5"/>
<text text-anchor="middle" x="1476" y="-254.5" font-family="Vera" font-size="10.00">topo.analysis.featureresponses.ReverseCorrelation</text>
</g>
<!-- topo.analysis.featureresponses.FeatureResponses&#45;&gt;topo.analysis.featureresponses.ReverseCorrelation -->
<g id="edge30" class="edge"><title>topo.analysis.featureresponses.FeatureResponses&#45;&gt;topo.analysis.featureresponses.ReverseCorrelation</title>
<path fill="none" stroke="black" stroke-width="0.5" d="M1236.71,-257C1270.25,-257 1306.5,-257 1340.39,-257"/>
<polygon fill="black" stroke="black" points="1340.81,-258.75 1345.81,-257 1340.81,-255.25 1340.81,-258.75"/>
</g>
<!-- topo.analysis.featureresponses.FeatureCurves -->
<g id="node43" class="node"><title>topo.analysis.featureresponses.FeatureCurves</title>
<polygon fill="none" stroke="black" stroke-width="0.5" points="1595,-229.5 1357,-229.5 1357,-208.5 1595,-208.5 1595,-229.5"/>
<text text-anchor="middle" x="1476" y="-216.5" font-family="Vera" font-size="10.00">topo.analysis.featureresponses.FeatureCurves</text>
</g>
<!-- topo.analysis.featureresponses.FeatureResponses&#45;&gt;topo.analysis.featureresponses.FeatureCurves -->
<g id="edge40" class="edge"><title>topo.analysis.featureresponses.FeatureResponses&#45;&gt;topo.analysis.featureresponses.FeatureCurves</title>
<path fill="none" stroke="black" stroke-width="0.5" d="M1205.17,-246.966C1257.15,-241.598 1321.14,-234.991 1373.86,-229.547"/>
<polygon fill="black" stroke="black" points="1374.13,-231.278 1378.93,-229.024 1373.77,-227.797 1374.13,-231.278"/>
</g>
<!-- topo.base.functionfamily.PatternDrivenAnalysis&#45;&gt;topo.analysis.featureresponses.FeatureResponses -->
<g id="edge44" class="edge"><title>topo.base.functionfamily.PatternDrivenAnalysis&#45;&gt;topo.analysis.featureresponses.FeatureResponses</title>
<path fill="none" stroke="black" stroke-width="0.5" d="M881.39,-257C911.274,-257 943.485,-257 973.977,-257"/>
<polygon fill="black" stroke="black" points="974.251,-258.75 979.251,-257 974.251,-255.25 974.251,-258.75"/>
</g>
<!-- topo.analysis.featureresponses.pattern_response -->
<g id="node14" class="node"><title>topo.analysis.featureresponses.pattern_response</title>
<polygon fill="none" stroke="black" stroke-width="0.5" points="1603,-182.5 1349,-182.5 1349,-161.5 1603,-161.5 1603,-182.5"/>
<text text-anchor="middle" x="1476" y="-169.5" font-family="Vera" font-size="10.00">topo.analysis.featureresponses.pattern_response</text>
</g>
<!-- topo.analysis.featureresponses.pattern_present -->
<g id="node15" class="node"><title>topo.analysis.featureresponses.pattern_present</title>
<polygon fill="none" stroke="black" stroke-width="0.5" points="1231,-172.5 985,-172.5 985,-151.5 1231,-151.5 1231,-172.5"/>
<text text-anchor="middle" x="1108" y="-159.5" font-family="Vera" font-size="10.00">topo.analysis.featureresponses.pattern_present</text>
</g>
<!-- topo.analysis.featureresponses.pattern_present&#45;&gt;topo.analysis.featureresponses.pattern_response -->
<g id="edge12" class="edge"><title>topo.analysis.featureresponses.pattern_present&#45;&gt;topo.analysis.featureresponses.pattern_response</title>
<path fill="none" stroke="black" stroke-width="0.5" d="M1231.56,-165.358C1267.58,-166.337 1307.08,-167.41 1343.63,-168.403"/>
<polygon fill="black" stroke="black" points="1343.95,-170.162 1349,-168.549 1344.04,-166.664 1343.95,-170.162"/>
</g>
<!-- topo.analysis.featureresponses.PositionMeasurementCommand -->
<g id="node17" class="node"><title>topo.analysis.featureresponses.PositionMeasurementCommand</title>
<polygon fill="none" stroke="black" stroke-width="0.5" points="1638,-144.5 1314,-144.5 1314,-123.5 1638,-123.5 1638,-144.5"/>
<text text-anchor="middle" x="1476" y="-131.5" font-family="Vera" font-size="10.00">topo.analysis.featureresponses.PositionMeasurementCommand</text>
</g>
<!-- topo.analysis.featureresponses.MeasureResponseCommand -->
<g id="node18" class="node"><title>topo.analysis.featureresponses.MeasureResponseCommand</title>
<polygon fill="none" stroke="black" stroke-width="0.5" points="1261,-115.5 955,-115.5 955,-94.5 1261,-94.5 1261,-115.5"/>
<text text-anchor="middle" x="1108" y="-102.5" font-family="Vera" font-size="10.00">topo.analysis.featureresponses.MeasureResponseCommand</text>
</g>
<!-- topo.analysis.featureresponses.MeasureResponseCommand&#45;&gt;topo.analysis.featureresponses.PositionMeasurementCommand -->
<g id="edge14" class="edge"><title>topo.analysis.featureresponses.MeasureResponseCommand&#45;&gt;topo.analysis.featureresponses.PositionMeasurementCommand</title>
<path fill="none" stroke="black" stroke-width="0.5" d="M1234.9,-115C1270.06,-117.771 1308.31,-120.785 1343.77,-123.58"/>
<polygon fill="black" stroke="black" points="1343.86,-125.342 1348.98,-123.99 1344.13,-121.853 1343.86,-125.342"/>
</g>
<!-- topo.analysis.featureresponses.SinusoidalMeasureResponseCommand -->
<g id="node24" class="node"><title>topo.analysis.featureresponses.SinusoidalMeasureResponseCommand</title>
<polygon fill="none" stroke="black" stroke-width="0.5" points="1654,-106.5 1298,-106.5 1298,-85.5 1654,-85.5 1654,-106.5"/>
<text text-anchor="middle" x="1476" y="-93.5" font-family="Vera" font-size="10.00">topo.analysis.featureresponses.SinusoidalMeasureResponseCommand</text>
</g>
<!-- topo.analysis.featureresponses.MeasureResponseCommand&#45;&gt;topo.analysis.featureresponses.SinusoidalMeasureResponseCommand -->
<g id="edge20" class="edge"><title>topo.analysis.featureresponses.MeasureResponseCommand&#45;&gt;topo.analysis.featureresponses.SinusoidalMeasureResponseCommand</title>
<path fill="none" stroke="black" stroke-width="0.5" d="M1261.67,-101.242C1271.91,-100.991 1282.29,-100.737 1292.66,-100.484"/>
<polygon fill="black" stroke="black" points="1292.8,-102.231 1297.75,-100.359 1292.71,-98.7321 1292.8,-102.231"/>
</g>
<!-- topo.analysis.featureresponses.SingleInputResponseCommand -->
<g id="node28" class="node"><title>topo.analysis.featureresponses.SingleInputResponseCommand</title>
<polygon fill="none" stroke="black" stroke-width="0.5" points="1635,-68.5 1317,-68.5 1317,-47.5 1635,-47.5 1635,-68.5"/>
<text text-anchor="middle" x="1476" y="-55.5" font-family="Vera" font-size="10.00">topo.analysis.featureresponses.SingleInputResponseCommand</text>
</g>
<!-- topo.analysis.featureresponses.MeasureResponseCommand&#45;&gt;topo.analysis.featureresponses.SingleInputResponseCommand -->
<g id="edge24" class="edge"><title>topo.analysis.featureresponses.MeasureResponseCommand&#45;&gt;topo.analysis.featureresponses.SingleInputResponseCommand</title>
<path fill="none" stroke="black" stroke-width="0.5" d="M1171.68,-94.9665C1208.53,-89.3224 1255.83,-82.3561 1298,-77 1321.46,-74.0207 1346.7,-71.134 1370.58,-68.548"/>
<polygon fill="black" stroke="black" points="1370.88,-70.2767 1375.66,-68.0008 1370.5,-66.7969 1370.88,-70.2767"/>
</g>
<!-- topo.analysis.featureresponses.SinusoidalMeasureResponseCommand&#45;&gt;topo.analysis.featureresponses.FeatureCurveCommand -->
<g id="edge28" class="edge"><title>topo.analysis.featureresponses.SinusoidalMeasureResponseCommand&#45;&gt;topo.analysis.featureresponses.FeatureCurveCommand</title>
<path fill="none" stroke="black" stroke-width="0.5" d="M1654,-96C1664.21,-96 1674.43,-96 1684.51,-96"/>
<polygon fill="black" stroke="black" points="1684.76,-97.7501 1689.76,-96 1684.76,-94.2501 1684.76,-97.7501"/>
</g>
<!-- topo.analysis.featureresponses.MeasurementInterrupt -->
<g id="node37" class="node"><title>topo.analysis.featureresponses.MeasurementInterrupt</title>
<polygon fill="none" stroke="black" stroke-width="0.5" points="278,-134.5 1.13687e-13,-134.5 0,-113.5 278,-113.5 278,-134.5"/>
<text text-anchor="middle" x="139" y="-121.5" font-family="Vera" font-size="10.00">topo.analysis.featureresponses.MeasurementInterrupt</text>
</g>
<!-- topo.analysis.featureresponses.PatternPresentingCommand&#45;&gt;topo.analysis.featureresponses.pattern_present -->
<g id="edge46" class="edge"><title>topo.analysis.featureresponses.PatternPresentingCommand&#45;&gt;topo.analysis.featureresponses.pattern_present</title>
<path fill="none" stroke="black" stroke-width="0.5" d="M913.704,-151.361C935.588,-152.56 957.919,-153.782 979.278,-154.952"/>
<polygon fill="black" stroke="black" points="979.307,-156.706 984.395,-155.232 979.498,-153.211 979.307,-156.706"/>
</g>
<!-- topo.analysis.featureresponses.PatternPresentingCommand&#45;&gt;topo.analysis.featureresponses.MeasureResponseCommand -->
<g id="edge34" class="edge"><title>topo.analysis.featureresponses.PatternPresentingCommand&#45;&gt;topo.analysis.featureresponses.MeasureResponseCommand</title>
<path fill="none" stroke="black" stroke-width="0.5" d="M852.624,-132.966C901.544,-127.609 961.732,-121.018 1011.39,-115.58"/>
<polygon fill="black" stroke="black" points="1011.68,-117.308 1016.46,-115.024 1011.3,-113.829 1011.68,-117.308"/>
</g>
</g>
</svg>
