<?xml version="1.0" encoding="UTF-8" standalone="no"?>
<!DOCTYPE svg PUBLIC "-//W3C//DTD SVG 1.1//EN"
 "http://www.w3.org/Graphics/SVG/1.1/DTD/svg11.dtd">
<!-- Generated by graphviz version 2.26.3 (20100126.1600)
 -->
<!-- Title: inheritancebe3ab90ace Pages: 1 -->
<svg width="984pt" height="446pt"
 viewBox="0.00 0.00 984.00 446.00" xmlns="http://www.w3.org/2000/svg" xmlns:xlink="http://www.w3.org/1999/xlink">
<g id="graph1" class="graph" transform="scale(1 1) rotate(0) translate(4 442)">
<title>inheritancebe3ab90ace</title>
<polygon fill="white" stroke="white" points="-4,5 -4,-442 981,-442 981,5 -4,5"/>
<!-- topo.coordmapper.AffineTransform -->
<g id="node1" class="node"><title>topo.coordmapper.AffineTransform</title>
<polygon fill="none" stroke="black" stroke-width="0.5" points="705,-381.5 523,-381.5 523,-360.5 705,-360.5 705,-381.5"/>
<text text-anchor="middle" x="614" y="-368.5" font-family="Vera" font-size="10.00">topo.coordmapper.AffineTransform</text>
</g>
<!-- topo.coordmapper.Translate2d -->
<g id="node14" class="node"><title>topo.coordmapper.Translate2d</title>
<polygon fill="none" stroke="black" stroke-width="0.5" points="950,-438.5 788,-438.5 788,-417.5 950,-417.5 950,-438.5"/>
<text text-anchor="middle" x="869" y="-425.5" font-family="Vera" font-size="10.00">topo.coordmapper.Translate2d</text>
</g>
<!-- topo.coordmapper.AffineTransform&#45;&gt;topo.coordmapper.Translate2d -->
<g id="edge14" class="edge"><title>topo.coordmapper.AffineTransform&#45;&gt;topo.coordmapper.Translate2d</title>
<path fill="none" stroke="black" stroke-width="0.5" d="M650.008,-381.058C679.866,-389.202 723.501,-400.652 762,-409 775.22,-411.867 789.427,-414.618 803.032,-417.093"/>
<polygon fill="black" stroke="black" points="802.783,-418.826 808.014,-417.993 803.405,-415.382 802.783,-418.826"/>
</g>
<!-- topo.coordmapper.Scale2d -->
<g id="node22" class="node"><title>topo.coordmapper.Scale2d</title>
<polygon fill="none" stroke="black" stroke-width="0.5" points="942,-400.5 796,-400.5 796,-379.5 942,-379.5 942,-400.5"/>
<text text-anchor="middle" x="869" y="-387.5" font-family="Vera" font-size="10.00">topo.coordmapper.Scale2d</text>
</g>
<!-- topo.coordmapper.AffineTransform&#45;&gt;topo.coordmapper.Scale2d -->
<g id="edge22" class="edge"><title>topo.coordmapper.AffineTransform&#45;&gt;topo.coordmapper.Scale2d</title>
<path fill="none" stroke="black" stroke-width="0.5" d="M705.341,-377.806C733.324,-379.891 763.841,-382.165 790.86,-384.178"/>
<polygon fill="black" stroke="black" points="790.747,-385.924 795.863,-384.551 791.007,-382.434 790.747,-385.924"/>
</g>
<!-- topo.coordmapper.Rotate2d -->
<g id="node36" class="node"><title>topo.coordmapper.Rotate2d</title>
<polygon fill="none" stroke="black" stroke-width="0.5" points="944,-362.5 794,-362.5 794,-341.5 944,-341.5 944,-362.5"/>
<text text-anchor="middle" x="869" y="-349.5" font-family="Vera" font-size="10.00">topo.coordmapper.Rotate2d</text>
</g>
<!-- topo.coordmapper.AffineTransform&#45;&gt;topo.coordmapper.Rotate2d -->
<g id="edge36" class="edge"><title>topo.coordmapper.AffineTransform&#45;&gt;topo.coordmapper.Rotate2d</title>
<path fill="none" stroke="black" stroke-width="0.5" d="M705.341,-364.194C732.404,-362.178 761.837,-359.985 788.184,-358.022"/>
<polygon fill="black" stroke="black" points="788.555,-359.749 793.411,-357.632 788.295,-356.259 788.555,-359.749"/>
</g>
<!-- topo.base.functionfamily.CoordinateMapperFn -->
<g id="node2" class="node"><title>topo.base.functionfamily.CoordinateMapperFn</title>
<polygon fill="none" stroke="black" stroke-width="0.5" points="466,-191.5 230,-191.5 230,-170.5 466,-170.5 466,-191.5"/>
<text text-anchor="middle" x="348" y="-178.5" font-family="Vera" font-size="10.00">topo.base.functionfamily.CoordinateMapperFn</text>
</g>
<!-- topo.base.functionfamily.CoordinateMapperFn&#45;&gt;topo.coordmapper.AffineTransform -->
<g id="edge2" class="edge"><title>topo.base.functionfamily.CoordinateMapperFn&#45;&gt;topo.coordmapper.AffineTransform</title>
<path fill="none" stroke="black" stroke-width="0.5" d="M355.493,-191.085C375.98,-217.984 435.828,-292.158 502,-333 521.169,-344.831 544.476,-353.501 564.856,-359.545"/>
<polygon fill="black" stroke="black" points="564.407,-361.237 569.697,-360.949 565.382,-357.876 564.407,-361.237"/>
</g>
<!-- topo.coordmapper.SingleDimensionMapper -->
<g id="node4" class="node"><title>topo.coordmapper.SingleDimensionMapper</title>
<polygon fill="none" stroke="black" stroke-width="0.5" points="726,-324.5 502,-324.5 502,-303.5 726,-303.5 726,-324.5"/>
<text text-anchor="middle" x="614" y="-311.5" font-family="Vera" font-size="10.00">topo.coordmapper.SingleDimensionMapper</text>
</g>
<!-- topo.base.functionfamily.CoordinateMapperFn&#45;&gt;topo.coordmapper.SingleDimensionMapper -->
<g id="edge4" class="edge"><title>topo.base.functionfamily.CoordinateMapperFn&#45;&gt;topo.coordmapper.SingleDimensionMapper</title>
<path fill="none" stroke="black" stroke-width="0.5" d="M358.097,-191.236C381.227,-214.015 440.791,-268.931 502,-295 508.929,-297.951 516.283,-300.445 523.781,-302.551"/>
<polygon fill="black" stroke="black" points="523.709,-304.344 528.992,-303.949 524.616,-300.963 523.709,-304.344"/>
</g>
<!-- topo.coordmapper.Jitter -->
<g id="node6" class="node"><title>topo.coordmapper.Jitter</title>
<polygon fill="none" stroke="black" stroke-width="0.5" points="679,-286.5 549,-286.5 549,-265.5 679,-265.5 679,-286.5"/>
<text text-anchor="middle" x="614" y="-273.5" font-family="Vera" font-size="10.00">topo.coordmapper.Jitter</text>
</g>
<!-- topo.base.functionfamily.CoordinateMapperFn&#45;&gt;topo.coordmapper.Jitter -->
<g id="edge6" class="edge"><title>topo.base.functionfamily.CoordinateMapperFn&#45;&gt;topo.coordmapper.Jitter</title>
<path fill="none" stroke="black" stroke-width="0.5" d="M364.412,-191.107C391.853,-207.535 449.243,-239.912 502,-257 515.285,-261.303 529.789,-264.679 543.821,-267.312"/>
<polygon fill="black" stroke="black" points="543.734,-269.075 548.966,-268.249 544.36,-265.631 543.734,-269.075"/>
</g>
<!-- topo.coordmapper.Cartesian2Polar -->
<g id="node8" class="node"><title>topo.coordmapper.Cartesian2Polar</title>
<polygon fill="none" stroke="black" stroke-width="0.5" points="706,-248.5 522,-248.5 522,-227.5 706,-227.5 706,-248.5"/>
<text text-anchor="middle" x="614" y="-235.5" font-family="Vera" font-size="10.00">topo.coordmapper.Cartesian2Polar</text>
</g>
<!-- topo.base.functionfamily.CoordinateMapperFn&#45;&gt;topo.coordmapper.Cartesian2Polar -->
<g id="edge8" class="edge"><title>topo.base.functionfamily.CoordinateMapperFn&#45;&gt;topo.coordmapper.Cartesian2Polar</title>
<path fill="none" stroke="black" stroke-width="0.5" d="M385.48,-191.071C416.555,-199.223 461.962,-210.676 502,-219 515.758,-221.86 530.533,-224.6 544.694,-227.065"/>
<polygon fill="black" stroke="black" points="544.656,-228.834 549.881,-227.961 545.251,-225.385 544.656,-228.834"/>
</g>
<!-- topo.coordmapper.Polar2Cartesian -->
<g id="node10" class="node"><title>topo.coordmapper.Polar2Cartesian</title>
<polygon fill="none" stroke="black" stroke-width="0.5" points="706,-210.5 522,-210.5 522,-189.5 706,-189.5 706,-210.5"/>
<text text-anchor="middle" x="614" y="-197.5" font-family="Vera" font-size="10.00">topo.coordmapper.Polar2Cartesian</text>
</g>
<!-- topo.base.functionfamily.CoordinateMapperFn&#45;&gt;topo.coordmapper.Polar2Cartesian -->
<g id="edge10" class="edge"><title>topo.base.functionfamily.CoordinateMapperFn&#45;&gt;topo.coordmapper.Polar2Cartesian</title>
<path fill="none" stroke="black" stroke-width="0.5" d="M466.221,-189.444C483.07,-190.648 500.241,-191.874 516.632,-193.045"/>
<polygon fill="black" stroke="black" points="516.58,-194.796 521.692,-193.407 516.83,-191.305 516.58,-194.796"/>
</g>
<!-- topo.coordmapper.Pipeline -->
<g id="node12" class="node"><title>topo.coordmapper.Pipeline</title>
<polygon fill="none" stroke="black" stroke-width="0.5" points="686,-172.5 542,-172.5 542,-151.5 686,-151.5 686,-172.5"/>
<text text-anchor="middle" x="614" y="-159.5" font-family="Vera" font-size="10.00">topo.coordmapper.Pipeline</text>
</g>
<!-- topo.base.functionfamily.CoordinateMapperFn&#45;&gt;topo.coordmapper.Pipeline -->
<g id="edge12" class="edge"><title>topo.base.functionfamily.CoordinateMapperFn&#45;&gt;topo.coordmapper.Pipeline</title>
<path fill="none" stroke="black" stroke-width="0.5" d="M466.221,-172.556C489.856,-170.867 514.123,-169.134 535.984,-167.573"/>
<polygon fill="black" stroke="black" points="536.331,-169.302 541.193,-167.2 536.081,-165.811 536.331,-169.302"/>
</g>
<!-- topo.coordmapper.OttesSCMapper -->
<g id="node16" class="node"><title>topo.coordmapper.OttesSCMapper</title>
<polygon fill="none" stroke="black" stroke-width="0.5" points="706,-134.5 522,-134.5 522,-113.5 706,-113.5 706,-134.5"/>
<text text-anchor="middle" x="614" y="-121.5" font-family="Vera" font-size="10.00">topo.coordmapper.OttesSCMapper</text>
</g>
<!-- topo.base.functionfamily.CoordinateMapperFn&#45;&gt;topo.coordmapper.OttesSCMapper -->
<g id="edge16" class="edge"><title>topo.base.functionfamily.CoordinateMapperFn&#45;&gt;topo.coordmapper.OttesSCMapper</title>
<path fill="none" stroke="black" stroke-width="0.5" d="M385.48,-170.929C416.555,-162.777 461.962,-151.324 502,-143 515.758,-140.14 530.533,-137.4 544.694,-134.935"/>
<polygon fill="black" stroke="black" points="545.251,-136.615 549.881,-134.039 544.656,-133.166 545.251,-136.615"/>
</g>
<!-- topo.coordmapper.Grid -->
<g id="node28" class="node"><title>topo.coordmapper.Grid</title>
<polygon fill="none" stroke="black" stroke-width="0.5" points="678,-96.5 550,-96.5 550,-75.5 678,-75.5 678,-96.5"/>
<text text-anchor="middle" x="614" y="-83.5" font-family="Vera" font-size="10.00">topo.coordmapper.Grid</text>
</g>
<!-- topo.base.functionfamily.CoordinateMapperFn&#45;&gt;topo.coordmapper.Grid -->
<g id="edge28" class="edge"><title>topo.base.functionfamily.CoordinateMapperFn&#45;&gt;topo.coordmapper.Grid</title>
<path fill="none" stroke="black" stroke-width="0.5" d="M364.412,-170.893C391.853,-154.465 449.243,-122.088 502,-105 515.535,-100.616 530.336,-97.1937 544.615,-94.5397"/>
<polygon fill="black" stroke="black" points="545.238,-96.2056 549.848,-93.5963 544.617,-92.7611 545.238,-96.2056"/>
</g>
<!-- topo.coordmapper.NormalJitter -->
<g id="node32" class="node"><title>topo.coordmapper.NormalJitter</title>
<polygon fill="none" stroke="black" stroke-width="0.5" points="696,-58.5 532,-58.5 532,-37.5 696,-37.5 696,-58.5"/>
<text text-anchor="middle" x="614" y="-45.5" font-family="Vera" font-size="10.00">topo.coordmapper.NormalJitter</text>
</g>
<!-- topo.base.functionfamily.CoordinateMapperFn&#45;&gt;topo.coordmapper.NormalJitter -->
<g id="edge32" class="edge"><title>topo.base.functionfamily.CoordinateMapperFn&#45;&gt;topo.coordmapper.NormalJitter</title>
<path fill="none" stroke="black" stroke-width="0.5" d="M358.097,-170.764C381.227,-147.985 440.791,-93.0694 502,-67 509.663,-63.7361 517.847,-61.0319 526.17,-58.7918"/>
<polygon fill="black" stroke="black" points="526.96,-60.3957 531.366,-57.456 526.088,-57.0059 526.96,-60.3957"/>
</g>
<!-- topo.coordmapper.ConstantMapper -->
<g id="node34" class="node"><title>topo.coordmapper.ConstantMapper</title>
<polygon fill="none" stroke="black" stroke-width="0.5" points="708,-20.5 520,-20.5 520,0.5 708,0.5 708,-20.5"/>
<text text-anchor="middle" x="614" y="-7.5" font-family="Vera" font-size="10.00">topo.coordmapper.ConstantMapper</text>
</g>
<!-- topo.base.functionfamily.CoordinateMapperFn&#45;&gt;topo.coordmapper.ConstantMapper -->
<g id="edge34" class="edge"><title>topo.base.functionfamily.CoordinateMapperFn&#45;&gt;topo.coordmapper.ConstantMapper</title>
<path fill="none" stroke="black" stroke-width="0.5" d="M354.877,-170.73C374.258,-142.704 432.458,-64.6275 502,-29 507.485,-26.1898 513.3,-23.7826 519.283,-21.7218"/>
<polygon fill="black" stroke="black" points="520.133,-23.2853 524.344,-20.071 519.048,-19.9578 520.133,-23.2853"/>
</g>
<!-- topo.coordmapper.ReducingMapper -->
<g id="node19" class="node"><title>topo.coordmapper.ReducingMapper</title>
<polygon fill="none" stroke="black" stroke-width="0.5" points="962,-324.5 776,-324.5 776,-303.5 962,-303.5 962,-324.5"/>
<text text-anchor="middle" x="869" y="-311.5" font-family="Vera" font-size="10.00">topo.coordmapper.ReducingMapper</text>
</g>
<!-- topo.coordmapper.SingleDimensionMapper&#45;&gt;topo.coordmapper.ReducingMapper -->
<g id="edge18" class="edge"><title>topo.coordmapper.SingleDimensionMapper&#45;&gt;topo.coordmapper.ReducingMapper</title>
<path fill="none" stroke="black" stroke-width="0.5" d="M726.218,-314C740.855,-314 755.766,-314 770.162,-314"/>
<polygon fill="black" stroke="black" points="770.441,-315.75 775.441,-314 770.441,-312.25 770.441,-315.75"/>
</g>
<!-- topo.coordmapper.MagnifyingMapper -->
<g id="node26" class="node"><title>topo.coordmapper.MagnifyingMapper</title>
<polygon fill="none" stroke="black" stroke-width="0.5" points="966,-286.5 772,-286.5 772,-265.5 966,-265.5 966,-286.5"/>
<text text-anchor="middle" x="869" y="-273.5" font-family="Vera" font-size="10.00">topo.coordmapper.MagnifyingMapper</text>
</g>
<!-- topo.coordmapper.SingleDimensionMapper&#45;&gt;topo.coordmapper.MagnifyingMapper -->
<g id="edge26" class="edge"><title>topo.coordmapper.SingleDimensionMapper&#45;&gt;topo.coordmapper.MagnifyingMapper</title>
<path fill="none" stroke="black" stroke-width="0.5" d="M681.332,-303.966C716.773,-298.685 760.262,-292.204 796.449,-286.811"/>
<polygon fill="black" stroke="black" points="797.046,-288.492 801.733,-286.024 796.53,-285.03 797.046,-288.492"/>
</g>
<!-- topo.coordmapper.OttesSCMotorMapper -->
<g id="node24" class="node"><title>topo.coordmapper.OttesSCMotorMapper</title>
<polygon fill="none" stroke="black" stroke-width="0.5" points="975,-153.5 763,-153.5 763,-132.5 975,-132.5 975,-153.5"/>
<text text-anchor="middle" x="869" y="-140.5" font-family="Vera" font-size="10.00">topo.coordmapper.OttesSCMotorMapper</text>
</g>
<!-- topo.coordmapper.OttesSCMapper&#45;&gt;topo.coordmapper.OttesSCMotorMapper -->
<g id="edge24" class="edge"><title>topo.coordmapper.OttesSCMapper&#45;&gt;topo.coordmapper.OttesSCMotorMapper</title>
<path fill="none" stroke="black" stroke-width="0.5" d="M706.061,-130.859C722.739,-132.102 740.295,-133.41 757.46,-134.689"/>
<polygon fill="black" stroke="black" points="757.656,-136.459 762.773,-135.085 757.917,-132.968 757.656,-136.459"/>
</g>
<!-- topo.coordmapper.OttesSCSenseMapper -->
<g id="node30" class="node"><title>topo.coordmapper.OttesSCSenseMapper</title>
<polygon fill="none" stroke="black" stroke-width="0.5" points="976,-115.5 762,-115.5 762,-94.5 976,-94.5 976,-115.5"/>
<text text-anchor="middle" x="869" y="-102.5" font-family="Vera" font-size="10.00">topo.coordmapper.OttesSCSenseMapper</text>
</g>
<!-- topo.coordmapper.OttesSCMapper&#45;&gt;topo.coordmapper.OttesSCSenseMapper -->
<g id="edge30" class="edge"><title>topo.coordmapper.OttesSCMapper&#45;&gt;topo.coordmapper.OttesSCSenseMapper</title>
<path fill="none" stroke="black" stroke-width="0.5" d="M706.061,-117.141C722.48,-115.917 739.751,-114.63 756.661,-113.37"/>
<polygon fill="black" stroke="black" points="757.04,-115.097 761.896,-112.98 756.78,-111.607 757.04,-115.097"/>
</g>
<!-- param.parameterized.Parameterized -->
<g id="node18" class="node"><title>param.parameterized.Parameterized</title>
<polygon fill="none" stroke="black" stroke-width="0.5" points="194,-191.5 5.68434e-14,-191.5 0,-170.5 194,-170.5 194,-191.5"/>
<text text-anchor="middle" x="97" y="-178.5" font-family="Vera" font-size="10.00">param.parameterized.Parameterized</text>
</g>
<!-- param.parameterized.Parameterized&#45;&gt;topo.base.functionfamily.CoordinateMapperFn -->
<g id="edge20" class="edge"><title>param.parameterized.Parameterized&#45;&gt;topo.base.functionfamily.CoordinateMapperFn</title>
<path fill="none" stroke="black" stroke-width="0.5" d="M194.043,-181C204.12,-181 214.455,-181 224.77,-181"/>
<polygon fill="black" stroke="black" points="224.831,-182.75 229.831,-181 224.831,-179.25 224.831,-182.75"/>
</g>
</g>
</svg>
