<?xml version="1.0" encoding="UTF-8" standalone="no"?>
<!DOCTYPE svg PUBLIC "-//W3C//DTD SVG 1.1//EN"
 "http://www.w3.org/Graphics/SVG/1.1/DTD/svg11.dtd">
<!-- Generated by graphviz version 2.26.3 (20100126.1600)
 -->
<!-- Title: inheritance2af7241929 Pages: 1 -->
<svg width="906pt" height="66pt"
 viewBox="0.00 0.00 906.00 66.00" xmlns="http://www.w3.org/2000/svg" xmlns:xlink="http://www.w3.org/1999/xlink">
<g id="graph1" class="graph" transform="scale(1 1) rotate(0) translate(4 62)">
<title>inheritance2af7241929</title>
<polygon fill="white" stroke="white" points="-4,5 -4,-62 903,-62 903,5 -4,5"/>
<!-- dataviews.sheetcoords.SheetCoordinateSystem -->
<g id="node1" class="node"><title>dataviews.sheetcoords.SheetCoordinateSystem</title>
<polygon fill="none" stroke="black" stroke-width="0.5" points="477,-58.5 231,-58.5 231,-37.5 477,-37.5 477,-58.5"/>
<text text-anchor="middle" x="354" y="-45.5" font-family="Vera" font-size="10.00">dataviews.sheetcoords.SheetCoordinateSystem</text>
</g>
<!-- topo.base.sheet.Sheet -->
<g id="node5" class="node"><title>topo.base.sheet.Sheet</title>
<polygon fill="none" stroke="black" stroke-width="0.5" points="640,-39.5 514,-39.5 514,-18.5 640,-18.5 640,-39.5"/>
<text text-anchor="middle" x="577" y="-26.5" font-family="Vera" font-size="10.00">topo.base.sheet.Sheet</text>
</g>
<!-- dataviews.sheetcoords.SheetCoordinateSystem&#45;&gt;topo.base.sheet.Sheet -->
<g id="edge6" class="edge"><title>dataviews.sheetcoords.SheetCoordinateSystem&#45;&gt;topo.base.sheet.Sheet</title>
<path fill="none" stroke="black" stroke-width="0.5" d="M471.377,-37.9992C484.139,-36.9119 496.798,-35.8333 508.683,-34.8207"/>
<polygon fill="black" stroke="black" points="508.894,-36.5592 513.727,-34.3909 508.597,-33.0718 508.894,-36.5592"/>
</g>
<!-- param.parameterized.Parameterized -->
<g id="node2" class="node"><title>param.parameterized.Parameterized</title>
<polygon fill="none" stroke="black" stroke-width="0.5" points="194,-20.5 5.68434e-14,-20.5 0,0.5 194,0.5 194,-20.5"/>
<text text-anchor="middle" x="97" y="-7.5" font-family="Vera" font-size="10.00">param.parameterized.Parameterized</text>
</g>
<!-- topo.base.simulation.EventProcessor -->
<g id="node3" class="node"><title>topo.base.simulation.EventProcessor</title>
<polygon fill="none" stroke="black" stroke-width="0.5" points="451,-20.5 257,-20.5 257,0.5 451,0.5 451,-20.5"/>
<text text-anchor="middle" x="354" y="-7.5" font-family="Vera" font-size="10.00">topo.base.simulation.EventProcessor</text>
</g>
<!-- param.parameterized.Parameterized&#45;&gt;topo.base.simulation.EventProcessor -->
<g id="edge2" class="edge"><title>param.parameterized.Parameterized&#45;&gt;topo.base.simulation.EventProcessor</title>
<path fill="none" stroke="black" stroke-width="0.5" d="M194.161,-10C212.87,-10 232.524,-10 251.4,-10"/>
<polygon fill="black" stroke="black" points="251.702,-11.7501 256.702,-10 251.702,-8.25009 251.702,-11.7501"/>
</g>
<!-- topo.base.simulation.EventProcessor&#45;&gt;topo.base.sheet.Sheet -->
<g id="edge4" class="edge"><title>topo.base.simulation.EventProcessor&#45;&gt;topo.base.sheet.Sheet</title>
<path fill="none" stroke="black" stroke-width="0.5" d="M451.162,-18.2784C470.581,-19.9329 490.589,-21.6376 508.779,-23.1874"/>
<polygon fill="black" stroke="black" points="508.728,-24.9394 513.859,-23.6203 509.025,-21.452 508.728,-24.9394"/>
</g>
<!-- topo.base.generatorsheet.GeneratorSheet -->
<g id="node8" class="node"><title>topo.base.generatorsheet.GeneratorSheet</title>
<polygon fill="none" stroke="black" stroke-width="0.5" points="898,-39.5 676,-39.5 676,-18.5 898,-18.5 898,-39.5"/>
<text text-anchor="middle" x="787" y="-26.5" font-family="Vera" font-size="10.00">topo.base.generatorsheet.GeneratorSheet</text>
</g>
<!-- topo.base.sheet.Sheet&#45;&gt;topo.base.generatorsheet.GeneratorSheet -->
<g id="edge8" class="edge"><title>topo.base.sheet.Sheet&#45;&gt;topo.base.generatorsheet.GeneratorSheet</title>
<path fill="none" stroke="black" stroke-width="0.5" d="M640.007,-29C649.766,-29 660.105,-29 670.598,-29"/>
<polygon fill="black" stroke="black" points="670.76,-30.7501 675.76,-29 670.76,-27.2501 670.76,-30.7501"/>
</g>
</g>
</svg>
