<?xml version="1.0" encoding="UTF-8" standalone="no"?>
<!DOCTYPE svg PUBLIC "-//W3C//DTD SVG 1.1//EN"
 "http://www.w3.org/Graphics/SVG/1.1/DTD/svg11.dtd">
<!-- Generated by graphviz version 2.26.3 (20100126.1600)
 -->
<!-- Title: inheritance0c0d2b112e Pages: 1 -->
<svg width="772pt" height="379pt"
 viewBox="0.00 0.00 772.00 379.00" xmlns="http://www.w3.org/2000/svg" xmlns:xlink="http://www.w3.org/1999/xlink">
<g id="graph1" class="graph" transform="scale(1 1) rotate(0) translate(4 375)">
<title>inheritance0c0d2b112e</title>
<polygon fill="white" stroke="white" points="-4,5 -4,-375 769,-375 769,5 -4,5"/>
<!-- param.normalize_path -->
<g id="node1" class="node"><title>param.normalize_path</title>
<polygon fill="none" stroke="black" stroke-width="0.5" points="625,-77.5 501,-77.5 501,-56.5 625,-56.5 625,-77.5"/>
<text text-anchor="middle" x="563" y="-64.5" font-family="Vera" font-size="10.00">param.normalize_path</text>
</g>
<!-- param.parameterized.ParameterizedFunction -->
<g id="node2" class="node"><title>param.parameterized.ParameterizedFunction</title>
<polygon fill="none" stroke="black" stroke-width="0.5" points="464,-58.5 230,-58.5 230,-37.5 464,-37.5 464,-58.5"/>
<text text-anchor="middle" x="347" y="-45.5" font-family="Vera" font-size="10.00">param.parameterized.ParameterizedFunction</text>
</g>
<!-- param.parameterized.ParameterizedFunction&#45;&gt;param.normalize_path -->
<g id="edge2" class="edge"><title>param.parameterized.ParameterizedFunction&#45;&gt;param.normalize_path</title>
<path fill="none" stroke="black" stroke-width="0.5" d="M460.693,-58.0008C472.503,-59.0396 484.223,-60.0705 495.284,-61.0435"/>
<polygon fill="black" stroke="black" points="495.183,-62.7913 500.318,-61.4863 495.49,-59.3048 495.183,-62.7913"/>
</g>
<!-- param.resolve_path -->
<g id="node8" class="node"><title>param.resolve_path</title>
<polygon fill="none" stroke="black" stroke-width="0.5" points="619,-39.5 507,-39.5 507,-18.5 619,-18.5 619,-39.5"/>
<text text-anchor="middle" x="563" y="-26.5" font-family="Vera" font-size="10.00">param.resolve_path</text>
</g>
<!-- param.parameterized.ParameterizedFunction&#45;&gt;param.resolve_path -->
<g id="edge6" class="edge"><title>param.parameterized.ParameterizedFunction&#45;&gt;param.resolve_path</title>
<path fill="none" stroke="black" stroke-width="0.5" d="M460.693,-37.9992C474.69,-36.768 488.559,-35.548 501.357,-34.4223"/>
<polygon fill="black" stroke="black" points="501.567,-36.1607 506.394,-33.9792 501.26,-32.6742 501.567,-36.1607"/>
</g>
<!-- param.parameterized.Parameterized -->
<g id="node4" class="node"><title>param.parameterized.Parameterized</title>
<polygon fill="none" stroke="black" stroke-width="0.5" points="194,-39.5 5.68434e-14,-39.5 0,-18.5 194,-18.5 194,-39.5"/>
<text text-anchor="middle" x="97" y="-26.5" font-family="Vera" font-size="10.00">param.parameterized.Parameterized</text>
</g>
<!-- param.parameterized.Parameterized&#45;&gt;param.parameterized.ParameterizedFunction -->
<g id="edge46" class="edge"><title>param.parameterized.Parameterized&#45;&gt;param.parameterized.ParameterizedFunction</title>
<path fill="none" stroke="black" stroke-width="0.5" d="M194.014,-36.3731C204.04,-37.1351 214.319,-37.9163 224.575,-38.6957"/>
<polygon fill="black" stroke="black" points="224.489,-40.4441 229.607,-39.0781 224.754,-36.9542 224.489,-40.4441"/>
</g>
<!-- param.Time -->
<g id="node16" class="node"><title>param.Time</title>
<polygon fill="none" stroke="black" stroke-width="0.5" points="384,-20.5 310,-20.5 310,0.5 384,0.5 384,-20.5"/>
<text text-anchor="middle" x="347" y="-7.5" font-family="Vera" font-size="10.00">param.Time</text>
</g>
<!-- param.parameterized.Parameterized&#45;&gt;param.Time -->
<g id="edge12" class="edge"><title>param.parameterized.Parameterized&#45;&gt;param.Time</title>
<path fill="none" stroke="black" stroke-width="0.5" d="M194.014,-21.6269C232.419,-18.7081 274.539,-15.507 304.844,-13.2039"/>
<polygon fill="black" stroke="black" points="305.128,-14.9374 309.981,-12.8134 304.863,-11.4474 305.128,-14.9374"/>
</g>
<!-- param.Number -->
<g id="node5" class="node"><title>param.Number</title>
<polygon fill="none" stroke="black" stroke-width="0.5" points="608,-362.5 518,-362.5 518,-341.5 608,-341.5 608,-362.5"/>
<text text-anchor="middle" x="563" y="-349.5" font-family="Vera" font-size="10.00">param.Number</text>
</g>
<!-- param.Magnitude -->
<g id="node26" class="node"><title>param.Magnitude</title>
<polygon fill="none" stroke="black" stroke-width="0.5" points="763,-371.5 663,-371.5 663,-350.5 763,-350.5 763,-371.5"/>
<text text-anchor="middle" x="713" y="-358.5" font-family="Vera" font-size="10.00">param.Magnitude</text>
</g>
<!-- param.Number&#45;&gt;param.Magnitude -->
<g id="edge22" class="edge"><title>param.Number&#45;&gt;param.Magnitude</title>
<path fill="none" stroke="black" stroke-width="0.5" d="M608.005,-354.7C623.49,-355.629 641.017,-356.681 657.253,-357.655"/>
<polygon fill="black" stroke="black" points="657.15,-359.402 662.246,-357.955 657.36,-355.908 657.15,-359.402"/>
</g>
<!-- param.Integer -->
<g id="node30" class="node"><title>param.Integer</title>
<polygon fill="none" stroke="black" stroke-width="0.5" points="755,-333.5 671,-333.5 671,-312.5 755,-312.5 755,-333.5"/>
<text text-anchor="middle" x="713" y="-320.5" font-family="Vera" font-size="10.00">param.Integer</text>
</g>
<!-- param.Number&#45;&gt;param.Integer -->
<g id="edge26" class="edge"><title>param.Number&#45;&gt;param.Integer</title>
<path fill="none" stroke="black" stroke-width="0.5" d="M608.005,-343.299C626.068,-339.807 646.911,-335.777 665.241,-332.233"/>
<polygon fill="black" stroke="black" points="665.764,-333.915 670.341,-331.247 665.099,-330.478 665.764,-333.915"/>
</g>
<!-- param.Dynamic -->
<g id="node6" class="node"><title>param.Dynamic</title>
<polygon fill="none" stroke="black" stroke-width="0.5" points="393,-362.5 301,-362.5 301,-341.5 393,-341.5 393,-362.5"/>
<text text-anchor="middle" x="347" y="-349.5" font-family="Vera" font-size="10.00">param.Dynamic</text>
</g>
<!-- param.Dynamic&#45;&gt;param.Number -->
<g id="edge4" class="edge"><title>param.Dynamic&#45;&gt;param.Number</title>
<path fill="none" stroke="black" stroke-width="0.5" d="M393.603,-352C428.71,-352 476.779,-352 512.745,-352"/>
<polygon fill="black" stroke="black" points="512.96,-353.75 517.96,-352 512.96,-350.25 512.96,-353.75"/>
</g>
<!-- param.Composite -->
<g id="node10" class="node"><title>param.Composite</title>
<polygon fill="none" stroke="black" stroke-width="0.5" points="398,-324.5 296,-324.5 296,-303.5 398,-303.5 398,-324.5"/>
<text text-anchor="middle" x="347" y="-311.5" font-family="Vera" font-size="10.00">param.Composite</text>
</g>
<!-- param.parameterized.Parameter -->
<g id="node11" class="node"><title>param.parameterized.Parameter</title>
<polygon fill="none" stroke="black" stroke-width="0.5" points="184,-229.5 10,-229.5 10,-208.5 184,-208.5 184,-229.5"/>
<text text-anchor="middle" x="97" y="-216.5" font-family="Vera" font-size="10.00">param.parameterized.Parameter</text>
</g>
<!-- param.parameterized.Parameter&#45;&gt;param.Dynamic -->
<g id="edge32" class="edge"><title>param.parameterized.Parameter&#45;&gt;param.Dynamic</title>
<path fill="none" stroke="black" stroke-width="0.5" d="M180.193,-229.049C185.141,-231.505 189.804,-234.458 194,-238 228.505,-267.122 195.027,-304.441 230,-333 248.079,-347.763 273.104,-353.174 295.373,-354.622"/>
<polygon fill="black" stroke="black" points="295.289,-356.37 300.374,-354.885 295.472,-352.875 295.289,-356.37"/>
</g>
<!-- param.parameterized.Parameter&#45;&gt;param.Composite -->
<g id="edge8" class="edge"><title>param.parameterized.Parameter&#45;&gt;param.Composite</title>
<path fill="none" stroke="black" stroke-width="0.5" d="M177.006,-229.048C183.011,-231.465 188.761,-234.413 194,-238 218.722,-254.93 205.007,-278.474 230,-295 247.565,-306.615 269.782,-311.98 290.125,-314.236"/>
<polygon fill="black" stroke="black" points="290.104,-315.992 295.252,-314.744 290.449,-312.509 290.104,-315.992"/>
</g>
<!-- param.NumericTuple -->
<g id="node14" class="node"><title>param.NumericTuple</title>
<polygon fill="none" stroke="black" stroke-width="0.5" points="405,-286.5 289,-286.5 289,-265.5 405,-265.5 405,-286.5"/>
<text text-anchor="middle" x="347" y="-273.5" font-family="Vera" font-size="10.00">param.NumericTuple</text>
</g>
<!-- param.parameterized.Parameter&#45;&gt;param.NumericTuple -->
<g id="edge20" class="edge"><title>param.parameterized.Parameter&#45;&gt;param.NumericTuple</title>
<path fill="none" stroke="black" stroke-width="0.5" d="M162.145,-229.033C172.93,-231.468 183.887,-234.428 194,-238 211.059,-244.025 212.846,-251.252 230,-257 247.122,-262.737 266.253,-266.773 284.004,-269.601"/>
<polygon fill="black" stroke="black" points="283.763,-271.334 288.971,-270.367 284.296,-267.875 283.763,-271.334"/>
</g>
<!-- param.Selector -->
<g id="node18" class="node"><title>param.Selector</title>
<polygon fill="none" stroke="black" stroke-width="0.5" points="392,-248.5 302,-248.5 302,-227.5 392,-227.5 392,-248.5"/>
<text text-anchor="middle" x="347" y="-235.5" font-family="Vera" font-size="10.00">param.Selector</text>
</g>
<!-- param.parameterized.Parameter&#45;&gt;param.Selector -->
<g id="edge14" class="edge"><title>param.parameterized.Parameter&#45;&gt;param.Selector</title>
<path fill="none" stroke="black" stroke-width="0.5" d="M184.789,-225.672C222.049,-228.504 264.163,-231.704 296.14,-234.135"/>
<polygon fill="black" stroke="black" points="296.065,-235.884 301.183,-234.518 296.33,-232.394 296.065,-235.884"/>
</g>
<!-- param.Path -->
<g id="node21" class="node"><title>param.Path</title>
<polygon fill="none" stroke="black" stroke-width="0.5" points="383,-210.5 311,-210.5 311,-189.5 383,-189.5 383,-210.5"/>
<text text-anchor="middle" x="347" y="-197.5" font-family="Vera" font-size="10.00">param.Path</text>
</g>
<!-- param.parameterized.Parameter&#45;&gt;param.Path -->
<g id="edge24" class="edge"><title>param.parameterized.Parameter&#45;&gt;param.Path</title>
<path fill="none" stroke="black" stroke-width="0.5" d="M184.789,-212.328C225.922,-209.202 272.97,-205.626 305.766,-203.134"/>
<polygon fill="black" stroke="black" points="306.051,-204.867 310.904,-202.743 305.786,-201.377 306.051,-204.867"/>
</g>
<!-- param.List -->
<g id="node37" class="node"><title>param.List</title>
<polygon fill="none" stroke="black" stroke-width="0.5" points="381,-172.5 313,-172.5 313,-151.5 381,-151.5 381,-172.5"/>
<text text-anchor="middle" x="347" y="-159.5" font-family="Vera" font-size="10.00">param.List</text>
</g>
<!-- param.parameterized.Parameter&#45;&gt;param.List -->
<g id="edge34" class="edge"><title>param.parameterized.Parameter&#45;&gt;param.List</title>
<path fill="none" stroke="black" stroke-width="0.5" d="M128.175,-208.97C154.96,-200.624 194.727,-188.875 230,-181 255.674,-175.268 284.881,-170.523 307.691,-167.209"/>
<polygon fill="black" stroke="black" points="308.052,-168.925 312.752,-166.481 307.554,-165.46 308.052,-168.925"/>
</g>
<!-- param.Boolean -->
<g id="node43" class="node"><title>param.Boolean</title>
<polygon fill="none" stroke="black" stroke-width="0.5" points="392,-134.5 302,-134.5 302,-113.5 392,-113.5 392,-134.5"/>
<text text-anchor="middle" x="347" y="-121.5" font-family="Vera" font-size="10.00">param.Boolean</text>
</g>
<!-- param.parameterized.Parameter&#45;&gt;param.Boolean -->
<g id="edge40" class="edge"><title>param.parameterized.Parameter&#45;&gt;param.Boolean</title>
<path fill="none" stroke="black" stroke-width="0.5" d="M110.934,-208.761C134.288,-192.143 183.367,-159.499 230,-143 251.283,-135.47 275.811,-130.904 296.895,-128.145"/>
<polygon fill="black" stroke="black" points="297.153,-129.877 301.895,-127.516 296.716,-126.404 297.153,-129.877"/>
</g>
<!-- param.Callable -->
<g id="node45" class="node"><title>param.Callable</title>
<polygon fill="none" stroke="black" stroke-width="0.5" points="391,-96.5 303,-96.5 303,-75.5 391,-75.5 391,-96.5"/>
<text text-anchor="middle" x="347" y="-83.5" font-family="Vera" font-size="10.00">param.Callable</text>
</g>
<!-- param.parameterized.Parameter&#45;&gt;param.Callable -->
<g id="edge42" class="edge"><title>param.parameterized.Parameter&#45;&gt;param.Callable</title>
<path fill="none" stroke="black" stroke-width="0.5" d="M105.389,-208.699C124.689,-185.789 174.836,-130.621 230,-105 250.821,-95.3298 275.713,-90.4795 297.175,-88.0848"/>
<polygon fill="black" stroke="black" points="297.474,-89.8131 302.266,-87.555 297.112,-86.3319 297.474,-89.8131"/>
</g>
<!-- param.XYCoordinates -->
<g id="node13" class="node"><title>param.XYCoordinates</title>
<polygon fill="none" stroke="black" stroke-width="0.5" points="622,-324.5 504,-324.5 504,-303.5 622,-303.5 622,-324.5"/>
<text text-anchor="middle" x="563" y="-311.5" font-family="Vera" font-size="10.00">param.XYCoordinates</text>
</g>
<!-- param.NumericTuple&#45;&gt;param.XYCoordinates -->
<g id="edge10" class="edge"><title>param.NumericTuple&#45;&gt;param.XYCoordinates</title>
<path fill="none" stroke="black" stroke-width="0.5" d="M405.079,-285.095C423.897,-288.132 444.851,-291.608 464,-295 477.967,-297.474 493.013,-300.286 507.055,-302.973"/>
<polygon fill="black" stroke="black" points="506.938,-304.733 512.179,-303.957 507.598,-301.296 506.938,-304.733"/>
</g>
<!-- param.ObjectSelector -->
<g id="node23" class="node"><title>param.ObjectSelector</title>
<polygon fill="none" stroke="black" stroke-width="0.5" points="624,-286.5 502,-286.5 502,-265.5 624,-265.5 624,-286.5"/>
<text text-anchor="middle" x="563" y="-273.5" font-family="Vera" font-size="10.00">param.ObjectSelector</text>
</g>
<!-- param.Selector&#45;&gt;param.ObjectSelector -->
<g id="edge18" class="edge"><title>param.Selector&#45;&gt;param.ObjectSelector</title>
<path fill="none" stroke="black" stroke-width="0.5" d="M392.613,-245.097C414.268,-248.545 440.495,-252.837 464,-257 477.967,-259.474 493.013,-262.286 507.055,-264.973"/>
<polygon fill="black" stroke="black" points="506.938,-266.733 512.179,-265.957 507.598,-263.296 506.938,-266.733"/>
</g>
<!-- param.ClassSelector -->
<g id="node34" class="node"><title>param.ClassSelector</title>
<polygon fill="none" stroke="black" stroke-width="0.5" points="621,-248.5 505,-248.5 505,-227.5 621,-227.5 621,-248.5"/>
<text text-anchor="middle" x="563" y="-235.5" font-family="Vera" font-size="10.00">param.ClassSelector</text>
</g>
<!-- param.Selector&#45;&gt;param.ClassSelector -->
<g id="edge30" class="edge"><title>param.Selector&#45;&gt;param.ClassSelector</title>
<path fill="none" stroke="black" stroke-width="0.5" d="M392.544,-238C423.689,-238 465.391,-238 499.751,-238"/>
<polygon fill="black" stroke="black" points="499.765,-239.75 504.765,-238 499.765,-236.25 499.765,-239.75"/>
</g>
<!-- param.Filename -->
<g id="node20" class="node"><title>param.Filename</title>
<polygon fill="none" stroke="black" stroke-width="0.5" points="610,-210.5 516,-210.5 516,-189.5 610,-189.5 610,-210.5"/>
<text text-anchor="middle" x="563" y="-197.5" font-family="Vera" font-size="10.00">param.Filename</text>
</g>
<!-- param.Path&#45;&gt;param.Filename -->
<g id="edge16" class="edge"><title>param.Path&#45;&gt;param.Filename</title>
<path fill="none" stroke="black" stroke-width="0.5" d="M383.154,-200C417.979,-200 471.047,-200 510.521,-200"/>
<polygon fill="black" stroke="black" points="510.753,-201.75 515.753,-200 510.753,-198.25 510.753,-201.75"/>
</g>
<!-- param.Foldername -->
<g id="node32" class="node"><title>param.Foldername</title>
<polygon fill="none" stroke="black" stroke-width="0.5" points="617,-172.5 509,-172.5 509,-151.5 617,-151.5 617,-172.5"/>
<text text-anchor="middle" x="563" y="-159.5" font-family="Vera" font-size="10.00">param.Foldername</text>
</g>
<!-- param.Path&#45;&gt;param.Foldername -->
<g id="edge28" class="edge"><title>param.Path&#45;&gt;param.Foldername</title>
<path fill="none" stroke="black" stroke-width="0.5" d="M383.149,-194.403C406.293,-190.752 436.949,-185.791 464,-181 477.967,-178.526 493.013,-175.714 507.055,-173.027"/>
<polygon fill="black" stroke="black" points="507.598,-174.704 512.179,-172.043 506.938,-171.267 507.598,-174.704"/>
</g>
<!-- param.Infinity -->
<g id="node29" class="node"><title>param.Infinity</title>
<polygon fill="none" stroke="black" stroke-width="0.5" points="138,-267.5 56,-267.5 56,-246.5 138,-246.5 138,-267.5"/>
<text text-anchor="middle" x="97" y="-254.5" font-family="Vera" font-size="10.00">param.Infinity</text>
</g>
<!-- param.Array -->
<g id="node39" class="node"><title>param.Array</title>
<polygon fill="none" stroke="black" stroke-width="0.5" points="751,-276.5 675,-276.5 675,-255.5 751,-255.5 751,-276.5"/>
<text text-anchor="middle" x="713" y="-263.5" font-family="Vera" font-size="10.00">param.Array</text>
</g>
<!-- param.ClassSelector&#45;&gt;param.Array -->
<g id="edge36" class="edge"><title>param.ClassSelector&#45;&gt;param.Array</title>
<path fill="none" stroke="black" stroke-width="0.5" d="M616.73,-248.03C633.947,-251.243 652.795,-254.762 669.214,-257.827"/>
<polygon fill="black" stroke="black" points="668.99,-259.565 674.227,-258.762 669.633,-256.124 668.99,-259.565"/>
</g>
<!-- param.Dict -->
<g id="node47" class="node"><title>param.Dict</title>
<polygon fill="none" stroke="black" stroke-width="0.5" points="748,-238.5 678,-238.5 678,-217.5 748,-217.5 748,-238.5"/>
<text text-anchor="middle" x="713" y="-225.5" font-family="Vera" font-size="10.00">param.Dict</text>
</g>
<!-- param.ClassSelector&#45;&gt;param.Dict -->
<g id="edge44" class="edge"><title>param.ClassSelector&#45;&gt;param.Dict</title>
<path fill="none" stroke="black" stroke-width="0.5" d="M621.423,-234.105C638.57,-232.962 656.933,-231.738 672.68,-230.688"/>
<polygon fill="black" stroke="black" points="673.042,-232.418 677.915,-230.339 672.809,-228.926 673.042,-232.418"/>
</g>
<!-- param.HookList -->
<g id="node41" class="node"><title>param.HookList</title>
<polygon fill="none" stroke="black" stroke-width="0.5" points="609,-134.5 517,-134.5 517,-113.5 609,-113.5 609,-134.5"/>
<text text-anchor="middle" x="563" y="-121.5" font-family="Vera" font-size="10.00">param.HookList</text>
</g>
<!-- param.List&#45;&gt;param.HookList -->
<g id="edge38" class="edge"><title>param.List&#45;&gt;param.HookList</title>
<path fill="none" stroke="black" stroke-width="0.5" d="M381.09,-156.728C404.453,-153.05 436.138,-147.935 464,-143 479.483,-140.258 496.292,-137.1 511.589,-134.156"/>
<polygon fill="black" stroke="black" points="512.137,-135.833 516.715,-133.167 511.474,-132.396 512.137,-135.833"/>
</g>
</g>
</svg>
