<?xml version="1.0" encoding="UTF-8" standalone="no"?>
<!DOCTYPE svg PUBLIC "-//W3C//DTD SVG 1.1//EN"
 "http://www.w3.org/Graphics/SVG/1.1/DTD/svg11.dtd">
<!-- Generated by graphviz version 2.26.3 (20100126.1600)
 -->
<!-- Title: inheritance0f827376bc Pages: 1 -->
<svg width="2194pt" height="265pt"
 viewBox="0.00 0.00 2194.00 265.00" xmlns="http://www.w3.org/2000/svg" xmlns:xlink="http://www.w3.org/1999/xlink">
<g id="graph1" class="graph" transform="scale(1 1) rotate(0) translate(4 261)">
<title>inheritance0f827376bc</title>
<polygon fill="white" stroke="white" points="-4,5 -4,-261 2191,-261 2191,5 -4,5"/>
<!-- topo.analysis.featureresponses.pattern_response -->
<g id="node1" class="node"><title>topo.analysis.featureresponses.pattern_response</title>
<polygon fill="none" stroke="black" stroke-width="0.5" points="1143,-96.5 889,-96.5 889,-75.5 1143,-75.5 1143,-96.5"/>
<text text-anchor="middle" x="1016" y="-83.5" font-family="Vera" font-size="10.00">topo.analysis.featureresponses.pattern_response</text>
</g>
<!-- topo.analysis.featureresponses.PatternPresentingCommand -->
<g id="node2" class="node"><title>topo.analysis.featureresponses.PatternPresentingCommand</title>
<polygon fill="none" stroke="black" stroke-width="0.5" points="825,-96.5 521,-96.5 521,-75.5 825,-75.5 825,-96.5"/>
<text text-anchor="middle" x="673" y="-83.5" font-family="Vera" font-size="10.00">topo.analysis.featureresponses.PatternPresentingCommand</text>
</g>
<!-- topo.analysis.featureresponses.PatternPresentingCommand&#45;&gt;topo.analysis.featureresponses.pattern_response -->
<g id="edge2" class="edge"><title>topo.analysis.featureresponses.PatternPresentingCommand&#45;&gt;topo.analysis.featureresponses.pattern_response</title>
<path fill="none" stroke="black" stroke-width="0.5" d="M825.942,-86C845.129,-86 864.629,-86 883.468,-86"/>
<polygon fill="black" stroke="black" points="883.763,-87.7501 888.763,-86 883.763,-84.2501 883.763,-87.7501"/>
</g>
<!-- topo.analysis.featureresponses.MeasureResponseCommand -->
<g id="node11" class="node"><title>topo.analysis.featureresponses.MeasureResponseCommand</title>
<polygon fill="none" stroke="black" stroke-width="0.5" points="1169,-58.5 863,-58.5 863,-37.5 1169,-37.5 1169,-58.5"/>
<text text-anchor="middle" x="1016" y="-45.5" font-family="Vera" font-size="10.00">topo.analysis.featureresponses.MeasureResponseCommand</text>
</g>
<!-- topo.analysis.featureresponses.PatternPresentingCommand&#45;&gt;topo.analysis.featureresponses.MeasureResponseCommand -->
<g id="edge10" class="edge"><title>topo.analysis.featureresponses.PatternPresentingCommand&#45;&gt;topo.analysis.featureresponses.MeasureResponseCommand</title>
<path fill="none" stroke="black" stroke-width="0.5" d="M763.568,-75.9662C811.924,-70.609 871.418,-64.0179 920.5,-58.5801"/>
<polygon fill="black" stroke="black" points="920.743,-60.3141 925.52,-58.024 920.357,-56.8353 920.743,-60.3141"/>
</g>
<!-- topo.analysis.featureresponses.Feature -->
<g id="node4" class="node"><title>topo.analysis.featureresponses.Feature</title>
<polygon fill="none" stroke="black" stroke-width="0.5" points="460,-257.5 254,-257.5 254,-236.5 460,-236.5 460,-257.5"/>
<text text-anchor="middle" x="357" y="-244.5" font-family="Vera" font-size="10.00">topo.analysis.featureresponses.Feature</text>
</g>
<!-- param.parameterized.Parameterized -->
<g id="node5" class="node"><title>param.parameterized.Parameterized</title>
<polygon fill="none" stroke="black" stroke-width="0.5" points="194,-143.5 5.68434e-14,-143.5 0,-122.5 194,-122.5 194,-143.5"/>
<text text-anchor="middle" x="97" y="-130.5" font-family="Vera" font-size="10.00">param.parameterized.Parameterized</text>
</g>
<!-- param.parameterized.Parameterized&#45;&gt;topo.analysis.featureresponses.Feature -->
<g id="edge4" class="edge"><title>param.parameterized.Parameterized&#45;&gt;topo.analysis.featureresponses.Feature</title>
<path fill="none" stroke="black" stroke-width="0.5" d="M107.318,-143.077C128.386,-162.991 178.705,-207.251 230,-228 237.445,-231.012 245.31,-233.552 253.328,-235.694"/>
<polygon fill="black" stroke="black" points="253.06,-237.431 258.338,-236.976 253.929,-234.041 253.06,-237.431"/>
</g>
<!-- topo.analysis.featureresponses.FullMatrix -->
<g id="node7" class="node"><title>topo.analysis.featureresponses.FullMatrix</title>
<polygon fill="none" stroke="black" stroke-width="0.5" points="464,-219.5 250,-219.5 250,-198.5 464,-198.5 464,-219.5"/>
<text text-anchor="middle" x="357" y="-206.5" font-family="Vera" font-size="10.00">topo.analysis.featureresponses.FullMatrix</text>
</g>
<!-- param.parameterized.Parameterized&#45;&gt;topo.analysis.featureresponses.FullMatrix -->
<g id="edge6" class="edge"><title>param.parameterized.Parameterized&#45;&gt;topo.analysis.featureresponses.FullMatrix</title>
<path fill="none" stroke="black" stroke-width="0.5" d="M116.253,-143.123C141.62,-156.018 187.951,-178.059 230,-190 241.071,-193.144 252.842,-195.793 264.58,-198.018"/>
<polygon fill="black" stroke="black" points="264.372,-199.759 269.607,-198.946 265.007,-196.317 264.372,-199.759"/>
</g>
<!-- topo.analysis.featureresponses.DistributionMatrix -->
<g id="node9" class="node"><title>topo.analysis.featureresponses.DistributionMatrix</title>
<polygon fill="none" stroke="black" stroke-width="0.5" points="484,-181.5 230,-181.5 230,-160.5 484,-160.5 484,-181.5"/>
<text text-anchor="middle" x="357" y="-168.5" font-family="Vera" font-size="10.00">topo.analysis.featureresponses.DistributionMatrix</text>
</g>
<!-- param.parameterized.Parameterized&#45;&gt;topo.analysis.featureresponses.DistributionMatrix -->
<g id="edge8" class="edge"><title>param.parameterized.Parameterized&#45;&gt;topo.analysis.featureresponses.DistributionMatrix</title>
<path fill="none" stroke="black" stroke-width="0.5" d="M165.652,-143.034C201.788,-148.315 246.13,-154.796 283.027,-160.189"/>
<polygon fill="black" stroke="black" points="283.214,-161.984 288.414,-160.976 283.72,-158.521 283.214,-161.984"/>
</g>
<!-- topo.base.functionfamily.PatternDrivenAnalysis -->
<g id="node14" class="node"><title>topo.base.functionfamily.PatternDrivenAnalysis</title>
<polygon fill="none" stroke="black" stroke-width="0.5" points="477,-143.5 237,-143.5 237,-122.5 477,-122.5 477,-143.5"/>
<text text-anchor="middle" x="357" y="-130.5" font-family="Vera" font-size="10.00">topo.base.functionfamily.PatternDrivenAnalysis</text>
</g>
<!-- param.parameterized.Parameterized&#45;&gt;topo.base.functionfamily.PatternDrivenAnalysis -->
<g id="edge32" class="edge"><title>param.parameterized.Parameterized&#45;&gt;topo.base.functionfamily.PatternDrivenAnalysis</title>
<path fill="none" stroke="black" stroke-width="0.5" d="M194.184,-133C206.408,-133 219.046,-133 231.627,-133"/>
<polygon fill="black" stroke="black" points="231.633,-134.75 236.633,-133 231.633,-131.25 231.633,-134.75"/>
</g>
<!-- param.parameterized.ParameterizedFunction -->
<g id="node20" class="node"><title>param.parameterized.ParameterizedFunction</title>
<polygon fill="none" stroke="black" stroke-width="0.5" points="474,-105.5 240,-105.5 240,-84.5 474,-84.5 474,-105.5"/>
<text text-anchor="middle" x="357" y="-92.5" font-family="Vera" font-size="10.00">param.parameterized.ParameterizedFunction</text>
</g>
<!-- param.parameterized.Parameterized&#45;&gt;param.parameterized.ParameterizedFunction -->
<g id="edge22" class="edge"><title>param.parameterized.Parameterized&#45;&gt;param.parameterized.ParameterizedFunction</title>
<path fill="none" stroke="black" stroke-width="0.5" d="M165.652,-122.966C201.788,-117.685 246.13,-111.204 283.027,-105.811"/>
<polygon fill="black" stroke="black" points="283.72,-107.479 288.414,-105.024 283.214,-104.016 283.72,-107.479"/>
</g>
<!-- topo.analysis.featureresponses.PatternPresenter -->
<g id="node30" class="node"><title>topo.analysis.featureresponses.PatternPresenter</title>
<polygon fill="none" stroke="black" stroke-width="0.5" points="482,-67.5 232,-67.5 232,-46.5 482,-46.5 482,-67.5"/>
<text text-anchor="middle" x="357" y="-54.5" font-family="Vera" font-size="10.00">topo.analysis.featureresponses.PatternPresenter</text>
</g>
<!-- param.parameterized.Parameterized&#45;&gt;topo.analysis.featureresponses.PatternPresenter -->
<g id="edge28" class="edge"><title>param.parameterized.Parameterized&#45;&gt;topo.analysis.featureresponses.PatternPresenter</title>
<path fill="none" stroke="black" stroke-width="0.5" d="M116.253,-122.877C141.62,-109.982 187.951,-87.9411 230,-76 241.071,-72.8559 252.842,-70.2072 264.58,-67.982"/>
<polygon fill="black" stroke="black" points="265.007,-69.6827 269.607,-67.054 264.372,-66.2409 265.007,-69.6827"/>
</g>
<!-- topo.analysis.featureresponses.Subplotting -->
<g id="node36" class="node"><title>topo.analysis.featureresponses.Subplotting</title>
<polygon fill="none" stroke="black" stroke-width="0.5" points="469,-29.5 245,-29.5 245,-8.5 469,-8.5 469,-29.5"/>
<text text-anchor="middle" x="357" y="-16.5" font-family="Vera" font-size="10.00">topo.analysis.featureresponses.Subplotting</text>
</g>
<!-- param.parameterized.Parameterized&#45;&gt;topo.analysis.featureresponses.Subplotting -->
<g id="edge36" class="edge"><title>param.parameterized.Parameterized&#45;&gt;topo.analysis.featureresponses.Subplotting</title>
<path fill="none" stroke="black" stroke-width="0.5" d="M107.318,-122.923C128.386,-103.009 178.705,-58.7487 230,-38 237.445,-34.9885 245.31,-32.4483 253.328,-30.3064"/>
<polygon fill="black" stroke="black" points="253.929,-31.9592 258.338,-29.0236 253.06,-28.5686 253.929,-31.9592"/>
</g>
<!-- topo.analysis.featureresponses.SingleInputResponseCommand -->
<g id="node18" class="node"><title>topo.analysis.featureresponses.SingleInputResponseCommand</title>
<polygon fill="none" stroke="black" stroke-width="0.5" points="1543,-96.5 1225,-96.5 1225,-75.5 1543,-75.5 1543,-96.5"/>
<text text-anchor="middle" x="1384" y="-83.5" font-family="Vera" font-size="10.00">topo.analysis.featureresponses.SingleInputResponseCommand</text>
</g>
<!-- topo.analysis.featureresponses.MeasureResponseCommand&#45;&gt;topo.analysis.featureresponses.SingleInputResponseCommand -->
<g id="edge16" class="edge"><title>topo.analysis.featureresponses.MeasureResponseCommand&#45;&gt;topo.analysis.featureresponses.SingleInputResponseCommand</title>
<path fill="none" stroke="black" stroke-width="0.5" d="M1113.17,-58.0338C1165.15,-63.4018 1229.14,-70.0088 1281.86,-75.4528"/>
<polygon fill="black" stroke="black" points="1281.77,-77.203 1286.93,-75.976 1282.13,-73.7215 1281.77,-77.203"/>
</g>
<!-- topo.analysis.featureresponses.PositionMeasurementCommand -->
<g id="node22" class="node"><title>topo.analysis.featureresponses.PositionMeasurementCommand</title>
<polygon fill="none" stroke="black" stroke-width="0.5" points="1546,-58.5 1222,-58.5 1222,-37.5 1546,-37.5 1546,-58.5"/>
<text text-anchor="middle" x="1384" y="-45.5" font-family="Vera" font-size="10.00">topo.analysis.featureresponses.PositionMeasurementCommand</text>
</g>
<!-- topo.analysis.featureresponses.MeasureResponseCommand&#45;&gt;topo.analysis.featureresponses.PositionMeasurementCommand -->
<g id="edge20" class="edge"><title>topo.analysis.featureresponses.MeasureResponseCommand&#45;&gt;topo.analysis.featureresponses.PositionMeasurementCommand</title>
<path fill="none" stroke="black" stroke-width="0.5" d="M1169.67,-48C1185.16,-48 1200.95,-48 1216.58,-48"/>
<polygon fill="black" stroke="black" points="1216.87,-49.7501 1221.87,-48 1216.87,-46.2501 1216.87,-49.7501"/>
</g>
<!-- topo.analysis.featureresponses.SinusoidalMeasureResponseCommand -->
<g id="node32" class="node"><title>topo.analysis.featureresponses.SinusoidalMeasureResponseCommand</title>
<polygon fill="none" stroke="black" stroke-width="0.5" points="1562,-20.5 1206,-20.5 1206,0.5 1562,0.5 1562,-20.5"/>
<text text-anchor="middle" x="1384" y="-7.5" font-family="Vera" font-size="10.00">topo.analysis.featureresponses.SinusoidalMeasureResponseCommand</text>
</g>
<!-- topo.analysis.featureresponses.MeasureResponseCommand&#45;&gt;topo.analysis.featureresponses.SinusoidalMeasureResponseCommand -->
<g id="edge34" class="edge"><title>topo.analysis.featureresponses.MeasureResponseCommand&#45;&gt;topo.analysis.featureresponses.SinusoidalMeasureResponseCommand</title>
<path fill="none" stroke="black" stroke-width="0.5" d="M1113.17,-37.9662C1165.15,-32.5982 1229.14,-25.9912 1281.86,-20.5472"/>
<polygon fill="black" stroke="black" points="1282.13,-22.2785 1286.93,-20.024 1281.77,-18.797 1282.13,-22.2785"/>
</g>
<!-- topo.analysis.featureresponses.FeatureResponses -->
<g id="node13" class="node"><title>topo.analysis.featureresponses.FeatureResponses</title>
<polygon fill="none" stroke="black" stroke-width="0.5" points="801,-153.5 545,-153.5 545,-132.5 801,-132.5 801,-153.5"/>
<text text-anchor="middle" x="673" y="-140.5" font-family="Vera" font-size="10.00">topo.analysis.featureresponses.FeatureResponses</text>
</g>
<!-- topo.analysis.featureresponses.FeatureMaps -->
<g id="node16" class="node"><title>topo.analysis.featureresponses.FeatureMaps</title>
<polygon fill="none" stroke="black" stroke-width="0.5" points="1131,-210.5 901,-210.5 901,-189.5 1131,-189.5 1131,-210.5"/>
<text text-anchor="middle" x="1016" y="-197.5" font-family="Vera" font-size="10.00">topo.analysis.featureresponses.FeatureMaps</text>
</g>
<!-- topo.analysis.featureresponses.FeatureResponses&#45;&gt;topo.analysis.featureresponses.FeatureMaps -->
<g id="edge14" class="edge"><title>topo.analysis.featureresponses.FeatureResponses&#45;&gt;topo.analysis.featureresponses.FeatureMaps</title>
<path fill="none" stroke="black" stroke-width="0.5" d="M717.887,-153.021C756.072,-161.306 812.442,-172.973 862,-181 880.716,-184.032 900.782,-186.832 920.04,-189.3"/>
<polygon fill="black" stroke="black" points="920.268,-191.093 925.448,-189.987 920.709,-187.621 920.268,-191.093"/>
</g>
<!-- topo.analysis.featureresponses.FeatureCurves -->
<g id="node25" class="node"><title>topo.analysis.featureresponses.FeatureCurves</title>
<polygon fill="none" stroke="black" stroke-width="0.5" points="1135,-172.5 897,-172.5 897,-151.5 1135,-151.5 1135,-172.5"/>
<text text-anchor="middle" x="1016" y="-159.5" font-family="Vera" font-size="10.00">topo.analysis.featureresponses.FeatureCurves</text>
</g>
<!-- topo.analysis.featureresponses.FeatureResponses&#45;&gt;topo.analysis.featureresponses.FeatureCurves -->
<g id="edge24" class="edge"><title>topo.analysis.featureresponses.FeatureResponses&#45;&gt;topo.analysis.featureresponses.FeatureCurves</title>
<path fill="none" stroke="black" stroke-width="0.5" d="M801.696,-150.129C831.077,-151.756 862.248,-153.483 891.451,-155.101"/>
<polygon fill="black" stroke="black" points="891.41,-156.851 896.499,-155.38 891.603,-153.356 891.41,-156.851"/>
</g>
<!-- topo.analysis.featureresponses.ReverseCorrelation -->
<g id="node38" class="node"><title>topo.analysis.featureresponses.ReverseCorrelation</title>
<polygon fill="none" stroke="black" stroke-width="0.5" points="1146,-134.5 886,-134.5 886,-113.5 1146,-113.5 1146,-134.5"/>
<text text-anchor="middle" x="1016" y="-121.5" font-family="Vera" font-size="10.00">topo.analysis.featureresponses.ReverseCorrelation</text>
</g>
<!-- topo.analysis.featureresponses.FeatureResponses&#45;&gt;topo.analysis.featureresponses.ReverseCorrelation -->
<g id="edge38" class="edge"><title>topo.analysis.featureresponses.FeatureResponses&#45;&gt;topo.analysis.featureresponses.ReverseCorrelation</title>
<path fill="none" stroke="black" stroke-width="0.5" d="M801.696,-135.871C827.448,-134.445 854.575,-132.942 880.547,-131.503"/>
<polygon fill="black" stroke="black" points="880.83,-133.24 885.726,-131.216 880.636,-129.746 880.83,-133.24"/>
</g>
<!-- topo.base.functionfamily.PatternDrivenAnalysis&#45;&gt;topo.analysis.featureresponses.FeatureResponses -->
<g id="edge12" class="edge"><title>topo.base.functionfamily.PatternDrivenAnalysis&#45;&gt;topo.analysis.featureresponses.FeatureResponses</title>
<path fill="none" stroke="black" stroke-width="0.5" d="M477.368,-136.809C497.547,-137.448 518.595,-138.114 539.09,-138.762"/>
<polygon fill="black" stroke="black" points="539.235,-140.518 544.288,-138.927 539.346,-137.019 539.235,-140.518"/>
</g>
<!-- param.parameterized.ParameterizedFunction&#45;&gt;topo.analysis.featureresponses.PatternPresentingCommand -->
<g id="edge18" class="edge"><title>param.parameterized.ParameterizedFunction&#45;&gt;topo.analysis.featureresponses.PatternPresentingCommand</title>
<path fill="none" stroke="black" stroke-width="0.5" d="M474.218,-91.6615C487.593,-91.2806 501.386,-90.8877 515.178,-90.4949"/>
<polygon fill="black" stroke="black" points="515.311,-92.242 520.259,-90.3502 515.211,-88.7434 515.311,-92.242"/>
</g>
<!-- topo.analysis.featureresponses.UnitCurveCommand -->
<g id="node27" class="node"><title>topo.analysis.featureresponses.UnitCurveCommand</title>
<polygon fill="none" stroke="black" stroke-width="0.5" points="2185,-20.5 1919,-20.5 1919,0.5 2185,0.5 2185,-20.5"/>
<text text-anchor="middle" x="2052" y="-7.5" font-family="Vera" font-size="10.00">topo.analysis.featureresponses.UnitCurveCommand</text>
</g>
<!-- topo.analysis.featureresponses.FeatureCurveCommand -->
<g id="node28" class="node"><title>topo.analysis.featureresponses.FeatureCurveCommand</title>
<polygon fill="none" stroke="black" stroke-width="0.5" points="1882,-20.5 1598,-20.5 1598,0.5 1882,0.5 1882,-20.5"/>
<text text-anchor="middle" x="1740" y="-7.5" font-family="Vera" font-size="10.00">topo.analysis.featureresponses.FeatureCurveCommand</text>
</g>
<!-- topo.analysis.featureresponses.FeatureCurveCommand&#45;&gt;topo.analysis.featureresponses.UnitCurveCommand -->
<g id="edge26" class="edge"><title>topo.analysis.featureresponses.FeatureCurveCommand&#45;&gt;topo.analysis.featureresponses.UnitCurveCommand</title>
<path fill="none" stroke="black" stroke-width="0.5" d="M1882.3,-10C1892.43,-10 1902.64,-10 1912.75,-10"/>
<polygon fill="black" stroke="black" points="1913.03,-11.7501 1918.03,-10 1913.03,-8.25009 1913.03,-11.7501"/>
</g>
<!-- topo.analysis.featureresponses.SinusoidalMeasureResponseCommand&#45;&gt;topo.analysis.featureresponses.FeatureCurveCommand -->
<g id="edge30" class="edge"><title>topo.analysis.featureresponses.SinusoidalMeasureResponseCommand&#45;&gt;topo.analysis.featureresponses.FeatureCurveCommand</title>
<path fill="none" stroke="black" stroke-width="0.5" d="M1562,-10C1572.21,-10 1582.43,-10 1592.51,-10"/>
<polygon fill="black" stroke="black" points="1592.76,-11.7501 1597.76,-10 1592.76,-8.2501 1592.76,-11.7501"/>
</g>
</g>
</svg>
