<?xml version="1.0" encoding="UTF-8" standalone="no"?>
<!DOCTYPE svg PUBLIC "-//W3C//DTD SVG 1.1//EN"
 "http://www.w3.org/Graphics/SVG/1.1/DTD/svg11.dtd">
<!-- Generated by graphviz version 2.26.3 (20100126.1600)
 -->
<!-- Title: inheritancefc96a479df Pages: 1 -->
<svg width="812pt" height="332pt"
 viewBox="0.00 0.00 812.00 332.00" xmlns="http://www.w3.org/2000/svg" xmlns:xlink="http://www.w3.org/1999/xlink">
<g id="graph1" class="graph" transform="scale(1 1) rotate(0) translate(4 328)">
<title>inheritancefc96a479df</title>
<polygon fill="white" stroke="white" points="-4,5 -4,-328 809,-328 809,5 -4,5"/>
<!-- lancet.core.ListArgs -->
<g id="node1" class="node"><title>lancet.core.ListArgs</title>
<polygon fill="none" stroke="black" stroke-width="0.5" points="767,-324.5 657,-324.5 657,-303.5 767,-303.5 767,-324.5"/>
<text text-anchor="middle" x="712" y="-311.5" font-family="Vera" font-size="10.00">lancet.core.ListArgs</text>
</g>
<!-- lancet.core.StaticArgs -->
<g id="node2" class="node"><title>lancet.core.StaticArgs</title>
<polygon fill="none" stroke="black" stroke-width="0.5" points="546,-172.5 424,-172.5 424,-151.5 546,-151.5 546,-172.5"/>
<text text-anchor="middle" x="485" y="-159.5" font-family="Vera" font-size="10.00">lancet.core.StaticArgs</text>
</g>
<!-- lancet.core.StaticArgs&#45;&gt;lancet.core.ListArgs -->
<g id="edge2" class="edge"><title>lancet.core.StaticArgs&#45;&gt;lancet.core.ListArgs</title>
<path fill="none" stroke="black" stroke-width="0.5" d="M492.12,-172.318C510.226,-197.692 560.805,-263.365 620,-295 629.605,-300.133 640.458,-303.881 651.255,-306.617"/>
<polygon fill="black" stroke="black" points="650.937,-308.34 656.208,-307.804 651.753,-304.937 650.937,-308.34"/>
</g>
<!-- lancet.core.Args -->
<g id="node4" class="node"><title>lancet.core.Args</title>
<polygon fill="none" stroke="black" stroke-width="0.5" points="759,-286.5 665,-286.5 665,-265.5 759,-265.5 759,-286.5"/>
<text text-anchor="middle" x="712" y="-273.5" font-family="Vera" font-size="10.00">lancet.core.Args</text>
</g>
<!-- lancet.core.StaticArgs&#45;&gt;lancet.core.Args -->
<g id="edge4" class="edge"><title>lancet.core.StaticArgs&#45;&gt;lancet.core.Args</title>
<path fill="none" stroke="black" stroke-width="0.5" d="M495.941,-172.132C517.757,-191.747 568.975,-234.918 620,-257 632.157,-262.261 645.86,-266.096 658.905,-268.881"/>
<polygon fill="black" stroke="black" points="658.81,-270.648 664.059,-269.935 659.512,-267.219 658.81,-270.648"/>
</g>
<!-- lancet.core.Indexed -->
<g id="node8" class="node"><title>lancet.core.Indexed</title>
<polygon fill="none" stroke="black" stroke-width="0.5" points="767,-248.5 657,-248.5 657,-227.5 767,-227.5 767,-248.5"/>
<text text-anchor="middle" x="712" y="-235.5" font-family="Vera" font-size="10.00">lancet.core.Indexed</text>
</g>
<!-- lancet.core.StaticArgs&#45;&gt;lancet.core.Indexed -->
<g id="edge8" class="edge"><title>lancet.core.StaticArgs&#45;&gt;lancet.core.Indexed</title>
<path fill="none" stroke="black" stroke-width="0.5" d="M505.57,-172.185C531.638,-184.739 578.216,-206.002 620,-219 630.037,-222.122 640.852,-224.877 651.417,-227.251"/>
<polygon fill="black" stroke="black" points="651.319,-229.021 656.579,-228.386 652.071,-225.603 651.319,-229.021"/>
</g>
<!-- lancet.core.LexSorted -->
<g id="node14" class="node"><title>lancet.core.LexSorted</title>
<polygon fill="none" stroke="black" stroke-width="0.5" points="773,-210.5 651,-210.5 651,-189.5 773,-189.5 773,-210.5"/>
<text text-anchor="middle" x="712" y="-197.5" font-family="Vera" font-size="10.00">lancet.core.LexSorted</text>
</g>
<!-- lancet.core.StaticArgs&#45;&gt;lancet.core.LexSorted -->
<g id="edge14" class="edge"><title>lancet.core.StaticArgs&#45;&gt;lancet.core.LexSorted</title>
<path fill="none" stroke="black" stroke-width="0.5" d="M544.939,-172.034C576.359,-177.294 614.885,-183.743 647.019,-189.122"/>
<polygon fill="black" stroke="black" points="646.899,-190.876 652.12,-189.976 647.477,-187.424 646.899,-190.876"/>
</g>
<!-- lancet.core.StaticConcatenate -->
<g id="node16" class="node"><title>lancet.core.StaticConcatenate</title>
<polygon fill="none" stroke="black" stroke-width="0.5" points="793,-172.5 631,-172.5 631,-151.5 793,-151.5 793,-172.5"/>
<text text-anchor="middle" x="712" y="-159.5" font-family="Vera" font-size="10.00">lancet.core.StaticConcatenate</text>
</g>
<!-- lancet.core.StaticArgs&#45;&gt;lancet.core.StaticConcatenate -->
<g id="edge16" class="edge"><title>lancet.core.StaticArgs&#45;&gt;lancet.core.StaticConcatenate</title>
<path fill="none" stroke="black" stroke-width="0.5" d="M546.13,-162C570.506,-162 599.009,-162 625.443,-162"/>
<polygon fill="black" stroke="black" points="625.7,-163.75 630.7,-162 625.7,-160.25 625.7,-163.75"/>
</g>
<!-- lancet.core.FilePattern -->
<g id="node18" class="node"><title>lancet.core.FilePattern</title>
<polygon fill="none" stroke="black" stroke-width="0.5" points="773,-134.5 651,-134.5 651,-113.5 773,-113.5 773,-134.5"/>
<text text-anchor="middle" x="712" y="-121.5" font-family="Vera" font-size="10.00">lancet.core.FilePattern</text>
</g>
<!-- lancet.core.StaticArgs&#45;&gt;lancet.core.FilePattern -->
<g id="edge18" class="edge"><title>lancet.core.StaticArgs&#45;&gt;lancet.core.FilePattern</title>
<path fill="none" stroke="black" stroke-width="0.5" d="M544.939,-151.966C576.359,-146.706 614.885,-140.257 647.019,-134.878"/>
<polygon fill="black" stroke="black" points="647.477,-136.576 652.12,-134.024 646.899,-133.124 647.477,-136.576"/>
</g>
<!-- lancet.core.StaticCartesianProduct -->
<g id="node22" class="node"><title>lancet.core.StaticCartesianProduct</title>
<polygon fill="none" stroke="black" stroke-width="0.5" points="803,-96.5 621,-96.5 621,-75.5 803,-75.5 803,-96.5"/>
<text text-anchor="middle" x="712" y="-83.5" font-family="Vera" font-size="10.00">lancet.core.StaticCartesianProduct</text>
</g>
<!-- lancet.core.StaticArgs&#45;&gt;lancet.core.StaticCartesianProduct -->
<g id="edge22" class="edge"><title>lancet.core.StaticArgs&#45;&gt;lancet.core.StaticCartesianProduct</title>
<path fill="none" stroke="black" stroke-width="0.5" d="M546.222,-156.392C559.223,-153.546 572.487,-149.305 584,-143 604.405,-131.826 599.674,-116.317 620,-105 625.121,-102.149 630.617,-99.7236 636.282,-97.6611"/>
<polygon fill="black" stroke="black" points="636.917,-99.2935 641.076,-96.0125 635.779,-95.9837 636.917,-99.2935"/>
</g>
<!-- lancet.core.Log -->
<g id="node26" class="node"><title>lancet.core.Log</title>
<polygon fill="none" stroke="black" stroke-width="0.5" points="757,-58.5 667,-58.5 667,-37.5 757,-37.5 757,-58.5"/>
<text text-anchor="middle" x="712" y="-45.5" font-family="Vera" font-size="10.00">lancet.core.Log</text>
</g>
<!-- lancet.core.StaticArgs&#45;&gt;lancet.core.Log -->
<g id="edge26" class="edge"><title>lancet.core.StaticArgs&#45;&gt;lancet.core.Log</title>
<path fill="none" stroke="black" stroke-width="0.5" d="M546.118,-159.397C559.629,-156.452 573.138,-151.413 584,-143 613.549,-120.113 590.612,-90.0936 620,-67 631.867,-57.6747 647.176,-52.6085 661.888,-49.9408"/>
<polygon fill="black" stroke="black" points="662.199,-51.6633 666.849,-49.1254 661.631,-48.2097 662.199,-51.6633"/>
</g>
<!-- lancet.core.LinearArgs -->
<g id="node28" class="node"><title>lancet.core.LinearArgs</title>
<polygon fill="none" stroke="black" stroke-width="0.5" points="774,-20.5 650,-20.5 650,0.5 774,0.5 774,-20.5"/>
<text text-anchor="middle" x="712" y="-7.5" font-family="Vera" font-size="10.00">lancet.core.LinearArgs</text>
</g>
<!-- lancet.core.StaticArgs&#45;&gt;lancet.core.LinearArgs -->
<g id="edge28" class="edge"><title>lancet.core.StaticArgs&#45;&gt;lancet.core.LinearArgs</title>
<path fill="none" stroke="black" stroke-width="0.5" d="M546.209,-160.606C559.951,-157.654 573.541,-152.308 584,-143 623.69,-107.676 580.559,-64.6022 620,-29 627.114,-22.5788 635.808,-18.1044 644.984,-15.0212"/>
<polygon fill="black" stroke="black" points="645.556,-16.6762 649.82,-13.5328 644.526,-13.3311 645.556,-16.6762"/>
</g>
<!-- lancet.core.BaseArgs -->
<g id="node6" class="node"><title>lancet.core.BaseArgs</title>
<polygon fill="none" stroke="black" stroke-width="0.5" points="349,-134.5 231,-134.5 231,-113.5 349,-113.5 349,-134.5"/>
<text text-anchor="middle" x="290" y="-121.5" font-family="Vera" font-size="10.00">lancet.core.BaseArgs</text>
</g>
<!-- lancet.core.BaseArgs&#45;&gt;lancet.core.StaticArgs -->
<g id="edge6" class="edge"><title>lancet.core.BaseArgs&#45;&gt;lancet.core.StaticArgs</title>
<path fill="none" stroke="black" stroke-width="0.5" d="M340.311,-134.014C355.033,-136.929 371.158,-140.107 386,-143 399.463,-145.624 413.962,-148.422 427.6,-151.042"/>
<polygon fill="black" stroke="black" points="427.342,-152.775 432.583,-151.999 428.002,-149.337 427.342,-152.775"/>
</g>
<!-- lancet.core.DynamicCartesianProduct -->
<g id="node12" class="node"><title>lancet.core.DynamicCartesianProduct</title>
<polygon fill="none" stroke="black" stroke-width="0.5" points="583,-134.5 387,-134.5 387,-113.5 583,-113.5 583,-134.5"/>
<text text-anchor="middle" x="485" y="-121.5" font-family="Vera" font-size="10.00">lancet.core.DynamicCartesianProduct</text>
</g>
<!-- lancet.core.BaseArgs&#45;&gt;lancet.core.DynamicCartesianProduct -->
<g id="edge12" class="edge"><title>lancet.core.BaseArgs&#45;&gt;lancet.core.DynamicCartesianProduct</title>
<path fill="none" stroke="black" stroke-width="0.5" d="M349.566,-124C359.576,-124 370.219,-124 380.967,-124"/>
<polygon fill="black" stroke="black" points="381.25,-125.75 386.25,-124 381.25,-122.25 381.25,-125.75"/>
</g>
<!-- lancet.core.DynamicConcatenate -->
<g id="node24" class="node"><title>lancet.core.DynamicConcatenate</title>
<polygon fill="none" stroke="black" stroke-width="0.5" points="573,-96.5 397,-96.5 397,-75.5 573,-75.5 573,-96.5"/>
<text text-anchor="middle" x="485" y="-83.5" font-family="Vera" font-size="10.00">lancet.core.DynamicConcatenate</text>
</g>
<!-- lancet.core.BaseArgs&#45;&gt;lancet.core.DynamicConcatenate -->
<g id="edge24" class="edge"><title>lancet.core.BaseArgs&#45;&gt;lancet.core.DynamicConcatenate</title>
<path fill="none" stroke="black" stroke-width="0.5" d="M340.311,-113.986C355.033,-111.071 371.158,-107.893 386,-105 399.463,-102.376 413.962,-99.5776 427.6,-96.9578"/>
<polygon fill="black" stroke="black" points="428.002,-98.6627 432.583,-96.0014 427.342,-95.2255 428.002,-98.6627"/>
</g>
<!-- param.parameterized.Parameterized -->
<g id="node10" class="node"><title>param.parameterized.Parameterized</title>
<polygon fill="none" stroke="black" stroke-width="0.5" points="194,-115.5 5.68434e-14,-115.5 0,-94.5 194,-94.5 194,-115.5"/>
<text text-anchor="middle" x="97" y="-102.5" font-family="Vera" font-size="10.00">param.parameterized.Parameterized</text>
</g>
<!-- param.parameterized.Parameterized&#45;&gt;lancet.core.BaseArgs -->
<g id="edge10" class="edge"><title>param.parameterized.Parameterized&#45;&gt;lancet.core.BaseArgs</title>
<path fill="none" stroke="black" stroke-width="0.5" d="M194.065,-114.556C204.617,-115.594 215.159,-116.632 225.188,-117.62"/>
<polygon fill="black" stroke="black" points="225.236,-119.383 230.383,-118.131 225.579,-115.899 225.236,-119.383"/>
</g>
<!-- lancet.core.applying -->
<g id="node20" class="node"><title>lancet.core.applying</title>
<polygon fill="none" stroke="black" stroke-width="0.5" points="346,-96.5 234,-96.5 234,-75.5 346,-75.5 346,-96.5"/>
<text text-anchor="middle" x="290" y="-83.5" font-family="Vera" font-size="10.00">lancet.core.applying</text>
</g>
<!-- param.parameterized.Parameterized&#45;&gt;lancet.core.applying -->
<g id="edge20" class="edge"><title>param.parameterized.Parameterized&#45;&gt;lancet.core.applying</title>
<path fill="none" stroke="black" stroke-width="0.5" d="M194.065,-95.4443C205.706,-94.2984 217.335,-93.1535 228.276,-92.0764"/>
<polygon fill="black" stroke="black" points="228.448,-93.8181 233.252,-91.5866 228.105,-90.3349 228.448,-93.8181"/>
</g>
</g>
</svg>
