<?xml version="1.0" encoding="UTF-8" standalone="no"?>
<!DOCTYPE svg PUBLIC "-//W3C//DTD SVG 1.1//EN"
 "http://www.w3.org/Graphics/SVG/1.1/DTD/svg11.dtd">
<!-- Generated by graphviz version 2.26.3 (20100126.1600)
 -->
<!-- Title: inheritance0bce68b9cf Pages: 1 -->
<svg width="1872pt" height="541pt"
 viewBox="0.00 0.00 1872.00 541.00" xmlns="http://www.w3.org/2000/svg" xmlns:xlink="http://www.w3.org/1999/xlink">
<g id="graph1" class="graph" transform="scale(1 1) rotate(0) translate(4 537)">
<title>inheritance0bce68b9cf</title>
<polygon fill="white" stroke="white" points="-4,5 -4,-537 1869,-537 1869,5 -4,5"/>
<!-- topo.command.analysis.log_frequency_mapper -->
<g id="node1" class="node"><title>topo.command.analysis.log_frequency_mapper</title>
<polygon fill="none" stroke="black" stroke-width="0.5" points="783,-533.5 539,-533.5 539,-512.5 783,-512.5 783,-533.5"/>
<text text-anchor="middle" x="661" y="-520.5" font-family="Vera" font-size="10.00">topo.command.analysis.log_frequency_mapper</text>
</g>
<!-- imagen.patterngenerator.PatternGenerator -->
<g id="node2" class="node"><title>imagen.patterngenerator.PatternGenerator</title>
<polygon fill="none" stroke="black" stroke-width="0.5" points="459,-476.5 235,-476.5 235,-455.5 459,-455.5 459,-476.5"/>
<text text-anchor="middle" x="347" y="-463.5" font-family="Vera" font-size="10.00">imagen.patterngenerator.PatternGenerator</text>
</g>
<!-- imagen.patterngenerator.PatternGenerator&#45;&gt;topo.command.analysis.log_frequency_mapper -->
<g id="edge2" class="edge"><title>imagen.patterngenerator.PatternGenerator&#45;&gt;topo.command.analysis.log_frequency_mapper</title>
<path fill="none" stroke="black" stroke-width="0.5" d="M381.973,-476.022C412.809,-484.537 459.074,-496.533 500,-504 517.463,-507.186 536.094,-509.955 554.257,-512.32"/>
<polygon fill="black" stroke="black" points="554.184,-514.075 559.366,-512.976 554.63,-510.603 554.184,-514.075"/>
</g>
<!-- topo.command.analysis.latency_mapper -->
<g id="node25" class="node"><title>topo.command.analysis.latency_mapper</title>
<polygon fill="none" stroke="black" stroke-width="0.5" points="767,-495.5 555,-495.5 555,-474.5 767,-474.5 767,-495.5"/>
<text text-anchor="middle" x="661" y="-482.5" font-family="Vera" font-size="10.00">topo.command.analysis.latency_mapper</text>
</g>
<!-- imagen.patterngenerator.PatternGenerator&#45;&gt;topo.command.analysis.latency_mapper -->
<g id="edge22" class="edge"><title>imagen.patterngenerator.PatternGenerator&#45;&gt;topo.command.analysis.latency_mapper</title>
<path fill="none" stroke="black" stroke-width="0.5" d="M459.031,-472.779C488.501,-474.562 520.279,-476.485 549.709,-478.266"/>
<polygon fill="black" stroke="black" points="549.696,-480.018 554.792,-478.573 549.907,-476.525 549.696,-480.018"/>
</g>
<!-- topo.command.analysis.frequency_mapper -->
<g id="node52" class="node"><title>topo.command.analysis.frequency_mapper</title>
<polygon fill="none" stroke="black" stroke-width="0.5" points="773,-457.5 549,-457.5 549,-436.5 773,-436.5 773,-457.5"/>
<text text-anchor="middle" x="661" y="-444.5" font-family="Vera" font-size="10.00">topo.command.analysis.frequency_mapper</text>
</g>
<!-- imagen.patterngenerator.PatternGenerator&#45;&gt;topo.command.analysis.frequency_mapper -->
<g id="edge48" class="edge"><title>imagen.patterngenerator.PatternGenerator&#45;&gt;topo.command.analysis.frequency_mapper</title>
<path fill="none" stroke="black" stroke-width="0.5" d="M459.031,-459.221C486.472,-457.561 515.915,-455.779 543.6,-454.104"/>
<polygon fill="black" stroke="black" points="543.862,-455.841 548.748,-453.792 543.651,-452.348 543.862,-455.841"/>
</g>
<!-- topo.command.analysis.measure_second_or_pref -->
<g id="node4" class="node"><title>topo.command.analysis.measure_second_or_pref</title>
<polygon fill="none" stroke="black" stroke-width="0.5" points="1857,-438.5 1601,-438.5 1601,-417.5 1857,-417.5 1857,-438.5"/>
<text text-anchor="middle" x="1729" y="-425.5" font-family="Vera" font-size="10.00">topo.command.analysis.measure_second_or_pref</text>
</g>
<!-- topo.analysis.featureresponses.SinusoidalMeasureResponseCommand -->
<g id="node5" class="node"><title>topo.analysis.featureresponses.SinusoidalMeasureResponseCommand</title>
<polygon fill="none" stroke="black" stroke-width="0.5" points="1558,-286.5 1202,-286.5 1202,-265.5 1558,-265.5 1558,-286.5"/>
<text text-anchor="middle" x="1380" y="-273.5" font-family="Vera" font-size="10.00">topo.analysis.featureresponses.SinusoidalMeasureResponseCommand</text>
</g>
<!-- topo.analysis.featureresponses.SinusoidalMeasureResponseCommand&#45;&gt;topo.command.analysis.measure_second_or_pref -->
<g id="edge4" class="edge"><title>topo.analysis.featureresponses.SinusoidalMeasureResponseCommand&#45;&gt;topo.command.analysis.measure_second_or_pref</title>
<path fill="none" stroke="black" stroke-width="0.5" d="M1545.06,-286.013C1549.58,-288.67 1553.91,-291.655 1558,-295 1599.13,-328.642 1553.44,-374.675 1594,-409 1596.61,-411.208 1599.35,-413.227 1602.21,-415.071"/>
<polygon fill="black" stroke="black" points="1601.6,-416.746 1606.78,-417.829 1603.4,-413.749 1601.6,-416.746"/>
</g>
<!-- topo.command.analysis.measure_phasedisparity -->
<g id="node11" class="node"><title>topo.command.analysis.measure_phasedisparity</title>
<polygon fill="none" stroke="black" stroke-width="0.5" points="1855,-400.5 1603,-400.5 1603,-379.5 1855,-379.5 1855,-400.5"/>
<text text-anchor="middle" x="1729" y="-387.5" font-family="Vera" font-size="10.00">topo.command.analysis.measure_phasedisparity</text>
</g>
<!-- topo.analysis.featureresponses.SinusoidalMeasureResponseCommand&#45;&gt;topo.command.analysis.measure_phasedisparity -->
<g id="edge8" class="edge"><title>topo.analysis.featureresponses.SinusoidalMeasureResponseCommand&#45;&gt;topo.command.analysis.measure_phasedisparity</title>
<path fill="none" stroke="black" stroke-width="0.5" d="M1543.24,-286.123C1548.37,-288.725 1553.31,-291.672 1558,-295 1588.48,-316.637 1563.89,-348.856 1594,-371 1597.21,-373.362 1600.59,-375.495 1604.09,-377.42"/>
<polygon fill="black" stroke="black" points="1603.69,-379.183 1608.93,-379.917 1605.29,-376.072 1603.69,-379.183"/>
</g>
<!-- topo.command.analysis.measure_dr_pref -->
<g id="node21" class="node"><title>topo.command.analysis.measure_dr_pref</title>
<polygon fill="none" stroke="black" stroke-width="0.5" points="1837,-362.5 1621,-362.5 1621,-341.5 1837,-341.5 1837,-362.5"/>
<text text-anchor="middle" x="1729" y="-349.5" font-family="Vera" font-size="10.00">topo.command.analysis.measure_dr_pref</text>
</g>
<!-- topo.analysis.featureresponses.SinusoidalMeasureResponseCommand&#45;&gt;topo.command.analysis.measure_dr_pref -->
<g id="edge18" class="edge"><title>topo.analysis.featureresponses.SinusoidalMeasureResponseCommand&#45;&gt;topo.command.analysis.measure_dr_pref</title>
<path fill="none" stroke="black" stroke-width="0.5" d="M1536.23,-286.077C1543.73,-288.602 1551.04,-291.555 1558,-295 1578.85,-305.315 1573.32,-322.337 1594,-333 1600.97,-336.593 1608.39,-339.575 1616.04,-342.043"/>
<polygon fill="black" stroke="black" points="1615.54,-343.718 1620.83,-343.514 1616.56,-340.373 1615.54,-343.718"/>
</g>
<!-- topo.command.analysis.measure_or_pref -->
<g id="node23" class="node"><title>topo.command.analysis.measure_or_pref</title>
<polygon fill="none" stroke="black" stroke-width="0.5" points="1837,-324.5 1621,-324.5 1621,-303.5 1837,-303.5 1837,-324.5"/>
<text text-anchor="middle" x="1729" y="-311.5" font-family="Vera" font-size="10.00">topo.command.analysis.measure_or_pref</text>
</g>
<!-- topo.analysis.featureresponses.SinusoidalMeasureResponseCommand&#45;&gt;topo.command.analysis.measure_or_pref -->
<g id="edge20" class="edge"><title>topo.analysis.featureresponses.SinusoidalMeasureResponseCommand&#45;&gt;topo.command.analysis.measure_or_pref</title>
<path fill="none" stroke="black" stroke-width="0.5" d="M1474.7,-286.031C1501.62,-288.904 1530.97,-292.055 1558,-295 1582.67,-297.688 1609.34,-300.632 1634.12,-303.384"/>
<polygon fill="black" stroke="black" points="1634.21,-305.155 1639.37,-303.968 1634.6,-301.676 1634.21,-305.155"/>
</g>
<!-- topo.command.analysis.measure_sine_pref -->
<g id="node33" class="node"><title>topo.command.analysis.measure_sine_pref</title>
<polygon fill="none" stroke="black" stroke-width="0.5" points="1842,-286.5 1616,-286.5 1616,-265.5 1842,-265.5 1842,-286.5"/>
<text text-anchor="middle" x="1729" y="-273.5" font-family="Vera" font-size="10.00">topo.command.analysis.measure_sine_pref</text>
</g>
<!-- topo.analysis.featureresponses.SinusoidalMeasureResponseCommand&#45;&gt;topo.command.analysis.measure_sine_pref -->
<g id="edge30" class="edge"><title>topo.analysis.featureresponses.SinusoidalMeasureResponseCommand&#45;&gt;topo.command.analysis.measure_sine_pref</title>
<path fill="none" stroke="black" stroke-width="0.5" d="M1558.08,-276C1575.9,-276 1593.67,-276 1610.64,-276"/>
<polygon fill="black" stroke="black" points="1610.88,-277.75 1615.88,-276 1610.88,-274.25 1610.88,-277.75"/>
</g>
<!-- topo.command.analysis.measure_od_pref -->
<g id="node35" class="node"><title>topo.command.analysis.measure_od_pref</title>
<polygon fill="none" stroke="black" stroke-width="0.5" points="1838,-248.5 1620,-248.5 1620,-227.5 1838,-227.5 1838,-248.5"/>
<text text-anchor="middle" x="1729" y="-235.5" font-family="Vera" font-size="10.00">topo.command.analysis.measure_od_pref</text>
</g>
<!-- topo.analysis.featureresponses.SinusoidalMeasureResponseCommand&#45;&gt;topo.command.analysis.measure_od_pref -->
<g id="edge32" class="edge"><title>topo.analysis.featureresponses.SinusoidalMeasureResponseCommand&#45;&gt;topo.command.analysis.measure_od_pref</title>
<path fill="none" stroke="black" stroke-width="0.5" d="M1472.15,-265.966C1521.35,-260.609 1581.89,-254.018 1631.83,-248.58"/>
<polygon fill="black" stroke="black" points="1632.16,-250.305 1636.94,-248.024 1631.78,-246.826 1632.16,-250.305"/>
</g>
<!-- topo.command.analysis.measure_hue_pref -->
<g id="node63" class="node"><title>topo.command.analysis.measure_hue_pref</title>
<polygon fill="none" stroke="black" stroke-width="0.5" points="1841,-210.5 1617,-210.5 1617,-189.5 1841,-189.5 1841,-210.5"/>
<text text-anchor="middle" x="1729" y="-197.5" font-family="Vera" font-size="10.00">topo.command.analysis.measure_hue_pref</text>
</g>
<!-- topo.analysis.featureresponses.SinusoidalMeasureResponseCommand&#45;&gt;topo.command.analysis.measure_hue_pref -->
<g id="edge62" class="edge"><title>topo.analysis.featureresponses.SinusoidalMeasureResponseCommand&#45;&gt;topo.command.analysis.measure_hue_pref</title>
<path fill="none" stroke="black" stroke-width="0.5" d="M1412.7,-265.97C1454.43,-253.479 1529,-232.181 1594,-219 1609.11,-215.936 1625.27,-213.201 1640.97,-210.827"/>
<polygon fill="black" stroke="black" points="1641.59,-212.504 1646.27,-210.035 1641.07,-209.042 1641.59,-212.504"/>
</g>
<!-- topo.command.analysis.measure_corner_angle_pref -->
<g id="node7" class="node"><title>topo.command.analysis.measure_corner_angle_pref</title>
<polygon fill="none" stroke="black" stroke-width="0.5" points="1863,-172.5 1595,-172.5 1595,-151.5 1863,-151.5 1863,-172.5"/>
<text text-anchor="middle" x="1729" y="-159.5" font-family="Vera" font-size="10.00">topo.command.analysis.measure_corner_angle_pref</text>
</g>
<!-- topo.analysis.featureresponses.PositionMeasurementCommand -->
<g id="node8" class="node"><title>topo.analysis.featureresponses.PositionMeasurementCommand</title>
<polygon fill="none" stroke="black" stroke-width="0.5" points="1542,-172.5 1218,-172.5 1218,-151.5 1542,-151.5 1542,-172.5"/>
<text text-anchor="middle" x="1380" y="-159.5" font-family="Vera" font-size="10.00">topo.analysis.featureresponses.PositionMeasurementCommand</text>
</g>
<!-- topo.analysis.featureresponses.PositionMeasurementCommand&#45;&gt;topo.command.analysis.measure_corner_angle_pref -->
<g id="edge6" class="edge"><title>topo.analysis.featureresponses.PositionMeasurementCommand&#45;&gt;topo.command.analysis.measure_corner_angle_pref</title>
<path fill="none" stroke="black" stroke-width="0.5" d="M1542.24,-162C1557.91,-162 1573.72,-162 1589.15,-162"/>
<polygon fill="black" stroke="black" points="1589.36,-163.75 1594.36,-162 1589.36,-160.25 1589.36,-163.75"/>
</g>
<!-- topo.command.analysis.measure_corner_or_pref -->
<g id="node60" class="node"><title>topo.command.analysis.measure_corner_or_pref</title>
<polygon fill="none" stroke="black" stroke-width="0.5" points="1855,-134.5 1603,-134.5 1603,-113.5 1855,-113.5 1855,-134.5"/>
<text text-anchor="middle" x="1729" y="-121.5" font-family="Vera" font-size="10.00">topo.command.analysis.measure_corner_or_pref</text>
</g>
<!-- topo.analysis.featureresponses.PositionMeasurementCommand&#45;&gt;topo.command.analysis.measure_corner_or_pref -->
<g id="edge58" class="edge"><title>topo.analysis.featureresponses.PositionMeasurementCommand&#45;&gt;topo.command.analysis.measure_corner_or_pref</title>
<path fill="none" stroke="black" stroke-width="0.5" d="M1474.7,-151.969C1501.62,-149.096 1530.97,-145.945 1558,-143 1582.67,-140.312 1609.34,-137.368 1634.12,-134.616"/>
<polygon fill="black" stroke="black" points="1634.6,-136.324 1639.37,-134.032 1634.21,-132.845 1634.6,-136.324"/>
</g>
<!-- param.parameterized.Parameterized -->
<g id="node10" class="node"><title>param.parameterized.Parameterized</title>
<polygon fill="none" stroke="black" stroke-width="0.5" points="194,-381.5 5.68434e-14,-381.5 0,-360.5 194,-360.5 194,-381.5"/>
<text text-anchor="middle" x="97" y="-368.5" font-family="Vera" font-size="10.00">param.parameterized.Parameterized</text>
</g>
<!-- param.parameterized.Parameterized&#45;&gt;imagen.patterngenerator.PatternGenerator -->
<g id="edge38" class="edge"><title>param.parameterized.Parameterized&#45;&gt;imagen.patterngenerator.PatternGenerator</title>
<path fill="none" stroke="black" stroke-width="0.5" d="M123.754,-381.167C170.275,-398.844 265.838,-435.159 315.489,-454.026"/>
<polygon fill="black" stroke="black" points="315.142,-455.766 320.438,-455.906 316.386,-452.494 315.142,-455.766"/>
</g>
<!-- param.parameterized.ParameterizedFunction -->
<g id="node13" class="node"><title>param.parameterized.ParameterizedFunction</title>
<polygon fill="none" stroke="black" stroke-width="0.5" points="464,-381.5 230,-381.5 230,-360.5 464,-360.5 464,-381.5"/>
<text text-anchor="middle" x="347" y="-368.5" font-family="Vera" font-size="10.00">param.parameterized.ParameterizedFunction</text>
</g>
<!-- param.parameterized.Parameterized&#45;&gt;param.parameterized.ParameterizedFunction -->
<g id="edge10" class="edge"><title>param.parameterized.Parameterized&#45;&gt;param.parameterized.ParameterizedFunction</title>
<path fill="none" stroke="black" stroke-width="0.5" d="M194.014,-371C204.04,-371 214.319,-371 224.575,-371"/>
<polygon fill="black" stroke="black" points="224.607,-372.75 229.607,-371 224.607,-369.25 224.607,-372.75"/>
</g>
<!-- topo.command.analysis.PatternPresenter2 -->
<g id="node15" class="node"><title>topo.command.analysis.PatternPresenter2</title>
<polygon fill="none" stroke="black" stroke-width="0.5" points="457,-343.5 237,-343.5 237,-322.5 457,-322.5 457,-343.5"/>
<text text-anchor="middle" x="347" y="-330.5" font-family="Vera" font-size="10.00">topo.command.analysis.PatternPresenter2</text>
</g>
<!-- param.parameterized.Parameterized&#45;&gt;topo.command.analysis.PatternPresenter2 -->
<g id="edge12" class="edge"><title>param.parameterized.Parameterized&#45;&gt;topo.command.analysis.PatternPresenter2</title>
<path fill="none" stroke="black" stroke-width="0.5" d="M163.012,-360.966C197.758,-355.685 240.394,-349.204 275.872,-343.811"/>
<polygon fill="black" stroke="black" points="276.372,-345.506 281.052,-343.024 275.846,-342.045 276.372,-345.506"/>
</g>
<!-- topo.command.analysis.save_plotgroup -->
<g id="node17" class="node"><title>topo.command.analysis.save_plotgroup</title>
<polygon fill="none" stroke="black" stroke-width="0.5" points="765,-419.5 557,-419.5 557,-398.5 765,-398.5 765,-419.5"/>
<text text-anchor="middle" x="661" y="-406.5" font-family="Vera" font-size="10.00">topo.command.analysis.save_plotgroup</text>
</g>
<!-- param.parameterized.ParameterizedFunction&#45;&gt;topo.command.analysis.save_plotgroup -->
<g id="edge14" class="edge"><title>param.parameterized.ParameterizedFunction&#45;&gt;topo.command.analysis.save_plotgroup</title>
<path fill="none" stroke="black" stroke-width="0.5" d="M426.793,-381.002C450.364,-383.932 476.218,-387.12 500,-390 522.73,-392.752 547.271,-395.674 570.177,-398.38"/>
<polygon fill="black" stroke="black" points="570.174,-400.141 575.345,-398.99 570.584,-396.665 570.174,-400.141"/>
</g>
<!-- topo.base.functionfamily.PatternDrivenAnalysis -->
<g id="node31" class="node"><title>topo.base.functionfamily.PatternDrivenAnalysis</title>
<polygon fill="none" stroke="black" stroke-width="0.5" points="781,-381.5 541,-381.5 541,-360.5 781,-360.5 781,-381.5"/>
<text text-anchor="middle" x="661" y="-368.5" font-family="Vera" font-size="10.00">topo.base.functionfamily.PatternDrivenAnalysis</text>
</g>
<!-- param.parameterized.ParameterizedFunction&#45;&gt;topo.base.functionfamily.PatternDrivenAnalysis -->
<g id="edge28" class="edge"><title>param.parameterized.ParameterizedFunction&#45;&gt;topo.base.functionfamily.PatternDrivenAnalysis</title>
<path fill="none" stroke="black" stroke-width="0.5" d="M464.369,-371C487.705,-371 512.292,-371 535.877,-371"/>
<polygon fill="black" stroke="black" points="535.894,-372.75 540.894,-371 535.894,-369.25 535.894,-372.75"/>
</g>
<!-- topo.plotting.plotgroup.ProjectionSheetMeasurementCommand -->
<g id="node40" class="node"><title>topo.plotting.plotgroup.ProjectionSheetMeasurementCommand</title>
<polygon fill="none" stroke="black" stroke-width="0.5" points="822,-343.5 500,-343.5 500,-322.5 822,-322.5 822,-343.5"/>
<text text-anchor="middle" x="661" y="-330.5" font-family="Vera" font-size="10.00">topo.plotting.plotgroup.ProjectionSheetMeasurementCommand</text>
</g>
<!-- param.parameterized.ParameterizedFunction&#45;&gt;topo.plotting.plotgroup.ProjectionSheetMeasurementCommand -->
<g id="edge52" class="edge"><title>param.parameterized.ParameterizedFunction&#45;&gt;topo.plotting.plotgroup.ProjectionSheetMeasurementCommand</title>
<path fill="none" stroke="black" stroke-width="0.5" d="M426.793,-360.998C450.364,-358.068 476.218,-354.88 500,-352 522.73,-349.248 547.271,-346.326 570.177,-343.62"/>
<polygon fill="black" stroke="black" points="570.584,-345.335 575.345,-343.01 570.174,-341.859 570.584,-345.335"/>
</g>
<!-- topo.analysis.featureresponses.PatternPresentingCommand -->
<g id="node46" class="node"><title>topo.analysis.featureresponses.PatternPresentingCommand</title>
<polygon fill="none" stroke="black" stroke-width="0.5" points="813,-219.5 509,-219.5 509,-198.5 813,-198.5 813,-219.5"/>
<text text-anchor="middle" x="661" y="-206.5" font-family="Vera" font-size="10.00">topo.analysis.featureresponses.PatternPresentingCommand</text>
</g>
<!-- param.parameterized.ParameterizedFunction&#45;&gt;topo.analysis.featureresponses.PatternPresentingCommand -->
<g id="edge50" class="edge"><title>param.parameterized.ParameterizedFunction&#45;&gt;topo.analysis.featureresponses.PatternPresentingCommand</title>
<path fill="none" stroke="black" stroke-width="0.5" d="M442.297,-360.992C449.846,-358.569 457.179,-355.609 464,-352 484.563,-341.119 482.134,-328.901 500,-314 545.676,-275.904 605.792,-239.958 638.101,-221.635"/>
<polygon fill="black" stroke="black" points="639.167,-223.043 642.661,-219.061 637.446,-219.995 639.167,-223.043"/>
</g>
<!-- topo.analysis.featureresponses.MeasureResponseCommand -->
<g id="node19" class="node"><title>topo.analysis.featureresponses.MeasureResponseCommand</title>
<polygon fill="none" stroke="black" stroke-width="0.5" points="1165,-134.5 859,-134.5 859,-113.5 1165,-113.5 1165,-134.5"/>
<text text-anchor="middle" x="1012" y="-121.5" font-family="Vera" font-size="10.00">topo.analysis.featureresponses.MeasureResponseCommand</text>
</g>
<!-- topo.analysis.featureresponses.MeasureResponseCommand&#45;&gt;topo.analysis.featureresponses.SinusoidalMeasureResponseCommand -->
<g id="edge16" class="edge"><title>topo.analysis.featureresponses.MeasureResponseCommand&#45;&gt;topo.analysis.featureresponses.SinusoidalMeasureResponseCommand</title>
<path fill="none" stroke="black" stroke-width="0.5" d="M1036.43,-134.091C1101.65,-161.028 1279.67,-234.56 1350.43,-263.787"/>
<polygon fill="black" stroke="black" points="1350.05,-265.522 1355.34,-265.813 1351.38,-262.287 1350.05,-265.522"/>
</g>
<!-- topo.analysis.featureresponses.MeasureResponseCommand&#45;&gt;topo.analysis.featureresponses.PositionMeasurementCommand -->
<g id="edge26" class="edge"><title>topo.analysis.featureresponses.MeasureResponseCommand&#45;&gt;topo.analysis.featureresponses.PositionMeasurementCommand</title>
<path fill="none" stroke="black" stroke-width="0.5" d="M1109.17,-134.034C1161.15,-139.402 1225.14,-146.009 1277.86,-151.453"/>
<polygon fill="black" stroke="black" points="1277.77,-153.203 1282.93,-151.976 1278.13,-149.722 1277.77,-153.203"/>
</g>
<!-- topo.analysis.featureresponses.SingleInputResponseCommand -->
<g id="node28" class="node"><title>topo.analysis.featureresponses.SingleInputResponseCommand</title>
<polygon fill="none" stroke="black" stroke-width="0.5" points="1539,-134.5 1221,-134.5 1221,-113.5 1539,-113.5 1539,-134.5"/>
<text text-anchor="middle" x="1380" y="-121.5" font-family="Vera" font-size="10.00">topo.analysis.featureresponses.SingleInputResponseCommand</text>
</g>
<!-- topo.analysis.featureresponses.MeasureResponseCommand&#45;&gt;topo.analysis.featureresponses.SingleInputResponseCommand -->
<g id="edge60" class="edge"><title>topo.analysis.featureresponses.MeasureResponseCommand&#45;&gt;topo.analysis.featureresponses.SingleInputResponseCommand</title>
<path fill="none" stroke="black" stroke-width="0.5" d="M1165.67,-124C1182.01,-124 1198.68,-124 1215.14,-124"/>
<polygon fill="black" stroke="black" points="1215.25,-125.75 1220.25,-124 1215.25,-122.25 1215.25,-125.75"/>
</g>
<!-- topo.command.analysis.measure_log_frequency_preference -->
<g id="node37" class="node"><title>topo.command.analysis.measure_log_frequency_preference</title>
<polygon fill="none" stroke="black" stroke-width="0.5" points="1533,-96.5 1227,-96.5 1227,-75.5 1533,-75.5 1533,-96.5"/>
<text text-anchor="middle" x="1380" y="-83.5" font-family="Vera" font-size="10.00">topo.command.analysis.measure_log_frequency_preference</text>
</g>
<!-- topo.analysis.featureresponses.MeasureResponseCommand&#45;&gt;topo.command.analysis.measure_log_frequency_preference -->
<g id="edge34" class="edge"><title>topo.analysis.featureresponses.MeasureResponseCommand&#45;&gt;topo.command.analysis.measure_log_frequency_preference</title>
<path fill="none" stroke="black" stroke-width="0.5" d="M1109.17,-113.966C1161.15,-108.598 1225.14,-101.991 1277.86,-96.5472"/>
<polygon fill="black" stroke="black" points="1278.13,-98.2785 1282.93,-96.024 1277.77,-94.797 1278.13,-98.2785"/>
</g>
<!-- topo.command.analysis.measure_latency_preference -->
<g id="node50" class="node"><title>topo.command.analysis.measure_latency_preference</title>
<polygon fill="none" stroke="black" stroke-width="0.5" points="1517,-58.5 1243,-58.5 1243,-37.5 1517,-37.5 1517,-58.5"/>
<text text-anchor="middle" x="1380" y="-45.5" font-family="Vera" font-size="10.00">topo.command.analysis.measure_latency_preference</text>
</g>
<!-- topo.analysis.featureresponses.MeasureResponseCommand&#45;&gt;topo.command.analysis.measure_latency_preference -->
<g id="edge46" class="edge"><title>topo.analysis.featureresponses.MeasureResponseCommand&#45;&gt;topo.command.analysis.measure_latency_preference</title>
<path fill="none" stroke="black" stroke-width="0.5" d="M1039.6,-113.958C1076.21,-101.045 1143.09,-78.8742 1202,-67 1218.29,-63.7166 1235.54,-60.976 1252.64,-58.6945"/>
<polygon fill="black" stroke="black" points="1253.21,-60.385 1257.94,-58.0011 1252.75,-56.9146 1253.21,-60.385"/>
</g>
<!-- topo.command.analysis.measure_frequency_preference -->
<g id="node65" class="node"><title>topo.command.analysis.measure_frequency_preference</title>
<polygon fill="none" stroke="black" stroke-width="0.5" points="1523,-20.5 1237,-20.5 1237,0.5 1523,0.5 1523,-20.5"/>
<text text-anchor="middle" x="1380" y="-7.5" font-family="Vera" font-size="10.00">topo.command.analysis.measure_frequency_preference</text>
</g>
<!-- topo.analysis.featureresponses.MeasureResponseCommand&#45;&gt;topo.command.analysis.measure_frequency_preference -->
<g id="edge64" class="edge"><title>topo.analysis.featureresponses.MeasureResponseCommand&#45;&gt;topo.command.analysis.measure_frequency_preference</title>
<path fill="none" stroke="black" stroke-width="0.5" d="M1027.47,-113.833C1058.87,-93.7561 1132.99,-49.219 1202,-29 1212.83,-25.8271 1224.17,-23.1721 1235.65,-20.9518"/>
<polygon fill="black" stroke="black" points="1235.99,-22.6688 1240.59,-20.0266 1235.35,-19.2289 1235.99,-22.6688"/>
</g>
<!-- topo.command.analysis.measure_rfs -->
<g id="node27" class="node"><title>topo.command.analysis.measure_rfs</title>
<polygon fill="none" stroke="black" stroke-width="0.5" points="1826,-96.5 1632,-96.5 1632,-75.5 1826,-75.5 1826,-96.5"/>
<text text-anchor="middle" x="1729" y="-83.5" font-family="Vera" font-size="10.00">topo.command.analysis.measure_rfs</text>
</g>
<!-- topo.analysis.featureresponses.SingleInputResponseCommand&#45;&gt;topo.command.analysis.measure_rfs -->
<g id="edge24" class="edge"><title>topo.analysis.featureresponses.SingleInputResponseCommand&#45;&gt;topo.command.analysis.measure_rfs</title>
<path fill="none" stroke="black" stroke-width="0.5" d="M1474.7,-113.969C1501.62,-111.096 1530.97,-107.945 1558,-105 1582.67,-102.312 1609.34,-99.3679 1634.12,-96.6164"/>
<polygon fill="black" stroke="black" points="1634.6,-98.3239 1639.37,-96.0323 1634.21,-94.8453 1634.6,-98.3239"/>
</g>
<!-- topo.analysis.featureresponses.FeatureResponses -->
<g id="node44" class="node"><title>topo.analysis.featureresponses.FeatureResponses</title>
<polygon fill="none" stroke="black" stroke-width="0.5" points="1140,-400.5 884,-400.5 884,-379.5 1140,-379.5 1140,-400.5"/>
<text text-anchor="middle" x="1012" y="-387.5" font-family="Vera" font-size="10.00">topo.analysis.featureresponses.FeatureResponses</text>
</g>
<!-- topo.base.functionfamily.PatternDrivenAnalysis&#45;&gt;topo.analysis.featureresponses.FeatureResponses -->
<g id="edge66" class="edge"><title>topo.base.functionfamily.PatternDrivenAnalysis&#45;&gt;topo.analysis.featureresponses.FeatureResponses</title>
<path fill="none" stroke="black" stroke-width="0.5" d="M781.303,-377.512C812.573,-379.205 846.446,-381.038 878.359,-382.766"/>
<polygon fill="black" stroke="black" points="878.375,-384.519 883.463,-383.042 878.565,-381.024 878.375,-384.519"/>
</g>
<!-- topo.command.analysis.update_projectionactivity -->
<g id="node39" class="node"><title>topo.command.analysis.update_projectionactivity</title>
<polygon fill="none" stroke="black" stroke-width="0.5" points="1139,-362.5 885,-362.5 885,-341.5 1139,-341.5 1139,-362.5"/>
<text text-anchor="middle" x="1012" y="-349.5" font-family="Vera" font-size="10.00">topo.command.analysis.update_projectionactivity</text>
</g>
<!-- topo.plotting.plotgroup.ProjectionSheetMeasurementCommand&#45;&gt;topo.command.analysis.update_projectionactivity -->
<g id="edge36" class="edge"><title>topo.plotting.plotgroup.ProjectionSheetMeasurementCommand&#45;&gt;topo.command.analysis.update_projectionactivity</title>
<path fill="none" stroke="black" stroke-width="0.5" d="M822.118,-341.721C841.391,-342.765 860.898,-343.821 879.699,-344.838"/>
<polygon fill="black" stroke="black" points="879.895,-346.601 884.982,-345.124 880.084,-343.107 879.895,-346.601"/>
</g>
<!-- topo.plotting.plotgroup.UnitMeasurementCommand -->
<g id="node48" class="node"><title>topo.plotting.plotgroup.UnitMeasurementCommand</title>
<polygon fill="none" stroke="black" stroke-width="0.5" points="1145,-324.5 879,-324.5 879,-303.5 1145,-303.5 1145,-324.5"/>
<text text-anchor="middle" x="1012" y="-311.5" font-family="Vera" font-size="10.00">topo.plotting.plotgroup.UnitMeasurementCommand</text>
</g>
<!-- topo.plotting.plotgroup.ProjectionSheetMeasurementCommand&#45;&gt;topo.plotting.plotgroup.UnitMeasurementCommand -->
<g id="edge44" class="edge"><title>topo.plotting.plotgroup.ProjectionSheetMeasurementCommand&#45;&gt;topo.plotting.plotgroup.UnitMeasurementCommand</title>
<path fill="none" stroke="black" stroke-width="0.5" d="M822.118,-324.279C839.348,-323.346 856.765,-322.403 873.698,-321.486"/>
<polygon fill="black" stroke="black" points="874.038,-323.221 878.936,-321.203 873.849,-319.726 874.038,-323.221"/>
</g>
<!-- topo.command.analysis.measure_activity -->
<g id="node43" class="node"><title>topo.command.analysis.measure_activity</title>
<polygon fill="none" stroke="black" stroke-width="0.5" points="1488,-400.5 1272,-400.5 1272,-379.5 1488,-379.5 1488,-400.5"/>
<text text-anchor="middle" x="1380" y="-387.5" font-family="Vera" font-size="10.00">topo.command.analysis.measure_activity</text>
</g>
<!-- topo.analysis.featureresponses.FeatureResponses&#45;&gt;topo.command.analysis.measure_activity -->
<g id="edge40" class="edge"><title>topo.analysis.featureresponses.FeatureResponses&#45;&gt;topo.command.analysis.measure_activity</title>
<path fill="none" stroke="black" stroke-width="0.5" d="M1140.71,-390C1181.67,-390 1226.66,-390 1266.47,-390"/>
<polygon fill="black" stroke="black" points="1266.8,-391.75 1271.8,-390 1266.8,-388.25 1266.8,-391.75"/>
</g>
<!-- topo.analysis.featureresponses.PatternPresentingCommand&#45;&gt;topo.analysis.featureresponses.MeasureResponseCommand -->
<g id="edge42" class="edge"><title>topo.analysis.featureresponses.PatternPresentingCommand&#45;&gt;topo.analysis.featureresponses.MeasureResponseCommand</title>
<path fill="none" stroke="black" stroke-width="0.5" d="M702.296,-198.999C768.086,-183.067 896.289,-152.021 965.317,-135.305"/>
<polygon fill="black" stroke="black" points="966.142,-136.906 970.589,-134.028 965.318,-133.504 966.142,-136.906"/>
</g>
<!-- topo.command.analysis.update_connectionfields -->
<g id="node56" class="node"><title>topo.command.analysis.update_connectionfields</title>
<polygon fill="none" stroke="black" stroke-width="0.5" points="1505,-362.5 1255,-362.5 1255,-341.5 1505,-341.5 1505,-362.5"/>
<text text-anchor="middle" x="1380" y="-349.5" font-family="Vera" font-size="10.00">topo.command.analysis.update_connectionfields</text>
</g>
<!-- topo.plotting.plotgroup.UnitMeasurementCommand&#45;&gt;topo.command.analysis.update_connectionfields -->
<g id="edge54" class="edge"><title>topo.plotting.plotgroup.UnitMeasurementCommand&#45;&gt;topo.command.analysis.update_connectionfields</title>
<path fill="none" stroke="black" stroke-width="0.5" d="M1109.17,-324.034C1161.15,-329.402 1225.14,-336.009 1277.86,-341.453"/>
<polygon fill="black" stroke="black" points="1277.77,-343.203 1282.93,-341.976 1278.13,-339.722 1277.77,-343.203"/>
</g>
<!-- topo.command.analysis.update_projection -->
<g id="node58" class="node"><title>topo.command.analysis.update_projection</title>
<polygon fill="none" stroke="black" stroke-width="0.5" points="1490,-324.5 1270,-324.5 1270,-303.5 1490,-303.5 1490,-324.5"/>
<text text-anchor="middle" x="1380" y="-311.5" font-family="Vera" font-size="10.00">topo.command.analysis.update_projection</text>
</g>
<!-- topo.plotting.plotgroup.UnitMeasurementCommand&#45;&gt;topo.command.analysis.update_projection -->
<g id="edge56" class="edge"><title>topo.plotting.plotgroup.UnitMeasurementCommand&#45;&gt;topo.command.analysis.update_projection</title>
<path fill="none" stroke="black" stroke-width="0.5" d="M1145.12,-314C1184.11,-314 1226.42,-314 1264.24,-314"/>
<polygon fill="black" stroke="black" points="1264.3,-315.75 1269.3,-314 1264.3,-312.25 1264.3,-315.75"/>
</g>
</g>
</svg>
