<?xml version="1.0" encoding="UTF-8" standalone="no"?>
<!DOCTYPE svg PUBLIC "-//W3C//DTD SVG 1.1//EN"
 "http://www.w3.org/Graphics/SVG/1.1/DTD/svg11.dtd">
<!-- Generated by graphviz version 2.26.3 (20100126.1600)
 -->
<!-- Title: inheritance0bce68b9cf Pages: 1 -->
<svg width="1432pt" height="104pt"
 viewBox="0.00 0.00 1432.00 104.00" xmlns="http://www.w3.org/2000/svg" xmlns:xlink="http://www.w3.org/1999/xlink">
<g id="graph1" class="graph" transform="scale(1 1) rotate(0) translate(4 100)">
<title>inheritance0bce68b9cf</title>
<polygon fill="white" stroke="white" points="-4,5 -4,-100 1429,-100 1429,5 -4,5"/>
<!-- topo.command.analysis.measure_cog -->
<g id="node1" class="node"><title>topo.command.analysis.measure_cog</title>
<polygon fill="none" stroke="black" stroke-width="0.5" points="764,-96.5 564,-96.5 564,-75.5 764,-75.5 764,-96.5"/>
<text text-anchor="middle" x="664" y="-83.5" font-family="Vera" font-size="10.00">topo.command.analysis.measure_cog</text>
</g>
<!-- param.parameterized.ParameterizedFunction -->
<g id="node2" class="node"><title>param.parameterized.ParameterizedFunction</title>
<polygon fill="none" stroke="black" stroke-width="0.5" points="464,-77.5 230,-77.5 230,-56.5 464,-56.5 464,-77.5"/>
<text text-anchor="middle" x="347" y="-64.5" font-family="Vera" font-size="10.00">param.parameterized.ParameterizedFunction</text>
</g>
<!-- param.parameterized.ParameterizedFunction&#45;&gt;topo.command.analysis.measure_cog -->
<g id="edge2" class="edge"><title>param.parameterized.ParameterizedFunction&#45;&gt;topo.command.analysis.measure_cog</title>
<path fill="none" stroke="black" stroke-width="0.5" d="M464.138,-74.0209C495.066,-75.8746 528.252,-77.8637 558.523,-79.678"/>
<polygon fill="black" stroke="black" points="558.65,-81.4387 563.746,-79.9911 558.86,-77.945 558.65,-81.4387"/>
</g>
<!-- topo.command.analysis.ProjectionSheetMeasurementCommand -->
<g id="node5" class="node"><title>topo.command.analysis.ProjectionSheetMeasurementCommand</title>
<polygon fill="none" stroke="black" stroke-width="0.5" points="827,-58.5 501,-58.5 501,-37.5 827,-37.5 827,-58.5"/>
<text text-anchor="middle" x="664" y="-45.5" font-family="Vera" font-size="10.00">topo.command.analysis.ProjectionSheetMeasurementCommand</text>
</g>
<!-- param.parameterized.ParameterizedFunction&#45;&gt;topo.command.analysis.ProjectionSheetMeasurementCommand -->
<g id="edge14" class="edge"><title>param.parameterized.ParameterizedFunction&#45;&gt;topo.command.analysis.ProjectionSheetMeasurementCommand</title>
<path fill="none" stroke="black" stroke-width="0.5" d="M464.138,-59.9791C474.294,-59.3704 484.692,-58.7472 495.151,-58.1203"/>
<polygon fill="black" stroke="black" points="495.403,-59.8584 500.29,-57.8123 495.194,-56.3647 495.403,-59.8584"/>
</g>
<!-- topo.command.analysis.update_projectionactivity -->
<g id="node4" class="node"><title>topo.command.analysis.update_projectionactivity</title>
<polygon fill="none" stroke="black" stroke-width="0.5" points="1127,-77.5 873,-77.5 873,-56.5 1127,-56.5 1127,-77.5"/>
<text text-anchor="middle" x="1000" y="-64.5" font-family="Vera" font-size="10.00">topo.command.analysis.update_projectionactivity</text>
</g>
<!-- topo.command.analysis.ProjectionSheetMeasurementCommand&#45;&gt;topo.command.analysis.update_projectionactivity -->
<g id="edge4" class="edge"><title>topo.command.analysis.ProjectionSheetMeasurementCommand&#45;&gt;topo.command.analysis.update_projectionactivity</title>
<path fill="none" stroke="black" stroke-width="0.5" d="M827.571,-57.2495C840.978,-58.0077 854.424,-58.768 867.565,-59.5111"/>
<polygon fill="black" stroke="black" points="867.69,-61.2709 872.781,-59.8061 867.888,-57.7765 867.69,-61.2709"/>
</g>
<!-- topo.command.analysis.UnitMeasurementCommand -->
<g id="node7" class="node"><title>topo.command.analysis.UnitMeasurementCommand</title>
<polygon fill="none" stroke="black" stroke-width="0.5" points="1135,-39.5 865,-39.5 865,-18.5 1135,-18.5 1135,-39.5"/>
<text text-anchor="middle" x="1000" y="-26.5" font-family="Vera" font-size="10.00">topo.command.analysis.UnitMeasurementCommand</text>
</g>
<!-- topo.command.analysis.ProjectionSheetMeasurementCommand&#45;&gt;topo.command.analysis.UnitMeasurementCommand -->
<g id="edge6" class="edge"><title>topo.command.analysis.ProjectionSheetMeasurementCommand&#45;&gt;topo.command.analysis.UnitMeasurementCommand</title>
<path fill="none" stroke="black" stroke-width="0.5" d="M827.571,-38.7505C838.184,-38.1503 848.821,-37.5488 859.312,-36.9556"/>
<polygon fill="black" stroke="black" points="859.557,-38.6946 864.45,-36.665 859.359,-35.2002 859.557,-38.6946"/>
</g>
<!-- topo.command.analysis.update_connectionfields -->
<g id="node9" class="node"><title>topo.command.analysis.update_connectionfields</title>
<polygon fill="none" stroke="black" stroke-width="0.5" points="1423,-58.5 1173,-58.5 1173,-37.5 1423,-37.5 1423,-58.5"/>
<text text-anchor="middle" x="1298" y="-45.5" font-family="Vera" font-size="10.00">topo.command.analysis.update_connectionfields</text>
</g>
<!-- topo.command.analysis.UnitMeasurementCommand&#45;&gt;topo.command.analysis.update_connectionfields -->
<g id="edge8" class="edge"><title>topo.command.analysis.UnitMeasurementCommand&#45;&gt;topo.command.analysis.update_connectionfields</title>
<path fill="none" stroke="black" stroke-width="0.5" d="M1135.92,-37.666C1146.34,-38.3305 1156.85,-39.0004 1167.24,-39.6627"/>
<polygon fill="black" stroke="black" points="1167.22,-41.4154 1172.32,-39.9871 1167.45,-37.9225 1167.22,-41.4154"/>
</g>
<!-- topo.command.analysis.update_projection -->
<g id="node13" class="node"><title>topo.command.analysis.update_projection</title>
<polygon fill="none" stroke="black" stroke-width="0.5" points="1408,-20.5 1188,-20.5 1188,0.5 1408,0.5 1408,-20.5"/>
<text text-anchor="middle" x="1298" y="-7.5" font-family="Vera" font-size="10.00">topo.command.analysis.update_projection</text>
</g>
<!-- topo.command.analysis.UnitMeasurementCommand&#45;&gt;topo.command.analysis.update_projection -->
<g id="edge12" class="edge"><title>topo.command.analysis.UnitMeasurementCommand&#45;&gt;topo.command.analysis.update_projection</title>
<path fill="none" stroke="black" stroke-width="0.5" d="M1135.92,-20.334C1151.37,-19.3492 1167,-18.3523 1182.15,-17.3861"/>
<polygon fill="black" stroke="black" points="1182.4,-19.1244 1187.27,-17.0597 1182.17,-15.6315 1182.4,-19.1244"/>
</g>
<!-- param.parameterized.Parameterized -->
<g id="node11" class="node"><title>param.parameterized.Parameterized</title>
<polygon fill="none" stroke="black" stroke-width="0.5" points="194,-77.5 5.68434e-14,-77.5 0,-56.5 194,-56.5 194,-77.5"/>
<text text-anchor="middle" x="97" y="-64.5" font-family="Vera" font-size="10.00">param.parameterized.Parameterized</text>
</g>
<!-- param.parameterized.Parameterized&#45;&gt;param.parameterized.ParameterizedFunction -->
<g id="edge10" class="edge"><title>param.parameterized.Parameterized&#45;&gt;param.parameterized.ParameterizedFunction</title>
<path fill="none" stroke="black" stroke-width="0.5" d="M194.014,-67C204.04,-67 214.319,-67 224.575,-67"/>
<polygon fill="black" stroke="black" points="224.607,-68.7501 229.607,-67 224.607,-65.2501 224.607,-68.7501"/>
</g>
</g>
</svg>
