<?xml version="1.0" encoding="UTF-8" standalone="no"?>
<!DOCTYPE svg PUBLIC "-//W3C//DTD SVG 1.1//EN"
 "http://www.w3.org/Graphics/SVG/1.1/DTD/svg11.dtd">
<!-- Generated by graphviz version 2.26.3 (20100126.1600)
 -->
<!-- Title: inheritance0bce68b9cf Pages: 1 -->
<svg width="1872pt" height="370pt"
 viewBox="0.00 0.00 1872.00 370.00" xmlns="http://www.w3.org/2000/svg" xmlns:xlink="http://www.w3.org/1999/xlink">
<g id="graph1" class="graph" transform="scale(1 1) rotate(0) translate(4 366)">
<title>inheritance0bce68b9cf</title>
<polygon fill="white" stroke="white" points="-4,5 -4,-366 1869,-366 1869,5 -4,5"/>
<!-- topo.command.analysis.frequency_mapper -->
<g id="node1" class="node"><title>topo.command.analysis.frequency_mapper</title>
<polygon fill="none" stroke="black" stroke-width="0.5" points="773,-362.5 549,-362.5 549,-341.5 773,-341.5 773,-362.5"/>
<text text-anchor="middle" x="661" y="-349.5" font-family="Vera" font-size="10.00">topo.command.analysis.frequency_mapper</text>
</g>
<!-- imagen.patterngenerator.PatternGenerator -->
<g id="node2" class="node"><title>imagen.patterngenerator.PatternGenerator</title>
<polygon fill="none" stroke="black" stroke-width="0.5" points="459,-295.5 235,-295.5 235,-274.5 459,-274.5 459,-295.5"/>
<text text-anchor="middle" x="347" y="-282.5" font-family="Vera" font-size="10.00">imagen.patterngenerator.PatternGenerator</text>
</g>
<!-- imagen.patterngenerator.PatternGenerator&#45;&gt;topo.command.analysis.frequency_mapper -->
<g id="edge2" class="edge"><title>imagen.patterngenerator.PatternGenerator&#45;&gt;topo.command.analysis.frequency_mapper</title>
<path fill="none" stroke="black" stroke-width="0.5" d="M373.678,-295.042C403.893,-306.02 454.81,-323.333 500,-333 515.084,-336.227 531.088,-338.942 546.927,-341.218"/>
<polygon fill="black" stroke="black" points="547.096,-343.009 552.291,-341.973 547.584,-339.543 547.096,-343.009"/>
</g>
<!-- topo.command.analysis.latency_mapper -->
<g id="node7" class="node"><title>topo.command.analysis.latency_mapper</title>
<polygon fill="none" stroke="black" stroke-width="0.5" points="767,-324.5 555,-324.5 555,-303.5 767,-303.5 767,-324.5"/>
<text text-anchor="middle" x="661" y="-311.5" font-family="Vera" font-size="10.00">topo.command.analysis.latency_mapper</text>
</g>
<!-- imagen.patterngenerator.PatternGenerator&#45;&gt;topo.command.analysis.latency_mapper -->
<g id="edge6" class="edge"><title>imagen.patterngenerator.PatternGenerator&#45;&gt;topo.command.analysis.latency_mapper</title>
<path fill="none" stroke="black" stroke-width="0.5" d="M455.501,-295.021C485.915,-297.83 519.022,-300.887 549.602,-303.712"/>
<polygon fill="black" stroke="black" points="549.743,-305.482 554.882,-304.199 550.065,-301.997 549.743,-305.482"/>
</g>
<!-- topo.command.analysis.log_frequency_mapper -->
<g id="node30" class="node"><title>topo.command.analysis.log_frequency_mapper</title>
<polygon fill="none" stroke="black" stroke-width="0.5" points="783,-286.5 539,-286.5 539,-265.5 783,-265.5 783,-286.5"/>
<text text-anchor="middle" x="661" y="-273.5" font-family="Vera" font-size="10.00">topo.command.analysis.log_frequency_mapper</text>
</g>
<!-- imagen.patterngenerator.PatternGenerator&#45;&gt;topo.command.analysis.log_frequency_mapper -->
<g id="edge28" class="edge"><title>imagen.patterngenerator.PatternGenerator&#45;&gt;topo.command.analysis.log_frequency_mapper</title>
<path fill="none" stroke="black" stroke-width="0.5" d="M459.031,-281.789C483.203,-281.096 508.927,-280.359 533.635,-279.651"/>
<polygon fill="black" stroke="black" points="533.943,-281.393 538.891,-279.5 533.843,-277.894 533.943,-281.393"/>
</g>
<!-- topo.plotting.plotgroup.UnitMeasurementCommand -->
<g id="node4" class="node"><title>topo.plotting.plotgroup.UnitMeasurementCommand</title>
<polygon fill="none" stroke="black" stroke-width="0.5" points="1145,-305.5 879,-305.5 879,-284.5 1145,-284.5 1145,-305.5"/>
<text text-anchor="middle" x="1012" y="-292.5" font-family="Vera" font-size="10.00">topo.plotting.plotgroup.UnitMeasurementCommand</text>
</g>
<!-- topo.command.analysis.update_connectionfields -->
<g id="node49" class="node"><title>topo.command.analysis.update_connectionfields</title>
<polygon fill="none" stroke="black" stroke-width="0.5" points="1505,-343.5 1255,-343.5 1255,-322.5 1505,-322.5 1505,-343.5"/>
<text text-anchor="middle" x="1380" y="-330.5" font-family="Vera" font-size="10.00">topo.command.analysis.update_connectionfields</text>
</g>
<!-- topo.plotting.plotgroup.UnitMeasurementCommand&#45;&gt;topo.command.analysis.update_connectionfields -->
<g id="edge48" class="edge"><title>topo.plotting.plotgroup.UnitMeasurementCommand&#45;&gt;topo.command.analysis.update_connectionfields</title>
<path fill="none" stroke="black" stroke-width="0.5" d="M1109.17,-305.034C1161.15,-310.402 1225.14,-317.009 1277.86,-322.453"/>
<polygon fill="black" stroke="black" points="1277.77,-324.203 1282.93,-322.976 1278.13,-320.722 1277.77,-324.203"/>
</g>
<!-- topo.command.analysis.update_projection -->
<g id="node56" class="node"><title>topo.command.analysis.update_projection</title>
<polygon fill="none" stroke="black" stroke-width="0.5" points="1490,-305.5 1270,-305.5 1270,-284.5 1490,-284.5 1490,-305.5"/>
<text text-anchor="middle" x="1380" y="-292.5" font-family="Vera" font-size="10.00">topo.command.analysis.update_projection</text>
</g>
<!-- topo.plotting.plotgroup.UnitMeasurementCommand&#45;&gt;topo.command.analysis.update_projection -->
<g id="edge56" class="edge"><title>topo.plotting.plotgroup.UnitMeasurementCommand&#45;&gt;topo.command.analysis.update_projection</title>
<path fill="none" stroke="black" stroke-width="0.5" d="M1145.12,-295C1184.11,-295 1226.42,-295 1264.24,-295"/>
<polygon fill="black" stroke="black" points="1264.3,-296.75 1269.3,-295 1264.3,-293.25 1264.3,-296.75"/>
</g>
<!-- topo.plotting.plotgroup.ProjectionSheetMeasurementCommand -->
<g id="node5" class="node"><title>topo.plotting.plotgroup.ProjectionSheetMeasurementCommand</title>
<polygon fill="none" stroke="black" stroke-width="0.5" points="822,-248.5 500,-248.5 500,-227.5 822,-227.5 822,-248.5"/>
<text text-anchor="middle" x="661" y="-235.5" font-family="Vera" font-size="10.00">topo.plotting.plotgroup.ProjectionSheetMeasurementCommand</text>
</g>
<!-- topo.plotting.plotgroup.ProjectionSheetMeasurementCommand&#45;&gt;topo.plotting.plotgroup.UnitMeasurementCommand -->
<g id="edge4" class="edge"><title>topo.plotting.plotgroup.ProjectionSheetMeasurementCommand&#45;&gt;topo.plotting.plotgroup.UnitMeasurementCommand</title>
<path fill="none" stroke="black" stroke-width="0.5" d="M756.949,-248.048C778.402,-250.649 801.013,-253.668 822,-257 869.694,-264.571 923.644,-275.6 961.836,-283.828"/>
<polygon fill="black" stroke="black" points="961.626,-285.573 966.883,-284.919 962.366,-282.152 961.626,-285.573"/>
</g>
<!-- topo.command.analysis.update_projectionactivity -->
<g id="node34" class="node"><title>topo.command.analysis.update_projectionactivity</title>
<polygon fill="none" stroke="black" stroke-width="0.5" points="1139,-248.5 885,-248.5 885,-227.5 1139,-227.5 1139,-248.5"/>
<text text-anchor="middle" x="1012" y="-235.5" font-family="Vera" font-size="10.00">topo.command.analysis.update_projectionactivity</text>
</g>
<!-- topo.plotting.plotgroup.ProjectionSheetMeasurementCommand&#45;&gt;topo.command.analysis.update_projectionactivity -->
<g id="edge32" class="edge"><title>topo.plotting.plotgroup.ProjectionSheetMeasurementCommand&#45;&gt;topo.command.analysis.update_projectionactivity</title>
<path fill="none" stroke="black" stroke-width="0.5" d="M822.118,-238C841.391,-238 860.898,-238 879.699,-238"/>
<polygon fill="black" stroke="black" points="879.982,-239.75 884.982,-238 879.982,-236.25 879.982,-239.75"/>
</g>
<!-- param.parameterized.Parameterized -->
<g id="node9" class="node"><title>param.parameterized.Parameterized</title>
<polygon fill="none" stroke="black" stroke-width="0.5" points="194,-238.5 5.68434e-14,-238.5 0,-217.5 194,-217.5 194,-238.5"/>
<text text-anchor="middle" x="97" y="-225.5" font-family="Vera" font-size="10.00">param.parameterized.Parameterized</text>
</g>
<!-- param.parameterized.Parameterized&#45;&gt;imagen.patterngenerator.PatternGenerator -->
<g id="edge26" class="edge"><title>param.parameterized.Parameterized&#45;&gt;imagen.patterngenerator.PatternGenerator</title>
<path fill="none" stroke="black" stroke-width="0.5" d="M141.12,-238.059C185.075,-248.081 252.414,-263.434 298.007,-273.83"/>
<polygon fill="black" stroke="black" points="297.638,-275.54 302.902,-274.946 298.416,-272.128 297.638,-275.54"/>
</g>
<!-- param.parameterized.ParameterizedFunction -->
<g id="node11" class="node"><title>param.parameterized.ParameterizedFunction</title>
<polygon fill="none" stroke="black" stroke-width="0.5" points="464,-238.5 230,-238.5 230,-217.5 464,-217.5 464,-238.5"/>
<text text-anchor="middle" x="347" y="-225.5" font-family="Vera" font-size="10.00">param.parameterized.ParameterizedFunction</text>
</g>
<!-- param.parameterized.Parameterized&#45;&gt;param.parameterized.ParameterizedFunction -->
<g id="edge14" class="edge"><title>param.parameterized.Parameterized&#45;&gt;param.parameterized.ParameterizedFunction</title>
<path fill="none" stroke="black" stroke-width="0.5" d="M194.014,-228C204.04,-228 214.319,-228 224.575,-228"/>
<polygon fill="black" stroke="black" points="224.607,-229.75 229.607,-228 224.607,-226.25 224.607,-229.75"/>
</g>
<!-- topo.command.analysis.PatternPresenter2 -->
<g id="node47" class="node"><title>topo.command.analysis.PatternPresenter2</title>
<polygon fill="none" stroke="black" stroke-width="0.5" points="457,-200.5 237,-200.5 237,-179.5 457,-179.5 457,-200.5"/>
<text text-anchor="middle" x="347" y="-187.5" font-family="Vera" font-size="10.00">topo.command.analysis.PatternPresenter2</text>
</g>
<!-- param.parameterized.Parameterized&#45;&gt;topo.command.analysis.PatternPresenter2 -->
<g id="edge46" class="edge"><title>param.parameterized.Parameterized&#45;&gt;topo.command.analysis.PatternPresenter2</title>
<path fill="none" stroke="black" stroke-width="0.5" d="M163.012,-217.966C197.758,-212.685 240.394,-206.204 275.872,-200.811"/>
<polygon fill="black" stroke="black" points="276.372,-202.506 281.052,-200.024 275.846,-199.045 276.372,-202.506"/>
</g>
<!-- topo.analysis.featureresponses.PatternPresentingCommand -->
<g id="node10" class="node"><title>topo.analysis.featureresponses.PatternPresentingCommand</title>
<polygon fill="none" stroke="black" stroke-width="0.5" points="813,-210.5 509,-210.5 509,-189.5 813,-189.5 813,-210.5"/>
<text text-anchor="middle" x="661" y="-197.5" font-family="Vera" font-size="10.00">topo.analysis.featureresponses.PatternPresentingCommand</text>
</g>
<!-- topo.analysis.featureresponses.MeasureResponseCommand -->
<g id="node14" class="node"><title>topo.analysis.featureresponses.MeasureResponseCommand</title>
<polygon fill="none" stroke="black" stroke-width="0.5" points="1165,-191.5 859,-191.5 859,-170.5 1165,-170.5 1165,-191.5"/>
<text text-anchor="middle" x="1012" y="-178.5" font-family="Vera" font-size="10.00">topo.analysis.featureresponses.MeasureResponseCommand</text>
</g>
<!-- topo.analysis.featureresponses.PatternPresentingCommand&#45;&gt;topo.analysis.featureresponses.MeasureResponseCommand -->
<g id="edge54" class="edge"><title>topo.analysis.featureresponses.PatternPresentingCommand&#45;&gt;topo.analysis.featureresponses.MeasureResponseCommand</title>
<path fill="none" stroke="black" stroke-width="0.5" d="M813.677,-191.735C826.734,-191.029 839.963,-190.313 853.067,-189.603"/>
<polygon fill="black" stroke="black" points="853.38,-191.339 858.278,-189.321 853.19,-187.844 853.38,-191.339"/>
</g>
<!-- param.parameterized.ParameterizedFunction&#45;&gt;topo.plotting.plotgroup.ProjectionSheetMeasurementCommand -->
<g id="edge36" class="edge"><title>param.parameterized.ParameterizedFunction&#45;&gt;topo.plotting.plotgroup.ProjectionSheetMeasurementCommand</title>
<path fill="none" stroke="black" stroke-width="0.5" d="M464.369,-231.738C474.323,-232.055 484.506,-232.379 494.741,-232.705"/>
<polygon fill="black" stroke="black" points="494.716,-234.455 499.769,-232.865 494.827,-230.957 494.716,-234.455"/>
</g>
<!-- param.parameterized.ParameterizedFunction&#45;&gt;topo.analysis.featureresponses.PatternPresentingCommand -->
<g id="edge8" class="edge"><title>param.parameterized.ParameterizedFunction&#45;&gt;topo.analysis.featureresponses.PatternPresentingCommand</title>
<path fill="none" stroke="black" stroke-width="0.5" d="M459.474,-217.97C486.809,-215.533 516.106,-212.92 543.66,-210.463"/>
<polygon fill="black" stroke="black" points="543.959,-212.194 548.784,-210.007 543.648,-208.708 543.959,-212.194"/>
</g>
<!-- topo.command.analysis.save_plotgroup -->
<g id="node58" class="node"><title>topo.command.analysis.save_plotgroup</title>
<polygon fill="none" stroke="black" stroke-width="0.5" points="765,-172.5 557,-172.5 557,-151.5 765,-151.5 765,-172.5"/>
<text text-anchor="middle" x="661" y="-159.5" font-family="Vera" font-size="10.00">topo.command.analysis.save_plotgroup</text>
</g>
<!-- param.parameterized.ParameterizedFunction&#45;&gt;topo.command.analysis.save_plotgroup -->
<g id="edge58" class="edge"><title>param.parameterized.ParameterizedFunction&#45;&gt;topo.command.analysis.save_plotgroup</title>
<path fill="none" stroke="black" stroke-width="0.5" d="M437.742,-217.934C446.796,-215.553 455.7,-212.618 464,-209 482.582,-200.901 481.247,-188.692 500,-181 516.185,-174.361 534.002,-169.826 551.704,-166.764"/>
<polygon fill="black" stroke="black" points="552.045,-168.482 556.693,-165.939 551.474,-165.029 552.045,-168.482"/>
</g>
<!-- topo.command.analysis.measure_log_frequency_preference -->
<g id="node13" class="node"><title>topo.command.analysis.measure_log_frequency_preference</title>
<polygon fill="none" stroke="black" stroke-width="0.5" points="1533,-267.5 1227,-267.5 1227,-246.5 1533,-246.5 1533,-267.5"/>
<text text-anchor="middle" x="1380" y="-254.5" font-family="Vera" font-size="10.00">topo.command.analysis.measure_log_frequency_preference</text>
</g>
<!-- topo.analysis.featureresponses.MeasureResponseCommand&#45;&gt;topo.command.analysis.measure_log_frequency_preference -->
<g id="edge10" class="edge"><title>topo.analysis.featureresponses.MeasureResponseCommand&#45;&gt;topo.command.analysis.measure_log_frequency_preference</title>
<path fill="none" stroke="black" stroke-width="0.5" d="M1066.43,-191.047C1096.36,-197.405 1133.83,-206.752 1166,-219 1182.91,-225.437 1184.7,-232.723 1202,-238 1212.31,-241.144 1223.1,-243.785 1234.04,-246.002"/>
<polygon fill="black" stroke="black" points="1233.83,-247.745 1239.07,-246.991 1234.51,-244.31 1233.83,-247.745"/>
</g>
<!-- topo.analysis.featureresponses.SingleInputResponseCommand -->
<g id="node16" class="node"><title>topo.analysis.featureresponses.SingleInputResponseCommand</title>
<polygon fill="none" stroke="black" stroke-width="0.5" points="1539,-229.5 1221,-229.5 1221,-208.5 1539,-208.5 1539,-229.5"/>
<text text-anchor="middle" x="1380" y="-216.5" font-family="Vera" font-size="10.00">topo.analysis.featureresponses.SingleInputResponseCommand</text>
</g>
<!-- topo.analysis.featureresponses.MeasureResponseCommand&#45;&gt;topo.analysis.featureresponses.SingleInputResponseCommand -->
<g id="edge12" class="edge"><title>topo.analysis.featureresponses.MeasureResponseCommand&#45;&gt;topo.analysis.featureresponses.SingleInputResponseCommand</title>
<path fill="none" stroke="black" stroke-width="0.5" d="M1109.17,-191.034C1161.15,-196.402 1225.14,-203.009 1277.86,-208.453"/>
<polygon fill="black" stroke="black" points="1277.77,-210.203 1282.93,-208.976 1278.13,-206.722 1277.77,-210.203"/>
</g>
<!-- topo.analysis.featureresponses.SinusoidalMeasureResponseCommand -->
<g id="node20" class="node"><title>topo.analysis.featureresponses.SinusoidalMeasureResponseCommand</title>
<polygon fill="none" stroke="black" stroke-width="0.5" points="1558,-191.5 1202,-191.5 1202,-170.5 1558,-170.5 1558,-191.5"/>
<text text-anchor="middle" x="1380" y="-178.5" font-family="Vera" font-size="10.00">topo.analysis.featureresponses.SinusoidalMeasureResponseCommand</text>
</g>
<!-- topo.analysis.featureresponses.MeasureResponseCommand&#45;&gt;topo.analysis.featureresponses.SinusoidalMeasureResponseCommand -->
<g id="edge20" class="edge"><title>topo.analysis.featureresponses.MeasureResponseCommand&#45;&gt;topo.analysis.featureresponses.SinusoidalMeasureResponseCommand</title>
<path fill="none" stroke="black" stroke-width="0.5" d="M1165.67,-181C1175.91,-181 1186.29,-181 1196.66,-181"/>
<polygon fill="black" stroke="black" points="1196.75,-182.75 1201.75,-181 1196.75,-179.25 1196.75,-182.75"/>
</g>
<!-- topo.analysis.featureresponses.PositionMeasurementCommand -->
<g id="node25" class="node"><title>topo.analysis.featureresponses.PositionMeasurementCommand</title>
<polygon fill="none" stroke="black" stroke-width="0.5" points="1542,-153.5 1218,-153.5 1218,-132.5 1542,-132.5 1542,-153.5"/>
<text text-anchor="middle" x="1380" y="-140.5" font-family="Vera" font-size="10.00">topo.analysis.featureresponses.PositionMeasurementCommand</text>
</g>
<!-- topo.analysis.featureresponses.MeasureResponseCommand&#45;&gt;topo.analysis.featureresponses.PositionMeasurementCommand -->
<g id="edge22" class="edge"><title>topo.analysis.featureresponses.MeasureResponseCommand&#45;&gt;topo.analysis.featureresponses.PositionMeasurementCommand</title>
<path fill="none" stroke="black" stroke-width="0.5" d="M1109.17,-170.966C1161.15,-165.598 1225.14,-158.991 1277.86,-153.547"/>
<polygon fill="black" stroke="black" points="1278.13,-155.278 1282.93,-153.024 1277.77,-151.797 1278.13,-155.278"/>
</g>
<!-- topo.command.analysis.measure_latency_preference -->
<g id="node27" class="node"><title>topo.command.analysis.measure_latency_preference</title>
<polygon fill="none" stroke="black" stroke-width="0.5" points="1517,-115.5 1243,-115.5 1243,-94.5 1517,-94.5 1517,-115.5"/>
<text text-anchor="middle" x="1380" y="-102.5" font-family="Vera" font-size="10.00">topo.command.analysis.measure_latency_preference</text>
</g>
<!-- topo.analysis.featureresponses.MeasureResponseCommand&#45;&gt;topo.command.analysis.measure_latency_preference -->
<g id="edge24" class="edge"><title>topo.analysis.featureresponses.MeasureResponseCommand&#45;&gt;topo.command.analysis.measure_latency_preference</title>
<path fill="none" stroke="black" stroke-width="0.5" d="M1039.6,-170.958C1076.21,-158.045 1143.09,-135.874 1202,-124 1218.29,-120.717 1235.54,-117.976 1252.64,-115.695"/>
<polygon fill="black" stroke="black" points="1253.21,-117.385 1257.94,-115.001 1252.75,-113.915 1253.21,-117.385"/>
</g>
<!-- topo.command.analysis.measure_frequency_preference -->
<g id="node53" class="node"><title>topo.command.analysis.measure_frequency_preference</title>
<polygon fill="none" stroke="black" stroke-width="0.5" points="1523,-77.5 1237,-77.5 1237,-56.5 1523,-56.5 1523,-77.5"/>
<text text-anchor="middle" x="1380" y="-64.5" font-family="Vera" font-size="10.00">topo.command.analysis.measure_frequency_preference</text>
</g>
<!-- topo.analysis.featureresponses.MeasureResponseCommand&#45;&gt;topo.command.analysis.measure_frequency_preference -->
<g id="edge52" class="edge"><title>topo.analysis.featureresponses.MeasureResponseCommand&#45;&gt;topo.command.analysis.measure_frequency_preference</title>
<path fill="none" stroke="black" stroke-width="0.5" d="M1027.47,-170.833C1058.87,-150.756 1132.99,-106.219 1202,-86 1212.83,-82.8271 1224.17,-80.1721 1235.65,-77.9518"/>
<polygon fill="black" stroke="black" points="1235.99,-79.6688 1240.59,-77.0266 1235.35,-76.2289 1235.99,-79.6688"/>
</g>
<!-- topo.command.analysis.measure_rfs -->
<g id="node51" class="node"><title>topo.command.analysis.measure_rfs</title>
<polygon fill="none" stroke="black" stroke-width="0.5" points="1826,-362.5 1632,-362.5 1632,-341.5 1826,-341.5 1826,-362.5"/>
<text text-anchor="middle" x="1729" y="-349.5" font-family="Vera" font-size="10.00">topo.command.analysis.measure_rfs</text>
</g>
<!-- topo.analysis.featureresponses.SingleInputResponseCommand&#45;&gt;topo.command.analysis.measure_rfs -->
<g id="edge50" class="edge"><title>topo.analysis.featureresponses.SingleInputResponseCommand&#45;&gt;topo.command.analysis.measure_rfs</title>
<path fill="none" stroke="black" stroke-width="0.5" d="M1539.89,-226.712C1546.26,-229.895 1552.34,-233.632 1558,-238 1593.74,-265.593 1558.73,-304.813 1594,-333 1603.63,-340.693 1614.92,-346.042 1626.81,-349.683"/>
<polygon fill="black" stroke="black" points="1626.65,-351.457 1631.93,-351.141 1627.6,-348.09 1626.65,-351.457"/>
</g>
<!-- topo.command.analysis.measure_sine_pref -->
<g id="node19" class="node"><title>topo.command.analysis.measure_sine_pref</title>
<polygon fill="none" stroke="black" stroke-width="0.5" points="1842,-324.5 1616,-324.5 1616,-303.5 1842,-303.5 1842,-324.5"/>
<text text-anchor="middle" x="1729" y="-311.5" font-family="Vera" font-size="10.00">topo.command.analysis.measure_sine_pref</text>
</g>
<!-- topo.analysis.featureresponses.SinusoidalMeasureResponseCommand&#45;&gt;topo.command.analysis.measure_sine_pref -->
<g id="edge16" class="edge"><title>topo.analysis.featureresponses.SinusoidalMeasureResponseCommand&#45;&gt;topo.command.analysis.measure_sine_pref</title>
<path fill="none" stroke="black" stroke-width="0.5" d="M1544.41,-191.092C1549.15,-193.718 1553.69,-196.676 1558,-200 1593.74,-227.593 1558.73,-266.813 1594,-295 1599.23,-299.18 1604.95,-302.668 1611,-305.566"/>
<polygon fill="black" stroke="black" points="1610.4,-307.216 1615.68,-307.669 1611.83,-304.024 1610.4,-307.216"/>
</g>
<!-- topo.command.analysis.measure_dr_pref -->
<g id="node22" class="node"><title>topo.command.analysis.measure_dr_pref</title>
<polygon fill="none" stroke="black" stroke-width="0.5" points="1837,-286.5 1621,-286.5 1621,-265.5 1837,-265.5 1837,-286.5"/>
<text text-anchor="middle" x="1729" y="-273.5" font-family="Vera" font-size="10.00">topo.command.analysis.measure_dr_pref</text>
</g>
<!-- topo.analysis.featureresponses.SinusoidalMeasureResponseCommand&#45;&gt;topo.command.analysis.measure_dr_pref -->
<g id="edge18" class="edge"><title>topo.analysis.featureresponses.SinusoidalMeasureResponseCommand&#45;&gt;topo.command.analysis.measure_dr_pref</title>
<path fill="none" stroke="black" stroke-width="0.5" d="M1541.03,-191.105C1546.91,-193.682 1552.59,-196.632 1558,-200 1583.44,-215.837 1568.83,-240.739 1594,-257 1600.83,-261.414 1608.26,-264.986 1616.01,-267.862"/>
<polygon fill="black" stroke="black" points="1615.57,-269.563 1620.87,-269.563 1616.73,-266.259 1615.57,-269.563"/>
</g>
<!-- topo.command.analysis.measure_second_or_pref -->
<g id="node32" class="node"><title>topo.command.analysis.measure_second_or_pref</title>
<polygon fill="none" stroke="black" stroke-width="0.5" points="1857,-248.5 1601,-248.5 1601,-227.5 1857,-227.5 1857,-248.5"/>
<text text-anchor="middle" x="1729" y="-235.5" font-family="Vera" font-size="10.00">topo.command.analysis.measure_second_or_pref</text>
</g>
<!-- topo.analysis.featureresponses.SinusoidalMeasureResponseCommand&#45;&gt;topo.command.analysis.measure_second_or_pref -->
<g id="edge30" class="edge"><title>topo.analysis.featureresponses.SinusoidalMeasureResponseCommand&#45;&gt;topo.command.analysis.measure_second_or_pref</title>
<path fill="none" stroke="black" stroke-width="0.5" d="M1520.93,-191.009C1533.59,-193.417 1546.11,-196.374 1558,-200 1575.3,-205.277 1576.79,-213.434 1594,-219 1603.68,-222.129 1613.91,-224.743 1624.24,-226.926"/>
<polygon fill="black" stroke="black" points="1624.06,-228.677 1629.31,-227.964 1624.76,-225.248 1624.06,-228.677"/>
</g>
<!-- topo.command.analysis.measure_or_pref -->
<g id="node36" class="node"><title>topo.command.analysis.measure_or_pref</title>
<polygon fill="none" stroke="black" stroke-width="0.5" points="1837,-210.5 1621,-210.5 1621,-189.5 1837,-189.5 1837,-210.5"/>
<text text-anchor="middle" x="1729" y="-197.5" font-family="Vera" font-size="10.00">topo.command.analysis.measure_or_pref</text>
</g>
<!-- topo.analysis.featureresponses.SinusoidalMeasureResponseCommand&#45;&gt;topo.command.analysis.measure_or_pref -->
<g id="edge34" class="edge"><title>topo.analysis.featureresponses.SinusoidalMeasureResponseCommand&#45;&gt;topo.command.analysis.measure_or_pref</title>
<path fill="none" stroke="black" stroke-width="0.5" d="M1558.08,-190.695C1577.59,-191.757 1597.03,-192.816 1615.45,-193.818"/>
<polygon fill="black" stroke="black" points="1615.53,-195.575 1620.61,-194.099 1615.72,-192.08 1615.53,-195.575"/>
</g>
<!-- topo.command.analysis.measure_phasedisparity -->
<g id="node39" class="node"><title>topo.command.analysis.measure_phasedisparity</title>
<polygon fill="none" stroke="black" stroke-width="0.5" points="1855,-172.5 1603,-172.5 1603,-151.5 1855,-151.5 1855,-172.5"/>
<text text-anchor="middle" x="1729" y="-159.5" font-family="Vera" font-size="10.00">topo.command.analysis.measure_phasedisparity</text>
</g>
<!-- topo.analysis.featureresponses.SinusoidalMeasureResponseCommand&#45;&gt;topo.command.analysis.measure_phasedisparity -->
<g id="edge38" class="edge"><title>topo.analysis.featureresponses.SinusoidalMeasureResponseCommand&#45;&gt;topo.command.analysis.measure_phasedisparity</title>
<path fill="none" stroke="black" stroke-width="0.5" d="M1558.08,-171.305C1571.43,-170.578 1584.75,-169.853 1597.74,-169.146"/>
<polygon fill="black" stroke="black" points="1597.99,-170.885 1602.89,-168.866 1597.8,-167.39 1597.99,-170.885"/>
</g>
<!-- topo.command.analysis.measure_od_pref -->
<g id="node41" class="node"><title>topo.command.analysis.measure_od_pref</title>
<polygon fill="none" stroke="black" stroke-width="0.5" points="1838,-134.5 1620,-134.5 1620,-113.5 1838,-113.5 1838,-134.5"/>
<text text-anchor="middle" x="1729" y="-121.5" font-family="Vera" font-size="10.00">topo.command.analysis.measure_od_pref</text>
</g>
<!-- topo.analysis.featureresponses.SinusoidalMeasureResponseCommand&#45;&gt;topo.command.analysis.measure_od_pref -->
<g id="edge40" class="edge"><title>topo.analysis.featureresponses.SinusoidalMeasureResponseCommand&#45;&gt;topo.command.analysis.measure_od_pref</title>
<path fill="none" stroke="black" stroke-width="0.5" d="M1520.93,-170.991C1533.59,-168.583 1546.11,-165.626 1558,-162 1575.3,-156.723 1576.79,-148.566 1594,-143 1603.68,-139.871 1613.91,-137.257 1624.24,-135.074"/>
<polygon fill="black" stroke="black" points="1624.76,-136.752 1629.31,-134.036 1624.06,-133.323 1624.76,-136.752"/>
</g>
<!-- topo.command.analysis.measure_hue_pref -->
<g id="node43" class="node"><title>topo.command.analysis.measure_hue_pref</title>
<polygon fill="none" stroke="black" stroke-width="0.5" points="1841,-96.5 1617,-96.5 1617,-75.5 1841,-75.5 1841,-96.5"/>
<text text-anchor="middle" x="1729" y="-83.5" font-family="Vera" font-size="10.00">topo.command.analysis.measure_hue_pref</text>
</g>
<!-- topo.analysis.featureresponses.SinusoidalMeasureResponseCommand&#45;&gt;topo.command.analysis.measure_hue_pref -->
<g id="edge42" class="edge"><title>topo.analysis.featureresponses.SinusoidalMeasureResponseCommand&#45;&gt;topo.command.analysis.measure_hue_pref</title>
<path fill="none" stroke="black" stroke-width="0.5" d="M1541.03,-170.895C1546.91,-168.318 1552.59,-165.368 1558,-162 1583.44,-146.163 1568.83,-121.261 1594,-105 1599.62,-101.366 1605.65,-98.3036 1611.93,-95.7302"/>
<polygon fill="black" stroke="black" points="1612.74,-97.2921 1616.78,-93.8563 1611.48,-94.0277 1612.74,-97.2921"/>
</g>
<!-- topo.command.analysis.measure_corner_angle_pref -->
<g id="node45" class="node"><title>topo.command.analysis.measure_corner_angle_pref</title>
<polygon fill="none" stroke="black" stroke-width="0.5" points="1863,-58.5 1595,-58.5 1595,-37.5 1863,-37.5 1863,-58.5"/>
<text text-anchor="middle" x="1729" y="-45.5" font-family="Vera" font-size="10.00">topo.command.analysis.measure_corner_angle_pref</text>
</g>
<!-- topo.analysis.featureresponses.PositionMeasurementCommand&#45;&gt;topo.command.analysis.measure_corner_angle_pref -->
<g id="edge44" class="edge"><title>topo.analysis.featureresponses.PositionMeasurementCommand&#45;&gt;topo.command.analysis.measure_corner_angle_pref</title>
<path fill="none" stroke="black" stroke-width="0.5" d="M1541.03,-132.895C1546.91,-130.318 1552.59,-127.368 1558,-124 1583.44,-108.163 1568.83,-83.261 1594,-67 1597.94,-64.4531 1602.08,-62.1867 1606.37,-60.1727"/>
<polygon fill="black" stroke="black" points="1607.21,-61.7127 1611.07,-58.0851 1605.79,-58.5135 1607.21,-61.7127"/>
</g>
<!-- topo.command.analysis.measure_corner_or_pref -->
<g id="node60" class="node"><title>topo.command.analysis.measure_corner_or_pref</title>
<polygon fill="none" stroke="black" stroke-width="0.5" points="1855,-20.5 1603,-20.5 1603,0.5 1855,0.5 1855,-20.5"/>
<text text-anchor="middle" x="1729" y="-7.5" font-family="Vera" font-size="10.00">topo.command.analysis.measure_corner_or_pref</text>
</g>
<!-- topo.analysis.featureresponses.PositionMeasurementCommand&#45;&gt;topo.command.analysis.measure_corner_or_pref -->
<g id="edge60" class="edge"><title>topo.analysis.featureresponses.PositionMeasurementCommand&#45;&gt;topo.command.analysis.measure_corner_or_pref</title>
<path fill="none" stroke="black" stroke-width="0.5" d="M1542.37,-134.014C1547.84,-131.119 1553.08,-127.798 1558,-124 1593.74,-96.4074 1558.73,-57.1871 1594,-29 1596.92,-26.6636 1600,-24.5434 1603.2,-22.6215"/>
<polygon fill="black" stroke="black" points="1604.14,-24.1 1607.64,-20.122 1602.43,-21.0502 1604.14,-24.1"/>
</g>
</g>
</svg>
