<?xml version="1.0" encoding="UTF-8" standalone="no"?>
<!DOCTYPE svg PUBLIC "-//W3C//DTD SVG 1.1//EN"
 "http://www.w3.org/Graphics/SVG/1.1/DTD/svg11.dtd">
<!-- Generated by graphviz version 2.26.3 (20100126.1600)
 -->
<!-- Title: inheritance0509d66467 Pages: 1 -->
<svg width="1108pt" height="351pt"
 viewBox="0.00 0.00 1108.00 351.00" xmlns="http://www.w3.org/2000/svg" xmlns:xlink="http://www.w3.org/1999/xlink">
<g id="graph1" class="graph" transform="scale(1 1) rotate(0) translate(4 347)">
<title>inheritance0509d66467</title>
<polygon fill="white" stroke="white" points="-4,5 -4,-347 1105,-347 1105,5 -4,5"/>
<!-- topo.transferfn.GeneralizedLogistic -->
<g id="node1" class="node"><title>topo.transferfn.GeneralizedLogistic</title>
<polygon fill="none" stroke="black" stroke-width="0.5" points="609,-343.5 425,-343.5 425,-322.5 609,-322.5 609,-343.5"/>
<text text-anchor="middle" x="517" y="-330.5" font-family="Vera" font-size="10.00">topo.transferfn.GeneralizedLogistic</text>
</g>
<!-- imagen.transferfn.TransferFn -->
<g id="node2" class="node"><title>imagen.transferfn.TransferFn</title>
<polygon fill="none" stroke="black" stroke-width="0.5" points="384,-191.5 230,-191.5 230,-170.5 384,-170.5 384,-191.5"/>
<text text-anchor="middle" x="307" y="-178.5" font-family="Vera" font-size="10.00">imagen.transferfn.TransferFn</text>
</g>
<!-- imagen.transferfn.TransferFn&#45;&gt;topo.transferfn.GeneralizedLogistic -->
<g id="edge2" class="edge"><title>imagen.transferfn.TransferFn&#45;&gt;topo.transferfn.GeneralizedLogistic</title>
<path fill="none" stroke="black" stroke-width="0.5" d="M312.492,-191.366C326.578,-216.85 366.669,-282.754 420,-314 424.648,-316.723 429.614,-319.064 434.751,-321.076"/>
<polygon fill="black" stroke="black" points="434.216,-322.743 439.513,-322.832 435.427,-319.46 434.216,-322.743"/>
</g>
<!-- topo.transferfn.HalfRectifyAndPower -->
<g id="node4" class="node"><title>topo.transferfn.HalfRectifyAndPower</title>
<polygon fill="none" stroke="black" stroke-width="0.5" points="611,-305.5 423,-305.5 423,-284.5 611,-284.5 611,-305.5"/>
<text text-anchor="middle" x="517" y="-292.5" font-family="Vera" font-size="10.00">topo.transferfn.HalfRectifyAndPower</text>
</g>
<!-- imagen.transferfn.TransferFn&#45;&gt;topo.transferfn.HalfRectifyAndPower -->
<g id="edge4" class="edge"><title>imagen.transferfn.TransferFn&#45;&gt;topo.transferfn.HalfRectifyAndPower</title>
<path fill="none" stroke="black" stroke-width="0.5" d="M315.781,-191.242C333.381,-211.049 375.147,-254.541 420,-276 426.044,-278.892 432.502,-281.344 439.105,-283.422"/>
<polygon fill="black" stroke="black" points="438.887,-285.183 444.179,-284.94 439.89,-281.83 438.887,-285.183"/>
</g>
<!-- topo.transferfn.HalfRectifyAndSquare -->
<g id="node6" class="node"><title>topo.transferfn.HalfRectifyAndSquare</title>
<polygon fill="none" stroke="black" stroke-width="0.5" points="614,-267.5 420,-267.5 420,-246.5 614,-246.5 614,-267.5"/>
<text text-anchor="middle" x="517" y="-254.5" font-family="Vera" font-size="10.00">topo.transferfn.HalfRectifyAndSquare</text>
</g>
<!-- imagen.transferfn.TransferFn&#45;&gt;topo.transferfn.HalfRectifyAndSquare -->
<g id="edge6" class="edge"><title>imagen.transferfn.TransferFn&#45;&gt;topo.transferfn.HalfRectifyAndSquare</title>
<path fill="none" stroke="black" stroke-width="0.5" d="M323.593,-191.202C345.079,-203.975 384.042,-225.671 420,-238 428.847,-241.033 438.323,-243.636 447.76,-245.854"/>
<polygon fill="black" stroke="black" points="447.423,-247.573 452.688,-246.98 448.203,-244.16 447.423,-247.573"/>
</g>
<!-- topo.transferfn.Square -->
<g id="node8" class="node"><title>topo.transferfn.Square</title>
<polygon fill="none" stroke="black" stroke-width="0.5" points="579,-229.5 455,-229.5 455,-208.5 579,-208.5 579,-229.5"/>
<text text-anchor="middle" x="517" y="-216.5" font-family="Vera" font-size="10.00">topo.transferfn.Square</text>
</g>
<!-- imagen.transferfn.TransferFn&#45;&gt;topo.transferfn.Square -->
<g id="edge8" class="edge"><title>imagen.transferfn.TransferFn&#45;&gt;topo.transferfn.Square</title>
<path fill="none" stroke="black" stroke-width="0.5" d="M362.45,-191.034C391.397,-196.272 426.865,-202.69 456.518,-208.056"/>
<polygon fill="black" stroke="black" points="456.372,-209.808 461.604,-208.976 456.995,-206.364 456.372,-209.808"/>
</g>
<!-- topo.transferfn.PiecewiseLinear -->
<g id="node10" class="node"><title>topo.transferfn.PiecewiseLinear</title>
<polygon fill="none" stroke="black" stroke-width="0.5" points="600,-191.5 434,-191.5 434,-170.5 600,-170.5 600,-191.5"/>
<text text-anchor="middle" x="517" y="-178.5" font-family="Vera" font-size="10.00">topo.transferfn.PiecewiseLinear</text>
</g>
<!-- imagen.transferfn.TransferFn&#45;&gt;topo.transferfn.PiecewiseLinear -->
<g id="edge10" class="edge"><title>imagen.transferfn.TransferFn&#45;&gt;topo.transferfn.PiecewiseLinear</title>
<path fill="none" stroke="black" stroke-width="0.5" d="M384.004,-181C398.622,-181 414.022,-181 428.952,-181"/>
<polygon fill="black" stroke="black" points="428.995,-182.75 433.995,-181 428.995,-179.25 428.995,-182.75"/>
</g>
<!-- topo.transferfn.Sigmoid -->
<g id="node15" class="node"><title>topo.transferfn.Sigmoid</title>
<polygon fill="none" stroke="black" stroke-width="0.5" points="582,-153.5 452,-153.5 452,-132.5 582,-132.5 582,-153.5"/>
<text text-anchor="middle" x="517" y="-140.5" font-family="Vera" font-size="10.00">topo.transferfn.Sigmoid</text>
</g>
<!-- imagen.transferfn.TransferFn&#45;&gt;topo.transferfn.Sigmoid -->
<g id="edge14" class="edge"><title>imagen.transferfn.TransferFn&#45;&gt;topo.transferfn.Sigmoid</title>
<path fill="none" stroke="black" stroke-width="0.5" d="M362.45,-170.966C391.397,-165.728 426.865,-159.31 456.518,-153.944"/>
<polygon fill="black" stroke="black" points="456.995,-155.636 461.604,-153.024 456.372,-152.192 456.995,-155.636"/>
</g>
<!-- topo.transferfn.NakaRushton -->
<g id="node17" class="node"><title>topo.transferfn.NakaRushton</title>
<polygon fill="none" stroke="black" stroke-width="0.5" points="594,-115.5 440,-115.5 440,-94.5 594,-94.5 594,-115.5"/>
<text text-anchor="middle" x="517" y="-102.5" font-family="Vera" font-size="10.00">topo.transferfn.NakaRushton</text>
</g>
<!-- imagen.transferfn.TransferFn&#45;&gt;topo.transferfn.NakaRushton -->
<g id="edge16" class="edge"><title>imagen.transferfn.TransferFn&#45;&gt;topo.transferfn.NakaRushton</title>
<path fill="none" stroke="black" stroke-width="0.5" d="M323.593,-170.798C345.079,-158.025 384.042,-136.329 420,-124 428.847,-120.967 438.323,-118.364 447.76,-116.146"/>
<polygon fill="black" stroke="black" points="448.203,-117.84 452.688,-115.02 447.423,-114.427 448.203,-117.84"/>
</g>
<!-- topo.transferfn.TransferFnWithState -->
<g id="node20" class="node"><title>topo.transferfn.TransferFnWithState</title>
<polygon fill="none" stroke="black" stroke-width="0.5" points="610,-77.5 424,-77.5 424,-56.5 610,-56.5 610,-77.5"/>
<text text-anchor="middle" x="517" y="-64.5" font-family="Vera" font-size="10.00">topo.transferfn.TransferFnWithState</text>
</g>
<!-- imagen.transferfn.TransferFn&#45;&gt;topo.transferfn.TransferFnWithState -->
<g id="edge20" class="edge"><title>imagen.transferfn.TransferFn&#45;&gt;topo.transferfn.TransferFnWithState</title>
<path fill="none" stroke="black" stroke-width="0.5" d="M315.781,-170.758C333.381,-150.951 375.147,-107.459 420,-86 426.044,-83.1081 432.502,-80.6564 439.105,-78.5778"/>
<polygon fill="black" stroke="black" points="439.89,-80.1697 444.179,-77.06 438.887,-76.8165 439.89,-80.1697"/>
</g>
<!-- topo.transferfn.ExpLinear -->
<g id="node27" class="node"><title>topo.transferfn.ExpLinear</title>
<polygon fill="none" stroke="black" stroke-width="0.5" points="585,-39.5 449,-39.5 449,-18.5 585,-18.5 585,-39.5"/>
<text text-anchor="middle" x="517" y="-26.5" font-family="Vera" font-size="10.00">topo.transferfn.ExpLinear</text>
</g>
<!-- imagen.transferfn.TransferFn&#45;&gt;topo.transferfn.ExpLinear -->
<g id="edge26" class="edge"><title>imagen.transferfn.TransferFn&#45;&gt;topo.transferfn.ExpLinear</title>
<path fill="none" stroke="black" stroke-width="0.5" d="M312.492,-170.634C326.578,-145.15 366.669,-79.2456 420,-48 427.173,-43.7975 435.105,-40.5051 443.251,-37.929"/>
<polygon fill="black" stroke="black" points="444.052,-39.5168 448.347,-36.4157 443.055,-36.1617 444.052,-39.5168"/>
</g>
<!-- topo.transferfn.PoissonSample -->
<g id="node12" class="node"><title>topo.transferfn.PoissonSample</title>
<polygon fill="none" stroke="black" stroke-width="0.5" points="1088,-153.5 924,-153.5 924,-132.5 1088,-132.5 1088,-153.5"/>
<text text-anchor="middle" x="1006" y="-140.5" font-family="Vera" font-size="10.00">topo.transferfn.PoissonSample</text>
</g>
<!-- topo.transferfn.TransferFnWithRandomState -->
<g id="node13" class="node"><title>topo.transferfn.TransferFnWithRandomState</title>
<polygon fill="none" stroke="black" stroke-width="0.5" points="876,-134.5 650,-134.5 650,-113.5 876,-113.5 876,-134.5"/>
<text text-anchor="middle" x="763" y="-121.5" font-family="Vera" font-size="10.00">topo.transferfn.TransferFnWithRandomState</text>
</g>
<!-- topo.transferfn.TransferFnWithRandomState&#45;&gt;topo.transferfn.PoissonSample -->
<g id="edge12" class="edge"><title>topo.transferfn.TransferFnWithRandomState&#45;&gt;topo.transferfn.PoissonSample</title>
<path fill="none" stroke="black" stroke-width="0.5" d="M876.318,-132.86C890.534,-133.972 904.9,-135.095 918.632,-136.169"/>
<polygon fill="black" stroke="black" points="918.541,-137.917 923.662,-136.562 918.813,-134.428 918.541,-137.917"/>
</g>
<!-- topo.transferfn.HomeostaticMaxEnt -->
<g id="node25" class="node"><title>topo.transferfn.HomeostaticMaxEnt</title>
<polygon fill="none" stroke="black" stroke-width="0.5" points="1100,-115.5 912,-115.5 912,-94.5 1100,-94.5 1100,-115.5"/>
<text text-anchor="middle" x="1006" y="-102.5" font-family="Vera" font-size="10.00">topo.transferfn.HomeostaticMaxEnt</text>
</g>
<!-- topo.transferfn.TransferFnWithRandomState&#45;&gt;topo.transferfn.HomeostaticMaxEnt -->
<g id="edge24" class="edge"><title>topo.transferfn.TransferFnWithRandomState&#45;&gt;topo.transferfn.HomeostaticMaxEnt</title>
<path fill="none" stroke="black" stroke-width="0.5" d="M876.318,-115.14C886.434,-114.349 896.625,-113.552 906.61,-112.771"/>
<polygon fill="black" stroke="black" points="906.962,-114.499 911.811,-112.365 906.69,-111.01 906.962,-114.499"/>
</g>
<!-- topo.transferfn.ScalingTF -->
<g id="node19" class="node"><title>topo.transferfn.ScalingTF</title>
<polygon fill="none" stroke="black" stroke-width="0.5" points="831,-96.5 695,-96.5 695,-75.5 831,-75.5 831,-96.5"/>
<text text-anchor="middle" x="763" y="-83.5" font-family="Vera" font-size="10.00">topo.transferfn.ScalingTF</text>
</g>
<!-- topo.transferfn.TransferFnWithState&#45;&gt;topo.transferfn.TransferFnWithRandomState -->
<g id="edge22" class="edge"><title>topo.transferfn.TransferFnWithState&#45;&gt;topo.transferfn.TransferFnWithRandomState</title>
<path fill="none" stroke="black" stroke-width="0.5" d="M582.145,-77.0334C592.93,-79.4678 603.887,-82.4281 614,-86 631.059,-92.0252 632.862,-99.2043 650,-105 659.147,-108.093 668.888,-110.697 678.669,-112.885"/>
<polygon fill="black" stroke="black" points="678.527,-114.644 683.784,-113.991 679.267,-111.224 678.527,-114.644"/>
</g>
<!-- topo.transferfn.TransferFnWithState&#45;&gt;topo.transferfn.ScalingTF -->
<g id="edge18" class="edge"><title>topo.transferfn.TransferFnWithState&#45;&gt;topo.transferfn.ScalingTF</title>
<path fill="none" stroke="black" stroke-width="0.5" d="M610.002,-74.1831C636.296,-76.2139 664.538,-78.3952 689.512,-80.3241"/>
<polygon fill="black" stroke="black" points="689.669,-82.0914 694.789,-80.7317 689.939,-78.6018 689.669,-82.0914"/>
</g>
<!-- topo.transferfn.ActivityAveragingTF -->
<g id="node30" class="node"><title>topo.transferfn.ActivityAveragingTF</title>
<polygon fill="none" stroke="black" stroke-width="0.5" points="854,-58.5 672,-58.5 672,-37.5 854,-37.5 854,-58.5"/>
<text text-anchor="middle" x="763" y="-45.5" font-family="Vera" font-size="10.00">topo.transferfn.ActivityAveragingTF</text>
</g>
<!-- topo.transferfn.TransferFnWithState&#45;&gt;topo.transferfn.ActivityAveragingTF -->
<g id="edge30" class="edge"><title>topo.transferfn.TransferFnWithState&#45;&gt;topo.transferfn.ActivityAveragingTF</title>
<path fill="none" stroke="black" stroke-width="0.5" d="M610.002,-59.8169C628.408,-58.3953 647.769,-56.8999 666.295,-55.4691"/>
<polygon fill="black" stroke="black" points="666.647,-57.1972 671.497,-55.0673 666.377,-53.7076 666.647,-57.1972"/>
</g>
<!-- topo.transferfn.Hysteresis -->
<g id="node32" class="node"><title>topo.transferfn.Hysteresis</title>
<polygon fill="none" stroke="black" stroke-width="0.5" points="833,-20.5 693,-20.5 693,0.5 833,0.5 833,-20.5"/>
<text text-anchor="middle" x="763" y="-7.5" font-family="Vera" font-size="10.00">topo.transferfn.Hysteresis</text>
</g>
<!-- topo.transferfn.TransferFnWithState&#45;&gt;topo.transferfn.Hysteresis -->
<g id="edge32" class="edge"><title>topo.transferfn.TransferFnWithState&#45;&gt;topo.transferfn.Hysteresis</title>
<path fill="none" stroke="black" stroke-width="0.5" d="M582.145,-56.9666C592.93,-54.5322 603.887,-51.5719 614,-48 631.059,-41.9748 632.862,-34.7957 650,-29 661.812,-25.0055 674.614,-21.828 687.213,-19.3069"/>
<polygon fill="black" stroke="black" points="687.641,-21.0066 692.217,-18.3373 686.975,-17.5705 687.641,-21.0066"/>
</g>
<!-- param.parameterized.Parameterized -->
<g id="node24" class="node"><title>param.parameterized.Parameterized</title>
<polygon fill="none" stroke="black" stroke-width="0.5" points="194,-191.5 5.68434e-14,-191.5 0,-170.5 194,-170.5 194,-191.5"/>
<text text-anchor="middle" x="97" y="-178.5" font-family="Vera" font-size="10.00">param.parameterized.Parameterized</text>
</g>
<!-- param.parameterized.Parameterized&#45;&gt;imagen.transferfn.TransferFn -->
<g id="edge28" class="edge"><title>param.parameterized.Parameterized&#45;&gt;imagen.transferfn.TransferFn</title>
<path fill="none" stroke="black" stroke-width="0.5" d="M194.009,-181C204.259,-181 214.611,-181 224.671,-181"/>
<polygon fill="black" stroke="black" points="224.903,-182.75 229.903,-181 224.903,-179.25 224.903,-182.75"/>
</g>
</g>
</svg>
