<?xml version="1.0" encoding="UTF-8" standalone="no"?>
<!DOCTYPE svg PUBLIC "-//W3C//DTD SVG 1.1//EN"
 "http://www.w3.org/Graphics/SVG/1.1/DTD/svg11.dtd">
<!-- Generated by graphviz version 2.26.3 (20100126.1600)
 -->
<!-- Title: inheritance15f48b3978 Pages: 1 -->
<svg width="860pt" height="142pt"
 viewBox="0.00 0.00 860.00 142.00" xmlns="http://www.w3.org/2000/svg" xmlns:xlink="http://www.w3.org/1999/xlink">
<g id="graph1" class="graph" transform="scale(1 1) rotate(0) translate(4 138)">
<title>inheritance15f48b3978</title>
<polygon fill="white" stroke="white" points="-4,5 -4,-138 857,-138 857,5 -4,5"/>
<!-- param.parameterized.Parameterized -->
<g id="node1" class="node"><title>param.parameterized.Parameterized</title>
<polygon fill="none" stroke="black" stroke-width="0.5" points="194,-96.5 5.68434e-14,-96.5 0,-75.5 194,-75.5 194,-96.5"/>
<text text-anchor="middle" x="97" y="-83.5" font-family="Vera" font-size="10.00">param.parameterized.Parameterized</text>
</g>
<!-- dataviews.views.Layout -->
<g id="node5" class="node"><title>dataviews.views.Layout</title>
<polygon fill="none" stroke="black" stroke-width="0.5" points="406,-134.5 278,-134.5 278,-113.5 406,-113.5 406,-134.5"/>
<text text-anchor="middle" x="342" y="-121.5" font-family="Vera" font-size="10.00">dataviews.views.Layout</text>
</g>
<!-- param.parameterized.Parameterized&#45;&gt;dataviews.views.Layout -->
<g id="edge4" class="edge"><title>param.parameterized.Parameterized&#45;&gt;dataviews.views.Layout</title>
<path fill="none" stroke="black" stroke-width="0.5" d="M161.691,-96.0338C195.878,-101.336 237.858,-107.847 272.708,-113.253"/>
<polygon fill="black" stroke="black" points="272.587,-115.005 277.796,-114.042 273.123,-111.546 272.587,-115.005"/>
</g>
<!-- dataviews.ndmapping.NdIndexableMapping -->
<g id="node7" class="node"><title>dataviews.ndmapping.NdIndexableMapping</title>
<polygon fill="none" stroke="black" stroke-width="0.5" points="454,-96.5 230,-96.5 230,-75.5 454,-75.5 454,-96.5"/>
<text text-anchor="middle" x="342" y="-83.5" font-family="Vera" font-size="10.00">dataviews.ndmapping.NdIndexableMapping</text>
</g>
<!-- param.parameterized.Parameterized&#45;&gt;dataviews.ndmapping.NdIndexableMapping -->
<g id="edge6" class="edge"><title>param.parameterized.Parameterized&#45;&gt;dataviews.ndmapping.NdIndexableMapping</title>
<path fill="none" stroke="black" stroke-width="0.5" d="M194.182,-86C204.286,-86 214.629,-86 224.922,-86"/>
<polygon fill="black" stroke="black" points="224.969,-87.7501 229.969,-86 224.969,-84.2501 224.969,-87.7501"/>
</g>
<!-- dataviews.views.View -->
<g id="node10" class="node"><title>dataviews.views.View</title>
<polygon fill="none" stroke="black" stroke-width="0.5" points="400,-58.5 284,-58.5 284,-37.5 400,-37.5 400,-58.5"/>
<text text-anchor="middle" x="342" y="-45.5" font-family="Vera" font-size="10.00">dataviews.views.View</text>
</g>
<!-- param.parameterized.Parameterized&#45;&gt;dataviews.views.View -->
<g id="edge12" class="edge"><title>param.parameterized.Parameterized&#45;&gt;dataviews.views.View</title>
<path fill="none" stroke="black" stroke-width="0.5" d="M161.691,-75.9662C197.635,-70.3914 242.193,-63.4803 278.021,-57.9232"/>
<polygon fill="black" stroke="black" points="278.569,-59.6092 283.242,-57.1135 278.033,-56.1506 278.569,-59.6092"/>
</g>
<!-- dataviews.views.GridLayout -->
<g id="node2" class="node"><title>dataviews.views.GridLayout</title>
<polygon fill="none" stroke="black" stroke-width="0.5" points="851,-96.5 705,-96.5 705,-75.5 851,-75.5 851,-96.5"/>
<text text-anchor="middle" x="778" y="-83.5" font-family="Vera" font-size="10.00">dataviews.views.GridLayout</text>
</g>
<!-- dataviews.ndmapping.NdMapping -->
<g id="node3" class="node"><title>dataviews.ndmapping.NdMapping</title>
<polygon fill="none" stroke="black" stroke-width="0.5" points="668,-96.5 490,-96.5 490,-75.5 668,-75.5 668,-96.5"/>
<text text-anchor="middle" x="579" y="-83.5" font-family="Vera" font-size="10.00">dataviews.ndmapping.NdMapping</text>
</g>
<!-- dataviews.ndmapping.NdMapping&#45;&gt;dataviews.views.GridLayout -->
<g id="edge2" class="edge"><title>dataviews.ndmapping.NdMapping&#45;&gt;dataviews.views.GridLayout</title>
<path fill="none" stroke="black" stroke-width="0.5" d="M668.023,-86C678.428,-86 688.988,-86 699.24,-86"/>
<polygon fill="black" stroke="black" points="699.247,-87.7501 704.247,-86 699.247,-84.2501 699.247,-87.7501"/>
</g>
<!-- dataviews.ndmapping.NdIndexableMapping&#45;&gt;dataviews.ndmapping.NdMapping -->
<g id="edge14" class="edge"><title>dataviews.ndmapping.NdIndexableMapping&#45;&gt;dataviews.ndmapping.NdMapping</title>
<path fill="none" stroke="black" stroke-width="0.5" d="M454.254,-86C464.442,-86 474.692,-86 484.701,-86"/>
<polygon fill="black" stroke="black" points="484.912,-87.7501 489.912,-86 484.912,-84.2501 484.912,-87.7501"/>
</g>
<!-- dataviews.views.Overlay -->
<g id="node9" class="node"><title>dataviews.views.Overlay</title>
<polygon fill="none" stroke="black" stroke-width="0.5" points="644,-58.5 514,-58.5 514,-37.5 644,-37.5 644,-58.5"/>
<text text-anchor="middle" x="579" y="-45.5" font-family="Vera" font-size="10.00">dataviews.views.Overlay</text>
</g>
<!-- dataviews.views.View&#45;&gt;dataviews.views.Overlay -->
<g id="edge8" class="edge"><title>dataviews.views.View&#45;&gt;dataviews.views.Overlay</title>
<path fill="none" stroke="black" stroke-width="0.5" d="M400.584,-48C433.116,-48 473.824,-48 508.137,-48"/>
<polygon fill="black" stroke="black" points="508.152,-49.7501 513.152,-48 508.152,-46.2501 508.152,-49.7501"/>
</g>
<!-- dataviews.views.Annotation -->
<g id="node12" class="node"><title>dataviews.views.Annotation</title>
<polygon fill="none" stroke="black" stroke-width="0.5" points="653,-20.5 505,-20.5 505,0.5 653,0.5 653,-20.5"/>
<text text-anchor="middle" x="579" y="-7.5" font-family="Vera" font-size="10.00">dataviews.views.Annotation</text>
</g>
<!-- dataviews.views.View&#45;&gt;dataviews.views.Annotation -->
<g id="edge10" class="edge"><title>dataviews.views.View&#45;&gt;dataviews.views.Annotation</title>
<path fill="none" stroke="black" stroke-width="0.5" d="M400.584,-38.6067C434.161,-33.2231 476.448,-26.443 511.424,-20.8349"/>
<polygon fill="black" stroke="black" points="511.87,-22.5359 516.53,-20.0163 511.316,-19.08 511.87,-22.5359"/>
</g>
</g>
</svg>
