<?xml version="1.0" encoding="UTF-8" standalone="no"?>
<!DOCTYPE svg PUBLIC "-//W3C//DTD SVG 1.1//EN"
 "http://www.w3.org/Graphics/SVG/1.1/DTD/svg11.dtd">
<!-- Generated by graphviz version 2.26.3 (20100126.1600)
 -->
<!-- Title: inheritance8ed98380c7 Pages: 1 -->
<svg width="750pt" height="180pt"
 viewBox="0.00 0.00 750.00 180.00" xmlns="http://www.w3.org/2000/svg" xmlns:xlink="http://www.w3.org/1999/xlink">
<g id="graph1" class="graph" transform="scale(1 1) rotate(0) translate(4 176)">
<title>inheritance8ed98380c7</title>
<polygon fill="white" stroke="white" points="-4,5 -4,-176 747,-176 747,5 -4,5"/>
<!-- topo.base.functionfamily.IdentityMF -->
<g id="node1" class="node"><title>topo.base.functionfamily.IdentityMF</title>
<polygon fill="none" stroke="black" stroke-width="0.5" points="714,-172.5 530,-172.5 530,-151.5 714,-151.5 714,-172.5"/>
<text text-anchor="middle" x="622" y="-159.5" font-family="Vera" font-size="10.00">topo.base.functionfamily.IdentityMF</text>
</g>
<!-- topo.base.functionfamily.CoordinateMapperFn -->
<g id="node2" class="node"><title>topo.base.functionfamily.CoordinateMapperFn</title>
<polygon fill="none" stroke="black" stroke-width="0.5" points="466,-172.5 230,-172.5 230,-151.5 466,-151.5 466,-172.5"/>
<text text-anchor="middle" x="348" y="-159.5" font-family="Vera" font-size="10.00">topo.base.functionfamily.CoordinateMapperFn</text>
</g>
<!-- topo.base.functionfamily.CoordinateMapperFn&#45;&gt;topo.base.functionfamily.IdentityMF -->
<g id="edge2" class="edge"><title>topo.base.functionfamily.CoordinateMapperFn&#45;&gt;topo.base.functionfamily.IdentityMF</title>
<path fill="none" stroke="black" stroke-width="0.5" d="M466.189,-162C485.518,-162 505.357,-162 524.126,-162"/>
<polygon fill="black" stroke="black" points="524.39,-163.75 529.39,-162 524.39,-160.25 524.39,-163.75"/>
</g>
<!-- topo.base.functionfamily.ResponseFn -->
<g id="node4" class="node"><title>topo.base.functionfamily.ResponseFn</title>
<polygon fill="none" stroke="black" stroke-width="0.5" points="444,-134.5 252,-134.5 252,-113.5 444,-113.5 444,-134.5"/>
<text text-anchor="middle" x="348" y="-121.5" font-family="Vera" font-size="10.00">topo.base.functionfamily.ResponseFn</text>
</g>
<!-- topo.base.functionfamily.DotProduct -->
<g id="node17" class="node"><title>topo.base.functionfamily.DotProduct</title>
<polygon fill="none" stroke="black" stroke-width="0.5" points="717,-134.5 527,-134.5 527,-113.5 717,-113.5 717,-134.5"/>
<text text-anchor="middle" x="622" y="-121.5" font-family="Vera" font-size="10.00">topo.base.functionfamily.DotProduct</text>
</g>
<!-- topo.base.functionfamily.ResponseFn&#45;&gt;topo.base.functionfamily.DotProduct -->
<g id="edge16" class="edge"><title>topo.base.functionfamily.ResponseFn&#45;&gt;topo.base.functionfamily.DotProduct</title>
<path fill="none" stroke="black" stroke-width="0.5" d="M444.602,-124C469.591,-124 496.549,-124 521.722,-124"/>
<polygon fill="black" stroke="black" points="521.731,-125.75 526.731,-124 521.731,-122.25 521.731,-125.75"/>
</g>
<!-- param.parameterized.Parameterized -->
<g id="node5" class="node"><title>param.parameterized.Parameterized</title>
<polygon fill="none" stroke="black" stroke-width="0.5" points="194,-115.5 5.68434e-14,-115.5 0,-94.5 194,-94.5 194,-115.5"/>
<text text-anchor="middle" x="97" y="-102.5" font-family="Vera" font-size="10.00">param.parameterized.Parameterized</text>
</g>
<!-- param.parameterized.Parameterized&#45;&gt;topo.base.functionfamily.CoordinateMapperFn -->
<g id="edge6" class="edge"><title>param.parameterized.Parameterized&#45;&gt;topo.base.functionfamily.CoordinateMapperFn</title>
<path fill="none" stroke="black" stroke-width="0.5" d="M128.172,-115.042C154.956,-123.396 194.722,-135.149 230,-143 243.439,-145.991 257.839,-148.708 271.798,-151.092"/>
<polygon fill="black" stroke="black" points="271.697,-152.849 276.919,-151.955 272.279,-149.398 271.697,-152.849"/>
</g>
<!-- param.parameterized.Parameterized&#45;&gt;topo.base.functionfamily.ResponseFn -->
<g id="edge4" class="edge"><title>param.parameterized.Parameterized&#45;&gt;topo.base.functionfamily.ResponseFn</title>
<path fill="none" stroke="black" stroke-width="0.5" d="M194.043,-112.346C211.046,-113.633 228.784,-114.976 245.918,-116.273"/>
<polygon fill="black" stroke="black" points="246.097,-118.041 251.215,-116.674 246.361,-114.551 246.097,-118.041"/>
</g>
<!-- topo.base.functionfamily.LearningFn -->
<g id="node8" class="node"><title>topo.base.functionfamily.LearningFn</title>
<polygon fill="none" stroke="black" stroke-width="0.5" points="442,-96.5 254,-96.5 254,-75.5 442,-75.5 442,-96.5"/>
<text text-anchor="middle" x="348" y="-83.5" font-family="Vera" font-size="10.00">topo.base.functionfamily.LearningFn</text>
</g>
<!-- param.parameterized.Parameterized&#45;&gt;topo.base.functionfamily.LearningFn -->
<g id="edge8" class="edge"><title>param.parameterized.Parameterized&#45;&gt;topo.base.functionfamily.LearningFn</title>
<path fill="none" stroke="black" stroke-width="0.5" d="M194.043,-97.6541C211.949,-96.2987 230.67,-94.8815 248.643,-93.521"/>
<polygon fill="black" stroke="black" points="248.838,-95.2614 253.692,-93.1389 248.574,-91.7714 248.838,-95.2614"/>
</g>
<!-- param.parameterized.ParameterizedFunction -->
<g id="node13" class="node"><title>param.parameterized.ParameterizedFunction</title>
<polygon fill="none" stroke="black" stroke-width="0.5" points="465,-39.5 231,-39.5 231,-18.5 465,-18.5 465,-39.5"/>
<text text-anchor="middle" x="348" y="-26.5" font-family="Vera" font-size="10.00">param.parameterized.ParameterizedFunction</text>
</g>
<!-- param.parameterized.Parameterized&#45;&gt;param.parameterized.ParameterizedFunction -->
<g id="edge18" class="edge"><title>param.parameterized.Parameterized&#45;&gt;param.parameterized.ParameterizedFunction</title>
<path fill="none" stroke="black" stroke-width="0.5" d="M130.072,-94.9862C176.533,-80.9184 260.917,-55.3679 309.933,-40.5263"/>
<polygon fill="black" stroke="black" points="310.577,-42.16 314.855,-39.036 309.562,-38.8101 310.577,-42.16"/>
</g>
<!-- topo.base.functionfamily.Hebbian -->
<g id="node10" class="node"><title>topo.base.functionfamily.Hebbian</title>
<polygon fill="none" stroke="black" stroke-width="0.5" points="710,-96.5 534,-96.5 534,-75.5 710,-75.5 710,-96.5"/>
<text text-anchor="middle" x="622" y="-83.5" font-family="Vera" font-size="10.00">topo.base.functionfamily.Hebbian</text>
</g>
<!-- topo.base.functionfamily.LearningFn&#45;&gt;topo.base.functionfamily.Hebbian -->
<g id="edge10" class="edge"><title>topo.base.functionfamily.LearningFn&#45;&gt;topo.base.functionfamily.Hebbian</title>
<path fill="none" stroke="black" stroke-width="0.5" d="M442.295,-86C470.276,-86 500.897,-86 528.807,-86"/>
<polygon fill="black" stroke="black" points="528.985,-87.7501 533.985,-86 528.985,-84.2501 528.985,-87.7501"/>
</g>
<!-- topo.base.functionfamily.IdentityLF -->
<g id="node15" class="node"><title>topo.base.functionfamily.IdentityLF</title>
<polygon fill="none" stroke="black" stroke-width="0.5" points="713,-58.5 531,-58.5 531,-37.5 713,-37.5 713,-58.5"/>
<text text-anchor="middle" x="622" y="-45.5" font-family="Vera" font-size="10.00">topo.base.functionfamily.IdentityLF</text>
</g>
<!-- topo.base.functionfamily.LearningFn&#45;&gt;topo.base.functionfamily.IdentityLF -->
<g id="edge14" class="edge"><title>topo.base.functionfamily.LearningFn&#45;&gt;topo.base.functionfamily.IdentityLF</title>
<path fill="none" stroke="black" stroke-width="0.5" d="M420.349,-75.9662C458.587,-70.6631 505.544,-64.1509 544.521,-58.7453"/>
<polygon fill="black" stroke="black" points="545.009,-60.4444 549.721,-58.024 544.528,-56.9776 545.009,-60.4444"/>
</g>
<!-- topo.base.functionfamily.PatternDrivenAnalysis -->
<g id="node12" class="node"><title>topo.base.functionfamily.PatternDrivenAnalysis</title>
<polygon fill="none" stroke="black" stroke-width="0.5" points="742,-20.5 502,-20.5 502,0.5 742,0.5 742,-20.5"/>
<text text-anchor="middle" x="622" y="-7.5" font-family="Vera" font-size="10.00">topo.base.functionfamily.PatternDrivenAnalysis</text>
</g>
<!-- param.parameterized.ParameterizedFunction&#45;&gt;topo.base.functionfamily.PatternDrivenAnalysis -->
<g id="edge12" class="edge"><title>param.parameterized.ParameterizedFunction&#45;&gt;topo.base.functionfamily.PatternDrivenAnalysis</title>
<path fill="none" stroke="black" stroke-width="0.5" d="M465.393,-20.8596C475.753,-20.1412 486.267,-19.4122 496.689,-18.6894"/>
<polygon fill="black" stroke="black" points="496.93,-20.427 501.797,-18.3352 496.688,-16.9354 496.93,-20.427"/>
</g>
</g>
</svg>
