<?xml version="1.0" encoding="UTF-8" standalone="no"?>
<!DOCTYPE svg PUBLIC "-//W3C//DTD SVG 1.1//EN"
 "http://www.w3.org/Graphics/SVG/1.1/DTD/svg11.dtd">
<!-- Generated by graphviz version 2.26.3 (20100126.1600)
 -->
<!-- Title: inheritance0f827376bc Pages: 1 -->
<svg width="2286pt" height="332pt"
 viewBox="0.00 0.00 2286.00 332.00" xmlns="http://www.w3.org/2000/svg" xmlns:xlink="http://www.w3.org/1999/xlink">
<g id="graph1" class="graph" transform="scale(1 1) rotate(0) translate(4 328)">
<title>inheritance0f827376bc</title>
<polygon fill="white" stroke="white" points="-4,5 -4,-328 2283,-328 2283,5 -4,5"/>
<!-- topo.analysis.featureresponses.Feature -->
<g id="node1" class="node"><title>topo.analysis.featureresponses.Feature</title>
<polygon fill="none" stroke="black" stroke-width="0.5" points="544,-191.5 338,-191.5 338,-170.5 544,-170.5 544,-191.5"/>
<text text-anchor="middle" x="441" y="-178.5" font-family="Vera" font-size="10.00">topo.analysis.featureresponses.Feature</text>
</g>
<!-- param.parameterized.Parameterized -->
<g id="node2" class="node"><title>param.parameterized.Parameterized</title>
<polygon fill="none" stroke="black" stroke-width="0.5" points="236,-115.5 42,-115.5 42,-94.5 236,-94.5 236,-115.5"/>
<text text-anchor="middle" x="139" y="-102.5" font-family="Vera" font-size="10.00">param.parameterized.Parameterized</text>
</g>
<!-- param.parameterized.Parameterized&#45;&gt;topo.analysis.featureresponses.Feature -->
<g id="edge2" class="edge"><title>param.parameterized.Parameterized&#45;&gt;topo.analysis.featureresponses.Feature</title>
<path fill="none" stroke="black" stroke-width="0.5" d="M236.175,-109.703C250.698,-112.816 265.107,-117.383 278,-124 298.698,-134.622 293.37,-151.247 314,-162 319.987,-165.12 326.334,-167.768 332.873,-170.012"/>
<polygon fill="black" stroke="black" points="332.611,-171.767 337.907,-171.65 333.694,-168.439 332.611,-171.767"/>
</g>
<!-- param.parameterized.ParameterizedFunction -->
<g id="node5" class="node"><title>param.parameterized.ParameterizedFunction</title>
<polygon fill="none" stroke="black" stroke-width="0.5" points="558,-153.5 324,-153.5 324,-132.5 558,-132.5 558,-153.5"/>
<text text-anchor="middle" x="441" y="-140.5" font-family="Vera" font-size="10.00">param.parameterized.ParameterizedFunction</text>
</g>
<!-- param.parameterized.Parameterized&#45;&gt;param.parameterized.ParameterizedFunction -->
<g id="edge12" class="edge"><title>param.parameterized.Parameterized&#45;&gt;param.parameterized.ParameterizedFunction</title>
<path fill="none" stroke="black" stroke-width="0.5" d="M218.742,-115.034C261.06,-120.358 313.065,-126.902 356.129,-132.321"/>
<polygon fill="black" stroke="black" points="356.156,-134.088 361.335,-132.976 356.593,-130.615 356.156,-134.088"/>
</g>
<!-- topo.analysis.featureresponses.Subplotting -->
<g id="node34" class="node"><title>topo.analysis.featureresponses.Subplotting</title>
<polygon fill="none" stroke="black" stroke-width="0.5" points="553,-115.5 329,-115.5 329,-94.5 553,-94.5 553,-115.5"/>
<text text-anchor="middle" x="441" y="-102.5" font-family="Vera" font-size="10.00">topo.analysis.featureresponses.Subplotting</text>
</g>
<!-- param.parameterized.Parameterized&#45;&gt;topo.analysis.featureresponses.Subplotting -->
<g id="edge32" class="edge"><title>param.parameterized.Parameterized&#45;&gt;topo.analysis.featureresponses.Subplotting</title>
<path fill="none" stroke="black" stroke-width="0.5" d="M236.217,-105C264.172,-105 294.955,-105 323.973,-105"/>
<polygon fill="black" stroke="black" points="323.991,-106.75 328.991,-105 323.991,-103.25 323.991,-106.75"/>
</g>
<!-- topo.analysis.featureresponses.DistributionMatrix -->
<g id="node38" class="node"><title>topo.analysis.featureresponses.DistributionMatrix</title>
<polygon fill="none" stroke="black" stroke-width="0.5" points="568,-77.5 314,-77.5 314,-56.5 568,-56.5 568,-77.5"/>
<text text-anchor="middle" x="441" y="-64.5" font-family="Vera" font-size="10.00">topo.analysis.featureresponses.DistributionMatrix</text>
</g>
<!-- param.parameterized.Parameterized&#45;&gt;topo.analysis.featureresponses.DistributionMatrix -->
<g id="edge36" class="edge"><title>param.parameterized.Parameterized&#45;&gt;topo.analysis.featureresponses.DistributionMatrix</title>
<path fill="none" stroke="black" stroke-width="0.5" d="M218.742,-94.9662C261.06,-89.6415 313.065,-83.0977 356.129,-77.6791"/>
<polygon fill="black" stroke="black" points="356.593,-79.3847 361.335,-77.024 356.156,-75.912 356.593,-79.3847"/>
</g>
<!-- topo.analysis.featureresponses.FullMatrix -->
<g id="node49" class="node"><title>topo.analysis.featureresponses.FullMatrix</title>
<polygon fill="none" stroke="black" stroke-width="0.5" points="548,-39.5 334,-39.5 334,-18.5 548,-18.5 548,-39.5"/>
<text text-anchor="middle" x="441" y="-26.5" font-family="Vera" font-size="10.00">topo.analysis.featureresponses.FullMatrix</text>
</g>
<!-- param.parameterized.Parameterized&#45;&gt;topo.analysis.featureresponses.FullMatrix -->
<g id="edge48" class="edge"><title>param.parameterized.Parameterized&#45;&gt;topo.analysis.featureresponses.FullMatrix</title>
<path fill="none" stroke="black" stroke-width="0.5" d="M165.292,-94.913C199.194,-82.2616 260.198,-60.6933 314,-48 327.238,-44.8769 341.379,-42.1632 355.24,-39.8413"/>
<polygon fill="black" stroke="black" points="355.683,-41.5421 360.333,-39.0035 355.115,-38.0885 355.683,-41.5421"/>
</g>
<!-- topo.analysis.featureresponses.hue2rgbscale -->
<g id="node4" class="node"><title>topo.analysis.featureresponses.hue2rgbscale</title>
<polygon fill="none" stroke="black" stroke-width="0.5" points="878,-286.5 644,-286.5 644,-265.5 878,-265.5 878,-286.5"/>
<text text-anchor="middle" x="761" y="-273.5" font-family="Vera" font-size="10.00">topo.analysis.featureresponses.hue2rgbscale</text>
</g>
<!-- param.parameterized.ParameterizedFunction&#45;&gt;topo.analysis.featureresponses.hue2rgbscale -->
<g id="edge4" class="edge"><title>param.parameterized.ParameterizedFunction&#45;&gt;topo.analysis.featureresponses.hue2rgbscale</title>
<path fill="none" stroke="black" stroke-width="0.5" d="M554.301,-153.101C559.146,-155.626 563.748,-158.572 568,-162 603.151,-190.34 568.455,-229.156 604,-257 614.304,-265.071 626.214,-270.796 638.776,-274.767"/>
<polygon fill="black" stroke="black" points="638.52,-276.516 643.811,-276.257 639.513,-273.16 638.52,-276.516"/>
</g>
<!-- topo.base.functionfamily.PatternDrivenAnalysis -->
<g id="node8" class="node"><title>topo.base.functionfamily.PatternDrivenAnalysis</title>
<polygon fill="none" stroke="black" stroke-width="0.5" points="881,-248.5 641,-248.5 641,-227.5 881,-227.5 881,-248.5"/>
<text text-anchor="middle" x="761" y="-235.5" font-family="Vera" font-size="10.00">topo.base.functionfamily.PatternDrivenAnalysis</text>
</g>
<!-- param.parameterized.ParameterizedFunction&#45;&gt;topo.base.functionfamily.PatternDrivenAnalysis -->
<g id="edge28" class="edge"><title>param.parameterized.ParameterizedFunction&#45;&gt;topo.base.functionfamily.PatternDrivenAnalysis</title>
<path fill="none" stroke="black" stroke-width="0.5" d="M551.02,-153.122C556.968,-155.595 562.678,-158.529 568,-162 593.096,-178.37 578.677,-202.984 604,-219 613.847,-225.228 624.744,-229.914 636.072,-233.396"/>
<polygon fill="black" stroke="black" points="635.662,-235.1 640.951,-234.817 636.64,-231.739 635.662,-235.1"/>
</g>
<!-- topo.analysis.featureresponses.direction2translation -->
<g id="node10" class="node"><title>topo.analysis.featureresponses.direction2translation</title>
<polygon fill="none" stroke="black" stroke-width="0.5" points="895,-210.5 627,-210.5 627,-189.5 895,-189.5 895,-210.5"/>
<text text-anchor="middle" x="761" y="-197.5" font-family="Vera" font-size="10.00">topo.analysis.featureresponses.direction2translation</text>
</g>
<!-- param.parameterized.ParameterizedFunction&#45;&gt;topo.analysis.featureresponses.direction2translation -->
<g id="edge8" class="edge"><title>param.parameterized.ParameterizedFunction&#45;&gt;topo.analysis.featureresponses.direction2translation</title>
<path fill="none" stroke="black" stroke-width="0.5" d="M533.085,-153.013C544.978,-155.399 556.879,-158.351 568,-162 585.19,-167.641 586.733,-175.601 604,-181 614.112,-184.162 624.744,-186.802 635.507,-189.006"/>
<polygon fill="black" stroke="black" points="635.216,-190.732 640.461,-189.988 635.897,-187.299 635.216,-190.732"/>
</g>
<!-- topo.analysis.featureresponses.PatternPresentingCommand -->
<g id="node20" class="node"><title>topo.analysis.featureresponses.PatternPresentingCommand</title>
<polygon fill="none" stroke="black" stroke-width="0.5" points="913,-172.5 609,-172.5 609,-151.5 913,-151.5 913,-172.5"/>
<text text-anchor="middle" x="761" y="-159.5" font-family="Vera" font-size="10.00">topo.analysis.featureresponses.PatternPresentingCommand</text>
</g>
<!-- param.parameterized.ParameterizedFunction&#45;&gt;topo.analysis.featureresponses.PatternPresentingCommand -->
<g id="edge22" class="edge"><title>param.parameterized.ParameterizedFunction&#45;&gt;topo.analysis.featureresponses.PatternPresentingCommand</title>
<path fill="none" stroke="black" stroke-width="0.5" d="M558.339,-149.967C573.003,-150.838 588.182,-151.739 603.334,-152.639"/>
<polygon fill="black" stroke="black" points="603.375,-154.394 608.47,-152.944 603.583,-150.9 603.375,-154.394"/>
</g>
<!-- topo.analysis.featureresponses.phasedisparity2leftrightphase -->
<g id="node24" class="node"><title>topo.analysis.featureresponses.phasedisparity2leftrightphase</title>
<polygon fill="none" stroke="black" stroke-width="0.5" points="916,-134.5 606,-134.5 606,-113.5 916,-113.5 916,-134.5"/>
<text text-anchor="middle" x="761" y="-121.5" font-family="Vera" font-size="10.00">topo.analysis.featureresponses.phasedisparity2leftrightphase</text>
</g>
<!-- param.parameterized.ParameterizedFunction&#45;&gt;topo.analysis.featureresponses.phasedisparity2leftrightphase -->
<g id="edge20" class="edge"><title>param.parameterized.ParameterizedFunction&#45;&gt;topo.analysis.featureresponses.phasedisparity2leftrightphase</title>
<path fill="none" stroke="black" stroke-width="0.5" d="M558.339,-136.033C572.002,-135.222 586.112,-134.384 600.23,-133.546"/>
<polygon fill="black" stroke="black" points="600.543,-135.28 605.431,-133.237 600.336,-131.786 600.543,-135.28"/>
</g>
<!-- topo.analysis.featureresponses.ocular2leftrightscale -->
<g id="node29" class="node"><title>topo.analysis.featureresponses.ocular2leftrightscale</title>
<polygon fill="none" stroke="black" stroke-width="0.5" points="894,-96.5 628,-96.5 628,-75.5 894,-75.5 894,-96.5"/>
<text text-anchor="middle" x="761" y="-83.5" font-family="Vera" font-size="10.00">topo.analysis.featureresponses.ocular2leftrightscale</text>
</g>
<!-- param.parameterized.ParameterizedFunction&#45;&gt;topo.analysis.featureresponses.ocular2leftrightscale -->
<g id="edge26" class="edge"><title>param.parameterized.ParameterizedFunction&#45;&gt;topo.analysis.featureresponses.ocular2leftrightscale</title>
<path fill="none" stroke="black" stroke-width="0.5" d="M533.085,-132.987C544.978,-130.601 556.879,-127.649 568,-124 585.19,-118.359 586.733,-110.399 604,-105 614.112,-101.838 624.744,-99.198 635.507,-96.9939"/>
<polygon fill="black" stroke="black" points="635.897,-98.7008 640.461,-96.0115 635.216,-95.2677 635.897,-98.7008"/>
</g>
<!-- topo.analysis.featureresponses.contrast2scale -->
<g id="node32" class="node"><title>topo.analysis.featureresponses.contrast2scale</title>
<polygon fill="none" stroke="black" stroke-width="0.5" points="881,-58.5 641,-58.5 641,-37.5 881,-37.5 881,-58.5"/>
<text text-anchor="middle" x="761" y="-45.5" font-family="Vera" font-size="10.00">topo.analysis.featureresponses.contrast2scale</text>
</g>
<!-- param.parameterized.ParameterizedFunction&#45;&gt;topo.analysis.featureresponses.contrast2scale -->
<g id="edge30" class="edge"><title>param.parameterized.ParameterizedFunction&#45;&gt;topo.analysis.featureresponses.contrast2scale</title>
<path fill="none" stroke="black" stroke-width="0.5" d="M551.02,-132.878C556.968,-130.405 562.678,-127.471 568,-124 593.096,-107.63 578.677,-83.0162 604,-67 613.847,-60.7718 624.744,-56.0865 636.072,-52.6035"/>
<polygon fill="black" stroke="black" points="636.64,-54.261 640.951,-51.1834 635.662,-50.9004 636.64,-54.261"/>
</g>
<!-- topo.analysis.featureresponses.contrast2centersurroundscale -->
<g id="node43" class="node"><title>topo.analysis.featureresponses.contrast2centersurroundscale</title>
<polygon fill="none" stroke="black" stroke-width="0.5" points="918,-20.5 604,-20.5 604,0.5 918,0.5 918,-20.5"/>
<text text-anchor="middle" x="761" y="-7.5" font-family="Vera" font-size="10.00">topo.analysis.featureresponses.contrast2centersurroundscale</text>
</g>
<!-- param.parameterized.ParameterizedFunction&#45;&gt;topo.analysis.featureresponses.contrast2centersurroundscale -->
<g id="edge42" class="edge"><title>param.parameterized.ParameterizedFunction&#45;&gt;topo.analysis.featureresponses.contrast2centersurroundscale</title>
<path fill="none" stroke="black" stroke-width="0.5" d="M554.301,-132.899C559.146,-130.374 563.748,-127.428 568,-124 603.151,-95.66 568.455,-56.8438 604,-29 606.972,-26.672 610.077,-24.5392 613.294,-22.5875"/>
<polygon fill="black" stroke="black" points="614.278,-24.0408 617.746,-20.0369 612.538,-21.0038 614.278,-24.0408"/>
</g>
<!-- topo.analysis.featureresponses.FeatureResponses -->
<g id="node7" class="node"><title>topo.analysis.featureresponses.FeatureResponses</title>
<polygon fill="none" stroke="black" stroke-width="0.5" points="1236,-267.5 980,-267.5 980,-246.5 1236,-246.5 1236,-267.5"/>
<text text-anchor="middle" x="1108" y="-254.5" font-family="Vera" font-size="10.00">topo.analysis.featureresponses.FeatureResponses</text>
</g>
<!-- topo.analysis.featureresponses.ReverseCorrelation -->
<g id="node27" class="node"><title>topo.analysis.featureresponses.ReverseCorrelation</title>
<polygon fill="none" stroke="black" stroke-width="0.5" points="1606,-324.5 1346,-324.5 1346,-303.5 1606,-303.5 1606,-324.5"/>
<text text-anchor="middle" x="1476" y="-311.5" font-family="Vera" font-size="10.00">topo.analysis.featureresponses.ReverseCorrelation</text>
</g>
<!-- topo.analysis.featureresponses.FeatureResponses&#45;&gt;topo.analysis.featureresponses.ReverseCorrelation -->
<g id="edge24" class="edge"><title>topo.analysis.featureresponses.FeatureResponses&#45;&gt;topo.analysis.featureresponses.ReverseCorrelation</title>
<path fill="none" stroke="black" stroke-width="0.5" d="M1152.33,-267.056C1190.71,-275.475 1247.79,-287.315 1298,-295 1318.62,-298.156 1340.66,-300.963 1361.97,-303.387"/>
<polygon fill="black" stroke="black" points="1361.91,-305.142 1367.07,-303.963 1362.3,-301.664 1361.91,-305.142"/>
</g>
<!-- topo.analysis.featureresponses.FeatureCurves -->
<g id="node45" class="node"><title>topo.analysis.featureresponses.FeatureCurves</title>
<polygon fill="none" stroke="black" stroke-width="0.5" points="1595,-286.5 1357,-286.5 1357,-265.5 1595,-265.5 1595,-286.5"/>
<text text-anchor="middle" x="1476" y="-273.5" font-family="Vera" font-size="10.00">topo.analysis.featureresponses.FeatureCurves</text>
</g>
<!-- topo.analysis.featureresponses.FeatureResponses&#45;&gt;topo.analysis.featureresponses.FeatureCurves -->
<g id="edge44" class="edge"><title>topo.analysis.featureresponses.FeatureResponses&#45;&gt;topo.analysis.featureresponses.FeatureCurves</title>
<path fill="none" stroke="black" stroke-width="0.5" d="M1236.71,-263.645C1273.75,-265.558 1314.09,-267.64 1350.9,-269.541"/>
<polygon fill="black" stroke="black" points="1351.23,-271.31 1356.31,-269.82 1351.41,-267.815 1351.23,-271.31"/>
</g>
<!-- topo.analysis.featureresponses.FeatureMaps -->
<g id="node47" class="node"><title>topo.analysis.featureresponses.FeatureMaps</title>
<polygon fill="none" stroke="black" stroke-width="0.5" points="1591,-248.5 1361,-248.5 1361,-227.5 1591,-227.5 1591,-248.5"/>
<text text-anchor="middle" x="1476" y="-235.5" font-family="Vera" font-size="10.00">topo.analysis.featureresponses.FeatureMaps</text>
</g>
<!-- topo.analysis.featureresponses.FeatureResponses&#45;&gt;topo.analysis.featureresponses.FeatureMaps -->
<g id="edge46" class="edge"><title>topo.analysis.featureresponses.FeatureResponses&#45;&gt;topo.analysis.featureresponses.FeatureMaps</title>
<path fill="none" stroke="black" stroke-width="0.5" d="M1236.71,-250.355C1275.19,-248.368 1317.23,-246.197 1355.19,-244.238"/>
<polygon fill="black" stroke="black" points="1355.37,-245.981 1360.27,-243.975 1355.19,-242.485 1355.37,-245.981"/>
</g>
<!-- topo.base.functionfamily.PatternDrivenAnalysis&#45;&gt;topo.analysis.featureresponses.FeatureResponses -->
<g id="edge6" class="edge"><title>topo.base.functionfamily.PatternDrivenAnalysis&#45;&gt;topo.analysis.featureresponses.FeatureResponses</title>
<path fill="none" stroke="black" stroke-width="0.5" d="M881.39,-244.592C911.274,-246.228 943.485,-247.992 973.977,-249.662"/>
<polygon fill="black" stroke="black" points="974.163,-251.424 979.251,-249.95 974.355,-247.93 974.163,-251.424"/>
</g>
<!-- topo.analysis.featureresponses.FeatureCurveCommand -->
<g id="node12" class="node"><title>topo.analysis.featureresponses.FeatureCurveCommand</title>
<polygon fill="none" stroke="black" stroke-width="0.5" points="1974,-210.5 1690,-210.5 1690,-189.5 1974,-189.5 1974,-210.5"/>
<text text-anchor="middle" x="1832" y="-197.5" font-family="Vera" font-size="10.00">topo.analysis.featureresponses.FeatureCurveCommand</text>
</g>
<!-- topo.analysis.featureresponses.UnitCurveCommand -->
<g id="node36" class="node"><title>topo.analysis.featureresponses.UnitCurveCommand</title>
<polygon fill="none" stroke="black" stroke-width="0.5" points="2277,-210.5 2011,-210.5 2011,-189.5 2277,-189.5 2277,-210.5"/>
<text text-anchor="middle" x="2144" y="-197.5" font-family="Vera" font-size="10.00">topo.analysis.featureresponses.UnitCurveCommand</text>
</g>
<!-- topo.analysis.featureresponses.FeatureCurveCommand&#45;&gt;topo.analysis.featureresponses.UnitCurveCommand -->
<g id="edge34" class="edge"><title>topo.analysis.featureresponses.FeatureCurveCommand&#45;&gt;topo.analysis.featureresponses.UnitCurveCommand</title>
<path fill="none" stroke="black" stroke-width="0.5" d="M1974.3,-200C1984.43,-200 1994.64,-200 2004.75,-200"/>
<polygon fill="black" stroke="black" points="2005.03,-201.75 2010.03,-200 2005.03,-198.25 2005.03,-201.75"/>
</g>
<!-- topo.analysis.featureresponses.SinusoidalMeasureResponseCommand -->
<g id="node13" class="node"><title>topo.analysis.featureresponses.SinusoidalMeasureResponseCommand</title>
<polygon fill="none" stroke="black" stroke-width="0.5" points="1654,-210.5 1298,-210.5 1298,-189.5 1654,-189.5 1654,-210.5"/>
<text text-anchor="middle" x="1476" y="-197.5" font-family="Vera" font-size="10.00">topo.analysis.featureresponses.SinusoidalMeasureResponseCommand</text>
</g>
<!-- topo.analysis.featureresponses.SinusoidalMeasureResponseCommand&#45;&gt;topo.analysis.featureresponses.FeatureCurveCommand -->
<g id="edge10" class="edge"><title>topo.analysis.featureresponses.SinusoidalMeasureResponseCommand&#45;&gt;topo.analysis.featureresponses.FeatureCurveCommand</title>
<path fill="none" stroke="black" stroke-width="0.5" d="M1654,-200C1664.21,-200 1674.43,-200 1684.51,-200"/>
<polygon fill="black" stroke="black" points="1684.76,-201.75 1689.76,-200 1684.76,-198.25 1684.76,-201.75"/>
</g>
<!-- topo.analysis.featureresponses.MeasurementInterrupt -->
<g id="node15" class="node"><title>topo.analysis.featureresponses.MeasurementInterrupt</title>
<polygon fill="none" stroke="black" stroke-width="0.5" points="278,-153.5 1.13687e-13,-153.5 0,-132.5 278,-132.5 278,-153.5"/>
<text text-anchor="middle" x="139" y="-140.5" font-family="Vera" font-size="10.00">topo.analysis.featureresponses.MeasurementInterrupt</text>
</g>
<!-- topo.analysis.featureresponses.MeasureResponseCommand -->
<g id="node17" class="node"><title>topo.analysis.featureresponses.MeasureResponseCommand</title>
<polygon fill="none" stroke="black" stroke-width="0.5" points="1261,-172.5 955,-172.5 955,-151.5 1261,-151.5 1261,-172.5"/>
<text text-anchor="middle" x="1108" y="-159.5" font-family="Vera" font-size="10.00">topo.analysis.featureresponses.MeasureResponseCommand</text>
</g>
<!-- topo.analysis.featureresponses.MeasureResponseCommand&#45;&gt;topo.analysis.featureresponses.SinusoidalMeasureResponseCommand -->
<g id="edge14" class="edge"><title>topo.analysis.featureresponses.MeasureResponseCommand&#45;&gt;topo.analysis.featureresponses.SinusoidalMeasureResponseCommand</title>
<path fill="none" stroke="black" stroke-width="0.5" d="M1205.17,-172.034C1257.15,-177.402 1321.14,-184.009 1373.86,-189.453"/>
<polygon fill="black" stroke="black" points="1373.77,-191.203 1378.93,-189.976 1374.13,-187.722 1373.77,-191.203"/>
</g>
<!-- topo.analysis.featureresponses.PositionMeasurementCommand -->
<g id="node22" class="node"><title>topo.analysis.featureresponses.PositionMeasurementCommand</title>
<polygon fill="none" stroke="black" stroke-width="0.5" points="1638,-172.5 1314,-172.5 1314,-151.5 1638,-151.5 1638,-172.5"/>
<text text-anchor="middle" x="1476" y="-159.5" font-family="Vera" font-size="10.00">topo.analysis.featureresponses.PositionMeasurementCommand</text>
</g>
<!-- topo.analysis.featureresponses.MeasureResponseCommand&#45;&gt;topo.analysis.featureresponses.PositionMeasurementCommand -->
<g id="edge18" class="edge"><title>topo.analysis.featureresponses.MeasureResponseCommand&#45;&gt;topo.analysis.featureresponses.PositionMeasurementCommand</title>
<path fill="none" stroke="black" stroke-width="0.5" d="M1261.67,-162C1277.16,-162 1292.95,-162 1308.58,-162"/>
<polygon fill="black" stroke="black" points="1308.87,-163.75 1313.87,-162 1308.87,-160.25 1308.87,-163.75"/>
</g>
<!-- topo.analysis.featureresponses.SingleInputResponseCommand -->
<g id="node51" class="node"><title>topo.analysis.featureresponses.SingleInputResponseCommand</title>
<polygon fill="none" stroke="black" stroke-width="0.5" points="1635,-134.5 1317,-134.5 1317,-113.5 1635,-113.5 1635,-134.5"/>
<text text-anchor="middle" x="1476" y="-121.5" font-family="Vera" font-size="10.00">topo.analysis.featureresponses.SingleInputResponseCommand</text>
</g>
<!-- topo.analysis.featureresponses.MeasureResponseCommand&#45;&gt;topo.analysis.featureresponses.SingleInputResponseCommand -->
<g id="edge50" class="edge"><title>topo.analysis.featureresponses.MeasureResponseCommand&#45;&gt;topo.analysis.featureresponses.SingleInputResponseCommand</title>
<path fill="none" stroke="black" stroke-width="0.5" d="M1205.17,-151.966C1257.15,-146.598 1321.14,-139.991 1373.86,-134.547"/>
<polygon fill="black" stroke="black" points="1374.13,-136.278 1378.93,-134.024 1373.77,-132.797 1374.13,-136.278"/>
</g>
<!-- topo.analysis.featureresponses.pattern_present -->
<g id="node19" class="node"><title>topo.analysis.featureresponses.pattern_present</title>
<polygon fill="none" stroke="black" stroke-width="0.5" points="1231,-115.5 985,-115.5 985,-94.5 1231,-94.5 1231,-115.5"/>
<text text-anchor="middle" x="1108" y="-102.5" font-family="Vera" font-size="10.00">topo.analysis.featureresponses.pattern_present</text>
</g>
<!-- topo.analysis.featureresponses.pattern_response -->
<g id="node40" class="node"><title>topo.analysis.featureresponses.pattern_response</title>
<polygon fill="none" stroke="black" stroke-width="0.5" points="1603,-96.5 1349,-96.5 1349,-75.5 1603,-75.5 1603,-96.5"/>
<text text-anchor="middle" x="1476" y="-83.5" font-family="Vera" font-size="10.00">topo.analysis.featureresponses.pattern_response</text>
</g>
<!-- topo.analysis.featureresponses.pattern_present&#45;&gt;topo.analysis.featureresponses.pattern_response -->
<g id="edge38" class="edge"><title>topo.analysis.featureresponses.pattern_present&#45;&gt;topo.analysis.featureresponses.pattern_response</title>
<path fill="none" stroke="black" stroke-width="0.5" d="M1231.56,-98.6204C1267.58,-96.7606 1307.08,-94.7213 1343.63,-92.8345"/>
<polygon fill="black" stroke="black" points="1344.09,-94.5629 1349,-92.5573 1343.91,-91.0675 1344.09,-94.5629"/>
</g>
<!-- topo.analysis.featureresponses.PatternPresentingCommand&#45;&gt;topo.analysis.featureresponses.MeasureResponseCommand -->
<g id="edge40" class="edge"><title>topo.analysis.featureresponses.PatternPresentingCommand&#45;&gt;topo.analysis.featureresponses.MeasureResponseCommand</title>
<path fill="none" stroke="black" stroke-width="0.5" d="M913.704,-162C925.478,-162 937.381,-162 949.192,-162"/>
<polygon fill="black" stroke="black" points="949.248,-163.75 954.248,-162 949.248,-160.25 949.248,-163.75"/>
</g>
<!-- topo.analysis.featureresponses.PatternPresentingCommand&#45;&gt;topo.analysis.featureresponses.pattern_present -->
<g id="edge16" class="edge"><title>topo.analysis.featureresponses.PatternPresentingCommand&#45;&gt;topo.analysis.featureresponses.pattern_present</title>
<path fill="none" stroke="black" stroke-width="0.5" d="M853.731,-151.978C874.897,-149.358 897.261,-146.324 918,-143 965.682,-135.358 1019.63,-124.338 1057.83,-116.131"/>
<polygon fill="black" stroke="black" points="1058.36,-117.807 1062.88,-115.043 1057.62,-114.386 1058.36,-117.807"/>
</g>
</g>
</svg>
