<?xml version="1.0" encoding="UTF-8" standalone="no"?>
<!DOCTYPE svg PUBLIC "-//W3C//DTD SVG 1.1//EN"
 "http://www.w3.org/Graphics/SVG/1.1/DTD/svg11.dtd">
<!-- Generated by graphviz version 2.26.3 (20100126.1600)
 -->
<!-- Title: inheritancebede3c61fc Pages: 1 -->
<svg width="2498pt" height="503pt"
 viewBox="0.00 0.00 2498.00 503.00" xmlns="http://www.w3.org/2000/svg" xmlns:xlink="http://www.w3.org/1999/xlink">
<g id="graph1" class="graph" transform="scale(1 1) rotate(0) translate(4 499)">
<title>inheritancebede3c61fc</title>
<polygon fill="white" stroke="white" points="-4,5 -4,-499 2495,-499 2495,5 -4,5"/>
<!-- topo.command.pylabplot.topographic_grid -->
<g id="node1" class="node"><title>topo.command.pylabplot.topographic_grid</title>
<polygon fill="none" stroke="black" stroke-width="0.5" points="1474,-495.5 1254,-495.5 1254,-474.5 1474,-474.5 1474,-495.5"/>
<text text-anchor="middle" x="1364" y="-482.5" font-family="Vera" font-size="10.00">topo.command.pylabplot.topographic_grid</text>
</g>
<!-- topo.command.pylabplot.PylabPlotCommand -->
<g id="node2" class="node"><title>topo.command.pylabplot.PylabPlotCommand</title>
<polygon fill="none" stroke="black" stroke-width="0.5" points="1112,-305.5 880,-305.5 880,-284.5 1112,-284.5 1112,-305.5"/>
<text text-anchor="middle" x="996" y="-292.5" font-family="Vera" font-size="10.00">topo.command.pylabplot.PylabPlotCommand</text>
</g>
<!-- topo.command.pylabplot.PylabPlotCommand&#45;&gt;topo.command.pylabplot.topographic_grid -->
<g id="edge2" class="edge"><title>topo.command.pylabplot.PylabPlotCommand&#45;&gt;topo.command.pylabplot.topographic_grid</title>
<path fill="none" stroke="black" stroke-width="0.5" d="M1003.29,-305.021C1026.16,-335.555 1100.08,-427.673 1186,-466 1205.44,-474.673 1227.23,-480.065 1248.71,-483.311"/>
<polygon fill="black" stroke="black" points="1248.67,-485.073 1253.87,-484.051 1249.17,-481.609 1248.67,-485.073"/>
</g>
<!-- topo.command.pylabplot.vectorplot -->
<g id="node4" class="node"><title>topo.command.pylabplot.vectorplot</title>
<polygon fill="none" stroke="black" stroke-width="0.5" points="1458,-457.5 1270,-457.5 1270,-436.5 1458,-436.5 1458,-457.5"/>
<text text-anchor="middle" x="1364" y="-444.5" font-family="Vera" font-size="10.00">topo.command.pylabplot.vectorplot</text>
</g>
<!-- topo.command.pylabplot.PylabPlotCommand&#45;&gt;topo.command.pylabplot.vectorplot -->
<g id="edge4" class="edge"><title>topo.command.pylabplot.PylabPlotCommand&#45;&gt;topo.command.pylabplot.vectorplot</title>
<path fill="none" stroke="black" stroke-width="0.5" d="M1006.41,-305.284C1033.37,-331.173 1108.71,-399.036 1186,-428 1210.55,-437.201 1238.26,-442.401 1264.37,-445.238"/>
<polygon fill="black" stroke="black" points="1264.42,-447.002 1269.57,-445.774 1264.78,-443.521 1264.42,-447.002"/>
</g>
<!-- topo.command.pylabplot.matrixplot -->
<g id="node13" class="node"><title>topo.command.pylabplot.matrixplot</title>
<polygon fill="none" stroke="black" stroke-width="0.5" points="1458,-419.5 1270,-419.5 1270,-398.5 1458,-398.5 1458,-419.5"/>
<text text-anchor="middle" x="1364" y="-406.5" font-family="Vera" font-size="10.00">topo.command.pylabplot.matrixplot</text>
</g>
<!-- topo.command.pylabplot.PylabPlotCommand&#45;&gt;topo.command.pylabplot.matrixplot -->
<g id="edge22" class="edge"><title>topo.command.pylabplot.PylabPlotCommand&#45;&gt;topo.command.pylabplot.matrixplot</title>
<path fill="none" stroke="black" stroke-width="0.5" d="M1011.47,-305.167C1042.87,-325.244 1116.99,-369.781 1186,-390 1211.02,-397.331 1238.77,-401.898 1264.76,-404.725"/>
<polygon fill="black" stroke="black" points="1264.78,-406.486 1269.93,-405.267 1265.14,-403.005 1264.78,-406.486"/>
</g>
<!-- topo.command.pylabplot.tuning_curve -->
<g id="node16" class="node"><title>topo.command.pylabplot.tuning_curve</title>
<polygon fill="none" stroke="black" stroke-width="0.5" points="1464,-381.5 1264,-381.5 1264,-360.5 1464,-360.5 1464,-381.5"/>
<text text-anchor="middle" x="1364" y="-368.5" font-family="Vera" font-size="10.00">topo.command.pylabplot.tuning_curve</text>
</g>
<!-- topo.command.pylabplot.PylabPlotCommand&#45;&gt;topo.command.pylabplot.tuning_curve -->
<g id="edge24" class="edge"><title>topo.command.pylabplot.PylabPlotCommand&#45;&gt;topo.command.pylabplot.tuning_curve</title>
<path fill="none" stroke="black" stroke-width="0.5" d="M1023.6,-305.042C1060.21,-317.955 1127.09,-340.126 1186,-352 1209.18,-356.672 1234.31,-360.246 1258.17,-362.961"/>
<polygon fill="black" stroke="black" points="1258.08,-364.711 1263.25,-363.527 1258.47,-361.233 1258.08,-364.711"/>
</g>
<!-- topo.command.pylabplot.overlaid_plots -->
<g id="node33" class="node"><title>topo.command.pylabplot.overlaid_plots</title>
<polygon fill="none" stroke="black" stroke-width="0.5" points="1467,-343.5 1261,-343.5 1261,-322.5 1467,-322.5 1467,-343.5"/>
<text text-anchor="middle" x="1364" y="-330.5" font-family="Vera" font-size="10.00">topo.command.pylabplot.overlaid_plots</text>
</g>
<!-- topo.command.pylabplot.PylabPlotCommand&#45;&gt;topo.command.pylabplot.overlaid_plots -->
<g id="edge30" class="edge"><title>topo.command.pylabplot.PylabPlotCommand&#45;&gt;topo.command.pylabplot.overlaid_plots</title>
<path fill="none" stroke="black" stroke-width="0.5" d="M1093.17,-305.034C1145.15,-310.402 1209.14,-317.009 1261.86,-322.453"/>
<polygon fill="black" stroke="black" points="1261.77,-324.203 1266.93,-322.976 1262.13,-320.722 1261.77,-324.203"/>
</g>
<!-- topo.command.pylabplot.matrixplot3d -->
<g id="node39" class="node"><title>topo.command.pylabplot.matrixplot3d</title>
<polygon fill="none" stroke="black" stroke-width="0.5" points="1464,-305.5 1264,-305.5 1264,-284.5 1464,-284.5 1464,-305.5"/>
<text text-anchor="middle" x="1364" y="-292.5" font-family="Vera" font-size="10.00">topo.command.pylabplot.matrixplot3d</text>
</g>
<!-- topo.command.pylabplot.PylabPlotCommand&#45;&gt;topo.command.pylabplot.matrixplot3d -->
<g id="edge36" class="edge"><title>topo.command.pylabplot.PylabPlotCommand&#45;&gt;topo.command.pylabplot.matrixplot3d</title>
<path fill="none" stroke="black" stroke-width="0.5" d="M1112.69,-295C1159.51,-295 1213.08,-295 1258.7,-295"/>
<polygon fill="black" stroke="black" points="1258.94,-296.75 1263.94,-295 1258.94,-293.25 1258.94,-296.75"/>
</g>
<!-- topo.command.pylabplot.matrixplot3dx3 -->
<g id="node44" class="node"><title>topo.command.pylabplot.matrixplot3dx3</title>
<polygon fill="none" stroke="black" stroke-width="0.5" points="1470,-267.5 1258,-267.5 1258,-246.5 1470,-246.5 1470,-267.5"/>
<text text-anchor="middle" x="1364" y="-254.5" font-family="Vera" font-size="10.00">topo.command.pylabplot.matrixplot3dx3</text>
</g>
<!-- topo.command.pylabplot.PylabPlotCommand&#45;&gt;topo.command.pylabplot.matrixplot3dx3 -->
<g id="edge42" class="edge"><title>topo.command.pylabplot.PylabPlotCommand&#45;&gt;topo.command.pylabplot.matrixplot3dx3</title>
<path fill="none" stroke="black" stroke-width="0.5" d="M1093.17,-284.966C1145.15,-279.598 1209.14,-272.991 1261.86,-267.547"/>
<polygon fill="black" stroke="black" points="1262.13,-269.278 1266.93,-267.024 1261.77,-265.797 1262.13,-269.278"/>
</g>
<!-- topo.command.pylabplot.histogramplot -->
<g id="node46" class="node"><title>topo.command.pylabplot.histogramplot</title>
<polygon fill="none" stroke="black" stroke-width="0.5" points="1467,-229.5 1261,-229.5 1261,-208.5 1467,-208.5 1467,-229.5"/>
<text text-anchor="middle" x="1364" y="-216.5" font-family="Vera" font-size="10.00">topo.command.pylabplot.histogramplot</text>
</g>
<!-- topo.command.pylabplot.PylabPlotCommand&#45;&gt;topo.command.pylabplot.histogramplot -->
<g id="edge44" class="edge"><title>topo.command.pylabplot.PylabPlotCommand&#45;&gt;topo.command.pylabplot.histogramplot</title>
<path fill="none" stroke="black" stroke-width="0.5" d="M1023.6,-284.958C1060.21,-272.045 1127.09,-249.874 1186,-238 1208.38,-233.49 1232.56,-230.004 1255.68,-227.325"/>
<polygon fill="black" stroke="black" points="1256.14,-229.035 1260.91,-226.731 1255.74,-225.557 1256.14,-229.035"/>
</g>
<!-- topo.command.pylabplot.plot_modulation_ratio -->
<g id="node49" class="node"><title>topo.command.pylabplot.plot_modulation_ratio</title>
<polygon fill="none" stroke="black" stroke-width="0.5" points="1486,-191.5 1242,-191.5 1242,-170.5 1486,-170.5 1486,-191.5"/>
<text text-anchor="middle" x="1364" y="-178.5" font-family="Vera" font-size="10.00">topo.command.pylabplot.plot_modulation_ratio</text>
</g>
<!-- topo.command.pylabplot.PylabPlotCommand&#45;&gt;topo.command.pylabplot.plot_modulation_ratio -->
<g id="edge48" class="edge"><title>topo.command.pylabplot.PylabPlotCommand&#45;&gt;topo.command.pylabplot.plot_modulation_ratio</title>
<path fill="none" stroke="black" stroke-width="0.5" d="M1011.47,-284.833C1042.87,-264.756 1116.99,-220.219 1186,-200 1202.08,-195.288 1219.29,-191.719 1236.43,-189.019"/>
<polygon fill="black" stroke="black" points="1237.06,-190.692 1241.74,-188.209 1236.54,-187.232 1237.06,-190.692"/>
</g>
<!-- topo.command.pylabplot.plot_tracked_attributes -->
<g id="node62" class="node"><title>topo.command.pylabplot.plot_tracked_attributes</title>
<polygon fill="none" stroke="black" stroke-width="0.5" points="1489,-153.5 1239,-153.5 1239,-132.5 1489,-132.5 1489,-153.5"/>
<text text-anchor="middle" x="1364" y="-140.5" font-family="Vera" font-size="10.00">topo.command.pylabplot.plot_tracked_attributes</text>
</g>
<!-- topo.command.pylabplot.PylabPlotCommand&#45;&gt;topo.command.pylabplot.plot_tracked_attributes -->
<g id="edge62" class="edge"><title>topo.command.pylabplot.PylabPlotCommand&#45;&gt;topo.command.pylabplot.plot_tracked_attributes</title>
<path fill="none" stroke="black" stroke-width="0.5" d="M1006.41,-284.716C1033.37,-258.827 1108.71,-190.964 1186,-162 1200.9,-156.416 1216.96,-152.306 1233.12,-149.303"/>
<polygon fill="black" stroke="black" points="1233.53,-151.009 1238.14,-148.406 1232.91,-147.563 1233.53,-151.009"/>
</g>
<!-- param.parameterized.Parameterized -->
<g id="node6" class="node"><title>param.parameterized.Parameterized</title>
<polygon fill="none" stroke="black" stroke-width="0.5" points="194,-153.5 5.68434e-14,-153.5 0,-132.5 194,-132.5 194,-153.5"/>
<text text-anchor="middle" x="97" y="-140.5" font-family="Vera" font-size="10.00">param.parameterized.Parameterized</text>
</g>
<!-- param.parameterized.ParameterizedFunction -->
<g id="node7" class="node"><title>param.parameterized.ParameterizedFunction</title>
<polygon fill="none" stroke="black" stroke-width="0.5" points="464,-153.5 230,-153.5 230,-132.5 464,-132.5 464,-153.5"/>
<text text-anchor="middle" x="347" y="-140.5" font-family="Vera" font-size="10.00">param.parameterized.ParameterizedFunction</text>
</g>
<!-- param.parameterized.Parameterized&#45;&gt;param.parameterized.ParameterizedFunction -->
<g id="edge6" class="edge"><title>param.parameterized.Parameterized&#45;&gt;param.parameterized.ParameterizedFunction</title>
<path fill="none" stroke="black" stroke-width="0.5" d="M194.014,-143C204.04,-143 214.319,-143 224.575,-143"/>
<polygon fill="black" stroke="black" points="224.607,-144.75 229.607,-143 224.607,-141.25 224.607,-144.75"/>
</g>
<!-- topo.command.Command -->
<g id="node9" class="node"><title>topo.command.Command</title>
<polygon fill="none" stroke="black" stroke-width="0.5" points="724,-267.5 582,-267.5 582,-246.5 724,-246.5 724,-267.5"/>
<text text-anchor="middle" x="653" y="-254.5" font-family="Vera" font-size="10.00">topo.command.Command</text>
</g>
<!-- param.parameterized.ParameterizedFunction&#45;&gt;topo.command.Command -->
<g id="edge10" class="edge"><title>param.parameterized.ParameterizedFunction&#45;&gt;topo.command.Command</title>
<path fill="none" stroke="black" stroke-width="0.5" d="M373.887,-153.017C430.202,-173.997 560.332,-222.477 620.905,-245.043"/>
<polygon fill="black" stroke="black" points="620.549,-246.778 625.845,-246.883 621.771,-243.498 620.549,-246.778"/>
</g>
<!-- topo.analysis.featureresponses.PatternPresentingCommand -->
<g id="node19" class="node"><title>topo.analysis.featureresponses.PatternPresentingCommand</title>
<polygon fill="none" stroke="black" stroke-width="0.5" points="805,-153.5 501,-153.5 501,-132.5 805,-132.5 805,-153.5"/>
<text text-anchor="middle" x="653" y="-140.5" font-family="Vera" font-size="10.00">topo.analysis.featureresponses.PatternPresentingCommand</text>
</g>
<!-- param.parameterized.ParameterizedFunction&#45;&gt;topo.analysis.featureresponses.PatternPresentingCommand -->
<g id="edge38" class="edge"><title>param.parameterized.ParameterizedFunction&#45;&gt;topo.analysis.featureresponses.PatternPresentingCommand</title>
<path fill="none" stroke="black" stroke-width="0.5" d="M464.432,-143C474.571,-143 484.931,-143 495.319,-143"/>
<polygon fill="black" stroke="black" points="495.42,-144.75 500.42,-143 495.42,-141.25 495.42,-144.75"/>
</g>
<!-- topo.command.pylabplot.measure_cog -->
<g id="node35" class="node"><title>topo.command.pylabplot.measure_cog</title>
<polygon fill="none" stroke="black" stroke-width="0.5" points="755,-115.5 551,-115.5 551,-94.5 755,-94.5 755,-115.5"/>
<text text-anchor="middle" x="653" y="-102.5" font-family="Vera" font-size="10.00">topo.command.pylabplot.measure_cog</text>
</g>
<!-- param.parameterized.ParameterizedFunction&#45;&gt;topo.command.pylabplot.measure_cog -->
<g id="edge32" class="edge"><title>param.parameterized.ParameterizedFunction&#45;&gt;topo.command.pylabplot.measure_cog</title>
<path fill="none" stroke="black" stroke-width="0.5" d="M427.798,-132.966C470.763,-127.631 523.585,-121.071 567.271,-115.646"/>
<polygon fill="black" stroke="black" points="567.534,-117.377 572.28,-115.024 567.102,-113.904 567.534,-117.377"/>
</g>
<!-- topo.command.Command&#45;&gt;topo.command.pylabplot.PylabPlotCommand -->
<g id="edge8" class="edge"><title>topo.command.Command&#45;&gt;topo.command.pylabplot.PylabPlotCommand</title>
<path fill="none" stroke="black" stroke-width="0.5" d="M724.904,-264.966C775.913,-270.617 844.91,-278.261 900.531,-284.423"/>
<polygon fill="black" stroke="black" points="900.367,-286.166 905.529,-284.977 900.753,-282.687 900.367,-286.166"/>
</g>
<!-- topo.command.pylabplot.activityplot -->
<g id="node12" class="node"><title>topo.command.pylabplot.activityplot</title>
<polygon fill="none" stroke="black" stroke-width="0.5" points="1815,-495.5 1625,-495.5 1625,-474.5 1815,-474.5 1815,-495.5"/>
<text text-anchor="middle" x="1720" y="-482.5" font-family="Vera" font-size="10.00">topo.command.pylabplot.activityplot</text>
</g>
<!-- topo.command.pylabplot.matrixplot&#45;&gt;topo.command.pylabplot.activityplot -->
<g id="edge12" class="edge"><title>topo.command.pylabplot.matrixplot&#45;&gt;topo.command.pylabplot.activityplot</title>
<path fill="none" stroke="black" stroke-width="0.5" d="M1458,-406.794C1486.18,-409.303 1516.37,-415.323 1542,-428 1562.85,-438.315 1557.29,-455.408 1578,-466 1590.83,-472.563 1605.13,-477.128 1619.58,-480.263"/>
<polygon fill="black" stroke="black" points="1619.23,-481.978 1624.48,-481.273 1619.93,-478.55 1619.23,-481.978"/>
</g>
<!-- topo.command.pylabplot.fftplot -->
<g id="node21" class="node"><title>topo.command.pylabplot.fftplot</title>
<polygon fill="none" stroke="black" stroke-width="0.5" points="1803,-457.5 1637,-457.5 1637,-436.5 1803,-436.5 1803,-457.5"/>
<text text-anchor="middle" x="1720" y="-444.5" font-family="Vera" font-size="10.00">topo.command.pylabplot.fftplot</text>
</g>
<!-- topo.command.pylabplot.matrixplot&#45;&gt;topo.command.pylabplot.fftplot -->
<g id="edge18" class="edge"><title>topo.command.pylabplot.matrixplot&#45;&gt;topo.command.pylabplot.fftplot</title>
<path fill="none" stroke="black" stroke-width="0.5" d="M1458,-419.034C1511.68,-424.764 1578.59,-431.906 1631.36,-437.538"/>
<polygon fill="black" stroke="black" points="1631.26,-439.288 1636.42,-438.078 1631.63,-435.807 1631.26,-439.288"/>
</g>
<!-- topo.command.pylabplot.autocorrelationplot -->
<g id="node51" class="node"><title>topo.command.pylabplot.autocorrelationplot</title>
<polygon fill="none" stroke="black" stroke-width="0.5" points="1835,-419.5 1605,-419.5 1605,-398.5 1835,-398.5 1835,-419.5"/>
<text text-anchor="middle" x="1720" y="-406.5" font-family="Vera" font-size="10.00">topo.command.pylabplot.autocorrelationplot</text>
</g>
<!-- topo.command.pylabplot.matrixplot&#45;&gt;topo.command.pylabplot.autocorrelationplot -->
<g id="edge50" class="edge"><title>topo.command.pylabplot.matrixplot&#45;&gt;topo.command.pylabplot.autocorrelationplot</title>
<path fill="none" stroke="black" stroke-width="0.5" d="M1458,-409C1501.43,-409 1553.51,-409 1599.76,-409"/>
<polygon fill="black" stroke="black" points="1599.79,-410.75 1604.79,-409 1599.79,-407.25 1599.79,-410.75"/>
</g>
<!-- topo.command.pylabplot.gradientplot -->
<g id="node58" class="node"><title>topo.command.pylabplot.gradientplot</title>
<polygon fill="none" stroke="black" stroke-width="0.5" points="1818,-381.5 1622,-381.5 1622,-360.5 1818,-360.5 1818,-381.5"/>
<text text-anchor="middle" x="1720" y="-368.5" font-family="Vera" font-size="10.00">topo.command.pylabplot.gradientplot</text>
</g>
<!-- topo.command.pylabplot.matrixplot&#45;&gt;topo.command.pylabplot.gradientplot -->
<g id="edge58" class="edge"><title>topo.command.pylabplot.matrixplot&#45;&gt;topo.command.pylabplot.gradientplot</title>
<path fill="none" stroke="black" stroke-width="0.5" d="M1458,-398.966C1508.19,-393.609 1569.94,-387.018 1620.88,-381.58"/>
<polygon fill="black" stroke="black" points="1621.3,-383.295 1626.09,-381.024 1620.93,-379.815 1621.3,-383.295"/>
</g>
<!-- topo.command.pylabplot.cyclic_tuning_curve -->
<g id="node15" class="node"><title>topo.command.pylabplot.cyclic_tuning_curve</title>
<polygon fill="none" stroke="black" stroke-width="0.5" points="1836,-343.5 1604,-343.5 1604,-322.5 1836,-322.5 1836,-343.5"/>
<text text-anchor="middle" x="1720" y="-330.5" font-family="Vera" font-size="10.00">topo.command.pylabplot.cyclic_tuning_curve</text>
</g>
<!-- topo.command.pylabplot.tuning_curve&#45;&gt;topo.command.pylabplot.cyclic_tuning_curve -->
<g id="edge14" class="edge"><title>topo.command.pylabplot.tuning_curve&#45;&gt;topo.command.pylabplot.cyclic_tuning_curve</title>
<path fill="none" stroke="black" stroke-width="0.5" d="M1458,-360.966C1508.19,-355.609 1569.94,-349.018 1620.88,-343.58"/>
<polygon fill="black" stroke="black" points="1621.3,-345.295 1626.09,-343.024 1620.93,-341.815 1621.3,-345.295"/>
</g>
<!-- topo.analysis.featureresponses.MeasureResponseCommand -->
<g id="node18" class="node"><title>topo.analysis.featureresponses.MeasureResponseCommand</title>
<polygon fill="none" stroke="black" stroke-width="0.5" points="1149,-115.5 843,-115.5 843,-94.5 1149,-94.5 1149,-115.5"/>
<text text-anchor="middle" x="996" y="-102.5" font-family="Vera" font-size="10.00">topo.analysis.featureresponses.MeasureResponseCommand</text>
</g>
<!-- topo.analysis.featureresponses.PositionMeasurementCommand -->
<g id="node24" class="node"><title>topo.analysis.featureresponses.PositionMeasurementCommand</title>
<polygon fill="none" stroke="black" stroke-width="0.5" points="1526,-115.5 1202,-115.5 1202,-94.5 1526,-94.5 1526,-115.5"/>
<text text-anchor="middle" x="1364" y="-102.5" font-family="Vera" font-size="10.00">topo.analysis.featureresponses.PositionMeasurementCommand</text>
</g>
<!-- topo.analysis.featureresponses.MeasureResponseCommand&#45;&gt;topo.analysis.featureresponses.PositionMeasurementCommand -->
<g id="edge52" class="edge"><title>topo.analysis.featureresponses.MeasureResponseCommand&#45;&gt;topo.analysis.featureresponses.PositionMeasurementCommand</title>
<path fill="none" stroke="black" stroke-width="0.5" d="M1149.67,-105C1165.16,-105 1180.95,-105 1196.58,-105"/>
<polygon fill="black" stroke="black" points="1196.87,-106.75 1201.87,-105 1196.87,-103.25 1196.87,-106.75"/>
</g>
<!-- topo.analysis.featureresponses.SinusoidalMeasureResponseCommand -->
<g id="node37" class="node"><title>topo.analysis.featureresponses.SinusoidalMeasureResponseCommand</title>
<polygon fill="none" stroke="black" stroke-width="0.5" points="1542,-77.5 1186,-77.5 1186,-56.5 1542,-56.5 1542,-77.5"/>
<text text-anchor="middle" x="1364" y="-64.5" font-family="Vera" font-size="10.00">topo.analysis.featureresponses.SinusoidalMeasureResponseCommand</text>
</g>
<!-- topo.analysis.featureresponses.MeasureResponseCommand&#45;&gt;topo.analysis.featureresponses.SinusoidalMeasureResponseCommand -->
<g id="edge34" class="edge"><title>topo.analysis.featureresponses.MeasureResponseCommand&#45;&gt;topo.analysis.featureresponses.SinusoidalMeasureResponseCommand</title>
<path fill="none" stroke="black" stroke-width="0.5" d="M1093.17,-94.9662C1145.15,-89.5982 1209.14,-82.9912 1261.86,-77.5472"/>
<polygon fill="black" stroke="black" points="1262.13,-79.2785 1266.93,-77.024 1261.77,-75.797 1262.13,-79.2785"/>
</g>
<!-- topo.analysis.featureresponses.PatternPresentingCommand&#45;&gt;topo.analysis.featureresponses.MeasureResponseCommand -->
<g id="edge16" class="edge"><title>topo.analysis.featureresponses.PatternPresentingCommand&#45;&gt;topo.analysis.featureresponses.MeasureResponseCommand</title>
<path fill="none" stroke="black" stroke-width="0.5" d="M743.568,-132.966C791.924,-127.609 851.418,-121.018 900.5,-115.58"/>
<polygon fill="black" stroke="black" points="900.743,-117.314 905.52,-115.024 900.357,-113.835 900.743,-117.314"/>
</g>
<!-- topo.command.pylabplot.measure_position_pref -->
<g id="node23" class="node"><title>topo.command.pylabplot.measure_position_pref</title>
<polygon fill="none" stroke="black" stroke-width="0.5" points="1844,-115.5 1596,-115.5 1596,-94.5 1844,-94.5 1844,-115.5"/>
<text text-anchor="middle" x="1720" y="-102.5" font-family="Vera" font-size="10.00">topo.command.pylabplot.measure_position_pref</text>
</g>
<!-- topo.analysis.featureresponses.PositionMeasurementCommand&#45;&gt;topo.command.pylabplot.measure_position_pref -->
<g id="edge20" class="edge"><title>topo.analysis.featureresponses.PositionMeasurementCommand&#45;&gt;topo.command.pylabplot.measure_position_pref</title>
<path fill="none" stroke="black" stroke-width="0.5" d="M1526.11,-105C1547.52,-105 1569.23,-105 1590,-105"/>
<polygon fill="black" stroke="black" points="1590.26,-106.75 1595.26,-105 1590.26,-103.25 1590.26,-106.75"/>
</g>
<!-- topo.command.pylabplot.test_measure -->
<g id="node28" class="node"><title>topo.command.pylabplot.test_measure</title>
<polygon fill="none" stroke="black" stroke-width="0.5" points="2451,-172.5 2245,-172.5 2245,-151.5 2451,-151.5 2451,-172.5"/>
<text text-anchor="middle" x="2348" y="-159.5" font-family="Vera" font-size="10.00">topo.command.pylabplot.test_measure</text>
</g>
<!-- topo.analysis.featureresponses.UnitCurveCommand -->
<g id="node29" class="node"><title>topo.analysis.featureresponses.UnitCurveCommand</title>
<polygon fill="none" stroke="black" stroke-width="0.5" points="2167,-96.5 1901,-96.5 1901,-75.5 2167,-75.5 2167,-96.5"/>
<text text-anchor="middle" x="2034" y="-83.5" font-family="Vera" font-size="10.00">topo.analysis.featureresponses.UnitCurveCommand</text>
</g>
<!-- topo.analysis.featureresponses.UnitCurveCommand&#45;&gt;topo.command.pylabplot.test_measure -->
<g id="edge26" class="edge"><title>topo.analysis.featureresponses.UnitCurveCommand&#45;&gt;topo.command.pylabplot.test_measure</title>
<path fill="none" stroke="black" stroke-width="0.5" d="M2059.22,-96.0144C2092.37,-108.792 2152.66,-130.707 2206,-143 2219.71,-146.159 2234.29,-148.85 2248.69,-151.124"/>
<polygon fill="black" stroke="black" points="2248.77,-152.909 2253.98,-151.944 2249.31,-149.45 2248.77,-152.909"/>
</g>
<!-- topo.command.pylabplot.measure_contrast_response -->
<g id="node31" class="node"><title>topo.command.pylabplot.measure_contrast_response</title>
<polygon fill="none" stroke="black" stroke-width="0.5" points="2486,-134.5 2210,-134.5 2210,-113.5 2486,-113.5 2486,-134.5"/>
<text text-anchor="middle" x="2348" y="-121.5" font-family="Vera" font-size="10.00">topo.command.pylabplot.measure_contrast_response</text>
</g>
<!-- topo.analysis.featureresponses.UnitCurveCommand&#45;&gt;topo.command.pylabplot.measure_contrast_response -->
<g id="edge28" class="edge"><title>topo.analysis.featureresponses.UnitCurveCommand&#45;&gt;topo.command.pylabplot.measure_contrast_response</title>
<path fill="none" stroke="black" stroke-width="0.5" d="M2116.91,-96.0338C2161,-101.369 2215.2,-107.929 2260.03,-113.354"/>
<polygon fill="black" stroke="black" points="2260,-115.112 2265.17,-113.976 2260.42,-111.638 2260,-115.112"/>
</g>
<!-- topo.command.pylabplot.measure_orientation_contrast -->
<g id="node54" class="node"><title>topo.command.pylabplot.measure_orientation_contrast</title>
<polygon fill="none" stroke="black" stroke-width="0.5" points="2490,-96.5 2206,-96.5 2206,-75.5 2490,-75.5 2490,-96.5"/>
<text text-anchor="middle" x="2348" y="-83.5" font-family="Vera" font-size="10.00">topo.command.pylabplot.measure_orientation_contrast</text>
</g>
<!-- topo.analysis.featureresponses.UnitCurveCommand&#45;&gt;topo.command.pylabplot.measure_orientation_contrast -->
<g id="edge54" class="edge"><title>topo.analysis.featureresponses.UnitCurveCommand&#45;&gt;topo.command.pylabplot.measure_orientation_contrast</title>
<path fill="none" stroke="black" stroke-width="0.5" d="M2167.62,-86C2178.62,-86 2189.78,-86 2200.87,-86"/>
<polygon fill="black" stroke="black" points="2200.96,-87.7501 2205.96,-86 2200.96,-84.2501 2200.96,-87.7501"/>
</g>
<!-- topo.command.pylabplot.measure_or_tuning -->
<g id="node60" class="node"><title>topo.command.pylabplot.measure_or_tuning</title>
<polygon fill="none" stroke="black" stroke-width="0.5" points="2464,-58.5 2232,-58.5 2232,-37.5 2464,-37.5 2464,-58.5"/>
<text text-anchor="middle" x="2348" y="-45.5" font-family="Vera" font-size="10.00">topo.command.pylabplot.measure_or_tuning</text>
</g>
<!-- topo.analysis.featureresponses.UnitCurveCommand&#45;&gt;topo.command.pylabplot.measure_or_tuning -->
<g id="edge60" class="edge"><title>topo.analysis.featureresponses.UnitCurveCommand&#45;&gt;topo.command.pylabplot.measure_or_tuning</title>
<path fill="none" stroke="black" stroke-width="0.5" d="M2116.91,-75.9662C2161,-70.6307 2215.2,-64.0711 2260.03,-58.6461"/>
<polygon fill="black" stroke="black" points="2260.42,-60.3622 2265.17,-58.024 2260,-56.8875 2260.42,-60.3622"/>
</g>
<!-- topo.command.pylabplot.measure_size_response -->
<g id="node64" class="node"><title>topo.command.pylabplot.measure_size_response</title>
<polygon fill="none" stroke="black" stroke-width="0.5" points="2476,-20.5 2220,-20.5 2220,0.5 2476,0.5 2476,-20.5"/>
<text text-anchor="middle" x="2348" y="-7.5" font-family="Vera" font-size="10.00">topo.command.pylabplot.measure_size_response</text>
</g>
<!-- topo.analysis.featureresponses.UnitCurveCommand&#45;&gt;topo.command.pylabplot.measure_size_response -->
<g id="edge64" class="edge"><title>topo.analysis.featureresponses.UnitCurveCommand&#45;&gt;topo.command.pylabplot.measure_size_response</title>
<path fill="none" stroke="black" stroke-width="0.5" d="M2148.23,-75.9533C2155.78,-73.5009 2163.11,-70.5477 2170,-67 2190.68,-56.3476 2185.29,-39.5924 2206,-29 2211.36,-26.2573 2216.98,-23.8635 2222.76,-21.7772"/>
<polygon fill="black" stroke="black" points="2223.49,-23.3767 2227.65,-20.096 2222.35,-20.0668 2223.49,-23.3767"/>
</g>
<!-- topo.analysis.featureresponses.FeatureCurveCommand -->
<g id="node42" class="node"><title>topo.analysis.featureresponses.FeatureCurveCommand</title>
<polygon fill="none" stroke="black" stroke-width="0.5" points="1862,-77.5 1578,-77.5 1578,-56.5 1862,-56.5 1862,-77.5"/>
<text text-anchor="middle" x="1720" y="-64.5" font-family="Vera" font-size="10.00">topo.analysis.featureresponses.FeatureCurveCommand</text>
</g>
<!-- topo.analysis.featureresponses.SinusoidalMeasureResponseCommand&#45;&gt;topo.analysis.featureresponses.FeatureCurveCommand -->
<g id="edge46" class="edge"><title>topo.analysis.featureresponses.SinusoidalMeasureResponseCommand&#45;&gt;topo.analysis.featureresponses.FeatureCurveCommand</title>
<path fill="none" stroke="black" stroke-width="0.5" d="M1542,-67C1552.21,-67 1562.43,-67 1572.51,-67"/>
<polygon fill="black" stroke="black" points="1572.76,-68.7501 1577.76,-67 1572.76,-65.2501 1572.76,-68.7501"/>
</g>
<!-- topo.analysis.featureresponses.FeatureCurveCommand&#45;&gt;topo.analysis.featureresponses.UnitCurveCommand -->
<g id="edge40" class="edge"><title>topo.analysis.featureresponses.FeatureCurveCommand&#45;&gt;topo.analysis.featureresponses.UnitCurveCommand</title>
<path fill="none" stroke="black" stroke-width="0.5" d="M1862.3,-75.6105C1873.28,-76.2747 1884.35,-76.9447 1895.3,-77.6074"/>
<polygon fill="black" stroke="black" points="1895.23,-79.356 1900.32,-77.9113 1895.44,-75.8624 1895.23,-79.356"/>
</g>
<!-- topo.command.pylabplot.measure_or_tuning_fullfield -->
<g id="node56" class="node"><title>topo.command.pylabplot.measure_or_tuning_fullfield</title>
<polygon fill="none" stroke="black" stroke-width="0.5" points="2169,-58.5 1899,-58.5 1899,-37.5 2169,-37.5 2169,-58.5"/>
<text text-anchor="middle" x="2034" y="-45.5" font-family="Vera" font-size="10.00">topo.command.pylabplot.measure_or_tuning_fullfield</text>
</g>
<!-- topo.analysis.featureresponses.FeatureCurveCommand&#45;&gt;topo.command.pylabplot.measure_or_tuning_fullfield -->
<g id="edge56" class="edge"><title>topo.analysis.featureresponses.FeatureCurveCommand&#45;&gt;topo.command.pylabplot.measure_or_tuning_fullfield</title>
<path fill="none" stroke="black" stroke-width="0.5" d="M1862.3,-58.3895C1872.62,-57.7651 1883.02,-57.1355 1893.33,-56.5117"/>
<polygon fill="black" stroke="black" points="1893.5,-58.2548 1898.39,-56.2059 1893.29,-54.7612 1893.5,-58.2548"/>
</g>
</g>
</svg>
