<?xml version="1.0" encoding="UTF-8" standalone="no"?>
<!DOCTYPE svg PUBLIC "-//W3C//DTD SVG 1.1//EN"
 "http://www.w3.org/Graphics/SVG/1.1/DTD/svg11.dtd">
<!-- Generated by graphviz version 2.26.3 (20100126.1600)
 -->
<!-- Title: inheritance1d39487c30 Pages: 1 -->
<svg width="1064pt" height="274pt"
 viewBox="0.00 0.00 1064.00 274.00" xmlns="http://www.w3.org/2000/svg" xmlns:xlink="http://www.w3.org/1999/xlink">
<g id="graph1" class="graph" transform="scale(1 1) rotate(0) translate(4 270)">
<title>inheritance1d39487c30</title>
<polygon fill="white" stroke="white" points="-4,5 -4,-270 1061,-270 1061,5 -4,5"/>
<!-- param.parameterized.Parameterized -->
<g id="node1" class="node"><title>param.parameterized.Parameterized</title>
<polygon fill="none" stroke="black" stroke-width="0.5" points="194,-20.5 5.68434e-14,-20.5 0,0.5 194,0.5 194,-20.5"/>
<text text-anchor="middle" x="97" y="-7.5" font-family="Vera" font-size="10.00">param.parameterized.Parameterized</text>
</g>
<!-- topo.tkgui.editor.ModelEditor -->
<g id="node22" class="node"><title>topo.tkgui.editor.ModelEditor</title>
<polygon fill="none" stroke="black" stroke-width="0.5" points="397,-20.5 243,-20.5 243,0.5 397,0.5 397,-20.5"/>
<text text-anchor="middle" x="320" y="-7.5" font-family="Vera" font-size="10.00">topo.tkgui.editor.ModelEditor</text>
</g>
<!-- param.parameterized.Parameterized&#45;&gt;topo.tkgui.editor.ModelEditor -->
<g id="edge16" class="edge"><title>param.parameterized.Parameterized&#45;&gt;topo.tkgui.editor.ModelEditor</title>
<path fill="none" stroke="black" stroke-width="0.5" d="M194.162,-10C208.692,-10 223.553,-10 237.735,-10"/>
<polygon fill="black" stroke="black" points="237.927,-11.7501 242.927,-10 237.927,-8.2501 237.927,-11.7501"/>
</g>
<!-- topo.tkgui.editor.EditorSheet -->
<g id="node2" class="node"><title>topo.tkgui.editor.EditorSheet</title>
<polygon fill="none" stroke="black" stroke-width="0.5" points="838,-67.5 684,-67.5 684,-46.5 838,-46.5 838,-67.5"/>
<text text-anchor="middle" x="761" y="-54.5" font-family="Vera" font-size="10.00">topo.tkgui.editor.EditorSheet</text>
</g>
<!-- topo.tkgui.editor.EditorEP -->
<g id="node3" class="node"><title>topo.tkgui.editor.EditorEP</title>
<polygon fill="none" stroke="black" stroke-width="0.5" points="610,-67.5 474,-67.5 474,-46.5 610,-46.5 610,-67.5"/>
<text text-anchor="middle" x="542" y="-54.5" font-family="Vera" font-size="10.00">topo.tkgui.editor.EditorEP</text>
</g>
<!-- topo.tkgui.editor.EditorEP&#45;&gt;topo.tkgui.editor.EditorSheet -->
<g id="edge2" class="edge"><title>topo.tkgui.editor.EditorEP&#45;&gt;topo.tkgui.editor.EditorSheet</title>
<path fill="none" stroke="black" stroke-width="0.5" d="M610.692,-57C632.267,-57 656.308,-57 678.724,-57"/>
<polygon fill="black" stroke="black" points="678.78,-58.7501 683.78,-57 678.78,-55.2501 678.78,-58.7501"/>
</g>
<!-- Tkinter.Frame -->
<g id="node5" class="node"><title>Tkinter.Frame</title>
<polygon fill="none" stroke="black" stroke-width="0.5" points="801,-162.5 721,-162.5 721,-141.5 801,-141.5 801,-162.5"/>
<text text-anchor="middle" x="761" y="-149.5" font-family="Vera" font-size="10.00">Tkinter.Frame</text>
</g>
<!-- topo.tkgui.editor.ParametersTool -->
<g id="node27" class="node"><title>topo.tkgui.editor.ParametersTool</title>
<polygon fill="none" stroke="black" stroke-width="0.5" points="1055,-200.5 885,-200.5 885,-179.5 1055,-179.5 1055,-200.5"/>
<text text-anchor="middle" x="970" y="-187.5" font-family="Vera" font-size="10.00">topo.tkgui.editor.ParametersTool</text>
</g>
<!-- Tkinter.Frame&#45;&gt;topo.tkgui.editor.ParametersTool -->
<g id="edge18" class="edge"><title>Tkinter.Frame&#45;&gt;topo.tkgui.editor.ParametersTool</title>
<path fill="none" stroke="black" stroke-width="0.5" d="M801.793,-159.417C832.478,-164.996 875.012,-172.729 909.631,-179.024"/>
<polygon fill="black" stroke="black" points="909.446,-180.769 914.679,-179.942 910.072,-177.325 909.446,-180.769"/>
</g>
<!-- topo.tkgui.editor.ArrowTool -->
<g id="node37" class="node"><title>topo.tkgui.editor.ArrowTool</title>
<polygon fill="none" stroke="black" stroke-width="0.5" points="1041,-162.5 899,-162.5 899,-141.5 1041,-141.5 1041,-162.5"/>
<text text-anchor="middle" x="970" y="-149.5" font-family="Vera" font-size="10.00">topo.tkgui.editor.ArrowTool</text>
</g>
<!-- Tkinter.Frame&#45;&gt;topo.tkgui.editor.ArrowTool -->
<g id="edge32" class="edge"><title>Tkinter.Frame&#45;&gt;topo.tkgui.editor.ArrowTool</title>
<path fill="none" stroke="black" stroke-width="0.5" d="M801.793,-152C827.734,-152 862.145,-152 893.081,-152"/>
<polygon fill="black" stroke="black" points="893.413,-153.75 898.413,-152 893.413,-150.25 893.413,-153.75"/>
</g>
<!-- topo.tkgui.editor.NodeTool -->
<g id="node39" class="node"><title>topo.tkgui.editor.NodeTool</title>
<polygon fill="none" stroke="black" stroke-width="0.5" points="1040,-124.5 900,-124.5 900,-103.5 1040,-103.5 1040,-124.5"/>
<text text-anchor="middle" x="970" y="-111.5" font-family="Vera" font-size="10.00">topo.tkgui.editor.NodeTool</text>
</g>
<!-- Tkinter.Frame&#45;&gt;topo.tkgui.editor.NodeTool -->
<g id="edge34" class="edge"><title>Tkinter.Frame&#45;&gt;topo.tkgui.editor.NodeTool</title>
<path fill="none" stroke="black" stroke-width="0.5" d="M801.793,-144.583C832.478,-139.004 875.012,-131.271 909.631,-124.976"/>
<polygon fill="black" stroke="black" points="910.072,-126.675 914.679,-124.058 909.446,-123.231 910.072,-126.675"/>
</g>
<!-- topo.tkgui.editor.ConnectionTool -->
<g id="node41" class="node"><title>topo.tkgui.editor.ConnectionTool</title>
<polygon fill="none" stroke="black" stroke-width="0.5" points="1055,-86.5 885,-86.5 885,-65.5 1055,-65.5 1055,-86.5"/>
<text text-anchor="middle" x="970" y="-73.5" font-family="Vera" font-size="10.00">topo.tkgui.editor.ConnectionTool</text>
</g>
<!-- Tkinter.Frame&#45;&gt;topo.tkgui.editor.ConnectionTool -->
<g id="edge36" class="edge"><title>Tkinter.Frame&#45;&gt;topo.tkgui.editor.ConnectionTool</title>
<path fill="none" stroke="black" stroke-width="0.5" d="M785.219,-141.988C802.795,-134.585 827.061,-124.082 848,-114 864.301,-106.152 867.015,-101.23 884,-95 891.965,-92.0787 900.517,-89.5312 909.028,-87.3327"/>
<polygon fill="black" stroke="black" points="909.891,-88.9207 914.316,-86.0087 909.041,-85.5255 909.891,-88.9207"/>
</g>
<!-- Tkinter.Widget -->
<g id="node6" class="node"><title>Tkinter.Widget</title>
<polygon fill="none" stroke="black" stroke-width="0.5" points="583,-190.5 501,-190.5 501,-169.5 583,-169.5 583,-190.5"/>
<text text-anchor="middle" x="542" y="-177.5" font-family="Vera" font-size="10.00">Tkinter.Widget</text>
</g>
<!-- Tkinter.Widget&#45;&gt;Tkinter.Frame -->
<g id="edge4" class="edge"><title>Tkinter.Widget&#45;&gt;Tkinter.Frame</title>
<path fill="none" stroke="black" stroke-width="0.5" d="M583.708,-174.668C621.239,-169.869 676.289,-162.831 715.067,-157.873"/>
<polygon fill="black" stroke="black" points="715.451,-159.588 720.189,-157.218 715.007,-156.116 715.451,-159.588"/>
</g>
<!-- Tkinter.Canvas -->
<g id="node20" class="node"><title>Tkinter.Canvas</title>
<polygon fill="none" stroke="black" stroke-width="0.5" points="804,-228.5 718,-228.5 718,-207.5 804,-207.5 804,-228.5"/>
<text text-anchor="middle" x="761" y="-215.5" font-family="Vera" font-size="10.00">Tkinter.Canvas</text>
</g>
<!-- Tkinter.Widget&#45;&gt;Tkinter.Canvas -->
<g id="edge38" class="edge"><title>Tkinter.Widget&#45;&gt;Tkinter.Canvas</title>
<path fill="none" stroke="black" stroke-width="0.5" d="M583.708,-187.237C620.527,-193.626 674.204,-202.94 712.841,-209.644"/>
<polygon fill="black" stroke="black" points="712.726,-211.4 717.951,-210.53 713.324,-207.951 712.726,-211.4"/>
</g>
<!-- topo.tkgui.editor.EditorEPConnection -->
<g id="node8" class="node"><title>topo.tkgui.editor.EditorEPConnection</title>
<polygon fill="none" stroke="black" stroke-width="0.5" points="637,-105.5 447,-105.5 447,-84.5 637,-84.5 637,-105.5"/>
<text text-anchor="middle" x="542" y="-92.5" font-family="Vera" font-size="10.00">topo.tkgui.editor.EditorEPConnection</text>
</g>
<!-- topo.tkgui.editor.EditorProjection -->
<g id="node29" class="node"><title>topo.tkgui.editor.EditorProjection</title>
<polygon fill="none" stroke="black" stroke-width="0.5" points="847,-105.5 675,-105.5 675,-84.5 847,-84.5 847,-105.5"/>
<text text-anchor="middle" x="761" y="-92.5" font-family="Vera" font-size="10.00">topo.tkgui.editor.EditorProjection</text>
</g>
<!-- topo.tkgui.editor.EditorEPConnection&#45;&gt;topo.tkgui.editor.EditorProjection -->
<g id="edge20" class="edge"><title>topo.tkgui.editor.EditorEPConnection&#45;&gt;topo.tkgui.editor.EditorProjection</title>
<path fill="none" stroke="black" stroke-width="0.5" d="M637.738,-95C648.223,-95 658.878,-95 669.312,-95"/>
<polygon fill="black" stroke="black" points="669.415,-96.7501 674.415,-95 669.415,-93.2501 669.415,-96.7501"/>
</g>
<!-- topo.tkgui.editor.EditorConnection -->
<g id="node9" class="node"><title>topo.tkgui.editor.EditorConnection</title>
<polygon fill="none" stroke="black" stroke-width="0.5" points="409,-105.5 231,-105.5 231,-84.5 409,-84.5 409,-105.5"/>
<text text-anchor="middle" x="320" y="-92.5" font-family="Vera" font-size="10.00">topo.tkgui.editor.EditorConnection</text>
</g>
<!-- topo.tkgui.editor.EditorConnection&#45;&gt;topo.tkgui.editor.EditorEPConnection -->
<g id="edge6" class="edge"><title>topo.tkgui.editor.EditorConnection&#45;&gt;topo.tkgui.editor.EditorEPConnection</title>
<path fill="none" stroke="black" stroke-width="0.5" d="M409.656,-95C419.998,-95 430.596,-95 441.074,-95"/>
<polygon fill="black" stroke="black" points="441.206,-96.7501 446.206,-95 441.206,-93.2501 441.206,-96.7501"/>
</g>
<!-- Tkinter.Misc -->
<g id="node11" class="node"><title>Tkinter.Misc</title>
<polygon fill="none" stroke="black" stroke-width="0.5" points="133,-143.5 61,-143.5 61,-122.5 133,-122.5 133,-143.5"/>
<text text-anchor="middle" x="97" y="-130.5" font-family="Vera" font-size="10.00">Tkinter.Misc</text>
</g>
<!-- Tkinter.BaseWidget -->
<g id="node31" class="node"><title>Tkinter.BaseWidget</title>
<polygon fill="none" stroke="black" stroke-width="0.5" points="373,-143.5 267,-143.5 267,-122.5 373,-122.5 373,-143.5"/>
<text text-anchor="middle" x="320" y="-130.5" font-family="Vera" font-size="10.00">Tkinter.BaseWidget</text>
</g>
<!-- Tkinter.Misc&#45;&gt;Tkinter.BaseWidget -->
<g id="edge22" class="edge"><title>Tkinter.Misc&#45;&gt;Tkinter.BaseWidget</title>
<path fill="none" stroke="black" stroke-width="0.5" d="M133.325,-133C167.814,-133 220.266,-133 260.798,-133"/>
<polygon fill="black" stroke="black" points="261.182,-134.75 266.182,-133 261.182,-131.25 261.182,-134.75"/>
</g>
<!-- topo.tkgui.editor.EditorObject -->
<g id="node12" class="node"><title>topo.tkgui.editor.EditorObject</title>
<polygon fill="none" stroke="black" stroke-width="0.5" points="175,-77.5 19,-77.5 19,-56.5 175,-56.5 175,-77.5"/>
<text text-anchor="middle" x="97" y="-64.5" font-family="Vera" font-size="10.00">topo.tkgui.editor.EditorObject</text>
</g>
<!-- topo.tkgui.editor.EditorObject&#45;&gt;topo.tkgui.editor.EditorConnection -->
<g id="edge8" class="edge"><title>topo.tkgui.editor.EditorObject&#45;&gt;topo.tkgui.editor.EditorConnection</title>
<path fill="none" stroke="black" stroke-width="0.5" d="M175.308,-76.8324C194.629,-79.2583 215.413,-81.868 235.033,-84.3315"/>
<polygon fill="black" stroke="black" points="234.815,-86.0678 239.995,-84.9545 235.252,-82.5951 234.815,-86.0678"/>
</g>
<!-- topo.tkgui.editor.EditorNode -->
<g id="node16" class="node"><title>topo.tkgui.editor.EditorNode</title>
<polygon fill="none" stroke="black" stroke-width="0.5" points="395,-67.5 245,-67.5 245,-46.5 395,-46.5 395,-67.5"/>
<text text-anchor="middle" x="320" y="-54.5" font-family="Vera" font-size="10.00">topo.tkgui.editor.EditorNode</text>
</g>
<!-- topo.tkgui.editor.EditorObject&#45;&gt;topo.tkgui.editor.EditorNode -->
<g id="edge10" class="edge"><title>topo.tkgui.editor.EditorObject&#45;&gt;topo.tkgui.editor.EditorNode</title>
<path fill="none" stroke="black" stroke-width="0.5" d="M175.308,-63.4884C195.901,-62.565 218.157,-61.5669 238.894,-60.637"/>
<polygon fill="black" stroke="black" points="239.215,-62.3745 244.132,-60.4022 239.058,-58.878 239.215,-62.3745"/>
</g>
<!-- Tkinter.XView -->
<g id="node14" class="node"><title>Tkinter.XView</title>
<polygon fill="none" stroke="black" stroke-width="0.5" points="581,-266.5 503,-266.5 503,-245.5 581,-245.5 581,-266.5"/>
<text text-anchor="middle" x="542" y="-253.5" font-family="Vera" font-size="10.00">Tkinter.XView</text>
</g>
<!-- Tkinter.XView&#45;&gt;Tkinter.Canvas -->
<g id="edge40" class="edge"><title>Tkinter.XView&#45;&gt;Tkinter.Canvas</title>
<path fill="none" stroke="black" stroke-width="0.5" d="M581.659,-249.118C618.464,-242.732 673.336,-233.211 712.685,-226.383"/>
<polygon fill="black" stroke="black" points="713.261,-228.06 717.888,-225.481 712.662,-224.611 713.261,-228.06"/>
</g>
<!-- Tkinter.YView -->
<g id="node15" class="node"><title>Tkinter.YView</title>
<polygon fill="none" stroke="black" stroke-width="0.5" points="581,-228.5 503,-228.5 503,-207.5 581,-207.5 581,-228.5"/>
<text text-anchor="middle" x="542" y="-215.5" font-family="Vera" font-size="10.00">Tkinter.YView</text>
</g>
<!-- Tkinter.YView&#45;&gt;Tkinter.Canvas -->
<g id="edge42" class="edge"><title>Tkinter.YView&#45;&gt;Tkinter.Canvas</title>
<path fill="none" stroke="black" stroke-width="0.5" d="M581.153,-218C617.889,-218 672.945,-218 712.458,-218"/>
<polygon fill="black" stroke="black" points="712.684,-219.75 717.684,-218 712.684,-216.25 712.684,-219.75"/>
</g>
<!-- topo.tkgui.editor.EditorNode&#45;&gt;topo.tkgui.editor.EditorEP -->
<g id="edge12" class="edge"><title>topo.tkgui.editor.EditorNode&#45;&gt;topo.tkgui.editor.EditorEP</title>
<path fill="none" stroke="black" stroke-width="0.5" d="M395.779,-57C419.134,-57 444.811,-57 468.042,-57"/>
<polygon fill="black" stroke="black" points="468.269,-58.7501 473.269,-57 468.269,-55.2501 468.269,-58.7501"/>
</g>
<!-- topo.tkgui.editor.EditorCanvas -->
<g id="node19" class="node"><title>topo.tkgui.editor.EditorCanvas</title>
<polygon fill="none" stroke="black" stroke-width="0.5" points="1050,-238.5 890,-238.5 890,-217.5 1050,-217.5 1050,-238.5"/>
<text text-anchor="middle" x="970" y="-225.5" font-family="Vera" font-size="10.00">topo.tkgui.editor.EditorCanvas</text>
</g>
<!-- Tkinter.Canvas&#45;&gt;topo.tkgui.editor.EditorCanvas -->
<g id="edge14" class="edge"><title>Tkinter.Canvas&#45;&gt;topo.tkgui.editor.EditorCanvas</title>
<path fill="none" stroke="black" stroke-width="0.5" d="M804.052,-220.06C827.225,-221.169 856.652,-222.577 884.27,-223.898"/>
<polygon fill="black" stroke="black" points="884.326,-225.653 889.404,-224.144 884.494,-222.157 884.326,-225.653"/>
</g>
<!-- Tkinter.Pack -->
<g id="node24" class="node"><title>Tkinter.Pack</title>
<polygon fill="none" stroke="black" stroke-width="0.5" points="356,-257.5 284,-257.5 284,-236.5 356,-236.5 356,-257.5"/>
<text text-anchor="middle" x="320" y="-244.5" font-family="Vera" font-size="10.00">Tkinter.Pack</text>
</g>
<!-- Tkinter.Pack&#45;&gt;Tkinter.Widget -->
<g id="edge26" class="edge"><title>Tkinter.Pack&#45;&gt;Tkinter.Widget</title>
<path fill="none" stroke="black" stroke-width="0.5" d="M356.732,-243.223C373.562,-240.507 393.409,-235.874 410,-228 428.562,-219.191 427.383,-207.691 446,-199 461.347,-191.836 479.299,-187.37 495.499,-184.587"/>
<polygon fill="black" stroke="black" points="495.813,-186.309 500.466,-183.777 495.249,-182.855 495.813,-186.309"/>
</g>
<!-- Tkinter.Place -->
<g id="node25" class="node"><title>Tkinter.Place</title>
<polygon fill="none" stroke="black" stroke-width="0.5" points="358,-219.5 282,-219.5 282,-198.5 358,-198.5 358,-219.5"/>
<text text-anchor="middle" x="320" y="-206.5" font-family="Vera" font-size="10.00">Tkinter.Place</text>
</g>
<!-- Tkinter.Place&#45;&gt;Tkinter.Widget -->
<g id="edge28" class="edge"><title>Tkinter.Place&#45;&gt;Tkinter.Widget</title>
<path fill="none" stroke="black" stroke-width="0.5" d="M358.669,-203.949C396.595,-198.994 454.475,-191.433 495.028,-186.136"/>
<polygon fill="black" stroke="black" points="495.651,-187.82 500.382,-185.437 495.197,-184.349 495.651,-187.82"/>
</g>
<!-- Tkinter.Grid -->
<g id="node26" class="node"><title>Tkinter.Grid</title>
<polygon fill="none" stroke="black" stroke-width="0.5" points="355,-181.5 285,-181.5 285,-160.5 355,-160.5 355,-181.5"/>
<text text-anchor="middle" x="320" y="-168.5" font-family="Vera" font-size="10.00">Tkinter.Grid</text>
</g>
<!-- Tkinter.Grid&#45;&gt;Tkinter.Widget -->
<g id="edge30" class="edge"><title>Tkinter.Grid&#45;&gt;Tkinter.Widget</title>
<path fill="none" stroke="black" stroke-width="0.5" d="M355.668,-172.446C393.516,-173.98 453.488,-176.412 495.13,-178.1"/>
<polygon fill="black" stroke="black" points="495.303,-179.858 500.37,-178.312 495.445,-176.361 495.303,-179.858"/>
</g>
<!-- Tkinter.BaseWidget&#45;&gt;Tkinter.Widget -->
<g id="edge24" class="edge"><title>Tkinter.BaseWidget&#45;&gt;Tkinter.Widget</title>
<path fill="none" stroke="black" stroke-width="0.5" d="M367.644,-143.049C381.32,-145.936 396.251,-149.091 410,-152 438.362,-158.002 470.149,-164.744 495.422,-170.108"/>
<polygon fill="black" stroke="black" points="495.132,-171.836 500.387,-171.162 495.859,-168.412 495.132,-171.836"/>
</g>
</g>
</svg>
