<?xml version="1.0" encoding="UTF-8" standalone="no"?>
<!DOCTYPE svg PUBLIC "-//W3C//DTD SVG 1.1//EN"
 "http://www.w3.org/Graphics/SVG/1.1/DTD/svg11.dtd">
<!-- Generated by graphviz version 2.26.3 (20100126.1600)
 -->
<!-- Title: inheritance489beebb75 Pages: 1 -->
<svg width="796pt" height="560pt"
 viewBox="0.00 0.00 796.00 560.00" xmlns="http://www.w3.org/2000/svg" xmlns:xlink="http://www.w3.org/1999/xlink">
<g id="graph1" class="graph" transform="scale(1 1) rotate(0) translate(4 556)">
<title>inheritance489beebb75</title>
<polygon fill="white" stroke="white" points="-4,5 -4,-556 793,-556 793,5 -4,5"/>
<!-- Tkinter.Label -->
<g id="node1" class="node"><title>Tkinter.Label</title>
<polygon fill="none" stroke="black" stroke-width="0.5" points="540,-400.5 464,-400.5 464,-379.5 540,-379.5 540,-400.5"/>
<text text-anchor="middle" x="502" y="-387.5" font-family="Vera" font-size="10.00">Tkinter.Label</text>
</g>
<!-- paramtk.tilewrapper.Label -->
<g id="node48" class="node"><title>paramtk.tilewrapper.Label</title>
<polygon fill="none" stroke="black" stroke-width="0.5" points="770,-438.5 630,-438.5 630,-417.5 770,-417.5 770,-438.5"/>
<text text-anchor="middle" x="700" y="-425.5" font-family="Vera" font-size="10.00">paramtk.tilewrapper.Label</text>
</g>
<!-- Tkinter.Label&#45;&gt;paramtk.tilewrapper.Label -->
<g id="edge48" class="edge"><title>Tkinter.Label&#45;&gt;paramtk.tilewrapper.Label</title>
<path fill="none" stroke="black" stroke-width="0.5" d="M540.646,-397.417C569.597,-402.973 609.681,-410.666 642.404,-416.946"/>
<polygon fill="black" stroke="black" points="642.35,-418.718 647.59,-417.942 643.01,-415.28 642.35,-418.718"/>
</g>
<!-- paramtk.tilewrapper.LabelFrame -->
<g id="node53" class="node"><title>paramtk.tilewrapper.LabelFrame</title>
<polygon fill="none" stroke="black" stroke-width="0.5" points="785,-400.5 615,-400.5 615,-379.5 785,-379.5 785,-400.5"/>
<text text-anchor="middle" x="700" y="-387.5" font-family="Vera" font-size="10.00">paramtk.tilewrapper.LabelFrame</text>
</g>
<!-- Tkinter.Label&#45;&gt;paramtk.tilewrapper.LabelFrame -->
<g id="edge54" class="edge"><title>Tkinter.Label&#45;&gt;paramtk.tilewrapper.LabelFrame</title>
<path fill="none" stroke="black" stroke-width="0.5" d="M540.646,-390C560.399,-390 585.336,-390 609.581,-390"/>
<polygon fill="black" stroke="black" points="609.742,-391.75 614.742,-390 609.742,-388.25 609.742,-391.75"/>
</g>
<!-- Tkinter.Widget -->
<g id="node2" class="node"><title>Tkinter.Widget</title>
<polygon fill="none" stroke="black" stroke-width="0.5" points="363,-228.5 281,-228.5 281,-207.5 363,-207.5 363,-228.5"/>
<text text-anchor="middle" x="322" y="-215.5" font-family="Vera" font-size="10.00">Tkinter.Widget</text>
</g>
<!-- Tkinter.Widget&#45;&gt;Tkinter.Label -->
<g id="edge2" class="edge"><title>Tkinter.Widget&#45;&gt;Tkinter.Label</title>
<path fill="none" stroke="black" stroke-width="0.5" d="M363.752,-223.222C373.961,-226.191 384.184,-230.814 392,-238 425.239,-268.56 401.096,-296.739 428,-333 441.69,-351.451 462.893,-366.938 479.099,-377.09"/>
<polygon fill="black" stroke="black" points="478.351,-378.684 483.527,-379.81 480.183,-375.702 478.351,-378.684"/>
</g>
<!-- paramtk.tilewrapper.Widget -->
<g id="node5" class="node"><title>paramtk.tilewrapper.Widget</title>
<polygon fill="none" stroke="black" stroke-width="0.5" points="575,-267.5 429,-267.5 429,-246.5 575,-246.5 575,-267.5"/>
<text text-anchor="middle" x="502" y="-254.5" font-family="Vera" font-size="10.00">paramtk.tilewrapper.Widget</text>
</g>
<!-- Tkinter.Widget&#45;&gt;paramtk.tilewrapper.Widget -->
<g id="edge18" class="edge"><title>Tkinter.Widget&#45;&gt;paramtk.tilewrapper.Widget</title>
<path fill="none" stroke="black" stroke-width="0.5" d="M363.748,-227.045C389.657,-232.659 423.141,-239.914 450.666,-245.878"/>
<polygon fill="black" stroke="black" points="450.476,-247.627 455.733,-246.976 451.217,-244.206 450.476,-247.627"/>
</g>
<!-- Tkinter.Listbox -->
<g id="node7" class="node"><title>Tkinter.Listbox</title>
<polygon fill="none" stroke="black" stroke-width="0.5" points="544,-514.5 460,-514.5 460,-493.5 544,-493.5 544,-514.5"/>
<text text-anchor="middle" x="502" y="-501.5" font-family="Vera" font-size="10.00">Tkinter.Listbox</text>
</g>
<!-- Tkinter.Widget&#45;&gt;Tkinter.Listbox -->
<g id="edge6" class="edge"><title>Tkinter.Widget&#45;&gt;Tkinter.Listbox</title>
<path fill="none" stroke="black" stroke-width="0.5" d="M363.777,-221.819C374.358,-224.762 384.761,-229.723 392,-238 465.035,-321.505 353.846,-402.488 428,-485 434.934,-492.715 444.537,-497.49 454.531,-500.4"/>
<polygon fill="black" stroke="black" points="454.179,-502.117 459.459,-501.684 455.062,-498.73 454.179,-502.117"/>
</g>
<!-- Tkinter.Menubutton -->
<g id="node14" class="node"><title>Tkinter.Menubutton</title>
<polygon fill="none" stroke="black" stroke-width="0.5" points="556,-145.5 448,-145.5 448,-124.5 556,-124.5 556,-145.5"/>
<text text-anchor="middle" x="502" y="-132.5" font-family="Vera" font-size="10.00">Tkinter.Menubutton</text>
</g>
<!-- Tkinter.Widget&#45;&gt;Tkinter.Menubutton -->
<g id="edge12" class="edge"><title>Tkinter.Widget&#45;&gt;Tkinter.Menubutton</title>
<path fill="none" stroke="black" stroke-width="0.5" d="M338.021,-207.784C358.354,-195.126 394.788,-173.465 428,-159 438.523,-154.417 450.215,-150.232 461.139,-146.685"/>
<polygon fill="black" stroke="black" points="461.867,-148.29 466.098,-145.102 460.802,-144.956 461.867,-148.29"/>
</g>
<!-- Tkinter.Frame -->
<g id="node18" class="node"><title>Tkinter.Frame</title>
<polygon fill="none" stroke="black" stroke-width="0.5" points="542,-324.5 462,-324.5 462,-303.5 542,-303.5 542,-324.5"/>
<text text-anchor="middle" x="502" y="-311.5" font-family="Vera" font-size="10.00">Tkinter.Frame</text>
</g>
<!-- Tkinter.Widget&#45;&gt;Tkinter.Frame -->
<g id="edge90" class="edge"><title>Tkinter.Widget&#45;&gt;Tkinter.Frame</title>
<path fill="none" stroke="black" stroke-width="0.5" d="M363.507,-225.924C373.278,-228.835 383.355,-232.755 392,-238 411.89,-250.068 409.387,-262.043 428,-276 441.703,-286.275 458.591,-295.185 472.772,-301.79"/>
<polygon fill="black" stroke="black" points="472.194,-303.45 477.469,-303.94 473.651,-300.268 472.194,-303.45"/>
</g>
<!-- Tkinter.Button -->
<g id="node25" class="node"><title>Tkinter.Button</title>
<polygon fill="none" stroke="black" stroke-width="0.5" points="543,-228.5 461,-228.5 461,-207.5 543,-207.5 543,-228.5"/>
<text text-anchor="middle" x="502" y="-215.5" font-family="Vera" font-size="10.00">Tkinter.Button</text>
</g>
<!-- Tkinter.Widget&#45;&gt;Tkinter.Button -->
<g id="edge70" class="edge"><title>Tkinter.Widget&#45;&gt;Tkinter.Button</title>
<path fill="none" stroke="black" stroke-width="0.5" d="M363.748,-218C391.124,-218 426.955,-218 455.281,-218"/>
<polygon fill="black" stroke="black" points="455.478,-219.75 460.478,-218 455.478,-216.25 455.478,-219.75"/>
</g>
<!-- Tkinter.Scrollbar -->
<g id="node27" class="node"><title>Tkinter.Scrollbar</title>
<polygon fill="none" stroke="black" stroke-width="0.5" points="548,-98.5 456,-98.5 456,-77.5 548,-77.5 548,-98.5"/>
<text text-anchor="middle" x="502" y="-85.5" font-family="Vera" font-size="10.00">Tkinter.Scrollbar</text>
</g>
<!-- Tkinter.Widget&#45;&gt;Tkinter.Scrollbar -->
<g id="edge26" class="edge"><title>Tkinter.Widget&#45;&gt;Tkinter.Scrollbar</title>
<path fill="none" stroke="black" stroke-width="0.5" d="M330.018,-207.92C346.439,-187.868 385.91,-142.62 428,-116 438.361,-109.447 450.492,-104.06 461.9,-99.8222"/>
<polygon fill="black" stroke="black" points="462.628,-101.42 466.737,-98.0764 461.44,-98.1278 462.628,-101.42"/>
</g>
<!-- Tkinter.Checkbutton -->
<g id="node31" class="node"><title>Tkinter.Checkbutton</title>
<polygon fill="none" stroke="black" stroke-width="0.5" points="558,-188.5 446,-188.5 446,-167.5 558,-167.5 558,-188.5"/>
<text text-anchor="middle" x="502" y="-175.5" font-family="Vera" font-size="10.00">Tkinter.Checkbutton</text>
</g>
<!-- Tkinter.Widget&#45;&gt;Tkinter.Checkbutton -->
<g id="edge76" class="edge"><title>Tkinter.Widget&#45;&gt;Tkinter.Checkbutton</title>
<path fill="none" stroke="black" stroke-width="0.5" d="M363.748,-208.723C389.95,-202.9 423.9,-195.356 451.599,-189.2"/>
<polygon fill="black" stroke="black" points="452.193,-190.861 456.695,-188.068 451.434,-187.444 452.193,-190.861"/>
</g>
<!-- Tkinter.Entry -->
<g id="node36" class="node"><title>Tkinter.Entry</title>
<polygon fill="none" stroke="black" stroke-width="0.5" points="540,-476.5 464,-476.5 464,-455.5 540,-455.5 540,-476.5"/>
<text text-anchor="middle" x="502" y="-463.5" font-family="Vera" font-size="10.00">Tkinter.Entry</text>
</g>
<!-- Tkinter.Widget&#45;&gt;Tkinter.Entry -->
<g id="edge82" class="edge"><title>Tkinter.Widget&#45;&gt;Tkinter.Entry</title>
<path fill="none" stroke="black" stroke-width="0.5" d="M363.807,-222.224C374.26,-225.18 384.591,-230.047 392,-238 444.94,-294.828 386.681,-343.237 428,-409 440.066,-428.203 461.033,-443.436 477.575,-453.306"/>
<polygon fill="black" stroke="black" points="476.911,-454.944 482.112,-455.946 478.671,-451.919 476.911,-454.944"/>
</g>
<!-- Tkinter.Radiobutton -->
<g id="node46" class="node"><title>Tkinter.Radiobutton</title>
<polygon fill="none" stroke="black" stroke-width="0.5" points="556,-41.5 448,-41.5 448,-20.5 556,-20.5 556,-41.5"/>
<text text-anchor="middle" x="502" y="-28.5" font-family="Vera" font-size="10.00">Tkinter.Radiobutton</text>
</g>
<!-- Tkinter.Widget&#45;&gt;Tkinter.Radiobutton -->
<g id="edge44" class="edge"><title>Tkinter.Widget&#45;&gt;Tkinter.Radiobutton</title>
<path fill="none" stroke="black" stroke-width="0.5" d="M327.086,-207.687C340.421,-181.516 378.792,-111.59 428,-69 440.46,-58.2159 456.513,-49.496 470.482,-43.1425"/>
<polygon fill="black" stroke="black" points="471.271,-44.7071 475.131,-41.079 469.851,-41.508 471.271,-44.7071"/>
</g>
<!-- paramtk.tilewrapper.Separator -->
<g id="node4" class="node"><title>paramtk.tilewrapper.Separator</title>
<polygon fill="none" stroke="black" stroke-width="0.5" points="781,-324.5 619,-324.5 619,-303.5 781,-303.5 781,-324.5"/>
<text text-anchor="middle" x="700" y="-311.5" font-family="Vera" font-size="10.00">paramtk.tilewrapper.Separator</text>
</g>
<!-- paramtk.tilewrapper.Widget&#45;&gt;paramtk.tilewrapper.Separator -->
<g id="edge4" class="edge"><title>paramtk.tilewrapper.Widget&#45;&gt;paramtk.tilewrapper.Separator</title>
<path fill="none" stroke="black" stroke-width="0.5" d="M528.391,-267.118C550.5,-275.351 583.007,-286.894 612,-295 622.09,-297.821 632.929,-300.467 643.434,-302.837"/>
<polygon fill="black" stroke="black" points="643.298,-304.6 648.559,-303.978 644.059,-301.183 643.298,-304.6"/>
</g>
<!-- paramtk.tilewrapper.Frame -->
<g id="node16" class="node"><title>paramtk.tilewrapper.Frame</title>
<polygon fill="none" stroke="black" stroke-width="0.5" points="772,-362.5 628,-362.5 628,-341.5 772,-341.5 772,-362.5"/>
<text text-anchor="middle" x="700" y="-349.5" font-family="Vera" font-size="10.00">paramtk.tilewrapper.Frame</text>
</g>
<!-- paramtk.tilewrapper.Widget&#45;&gt;paramtk.tilewrapper.Frame -->
<g id="edge14" class="edge"><title>paramtk.tilewrapper.Widget&#45;&gt;paramtk.tilewrapper.Frame</title>
<path fill="none" stroke="black" stroke-width="0.5" d="M526.531,-267.06C541.55,-273.818 560.748,-283.563 576,-295 594.613,-308.957 591.725,-321.591 612,-333 616.902,-335.758 622.164,-338.116 627.589,-340.132"/>
<polygon fill="black" stroke="black" points="627.313,-341.89 632.611,-341.889 628.469,-338.586 627.313,-341.89"/>
</g>
<!-- paramtk.tilewrapper.Button -->
<g id="node23" class="node"><title>paramtk.tilewrapper.Button</title>
<polygon fill="none" stroke="black" stroke-width="0.5" points="773,-172.5 627,-172.5 627,-151.5 773,-151.5 773,-172.5"/>
<text text-anchor="middle" x="700" y="-159.5" font-family="Vera" font-size="10.00">paramtk.tilewrapper.Button</text>
</g>
<!-- paramtk.tilewrapper.Widget&#45;&gt;paramtk.tilewrapper.Button -->
<g id="edge22" class="edge"><title>paramtk.tilewrapper.Widget&#45;&gt;paramtk.tilewrapper.Button</title>
<path fill="none" stroke="black" stroke-width="0.5" d="M557.442,-246.925C564.046,-244.338 570.415,-241.087 576,-237 599.878,-219.527 587.681,-197.854 612,-181 615.774,-178.385 619.84,-176.119 624.082,-174.158"/>
<polygon fill="black" stroke="black" points="624.849,-175.733 628.748,-172.147 623.464,-172.519 624.849,-175.733"/>
</g>
<!-- paramtk.tilewrapper.Checkbutton -->
<g id="node29" class="node"><title>paramtk.tilewrapper.Checkbutton</title>
<polygon fill="none" stroke="black" stroke-width="0.5" points="788,-134.5 612,-134.5 612,-113.5 788,-113.5 788,-134.5"/>
<text text-anchor="middle" x="700" y="-121.5" font-family="Vera" font-size="10.00">paramtk.tilewrapper.Checkbutton</text>
</g>
<!-- paramtk.tilewrapper.Widget&#45;&gt;paramtk.tilewrapper.Checkbutton -->
<g id="edge28" class="edge"><title>paramtk.tilewrapper.Widget&#45;&gt;paramtk.tilewrapper.Checkbutton</title>
<path fill="none" stroke="black" stroke-width="0.5" d="M560.519,-246.988C566.157,-244.377 571.457,-241.103 576,-237 609.202,-207.016 578.04,-172.122 612,-143 614.855,-140.552 617.951,-138.396 621.217,-136.499"/>
<polygon fill="black" stroke="black" points="622.182,-137.968 625.769,-134.07 620.534,-134.88 622.182,-137.968"/>
</g>
<!-- paramtk.tilewrapper.Combobox -->
<g id="node34" class="node"><title>paramtk.tilewrapper.Combobox</title>
<polygon fill="none" stroke="black" stroke-width="0.5" points="783,-514.5 617,-514.5 617,-493.5 783,-493.5 783,-514.5"/>
<text text-anchor="middle" x="700" y="-501.5" font-family="Vera" font-size="10.00">paramtk.tilewrapper.Combobox</text>
</g>
<!-- paramtk.tilewrapper.Widget&#45;&gt;paramtk.tilewrapper.Combobox -->
<g id="edge32" class="edge"><title>paramtk.tilewrapper.Widget&#45;&gt;paramtk.tilewrapper.Combobox</title>
<path fill="none" stroke="black" stroke-width="0.5" d="M536.329,-267.088C550.667,-272.992 566.23,-281.928 576,-295 627.453,-363.844 552.003,-423.46 612,-485 614.114,-487.168 616.412,-489.117 618.854,-490.868"/>
<polygon fill="black" stroke="black" points="618.249,-492.56 623.397,-493.808 620.151,-489.622 618.249,-492.56"/>
</g>
<!-- paramtk.tilewrapper.Entry -->
<g id="node39" class="node"><title>paramtk.tilewrapper.Entry</title>
<polygon fill="none" stroke="black" stroke-width="0.5" points="770,-476.5 630,-476.5 630,-455.5 770,-455.5 770,-476.5"/>
<text text-anchor="middle" x="700" y="-463.5" font-family="Vera" font-size="10.00">paramtk.tilewrapper.Entry</text>
</g>
<!-- paramtk.tilewrapper.Widget&#45;&gt;paramtk.tilewrapper.Entry -->
<g id="edge36" class="edge"><title>paramtk.tilewrapper.Widget&#45;&gt;paramtk.tilewrapper.Entry</title>
<path fill="none" stroke="black" stroke-width="0.5" d="M535.675,-267.141C550.063,-273.086 565.848,-282.039 576,-295 618.81,-349.654 562.423,-398.401 612,-447 615.931,-450.853 620.446,-454.006 625.31,-456.578"/>
<polygon fill="black" stroke="black" points="624.604,-458.181 629.868,-458.78 626.127,-455.029 624.604,-458.181"/>
</g>
<!-- paramtk.tilewrapper.Treeview -->
<g id="node42" class="node"><title>paramtk.tilewrapper.Treeview</title>
<polygon fill="none" stroke="black" stroke-width="0.5" points="777,-552.5 623,-552.5 623,-531.5 777,-531.5 777,-552.5"/>
<text text-anchor="middle" x="700" y="-539.5" font-family="Vera" font-size="10.00">paramtk.tilewrapper.Treeview</text>
</g>
<!-- paramtk.tilewrapper.Widget&#45;&gt;paramtk.tilewrapper.Treeview -->
<g id="edge40" class="edge"><title>paramtk.tilewrapper.Widget&#45;&gt;paramtk.tilewrapper.Treeview</title>
<path fill="none" stroke="black" stroke-width="0.5" d="M536.899,-267.106C551.167,-272.985 566.516,-281.897 576,-295 636.149,-378.106 541.52,-448.455 612,-523 614.08,-525.2 616.35,-527.177 618.768,-528.95"/>
<polygon fill="black" stroke="black" points="618.137,-530.63 623.273,-531.927 620.067,-527.71 618.137,-530.63"/>
</g>
<!-- paramtk.tilewrapper.Widget&#45;&gt;paramtk.tilewrapper.Label -->
<g id="edge46" class="edge"><title>paramtk.tilewrapper.Widget&#45;&gt;paramtk.tilewrapper.Label</title>
<path fill="none" stroke="black" stroke-width="0.5" d="M534.117,-267.024C548.706,-273.042 565.1,-282.089 576,-295 610.275,-335.599 572.719,-373.221 612,-409 615.9,-412.552 620.301,-415.498 625.003,-417.936"/>
<polygon fill="black" stroke="black" points="624.531,-419.648 629.799,-420.207 626.029,-416.485 624.531,-419.648"/>
</g>
<!-- paramtk.tilewrapper.Widget&#45;&gt;paramtk.tilewrapper.LabelFrame -->
<g id="edge52" class="edge"><title>paramtk.tilewrapper.Widget&#45;&gt;paramtk.tilewrapper.LabelFrame</title>
<path fill="none" stroke="black" stroke-width="0.5" d="M531.89,-267.084C546.646,-273.271 563.843,-282.447 576,-295 602.002,-321.848 582.717,-347.775 612,-371 615.115,-373.471 618.48,-375.638 622.014,-377.538"/>
<polygon fill="black" stroke="black" points="621.673,-379.321 626.931,-379.966 623.223,-376.183 621.673,-379.321"/>
</g>
<!-- paramtk.tilewrapper.Menubutton -->
<g id="node60" class="node"><title>paramtk.tilewrapper.Menubutton</title>
<polygon fill="none" stroke="black" stroke-width="0.5" points="786,-96.5 614,-96.5 614,-75.5 786,-75.5 786,-96.5"/>
<text text-anchor="middle" x="700" y="-83.5" font-family="Vera" font-size="10.00">paramtk.tilewrapper.Menubutton</text>
</g>
<!-- paramtk.tilewrapper.Widget&#45;&gt;paramtk.tilewrapper.Menubutton -->
<g id="edge64" class="edge"><title>paramtk.tilewrapper.Widget&#45;&gt;paramtk.tilewrapper.Menubutton</title>
<path fill="none" stroke="black" stroke-width="0.5" d="M562.025,-246.897C567.171,-244.29 571.949,-241.042 576,-237 619.048,-194.051 567.864,-146.831 612,-105 614.457,-102.672 617.128,-100.601 619.959,-98.7616"/>
<polygon fill="black" stroke="black" points="621.119,-100.109 624.532,-96.0573 619.337,-97.0961 621.119,-100.109"/>
</g>
<!-- paramtk.tilewrapper.Notebook -->
<g id="node63" class="node"><title>paramtk.tilewrapper.Notebook</title>
<polygon fill="none" stroke="black" stroke-width="0.5" points="780,-286.5 620,-286.5 620,-265.5 780,-265.5 780,-286.5"/>
<text text-anchor="middle" x="700" y="-273.5" font-family="Vera" font-size="10.00">paramtk.tilewrapper.Notebook</text>
</g>
<!-- paramtk.tilewrapper.Widget&#45;&gt;paramtk.tilewrapper.Notebook -->
<g id="edge68" class="edge"><title>paramtk.tilewrapper.Widget&#45;&gt;paramtk.tilewrapper.Notebook</title>
<path fill="none" stroke="black" stroke-width="0.5" d="M575.728,-264.075C588.249,-265.276 601.349,-266.533 614.149,-267.762"/>
<polygon fill="black" stroke="black" points="614.085,-269.514 619.229,-268.249 614.419,-266.03 614.085,-269.514"/>
</g>
<!-- paramtk.tilewrapper.Paned -->
<g id="node66" class="node"><title>paramtk.tilewrapper.Paned</title>
<polygon fill="none" stroke="black" stroke-width="0.5" points="772,-248.5 628,-248.5 628,-227.5 772,-227.5 772,-248.5"/>
<text text-anchor="middle" x="700" y="-235.5" font-family="Vera" font-size="10.00">paramtk.tilewrapper.Paned</text>
</g>
<!-- paramtk.tilewrapper.Widget&#45;&gt;paramtk.tilewrapper.Paned -->
<g id="edge72" class="edge"><title>paramtk.tilewrapper.Widget&#45;&gt;paramtk.tilewrapper.Paned</title>
<path fill="none" stroke="black" stroke-width="0.5" d="M575.728,-249.925C591.039,-248.456 607.215,-246.904 622.652,-245.422"/>
<polygon fill="black" stroke="black" points="623.047,-247.143 627.857,-244.923 622.712,-243.659 623.047,-247.143"/>
</g>
<!-- paramtk.tilewrapper.Progressbar -->
<g id="node68" class="node"><title>paramtk.tilewrapper.Progressbar</title>
<polygon fill="none" stroke="black" stroke-width="0.5" points="786,-210.5 614,-210.5 614,-189.5 786,-189.5 786,-210.5"/>
<text text-anchor="middle" x="700" y="-197.5" font-family="Vera" font-size="10.00">paramtk.tilewrapper.Progressbar</text>
</g>
<!-- paramtk.tilewrapper.Widget&#45;&gt;paramtk.tilewrapper.Progressbar -->
<g id="edge74" class="edge"><title>paramtk.tilewrapper.Widget&#45;&gt;paramtk.tilewrapper.Progressbar</title>
<path fill="none" stroke="black" stroke-width="0.5" d="M545.117,-246.903C555.366,-244.078 566.175,-240.741 576,-237 592.718,-230.635 595.124,-224.934 612,-219 620.335,-216.069 629.281,-213.506 638.16,-211.291"/>
<polygon fill="black" stroke="black" points="638.636,-212.976 643.082,-210.096 637.81,-209.575 638.636,-212.976"/>
</g>
<!-- paramtk.tilewrapper.Radiobutton -->
<g id="node71" class="node"><title>paramtk.tilewrapper.Radiobutton</title>
<polygon fill="none" stroke="black" stroke-width="0.5" points="786,-20.5 614,-20.5 614,0.5 786,0.5 786,-20.5"/>
<text text-anchor="middle" x="700" y="-7.5" font-family="Vera" font-size="10.00">paramtk.tilewrapper.Radiobutton</text>
</g>
<!-- paramtk.tilewrapper.Widget&#45;&gt;paramtk.tilewrapper.Radiobutton -->
<g id="edge78" class="edge"><title>paramtk.tilewrapper.Widget&#45;&gt;paramtk.tilewrapper.Radiobutton</title>
<path fill="none" stroke="black" stroke-width="0.5" d="M563.136,-246.908C567.928,-244.287 572.324,-241.033 576,-237 639.199,-167.661 547.043,-96.6945 612,-29 614.097,-26.815 616.38,-24.8518 618.81,-23.0895"/>
<polygon fill="black" stroke="black" points="620.107,-24.3319 623.333,-20.1298 618.191,-21.4032 620.107,-24.3319"/>
</g>
<!-- paramtk.tilewrapper.Scrollbar -->
<g id="node76" class="node"><title>paramtk.tilewrapper.Scrollbar</title>
<polygon fill="none" stroke="black" stroke-width="0.5" points="778,-58.5 622,-58.5 622,-37.5 778,-37.5 778,-58.5"/>
<text text-anchor="middle" x="700" y="-45.5" font-family="Vera" font-size="10.00">paramtk.tilewrapper.Scrollbar</text>
</g>
<!-- paramtk.tilewrapper.Widget&#45;&gt;paramtk.tilewrapper.Scrollbar -->
<g id="edge86" class="edge"><title>paramtk.tilewrapper.Widget&#45;&gt;paramtk.tilewrapper.Scrollbar</title>
<path fill="none" stroke="black" stroke-width="0.5" d="M562.625,-246.95C567.586,-244.326 572.158,-241.06 576,-237 629.08,-180.901 557.498,-121.719 612,-67 614.316,-64.6745 616.845,-62.6027 619.535,-60.7585"/>
<polygon fill="black" stroke="black" points="620.571,-62.1747 623.888,-58.0443 618.72,-59.2047 620.571,-62.1747"/>
</g>
<!-- Tkinter.Listbox&#45;&gt;paramtk.tilewrapper.Treeview -->
<g id="edge42" class="edge"><title>Tkinter.Listbox&#45;&gt;paramtk.tilewrapper.Treeview</title>
<path fill="none" stroke="black" stroke-width="0.5" d="M544.963,-512.245C573.573,-517.736 611.492,-525.014 642.668,-530.997"/>
<polygon fill="black" stroke="black" points="642.371,-532.722 647.611,-531.946 643.031,-529.285 642.371,-532.722"/>
</g>
<!-- Tkinter.XView -->
<g id="node9" class="node"><title>Tkinter.XView</title>
<polygon fill="none" stroke="black" stroke-width="0.5" points="361,-476.5 283,-476.5 283,-455.5 361,-455.5 361,-476.5"/>
<text text-anchor="middle" x="322" y="-463.5" font-family="Vera" font-size="10.00">Tkinter.XView</text>
</g>
<!-- Tkinter.XView&#45;&gt;Tkinter.Listbox -->
<g id="edge8" class="edge"><title>Tkinter.XView&#45;&gt;Tkinter.Listbox</title>
<path fill="none" stroke="black" stroke-width="0.5" d="M361.502,-474.339C388.894,-480.122 425.513,-487.853 454.499,-493.972"/>
<polygon fill="black" stroke="black" points="454.196,-495.696 459.449,-495.017 454.919,-492.272 454.196,-495.696"/>
</g>
<!-- Tkinter.XView&#45;&gt;Tkinter.Entry -->
<g id="edge84" class="edge"><title>Tkinter.XView&#45;&gt;Tkinter.Entry</title>
<path fill="none" stroke="black" stroke-width="0.5" d="M361.502,-466C390.263,-466 429.198,-466 458.787,-466"/>
<polygon fill="black" stroke="black" points="458.825,-467.75 463.825,-466 458.825,-464.25 458.825,-467.75"/>
</g>
<!-- Tkinter.YView -->
<g id="node11" class="node"><title>Tkinter.YView</title>
<polygon fill="none" stroke="black" stroke-width="0.5" points="361,-514.5 283,-514.5 283,-493.5 361,-493.5 361,-514.5"/>
<text text-anchor="middle" x="322" y="-501.5" font-family="Vera" font-size="10.00">Tkinter.YView</text>
</g>
<!-- Tkinter.YView&#45;&gt;Tkinter.Listbox -->
<g id="edge10" class="edge"><title>Tkinter.YView&#45;&gt;Tkinter.Listbox</title>
<path fill="none" stroke="black" stroke-width="0.5" d="M361.057,-504C388.312,-504 424.861,-504 453.91,-504"/>
<polygon fill="black" stroke="black" points="454.243,-505.75 459.243,-504 454.243,-502.25 454.243,-505.75"/>
</g>
<!-- Tkinter.Misc -->
<g id="node13" class="node"><title>Tkinter.Misc</title>
<polygon fill="none" stroke="black" stroke-width="0.5" points="72,-171.5 2.84217e-14,-171.5 0,-150.5 72,-150.5 72,-171.5"/>
<text text-anchor="middle" x="36" y="-158.5" font-family="Vera" font-size="10.00">Tkinter.Misc</text>
</g>
<!-- Tkinter.BaseWidget -->
<g id="node51" class="node"><title>Tkinter.BaseWidget</title>
<polygon fill="none" stroke="black" stroke-width="0.5" points="215,-171.5 109,-171.5 109,-150.5 215,-150.5 215,-171.5"/>
<text text-anchor="middle" x="162" y="-158.5" font-family="Vera" font-size="10.00">Tkinter.BaseWidget</text>
</g>
<!-- Tkinter.Misc&#45;&gt;Tkinter.BaseWidget -->
<g id="edge50" class="edge"><title>Tkinter.Misc&#45;&gt;Tkinter.BaseWidget</title>
<path fill="none" stroke="black" stroke-width="0.5" d="M72.1065,-161C81.7306,-161 92.3855,-161 102.895,-161"/>
<polygon fill="black" stroke="black" points="103.038,-162.75 108.038,-161 103.038,-159.25 103.038,-162.75"/>
</g>
<!-- Tkinter.Menubutton&#45;&gt;paramtk.tilewrapper.Menubutton -->
<g id="edge66" class="edge"><title>Tkinter.Menubutton&#45;&gt;paramtk.tilewrapper.Menubutton</title>
<path fill="none" stroke="black" stroke-width="0.5" d="M537.049,-124.926C558.595,-118.862 586.809,-111.15 612,-105 622.929,-102.332 634.669,-99.6622 645.899,-97.2027"/>
<polygon fill="black" stroke="black" points="646.506,-98.8618 651.019,-96.0882 645.761,-95.4419 646.506,-98.8618"/>
</g>
<!-- Tkinter.Frame&#45;&gt;paramtk.tilewrapper.Frame -->
<g id="edge16" class="edge"><title>Tkinter.Frame&#45;&gt;paramtk.tilewrapper.Frame</title>
<path fill="none" stroke="black" stroke-width="0.5" d="M542.546,-321.782C571.435,-327.326 610.67,-334.856 642.747,-341.012"/>
<polygon fill="black" stroke="black" points="642.591,-342.764 647.831,-341.988 643.251,-339.327 642.591,-342.764"/>
</g>
<!-- paramtk.tilewrapper.Style -->
<g id="node20" class="node"><title>paramtk.tilewrapper.Style</title>
<polygon fill="none" stroke="black" stroke-width="0.5" points="391,-267.5 253,-267.5 253,-246.5 391,-246.5 391,-267.5"/>
<text text-anchor="middle" x="322" y="-254.5" font-family="Vera" font-size="10.00">paramtk.tilewrapper.Style</text>
</g>
<!-- paramtk.tilewrapper.Style&#45;&gt;paramtk.tilewrapper.Widget -->
<g id="edge20" class="edge"><title>paramtk.tilewrapper.Style&#45;&gt;paramtk.tilewrapper.Widget</title>
<path fill="none" stroke="black" stroke-width="0.5" d="M391.593,-257C401.965,-257 412.719,-257 423.263,-257"/>
<polygon fill="black" stroke="black" points="423.42,-258.75 428.42,-257 423.42,-255.25 423.42,-258.75"/>
</g>
<!-- Tkinter.Button&#45;&gt;paramtk.tilewrapper.Button -->
<g id="edge24" class="edge"><title>Tkinter.Button&#45;&gt;paramtk.tilewrapper.Button</title>
<path fill="none" stroke="black" stroke-width="0.5" d="M541.503,-207.907C552.753,-204.732 564.95,-201.001 576,-197 592.463,-191.039 595.355,-186.432 612,-181 620.984,-178.068 630.632,-175.462 640.131,-173.19"/>
<polygon fill="black" stroke="black" points="640.61,-174.875 645.08,-172.033 639.813,-171.467 640.61,-174.875"/>
</g>
<!-- Tkinter.Scrollbar&#45;&gt;paramtk.tilewrapper.Scrollbar -->
<g id="edge88" class="edge"><title>Tkinter.Scrollbar&#45;&gt;paramtk.tilewrapper.Scrollbar</title>
<path fill="none" stroke="black" stroke-width="0.5" d="M548.673,-78.5712C577.529,-72.7415 614.71,-65.2302 644.996,-59.112"/>
<polygon fill="black" stroke="black" points="645.625,-60.7703 650.18,-58.0647 644.932,-57.3396 645.625,-60.7703"/>
</g>
<!-- Tkinter.Checkbutton&#45;&gt;paramtk.tilewrapper.Checkbutton -->
<g id="edge30" class="edge"><title>Tkinter.Checkbutton&#45;&gt;paramtk.tilewrapper.Checkbutton</title>
<path fill="none" stroke="black" stroke-width="0.5" d="M532.982,-167.975C562.707,-158.384 604.205,-145.076 612,-143 622.478,-140.209 633.739,-137.535 644.59,-135.12"/>
<polygon fill="black" stroke="black" points="645.036,-136.814 649.543,-134.029 644.283,-133.396 645.036,-136.814"/>
</g>
<!-- Tkinter.Pack -->
<g id="node33" class="node"><title>Tkinter.Pack</title>
<polygon fill="none" stroke="black" stroke-width="0.5" points="198,-285.5 126,-285.5 126,-264.5 198,-264.5 198,-285.5"/>
<text text-anchor="middle" x="162" y="-272.5" font-family="Vera" font-size="10.00">Tkinter.Pack</text>
</g>
<!-- Tkinter.Pack&#45;&gt;Tkinter.Widget -->
<g id="edge58" class="edge"><title>Tkinter.Pack&#45;&gt;Tkinter.Widget</title>
<path fill="none" stroke="black" stroke-width="0.5" d="M192.813,-264.908C200.461,-262.198 208.588,-259.142 216,-256 232.47,-249.018 235.328,-244.485 252,-238 259.901,-234.927 268.468,-232.091 276.809,-229.579"/>
<polygon fill="black" stroke="black" points="277.665,-231.151 281.965,-228.057 276.674,-227.794 277.665,-231.151"/>
</g>
<!-- Tkinter.Entry&#45;&gt;paramtk.tilewrapper.Combobox -->
<g id="edge34" class="edge"><title>Tkinter.Entry&#45;&gt;paramtk.tilewrapper.Combobox</title>
<path fill="none" stroke="black" stroke-width="0.5" d="M540.176,-473.327C569.19,-478.895 609.584,-486.647 642.503,-492.965"/>
<polygon fill="black" stroke="black" points="642.479,-494.742 647.719,-493.966 643.138,-491.305 642.479,-494.742"/>
</g>
<!-- Tkinter.Entry&#45;&gt;paramtk.tilewrapper.Entry -->
<g id="edge38" class="edge"><title>Tkinter.Entry&#45;&gt;paramtk.tilewrapper.Entry</title>
<path fill="none" stroke="black" stroke-width="0.5" d="M540.176,-466C564.085,-466 595.721,-466 624.534,-466"/>
<polygon fill="black" stroke="black" points="624.879,-467.75 629.879,-466 624.879,-464.25 624.879,-467.75"/>
</g>
<!-- Tkinter.Place -->
<g id="node38" class="node"><title>Tkinter.Place</title>
<polygon fill="none" stroke="black" stroke-width="0.5" points="200,-247.5 124,-247.5 124,-226.5 200,-226.5 200,-247.5"/>
<text text-anchor="middle" x="162" y="-234.5" font-family="Vera" font-size="10.00">Tkinter.Place</text>
</g>
<!-- Tkinter.Place&#45;&gt;Tkinter.Widget -->
<g id="edge60" class="edge"><title>Tkinter.Place&#45;&gt;Tkinter.Widget</title>
<path fill="none" stroke="black" stroke-width="0.5" d="M200.732,-232.401C223.181,-229.735 251.601,-226.36 275.284,-223.548"/>
<polygon fill="black" stroke="black" points="275.503,-225.284 280.262,-222.956 275.091,-221.808 275.503,-225.284"/>
</g>
<!-- Tkinter.Grid -->
<g id="node45" class="node"><title>Tkinter.Grid</title>
<polygon fill="none" stroke="black" stroke-width="0.5" points="197,-209.5 127,-209.5 127,-188.5 197,-188.5 197,-209.5"/>
<text text-anchor="middle" x="162" y="-196.5" font-family="Vera" font-size="10.00">Tkinter.Grid</text>
</g>
<!-- Tkinter.Grid&#45;&gt;Tkinter.Widget -->
<g id="edge62" class="edge"><title>Tkinter.Grid&#45;&gt;Tkinter.Widget</title>
<path fill="none" stroke="black" stroke-width="0.5" d="M197.509,-203.217C220.372,-205.932 250.344,-209.491 275.15,-212.437"/>
<polygon fill="black" stroke="black" points="275.189,-214.203 280.36,-213.055 275.601,-210.728 275.189,-214.203"/>
</g>
<!-- Tkinter.Radiobutton&#45;&gt;paramtk.tilewrapper.Radiobutton -->
<g id="edge80" class="edge"><title>Tkinter.Radiobutton&#45;&gt;paramtk.tilewrapper.Radiobutton</title>
<path fill="none" stroke="black" stroke-width="0.5" d="M556.629,-25.2061C572.5,-23.5227 590.29,-21.6359 607.795,-19.7793"/>
<polygon fill="black" stroke="black" points="608.429,-21.472 613.216,-19.2043 608.059,-17.9915 608.429,-21.472"/>
</g>
<!-- Tkinter.BaseWidget&#45;&gt;Tkinter.Widget -->
<g id="edge56" class="edge"><title>Tkinter.BaseWidget&#45;&gt;Tkinter.Widget</title>
<path fill="none" stroke="black" stroke-width="0.5" d="M190.596,-171.026C198.802,-173.913 207.759,-177.073 216,-180 240.559,-188.723 268.285,-198.665 289.22,-206.192"/>
<polygon fill="black" stroke="black" points="288.821,-207.909 294.119,-207.954 290.006,-204.615 288.821,-207.909"/>
</g>
</g>
</svg>
