<?xml version="1.0" encoding="UTF-8" standalone="no"?>
<!DOCTYPE svg PUBLIC "-//W3C//DTD SVG 1.1//EN"
 "http://www.w3.org/Graphics/SVG/1.1/DTD/svg11.dtd">
<!-- Generated by graphviz version 2.26.3 (20100126.1600)
 -->
<!-- Title: inheritance8ed98380c7 Pages: 1 -->
<svg width="700pt" height="142pt"
 viewBox="0.00 0.00 700.00 142.00" xmlns="http://www.w3.org/2000/svg" xmlns:xlink="http://www.w3.org/1999/xlink">
<g id="graph1" class="graph" transform="scale(1 1) rotate(0) translate(4 138)">
<title>inheritance8ed98380c7</title>
<polygon fill="white" stroke="white" points="-4,5 -4,-138 697,-138 697,5 -4,5"/>
<!-- topo.base.functionfamily.DotProduct -->
<g id="node1" class="node"><title>topo.base.functionfamily.DotProduct</title>
<polygon fill="none" stroke="black" stroke-width="0.5" points="692,-134.5 502,-134.5 502,-113.5 692,-113.5 692,-134.5"/>
<text text-anchor="middle" x="597" y="-121.5" font-family="Vera" font-size="10.00">topo.base.functionfamily.DotProduct</text>
</g>
<!-- topo.base.functionfamily.ResponseFn -->
<g id="node2" class="node"><title>topo.base.functionfamily.ResponseFn</title>
<polygon fill="none" stroke="black" stroke-width="0.5" points="444,-129.5 252,-129.5 252,-108.5 444,-108.5 444,-129.5"/>
<text text-anchor="middle" x="348" y="-116.5" font-family="Vera" font-size="10.00">topo.base.functionfamily.ResponseFn</text>
</g>
<!-- topo.base.functionfamily.ResponseFn&#45;&gt;topo.base.functionfamily.DotProduct -->
<g id="edge2" class="edge"><title>topo.base.functionfamily.ResponseFn&#45;&gt;topo.base.functionfamily.DotProduct</title>
<path fill="none" stroke="black" stroke-width="0.5" d="M444.626,-120.94C461.599,-121.281 479.3,-121.637 496.378,-121.979"/>
<polygon fill="black" stroke="black" points="496.623,-123.735 501.657,-122.085 496.693,-120.235 496.623,-123.735"/>
</g>
<!-- param.parameterized.Parameterized -->
<g id="node4" class="node"><title>param.parameterized.Parameterized</title>
<polygon fill="none" stroke="black" stroke-width="0.5" points="194,-86.5 5.68434e-14,-86.5 0,-65.5 194,-65.5 194,-86.5"/>
<text text-anchor="middle" x="97" y="-73.5" font-family="Vera" font-size="10.00">param.parameterized.Parameterized</text>
</g>
<!-- param.parameterized.Parameterized&#45;&gt;topo.base.functionfamily.ResponseFn -->
<g id="edge4" class="edge"><title>param.parameterized.Parameterized&#45;&gt;topo.base.functionfamily.ResponseFn</title>
<path fill="none" stroke="black" stroke-width="0.5" d="M155.532,-86.0273C194.072,-92.6299 244.53,-101.274 284.112,-108.055"/>
<polygon fill="black" stroke="black" points="284.152,-109.837 289.376,-108.957 284.743,-106.388 284.152,-109.837"/>
</g>
<!-- topo.base.functionfamily.LearningFn -->
<g id="node7" class="node"><title>topo.base.functionfamily.LearningFn</title>
<polygon fill="none" stroke="black" stroke-width="0.5" points="442,-86.5 254,-86.5 254,-65.5 442,-65.5 442,-86.5"/>
<text text-anchor="middle" x="348" y="-73.5" font-family="Vera" font-size="10.00">topo.base.functionfamily.LearningFn</text>
</g>
<!-- param.parameterized.Parameterized&#45;&gt;topo.base.functionfamily.LearningFn -->
<g id="edge10" class="edge"><title>param.parameterized.Parameterized&#45;&gt;topo.base.functionfamily.LearningFn</title>
<path fill="none" stroke="black" stroke-width="0.5" d="M194.043,-76C211.949,-76 230.67,-76 248.643,-76"/>
<polygon fill="black" stroke="black" points="248.692,-77.7501 253.692,-76 248.691,-74.2501 248.692,-77.7501"/>
</g>
<!-- topo.base.functionfamily.CoordinateMapperFn -->
<g id="node13" class="node"><title>topo.base.functionfamily.CoordinateMapperFn</title>
<polygon fill="none" stroke="black" stroke-width="0.5" points="466,-39.5 230,-39.5 230,-18.5 466,-18.5 466,-39.5"/>
<text text-anchor="middle" x="348" y="-26.5" font-family="Vera" font-size="10.00">topo.base.functionfamily.CoordinateMapperFn</text>
</g>
<!-- param.parameterized.Parameterized&#45;&gt;topo.base.functionfamily.CoordinateMapperFn -->
<g id="edge14" class="edge"><title>param.parameterized.Parameterized&#45;&gt;topo.base.functionfamily.CoordinateMapperFn</title>
<path fill="none" stroke="black" stroke-width="0.5" d="M150.538,-65.975C191.352,-58.3325 247.502,-47.8183 289.495,-39.955"/>
<polygon fill="black" stroke="black" points="289.952,-41.6501 294.544,-39.0096 289.308,-38.2099 289.952,-41.6501"/>
</g>
<!-- topo.base.functionfamily.IdentityLF -->
<g id="node6" class="node"><title>topo.base.functionfamily.IdentityLF</title>
<polygon fill="none" stroke="black" stroke-width="0.5" points="688,-96.5 506,-96.5 506,-75.5 688,-75.5 688,-96.5"/>
<text text-anchor="middle" x="597" y="-83.5" font-family="Vera" font-size="10.00">topo.base.functionfamily.IdentityLF</text>
</g>
<!-- topo.base.functionfamily.LearningFn&#45;&gt;topo.base.functionfamily.IdentityLF -->
<g id="edge6" class="edge"><title>topo.base.functionfamily.LearningFn&#45;&gt;topo.base.functionfamily.IdentityLF</title>
<path fill="none" stroke="black" stroke-width="0.5" d="M442.136,-79.7806C461.145,-80.544 481.159,-81.3478 500.255,-82.1147"/>
<polygon fill="black" stroke="black" points="500.549,-83.8778 505.616,-82.3299 500.69,-80.3806 500.549,-83.8778"/>
</g>
<!-- topo.base.functionfamily.Hebbian -->
<g id="node9" class="node"><title>topo.base.functionfamily.Hebbian</title>
<polygon fill="none" stroke="black" stroke-width="0.5" points="685,-58.5 509,-58.5 509,-37.5 685,-37.5 685,-58.5"/>
<text text-anchor="middle" x="597" y="-45.5" font-family="Vera" font-size="10.00">topo.base.functionfamily.Hebbian</text>
</g>
<!-- topo.base.functionfamily.LearningFn&#45;&gt;topo.base.functionfamily.Hebbian -->
<g id="edge8" class="edge"><title>topo.base.functionfamily.LearningFn&#45;&gt;topo.base.functionfamily.Hebbian</title>
<path fill="none" stroke="black" stroke-width="0.5" d="M437.191,-65.9704C458.766,-63.5444 481.883,-60.9449 503.643,-58.4979"/>
<polygon fill="black" stroke="black" points="504.076,-60.2104 508.849,-57.9125 503.685,-56.7323 504.076,-60.2104"/>
</g>
<!-- topo.base.functionfamily.IdentityMF -->
<g id="node12" class="node"><title>topo.base.functionfamily.IdentityMF</title>
<polygon fill="none" stroke="black" stroke-width="0.5" points="689,-20.5 505,-20.5 505,0.5 689,0.5 689,-20.5"/>
<text text-anchor="middle" x="597" y="-7.5" font-family="Vera" font-size="10.00">topo.base.functionfamily.IdentityMF</text>
</g>
<!-- topo.base.functionfamily.CoordinateMapperFn&#45;&gt;topo.base.functionfamily.IdentityMF -->
<g id="edge12" class="edge"><title>topo.base.functionfamily.CoordinateMapperFn&#45;&gt;topo.base.functionfamily.IdentityMF</title>
<path fill="none" stroke="black" stroke-width="0.5" d="M466.302,-19.973C477.301,-19.1337 488.365,-18.2895 499.149,-17.4666"/>
<polygon fill="black" stroke="black" points="499.566,-19.1899 504.418,-17.0645 499.3,-15.7 499.566,-19.1899"/>
</g>
</g>
</svg>
