<?xml version="1.0" encoding="UTF-8" standalone="no"?>
<!DOCTYPE svg PUBLIC "-//W3C//DTD SVG 1.1//EN"
 "http://www.w3.org/Graphics/SVG/1.1/DTD/svg11.dtd">
<!-- Generated by graphviz version 2.26.3 (20100126.1600)
 -->
<!-- Title: inheritance273a80740e Pages: 1 -->
<svg width="876pt" height="940pt"
 viewBox="0.00 0.00 876.00 940.00" xmlns="http://www.w3.org/2000/svg" xmlns:xlink="http://www.w3.org/1999/xlink">
<g id="graph1" class="graph" transform="scale(1 1) rotate(0) translate(4 936)">
<title>inheritance273a80740e</title>
<polygon fill="white" stroke="white" points="-4,5 -4,-936 873,-936 873,5 -4,5"/>
<!-- param.parameterized.Parameter -->
<g id="node1" class="node"><title>param.parameterized.Parameter</title>
<polygon fill="none" stroke="black" stroke-width="0.5" points="184,-20.5 10,-20.5 10,0.5 184,0.5 184,-20.5"/>
<text text-anchor="middle" x="97" y="-7.5" font-family="Vera" font-size="10.00">param.parameterized.Parameter</text>
</g>
<!-- param.Selector -->
<g id="node33" class="node"><title>param.Selector</title>
<polygon fill="none" stroke="black" stroke-width="0.5" points="387,-20.5 297,-20.5 297,0.5 387,0.5 387,-20.5"/>
<text text-anchor="middle" x="342" y="-7.5" font-family="Vera" font-size="10.00">param.Selector</text>
</g>
<!-- param.parameterized.Parameter&#45;&gt;param.Selector -->
<g id="edge30" class="edge"><title>param.parameterized.Parameter&#45;&gt;param.Selector</title>
<path fill="none" stroke="black" stroke-width="0.5" d="M184.759,-10C220.453,-10 260.436,-10 291.152,-10"/>
<polygon fill="black" stroke="black" points="291.387,-11.7501 296.387,-10 291.387,-8.2501 291.387,-11.7501"/>
</g>
<!-- imagen.Ring -->
<g id="node2" class="node"><title>imagen.Ring</title>
<polygon fill="none" stroke="black" stroke-width="0.5" points="620,-932.5 544,-932.5 544,-911.5 620,-911.5 620,-932.5"/>
<text text-anchor="middle" x="582" y="-919.5" font-family="Vera" font-size="10.00">imagen.Ring</text>
</g>
<!-- imagen.patterngenerator.PatternGenerator -->
<g id="node3" class="node"><title>imagen.patterngenerator.PatternGenerator</title>
<polygon fill="none" stroke="black" stroke-width="0.5" points="454,-495.5 230,-495.5 230,-474.5 454,-474.5 454,-495.5"/>
<text text-anchor="middle" x="342" y="-482.5" font-family="Vera" font-size="10.00">imagen.patterngenerator.PatternGenerator</text>
</g>
<!-- imagen.patterngenerator.PatternGenerator&#45;&gt;imagen.Ring -->
<g id="edge2" class="edge"><title>imagen.patterngenerator.PatternGenerator&#45;&gt;imagen.Ring</title>
<path fill="none" stroke="black" stroke-width="0.5" d="M344.205,-495.259C356.982,-553.776 423.271,-844.818 490,-903 503.257,-914.559 521.671,-919.751 538.545,-921.889"/>
<polygon fill="black" stroke="black" points="538.564,-923.652 543.725,-922.458 538.946,-920.173 538.564,-923.652"/>
</g>
<!-- imagen.SineGrating -->
<g id="node9" class="node"><title>imagen.SineGrating</title>
<polygon fill="none" stroke="black" stroke-width="0.5" points="638,-894.5 526,-894.5 526,-873.5 638,-873.5 638,-894.5"/>
<text text-anchor="middle" x="582" y="-881.5" font-family="Vera" font-size="10.00">imagen.SineGrating</text>
</g>
<!-- imagen.patterngenerator.PatternGenerator&#45;&gt;imagen.SineGrating -->
<g id="edge28" class="edge"><title>imagen.patterngenerator.PatternGenerator&#45;&gt;imagen.SineGrating</title>
<path fill="none" stroke="black" stroke-width="0.5" d="M342.586,-495.178C346.009,-544.641 367.778,-761.734 490,-865 498.751,-872.394 509.626,-877.16 520.8,-880.185"/>
<polygon fill="black" stroke="black" points="520.676,-881.956 525.949,-881.455 521.514,-878.558 520.676,-881.956"/>
</g>
<!-- imagen.Composite -->
<g id="node13" class="node"><title>imagen.Composite</title>
<polygon fill="none" stroke="black" stroke-width="0.5" points="635,-856.5 529,-856.5 529,-835.5 635,-835.5 635,-856.5"/>
<text text-anchor="middle" x="582" y="-843.5" font-family="Vera" font-size="10.00">imagen.Composite</text>
</g>
<!-- imagen.patterngenerator.PatternGenerator&#45;&gt;imagen.Composite -->
<g id="edge10" class="edge"><title>imagen.patterngenerator.PatternGenerator&#45;&gt;imagen.Composite</title>
<path fill="none" stroke="black" stroke-width="0.5" d="M343.054,-495.096C348.456,-541.427 377.339,-735.332 490,-827 499.409,-834.656 511.116,-839.467 522.992,-842.44"/>
<polygon fill="black" stroke="black" points="522.821,-844.196 528.086,-843.604 523.602,-840.784 522.821,-844.196"/>
</g>
<!-- imagen.PowerSpectrum -->
<g id="node17" class="node"><title>imagen.PowerSpectrum</title>
<polygon fill="none" stroke="black" stroke-width="0.5" points="647,-818.5 517,-818.5 517,-797.5 647,-797.5 647,-818.5"/>
<text text-anchor="middle" x="582" y="-805.5" font-family="Vera" font-size="10.00">imagen.PowerSpectrum</text>
</g>
<!-- imagen.patterngenerator.PatternGenerator&#45;&gt;imagen.PowerSpectrum -->
<g id="edge40" class="edge"><title>imagen.patterngenerator.PatternGenerator&#45;&gt;imagen.PowerSpectrum</title>
<path fill="none" stroke="black" stroke-width="0.5" d="M343.642,-495.137C351.211,-538.38 386.877,-708.851 490,-789 496.398,-793.973 503.779,-797.731 511.519,-800.559"/>
<polygon fill="black" stroke="black" points="511.082,-802.259 516.379,-802.202 512.203,-798.943 511.082,-802.259"/>
</g>
<!-- imagen.ExponentialDecay -->
<g id="node21" class="node"><title>imagen.ExponentialDecay</title>
<polygon fill="none" stroke="black" stroke-width="0.5" points="652,-780.5 512,-780.5 512,-759.5 652,-759.5 652,-780.5"/>
<text text-anchor="middle" x="582" y="-767.5" font-family="Vera" font-size="10.00">imagen.ExponentialDecay</text>
</g>
<!-- imagen.patterngenerator.PatternGenerator&#45;&gt;imagen.ExponentialDecay -->
<g id="edge16" class="edge"><title>imagen.patterngenerator.PatternGenerator&#45;&gt;imagen.ExponentialDecay</title>
<path fill="none" stroke="black" stroke-width="0.5" d="M344.397,-495.219C354.341,-535.199 396.286,-682.188 490,-751 495.032,-754.695 500.617,-757.71 506.476,-760.166"/>
<polygon fill="black" stroke="black" points="506.162,-761.921 511.456,-762.099 507.429,-758.658 506.162,-761.921"/>
</g>
<!-- imagen.Arc -->
<g id="node23" class="node"><title>imagen.Arc</title>
<polygon fill="none" stroke="black" stroke-width="0.5" points="617,-742.5 547,-742.5 547,-721.5 617,-721.5 617,-742.5"/>
<text text-anchor="middle" x="582" y="-729.5" font-family="Vera" font-size="10.00">imagen.Arc</text>
</g>
<!-- imagen.patterngenerator.PatternGenerator&#45;&gt;imagen.Arc -->
<g id="edge18" class="edge"><title>imagen.patterngenerator.PatternGenerator&#45;&gt;imagen.Arc</title>
<path fill="none" stroke="black" stroke-width="0.5" d="M345.371,-495.24C357.895,-531.576 405.443,-655.232 490,-713 504.889,-723.172 524.078,-728.102 541.075,-730.42"/>
<polygon fill="black" stroke="black" points="541.096,-732.186 546.272,-731.058 541.523,-728.712 541.096,-732.186"/>
</g>
<!-- imagen.Line -->
<g id="node25" class="node"><title>imagen.Line</title>
<polygon fill="none" stroke="black" stroke-width="0.5" points="619,-704.5 545,-704.5 545,-683.5 619,-683.5 619,-704.5"/>
<text text-anchor="middle" x="582" y="-691.5" font-family="Vera" font-size="10.00">imagen.Line</text>
</g>
<!-- imagen.patterngenerator.PatternGenerator&#45;&gt;imagen.Line -->
<g id="edge20" class="edge"><title>imagen.patterngenerator.PatternGenerator&#45;&gt;imagen.Line</title>
<path fill="none" stroke="black" stroke-width="0.5" d="M346.723,-495.3C362.136,-527.668 414.37,-627.969 490,-675 504.685,-684.132 522.988,-688.959 539.393,-691.48"/>
<polygon fill="black" stroke="black" points="539.221,-693.223 544.417,-692.191 539.711,-689.758 539.221,-693.223"/>
</g>
<!-- imagen.HalfPlane -->
<g id="node27" class="node"><title>imagen.HalfPlane</title>
<polygon fill="none" stroke="black" stroke-width="0.5" points="632,-666.5 532,-666.5 532,-645.5 632,-645.5 632,-666.5"/>
<text text-anchor="middle" x="582" y="-653.5" font-family="Vera" font-size="10.00">imagen.HalfPlane</text>
</g>
<!-- imagen.patterngenerator.PatternGenerator&#45;&gt;imagen.HalfPlane -->
<g id="edge22" class="edge"><title>imagen.patterngenerator.PatternGenerator&#45;&gt;imagen.HalfPlane</title>
<path fill="none" stroke="black" stroke-width="0.5" d="M348.572,-495.145C367.101,-522.853 422.812,-600.191 490,-637 501.112,-643.088 513.952,-647.23 526.448,-650.048"/>
<polygon fill="black" stroke="black" points="526.147,-651.773 531.402,-651.101 526.875,-648.349 526.147,-651.773"/>
</g>
<!-- imagen.Selector -->
<g id="node30" class="node"><title>imagen.Selector</title>
<polygon fill="none" stroke="black" stroke-width="0.5" points="629,-628.5 535,-628.5 535,-607.5 629,-607.5 629,-628.5"/>
<text text-anchor="middle" x="582" y="-615.5" font-family="Vera" font-size="10.00">imagen.Selector</text>
</g>
<!-- imagen.patterngenerator.PatternGenerator&#45;&gt;imagen.Selector -->
<g id="edge26" class="edge"><title>imagen.patterngenerator.PatternGenerator&#45;&gt;imagen.Selector</title>
<path fill="none" stroke="black" stroke-width="0.5" d="M351.684,-495.097C373.872,-517.589 431.039,-571.959 490,-599 502.171,-604.582 515.998,-608.538 529.167,-611.336"/>
<polygon fill="black" stroke="black" points="529.123,-613.113 534.371,-612.391 529.818,-609.683 529.123,-613.113"/>
</g>
<!-- imagen.RawRectangle -->
<g id="node35" class="node"><title>imagen.RawRectangle</title>
<polygon fill="none" stroke="black" stroke-width="0.5" points="642,-590.5 522,-590.5 522,-569.5 642,-569.5 642,-590.5"/>
<text text-anchor="middle" x="582" y="-577.5" font-family="Vera" font-size="10.00">imagen.RawRectangle</text>
</g>
<!-- imagen.patterngenerator.PatternGenerator&#45;&gt;imagen.RawRectangle -->
<g id="edge32" class="edge"><title>imagen.patterngenerator.PatternGenerator&#45;&gt;imagen.RawRectangle</title>
<path fill="none" stroke="black" stroke-width="0.5" d="M358.209,-495.194C384.757,-511.453 439.606,-543.229 490,-561 498.435,-563.975 507.479,-566.547 516.483,-568.752"/>
<polygon fill="black" stroke="black" points="516.208,-570.486 521.477,-569.94 517.018,-567.081 516.208,-570.486"/>
</g>
<!-- imagen.SquareGrating -->
<g id="node37" class="node"><title>imagen.SquareGrating</title>
<polygon fill="none" stroke="black" stroke-width="0.5" points="644,-552.5 520,-552.5 520,-531.5 644,-531.5 644,-552.5"/>
<text text-anchor="middle" x="582" y="-539.5" font-family="Vera" font-size="10.00">imagen.SquareGrating</text>
</g>
<!-- imagen.patterngenerator.PatternGenerator&#45;&gt;imagen.SquareGrating -->
<g id="edge34" class="edge"><title>imagen.patterngenerator.PatternGenerator&#45;&gt;imagen.SquareGrating</title>
<path fill="none" stroke="black" stroke-width="0.5" d="M378.982,-495.017C408.848,-502.981 452.009,-514.205 490,-523 501.678,-525.704 514.235,-528.421 526.202,-530.921"/>
<polygon fill="black" stroke="black" points="526.039,-532.675 531.29,-531.979 526.751,-529.248 526.039,-532.675"/>
</g>
<!-- imagen.patterngenerator.Constant -->
<g id="node39" class="node"><title>imagen.patterngenerator.Constant</title>
<polygon fill="none" stroke="black" stroke-width="0.5" points="674,-514.5 490,-514.5 490,-493.5 674,-493.5 674,-514.5"/>
<text text-anchor="middle" x="582" y="-501.5" font-family="Vera" font-size="10.00">imagen.patterngenerator.Constant</text>
</g>
<!-- imagen.patterngenerator.PatternGenerator&#45;&gt;imagen.patterngenerator.Constant -->
<g id="edge36" class="edge"><title>imagen.patterngenerator.PatternGenerator&#45;&gt;imagen.patterngenerator.Constant</title>
<path fill="none" stroke="black" stroke-width="0.5" d="M454.27,-493.888C464.451,-494.694 474.707,-495.506 484.742,-496.3"/>
<polygon fill="black" stroke="black" points="484.846,-498.064 489.968,-496.714 485.122,-494.575 484.846,-498.064"/>
</g>
<!-- imagen.Sweeper -->
<g id="node41" class="node"><title>imagen.Sweeper</title>
<polygon fill="none" stroke="black" stroke-width="0.5" points="630,-476.5 534,-476.5 534,-455.5 630,-455.5 630,-476.5"/>
<text text-anchor="middle" x="582" y="-463.5" font-family="Vera" font-size="10.00">imagen.Sweeper</text>
</g>
<!-- imagen.patterngenerator.PatternGenerator&#45;&gt;imagen.Sweeper -->
<g id="edge38" class="edge"><title>imagen.patterngenerator.PatternGenerator&#45;&gt;imagen.Sweeper</title>
<path fill="none" stroke="black" stroke-width="0.5" d="M454.27,-476.112C480.021,-474.073 506.249,-471.997 528.184,-470.26"/>
<polygon fill="black" stroke="black" points="528.527,-471.989 533.374,-469.85 528.251,-468.5 528.527,-471.989"/>
</g>
<!-- imagen.Translator -->
<g id="node44" class="node"><title>imagen.Translator</title>
<polygon fill="none" stroke="black" stroke-width="0.5" points="633,-438.5 531,-438.5 531,-417.5 633,-417.5 633,-438.5"/>
<text text-anchor="middle" x="582" y="-425.5" font-family="Vera" font-size="10.00">imagen.Translator</text>
</g>
<!-- imagen.patterngenerator.PatternGenerator&#45;&gt;imagen.Translator -->
<g id="edge42" class="edge"><title>imagen.patterngenerator.PatternGenerator&#45;&gt;imagen.Translator</title>
<path fill="none" stroke="black" stroke-width="0.5" d="M420.515,-474.949C431.895,-472.553 443.353,-469.609 454,-466 471.134,-460.192 472.972,-453.112 490,-447 501.282,-442.95 513.67,-439.659 525.598,-437.026"/>
<polygon fill="black" stroke="black" points="526.155,-438.696 530.677,-435.937 525.422,-435.274 526.155,-438.696"/>
</g>
<!-- imagen.LogGaussian -->
<g id="node48" class="node"><title>imagen.LogGaussian</title>
<polygon fill="none" stroke="black" stroke-width="0.5" points="640,-400.5 524,-400.5 524,-379.5 640,-379.5 640,-400.5"/>
<text text-anchor="middle" x="582" y="-387.5" font-family="Vera" font-size="10.00">imagen.LogGaussian</text>
</g>
<!-- imagen.patterngenerator.PatternGenerator&#45;&gt;imagen.LogGaussian -->
<g id="edge46" class="edge"><title>imagen.patterngenerator.PatternGenerator&#45;&gt;imagen.LogGaussian</title>
<path fill="none" stroke="black" stroke-width="0.5" d="M436.846,-474.968C442.881,-472.512 448.666,-469.554 454,-466 478.935,-449.386 465.365,-426.056 490,-409 498.412,-403.176 508.226,-399.065 518.25,-396.178"/>
<polygon fill="black" stroke="black" points="518.805,-397.841 523.182,-394.857 517.9,-394.46 518.805,-397.841"/>
</g>
<!-- imagen.SigmoidedDoG -->
<g id="node50" class="node"><title>imagen.SigmoidedDoG</title>
<polygon fill="none" stroke="black" stroke-width="0.5" points="646,-362.5 518,-362.5 518,-341.5 646,-341.5 646,-362.5"/>
<text text-anchor="middle" x="582" y="-349.5" font-family="Vera" font-size="10.00">imagen.SigmoidedDoG</text>
</g>
<!-- imagen.patterngenerator.PatternGenerator&#45;&gt;imagen.SigmoidedDoG -->
<g id="edge48" class="edge"><title>imagen.patterngenerator.PatternGenerator&#45;&gt;imagen.SigmoidedDoG</title>
<path fill="none" stroke="black" stroke-width="0.5" d="M440.125,-474.98C445.063,-472.476 449.735,-469.508 454,-466 488.872,-437.318 455.644,-400.298 490,-371 496.577,-365.391 504.374,-361.29 512.604,-358.313"/>
<polygon fill="black" stroke="black" points="513.58,-359.834 517.777,-356.602 512.481,-356.511 513.58,-359.834"/>
</g>
<!-- imagen.Gaussian -->
<g id="node53" class="node"><title>imagen.Gaussian</title>
<polygon fill="none" stroke="black" stroke-width="0.5" points="632,-324.5 532,-324.5 532,-303.5 632,-303.5 632,-324.5"/>
<text text-anchor="middle" x="582" y="-311.5" font-family="Vera" font-size="10.00">imagen.Gaussian</text>
</g>
<!-- imagen.patterngenerator.PatternGenerator&#45;&gt;imagen.Gaussian -->
<g id="edge52" class="edge"><title>imagen.patterngenerator.PatternGenerator&#45;&gt;imagen.Gaussian</title>
<path fill="none" stroke="black" stroke-width="0.5" d="M441.576,-474.896C446.023,-472.39 450.204,-469.447 454,-466 499.336,-424.832 445.404,-374.968 490,-333 500.049,-323.543 513.505,-318.262 527.018,-315.429"/>
<polygon fill="black" stroke="black" points="527.403,-317.137 531.993,-314.493 526.756,-313.698 527.403,-317.137"/>
</g>
<!-- imagen.Disk -->
<g id="node55" class="node"><title>imagen.Disk</title>
<polygon fill="none" stroke="black" stroke-width="0.5" points="620,-286.5 544,-286.5 544,-265.5 620,-265.5 620,-286.5"/>
<text text-anchor="middle" x="582" y="-273.5" font-family="Vera" font-size="10.00">imagen.Disk</text>
</g>
<!-- imagen.patterngenerator.PatternGenerator&#45;&gt;imagen.Disk -->
<g id="edge54" class="edge"><title>imagen.patterngenerator.PatternGenerator&#45;&gt;imagen.Disk</title>
<path fill="none" stroke="black" stroke-width="0.5" d="M442.322,-474.855C446.517,-472.348 450.445,-469.417 454,-466 509.991,-412.176 434.977,-349.813 490,-295 502.67,-282.378 521.366,-277.083 538.601,-275.154"/>
<polygon fill="black" stroke="black" points="539.079,-276.867 543.894,-274.659 538.753,-273.382 539.079,-276.867"/>
</g>
<!-- imagen.Gabor -->
<g id="node57" class="node"><title>imagen.Gabor</title>
<polygon fill="none" stroke="black" stroke-width="0.5" points="624,-248.5 540,-248.5 540,-227.5 624,-227.5 624,-248.5"/>
<text text-anchor="middle" x="582" y="-235.5" font-family="Vera" font-size="10.00">imagen.Gabor</text>
</g>
<!-- imagen.patterngenerator.PatternGenerator&#45;&gt;imagen.Gabor -->
<g id="edge56" class="edge"><title>imagen.patterngenerator.PatternGenerator&#45;&gt;imagen.Gabor</title>
<path fill="none" stroke="black" stroke-width="0.5" d="M442.975,-474.706C446.942,-472.226 450.649,-469.343 454,-466 520.734,-399.435 424.462,-324.743 490,-257 501.51,-245.103 518.356,-239.653 534.496,-237.408"/>
<polygon fill="black" stroke="black" points="534.72,-239.144 539.476,-236.81 534.303,-235.669 534.72,-239.144"/>
</g>
<!-- imagen.SigmoidedDoLG -->
<g id="node59" class="node"><title>imagen.SigmoidedDoLG</title>
<polygon fill="none" stroke="black" stroke-width="0.5" points="648,-210.5 516,-210.5 516,-189.5 648,-189.5 648,-210.5"/>
<text text-anchor="middle" x="582" y="-197.5" font-family="Vera" font-size="10.00">imagen.SigmoidedDoLG</text>
</g>
<!-- imagen.patterngenerator.PatternGenerator&#45;&gt;imagen.SigmoidedDoLG -->
<g id="edge58" class="edge"><title>imagen.patterngenerator.PatternGenerator&#45;&gt;imagen.SigmoidedDoLG</title>
<path fill="none" stroke="black" stroke-width="0.5" d="M443.082,-474.812C447.02,-472.304 450.692,-469.386 454,-466 531.525,-386.646 413.9,-299.722 490,-219 495.652,-213.005 502.655,-208.637 510.257,-205.486"/>
<polygon fill="black" stroke="black" points="510.997,-207.077 515.06,-203.677 509.764,-203.801 510.997,-207.077"/>
</g>
<!-- imagen.GaussiansCorner -->
<g id="node61" class="node"><title>imagen.GaussiansCorner</title>
<polygon fill="none" stroke="black" stroke-width="0.5" points="650,-172.5 514,-172.5 514,-151.5 650,-151.5 650,-172.5"/>
<text text-anchor="middle" x="582" y="-159.5" font-family="Vera" font-size="10.00">imagen.GaussiansCorner</text>
</g>
<!-- imagen.patterngenerator.PatternGenerator&#45;&gt;imagen.GaussiansCorner -->
<g id="edge60" class="edge"><title>imagen.patterngenerator.PatternGenerator&#45;&gt;imagen.GaussiansCorner</title>
<path fill="none" stroke="black" stroke-width="0.5" d="M443.162,-474.889C447.079,-472.361 450.725,-469.417 454,-466 542.345,-373.828 403.31,-274.73 490,-181 495.129,-175.455 501.413,-171.294 508.266,-168.199"/>
<polygon fill="black" stroke="black" points="509.13,-169.736 513.094,-166.222 507.804,-166.497 509.13,-169.736"/>
</g>
<!-- imagen.Rectangle -->
<g id="node64" class="node"><title>imagen.Rectangle</title>
<polygon fill="none" stroke="black" stroke-width="0.5" points="633,-134.5 531,-134.5 531,-113.5 633,-113.5 633,-134.5"/>
<text text-anchor="middle" x="582" y="-121.5" font-family="Vera" font-size="10.00">imagen.Rectangle</text>
</g>
<!-- imagen.patterngenerator.PatternGenerator&#45;&gt;imagen.Rectangle -->
<g id="edge70" class="edge"><title>imagen.patterngenerator.PatternGenerator&#45;&gt;imagen.Rectangle</title>
<path fill="none" stroke="black" stroke-width="0.5" d="M443.223,-474.948C447.125,-472.404 450.75,-469.441 454,-466 553.183,-360.991 392.702,-249.758 490,-143 499.295,-132.801 512.496,-127.268 526.005,-124.431"/>
<polygon fill="black" stroke="black" points="526.393,-126.139 530.989,-123.505 525.753,-122.698 526.393,-126.139"/>
</g>
<!-- imagen.Sigmoid -->
<g id="node68" class="node"><title>imagen.Sigmoid</title>
<polygon fill="none" stroke="black" stroke-width="0.5" points="629,-96.5 535,-96.5 535,-75.5 629,-75.5 629,-96.5"/>
<text text-anchor="middle" x="582" y="-83.5" font-family="Vera" font-size="10.00">imagen.Sigmoid</text>
</g>
<!-- imagen.patterngenerator.PatternGenerator&#45;&gt;imagen.Sigmoid -->
<g id="edge66" class="edge"><title>imagen.patterngenerator.PatternGenerator&#45;&gt;imagen.Sigmoid</title>
<path fill="none" stroke="black" stroke-width="0.5" d="M443.273,-474.994C447.161,-472.438 450.77,-469.46 454,-466 509.017,-407.07 436.041,-164.9 490,-105 500.003,-93.8953 514.634,-88.3062 529.297,-85.7068"/>
<polygon fill="black" stroke="black" points="529.592,-87.4321 534.265,-84.9363 529.055,-83.9735 529.592,-87.4321"/>
</g>
<!-- imagen.DifferenceOfGaussians -->
<g id="node70" class="node"><title>imagen.DifferenceOfGaussians</title>
<polygon fill="none" stroke="black" stroke-width="0.5" points="664,-58.5 500,-58.5 500,-37.5 664,-37.5 664,-58.5"/>
<text text-anchor="middle" x="582" y="-45.5" font-family="Vera" font-size="10.00">imagen.DifferenceOfGaussians</text>
</g>
<!-- imagen.patterngenerator.PatternGenerator&#45;&gt;imagen.DifferenceOfGaussians -->
<g id="edge68" class="edge"><title>imagen.patterngenerator.PatternGenerator&#45;&gt;imagen.DifferenceOfGaussians</title>
<path fill="none" stroke="black" stroke-width="0.5" d="M443.796,-474.709C447.49,-472.215 450.92,-469.33 454,-466 514.447,-400.64 430.726,-133.426 490,-67 491.9,-64.8704 493.971,-62.9432 496.179,-61.2007"/>
<polygon fill="black" stroke="black" points="497.245,-62.5901 500.296,-58.2597 495.21,-59.7421 497.245,-62.5901"/>
</g>
<!-- imagen.TimeSeriesParam -->
<g id="node5" class="node"><title>imagen.TimeSeriesParam</title>
<polygon fill="none" stroke="black" stroke-width="0.5" points="859,-20.5 719,-20.5 719,0.5 859,0.5 859,-20.5"/>
<text text-anchor="middle" x="789" y="-7.5" font-family="Vera" font-size="10.00">imagen.TimeSeriesParam</text>
</g>
<!-- param.ClassSelector -->
<g id="node6" class="node"><title>param.ClassSelector</title>
<polygon fill="none" stroke="black" stroke-width="0.5" points="640,-20.5 524,-20.5 524,0.5 640,0.5 640,-20.5"/>
<text text-anchor="middle" x="582" y="-7.5" font-family="Vera" font-size="10.00">param.ClassSelector</text>
</g>
<!-- param.ClassSelector&#45;&gt;imagen.TimeSeriesParam -->
<g id="edge4" class="edge"><title>param.ClassSelector&#45;&gt;imagen.TimeSeriesParam</title>
<path fill="none" stroke="black" stroke-width="0.5" d="M640.212,-10C662.986,-10 689.405,-10 713.606,-10"/>
<polygon fill="black" stroke="black" points="713.734,-11.7501 718.734,-10 713.734,-8.2501 713.734,-11.7501"/>
</g>
<!-- imagen.OrientationContrast -->
<g id="node8" class="node"><title>imagen.OrientationContrast</title>
<polygon fill="none" stroke="black" stroke-width="0.5" points="864,-894.5 714,-894.5 714,-873.5 864,-873.5 864,-894.5"/>
<text text-anchor="middle" x="789" y="-881.5" font-family="Vera" font-size="10.00">imagen.OrientationContrast</text>
</g>
<!-- imagen.SineGrating&#45;&gt;imagen.OrientationContrast -->
<g id="edge6" class="edge"><title>imagen.SineGrating&#45;&gt;imagen.OrientationContrast</title>
<path fill="none" stroke="black" stroke-width="0.5" d="M638.017,-884C659.815,-884 685.2,-884 708.866,-884"/>
<polygon fill="black" stroke="black" points="708.888,-885.75 713.888,-884 708.887,-882.25 708.888,-885.75"/>
</g>
<!-- param.parameterized.Parameterized -->
<g id="node11" class="node"><title>param.parameterized.Parameterized</title>
<polygon fill="none" stroke="black" stroke-width="0.5" points="194,-476.5 5.68434e-14,-476.5 0,-455.5 194,-455.5 194,-476.5"/>
<text text-anchor="middle" x="97" y="-463.5" font-family="Vera" font-size="10.00">param.parameterized.Parameterized</text>
</g>
<!-- param.parameterized.Parameterized&#45;&gt;imagen.patterngenerator.PatternGenerator -->
<g id="edge24" class="edge"><title>param.parameterized.Parameterized&#45;&gt;imagen.patterngenerator.PatternGenerator</title>
<path fill="none" stroke="black" stroke-width="0.5" d="M194.182,-473.537C204.286,-474.32 214.629,-475.122 224.922,-475.92"/>
<polygon fill="black" stroke="black" points="224.849,-477.67 229.969,-476.312 225.12,-474.18 224.849,-477.67"/>
</g>
<!-- imagen.TimeSeries -->
<g id="node19" class="node"><title>imagen.TimeSeries</title>
<polygon fill="none" stroke="black" stroke-width="0.5" points="396,-457.5 288,-457.5 288,-436.5 396,-436.5 396,-457.5"/>
<text text-anchor="middle" x="342" y="-444.5" font-family="Vera" font-size="10.00">imagen.TimeSeries</text>
</g>
<!-- param.parameterized.Parameterized&#45;&gt;imagen.TimeSeries -->
<g id="edge14" class="edge"><title>param.parameterized.Parameterized&#45;&gt;imagen.TimeSeries</title>
<path fill="none" stroke="black" stroke-width="0.5" d="M194.182,-458.463C223.866,-456.161 255.624,-453.699 282.066,-451.648"/>
<polygon fill="black" stroke="black" points="282.431,-453.375 287.281,-451.244 282.161,-449.885 282.431,-453.375"/>
</g>
<!-- imagen.SeparatedComposite -->
<g id="node12" class="node"><title>imagen.SeparatedComposite</title>
<polygon fill="none" stroke="black" stroke-width="0.5" points="868,-856.5 710,-856.5 710,-835.5 868,-835.5 868,-856.5"/>
<text text-anchor="middle" x="789" y="-843.5" font-family="Vera" font-size="10.00">imagen.SeparatedComposite</text>
</g>
<!-- imagen.Composite&#45;&gt;imagen.SeparatedComposite -->
<g id="edge8" class="edge"><title>imagen.Composite&#45;&gt;imagen.SeparatedComposite</title>
<path fill="none" stroke="black" stroke-width="0.5" d="M635.577,-846C656.626,-846 681.297,-846 704.625,-846"/>
<polygon fill="black" stroke="black" points="704.893,-847.75 709.893,-846 704.892,-844.25 704.893,-847.75"/>
</g>
<!-- imagen.Spectrogram -->
<g id="node16" class="node"><title>imagen.Spectrogram</title>
<polygon fill="none" stroke="black" stroke-width="0.5" points="848,-818.5 730,-818.5 730,-797.5 848,-797.5 848,-818.5"/>
<text text-anchor="middle" x="789" y="-805.5" font-family="Vera" font-size="10.00">imagen.Spectrogram</text>
</g>
<!-- imagen.PowerSpectrum&#45;&gt;imagen.Spectrogram -->
<g id="edge12" class="edge"><title>imagen.PowerSpectrum&#45;&gt;imagen.Spectrogram</title>
<path fill="none" stroke="black" stroke-width="0.5" d="M647.781,-808C672.206,-808 699.878,-808 724.214,-808"/>
<polygon fill="black" stroke="black" points="724.354,-809.75 729.354,-808 724.354,-806.25 724.354,-809.75"/>
</g>
<!-- imagen.Curve -->
<g id="node46" class="node"><title>imagen.Curve</title>
<polygon fill="none" stroke="black" stroke-width="0.5" points="830,-742.5 748,-742.5 748,-721.5 830,-721.5 830,-742.5"/>
<text text-anchor="middle" x="789" y="-729.5" font-family="Vera" font-size="10.00">imagen.Curve</text>
</g>
<!-- imagen.Arc&#45;&gt;imagen.Curve -->
<g id="edge44" class="edge"><title>imagen.Arc&#45;&gt;imagen.Curve</title>
<path fill="none" stroke="black" stroke-width="0.5" d="M617.585,-732C652.1,-732 704.658,-732 742.474,-732"/>
<polygon fill="black" stroke="black" points="742.476,-733.75 747.476,-732 742.476,-730.25 742.476,-733.75"/>
</g>
<!-- param.Selector&#45;&gt;param.ClassSelector -->
<g id="edge50" class="edge"><title>param.Selector&#45;&gt;param.ClassSelector</title>
<path fill="none" stroke="black" stroke-width="0.5" d="M387.707,-10C424.748,-10 477.358,-10 518.494,-10"/>
<polygon fill="black" stroke="black" points="518.706,-11.7501 523.706,-10 518.706,-8.2501 518.706,-11.7501"/>
</g>
<!-- imagen.Null -->
<g id="node66" class="node"><title>imagen.Null</title>
<polygon fill="none" stroke="black" stroke-width="0.5" points="826,-514.5 752,-514.5 752,-493.5 826,-493.5 826,-514.5"/>
<text text-anchor="middle" x="789" y="-501.5" font-family="Vera" font-size="10.00">imagen.Null</text>
</g>
<!-- imagen.patterngenerator.Constant&#45;&gt;imagen.Null -->
<g id="edge64" class="edge"><title>imagen.patterngenerator.Constant&#45;&gt;imagen.Null</title>
<path fill="none" stroke="black" stroke-width="0.5" d="M674.3,-504C699.545,-504 725.69,-504 746.63,-504"/>
<polygon fill="black" stroke="black" points="746.839,-505.75 751.839,-504 746.838,-502.25 746.839,-505.75"/>
</g>
<!-- imagen.TwoRectangles -->
<g id="node63" class="node"><title>imagen.TwoRectangles</title>
<polygon fill="none" stroke="black" stroke-width="0.5" points="851,-134.5 727,-134.5 727,-113.5 851,-113.5 851,-134.5"/>
<text text-anchor="middle" x="789" y="-121.5" font-family="Vera" font-size="10.00">imagen.TwoRectangles</text>
</g>
<!-- imagen.Rectangle&#45;&gt;imagen.TwoRectangles -->
<g id="edge62" class="edge"><title>imagen.Rectangle&#45;&gt;imagen.TwoRectangles</title>
<path fill="none" stroke="black" stroke-width="0.5" d="M633.169,-124C659.881,-124 692.903,-124 721.665,-124"/>
<polygon fill="black" stroke="black" points="721.983,-125.75 726.983,-124 721.983,-122.25 721.983,-125.75"/>
</g>
</g>
</svg>
