<?xml version="1.0" encoding="UTF-8" standalone="no"?>
<!DOCTYPE svg PUBLIC "-//W3C//DTD SVG 1.1//EN"
 "http://www.w3.org/Graphics/SVG/1.1/DTD/svg11.dtd">
<!-- Generated by graphviz version 2.26.3 (20100126.1600)
 -->
<!-- Title: inheritance0bce68b9cf Pages: 1 -->
<svg width="1872pt" height="403pt"
 viewBox="0.00 0.00 1872.00 403.00" xmlns="http://www.w3.org/2000/svg" xmlns:xlink="http://www.w3.org/1999/xlink">
<g id="graph1" class="graph" transform="scale(1 1) rotate(0) translate(4 399)">
<title>inheritance0bce68b9cf</title>
<polygon fill="white" stroke="white" points="-4,5 -4,-399 1869,-399 1869,5 -4,5"/>
<!-- topo.command.analysis.measure_rfs -->
<g id="node1" class="node"><title>topo.command.analysis.measure_rfs</title>
<polygon fill="none" stroke="black" stroke-width="0.5" points="1826,-362.5 1632,-362.5 1632,-341.5 1826,-341.5 1826,-362.5"/>
<text text-anchor="middle" x="1729" y="-349.5" font-family="Vera" font-size="10.00">topo.command.analysis.measure_rfs</text>
</g>
<!-- topo.analysis.featureresponses.SingleInputResponseCommand -->
<g id="node2" class="node"><title>topo.analysis.featureresponses.SingleInputResponseCommand</title>
<polygon fill="none" stroke="black" stroke-width="0.5" points="1539,-319.5 1221,-319.5 1221,-298.5 1539,-298.5 1539,-319.5"/>
<text text-anchor="middle" x="1380" y="-306.5" font-family="Vera" font-size="10.00">topo.analysis.featureresponses.SingleInputResponseCommand</text>
</g>
<!-- topo.analysis.featureresponses.SingleInputResponseCommand&#45;&gt;topo.command.analysis.measure_rfs -->
<g id="edge2" class="edge"><title>topo.analysis.featureresponses.SingleInputResponseCommand&#45;&gt;topo.command.analysis.measure_rfs</title>
<path fill="none" stroke="black" stroke-width="0.5" d="M1479.39,-319.021C1505.02,-321.767 1532.55,-324.857 1558,-328 1560.52,-328.311 1608.13,-334.996 1652.47,-341.231"/>
<polygon fill="black" stroke="black" points="1652.39,-342.986 1657.58,-341.949 1652.87,-339.52 1652.39,-342.986"/>
</g>
<!-- topo.command.analysis.update_projectionactivity -->
<g id="node4" class="node"><title>topo.command.analysis.update_projectionactivity</title>
<polygon fill="none" stroke="black" stroke-width="0.5" points="1139,-395.5 885,-395.5 885,-374.5 1139,-374.5 1139,-395.5"/>
<text text-anchor="middle" x="1012" y="-382.5" font-family="Vera" font-size="10.00">topo.command.analysis.update_projectionactivity</text>
</g>
<!-- topo.plotting.plotgroup.ProjectionSheetMeasurementCommand -->
<g id="node5" class="node"><title>topo.plotting.plotgroup.ProjectionSheetMeasurementCommand</title>
<polygon fill="none" stroke="black" stroke-width="0.5" points="822,-357.5 500,-357.5 500,-336.5 822,-336.5 822,-357.5"/>
<text text-anchor="middle" x="661" y="-344.5" font-family="Vera" font-size="10.00">topo.plotting.plotgroup.ProjectionSheetMeasurementCommand</text>
</g>
<!-- topo.plotting.plotgroup.ProjectionSheetMeasurementCommand&#45;&gt;topo.command.analysis.update_projectionactivity -->
<g id="edge4" class="edge"><title>topo.plotting.plotgroup.ProjectionSheetMeasurementCommand&#45;&gt;topo.command.analysis.update_projectionactivity</title>
<path fill="none" stroke="black" stroke-width="0.5" d="M753.68,-357.034C803.164,-362.391 864.045,-368.982 914.273,-374.42"/>
<polygon fill="black" stroke="black" points="914.25,-376.178 919.409,-374.976 914.627,-372.698 914.25,-376.178"/>
</g>
<!-- topo.plotting.plotgroup.UnitMeasurementCommand -->
<g id="node32" class="node"><title>topo.plotting.plotgroup.UnitMeasurementCommand</title>
<polygon fill="none" stroke="black" stroke-width="0.5" points="1145,-357.5 879,-357.5 879,-336.5 1145,-336.5 1145,-357.5"/>
<text text-anchor="middle" x="1012" y="-344.5" font-family="Vera" font-size="10.00">topo.plotting.plotgroup.UnitMeasurementCommand</text>
</g>
<!-- topo.plotting.plotgroup.ProjectionSheetMeasurementCommand&#45;&gt;topo.plotting.plotgroup.UnitMeasurementCommand -->
<g id="edge54" class="edge"><title>topo.plotting.plotgroup.ProjectionSheetMeasurementCommand&#45;&gt;topo.plotting.plotgroup.UnitMeasurementCommand</title>
<path fill="none" stroke="black" stroke-width="0.5" d="M822.118,-347C839.348,-347 856.765,-347 873.698,-347"/>
<polygon fill="black" stroke="black" points="873.936,-348.75 878.936,-347 873.936,-345.25 873.936,-348.75"/>
</g>
<!-- param.parameterized.Parameterized -->
<g id="node7" class="node"><title>param.parameterized.Parameterized</title>
<polygon fill="none" stroke="black" stroke-width="0.5" points="194,-186.5 5.68434e-14,-186.5 0,-165.5 194,-165.5 194,-186.5"/>
<text text-anchor="middle" x="97" y="-173.5" font-family="Vera" font-size="10.00">param.parameterized.Parameterized</text>
</g>
<!-- param.parameterized.ParameterizedFunction -->
<g id="node11" class="node"><title>param.parameterized.ParameterizedFunction</title>
<polygon fill="none" stroke="black" stroke-width="0.5" points="464,-243.5 230,-243.5 230,-222.5 464,-222.5 464,-243.5"/>
<text text-anchor="middle" x="347" y="-230.5" font-family="Vera" font-size="10.00">param.parameterized.ParameterizedFunction</text>
</g>
<!-- param.parameterized.Parameterized&#45;&gt;param.parameterized.ParameterizedFunction -->
<g id="edge8" class="edge"><title>param.parameterized.Parameterized&#45;&gt;param.parameterized.ParameterizedFunction</title>
<path fill="none" stroke="black" stroke-width="0.5" d="M141.12,-186.059C185.075,-196.081 252.414,-211.434 298.007,-221.83"/>
<polygon fill="black" stroke="black" points="297.638,-223.54 302.902,-222.946 298.416,-220.128 297.638,-223.54"/>
</g>
<!-- imagen.patterngenerator.PatternGenerator -->
<g id="node16" class="node"><title>imagen.patterngenerator.PatternGenerator</title>
<polygon fill="none" stroke="black" stroke-width="0.5" points="459,-186.5 235,-186.5 235,-165.5 459,-165.5 459,-186.5"/>
<text text-anchor="middle" x="347" y="-173.5" font-family="Vera" font-size="10.00">imagen.patterngenerator.PatternGenerator</text>
</g>
<!-- param.parameterized.Parameterized&#45;&gt;imagen.patterngenerator.PatternGenerator -->
<g id="edge50" class="edge"><title>param.parameterized.Parameterized&#45;&gt;imagen.patterngenerator.PatternGenerator</title>
<path fill="none" stroke="black" stroke-width="0.5" d="M194.014,-176C205.664,-176 217.655,-176 229.554,-176"/>
<polygon fill="black" stroke="black" points="229.647,-177.75 234.647,-176 229.647,-174.25 229.647,-177.75"/>
</g>
<!-- topo.command.analysis.PatternPresenter2 -->
<g id="node34" class="node"><title>topo.command.analysis.PatternPresenter2</title>
<polygon fill="none" stroke="black" stroke-width="0.5" points="457,-148.5 237,-148.5 237,-127.5 457,-127.5 457,-148.5"/>
<text text-anchor="middle" x="347" y="-135.5" font-family="Vera" font-size="10.00">topo.command.analysis.PatternPresenter2</text>
</g>
<!-- param.parameterized.Parameterized&#45;&gt;topo.command.analysis.PatternPresenter2 -->
<g id="edge30" class="edge"><title>param.parameterized.Parameterized&#45;&gt;topo.command.analysis.PatternPresenter2</title>
<path fill="none" stroke="black" stroke-width="0.5" d="M163.012,-165.966C197.758,-160.685 240.394,-154.204 275.872,-148.811"/>
<polygon fill="black" stroke="black" points="276.372,-150.506 281.052,-148.024 275.846,-147.045 276.372,-150.506"/>
</g>
<!-- topo.command.analysis.measure_corner_angle_pref -->
<g id="node8" class="node"><title>topo.command.analysis.measure_corner_angle_pref</title>
<polygon fill="none" stroke="black" stroke-width="0.5" points="1863,-324.5 1595,-324.5 1595,-303.5 1863,-303.5 1863,-324.5"/>
<text text-anchor="middle" x="1729" y="-311.5" font-family="Vera" font-size="10.00">topo.command.analysis.measure_corner_angle_pref</text>
</g>
<!-- topo.analysis.featureresponses.PositionMeasurementCommand -->
<g id="node9" class="node"><title>topo.analysis.featureresponses.PositionMeasurementCommand</title>
<polygon fill="none" stroke="black" stroke-width="0.5" points="1542,-281.5 1218,-281.5 1218,-260.5 1542,-260.5 1542,-281.5"/>
<text text-anchor="middle" x="1380" y="-268.5" font-family="Vera" font-size="10.00">topo.analysis.featureresponses.PositionMeasurementCommand</text>
</g>
<!-- topo.analysis.featureresponses.PositionMeasurementCommand&#45;&gt;topo.command.analysis.measure_corner_angle_pref -->
<g id="edge6" class="edge"><title>topo.analysis.featureresponses.PositionMeasurementCommand&#45;&gt;topo.command.analysis.measure_corner_angle_pref</title>
<path fill="none" stroke="black" stroke-width="0.5" d="M1479.39,-281.021C1505.02,-283.767 1532.55,-286.857 1558,-290 1560.52,-290.311 1608.13,-296.996 1652.47,-303.231"/>
<polygon fill="black" stroke="black" points="1652.39,-304.986 1657.58,-303.949 1652.87,-301.52 1652.39,-304.986"/>
</g>
<!-- topo.command.analysis.measure_corner_or_pref -->
<g id="node18" class="node"><title>topo.command.analysis.measure_corner_or_pref</title>
<polygon fill="none" stroke="black" stroke-width="0.5" points="1855,-286.5 1603,-286.5 1603,-265.5 1855,-265.5 1855,-286.5"/>
<text text-anchor="middle" x="1729" y="-273.5" font-family="Vera" font-size="10.00">topo.command.analysis.measure_corner_or_pref</text>
</g>
<!-- topo.analysis.featureresponses.PositionMeasurementCommand&#45;&gt;topo.command.analysis.measure_corner_or_pref -->
<g id="edge14" class="edge"><title>topo.analysis.featureresponses.PositionMeasurementCommand&#45;&gt;topo.command.analysis.measure_corner_or_pref</title>
<path fill="none" stroke="black" stroke-width="0.5" d="M1542.24,-273.324C1560.87,-273.591 1579.69,-273.861 1597.84,-274.121"/>
<polygon fill="black" stroke="black" points="1597.91,-275.872 1602.94,-274.194 1597.96,-272.372 1597.91,-275.872"/>
</g>
<!-- param.parameterized.ParameterizedFunction&#45;&gt;topo.plotting.plotgroup.ProjectionSheetMeasurementCommand -->
<g id="edge18" class="edge"><title>param.parameterized.ParameterizedFunction&#45;&gt;topo.plotting.plotgroup.ProjectionSheetMeasurementCommand</title>
<path fill="none" stroke="black" stroke-width="0.5" d="M374.59,-243.017C432.377,-263.997 565.91,-312.477 628.066,-335.043"/>
<polygon fill="black" stroke="black" points="627.838,-336.822 633.135,-336.883 629.033,-333.532 627.838,-336.822"/>
</g>
<!-- topo.analysis.featureresponses.PatternPresentingCommand -->
<g id="node51" class="node"><title>topo.analysis.featureresponses.PatternPresentingCommand</title>
<polygon fill="none" stroke="black" stroke-width="0.5" points="813,-272.5 509,-272.5 509,-251.5 813,-251.5 813,-272.5"/>
<text text-anchor="middle" x="661" y="-259.5" font-family="Vera" font-size="10.00">topo.analysis.featureresponses.PatternPresentingCommand</text>
</g>
<!-- param.parameterized.ParameterizedFunction&#45;&gt;topo.analysis.featureresponses.PatternPresentingCommand -->
<g id="edge52" class="edge"><title>param.parameterized.ParameterizedFunction&#45;&gt;topo.analysis.featureresponses.PatternPresentingCommand</title>
<path fill="none" stroke="black" stroke-width="0.5" d="M455.501,-243.021C485.161,-245.76 517.382,-248.736 547.323,-251.501"/>
<polygon fill="black" stroke="black" points="547.355,-253.262 552.495,-251.979 547.677,-249.776 547.355,-253.262"/>
</g>
<!-- topo.command.analysis.save_plotgroup -->
<g id="node56" class="node"><title>topo.command.analysis.save_plotgroup</title>
<polygon fill="none" stroke="black" stroke-width="0.5" points="765,-234.5 557,-234.5 557,-213.5 765,-213.5 765,-234.5"/>
<text text-anchor="middle" x="661" y="-221.5" font-family="Vera" font-size="10.00">topo.command.analysis.save_plotgroup</text>
</g>
<!-- param.parameterized.ParameterizedFunction&#45;&gt;topo.command.analysis.save_plotgroup -->
<g id="edge56" class="edge"><title>param.parameterized.ParameterizedFunction&#45;&gt;topo.command.analysis.save_plotgroup</title>
<path fill="none" stroke="black" stroke-width="0.5" d="M464.369,-229.636C492.984,-228.816 523.479,-227.942 551.702,-227.133"/>
<polygon fill="black" stroke="black" points="551.997,-228.875 556.945,-226.982 551.897,-225.377 551.997,-228.875"/>
</g>
<!-- topo.analysis.featureresponses.MeasureResponseCommand -->
<g id="node13" class="node"><title>topo.analysis.featureresponses.MeasureResponseCommand</title>
<polygon fill="none" stroke="black" stroke-width="0.5" points="1165,-234.5 859,-234.5 859,-213.5 1165,-213.5 1165,-234.5"/>
<text text-anchor="middle" x="1012" y="-221.5" font-family="Vera" font-size="10.00">topo.analysis.featureresponses.MeasureResponseCommand</text>
</g>
<!-- topo.analysis.featureresponses.MeasureResponseCommand&#45;&gt;topo.analysis.featureresponses.SingleInputResponseCommand -->
<g id="edge24" class="edge"><title>topo.analysis.featureresponses.MeasureResponseCommand&#45;&gt;topo.analysis.featureresponses.SingleInputResponseCommand</title>
<path fill="none" stroke="black" stroke-width="0.5" d="M1035.49,-234.118C1070.88,-248.913 1140.32,-276.186 1202,-290 1216.58,-293.265 1231.96,-295.973 1247.32,-298.22"/>
<polygon fill="black" stroke="black" points="1247.33,-299.989 1252.53,-298.964 1247.83,-296.524 1247.33,-299.989"/>
</g>
<!-- topo.analysis.featureresponses.MeasureResponseCommand&#45;&gt;topo.analysis.featureresponses.PositionMeasurementCommand -->
<g id="edge10" class="edge"><title>topo.analysis.featureresponses.MeasureResponseCommand&#45;&gt;topo.analysis.featureresponses.PositionMeasurementCommand</title>
<path fill="none" stroke="black" stroke-width="0.5" d="M1090.49,-234.025C1151.06,-241.761 1234.67,-252.439 1296.47,-260.331"/>
<polygon fill="black" stroke="black" points="1296.45,-262.093 1301.63,-260.99 1296.89,-258.621 1296.45,-262.093"/>
</g>
<!-- topo.command.analysis.measure_log_frequency_preference -->
<g id="node20" class="node"><title>topo.command.analysis.measure_log_frequency_preference</title>
<polygon fill="none" stroke="black" stroke-width="0.5" points="1533,-234.5 1227,-234.5 1227,-213.5 1533,-213.5 1533,-234.5"/>
<text text-anchor="middle" x="1380" y="-221.5" font-family="Vera" font-size="10.00">topo.command.analysis.measure_log_frequency_preference</text>
</g>
<!-- topo.analysis.featureresponses.MeasureResponseCommand&#45;&gt;topo.command.analysis.measure_log_frequency_preference -->
<g id="edge16" class="edge"><title>topo.analysis.featureresponses.MeasureResponseCommand&#45;&gt;topo.command.analysis.measure_log_frequency_preference</title>
<path fill="none" stroke="black" stroke-width="0.5" d="M1165.67,-224C1184.13,-224 1203.02,-224 1221.55,-224"/>
<polygon fill="black" stroke="black" points="1221.77,-225.75 1226.77,-224 1221.77,-222.25 1221.77,-225.75"/>
</g>
<!-- topo.analysis.featureresponses.SinusoidalMeasureResponseCommand -->
<g id="node29" class="node"><title>topo.analysis.featureresponses.SinusoidalMeasureResponseCommand</title>
<polygon fill="none" stroke="black" stroke-width="0.5" points="1558,-177.5 1202,-177.5 1202,-156.5 1558,-156.5 1558,-177.5"/>
<text text-anchor="middle" x="1380" y="-164.5" font-family="Vera" font-size="10.00">topo.analysis.featureresponses.SinusoidalMeasureResponseCommand</text>
</g>
<!-- topo.analysis.featureresponses.MeasureResponseCommand&#45;&gt;topo.analysis.featureresponses.SinusoidalMeasureResponseCommand -->
<g id="edge40" class="edge"><title>topo.analysis.featureresponses.MeasureResponseCommand&#45;&gt;topo.analysis.featureresponses.SinusoidalMeasureResponseCommand</title>
<path fill="none" stroke="black" stroke-width="0.5" d="M1076.94,-213.941C1142.4,-203.802 1243.09,-188.206 1310.22,-177.808"/>
<polygon fill="black" stroke="black" points="1310.72,-179.501 1315.4,-177.006 1310.19,-176.043 1310.72,-179.501"/>
</g>
<!-- topo.command.analysis.measure_latency_preference -->
<g id="node42" class="node"><title>topo.command.analysis.measure_latency_preference</title>
<polygon fill="none" stroke="black" stroke-width="0.5" points="1517,-139.5 1243,-139.5 1243,-118.5 1517,-118.5 1517,-139.5"/>
<text text-anchor="middle" x="1380" y="-126.5" font-family="Vera" font-size="10.00">topo.command.analysis.measure_latency_preference</text>
</g>
<!-- topo.analysis.featureresponses.MeasureResponseCommand&#45;&gt;topo.command.analysis.measure_latency_preference -->
<g id="edge38" class="edge"><title>topo.analysis.featureresponses.MeasureResponseCommand&#45;&gt;topo.command.analysis.measure_latency_preference</title>
<path fill="none" stroke="black" stroke-width="0.5" d="M1031.92,-213.903C1065.86,-197.184 1137.52,-164.013 1202,-148 1215.03,-144.764 1228.73,-142.08 1242.5,-139.852"/>
<polygon fill="black" stroke="black" points="1242.91,-141.559 1247.58,-139.052 1242.37,-138.102 1242.91,-141.559"/>
</g>
<!-- topo.command.analysis.measure_frequency_preference -->
<g id="node47" class="node"><title>topo.command.analysis.measure_frequency_preference</title>
<polygon fill="none" stroke="black" stroke-width="0.5" points="1523,-101.5 1237,-101.5 1237,-80.5 1523,-80.5 1523,-101.5"/>
<text text-anchor="middle" x="1380" y="-88.5" font-family="Vera" font-size="10.00">topo.command.analysis.measure_frequency_preference</text>
</g>
<!-- topo.analysis.featureresponses.MeasureResponseCommand&#45;&gt;topo.command.analysis.measure_frequency_preference -->
<g id="edge44" class="edge"><title>topo.analysis.featureresponses.MeasureResponseCommand&#45;&gt;topo.command.analysis.measure_frequency_preference</title>
<path fill="none" stroke="black" stroke-width="0.5" d="M1024.39,-213.877C1053.37,-190.835 1128.69,-134.57 1202,-110 1211.5,-106.817 1221.42,-104.135 1231.52,-101.877"/>
<polygon fill="black" stroke="black" points="1231.97,-103.57 1236.49,-100.803 1231.23,-100.149 1231.97,-103.57"/>
</g>
<!-- topo.command.analysis.frequency_mapper -->
<g id="node15" class="node"><title>topo.command.analysis.frequency_mapper</title>
<polygon fill="none" stroke="black" stroke-width="0.5" points="773,-196.5 549,-196.5 549,-175.5 773,-175.5 773,-196.5"/>
<text text-anchor="middle" x="661" y="-183.5" font-family="Vera" font-size="10.00">topo.command.analysis.frequency_mapper</text>
</g>
<!-- imagen.patterngenerator.PatternGenerator&#45;&gt;topo.command.analysis.frequency_mapper -->
<g id="edge12" class="edge"><title>imagen.patterngenerator.PatternGenerator&#45;&gt;topo.command.analysis.frequency_mapper</title>
<path fill="none" stroke="black" stroke-width="0.5" d="M459.031,-179.568C486.472,-180.442 515.915,-181.379 543.6,-182.261"/>
<polygon fill="black" stroke="black" points="543.694,-184.015 548.748,-182.425 543.806,-180.517 543.694,-184.015"/>
</g>
<!-- topo.command.analysis.log_frequency_mapper -->
<g id="node23" class="node"><title>topo.command.analysis.log_frequency_mapper</title>
<polygon fill="none" stroke="black" stroke-width="0.5" points="783,-158.5 539,-158.5 539,-137.5 783,-137.5 783,-158.5"/>
<text text-anchor="middle" x="661" y="-145.5" font-family="Vera" font-size="10.00">topo.command.analysis.log_frequency_mapper</text>
</g>
<!-- imagen.patterngenerator.PatternGenerator&#45;&gt;topo.command.analysis.log_frequency_mapper -->
<g id="edge20" class="edge"><title>imagen.patterngenerator.PatternGenerator&#45;&gt;topo.command.analysis.log_frequency_mapper</title>
<path fill="none" stroke="black" stroke-width="0.5" d="M459.031,-166.01C486.472,-163.563 515.915,-160.938 543.6,-158.469"/>
<polygon fill="black" stroke="black" points="543.923,-160.197 548.748,-158.01 543.612,-156.711 543.923,-160.197"/>
</g>
<!-- topo.command.analysis.latency_mapper -->
<g id="node25" class="node"><title>topo.command.analysis.latency_mapper</title>
<polygon fill="none" stroke="black" stroke-width="0.5" points="767,-120.5 555,-120.5 555,-99.5 767,-99.5 767,-120.5"/>
<text text-anchor="middle" x="661" y="-107.5" font-family="Vera" font-size="10.00">topo.command.analysis.latency_mapper</text>
</g>
<!-- imagen.patterngenerator.PatternGenerator&#45;&gt;topo.command.analysis.latency_mapper -->
<g id="edge22" class="edge"><title>imagen.patterngenerator.PatternGenerator&#45;&gt;topo.command.analysis.latency_mapper</title>
<path fill="none" stroke="black" stroke-width="0.5" d="M437.742,-165.934C446.796,-163.553 455.7,-160.618 464,-157 482.582,-148.901 481.247,-136.692 500,-129 515.575,-122.611 532.661,-118.171 549.701,-115.117"/>
<polygon fill="black" stroke="black" points="550.353,-116.781 554.987,-114.213 549.763,-113.331 550.353,-116.781"/>
</g>
<!-- topo.command.analysis.measure_od_pref -->
<g id="node28" class="node"><title>topo.command.analysis.measure_od_pref</title>
<polygon fill="none" stroke="black" stroke-width="0.5" points="1838,-248.5 1620,-248.5 1620,-227.5 1838,-227.5 1838,-248.5"/>
<text text-anchor="middle" x="1729" y="-235.5" font-family="Vera" font-size="10.00">topo.command.analysis.measure_od_pref</text>
</g>
<!-- topo.analysis.featureresponses.SinusoidalMeasureResponseCommand&#45;&gt;topo.command.analysis.measure_od_pref -->
<g id="edge26" class="edge"><title>topo.analysis.featureresponses.SinusoidalMeasureResponseCommand&#45;&gt;topo.command.analysis.measure_od_pref</title>
<path fill="none" stroke="black" stroke-width="0.5" d="M1438.31,-177.001C1473.36,-183.614 1518.64,-193.229 1558,-205 1574.45,-209.919 1577.39,-214.664 1594,-219 1606.13,-222.167 1619.02,-224.836 1631.84,-227.079"/>
<polygon fill="black" stroke="black" points="1631.71,-228.833 1636.93,-227.95 1632.3,-225.383 1631.71,-228.833"/>
</g>
<!-- topo.command.analysis.measure_sine_pref -->
<g id="node36" class="node"><title>topo.command.analysis.measure_sine_pref</title>
<polygon fill="none" stroke="black" stroke-width="0.5" points="1842,-210.5 1616,-210.5 1616,-189.5 1842,-189.5 1842,-210.5"/>
<text text-anchor="middle" x="1729" y="-197.5" font-family="Vera" font-size="10.00">topo.command.analysis.measure_sine_pref</text>
</g>
<!-- topo.analysis.featureresponses.SinusoidalMeasureResponseCommand&#45;&gt;topo.command.analysis.measure_sine_pref -->
<g id="edge32" class="edge"><title>topo.analysis.featureresponses.SinusoidalMeasureResponseCommand&#45;&gt;topo.command.analysis.measure_sine_pref</title>
<path fill="none" stroke="black" stroke-width="0.5" d="M1486.13,-177.035C1527.85,-180.981 1575.77,-185.511 1617.96,-189.5"/>
<polygon fill="black" stroke="black" points="1617.93,-191.255 1623.07,-189.984 1618.26,-187.771 1617.93,-191.255"/>
</g>
<!-- topo.command.analysis.measure_phasedisparity -->
<g id="node38" class="node"><title>topo.command.analysis.measure_phasedisparity</title>
<polygon fill="none" stroke="black" stroke-width="0.5" points="1855,-172.5 1603,-172.5 1603,-151.5 1855,-151.5 1855,-172.5"/>
<text text-anchor="middle" x="1729" y="-159.5" font-family="Vera" font-size="10.00">topo.command.analysis.measure_phasedisparity</text>
</g>
<!-- topo.analysis.featureresponses.SinusoidalMeasureResponseCommand&#45;&gt;topo.command.analysis.measure_phasedisparity -->
<g id="edge34" class="edge"><title>topo.analysis.featureresponses.SinusoidalMeasureResponseCommand&#45;&gt;topo.command.analysis.measure_phasedisparity</title>
<path fill="none" stroke="black" stroke-width="0.5" d="M1558.08,-164.449C1571.43,-164.257 1584.75,-164.067 1597.74,-163.881"/>
<polygon fill="black" stroke="black" points="1597.91,-165.628 1602.89,-163.807 1597.86,-162.129 1597.91,-165.628"/>
</g>
<!-- topo.command.analysis.measure_hue_pref -->
<g id="node45" class="node"><title>topo.command.analysis.measure_hue_pref</title>
<polygon fill="none" stroke="black" stroke-width="0.5" points="1841,-134.5 1617,-134.5 1617,-113.5 1841,-113.5 1841,-134.5"/>
<text text-anchor="middle" x="1729" y="-121.5" font-family="Vera" font-size="10.00">topo.command.analysis.measure_hue_pref</text>
</g>
<!-- topo.analysis.featureresponses.SinusoidalMeasureResponseCommand&#45;&gt;topo.command.analysis.measure_hue_pref -->
<g id="edge42" class="edge"><title>topo.analysis.featureresponses.SinusoidalMeasureResponseCommand&#45;&gt;topo.command.analysis.measure_hue_pref</title>
<path fill="none" stroke="black" stroke-width="0.5" d="M1479.39,-156.979C1505.02,-154.233 1532.55,-151.143 1558,-148 1560.52,-147.689 1608.13,-141.004 1652.47,-134.769"/>
<polygon fill="black" stroke="black" points="1652.87,-136.48 1657.58,-134.051 1652.39,-133.014 1652.87,-136.48"/>
</g>
<!-- topo.command.analysis.measure_dr_pref -->
<g id="node49" class="node"><title>topo.command.analysis.measure_dr_pref</title>
<polygon fill="none" stroke="black" stroke-width="0.5" points="1837,-96.5 1621,-96.5 1621,-75.5 1837,-75.5 1837,-96.5"/>
<text text-anchor="middle" x="1729" y="-83.5" font-family="Vera" font-size="10.00">topo.command.analysis.measure_dr_pref</text>
</g>
<!-- topo.analysis.featureresponses.SinusoidalMeasureResponseCommand&#45;&gt;topo.command.analysis.measure_dr_pref -->
<g id="edge46" class="edge"><title>topo.analysis.featureresponses.SinusoidalMeasureResponseCommand&#45;&gt;topo.command.analysis.measure_dr_pref</title>
<path fill="none" stroke="black" stroke-width="0.5" d="M1537.83,-156.957C1544.8,-154.404 1551.56,-151.438 1558,-148 1579.99,-136.269 1572.21,-117.098 1594,-105 1600.94,-101.147 1608.38,-97.9774 1616.07,-95.3783"/>
<polygon fill="black" stroke="black" points="1616.66,-97.0268 1620.88,-93.8328 1615.59,-93.6942 1616.66,-97.0268"/>
</g>
<!-- topo.command.analysis.measure_second_or_pref -->
<g id="node58" class="node"><title>topo.command.analysis.measure_second_or_pref</title>
<polygon fill="none" stroke="black" stroke-width="0.5" points="1857,-58.5 1601,-58.5 1601,-37.5 1857,-37.5 1857,-58.5"/>
<text text-anchor="middle" x="1729" y="-45.5" font-family="Vera" font-size="10.00">topo.command.analysis.measure_second_or_pref</text>
</g>
<!-- topo.analysis.featureresponses.SinusoidalMeasureResponseCommand&#45;&gt;topo.command.analysis.measure_second_or_pref -->
<g id="edge58" class="edge"><title>topo.analysis.featureresponses.SinusoidalMeasureResponseCommand&#45;&gt;topo.command.analysis.measure_second_or_pref</title>
<path fill="none" stroke="black" stroke-width="0.5" d="M1543.76,-156.808C1548.71,-154.217 1553.48,-151.293 1558,-148 1589.85,-124.808 1562.55,-90.7221 1594,-67 1597.12,-64.6484 1600.39,-62.521 1603.8,-60.5987"/>
<polygon fill="black" stroke="black" points="1604.91,-61.989 1608.51,-58.1027 1603.27,-58.8958 1604.91,-61.989"/>
</g>
<!-- topo.command.analysis.measure_or_pref -->
<g id="node60" class="node"><title>topo.command.analysis.measure_or_pref</title>
<polygon fill="none" stroke="black" stroke-width="0.5" points="1837,-20.5 1621,-20.5 1621,0.5 1837,0.5 1837,-20.5"/>
<text text-anchor="middle" x="1729" y="-7.5" font-family="Vera" font-size="10.00">topo.command.analysis.measure_or_pref</text>
</g>
<!-- topo.analysis.featureresponses.SinusoidalMeasureResponseCommand&#45;&gt;topo.command.analysis.measure_or_pref -->
<g id="edge60" class="edge"><title>topo.analysis.featureresponses.SinusoidalMeasureResponseCommand&#45;&gt;topo.command.analysis.measure_or_pref</title>
<path fill="none" stroke="black" stroke-width="0.5" d="M1545.51,-156.815C1549.87,-154.199 1554.05,-151.271 1558,-148 1600.56,-112.756 1552.04,-64.9518 1594,-29 1600.55,-23.3888 1607.97,-18.9899 1615.88,-15.5721"/>
<polygon fill="black" stroke="black" points="1616.88,-17.057 1620.86,-13.5687 1615.57,-13.8095 1616.88,-17.057"/>
</g>
<!-- topo.command.analysis.update_projection -->
<g id="node31" class="node"><title>topo.command.analysis.update_projection</title>
<polygon fill="none" stroke="black" stroke-width="0.5" points="1490,-395.5 1270,-395.5 1270,-374.5 1490,-374.5 1490,-395.5"/>
<text text-anchor="middle" x="1380" y="-382.5" font-family="Vera" font-size="10.00">topo.command.analysis.update_projection</text>
</g>
<!-- topo.plotting.plotgroup.UnitMeasurementCommand&#45;&gt;topo.command.analysis.update_projection -->
<g id="edge28" class="edge"><title>topo.plotting.plotgroup.UnitMeasurementCommand&#45;&gt;topo.command.analysis.update_projection</title>
<path fill="none" stroke="black" stroke-width="0.5" d="M1109.17,-357.034C1161.15,-362.402 1225.14,-369.009 1277.86,-374.453"/>
<polygon fill="black" stroke="black" points="1277.77,-376.203 1282.93,-374.976 1278.13,-372.722 1277.77,-376.203"/>
</g>
<!-- topo.command.analysis.update_connectionfields -->
<g id="node40" class="node"><title>topo.command.analysis.update_connectionfields</title>
<polygon fill="none" stroke="black" stroke-width="0.5" points="1505,-357.5 1255,-357.5 1255,-336.5 1505,-336.5 1505,-357.5"/>
<text text-anchor="middle" x="1380" y="-344.5" font-family="Vera" font-size="10.00">topo.command.analysis.update_connectionfields</text>
</g>
<!-- topo.plotting.plotgroup.UnitMeasurementCommand&#45;&gt;topo.command.analysis.update_connectionfields -->
<g id="edge36" class="edge"><title>topo.plotting.plotgroup.UnitMeasurementCommand&#45;&gt;topo.command.analysis.update_connectionfields</title>
<path fill="none" stroke="black" stroke-width="0.5" d="M1145.12,-347C1178.91,-347 1215.19,-347 1248.88,-347"/>
<polygon fill="black" stroke="black" points="1249.27,-348.75 1254.27,-347 1249.27,-345.25 1249.27,-348.75"/>
</g>
<!-- topo.analysis.featureresponses.PatternPresentingCommand&#45;&gt;topo.analysis.featureresponses.MeasureResponseCommand -->
<g id="edge48" class="edge"><title>topo.analysis.featureresponses.PatternPresentingCommand&#45;&gt;topo.analysis.featureresponses.MeasureResponseCommand</title>
<path fill="none" stroke="black" stroke-width="0.5" d="M753.68,-251.966C803.164,-246.609 864.045,-240.018 914.273,-234.58"/>
<polygon fill="black" stroke="black" points="914.627,-236.302 919.409,-234.024 914.25,-232.822 914.627,-236.302"/>
</g>
</g>
</svg>
