<?xml version="1.0" encoding="UTF-8" standalone="no"?>
<!DOCTYPE svg PUBLIC "-//W3C//DTD SVG 1.1//EN"
 "http://www.w3.org/Graphics/SVG/1.1/DTD/svg11.dtd">
<!-- Generated by graphviz version 2.26.3 (20100126.1600)
 -->
<!-- Title: inheritance0bce68b9cf Pages: 1 -->
<svg width="1872pt" height="655pt"
 viewBox="0.00 0.00 1872.00 655.00" xmlns="http://www.w3.org/2000/svg" xmlns:xlink="http://www.w3.org/1999/xlink">
<g id="graph1" class="graph" transform="scale(1 1) rotate(0) translate(4 651)">
<title>inheritance0bce68b9cf</title>
<polygon fill="white" stroke="white" points="-4,5 -4,-651 1869,-651 1869,5 -4,5"/>
<!-- topo.analysis.featureresponses.PatternPresentingCommand -->
<g id="node1" class="node"><title>topo.analysis.featureresponses.PatternPresentingCommand</title>
<polygon fill="none" stroke="black" stroke-width="0.5" points="813,-305.5 509,-305.5 509,-284.5 813,-284.5 813,-305.5"/>
<text text-anchor="middle" x="661" y="-292.5" font-family="Vera" font-size="10.00">topo.analysis.featureresponses.PatternPresentingCommand</text>
</g>
<!-- topo.analysis.featureresponses.MeasureResponseCommand -->
<g id="node16" class="node"><title>topo.analysis.featureresponses.MeasureResponseCommand</title>
<polygon fill="none" stroke="black" stroke-width="0.5" points="1165,-343.5 859,-343.5 859,-322.5 1165,-322.5 1165,-343.5"/>
<text text-anchor="middle" x="1012" y="-330.5" font-family="Vera" font-size="10.00">topo.analysis.featureresponses.MeasureResponseCommand</text>
</g>
<!-- topo.analysis.featureresponses.PatternPresentingCommand&#45;&gt;topo.analysis.featureresponses.MeasureResponseCommand -->
<g id="edge30" class="edge"><title>topo.analysis.featureresponses.PatternPresentingCommand&#45;&gt;topo.analysis.featureresponses.MeasureResponseCommand</title>
<path fill="none" stroke="black" stroke-width="0.5" d="M753.68,-305.034C803.164,-310.391 864.045,-316.982 914.273,-322.42"/>
<polygon fill="black" stroke="black" points="914.25,-324.178 919.409,-322.976 914.627,-320.698 914.25,-324.178"/>
</g>
<!-- param.parameterized.ParameterizedFunction -->
<g id="node2" class="node"><title>param.parameterized.ParameterizedFunction</title>
<polygon fill="none" stroke="black" stroke-width="0.5" points="464,-172.5 230,-172.5 230,-151.5 464,-151.5 464,-172.5"/>
<text text-anchor="middle" x="347" y="-159.5" font-family="Vera" font-size="10.00">param.parameterized.ParameterizedFunction</text>
</g>
<!-- param.parameterized.ParameterizedFunction&#45;&gt;topo.analysis.featureresponses.PatternPresentingCommand -->
<g id="edge2" class="edge"><title>param.parameterized.ParameterizedFunction&#45;&gt;topo.analysis.featureresponses.PatternPresentingCommand</title>
<path fill="none" stroke="black" stroke-width="0.5" d="M370.859,-172.106C427.768,-196.211 571.286,-257 632.559,-282.953"/>
<polygon fill="black" stroke="black" points="631.891,-284.571 637.178,-284.91 633.256,-281.348 631.891,-284.571"/>
</g>
<!-- topo.plotting.plotgroup.ProjectionSheetMeasurementCommand -->
<g id="node32" class="node"><title>topo.plotting.plotgroup.ProjectionSheetMeasurementCommand</title>
<polygon fill="none" stroke="black" stroke-width="0.5" points="822,-210.5 500,-210.5 500,-189.5 822,-189.5 822,-210.5"/>
<text text-anchor="middle" x="661" y="-197.5" font-family="Vera" font-size="10.00">topo.plotting.plotgroup.ProjectionSheetMeasurementCommand</text>
</g>
<!-- param.parameterized.ParameterizedFunction&#45;&gt;topo.plotting.plotgroup.ProjectionSheetMeasurementCommand -->
<g id="edge38" class="edge"><title>param.parameterized.ParameterizedFunction&#45;&gt;topo.plotting.plotgroup.ProjectionSheetMeasurementCommand</title>
<path fill="none" stroke="black" stroke-width="0.5" d="M426.793,-172.002C450.364,-174.932 476.218,-178.12 500,-181 522.73,-183.752 547.271,-186.674 570.177,-189.38"/>
<polygon fill="black" stroke="black" points="570.174,-191.141 575.345,-189.99 570.584,-187.665 570.174,-191.141"/>
</g>
<!-- topo.base.functionfamily.PatternDrivenAnalysis -->
<g id="node35" class="node"><title>topo.base.functionfamily.PatternDrivenAnalysis</title>
<polygon fill="none" stroke="black" stroke-width="0.5" points="781,-172.5 541,-172.5 541,-151.5 781,-151.5 781,-172.5"/>
<text text-anchor="middle" x="661" y="-159.5" font-family="Vera" font-size="10.00">topo.base.functionfamily.PatternDrivenAnalysis</text>
</g>
<!-- param.parameterized.ParameterizedFunction&#45;&gt;topo.base.functionfamily.PatternDrivenAnalysis -->
<g id="edge32" class="edge"><title>param.parameterized.ParameterizedFunction&#45;&gt;topo.base.functionfamily.PatternDrivenAnalysis</title>
<path fill="none" stroke="black" stroke-width="0.5" d="M464.369,-162C487.705,-162 512.292,-162 535.877,-162"/>
<polygon fill="black" stroke="black" points="535.894,-163.75 540.894,-162 535.894,-160.25 535.894,-163.75"/>
</g>
<!-- topo.command.analysis.save_plotgroup -->
<g id="node39" class="node"><title>topo.command.analysis.save_plotgroup</title>
<polygon fill="none" stroke="black" stroke-width="0.5" points="765,-134.5 557,-134.5 557,-113.5 765,-113.5 765,-134.5"/>
<text text-anchor="middle" x="661" y="-121.5" font-family="Vera" font-size="10.00">topo.command.analysis.save_plotgroup</text>
</g>
<!-- param.parameterized.ParameterizedFunction&#45;&gt;topo.command.analysis.save_plotgroup -->
<g id="edge36" class="edge"><title>param.parameterized.ParameterizedFunction&#45;&gt;topo.command.analysis.save_plotgroup</title>
<path fill="none" stroke="black" stroke-width="0.5" d="M426.793,-151.998C450.364,-149.068 476.218,-145.88 500,-143 522.73,-140.248 547.271,-137.326 570.177,-134.62"/>
<polygon fill="black" stroke="black" points="570.584,-136.335 575.345,-134.01 570.174,-132.859 570.584,-136.335"/>
</g>
<!-- topo.command.analysis.latency_mapper -->
<g id="node4" class="node"><title>topo.command.analysis.latency_mapper</title>
<polygon fill="none" stroke="black" stroke-width="0.5" points="767,-96.5 555,-96.5 555,-75.5 767,-75.5 767,-96.5"/>
<text text-anchor="middle" x="661" y="-83.5" font-family="Vera" font-size="10.00">topo.command.analysis.latency_mapper</text>
</g>
<!-- imagen.patterngenerator.PatternGenerator -->
<g id="node5" class="node"><title>imagen.patterngenerator.PatternGenerator</title>
<polygon fill="none" stroke="black" stroke-width="0.5" points="459,-77.5 235,-77.5 235,-56.5 459,-56.5 459,-77.5"/>
<text text-anchor="middle" x="347" y="-64.5" font-family="Vera" font-size="10.00">imagen.patterngenerator.PatternGenerator</text>
</g>
<!-- imagen.patterngenerator.PatternGenerator&#45;&gt;topo.command.analysis.latency_mapper -->
<g id="edge4" class="edge"><title>imagen.patterngenerator.PatternGenerator&#45;&gt;topo.command.analysis.latency_mapper</title>
<path fill="none" stroke="black" stroke-width="0.5" d="M459.031,-73.779C488.501,-75.5621 520.279,-77.485 549.709,-79.2658"/>
<polygon fill="black" stroke="black" points="549.696,-81.0181 554.792,-79.5734 549.907,-77.5245 549.696,-81.0181"/>
</g>
<!-- topo.command.analysis.frequency_mapper -->
<g id="node23" class="node"><title>topo.command.analysis.frequency_mapper</title>
<polygon fill="none" stroke="black" stroke-width="0.5" points="773,-58.5 549,-58.5 549,-37.5 773,-37.5 773,-58.5"/>
<text text-anchor="middle" x="661" y="-45.5" font-family="Vera" font-size="10.00">topo.command.analysis.frequency_mapper</text>
</g>
<!-- imagen.patterngenerator.PatternGenerator&#45;&gt;topo.command.analysis.frequency_mapper -->
<g id="edge20" class="edge"><title>imagen.patterngenerator.PatternGenerator&#45;&gt;topo.command.analysis.frequency_mapper</title>
<path fill="none" stroke="black" stroke-width="0.5" d="M459.031,-60.221C486.472,-58.5606 515.915,-56.779 543.6,-55.1038"/>
<polygon fill="black" stroke="black" points="543.862,-56.8412 548.748,-54.7923 543.651,-53.3476 543.862,-56.8412"/>
</g>
<!-- topo.command.analysis.log_frequency_mapper -->
<g id="node51" class="node"><title>topo.command.analysis.log_frequency_mapper</title>
<polygon fill="none" stroke="black" stroke-width="0.5" points="783,-20.5 539,-20.5 539,0.5 783,0.5 783,-20.5"/>
<text text-anchor="middle" x="661" y="-7.5" font-family="Vera" font-size="10.00">topo.command.analysis.log_frequency_mapper</text>
</g>
<!-- imagen.patterngenerator.PatternGenerator&#45;&gt;topo.command.analysis.log_frequency_mapper -->
<g id="edge50" class="edge"><title>imagen.patterngenerator.PatternGenerator&#45;&gt;topo.command.analysis.log_frequency_mapper</title>
<path fill="none" stroke="black" stroke-width="0.5" d="M429.959,-56.9691C441.538,-54.5767 453.171,-51.6285 464,-48 481.154,-42.2522 482.725,-34.3732 500,-29 510.817,-25.6355 522.213,-22.8593 533.738,-20.5695"/>
<polygon fill="black" stroke="black" points="534.105,-22.2811 538.684,-19.6177 533.443,-18.8442 534.105,-22.2811"/>
</g>
<!-- param.parameterized.Parameterized -->
<g id="node7" class="node"><title>param.parameterized.Parameterized</title>
<polygon fill="none" stroke="black" stroke-width="0.5" points="194,-77.5 5.68434e-14,-77.5 0,-56.5 194,-56.5 194,-77.5"/>
<text text-anchor="middle" x="97" y="-64.5" font-family="Vera" font-size="10.00">param.parameterized.Parameterized</text>
</g>
<!-- param.parameterized.Parameterized&#45;&gt;param.parameterized.ParameterizedFunction -->
<g id="edge12" class="edge"><title>param.parameterized.Parameterized&#45;&gt;param.parameterized.ParameterizedFunction</title>
<path fill="none" stroke="black" stroke-width="0.5" d="M123.754,-77.1667C170.275,-94.8444 265.838,-131.159 315.489,-150.026"/>
<polygon fill="black" stroke="black" points="315.142,-151.766 320.438,-151.906 316.386,-148.494 315.142,-151.766"/>
</g>
<!-- param.parameterized.Parameterized&#45;&gt;imagen.patterngenerator.PatternGenerator -->
<g id="edge6" class="edge"><title>param.parameterized.Parameterized&#45;&gt;imagen.patterngenerator.PatternGenerator</title>
<path fill="none" stroke="black" stroke-width="0.5" d="M194.014,-67C205.664,-67 217.655,-67 229.554,-67"/>
<polygon fill="black" stroke="black" points="229.647,-68.7501 234.647,-67 229.647,-65.2501 229.647,-68.7501"/>
</g>
<!-- topo.command.analysis.PatternPresenter2 -->
<g id="node60" class="node"><title>topo.command.analysis.PatternPresenter2</title>
<polygon fill="none" stroke="black" stroke-width="0.5" points="457,-39.5 237,-39.5 237,-18.5 457,-18.5 457,-39.5"/>
<text text-anchor="middle" x="347" y="-26.5" font-family="Vera" font-size="10.00">topo.command.analysis.PatternPresenter2</text>
</g>
<!-- param.parameterized.Parameterized&#45;&gt;topo.command.analysis.PatternPresenter2 -->
<g id="edge60" class="edge"><title>param.parameterized.Parameterized&#45;&gt;topo.command.analysis.PatternPresenter2</title>
<path fill="none" stroke="black" stroke-width="0.5" d="M163.012,-56.9662C197.758,-51.6848 240.394,-45.204 275.872,-39.8115"/>
<polygon fill="black" stroke="black" points="276.372,-41.5056 281.052,-39.024 275.846,-38.0454 276.372,-41.5056"/>
</g>
<!-- topo.command.analysis.measure_dr_pref -->
<g id="node9" class="node"><title>topo.command.analysis.measure_dr_pref</title>
<polygon fill="none" stroke="black" stroke-width="0.5" points="1837,-647.5 1621,-647.5 1621,-626.5 1837,-626.5 1837,-647.5"/>
<text text-anchor="middle" x="1729" y="-634.5" font-family="Vera" font-size="10.00">topo.command.analysis.measure_dr_pref</text>
</g>
<!-- topo.analysis.featureresponses.SinusoidalMeasureResponseCommand -->
<g id="node10" class="node"><title>topo.analysis.featureresponses.SinusoidalMeasureResponseCommand</title>
<polygon fill="none" stroke="black" stroke-width="0.5" points="1558,-514.5 1202,-514.5 1202,-493.5 1558,-493.5 1558,-514.5"/>
<text text-anchor="middle" x="1380" y="-501.5" font-family="Vera" font-size="10.00">topo.analysis.featureresponses.SinusoidalMeasureResponseCommand</text>
</g>
<!-- topo.analysis.featureresponses.SinusoidalMeasureResponseCommand&#45;&gt;topo.command.analysis.measure_dr_pref -->
<g id="edge8" class="edge"><title>topo.analysis.featureresponses.SinusoidalMeasureResponseCommand&#45;&gt;topo.command.analysis.measure_dr_pref</title>
<path fill="none" stroke="black" stroke-width="0.5" d="M1394.75,-514.238C1428.36,-537.021 1513.94,-591.944 1594,-618 1603.57,-621.116 1613.69,-623.721 1623.91,-625.899"/>
<polygon fill="black" stroke="black" points="1623.69,-627.639 1628.94,-626.934 1624.39,-624.211 1623.69,-627.639"/>
</g>
<!-- topo.command.analysis.measure_sine_pref -->
<g id="node12" class="node"><title>topo.command.analysis.measure_sine_pref</title>
<polygon fill="none" stroke="black" stroke-width="0.5" points="1842,-609.5 1616,-609.5 1616,-588.5 1842,-588.5 1842,-609.5"/>
<text text-anchor="middle" x="1729" y="-596.5" font-family="Vera" font-size="10.00">topo.command.analysis.measure_sine_pref</text>
</g>
<!-- topo.analysis.featureresponses.SinusoidalMeasureResponseCommand&#45;&gt;topo.command.analysis.measure_sine_pref -->
<g id="edge10" class="edge"><title>topo.analysis.featureresponses.SinusoidalMeasureResponseCommand&#45;&gt;topo.command.analysis.measure_sine_pref</title>
<path fill="none" stroke="black" stroke-width="0.5" d="M1403.28,-514.021C1442.08,-530.327 1522.78,-562.531 1594,-580 1606.9,-583.164 1620.63,-585.853 1634.2,-588.125"/>
<polygon fill="black" stroke="black" points="1633.98,-589.861 1639.2,-588.943 1634.55,-586.407 1633.98,-589.861"/>
</g>
<!-- topo.command.analysis.measure_hue_pref -->
<g id="node21" class="node"><title>topo.command.analysis.measure_hue_pref</title>
<polygon fill="none" stroke="black" stroke-width="0.5" points="1841,-571.5 1617,-571.5 1617,-550.5 1841,-550.5 1841,-571.5"/>
<text text-anchor="middle" x="1729" y="-558.5" font-family="Vera" font-size="10.00">topo.command.analysis.measure_hue_pref</text>
</g>
<!-- topo.analysis.featureresponses.SinusoidalMeasureResponseCommand&#45;&gt;topo.command.analysis.measure_hue_pref -->
<g id="edge18" class="edge"><title>topo.analysis.featureresponses.SinusoidalMeasureResponseCommand&#45;&gt;topo.command.analysis.measure_hue_pref</title>
<path fill="none" stroke="black" stroke-width="0.5" d="M1433.56,-514.06C1476.79,-522.048 1539.22,-533.284 1594,-542 1611.84,-544.838 1631.04,-547.673 1649.21,-550.254"/>
<polygon fill="black" stroke="black" points="1649.11,-552.007 1654.3,-550.975 1649.6,-548.542 1649.11,-552.007"/>
</g>
<!-- topo.command.analysis.measure_od_pref -->
<g id="node44" class="node"><title>topo.command.analysis.measure_od_pref</title>
<polygon fill="none" stroke="black" stroke-width="0.5" points="1838,-533.5 1620,-533.5 1620,-512.5 1838,-512.5 1838,-533.5"/>
<text text-anchor="middle" x="1729" y="-520.5" font-family="Vera" font-size="10.00">topo.command.analysis.measure_od_pref</text>
</g>
<!-- topo.analysis.featureresponses.SinusoidalMeasureResponseCommand&#45;&gt;topo.command.analysis.measure_od_pref -->
<g id="edge42" class="edge"><title>topo.analysis.featureresponses.SinusoidalMeasureResponseCommand&#45;&gt;topo.command.analysis.measure_od_pref</title>
<path fill="none" stroke="black" stroke-width="0.5" d="M1558.08,-513.695C1577.28,-514.74 1596.42,-515.782 1614.58,-516.771"/>
<polygon fill="black" stroke="black" points="1614.58,-518.524 1619.67,-517.048 1614.77,-515.029 1614.58,-518.524"/>
</g>
<!-- topo.command.analysis.measure_or_pref -->
<g id="node46" class="node"><title>topo.command.analysis.measure_or_pref</title>
<polygon fill="none" stroke="black" stroke-width="0.5" points="1837,-495.5 1621,-495.5 1621,-474.5 1837,-474.5 1837,-495.5"/>
<text text-anchor="middle" x="1729" y="-482.5" font-family="Vera" font-size="10.00">topo.command.analysis.measure_or_pref</text>
</g>
<!-- topo.analysis.featureresponses.SinusoidalMeasureResponseCommand&#45;&gt;topo.command.analysis.measure_or_pref -->
<g id="edge44" class="edge"><title>topo.analysis.featureresponses.SinusoidalMeasureResponseCommand&#45;&gt;topo.command.analysis.measure_or_pref</title>
<path fill="none" stroke="black" stroke-width="0.5" d="M1558.08,-494.305C1577.59,-493.243 1597.03,-492.184 1615.45,-491.182"/>
<polygon fill="black" stroke="black" points="1615.72,-492.92 1620.61,-490.901 1615.53,-489.425 1615.72,-492.92"/>
</g>
<!-- topo.command.analysis.measure_second_or_pref -->
<g id="node56" class="node"><title>topo.command.analysis.measure_second_or_pref</title>
<polygon fill="none" stroke="black" stroke-width="0.5" points="1857,-457.5 1601,-457.5 1601,-436.5 1857,-436.5 1857,-457.5"/>
<text text-anchor="middle" x="1729" y="-444.5" font-family="Vera" font-size="10.00">topo.command.analysis.measure_second_or_pref</text>
</g>
<!-- topo.analysis.featureresponses.SinusoidalMeasureResponseCommand&#45;&gt;topo.command.analysis.measure_second_or_pref -->
<g id="edge56" class="edge"><title>topo.analysis.featureresponses.SinusoidalMeasureResponseCommand&#45;&gt;topo.command.analysis.measure_second_or_pref</title>
<path fill="none" stroke="black" stroke-width="0.5" d="M1433.56,-493.94C1476.79,-485.952 1539.22,-474.716 1594,-466 1611.84,-463.162 1631.04,-460.327 1649.21,-457.746"/>
<polygon fill="black" stroke="black" points="1649.6,-459.458 1654.3,-457.025 1649.11,-455.993 1649.6,-459.458"/>
</g>
<!-- topo.command.analysis.measure_phasedisparity -->
<g id="node64" class="node"><title>topo.command.analysis.measure_phasedisparity</title>
<polygon fill="none" stroke="black" stroke-width="0.5" points="1855,-419.5 1603,-419.5 1603,-398.5 1855,-398.5 1855,-419.5"/>
<text text-anchor="middle" x="1729" y="-406.5" font-family="Vera" font-size="10.00">topo.command.analysis.measure_phasedisparity</text>
</g>
<!-- topo.analysis.featureresponses.SinusoidalMeasureResponseCommand&#45;&gt;topo.command.analysis.measure_phasedisparity -->
<g id="edge64" class="edge"><title>topo.analysis.featureresponses.SinusoidalMeasureResponseCommand&#45;&gt;topo.command.analysis.measure_phasedisparity</title>
<path fill="none" stroke="black" stroke-width="0.5" d="M1403.28,-493.979C1442.08,-477.673 1522.78,-445.469 1594,-428 1606.9,-424.836 1620.63,-422.147 1634.2,-419.875"/>
<polygon fill="black" stroke="black" points="1634.55,-421.593 1639.2,-419.057 1633.98,-418.139 1634.55,-421.593"/>
</g>
<!-- topo.command.analysis.measure_frequency_preference -->
<g id="node15" class="node"><title>topo.command.analysis.measure_frequency_preference</title>
<polygon fill="none" stroke="black" stroke-width="0.5" points="1523,-419.5 1237,-419.5 1237,-398.5 1523,-398.5 1523,-419.5"/>
<text text-anchor="middle" x="1380" y="-406.5" font-family="Vera" font-size="10.00">topo.command.analysis.measure_frequency_preference</text>
</g>
<!-- topo.analysis.featureresponses.MeasureResponseCommand&#45;&gt;topo.analysis.featureresponses.SinusoidalMeasureResponseCommand -->
<g id="edge52" class="edge"><title>topo.analysis.featureresponses.MeasureResponseCommand&#45;&gt;topo.analysis.featureresponses.SinusoidalMeasureResponseCommand</title>
<path fill="none" stroke="black" stroke-width="0.5" d="M1031.23,-343.098C1065.33,-360.891 1138.75,-398.716 1202,-428 1253.44,-451.816 1314.38,-477.248 1349.97,-491.823"/>
<polygon fill="black" stroke="black" points="1349.74,-493.62 1355.03,-493.893 1351.06,-490.38 1349.74,-493.62"/>
</g>
<!-- topo.analysis.featureresponses.MeasureResponseCommand&#45;&gt;topo.command.analysis.measure_frequency_preference -->
<g id="edge14" class="edge"><title>topo.analysis.featureresponses.MeasureResponseCommand&#45;&gt;topo.command.analysis.measure_frequency_preference</title>
<path fill="none" stroke="black" stroke-width="0.5" d="M1039.6,-343.042C1076.21,-355.955 1143.09,-378.126 1202,-390 1218.29,-393.283 1235.54,-396.024 1252.64,-398.305"/>
<polygon fill="black" stroke="black" points="1252.75,-400.085 1257.94,-398.999 1253.21,-396.615 1252.75,-400.085"/>
</g>
<!-- topo.analysis.featureresponses.PositionMeasurementCommand -->
<g id="node25" class="node"><title>topo.analysis.featureresponses.PositionMeasurementCommand</title>
<polygon fill="none" stroke="black" stroke-width="0.5" points="1542,-381.5 1218,-381.5 1218,-360.5 1542,-360.5 1542,-381.5"/>
<text text-anchor="middle" x="1380" y="-368.5" font-family="Vera" font-size="10.00">topo.analysis.featureresponses.PositionMeasurementCommand</text>
</g>
<!-- topo.analysis.featureresponses.MeasureResponseCommand&#45;&gt;topo.analysis.featureresponses.PositionMeasurementCommand -->
<g id="edge22" class="edge"><title>topo.analysis.featureresponses.MeasureResponseCommand&#45;&gt;topo.analysis.featureresponses.PositionMeasurementCommand</title>
<path fill="none" stroke="black" stroke-width="0.5" d="M1109.17,-343.034C1161.15,-348.402 1225.14,-355.009 1277.86,-360.453"/>
<polygon fill="black" stroke="black" points="1277.77,-362.203 1282.93,-360.976 1278.13,-358.722 1277.77,-362.203"/>
</g>
<!-- topo.command.analysis.measure_latency_preference -->
<g id="node27" class="node"><title>topo.command.analysis.measure_latency_preference</title>
<polygon fill="none" stroke="black" stroke-width="0.5" points="1517,-343.5 1243,-343.5 1243,-322.5 1517,-322.5 1517,-343.5"/>
<text text-anchor="middle" x="1380" y="-330.5" font-family="Vera" font-size="10.00">topo.command.analysis.measure_latency_preference</text>
</g>
<!-- topo.analysis.featureresponses.MeasureResponseCommand&#45;&gt;topo.command.analysis.measure_latency_preference -->
<g id="edge24" class="edge"><title>topo.analysis.featureresponses.MeasureResponseCommand&#45;&gt;topo.command.analysis.measure_latency_preference</title>
<path fill="none" stroke="black" stroke-width="0.5" d="M1165.67,-333C1189.59,-333 1214.21,-333 1237.86,-333"/>
<polygon fill="black" stroke="black" points="1237.89,-334.75 1242.89,-333 1237.89,-331.25 1237.89,-334.75"/>
</g>
<!-- topo.command.analysis.measure_log_frequency_preference -->
<g id="node29" class="node"><title>topo.command.analysis.measure_log_frequency_preference</title>
<polygon fill="none" stroke="black" stroke-width="0.5" points="1533,-305.5 1227,-305.5 1227,-284.5 1533,-284.5 1533,-305.5"/>
<text text-anchor="middle" x="1380" y="-292.5" font-family="Vera" font-size="10.00">topo.command.analysis.measure_log_frequency_preference</text>
</g>
<!-- topo.analysis.featureresponses.MeasureResponseCommand&#45;&gt;topo.command.analysis.measure_log_frequency_preference -->
<g id="edge26" class="edge"><title>topo.analysis.featureresponses.MeasureResponseCommand&#45;&gt;topo.command.analysis.measure_log_frequency_preference</title>
<path fill="none" stroke="black" stroke-width="0.5" d="M1109.17,-322.966C1161.15,-317.598 1225.14,-310.991 1277.86,-305.547"/>
<polygon fill="black" stroke="black" points="1278.13,-307.278 1282.93,-305.024 1277.77,-303.797 1278.13,-307.278"/>
</g>
<!-- topo.analysis.featureresponses.SingleInputResponseCommand -->
<g id="node54" class="node"><title>topo.analysis.featureresponses.SingleInputResponseCommand</title>
<polygon fill="none" stroke="black" stroke-width="0.5" points="1539,-267.5 1221,-267.5 1221,-246.5 1539,-246.5 1539,-267.5"/>
<text text-anchor="middle" x="1380" y="-254.5" font-family="Vera" font-size="10.00">topo.analysis.featureresponses.SingleInputResponseCommand</text>
</g>
<!-- topo.analysis.featureresponses.MeasureResponseCommand&#45;&gt;topo.analysis.featureresponses.SingleInputResponseCommand -->
<g id="edge54" class="edge"><title>topo.analysis.featureresponses.MeasureResponseCommand&#45;&gt;topo.analysis.featureresponses.SingleInputResponseCommand</title>
<path fill="none" stroke="black" stroke-width="0.5" d="M1039.6,-322.958C1076.21,-310.045 1143.09,-287.874 1202,-276 1218.29,-272.717 1235.54,-269.976 1252.64,-267.695"/>
<polygon fill="black" stroke="black" points="1253.21,-269.385 1257.94,-267.001 1252.75,-265.915 1253.21,-269.385"/>
</g>
<!-- topo.command.analysis.measure_activity -->
<g id="node18" class="node"><title>topo.command.analysis.measure_activity</title>
<polygon fill="none" stroke="black" stroke-width="0.5" points="1488,-153.5 1272,-153.5 1272,-132.5 1488,-132.5 1488,-153.5"/>
<text text-anchor="middle" x="1380" y="-140.5" font-family="Vera" font-size="10.00">topo.command.analysis.measure_activity</text>
</g>
<!-- topo.analysis.featureresponses.FeatureResponses -->
<g id="node19" class="node"><title>topo.analysis.featureresponses.FeatureResponses</title>
<polygon fill="none" stroke="black" stroke-width="0.5" points="1140,-153.5 884,-153.5 884,-132.5 1140,-132.5 1140,-153.5"/>
<text text-anchor="middle" x="1012" y="-140.5" font-family="Vera" font-size="10.00">topo.analysis.featureresponses.FeatureResponses</text>
</g>
<!-- topo.analysis.featureresponses.FeatureResponses&#45;&gt;topo.command.analysis.measure_activity -->
<g id="edge16" class="edge"><title>topo.analysis.featureresponses.FeatureResponses&#45;&gt;topo.command.analysis.measure_activity</title>
<path fill="none" stroke="black" stroke-width="0.5" d="M1140.71,-143C1181.67,-143 1226.66,-143 1266.47,-143"/>
<polygon fill="black" stroke="black" points="1266.8,-144.75 1271.8,-143 1266.8,-141.25 1266.8,-144.75"/>
</g>
<!-- topo.command.analysis.measure_corner_angle_pref -->
<g id="node49" class="node"><title>topo.command.analysis.measure_corner_angle_pref</title>
<polygon fill="none" stroke="black" stroke-width="0.5" points="1863,-381.5 1595,-381.5 1595,-360.5 1863,-360.5 1863,-381.5"/>
<text text-anchor="middle" x="1729" y="-368.5" font-family="Vera" font-size="10.00">topo.command.analysis.measure_corner_angle_pref</text>
</g>
<!-- topo.analysis.featureresponses.PositionMeasurementCommand&#45;&gt;topo.command.analysis.measure_corner_angle_pref -->
<g id="edge48" class="edge"><title>topo.analysis.featureresponses.PositionMeasurementCommand&#45;&gt;topo.command.analysis.measure_corner_angle_pref</title>
<path fill="none" stroke="black" stroke-width="0.5" d="M1542.24,-371C1557.91,-371 1573.72,-371 1589.15,-371"/>
<polygon fill="black" stroke="black" points="1589.36,-372.75 1594.36,-371 1589.36,-369.25 1589.36,-372.75"/>
</g>
<!-- topo.command.analysis.measure_corner_or_pref -->
<g id="node66" class="node"><title>topo.command.analysis.measure_corner_or_pref</title>
<polygon fill="none" stroke="black" stroke-width="0.5" points="1855,-343.5 1603,-343.5 1603,-322.5 1855,-322.5 1855,-343.5"/>
<text text-anchor="middle" x="1729" y="-330.5" font-family="Vera" font-size="10.00">topo.command.analysis.measure_corner_or_pref</text>
</g>
<!-- topo.analysis.featureresponses.PositionMeasurementCommand&#45;&gt;topo.command.analysis.measure_corner_or_pref -->
<g id="edge66" class="edge"><title>topo.analysis.featureresponses.PositionMeasurementCommand&#45;&gt;topo.command.analysis.measure_corner_or_pref</title>
<path fill="none" stroke="black" stroke-width="0.5" d="M1474.7,-360.969C1501.62,-358.096 1530.97,-354.945 1558,-352 1582.67,-349.312 1609.34,-346.368 1634.12,-343.616"/>
<polygon fill="black" stroke="black" points="1634.6,-345.324 1639.37,-343.032 1634.21,-341.845 1634.6,-345.324"/>
</g>
<!-- topo.plotting.plotgroup.UnitMeasurementCommand -->
<g id="node31" class="node"><title>topo.plotting.plotgroup.UnitMeasurementCommand</title>
<polygon fill="none" stroke="black" stroke-width="0.5" points="1145,-229.5 879,-229.5 879,-208.5 1145,-208.5 1145,-229.5"/>
<text text-anchor="middle" x="1012" y="-216.5" font-family="Vera" font-size="10.00">topo.plotting.plotgroup.UnitMeasurementCommand</text>
</g>
<!-- topo.command.analysis.update_projection -->
<g id="node37" class="node"><title>topo.command.analysis.update_projection</title>
<polygon fill="none" stroke="black" stroke-width="0.5" points="1490,-229.5 1270,-229.5 1270,-208.5 1490,-208.5 1490,-229.5"/>
<text text-anchor="middle" x="1380" y="-216.5" font-family="Vera" font-size="10.00">topo.command.analysis.update_projection</text>
</g>
<!-- topo.plotting.plotgroup.UnitMeasurementCommand&#45;&gt;topo.command.analysis.update_projection -->
<g id="edge34" class="edge"><title>topo.plotting.plotgroup.UnitMeasurementCommand&#45;&gt;topo.command.analysis.update_projection</title>
<path fill="none" stroke="black" stroke-width="0.5" d="M1145.12,-219C1184.11,-219 1226.42,-219 1264.24,-219"/>
<polygon fill="black" stroke="black" points="1264.3,-220.75 1269.3,-219 1264.3,-217.25 1264.3,-220.75"/>
</g>
<!-- topo.command.analysis.update_connectionfields -->
<g id="node58" class="node"><title>topo.command.analysis.update_connectionfields</title>
<polygon fill="none" stroke="black" stroke-width="0.5" points="1505,-191.5 1255,-191.5 1255,-170.5 1505,-170.5 1505,-191.5"/>
<text text-anchor="middle" x="1380" y="-178.5" font-family="Vera" font-size="10.00">topo.command.analysis.update_connectionfields</text>
</g>
<!-- topo.plotting.plotgroup.UnitMeasurementCommand&#45;&gt;topo.command.analysis.update_connectionfields -->
<g id="edge58" class="edge"><title>topo.plotting.plotgroup.UnitMeasurementCommand&#45;&gt;topo.command.analysis.update_connectionfields</title>
<path fill="none" stroke="black" stroke-width="0.5" d="M1109.17,-208.966C1161.15,-203.598 1225.14,-196.991 1277.86,-191.547"/>
<polygon fill="black" stroke="black" points="1278.13,-193.278 1282.93,-191.024 1277.77,-189.797 1278.13,-193.278"/>
</g>
<!-- topo.plotting.plotgroup.ProjectionSheetMeasurementCommand&#45;&gt;topo.plotting.plotgroup.UnitMeasurementCommand -->
<g id="edge28" class="edge"><title>topo.plotting.plotgroup.ProjectionSheetMeasurementCommand&#45;&gt;topo.plotting.plotgroup.UnitMeasurementCommand</title>
<path fill="none" stroke="black" stroke-width="0.5" d="M822.118,-208.721C839.348,-209.654 856.765,-210.597 873.698,-211.514"/>
<polygon fill="black" stroke="black" points="873.849,-213.274 878.936,-211.797 874.038,-209.779 873.849,-213.274"/>
</g>
<!-- topo.command.analysis.update_projectionactivity -->
<g id="node42" class="node"><title>topo.command.analysis.update_projectionactivity</title>
<polygon fill="none" stroke="black" stroke-width="0.5" points="1139,-191.5 885,-191.5 885,-170.5 1139,-170.5 1139,-191.5"/>
<text text-anchor="middle" x="1012" y="-178.5" font-family="Vera" font-size="10.00">topo.command.analysis.update_projectionactivity</text>
</g>
<!-- topo.plotting.plotgroup.ProjectionSheetMeasurementCommand&#45;&gt;topo.command.analysis.update_projectionactivity -->
<g id="edge40" class="edge"><title>topo.plotting.plotgroup.ProjectionSheetMeasurementCommand&#45;&gt;topo.command.analysis.update_projectionactivity</title>
<path fill="none" stroke="black" stroke-width="0.5" d="M822.118,-191.279C841.391,-190.235 860.898,-189.179 879.699,-188.162"/>
<polygon fill="black" stroke="black" points="880.084,-189.893 884.982,-187.876 879.895,-186.399 880.084,-189.893"/>
</g>
<!-- topo.base.functionfamily.PatternDrivenAnalysis&#45;&gt;topo.analysis.featureresponses.FeatureResponses -->
<g id="edge46" class="edge"><title>topo.base.functionfamily.PatternDrivenAnalysis&#45;&gt;topo.analysis.featureresponses.FeatureResponses</title>
<path fill="none" stroke="black" stroke-width="0.5" d="M781.303,-155.488C812.573,-153.795 846.446,-151.962 878.359,-150.234"/>
<polygon fill="black" stroke="black" points="878.565,-151.976 883.463,-149.958 878.375,-148.481 878.565,-151.976"/>
</g>
<!-- topo.command.analysis.measure_rfs -->
<g id="node62" class="node"><title>topo.command.analysis.measure_rfs</title>
<polygon fill="none" stroke="black" stroke-width="0.5" points="1826,-267.5 1632,-267.5 1632,-246.5 1826,-246.5 1826,-267.5"/>
<text text-anchor="middle" x="1729" y="-254.5" font-family="Vera" font-size="10.00">topo.command.analysis.measure_rfs</text>
</g>
<!-- topo.analysis.featureresponses.SingleInputResponseCommand&#45;&gt;topo.command.analysis.measure_rfs -->
<g id="edge62" class="edge"><title>topo.analysis.featureresponses.SingleInputResponseCommand&#45;&gt;topo.command.analysis.measure_rfs</title>
<path fill="none" stroke="black" stroke-width="0.5" d="M1539.69,-257C1569.26,-257 1599.4,-257 1626.68,-257"/>
<polygon fill="black" stroke="black" points="1626.74,-258.75 1631.74,-257 1626.74,-255.25 1626.74,-258.75"/>
</g>
</g>
</svg>
