<?xml version="1.0" encoding="UTF-8" standalone="no"?>
<!DOCTYPE svg PUBLIC "-//W3C//DTD SVG 1.1//EN"
 "http://www.w3.org/Graphics/SVG/1.1/DTD/svg11.dtd">
<!-- Generated by graphviz version 2.26.3 (20100126.1600)
 -->
<!-- Title: inheritancebede3c61fc Pages: 1 -->
<svg width="2498pt" height="541pt"
 viewBox="0.00 0.00 2498.00 541.00" xmlns="http://www.w3.org/2000/svg" xmlns:xlink="http://www.w3.org/1999/xlink">
<g id="graph1" class="graph" transform="scale(1 1) rotate(0) translate(4 537)">
<title>inheritancebede3c61fc</title>
<polygon fill="white" stroke="white" points="-4,5 -4,-537 2495,-537 2495,5 -4,5"/>
<!-- topo.command.pylabplot.PylabPlotCommand -->
<g id="node1" class="node"><title>topo.command.pylabplot.PylabPlotCommand</title>
<polygon fill="none" stroke="black" stroke-width="0.5" points="1112,-286.5 880,-286.5 880,-265.5 1112,-265.5 1112,-286.5"/>
<text text-anchor="middle" x="996" y="-273.5" font-family="Vera" font-size="10.00">topo.command.pylabplot.PylabPlotCommand</text>
</g>
<!-- topo.command.pylabplot.xy_grid -->
<g id="node12" class="node"><title>topo.command.pylabplot.xy_grid</title>
<polygon fill="none" stroke="black" stroke-width="0.5" points="1450,-495.5 1278,-495.5 1278,-474.5 1450,-474.5 1450,-495.5"/>
<text text-anchor="middle" x="1364" y="-482.5" font-family="Vera" font-size="10.00">topo.command.pylabplot.xy_grid</text>
</g>
<!-- topo.command.pylabplot.PylabPlotCommand&#45;&gt;topo.command.pylabplot.xy_grid -->
<g id="edge36" class="edge"><title>topo.command.pylabplot.PylabPlotCommand&#45;&gt;topo.command.pylabplot.xy_grid</title>
<path fill="none" stroke="black" stroke-width="0.5" d="M1005.75,-286.032C1032.27,-312.796 1108.94,-386.668 1186,-428 1226.09,-449.504 1275.66,-464.551 1312.3,-473.763"/>
<polygon fill="black" stroke="black" points="1311.88,-475.462 1317.15,-474.969 1312.72,-472.065 1311.88,-475.462"/>
</g>
<!-- topo.command.pylabplot.matrixplot -->
<g id="node16" class="node"><title>topo.command.pylabplot.matrixplot</title>
<polygon fill="none" stroke="black" stroke-width="0.5" points="1458,-419.5 1270,-419.5 1270,-398.5 1458,-398.5 1458,-419.5"/>
<text text-anchor="middle" x="1364" y="-406.5" font-family="Vera" font-size="10.00">topo.command.pylabplot.matrixplot</text>
</g>
<!-- topo.command.pylabplot.PylabPlotCommand&#45;&gt;topo.command.pylabplot.matrixplot -->
<g id="edge50" class="edge"><title>topo.command.pylabplot.PylabPlotCommand&#45;&gt;topo.command.pylabplot.matrixplot</title>
<path fill="none" stroke="black" stroke-width="0.5" d="M1008.39,-286.123C1037.37,-309.165 1112.69,-365.43 1186,-390 1210.86,-398.333 1238.67,-403.237 1264.79,-406.067"/>
<polygon fill="black" stroke="black" points="1264.83,-407.831 1269.99,-406.606 1265.19,-404.349 1264.83,-407.831"/>
</g>
<!-- topo.command.pylabplot.matrixplot3dx3 -->
<g id="node21" class="node"><title>topo.command.pylabplot.matrixplot3dx3</title>
<polygon fill="none" stroke="black" stroke-width="0.5" points="1470,-381.5 1258,-381.5 1258,-360.5 1470,-360.5 1470,-381.5"/>
<text text-anchor="middle" x="1364" y="-368.5" font-family="Vera" font-size="10.00">topo.command.pylabplot.matrixplot3dx3</text>
</g>
<!-- topo.command.pylabplot.PylabPlotCommand&#45;&gt;topo.command.pylabplot.matrixplot3dx3 -->
<g id="edge16" class="edge"><title>topo.command.pylabplot.PylabPlotCommand&#45;&gt;topo.command.pylabplot.matrixplot3dx3</title>
<path fill="none" stroke="black" stroke-width="0.5" d="M1015.92,-286.097C1049.86,-302.816 1121.52,-335.987 1186,-352 1207.31,-357.293 1230.42,-361.111 1252.71,-363.866"/>
<polygon fill="black" stroke="black" points="1252.57,-365.613 1257.75,-364.473 1252.99,-362.138 1252.57,-365.613"/>
</g>
<!-- topo.command.pylabplot.unit_tuning_curve -->
<g id="node26" class="node"><title>topo.command.pylabplot.unit_tuning_curve</title>
<polygon fill="none" stroke="black" stroke-width="0.5" points="1476,-343.5 1252,-343.5 1252,-322.5 1476,-322.5 1476,-343.5"/>
<text text-anchor="middle" x="1364" y="-330.5" font-family="Vera" font-size="10.00">topo.command.pylabplot.unit_tuning_curve</text>
</g>
<!-- topo.command.pylabplot.PylabPlotCommand&#45;&gt;topo.command.pylabplot.unit_tuning_curve -->
<g id="edge30" class="edge"><title>topo.command.pylabplot.PylabPlotCommand&#45;&gt;topo.command.pylabplot.unit_tuning_curve</title>
<path fill="none" stroke="black" stroke-width="0.5" d="M1040.33,-286.056C1078.71,-294.475 1135.79,-306.315 1186,-314 1206.62,-317.156 1228.66,-319.963 1249.97,-322.387"/>
<polygon fill="black" stroke="black" points="1249.91,-324.142 1255.07,-322.963 1250.3,-320.664 1249.91,-324.142"/>
</g>
<!-- topo.command.pylabplot.vectorplot -->
<g id="node44" class="node"><title>topo.command.pylabplot.vectorplot</title>
<polygon fill="none" stroke="black" stroke-width="0.5" points="1458,-305.5 1270,-305.5 1270,-284.5 1458,-284.5 1458,-305.5"/>
<text text-anchor="middle" x="1364" y="-292.5" font-family="Vera" font-size="10.00">topo.command.pylabplot.vectorplot</text>
</g>
<!-- topo.command.pylabplot.PylabPlotCommand&#45;&gt;topo.command.pylabplot.vectorplot -->
<g id="edge40" class="edge"><title>topo.command.pylabplot.PylabPlotCommand&#45;&gt;topo.command.pylabplot.vectorplot</title>
<path fill="none" stroke="black" stroke-width="0.5" d="M1112.69,-282.025C1161.64,-284.552 1217.96,-287.46 1264.87,-289.882"/>
<polygon fill="black" stroke="black" points="1264.87,-291.634 1269.95,-290.144 1265.05,-288.139 1264.87,-291.634"/>
</g>
<!-- topo.command.pylabplot.histogramplot -->
<g id="node48" class="node"><title>topo.command.pylabplot.histogramplot</title>
<polygon fill="none" stroke="black" stroke-width="0.5" points="1467,-267.5 1261,-267.5 1261,-246.5 1467,-246.5 1467,-267.5"/>
<text text-anchor="middle" x="1364" y="-254.5" font-family="Vera" font-size="10.00">topo.command.pylabplot.histogramplot</text>
</g>
<!-- topo.command.pylabplot.PylabPlotCommand&#45;&gt;topo.command.pylabplot.histogramplot -->
<g id="edge44" class="edge"><title>topo.command.pylabplot.PylabPlotCommand&#45;&gt;topo.command.pylabplot.histogramplot</title>
<path fill="none" stroke="black" stroke-width="0.5" d="M1112.69,-269.975C1158.5,-267.61 1210.77,-264.911 1255.73,-262.59"/>
<polygon fill="black" stroke="black" points="1255.99,-264.329 1260.89,-262.323 1255.81,-260.834 1255.99,-264.329"/>
</g>
<!-- topo.command.pylabplot.overlaid_plot -->
<g id="node52" class="node"><title>topo.command.pylabplot.overlaid_plot</title>
<polygon fill="none" stroke="black" stroke-width="0.5" points="1464,-229.5 1264,-229.5 1264,-208.5 1464,-208.5 1464,-229.5"/>
<text text-anchor="middle" x="1364" y="-216.5" font-family="Vera" font-size="10.00">topo.command.pylabplot.overlaid_plot</text>
</g>
<!-- topo.command.pylabplot.PylabPlotCommand&#45;&gt;topo.command.pylabplot.overlaid_plot -->
<g id="edge62" class="edge"><title>topo.command.pylabplot.PylabPlotCommand&#45;&gt;topo.command.pylabplot.overlaid_plot</title>
<path fill="none" stroke="black" stroke-width="0.5" d="M1040.33,-265.944C1078.71,-257.525 1135.79,-245.685 1186,-238 1209.37,-234.423 1234.58,-231.293 1258.46,-228.662"/>
<polygon fill="black" stroke="black" points="1258.75,-230.39 1263.53,-228.108 1258.37,-226.911 1258.75,-230.39"/>
</g>
<!-- topo.command.pylabplot.plot_modulation_ratio -->
<g id="node55" class="node"><title>topo.command.pylabplot.plot_modulation_ratio</title>
<polygon fill="none" stroke="black" stroke-width="0.5" points="1486,-191.5 1242,-191.5 1242,-170.5 1486,-170.5 1486,-191.5"/>
<text text-anchor="middle" x="1364" y="-178.5" font-family="Vera" font-size="10.00">topo.command.pylabplot.plot_modulation_ratio</text>
</g>
<!-- topo.command.pylabplot.PylabPlotCommand&#45;&gt;topo.command.pylabplot.plot_modulation_ratio -->
<g id="edge52" class="edge"><title>topo.command.pylabplot.PylabPlotCommand&#45;&gt;topo.command.pylabplot.plot_modulation_ratio</title>
<path fill="none" stroke="black" stroke-width="0.5" d="M1015.92,-265.903C1049.86,-249.184 1121.52,-216.013 1186,-200 1202.13,-195.995 1219.28,-192.834 1236.33,-190.339"/>
<polygon fill="black" stroke="black" points="1236.92,-192.024 1241.62,-189.586 1236.42,-188.559 1236.92,-192.024"/>
</g>
<!-- topo.command.pylabplot.matrixplot3d -->
<g id="node69" class="node"><title>topo.command.pylabplot.matrixplot3d</title>
<polygon fill="none" stroke="black" stroke-width="0.5" points="1464,-153.5 1264,-153.5 1264,-132.5 1464,-132.5 1464,-153.5"/>
<text text-anchor="middle" x="1364" y="-140.5" font-family="Vera" font-size="10.00">topo.command.pylabplot.matrixplot3d</text>
</g>
<!-- topo.command.pylabplot.PylabPlotCommand&#45;&gt;topo.command.pylabplot.matrixplot3d -->
<g id="edge68" class="edge"><title>topo.command.pylabplot.PylabPlotCommand&#45;&gt;topo.command.pylabplot.matrixplot3d</title>
<path fill="none" stroke="black" stroke-width="0.5" d="M1008.39,-265.877C1037.37,-242.835 1112.69,-186.57 1186,-162 1208.97,-154.301 1234.46,-149.529 1258.8,-146.616"/>
<polygon fill="black" stroke="black" points="1259.21,-148.331 1263.97,-146.022 1258.81,-144.853 1259.21,-148.331"/>
</g>
<!-- topo.command.Command -->
<g id="node2" class="node"><title>topo.command.Command</title>
<polygon fill="none" stroke="black" stroke-width="0.5" points="724,-267.5 582,-267.5 582,-246.5 724,-246.5 724,-267.5"/>
<text text-anchor="middle" x="653" y="-254.5" font-family="Vera" font-size="10.00">topo.command.Command</text>
</g>
<!-- topo.command.Command&#45;&gt;topo.command.pylabplot.PylabPlotCommand -->
<g id="edge2" class="edge"><title>topo.command.Command&#45;&gt;topo.command.pylabplot.PylabPlotCommand</title>
<path fill="none" stroke="black" stroke-width="0.5" d="M724.904,-260.983C768.111,-263.376 824.224,-266.485 874.182,-269.252"/>
<polygon fill="black" stroke="black" points="874.217,-271.007 879.307,-269.536 874.411,-267.512 874.217,-271.007"/>
</g>
<!-- topo.command.pylabplot.measure_contrast_response -->
<g id="node4" class="node"><title>topo.command.pylabplot.measure_contrast_response</title>
<polygon fill="none" stroke="black" stroke-width="0.5" points="2486,-172.5 2210,-172.5 2210,-151.5 2486,-151.5 2486,-172.5"/>
<text text-anchor="middle" x="2348" y="-159.5" font-family="Vera" font-size="10.00">topo.command.pylabplot.measure_contrast_response</text>
</g>
<!-- topo.analysis.featureresponses.UnitCurveCommand -->
<g id="node5" class="node"><title>topo.analysis.featureresponses.UnitCurveCommand</title>
<polygon fill="none" stroke="black" stroke-width="0.5" points="2167,-96.5 1901,-96.5 1901,-75.5 2167,-75.5 2167,-96.5"/>
<text text-anchor="middle" x="2034" y="-83.5" font-family="Vera" font-size="10.00">topo.analysis.featureresponses.UnitCurveCommand</text>
</g>
<!-- topo.analysis.featureresponses.UnitCurveCommand&#45;&gt;topo.command.pylabplot.measure_contrast_response -->
<g id="edge4" class="edge"><title>topo.analysis.featureresponses.UnitCurveCommand&#45;&gt;topo.command.pylabplot.measure_contrast_response</title>
<path fill="none" stroke="black" stroke-width="0.5" d="M2059.22,-96.0144C2092.37,-108.792 2152.66,-130.707 2206,-143 2219.71,-146.159 2234.29,-148.85 2248.69,-151.124"/>
<polygon fill="black" stroke="black" points="2248.77,-152.909 2253.98,-151.944 2249.31,-149.45 2248.77,-152.909"/>
</g>
<!-- topo.command.pylabplot.measure_or_tuning -->
<g id="node9" class="node"><title>topo.command.pylabplot.measure_or_tuning</title>
<polygon fill="none" stroke="black" stroke-width="0.5" points="2464,-134.5 2232,-134.5 2232,-113.5 2464,-113.5 2464,-134.5"/>
<text text-anchor="middle" x="2348" y="-121.5" font-family="Vera" font-size="10.00">topo.command.pylabplot.measure_or_tuning</text>
</g>
<!-- topo.analysis.featureresponses.UnitCurveCommand&#45;&gt;topo.command.pylabplot.measure_or_tuning -->
<g id="edge8" class="edge"><title>topo.analysis.featureresponses.UnitCurveCommand&#45;&gt;topo.command.pylabplot.measure_or_tuning</title>
<path fill="none" stroke="black" stroke-width="0.5" d="M2116.91,-96.0338C2161,-101.369 2215.2,-107.929 2260.03,-113.354"/>
<polygon fill="black" stroke="black" points="2260,-115.112 2265.17,-113.976 2260.42,-111.638 2260,-115.112"/>
</g>
<!-- topo.command.pylabplot.measure_orientation_contrast -->
<g id="node28" class="node"><title>topo.command.pylabplot.measure_orientation_contrast</title>
<polygon fill="none" stroke="black" stroke-width="0.5" points="2490,-96.5 2206,-96.5 2206,-75.5 2490,-75.5 2490,-96.5"/>
<text text-anchor="middle" x="2348" y="-83.5" font-family="Vera" font-size="10.00">topo.command.pylabplot.measure_orientation_contrast</text>
</g>
<!-- topo.analysis.featureresponses.UnitCurveCommand&#45;&gt;topo.command.pylabplot.measure_orientation_contrast -->
<g id="edge22" class="edge"><title>topo.analysis.featureresponses.UnitCurveCommand&#45;&gt;topo.command.pylabplot.measure_orientation_contrast</title>
<path fill="none" stroke="black" stroke-width="0.5" d="M2167.62,-86C2178.62,-86 2189.78,-86 2200.87,-86"/>
<polygon fill="black" stroke="black" points="2200.96,-87.7501 2205.96,-86 2200.96,-84.2501 2200.96,-87.7501"/>
</g>
<!-- topo.command.pylabplot.test_measure -->
<g id="node42" class="node"><title>topo.command.pylabplot.test_measure</title>
<polygon fill="none" stroke="black" stroke-width="0.5" points="2451,-58.5 2245,-58.5 2245,-37.5 2451,-37.5 2451,-58.5"/>
<text text-anchor="middle" x="2348" y="-45.5" font-family="Vera" font-size="10.00">topo.command.pylabplot.test_measure</text>
</g>
<!-- topo.analysis.featureresponses.UnitCurveCommand&#45;&gt;topo.command.pylabplot.test_measure -->
<g id="edge38" class="edge"><title>topo.analysis.featureresponses.UnitCurveCommand&#45;&gt;topo.command.pylabplot.test_measure</title>
<path fill="none" stroke="black" stroke-width="0.5" d="M2116.91,-75.9662C2161,-70.6307 2215.2,-64.0711 2260.03,-58.6461"/>
<polygon fill="black" stroke="black" points="2260.42,-60.3622 2265.17,-58.024 2260,-56.8875 2260.42,-60.3622"/>
</g>
<!-- topo.command.pylabplot.measure_size_response -->
<g id="node67" class="node"><title>topo.command.pylabplot.measure_size_response</title>
<polygon fill="none" stroke="black" stroke-width="0.5" points="2476,-20.5 2220,-20.5 2220,0.5 2476,0.5 2476,-20.5"/>
<text text-anchor="middle" x="2348" y="-7.5" font-family="Vera" font-size="10.00">topo.command.pylabplot.measure_size_response</text>
</g>
<!-- topo.analysis.featureresponses.UnitCurveCommand&#45;&gt;topo.command.pylabplot.measure_size_response -->
<g id="edge66" class="edge"><title>topo.analysis.featureresponses.UnitCurveCommand&#45;&gt;topo.command.pylabplot.measure_size_response</title>
<path fill="none" stroke="black" stroke-width="0.5" d="M2148.23,-75.9533C2155.78,-73.5009 2163.11,-70.5477 2170,-67 2190.68,-56.3476 2185.29,-39.5924 2206,-29 2211.36,-26.2573 2216.98,-23.8635 2222.76,-21.7772"/>
<polygon fill="black" stroke="black" points="2223.49,-23.3767 2227.65,-20.096 2222.35,-20.0668 2223.49,-23.3767"/>
</g>
<!-- topo.analysis.featureresponses.FeatureCurveCommand -->
<g id="node7" class="node"><title>topo.analysis.featureresponses.FeatureCurveCommand</title>
<polygon fill="none" stroke="black" stroke-width="0.5" points="1862,-77.5 1578,-77.5 1578,-56.5 1862,-56.5 1862,-77.5"/>
<text text-anchor="middle" x="1720" y="-64.5" font-family="Vera" font-size="10.00">topo.analysis.featureresponses.FeatureCurveCommand</text>
</g>
<!-- topo.analysis.featureresponses.FeatureCurveCommand&#45;&gt;topo.analysis.featureresponses.UnitCurveCommand -->
<g id="edge6" class="edge"><title>topo.analysis.featureresponses.FeatureCurveCommand&#45;&gt;topo.analysis.featureresponses.UnitCurveCommand</title>
<path fill="none" stroke="black" stroke-width="0.5" d="M1862.3,-75.6105C1873.28,-76.2747 1884.35,-76.9447 1895.3,-77.6074"/>
<polygon fill="black" stroke="black" points="1895.23,-79.356 1900.32,-77.9113 1895.44,-75.8624 1895.23,-79.356"/>
</g>
<!-- topo.command.pylabplot.measure_or_tuning_fullfield -->
<g id="node30" class="node"><title>topo.command.pylabplot.measure_or_tuning_fullfield</title>
<polygon fill="none" stroke="black" stroke-width="0.5" points="2169,-58.5 1899,-58.5 1899,-37.5 2169,-37.5 2169,-58.5"/>
<text text-anchor="middle" x="2034" y="-45.5" font-family="Vera" font-size="10.00">topo.command.pylabplot.measure_or_tuning_fullfield</text>
</g>
<!-- topo.analysis.featureresponses.FeatureCurveCommand&#45;&gt;topo.command.pylabplot.measure_or_tuning_fullfield -->
<g id="edge24" class="edge"><title>topo.analysis.featureresponses.FeatureCurveCommand&#45;&gt;topo.command.pylabplot.measure_or_tuning_fullfield</title>
<path fill="none" stroke="black" stroke-width="0.5" d="M1862.3,-58.3895C1872.62,-57.7651 1883.02,-57.1355 1893.33,-56.5117"/>
<polygon fill="black" stroke="black" points="1893.5,-58.2548 1898.39,-56.2059 1893.29,-54.7612 1893.5,-58.2548"/>
</g>
<!-- topo.command.pylabplot.topographic_grid -->
<g id="node11" class="node"><title>topo.command.pylabplot.topographic_grid</title>
<polygon fill="none" stroke="black" stroke-width="0.5" points="1830,-533.5 1610,-533.5 1610,-512.5 1830,-512.5 1830,-533.5"/>
<text text-anchor="middle" x="1720" y="-520.5" font-family="Vera" font-size="10.00">topo.command.pylabplot.topographic_grid</text>
</g>
<!-- topo.command.pylabplot.xy_grid&#45;&gt;topo.command.pylabplot.topographic_grid -->
<g id="edge10" class="edge"><title>topo.command.pylabplot.xy_grid&#45;&gt;topo.command.pylabplot.topographic_grid</title>
<path fill="none" stroke="black" stroke-width="0.5" d="M1450.63,-494.247C1502.07,-499.738 1567.48,-506.72 1620.96,-512.429"/>
<polygon fill="black" stroke="black" points="1620.94,-514.186 1626.1,-512.977 1621.31,-510.706 1620.94,-514.186"/>
</g>
<!-- param.parameterized.Parameterized -->
<g id="node14" class="node"><title>param.parameterized.Parameterized</title>
<polygon fill="none" stroke="black" stroke-width="0.5" points="194,-210.5 5.68434e-14,-210.5 0,-189.5 194,-189.5 194,-210.5"/>
<text text-anchor="middle" x="97" y="-197.5" font-family="Vera" font-size="10.00">param.parameterized.Parameterized</text>
</g>
<!-- param.parameterized.ParameterizedFunction -->
<g id="node32" class="node"><title>param.parameterized.ParameterizedFunction</title>
<polygon fill="none" stroke="black" stroke-width="0.5" points="464,-210.5 230,-210.5 230,-189.5 464,-189.5 464,-210.5"/>
<text text-anchor="middle" x="347" y="-197.5" font-family="Vera" font-size="10.00">param.parameterized.ParameterizedFunction</text>
</g>
<!-- param.parameterized.Parameterized&#45;&gt;param.parameterized.ParameterizedFunction -->
<g id="edge56" class="edge"><title>param.parameterized.Parameterized&#45;&gt;param.parameterized.ParameterizedFunction</title>
<path fill="none" stroke="black" stroke-width="0.5" d="M194.014,-200C204.04,-200 214.319,-200 224.575,-200"/>
<polygon fill="black" stroke="black" points="224.607,-201.75 229.607,-200 224.607,-198.25 224.607,-201.75"/>
</g>
<!-- topo.command.pylabplot.fftplot -->
<g id="node15" class="node"><title>topo.command.pylabplot.fftplot</title>
<polygon fill="none" stroke="black" stroke-width="0.5" points="1803,-495.5 1637,-495.5 1637,-474.5 1803,-474.5 1803,-495.5"/>
<text text-anchor="middle" x="1720" y="-482.5" font-family="Vera" font-size="10.00">topo.command.pylabplot.fftplot</text>
</g>
<!-- topo.command.pylabplot.matrixplot&#45;&gt;topo.command.pylabplot.fftplot -->
<g id="edge12" class="edge"><title>topo.command.pylabplot.matrixplot&#45;&gt;topo.command.pylabplot.fftplot</title>
<path fill="none" stroke="black" stroke-width="0.5" d="M1396.69,-419.1C1438.4,-431.666 1512.96,-453.041 1578,-466 1595.17,-469.421 1613.63,-472.397 1631.38,-474.914"/>
<polygon fill="black" stroke="black" points="1631.17,-476.651 1636.36,-475.611 1631.65,-473.185 1631.17,-476.651"/>
</g>
<!-- topo.command.pylabplot.activityplot -->
<g id="node23" class="node"><title>topo.command.pylabplot.activityplot</title>
<polygon fill="none" stroke="black" stroke-width="0.5" points="1815,-457.5 1625,-457.5 1625,-436.5 1815,-436.5 1815,-457.5"/>
<text text-anchor="middle" x="1720" y="-444.5" font-family="Vera" font-size="10.00">topo.command.pylabplot.activityplot</text>
</g>
<!-- topo.command.pylabplot.matrixplot&#45;&gt;topo.command.pylabplot.activityplot -->
<g id="edge18" class="edge"><title>topo.command.pylabplot.matrixplot&#45;&gt;topo.command.pylabplot.activityplot</title>
<path fill="none" stroke="black" stroke-width="0.5" d="M1458,-419.034C1508.19,-424.391 1569.94,-430.982 1620.88,-436.42"/>
<polygon fill="black" stroke="black" points="1620.93,-438.185 1626.09,-436.976 1621.3,-434.705 1620.93,-438.185"/>
</g>
<!-- topo.command.pylabplot.autocorrelationplot -->
<g id="node34" class="node"><title>topo.command.pylabplot.autocorrelationplot</title>
<polygon fill="none" stroke="black" stroke-width="0.5" points="1835,-419.5 1605,-419.5 1605,-398.5 1835,-398.5 1835,-419.5"/>
<text text-anchor="middle" x="1720" y="-406.5" font-family="Vera" font-size="10.00">topo.command.pylabplot.autocorrelationplot</text>
</g>
<!-- topo.command.pylabplot.matrixplot&#45;&gt;topo.command.pylabplot.autocorrelationplot -->
<g id="edge28" class="edge"><title>topo.command.pylabplot.matrixplot&#45;&gt;topo.command.pylabplot.autocorrelationplot</title>
<path fill="none" stroke="black" stroke-width="0.5" d="M1458,-409C1501.43,-409 1553.51,-409 1599.76,-409"/>
<polygon fill="black" stroke="black" points="1599.79,-410.75 1604.79,-409 1599.79,-407.25 1599.79,-410.75"/>
</g>
<!-- topo.command.pylabplot.gradientplot -->
<g id="node39" class="node"><title>topo.command.pylabplot.gradientplot</title>
<polygon fill="none" stroke="black" stroke-width="0.5" points="1818,-381.5 1622,-381.5 1622,-360.5 1818,-360.5 1818,-381.5"/>
<text text-anchor="middle" x="1720" y="-368.5" font-family="Vera" font-size="10.00">topo.command.pylabplot.gradientplot</text>
</g>
<!-- topo.command.pylabplot.matrixplot&#45;&gt;topo.command.pylabplot.gradientplot -->
<g id="edge34" class="edge"><title>topo.command.pylabplot.matrixplot&#45;&gt;topo.command.pylabplot.gradientplot</title>
<path fill="none" stroke="black" stroke-width="0.5" d="M1458,-398.966C1508.19,-393.609 1569.94,-387.018 1620.88,-381.58"/>
<polygon fill="black" stroke="black" points="1621.3,-383.295 1626.09,-381.024 1620.93,-379.815 1621.3,-383.295"/>
</g>
<!-- topo.analysis.featureresponses.PositionMeasurementCommand -->
<g id="node18" class="node"><title>topo.analysis.featureresponses.PositionMeasurementCommand</title>
<polygon fill="none" stroke="black" stroke-width="0.5" points="1526,-115.5 1202,-115.5 1202,-94.5 1526,-94.5 1526,-115.5"/>
<text text-anchor="middle" x="1364" y="-102.5" font-family="Vera" font-size="10.00">topo.analysis.featureresponses.PositionMeasurementCommand</text>
</g>
<!-- topo.command.pylabplot.measure_position_pref -->
<g id="node65" class="node"><title>topo.command.pylabplot.measure_position_pref</title>
<polygon fill="none" stroke="black" stroke-width="0.5" points="1844,-115.5 1596,-115.5 1596,-94.5 1844,-94.5 1844,-115.5"/>
<text text-anchor="middle" x="1720" y="-102.5" font-family="Vera" font-size="10.00">topo.command.pylabplot.measure_position_pref</text>
</g>
<!-- topo.analysis.featureresponses.PositionMeasurementCommand&#45;&gt;topo.command.pylabplot.measure_position_pref -->
<g id="edge64" class="edge"><title>topo.analysis.featureresponses.PositionMeasurementCommand&#45;&gt;topo.command.pylabplot.measure_position_pref</title>
<path fill="none" stroke="black" stroke-width="0.5" d="M1526.11,-105C1547.52,-105 1569.23,-105 1590,-105"/>
<polygon fill="black" stroke="black" points="1590.26,-106.75 1595.26,-105 1590.26,-103.25 1590.26,-106.75"/>
</g>
<!-- topo.analysis.featureresponses.MeasureResponseCommand -->
<g id="node19" class="node"><title>topo.analysis.featureresponses.MeasureResponseCommand</title>
<polygon fill="none" stroke="black" stroke-width="0.5" points="1149,-115.5 843,-115.5 843,-94.5 1149,-94.5 1149,-115.5"/>
<text text-anchor="middle" x="996" y="-102.5" font-family="Vera" font-size="10.00">topo.analysis.featureresponses.MeasureResponseCommand</text>
</g>
<!-- topo.analysis.featureresponses.MeasureResponseCommand&#45;&gt;topo.analysis.featureresponses.PositionMeasurementCommand -->
<g id="edge14" class="edge"><title>topo.analysis.featureresponses.MeasureResponseCommand&#45;&gt;topo.analysis.featureresponses.PositionMeasurementCommand</title>
<path fill="none" stroke="black" stroke-width="0.5" d="M1149.67,-105C1165.16,-105 1180.95,-105 1196.58,-105"/>
<polygon fill="black" stroke="black" points="1196.87,-106.75 1201.87,-105 1196.87,-103.25 1196.87,-106.75"/>
</g>
<!-- topo.analysis.featureresponses.SinusoidalMeasureResponseCommand -->
<g id="node62" class="node"><title>topo.analysis.featureresponses.SinusoidalMeasureResponseCommand</title>
<polygon fill="none" stroke="black" stroke-width="0.5" points="1542,-77.5 1186,-77.5 1186,-56.5 1542,-56.5 1542,-77.5"/>
<text text-anchor="middle" x="1364" y="-64.5" font-family="Vera" font-size="10.00">topo.analysis.featureresponses.SinusoidalMeasureResponseCommand</text>
</g>
<!-- topo.analysis.featureresponses.MeasureResponseCommand&#45;&gt;topo.analysis.featureresponses.SinusoidalMeasureResponseCommand -->
<g id="edge60" class="edge"><title>topo.analysis.featureresponses.MeasureResponseCommand&#45;&gt;topo.analysis.featureresponses.SinusoidalMeasureResponseCommand</title>
<path fill="none" stroke="black" stroke-width="0.5" d="M1093.17,-94.9662C1145.15,-89.5982 1209.14,-82.9912 1261.86,-77.5472"/>
<polygon fill="black" stroke="black" points="1262.13,-79.2785 1266.93,-77.024 1261.77,-75.797 1262.13,-79.2785"/>
</g>
<!-- topo.command.pylabplot.cyclic_unit_tuning_curve -->
<g id="node25" class="node"><title>topo.command.pylabplot.cyclic_unit_tuning_curve</title>
<polygon fill="none" stroke="black" stroke-width="0.5" points="1847,-343.5 1593,-343.5 1593,-322.5 1847,-322.5 1847,-343.5"/>
<text text-anchor="middle" x="1720" y="-330.5" font-family="Vera" font-size="10.00">topo.command.pylabplot.cyclic_unit_tuning_curve</text>
</g>
<!-- topo.command.pylabplot.cyclic_tuning_curve -->
<g id="node57" class="node"><title>topo.command.pylabplot.cyclic_tuning_curve</title>
<polygon fill="none" stroke="black" stroke-width="0.5" points="2150,-343.5 1918,-343.5 1918,-322.5 2150,-322.5 2150,-343.5"/>
<text text-anchor="middle" x="2034" y="-330.5" font-family="Vera" font-size="10.00">topo.command.pylabplot.cyclic_tuning_curve</text>
</g>
<!-- topo.command.pylabplot.cyclic_unit_tuning_curve&#45;&gt;topo.command.pylabplot.cyclic_tuning_curve -->
<g id="edge54" class="edge"><title>topo.command.pylabplot.cyclic_unit_tuning_curve&#45;&gt;topo.command.pylabplot.cyclic_tuning_curve</title>
<path fill="none" stroke="black" stroke-width="0.5" d="M1847.72,-333C1869.17,-333 1891.38,-333 1912.67,-333"/>
<polygon fill="black" stroke="black" points="1912.78,-334.75 1917.78,-333 1912.78,-331.25 1912.78,-334.75"/>
</g>
<!-- topo.command.pylabplot.unit_tuning_curve&#45;&gt;topo.command.pylabplot.cyclic_unit_tuning_curve -->
<g id="edge20" class="edge"><title>topo.command.pylabplot.unit_tuning_curve&#45;&gt;topo.command.pylabplot.cyclic_unit_tuning_curve</title>
<path fill="none" stroke="black" stroke-width="0.5" d="M1476.15,-333C1511.31,-333 1550.46,-333 1586.92,-333"/>
<polygon fill="black" stroke="black" points="1587.28,-334.75 1592.28,-333 1587.28,-331.25 1587.28,-334.75"/>
</g>
<!-- topo.command.pylabplot.tuning_curve -->
<g id="node60" class="node"><title>topo.command.pylabplot.tuning_curve</title>
<polygon fill="none" stroke="black" stroke-width="0.5" points="1820,-305.5 1620,-305.5 1620,-284.5 1820,-284.5 1820,-305.5"/>
<text text-anchor="middle" x="1720" y="-292.5" font-family="Vera" font-size="10.00">topo.command.pylabplot.tuning_curve</text>
</g>
<!-- topo.command.pylabplot.unit_tuning_curve&#45;&gt;topo.command.pylabplot.tuning_curve -->
<g id="edge58" class="edge"><title>topo.command.pylabplot.unit_tuning_curve&#45;&gt;topo.command.pylabplot.tuning_curve</title>
<path fill="none" stroke="black" stroke-width="0.5" d="M1458,-322.966C1508.19,-317.609 1569.94,-311.018 1620.88,-305.58"/>
<polygon fill="black" stroke="black" points="1621.3,-307.295 1626.09,-305.024 1620.93,-303.815 1621.3,-307.295"/>
</g>
<!-- param.parameterized.ParameterizedFunction&#45;&gt;topo.command.Command -->
<g id="edge26" class="edge"><title>param.parameterized.ParameterizedFunction&#45;&gt;topo.command.Command</title>
<path fill="none" stroke="black" stroke-width="0.5" d="M401.002,-210.059C455.214,-220.157 538.485,-235.669 594.303,-246.066"/>
<polygon fill="black" stroke="black" points="594.045,-247.798 599.281,-246.994 594.686,-244.357 594.045,-247.798"/>
</g>
<!-- topo.command.pylabplot.measure_cog -->
<g id="node37" class="node"><title>topo.command.pylabplot.measure_cog</title>
<polygon fill="none" stroke="black" stroke-width="0.5" points="755,-210.5 551,-210.5 551,-189.5 755,-189.5 755,-210.5"/>
<text text-anchor="middle" x="653" y="-197.5" font-family="Vera" font-size="10.00">topo.command.pylabplot.measure_cog</text>
</g>
<!-- param.parameterized.ParameterizedFunction&#45;&gt;topo.command.pylabplot.measure_cog -->
<g id="edge32" class="edge"><title>param.parameterized.ParameterizedFunction&#45;&gt;topo.command.pylabplot.measure_cog</title>
<path fill="none" stroke="black" stroke-width="0.5" d="M464.432,-200C490.978,-200 519.035,-200 545.163,-200"/>
<polygon fill="black" stroke="black" points="545.362,-201.75 550.362,-200 545.362,-198.25 545.362,-201.75"/>
</g>
<!-- topo.analysis.featureresponses.PatternPresentingCommand -->
<g id="node46" class="node"><title>topo.analysis.featureresponses.PatternPresentingCommand</title>
<polygon fill="none" stroke="black" stroke-width="0.5" points="805,-134.5 501,-134.5 501,-113.5 805,-113.5 805,-134.5"/>
<text text-anchor="middle" x="653" y="-121.5" font-family="Vera" font-size="10.00">topo.analysis.featureresponses.PatternPresentingCommand</text>
</g>
<!-- param.parameterized.ParameterizedFunction&#45;&gt;topo.analysis.featureresponses.PatternPresentingCommand -->
<g id="edge42" class="edge"><title>param.parameterized.ParameterizedFunction&#45;&gt;topo.analysis.featureresponses.PatternPresentingCommand</title>
<path fill="none" stroke="black" stroke-width="0.5" d="M387.319,-189.986C444.303,-175.833 548.083,-150.058 607.673,-135.258"/>
<polygon fill="black" stroke="black" points="608.161,-136.94 612.592,-134.036 607.317,-133.543 608.161,-136.94"/>
</g>
<!-- topo.analysis.featureresponses.PatternPresentingCommand&#45;&gt;topo.analysis.featureresponses.MeasureResponseCommand -->
<g id="edge46" class="edge"><title>topo.analysis.featureresponses.PatternPresentingCommand&#45;&gt;topo.analysis.featureresponses.MeasureResponseCommand</title>
<path fill="none" stroke="black" stroke-width="0.5" d="M805.942,-115.528C816.305,-114.954 826.759,-114.375 837.151,-113.799"/>
<polygon fill="black" stroke="black" points="837.352,-115.541 842.247,-113.517 837.158,-112.046 837.352,-115.541"/>
</g>
<!-- topo.command.pylabplot.overlaid_plots -->
<g id="node51" class="node"><title>topo.command.pylabplot.overlaid_plots</title>
<polygon fill="none" stroke="black" stroke-width="0.5" points="1823,-229.5 1617,-229.5 1617,-208.5 1823,-208.5 1823,-229.5"/>
<text text-anchor="middle" x="1720" y="-216.5" font-family="Vera" font-size="10.00">topo.command.pylabplot.overlaid_plots</text>
</g>
<!-- topo.command.pylabplot.overlaid_plot&#45;&gt;topo.command.pylabplot.overlaid_plots -->
<g id="edge48" class="edge"><title>topo.command.pylabplot.overlaid_plot&#45;&gt;topo.command.pylabplot.overlaid_plots</title>
<path fill="none" stroke="black" stroke-width="0.5" d="M1464.11,-219C1510.15,-219 1564.84,-219 1611.82,-219"/>
<polygon fill="black" stroke="black" points="1611.93,-220.75 1616.93,-219 1611.93,-217.25 1611.93,-220.75"/>
</g>
<!-- topo.analysis.featureresponses.SinusoidalMeasureResponseCommand&#45;&gt;topo.analysis.featureresponses.FeatureCurveCommand -->
<g id="edge70" class="edge"><title>topo.analysis.featureresponses.SinusoidalMeasureResponseCommand&#45;&gt;topo.analysis.featureresponses.FeatureCurveCommand</title>
<path fill="none" stroke="black" stroke-width="0.5" d="M1542,-67C1552.21,-67 1562.43,-67 1572.51,-67"/>
<polygon fill="black" stroke="black" points="1572.76,-68.7501 1577.76,-67 1572.76,-65.2501 1572.76,-68.7501"/>
</g>
</g>
</svg>
