<?xml version="1.0" encoding="UTF-8" standalone="no"?>
<!DOCTYPE svg PUBLIC "-//W3C//DTD SVG 1.1//EN"
 "http://www.w3.org/Graphics/SVG/1.1/DTD/svg11.dtd">
<!-- Generated by graphviz version 2.26.3 (20100126.1600)
 -->
<!-- Title: inheritance0f827376bc Pages: 1 -->
<svg width="2286pt" height="403pt"
 viewBox="0.00 0.00 2286.00 403.00" xmlns="http://www.w3.org/2000/svg" xmlns:xlink="http://www.w3.org/1999/xlink">
<g id="graph1" class="graph" transform="scale(1 1) rotate(0) translate(4 399)">
<title>inheritance0f827376bc</title>
<polygon fill="white" stroke="white" points="-4,5 -4,-399 2283,-399 2283,5 -4,5"/>
<!-- topo.analysis.featureresponses.MeasureResponseCommand -->
<g id="node1" class="node"><title>topo.analysis.featureresponses.MeasureResponseCommand</title>
<polygon fill="none" stroke="black" stroke-width="0.5" points="1261,-338.5 955,-338.5 955,-317.5 1261,-317.5 1261,-338.5"/>
<text text-anchor="middle" x="1108" y="-325.5" font-family="Vera" font-size="10.00">topo.analysis.featureresponses.MeasureResponseCommand</text>
</g>
<!-- topo.analysis.featureresponses.SingleInputResponseCommand -->
<g id="node5" class="node"><title>topo.analysis.featureresponses.SingleInputResponseCommand</title>
<polygon fill="none" stroke="black" stroke-width="0.5" points="1635,-395.5 1317,-395.5 1317,-374.5 1635,-374.5 1635,-395.5"/>
<text text-anchor="middle" x="1476" y="-382.5" font-family="Vera" font-size="10.00">topo.analysis.featureresponses.SingleInputResponseCommand</text>
</g>
<!-- topo.analysis.featureresponses.MeasureResponseCommand&#45;&gt;topo.analysis.featureresponses.SingleInputResponseCommand -->
<g id="edge4" class="edge"><title>topo.analysis.featureresponses.MeasureResponseCommand&#45;&gt;topo.analysis.featureresponses.SingleInputResponseCommand</title>
<path fill="none" stroke="black" stroke-width="0.5" d="M1152.33,-338.056C1190.71,-346.475 1247.79,-358.315 1298,-366 1318.62,-369.156 1340.66,-371.963 1361.97,-374.387"/>
<polygon fill="black" stroke="black" points="1361.91,-376.142 1367.07,-374.963 1362.3,-372.664 1361.91,-376.142"/>
</g>
<!-- topo.analysis.featureresponses.SinusoidalMeasureResponseCommand -->
<g id="node28" class="node"><title>topo.analysis.featureresponses.SinusoidalMeasureResponseCommand</title>
<polygon fill="none" stroke="black" stroke-width="0.5" points="1654,-357.5 1298,-357.5 1298,-336.5 1654,-336.5 1654,-357.5"/>
<text text-anchor="middle" x="1476" y="-344.5" font-family="Vera" font-size="10.00">topo.analysis.featureresponses.SinusoidalMeasureResponseCommand</text>
</g>
<!-- topo.analysis.featureresponses.MeasureResponseCommand&#45;&gt;topo.analysis.featureresponses.SinusoidalMeasureResponseCommand -->
<g id="edge46" class="edge"><title>topo.analysis.featureresponses.MeasureResponseCommand&#45;&gt;topo.analysis.featureresponses.SinusoidalMeasureResponseCommand</title>
<path fill="none" stroke="black" stroke-width="0.5" d="M1261.67,-335.934C1271.91,-336.463 1282.29,-336.999 1292.66,-337.534"/>
<polygon fill="black" stroke="black" points="1292.67,-339.287 1297.75,-337.797 1292.85,-335.792 1292.67,-339.287"/>
</g>
<!-- topo.analysis.featureresponses.PositionMeasurementCommand -->
<g id="node43" class="node"><title>topo.analysis.featureresponses.PositionMeasurementCommand</title>
<polygon fill="none" stroke="black" stroke-width="0.5" points="1638,-319.5 1314,-319.5 1314,-298.5 1638,-298.5 1638,-319.5"/>
<text text-anchor="middle" x="1476" y="-306.5" font-family="Vera" font-size="10.00">topo.analysis.featureresponses.PositionMeasurementCommand</text>
</g>
<!-- topo.analysis.featureresponses.MeasureResponseCommand&#45;&gt;topo.analysis.featureresponses.PositionMeasurementCommand -->
<g id="edge38" class="edge"><title>topo.analysis.featureresponses.MeasureResponseCommand&#45;&gt;topo.analysis.featureresponses.PositionMeasurementCommand</title>
<path fill="none" stroke="black" stroke-width="0.5" d="M1261.67,-320.066C1277.16,-319.266 1292.95,-318.451 1308.58,-317.644"/>
<polygon fill="black" stroke="black" points="1308.97,-319.376 1313.87,-317.371 1308.79,-315.881 1308.97,-319.376"/>
</g>
<!-- topo.analysis.featureresponses.PatternPresentingCommand -->
<g id="node2" class="node"><title>topo.analysis.featureresponses.PatternPresentingCommand</title>
<polygon fill="none" stroke="black" stroke-width="0.5" points="913,-305.5 609,-305.5 609,-284.5 913,-284.5 913,-305.5"/>
<text text-anchor="middle" x="761" y="-292.5" font-family="Vera" font-size="10.00">topo.analysis.featureresponses.PatternPresentingCommand</text>
</g>
<!-- topo.analysis.featureresponses.PatternPresentingCommand&#45;&gt;topo.analysis.featureresponses.MeasureResponseCommand -->
<g id="edge2" class="edge"><title>topo.analysis.featureresponses.PatternPresentingCommand&#45;&gt;topo.analysis.featureresponses.MeasureResponseCommand</title>
<path fill="none" stroke="black" stroke-width="0.5" d="M866.525,-305.035C908.007,-308.981 955.647,-313.511 997.592,-317.5"/>
<polygon fill="black" stroke="black" points="997.535,-319.253 1002.68,-317.984 997.867,-315.768 997.535,-319.253"/>
</g>
<!-- topo.analysis.featureresponses.pattern_present -->
<g id="node15" class="node"><title>topo.analysis.featureresponses.pattern_present</title>
<polygon fill="none" stroke="black" stroke-width="0.5" points="1231,-290.5 985,-290.5 985,-269.5 1231,-269.5 1231,-290.5"/>
<text text-anchor="middle" x="1108" y="-277.5" font-family="Vera" font-size="10.00">topo.analysis.featureresponses.pattern_present</text>
</g>
<!-- topo.analysis.featureresponses.PatternPresentingCommand&#45;&gt;topo.analysis.featureresponses.pattern_present -->
<g id="edge50" class="edge"><title>topo.analysis.featureresponses.PatternPresentingCommand&#45;&gt;topo.analysis.featureresponses.pattern_present</title>
<path fill="none" stroke="black" stroke-width="0.5" d="M913.704,-288.399C935.588,-287.453 957.919,-286.488 979.278,-285.564"/>
<polygon fill="black" stroke="black" points="979.476,-287.308 984.395,-285.343 979.324,-283.811 979.476,-287.308"/>
</g>
<!-- param.parameterized.Parameterized -->
<g id="node4" class="node"><title>param.parameterized.Parameterized</title>
<polygon fill="none" stroke="black" stroke-width="0.5" points="236,-96.5 42,-96.5 42,-75.5 236,-75.5 236,-96.5"/>
<text text-anchor="middle" x="139" y="-83.5" font-family="Vera" font-size="10.00">param.parameterized.Parameterized</text>
</g>
<!-- param.parameterized.ParameterizedFunction -->
<g id="node7" class="node"><title>param.parameterized.ParameterizedFunction</title>
<polygon fill="none" stroke="black" stroke-width="0.5" points="558,-172.5 324,-172.5 324,-151.5 558,-151.5 558,-172.5"/>
<text text-anchor="middle" x="441" y="-159.5" font-family="Vera" font-size="10.00">param.parameterized.ParameterizedFunction</text>
</g>
<!-- param.parameterized.Parameterized&#45;&gt;param.parameterized.ParameterizedFunction -->
<g id="edge6" class="edge"><title>param.parameterized.Parameterized&#45;&gt;param.parameterized.ParameterizedFunction</title>
<path fill="none" stroke="black" stroke-width="0.5" d="M236.175,-90.703C250.698,-93.8161 265.107,-98.3834 278,-105 298.698,-115.622 293.37,-132.247 314,-143 319.329,-145.777 324.943,-148.18 330.724,-150.257"/>
<polygon fill="black" stroke="black" points="330.319,-151.968 335.616,-151.926 331.449,-148.656 330.319,-151.968"/>
</g>
<!-- topo.analysis.featureresponses.Feature -->
<g id="node21" class="node"><title>topo.analysis.featureresponses.Feature</title>
<polygon fill="none" stroke="black" stroke-width="0.5" points="544,-134.5 338,-134.5 338,-113.5 544,-113.5 544,-134.5"/>
<text text-anchor="middle" x="441" y="-121.5" font-family="Vera" font-size="10.00">topo.analysis.featureresponses.Feature</text>
</g>
<!-- param.parameterized.Parameterized&#45;&gt;topo.analysis.featureresponses.Feature -->
<g id="edge18" class="edge"><title>param.parameterized.Parameterized&#45;&gt;topo.analysis.featureresponses.Feature</title>
<path fill="none" stroke="black" stroke-width="0.5" d="M218.742,-96.0338C261.06,-101.358 313.065,-107.902 356.129,-113.321"/>
<polygon fill="black" stroke="black" points="356.156,-115.088 361.335,-113.976 356.593,-111.615 356.156,-115.088"/>
</g>
<!-- topo.analysis.featureresponses.Subplotting -->
<g id="node32" class="node"><title>topo.analysis.featureresponses.Subplotting</title>
<polygon fill="none" stroke="black" stroke-width="0.5" points="553,-96.5 329,-96.5 329,-75.5 553,-75.5 553,-96.5"/>
<text text-anchor="middle" x="441" y="-83.5" font-family="Vera" font-size="10.00">topo.analysis.featureresponses.Subplotting</text>
</g>
<!-- param.parameterized.Parameterized&#45;&gt;topo.analysis.featureresponses.Subplotting -->
<g id="edge28" class="edge"><title>param.parameterized.Parameterized&#45;&gt;topo.analysis.featureresponses.Subplotting</title>
<path fill="none" stroke="black" stroke-width="0.5" d="M236.217,-86C264.172,-86 294.955,-86 323.973,-86"/>
<polygon fill="black" stroke="black" points="323.991,-87.7501 328.991,-86 323.991,-84.2501 323.991,-87.7501"/>
</g>
<!-- topo.analysis.featureresponses.FullMatrix -->
<g id="node34" class="node"><title>topo.analysis.featureresponses.FullMatrix</title>
<polygon fill="none" stroke="black" stroke-width="0.5" points="548,-58.5 334,-58.5 334,-37.5 548,-37.5 548,-58.5"/>
<text text-anchor="middle" x="441" y="-45.5" font-family="Vera" font-size="10.00">topo.analysis.featureresponses.FullMatrix</text>
</g>
<!-- param.parameterized.Parameterized&#45;&gt;topo.analysis.featureresponses.FullMatrix -->
<g id="edge30" class="edge"><title>param.parameterized.Parameterized&#45;&gt;topo.analysis.featureresponses.FullMatrix</title>
<path fill="none" stroke="black" stroke-width="0.5" d="M218.742,-75.9662C261.06,-70.6415 313.065,-64.0977 356.129,-58.6791"/>
<polygon fill="black" stroke="black" points="356.593,-60.3847 361.335,-58.024 356.156,-56.912 356.593,-60.3847"/>
</g>
<!-- topo.analysis.featureresponses.DistributionMatrix -->
<g id="node47" class="node"><title>topo.analysis.featureresponses.DistributionMatrix</title>
<polygon fill="none" stroke="black" stroke-width="0.5" points="568,-20.5 314,-20.5 314,0.5 568,0.5 568,-20.5"/>
<text text-anchor="middle" x="441" y="-7.5" font-family="Vera" font-size="10.00">topo.analysis.featureresponses.DistributionMatrix</text>
</g>
<!-- param.parameterized.Parameterized&#45;&gt;topo.analysis.featureresponses.DistributionMatrix -->
<g id="edge42" class="edge"><title>param.parameterized.Parameterized&#45;&gt;topo.analysis.featureresponses.DistributionMatrix</title>
<path fill="none" stroke="black" stroke-width="0.5" d="M165.292,-75.913C199.194,-63.2616 260.198,-41.6933 314,-29 327.238,-25.8769 341.379,-23.1632 355.24,-20.8413"/>
<polygon fill="black" stroke="black" points="355.683,-22.5421 360.333,-20.0035 355.115,-19.0885 355.683,-22.5421"/>
</g>
<!-- param.parameterized.ParameterizedFunction&#45;&gt;topo.analysis.featureresponses.PatternPresentingCommand -->
<g id="edge48" class="edge"><title>param.parameterized.ParameterizedFunction&#45;&gt;topo.analysis.featureresponses.PatternPresentingCommand</title>
<path fill="none" stroke="black" stroke-width="0.5" d="M451.361,-172.091C475.659,-195.066 539.171,-251.2 604,-276 611.751,-278.965 619.861,-281.495 628.136,-283.651"/>
<polygon fill="black" stroke="black" points="628.033,-285.429 633.308,-284.946 628.883,-282.034 628.033,-285.429"/>
</g>
<!-- topo.analysis.featureresponses.hue2rgbscale -->
<g id="node9" class="node"><title>topo.analysis.featureresponses.hue2rgbscale</title>
<polygon fill="none" stroke="black" stroke-width="0.5" points="878,-267.5 644,-267.5 644,-246.5 878,-246.5 878,-267.5"/>
<text text-anchor="middle" x="761" y="-254.5" font-family="Vera" font-size="10.00">topo.analysis.featureresponses.hue2rgbscale</text>
</g>
<!-- param.parameterized.ParameterizedFunction&#45;&gt;topo.analysis.featureresponses.hue2rgbscale -->
<g id="edge8" class="edge"><title>param.parameterized.ParameterizedFunction&#45;&gt;topo.analysis.featureresponses.hue2rgbscale</title>
<path fill="none" stroke="black" stroke-width="0.5" d="M457.906,-172.091C486.763,-188.799 547.86,-221.956 604,-238 615.203,-241.202 627.006,-243.864 638.903,-246.078"/>
<polygon fill="black" stroke="black" points="638.774,-247.833 644.005,-246.999 639.396,-244.388 638.774,-247.833"/>
</g>
<!-- topo.analysis.featureresponses.contrast2scale -->
<g id="node17" class="node"><title>topo.analysis.featureresponses.contrast2scale</title>
<polygon fill="none" stroke="black" stroke-width="0.5" points="881,-229.5 641,-229.5 641,-208.5 881,-208.5 881,-229.5"/>
<text text-anchor="middle" x="761" y="-216.5" font-family="Vera" font-size="10.00">topo.analysis.featureresponses.contrast2scale</text>
</g>
<!-- param.parameterized.ParameterizedFunction&#45;&gt;topo.analysis.featureresponses.contrast2scale -->
<g id="edge14" class="edge"><title>param.parameterized.ParameterizedFunction&#45;&gt;topo.analysis.featureresponses.contrast2scale</title>
<path fill="none" stroke="black" stroke-width="0.5" d="M478.637,-172.001C511.521,-180.443 560.648,-192.347 604,-200 621.794,-203.141 640.815,-205.923 659.257,-208.323"/>
<polygon fill="black" stroke="black" points="659.259,-210.087 664.441,-208.99 659.706,-206.616 659.259,-210.087"/>
</g>
<!-- topo.base.functionfamily.PatternDrivenAnalysis -->
<g id="node26" class="node"><title>topo.base.functionfamily.PatternDrivenAnalysis</title>
<polygon fill="none" stroke="black" stroke-width="0.5" points="881,-191.5 641,-191.5 641,-170.5 881,-170.5 881,-191.5"/>
<text text-anchor="middle" x="761" y="-178.5" font-family="Vera" font-size="10.00">topo.base.functionfamily.PatternDrivenAnalysis</text>
</g>
<!-- param.parameterized.ParameterizedFunction&#45;&gt;topo.base.functionfamily.PatternDrivenAnalysis -->
<g id="edge22" class="edge"><title>param.parameterized.ParameterizedFunction&#45;&gt;topo.base.functionfamily.PatternDrivenAnalysis</title>
<path fill="none" stroke="black" stroke-width="0.5" d="M558.339,-168.967C583.59,-170.466 610.371,-172.056 635.905,-173.572"/>
<polygon fill="black" stroke="black" points="635.899,-175.325 640.994,-173.875 636.106,-171.831 635.899,-175.325"/>
</g>
<!-- topo.analysis.featureresponses.direction2translation -->
<g id="node30" class="node"><title>topo.analysis.featureresponses.direction2translation</title>
<polygon fill="none" stroke="black" stroke-width="0.5" points="895,-153.5 627,-153.5 627,-132.5 895,-132.5 895,-153.5"/>
<text text-anchor="middle" x="761" y="-140.5" font-family="Vera" font-size="10.00">topo.analysis.featureresponses.direction2translation</text>
</g>
<!-- param.parameterized.ParameterizedFunction&#45;&gt;topo.analysis.featureresponses.direction2translation -->
<g id="edge26" class="edge"><title>param.parameterized.ParameterizedFunction&#45;&gt;topo.analysis.featureresponses.direction2translation</title>
<path fill="none" stroke="black" stroke-width="0.5" d="M558.339,-155.033C578.981,-153.807 600.645,-152.521 621.815,-151.264"/>
<polygon fill="black" stroke="black" points="622.008,-153.006 626.896,-150.962 621.801,-149.512 622.008,-153.006"/>
</g>
<!-- topo.analysis.featureresponses.contrast2centersurroundscale -->
<g id="node36" class="node"><title>topo.analysis.featureresponses.contrast2centersurroundscale</title>
<polygon fill="none" stroke="black" stroke-width="0.5" points="918,-115.5 604,-115.5 604,-94.5 918,-94.5 918,-115.5"/>
<text text-anchor="middle" x="761" y="-102.5" font-family="Vera" font-size="10.00">topo.analysis.featureresponses.contrast2centersurroundscale</text>
</g>
<!-- param.parameterized.ParameterizedFunction&#45;&gt;topo.analysis.featureresponses.contrast2centersurroundscale -->
<g id="edge32" class="edge"><title>param.parameterized.ParameterizedFunction&#45;&gt;topo.analysis.featureresponses.contrast2centersurroundscale</title>
<path fill="none" stroke="black" stroke-width="0.5" d="M533.085,-151.987C544.978,-149.601 556.879,-146.649 568,-143 585.19,-137.359 586.733,-129.399 604,-124 614.112,-120.838 624.744,-118.198 635.507,-115.994"/>
<polygon fill="black" stroke="black" points="635.897,-117.701 640.461,-115.012 635.216,-114.268 635.897,-117.701"/>
</g>
<!-- topo.analysis.featureresponses.phasedisparity2leftrightphase -->
<g id="node38" class="node"><title>topo.analysis.featureresponses.phasedisparity2leftrightphase</title>
<polygon fill="none" stroke="black" stroke-width="0.5" points="916,-77.5 606,-77.5 606,-56.5 916,-56.5 916,-77.5"/>
<text text-anchor="middle" x="761" y="-64.5" font-family="Vera" font-size="10.00">topo.analysis.featureresponses.phasedisparity2leftrightphase</text>
</g>
<!-- param.parameterized.ParameterizedFunction&#45;&gt;topo.analysis.featureresponses.phasedisparity2leftrightphase -->
<g id="edge34" class="edge"><title>param.parameterized.ParameterizedFunction&#45;&gt;topo.analysis.featureresponses.phasedisparity2leftrightphase</title>
<path fill="none" stroke="black" stroke-width="0.5" d="M551.02,-151.878C556.968,-149.405 562.678,-146.471 568,-143 593.096,-126.63 578.677,-102.016 604,-86 608.005,-83.4672 612.183,-81.1896 616.493,-79.1442"/>
<polygon fill="black" stroke="black" points="617.38,-80.6642 621.219,-77.0148 615.942,-77.473 617.38,-80.6642"/>
</g>
<!-- topo.analysis.featureresponses.ocular2leftrightscale -->
<g id="node40" class="node"><title>topo.analysis.featureresponses.ocular2leftrightscale</title>
<polygon fill="none" stroke="black" stroke-width="0.5" points="894,-39.5 628,-39.5 628,-18.5 894,-18.5 894,-39.5"/>
<text text-anchor="middle" x="761" y="-26.5" font-family="Vera" font-size="10.00">topo.analysis.featureresponses.ocular2leftrightscale</text>
</g>
<!-- param.parameterized.ParameterizedFunction&#45;&gt;topo.analysis.featureresponses.ocular2leftrightscale -->
<g id="edge36" class="edge"><title>param.parameterized.ParameterizedFunction&#45;&gt;topo.analysis.featureresponses.ocular2leftrightscale</title>
<path fill="none" stroke="black" stroke-width="0.5" d="M554.301,-151.899C559.146,-149.374 563.748,-146.428 568,-143 603.151,-114.66 568.455,-75.8438 604,-48 609.883,-43.3916 616.29,-39.5483 623.043,-36.3596"/>
<polygon fill="black" stroke="black" points="623.914,-37.8872 627.771,-34.2553 622.491,-34.6896 623.914,-37.8872"/>
</g>
<!-- topo.analysis.featureresponses.FeatureCurves -->
<g id="node11" class="node"><title>topo.analysis.featureresponses.FeatureCurves</title>
<polygon fill="none" stroke="black" stroke-width="0.5" points="1595,-229.5 1357,-229.5 1357,-208.5 1595,-208.5 1595,-229.5"/>
<text text-anchor="middle" x="1476" y="-216.5" font-family="Vera" font-size="10.00">topo.analysis.featureresponses.FeatureCurves</text>
</g>
<!-- topo.analysis.featureresponses.FeatureResponses -->
<g id="node12" class="node"><title>topo.analysis.featureresponses.FeatureResponses</title>
<polygon fill="none" stroke="black" stroke-width="0.5" points="1236,-191.5 980,-191.5 980,-170.5 1236,-170.5 1236,-191.5"/>
<text text-anchor="middle" x="1108" y="-178.5" font-family="Vera" font-size="10.00">topo.analysis.featureresponses.FeatureResponses</text>
</g>
<!-- topo.analysis.featureresponses.FeatureResponses&#45;&gt;topo.analysis.featureresponses.FeatureCurves -->
<g id="edge10" class="edge"><title>topo.analysis.featureresponses.FeatureResponses&#45;&gt;topo.analysis.featureresponses.FeatureCurves</title>
<path fill="none" stroke="black" stroke-width="0.5" d="M1205.17,-191.034C1257.15,-196.402 1321.14,-203.009 1373.86,-208.453"/>
<polygon fill="black" stroke="black" points="1373.77,-210.203 1378.93,-208.976 1374.13,-206.722 1373.77,-210.203"/>
</g>
<!-- topo.analysis.featureresponses.FeatureMaps -->
<g id="node19" class="node"><title>topo.analysis.featureresponses.FeatureMaps</title>
<polygon fill="none" stroke="black" stroke-width="0.5" points="1591,-191.5 1361,-191.5 1361,-170.5 1591,-170.5 1591,-191.5"/>
<text text-anchor="middle" x="1476" y="-178.5" font-family="Vera" font-size="10.00">topo.analysis.featureresponses.FeatureMaps</text>
</g>
<!-- topo.analysis.featureresponses.FeatureResponses&#45;&gt;topo.analysis.featureresponses.FeatureMaps -->
<g id="edge16" class="edge"><title>topo.analysis.featureresponses.FeatureResponses&#45;&gt;topo.analysis.featureresponses.FeatureMaps</title>
<path fill="none" stroke="black" stroke-width="0.5" d="M1236.71,-181C1275.19,-181 1317.23,-181 1355.19,-181"/>
<polygon fill="black" stroke="black" points="1355.27,-182.75 1360.27,-181 1355.27,-179.25 1355.27,-182.75"/>
</g>
<!-- topo.analysis.featureresponses.ReverseCorrelation -->
<g id="node45" class="node"><title>topo.analysis.featureresponses.ReverseCorrelation</title>
<polygon fill="none" stroke="black" stroke-width="0.5" points="1606,-153.5 1346,-153.5 1346,-132.5 1606,-132.5 1606,-153.5"/>
<text text-anchor="middle" x="1476" y="-140.5" font-family="Vera" font-size="10.00">topo.analysis.featureresponses.ReverseCorrelation</text>
</g>
<!-- topo.analysis.featureresponses.FeatureResponses&#45;&gt;topo.analysis.featureresponses.ReverseCorrelation -->
<g id="edge40" class="edge"><title>topo.analysis.featureresponses.FeatureResponses&#45;&gt;topo.analysis.featureresponses.ReverseCorrelation</title>
<path fill="none" stroke="black" stroke-width="0.5" d="M1205.17,-170.966C1257.15,-165.598 1321.14,-158.991 1373.86,-153.547"/>
<polygon fill="black" stroke="black" points="1374.13,-155.278 1378.93,-153.024 1373.77,-151.797 1374.13,-155.278"/>
</g>
<!-- topo.analysis.featureresponses.pattern_response -->
<g id="node14" class="node"><title>topo.analysis.featureresponses.pattern_response</title>
<polygon fill="none" stroke="black" stroke-width="0.5" points="1603,-281.5 1349,-281.5 1349,-260.5 1603,-260.5 1603,-281.5"/>
<text text-anchor="middle" x="1476" y="-268.5" font-family="Vera" font-size="10.00">topo.analysis.featureresponses.pattern_response</text>
</g>
<!-- topo.analysis.featureresponses.pattern_present&#45;&gt;topo.analysis.featureresponses.pattern_response -->
<g id="edge12" class="edge"><title>topo.analysis.featureresponses.pattern_present&#45;&gt;topo.analysis.featureresponses.pattern_response</title>
<path fill="none" stroke="black" stroke-width="0.5" d="M1231.56,-276.978C1267.58,-276.097 1307.08,-275.131 1343.63,-274.237"/>
<polygon fill="black" stroke="black" points="1344.04,-275.978 1349,-274.106 1343.95,-272.479 1344.04,-275.978"/>
</g>
<!-- topo.analysis.featureresponses.UnitCurveCommand -->
<g id="node23" class="node"><title>topo.analysis.featureresponses.UnitCurveCommand</title>
<polygon fill="none" stroke="black" stroke-width="0.5" points="2277,-357.5 2011,-357.5 2011,-336.5 2277,-336.5 2277,-357.5"/>
<text text-anchor="middle" x="2144" y="-344.5" font-family="Vera" font-size="10.00">topo.analysis.featureresponses.UnitCurveCommand</text>
</g>
<!-- topo.analysis.featureresponses.FeatureCurveCommand -->
<g id="node24" class="node"><title>topo.analysis.featureresponses.FeatureCurveCommand</title>
<polygon fill="none" stroke="black" stroke-width="0.5" points="1974,-357.5 1690,-357.5 1690,-336.5 1974,-336.5 1974,-357.5"/>
<text text-anchor="middle" x="1832" y="-344.5" font-family="Vera" font-size="10.00">topo.analysis.featureresponses.FeatureCurveCommand</text>
</g>
<!-- topo.analysis.featureresponses.FeatureCurveCommand&#45;&gt;topo.analysis.featureresponses.UnitCurveCommand -->
<g id="edge20" class="edge"><title>topo.analysis.featureresponses.FeatureCurveCommand&#45;&gt;topo.analysis.featureresponses.UnitCurveCommand</title>
<path fill="none" stroke="black" stroke-width="0.5" d="M1974.3,-347C1984.43,-347 1994.64,-347 2004.75,-347"/>
<polygon fill="black" stroke="black" points="2005.03,-348.75 2010.03,-347 2005.03,-345.25 2005.03,-348.75"/>
</g>
<!-- topo.base.functionfamily.PatternDrivenAnalysis&#45;&gt;topo.analysis.featureresponses.FeatureResponses -->
<g id="edge44" class="edge"><title>topo.base.functionfamily.PatternDrivenAnalysis&#45;&gt;topo.analysis.featureresponses.FeatureResponses</title>
<path fill="none" stroke="black" stroke-width="0.5" d="M881.39,-181C911.274,-181 943.485,-181 973.977,-181"/>
<polygon fill="black" stroke="black" points="974.251,-182.75 979.251,-181 974.251,-179.25 974.251,-182.75"/>
</g>
<!-- topo.analysis.featureresponses.SinusoidalMeasureResponseCommand&#45;&gt;topo.analysis.featureresponses.FeatureCurveCommand -->
<g id="edge24" class="edge"><title>topo.analysis.featureresponses.SinusoidalMeasureResponseCommand&#45;&gt;topo.analysis.featureresponses.FeatureCurveCommand</title>
<path fill="none" stroke="black" stroke-width="0.5" d="M1654,-347C1664.21,-347 1674.43,-347 1684.51,-347"/>
<polygon fill="black" stroke="black" points="1684.76,-348.75 1689.76,-347 1684.76,-345.25 1684.76,-348.75"/>
</g>
<!-- topo.analysis.featureresponses.MeasurementInterrupt -->
<g id="node42" class="node"><title>topo.analysis.featureresponses.MeasurementInterrupt</title>
<polygon fill="none" stroke="black" stroke-width="0.5" points="278,-134.5 1.13687e-13,-134.5 0,-113.5 278,-113.5 278,-134.5"/>
<text text-anchor="middle" x="139" y="-121.5" font-family="Vera" font-size="10.00">topo.analysis.featureresponses.MeasurementInterrupt</text>
</g>
</g>
</svg>
