<?xml version="1.0" encoding="UTF-8" standalone="no"?>
<!DOCTYPE svg PUBLIC "-//W3C//DTD SVG 1.1//EN"
 "http://www.w3.org/Graphics/SVG/1.1/DTD/svg11.dtd">
<!-- Generated by graphviz version 2.26.3 (20100126.1600)
 -->
<!-- Title: inheritance0bce68b9cf Pages: 1 -->
<svg width="1432pt" height="104pt"
 viewBox="0.00 0.00 1432.00 104.00" xmlns="http://www.w3.org/2000/svg" xmlns:xlink="http://www.w3.org/1999/xlink">
<g id="graph1" class="graph" transform="scale(1 1) rotate(0) translate(4 100)">
<title>inheritance0bce68b9cf</title>
<polygon fill="white" stroke="white" points="-4,5 -4,-100 1429,-100 1429,5 -4,5"/>
<!-- topo.command.analysis.update_connectionfields -->
<g id="node1" class="node"><title>topo.command.analysis.update_connectionfields</title>
<polygon fill="none" stroke="black" stroke-width="0.5" points="1423,-96.5 1173,-96.5 1173,-75.5 1423,-75.5 1423,-96.5"/>
<text text-anchor="middle" x="1298" y="-83.5" font-family="Vera" font-size="10.00">topo.command.analysis.update_connectionfields</text>
</g>
<!-- topo.command.analysis.UnitMeasurementCommand -->
<g id="node2" class="node"><title>topo.command.analysis.UnitMeasurementCommand</title>
<polygon fill="none" stroke="black" stroke-width="0.5" points="1135,-77.5 865,-77.5 865,-56.5 1135,-56.5 1135,-77.5"/>
<text text-anchor="middle" x="1000" y="-64.5" font-family="Vera" font-size="10.00">topo.command.analysis.UnitMeasurementCommand</text>
</g>
<!-- topo.command.analysis.UnitMeasurementCommand&#45;&gt;topo.command.analysis.update_connectionfields -->
<g id="edge2" class="edge"><title>topo.command.analysis.UnitMeasurementCommand&#45;&gt;topo.command.analysis.update_connectionfields</title>
<path fill="none" stroke="black" stroke-width="0.5" d="M1135.92,-75.666C1146.34,-76.3305 1156.85,-77.0004 1167.24,-77.6627"/>
<polygon fill="black" stroke="black" points="1167.22,-79.4154 1172.32,-77.9871 1167.45,-75.9225 1167.22,-79.4154"/>
</g>
<!-- topo.command.analysis.update_projection -->
<g id="node9" class="node"><title>topo.command.analysis.update_projection</title>
<polygon fill="none" stroke="black" stroke-width="0.5" points="1408,-58.5 1188,-58.5 1188,-37.5 1408,-37.5 1408,-58.5"/>
<text text-anchor="middle" x="1298" y="-45.5" font-family="Vera" font-size="10.00">topo.command.analysis.update_projection</text>
</g>
<!-- topo.command.analysis.UnitMeasurementCommand&#45;&gt;topo.command.analysis.update_projection -->
<g id="edge8" class="edge"><title>topo.command.analysis.UnitMeasurementCommand&#45;&gt;topo.command.analysis.update_projection</title>
<path fill="none" stroke="black" stroke-width="0.5" d="M1135.92,-58.334C1151.37,-57.3492 1167,-56.3523 1182.15,-55.3861"/>
<polygon fill="black" stroke="black" points="1182.4,-57.1244 1187.27,-55.0597 1182.17,-53.6315 1182.4,-57.1244"/>
</g>
<!-- topo.command.analysis.ProjectionSheetMeasurementCommand -->
<g id="node4" class="node"><title>topo.command.analysis.ProjectionSheetMeasurementCommand</title>
<polygon fill="none" stroke="black" stroke-width="0.5" points="827,-58.5 501,-58.5 501,-37.5 827,-37.5 827,-58.5"/>
<text text-anchor="middle" x="664" y="-45.5" font-family="Vera" font-size="10.00">topo.command.analysis.ProjectionSheetMeasurementCommand</text>
</g>
<!-- topo.command.analysis.ProjectionSheetMeasurementCommand&#45;&gt;topo.command.analysis.UnitMeasurementCommand -->
<g id="edge12" class="edge"><title>topo.command.analysis.ProjectionSheetMeasurementCommand&#45;&gt;topo.command.analysis.UnitMeasurementCommand</title>
<path fill="none" stroke="black" stroke-width="0.5" d="M827.571,-57.2495C838.184,-57.8497 848.821,-58.4512 859.312,-59.0444"/>
<polygon fill="black" stroke="black" points="859.359,-60.7998 864.45,-59.335 859.557,-57.3054 859.359,-60.7998"/>
</g>
<!-- topo.command.analysis.update_projectionactivity -->
<g id="node7" class="node"><title>topo.command.analysis.update_projectionactivity</title>
<polygon fill="none" stroke="black" stroke-width="0.5" points="1127,-39.5 873,-39.5 873,-18.5 1127,-18.5 1127,-39.5"/>
<text text-anchor="middle" x="1000" y="-26.5" font-family="Vera" font-size="10.00">topo.command.analysis.update_projectionactivity</text>
</g>
<!-- topo.command.analysis.ProjectionSheetMeasurementCommand&#45;&gt;topo.command.analysis.update_projectionactivity -->
<g id="edge6" class="edge"><title>topo.command.analysis.ProjectionSheetMeasurementCommand&#45;&gt;topo.command.analysis.update_projectionactivity</title>
<path fill="none" stroke="black" stroke-width="0.5" d="M827.571,-38.7505C840.978,-37.9923 854.424,-37.232 867.565,-36.4889"/>
<polygon fill="black" stroke="black" points="867.888,-38.2235 872.781,-36.1939 867.69,-34.7291 867.888,-38.2235"/>
</g>
<!-- param.parameterized.ParameterizedFunction -->
<g id="node5" class="node"><title>param.parameterized.ParameterizedFunction</title>
<polygon fill="none" stroke="black" stroke-width="0.5" points="464,-39.5 230,-39.5 230,-18.5 464,-18.5 464,-39.5"/>
<text text-anchor="middle" x="347" y="-26.5" font-family="Vera" font-size="10.00">param.parameterized.ParameterizedFunction</text>
</g>
<!-- param.parameterized.ParameterizedFunction&#45;&gt;topo.command.analysis.ProjectionSheetMeasurementCommand -->
<g id="edge4" class="edge"><title>param.parameterized.ParameterizedFunction&#45;&gt;topo.command.analysis.ProjectionSheetMeasurementCommand</title>
<path fill="none" stroke="black" stroke-width="0.5" d="M464.138,-36.0209C474.294,-36.6296 484.692,-37.2528 495.151,-37.8797"/>
<polygon fill="black" stroke="black" points="495.194,-39.6353 500.29,-38.1877 495.403,-36.1416 495.194,-39.6353"/>
</g>
<!-- topo.command.analysis.measure_cog -->
<g id="node11" class="node"><title>topo.command.analysis.measure_cog</title>
<polygon fill="none" stroke="black" stroke-width="0.5" points="764,-20.5 564,-20.5 564,0.5 764,0.5 764,-20.5"/>
<text text-anchor="middle" x="664" y="-7.5" font-family="Vera" font-size="10.00">topo.command.analysis.measure_cog</text>
</g>
<!-- param.parameterized.ParameterizedFunction&#45;&gt;topo.command.analysis.measure_cog -->
<g id="edge10" class="edge"><title>param.parameterized.ParameterizedFunction&#45;&gt;topo.command.analysis.measure_cog</title>
<path fill="none" stroke="black" stroke-width="0.5" d="M464.138,-21.9791C495.066,-20.1254 528.252,-18.1363 558.523,-16.322"/>
<polygon fill="black" stroke="black" points="558.86,-18.055 563.746,-16.0089 558.65,-14.5613 558.86,-18.055"/>
</g>
<!-- param.parameterized.Parameterized -->
<g id="node14" class="node"><title>param.parameterized.Parameterized</title>
<polygon fill="none" stroke="black" stroke-width="0.5" points="194,-39.5 5.68434e-14,-39.5 0,-18.5 194,-18.5 194,-39.5"/>
<text text-anchor="middle" x="97" y="-26.5" font-family="Vera" font-size="10.00">param.parameterized.Parameterized</text>
</g>
<!-- param.parameterized.Parameterized&#45;&gt;param.parameterized.ParameterizedFunction -->
<g id="edge14" class="edge"><title>param.parameterized.Parameterized&#45;&gt;param.parameterized.ParameterizedFunction</title>
<path fill="none" stroke="black" stroke-width="0.5" d="M194.014,-29C204.04,-29 214.319,-29 224.575,-29"/>
<polygon fill="black" stroke="black" points="224.607,-30.7501 229.607,-29 224.607,-27.2501 224.607,-30.7501"/>
</g>
</g>
</svg>
