<?xml version="1.0" encoding="UTF-8" standalone="no"?>
<!DOCTYPE svg PUBLIC "-//W3C//DTD SVG 1.1//EN"
 "http://www.w3.org/Graphics/SVG/1.1/DTD/svg11.dtd">
<!-- Generated by graphviz version 2.26.3 (20100126.1600)
 -->
<!-- Title: inheritance1d39487c30 Pages: 1 -->
<svg width="1064pt" height="275pt"
 viewBox="0.00 0.00 1064.00 275.00" xmlns="http://www.w3.org/2000/svg" xmlns:xlink="http://www.w3.org/1999/xlink">
<g id="graph1" class="graph" transform="scale(1 1) rotate(0) translate(4 271)">
<title>inheritance1d39487c30</title>
<polygon fill="white" stroke="white" points="-4,5 -4,-271 1061,-271 1061,5 -4,5"/>
<!-- topo.tkgui.editor.EditorSheet -->
<g id="node1" class="node"><title>topo.tkgui.editor.EditorSheet</title>
<polygon fill="none" stroke="black" stroke-width="0.5" points="838,-58.5 684,-58.5 684,-37.5 838,-37.5 838,-58.5"/>
<text text-anchor="middle" x="761" y="-45.5" font-family="Vera" font-size="10.00">topo.tkgui.editor.EditorSheet</text>
</g>
<!-- topo.tkgui.editor.EditorEP -->
<g id="node2" class="node"><title>topo.tkgui.editor.EditorEP</title>
<polygon fill="none" stroke="black" stroke-width="0.5" points="610,-58.5 474,-58.5 474,-37.5 610,-37.5 610,-58.5"/>
<text text-anchor="middle" x="542" y="-45.5" font-family="Vera" font-size="10.00">topo.tkgui.editor.EditorEP</text>
</g>
<!-- topo.tkgui.editor.EditorEP&#45;&gt;topo.tkgui.editor.EditorSheet -->
<g id="edge2" class="edge"><title>topo.tkgui.editor.EditorEP&#45;&gt;topo.tkgui.editor.EditorSheet</title>
<path fill="none" stroke="black" stroke-width="0.5" d="M610.692,-48C632.267,-48 656.308,-48 678.724,-48"/>
<polygon fill="black" stroke="black" points="678.78,-49.7501 683.78,-48 678.78,-46.2501 678.78,-49.7501"/>
</g>
<!-- topo.tkgui.editor.EditorNode -->
<g id="node4" class="node"><title>topo.tkgui.editor.EditorNode</title>
<polygon fill="none" stroke="black" stroke-width="0.5" points="395,-58.5 245,-58.5 245,-37.5 395,-37.5 395,-58.5"/>
<text text-anchor="middle" x="320" y="-45.5" font-family="Vera" font-size="10.00">topo.tkgui.editor.EditorNode</text>
</g>
<!-- topo.tkgui.editor.EditorNode&#45;&gt;topo.tkgui.editor.EditorEP -->
<g id="edge4" class="edge"><title>topo.tkgui.editor.EditorNode&#45;&gt;topo.tkgui.editor.EditorEP</title>
<path fill="none" stroke="black" stroke-width="0.5" d="M395.779,-48C419.134,-48 444.811,-48 468.042,-48"/>
<polygon fill="black" stroke="black" points="468.269,-49.7501 473.269,-48 468.269,-46.2501 468.269,-49.7501"/>
</g>
<!-- param.parameterized.Parameterized -->
<g id="node6" class="node"><title>param.parameterized.Parameterized</title>
<polygon fill="none" stroke="black" stroke-width="0.5" points="194,-96.5 5.68434e-14,-96.5 0,-75.5 194,-75.5 194,-96.5"/>
<text text-anchor="middle" x="97" y="-83.5" font-family="Vera" font-size="10.00">param.parameterized.Parameterized</text>
</g>
<!-- topo.tkgui.editor.ModelEditor -->
<g id="node20" class="node"><title>topo.tkgui.editor.ModelEditor</title>
<polygon fill="none" stroke="black" stroke-width="0.5" points="397,-96.5 243,-96.5 243,-75.5 397,-75.5 397,-96.5"/>
<text text-anchor="middle" x="320" y="-83.5" font-family="Vera" font-size="10.00">topo.tkgui.editor.ModelEditor</text>
</g>
<!-- param.parameterized.Parameterized&#45;&gt;topo.tkgui.editor.ModelEditor -->
<g id="edge18" class="edge"><title>param.parameterized.Parameterized&#45;&gt;topo.tkgui.editor.ModelEditor</title>
<path fill="none" stroke="black" stroke-width="0.5" d="M194.162,-86C208.692,-86 223.553,-86 237.735,-86"/>
<polygon fill="black" stroke="black" points="237.927,-87.7501 242.927,-86 237.927,-84.2501 237.927,-87.7501"/>
</g>
<!-- Tkinter.Canvas -->
<g id="node7" class="node"><title>Tkinter.Canvas</title>
<polygon fill="none" stroke="black" stroke-width="0.5" points="804,-229.5 718,-229.5 718,-208.5 804,-208.5 804,-229.5"/>
<text text-anchor="middle" x="761" y="-216.5" font-family="Vera" font-size="10.00">Tkinter.Canvas</text>
</g>
<!-- topo.tkgui.editor.EditorCanvas -->
<g id="node28" class="node"><title>topo.tkgui.editor.EditorCanvas</title>
<polygon fill="none" stroke="black" stroke-width="0.5" points="1050,-248.5 890,-248.5 890,-227.5 1050,-227.5 1050,-248.5"/>
<text text-anchor="middle" x="970" y="-235.5" font-family="Vera" font-size="10.00">topo.tkgui.editor.EditorCanvas</text>
</g>
<!-- Tkinter.Canvas&#45;&gt;topo.tkgui.editor.EditorCanvas -->
<g id="edge24" class="edge"><title>Tkinter.Canvas&#45;&gt;topo.tkgui.editor.EditorCanvas</title>
<path fill="none" stroke="black" stroke-width="0.5" d="M804.052,-222.914C827.225,-225.02 856.652,-227.696 884.27,-230.206"/>
<polygon fill="black" stroke="black" points="884.266,-231.963 889.404,-230.673 884.583,-228.478 884.266,-231.963"/>
</g>
<!-- Tkinter.Widget -->
<g id="node8" class="node"><title>Tkinter.Widget</title>
<polygon fill="none" stroke="black" stroke-width="0.5" points="583,-191.5 501,-191.5 501,-170.5 583,-170.5 583,-191.5"/>
<text text-anchor="middle" x="542" y="-178.5" font-family="Vera" font-size="10.00">Tkinter.Widget</text>
</g>
<!-- Tkinter.Widget&#45;&gt;Tkinter.Canvas -->
<g id="edge6" class="edge"><title>Tkinter.Widget&#45;&gt;Tkinter.Canvas</title>
<path fill="none" stroke="black" stroke-width="0.5" d="M583.708,-188.237C620.527,-194.626 674.204,-203.94 712.841,-210.644"/>
<polygon fill="black" stroke="black" points="712.726,-212.4 717.951,-211.53 713.324,-208.951 712.726,-212.4"/>
</g>
<!-- Tkinter.Frame -->
<g id="node15" class="node"><title>Tkinter.Frame</title>
<polygon fill="none" stroke="black" stroke-width="0.5" points="801,-172.5 721,-172.5 721,-151.5 801,-151.5 801,-172.5"/>
<text text-anchor="middle" x="761" y="-159.5" font-family="Vera" font-size="10.00">Tkinter.Frame</text>
</g>
<!-- Tkinter.Widget&#45;&gt;Tkinter.Frame -->
<g id="edge14" class="edge"><title>Tkinter.Widget&#45;&gt;Tkinter.Frame</title>
<path fill="none" stroke="black" stroke-width="0.5" d="M583.708,-177.382C621.239,-174.125 676.289,-169.349 715.067,-165.985"/>
<polygon fill="black" stroke="black" points="715.359,-167.716 720.189,-165.541 715.056,-164.229 715.359,-167.716"/>
</g>
<!-- Tkinter.XView -->
<g id="node10" class="node"><title>Tkinter.XView</title>
<polygon fill="none" stroke="black" stroke-width="0.5" points="581,-267.5 503,-267.5 503,-246.5 581,-246.5 581,-267.5"/>
<text text-anchor="middle" x="542" y="-254.5" font-family="Vera" font-size="10.00">Tkinter.XView</text>
</g>
<!-- Tkinter.XView&#45;&gt;Tkinter.Canvas -->
<g id="edge8" class="edge"><title>Tkinter.XView&#45;&gt;Tkinter.Canvas</title>
<path fill="none" stroke="black" stroke-width="0.5" d="M581.659,-250.118C618.464,-243.732 673.336,-234.211 712.685,-227.383"/>
<polygon fill="black" stroke="black" points="713.261,-229.06 717.888,-226.481 712.662,-225.611 713.261,-229.06"/>
</g>
<!-- Tkinter.YView -->
<g id="node12" class="node"><title>Tkinter.YView</title>
<polygon fill="none" stroke="black" stroke-width="0.5" points="581,-229.5 503,-229.5 503,-208.5 581,-208.5 581,-229.5"/>
<text text-anchor="middle" x="542" y="-216.5" font-family="Vera" font-size="10.00">Tkinter.YView</text>
</g>
<!-- Tkinter.YView&#45;&gt;Tkinter.Canvas -->
<g id="edge10" class="edge"><title>Tkinter.YView&#45;&gt;Tkinter.Canvas</title>
<path fill="none" stroke="black" stroke-width="0.5" d="M581.153,-219C617.889,-219 672.945,-219 712.458,-219"/>
<polygon fill="black" stroke="black" points="712.684,-220.75 717.684,-219 712.684,-217.25 712.684,-220.75"/>
</g>
<!-- topo.tkgui.editor.ParametersTool -->
<g id="node14" class="node"><title>topo.tkgui.editor.ParametersTool</title>
<polygon fill="none" stroke="black" stroke-width="0.5" points="1055,-210.5 885,-210.5 885,-189.5 1055,-189.5 1055,-210.5"/>
<text text-anchor="middle" x="970" y="-197.5" font-family="Vera" font-size="10.00">topo.tkgui.editor.ParametersTool</text>
</g>
<!-- Tkinter.Frame&#45;&gt;topo.tkgui.editor.ParametersTool -->
<g id="edge12" class="edge"><title>Tkinter.Frame&#45;&gt;topo.tkgui.editor.ParametersTool</title>
<path fill="none" stroke="black" stroke-width="0.5" d="M801.793,-169.417C832.478,-174.996 875.012,-182.729 909.631,-189.024"/>
<polygon fill="black" stroke="black" points="909.446,-190.769 914.679,-189.942 910.072,-187.325 909.446,-190.769"/>
</g>
<!-- topo.tkgui.editor.ArrowTool -->
<g id="node30" class="node"><title>topo.tkgui.editor.ArrowTool</title>
<polygon fill="none" stroke="black" stroke-width="0.5" points="1041,-172.5 899,-172.5 899,-151.5 1041,-151.5 1041,-172.5"/>
<text text-anchor="middle" x="970" y="-159.5" font-family="Vera" font-size="10.00">topo.tkgui.editor.ArrowTool</text>
</g>
<!-- Tkinter.Frame&#45;&gt;topo.tkgui.editor.ArrowTool -->
<g id="edge26" class="edge"><title>Tkinter.Frame&#45;&gt;topo.tkgui.editor.ArrowTool</title>
<path fill="none" stroke="black" stroke-width="0.5" d="M801.793,-162C827.734,-162 862.145,-162 893.081,-162"/>
<polygon fill="black" stroke="black" points="893.413,-163.75 898.413,-162 893.413,-160.25 893.413,-163.75"/>
</g>
<!-- topo.tkgui.editor.NodeTool -->
<g id="node32" class="node"><title>topo.tkgui.editor.NodeTool</title>
<polygon fill="none" stroke="black" stroke-width="0.5" points="1040,-134.5 900,-134.5 900,-113.5 1040,-113.5 1040,-134.5"/>
<text text-anchor="middle" x="970" y="-121.5" font-family="Vera" font-size="10.00">topo.tkgui.editor.NodeTool</text>
</g>
<!-- Tkinter.Frame&#45;&gt;topo.tkgui.editor.NodeTool -->
<g id="edge28" class="edge"><title>Tkinter.Frame&#45;&gt;topo.tkgui.editor.NodeTool</title>
<path fill="none" stroke="black" stroke-width="0.5" d="M801.793,-154.583C832.478,-149.004 875.012,-141.271 909.631,-134.976"/>
<polygon fill="black" stroke="black" points="910.072,-136.675 914.679,-134.058 909.446,-133.231 910.072,-136.675"/>
</g>
<!-- topo.tkgui.editor.ConnectionTool -->
<g id="node34" class="node"><title>topo.tkgui.editor.ConnectionTool</title>
<polygon fill="none" stroke="black" stroke-width="0.5" points="1055,-96.5 885,-96.5 885,-75.5 1055,-75.5 1055,-96.5"/>
<text text-anchor="middle" x="970" y="-83.5" font-family="Vera" font-size="10.00">topo.tkgui.editor.ConnectionTool</text>
</g>
<!-- Tkinter.Frame&#45;&gt;topo.tkgui.editor.ConnectionTool -->
<g id="edge30" class="edge"><title>Tkinter.Frame&#45;&gt;topo.tkgui.editor.ConnectionTool</title>
<path fill="none" stroke="black" stroke-width="0.5" d="M779.65,-151.8C803.307,-139.231 845.647,-117.953 884,-105 892.556,-102.11 901.742,-99.5427 910.811,-97.3024"/>
<polygon fill="black" stroke="black" points="911.383,-98.9648 915.833,-96.0914 910.562,-95.5623 911.383,-98.9648"/>
</g>
<!-- topo.tkgui.editor.EditorObject -->
<g id="node17" class="node"><title>topo.tkgui.editor.EditorObject</title>
<polygon fill="none" stroke="black" stroke-width="0.5" points="175,-39.5 19,-39.5 19,-18.5 175,-18.5 175,-39.5"/>
<text text-anchor="middle" x="97" y="-26.5" font-family="Vera" font-size="10.00">topo.tkgui.editor.EditorObject</text>
</g>
<!-- topo.tkgui.editor.EditorObject&#45;&gt;topo.tkgui.editor.EditorNode -->
<g id="edge16" class="edge"><title>topo.tkgui.editor.EditorObject&#45;&gt;topo.tkgui.editor.EditorNode</title>
<path fill="none" stroke="black" stroke-width="0.5" d="M175.308,-35.672C195.901,-37.4266 218.157,-39.3228 238.894,-41.0896"/>
<polygon fill="black" stroke="black" points="239.001,-42.855 244.132,-41.5359 239.298,-39.3676 239.001,-42.855"/>
</g>
<!-- topo.tkgui.editor.EditorConnection -->
<g id="node23" class="node"><title>topo.tkgui.editor.EditorConnection</title>
<polygon fill="none" stroke="black" stroke-width="0.5" points="409,-20.5 231,-20.5 231,0.5 409,0.5 409,-20.5"/>
<text text-anchor="middle" x="320" y="-7.5" font-family="Vera" font-size="10.00">topo.tkgui.editor.EditorConnection</text>
</g>
<!-- topo.tkgui.editor.EditorObject&#45;&gt;topo.tkgui.editor.EditorConnection -->
<g id="edge22" class="edge"><title>topo.tkgui.editor.EditorObject&#45;&gt;topo.tkgui.editor.EditorConnection</title>
<path fill="none" stroke="black" stroke-width="0.5" d="M175.308,-22.328C191.458,-20.952 208.63,-19.4889 225.291,-18.0694"/>
<polygon fill="black" stroke="black" points="225.61,-19.7986 230.443,-17.6304 225.313,-16.3113 225.61,-19.7986"/>
</g>
<!-- topo.tkgui.editor.EditorEPConnection -->
<g id="node22" class="node"><title>topo.tkgui.editor.EditorEPConnection</title>
<polygon fill="none" stroke="black" stroke-width="0.5" points="637,-20.5 447,-20.5 447,0.5 637,0.5 637,-20.5"/>
<text text-anchor="middle" x="542" y="-7.5" font-family="Vera" font-size="10.00">topo.tkgui.editor.EditorEPConnection</text>
</g>
<!-- topo.tkgui.editor.EditorProjection -->
<g id="node38" class="node"><title>topo.tkgui.editor.EditorProjection</title>
<polygon fill="none" stroke="black" stroke-width="0.5" points="847,-20.5 675,-20.5 675,0.5 847,0.5 847,-20.5"/>
<text text-anchor="middle" x="761" y="-7.5" font-family="Vera" font-size="10.00">topo.tkgui.editor.EditorProjection</text>
</g>
<!-- topo.tkgui.editor.EditorEPConnection&#45;&gt;topo.tkgui.editor.EditorProjection -->
<g id="edge32" class="edge"><title>topo.tkgui.editor.EditorEPConnection&#45;&gt;topo.tkgui.editor.EditorProjection</title>
<path fill="none" stroke="black" stroke-width="0.5" d="M637.738,-10C648.223,-10 658.878,-10 669.312,-10"/>
<polygon fill="black" stroke="black" points="669.415,-11.7501 674.415,-10 669.415,-8.2501 669.415,-11.7501"/>
</g>
<!-- topo.tkgui.editor.EditorConnection&#45;&gt;topo.tkgui.editor.EditorEPConnection -->
<g id="edge20" class="edge"><title>topo.tkgui.editor.EditorConnection&#45;&gt;topo.tkgui.editor.EditorEPConnection</title>
<path fill="none" stroke="black" stroke-width="0.5" d="M409.656,-10C419.998,-10 430.596,-10 441.074,-10"/>
<polygon fill="black" stroke="black" points="441.206,-11.7501 446.206,-10 441.206,-8.2501 441.206,-11.7501"/>
</g>
<!-- Tkinter.Misc -->
<g id="node25" class="node"><title>Tkinter.Misc</title>
<polygon fill="none" stroke="black" stroke-width="0.5" points="133,-134.5 61,-134.5 61,-113.5 133,-113.5 133,-134.5"/>
<text text-anchor="middle" x="97" y="-121.5" font-family="Vera" font-size="10.00">Tkinter.Misc</text>
</g>
<!-- Tkinter.BaseWidget -->
<g id="node40" class="node"><title>Tkinter.BaseWidget</title>
<polygon fill="none" stroke="black" stroke-width="0.5" points="373,-134.5 267,-134.5 267,-113.5 373,-113.5 373,-134.5"/>
<text text-anchor="middle" x="320" y="-121.5" font-family="Vera" font-size="10.00">Tkinter.BaseWidget</text>
</g>
<!-- Tkinter.Misc&#45;&gt;Tkinter.BaseWidget -->
<g id="edge34" class="edge"><title>Tkinter.Misc&#45;&gt;Tkinter.BaseWidget</title>
<path fill="none" stroke="black" stroke-width="0.5" d="M133.325,-124C167.814,-124 220.266,-124 260.798,-124"/>
<polygon fill="black" stroke="black" points="261.182,-125.75 266.182,-124 261.182,-122.25 261.182,-125.75"/>
</g>
<!-- Tkinter.Pack -->
<g id="node27" class="node"><title>Tkinter.Pack</title>
<polygon fill="none" stroke="black" stroke-width="0.5" points="356,-248.5 284,-248.5 284,-227.5 356,-227.5 356,-248.5"/>
<text text-anchor="middle" x="320" y="-235.5" font-family="Vera" font-size="10.00">Tkinter.Pack</text>
</g>
<!-- Tkinter.Pack&#45;&gt;Tkinter.Widget -->
<g id="edge38" class="edge"><title>Tkinter.Pack&#45;&gt;Tkinter.Widget</title>
<path fill="none" stroke="black" stroke-width="0.5" d="M356.55,-232.66C373.159,-229.633 392.879,-225.188 410,-219 427.014,-212.85 428.947,-206.042 446,-200 461.539,-194.494 479.09,-190.433 494.896,-187.511"/>
<polygon fill="black" stroke="black" points="495.571,-189.168 500.184,-186.564 494.953,-185.723 495.571,-189.168"/>
</g>
<!-- Tkinter.Place -->
<g id="node36" class="node"><title>Tkinter.Place</title>
<polygon fill="none" stroke="black" stroke-width="0.5" points="358,-210.5 282,-210.5 282,-189.5 358,-189.5 358,-210.5"/>
<text text-anchor="middle" x="320" y="-197.5" font-family="Vera" font-size="10.00">Tkinter.Place</text>
</g>
<!-- Tkinter.Place&#45;&gt;Tkinter.Widget -->
<g id="edge40" class="edge"><title>Tkinter.Place&#45;&gt;Tkinter.Widget</title>
<path fill="none" stroke="black" stroke-width="0.5" d="M358.669,-196.69C396.595,-193.445 454.475,-188.491 495.028,-185.02"/>
<polygon fill="black" stroke="black" points="495.549,-186.732 500.382,-184.562 495.251,-183.245 495.549,-186.732"/>
</g>
<!-- Tkinter.Grid -->
<g id="node37" class="node"><title>Tkinter.Grid</title>
<polygon fill="none" stroke="black" stroke-width="0.5" points="355,-172.5 285,-172.5 285,-151.5 355,-151.5 355,-172.5"/>
<text text-anchor="middle" x="320" y="-159.5" font-family="Vera" font-size="10.00">Tkinter.Grid</text>
</g>
<!-- Tkinter.Grid&#45;&gt;Tkinter.Widget -->
<g id="edge42" class="edge"><title>Tkinter.Grid&#45;&gt;Tkinter.Widget</title>
<path fill="none" stroke="black" stroke-width="0.5" d="M355.668,-165.053C393.593,-168.299 453.732,-173.446 495.385,-177.01"/>
<polygon fill="black" stroke="black" points="495.239,-178.754 500.37,-177.437 495.537,-175.267 495.239,-178.754"/>
</g>
<!-- Tkinter.BaseWidget&#45;&gt;Tkinter.Widget -->
<g id="edge36" class="edge"><title>Tkinter.BaseWidget&#45;&gt;Tkinter.Widget</title>
<path fill="none" stroke="black" stroke-width="0.5" d="M370.603,-134.013C383.493,-136.747 397.294,-139.834 410,-143 442.24,-151.033 478.487,-161.578 504.829,-169.521"/>
<polygon fill="black" stroke="black" points="504.336,-171.2 509.629,-170.973 505.349,-167.85 504.336,-171.2"/>
</g>
</g>
</svg>
