<?xml version="1.0" encoding="UTF-8" standalone="no"?>
<!DOCTYPE svg PUBLIC "-//W3C//DTD SVG 1.1//EN"
 "http://www.w3.org/Graphics/SVG/1.1/DTD/svg11.dtd">
<!-- Generated by graphviz version 2.26.3 (20100126.1600)
 -->
<!-- Title: inheritance95afd34832 Pages: 1 -->
<svg width="1474pt" height="588pt"
 viewBox="0.00 0.00 1474.00 588.00" xmlns="http://www.w3.org/2000/svg" xmlns:xlink="http://www.w3.org/1999/xlink">
<g id="graph1" class="graph" transform="scale(1 1) rotate(0) translate(4 584)">
<title>inheritance95afd34832</title>
<polygon fill="white" stroke="white" points="-4,5 -4,-584 1471,-584 1471,5 -4,5"/>
<!-- paramtk.ScrolledFrame -->
<g id="node1" class="node"><title>paramtk.ScrolledFrame</title>
<polygon fill="none" stroke="black" stroke-width="0.5" points="967,-210.5 839,-210.5 839,-189.5 967,-189.5 967,-210.5"/>
<text text-anchor="middle" x="903" y="-197.5" font-family="Vera" font-size="10.00">paramtk.ScrolledFrame</text>
</g>
<!-- Tkinter.Frame -->
<g id="node2" class="node"><title>Tkinter.Frame</title>
<polygon fill="none" stroke="black" stroke-width="0.5" points="757,-210.5 677,-210.5 677,-189.5 757,-189.5 757,-210.5"/>
<text text-anchor="middle" x="717" y="-197.5" font-family="Vera" font-size="10.00">Tkinter.Frame</text>
</g>
<!-- Tkinter.Frame&#45;&gt;paramtk.ScrolledFrame -->
<g id="edge2" class="edge"><title>Tkinter.Frame&#45;&gt;paramtk.ScrolledFrame</title>
<path fill="none" stroke="black" stroke-width="0.5" d="M757.818,-200C780.075,-200 808.227,-200 833.803,-200"/>
<polygon fill="black" stroke="black" points="833.882,-201.75 838.882,-200 833.882,-198.25 833.882,-201.75"/>
</g>
<!-- paramtk.TaggedSlider -->
<g id="node30" class="node"><title>paramtk.TaggedSlider</title>
<polygon fill="none" stroke="black" stroke-width="0.5" points="963,-172.5 843,-172.5 843,-151.5 963,-151.5 963,-172.5"/>
<text text-anchor="middle" x="903" y="-159.5" font-family="Vera" font-size="10.00">paramtk.TaggedSlider</text>
</g>
<!-- Tkinter.Frame&#45;&gt;paramtk.TaggedSlider -->
<g id="edge24" class="edge"><title>Tkinter.Frame&#45;&gt;paramtk.TaggedSlider</title>
<path fill="none" stroke="black" stroke-width="0.5" d="M757.818,-191.661C784.607,-186.188 819.937,-178.97 849.036,-173.025"/>
<polygon fill="black" stroke="black" points="849.473,-174.722 854.021,-172.006 848.772,-171.293 849.473,-174.722"/>
</g>
<!-- paramtk.ProgressWindow -->
<g id="node32" class="node"><title>paramtk.ProgressWindow</title>
<polygon fill="none" stroke="black" stroke-width="0.5" points="971,-362.5 835,-362.5 835,-341.5 971,-341.5 971,-362.5"/>
<text text-anchor="middle" x="903" y="-349.5" font-family="Vera" font-size="10.00">paramtk.ProgressWindow</text>
</g>
<!-- Tkinter.Frame&#45;&gt;paramtk.ProgressWindow -->
<g id="edge28" class="edge"><title>Tkinter.Frame&#45;&gt;paramtk.ProgressWindow</title>
<path fill="none" stroke="black" stroke-width="0.5" d="M757.669,-202.7C769.999,-205.367 782.72,-210.241 792,-219 830.64,-255.47 789.36,-296.53 828,-333 830.5,-335.36 833.25,-337.437 836.175,-339.266"/>
<polygon fill="black" stroke="black" points="835.69,-341.002 840.903,-341.939 837.412,-337.955 835.69,-341.002"/>
</g>
<!-- paramtk.ParametersFrame -->
<g id="node52" class="node"><title>paramtk.ParametersFrame</title>
<polygon fill="none" stroke="black" stroke-width="0.5" points="976,-400.5 830,-400.5 830,-379.5 976,-379.5 976,-400.5"/>
<text text-anchor="middle" x="903" y="-387.5" font-family="Vera" font-size="10.00">paramtk.ParametersFrame</text>
</g>
<!-- Tkinter.Frame&#45;&gt;paramtk.ParametersFrame -->
<g id="edge44" class="edge"><title>Tkinter.Frame&#45;&gt;paramtk.ParametersFrame</title>
<path fill="none" stroke="black" stroke-width="0.5" d="M757.668,-202.22C770.145,-204.842 782.953,-209.811 792,-219 840.707,-268.471 779.293,-321.529 828,-371 830.288,-373.324 832.817,-375.378 835.52,-377.193"/>
<polygon fill="black" stroke="black" points="834.72,-378.754 839.902,-379.851 836.535,-375.762 834.72,-378.754"/>
</g>
<!-- paramtk.StatusBar -->
<g id="node57" class="node"><title>paramtk.StatusBar</title>
<polygon fill="none" stroke="black" stroke-width="0.5" points="957,-134.5 849,-134.5 849,-113.5 957,-113.5 957,-134.5"/>
<text text-anchor="middle" x="903" y="-121.5" font-family="Vera" font-size="10.00">paramtk.StatusBar</text>
</g>
<!-- Tkinter.Frame&#45;&gt;paramtk.StatusBar -->
<g id="edge46" class="edge"><title>Tkinter.Frame&#45;&gt;paramtk.StatusBar</title>
<path fill="none" stroke="black" stroke-width="0.5" d="M757.846,-192.606C769.382,-189.465 781.612,-185.075 792,-179 811.532,-167.577 808.327,-154.179 828,-143 833.018,-140.148 838.464,-137.719 844.054,-135.65"/>
<polygon fill="black" stroke="black" points="844.637,-137.3 848.777,-133.996 843.479,-133.997 844.637,-137.3"/>
</g>
<!-- paramtk.ListWidget -->
<g id="node69" class="node"><title>paramtk.ListWidget</title>
<polygon fill="none" stroke="black" stroke-width="0.5" points="957,-324.5 849,-324.5 849,-303.5 957,-303.5 957,-324.5"/>
<text text-anchor="middle" x="903" y="-311.5" font-family="Vera" font-size="10.00">paramtk.ListWidget</text>
</g>
<!-- Tkinter.Frame&#45;&gt;paramtk.ListWidget -->
<g id="edge62" class="edge"><title>Tkinter.Frame&#45;&gt;paramtk.ListWidget</title>
<path fill="none" stroke="black" stroke-width="0.5" d="M757.763,-203.649C769.816,-206.388 782.352,-211.065 792,-219 820.867,-242.741 799.133,-271.259 828,-295 832.62,-298.799 837.902,-301.852 843.476,-304.303"/>
<polygon fill="black" stroke="black" points="842.927,-305.968 848.218,-306.223 844.241,-302.724 842.927,-305.968"/>
</g>
<!-- paramtk.ListItemCtrlWidget -->
<g id="node74" class="node"><title>paramtk.ListItemCtrlWidget</title>
<polygon fill="none" stroke="black" stroke-width="0.5" points="976,-286.5 830,-286.5 830,-265.5 976,-265.5 976,-286.5"/>
<text text-anchor="middle" x="903" y="-273.5" font-family="Vera" font-size="10.00">paramtk.ListItemCtrlWidget</text>
</g>
<!-- Tkinter.Frame&#45;&gt;paramtk.ListItemCtrlWidget -->
<g id="edge68" class="edge"><title>Tkinter.Frame&#45;&gt;paramtk.ListItemCtrlWidget</title>
<path fill="none" stroke="black" stroke-width="0.5" d="M757.554,-205.894C769.205,-208.722 781.571,-212.886 792,-219 812.07,-230.766 807.93,-245.234 828,-257 832.702,-259.757 837.798,-262.117 843.044,-264.137"/>
<polygon fill="black" stroke="black" points="842.601,-265.838 847.898,-265.898 843.795,-262.547 842.601,-265.838"/>
</g>
<!-- paramtk.HackFileEntry -->
<g id="node80" class="node"><title>paramtk.HackFileEntry</title>
<polygon fill="none" stroke="black" stroke-width="0.5" points="965,-248.5 841,-248.5 841,-227.5 965,-227.5 965,-248.5"/>
<text text-anchor="middle" x="903" y="-235.5" font-family="Vera" font-size="10.00">paramtk.HackFileEntry</text>
</g>
<!-- Tkinter.Frame&#45;&gt;paramtk.HackFileEntry -->
<g id="edge76" class="edge"><title>Tkinter.Frame&#45;&gt;paramtk.HackFileEntry</title>
<path fill="none" stroke="black" stroke-width="0.5" d="M757.818,-208.339C784.607,-213.812 819.937,-221.03 849.036,-226.975"/>
<polygon fill="black" stroke="black" points="848.772,-228.707 854.021,-227.994 849.473,-225.278 848.772,-228.707"/>
</g>
<!-- paramtk.ListRepresenter -->
<g id="node4" class="node"><title>paramtk.ListRepresenter</title>
<polygon fill="none" stroke="black" stroke-width="0.5" points="784,-324.5 650,-324.5 650,-303.5 784,-303.5 784,-324.5"/>
<text text-anchor="middle" x="717" y="-311.5" font-family="Vera" font-size="10.00">paramtk.ListRepresenter</text>
</g>
<!-- paramtk.Representer -->
<g id="node5" class="node"><title>paramtk.Representer</title>
<polygon fill="none" stroke="black" stroke-width="0.5" points="583,-333.5 465,-333.5 465,-312.5 583,-312.5 583,-333.5"/>
<text text-anchor="middle" x="524" y="-320.5" font-family="Vera" font-size="10.00">paramtk.Representer</text>
</g>
<!-- paramtk.Representer&#45;&gt;paramtk.ListRepresenter -->
<g id="edge4" class="edge"><title>paramtk.Representer&#45;&gt;paramtk.ListRepresenter</title>
<path fill="none" stroke="black" stroke-width="0.5" d="M583.218,-320.239C602.627,-319.333 624.413,-318.318 644.678,-317.373"/>
<polygon fill="black" stroke="black" points="644.882,-319.115 649.795,-317.134 644.719,-315.619 644.882,-319.115"/>
</g>
<!-- param.parameterized.Parameter -->
<g id="node7" class="node"><title>param.parameterized.Parameter</title>
<polygon fill="none" stroke="black" stroke-width="0.5" points="175,-428.5 1,-428.5 1,-407.5 175,-407.5 175,-428.5"/>
<text text-anchor="middle" x="88" y="-415.5" font-family="Vera" font-size="10.00">param.parameterized.Parameter</text>
</g>
<!-- param.Callable -->
<g id="node27" class="node"><title>param.Callable</title>
<polygon fill="none" stroke="black" stroke-width="0.5" points="353,-428.5 265,-428.5 265,-407.5 353,-407.5 353,-428.5"/>
<text text-anchor="middle" x="309" y="-415.5" font-family="Vera" font-size="10.00">param.Callable</text>
</g>
<!-- param.parameterized.Parameter&#45;&gt;param.Callable -->
<g id="edge20" class="edge"><title>param.parameterized.Parameter&#45;&gt;param.Callable</title>
<path fill="none" stroke="black" stroke-width="0.5" d="M175.662,-418C204.015,-418 234.464,-418 259.097,-418"/>
<polygon fill="black" stroke="black" points="259.263,-419.75 264.263,-418 259.263,-416.25 259.263,-419.75"/>
</g>
<!-- paramtk.ToolTip -->
<g id="node8" class="node"><title>paramtk.ToolTip</title>
<polygon fill="none" stroke="black" stroke-width="0.5" points="763,-80.5 671,-80.5 671,-59.5 763,-59.5 763,-80.5"/>
<text text-anchor="middle" x="717" y="-67.5" font-family="Vera" font-size="10.00">paramtk.ToolTip</text>
</g>
<!-- Tkinter.Toplevel -->
<g id="node9" class="node"><title>Tkinter.Toplevel</title>
<polygon fill="none" stroke="black" stroke-width="0.5" points="568,-80.5 480,-80.5 480,-59.5 568,-59.5 568,-80.5"/>
<text text-anchor="middle" x="524" y="-67.5" font-family="Vera" font-size="10.00">Tkinter.Toplevel</text>
</g>
<!-- Tkinter.Toplevel&#45;&gt;paramtk.ToolTip -->
<g id="edge6" class="edge"><title>Tkinter.Toplevel&#45;&gt;paramtk.ToolTip</title>
<path fill="none" stroke="black" stroke-width="0.5" d="M568.763,-70C597.711,-70 635.478,-70 665.646,-70"/>
<polygon fill="black" stroke="black" points="665.802,-71.7501 670.802,-70 665.802,-68.2501 665.802,-71.7501"/>
</g>
<!-- paramtk.ScrolledWindow -->
<g id="node48" class="node"><title>paramtk.ScrolledWindow</title>
<polygon fill="none" stroke="black" stroke-width="0.5" points="784,-23.5 650,-23.5 650,-2.5 784,-2.5 784,-23.5"/>
<text text-anchor="middle" x="717" y="-10.5" font-family="Vera" font-size="10.00">paramtk.ScrolledWindow</text>
</g>
<!-- Tkinter.Toplevel&#45;&gt;paramtk.ScrolledWindow -->
<g id="edge38" class="edge"><title>Tkinter.Toplevel&#45;&gt;paramtk.ScrolledWindow</title>
<path fill="none" stroke="black" stroke-width="0.5" d="M558.06,-59.9408C591.582,-50.0406 642.72,-34.9377 677.887,-24.5514"/>
<polygon fill="black" stroke="black" points="678.657,-26.149 682.956,-23.0544 677.665,-22.7923 678.657,-26.149"/>
</g>
<!-- Tkinter.Misc -->
<g id="node11" class="node"><title>Tkinter.Misc</title>
<polygon fill="none" stroke="black" stroke-width="0.5" points="124,-122.5 52,-122.5 52,-101.5 124,-101.5 124,-122.5"/>
<text text-anchor="middle" x="88" y="-109.5" font-family="Vera" font-size="10.00">Tkinter.Misc</text>
</g>
<!-- Tkinter.BaseWidget -->
<g id="node60" class="node"><title>Tkinter.BaseWidget</title>
<polygon fill="none" stroke="black" stroke-width="0.5" points="362,-122.5 256,-122.5 256,-101.5 362,-101.5 362,-122.5"/>
<text text-anchor="middle" x="309" y="-109.5" font-family="Vera" font-size="10.00">Tkinter.BaseWidget</text>
</g>
<!-- Tkinter.Misc&#45;&gt;Tkinter.BaseWidget -->
<g id="edge48" class="edge"><title>Tkinter.Misc&#45;&gt;Tkinter.BaseWidget</title>
<path fill="none" stroke="black" stroke-width="0.5" d="M124.494,-112C158.637,-112 210.226,-112 250.18,-112"/>
<polygon fill="black" stroke="black" points="250.489,-113.75 255.489,-112 250.489,-110.25 250.489,-113.75"/>
</g>
<!-- Tkinter.Menu -->
<g id="node12" class="node"><title>Tkinter.Menu</title>
<polygon fill="none" stroke="black" stroke-width="0.5" points="755,-170.5 679,-170.5 679,-149.5 755,-149.5 755,-170.5"/>
<text text-anchor="middle" x="717" y="-157.5" font-family="Vera" font-size="10.00">Tkinter.Menu</text>
</g>
<!-- paramtk.Menu -->
<g id="node25" class="node"><title>paramtk.Menu</title>
<polygon fill="none" stroke="black" stroke-width="0.5" points="946,-96.5 860,-96.5 860,-75.5 946,-75.5 946,-96.5"/>
<text text-anchor="middle" x="903" y="-83.5" font-family="Vera" font-size="10.00">paramtk.Menu</text>
</g>
<!-- Tkinter.Menu&#45;&gt;paramtk.Menu -->
<g id="edge18" class="edge"><title>Tkinter.Menu&#45;&gt;paramtk.Menu</title>
<path fill="none" stroke="black" stroke-width="0.5" d="M755.618,-150.872C767.696,-147.18 780.786,-142.277 792,-136 810.425,-125.687 809.267,-114.741 828,-105 836.245,-100.713 845.512,-97.3548 854.646,-94.7373"/>
<polygon fill="black" stroke="black" points="855.336,-96.3629 859.699,-93.3581 854.415,-92.9864 855.336,-96.3629"/>
</g>
<!-- Tkinter.Widget -->
<g id="node13" class="node"><title>Tkinter.Widget</title>
<polygon fill="none" stroke="black" stroke-width="0.5" points="565,-202.5 483,-202.5 483,-181.5 565,-181.5 565,-202.5"/>
<text text-anchor="middle" x="524" y="-189.5" font-family="Vera" font-size="10.00">Tkinter.Widget</text>
</g>
<!-- Tkinter.Widget&#45;&gt;Tkinter.Frame -->
<g id="edge84" class="edge"><title>Tkinter.Widget&#45;&gt;Tkinter.Frame</title>
<path fill="none" stroke="black" stroke-width="0.5" d="M565.878,-193.736C596.922,-195.023 639.212,-196.776 671.161,-198.1"/>
<polygon fill="black" stroke="black" points="671.129,-199.85 676.197,-198.309 671.274,-196.353 671.129,-199.85"/>
</g>
<!-- Tkinter.Widget&#45;&gt;Tkinter.Menu -->
<g id="edge8" class="edge"><title>Tkinter.Widget&#45;&gt;Tkinter.Menu</title>
<path fill="none" stroke="black" stroke-width="0.5" d="M565.878,-185.056C597.659,-179.787 641.226,-172.564 673.418,-167.226"/>
<polygon fill="black" stroke="black" points="673.837,-168.931 678.483,-166.386 673.264,-165.478 673.837,-168.931"/>
</g>
<!-- paramtk.Balloon -->
<g id="node19" class="node"><title>paramtk.Balloon</title>
<polygon fill="none" stroke="black" stroke-width="0.5" points="764,-248.5 670,-248.5 670,-227.5 764,-227.5 764,-248.5"/>
<text text-anchor="middle" x="717" y="-235.5" font-family="Vera" font-size="10.00">paramtk.Balloon</text>
</g>
<!-- Tkinter.Widget&#45;&gt;paramtk.Balloon -->
<g id="edge12" class="edge"><title>Tkinter.Widget&#45;&gt;paramtk.Balloon</title>
<path fill="none" stroke="black" stroke-width="0.5" d="M565.878,-201.981C596.502,-209.28 638.068,-219.187 669.856,-226.764"/>
<polygon fill="black" stroke="black" points="669.601,-228.502 674.871,-227.959 670.413,-225.097 669.601,-228.502"/>
</g>
<!-- paramtk.Scrodget -->
<g id="node21" class="node"><title>paramtk.Scrodget</title>
<polygon fill="none" stroke="black" stroke-width="0.5" points="769,-286.5 665,-286.5 665,-265.5 769,-265.5 769,-286.5"/>
<text text-anchor="middle" x="717" y="-273.5" font-family="Vera" font-size="10.00">paramtk.Scrodget</text>
</g>
<!-- Tkinter.Widget&#45;&gt;paramtk.Scrodget -->
<g id="edge16" class="edge"><title>Tkinter.Widget&#45;&gt;paramtk.Scrodget</title>
<path fill="none" stroke="black" stroke-width="0.5" d="M539.403,-202.17C561.353,-216.264 603.274,-241.72 642,-257 649.106,-259.804 656.757,-262.3 664.359,-264.486"/>
<polygon fill="black" stroke="black" points="664.321,-266.292 669.608,-265.95 665.262,-262.921 664.321,-266.292"/>
</g>
<!-- Tkinter.Button -->
<g id="node40" class="node"><title>Tkinter.Button</title>
<polygon fill="none" stroke="black" stroke-width="0.5" points="758,-127.5 676,-127.5 676,-106.5 758,-106.5 758,-127.5"/>
<text text-anchor="middle" x="717" y="-114.5" font-family="Vera" font-size="10.00">Tkinter.Button</text>
</g>
<!-- Tkinter.Widget&#45;&gt;Tkinter.Button -->
<g id="edge72" class="edge"><title>Tkinter.Widget&#45;&gt;Tkinter.Button</title>
<path fill="none" stroke="black" stroke-width="0.5" d="M545.488,-181.954C568.941,-171.169 607.73,-153.853 642,-141 653.648,-136.631 666.492,-132.336 678.21,-128.613"/>
<polygon fill="black" stroke="black" points="678.913,-130.227 683.156,-127.055 677.861,-126.888 678.913,-130.227"/>
</g>
<!-- paramtk.BoolTranslator -->
<g id="node15" class="node"><title>paramtk.BoolTranslator</title>
<polygon fill="none" stroke="black" stroke-width="0.5" points="588,-580.5 460,-580.5 460,-559.5 588,-559.5 588,-580.5"/>
<text text-anchor="middle" x="524" y="-567.5" font-family="Vera" font-size="10.00">paramtk.BoolTranslator</text>
</g>
<!-- paramtk.DoNothingTranslator -->
<g id="node16" class="node"><title>paramtk.DoNothingTranslator</title>
<polygon fill="none" stroke="black" stroke-width="0.5" points="388,-580.5 230,-580.5 230,-559.5 388,-559.5 388,-580.5"/>
<text text-anchor="middle" x="309" y="-567.5" font-family="Vera" font-size="10.00">paramtk.DoNothingTranslator</text>
</g>
<!-- paramtk.DoNothingTranslator&#45;&gt;paramtk.BoolTranslator -->
<g id="edge10" class="edge"><title>paramtk.DoNothingTranslator&#45;&gt;paramtk.BoolTranslator</title>
<path fill="none" stroke="black" stroke-width="0.5" d="M388.142,-570C409.979,-570 433.497,-570 454.728,-570"/>
<polygon fill="black" stroke="black" points="454.788,-571.75 459.788,-570 454.788,-568.25 454.788,-571.75"/>
</g>
<!-- param.parameterized.Parameterized -->
<g id="node18" class="node"><title>param.parameterized.Parameterized</title>
<polygon fill="none" stroke="black" stroke-width="0.5" points="406,-362.5 212,-362.5 212,-341.5 406,-341.5 406,-362.5"/>
<text text-anchor="middle" x="309" y="-349.5" font-family="Vera" font-size="10.00">param.parameterized.Parameterized</text>
</g>
<!-- param.parameterized.Parameterized&#45;&gt;paramtk.Representer -->
<g id="edge22" class="edge"><title>param.parameterized.Parameterized&#45;&gt;paramtk.Representer</title>
<path fill="none" stroke="black" stroke-width="0.5" d="M383.292,-341.979C408.221,-338.617 435.793,-334.898 459.876,-331.649"/>
<polygon fill="black" stroke="black" points="460.238,-333.366 464.959,-330.964 459.77,-329.898 460.238,-333.366"/>
</g>
<!-- paramtk.TkParameterizedBase -->
<g id="node37" class="node"><title>paramtk.TkParameterizedBase</title>
<polygon fill="none" stroke="black" stroke-width="0.5" points="606,-390.5 442,-390.5 442,-369.5 606,-369.5 606,-390.5"/>
<text text-anchor="middle" x="524" y="-377.5" font-family="Vera" font-size="10.00">paramtk.TkParameterizedBase</text>
</g>
<!-- param.parameterized.Parameterized&#45;&gt;paramtk.TkParameterizedBase -->
<g id="edge82" class="edge"><title>param.parameterized.Parameterized&#45;&gt;paramtk.TkParameterizedBase</title>
<path fill="none" stroke="black" stroke-width="0.5" d="M386.013,-362.03C404.185,-364.396 423.625,-366.928 442.009,-369.322"/>
<polygon fill="black" stroke="black" points="441.98,-371.083 447.164,-369.993 442.432,-367.612 441.98,-371.083"/>
</g>
<!-- paramtk.ScrodgetWidget -->
<g id="node22" class="node"><title>paramtk.ScrodgetWidget</title>
<polygon fill="none" stroke="black" stroke-width="0.5" points="592,-286.5 456,-286.5 456,-265.5 592,-265.5 592,-286.5"/>
<text text-anchor="middle" x="524" y="-273.5" font-family="Vera" font-size="10.00">paramtk.ScrodgetWidget</text>
</g>
<!-- paramtk.ScrodgetWidget&#45;&gt;paramtk.Scrodget -->
<g id="edge14" class="edge"><title>paramtk.ScrodgetWidget&#45;&gt;paramtk.Scrodget</title>
<path fill="none" stroke="black" stroke-width="0.5" d="M592.045,-276C614.148,-276 638.44,-276 659.681,-276"/>
<polygon fill="black" stroke="black" points="659.728,-277.75 664.728,-276 659.728,-274.25 659.728,-277.75"/>
</g>
<!-- paramtk.Button -->
<g id="node42" class="node"><title>paramtk.Button</title>
<polygon fill="none" stroke="black" stroke-width="0.5" points="570,-428.5 478,-428.5 478,-407.5 570,-407.5 570,-428.5"/>
<text text-anchor="middle" x="524" y="-415.5" font-family="Vera" font-size="10.00">paramtk.Button</text>
</g>
<!-- param.Callable&#45;&gt;paramtk.Button -->
<g id="edge34" class="edge"><title>param.Callable&#45;&gt;paramtk.Button</title>
<path fill="none" stroke="black" stroke-width="0.5" d="M353.548,-418C388.132,-418 436.136,-418 472.391,-418"/>
<polygon fill="black" stroke="black" points="472.652,-419.75 477.652,-418 472.652,-416.25 472.652,-419.75"/>
</g>
<!-- paramtk.ProgressController -->
<g id="node33" class="node"><title>paramtk.ProgressController</title>
<polygon fill="none" stroke="black" stroke-width="0.5" points="791,-362.5 643,-362.5 643,-341.5 791,-341.5 791,-362.5"/>
<text text-anchor="middle" x="717" y="-349.5" font-family="Vera" font-size="10.00">paramtk.ProgressController</text>
</g>
<!-- paramtk.ProgressController&#45;&gt;paramtk.ProgressWindow -->
<g id="edge26" class="edge"><title>paramtk.ProgressController&#45;&gt;paramtk.ProgressWindow</title>
<path fill="none" stroke="black" stroke-width="0.5" d="M791.582,-352C803.962,-352 816.797,-352 829.159,-352"/>
<polygon fill="black" stroke="black" points="829.426,-353.75 834.426,-352 829.426,-350.25 829.426,-353.75"/>
</g>
<!-- paramtk.TkParameterized -->
<g id="node36" class="node"><title>paramtk.TkParameterized</title>
<polygon fill="none" stroke="black" stroke-width="0.5" points="787,-400.5 647,-400.5 647,-379.5 787,-379.5 787,-400.5"/>
<text text-anchor="middle" x="717" y="-387.5" font-family="Vera" font-size="10.00">paramtk.TkParameterized</text>
</g>
<!-- paramtk.TkParameterized&#45;&gt;paramtk.ParametersFrame -->
<g id="edge42" class="edge"><title>paramtk.TkParameterized&#45;&gt;paramtk.ParametersFrame</title>
<path fill="none" stroke="black" stroke-width="0.5" d="M787.054,-390C799.308,-390 812.13,-390 824.593,-390"/>
<polygon fill="black" stroke="black" points="824.909,-391.75 829.909,-390 824.909,-388.25 824.909,-391.75"/>
</g>
<!-- paramtk.TkParameterizedBase&#45;&gt;paramtk.TkParameterized -->
<g id="edge30" class="edge"><title>paramtk.TkParameterizedBase&#45;&gt;paramtk.TkParameterized</title>
<path fill="none" stroke="black" stroke-width="0.5" d="M606.129,-384.255C617.873,-384.864 629.908,-385.487 641.516,-386.089"/>
<polygon fill="black" stroke="black" points="641.733,-387.852 646.817,-386.364 641.914,-384.357 641.733,-387.852"/>
</g>
<!-- paramtk.FocusTakingButton -->
<g id="node39" class="node"><title>paramtk.FocusTakingButton</title>
<polygon fill="none" stroke="black" stroke-width="0.5" points="977,-58.5 829,-58.5 829,-37.5 977,-37.5 977,-58.5"/>
<text text-anchor="middle" x="903" y="-45.5" font-family="Vera" font-size="10.00">paramtk.FocusTakingButton</text>
</g>
<!-- Tkinter.Button&#45;&gt;paramtk.FocusTakingButton -->
<g id="edge32" class="edge"><title>Tkinter.Button&#45;&gt;paramtk.FocusTakingButton</title>
<path fill="none" stroke="black" stroke-width="0.5" d="M747.842,-106.984C761.61,-102.134 777.878,-95.8727 792,-89 808.86,-80.7945 810.717,-74.2732 828,-67 834.74,-64.1638 842.004,-61.6746 849.266,-59.5132"/>
<polygon fill="black" stroke="black" points="849.965,-61.1331 854.286,-58.0689 848.998,-57.7695 849.965,-61.1331"/>
</g>
<!-- paramtk.CSPTranslator -->
<g id="node44" class="node"><title>paramtk.CSPTranslator</title>
<polygon fill="none" stroke="black" stroke-width="0.5" points="587,-542.5 461,-542.5 461,-521.5 587,-521.5 587,-542.5"/>
<text text-anchor="middle" x="524" y="-529.5" font-family="Vera" font-size="10.00">paramtk.CSPTranslator</text>
</g>
<!-- paramtk.String_ObjectTranslator -->
<g id="node45" class="node"><title>paramtk.String_ObjectTranslator</title>
<polygon fill="none" stroke="black" stroke-width="0.5" points="394,-542.5 224,-542.5 224,-521.5 394,-521.5 394,-542.5"/>
<text text-anchor="middle" x="309" y="-529.5" font-family="Vera" font-size="10.00">paramtk.String_ObjectTranslator</text>
</g>
<!-- paramtk.String_ObjectTranslator&#45;&gt;paramtk.CSPTranslator -->
<g id="edge36" class="edge"><title>paramtk.String_ObjectTranslator&#45;&gt;paramtk.CSPTranslator</title>
<path fill="none" stroke="black" stroke-width="0.5" d="M394.591,-532C414.822,-532 436.133,-532 455.493,-532"/>
<polygon fill="black" stroke="black" points="455.899,-533.75 460.899,-532 455.899,-530.25 455.899,-533.75"/>
</g>
<!-- Tkinter.Pack -->
<g id="node47" class="node"><title>Tkinter.Pack</title>
<polygon fill="none" stroke="black" stroke-width="0.5" points="345,-240.5 273,-240.5 273,-219.5 345,-219.5 345,-240.5"/>
<text text-anchor="middle" x="309" y="-227.5" font-family="Vera" font-size="10.00">Tkinter.Pack</text>
</g>
<!-- Tkinter.Pack&#45;&gt;Tkinter.Widget -->
<g id="edge56" class="edge"><title>Tkinter.Pack&#45;&gt;Tkinter.Widget</title>
<path fill="none" stroke="black" stroke-width="0.5" d="M345.96,-223.468C382.269,-217.05 437.801,-207.235 477.179,-200.275"/>
<polygon fill="black" stroke="black" points="477.764,-201.949 482.383,-199.356 477.154,-198.503 477.764,-201.949"/>
</g>
<!-- paramtk.AppWindow -->
<g id="node63" class="node"><title>paramtk.AppWindow</title>
<polygon fill="none" stroke="black" stroke-width="0.5" points="960,-20.5 846,-20.5 846,0.5 960,0.5 960,-20.5"/>
<text text-anchor="middle" x="903" y="-7.5" font-family="Vera" font-size="10.00">paramtk.AppWindow</text>
</g>
<!-- paramtk.ScrolledWindow&#45;&gt;paramtk.AppWindow -->
<g id="edge52" class="edge"><title>paramtk.ScrolledWindow&#45;&gt;paramtk.AppWindow</title>
<path fill="none" stroke="black" stroke-width="0.5" d="M784.15,-11.9169C802.603,-11.6193 822.53,-11.2979 840.697,-11.0049"/>
<polygon fill="black" stroke="black" points="840.8,-12.7535 845.771,-10.923 840.744,-9.254 840.8,-12.7535"/>
</g>
<!-- Tkinter.Place -->
<g id="node50" class="node"><title>Tkinter.Place</title>
<polygon fill="none" stroke="black" stroke-width="0.5" points="347,-202.5 271,-202.5 271,-181.5 347,-181.5 347,-202.5"/>
<text text-anchor="middle" x="309" y="-189.5" font-family="Vera" font-size="10.00">Tkinter.Place</text>
</g>
<!-- Tkinter.Place&#45;&gt;Tkinter.Widget -->
<g id="edge58" class="edge"><title>Tkinter.Place&#45;&gt;Tkinter.Widget</title>
<path fill="none" stroke="black" stroke-width="0.5" d="M347.935,-192C384.299,-192 438.629,-192 477.308,-192"/>
<polygon fill="black" stroke="black" points="477.42,-193.75 482.42,-192 477.42,-190.25 477.42,-193.75"/>
</g>
<!-- paramtk.ParametersFrameWithApply -->
<g id="node51" class="node"><title>paramtk.ParametersFrameWithApply</title>
<polygon fill="none" stroke="black" stroke-width="0.5" points="1206,-400.5 1014,-400.5 1014,-379.5 1206,-379.5 1206,-400.5"/>
<text text-anchor="middle" x="1110" y="-387.5" font-family="Vera" font-size="10.00">paramtk.ParametersFrameWithApply</text>
</g>
<!-- paramtk.EditingParametersFrameWithApply -->
<g id="node82" class="node"><title>paramtk.EditingParametersFrameWithApply</title>
<polygon fill="none" stroke="black" stroke-width="0.5" points="1466,-400.5 1242,-400.5 1242,-379.5 1466,-379.5 1466,-400.5"/>
<text text-anchor="middle" x="1354" y="-387.5" font-family="Vera" font-size="10.00">paramtk.EditingParametersFrameWithApply</text>
</g>
<!-- paramtk.ParametersFrameWithApply&#45;&gt;paramtk.EditingParametersFrameWithApply -->
<g id="edge78" class="edge"><title>paramtk.ParametersFrameWithApply&#45;&gt;paramtk.EditingParametersFrameWithApply</title>
<path fill="none" stroke="black" stroke-width="0.5" d="M1206.09,-390C1216.17,-390 1226.5,-390 1236.79,-390"/>
<polygon fill="black" stroke="black" points="1236.84,-391.75 1241.84,-390 1236.84,-388.25 1236.84,-391.75"/>
</g>
<!-- paramtk.ParametersFrame&#45;&gt;paramtk.ParametersFrameWithApply -->
<g id="edge40" class="edge"><title>paramtk.ParametersFrame&#45;&gt;paramtk.ParametersFrameWithApply</title>
<path fill="none" stroke="black" stroke-width="0.5" d="M976.272,-390C986.862,-390 997.915,-390 1008.93,-390"/>
<polygon fill="black" stroke="black" points="1008.99,-391.75 1013.99,-390 1008.99,-388.25 1008.99,-391.75"/>
</g>
<!-- Tkinter.Grid -->
<g id="node56" class="node"><title>Tkinter.Grid</title>
<polygon fill="none" stroke="black" stroke-width="0.5" points="344,-164.5 274,-164.5 274,-143.5 344,-143.5 344,-164.5"/>
<text text-anchor="middle" x="309" y="-151.5" font-family="Vera" font-size="10.00">Tkinter.Grid</text>
</g>
<!-- Tkinter.Grid&#45;&gt;Tkinter.Widget -->
<g id="edge60" class="edge"><title>Tkinter.Grid&#45;&gt;Tkinter.Widget</title>
<path fill="none" stroke="black" stroke-width="0.5" d="M344.503,-160.275C380.687,-166.67 437.012,-176.625 476.905,-183.676"/>
<polygon fill="black" stroke="black" points="476.947,-185.461 482.175,-184.608 477.556,-182.014 476.947,-185.461"/>
</g>
<!-- paramtk.Translator -->
<g id="node59" class="node"><title>paramtk.Translator</title>
<polygon fill="none" stroke="black" stroke-width="0.5" points="141,-523.5 35,-523.5 35,-502.5 141,-502.5 141,-523.5"/>
<text text-anchor="middle" x="88" y="-510.5" font-family="Vera" font-size="10.00">paramtk.Translator</text>
</g>
<!-- paramtk.Translator&#45;&gt;paramtk.DoNothingTranslator -->
<g id="edge50" class="edge"><title>paramtk.Translator&#45;&gt;paramtk.DoNothingTranslator</title>
<path fill="none" stroke="black" stroke-width="0.5" d="M117.572,-523.012C142.543,-531.236 179.347,-542.822 212,-551 223.434,-553.864 235.715,-556.558 247.566,-558.969"/>
<polygon fill="black" stroke="black" points="247.368,-560.714 252.615,-559.984 248.058,-557.282 247.368,-560.714"/>
</g>
<!-- paramtk.Translator&#45;&gt;paramtk.String_ObjectTranslator -->
<g id="edge70" class="edge"><title>paramtk.Translator&#45;&gt;paramtk.String_ObjectTranslator</title>
<path fill="none" stroke="black" stroke-width="0.5" d="M141.78,-517.624C164.778,-519.601 192.273,-521.965 218.261,-524.199"/>
<polygon fill="black" stroke="black" points="218.305,-525.959 223.437,-524.644 218.605,-522.472 218.305,-525.959"/>
</g>
<!-- paramtk.ListTranslator -->
<g id="node78" class="node"><title>paramtk.ListTranslator</title>
<polygon fill="none" stroke="black" stroke-width="0.5" points="370,-504.5 248,-504.5 248,-483.5 370,-483.5 370,-504.5"/>
<text text-anchor="middle" x="309" y="-491.5" font-family="Vera" font-size="10.00">paramtk.ListTranslator</text>
</g>
<!-- paramtk.Translator&#45;&gt;paramtk.ListTranslator -->
<g id="edge74" class="edge"><title>paramtk.Translator&#45;&gt;paramtk.ListTranslator</title>
<path fill="none" stroke="black" stroke-width="0.5" d="M141.78,-508.376C171.978,-505.78 209.931,-502.517 242.043,-499.756"/>
<polygon fill="black" stroke="black" points="242.313,-501.49 247.145,-499.318 242.013,-498.003 242.313,-501.49"/>
</g>
<!-- paramtk.Eval_ReprTranslator -->
<g id="node84" class="node"><title>paramtk.Eval_ReprTranslator</title>
<polygon fill="none" stroke="black" stroke-width="0.5" points="385,-466.5 233,-466.5 233,-445.5 385,-445.5 385,-466.5"/>
<text text-anchor="middle" x="309" y="-453.5" font-family="Vera" font-size="10.00">paramtk.Eval_ReprTranslator</text>
</g>
<!-- paramtk.Translator&#45;&gt;paramtk.Eval_ReprTranslator -->
<g id="edge80" class="edge"><title>paramtk.Translator&#45;&gt;paramtk.Eval_ReprTranslator</title>
<path fill="none" stroke="black" stroke-width="0.5" d="M117.572,-502.988C142.543,-494.764 179.347,-483.178 212,-475 223.434,-472.136 235.715,-469.442 247.566,-467.031"/>
<polygon fill="black" stroke="black" points="248.058,-468.718 252.615,-466.016 247.368,-465.286 248.058,-468.718"/>
</g>
<!-- Tkinter.BaseWidget&#45;&gt;Tkinter.Toplevel -->
<g id="edge64" class="edge"><title>Tkinter.BaseWidget&#45;&gt;Tkinter.Toplevel</title>
<path fill="none" stroke="black" stroke-width="0.5" d="M360.225,-101.993C394.792,-95.2406 440.171,-86.3758 474.394,-79.6904"/>
<polygon fill="black" stroke="black" points="474.788,-81.3966 479.36,-78.7204 474.117,-77.9615 474.788,-81.3966"/>
</g>
<!-- Tkinter.BaseWidget&#45;&gt;Tkinter.Widget -->
<g id="edge54" class="edge"><title>Tkinter.BaseWidget&#45;&gt;Tkinter.Widget</title>
<path fill="none" stroke="black" stroke-width="0.5" d="M360.45,-122.009C375.339,-125.492 391.486,-129.843 406,-135 440.569,-147.283 478.406,-166.707 501.679,-179.403"/>
<polygon fill="black" stroke="black" points="500.908,-180.977 506.134,-181.848 502.593,-177.908 500.908,-180.977"/>
</g>
<!-- Tkinter.Wm -->
<g id="node72" class="node"><title>Tkinter.Wm</title>
<polygon fill="none" stroke="black" stroke-width="0.5" points="343,-80.5 275,-80.5 275,-59.5 343,-59.5 343,-80.5"/>
<text text-anchor="middle" x="309" y="-67.5" font-family="Vera" font-size="10.00">Tkinter.Wm</text>
</g>
<!-- Tkinter.Wm&#45;&gt;Tkinter.Toplevel -->
<g id="edge66" class="edge"><title>Tkinter.Wm&#45;&gt;Tkinter.Toplevel</title>
<path fill="none" stroke="black" stroke-width="0.5" d="M343.543,-70C378.874,-70 434.11,-70 474.169,-70"/>
<polygon fill="black" stroke="black" points="474.47,-71.7501 479.47,-70 474.47,-68.2501 474.47,-71.7501"/>
</g>
</g>
</svg>
