<?xml version="1.0" encoding="UTF-8" standalone="no"?>
<!DOCTYPE svg PUBLIC "-//W3C//DTD SVG 1.1//EN"
 "http://www.w3.org/Graphics/SVG/1.1/DTD/svg11.dtd">
<!-- Generated by graphviz version 2.26.3 (20100126.1600)
 -->
<!-- Title: inheritancef4cea304dd Pages: 1 -->
<svg width="1124pt" height="256pt"
 viewBox="0.00 0.00 1124.00 256.00" xmlns="http://www.w3.org/2000/svg" xmlns:xlink="http://www.w3.org/1999/xlink">
<g id="graph1" class="graph" transform="scale(1 1) rotate(0) translate(4 252)">
<title>inheritancef4cea304dd</title>
<polygon fill="white" stroke="white" points="-4,5 -4,-252 1121,-252 1121,5 -4,5"/>
<!-- topo.base.cf.CFIter -->
<g id="node1" class="node"><title>topo.base.cf.CFIter</title>
<polygon fill="none" stroke="black" stroke-width="0.5" points="150,-105.5 44,-105.5 44,-84.5 150,-84.5 150,-105.5"/>
<text text-anchor="middle" x="97" y="-92.5" font-family="Vera" font-size="10.00">topo.base.cf.CFIter</text>
</g>
<!-- topo.base.cf.CFPRF_Plugin -->
<g id="node2" class="node"><title>topo.base.cf.CFPRF_Plugin</title>
<polygon fill="none" stroke="black" stroke-width="0.5" points="655,-248.5 515,-248.5 515,-227.5 655,-227.5 655,-248.5"/>
<text text-anchor="middle" x="585" y="-235.5" font-family="Vera" font-size="10.00">topo.base.cf.CFPRF_Plugin</text>
</g>
<!-- topo.base.cf.CFPResponseFn -->
<g id="node3" class="node"><title>topo.base.cf.CFPResponseFn</title>
<polygon fill="none" stroke="black" stroke-width="0.5" points="424,-238.5 272,-238.5 272,-217.5 424,-217.5 424,-238.5"/>
<text text-anchor="middle" x="348" y="-225.5" font-family="Vera" font-size="10.00">topo.base.cf.CFPResponseFn</text>
</g>
<!-- topo.base.cf.CFPResponseFn&#45;&gt;topo.base.cf.CFPRF_Plugin -->
<g id="edge2" class="edge"><title>topo.base.cf.CFPResponseFn&#45;&gt;topo.base.cf.CFPRF_Plugin</title>
<path fill="none" stroke="black" stroke-width="0.5" d="M424.62,-231.233C451.738,-232.377 482.215,-233.663 509.259,-234.804"/>
<polygon fill="black" stroke="black" points="509.198,-236.553 514.268,-235.016 509.346,-233.056 509.198,-236.553"/>
</g>
<!-- param.parameterized.Parameterized -->
<g id="node5" class="node"><title>param.parameterized.Parameterized</title>
<polygon fill="none" stroke="black" stroke-width="0.5" points="194,-143.5 5.68434e-14,-143.5 0,-122.5 194,-122.5 194,-143.5"/>
<text text-anchor="middle" x="97" y="-130.5" font-family="Vera" font-size="10.00">param.parameterized.Parameterized</text>
</g>
<!-- param.parameterized.Parameterized&#45;&gt;topo.base.cf.CFPResponseFn -->
<g id="edge20" class="edge"><title>param.parameterized.Parameterized&#45;&gt;topo.base.cf.CFPResponseFn</title>
<path fill="none" stroke="black" stroke-width="0.5" d="M172.778,-143.022C180.177,-145.411 187.384,-148.361 194,-152 214.384,-163.213 210.314,-177.603 230,-190 249.221,-202.104 272.649,-210.686 293.548,-216.593"/>
<polygon fill="black" stroke="black" points="293.238,-218.323 298.523,-217.963 294.167,-214.948 293.238,-218.323"/>
</g>
<!-- topo.base.cf.CFPLearningFn -->
<g id="node7" class="node"><title>topo.base.cf.CFPLearningFn</title>
<polygon fill="none" stroke="black" stroke-width="0.5" points="422,-181.5 274,-181.5 274,-160.5 422,-160.5 422,-181.5"/>
<text text-anchor="middle" x="348" y="-168.5" font-family="Vera" font-size="10.00">topo.base.cf.CFPLearningFn</text>
</g>
<!-- param.parameterized.Parameterized&#45;&gt;topo.base.cf.CFPLearningFn -->
<g id="edge22" class="edge"><title>param.parameterized.Parameterized&#45;&gt;topo.base.cf.CFPLearningFn</title>
<path fill="none" stroke="black" stroke-width="0.5" d="M163.276,-143.034C198.161,-148.315 240.968,-154.796 276.587,-160.189"/>
<polygon fill="black" stroke="black" points="276.583,-161.958 281.789,-160.976 277.107,-158.497 276.583,-161.958"/>
</g>
<!-- topo.base.simulation.EventProcessor -->
<g id="node10" class="node"><title>topo.base.simulation.EventProcessor</title>
<polygon fill="none" stroke="black" stroke-width="0.5" points="445,-143.5 251,-143.5 251,-122.5 445,-122.5 445,-143.5"/>
<text text-anchor="middle" x="348" y="-130.5" font-family="Vera" font-size="10.00">topo.base.simulation.EventProcessor</text>
</g>
<!-- param.parameterized.Parameterized&#45;&gt;topo.base.simulation.EventProcessor -->
<g id="edge16" class="edge"><title>param.parameterized.Parameterized&#45;&gt;topo.base.simulation.EventProcessor</title>
<path fill="none" stroke="black" stroke-width="0.5" d="M194.043,-133C210.921,-133 228.523,-133 245.54,-133"/>
<polygon fill="black" stroke="black" points="245.801,-134.75 250.801,-133 245.801,-131.25 245.801,-134.75"/>
</g>
<!-- topo.base.cf.CFPOutputFn -->
<g id="node17" class="node"><title>topo.base.cf.CFPOutputFn</title>
<polygon fill="none" stroke="black" stroke-width="0.5" points="418,-67.5 278,-67.5 278,-46.5 418,-46.5 418,-67.5"/>
<text text-anchor="middle" x="348" y="-54.5" font-family="Vera" font-size="10.00">topo.base.cf.CFPOutputFn</text>
</g>
<!-- param.parameterized.Parameterized&#45;&gt;topo.base.cf.CFPOutputFn -->
<g id="edge28" class="edge"><title>param.parameterized.Parameterized&#45;&gt;topo.base.cf.CFPOutputFn</title>
<path fill="none" stroke="black" stroke-width="0.5" d="M172.778,-122.978C180.177,-120.589 187.384,-117.639 194,-114 214.384,-102.787 209.43,-86.8673 230,-76 243.104,-69.0769 258.082,-64.5379 272.868,-61.5916"/>
<polygon fill="black" stroke="black" points="273.28,-63.2948 277.872,-60.6523 272.634,-59.8549 273.28,-63.2948"/>
</g>
<!-- topo.base.simulation.EPConnection -->
<g id="node24" class="node"><title>topo.base.simulation.EPConnection</title>
<polygon fill="none" stroke="black" stroke-width="0.5" points="441,-20.5 255,-20.5 255,0.5 441,0.5 441,-20.5"/>
<text text-anchor="middle" x="348" y="-7.5" font-family="Vera" font-size="10.00">topo.base.simulation.EPConnection</text>
</g>
<!-- param.parameterized.Parameterized&#45;&gt;topo.base.simulation.EPConnection -->
<g id="edge18" class="edge"><title>param.parameterized.Parameterized&#45;&gt;topo.base.simulation.EPConnection</title>
<path fill="none" stroke="black" stroke-width="0.5" d="M178.93,-122.996C184.301,-120.547 189.394,-117.581 194,-114 223.505,-91.0571 200.954,-61.5219 230,-38 238.585,-31.0481 248.607,-25.7696 259.116,-21.7706"/>
<polygon fill="black" stroke="black" points="259.864,-23.3615 263.976,-20.0218 258.679,-20.0682 259.864,-23.3615"/>
</g>
<!-- topo.base.cf.CFPLF_Plugin -->
<g id="node6" class="node"><title>topo.base.cf.CFPLF_Plugin</title>
<polygon fill="none" stroke="black" stroke-width="0.5" points="655,-210.5 515,-210.5 515,-189.5 655,-189.5 655,-210.5"/>
<text text-anchor="middle" x="585" y="-197.5" font-family="Vera" font-size="10.00">topo.base.cf.CFPLF_Plugin</text>
</g>
<!-- topo.base.cf.CFPLearningFn&#45;&gt;topo.base.cf.CFPLF_Plugin -->
<g id="edge4" class="edge"><title>topo.base.cf.CFPLearningFn&#45;&gt;topo.base.cf.CFPLF_Plugin</title>
<path fill="none" stroke="black" stroke-width="0.5" d="M422.663,-180.136C450.381,-183.528 481.824,-187.375 509.606,-190.775"/>
<polygon fill="black" stroke="black" points="509.574,-192.534 514.75,-191.404 509.999,-189.06 509.574,-192.534"/>
</g>
<!-- topo.base.cf.CFPLF_Identity -->
<g id="node14" class="node"><title>topo.base.cf.CFPLF_Identity</title>
<polygon fill="none" stroke="black" stroke-width="0.5" points="658,-172.5 512,-172.5 512,-151.5 658,-151.5 658,-172.5"/>
<text text-anchor="middle" x="585" y="-159.5" font-family="Vera" font-size="10.00">topo.base.cf.CFPLF_Identity</text>
</g>
<!-- topo.base.cf.CFPLearningFn&#45;&gt;topo.base.cf.CFPLF_Identity -->
<g id="edge10" class="edge"><title>topo.base.cf.CFPLearningFn&#45;&gt;topo.base.cf.CFPLF_Identity</title>
<path fill="none" stroke="black" stroke-width="0.5" d="M422.663,-168.165C449.121,-167.16 478.973,-166.026 505.796,-165.008"/>
<polygon fill="black" stroke="black" points="506.188,-166.744 511.118,-164.806 506.056,-163.247 506.188,-166.744"/>
</g>
<!-- topo.base.sheet.Sheet -->
<g id="node9" class="node"><title>topo.base.sheet.Sheet</title>
<polygon fill="none" stroke="black" stroke-width="0.5" points="648,-134.5 522,-134.5 522,-113.5 648,-113.5 648,-134.5"/>
<text text-anchor="middle" x="585" y="-121.5" font-family="Vera" font-size="10.00">topo.base.sheet.Sheet</text>
</g>
<!-- topo.base.projection.ProjectionSheet -->
<g id="node21" class="node"><title>topo.base.projection.ProjectionSheet</title>
<polygon fill="none" stroke="black" stroke-width="0.5" points="898,-134.5 704,-134.5 704,-113.5 898,-113.5 898,-134.5"/>
<text text-anchor="middle" x="801" y="-121.5" font-family="Vera" font-size="10.00">topo.base.projection.ProjectionSheet</text>
</g>
<!-- topo.base.sheet.Sheet&#45;&gt;topo.base.projection.ProjectionSheet -->
<g id="edge32" class="edge"><title>topo.base.sheet.Sheet&#45;&gt;topo.base.projection.ProjectionSheet</title>
<path fill="none" stroke="black" stroke-width="0.5" d="M648.057,-124C663.856,-124 681.216,-124 698.394,-124"/>
<polygon fill="black" stroke="black" points="698.717,-125.75 703.717,-124 698.717,-122.25 698.717,-125.75"/>
</g>
<!-- topo.base.simulation.EventProcessor&#45;&gt;topo.base.sheet.Sheet -->
<g id="edge6" class="edge"><title>topo.base.simulation.EventProcessor&#45;&gt;topo.base.sheet.Sheet</title>
<path fill="none" stroke="black" stroke-width="0.5" d="M445.081,-129.313C469.206,-128.397 494.557,-127.435 516.952,-126.584"/>
<polygon fill="black" stroke="black" points="517.051,-128.332 521.981,-126.393 516.918,-124.834 517.051,-128.332"/>
</g>
<!-- imagen.sheetcoords.SheetCoordinateSystem -->
<g id="node12" class="node"><title>imagen.sheetcoords.SheetCoordinateSystem</title>
<polygon fill="none" stroke="black" stroke-width="0.5" points="466,-105.5 230,-105.5 230,-84.5 466,-84.5 466,-105.5"/>
<text text-anchor="middle" x="348" y="-92.5" font-family="Vera" font-size="10.00">imagen.sheetcoords.SheetCoordinateSystem</text>
</g>
<!-- imagen.sheetcoords.SheetCoordinateSystem&#45;&gt;topo.base.sheet.Sheet -->
<g id="edge8" class="edge"><title>imagen.sheetcoords.SheetCoordinateSystem&#45;&gt;topo.base.sheet.Sheet</title>
<path fill="none" stroke="black" stroke-width="0.5" d="M429.894,-105.021C458.234,-108.489 489.672,-112.335 516.794,-115.654"/>
<polygon fill="black" stroke="black" points="516.631,-117.397 521.806,-116.267 517.056,-113.923 516.631,-117.397"/>
</g>
<!-- topo.base.cf.CFPOF_Plugin -->
<g id="node16" class="node"><title>topo.base.cf.CFPOF_Plugin</title>
<polygon fill="none" stroke="black" stroke-width="0.5" points="656,-96.5 514,-96.5 514,-75.5 656,-75.5 656,-96.5"/>
<text text-anchor="middle" x="585" y="-83.5" font-family="Vera" font-size="10.00">topo.base.cf.CFPOF_Plugin</text>
</g>
<!-- topo.base.cf.CFPOutputFn&#45;&gt;topo.base.cf.CFPOF_Plugin -->
<g id="edge12" class="edge"><title>topo.base.cf.CFPOutputFn&#45;&gt;topo.base.cf.CFPOF_Plugin</title>
<path fill="none" stroke="black" stroke-width="0.5" d="M418.146,-65.5832C446.533,-69.0567 479.388,-73.077 508.398,-76.6267"/>
<polygon fill="black" stroke="black" points="508.217,-78.3676 513.392,-77.2379 508.642,-74.8935 508.217,-78.3676"/>
</g>
<!-- topo.base.cf.CFPOF_Identity -->
<g id="node30" class="node"><title>topo.base.cf.CFPOF_Identity</title>
<polygon fill="none" stroke="black" stroke-width="0.5" points="659,-58.5 511,-58.5 511,-37.5 659,-37.5 659,-58.5"/>
<text text-anchor="middle" x="585" y="-45.5" font-family="Vera" font-size="10.00">topo.base.cf.CFPOF_Identity</text>
</g>
<!-- topo.base.cf.CFPOutputFn&#45;&gt;topo.base.cf.CFPOF_Identity -->
<g id="edge26" class="edge"><title>topo.base.cf.CFPOutputFn&#45;&gt;topo.base.cf.CFPOF_Identity</title>
<path fill="none" stroke="black" stroke-width="0.5" d="M418.146,-54.3362C445.516,-53.2969 477.04,-52.0998 505.266,-51.0279"/>
<polygon fill="black" stroke="black" points="505.566,-52.7678 510.496,-50.8293 505.434,-49.2703 505.566,-52.7678"/>
</g>
<!-- topo.base.cf.ConnectionField -->
<g id="node19" class="node"><title>topo.base.cf.ConnectionField</title>
<polygon fill="none" stroke="black" stroke-width="0.5" points="173,-181.5 21,-181.5 21,-160.5 173,-160.5 173,-181.5"/>
<text text-anchor="middle" x="97" y="-168.5" font-family="Vera" font-size="10.00">topo.base.cf.ConnectionField</text>
</g>
<!-- topo.base.cf.CFSheet -->
<g id="node20" class="node"><title>topo.base.cf.CFSheet</title>
<polygon fill="none" stroke="black" stroke-width="0.5" points="1084,-134.5 966,-134.5 966,-113.5 1084,-113.5 1084,-134.5"/>
<text text-anchor="middle" x="1025" y="-121.5" font-family="Vera" font-size="10.00">topo.base.cf.CFSheet</text>
</g>
<!-- topo.base.projection.ProjectionSheet&#45;&gt;topo.base.cf.CFSheet -->
<g id="edge14" class="edge"><title>topo.base.projection.ProjectionSheet&#45;&gt;topo.base.cf.CFSheet</title>
<path fill="none" stroke="black" stroke-width="0.5" d="M898.272,-124C919.101,-124 940.622,-124 959.885,-124"/>
<polygon fill="black" stroke="black" points="960.255,-125.75 965.255,-124 960.255,-122.25 960.255,-125.75"/>
</g>
<!-- topo.base.projection.Projection -->
<g id="node28" class="node"><title>topo.base.projection.Projection</title>
<polygon fill="none" stroke="black" stroke-width="0.5" points="667,-20.5 503,-20.5 503,0.5 667,0.5 667,-20.5"/>
<text text-anchor="middle" x="585" y="-7.5" font-family="Vera" font-size="10.00">topo.base.projection.Projection</text>
</g>
<!-- topo.base.simulation.EPConnection&#45;&gt;topo.base.projection.Projection -->
<g id="edge24" class="edge"><title>topo.base.simulation.EPConnection&#45;&gt;topo.base.projection.Projection</title>
<path fill="none" stroke="black" stroke-width="0.5" d="M441.328,-10C459.681,-10 478.878,-10 497.046,-10"/>
<polygon fill="black" stroke="black" points="497.142,-11.7501 502.142,-10 497.142,-8.2501 497.142,-11.7501"/>
</g>
<!-- topo.base.cf.CFProjection -->
<g id="node34" class="node"><title>topo.base.cf.CFProjection</title>
<polygon fill="none" stroke="black" stroke-width="0.5" points="869,-20.5 733,-20.5 733,0.5 869,0.5 869,-20.5"/>
<text text-anchor="middle" x="801" y="-7.5" font-family="Vera" font-size="10.00">topo.base.cf.CFProjection</text>
</g>
<!-- topo.base.projection.Projection&#45;&gt;topo.base.cf.CFProjection -->
<g id="edge34" class="edge"><title>topo.base.projection.Projection&#45;&gt;topo.base.cf.CFProjection</title>
<path fill="none" stroke="black" stroke-width="0.5" d="M667.585,-10C687.071,-10 707.728,-10 726.817,-10"/>
<polygon fill="black" stroke="black" points="727.157,-11.7501 732.157,-10 727.157,-8.25009 727.157,-11.7501"/>
</g>
<!-- topo.base.cf.ResizableCFProjection -->
<g id="node33" class="node"><title>topo.base.cf.ResizableCFProjection</title>
<polygon fill="none" stroke="black" stroke-width="0.5" points="1116,-20.5 934,-20.5 934,0.5 1116,0.5 1116,-20.5"/>
<text text-anchor="middle" x="1025" y="-7.5" font-family="Vera" font-size="10.00">topo.base.cf.ResizableCFProjection</text>
</g>
<!-- topo.base.cf.CFProjection&#45;&gt;topo.base.cf.ResizableCFProjection -->
<g id="edge30" class="edge"><title>topo.base.cf.CFProjection&#45;&gt;topo.base.cf.ResizableCFProjection</title>
<path fill="none" stroke="black" stroke-width="0.5" d="M869.73,-10C888.343,-10 908.841,-10 928.67,-10"/>
<polygon fill="black" stroke="black" points="928.696,-11.7501 933.696,-10 928.696,-8.2501 928.696,-11.7501"/>
</g>
<!-- topo.base.cf.NullCFError -->
<g id="node36" class="node"><title>topo.base.cf.NullCFError</title>
<polygon fill="none" stroke="black" stroke-width="0.5" points="162,-219.5 32,-219.5 32,-198.5 162,-198.5 162,-219.5"/>
<text text-anchor="middle" x="97" y="-206.5" font-family="Vera" font-size="10.00">topo.base.cf.NullCFError</text>
</g>
</g>
</svg>
