<?xml version="1.0" encoding="UTF-8" standalone="no"?>
<!DOCTYPE svg PUBLIC "-//W3C//DTD SVG 1.1//EN"
 "http://www.w3.org/Graphics/SVG/1.1/DTD/svg11.dtd">
<!-- Generated by graphviz version 2.26.3 (20100126.1600)
 -->
<!-- Title: inheritancebe3ab90ace Pages: 1 -->
<svg width="984pt" height="427pt"
 viewBox="0.00 0.00 984.00 427.00" xmlns="http://www.w3.org/2000/svg" xmlns:xlink="http://www.w3.org/1999/xlink">
<g id="graph1" class="graph" transform="scale(1 1) rotate(0) translate(4 423)">
<title>inheritancebe3ab90ace</title>
<polygon fill="white" stroke="white" points="-4,5 -4,-423 981,-423 981,5 -4,5"/>
<!-- topo.coordmapper.ConstantMapper -->
<g id="node1" class="node"><title>topo.coordmapper.ConstantMapper</title>
<polygon fill="none" stroke="black" stroke-width="0.5" points="708,-381.5 520,-381.5 520,-360.5 708,-360.5 708,-381.5"/>
<text text-anchor="middle" x="614" y="-368.5" font-family="Vera" font-size="10.00">topo.coordmapper.ConstantMapper</text>
</g>
<!-- topo.base.functionfamily.CoordinateMapperFn -->
<g id="node2" class="node"><title>topo.base.functionfamily.CoordinateMapperFn</title>
<polygon fill="none" stroke="black" stroke-width="0.5" points="466,-191.5 230,-191.5 230,-170.5 466,-170.5 466,-191.5"/>
<text text-anchor="middle" x="348" y="-178.5" font-family="Vera" font-size="10.00">topo.base.functionfamily.CoordinateMapperFn</text>
</g>
<!-- topo.base.functionfamily.CoordinateMapperFn&#45;&gt;topo.coordmapper.ConstantMapper -->
<g id="edge2" class="edge"><title>topo.base.functionfamily.CoordinateMapperFn&#45;&gt;topo.coordmapper.ConstantMapper</title>
<path fill="none" stroke="black" stroke-width="0.5" d="M353.756,-191.228C371.414,-221.551 428.136,-311.374 502,-352 507.13,-354.822 512.577,-357.244 518.197,-359.323"/>
<polygon fill="black" stroke="black" points="517.659,-360.988 522.956,-360.989 518.816,-357.685 517.659,-360.988"/>
</g>
<!-- topo.coordmapper.AffineTransform -->
<g id="node4" class="node"><title>topo.coordmapper.AffineTransform</title>
<polygon fill="none" stroke="black" stroke-width="0.5" points="705,-343.5 523,-343.5 523,-322.5 705,-322.5 705,-343.5"/>
<text text-anchor="middle" x="614" y="-330.5" font-family="Vera" font-size="10.00">topo.coordmapper.AffineTransform</text>
</g>
<!-- topo.base.functionfamily.CoordinateMapperFn&#45;&gt;topo.coordmapper.AffineTransform -->
<g id="edge4" class="edge"><title>topo.base.functionfamily.CoordinateMapperFn&#45;&gt;topo.coordmapper.AffineTransform</title>
<path fill="none" stroke="black" stroke-width="0.5" d="M359.147,-191.2C383.434,-212.966 443.645,-264.459 502,-295 523.389,-306.195 548.756,-315.122 569.935,-321.503"/>
<polygon fill="black" stroke="black" points="569.652,-323.245 574.944,-322.989 570.648,-319.889 569.652,-323.245"/>
</g>
<!-- topo.coordmapper.SingleDimensionMapper -->
<g id="node6" class="node"><title>topo.coordmapper.SingleDimensionMapper</title>
<polygon fill="none" stroke="black" stroke-width="0.5" points="726,-286.5 502,-286.5 502,-265.5 726,-265.5 726,-286.5"/>
<text text-anchor="middle" x="614" y="-273.5" font-family="Vera" font-size="10.00">topo.coordmapper.SingleDimensionMapper</text>
</g>
<!-- topo.base.functionfamily.CoordinateMapperFn&#45;&gt;topo.coordmapper.SingleDimensionMapper -->
<g id="edge6" class="edge"><title>topo.base.functionfamily.CoordinateMapperFn&#45;&gt;topo.coordmapper.SingleDimensionMapper</title>
<path fill="none" stroke="black" stroke-width="0.5" d="M364.412,-191.107C391.853,-207.535 449.243,-239.912 502,-257 511.594,-260.107 521.823,-262.732 532.052,-264.942"/>
<polygon fill="black" stroke="black" points="531.818,-266.68 537.07,-265.993 532.536,-263.255 531.818,-266.68"/>
</g>
<!-- topo.coordmapper.OttesSCMapper -->
<g id="node9" class="node"><title>topo.coordmapper.OttesSCMapper</title>
<polygon fill="none" stroke="black" stroke-width="0.5" points="706,-248.5 522,-248.5 522,-227.5 706,-227.5 706,-248.5"/>
<text text-anchor="middle" x="614" y="-235.5" font-family="Vera" font-size="10.00">topo.coordmapper.OttesSCMapper</text>
</g>
<!-- topo.base.functionfamily.CoordinateMapperFn&#45;&gt;topo.coordmapper.OttesSCMapper -->
<g id="edge34" class="edge"><title>topo.base.functionfamily.CoordinateMapperFn&#45;&gt;topo.coordmapper.OttesSCMapper</title>
<path fill="none" stroke="black" stroke-width="0.5" d="M385.48,-191.071C416.555,-199.223 461.962,-210.676 502,-219 515.758,-221.86 530.533,-224.6 544.694,-227.065"/>
<polygon fill="black" stroke="black" points="544.656,-228.834 549.881,-227.961 545.251,-225.385 544.656,-228.834"/>
</g>
<!-- topo.coordmapper.Polar2Cartesian -->
<g id="node11" class="node"><title>topo.coordmapper.Polar2Cartesian</title>
<polygon fill="none" stroke="black" stroke-width="0.5" points="706,-210.5 522,-210.5 522,-189.5 706,-189.5 706,-210.5"/>
<text text-anchor="middle" x="614" y="-197.5" font-family="Vera" font-size="10.00">topo.coordmapper.Polar2Cartesian</text>
</g>
<!-- topo.base.functionfamily.CoordinateMapperFn&#45;&gt;topo.coordmapper.Polar2Cartesian -->
<g id="edge10" class="edge"><title>topo.base.functionfamily.CoordinateMapperFn&#45;&gt;topo.coordmapper.Polar2Cartesian</title>
<path fill="none" stroke="black" stroke-width="0.5" d="M466.221,-189.444C483.07,-190.648 500.241,-191.874 516.632,-193.045"/>
<polygon fill="black" stroke="black" points="516.58,-194.796 521.692,-193.407 516.83,-191.305 516.58,-194.796"/>
</g>
<!-- topo.coordmapper.Jitter -->
<g id="node15" class="node"><title>topo.coordmapper.Jitter</title>
<polygon fill="none" stroke="black" stroke-width="0.5" points="679,-172.5 549,-172.5 549,-151.5 679,-151.5 679,-172.5"/>
<text text-anchor="middle" x="614" y="-159.5" font-family="Vera" font-size="10.00">topo.coordmapper.Jitter</text>
</g>
<!-- topo.base.functionfamily.CoordinateMapperFn&#45;&gt;topo.coordmapper.Jitter -->
<g id="edge14" class="edge"><title>topo.base.functionfamily.CoordinateMapperFn&#45;&gt;topo.coordmapper.Jitter</title>
<path fill="none" stroke="black" stroke-width="0.5" d="M466.221,-172.556C492.647,-170.668 519.861,-168.724 543.62,-167.027"/>
<polygon fill="black" stroke="black" points="543.774,-168.771 548.636,-166.669 543.524,-165.28 543.774,-168.771"/>
</g>
<!-- topo.coordmapper.Cartesian2Polar -->
<g id="node18" class="node"><title>topo.coordmapper.Cartesian2Polar</title>
<polygon fill="none" stroke="black" stroke-width="0.5" points="706,-134.5 522,-134.5 522,-113.5 706,-113.5 706,-134.5"/>
<text text-anchor="middle" x="614" y="-121.5" font-family="Vera" font-size="10.00">topo.coordmapper.Cartesian2Polar</text>
</g>
<!-- topo.base.functionfamily.CoordinateMapperFn&#45;&gt;topo.coordmapper.Cartesian2Polar -->
<g id="edge16" class="edge"><title>topo.base.functionfamily.CoordinateMapperFn&#45;&gt;topo.coordmapper.Cartesian2Polar</title>
<path fill="none" stroke="black" stroke-width="0.5" d="M385.48,-170.929C416.555,-162.777 461.962,-151.324 502,-143 515.758,-140.14 530.533,-137.4 544.694,-134.935"/>
<polygon fill="black" stroke="black" points="545.251,-136.615 549.881,-134.039 544.656,-133.166 545.251,-136.615"/>
</g>
<!-- topo.coordmapper.Grid -->
<g id="node29" class="node"><title>topo.coordmapper.Grid</title>
<polygon fill="none" stroke="black" stroke-width="0.5" points="678,-96.5 550,-96.5 550,-75.5 678,-75.5 678,-96.5"/>
<text text-anchor="middle" x="614" y="-83.5" font-family="Vera" font-size="10.00">topo.coordmapper.Grid</text>
</g>
<!-- topo.base.functionfamily.CoordinateMapperFn&#45;&gt;topo.coordmapper.Grid -->
<g id="edge28" class="edge"><title>topo.base.functionfamily.CoordinateMapperFn&#45;&gt;topo.coordmapper.Grid</title>
<path fill="none" stroke="black" stroke-width="0.5" d="M364.412,-170.893C391.853,-154.465 449.243,-122.088 502,-105 515.535,-100.616 530.336,-97.1937 544.615,-94.5397"/>
<polygon fill="black" stroke="black" points="545.238,-96.2056 549.848,-93.5963 544.617,-92.7611 545.238,-96.2056"/>
</g>
<!-- topo.coordmapper.NormalJitter -->
<g id="node33" class="node"><title>topo.coordmapper.NormalJitter</title>
<polygon fill="none" stroke="black" stroke-width="0.5" points="696,-58.5 532,-58.5 532,-37.5 696,-37.5 696,-58.5"/>
<text text-anchor="middle" x="614" y="-45.5" font-family="Vera" font-size="10.00">topo.coordmapper.NormalJitter</text>
</g>
<!-- topo.base.functionfamily.CoordinateMapperFn&#45;&gt;topo.coordmapper.NormalJitter -->
<g id="edge32" class="edge"><title>topo.base.functionfamily.CoordinateMapperFn&#45;&gt;topo.coordmapper.NormalJitter</title>
<path fill="none" stroke="black" stroke-width="0.5" d="M358.097,-170.764C381.227,-147.985 440.791,-93.0694 502,-67 509.663,-63.7361 517.847,-61.0319 526.17,-58.7918"/>
<polygon fill="black" stroke="black" points="526.96,-60.3957 531.366,-57.456 526.088,-57.0059 526.96,-60.3957"/>
</g>
<!-- topo.coordmapper.Pipeline -->
<g id="node36" class="node"><title>topo.coordmapper.Pipeline</title>
<polygon fill="none" stroke="black" stroke-width="0.5" points="686,-20.5 542,-20.5 542,0.5 686,0.5 686,-20.5"/>
<text text-anchor="middle" x="614" y="-7.5" font-family="Vera" font-size="10.00">topo.coordmapper.Pipeline</text>
</g>
<!-- topo.base.functionfamily.CoordinateMapperFn&#45;&gt;topo.coordmapper.Pipeline -->
<g id="edge36" class="edge"><title>topo.base.functionfamily.CoordinateMapperFn&#45;&gt;topo.coordmapper.Pipeline</title>
<path fill="none" stroke="black" stroke-width="0.5" d="M354.877,-170.73C374.258,-142.704 432.458,-64.6275 502,-29 512.597,-23.5707 524.426,-19.6455 536.315,-16.817"/>
<polygon fill="black" stroke="black" points="536.917,-18.4754 541.411,-15.6707 536.149,-15.0608 536.917,-18.4754"/>
</g>
<!-- topo.coordmapper.Scale2d -->
<g id="node24" class="node"><title>topo.coordmapper.Scale2d</title>
<polygon fill="none" stroke="black" stroke-width="0.5" points="942,-419.5 796,-419.5 796,-398.5 942,-398.5 942,-419.5"/>
<text text-anchor="middle" x="869" y="-406.5" font-family="Vera" font-size="10.00">topo.coordmapper.Scale2d</text>
</g>
<!-- topo.coordmapper.AffineTransform&#45;&gt;topo.coordmapper.Scale2d -->
<g id="edge22" class="edge"><title>topo.coordmapper.AffineTransform&#45;&gt;topo.coordmapper.Scale2d</title>
<path fill="none" stroke="black" stroke-width="0.5" d="M704.367,-343.005C711.897,-345.42 719.214,-348.379 726,-352 746.524,-362.954 741.518,-378.968 762,-390 770.922,-394.806 780.81,-398.431 790.866,-401.16"/>
<polygon fill="black" stroke="black" points="790.535,-402.882 795.813,-402.429 791.404,-399.491 790.535,-402.882"/>
</g>
<!-- topo.coordmapper.Rotate2d -->
<g id="node27" class="node"><title>topo.coordmapper.Rotate2d</title>
<polygon fill="none" stroke="black" stroke-width="0.5" points="944,-381.5 794,-381.5 794,-360.5 944,-360.5 944,-381.5"/>
<text text-anchor="middle" x="869" y="-368.5" font-family="Vera" font-size="10.00">topo.coordmapper.Rotate2d</text>
</g>
<!-- topo.coordmapper.AffineTransform&#45;&gt;topo.coordmapper.Rotate2d -->
<g id="edge26" class="edge"><title>topo.coordmapper.AffineTransform&#45;&gt;topo.coordmapper.Rotate2d</title>
<path fill="none" stroke="black" stroke-width="0.5" d="M681.332,-343.034C716.773,-348.315 760.262,-354.796 796.449,-360.189"/>
<polygon fill="black" stroke="black" points="796.53,-361.97 801.733,-360.976 797.046,-358.508 796.53,-361.97"/>
</g>
<!-- topo.coordmapper.Translate2d -->
<g id="node31" class="node"><title>topo.coordmapper.Translate2d</title>
<polygon fill="none" stroke="black" stroke-width="0.5" points="950,-343.5 788,-343.5 788,-322.5 950,-322.5 950,-343.5"/>
<text text-anchor="middle" x="869" y="-330.5" font-family="Vera" font-size="10.00">topo.coordmapper.Translate2d</text>
</g>
<!-- topo.coordmapper.AffineTransform&#45;&gt;topo.coordmapper.Translate2d -->
<g id="edge30" class="edge"><title>topo.coordmapper.AffineTransform&#45;&gt;topo.coordmapper.Translate2d</title>
<path fill="none" stroke="black" stroke-width="0.5" d="M705.341,-333C730.29,-333 757.253,-333 781.956,-333"/>
<polygon fill="black" stroke="black" points="782.192,-334.75 787.191,-333 782.191,-331.25 782.192,-334.75"/>
</g>
<!-- topo.coordmapper.ReducingMapper -->
<g id="node20" class="node"><title>topo.coordmapper.ReducingMapper</title>
<polygon fill="none" stroke="black" stroke-width="0.5" points="962,-305.5 776,-305.5 776,-284.5 962,-284.5 962,-305.5"/>
<text text-anchor="middle" x="869" y="-292.5" font-family="Vera" font-size="10.00">topo.coordmapper.ReducingMapper</text>
</g>
<!-- topo.coordmapper.SingleDimensionMapper&#45;&gt;topo.coordmapper.ReducingMapper -->
<g id="edge18" class="edge"><title>topo.coordmapper.SingleDimensionMapper&#45;&gt;topo.coordmapper.ReducingMapper</title>
<path fill="none" stroke="black" stroke-width="0.5" d="M726.218,-284.361C740.855,-285.452 755.766,-286.563 770.162,-287.636"/>
<polygon fill="black" stroke="black" points="770.325,-289.402 775.441,-288.029 770.585,-285.912 770.325,-289.402"/>
</g>
<!-- topo.coordmapper.MagnifyingMapper -->
<g id="node22" class="node"><title>topo.coordmapper.MagnifyingMapper</title>
<polygon fill="none" stroke="black" stroke-width="0.5" points="966,-267.5 772,-267.5 772,-246.5 966,-246.5 966,-267.5"/>
<text text-anchor="middle" x="869" y="-254.5" font-family="Vera" font-size="10.00">topo.coordmapper.MagnifyingMapper</text>
</g>
<!-- topo.coordmapper.SingleDimensionMapper&#45;&gt;topo.coordmapper.MagnifyingMapper -->
<g id="edge20" class="edge"><title>topo.coordmapper.SingleDimensionMapper&#45;&gt;topo.coordmapper.MagnifyingMapper</title>
<path fill="none" stroke="black" stroke-width="0.5" d="M726.218,-267.639C739.429,-266.654 752.863,-265.653 765.941,-264.679"/>
<polygon fill="black" stroke="black" points="766.272,-266.409 771.128,-264.292 766.012,-262.919 766.272,-266.409"/>
</g>
<!-- topo.coordmapper.OttesSCMotorMapper -->
<g id="node8" class="node"><title>topo.coordmapper.OttesSCMotorMapper</title>
<polygon fill="none" stroke="black" stroke-width="0.5" points="975,-229.5 763,-229.5 763,-208.5 975,-208.5 975,-229.5"/>
<text text-anchor="middle" x="869" y="-216.5" font-family="Vera" font-size="10.00">topo.coordmapper.OttesSCMotorMapper</text>
</g>
<!-- topo.coordmapper.OttesSCMapper&#45;&gt;topo.coordmapper.OttesSCMotorMapper -->
<g id="edge8" class="edge"><title>topo.coordmapper.OttesSCMapper&#45;&gt;topo.coordmapper.OttesSCMotorMapper</title>
<path fill="none" stroke="black" stroke-width="0.5" d="M706.061,-231.141C722.739,-229.898 740.295,-228.59 757.46,-227.311"/>
<polygon fill="black" stroke="black" points="757.917,-229.032 762.773,-226.915 757.656,-225.541 757.917,-229.032"/>
</g>
<!-- topo.coordmapper.OttesSCSenseMapper -->
<g id="node13" class="node"><title>topo.coordmapper.OttesSCSenseMapper</title>
<polygon fill="none" stroke="black" stroke-width="0.5" points="976,-191.5 762,-191.5 762,-170.5 976,-170.5 976,-191.5"/>
<text text-anchor="middle" x="869" y="-178.5" font-family="Vera" font-size="10.00">topo.coordmapper.OttesSCSenseMapper</text>
</g>
<!-- topo.coordmapper.OttesSCMapper&#45;&gt;topo.coordmapper.OttesSCSenseMapper -->
<g id="edge12" class="edge"><title>topo.coordmapper.OttesSCMapper&#45;&gt;topo.coordmapper.OttesSCSenseMapper</title>
<path fill="none" stroke="black" stroke-width="0.5" d="M692.515,-227.949C703.895,-225.553 715.353,-222.609 726,-219 743.134,-213.192 744.889,-205.874 762,-200 770.966,-196.922 780.533,-194.321 790.122,-192.127"/>
<polygon fill="black" stroke="black" points="790.631,-193.807 795.135,-191.017 789.874,-190.389 790.631,-193.807"/>
</g>
<!-- param.parameterized.Parameterized -->
<g id="node17" class="node"><title>param.parameterized.Parameterized</title>
<polygon fill="none" stroke="black" stroke-width="0.5" points="194,-191.5 5.68434e-14,-191.5 0,-170.5 194,-170.5 194,-191.5"/>
<text text-anchor="middle" x="97" y="-178.5" font-family="Vera" font-size="10.00">param.parameterized.Parameterized</text>
</g>
<!-- param.parameterized.Parameterized&#45;&gt;topo.base.functionfamily.CoordinateMapperFn -->
<g id="edge24" class="edge"><title>param.parameterized.Parameterized&#45;&gt;topo.base.functionfamily.CoordinateMapperFn</title>
<path fill="none" stroke="black" stroke-width="0.5" d="M194.043,-181C204.12,-181 214.455,-181 224.77,-181"/>
<polygon fill="black" stroke="black" points="224.831,-182.75 229.831,-181 224.831,-179.25 224.831,-182.75"/>
</g>
</g>
</svg>
