<?xml version="1.0" encoding="UTF-8" standalone="no"?>
<!DOCTYPE svg PUBLIC "-//W3C//DTD SVG 1.1//EN"
 "http://www.w3.org/Graphics/SVG/1.1/DTD/svg11.dtd">
<!-- Generated by graphviz version 2.26.3 (20100126.1600)
 -->
<!-- Title: inheritance0c0d2b112e Pages: 1 -->
<svg width="772pt" height="379pt"
 viewBox="0.00 0.00 772.00 379.00" xmlns="http://www.w3.org/2000/svg" xmlns:xlink="http://www.w3.org/1999/xlink">
<g id="graph1" class="graph" transform="scale(1 1) rotate(0) translate(4 375)">
<title>inheritance0c0d2b112e</title>
<polygon fill="white" stroke="white" points="-4,5 -4,-375 769,-375 769,5 -4,5"/>
<!-- param.Composite -->
<g id="node1" class="node"><title>param.Composite</title>
<polygon fill="none" stroke="black" stroke-width="0.5" points="398,-286.5 296,-286.5 296,-265.5 398,-265.5 398,-286.5"/>
<text text-anchor="middle" x="347" y="-273.5" font-family="Vera" font-size="10.00">param.Composite</text>
</g>
<!-- param.parameterized.Parameter -->
<g id="node2" class="node"><title>param.parameterized.Parameter</title>
<polygon fill="none" stroke="black" stroke-width="0.5" points="184,-153.5 10,-153.5 10,-132.5 184,-132.5 184,-153.5"/>
<text text-anchor="middle" x="97" y="-140.5" font-family="Vera" font-size="10.00">param.parameterized.Parameter</text>
</g>
<!-- param.parameterized.Parameter&#45;&gt;param.Composite -->
<g id="edge2" class="edge"><title>param.parameterized.Parameter&#45;&gt;param.Composite</title>
<path fill="none" stroke="black" stroke-width="0.5" d="M105.389,-153.301C124.689,-176.211 174.836,-231.379 230,-257 248.668,-265.67 270.61,-270.466 290.416,-273.091"/>
<polygon fill="black" stroke="black" points="290.225,-274.831 295.403,-273.713 290.658,-271.358 290.225,-274.831"/>
</g>
<!-- param.Path -->
<g id="node6" class="node"><title>param.Path</title>
<polygon fill="none" stroke="black" stroke-width="0.5" points="383,-248.5 311,-248.5 311,-227.5 383,-227.5 383,-248.5"/>
<text text-anchor="middle" x="347" y="-235.5" font-family="Vera" font-size="10.00">param.Path</text>
</g>
<!-- param.parameterized.Parameter&#45;&gt;param.Path -->
<g id="edge30" class="edge"><title>param.parameterized.Parameter&#45;&gt;param.Path</title>
<path fill="none" stroke="black" stroke-width="0.5" d="M110.934,-153.239C134.288,-169.857 183.367,-202.501 230,-219 254.349,-227.615 282.945,-232.349 305.771,-234.938"/>
<polygon fill="black" stroke="black" points="305.687,-236.689 310.847,-235.489 306.065,-233.209 305.687,-236.689"/>
</g>
<!-- param.Selector -->
<g id="node11" class="node"><title>param.Selector</title>
<polygon fill="none" stroke="black" stroke-width="0.5" points="392,-210.5 302,-210.5 302,-189.5 392,-189.5 392,-210.5"/>
<text text-anchor="middle" x="347" y="-197.5" font-family="Vera" font-size="10.00">param.Selector</text>
</g>
<!-- param.parameterized.Parameter&#45;&gt;param.Selector -->
<g id="edge8" class="edge"><title>param.parameterized.Parameter&#45;&gt;param.Selector</title>
<path fill="none" stroke="black" stroke-width="0.5" d="M128.175,-153.03C154.96,-161.376 194.727,-173.125 230,-181 251.57,-185.815 275.634,-189.934 296.303,-193.094"/>
<polygon fill="black" stroke="black" points="296.276,-194.86 301.481,-193.876 296.799,-191.399 296.276,-194.86"/>
</g>
<!-- param.Boolean -->
<g id="node16" class="node"><title>param.Boolean</title>
<polygon fill="none" stroke="black" stroke-width="0.5" points="392,-172.5 302,-172.5 302,-151.5 392,-151.5 392,-172.5"/>
<text text-anchor="middle" x="347" y="-159.5" font-family="Vera" font-size="10.00">param.Boolean</text>
</g>
<!-- param.parameterized.Parameter&#45;&gt;param.Boolean -->
<g id="edge14" class="edge"><title>param.parameterized.Parameter&#45;&gt;param.Boolean</title>
<path fill="none" stroke="black" stroke-width="0.5" d="M184.789,-149.672C222.316,-152.524 264.767,-155.75 296.826,-158.187"/>
<polygon fill="black" stroke="black" points="296.762,-159.937 301.88,-158.571 297.027,-156.447 296.762,-159.937"/>
</g>
<!-- param.NumericTuple -->
<g id="node19" class="node"><title>param.NumericTuple</title>
<polygon fill="none" stroke="black" stroke-width="0.5" points="405,-134.5 289,-134.5 289,-113.5 405,-113.5 405,-134.5"/>
<text text-anchor="middle" x="347" y="-121.5" font-family="Vera" font-size="10.00">param.NumericTuple</text>
</g>
<!-- param.parameterized.Parameter&#45;&gt;param.NumericTuple -->
<g id="edge32" class="edge"><title>param.parameterized.Parameter&#45;&gt;param.NumericTuple</title>
<path fill="none" stroke="black" stroke-width="0.5" d="M184.789,-136.328C217.374,-133.852 253.671,-131.093 283.654,-128.814"/>
<polygon fill="black" stroke="black" points="283.939,-130.548 288.792,-128.424 283.674,-127.058 283.939,-130.548"/>
</g>
<!-- param.Dynamic -->
<g id="node32" class="node"><title>param.Dynamic</title>
<polygon fill="none" stroke="black" stroke-width="0.5" points="393,-96.5 301,-96.5 301,-75.5 393,-75.5 393,-96.5"/>
<text text-anchor="middle" x="347" y="-83.5" font-family="Vera" font-size="10.00">param.Dynamic</text>
</g>
<!-- param.parameterized.Parameter&#45;&gt;param.Dynamic -->
<g id="edge36" class="edge"><title>param.parameterized.Parameter&#45;&gt;param.Dynamic</title>
<path fill="none" stroke="black" stroke-width="0.5" d="M128.175,-132.97C154.96,-124.624 194.727,-112.875 230,-105 251.2,-100.267 274.808,-96.2071 295.235,-93.0696"/>
<polygon fill="black" stroke="black" points="295.676,-94.7728 300.357,-92.292 295.151,-91.3125 295.676,-94.7728"/>
</g>
<!-- param.List -->
<g id="node37" class="node"><title>param.List</title>
<polygon fill="none" stroke="black" stroke-width="0.5" points="381,-58.5 313,-58.5 313,-37.5 381,-37.5 381,-58.5"/>
<text text-anchor="middle" x="347" y="-45.5" font-family="Vera" font-size="10.00">param.List</text>
</g>
<!-- param.parameterized.Parameter&#45;&gt;param.List -->
<g id="edge40" class="edge"><title>param.parameterized.Parameter&#45;&gt;param.List</title>
<path fill="none" stroke="black" stroke-width="0.5" d="M110.934,-132.761C134.288,-116.143 183.367,-83.4992 230,-67 255.07,-58.1299 284.643,-53.3734 307.785,-50.8378"/>
<polygon fill="black" stroke="black" points="308.13,-52.5613 312.92,-50.2997 307.765,-49.0803 308.13,-52.5613"/>
</g>
<!-- param.Callable -->
<g id="node43" class="node"><title>param.Callable</title>
<polygon fill="none" stroke="black" stroke-width="0.5" points="391,-20.5 303,-20.5 303,0.5 391,0.5 391,-20.5"/>
<text text-anchor="middle" x="347" y="-7.5" font-family="Vera" font-size="10.00">param.Callable</text>
</g>
<!-- param.parameterized.Parameter&#45;&gt;param.Callable -->
<g id="edge42" class="edge"><title>param.parameterized.Parameter&#45;&gt;param.Callable</title>
<path fill="none" stroke="black" stroke-width="0.5" d="M105.389,-132.699C124.689,-109.789 174.836,-54.621 230,-29 250.821,-19.3298 275.713,-14.4795 297.175,-12.0848"/>
<polygon fill="black" stroke="black" points="297.474,-13.8131 302.266,-11.555 297.112,-10.3319 297.474,-13.8131"/>
</g>
<!-- param.parameterized.Parameterized -->
<g id="node4" class="node"><title>param.parameterized.Parameterized</title>
<polygon fill="none" stroke="black" stroke-width="0.5" points="194,-343.5 5.68434e-14,-343.5 0,-322.5 194,-322.5 194,-343.5"/>
<text text-anchor="middle" x="97" y="-330.5" font-family="Vera" font-size="10.00">param.parameterized.Parameterized</text>
</g>
<!-- param.parameterized.ParameterizedFunction -->
<g id="node9" class="node"><title>param.parameterized.ParameterizedFunction</title>
<polygon fill="none" stroke="black" stroke-width="0.5" points="464,-343.5 230,-343.5 230,-322.5 464,-322.5 464,-343.5"/>
<text text-anchor="middle" x="347" y="-330.5" font-family="Vera" font-size="10.00">param.parameterized.ParameterizedFunction</text>
</g>
<!-- param.parameterized.Parameterized&#45;&gt;param.parameterized.ParameterizedFunction -->
<g id="edge10" class="edge"><title>param.parameterized.Parameterized&#45;&gt;param.parameterized.ParameterizedFunction</title>
<path fill="none" stroke="black" stroke-width="0.5" d="M194.014,-333C204.04,-333 214.319,-333 224.575,-333"/>
<polygon fill="black" stroke="black" points="224.607,-334.75 229.607,-333 224.607,-331.25 224.607,-334.75"/>
</g>
<!-- param.Foldername -->
<g id="node5" class="node"><title>param.Foldername</title>
<polygon fill="none" stroke="black" stroke-width="0.5" points="617,-286.5 509,-286.5 509,-265.5 617,-265.5 617,-286.5"/>
<text text-anchor="middle" x="563" y="-273.5" font-family="Vera" font-size="10.00">param.Foldername</text>
</g>
<!-- param.Path&#45;&gt;param.Foldername -->
<g id="edge4" class="edge"><title>param.Path&#45;&gt;param.Foldername</title>
<path fill="none" stroke="black" stroke-width="0.5" d="M383.149,-243.597C406.293,-247.248 436.949,-252.209 464,-257 477.967,-259.474 493.013,-262.286 507.055,-264.973"/>
<polygon fill="black" stroke="black" points="506.938,-266.733 512.179,-265.957 507.598,-263.296 506.938,-266.733"/>
</g>
<!-- param.Filename -->
<g id="node24" class="node"><title>param.Filename</title>
<polygon fill="none" stroke="black" stroke-width="0.5" points="610,-248.5 516,-248.5 516,-227.5 610,-227.5 610,-248.5"/>
<text text-anchor="middle" x="563" y="-235.5" font-family="Vera" font-size="10.00">param.Filename</text>
</g>
<!-- param.Path&#45;&gt;param.Filename -->
<g id="edge20" class="edge"><title>param.Path&#45;&gt;param.Filename</title>
<path fill="none" stroke="black" stroke-width="0.5" d="M383.154,-238C417.979,-238 471.047,-238 510.521,-238"/>
<polygon fill="black" stroke="black" points="510.753,-239.75 515.753,-238 510.753,-236.25 510.753,-239.75"/>
</g>
<!-- param.resolve_path -->
<g id="node8" class="node"><title>param.resolve_path</title>
<polygon fill="none" stroke="black" stroke-width="0.5" points="619,-371.5 507,-371.5 507,-350.5 619,-350.5 619,-371.5"/>
<text text-anchor="middle" x="563" y="-358.5" font-family="Vera" font-size="10.00">param.resolve_path</text>
</g>
<!-- param.parameterized.ParameterizedFunction&#45;&gt;param.resolve_path -->
<g id="edge6" class="edge"><title>param.parameterized.ParameterizedFunction&#45;&gt;param.resolve_path</title>
<path fill="none" stroke="black" stroke-width="0.5" d="M424.371,-343.03C449.686,-346.311 477.449,-349.91 501.436,-353.02"/>
<polygon fill="black" stroke="black" points="501.312,-354.768 506.495,-353.675 501.762,-351.297 501.312,-354.768"/>
</g>
<!-- param.normalize_path -->
<g id="node30" class="node"><title>param.normalize_path</title>
<polygon fill="none" stroke="black" stroke-width="0.5" points="625,-333.5 501,-333.5 501,-312.5 625,-312.5 625,-333.5"/>
<text text-anchor="middle" x="563" y="-320.5" font-family="Vera" font-size="10.00">param.normalize_path</text>
</g>
<!-- param.parameterized.ParameterizedFunction&#45;&gt;param.normalize_path -->
<g id="edge26" class="edge"><title>param.parameterized.ParameterizedFunction&#45;&gt;param.normalize_path</title>
<path fill="none" stroke="black" stroke-width="0.5" d="M464.166,-327.576C474.807,-327.083 485.329,-326.596 495.314,-326.134"/>
<polygon fill="black" stroke="black" points="495.571,-327.874 500.484,-325.894 495.409,-324.377 495.571,-327.874"/>
</g>
<!-- param.ObjectSelector -->
<g id="node14" class="node"><title>param.ObjectSelector</title>
<polygon fill="none" stroke="black" stroke-width="0.5" points="624,-210.5 502,-210.5 502,-189.5 624,-189.5 624,-210.5"/>
<text text-anchor="middle" x="563" y="-197.5" font-family="Vera" font-size="10.00">param.ObjectSelector</text>
</g>
<!-- param.Selector&#45;&gt;param.ObjectSelector -->
<g id="edge12" class="edge"><title>param.Selector&#45;&gt;param.ObjectSelector</title>
<path fill="none" stroke="black" stroke-width="0.5" d="M392.544,-200C422.739,-200 462.856,-200 496.587,-200"/>
<polygon fill="black" stroke="black" points="496.943,-201.75 501.943,-200 496.943,-198.25 496.943,-201.75"/>
</g>
<!-- param.ClassSelector -->
<g id="node22" class="node"><title>param.ClassSelector</title>
<polygon fill="none" stroke="black" stroke-width="0.5" points="621,-172.5 505,-172.5 505,-151.5 621,-151.5 621,-172.5"/>
<text text-anchor="middle" x="563" y="-159.5" font-family="Vera" font-size="10.00">param.ClassSelector</text>
</g>
<!-- param.Selector&#45;&gt;param.ClassSelector -->
<g id="edge24" class="edge"><title>param.Selector&#45;&gt;param.ClassSelector</title>
<path fill="none" stroke="black" stroke-width="0.5" d="M392.613,-192.903C414.268,-189.455 440.495,-185.163 464,-181 477.967,-178.526 493.013,-175.714 507.055,-173.027"/>
<polygon fill="black" stroke="black" points="507.598,-174.704 512.179,-172.043 506.938,-171.267 507.598,-174.704"/>
</g>
<!-- param.XYCoordinates -->
<g id="node18" class="node"><title>param.XYCoordinates</title>
<polygon fill="none" stroke="black" stroke-width="0.5" points="622,-134.5 504,-134.5 504,-113.5 622,-113.5 622,-134.5"/>
<text text-anchor="middle" x="563" y="-121.5" font-family="Vera" font-size="10.00">param.XYCoordinates</text>
</g>
<!-- param.NumericTuple&#45;&gt;param.XYCoordinates -->
<g id="edge16" class="edge"><title>param.NumericTuple&#45;&gt;param.XYCoordinates</title>
<path fill="none" stroke="black" stroke-width="0.5" d="M405.168,-124C433.871,-124 468.589,-124 498.146,-124"/>
<polygon fill="black" stroke="black" points="498.222,-125.75 503.222,-124 498.222,-122.25 498.222,-125.75"/>
</g>
<!-- param.Array -->
<g id="node21" class="node"><title>param.Array</title>
<polygon fill="none" stroke="black" stroke-width="0.5" points="751,-191.5 675,-191.5 675,-170.5 751,-170.5 751,-191.5"/>
<text text-anchor="middle" x="713" y="-178.5" font-family="Vera" font-size="10.00">param.Array</text>
</g>
<!-- param.ClassSelector&#45;&gt;param.Array -->
<g id="edge18" class="edge"><title>param.ClassSelector&#45;&gt;param.Array</title>
<path fill="none" stroke="black" stroke-width="0.5" d="M621.423,-169.4C637.387,-171.422 654.406,-173.578 669.386,-175.476"/>
<polygon fill="black" stroke="black" points="669.203,-177.216 674.383,-176.109 669.643,-173.744 669.203,-177.216"/>
</g>
<!-- param.Dict -->
<g id="node40" class="node"><title>param.Dict</title>
<polygon fill="none" stroke="black" stroke-width="0.5" points="748,-153.5 678,-153.5 678,-132.5 748,-132.5 748,-153.5"/>
<text text-anchor="middle" x="713" y="-140.5" font-family="Vera" font-size="10.00">param.Dict</text>
</g>
<!-- param.ClassSelector&#45;&gt;param.Dict -->
<g id="edge38" class="edge"><title>param.ClassSelector&#45;&gt;param.Dict</title>
<path fill="none" stroke="black" stroke-width="0.5" d="M621.423,-154.6C638.57,-152.428 656.933,-150.102 672.68,-148.107"/>
<polygon fill="black" stroke="black" points="673.174,-149.809 677.915,-147.444 672.734,-146.336 673.174,-149.809"/>
</g>
<!-- param.Magnitude -->
<g id="node26" class="node"><title>param.Magnitude</title>
<polygon fill="none" stroke="black" stroke-width="0.5" points="763,-115.5 663,-115.5 663,-94.5 763,-94.5 763,-115.5"/>
<text text-anchor="middle" x="713" y="-102.5" font-family="Vera" font-size="10.00">param.Magnitude</text>
</g>
<!-- param.Number -->
<g id="node27" class="node"><title>param.Number</title>
<polygon fill="none" stroke="black" stroke-width="0.5" points="608,-96.5 518,-96.5 518,-75.5 608,-75.5 608,-96.5"/>
<text text-anchor="middle" x="563" y="-83.5" font-family="Vera" font-size="10.00">param.Number</text>
</g>
<!-- param.Number&#45;&gt;param.Magnitude -->
<g id="edge22" class="edge"><title>param.Number&#45;&gt;param.Magnitude</title>
<path fill="none" stroke="black" stroke-width="0.5" d="M608.005,-91.7006C623.49,-93.662 641.017,-95.8821 657.253,-97.9387"/>
<polygon fill="black" stroke="black" points="657.066,-99.6789 662.246,-98.5712 657.506,-96.2067 657.066,-99.6789"/>
</g>
<!-- param.Integer -->
<g id="node45" class="node"><title>param.Integer</title>
<polygon fill="none" stroke="black" stroke-width="0.5" points="755,-77.5 671,-77.5 671,-56.5 755,-56.5 755,-77.5"/>
<text text-anchor="middle" x="713" y="-64.5" font-family="Vera" font-size="10.00">param.Integer</text>
</g>
<!-- param.Number&#45;&gt;param.Integer -->
<g id="edge44" class="edge"><title>param.Number&#45;&gt;param.Integer</title>
<path fill="none" stroke="black" stroke-width="0.5" d="M608.005,-80.2994C626.068,-78.0113 646.911,-75.3713 665.241,-73.0494"/>
<polygon fill="black" stroke="black" points="665.6,-74.7681 670.341,-72.4035 665.16,-71.2958 665.6,-74.7681"/>
</g>
<!-- param.Dynamic&#45;&gt;param.Number -->
<g id="edge28" class="edge"><title>param.Dynamic&#45;&gt;param.Number</title>
<path fill="none" stroke="black" stroke-width="0.5" d="M393.603,-86C428.71,-86 476.779,-86 512.745,-86"/>
<polygon fill="black" stroke="black" points="512.96,-87.7501 517.96,-86 512.96,-84.2501 512.96,-87.7501"/>
</g>
<!-- param.HookList -->
<g id="node36" class="node"><title>param.HookList</title>
<polygon fill="none" stroke="black" stroke-width="0.5" points="609,-58.5 517,-58.5 517,-37.5 609,-37.5 609,-58.5"/>
<text text-anchor="middle" x="563" y="-45.5" font-family="Vera" font-size="10.00">param.HookList</text>
</g>
<!-- param.List&#45;&gt;param.HookList -->
<g id="edge34" class="edge"><title>param.List&#45;&gt;param.HookList</title>
<path fill="none" stroke="black" stroke-width="0.5" d="M381.226,-48C416.29,-48 471.229,-48 511.536,-48"/>
<polygon fill="black" stroke="black" points="511.874,-49.7501 516.874,-48 511.874,-46.2501 511.874,-49.7501"/>
</g>
</g>
</svg>
