<?xml version="1.0" encoding="UTF-8" standalone="no"?>
<!DOCTYPE svg PUBLIC "-//W3C//DTD SVG 1.1//EN"
 "http://www.w3.org/Graphics/SVG/1.1/DTD/svg11.dtd">
<!-- Generated by graphviz version 2.26.3 (20100126.1600)
 -->
<!-- Title: inheritance0bce68b9cf Pages: 1 -->
<svg width="1872pt" height="598pt"
 viewBox="0.00 0.00 1872.00 598.00" xmlns="http://www.w3.org/2000/svg" xmlns:xlink="http://www.w3.org/1999/xlink">
<g id="graph1" class="graph" transform="scale(1 1) rotate(0) translate(4 594)">
<title>inheritance0bce68b9cf</title>
<polygon fill="white" stroke="white" points="-4,5 -4,-594 1869,-594 1869,5 -4,5"/>
<!-- topo.command.analysis.measure_sine_pref -->
<g id="node1" class="node"><title>topo.command.analysis.measure_sine_pref</title>
<polygon fill="none" stroke="black" stroke-width="0.5" points="1842,-590.5 1616,-590.5 1616,-569.5 1842,-569.5 1842,-590.5"/>
<text text-anchor="middle" x="1729" y="-577.5" font-family="Vera" font-size="10.00">topo.command.analysis.measure_sine_pref</text>
</g>
<!-- topo.analysis.featureresponses.SinusoidalMeasureResponseCommand -->
<g id="node2" class="node"><title>topo.analysis.featureresponses.SinusoidalMeasureResponseCommand</title>
<polygon fill="none" stroke="black" stroke-width="0.5" points="1558,-457.5 1202,-457.5 1202,-436.5 1558,-436.5 1558,-457.5"/>
<text text-anchor="middle" x="1380" y="-444.5" font-family="Vera" font-size="10.00">topo.analysis.featureresponses.SinusoidalMeasureResponseCommand</text>
</g>
<!-- topo.analysis.featureresponses.SinusoidalMeasureResponseCommand&#45;&gt;topo.command.analysis.measure_sine_pref -->
<g id="edge2" class="edge"><title>topo.analysis.featureresponses.SinusoidalMeasureResponseCommand&#45;&gt;topo.command.analysis.measure_sine_pref</title>
<path fill="none" stroke="black" stroke-width="0.5" d="M1394.75,-457.238C1428.36,-480.021 1513.94,-534.944 1594,-561 1603.57,-564.116 1613.69,-566.721 1623.91,-568.899"/>
<polygon fill="black" stroke="black" points="1623.69,-570.639 1628.94,-569.934 1624.39,-567.211 1623.69,-570.639"/>
</g>
<!-- topo.command.analysis.measure_dr_pref -->
<g id="node7" class="node"><title>topo.command.analysis.measure_dr_pref</title>
<polygon fill="none" stroke="black" stroke-width="0.5" points="1837,-552.5 1621,-552.5 1621,-531.5 1837,-531.5 1837,-552.5"/>
<text text-anchor="middle" x="1729" y="-539.5" font-family="Vera" font-size="10.00">topo.command.analysis.measure_dr_pref</text>
</g>
<!-- topo.analysis.featureresponses.SinusoidalMeasureResponseCommand&#45;&gt;topo.command.analysis.measure_dr_pref -->
<g id="edge6" class="edge"><title>topo.analysis.featureresponses.SinusoidalMeasureResponseCommand&#45;&gt;topo.command.analysis.measure_dr_pref</title>
<path fill="none" stroke="black" stroke-width="0.5" d="M1403.28,-457.021C1442.08,-473.327 1522.78,-505.531 1594,-523 1606.9,-526.164 1620.63,-528.853 1634.2,-531.125"/>
<polygon fill="black" stroke="black" points="1633.98,-532.861 1639.2,-531.943 1634.55,-529.407 1633.98,-532.861"/>
</g>
<!-- topo.command.analysis.measure_or_pref -->
<g id="node25" class="node"><title>topo.command.analysis.measure_or_pref</title>
<polygon fill="none" stroke="black" stroke-width="0.5" points="1837,-514.5 1621,-514.5 1621,-493.5 1837,-493.5 1837,-514.5"/>
<text text-anchor="middle" x="1729" y="-501.5" font-family="Vera" font-size="10.00">topo.command.analysis.measure_or_pref</text>
</g>
<!-- topo.analysis.featureresponses.SinusoidalMeasureResponseCommand&#45;&gt;topo.command.analysis.measure_or_pref -->
<g id="edge24" class="edge"><title>topo.analysis.featureresponses.SinusoidalMeasureResponseCommand&#45;&gt;topo.command.analysis.measure_or_pref</title>
<path fill="none" stroke="black" stroke-width="0.5" d="M1433.56,-457.06C1476.79,-465.048 1539.22,-476.284 1594,-485 1611.84,-487.838 1631.04,-490.673 1649.21,-493.254"/>
<polygon fill="black" stroke="black" points="1649.11,-495.007 1654.3,-493.975 1649.6,-491.542 1649.11,-495.007"/>
</g>
<!-- topo.command.analysis.measure_od_pref -->
<g id="node30" class="node"><title>topo.command.analysis.measure_od_pref</title>
<polygon fill="none" stroke="black" stroke-width="0.5" points="1838,-476.5 1620,-476.5 1620,-455.5 1838,-455.5 1838,-476.5"/>
<text text-anchor="middle" x="1729" y="-463.5" font-family="Vera" font-size="10.00">topo.command.analysis.measure_od_pref</text>
</g>
<!-- topo.analysis.featureresponses.SinusoidalMeasureResponseCommand&#45;&gt;topo.command.analysis.measure_od_pref -->
<g id="edge30" class="edge"><title>topo.analysis.featureresponses.SinusoidalMeasureResponseCommand&#45;&gt;topo.command.analysis.measure_od_pref</title>
<path fill="none" stroke="black" stroke-width="0.5" d="M1558.08,-456.695C1577.28,-457.74 1596.42,-458.782 1614.58,-459.771"/>
<polygon fill="black" stroke="black" points="1614.58,-461.524 1619.67,-460.048 1614.77,-458.029 1614.58,-461.524"/>
</g>
<!-- topo.command.analysis.measure_phasedisparity -->
<g id="node51" class="node"><title>topo.command.analysis.measure_phasedisparity</title>
<polygon fill="none" stroke="black" stroke-width="0.5" points="1855,-438.5 1603,-438.5 1603,-417.5 1855,-417.5 1855,-438.5"/>
<text text-anchor="middle" x="1729" y="-425.5" font-family="Vera" font-size="10.00">topo.command.analysis.measure_phasedisparity</text>
</g>
<!-- topo.analysis.featureresponses.SinusoidalMeasureResponseCommand&#45;&gt;topo.command.analysis.measure_phasedisparity -->
<g id="edge50" class="edge"><title>topo.analysis.featureresponses.SinusoidalMeasureResponseCommand&#45;&gt;topo.command.analysis.measure_phasedisparity</title>
<path fill="none" stroke="black" stroke-width="0.5" d="M1558.08,-437.305C1571.43,-436.578 1584.75,-435.853 1597.74,-435.146"/>
<polygon fill="black" stroke="black" points="1597.99,-436.885 1602.89,-434.866 1597.8,-433.39 1597.99,-436.885"/>
</g>
<!-- topo.command.analysis.measure_hue_pref -->
<g id="node56" class="node"><title>topo.command.analysis.measure_hue_pref</title>
<polygon fill="none" stroke="black" stroke-width="0.5" points="1841,-400.5 1617,-400.5 1617,-379.5 1841,-379.5 1841,-400.5"/>
<text text-anchor="middle" x="1729" y="-387.5" font-family="Vera" font-size="10.00">topo.command.analysis.measure_hue_pref</text>
</g>
<!-- topo.analysis.featureresponses.SinusoidalMeasureResponseCommand&#45;&gt;topo.command.analysis.measure_hue_pref -->
<g id="edge56" class="edge"><title>topo.analysis.featureresponses.SinusoidalMeasureResponseCommand&#45;&gt;topo.command.analysis.measure_hue_pref</title>
<path fill="none" stroke="black" stroke-width="0.5" d="M1433.56,-436.94C1476.79,-428.952 1539.22,-417.716 1594,-409 1611.84,-406.162 1631.04,-403.327 1649.21,-400.746"/>
<polygon fill="black" stroke="black" points="1649.6,-402.458 1654.3,-400.025 1649.11,-398.993 1649.6,-402.458"/>
</g>
<!-- topo.command.analysis.measure_second_or_pref -->
<g id="node62" class="node"><title>topo.command.analysis.measure_second_or_pref</title>
<polygon fill="none" stroke="black" stroke-width="0.5" points="1857,-362.5 1601,-362.5 1601,-341.5 1857,-341.5 1857,-362.5"/>
<text text-anchor="middle" x="1729" y="-349.5" font-family="Vera" font-size="10.00">topo.command.analysis.measure_second_or_pref</text>
</g>
<!-- topo.analysis.featureresponses.SinusoidalMeasureResponseCommand&#45;&gt;topo.command.analysis.measure_second_or_pref -->
<g id="edge62" class="edge"><title>topo.analysis.featureresponses.SinusoidalMeasureResponseCommand&#45;&gt;topo.command.analysis.measure_second_or_pref</title>
<path fill="none" stroke="black" stroke-width="0.5" d="M1478.03,-436.965C1505.14,-431.351 1533.75,-422.608 1558,-409 1578.29,-397.615 1573.32,-381.663 1594,-371 1599.34,-368.246 1604.95,-365.851 1610.72,-363.771"/>
<polygon fill="black" stroke="black" points="1611.45,-365.374 1615.61,-362.097 1610.31,-362.063 1611.45,-365.374"/>
</g>
<!-- topo.command.analysis.measure_frequency_preference -->
<g id="node4" class="node"><title>topo.command.analysis.measure_frequency_preference</title>
<polygon fill="none" stroke="black" stroke-width="0.5" points="1523,-400.5 1237,-400.5 1237,-379.5 1523,-379.5 1523,-400.5"/>
<text text-anchor="middle" x="1380" y="-387.5" font-family="Vera" font-size="10.00">topo.command.analysis.measure_frequency_preference</text>
</g>
<!-- topo.analysis.featureresponses.MeasureResponseCommand -->
<g id="node5" class="node"><title>topo.analysis.featureresponses.MeasureResponseCommand</title>
<polygon fill="none" stroke="black" stroke-width="0.5" points="1165,-324.5 859,-324.5 859,-303.5 1165,-303.5 1165,-324.5"/>
<text text-anchor="middle" x="1012" y="-311.5" font-family="Vera" font-size="10.00">topo.analysis.featureresponses.MeasureResponseCommand</text>
</g>
<!-- topo.analysis.featureresponses.MeasureResponseCommand&#45;&gt;topo.analysis.featureresponses.SinusoidalMeasureResponseCommand -->
<g id="edge18" class="edge"><title>topo.analysis.featureresponses.MeasureResponseCommand&#45;&gt;topo.analysis.featureresponses.SinusoidalMeasureResponseCommand</title>
<path fill="none" stroke="black" stroke-width="0.5" d="M1028.65,-324.153C1060.95,-343.421 1134.83,-385.465 1202,-409 1236.25,-421 1275.6,-429.882 1308.57,-436.027"/>
<polygon fill="black" stroke="black" points="1308.58,-437.807 1313.81,-436.99 1309.21,-434.364 1308.58,-437.807"/>
</g>
<!-- topo.analysis.featureresponses.MeasureResponseCommand&#45;&gt;topo.command.analysis.measure_frequency_preference -->
<g id="edge4" class="edge"><title>topo.analysis.featureresponses.MeasureResponseCommand&#45;&gt;topo.command.analysis.measure_frequency_preference</title>
<path fill="none" stroke="black" stroke-width="0.5" d="M1039.6,-324.042C1076.21,-336.955 1143.09,-359.126 1202,-371 1218.29,-374.283 1235.54,-377.024 1252.64,-379.305"/>
<polygon fill="black" stroke="black" points="1252.75,-381.085 1257.94,-379.999 1253.21,-377.615 1252.75,-381.085"/>
</g>
<!-- topo.command.analysis.measure_latency_preference -->
<g id="node14" class="node"><title>topo.command.analysis.measure_latency_preference</title>
<polygon fill="none" stroke="black" stroke-width="0.5" points="1517,-362.5 1243,-362.5 1243,-341.5 1517,-341.5 1517,-362.5"/>
<text text-anchor="middle" x="1380" y="-349.5" font-family="Vera" font-size="10.00">topo.command.analysis.measure_latency_preference</text>
</g>
<!-- topo.analysis.featureresponses.MeasureResponseCommand&#45;&gt;topo.command.analysis.measure_latency_preference -->
<g id="edge12" class="edge"><title>topo.analysis.featureresponses.MeasureResponseCommand&#45;&gt;topo.command.analysis.measure_latency_preference</title>
<path fill="none" stroke="black" stroke-width="0.5" d="M1109.17,-324.034C1161.15,-329.402 1225.14,-336.009 1277.86,-341.453"/>
<polygon fill="black" stroke="black" points="1277.77,-343.203 1282.93,-341.976 1278.13,-339.722 1277.77,-343.203"/>
</g>
<!-- topo.analysis.featureresponses.SingleInputResponseCommand -->
<g id="node22" class="node"><title>topo.analysis.featureresponses.SingleInputResponseCommand</title>
<polygon fill="none" stroke="black" stroke-width="0.5" points="1539,-324.5 1221,-324.5 1221,-303.5 1539,-303.5 1539,-324.5"/>
<text text-anchor="middle" x="1380" y="-311.5" font-family="Vera" font-size="10.00">topo.analysis.featureresponses.SingleInputResponseCommand</text>
</g>
<!-- topo.analysis.featureresponses.MeasureResponseCommand&#45;&gt;topo.analysis.featureresponses.SingleInputResponseCommand -->
<g id="edge20" class="edge"><title>topo.analysis.featureresponses.MeasureResponseCommand&#45;&gt;topo.analysis.featureresponses.SingleInputResponseCommand</title>
<path fill="none" stroke="black" stroke-width="0.5" d="M1165.67,-314C1182.01,-314 1198.68,-314 1215.14,-314"/>
<polygon fill="black" stroke="black" points="1215.25,-315.75 1220.25,-314 1215.25,-312.25 1215.25,-315.75"/>
</g>
<!-- topo.analysis.featureresponses.PositionMeasurementCommand -->
<g id="node33" class="node"><title>topo.analysis.featureresponses.PositionMeasurementCommand</title>
<polygon fill="none" stroke="black" stroke-width="0.5" points="1542,-286.5 1218,-286.5 1218,-265.5 1542,-265.5 1542,-286.5"/>
<text text-anchor="middle" x="1380" y="-273.5" font-family="Vera" font-size="10.00">topo.analysis.featureresponses.PositionMeasurementCommand</text>
</g>
<!-- topo.analysis.featureresponses.MeasureResponseCommand&#45;&gt;topo.analysis.featureresponses.PositionMeasurementCommand -->
<g id="edge54" class="edge"><title>topo.analysis.featureresponses.MeasureResponseCommand&#45;&gt;topo.analysis.featureresponses.PositionMeasurementCommand</title>
<path fill="none" stroke="black" stroke-width="0.5" d="M1109.17,-303.966C1161.15,-298.598 1225.14,-291.991 1277.86,-286.547"/>
<polygon fill="black" stroke="black" points="1278.13,-288.278 1282.93,-286.024 1277.77,-284.797 1278.13,-288.278"/>
</g>
<!-- topo.command.analysis.measure_log_frequency_preference -->
<g id="node66" class="node"><title>topo.command.analysis.measure_log_frequency_preference</title>
<polygon fill="none" stroke="black" stroke-width="0.5" points="1533,-248.5 1227,-248.5 1227,-227.5 1533,-227.5 1533,-248.5"/>
<text text-anchor="middle" x="1380" y="-235.5" font-family="Vera" font-size="10.00">topo.command.analysis.measure_log_frequency_preference</text>
</g>
<!-- topo.analysis.featureresponses.MeasureResponseCommand&#45;&gt;topo.command.analysis.measure_log_frequency_preference -->
<g id="edge66" class="edge"><title>topo.analysis.featureresponses.MeasureResponseCommand&#45;&gt;topo.command.analysis.measure_log_frequency_preference</title>
<path fill="none" stroke="black" stroke-width="0.5" d="M1039.6,-303.958C1076.21,-291.045 1143.09,-268.874 1202,-257 1218.29,-253.717 1235.54,-250.976 1252.64,-248.695"/>
<polygon fill="black" stroke="black" points="1253.21,-250.385 1257.94,-248.001 1252.75,-246.915 1253.21,-250.385"/>
</g>
<!-- topo.analysis.featureresponses.PatternPresentingCommand -->
<g id="node9" class="node"><title>topo.analysis.featureresponses.PatternPresentingCommand</title>
<polygon fill="none" stroke="black" stroke-width="0.5" points="813,-286.5 509,-286.5 509,-265.5 813,-265.5 813,-286.5"/>
<text text-anchor="middle" x="661" y="-273.5" font-family="Vera" font-size="10.00">topo.analysis.featureresponses.PatternPresentingCommand</text>
</g>
<!-- topo.analysis.featureresponses.PatternPresentingCommand&#45;&gt;topo.analysis.featureresponses.MeasureResponseCommand -->
<g id="edge8" class="edge"><title>topo.analysis.featureresponses.PatternPresentingCommand&#45;&gt;topo.analysis.featureresponses.MeasureResponseCommand</title>
<path fill="none" stroke="black" stroke-width="0.5" d="M753.68,-286.034C803.164,-291.391 864.045,-297.982 914.273,-303.42"/>
<polygon fill="black" stroke="black" points="914.25,-305.178 919.409,-303.976 914.627,-301.698 914.25,-305.178"/>
</g>
<!-- topo.base.functionfamily.PatternDrivenAnalysis -->
<g id="node11" class="node"><title>topo.base.functionfamily.PatternDrivenAnalysis</title>
<polygon fill="none" stroke="black" stroke-width="0.5" points="781,-210.5 541,-210.5 541,-189.5 781,-189.5 781,-210.5"/>
<text text-anchor="middle" x="661" y="-197.5" font-family="Vera" font-size="10.00">topo.base.functionfamily.PatternDrivenAnalysis</text>
</g>
<!-- topo.analysis.featureresponses.FeatureResponses -->
<g id="node41" class="node"><title>topo.analysis.featureresponses.FeatureResponses</title>
<polygon fill="none" stroke="black" stroke-width="0.5" points="1140,-210.5 884,-210.5 884,-189.5 1140,-189.5 1140,-210.5"/>
<text text-anchor="middle" x="1012" y="-197.5" font-family="Vera" font-size="10.00">topo.analysis.featureresponses.FeatureResponses</text>
</g>
<!-- topo.base.functionfamily.PatternDrivenAnalysis&#45;&gt;topo.analysis.featureresponses.FeatureResponses -->
<g id="edge40" class="edge"><title>topo.base.functionfamily.PatternDrivenAnalysis&#45;&gt;topo.analysis.featureresponses.FeatureResponses</title>
<path fill="none" stroke="black" stroke-width="0.5" d="M781.303,-200C812.573,-200 846.446,-200 878.359,-200"/>
<polygon fill="black" stroke="black" points="878.463,-201.75 883.463,-200 878.463,-198.25 878.463,-201.75"/>
</g>
<!-- param.parameterized.ParameterizedFunction -->
<g id="node12" class="node"><title>param.parameterized.ParameterizedFunction</title>
<polygon fill="none" stroke="black" stroke-width="0.5" points="464,-172.5 230,-172.5 230,-151.5 464,-151.5 464,-172.5"/>
<text text-anchor="middle" x="347" y="-159.5" font-family="Vera" font-size="10.00">param.parameterized.ParameterizedFunction</text>
</g>
<!-- param.parameterized.ParameterizedFunction&#45;&gt;topo.analysis.featureresponses.PatternPresentingCommand -->
<g id="edge16" class="edge"><title>param.parameterized.ParameterizedFunction&#45;&gt;topo.analysis.featureresponses.PatternPresentingCommand</title>
<path fill="none" stroke="black" stroke-width="0.5" d="M373.486,-172.017C403.954,-183.505 455.507,-202.837 500,-219 543.782,-234.904 594.458,-252.754 627.08,-264.172"/>
<polygon fill="black" stroke="black" points="626.859,-265.949 632.157,-265.948 628.015,-262.645 626.859,-265.949"/>
</g>
<!-- param.parameterized.ParameterizedFunction&#45;&gt;topo.base.functionfamily.PatternDrivenAnalysis -->
<g id="edge10" class="edge"><title>param.parameterized.ParameterizedFunction&#45;&gt;topo.base.functionfamily.PatternDrivenAnalysis</title>
<path fill="none" stroke="black" stroke-width="0.5" d="M426.793,-172.002C450.364,-174.932 476.218,-178.12 500,-181 522.73,-183.752 547.271,-186.674 570.177,-189.38"/>
<polygon fill="black" stroke="black" points="570.174,-191.141 575.345,-189.99 570.584,-187.665 570.174,-191.141"/>
</g>
<!-- topo.plotting.plotgroup.ProjectionSheetMeasurementCommand -->
<g id="node28" class="node"><title>topo.plotting.plotgroup.ProjectionSheetMeasurementCommand</title>
<polygon fill="none" stroke="black" stroke-width="0.5" points="822,-172.5 500,-172.5 500,-151.5 822,-151.5 822,-172.5"/>
<text text-anchor="middle" x="661" y="-159.5" font-family="Vera" font-size="10.00">topo.plotting.plotgroup.ProjectionSheetMeasurementCommand</text>
</g>
<!-- param.parameterized.ParameterizedFunction&#45;&gt;topo.plotting.plotgroup.ProjectionSheetMeasurementCommand -->
<g id="edge28" class="edge"><title>param.parameterized.ParameterizedFunction&#45;&gt;topo.plotting.plotgroup.ProjectionSheetMeasurementCommand</title>
<path fill="none" stroke="black" stroke-width="0.5" d="M464.369,-162C474.323,-162 484.506,-162 494.741,-162"/>
<polygon fill="black" stroke="black" points="494.769,-163.75 499.769,-162 494.769,-160.25 494.769,-163.75"/>
</g>
<!-- topo.command.analysis.save_plotgroup -->
<g id="node47" class="node"><title>topo.command.analysis.save_plotgroup</title>
<polygon fill="none" stroke="black" stroke-width="0.5" points="765,-134.5 557,-134.5 557,-113.5 765,-113.5 765,-134.5"/>
<text text-anchor="middle" x="661" y="-121.5" font-family="Vera" font-size="10.00">topo.command.analysis.save_plotgroup</text>
</g>
<!-- param.parameterized.ParameterizedFunction&#45;&gt;topo.command.analysis.save_plotgroup -->
<g id="edge46" class="edge"><title>param.parameterized.ParameterizedFunction&#45;&gt;topo.command.analysis.save_plotgroup</title>
<path fill="none" stroke="black" stroke-width="0.5" d="M426.793,-151.998C450.364,-149.068 476.218,-145.88 500,-143 522.73,-140.248 547.271,-137.326 570.177,-134.62"/>
<polygon fill="black" stroke="black" points="570.584,-136.335 575.345,-134.01 570.174,-132.859 570.584,-136.335"/>
</g>
<!-- topo.command.analysis.frequency_mapper -->
<g id="node16" class="node"><title>topo.command.analysis.frequency_mapper</title>
<polygon fill="none" stroke="black" stroke-width="0.5" points="773,-96.5 549,-96.5 549,-75.5 773,-75.5 773,-96.5"/>
<text text-anchor="middle" x="661" y="-83.5" font-family="Vera" font-size="10.00">topo.command.analysis.frequency_mapper</text>
</g>
<!-- imagen.patterngenerator.PatternGenerator -->
<g id="node17" class="node"><title>imagen.patterngenerator.PatternGenerator</title>
<polygon fill="none" stroke="black" stroke-width="0.5" points="459,-77.5 235,-77.5 235,-56.5 459,-56.5 459,-77.5"/>
<text text-anchor="middle" x="347" y="-64.5" font-family="Vera" font-size="10.00">imagen.patterngenerator.PatternGenerator</text>
</g>
<!-- imagen.patterngenerator.PatternGenerator&#45;&gt;topo.command.analysis.frequency_mapper -->
<g id="edge14" class="edge"><title>imagen.patterngenerator.PatternGenerator&#45;&gt;topo.command.analysis.frequency_mapper</title>
<path fill="none" stroke="black" stroke-width="0.5" d="M459.031,-73.779C486.472,-75.4394 515.915,-77.221 543.6,-78.8962"/>
<polygon fill="black" stroke="black" points="543.651,-80.6524 548.748,-79.2077 543.862,-77.1588 543.651,-80.6524"/>
</g>
<!-- topo.command.analysis.log_frequency_mapper -->
<g id="node39" class="node"><title>topo.command.analysis.log_frequency_mapper</title>
<polygon fill="none" stroke="black" stroke-width="0.5" points="783,-58.5 539,-58.5 539,-37.5 783,-37.5 783,-58.5"/>
<text text-anchor="middle" x="661" y="-45.5" font-family="Vera" font-size="10.00">topo.command.analysis.log_frequency_mapper</text>
</g>
<!-- imagen.patterngenerator.PatternGenerator&#45;&gt;topo.command.analysis.log_frequency_mapper -->
<g id="edge38" class="edge"><title>imagen.patterngenerator.PatternGenerator&#45;&gt;topo.command.analysis.log_frequency_mapper</title>
<path fill="none" stroke="black" stroke-width="0.5" d="M459.031,-60.221C483.203,-58.7584 508.927,-57.2019 533.635,-55.7068"/>
<polygon fill="black" stroke="black" points="534.006,-57.4377 538.891,-55.3888 533.794,-53.944 534.006,-57.4377"/>
</g>
<!-- topo.command.analysis.latency_mapper -->
<g id="node58" class="node"><title>topo.command.analysis.latency_mapper</title>
<polygon fill="none" stroke="black" stroke-width="0.5" points="767,-20.5 555,-20.5 555,0.5 767,0.5 767,-20.5"/>
<text text-anchor="middle" x="661" y="-7.5" font-family="Vera" font-size="10.00">topo.command.analysis.latency_mapper</text>
</g>
<!-- imagen.patterngenerator.PatternGenerator&#45;&gt;topo.command.analysis.latency_mapper -->
<g id="edge58" class="edge"><title>imagen.patterngenerator.PatternGenerator&#45;&gt;topo.command.analysis.latency_mapper</title>
<path fill="none" stroke="black" stroke-width="0.5" d="M429.959,-56.9691C441.538,-54.5767 453.171,-51.6285 464,-48 481.154,-42.2522 482.725,-34.3732 500,-29 515.71,-24.1139 532.639,-20.4685 549.412,-17.752"/>
<polygon fill="black" stroke="black" points="549.942,-19.4405 554.611,-16.9384 549.4,-15.9826 549.942,-19.4405"/>
</g>
<!-- param.parameterized.Parameterized -->
<g id="node20" class="node"><title>param.parameterized.Parameterized</title>
<polygon fill="none" stroke="black" stroke-width="0.5" points="194,-77.5 5.68434e-14,-77.5 0,-56.5 194,-56.5 194,-77.5"/>
<text text-anchor="middle" x="97" y="-64.5" font-family="Vera" font-size="10.00">param.parameterized.Parameterized</text>
</g>
<!-- param.parameterized.Parameterized&#45;&gt;param.parameterized.ParameterizedFunction -->
<g id="edge22" class="edge"><title>param.parameterized.Parameterized&#45;&gt;param.parameterized.ParameterizedFunction</title>
<path fill="none" stroke="black" stroke-width="0.5" d="M123.754,-77.1667C170.275,-94.8444 265.838,-131.159 315.489,-150.026"/>
<polygon fill="black" stroke="black" points="315.142,-151.766 320.438,-151.906 316.386,-148.494 315.142,-151.766"/>
</g>
<!-- param.parameterized.Parameterized&#45;&gt;imagen.patterngenerator.PatternGenerator -->
<g id="edge26" class="edge"><title>param.parameterized.Parameterized&#45;&gt;imagen.patterngenerator.PatternGenerator</title>
<path fill="none" stroke="black" stroke-width="0.5" d="M194.014,-67C205.664,-67 217.655,-67 229.554,-67"/>
<polygon fill="black" stroke="black" points="229.647,-68.7501 234.647,-67 229.647,-65.2501 229.647,-68.7501"/>
</g>
<!-- topo.command.analysis.PatternPresenter2 -->
<g id="node64" class="node"><title>topo.command.analysis.PatternPresenter2</title>
<polygon fill="none" stroke="black" stroke-width="0.5" points="457,-39.5 237,-39.5 237,-18.5 457,-18.5 457,-39.5"/>
<text text-anchor="middle" x="347" y="-26.5" font-family="Vera" font-size="10.00">topo.command.analysis.PatternPresenter2</text>
</g>
<!-- param.parameterized.Parameterized&#45;&gt;topo.command.analysis.PatternPresenter2 -->
<g id="edge64" class="edge"><title>param.parameterized.Parameterized&#45;&gt;topo.command.analysis.PatternPresenter2</title>
<path fill="none" stroke="black" stroke-width="0.5" d="M163.012,-56.9662C197.758,-51.6848 240.394,-45.204 275.872,-39.8115"/>
<polygon fill="black" stroke="black" points="276.372,-41.5056 281.052,-39.024 275.846,-38.0454 276.372,-41.5056"/>
</g>
<!-- topo.command.analysis.measure_rfs -->
<g id="node43" class="node"><title>topo.command.analysis.measure_rfs</title>
<polygon fill="none" stroke="black" stroke-width="0.5" points="1826,-324.5 1632,-324.5 1632,-303.5 1826,-303.5 1826,-324.5"/>
<text text-anchor="middle" x="1729" y="-311.5" font-family="Vera" font-size="10.00">topo.command.analysis.measure_rfs</text>
</g>
<!-- topo.analysis.featureresponses.SingleInputResponseCommand&#45;&gt;topo.command.analysis.measure_rfs -->
<g id="edge42" class="edge"><title>topo.analysis.featureresponses.SingleInputResponseCommand&#45;&gt;topo.command.analysis.measure_rfs</title>
<path fill="none" stroke="black" stroke-width="0.5" d="M1539.69,-314C1569.26,-314 1599.4,-314 1626.68,-314"/>
<polygon fill="black" stroke="black" points="1626.74,-315.75 1631.74,-314 1626.74,-312.25 1626.74,-315.75"/>
</g>
<!-- topo.plotting.plotgroup.UnitMeasurementCommand -->
<g id="node35" class="node"><title>topo.plotting.plotgroup.UnitMeasurementCommand</title>
<polygon fill="none" stroke="black" stroke-width="0.5" points="1145,-172.5 879,-172.5 879,-151.5 1145,-151.5 1145,-172.5"/>
<text text-anchor="middle" x="1012" y="-159.5" font-family="Vera" font-size="10.00">topo.plotting.plotgroup.UnitMeasurementCommand</text>
</g>
<!-- topo.plotting.plotgroup.ProjectionSheetMeasurementCommand&#45;&gt;topo.plotting.plotgroup.UnitMeasurementCommand -->
<g id="edge34" class="edge"><title>topo.plotting.plotgroup.ProjectionSheetMeasurementCommand&#45;&gt;topo.plotting.plotgroup.UnitMeasurementCommand</title>
<path fill="none" stroke="black" stroke-width="0.5" d="M822.118,-162C839.348,-162 856.765,-162 873.698,-162"/>
<polygon fill="black" stroke="black" points="873.936,-163.75 878.936,-162 873.936,-160.25 873.936,-163.75"/>
</g>
<!-- topo.command.analysis.update_projectionactivity -->
<g id="node60" class="node"><title>topo.command.analysis.update_projectionactivity</title>
<polygon fill="none" stroke="black" stroke-width="0.5" points="1139,-134.5 885,-134.5 885,-113.5 1139,-113.5 1139,-134.5"/>
<text text-anchor="middle" x="1012" y="-121.5" font-family="Vera" font-size="10.00">topo.command.analysis.update_projectionactivity</text>
</g>
<!-- topo.plotting.plotgroup.ProjectionSheetMeasurementCommand&#45;&gt;topo.command.analysis.update_projectionactivity -->
<g id="edge60" class="edge"><title>topo.plotting.plotgroup.ProjectionSheetMeasurementCommand&#45;&gt;topo.command.analysis.update_projectionactivity</title>
<path fill="none" stroke="black" stroke-width="0.5" d="M753.68,-151.966C803.164,-146.609 864.045,-140.018 914.273,-134.58"/>
<polygon fill="black" stroke="black" points="914.627,-136.302 919.409,-134.024 914.25,-132.822 914.627,-136.302"/>
</g>
<!-- topo.command.analysis.measure_corner_angle_pref -->
<g id="node32" class="node"><title>topo.command.analysis.measure_corner_angle_pref</title>
<polygon fill="none" stroke="black" stroke-width="0.5" points="1863,-286.5 1595,-286.5 1595,-265.5 1863,-265.5 1863,-286.5"/>
<text text-anchor="middle" x="1729" y="-273.5" font-family="Vera" font-size="10.00">topo.command.analysis.measure_corner_angle_pref</text>
</g>
<!-- topo.analysis.featureresponses.PositionMeasurementCommand&#45;&gt;topo.command.analysis.measure_corner_angle_pref -->
<g id="edge32" class="edge"><title>topo.analysis.featureresponses.PositionMeasurementCommand&#45;&gt;topo.command.analysis.measure_corner_angle_pref</title>
<path fill="none" stroke="black" stroke-width="0.5" d="M1542.24,-276C1557.91,-276 1573.72,-276 1589.15,-276"/>
<polygon fill="black" stroke="black" points="1589.36,-277.75 1594.36,-276 1589.36,-274.25 1589.36,-277.75"/>
</g>
<!-- topo.command.analysis.measure_corner_or_pref -->
<g id="node45" class="node"><title>topo.command.analysis.measure_corner_or_pref</title>
<polygon fill="none" stroke="black" stroke-width="0.5" points="1855,-248.5 1603,-248.5 1603,-227.5 1855,-227.5 1855,-248.5"/>
<text text-anchor="middle" x="1729" y="-235.5" font-family="Vera" font-size="10.00">topo.command.analysis.measure_corner_or_pref</text>
</g>
<!-- topo.analysis.featureresponses.PositionMeasurementCommand&#45;&gt;topo.command.analysis.measure_corner_or_pref -->
<g id="edge44" class="edge"><title>topo.analysis.featureresponses.PositionMeasurementCommand&#45;&gt;topo.command.analysis.measure_corner_or_pref</title>
<path fill="none" stroke="black" stroke-width="0.5" d="M1474.7,-265.969C1501.62,-263.096 1530.97,-259.945 1558,-257 1582.67,-254.312 1609.34,-251.368 1634.12,-248.616"/>
<polygon fill="black" stroke="black" points="1634.6,-250.324 1639.37,-248.032 1634.21,-246.845 1634.6,-250.324"/>
</g>
<!-- topo.command.analysis.update_projection -->
<g id="node37" class="node"><title>topo.command.analysis.update_projection</title>
<polygon fill="none" stroke="black" stroke-width="0.5" points="1490,-172.5 1270,-172.5 1270,-151.5 1490,-151.5 1490,-172.5"/>
<text text-anchor="middle" x="1380" y="-159.5" font-family="Vera" font-size="10.00">topo.command.analysis.update_projection</text>
</g>
<!-- topo.plotting.plotgroup.UnitMeasurementCommand&#45;&gt;topo.command.analysis.update_projection -->
<g id="edge36" class="edge"><title>topo.plotting.plotgroup.UnitMeasurementCommand&#45;&gt;topo.command.analysis.update_projection</title>
<path fill="none" stroke="black" stroke-width="0.5" d="M1145.12,-162C1184.11,-162 1226.42,-162 1264.24,-162"/>
<polygon fill="black" stroke="black" points="1264.3,-163.75 1269.3,-162 1264.3,-160.25 1264.3,-163.75"/>
</g>
<!-- topo.command.analysis.update_connectionfields -->
<g id="node53" class="node"><title>topo.command.analysis.update_connectionfields</title>
<polygon fill="none" stroke="black" stroke-width="0.5" points="1505,-134.5 1255,-134.5 1255,-113.5 1505,-113.5 1505,-134.5"/>
<text text-anchor="middle" x="1380" y="-121.5" font-family="Vera" font-size="10.00">topo.command.analysis.update_connectionfields</text>
</g>
<!-- topo.plotting.plotgroup.UnitMeasurementCommand&#45;&gt;topo.command.analysis.update_connectionfields -->
<g id="edge52" class="edge"><title>topo.plotting.plotgroup.UnitMeasurementCommand&#45;&gt;topo.command.analysis.update_connectionfields</title>
<path fill="none" stroke="black" stroke-width="0.5" d="M1109.17,-151.966C1161.15,-146.598 1225.14,-139.991 1277.86,-134.547"/>
<polygon fill="black" stroke="black" points="1278.13,-136.278 1282.93,-134.024 1277.77,-132.797 1278.13,-136.278"/>
</g>
<!-- topo.command.analysis.measure_activity -->
<g id="node49" class="node"><title>topo.command.analysis.measure_activity</title>
<polygon fill="none" stroke="black" stroke-width="0.5" points="1488,-210.5 1272,-210.5 1272,-189.5 1488,-189.5 1488,-210.5"/>
<text text-anchor="middle" x="1380" y="-197.5" font-family="Vera" font-size="10.00">topo.command.analysis.measure_activity</text>
</g>
<!-- topo.analysis.featureresponses.FeatureResponses&#45;&gt;topo.command.analysis.measure_activity -->
<g id="edge48" class="edge"><title>topo.analysis.featureresponses.FeatureResponses&#45;&gt;topo.command.analysis.measure_activity</title>
<path fill="none" stroke="black" stroke-width="0.5" d="M1140.71,-200C1181.67,-200 1226.66,-200 1266.47,-200"/>
<polygon fill="black" stroke="black" points="1266.8,-201.75 1271.8,-200 1266.8,-198.25 1266.8,-201.75"/>
</g>
</g>
</svg>
