<?xml version="1.0" encoding="UTF-8" standalone="no"?>
<!DOCTYPE svg PUBLIC "-//W3C//DTD SVG 1.1//EN"
 "http://www.w3.org/Graphics/SVG/1.1/DTD/svg11.dtd">
<!-- Generated by graphviz version 2.26.3 (20100126.1600)
 -->
<!-- Title: inheritancef1ac05fc54 Pages: 1 -->
<svg width="834pt" height="294pt"
 viewBox="0.00 0.00 834.00 294.00" xmlns="http://www.w3.org/2000/svg" xmlns:xlink="http://www.w3.org/1999/xlink">
<g id="graph1" class="graph" transform="scale(1 1) rotate(0) translate(4 290)">
<title>inheritancef1ac05fc54</title>
<polygon fill="white" stroke="white" points="-4,5 -4,-290 831,-290 831,5 -4,5"/>
<!-- numbergen.UnaryOperator -->
<g id="node1" class="node"><title>numbergen.UnaryOperator</title>
<polygon fill="none" stroke="black" stroke-width="0.5" points="592,-281.5 446,-281.5 446,-260.5 592,-260.5 592,-281.5"/>
<text text-anchor="middle" x="519" y="-268.5" font-family="Vera" font-size="10.00">numbergen.UnaryOperator</text>
</g>
<!-- numbergen.NumberGenerator -->
<g id="node2" class="node"><title>numbergen.NumberGenerator</title>
<polygon fill="none" stroke="black" stroke-width="0.5" points="393,-196.5 231,-196.5 231,-175.5 393,-175.5 393,-196.5"/>
<text text-anchor="middle" x="312" y="-183.5" font-family="Vera" font-size="10.00">numbergen.NumberGenerator</text>
</g>
<!-- numbergen.NumberGenerator&#45;&gt;numbergen.UnaryOperator -->
<g id="edge2" class="edge"><title>numbergen.NumberGenerator&#45;&gt;numbergen.UnaryOperator</title>
<path fill="none" stroke="black" stroke-width="0.5" d="M326.57,-196.06C348.185,-210.53 390.46,-237.11 430,-252 437.837,-254.951 446.243,-257.495 454.647,-259.673"/>
<polygon fill="black" stroke="black" points="454.6,-261.465 459.875,-260.982 455.45,-258.07 454.6,-261.465"/>
</g>
<!-- numbergen.TimeDependentValue -->
<g id="node5" class="node"><title>numbergen.TimeDependentValue</title>
<polygon fill="none" stroke="black" stroke-width="0.5" points="608,-243.5 430,-243.5 430,-222.5 608,-222.5 608,-243.5"/>
<text text-anchor="middle" x="519" y="-230.5" font-family="Vera" font-size="10.00">numbergen.TimeDependentValue</text>
</g>
<!-- numbergen.NumberGenerator&#45;&gt;numbergen.TimeDependentValue -->
<g id="edge18" class="edge"><title>numbergen.NumberGenerator&#45;&gt;numbergen.TimeDependentValue</title>
<path fill="none" stroke="black" stroke-width="0.5" d="M356.153,-196.025C389.538,-203.605 435.367,-214.011 469.904,-221.853"/>
<polygon fill="black" stroke="black" points="469.652,-223.59 474.915,-222.99 470.427,-220.177 469.652,-223.59"/>
</g>
<!-- numbergen.BoundedNumber -->
<g id="node7" class="node"><title>numbergen.BoundedNumber</title>
<polygon fill="none" stroke="black" stroke-width="0.5" points="597,-196.5 441,-196.5 441,-175.5 597,-175.5 597,-196.5"/>
<text text-anchor="middle" x="519" y="-183.5" font-family="Vera" font-size="10.00">numbergen.BoundedNumber</text>
</g>
<!-- numbergen.NumberGenerator&#45;&gt;numbergen.BoundedNumber -->
<g id="edge6" class="edge"><title>numbergen.NumberGenerator&#45;&gt;numbergen.BoundedNumber</title>
<path fill="none" stroke="black" stroke-width="0.5" d="M393.515,-186C407.219,-186 421.461,-186 435.221,-186"/>
<polygon fill="black" stroke="black" points="435.267,-187.75 440.267,-186 435.267,-184.25 435.267,-187.75"/>
</g>
<!-- numbergen.RandomDistribution -->
<g id="node10" class="node"><title>numbergen.RandomDistribution</title>
<polygon fill="none" stroke="black" stroke-width="0.5" points="604,-139.5 434,-139.5 434,-118.5 604,-118.5 604,-139.5"/>
<text text-anchor="middle" x="519" y="-126.5" font-family="Vera" font-size="10.00">numbergen.RandomDistribution</text>
</g>
<!-- numbergen.NumberGenerator&#45;&gt;numbergen.RandomDistribution -->
<g id="edge12" class="edge"><title>numbergen.NumberGenerator&#45;&gt;numbergen.RandomDistribution</title>
<path fill="none" stroke="black" stroke-width="0.5" d="M348.531,-175.941C384.631,-166 439.781,-150.814 477.513,-140.424"/>
<polygon fill="black" stroke="black" points="478.131,-142.069 482.487,-139.054 477.201,-138.695 478.131,-142.069"/>
</g>
<!-- numbergen.BinaryOperator -->
<g id="node24" class="node"><title>numbergen.BinaryOperator</title>
<polygon fill="none" stroke="black" stroke-width="0.5" points="593,-101.5 445,-101.5 445,-80.5 593,-80.5 593,-101.5"/>
<text text-anchor="middle" x="519" y="-88.5" font-family="Vera" font-size="10.00">numbergen.BinaryOperator</text>
</g>
<!-- numbergen.NumberGenerator&#45;&gt;numbergen.BinaryOperator -->
<g id="edge24" class="edge"><title>numbergen.NumberGenerator&#45;&gt;numbergen.BinaryOperator</title>
<path fill="none" stroke="black" stroke-width="0.5" d="M324.245,-175.937C344.795,-159.572 388.102,-127.284 430,-110 437.257,-107.006 445.05,-104.459 452.897,-102.297"/>
<polygon fill="black" stroke="black" points="453.402,-103.974 457.786,-101.001 452.504,-100.591 453.402,-103.974"/>
</g>
<!-- numbergen.BoxCar -->
<g id="node4" class="node"><title>numbergen.BoxCar</title>
<polygon fill="none" stroke="black" stroke-width="0.5" points="790,-286.5 680,-286.5 680,-265.5 790,-265.5 790,-286.5"/>
<text text-anchor="middle" x="735" y="-273.5" font-family="Vera" font-size="10.00">numbergen.BoxCar</text>
</g>
<!-- numbergen.TimeDependentValue&#45;&gt;numbergen.BoxCar -->
<g id="edge4" class="edge"><title>numbergen.TimeDependentValue&#45;&gt;numbergen.BoxCar</title>
<path fill="none" stroke="black" stroke-width="0.5" d="M569.37,-243.027C602.401,-249.603 645.604,-258.203 679.603,-264.972"/>
<polygon fill="black" stroke="black" points="679.305,-266.697 684.55,-265.957 679.988,-263.264 679.305,-266.697"/>
</g>
<!-- numbergen.ExponentialDecay -->
<g id="node22" class="node"><title>numbergen.ExponentialDecay</title>
<polygon fill="none" stroke="black" stroke-width="0.5" points="815,-248.5 655,-248.5 655,-227.5 815,-227.5 815,-248.5"/>
<text text-anchor="middle" x="735" y="-235.5" font-family="Vera" font-size="10.00">numbergen.ExponentialDecay</text>
</g>
<!-- numbergen.TimeDependentValue&#45;&gt;numbergen.ExponentialDecay -->
<g id="edge22" class="edge"><title>numbergen.TimeDependentValue&#45;&gt;numbergen.ExponentialDecay</title>
<path fill="none" stroke="black" stroke-width="0.5" d="M608.103,-235.063C621.645,-235.376 635.596,-235.699 649.069,-236.011"/>
<polygon fill="black" stroke="black" points="649.367,-237.768 654.406,-236.134 649.448,-234.269 649.367,-237.768"/>
</g>
<!-- numbergen.NormalRandom -->
<g id="node9" class="node"><title>numbergen.NormalRandom</title>
<polygon fill="none" stroke="black" stroke-width="0.5" points="810,-210.5 660,-210.5 660,-189.5 810,-189.5 810,-210.5"/>
<text text-anchor="middle" x="735" y="-197.5" font-family="Vera" font-size="10.00">numbergen.NormalRandom</text>
</g>
<!-- numbergen.RandomDistribution&#45;&gt;numbergen.NormalRandom -->
<g id="edge8" class="edge"><title>numbergen.RandomDistribution&#45;&gt;numbergen.NormalRandom</title>
<path fill="none" stroke="black" stroke-width="0.5" d="M542.56,-139.083C575.882,-153.3 633.867,-177.865 644,-181 653.54,-183.951 663.785,-186.586 673.836,-188.885"/>
<polygon fill="black" stroke="black" points="673.489,-190.6 678.75,-189.986 674.254,-187.185 673.489,-190.6"/>
</g>
<!-- numbergen.Choice -->
<g id="node12" class="node"><title>numbergen.Choice</title>
<polygon fill="none" stroke="black" stroke-width="0.5" points="788,-172.5 682,-172.5 682,-151.5 788,-151.5 788,-172.5"/>
<text text-anchor="middle" x="735" y="-159.5" font-family="Vera" font-size="10.00">numbergen.Choice</text>
</g>
<!-- numbergen.RandomDistribution&#45;&gt;numbergen.Choice -->
<g id="edge10" class="edge"><title>numbergen.RandomDistribution&#45;&gt;numbergen.Choice</title>
<path fill="none" stroke="black" stroke-width="0.5" d="M584.687,-139.035C613.781,-143.48 647.742,-148.669 676.015,-152.988"/>
<polygon fill="black" stroke="black" points="676.019,-154.759 681.226,-153.784 676.547,-151.299 676.019,-154.759"/>
</g>
<!-- numbergen.UniformRandomInt -->
<g id="node17" class="node"><title>numbergen.UniformRandomInt</title>
<polygon fill="none" stroke="black" stroke-width="0.5" points="817,-134.5 653,-134.5 653,-113.5 817,-113.5 817,-134.5"/>
<text text-anchor="middle" x="735" y="-121.5" font-family="Vera" font-size="10.00">numbergen.UniformRandomInt</text>
</g>
<!-- numbergen.RandomDistribution&#45;&gt;numbergen.UniformRandomInt -->
<g id="edge16" class="edge"><title>numbergen.RandomDistribution&#45;&gt;numbergen.UniformRandomInt</title>
<path fill="none" stroke="black" stroke-width="0.5" d="M604.059,-127.031C618.253,-126.702 633.002,-126.361 647.262,-126.031"/>
<polygon fill="black" stroke="black" points="647.533,-127.775 652.492,-125.91 647.452,-124.276 647.533,-127.775"/>
</g>
<!-- numbergen.UniformRandom -->
<g id="node20" class="node"><title>numbergen.UniformRandom</title>
<polygon fill="none" stroke="black" stroke-width="0.5" points="811,-96.5 659,-96.5 659,-75.5 811,-75.5 811,-96.5"/>
<text text-anchor="middle" x="735" y="-83.5" font-family="Vera" font-size="10.00">numbergen.UniformRandom</text>
</g>
<!-- numbergen.RandomDistribution&#45;&gt;numbergen.UniformRandom -->
<g id="edge20" class="edge"><title>numbergen.RandomDistribution&#45;&gt;numbergen.UniformRandom</title>
<path fill="none" stroke="black" stroke-width="0.5" d="M569.37,-118.973C602.401,-112.397 645.604,-103.797 679.603,-97.0281"/>
<polygon fill="black" stroke="black" points="679.988,-98.7358 684.55,-96.0432 679.305,-95.3032 679.988,-98.7358"/>
</g>
<!-- numbergen.UniformRandomOffset -->
<g id="node26" class="node"><title>numbergen.UniformRandomOffset</title>
<polygon fill="none" stroke="black" stroke-width="0.5" points="826,-58.5 644,-58.5 644,-37.5 826,-37.5 826,-58.5"/>
<text text-anchor="middle" x="735" y="-45.5" font-family="Vera" font-size="10.00">numbergen.UniformRandomOffset</text>
</g>
<!-- numbergen.RandomDistribution&#45;&gt;numbergen.UniformRandomOffset -->
<g id="edge26" class="edge"><title>numbergen.RandomDistribution&#45;&gt;numbergen.UniformRandomOffset</title>
<path fill="none" stroke="black" stroke-width="0.5" d="M588.764,-118.869C595.507,-116.501 602.045,-113.586 608,-110 629.352,-97.1416 622.619,-79.8104 644,-67 648.664,-64.2056 653.676,-61.8176 658.864,-59.7775"/>
<polygon fill="black" stroke="black" points="659.59,-61.375 663.673,-58 658.377,-58.092 659.59,-61.375"/>
</g>
<!-- numbergen.VonMisesRandom -->
<g id="node28" class="node"><title>numbergen.VonMisesRandom</title>
<polygon fill="none" stroke="black" stroke-width="0.5" points="815,-20.5 655,-20.5 655,0.5 815,0.5 815,-20.5"/>
<text text-anchor="middle" x="735" y="-7.5" font-family="Vera" font-size="10.00">numbergen.VonMisesRandom</text>
</g>
<!-- numbergen.RandomDistribution&#45;&gt;numbergen.VonMisesRandom -->
<g id="edge28" class="edge"><title>numbergen.RandomDistribution&#45;&gt;numbergen.VonMisesRandom</title>
<path fill="none" stroke="black" stroke-width="0.5" d="M593.428,-118.96C598.647,-116.534 603.582,-113.583 608,-110 638.597,-85.1841 613.347,-53.7472 644,-29 647.022,-26.5605 650.279,-24.4117 653.702,-22.5205"/>
<polygon fill="black" stroke="black" points="654.801,-23.9249 658.464,-20.0983 653.214,-20.8052 654.801,-23.9249"/>
</g>
<!-- param.parameterized.Parameterized -->
<g id="node15" class="node"><title>param.parameterized.Parameterized</title>
<polygon fill="none" stroke="black" stroke-width="0.5" points="194,-196.5 5.68434e-14,-196.5 0,-175.5 194,-175.5 194,-196.5"/>
<text text-anchor="middle" x="97" y="-183.5" font-family="Vera" font-size="10.00">param.parameterized.Parameterized</text>
</g>
<!-- param.parameterized.Parameterized&#45;&gt;numbergen.NumberGenerator -->
<g id="edge14" class="edge"><title>param.parameterized.Parameterized&#45;&gt;numbergen.NumberGenerator</title>
<path fill="none" stroke="black" stroke-width="0.5" d="M194.121,-186C204.545,-186 215.101,-186 225.391,-186"/>
<polygon fill="black" stroke="black" points="225.419,-187.75 230.419,-186 225.419,-184.25 225.419,-187.75"/>
</g>
</g>
</svg>
