<?xml version="1.0" encoding="UTF-8" standalone="no"?>
<!DOCTYPE svg PUBLIC "-//W3C//DTD SVG 1.1//EN"
 "http://www.w3.org/Graphics/SVG/1.1/DTD/svg11.dtd">
<!-- Generated by graphviz version 2.26.3 (20100126.1600)
 -->
<!-- Title: inheritance0bce68b9cf Pages: 1 -->
<svg width="1872pt" height="389pt"
 viewBox="0.00 0.00 1872.00 389.00" xmlns="http://www.w3.org/2000/svg" xmlns:xlink="http://www.w3.org/1999/xlink">
<g id="graph1" class="graph" transform="scale(1 1) rotate(0) translate(4 385)">
<title>inheritance0bce68b9cf</title>
<polygon fill="white" stroke="white" points="-4,5 -4,-385 1869,-385 1869,5 -4,5"/>
<!-- topo.command.analysis.update_projectionactivity -->
<g id="node1" class="node"><title>topo.command.analysis.update_projectionactivity</title>
<polygon fill="none" stroke="black" stroke-width="0.5" points="1139,-381.5 885,-381.5 885,-360.5 1139,-360.5 1139,-381.5"/>
<text text-anchor="middle" x="1012" y="-368.5" font-family="Vera" font-size="10.00">topo.command.analysis.update_projectionactivity</text>
</g>
<!-- topo.plotting.plotgroup.ProjectionSheetMeasurementCommand -->
<g id="node2" class="node"><title>topo.plotting.plotgroup.ProjectionSheetMeasurementCommand</title>
<polygon fill="none" stroke="black" stroke-width="0.5" points="822,-343.5 500,-343.5 500,-322.5 822,-322.5 822,-343.5"/>
<text text-anchor="middle" x="661" y="-330.5" font-family="Vera" font-size="10.00">topo.plotting.plotgroup.ProjectionSheetMeasurementCommand</text>
</g>
<!-- topo.plotting.plotgroup.ProjectionSheetMeasurementCommand&#45;&gt;topo.command.analysis.update_projectionactivity -->
<g id="edge2" class="edge"><title>topo.plotting.plotgroup.ProjectionSheetMeasurementCommand&#45;&gt;topo.command.analysis.update_projectionactivity</title>
<path fill="none" stroke="black" stroke-width="0.5" d="M753.68,-343.034C803.164,-348.391 864.045,-354.982 914.273,-360.42"/>
<polygon fill="black" stroke="black" points="914.25,-362.178 919.409,-360.976 914.627,-358.698 914.25,-362.178"/>
</g>
<!-- topo.plotting.plotgroup.UnitMeasurementCommand -->
<g id="node28" class="node"><title>topo.plotting.plotgroup.UnitMeasurementCommand</title>
<polygon fill="none" stroke="black" stroke-width="0.5" points="1145,-343.5 879,-343.5 879,-322.5 1145,-322.5 1145,-343.5"/>
<text text-anchor="middle" x="1012" y="-330.5" font-family="Vera" font-size="10.00">topo.plotting.plotgroup.UnitMeasurementCommand</text>
</g>
<!-- topo.plotting.plotgroup.ProjectionSheetMeasurementCommand&#45;&gt;topo.plotting.plotgroup.UnitMeasurementCommand -->
<g id="edge32" class="edge"><title>topo.plotting.plotgroup.ProjectionSheetMeasurementCommand&#45;&gt;topo.plotting.plotgroup.UnitMeasurementCommand</title>
<path fill="none" stroke="black" stroke-width="0.5" d="M822.118,-333C839.348,-333 856.765,-333 873.698,-333"/>
<polygon fill="black" stroke="black" points="873.936,-334.75 878.936,-333 873.936,-331.25 873.936,-334.75"/>
</g>
<!-- topo.command.analysis.measure_rfs -->
<g id="node4" class="node"><title>topo.command.analysis.measure_rfs</title>
<polygon fill="none" stroke="black" stroke-width="0.5" points="1826,-362.5 1632,-362.5 1632,-341.5 1826,-341.5 1826,-362.5"/>
<text text-anchor="middle" x="1729" y="-349.5" font-family="Vera" font-size="10.00">topo.command.analysis.measure_rfs</text>
</g>
<!-- topo.analysis.featureresponses.SingleInputResponseCommand -->
<g id="node5" class="node"><title>topo.analysis.featureresponses.SingleInputResponseCommand</title>
<polygon fill="none" stroke="black" stroke-width="0.5" points="1539,-305.5 1221,-305.5 1221,-284.5 1539,-284.5 1539,-305.5"/>
<text text-anchor="middle" x="1380" y="-292.5" font-family="Vera" font-size="10.00">topo.analysis.featureresponses.SingleInputResponseCommand</text>
</g>
<!-- topo.analysis.featureresponses.SingleInputResponseCommand&#45;&gt;topo.command.analysis.measure_rfs -->
<g id="edge4" class="edge"><title>topo.analysis.featureresponses.SingleInputResponseCommand&#45;&gt;topo.command.analysis.measure_rfs</title>
<path fill="none" stroke="black" stroke-width="0.5" d="M1520.93,-305.009C1533.59,-307.417 1546.11,-310.374 1558,-314 1575.3,-319.277 1576.79,-327.434 1594,-333 1604.45,-336.378 1615.54,-339.156 1626.71,-341.44"/>
<polygon fill="black" stroke="black" points="1626.6,-343.202 1631.84,-342.455 1627.27,-339.768 1626.6,-343.202"/>
</g>
<!-- param.parameterized.Parameterized -->
<g id="node7" class="node"><title>param.parameterized.Parameterized</title>
<polygon fill="none" stroke="black" stroke-width="0.5" points="194,-162.5 5.68434e-14,-162.5 0,-141.5 194,-141.5 194,-162.5"/>
<text text-anchor="middle" x="97" y="-149.5" font-family="Vera" font-size="10.00">param.parameterized.Parameterized</text>
</g>
<!-- param.parameterized.ParameterizedFunction -->
<g id="node11" class="node"><title>param.parameterized.ParameterizedFunction</title>
<polygon fill="none" stroke="black" stroke-width="0.5" points="464,-219.5 230,-219.5 230,-198.5 464,-198.5 464,-219.5"/>
<text text-anchor="middle" x="347" y="-206.5" font-family="Vera" font-size="10.00">param.parameterized.ParameterizedFunction</text>
</g>
<!-- param.parameterized.Parameterized&#45;&gt;param.parameterized.ParameterizedFunction -->
<g id="edge22" class="edge"><title>param.parameterized.Parameterized&#45;&gt;param.parameterized.ParameterizedFunction</title>
<path fill="none" stroke="black" stroke-width="0.5" d="M141.12,-162.059C185.075,-172.081 252.414,-187.434 298.007,-197.83"/>
<polygon fill="black" stroke="black" points="297.638,-199.54 302.902,-198.946 298.416,-196.128 297.638,-199.54"/>
</g>
<!-- imagen.patterngenerator.PatternGenerator -->
<g id="node38" class="node"><title>imagen.patterngenerator.PatternGenerator</title>
<polygon fill="none" stroke="black" stroke-width="0.5" points="459,-162.5 235,-162.5 235,-141.5 459,-141.5 459,-162.5"/>
<text text-anchor="middle" x="347" y="-149.5" font-family="Vera" font-size="10.00">imagen.patterngenerator.PatternGenerator</text>
</g>
<!-- param.parameterized.Parameterized&#45;&gt;imagen.patterngenerator.PatternGenerator -->
<g id="edge60" class="edge"><title>param.parameterized.Parameterized&#45;&gt;imagen.patterngenerator.PatternGenerator</title>
<path fill="none" stroke="black" stroke-width="0.5" d="M194.014,-152C205.664,-152 217.655,-152 229.554,-152"/>
<polygon fill="black" stroke="black" points="229.647,-153.75 234.647,-152 229.647,-150.25 229.647,-153.75"/>
</g>
<!-- topo.command.analysis.PatternPresenter2 -->
<g id="node40" class="node"><title>topo.command.analysis.PatternPresenter2</title>
<polygon fill="none" stroke="black" stroke-width="0.5" points="457,-124.5 237,-124.5 237,-103.5 457,-103.5 457,-124.5"/>
<text text-anchor="middle" x="347" y="-111.5" font-family="Vera" font-size="10.00">topo.command.analysis.PatternPresenter2</text>
</g>
<!-- param.parameterized.Parameterized&#45;&gt;topo.command.analysis.PatternPresenter2 -->
<g id="edge38" class="edge"><title>param.parameterized.Parameterized&#45;&gt;topo.command.analysis.PatternPresenter2</title>
<path fill="none" stroke="black" stroke-width="0.5" d="M163.012,-141.966C197.758,-136.685 240.394,-130.204 275.872,-124.811"/>
<polygon fill="black" stroke="black" points="276.372,-126.506 281.052,-124.024 275.846,-123.045 276.372,-126.506"/>
</g>
<!-- topo.command.analysis.measure_corner_or_pref -->
<g id="node8" class="node"><title>topo.command.analysis.measure_corner_or_pref</title>
<polygon fill="none" stroke="black" stroke-width="0.5" points="1855,-324.5 1603,-324.5 1603,-303.5 1855,-303.5 1855,-324.5"/>
<text text-anchor="middle" x="1729" y="-311.5" font-family="Vera" font-size="10.00">topo.command.analysis.measure_corner_or_pref</text>
</g>
<!-- topo.analysis.featureresponses.PositionMeasurementCommand -->
<g id="node9" class="node"><title>topo.analysis.featureresponses.PositionMeasurementCommand</title>
<polygon fill="none" stroke="black" stroke-width="0.5" points="1542,-267.5 1218,-267.5 1218,-246.5 1542,-246.5 1542,-267.5"/>
<text text-anchor="middle" x="1380" y="-254.5" font-family="Vera" font-size="10.00">topo.analysis.featureresponses.PositionMeasurementCommand</text>
</g>
<!-- topo.analysis.featureresponses.PositionMeasurementCommand&#45;&gt;topo.command.analysis.measure_corner_or_pref -->
<g id="edge6" class="edge"><title>topo.analysis.featureresponses.PositionMeasurementCommand&#45;&gt;topo.command.analysis.measure_corner_or_pref</title>
<path fill="none" stroke="black" stroke-width="0.5" d="M1520.93,-267.009C1533.59,-269.417 1546.11,-272.374 1558,-276 1575.3,-281.277 1576.79,-289.434 1594,-295 1603.68,-298.129 1613.91,-300.743 1624.24,-302.926"/>
<polygon fill="black" stroke="black" points="1624.06,-304.677 1629.31,-303.964 1624.76,-301.248 1624.06,-304.677"/>
</g>
<!-- topo.command.analysis.measure_corner_angle_pref -->
<g id="node22" class="node"><title>topo.command.analysis.measure_corner_angle_pref</title>
<polygon fill="none" stroke="black" stroke-width="0.5" points="1863,-286.5 1595,-286.5 1595,-265.5 1863,-265.5 1863,-286.5"/>
<text text-anchor="middle" x="1729" y="-273.5" font-family="Vera" font-size="10.00">topo.command.analysis.measure_corner_angle_pref</text>
</g>
<!-- topo.analysis.featureresponses.PositionMeasurementCommand&#45;&gt;topo.command.analysis.measure_corner_angle_pref -->
<g id="edge18" class="edge"><title>topo.analysis.featureresponses.PositionMeasurementCommand&#45;&gt;topo.command.analysis.measure_corner_angle_pref</title>
<path fill="none" stroke="black" stroke-width="0.5" d="M1542.24,-265.833C1557.91,-266.686 1573.72,-267.546 1589.15,-268.386"/>
<polygon fill="black" stroke="black" points="1589.28,-270.146 1594.36,-268.67 1589.47,-266.651 1589.28,-270.146"/>
</g>
<!-- param.parameterized.ParameterizedFunction&#45;&gt;topo.plotting.plotgroup.ProjectionSheetMeasurementCommand -->
<g id="edge8" class="edge"><title>param.parameterized.ParameterizedFunction&#45;&gt;topo.plotting.plotgroup.ProjectionSheetMeasurementCommand</title>
<path fill="none" stroke="black" stroke-width="0.5" d="M372.43,-219.042C429.774,-241.688 568.956,-296.651 630.67,-321.023"/>
<polygon fill="black" stroke="black" points="630.039,-322.655 635.333,-322.864 631.325,-319.4 630.039,-322.655"/>
</g>
<!-- topo.command.analysis.save_plotgroup -->
<g id="node20" class="node"><title>topo.command.analysis.save_plotgroup</title>
<polygon fill="none" stroke="black" stroke-width="0.5" points="765,-248.5 557,-248.5 557,-227.5 765,-227.5 765,-248.5"/>
<text text-anchor="middle" x="661" y="-235.5" font-family="Vera" font-size="10.00">topo.command.analysis.save_plotgroup</text>
</g>
<!-- param.parameterized.ParameterizedFunction&#45;&gt;topo.command.analysis.save_plotgroup -->
<g id="edge16" class="edge"><title>param.parameterized.ParameterizedFunction&#45;&gt;topo.command.analysis.save_plotgroup</title>
<path fill="none" stroke="black" stroke-width="0.5" d="M455.501,-219.021C486.714,-221.903 520.763,-225.048 552.006,-227.934"/>
<polygon fill="black" stroke="black" points="551.855,-229.677 556.995,-228.394 552.177,-226.192 551.855,-229.677"/>
</g>
<!-- topo.analysis.featureresponses.PatternPresentingCommand -->
<g id="node31" class="node"><title>topo.analysis.featureresponses.PatternPresentingCommand</title>
<polygon fill="none" stroke="black" stroke-width="0.5" points="813,-210.5 509,-210.5 509,-189.5 813,-189.5 813,-210.5"/>
<text text-anchor="middle" x="661" y="-197.5" font-family="Vera" font-size="10.00">topo.analysis.featureresponses.PatternPresentingCommand</text>
</g>
<!-- param.parameterized.ParameterizedFunction&#45;&gt;topo.analysis.featureresponses.PatternPresentingCommand -->
<g id="edge28" class="edge"><title>param.parameterized.ParameterizedFunction&#45;&gt;topo.analysis.featureresponses.PatternPresentingCommand</title>
<path fill="none" stroke="black" stroke-width="0.5" d="M464.369,-205.636C477.055,-205.272 490.112,-204.898 503.176,-204.524"/>
<polygon fill="black" stroke="black" points="503.43,-206.267 508.378,-204.375 503.33,-202.769 503.43,-206.267"/>
</g>
<!-- topo.command.analysis.measure_second_or_pref -->
<g id="node13" class="node"><title>topo.command.analysis.measure_second_or_pref</title>
<polygon fill="none" stroke="black" stroke-width="0.5" points="1857,-248.5 1601,-248.5 1601,-227.5 1857,-227.5 1857,-248.5"/>
<text text-anchor="middle" x="1729" y="-235.5" font-family="Vera" font-size="10.00">topo.command.analysis.measure_second_or_pref</text>
</g>
<!-- topo.analysis.featureresponses.SinusoidalMeasureResponseCommand -->
<g id="node14" class="node"><title>topo.analysis.featureresponses.SinusoidalMeasureResponseCommand</title>
<polygon fill="none" stroke="black" stroke-width="0.5" points="1558,-191.5 1202,-191.5 1202,-170.5 1558,-170.5 1558,-191.5"/>
<text text-anchor="middle" x="1380" y="-178.5" font-family="Vera" font-size="10.00">topo.analysis.featureresponses.SinusoidalMeasureResponseCommand</text>
</g>
<!-- topo.analysis.featureresponses.SinusoidalMeasureResponseCommand&#45;&gt;topo.command.analysis.measure_second_or_pref -->
<g id="edge10" class="edge"><title>topo.analysis.featureresponses.SinusoidalMeasureResponseCommand&#45;&gt;topo.command.analysis.measure_second_or_pref</title>
<path fill="none" stroke="black" stroke-width="0.5" d="M1433.56,-191.06C1476.79,-199.048 1539.22,-210.284 1594,-219 1611.84,-221.838 1631.04,-224.673 1649.21,-227.254"/>
<polygon fill="black" stroke="black" points="1649.11,-229.007 1654.3,-227.975 1649.6,-225.542 1649.11,-229.007"/>
</g>
<!-- topo.command.analysis.measure_hue_pref -->
<g id="node16" class="node"><title>topo.command.analysis.measure_hue_pref</title>
<polygon fill="none" stroke="black" stroke-width="0.5" points="1841,-210.5 1617,-210.5 1617,-189.5 1841,-189.5 1841,-210.5"/>
<text text-anchor="middle" x="1729" y="-197.5" font-family="Vera" font-size="10.00">topo.command.analysis.measure_hue_pref</text>
</g>
<!-- topo.analysis.featureresponses.SinusoidalMeasureResponseCommand&#45;&gt;topo.command.analysis.measure_hue_pref -->
<g id="edge12" class="edge"><title>topo.analysis.featureresponses.SinusoidalMeasureResponseCommand&#45;&gt;topo.command.analysis.measure_hue_pref</title>
<path fill="none" stroke="black" stroke-width="0.5" d="M1558.08,-190.695C1576.2,-191.681 1594.27,-192.665 1611.51,-193.604"/>
<polygon fill="black" stroke="black" points="1611.74,-195.369 1616.83,-193.893 1611.94,-191.874 1611.74,-195.369"/>
</g>
<!-- topo.command.analysis.measure_or_pref -->
<g id="node24" class="node"><title>topo.command.analysis.measure_or_pref</title>
<polygon fill="none" stroke="black" stroke-width="0.5" points="1837,-172.5 1621,-172.5 1621,-151.5 1837,-151.5 1837,-172.5"/>
<text text-anchor="middle" x="1729" y="-159.5" font-family="Vera" font-size="10.00">topo.command.analysis.measure_or_pref</text>
</g>
<!-- topo.analysis.featureresponses.SinusoidalMeasureResponseCommand&#45;&gt;topo.command.analysis.measure_or_pref -->
<g id="edge20" class="edge"><title>topo.analysis.featureresponses.SinusoidalMeasureResponseCommand&#45;&gt;topo.command.analysis.measure_or_pref</title>
<path fill="none" stroke="black" stroke-width="0.5" d="M1558.08,-171.305C1577.59,-170.243 1597.03,-169.184 1615.45,-168.182"/>
<polygon fill="black" stroke="black" points="1615.72,-169.92 1620.61,-167.901 1615.53,-166.425 1615.72,-169.92"/>
</g>
<!-- topo.command.analysis.measure_od_pref -->
<g id="node44" class="node"><title>topo.command.analysis.measure_od_pref</title>
<polygon fill="none" stroke="black" stroke-width="0.5" points="1838,-134.5 1620,-134.5 1620,-113.5 1838,-113.5 1838,-134.5"/>
<text text-anchor="middle" x="1729" y="-121.5" font-family="Vera" font-size="10.00">topo.command.analysis.measure_od_pref</text>
</g>
<!-- topo.analysis.featureresponses.SinusoidalMeasureResponseCommand&#45;&gt;topo.command.analysis.measure_od_pref -->
<g id="edge42" class="edge"><title>topo.analysis.featureresponses.SinusoidalMeasureResponseCommand&#45;&gt;topo.command.analysis.measure_od_pref</title>
<path fill="none" stroke="black" stroke-width="0.5" d="M1520.93,-170.991C1533.59,-168.583 1546.11,-165.626 1558,-162 1575.3,-156.723 1576.79,-148.566 1594,-143 1603.68,-139.871 1613.91,-137.257 1624.24,-135.074"/>
<polygon fill="black" stroke="black" points="1624.76,-136.752 1629.31,-134.036 1624.06,-133.323 1624.76,-136.752"/>
</g>
<!-- topo.command.analysis.measure_sine_pref -->
<g id="node46" class="node"><title>topo.command.analysis.measure_sine_pref</title>
<polygon fill="none" stroke="black" stroke-width="0.5" points="1842,-96.5 1616,-96.5 1616,-75.5 1842,-75.5 1842,-96.5"/>
<text text-anchor="middle" x="1729" y="-83.5" font-family="Vera" font-size="10.00">topo.command.analysis.measure_sine_pref</text>
</g>
<!-- topo.analysis.featureresponses.SinusoidalMeasureResponseCommand&#45;&gt;topo.command.analysis.measure_sine_pref -->
<g id="edge44" class="edge"><title>topo.analysis.featureresponses.SinusoidalMeasureResponseCommand&#45;&gt;topo.command.analysis.measure_sine_pref</title>
<path fill="none" stroke="black" stroke-width="0.5" d="M1541.03,-170.895C1546.91,-168.318 1552.59,-165.368 1558,-162 1583.44,-146.163 1568.83,-121.261 1594,-105 1599.28,-101.588 1604.92,-98.6796 1610.78,-96.2069"/>
<polygon fill="black" stroke="black" points="1611.76,-97.7025 1615.76,-94.2308 1610.47,-94.4496 1611.76,-97.7025"/>
</g>
<!-- topo.command.analysis.measure_phasedisparity -->
<g id="node48" class="node"><title>topo.command.analysis.measure_phasedisparity</title>
<polygon fill="none" stroke="black" stroke-width="0.5" points="1855,-58.5 1603,-58.5 1603,-37.5 1855,-37.5 1855,-58.5"/>
<text text-anchor="middle" x="1729" y="-45.5" font-family="Vera" font-size="10.00">topo.command.analysis.measure_phasedisparity</text>
</g>
<!-- topo.analysis.featureresponses.SinusoidalMeasureResponseCommand&#45;&gt;topo.command.analysis.measure_phasedisparity -->
<g id="edge46" class="edge"><title>topo.analysis.featureresponses.SinusoidalMeasureResponseCommand&#45;&gt;topo.command.analysis.measure_phasedisparity</title>
<path fill="none" stroke="black" stroke-width="0.5" d="M1544.41,-170.908C1549.15,-168.282 1553.69,-165.324 1558,-162 1593.74,-134.407 1558.73,-95.1871 1594,-67 1596.92,-64.6636 1600,-62.5434 1603.2,-60.6215"/>
<polygon fill="black" stroke="black" points="1604.14,-62.1 1607.64,-58.122 1602.43,-59.0502 1604.14,-62.1"/>
</g>
<!-- topo.command.analysis.measure_dr_pref -->
<g id="node53" class="node"><title>topo.command.analysis.measure_dr_pref</title>
<polygon fill="none" stroke="black" stroke-width="0.5" points="1837,-20.5 1621,-20.5 1621,0.5 1837,0.5 1837,-20.5"/>
<text text-anchor="middle" x="1729" y="-7.5" font-family="Vera" font-size="10.00">topo.command.analysis.measure_dr_pref</text>
</g>
<!-- topo.analysis.featureresponses.SinusoidalMeasureResponseCommand&#45;&gt;topo.command.analysis.measure_dr_pref -->
<g id="edge52" class="edge"><title>topo.analysis.featureresponses.SinusoidalMeasureResponseCommand&#45;&gt;topo.command.analysis.measure_dr_pref</title>
<path fill="none" stroke="black" stroke-width="0.5" d="M1545.63,-170.966C1549.96,-168.307 1554.1,-165.329 1558,-162 1604.58,-122.25 1548.09,-69.5238 1594,-29 1600.54,-23.2282 1607.99,-18.7243 1615.96,-15.2431"/>
<polygon fill="black" stroke="black" points="1617.01,-16.706 1620.99,-13.2054 1615.7,-13.4624 1617.01,-16.706"/>
</g>
<!-- topo.analysis.featureresponses.MeasureResponseCommand -->
<g id="node18" class="node"><title>topo.analysis.featureresponses.MeasureResponseCommand</title>
<polygon fill="none" stroke="black" stroke-width="0.5" points="1165,-191.5 859,-191.5 859,-170.5 1165,-170.5 1165,-191.5"/>
<text text-anchor="middle" x="1012" y="-178.5" font-family="Vera" font-size="10.00">topo.analysis.featureresponses.MeasureResponseCommand</text>
</g>
<!-- topo.analysis.featureresponses.MeasureResponseCommand&#45;&gt;topo.analysis.featureresponses.SingleInputResponseCommand -->
<g id="edge50" class="edge"><title>topo.analysis.featureresponses.MeasureResponseCommand&#45;&gt;topo.analysis.featureresponses.SingleInputResponseCommand</title>
<path fill="none" stroke="black" stroke-width="0.5" d="M1027.47,-191.167C1058.87,-211.244 1132.99,-255.781 1202,-276 1212.83,-279.173 1224.17,-281.828 1235.65,-284.048"/>
<polygon fill="black" stroke="black" points="1235.35,-285.771 1240.59,-284.973 1235.99,-282.331 1235.35,-285.771"/>
</g>
<!-- topo.analysis.featureresponses.MeasureResponseCommand&#45;&gt;topo.analysis.featureresponses.PositionMeasurementCommand -->
<g id="edge14" class="edge"><title>topo.analysis.featureresponses.MeasureResponseCommand&#45;&gt;topo.analysis.featureresponses.PositionMeasurementCommand</title>
<path fill="none" stroke="black" stroke-width="0.5" d="M1060.49,-191.014C1129.29,-205.224 1254.83,-231.149 1326.35,-245.92"/>
<polygon fill="black" stroke="black" points="1326.15,-247.666 1331.4,-246.964 1326.86,-244.239 1326.15,-247.666"/>
</g>
<!-- topo.analysis.featureresponses.MeasureResponseCommand&#45;&gt;topo.analysis.featureresponses.SinusoidalMeasureResponseCommand -->
<g id="edge26" class="edge"><title>topo.analysis.featureresponses.MeasureResponseCommand&#45;&gt;topo.analysis.featureresponses.SinusoidalMeasureResponseCommand</title>
<path fill="none" stroke="black" stroke-width="0.5" d="M1165.67,-181C1175.91,-181 1186.29,-181 1196.66,-181"/>
<polygon fill="black" stroke="black" points="1196.75,-182.75 1201.75,-181 1196.75,-179.25 1196.75,-182.75"/>
</g>
<!-- topo.command.analysis.measure_latency_preference -->
<g id="node50" class="node"><title>topo.command.analysis.measure_latency_preference</title>
<polygon fill="none" stroke="black" stroke-width="0.5" points="1517,-153.5 1243,-153.5 1243,-132.5 1517,-132.5 1517,-153.5"/>
<text text-anchor="middle" x="1380" y="-140.5" font-family="Vera" font-size="10.00">topo.command.analysis.measure_latency_preference</text>
</g>
<!-- topo.analysis.featureresponses.MeasureResponseCommand&#45;&gt;topo.command.analysis.measure_latency_preference -->
<g id="edge48" class="edge"><title>topo.analysis.featureresponses.MeasureResponseCommand&#45;&gt;topo.command.analysis.measure_latency_preference</title>
<path fill="none" stroke="black" stroke-width="0.5" d="M1109.17,-170.966C1161.15,-165.598 1225.14,-158.991 1277.86,-153.547"/>
<polygon fill="black" stroke="black" points="1278.13,-155.278 1282.93,-153.024 1277.77,-151.797 1278.13,-155.278"/>
</g>
<!-- topo.command.analysis.measure_log_frequency_preference -->
<g id="node55" class="node"><title>topo.command.analysis.measure_log_frequency_preference</title>
<polygon fill="none" stroke="black" stroke-width="0.5" points="1533,-115.5 1227,-115.5 1227,-94.5 1533,-94.5 1533,-115.5"/>
<text text-anchor="middle" x="1380" y="-102.5" font-family="Vera" font-size="10.00">topo.command.analysis.measure_log_frequency_preference</text>
</g>
<!-- topo.analysis.featureresponses.MeasureResponseCommand&#45;&gt;topo.command.analysis.measure_log_frequency_preference -->
<g id="edge54" class="edge"><title>topo.analysis.featureresponses.MeasureResponseCommand&#45;&gt;topo.command.analysis.measure_log_frequency_preference</title>
<path fill="none" stroke="black" stroke-width="0.5" d="M1039.6,-170.958C1076.21,-158.045 1143.09,-135.874 1202,-124 1218.29,-120.717 1235.54,-117.976 1252.64,-115.695"/>
<polygon fill="black" stroke="black" points="1253.21,-117.385 1257.94,-115.001 1252.75,-113.915 1253.21,-117.385"/>
</g>
<!-- topo.command.analysis.measure_frequency_preference -->
<g id="node57" class="node"><title>topo.command.analysis.measure_frequency_preference</title>
<polygon fill="none" stroke="black" stroke-width="0.5" points="1523,-77.5 1237,-77.5 1237,-56.5 1523,-56.5 1523,-77.5"/>
<text text-anchor="middle" x="1380" y="-64.5" font-family="Vera" font-size="10.00">topo.command.analysis.measure_frequency_preference</text>
</g>
<!-- topo.analysis.featureresponses.MeasureResponseCommand&#45;&gt;topo.command.analysis.measure_frequency_preference -->
<g id="edge56" class="edge"><title>topo.analysis.featureresponses.MeasureResponseCommand&#45;&gt;topo.command.analysis.measure_frequency_preference</title>
<path fill="none" stroke="black" stroke-width="0.5" d="M1027.47,-170.833C1058.87,-150.756 1132.99,-106.219 1202,-86 1212.83,-82.8271 1224.17,-80.1721 1235.65,-77.9518"/>
<polygon fill="black" stroke="black" points="1235.99,-79.6688 1240.59,-77.0266 1235.35,-76.2289 1235.99,-79.6688"/>
</g>
<!-- topo.command.analysis.update_projection -->
<g id="node27" class="node"><title>topo.command.analysis.update_projection</title>
<polygon fill="none" stroke="black" stroke-width="0.5" points="1490,-381.5 1270,-381.5 1270,-360.5 1490,-360.5 1490,-381.5"/>
<text text-anchor="middle" x="1380" y="-368.5" font-family="Vera" font-size="10.00">topo.command.analysis.update_projection</text>
</g>
<!-- topo.plotting.plotgroup.UnitMeasurementCommand&#45;&gt;topo.command.analysis.update_projection -->
<g id="edge24" class="edge"><title>topo.plotting.plotgroup.UnitMeasurementCommand&#45;&gt;topo.command.analysis.update_projection</title>
<path fill="none" stroke="black" stroke-width="0.5" d="M1109.17,-343.034C1161.15,-348.402 1225.14,-355.009 1277.86,-360.453"/>
<polygon fill="black" stroke="black" points="1277.77,-362.203 1282.93,-360.976 1278.13,-358.722 1277.77,-362.203"/>
</g>
<!-- topo.command.analysis.update_connectionfields -->
<g id="node35" class="node"><title>topo.command.analysis.update_connectionfields</title>
<polygon fill="none" stroke="black" stroke-width="0.5" points="1505,-343.5 1255,-343.5 1255,-322.5 1505,-322.5 1505,-343.5"/>
<text text-anchor="middle" x="1380" y="-330.5" font-family="Vera" font-size="10.00">topo.command.analysis.update_connectionfields</text>
</g>
<!-- topo.plotting.plotgroup.UnitMeasurementCommand&#45;&gt;topo.command.analysis.update_connectionfields -->
<g id="edge34" class="edge"><title>topo.plotting.plotgroup.UnitMeasurementCommand&#45;&gt;topo.command.analysis.update_connectionfields</title>
<path fill="none" stroke="black" stroke-width="0.5" d="M1145.12,-333C1178.91,-333 1215.19,-333 1248.88,-333"/>
<polygon fill="black" stroke="black" points="1249.27,-334.75 1254.27,-333 1249.27,-331.25 1249.27,-334.75"/>
</g>
<!-- topo.analysis.featureresponses.PatternPresentingCommand&#45;&gt;topo.analysis.featureresponses.MeasureResponseCommand -->
<g id="edge30" class="edge"><title>topo.analysis.featureresponses.PatternPresentingCommand&#45;&gt;topo.analysis.featureresponses.MeasureResponseCommand</title>
<path fill="none" stroke="black" stroke-width="0.5" d="M813.677,-191.735C826.734,-191.029 839.963,-190.313 853.067,-189.603"/>
<polygon fill="black" stroke="black" points="853.38,-191.339 858.278,-189.321 853.19,-187.844 853.38,-191.339"/>
</g>
<!-- topo.command.analysis.log_frequency_mapper -->
<g id="node37" class="node"><title>topo.command.analysis.log_frequency_mapper</title>
<polygon fill="none" stroke="black" stroke-width="0.5" points="783,-172.5 539,-172.5 539,-151.5 783,-151.5 783,-172.5"/>
<text text-anchor="middle" x="661" y="-159.5" font-family="Vera" font-size="10.00">topo.command.analysis.log_frequency_mapper</text>
</g>
<!-- imagen.patterngenerator.PatternGenerator&#45;&gt;topo.command.analysis.log_frequency_mapper -->
<g id="edge36" class="edge"><title>imagen.patterngenerator.PatternGenerator&#45;&gt;topo.command.analysis.log_frequency_mapper</title>
<path fill="none" stroke="black" stroke-width="0.5" d="M459.031,-155.568C483.203,-156.338 508.927,-157.157 533.635,-157.944"/>
<polygon fill="black" stroke="black" points="533.838,-159.701 538.891,-158.111 533.949,-156.203 533.838,-159.701"/>
</g>
<!-- topo.command.analysis.latency_mapper -->
<g id="node42" class="node"><title>topo.command.analysis.latency_mapper</title>
<polygon fill="none" stroke="black" stroke-width="0.5" points="767,-134.5 555,-134.5 555,-113.5 767,-113.5 767,-134.5"/>
<text text-anchor="middle" x="661" y="-121.5" font-family="Vera" font-size="10.00">topo.command.analysis.latency_mapper</text>
</g>
<!-- imagen.patterngenerator.PatternGenerator&#45;&gt;topo.command.analysis.latency_mapper -->
<g id="edge40" class="edge"><title>imagen.patterngenerator.PatternGenerator&#45;&gt;topo.command.analysis.latency_mapper</title>
<path fill="none" stroke="black" stroke-width="0.5" d="M459.031,-142.01C488.501,-139.382 520.279,-136.548 549.709,-133.924"/>
<polygon fill="black" stroke="black" points="549.968,-135.658 554.792,-133.471 549.657,-132.172 549.968,-135.658"/>
</g>
<!-- topo.command.analysis.frequency_mapper -->
<g id="node59" class="node"><title>topo.command.analysis.frequency_mapper</title>
<polygon fill="none" stroke="black" stroke-width="0.5" points="773,-96.5 549,-96.5 549,-75.5 773,-75.5 773,-96.5"/>
<text text-anchor="middle" x="661" y="-83.5" font-family="Vera" font-size="10.00">topo.command.analysis.frequency_mapper</text>
</g>
<!-- imagen.patterngenerator.PatternGenerator&#45;&gt;topo.command.analysis.frequency_mapper -->
<g id="edge58" class="edge"><title>imagen.patterngenerator.PatternGenerator&#45;&gt;topo.command.analysis.frequency_mapper</title>
<path fill="none" stroke="black" stroke-width="0.5" d="M437.742,-141.934C446.796,-139.553 455.7,-136.618 464,-133 482.582,-124.901 481.247,-112.692 500,-105 513.686,-99.3861 528.539,-95.2765 543.502,-92.2901"/>
<polygon fill="black" stroke="black" points="543.997,-93.9774 548.58,-91.3199 543.34,-90.5396 543.997,-93.9774"/>
</g>
</g>
</svg>
