<?xml version="1.0" encoding="UTF-8" standalone="no"?>
<!DOCTYPE svg PUBLIC "-//W3C//DTD SVG 1.1//EN"
 "http://www.w3.org/Graphics/SVG/1.1/DTD/svg11.dtd">
<!-- Generated by graphviz version 2.26.3 (20100126.1600)
 -->
<!-- Title: inheritancebe3ab90ace Pages: 1 -->
<svg width="984pt" height="389pt"
 viewBox="0.00 0.00 984.00 389.00" xmlns="http://www.w3.org/2000/svg" xmlns:xlink="http://www.w3.org/1999/xlink">
<g id="graph1" class="graph" transform="scale(1 1) rotate(0) translate(4 385)">
<title>inheritancebe3ab90ace</title>
<polygon fill="white" stroke="white" points="-4,5 -4,-385 981,-385 981,5 -4,5"/>
<!-- topo.coordmapper.ConstantMapper -->
<g id="node1" class="node"><title>topo.coordmapper.ConstantMapper</title>
<polygon fill="none" stroke="black" stroke-width="0.5" points="708,-381.5 520,-381.5 520,-360.5 708,-360.5 708,-381.5"/>
<text text-anchor="middle" x="614" y="-368.5" font-family="Vera" font-size="10.00">topo.coordmapper.ConstantMapper</text>
</g>
<!-- topo.base.functionfamily.CoordinateMapperFn -->
<g id="node2" class="node"><title>topo.base.functionfamily.CoordinateMapperFn</title>
<polygon fill="none" stroke="black" stroke-width="0.5" points="466,-210.5 230,-210.5 230,-189.5 466,-189.5 466,-210.5"/>
<text text-anchor="middle" x="348" y="-197.5" font-family="Vera" font-size="10.00">topo.base.functionfamily.CoordinateMapperFn</text>
</g>
<!-- topo.base.functionfamily.CoordinateMapperFn&#45;&gt;topo.coordmapper.ConstantMapper -->
<g id="edge2" class="edge"><title>topo.base.functionfamily.CoordinateMapperFn&#45;&gt;topo.coordmapper.ConstantMapper</title>
<path fill="none" stroke="black" stroke-width="0.5" d="M354.877,-210.27C374.258,-238.296 432.458,-316.373 502,-352 507.485,-354.81 513.3,-357.217 519.283,-359.278"/>
<polygon fill="black" stroke="black" points="519.048,-361.042 524.344,-360.929 520.133,-357.715 519.048,-361.042"/>
</g>
<!-- topo.coordmapper.Polar2Cartesian -->
<g id="node6" class="node"><title>topo.coordmapper.Polar2Cartesian</title>
<polygon fill="none" stroke="black" stroke-width="0.5" points="706,-343.5 522,-343.5 522,-322.5 706,-322.5 706,-343.5"/>
<text text-anchor="middle" x="614" y="-330.5" font-family="Vera" font-size="10.00">topo.coordmapper.Polar2Cartesian</text>
</g>
<!-- topo.base.functionfamily.CoordinateMapperFn&#45;&gt;topo.coordmapper.Polar2Cartesian -->
<g id="edge6" class="edge"><title>topo.base.functionfamily.CoordinateMapperFn&#45;&gt;topo.coordmapper.Polar2Cartesian</title>
<path fill="none" stroke="black" stroke-width="0.5" d="M358.097,-210.236C381.227,-233.015 440.791,-287.931 502,-314 508.929,-316.951 516.283,-319.445 523.781,-321.551"/>
<polygon fill="black" stroke="black" points="523.709,-323.344 528.992,-322.949 524.616,-319.963 523.709,-323.344"/>
</g>
<!-- topo.coordmapper.Grid -->
<g id="node8" class="node"><title>topo.coordmapper.Grid</title>
<polygon fill="none" stroke="black" stroke-width="0.5" points="678,-305.5 550,-305.5 550,-284.5 678,-284.5 678,-305.5"/>
<text text-anchor="middle" x="614" y="-292.5" font-family="Vera" font-size="10.00">topo.coordmapper.Grid</text>
</g>
<!-- topo.base.functionfamily.CoordinateMapperFn&#45;&gt;topo.coordmapper.Grid -->
<g id="edge8" class="edge"><title>topo.base.functionfamily.CoordinateMapperFn&#45;&gt;topo.coordmapper.Grid</title>
<path fill="none" stroke="black" stroke-width="0.5" d="M364.412,-210.107C391.853,-226.535 449.243,-258.912 502,-276 515.535,-280.384 530.336,-283.806 544.615,-286.46"/>
<polygon fill="black" stroke="black" points="544.617,-288.239 549.848,-287.404 545.238,-284.794 544.617,-288.239"/>
</g>
<!-- topo.coordmapper.NormalJitter -->
<g id="node10" class="node"><title>topo.coordmapper.NormalJitter</title>
<polygon fill="none" stroke="black" stroke-width="0.5" points="696,-267.5 532,-267.5 532,-246.5 696,-246.5 696,-267.5"/>
<text text-anchor="middle" x="614" y="-254.5" font-family="Vera" font-size="10.00">topo.coordmapper.NormalJitter</text>
</g>
<!-- topo.base.functionfamily.CoordinateMapperFn&#45;&gt;topo.coordmapper.NormalJitter -->
<g id="edge10" class="edge"><title>topo.base.functionfamily.CoordinateMapperFn&#45;&gt;topo.coordmapper.NormalJitter</title>
<path fill="none" stroke="black" stroke-width="0.5" d="M385.48,-210.071C416.555,-218.223 461.962,-229.676 502,-238 515.758,-240.86 530.533,-243.6 544.694,-246.065"/>
<polygon fill="black" stroke="black" points="544.656,-247.834 549.881,-246.961 545.251,-244.385 544.656,-247.834"/>
</g>
<!-- topo.coordmapper.OttesSCMapper -->
<g id="node13" class="node"><title>topo.coordmapper.OttesSCMapper</title>
<polygon fill="none" stroke="black" stroke-width="0.5" points="706,-229.5 522,-229.5 522,-208.5 706,-208.5 706,-229.5"/>
<text text-anchor="middle" x="614" y="-216.5" font-family="Vera" font-size="10.00">topo.coordmapper.OttesSCMapper</text>
</g>
<!-- topo.base.functionfamily.CoordinateMapperFn&#45;&gt;topo.coordmapper.OttesSCMapper -->
<g id="edge18" class="edge"><title>topo.base.functionfamily.CoordinateMapperFn&#45;&gt;topo.coordmapper.OttesSCMapper</title>
<path fill="none" stroke="black" stroke-width="0.5" d="M466.221,-208.444C483.07,-209.648 500.241,-210.874 516.632,-212.045"/>
<polygon fill="black" stroke="black" points="516.58,-213.796 521.692,-212.407 516.83,-210.305 516.58,-213.796"/>
</g>
<!-- topo.coordmapper.AffineTransform -->
<g id="node16" class="node"><title>topo.coordmapper.AffineTransform</title>
<polygon fill="none" stroke="black" stroke-width="0.5" points="705,-191.5 523,-191.5 523,-170.5 705,-170.5 705,-191.5"/>
<text text-anchor="middle" x="614" y="-178.5" font-family="Vera" font-size="10.00">topo.coordmapper.AffineTransform</text>
</g>
<!-- topo.base.functionfamily.CoordinateMapperFn&#45;&gt;topo.coordmapper.AffineTransform -->
<g id="edge28" class="edge"><title>topo.base.functionfamily.CoordinateMapperFn&#45;&gt;topo.coordmapper.AffineTransform</title>
<path fill="none" stroke="black" stroke-width="0.5" d="M466.221,-191.556C483.448,-190.325 501.01,-189.071 517.731,-187.876"/>
<polygon fill="black" stroke="black" points="518.03,-189.61 522.893,-187.508 517.781,-186.118 518.03,-189.61"/>
</g>
<!-- topo.coordmapper.Jitter -->
<g id="node18" class="node"><title>topo.coordmapper.Jitter</title>
<polygon fill="none" stroke="black" stroke-width="0.5" points="679,-153.5 549,-153.5 549,-132.5 679,-132.5 679,-153.5"/>
<text text-anchor="middle" x="614" y="-140.5" font-family="Vera" font-size="10.00">topo.coordmapper.Jitter</text>
</g>
<!-- topo.base.functionfamily.CoordinateMapperFn&#45;&gt;topo.coordmapper.Jitter -->
<g id="edge16" class="edge"><title>topo.base.functionfamily.CoordinateMapperFn&#45;&gt;topo.coordmapper.Jitter</title>
<path fill="none" stroke="black" stroke-width="0.5" d="M385.48,-189.929C416.555,-181.777 461.962,-170.324 502,-162 515.758,-159.14 530.533,-156.4 544.694,-153.935"/>
<polygon fill="black" stroke="black" points="545.251,-155.615 549.881,-153.039 544.656,-152.166 545.251,-155.615"/>
</g>
<!-- topo.coordmapper.Pipeline -->
<g id="node21" class="node"><title>topo.coordmapper.Pipeline</title>
<polygon fill="none" stroke="black" stroke-width="0.5" points="686,-115.5 542,-115.5 542,-94.5 686,-94.5 686,-115.5"/>
<text text-anchor="middle" x="614" y="-102.5" font-family="Vera" font-size="10.00">topo.coordmapper.Pipeline</text>
</g>
<!-- topo.base.functionfamily.CoordinateMapperFn&#45;&gt;topo.coordmapper.Pipeline -->
<g id="edge20" class="edge"><title>topo.base.functionfamily.CoordinateMapperFn&#45;&gt;topo.coordmapper.Pipeline</title>
<path fill="none" stroke="black" stroke-width="0.5" d="M364.412,-189.893C391.853,-173.465 449.243,-141.088 502,-124 512.917,-120.464 524.658,-117.553 536.284,-115.167"/>
<polygon fill="black" stroke="black" points="536.695,-116.87 541.257,-114.176 536.011,-113.437 536.695,-116.87"/>
</g>
<!-- topo.coordmapper.Cartesian2Polar -->
<g id="node25" class="node"><title>topo.coordmapper.Cartesian2Polar</title>
<polygon fill="none" stroke="black" stroke-width="0.5" points="706,-77.5 522,-77.5 522,-56.5 706,-56.5 706,-77.5"/>
<text text-anchor="middle" x="614" y="-64.5" font-family="Vera" font-size="10.00">topo.coordmapper.Cartesian2Polar</text>
</g>
<!-- topo.base.functionfamily.CoordinateMapperFn&#45;&gt;topo.coordmapper.Cartesian2Polar -->
<g id="edge24" class="edge"><title>topo.base.functionfamily.CoordinateMapperFn&#45;&gt;topo.coordmapper.Cartesian2Polar</title>
<path fill="none" stroke="black" stroke-width="0.5" d="M358.097,-189.764C381.227,-166.985 440.791,-112.069 502,-86 508.929,-83.0488 516.283,-80.5553 523.781,-78.4486"/>
<polygon fill="black" stroke="black" points="524.616,-80.0367 528.992,-77.051 523.709,-76.6562 524.616,-80.0367"/>
</g>
<!-- topo.coordmapper.SingleDimensionMapper -->
<g id="node28" class="node"><title>topo.coordmapper.SingleDimensionMapper</title>
<polygon fill="none" stroke="black" stroke-width="0.5" points="726,-39.5 502,-39.5 502,-18.5 726,-18.5 726,-39.5"/>
<text text-anchor="middle" x="614" y="-26.5" font-family="Vera" font-size="10.00">topo.coordmapper.SingleDimensionMapper</text>
</g>
<!-- topo.base.functionfamily.CoordinateMapperFn&#45;&gt;topo.coordmapper.SingleDimensionMapper -->
<g id="edge32" class="edge"><title>topo.base.functionfamily.CoordinateMapperFn&#45;&gt;topo.coordmapper.SingleDimensionMapper</title>
<path fill="none" stroke="black" stroke-width="0.5" d="M354.877,-189.73C374.258,-161.704 432.458,-83.6275 502,-48 507.485,-45.1898 513.3,-42.7826 519.283,-40.7218"/>
<polygon fill="black" stroke="black" points="520.133,-42.2853 524.344,-39.071 519.048,-38.9578 520.133,-42.2853"/>
</g>
<!-- param.parameterized.Parameterized -->
<g id="node4" class="node"><title>param.parameterized.Parameterized</title>
<polygon fill="none" stroke="black" stroke-width="0.5" points="194,-210.5 5.68434e-14,-210.5 0,-189.5 194,-189.5 194,-210.5"/>
<text text-anchor="middle" x="97" y="-197.5" font-family="Vera" font-size="10.00">param.parameterized.Parameterized</text>
</g>
<!-- param.parameterized.Parameterized&#45;&gt;topo.base.functionfamily.CoordinateMapperFn -->
<g id="edge4" class="edge"><title>param.parameterized.Parameterized&#45;&gt;topo.base.functionfamily.CoordinateMapperFn</title>
<path fill="none" stroke="black" stroke-width="0.5" d="M194.043,-200C204.12,-200 214.455,-200 224.77,-200"/>
<polygon fill="black" stroke="black" points="224.831,-201.75 229.831,-200 224.831,-198.25 224.831,-201.75"/>
</g>
<!-- topo.coordmapper.OttesSCSenseMapper -->
<g id="node12" class="node"><title>topo.coordmapper.OttesSCSenseMapper</title>
<polygon fill="none" stroke="black" stroke-width="0.5" points="976,-267.5 762,-267.5 762,-246.5 976,-246.5 976,-267.5"/>
<text text-anchor="middle" x="869" y="-254.5" font-family="Vera" font-size="10.00">topo.coordmapper.OttesSCSenseMapper</text>
</g>
<!-- topo.coordmapper.OttesSCMapper&#45;&gt;topo.coordmapper.OttesSCSenseMapper -->
<g id="edge12" class="edge"><title>topo.coordmapper.OttesSCMapper&#45;&gt;topo.coordmapper.OttesSCSenseMapper</title>
<path fill="none" stroke="black" stroke-width="0.5" d="M681.332,-229.034C716.773,-234.315 760.262,-240.796 796.449,-246.189"/>
<polygon fill="black" stroke="black" points="796.53,-247.97 801.733,-246.976 797.046,-244.508 796.53,-247.97"/>
</g>
<!-- topo.coordmapper.OttesSCMotorMapper -->
<g id="node36" class="node"><title>topo.coordmapper.OttesSCMotorMapper</title>
<polygon fill="none" stroke="black" stroke-width="0.5" points="975,-229.5 763,-229.5 763,-208.5 975,-208.5 975,-229.5"/>
<text text-anchor="middle" x="869" y="-216.5" font-family="Vera" font-size="10.00">topo.coordmapper.OttesSCMotorMapper</text>
</g>
<!-- topo.coordmapper.OttesSCMapper&#45;&gt;topo.coordmapper.OttesSCMotorMapper -->
<g id="edge36" class="edge"><title>topo.coordmapper.OttesSCMapper&#45;&gt;topo.coordmapper.OttesSCMotorMapper</title>
<path fill="none" stroke="black" stroke-width="0.5" d="M706.061,-219C722.739,-219 740.295,-219 757.46,-219"/>
<polygon fill="black" stroke="black" points="757.773,-220.75 762.773,-219 757.773,-217.25 757.773,-220.75"/>
</g>
<!-- topo.coordmapper.Scale2d -->
<g id="node15" class="node"><title>topo.coordmapper.Scale2d</title>
<polygon fill="none" stroke="black" stroke-width="0.5" points="942,-191.5 796,-191.5 796,-170.5 942,-170.5 942,-191.5"/>
<text text-anchor="middle" x="869" y="-178.5" font-family="Vera" font-size="10.00">topo.coordmapper.Scale2d</text>
</g>
<!-- topo.coordmapper.AffineTransform&#45;&gt;topo.coordmapper.Scale2d -->
<g id="edge14" class="edge"><title>topo.coordmapper.AffineTransform&#45;&gt;topo.coordmapper.Scale2d</title>
<path fill="none" stroke="black" stroke-width="0.5" d="M705.341,-181C733.324,-181 763.841,-181 790.86,-181"/>
<polygon fill="black" stroke="black" points="790.863,-182.75 795.863,-181 790.863,-179.25 790.863,-182.75"/>
</g>
<!-- topo.coordmapper.Translate2d -->
<g id="node23" class="node"><title>topo.coordmapper.Translate2d</title>
<polygon fill="none" stroke="black" stroke-width="0.5" points="950,-153.5 788,-153.5 788,-132.5 950,-132.5 950,-153.5"/>
<text text-anchor="middle" x="869" y="-140.5" font-family="Vera" font-size="10.00">topo.coordmapper.Translate2d</text>
</g>
<!-- topo.coordmapper.AffineTransform&#45;&gt;topo.coordmapper.Translate2d -->
<g id="edge22" class="edge"><title>topo.coordmapper.AffineTransform&#45;&gt;topo.coordmapper.Translate2d</title>
<path fill="none" stroke="black" stroke-width="0.5" d="M681.332,-170.966C716.773,-165.685 760.262,-159.204 796.449,-153.811"/>
<polygon fill="black" stroke="black" points="797.046,-155.492 801.733,-153.024 796.53,-152.03 797.046,-155.492"/>
</g>
<!-- topo.coordmapper.Rotate2d -->
<g id="node31" class="node"><title>topo.coordmapper.Rotate2d</title>
<polygon fill="none" stroke="black" stroke-width="0.5" points="944,-115.5 794,-115.5 794,-94.5 944,-94.5 944,-115.5"/>
<text text-anchor="middle" x="869" y="-102.5" font-family="Vera" font-size="10.00">topo.coordmapper.Rotate2d</text>
</g>
<!-- topo.coordmapper.AffineTransform&#45;&gt;topo.coordmapper.Rotate2d -->
<g id="edge30" class="edge"><title>topo.coordmapper.AffineTransform&#45;&gt;topo.coordmapper.Rotate2d</title>
<path fill="none" stroke="black" stroke-width="0.5" d="M704.367,-170.995C711.897,-168.58 719.214,-165.621 726,-162 746.524,-151.046 741.518,-135.032 762,-124 770.204,-119.581 779.225,-116.16 788.443,-113.516"/>
<polygon fill="black" stroke="black" points="788.911,-115.202 793.278,-112.203 787.994,-111.825 788.911,-115.202"/>
</g>
<!-- topo.coordmapper.MagnifyingMapper -->
<g id="node27" class="node"><title>topo.coordmapper.MagnifyingMapper</title>
<polygon fill="none" stroke="black" stroke-width="0.5" points="966,-58.5 772,-58.5 772,-37.5 966,-37.5 966,-58.5"/>
<text text-anchor="middle" x="869" y="-45.5" font-family="Vera" font-size="10.00">topo.coordmapper.MagnifyingMapper</text>
</g>
<!-- topo.coordmapper.SingleDimensionMapper&#45;&gt;topo.coordmapper.MagnifyingMapper -->
<g id="edge26" class="edge"><title>topo.coordmapper.SingleDimensionMapper&#45;&gt;topo.coordmapper.MagnifyingMapper</title>
<path fill="none" stroke="black" stroke-width="0.5" d="M726.218,-37.3613C739.429,-38.3457 752.863,-39.3467 765.941,-40.3211"/>
<polygon fill="black" stroke="black" points="766.012,-42.0811 771.128,-40.7076 766.272,-38.5908 766.012,-42.0811"/>
</g>
<!-- topo.coordmapper.ReducingMapper -->
<g id="node34" class="node"><title>topo.coordmapper.ReducingMapper</title>
<polygon fill="none" stroke="black" stroke-width="0.5" points="962,-20.5 776,-20.5 776,0.5 962,0.5 962,-20.5"/>
<text text-anchor="middle" x="869" y="-7.5" font-family="Vera" font-size="10.00">topo.coordmapper.ReducingMapper</text>
</g>
<!-- topo.coordmapper.SingleDimensionMapper&#45;&gt;topo.coordmapper.ReducingMapper -->
<g id="edge34" class="edge"><title>topo.coordmapper.SingleDimensionMapper&#45;&gt;topo.coordmapper.ReducingMapper</title>
<path fill="none" stroke="black" stroke-width="0.5" d="M726.218,-20.6387C740.855,-19.548 755.766,-18.4371 770.162,-17.3644"/>
<polygon fill="black" stroke="black" points="770.585,-19.0878 775.441,-16.9711 770.325,-15.5975 770.585,-19.0878"/>
</g>
</g>
</svg>
