<?xml version="1.0" encoding="UTF-8" standalone="no"?>
<!DOCTYPE svg PUBLIC "-//W3C//DTD SVG 1.1//EN"
 "http://www.w3.org/Graphics/SVG/1.1/DTD/svg11.dtd">
<!-- Generated by graphviz version 2.26.3 (20100126.1600)
 -->
<!-- Title: inheritance10172fd8d9 Pages: 1 -->
<svg width="2908pt" height="180pt"
 viewBox="0.00 0.00 2908.00 180.00" xmlns="http://www.w3.org/2000/svg" xmlns:xlink="http://www.w3.org/1999/xlink">
<g id="graph1" class="graph" transform="scale(1 1) rotate(0) translate(4 176)">
<title>inheritance10172fd8d9</title>
<polygon fill="white" stroke="white" points="-4,5 -4,-176 2905,-176 2905,5 -4,5"/>
<!-- paramtk.TkParameterizedBase -->
<g id="node1" class="node"><title>paramtk.TkParameterizedBase</title>
<polygon fill="none" stroke="black" stroke-width="0.5" points="502,-39.5 338,-39.5 338,-18.5 502,-18.5 502,-39.5"/>
<text text-anchor="middle" x="420" y="-26.5" font-family="Vera" font-size="10.00">paramtk.TkParameterizedBase</text>
</g>
<!-- paramtk.TkParameterized -->
<g id="node8" class="node"><title>paramtk.TkParameterized</title>
<polygon fill="none" stroke="black" stroke-width="0.5" points="678,-48.5 538,-48.5 538,-27.5 678,-27.5 678,-48.5"/>
<text text-anchor="middle" x="608" y="-35.5" font-family="Vera" font-size="10.00">paramtk.TkParameterized</text>
</g>
<!-- paramtk.TkParameterizedBase&#45;&gt;paramtk.TkParameterized -->
<g id="edge6" class="edge"><title>paramtk.TkParameterizedBase&#45;&gt;paramtk.TkParameterized</title>
<path fill="none" stroke="black" stroke-width="0.5" d="M502.186,-32.9344C512.283,-33.4178 522.564,-33.91 532.554,-34.3882"/>
<polygon fill="black" stroke="black" points="532.671,-36.1458 537.749,-34.6369 532.839,-32.6498 532.671,-36.1458"/>
</g>
<!-- param.parameterized.Parameterized -->
<g id="node2" class="node"><title>param.parameterized.Parameterized</title>
<polygon fill="none" stroke="black" stroke-width="0.5" points="302,-20.5 108,-20.5 108,0.5 302,0.5 302,-20.5"/>
<text text-anchor="middle" x="205" y="-7.5" font-family="Vera" font-size="10.00">param.parameterized.Parameterized</text>
</g>
<!-- param.parameterized.Parameterized&#45;&gt;paramtk.TkParameterizedBase -->
<g id="edge2" class="edge"><title>param.parameterized.Parameterized&#45;&gt;paramtk.TkParameterizedBase</title>
<path fill="none" stroke="black" stroke-width="0.5" d="M302.121,-18.5828C312.261,-19.4789 322.525,-20.3859 332.548,-21.2717"/>
<polygon fill="black" stroke="black" points="332.631,-23.0358 337.766,-21.7328 332.939,-19.5493 332.631,-23.0358"/>
</g>
<!-- topo.tkgui.projectionpanel.ProjectionPanel -->
<g id="node4" class="node"><title>topo.tkgui.projectionpanel.ProjectionPanel</title>
<polygon fill="none" stroke="black" stroke-width="0.5" points="2617,-145.5 2401,-145.5 2401,-124.5 2617,-124.5 2617,-145.5"/>
<text text-anchor="middle" x="2509" y="-132.5" font-family="Vera" font-size="10.00">topo.tkgui.projectionpanel.ProjectionPanel</text>
</g>
<!-- topo.tkgui.projectionpanel.CFProjectionPanel -->
<g id="node36" class="node"><title>topo.tkgui.projectionpanel.CFProjectionPanel</title>
<polygon fill="none" stroke="black" stroke-width="0.5" points="2899,-145.5 2671,-145.5 2671,-124.5 2899,-124.5 2899,-145.5"/>
<text text-anchor="middle" x="2785" y="-132.5" font-family="Vera" font-size="10.00">topo.tkgui.projectionpanel.CFProjectionPanel</text>
</g>
<!-- topo.tkgui.projectionpanel.ProjectionPanel&#45;&gt;topo.tkgui.projectionpanel.CFProjectionPanel -->
<g id="edge34" class="edge"><title>topo.tkgui.projectionpanel.ProjectionPanel&#45;&gt;topo.tkgui.projectionpanel.CFProjectionPanel</title>
<path fill="none" stroke="black" stroke-width="0.5" d="M2617.69,-135C2633.14,-135 2649.1,-135 2664.76,-135"/>
<polygon fill="black" stroke="black" points="2665.05,-136.75 2670.05,-135 2665.05,-133.25 2665.05,-136.75"/>
</g>
<!-- topo.tkgui.projectionpanel.PlotMatrixPanel -->
<g id="node5" class="node"><title>topo.tkgui.projectionpanel.PlotMatrixPanel</title>
<polygon fill="none" stroke="black" stroke-width="0.5" points="2330,-107.5 2114,-107.5 2114,-86.5 2330,-86.5 2330,-107.5"/>
<text text-anchor="middle" x="2222" y="-94.5" font-family="Vera" font-size="10.00">topo.tkgui.projectionpanel.PlotMatrixPanel</text>
</g>
<!-- topo.tkgui.projectionpanel.PlotMatrixPanel&#45;&gt;topo.tkgui.projectionpanel.ProjectionPanel -->
<g id="edge4" class="edge"><title>topo.tkgui.projectionpanel.PlotMatrixPanel&#45;&gt;topo.tkgui.projectionpanel.ProjectionPanel</title>
<path fill="none" stroke="black" stroke-width="0.5" d="M2297.78,-107.034C2337.83,-112.337 2387.02,-118.849 2427.85,-124.255"/>
<polygon fill="black" stroke="black" points="2428.11,-126.054 2433.29,-124.976 2428.57,-122.585 2428.11,-126.054"/>
</g>
<!-- topo.tkgui.projectionpanel.RFProjectionPanel -->
<g id="node38" class="node"><title>topo.tkgui.projectionpanel.RFProjectionPanel</title>
<polygon fill="none" stroke="black" stroke-width="0.5" points="2623,-107.5 2395,-107.5 2395,-86.5 2623,-86.5 2623,-107.5"/>
<text text-anchor="middle" x="2509" y="-94.5" font-family="Vera" font-size="10.00">topo.tkgui.projectionpanel.RFProjectionPanel</text>
</g>
<!-- topo.tkgui.projectionpanel.PlotMatrixPanel&#45;&gt;topo.tkgui.projectionpanel.RFProjectionPanel -->
<g id="edge36" class="edge"><title>topo.tkgui.projectionpanel.PlotMatrixPanel&#45;&gt;topo.tkgui.projectionpanel.RFProjectionPanel</title>
<path fill="none" stroke="black" stroke-width="0.5" d="M2330.5,-97C2349.66,-97 2369.69,-97 2389.14,-97"/>
<polygon fill="black" stroke="black" points="2389.6,-98.7501 2394.6,-97 2389.6,-95.2501 2389.6,-98.7501"/>
</g>
<!-- Tkinter.Pack -->
<g id="node7" class="node"><title>Tkinter.Pack</title>
<polygon fill="none" stroke="black" stroke-width="0.5" points="241,-172.5 169,-172.5 169,-151.5 241,-151.5 241,-172.5"/>
<text text-anchor="middle" x="205" y="-159.5" font-family="Vera" font-size="10.00">Tkinter.Pack</text>
</g>
<!-- Tkinter.Widget -->
<g id="node25" class="node"><title>Tkinter.Widget</title>
<polygon fill="none" stroke="black" stroke-width="0.5" points="461,-96.5 379,-96.5 379,-75.5 461,-75.5 461,-96.5"/>
<text text-anchor="middle" x="420" y="-83.5" font-family="Vera" font-size="10.00">Tkinter.Widget</text>
</g>
<!-- Tkinter.Pack&#45;&gt;Tkinter.Widget -->
<g id="edge20" class="edge"><title>Tkinter.Pack&#45;&gt;Tkinter.Widget</title>
<path fill="none" stroke="black" stroke-width="0.5" d="M241.5,-157.123C259.93,-154.093 282.464,-149.511 302,-143 337.006,-131.333 375.019,-111.57 398.178,-98.6531"/>
<polygon fill="black" stroke="black" points="399.105,-100.14 402.607,-96.1653 397.39,-97.0885 399.105,-100.14"/>
</g>
<!-- topo.tkgui.plotgrouppanel.PlotGroupPanel -->
<g id="node21" class="node"><title>topo.tkgui.plotgrouppanel.PlotGroupPanel</title>
<polygon fill="none" stroke="black" stroke-width="0.5" points="929,-69.5 715,-69.5 715,-48.5 929,-48.5 929,-69.5"/>
<text text-anchor="middle" x="822" y="-56.5" font-family="Vera" font-size="10.00">topo.tkgui.plotgrouppanel.PlotGroupPanel</text>
</g>
<!-- paramtk.TkParameterized&#45;&gt;topo.tkgui.plotgrouppanel.PlotGroupPanel -->
<g id="edge14" class="edge"><title>paramtk.TkParameterized&#45;&gt;topo.tkgui.plotgrouppanel.PlotGroupPanel</title>
<path fill="none" stroke="black" stroke-width="0.5" d="M678.072,-44.8762C689.909,-46.0378 702.434,-47.2669 714.959,-48.496"/>
<polygon fill="black" stroke="black" points="714.798,-50.2385 719.945,-48.9853 715.14,-46.7553 714.798,-50.2385"/>
</g>
<!-- topo.tkgui.projectionpanel.ProjectionSheetPanel -->
<g id="node10" class="node"><title>topo.tkgui.projectionpanel.ProjectionSheetPanel</title>
<polygon fill="none" stroke="black" stroke-width="0.5" points="2059,-69.5 1815,-69.5 1815,-48.5 2059,-48.5 2059,-69.5"/>
<text text-anchor="middle" x="1937" y="-56.5" font-family="Vera" font-size="10.00">topo.tkgui.projectionpanel.ProjectionSheetPanel</text>
</g>
<!-- topo.tkgui.projectionpanel.ProjectionSheetPanel&#45;&gt;topo.tkgui.projectionpanel.PlotMatrixPanel -->
<g id="edge26" class="edge"><title>topo.tkgui.projectionpanel.ProjectionSheetPanel&#45;&gt;topo.tkgui.projectionpanel.PlotMatrixPanel</title>
<path fill="none" stroke="black" stroke-width="0.5" d="M2012.25,-69.0338C2052.03,-74.3369 2100.87,-80.8491 2141.41,-86.2547"/>
<polygon fill="black" stroke="black" points="2141.63,-88.0497 2146.82,-86.976 2142.09,-84.5804 2141.63,-88.0497"/>
</g>
<!-- topo.tkgui.projectionpanel.UnitsPanel -->
<g id="node16" class="node"><title>topo.tkgui.projectionpanel.UnitsPanel</title>
<polygon fill="none" stroke="black" stroke-width="0.5" points="2319,-69.5 2125,-69.5 2125,-48.5 2319,-48.5 2319,-69.5"/>
<text text-anchor="middle" x="2222" y="-56.5" font-family="Vera" font-size="10.00">topo.tkgui.projectionpanel.UnitsPanel</text>
</g>
<!-- topo.tkgui.projectionpanel.ProjectionSheetPanel&#45;&gt;topo.tkgui.projectionpanel.UnitsPanel -->
<g id="edge38" class="edge"><title>topo.tkgui.projectionpanel.ProjectionSheetPanel&#45;&gt;topo.tkgui.projectionpanel.UnitsPanel</title>
<path fill="none" stroke="black" stroke-width="0.5" d="M2059.52,-59C2079.52,-59 2100.05,-59 2119.5,-59"/>
<polygon fill="black" stroke="black" points="2119.95,-60.7501 2124.95,-59 2119.95,-57.2501 2119.95,-60.7501"/>
</g>
<!-- topo.tkgui.projectionpanel.ProjectionActivityPanel -->
<g id="node42" class="node"><title>topo.tkgui.projectionpanel.ProjectionActivityPanel</title>
<polygon fill="none" stroke="black" stroke-width="0.5" points="2347,-31.5 2097,-31.5 2097,-10.5 2347,-10.5 2347,-31.5"/>
<text text-anchor="middle" x="2222" y="-18.5" font-family="Vera" font-size="10.00">topo.tkgui.projectionpanel.ProjectionActivityPanel</text>
</g>
<!-- topo.tkgui.projectionpanel.ProjectionSheetPanel&#45;&gt;topo.tkgui.projectionpanel.ProjectionActivityPanel -->
<g id="edge42" class="edge"><title>topo.tkgui.projectionpanel.ProjectionSheetPanel&#45;&gt;topo.tkgui.projectionpanel.ProjectionActivityPanel</title>
<path fill="none" stroke="black" stroke-width="0.5" d="M2012.25,-48.9662C2052.03,-43.6631 2100.87,-37.1509 2141.41,-31.7453"/>
<polygon fill="black" stroke="black" points="2142.09,-33.4196 2146.82,-31.024 2141.63,-29.9503 2142.09,-33.4196"/>
</g>
<!-- topo.tkgui.templateplotgrouppanel.SheetPanel -->
<g id="node11" class="node"><title>topo.tkgui.templateplotgrouppanel.SheetPanel</title>
<polygon fill="none" stroke="black" stroke-width="0.5" points="1778,-69.5 1538,-69.5 1538,-48.5 1778,-48.5 1778,-69.5"/>
<text text-anchor="middle" x="1658" y="-56.5" font-family="Vera" font-size="10.00">topo.tkgui.templateplotgrouppanel.SheetPanel</text>
</g>
<!-- topo.tkgui.templateplotgrouppanel.SheetPanel&#45;&gt;topo.tkgui.projectionpanel.ProjectionSheetPanel -->
<g id="edge8" class="edge"><title>topo.tkgui.templateplotgrouppanel.SheetPanel&#45;&gt;topo.tkgui.projectionpanel.ProjectionSheetPanel</title>
<path fill="none" stroke="black" stroke-width="0.5" d="M1778.35,-59C1788.61,-59 1799.02,-59 1809.34,-59"/>
<polygon fill="black" stroke="black" points="1809.4,-60.7501 1814.4,-59 1809.4,-57.2501 1809.4,-60.7501"/>
</g>
<!-- Tkinter.Place -->
<g id="node13" class="node"><title>Tkinter.Place</title>
<polygon fill="none" stroke="black" stroke-width="0.5" points="243,-134.5 167,-134.5 167,-113.5 243,-113.5 243,-134.5"/>
<text text-anchor="middle" x="205" y="-121.5" font-family="Vera" font-size="10.00">Tkinter.Place</text>
</g>
<!-- Tkinter.Place&#45;&gt;Tkinter.Widget -->
<g id="edge22" class="edge"><title>Tkinter.Place&#45;&gt;Tkinter.Widget</title>
<path fill="none" stroke="black" stroke-width="0.5" d="M243.935,-117.118C280.299,-110.691 334.629,-101.089 373.308,-94.2525"/>
<polygon fill="black" stroke="black" points="373.801,-95.9426 378.42,-93.3489 373.192,-92.496 373.801,-95.9426"/>
</g>
<!-- Tkinter.Grid -->
<g id="node14" class="node"><title>Tkinter.Grid</title>
<polygon fill="none" stroke="black" stroke-width="0.5" points="240,-96.5 170,-96.5 170,-75.5 240,-75.5 240,-96.5"/>
<text text-anchor="middle" x="205" y="-83.5" font-family="Vera" font-size="10.00">Tkinter.Grid</text>
</g>
<!-- Tkinter.Grid&#45;&gt;Tkinter.Widget -->
<g id="edge24" class="edge"><title>Tkinter.Grid&#45;&gt;Tkinter.Widget</title>
<path fill="none" stroke="black" stroke-width="0.5" d="M240.503,-86C276.687,-86 333.012,-86 372.905,-86"/>
<polygon fill="black" stroke="black" points="373.175,-87.7501 378.175,-86 373.175,-84.2501 373.175,-87.7501"/>
</g>
<!-- topo.tkgui.projectionpanel.ConnectionFieldsPanel -->
<g id="node15" class="node"><title>topo.tkgui.projectionpanel.ConnectionFieldsPanel</title>
<polygon fill="none" stroke="black" stroke-width="0.5" points="2634,-69.5 2384,-69.5 2384,-48.5 2634,-48.5 2634,-69.5"/>
<text text-anchor="middle" x="2509" y="-56.5" font-family="Vera" font-size="10.00">topo.tkgui.projectionpanel.ConnectionFieldsPanel</text>
</g>
<!-- topo.tkgui.projectionpanel.UnitsPanel&#45;&gt;topo.tkgui.projectionpanel.ConnectionFieldsPanel -->
<g id="edge10" class="edge"><title>topo.tkgui.projectionpanel.UnitsPanel&#45;&gt;topo.tkgui.projectionpanel.ConnectionFieldsPanel</title>
<path fill="none" stroke="black" stroke-width="0.5" d="M2319.17,-59C2338.35,-59 2358.78,-59 2378.86,-59"/>
<polygon fill="black" stroke="black" points="2378.95,-60.7501 2383.95,-59 2378.95,-57.2501 2378.95,-60.7501"/>
</g>
<!-- Tkinter.BaseWidget -->
<g id="node18" class="node"><title>Tkinter.BaseWidget</title>
<polygon fill="none" stroke="black" stroke-width="0.5" points="258,-58.5 152,-58.5 152,-37.5 258,-37.5 258,-58.5"/>
<text text-anchor="middle" x="205" y="-45.5" font-family="Vera" font-size="10.00">Tkinter.BaseWidget</text>
</g>
<!-- Tkinter.BaseWidget&#45;&gt;Tkinter.Widget -->
<g id="edge18" class="edge"><title>Tkinter.BaseWidget&#45;&gt;Tkinter.Widget</title>
<path fill="none" stroke="black" stroke-width="0.5" d="M258.699,-57.491C293.881,-63.7093 339.423,-71.7584 373.138,-77.7174"/>
<polygon fill="black" stroke="black" points="373.216,-79.5083 378.444,-78.6553 373.825,-76.0617 373.216,-79.5083"/>
</g>
<!-- Tkinter.Misc -->
<g id="node19" class="node"><title>Tkinter.Misc</title>
<polygon fill="none" stroke="black" stroke-width="0.5" points="72,-58.5 2.84217e-14,-58.5 0,-37.5 72,-37.5 72,-58.5"/>
<text text-anchor="middle" x="36" y="-45.5" font-family="Vera" font-size="10.00">Tkinter.Misc</text>
</g>
<!-- Tkinter.Misc&#45;&gt;Tkinter.BaseWidget -->
<g id="edge12" class="edge"><title>Tkinter.Misc&#45;&gt;Tkinter.BaseWidget</title>
<path fill="none" stroke="black" stroke-width="0.5" d="M72.2547,-48C93.805,-48 121.651,-48 146.27,-48"/>
<polygon fill="black" stroke="black" points="146.471,-49.7501 151.471,-48 146.471,-46.2501 146.471,-49.7501"/>
</g>
<!-- topo.tkgui.plotgrouppanel.SheetPanel -->
<g id="node32" class="node"><title>topo.tkgui.plotgrouppanel.SheetPanel</title>
<polygon fill="none" stroke="black" stroke-width="0.5" points="1163,-69.5 967,-69.5 967,-48.5 1163,-48.5 1163,-69.5"/>
<text text-anchor="middle" x="1065" y="-56.5" font-family="Vera" font-size="10.00">topo.tkgui.plotgrouppanel.SheetPanel</text>
</g>
<!-- topo.tkgui.plotgrouppanel.PlotGroupPanel&#45;&gt;topo.tkgui.plotgrouppanel.SheetPanel -->
<g id="edge30" class="edge"><title>topo.tkgui.plotgrouppanel.PlotGroupPanel&#45;&gt;topo.tkgui.plotgrouppanel.SheetPanel</title>
<path fill="none" stroke="black" stroke-width="0.5" d="M929.645,-59C940.118,-59 950.73,-59 961.165,-59"/>
<polygon fill="black" stroke="black" points="961.272,-60.7501 966.272,-59 961.272,-57.2501 961.272,-60.7501"/>
</g>
<!-- Tkinter.Frame -->
<g id="node23" class="node"><title>Tkinter.Frame</title>
<polygon fill="none" stroke="black" stroke-width="0.5" points="648,-91.5 568,-91.5 568,-70.5 648,-70.5 648,-91.5"/>
<text text-anchor="middle" x="608" y="-78.5" font-family="Vera" font-size="10.00">Tkinter.Frame</text>
</g>
<!-- Tkinter.Frame&#45;&gt;topo.tkgui.plotgrouppanel.PlotGroupPanel -->
<g id="edge16" class="edge"><title>Tkinter.Frame&#45;&gt;topo.tkgui.plotgrouppanel.PlotGroupPanel</title>
<path fill="none" stroke="black" stroke-width="0.5" d="M648.503,-76.8361C668.724,-74.7573 694.194,-72.1389 719.344,-69.5534"/>
<polygon fill="black" stroke="black" points="719.573,-71.2892 724.368,-69.0369 719.215,-67.8075 719.573,-71.2892"/>
</g>
<!-- Tkinter.Widget&#45;&gt;Tkinter.Frame -->
<g id="edge32" class="edge"><title>Tkinter.Widget&#45;&gt;Tkinter.Frame</title>
<path fill="none" stroke="black" stroke-width="0.5" d="M461.723,-84.8903C491.481,-84.0989 531.488,-83.0349 562.14,-82.2197"/>
<polygon fill="black" stroke="black" points="562.411,-83.9632 567.362,-82.0808 562.318,-80.4644 562.411,-83.9632"/>
</g>
<!-- topo.tkgui.templateplotgrouppanel.TemplatePlotGroupPanel -->
<g id="node31" class="node"><title>topo.tkgui.templateplotgrouppanel.TemplatePlotGroupPanel</title>
<polygon fill="none" stroke="black" stroke-width="0.5" points="1502,-69.5 1200,-69.5 1200,-48.5 1502,-48.5 1502,-69.5"/>
<text text-anchor="middle" x="1351" y="-56.5" font-family="Vera" font-size="10.00">topo.tkgui.templateplotgrouppanel.TemplatePlotGroupPanel</text>
</g>
<!-- topo.tkgui.templateplotgrouppanel.TemplatePlotGroupPanel&#45;&gt;topo.tkgui.templateplotgrouppanel.SheetPanel -->
<g id="edge40" class="edge"><title>topo.tkgui.templateplotgrouppanel.TemplatePlotGroupPanel&#45;&gt;topo.tkgui.templateplotgrouppanel.SheetPanel</title>
<path fill="none" stroke="black" stroke-width="0.5" d="M1502.25,-59C1512.43,-59 1522.63,-59 1532.66,-59"/>
<polygon fill="black" stroke="black" points="1532.89,-60.7501 1537.89,-59 1532.89,-57.2501 1532.89,-60.7501"/>
</g>
<!-- topo.tkgui.plotgrouppanel.SheetPanel&#45;&gt;topo.tkgui.templateplotgrouppanel.TemplatePlotGroupPanel -->
<g id="edge28" class="edge"><title>topo.tkgui.plotgrouppanel.SheetPanel&#45;&gt;topo.tkgui.templateplotgrouppanel.TemplatePlotGroupPanel</title>
<path fill="none" stroke="black" stroke-width="0.5" d="M1163.83,-59C1173.89,-59 1184.27,-59 1194.75,-59"/>
<polygon fill="black" stroke="black" points="1194.9,-60.7501 1199.9,-59 1194.9,-57.2501 1194.9,-60.7501"/>
</g>
</g>
</svg>
