<?xml version="1.0" encoding="UTF-8" standalone="no"?>
<!DOCTYPE svg PUBLIC "-//W3C//DTD SVG 1.1//EN"
 "http://www.w3.org/Graphics/SVG/1.1/DTD/svg11.dtd">
<!-- Generated by graphviz version 2.26.3 (20100126.1600)
 -->
<!-- Title: inheritance273a80740e Pages: 1 -->
<svg width="856pt" height="902pt"
 viewBox="0.00 0.00 856.00 902.00" xmlns="http://www.w3.org/2000/svg" xmlns:xlink="http://www.w3.org/1999/xlink">
<g id="graph1" class="graph" transform="scale(1 1) rotate(0) translate(4 898)">
<title>inheritance273a80740e</title>
<polygon fill="white" stroke="white" points="-4,5 -4,-898 853,-898 853,5 -4,5"/>
<!-- imagen.Line -->
<g id="node1" class="node"><title>imagen.Line</title>
<polygon fill="none" stroke="black" stroke-width="0.5" points="609,-856.5 535,-856.5 535,-835.5 609,-835.5 609,-856.5"/>
<text text-anchor="middle" x="572" y="-843.5" font-family="Vera" font-size="10.00">imagen.Line</text>
</g>
<!-- imagen.patterngenerator.PatternGenerator -->
<g id="node2" class="node"><title>imagen.patterngenerator.PatternGenerator</title>
<polygon fill="none" stroke="black" stroke-width="0.5" points="454,-438.5 230,-438.5 230,-417.5 454,-417.5 454,-438.5"/>
<text text-anchor="middle" x="342" y="-425.5" font-family="Vera" font-size="10.00">imagen.patterngenerator.PatternGenerator</text>
</g>
<!-- imagen.patterngenerator.PatternGenerator&#45;&gt;imagen.Line -->
<g id="edge2" class="edge"><title>imagen.patterngenerator.PatternGenerator&#45;&gt;imagen.Line</title>
<path fill="none" stroke="black" stroke-width="0.5" d="M342.438,-438.27C345.191,-489.18 364.371,-716.449 490,-827 500.748,-836.458 515.278,-841.459 529.123,-844.03"/>
<polygon fill="black" stroke="black" points="528.964,-845.778 534.184,-844.871 529.538,-842.325 528.964,-845.778"/>
</g>
<!-- imagen.RawRectangle -->
<g id="node4" class="node"><title>imagen.RawRectangle</title>
<polygon fill="none" stroke="black" stroke-width="0.5" points="632,-818.5 512,-818.5 512,-797.5 632,-797.5 632,-818.5"/>
<text text-anchor="middle" x="572" y="-805.5" font-family="Vera" font-size="10.00">imagen.RawRectangle</text>
</g>
<!-- imagen.patterngenerator.PatternGenerator&#45;&gt;imagen.RawRectangle -->
<g id="edge4" class="edge"><title>imagen.patterngenerator.PatternGenerator&#45;&gt;imagen.RawRectangle</title>
<path fill="none" stroke="black" stroke-width="0.5" d="M342.878,-438.255C347.555,-486.225 373.897,-690.27 490,-789 494.968,-793.224 500.695,-796.554 506.767,-799.171"/>
<polygon fill="black" stroke="black" points="506.177,-800.819 511.47,-801.037 507.468,-797.566 506.177,-800.819"/>
</g>
<!-- imagen.SineGrating -->
<g id="node6" class="node"><title>imagen.SineGrating</title>
<polygon fill="none" stroke="black" stroke-width="0.5" points="628,-780.5 516,-780.5 516,-759.5 628,-759.5 628,-780.5"/>
<text text-anchor="middle" x="572" y="-767.5" font-family="Vera" font-size="10.00">imagen.SineGrating</text>
</g>
<!-- imagen.patterngenerator.PatternGenerator&#45;&gt;imagen.SineGrating -->
<g id="edge6" class="edge"><title>imagen.patterngenerator.PatternGenerator&#45;&gt;imagen.SineGrating</title>
<path fill="none" stroke="black" stroke-width="0.5" d="M343.386,-438.081C350.072,-482.676 383.187,-663.842 490,-751 496.188,-756.05 503.472,-759.809 511.101,-762.599"/>
<polygon fill="black" stroke="black" points="510.592,-764.274 515.889,-764.214 511.711,-760.958 510.592,-764.274"/>
</g>
<!-- imagen.SquareGrating -->
<g id="node11" class="node"><title>imagen.SquareGrating</title>
<polygon fill="none" stroke="black" stroke-width="0.5" points="634,-742.5 510,-742.5 510,-721.5 634,-721.5 634,-742.5"/>
<text text-anchor="middle" x="572" y="-729.5" font-family="Vera" font-size="10.00">imagen.SquareGrating</text>
</g>
<!-- imagen.patterngenerator.PatternGenerator&#45;&gt;imagen.SquareGrating -->
<g id="edge10" class="edge"><title>imagen.patterngenerator.PatternGenerator&#45;&gt;imagen.SquareGrating</title>
<path fill="none" stroke="black" stroke-width="0.5" d="M344.023,-438.009C352.903,-479.239 392.423,-637.308 490,-713 494.42,-716.429 499.352,-719.257 504.544,-721.588"/>
<polygon fill="black" stroke="black" points="504.088,-723.293 509.377,-723.591 505.428,-720.06 504.088,-723.293"/>
</g>
<!-- imagen.HalfPlane -->
<g id="node13" class="node"><title>imagen.HalfPlane</title>
<polygon fill="none" stroke="black" stroke-width="0.5" points="622,-704.5 522,-704.5 522,-683.5 622,-683.5 622,-704.5"/>
<text text-anchor="middle" x="572" y="-691.5" font-family="Vera" font-size="10.00">imagen.HalfPlane</text>
</g>
<!-- imagen.patterngenerator.PatternGenerator&#45;&gt;imagen.HalfPlane -->
<g id="edge12" class="edge"><title>imagen.patterngenerator.PatternGenerator&#45;&gt;imagen.HalfPlane</title>
<path fill="none" stroke="black" stroke-width="0.5" d="M344.912,-438.209C356.313,-476.227 401.696,-610.707 490,-675 497.746,-680.64 506.904,-684.637 516.242,-687.463"/>
<polygon fill="black" stroke="black" points="515.848,-689.17 521.135,-688.837 516.794,-685.801 515.848,-689.17"/>
</g>
<!-- imagen.PowerSpectrum -->
<g id="node16" class="node"><title>imagen.PowerSpectrum</title>
<polygon fill="none" stroke="black" stroke-width="0.5" points="637,-666.5 507,-666.5 507,-645.5 637,-645.5 637,-666.5"/>
<text text-anchor="middle" x="572" y="-653.5" font-family="Vera" font-size="10.00">imagen.PowerSpectrum</text>
</g>
<!-- imagen.patterngenerator.PatternGenerator&#45;&gt;imagen.PowerSpectrum -->
<g id="edge44" class="edge"><title>imagen.patterngenerator.PatternGenerator&#45;&gt;imagen.PowerSpectrum</title>
<path fill="none" stroke="black" stroke-width="0.5" d="M346.065,-438.266C360.187,-472.52 410.631,-583.725 490,-637 493.921,-639.632 498.158,-641.902 502.569,-643.859"/>
<polygon fill="black" stroke="black" points="502.129,-645.571 507.418,-645.864 503.466,-642.336 502.129,-645.571"/>
</g>
<!-- imagen.LogGaussian -->
<g id="node18" class="node"><title>imagen.LogGaussian</title>
<polygon fill="none" stroke="black" stroke-width="0.5" points="630,-628.5 514,-628.5 514,-607.5 630,-607.5 630,-628.5"/>
<text text-anchor="middle" x="572" y="-615.5" font-family="Vera" font-size="10.00">imagen.LogGaussian</text>
</g>
<!-- imagen.patterngenerator.PatternGenerator&#45;&gt;imagen.LogGaussian -->
<g id="edge16" class="edge"><title>imagen.patterngenerator.PatternGenerator&#45;&gt;imagen.LogGaussian</title>
<path fill="none" stroke="black" stroke-width="0.5" d="M347.535,-438.029C364.516,-467.796 419.052,-556.227 490,-599 495.684,-602.427 501.933,-605.236 508.367,-607.539"/>
<polygon fill="black" stroke="black" points="508.02,-609.268 513.317,-609.202 509.135,-605.95 508.02,-609.268"/>
</g>
<!-- imagen.SigmoidedDoG -->
<g id="node20" class="node"><title>imagen.SigmoidedDoG</title>
<polygon fill="none" stroke="black" stroke-width="0.5" points="636,-590.5 508,-590.5 508,-569.5 636,-569.5 636,-590.5"/>
<text text-anchor="middle" x="572" y="-577.5" font-family="Vera" font-size="10.00">imagen.SigmoidedDoG</text>
</g>
<!-- imagen.patterngenerator.PatternGenerator&#45;&gt;imagen.SigmoidedDoG -->
<g id="edge18" class="edge"><title>imagen.patterngenerator.PatternGenerator&#45;&gt;imagen.SigmoidedDoG</title>
<path fill="none" stroke="black" stroke-width="0.5" d="M350.101,-438.206C370.623,-463.326 427.488,-528.465 490,-561 495.469,-563.846 501.362,-566.27 507.391,-568.334"/>
<polygon fill="black" stroke="black" points="507.185,-570.107 512.481,-569.984 508.265,-566.778 507.185,-570.107"/>
</g>
<!-- imagen.ExponentialDecay -->
<g id="node22" class="node"><title>imagen.ExponentialDecay</title>
<polygon fill="none" stroke="black" stroke-width="0.5" points="642,-552.5 502,-552.5 502,-531.5 642,-531.5 642,-552.5"/>
<text text-anchor="middle" x="572" y="-539.5" font-family="Vera" font-size="10.00">imagen.ExponentialDecay</text>
</g>
<!-- imagen.patterngenerator.PatternGenerator&#45;&gt;imagen.ExponentialDecay -->
<g id="edge20" class="edge"><title>imagen.patterngenerator.PatternGenerator&#45;&gt;imagen.ExponentialDecay</title>
<path fill="none" stroke="black" stroke-width="0.5" d="M354.613,-438.267C379.157,-457.732 435.705,-500.098 490,-523 496.892,-525.907 504.306,-528.411 511.759,-530.558"/>
<polygon fill="black" stroke="black" points="511.632,-532.338 516.918,-531.987 512.567,-528.965 511.632,-532.338"/>
</g>
<!-- imagen.SigmoidedDoLG -->
<g id="node24" class="node"><title>imagen.SigmoidedDoLG</title>
<polygon fill="none" stroke="black" stroke-width="0.5" points="638,-514.5 506,-514.5 506,-493.5 638,-493.5 638,-514.5"/>
<text text-anchor="middle" x="572" y="-501.5" font-family="Vera" font-size="10.00">imagen.SigmoidedDoLG</text>
</g>
<!-- imagen.patterngenerator.PatternGenerator&#45;&gt;imagen.SigmoidedDoLG -->
<g id="edge22" class="edge"><title>imagen.patterngenerator.PatternGenerator&#45;&gt;imagen.SigmoidedDoLG</title>
<path fill="none" stroke="black" stroke-width="0.5" d="M364.974,-438.004C393.776,-450.276 444.855,-471.151 490,-485 499.161,-487.81 509.008,-490.427 518.59,-492.766"/>
<polygon fill="black" stroke="black" points="518.3,-494.496 523.571,-493.963 519.118,-491.093 518.3,-494.496"/>
</g>
<!-- imagen.Sigmoid -->
<g id="node26" class="node"><title>imagen.Sigmoid</title>
<polygon fill="none" stroke="black" stroke-width="0.5" points="619,-476.5 525,-476.5 525,-455.5 619,-455.5 619,-476.5"/>
<text text-anchor="middle" x="572" y="-463.5" font-family="Vera" font-size="10.00">imagen.Sigmoid</text>
</g>
<!-- imagen.patterngenerator.PatternGenerator&#45;&gt;imagen.Sigmoid -->
<g id="edge24" class="edge"><title>imagen.patterngenerator.PatternGenerator&#45;&gt;imagen.Sigmoid</title>
<path fill="none" stroke="black" stroke-width="0.5" d="M402.731,-438.034C439.01,-444.028 484.64,-451.567 519.379,-457.306"/>
<polygon fill="black" stroke="black" points="519.205,-459.051 524.423,-458.14 519.776,-455.598 519.205,-459.051"/>
</g>
<!-- imagen.DifferenceOfGaussians -->
<g id="node28" class="node"><title>imagen.DifferenceOfGaussians</title>
<polygon fill="none" stroke="black" stroke-width="0.5" points="654,-438.5 490,-438.5 490,-417.5 654,-417.5 654,-438.5"/>
<text text-anchor="middle" x="572" y="-425.5" font-family="Vera" font-size="10.00">imagen.DifferenceOfGaussians</text>
</g>
<!-- imagen.patterngenerator.PatternGenerator&#45;&gt;imagen.DifferenceOfGaussians -->
<g id="edge26" class="edge"><title>imagen.patterngenerator.PatternGenerator&#45;&gt;imagen.DifferenceOfGaussians</title>
<path fill="none" stroke="black" stroke-width="0.5" d="M454.305,-428C464.501,-428 474.725,-428 484.657,-428"/>
<polygon fill="black" stroke="black" points="484.822,-429.75 489.822,-428 484.822,-426.25 484.822,-429.75"/>
</g>
<!-- imagen.Rectangle -->
<g id="node33" class="node"><title>imagen.Rectangle</title>
<polygon fill="none" stroke="black" stroke-width="0.5" points="623,-400.5 521,-400.5 521,-379.5 623,-379.5 623,-400.5"/>
<text text-anchor="middle" x="572" y="-387.5" font-family="Vera" font-size="10.00">imagen.Rectangle</text>
</g>
<!-- imagen.patterngenerator.PatternGenerator&#45;&gt;imagen.Rectangle -->
<g id="edge38" class="edge"><title>imagen.patterngenerator.PatternGenerator&#45;&gt;imagen.Rectangle</title>
<path fill="none" stroke="black" stroke-width="0.5" d="M402.731,-417.966C437.742,-412.182 481.46,-404.959 515.696,-399.302"/>
<polygon fill="black" stroke="black" points="516.029,-401.021 520.676,-398.48 515.458,-397.568 516.029,-401.021"/>
</g>
<!-- imagen.Selector -->
<g id="node35" class="node"><title>imagen.Selector</title>
<polygon fill="none" stroke="black" stroke-width="0.5" points="619,-362.5 525,-362.5 525,-341.5 619,-341.5 619,-362.5"/>
<text text-anchor="middle" x="572" y="-349.5" font-family="Vera" font-size="10.00">imagen.Selector</text>
</g>
<!-- imagen.patterngenerator.PatternGenerator&#45;&gt;imagen.Selector -->
<g id="edge32" class="edge"><title>imagen.patterngenerator.PatternGenerator&#45;&gt;imagen.Selector</title>
<path fill="none" stroke="black" stroke-width="0.5" d="M432.367,-417.995C439.897,-415.58 447.214,-412.621 454,-409 474.524,-398.046 469.811,-382.561 490,-371 498.936,-365.883 509.166,-362.143 519.3,-359.41"/>
<polygon fill="black" stroke="black" points="519.848,-361.077 524.262,-358.148 518.985,-357.685 519.848,-361.077"/>
</g>
<!-- imagen.Disk -->
<g id="node39" class="node"><title>imagen.Disk</title>
<polygon fill="none" stroke="black" stroke-width="0.5" points="610,-324.5 534,-324.5 534,-303.5 610,-303.5 610,-324.5"/>
<text text-anchor="middle" x="572" y="-311.5" font-family="Vera" font-size="10.00">imagen.Disk</text>
</g>
<!-- imagen.patterngenerator.PatternGenerator&#45;&gt;imagen.Disk -->
<g id="edge36" class="edge"><title>imagen.patterngenerator.PatternGenerator&#45;&gt;imagen.Disk</title>
<path fill="none" stroke="black" stroke-width="0.5" d="M438.989,-417.948C444.306,-415.468 449.362,-412.513 454,-409 483.794,-386.433 460.892,-356.445 490,-333 500.947,-324.183 515.244,-319.309 528.828,-316.66"/>
<polygon fill="black" stroke="black" points="529.174,-318.376 533.793,-315.782 528.565,-314.93 529.174,-318.376"/>
</g>
<!-- imagen.Gabor -->
<g id="node42" class="node"><title>imagen.Gabor</title>
<polygon fill="none" stroke="black" stroke-width="0.5" points="614,-286.5 530,-286.5 530,-265.5 614,-265.5 614,-286.5"/>
<text text-anchor="middle" x="572" y="-273.5" font-family="Vera" font-size="10.00">imagen.Gabor</text>
</g>
<!-- imagen.patterngenerator.PatternGenerator&#45;&gt;imagen.Gabor -->
<g id="edge40" class="edge"><title>imagen.patterngenerator.PatternGenerator&#45;&gt;imagen.Gabor</title>
<path fill="none" stroke="black" stroke-width="0.5" d="M440.885,-417.984C445.57,-415.468 449.984,-412.497 454,-409 494.069,-374.106 450.99,-331.074 490,-295 499.377,-286.329 511.909,-281.364 524.349,-278.585"/>
<polygon fill="black" stroke="black" points="524.733,-280.293 529.29,-277.591 524.043,-276.862 524.733,-280.293"/>
</g>
<!-- imagen.Ring -->
<g id="node47" class="node"><title>imagen.Ring</title>
<polygon fill="none" stroke="black" stroke-width="0.5" points="610,-248.5 534,-248.5 534,-227.5 610,-227.5 610,-248.5"/>
<text text-anchor="middle" x="572" y="-235.5" font-family="Vera" font-size="10.00">imagen.Ring</text>
</g>
<!-- imagen.patterngenerator.PatternGenerator&#45;&gt;imagen.Ring -->
<g id="edge46" class="edge"><title>imagen.patterngenerator.PatternGenerator&#45;&gt;imagen.Ring</title>
<path fill="none" stroke="black" stroke-width="0.5" d="M441.964,-417.894C446.282,-415.383 450.331,-412.44 454,-409 504.648,-361.518 440.79,-305.971 490,-257 500.24,-246.81 514.8,-241.656 528.816,-239.169"/>
<polygon fill="black" stroke="black" points="529.275,-240.869 533.946,-238.369 528.736,-237.411 529.275,-240.869"/>
</g>
<!-- imagen.GaussiansCorner -->
<g id="node49" class="node"><title>imagen.GaussiansCorner</title>
<polygon fill="none" stroke="black" stroke-width="0.5" points="640,-210.5 504,-210.5 504,-189.5 640,-189.5 640,-210.5"/>
<text text-anchor="middle" x="572" y="-197.5" font-family="Vera" font-size="10.00">imagen.GaussiansCorner</text>
</g>
<!-- imagen.patterngenerator.PatternGenerator&#45;&gt;imagen.GaussiansCorner -->
<g id="edge48" class="edge"><title>imagen.patterngenerator.PatternGenerator&#45;&gt;imagen.GaussiansCorner</title>
<path fill="none" stroke="black" stroke-width="0.5" d="M442.407,-417.942C446.58,-415.412 450.48,-412.453 454,-409 515.355,-348.813 430.467,-280.99 490,-219 492.644,-216.246 495.603,-213.857 498.784,-211.786"/>
<polygon fill="black" stroke="black" points="499.831,-213.2 503.252,-209.155 498.055,-210.185 499.831,-213.2"/>
</g>
<!-- imagen.Arc -->
<g id="node52" class="node"><title>imagen.Arc</title>
<polygon fill="none" stroke="black" stroke-width="0.5" points="607,-172.5 537,-172.5 537,-151.5 607,-151.5 607,-172.5"/>
<text text-anchor="middle" x="572" y="-159.5" font-family="Vera" font-size="10.00">imagen.Arc</text>
</g>
<!-- imagen.patterngenerator.PatternGenerator&#45;&gt;imagen.Arc -->
<g id="edge60" class="edge"><title>imagen.patterngenerator.PatternGenerator&#45;&gt;imagen.Arc</title>
<path fill="none" stroke="black" stroke-width="0.5" d="M443.032,-417.763C446.984,-415.268 450.672,-412.366 454,-409 526.125,-336.045 420.082,-256.073 490,-181 500.559,-169.663 516.435,-164.457 531.414,-162.249"/>
<polygon fill="black" stroke="black" points="531.71,-163.976 536.45,-161.61 531.27,-160.503 531.71,-163.976"/>
</g>
<!-- imagen.Composite -->
<g id="node54" class="node"><title>imagen.Composite</title>
<polygon fill="none" stroke="black" stroke-width="0.5" points="625,-134.5 519,-134.5 519,-113.5 625,-113.5 625,-134.5"/>
<text text-anchor="middle" x="572" y="-121.5" font-family="Vera" font-size="10.00">imagen.Composite</text>
</g>
<!-- imagen.patterngenerator.PatternGenerator&#45;&gt;imagen.Composite -->
<g id="edge52" class="edge"><title>imagen.patterngenerator.PatternGenerator&#45;&gt;imagen.Composite</title>
<path fill="none" stroke="black" stroke-width="0.5" d="M443.124,-417.853C447.052,-415.334 450.71,-412.403 454,-409 536.932,-323.24 409.662,-231.195 490,-143 496.31,-136.072 504.604,-131.423 513.492,-128.346"/>
<polygon fill="black" stroke="black" points="514.228,-129.95 518.483,-126.793 513.188,-126.608 514.228,-129.95"/>
</g>
<!-- imagen.Translator -->
<g id="node60" class="node"><title>imagen.Translator</title>
<polygon fill="none" stroke="black" stroke-width="0.5" points="623,-96.5 521,-96.5 521,-75.5 623,-75.5 623,-96.5"/>
<text text-anchor="middle" x="572" y="-83.5" font-family="Vera" font-size="10.00">imagen.Translator</text>
</g>
<!-- imagen.patterngenerator.PatternGenerator&#45;&gt;imagen.Translator -->
<g id="edge58" class="edge"><title>imagen.patterngenerator.PatternGenerator&#45;&gt;imagen.Translator</title>
<path fill="none" stroke="black" stroke-width="0.5" d="M443.194,-417.92C447.103,-415.384 450.738,-412.43 454,-409 547.762,-310.412 399.219,-206.34 490,-105 496.871,-97.3297 506.173,-92.4425 516.046,-89.3874"/>
<polygon fill="black" stroke="black" points="516.582,-91.055 520.931,-88.0307 515.645,-87.6827 516.582,-91.055"/>
</g>
<!-- imagen.Sweeper -->
<g id="node63" class="node"><title>imagen.Sweeper</title>
<polygon fill="none" stroke="black" stroke-width="0.5" points="620,-58.5 524,-58.5 524,-37.5 620,-37.5 620,-58.5"/>
<text text-anchor="middle" x="572" y="-45.5" font-family="Vera" font-size="10.00">imagen.Sweeper</text>
</g>
<!-- imagen.patterngenerator.PatternGenerator&#45;&gt;imagen.Sweeper -->
<g id="edge62" class="edge"><title>imagen.patterngenerator.PatternGenerator&#45;&gt;imagen.Sweeper</title>
<path fill="none" stroke="black" stroke-width="0.5" d="M443.249,-417.972C447.144,-415.422 450.76,-412.451 454,-409 558.607,-297.567 388.762,-181.503 490,-67 497.387,-58.6455 507.656,-53.5835 518.433,-50.5934"/>
<polygon fill="black" stroke="black" points="518.979,-52.2612 523.412,-49.361 518.138,-48.8638 518.979,-52.2612"/>
</g>
<!-- imagen.Gaussian -->
<g id="node67" class="node"><title>imagen.Gaussian</title>
<polygon fill="none" stroke="black" stroke-width="0.5" points="622,-20.5 522,-20.5 522,0.5 622,0.5 622,-20.5"/>
<text text-anchor="middle" x="572" y="-7.5" font-family="Vera" font-size="10.00">imagen.Gaussian</text>
</g>
<!-- imagen.patterngenerator.PatternGenerator&#45;&gt;imagen.Gaussian -->
<g id="edge66" class="edge"><title>imagen.patterngenerator.PatternGenerator&#45;&gt;imagen.Gaussian</title>
<path fill="none" stroke="black" stroke-width="0.5" d="M443.778,-417.692C447.476,-415.203 450.913,-412.323 454,-409 511.732,-346.856 434.147,-92.8382 490,-29 496.946,-21.0608 506.495,-16.0882 516.627,-13.0405"/>
<polygon fill="black" stroke="black" points="517.263,-14.6816 521.638,-11.6944 516.355,-11.3014 517.263,-14.6816"/>
</g>
<!-- imagen.OrientationContrast -->
<g id="node56" class="node"><title>imagen.OrientationContrast</title>
<polygon fill="none" stroke="black" stroke-width="0.5" points="844,-780.5 694,-780.5 694,-759.5 844,-759.5 844,-780.5"/>
<text text-anchor="middle" x="769" y="-767.5" font-family="Vera" font-size="10.00">imagen.OrientationContrast</text>
</g>
<!-- imagen.SineGrating&#45;&gt;imagen.OrientationContrast -->
<g id="edge54" class="edge"><title>imagen.SineGrating&#45;&gt;imagen.OrientationContrast</title>
<path fill="none" stroke="black" stroke-width="0.5" d="M628.189,-770C647.06,-770 668.49,-770 688.837,-770"/>
<polygon fill="black" stroke="black" points="688.985,-771.75 693.985,-770 688.985,-768.25 688.985,-771.75"/>
</g>
<!-- param.Selector -->
<g id="node8" class="node"><title>param.Selector</title>
<polygon fill="none" stroke="black" stroke-width="0.5" points="387,-894.5 297,-894.5 297,-873.5 387,-873.5 387,-894.5"/>
<text text-anchor="middle" x="342" y="-881.5" font-family="Vera" font-size="10.00">param.Selector</text>
</g>
<!-- param.ClassSelector -->
<g id="node30" class="node"><title>param.ClassSelector</title>
<polygon fill="none" stroke="black" stroke-width="0.5" points="630,-894.5 514,-894.5 514,-873.5 630,-873.5 630,-894.5"/>
<text text-anchor="middle" x="572" y="-881.5" font-family="Vera" font-size="10.00">param.ClassSelector</text>
</g>
<!-- param.Selector&#45;&gt;param.ClassSelector -->
<g id="edge28" class="edge"><title>param.Selector&#45;&gt;param.ClassSelector</title>
<path fill="none" stroke="black" stroke-width="0.5" d="M387.716,-884C422.32,-884 470.267,-884 508.58,-884"/>
<polygon fill="black" stroke="black" points="508.68,-885.75 513.68,-884 508.68,-882.25 508.68,-885.75"/>
</g>
<!-- param.parameterized.Parameter -->
<g id="node9" class="node"><title>param.parameterized.Parameter</title>
<polygon fill="none" stroke="black" stroke-width="0.5" points="184,-894.5 10,-894.5 10,-873.5 184,-873.5 184,-894.5"/>
<text text-anchor="middle" x="97" y="-881.5" font-family="Vera" font-size="10.00">param.parameterized.Parameter</text>
</g>
<!-- param.parameterized.Parameter&#45;&gt;param.Selector -->
<g id="edge8" class="edge"><title>param.parameterized.Parameter&#45;&gt;param.Selector</title>
<path fill="none" stroke="black" stroke-width="0.5" d="M184.759,-884C220.453,-884 260.436,-884 291.152,-884"/>
<polygon fill="black" stroke="black" points="291.387,-885.75 296.387,-884 291.387,-882.25 291.387,-885.75"/>
</g>
<!-- imagen.Spectrogram -->
<g id="node15" class="node"><title>imagen.Spectrogram</title>
<polygon fill="none" stroke="black" stroke-width="0.5" points="828,-666.5 710,-666.5 710,-645.5 828,-645.5 828,-666.5"/>
<text text-anchor="middle" x="769" y="-653.5" font-family="Vera" font-size="10.00">imagen.Spectrogram</text>
</g>
<!-- imagen.PowerSpectrum&#45;&gt;imagen.Spectrogram -->
<g id="edge14" class="edge"><title>imagen.PowerSpectrum&#45;&gt;imagen.Spectrogram</title>
<path fill="none" stroke="black" stroke-width="0.5" d="M637.598,-656C659.048,-656 682.849,-656 704.237,-656"/>
<polygon fill="black" stroke="black" points="704.332,-657.75 709.332,-656 704.332,-654.25 704.332,-657.75"/>
</g>
<!-- imagen.TimeSeriesParam -->
<g id="node44" class="node"><title>imagen.TimeSeriesParam</title>
<polygon fill="none" stroke="black" stroke-width="0.5" points="839,-894.5 699,-894.5 699,-873.5 839,-873.5 839,-894.5"/>
<text text-anchor="middle" x="769" y="-881.5" font-family="Vera" font-size="10.00">imagen.TimeSeriesParam</text>
</g>
<!-- param.ClassSelector&#45;&gt;imagen.TimeSeriesParam -->
<g id="edge42" class="edge"><title>param.ClassSelector&#45;&gt;imagen.TimeSeriesParam</title>
<path fill="none" stroke="black" stroke-width="0.5" d="M630.041,-884C650.005,-884 672.652,-884 693.784,-884"/>
<polygon fill="black" stroke="black" points="693.834,-885.75 698.834,-884 693.834,-882.25 693.834,-885.75"/>
</g>
<!-- imagen.TwoRectangles -->
<g id="node32" class="node"><title>imagen.TwoRectangles</title>
<polygon fill="none" stroke="black" stroke-width="0.5" points="831,-400.5 707,-400.5 707,-379.5 831,-379.5 831,-400.5"/>
<text text-anchor="middle" x="769" y="-387.5" font-family="Vera" font-size="10.00">imagen.TwoRectangles</text>
</g>
<!-- imagen.Rectangle&#45;&gt;imagen.TwoRectangles -->
<g id="edge30" class="edge"><title>imagen.Rectangle&#45;&gt;imagen.TwoRectangles</title>
<path fill="none" stroke="black" stroke-width="0.5" d="M623.245,-390C647.186,-390 676.008,-390 701.679,-390"/>
<polygon fill="black" stroke="black" points="701.769,-391.75 706.769,-390 701.769,-388.25 701.769,-391.75"/>
</g>
<!-- param.parameterized.Parameterized -->
<g id="node37" class="node"><title>param.parameterized.Parameterized</title>
<polygon fill="none" stroke="black" stroke-width="0.5" points="194,-419.5 5.68434e-14,-419.5 0,-398.5 194,-398.5 194,-419.5"/>
<text text-anchor="middle" x="97" y="-406.5" font-family="Vera" font-size="10.00">param.parameterized.Parameterized</text>
</g>
<!-- param.parameterized.Parameterized&#45;&gt;imagen.patterngenerator.PatternGenerator -->
<g id="edge34" class="edge"><title>param.parameterized.Parameterized&#45;&gt;imagen.patterngenerator.PatternGenerator</title>
<path fill="none" stroke="black" stroke-width="0.5" d="M194.182,-416.537C204.286,-417.32 214.629,-418.122 224.922,-418.92"/>
<polygon fill="black" stroke="black" points="224.849,-420.67 229.969,-419.312 225.12,-417.18 224.849,-420.67"/>
</g>
<!-- imagen.TimeSeries -->
<g id="node58" class="node"><title>imagen.TimeSeries</title>
<polygon fill="none" stroke="black" stroke-width="0.5" points="396,-400.5 288,-400.5 288,-379.5 396,-379.5 396,-400.5"/>
<text text-anchor="middle" x="342" y="-387.5" font-family="Vera" font-size="10.00">imagen.TimeSeries</text>
</g>
<!-- param.parameterized.Parameterized&#45;&gt;imagen.TimeSeries -->
<g id="edge56" class="edge"><title>param.parameterized.Parameterized&#45;&gt;imagen.TimeSeries</title>
<path fill="none" stroke="black" stroke-width="0.5" d="M194.182,-401.463C223.866,-399.161 255.624,-396.699 282.066,-394.648"/>
<polygon fill="black" stroke="black" points="282.431,-396.375 287.281,-394.244 282.161,-392.885 282.431,-396.375"/>
</g>
<!-- imagen.Curve -->
<g id="node51" class="node"><title>imagen.Curve</title>
<polygon fill="none" stroke="black" stroke-width="0.5" points="810,-172.5 728,-172.5 728,-151.5 810,-151.5 810,-172.5"/>
<text text-anchor="middle" x="769" y="-159.5" font-family="Vera" font-size="10.00">imagen.Curve</text>
</g>
<!-- imagen.Arc&#45;&gt;imagen.Curve -->
<g id="edge50" class="edge"><title>imagen.Arc&#45;&gt;imagen.Curve</title>
<path fill="none" stroke="black" stroke-width="0.5" d="M607.675,-162C639.802,-162 687.233,-162 722.357,-162"/>
<polygon fill="black" stroke="black" points="722.447,-163.75 727.447,-162 722.447,-160.25 722.447,-163.75"/>
</g>
<!-- imagen.SeparatedComposite -->
<g id="node65" class="node"><title>imagen.SeparatedComposite</title>
<polygon fill="none" stroke="black" stroke-width="0.5" points="848,-134.5 690,-134.5 690,-113.5 848,-113.5 848,-134.5"/>
<text text-anchor="middle" x="769" y="-121.5" font-family="Vera" font-size="10.00">imagen.SeparatedComposite</text>
</g>
<!-- imagen.Composite&#45;&gt;imagen.SeparatedComposite -->
<g id="edge64" class="edge"><title>imagen.Composite&#45;&gt;imagen.SeparatedComposite</title>
<path fill="none" stroke="black" stroke-width="0.5" d="M625.571,-124C643.847,-124 664.75,-124 684.839,-124"/>
<polygon fill="black" stroke="black" points="684.927,-125.75 689.927,-124 684.927,-122.25 684.927,-125.75"/>
</g>
</g>
</svg>
