<?xml version="1.0" encoding="UTF-8" standalone="no"?>
<!DOCTYPE svg PUBLIC "-//W3C//DTD SVG 1.1//EN"
 "http://www.w3.org/Graphics/SVG/1.1/DTD/svg11.dtd">
<!-- Generated by graphviz version 2.26.3 (20100126.1600)
 -->
<!-- Title: inheritancebede3c61fc Pages: 1 -->
<svg width="2498pt" height="522pt"
 viewBox="0.00 0.00 2498.00 522.00" xmlns="http://www.w3.org/2000/svg" xmlns:xlink="http://www.w3.org/1999/xlink">
<g id="graph1" class="graph" transform="scale(1 1) rotate(0) translate(4 518)">
<title>inheritancebede3c61fc</title>
<polygon fill="white" stroke="white" points="-4,5 -4,-518 2495,-518 2495,5 -4,5"/>
<!-- topo.command.pylabplot.measure_position_pref -->
<g id="node1" class="node"><title>topo.command.pylabplot.measure_position_pref</title>
<polygon fill="none" stroke="black" stroke-width="0.5" points="1844,-438.5 1596,-438.5 1596,-417.5 1844,-417.5 1844,-438.5"/>
<text text-anchor="middle" x="1720" y="-425.5" font-family="Vera" font-size="10.00">topo.command.pylabplot.measure_position_pref</text>
</g>
<!-- topo.analysis.featureresponses.PositionMeasurementCommand -->
<g id="node2" class="node"><title>topo.analysis.featureresponses.PositionMeasurementCommand</title>
<polygon fill="none" stroke="black" stroke-width="0.5" points="1526,-438.5 1202,-438.5 1202,-417.5 1526,-417.5 1526,-438.5"/>
<text text-anchor="middle" x="1364" y="-425.5" font-family="Vera" font-size="10.00">topo.analysis.featureresponses.PositionMeasurementCommand</text>
</g>
<!-- topo.analysis.featureresponses.PositionMeasurementCommand&#45;&gt;topo.command.pylabplot.measure_position_pref -->
<g id="edge2" class="edge"><title>topo.analysis.featureresponses.PositionMeasurementCommand&#45;&gt;topo.command.pylabplot.measure_position_pref</title>
<path fill="none" stroke="black" stroke-width="0.5" d="M1526.11,-428C1547.52,-428 1569.23,-428 1590,-428"/>
<polygon fill="black" stroke="black" points="1590.26,-429.75 1595.26,-428 1590.26,-426.25 1590.26,-429.75"/>
</g>
<!-- topo.command.pylabplot.measure_frequency_response -->
<g id="node4" class="node"><title>topo.command.pylabplot.measure_frequency_response</title>
<polygon fill="none" stroke="black" stroke-width="0.5" points="2490,-514.5 2206,-514.5 2206,-493.5 2490,-493.5 2490,-514.5"/>
<text text-anchor="middle" x="2348" y="-501.5" font-family="Vera" font-size="10.00">topo.command.pylabplot.measure_frequency_response</text>
</g>
<!-- topo.analysis.featureresponses.UnitCurveCommand -->
<g id="node5" class="node"><title>topo.analysis.featureresponses.UnitCurveCommand</title>
<polygon fill="none" stroke="black" stroke-width="0.5" points="2167,-419.5 1901,-419.5 1901,-398.5 2167,-398.5 2167,-419.5"/>
<text text-anchor="middle" x="2034" y="-406.5" font-family="Vera" font-size="10.00">topo.analysis.featureresponses.UnitCurveCommand</text>
</g>
<!-- topo.analysis.featureresponses.UnitCurveCommand&#45;&gt;topo.command.pylabplot.measure_frequency_response -->
<g id="edge4" class="edge"><title>topo.analysis.featureresponses.UnitCurveCommand&#45;&gt;topo.command.pylabplot.measure_frequency_response</title>
<path fill="none" stroke="black" stroke-width="0.5" d="M2052.44,-419.247C2083.24,-435.878 2147.55,-468.538 2206,-485 2217.31,-488.186 2229.29,-490.843 2241.29,-493.058"/>
<polygon fill="black" stroke="black" points="2241.21,-494.821 2246.44,-493.981 2241.82,-491.376 2241.21,-494.821"/>
</g>
<!-- topo.command.pylabplot.measure_orientation_contrast -->
<g id="node16" class="node"><title>topo.command.pylabplot.measure_orientation_contrast</title>
<polygon fill="none" stroke="black" stroke-width="0.5" points="2490,-476.5 2206,-476.5 2206,-455.5 2490,-455.5 2490,-476.5"/>
<text text-anchor="middle" x="2348" y="-463.5" font-family="Vera" font-size="10.00">topo.command.pylabplot.measure_orientation_contrast</text>
</g>
<!-- topo.analysis.featureresponses.UnitCurveCommand&#45;&gt;topo.command.pylabplot.measure_orientation_contrast -->
<g id="edge14" class="edge"><title>topo.analysis.featureresponses.UnitCurveCommand&#45;&gt;topo.command.pylabplot.measure_orientation_contrast</title>
<path fill="none" stroke="black" stroke-width="0.5" d="M2074.81,-419.037C2109.54,-427.331 2160.83,-439.003 2206,-447 2223.13,-450.032 2241.49,-452.825 2259.14,-455.284"/>
<polygon fill="black" stroke="black" points="2258.9,-457.018 2264.1,-455.968 2259.38,-453.551 2258.9,-457.018"/>
</g>
<!-- topo.command.pylabplot.measure_contrast_response -->
<g id="node37" class="node"><title>topo.command.pylabplot.measure_contrast_response</title>
<polygon fill="none" stroke="black" stroke-width="0.5" points="2486,-438.5 2210,-438.5 2210,-417.5 2486,-417.5 2486,-438.5"/>
<text text-anchor="middle" x="2348" y="-425.5" font-family="Vera" font-size="10.00">topo.command.pylabplot.measure_contrast_response</text>
</g>
<!-- topo.analysis.featureresponses.UnitCurveCommand&#45;&gt;topo.command.pylabplot.measure_contrast_response -->
<g id="edge30" class="edge"><title>topo.analysis.featureresponses.UnitCurveCommand&#45;&gt;topo.command.pylabplot.measure_contrast_response</title>
<path fill="none" stroke="black" stroke-width="0.5" d="M2167.62,-417.085C2179.74,-417.819 2192.05,-418.564 2204.26,-419.302"/>
<polygon fill="black" stroke="black" points="2204.39,-421.063 2209.48,-419.618 2204.6,-417.57 2204.39,-421.063"/>
</g>
<!-- topo.command.pylabplot.measure_or_tuning -->
<g id="node44" class="node"><title>topo.command.pylabplot.measure_or_tuning</title>
<polygon fill="none" stroke="black" stroke-width="0.5" points="2464,-400.5 2232,-400.5 2232,-379.5 2464,-379.5 2464,-400.5"/>
<text text-anchor="middle" x="2348" y="-387.5" font-family="Vera" font-size="10.00">topo.command.pylabplot.measure_or_tuning</text>
</g>
<!-- topo.analysis.featureresponses.UnitCurveCommand&#45;&gt;topo.command.pylabplot.measure_or_tuning -->
<g id="edge38" class="edge"><title>topo.analysis.featureresponses.UnitCurveCommand&#45;&gt;topo.command.pylabplot.measure_or_tuning</title>
<path fill="none" stroke="black" stroke-width="0.5" d="M2167.62,-400.915C2187,-399.742 2206.86,-398.54 2225.99,-397.383"/>
<polygon fill="black" stroke="black" points="2226.48,-399.106 2231.37,-397.057 2226.27,-395.613 2226.48,-399.106"/>
</g>
<!-- topo.command.pylabplot.measure_size_response -->
<g id="node63" class="node"><title>topo.command.pylabplot.measure_size_response</title>
<polygon fill="none" stroke="black" stroke-width="0.5" points="2476,-362.5 2220,-362.5 2220,-341.5 2476,-341.5 2476,-362.5"/>
<text text-anchor="middle" x="2348" y="-349.5" font-family="Vera" font-size="10.00">topo.command.pylabplot.measure_size_response</text>
</g>
<!-- topo.analysis.featureresponses.UnitCurveCommand&#45;&gt;topo.command.pylabplot.measure_size_response -->
<g id="edge62" class="edge"><title>topo.analysis.featureresponses.UnitCurveCommand&#45;&gt;topo.command.pylabplot.measure_size_response</title>
<path fill="none" stroke="black" stroke-width="0.5" d="M2134.79,-398.932C2146.8,-396.558 2158.77,-393.625 2170,-390 2187.22,-384.443 2188.77,-376.507 2206,-371 2215.77,-367.877 2226.08,-365.267 2236.5,-363.086"/>
<polygon fill="black" stroke="black" points="2237.07,-364.756 2241.63,-362.049 2236.38,-361.326 2237.07,-364.756"/>
</g>
<!-- topo.command.pylabplot.test_measure -->
<g id="node69" class="node"><title>topo.command.pylabplot.test_measure</title>
<polygon fill="none" stroke="black" stroke-width="0.5" points="2451,-324.5 2245,-324.5 2245,-303.5 2451,-303.5 2451,-324.5"/>
<text text-anchor="middle" x="2348" y="-311.5" font-family="Vera" font-size="10.00">topo.command.pylabplot.test_measure</text>
</g>
<!-- topo.analysis.featureresponses.UnitCurveCommand&#45;&gt;topo.command.pylabplot.test_measure -->
<g id="edge68" class="edge"><title>topo.analysis.featureresponses.UnitCurveCommand&#45;&gt;topo.command.pylabplot.test_measure</title>
<path fill="none" stroke="black" stroke-width="0.5" d="M2152.8,-398.969C2158.81,-396.456 2164.59,-393.491 2170,-390 2195.17,-373.752 2180.78,-349.175 2206,-333 2216.26,-326.421 2227.79,-321.664 2239.74,-318.273"/>
<polygon fill="black" stroke="black" points="2240.5,-319.881 2244.88,-316.902 2239.6,-316.499 2240.5,-319.881"/>
</g>
<!-- topo.command.pylabplot.gradientplot -->
<g id="node7" class="node"><title>topo.command.pylabplot.gradientplot</title>
<polygon fill="none" stroke="black" stroke-width="0.5" points="1818,-362.5 1622,-362.5 1622,-341.5 1818,-341.5 1818,-362.5"/>
<text text-anchor="middle" x="1720" y="-349.5" font-family="Vera" font-size="10.00">topo.command.pylabplot.gradientplot</text>
</g>
<!-- topo.command.pylabplot.matrixplot -->
<g id="node8" class="node"><title>topo.command.pylabplot.matrixplot</title>
<polygon fill="none" stroke="black" stroke-width="0.5" points="1458,-324.5 1270,-324.5 1270,-303.5 1458,-303.5 1458,-324.5"/>
<text text-anchor="middle" x="1364" y="-311.5" font-family="Vera" font-size="10.00">topo.command.pylabplot.matrixplot</text>
</g>
<!-- topo.command.pylabplot.matrixplot&#45;&gt;topo.command.pylabplot.gradientplot -->
<g id="edge6" class="edge"><title>topo.command.pylabplot.matrixplot&#45;&gt;topo.command.pylabplot.gradientplot</title>
<path fill="none" stroke="black" stroke-width="0.5" d="M1458,-324.034C1508.19,-329.391 1569.94,-335.982 1620.88,-341.42"/>
<polygon fill="black" stroke="black" points="1620.93,-343.185 1626.09,-341.976 1621.3,-339.705 1620.93,-343.185"/>
</g>
<!-- topo.command.pylabplot.autocorrelationplot -->
<g id="node21" class="node"><title>topo.command.pylabplot.autocorrelationplot</title>
<polygon fill="none" stroke="black" stroke-width="0.5" points="1835,-324.5 1605,-324.5 1605,-303.5 1835,-303.5 1835,-324.5"/>
<text text-anchor="middle" x="1720" y="-311.5" font-family="Vera" font-size="10.00">topo.command.pylabplot.autocorrelationplot</text>
</g>
<!-- topo.command.pylabplot.matrixplot&#45;&gt;topo.command.pylabplot.autocorrelationplot -->
<g id="edge18" class="edge"><title>topo.command.pylabplot.matrixplot&#45;&gt;topo.command.pylabplot.autocorrelationplot</title>
<path fill="none" stroke="black" stroke-width="0.5" d="M1458,-314C1501.43,-314 1553.51,-314 1599.76,-314"/>
<polygon fill="black" stroke="black" points="1599.79,-315.75 1604.79,-314 1599.79,-312.25 1599.79,-315.75"/>
</g>
<!-- topo.command.pylabplot.activityplot -->
<g id="node39" class="node"><title>topo.command.pylabplot.activityplot</title>
<polygon fill="none" stroke="black" stroke-width="0.5" points="1815,-286.5 1625,-286.5 1625,-265.5 1815,-265.5 1815,-286.5"/>
<text text-anchor="middle" x="1720" y="-273.5" font-family="Vera" font-size="10.00">topo.command.pylabplot.activityplot</text>
</g>
<!-- topo.command.pylabplot.matrixplot&#45;&gt;topo.command.pylabplot.activityplot -->
<g id="edge32" class="edge"><title>topo.command.pylabplot.matrixplot&#45;&gt;topo.command.pylabplot.activityplot</title>
<path fill="none" stroke="black" stroke-width="0.5" d="M1458,-303.966C1508.19,-298.609 1569.94,-292.018 1620.88,-286.58"/>
<polygon fill="black" stroke="black" points="1621.3,-288.295 1626.09,-286.024 1620.93,-284.815 1621.3,-288.295"/>
</g>
<!-- topo.command.pylabplot.fftplot -->
<g id="node61" class="node"><title>topo.command.pylabplot.fftplot</title>
<polygon fill="none" stroke="black" stroke-width="0.5" points="1803,-248.5 1637,-248.5 1637,-227.5 1803,-227.5 1803,-248.5"/>
<text text-anchor="middle" x="1720" y="-235.5" font-family="Vera" font-size="10.00">topo.command.pylabplot.fftplot</text>
</g>
<!-- topo.command.pylabplot.matrixplot&#45;&gt;topo.command.pylabplot.fftplot -->
<g id="edge60" class="edge"><title>topo.command.pylabplot.matrixplot&#45;&gt;topo.command.pylabplot.fftplot</title>
<path fill="none" stroke="black" stroke-width="0.5" d="M1458,-316.206C1486.18,-313.697 1516.37,-307.677 1542,-295 1562.85,-284.685 1557.29,-267.592 1578,-257 1594.29,-248.667 1612.95,-243.555 1631.27,-240.5"/>
<polygon fill="black" stroke="black" points="1631.76,-242.195 1636.43,-239.692 1631.22,-238.737 1631.76,-242.195"/>
</g>
<!-- topo.command.pylabplot.vectorplot -->
<g id="node10" class="node"><title>topo.command.pylabplot.vectorplot</title>
<polygon fill="none" stroke="black" stroke-width="0.5" points="1458,-286.5 1270,-286.5 1270,-265.5 1458,-265.5 1458,-286.5"/>
<text text-anchor="middle" x="1364" y="-273.5" font-family="Vera" font-size="10.00">topo.command.pylabplot.vectorplot</text>
</g>
<!-- topo.command.pylabplot.PylabPlotCommand -->
<g id="node11" class="node"><title>topo.command.pylabplot.PylabPlotCommand</title>
<polygon fill="none" stroke="black" stroke-width="0.5" points="1112,-191.5 880,-191.5 880,-170.5 1112,-170.5 1112,-191.5"/>
<text text-anchor="middle" x="996" y="-178.5" font-family="Vera" font-size="10.00">topo.command.pylabplot.PylabPlotCommand</text>
</g>
<!-- topo.command.pylabplot.PylabPlotCommand&#45;&gt;topo.command.pylabplot.matrixplot -->
<g id="edge12" class="edge"><title>topo.command.pylabplot.PylabPlotCommand&#45;&gt;topo.command.pylabplot.matrixplot</title>
<path fill="none" stroke="black" stroke-width="0.5" d="M1008.39,-191.123C1037.37,-214.165 1112.69,-270.43 1186,-295 1210.86,-303.333 1238.67,-308.237 1264.79,-311.067"/>
<polygon fill="black" stroke="black" points="1264.83,-312.831 1269.99,-311.606 1265.19,-309.349 1264.83,-312.831"/>
</g>
<!-- topo.command.pylabplot.PylabPlotCommand&#45;&gt;topo.command.pylabplot.vectorplot -->
<g id="edge8" class="edge"><title>topo.command.pylabplot.PylabPlotCommand&#45;&gt;topo.command.pylabplot.vectorplot</title>
<path fill="none" stroke="black" stroke-width="0.5" d="M1015.92,-191.097C1049.86,-207.816 1121.52,-240.987 1186,-257 1211.17,-263.25 1238.84,-267.444 1264.71,-270.259"/>
<polygon fill="black" stroke="black" points="1264.7,-272.018 1269.85,-270.804 1265.07,-268.537 1264.7,-272.018"/>
</g>
<!-- topo.command.pylabplot.matrixplot3d -->
<g id="node13" class="node"><title>topo.command.pylabplot.matrixplot3d</title>
<polygon fill="none" stroke="black" stroke-width="0.5" points="1464,-248.5 1264,-248.5 1264,-227.5 1464,-227.5 1464,-248.5"/>
<text text-anchor="middle" x="1364" y="-235.5" font-family="Vera" font-size="10.00">topo.command.pylabplot.matrixplot3d</text>
</g>
<!-- topo.command.pylabplot.PylabPlotCommand&#45;&gt;topo.command.pylabplot.matrixplot3d -->
<g id="edge10" class="edge"><title>topo.command.pylabplot.PylabPlotCommand&#45;&gt;topo.command.pylabplot.matrixplot3d</title>
<path fill="none" stroke="black" stroke-width="0.5" d="M1040.33,-191.056C1078.71,-199.475 1135.79,-211.315 1186,-219 1209.37,-222.577 1234.58,-225.707 1258.46,-228.338"/>
<polygon fill="black" stroke="black" points="1258.37,-230.089 1263.53,-228.892 1258.75,-226.61 1258.37,-230.089"/>
</g>
<!-- topo.command.pylabplot.overlaid_plot -->
<g id="node19" class="node"><title>topo.command.pylabplot.overlaid_plot</title>
<polygon fill="none" stroke="black" stroke-width="0.5" points="1464,-210.5 1264,-210.5 1264,-189.5 1464,-189.5 1464,-210.5"/>
<text text-anchor="middle" x="1364" y="-197.5" font-family="Vera" font-size="10.00">topo.command.pylabplot.overlaid_plot</text>
</g>
<!-- topo.command.pylabplot.PylabPlotCommand&#45;&gt;topo.command.pylabplot.overlaid_plot -->
<g id="edge54" class="edge"><title>topo.command.pylabplot.PylabPlotCommand&#45;&gt;topo.command.pylabplot.overlaid_plot</title>
<path fill="none" stroke="black" stroke-width="0.5" d="M1112.69,-187.025C1159.51,-189.442 1213.08,-192.208 1258.7,-194.563"/>
<polygon fill="black" stroke="black" points="1258.86,-196.324 1263.94,-194.834 1259.04,-192.828 1258.86,-196.324"/>
</g>
<!-- topo.command.pylabplot.histogramplot -->
<g id="node24" class="node"><title>topo.command.pylabplot.histogramplot</title>
<polygon fill="none" stroke="black" stroke-width="0.5" points="1467,-172.5 1261,-172.5 1261,-151.5 1467,-151.5 1467,-172.5"/>
<text text-anchor="middle" x="1364" y="-159.5" font-family="Vera" font-size="10.00">topo.command.pylabplot.histogramplot</text>
</g>
<!-- topo.command.pylabplot.PylabPlotCommand&#45;&gt;topo.command.pylabplot.histogramplot -->
<g id="edge20" class="edge"><title>topo.command.pylabplot.PylabPlotCommand&#45;&gt;topo.command.pylabplot.histogramplot</title>
<path fill="none" stroke="black" stroke-width="0.5" d="M1112.69,-174.975C1158.5,-172.61 1210.77,-169.911 1255.73,-167.59"/>
<polygon fill="black" stroke="black" points="1255.99,-169.329 1260.89,-167.323 1255.81,-165.834 1255.99,-169.329"/>
</g>
<!-- topo.command.pylabplot.xy_grid -->
<g id="node29" class="node"><title>topo.command.pylabplot.xy_grid</title>
<polygon fill="none" stroke="black" stroke-width="0.5" points="1450,-134.5 1278,-134.5 1278,-113.5 1450,-113.5 1450,-134.5"/>
<text text-anchor="middle" x="1364" y="-121.5" font-family="Vera" font-size="10.00">topo.command.pylabplot.xy_grid</text>
</g>
<!-- topo.command.pylabplot.PylabPlotCommand&#45;&gt;topo.command.pylabplot.xy_grid -->
<g id="edge24" class="edge"><title>topo.command.pylabplot.PylabPlotCommand&#45;&gt;topo.command.pylabplot.xy_grid</title>
<path fill="none" stroke="black" stroke-width="0.5" d="M1040.33,-170.944C1078.71,-162.525 1135.79,-150.685 1186,-143 1213.91,-138.729 1244.42,-135.096 1272.18,-132.187"/>
<polygon fill="black" stroke="black" points="1272.54,-133.909 1277.33,-131.652 1272.18,-130.428 1272.54,-133.909"/>
</g>
<!-- topo.command.pylabplot.matrixplot3dx3 -->
<g id="node41" class="node"><title>topo.command.pylabplot.matrixplot3dx3</title>
<polygon fill="none" stroke="black" stroke-width="0.5" points="1470,-96.5 1258,-96.5 1258,-75.5 1470,-75.5 1470,-96.5"/>
<text text-anchor="middle" x="1364" y="-83.5" font-family="Vera" font-size="10.00">topo.command.pylabplot.matrixplot3dx3</text>
</g>
<!-- topo.command.pylabplot.PylabPlotCommand&#45;&gt;topo.command.pylabplot.matrixplot3dx3 -->
<g id="edge34" class="edge"><title>topo.command.pylabplot.PylabPlotCommand&#45;&gt;topo.command.pylabplot.matrixplot3dx3</title>
<path fill="none" stroke="black" stroke-width="0.5" d="M1015.92,-170.903C1049.86,-154.184 1121.52,-121.013 1186,-105 1207.31,-99.7074 1230.42,-95.8889 1252.71,-93.1341"/>
<polygon fill="black" stroke="black" points="1252.99,-94.8623 1257.75,-92.5271 1252.57,-91.3874 1252.99,-94.8623"/>
</g>
<!-- topo.command.pylabplot.unit_tuning_curve -->
<g id="node53" class="node"><title>topo.command.pylabplot.unit_tuning_curve</title>
<polygon fill="none" stroke="black" stroke-width="0.5" points="1476,-58.5 1252,-58.5 1252,-37.5 1476,-37.5 1476,-58.5"/>
<text text-anchor="middle" x="1364" y="-45.5" font-family="Vera" font-size="10.00">topo.command.pylabplot.unit_tuning_curve</text>
</g>
<!-- topo.command.pylabplot.PylabPlotCommand&#45;&gt;topo.command.pylabplot.unit_tuning_curve -->
<g id="edge70" class="edge"><title>topo.command.pylabplot.PylabPlotCommand&#45;&gt;topo.command.pylabplot.unit_tuning_curve</title>
<path fill="none" stroke="black" stroke-width="0.5" d="M1008.39,-170.877C1037.37,-147.835 1112.69,-91.5704 1186,-67 1205.15,-60.5815 1226.05,-56.1974 1246.58,-53.2284"/>
<polygon fill="black" stroke="black" points="1247.08,-54.926 1251.79,-52.5037 1246.59,-51.4594 1247.08,-54.926"/>
</g>
<!-- topo.command.pylabplot.plot_modulation_ratio -->
<g id="node67" class="node"><title>topo.command.pylabplot.plot_modulation_ratio</title>
<polygon fill="none" stroke="black" stroke-width="0.5" points="1486,-20.5 1242,-20.5 1242,0.5 1486,0.5 1486,-20.5"/>
<text text-anchor="middle" x="1364" y="-7.5" font-family="Vera" font-size="10.00">topo.command.pylabplot.plot_modulation_ratio</text>
</g>
<!-- topo.command.pylabplot.PylabPlotCommand&#45;&gt;topo.command.pylabplot.plot_modulation_ratio -->
<g id="edge66" class="edge"><title>topo.command.pylabplot.PylabPlotCommand&#45;&gt;topo.command.pylabplot.plot_modulation_ratio</title>
<path fill="none" stroke="black" stroke-width="0.5" d="M1004.61,-170.91C1029.38,-142.652 1104.36,-62.61 1186,-29 1201.76,-22.5132 1218.93,-17.9335 1236.19,-14.7415"/>
<polygon fill="black" stroke="black" points="1236.93,-16.3882 1241.54,-13.7948 1236.32,-12.9416 1236.93,-16.3882"/>
</g>
<!-- topo.command.pylabplot.overlaid_plots -->
<g id="node18" class="node"><title>topo.command.pylabplot.overlaid_plots</title>
<polygon fill="none" stroke="black" stroke-width="0.5" points="1823,-210.5 1617,-210.5 1617,-189.5 1823,-189.5 1823,-210.5"/>
<text text-anchor="middle" x="1720" y="-197.5" font-family="Vera" font-size="10.00">topo.command.pylabplot.overlaid_plots</text>
</g>
<!-- topo.command.pylabplot.overlaid_plot&#45;&gt;topo.command.pylabplot.overlaid_plots -->
<g id="edge16" class="edge"><title>topo.command.pylabplot.overlaid_plot&#45;&gt;topo.command.pylabplot.overlaid_plots</title>
<path fill="none" stroke="black" stroke-width="0.5" d="M1464.11,-200C1510.15,-200 1564.84,-200 1611.82,-200"/>
<polygon fill="black" stroke="black" points="1611.93,-201.75 1616.93,-200 1611.93,-198.25 1611.93,-201.75"/>
</g>
<!-- param.parameterized.Parameterized -->
<g id="node23" class="node"><title>param.parameterized.Parameterized</title>
<polygon fill="none" stroke="black" stroke-width="0.5" points="194,-220.5 5.68434e-14,-220.5 0,-199.5 194,-199.5 194,-220.5"/>
<text text-anchor="middle" x="97" y="-207.5" font-family="Vera" font-size="10.00">param.parameterized.Parameterized</text>
</g>
<!-- param.parameterized.ParameterizedFunction -->
<g id="node32" class="node"><title>param.parameterized.ParameterizedFunction</title>
<polygon fill="none" stroke="black" stroke-width="0.5" points="464,-220.5 230,-220.5 230,-199.5 464,-199.5 464,-220.5"/>
<text text-anchor="middle" x="347" y="-207.5" font-family="Vera" font-size="10.00">param.parameterized.ParameterizedFunction</text>
</g>
<!-- param.parameterized.Parameterized&#45;&gt;param.parameterized.ParameterizedFunction -->
<g id="edge36" class="edge"><title>param.parameterized.Parameterized&#45;&gt;param.parameterized.ParameterizedFunction</title>
<path fill="none" stroke="black" stroke-width="0.5" d="M194.014,-210C204.04,-210 214.319,-210 224.575,-210"/>
<polygon fill="black" stroke="black" points="224.607,-211.75 229.607,-210 224.607,-208.25 224.607,-211.75"/>
</g>
<!-- topo.analysis.featureresponses.MeasureResponseCommand -->
<g id="node26" class="node"><title>topo.analysis.featureresponses.MeasureResponseCommand</title>
<polygon fill="none" stroke="black" stroke-width="0.5" points="1149,-400.5 843,-400.5 843,-379.5 1149,-379.5 1149,-400.5"/>
<text text-anchor="middle" x="996" y="-387.5" font-family="Vera" font-size="10.00">topo.analysis.featureresponses.MeasureResponseCommand</text>
</g>
<!-- topo.analysis.featureresponses.MeasureResponseCommand&#45;&gt;topo.analysis.featureresponses.PositionMeasurementCommand -->
<g id="edge44" class="edge"><title>topo.analysis.featureresponses.MeasureResponseCommand&#45;&gt;topo.analysis.featureresponses.PositionMeasurementCommand</title>
<path fill="none" stroke="black" stroke-width="0.5" d="M1093.17,-400.034C1145.15,-405.402 1209.14,-412.009 1261.86,-417.453"/>
<polygon fill="black" stroke="black" points="1261.77,-419.203 1266.93,-417.976 1262.13,-415.722 1261.77,-419.203"/>
</g>
<!-- topo.analysis.featureresponses.SinusoidalMeasureResponseCommand -->
<g id="node47" class="node"><title>topo.analysis.featureresponses.SinusoidalMeasureResponseCommand</title>
<polygon fill="none" stroke="black" stroke-width="0.5" points="1542,-400.5 1186,-400.5 1186,-379.5 1542,-379.5 1542,-400.5"/>
<text text-anchor="middle" x="1364" y="-387.5" font-family="Vera" font-size="10.00">topo.analysis.featureresponses.SinusoidalMeasureResponseCommand</text>
</g>
<!-- topo.analysis.featureresponses.MeasureResponseCommand&#45;&gt;topo.analysis.featureresponses.SinusoidalMeasureResponseCommand -->
<g id="edge42" class="edge"><title>topo.analysis.featureresponses.MeasureResponseCommand&#45;&gt;topo.analysis.featureresponses.SinusoidalMeasureResponseCommand</title>
<path fill="none" stroke="black" stroke-width="0.5" d="M1149.67,-390C1159.91,-390 1170.29,-390 1180.66,-390"/>
<polygon fill="black" stroke="black" points="1180.75,-391.75 1185.75,-390 1180.75,-388.25 1180.75,-391.75"/>
</g>
<!-- topo.analysis.featureresponses.PatternPresentingCommand -->
<g id="node27" class="node"><title>topo.analysis.featureresponses.PatternPresentingCommand</title>
<polygon fill="none" stroke="black" stroke-width="0.5" points="805,-353.5 501,-353.5 501,-332.5 805,-332.5 805,-353.5"/>
<text text-anchor="middle" x="653" y="-340.5" font-family="Vera" font-size="10.00">topo.analysis.featureresponses.PatternPresentingCommand</text>
</g>
<!-- topo.analysis.featureresponses.PatternPresentingCommand&#45;&gt;topo.analysis.featureresponses.MeasureResponseCommand -->
<g id="edge22" class="edge"><title>topo.analysis.featureresponses.PatternPresentingCommand&#45;&gt;topo.analysis.featureresponses.MeasureResponseCommand</title>
<path fill="none" stroke="black" stroke-width="0.5" d="M726.161,-353.025C782.502,-360.745 860.228,-371.396 917.795,-379.284"/>
<polygon fill="black" stroke="black" points="917.76,-381.045 922.951,-379.99 918.235,-377.578 917.76,-381.045"/>
</g>
<!-- topo.command.pylabplot.topographic_grid -->
<g id="node58" class="node"><title>topo.command.pylabplot.topographic_grid</title>
<polygon fill="none" stroke="black" stroke-width="0.5" points="1830,-134.5 1610,-134.5 1610,-113.5 1830,-113.5 1830,-134.5"/>
<text text-anchor="middle" x="1720" y="-121.5" font-family="Vera" font-size="10.00">topo.command.pylabplot.topographic_grid</text>
</g>
<!-- topo.command.pylabplot.xy_grid&#45;&gt;topo.command.pylabplot.topographic_grid -->
<g id="edge56" class="edge"><title>topo.command.pylabplot.xy_grid&#45;&gt;topo.command.pylabplot.topographic_grid</title>
<path fill="none" stroke="black" stroke-width="0.5" d="M1450.63,-124C1496.99,-124 1554.7,-124 1604.8,-124"/>
<polygon fill="black" stroke="black" points="1604.93,-125.75 1609.93,-124 1604.93,-122.25 1604.93,-125.75"/>
</g>
<!-- topo.command.Command -->
<g id="node31" class="node"><title>topo.command.Command</title>
<polygon fill="none" stroke="black" stroke-width="0.5" points="724,-220.5 582,-220.5 582,-199.5 724,-199.5 724,-220.5"/>
<text text-anchor="middle" x="653" y="-207.5" font-family="Vera" font-size="10.00">topo.command.Command</text>
</g>
<!-- topo.command.Command&#45;&gt;topo.command.pylabplot.PylabPlotCommand -->
<g id="edge52" class="edge"><title>topo.command.Command&#45;&gt;topo.command.pylabplot.PylabPlotCommand</title>
<path fill="none" stroke="black" stroke-width="0.5" d="M724.904,-203.921C768.111,-200.268 824.224,-195.523 874.182,-191.299"/>
<polygon fill="black" stroke="black" points="874.472,-193.031 879.307,-190.866 874.177,-189.544 874.472,-193.031"/>
</g>
<!-- param.parameterized.ParameterizedFunction&#45;&gt;topo.analysis.featureresponses.PatternPresentingCommand -->
<g id="edge58" class="edge"><title>param.parameterized.ParameterizedFunction&#45;&gt;topo.analysis.featureresponses.PatternPresentingCommand</title>
<path fill="none" stroke="black" stroke-width="0.5" d="M370.251,-220.106C425.599,-244.163 565.012,-304.757 624.924,-330.797"/>
<polygon fill="black" stroke="black" points="624.501,-332.521 629.784,-332.91 625.896,-329.312 624.501,-332.521"/>
</g>
<!-- param.parameterized.ParameterizedFunction&#45;&gt;topo.command.Command -->
<g id="edge26" class="edge"><title>param.parameterized.ParameterizedFunction&#45;&gt;topo.command.Command</title>
<path fill="none" stroke="black" stroke-width="0.5" d="M464.432,-210C501.869,-210 542.312,-210 576.108,-210"/>
<polygon fill="black" stroke="black" points="576.474,-211.75 581.474,-210 576.474,-208.25 576.474,-211.75"/>
</g>
<!-- topo.command.pylabplot.measure_cog -->
<g id="node72" class="node"><title>topo.command.pylabplot.measure_cog</title>
<polygon fill="none" stroke="black" stroke-width="0.5" points="755,-182.5 551,-182.5 551,-161.5 755,-161.5 755,-182.5"/>
<text text-anchor="middle" x="653" y="-169.5" font-family="Vera" font-size="10.00">topo.command.pylabplot.measure_cog</text>
</g>
<!-- param.parameterized.ParameterizedFunction&#45;&gt;topo.command.pylabplot.measure_cog -->
<g id="edge72" class="edge"><title>param.parameterized.ParameterizedFunction&#45;&gt;topo.command.pylabplot.measure_cog</title>
<path fill="none" stroke="black" stroke-width="0.5" d="M427.798,-199.966C470.763,-194.631 523.585,-188.071 567.271,-182.646"/>
<polygon fill="black" stroke="black" points="567.534,-184.377 572.28,-182.024 567.102,-180.904 567.534,-184.377"/>
</g>
<!-- topo.command.pylabplot.cyclic_tuning_curve -->
<g id="node34" class="node"><title>topo.command.pylabplot.cyclic_tuning_curve</title>
<polygon fill="none" stroke="black" stroke-width="0.5" points="2150,-77.5 1918,-77.5 1918,-56.5 2150,-56.5 2150,-77.5"/>
<text text-anchor="middle" x="2034" y="-64.5" font-family="Vera" font-size="10.00">topo.command.pylabplot.cyclic_tuning_curve</text>
</g>
<!-- topo.command.pylabplot.cyclic_unit_tuning_curve -->
<g id="node35" class="node"><title>topo.command.pylabplot.cyclic_unit_tuning_curve</title>
<polygon fill="none" stroke="black" stroke-width="0.5" points="1847,-77.5 1593,-77.5 1593,-56.5 1847,-56.5 1847,-77.5"/>
<text text-anchor="middle" x="1720" y="-64.5" font-family="Vera" font-size="10.00">topo.command.pylabplot.cyclic_unit_tuning_curve</text>
</g>
<!-- topo.command.pylabplot.cyclic_unit_tuning_curve&#45;&gt;topo.command.pylabplot.cyclic_tuning_curve -->
<g id="edge28" class="edge"><title>topo.command.pylabplot.cyclic_unit_tuning_curve&#45;&gt;topo.command.pylabplot.cyclic_tuning_curve</title>
<path fill="none" stroke="black" stroke-width="0.5" d="M1847.72,-67C1869.17,-67 1891.38,-67 1912.67,-67"/>
<polygon fill="black" stroke="black" points="1912.78,-68.7501 1917.78,-67 1912.78,-65.2501 1912.78,-68.7501"/>
</g>
<!-- topo.analysis.featureresponses.FeatureCurveCommand -->
<g id="node46" class="node"><title>topo.analysis.featureresponses.FeatureCurveCommand</title>
<polygon fill="none" stroke="black" stroke-width="0.5" points="1862,-400.5 1578,-400.5 1578,-379.5 1862,-379.5 1862,-400.5"/>
<text text-anchor="middle" x="1720" y="-387.5" font-family="Vera" font-size="10.00">topo.analysis.featureresponses.FeatureCurveCommand</text>
</g>
<!-- topo.analysis.featureresponses.FeatureCurveCommand&#45;&gt;topo.analysis.featureresponses.UnitCurveCommand -->
<g id="edge50" class="edge"><title>topo.analysis.featureresponses.FeatureCurveCommand&#45;&gt;topo.analysis.featureresponses.UnitCurveCommand</title>
<path fill="none" stroke="black" stroke-width="0.5" d="M1862.3,-398.611C1873.28,-399.275 1884.35,-399.945 1895.3,-400.607"/>
<polygon fill="black" stroke="black" points="1895.23,-402.356 1900.32,-400.911 1895.44,-398.862 1895.23,-402.356"/>
</g>
<!-- topo.command.pylabplot.measure_or_tuning_fullfield -->
<g id="node51" class="node"><title>topo.command.pylabplot.measure_or_tuning_fullfield</title>
<polygon fill="none" stroke="black" stroke-width="0.5" points="2169,-381.5 1899,-381.5 1899,-360.5 2169,-360.5 2169,-381.5"/>
<text text-anchor="middle" x="2034" y="-368.5" font-family="Vera" font-size="10.00">topo.command.pylabplot.measure_or_tuning_fullfield</text>
</g>
<!-- topo.analysis.featureresponses.FeatureCurveCommand&#45;&gt;topo.command.pylabplot.measure_or_tuning_fullfield -->
<g id="edge46" class="edge"><title>topo.analysis.featureresponses.FeatureCurveCommand&#45;&gt;topo.command.pylabplot.measure_or_tuning_fullfield</title>
<path fill="none" stroke="black" stroke-width="0.5" d="M1862.3,-381.389C1872.62,-380.765 1883.02,-380.135 1893.33,-379.512"/>
<polygon fill="black" stroke="black" points="1893.5,-381.255 1898.39,-379.206 1893.29,-377.761 1893.5,-381.255"/>
</g>
<!-- topo.analysis.featureresponses.SinusoidalMeasureResponseCommand&#45;&gt;topo.analysis.featureresponses.FeatureCurveCommand -->
<g id="edge40" class="edge"><title>topo.analysis.featureresponses.SinusoidalMeasureResponseCommand&#45;&gt;topo.analysis.featureresponses.FeatureCurveCommand</title>
<path fill="none" stroke="black" stroke-width="0.5" d="M1542,-390C1552.21,-390 1562.43,-390 1572.51,-390"/>
<polygon fill="black" stroke="black" points="1572.76,-391.75 1577.76,-390 1572.76,-388.25 1572.76,-391.75"/>
</g>
<!-- topo.command.pylabplot.unit_tuning_curve&#45;&gt;topo.command.pylabplot.cyclic_unit_tuning_curve -->
<g id="edge48" class="edge"><title>topo.command.pylabplot.unit_tuning_curve&#45;&gt;topo.command.pylabplot.cyclic_unit_tuning_curve</title>
<path fill="none" stroke="black" stroke-width="0.5" d="M1476.15,-53.9856C1511.31,-55.8622 1550.46,-57.9517 1586.92,-59.8976"/>
<polygon fill="black" stroke="black" points="1587.2,-61.6645 1592.28,-60.1836 1587.38,-58.1695 1587.2,-61.6645"/>
</g>
<!-- topo.command.pylabplot.tuning_curve -->
<g id="node65" class="node"><title>topo.command.pylabplot.tuning_curve</title>
<polygon fill="none" stroke="black" stroke-width="0.5" points="1820,-39.5 1620,-39.5 1620,-18.5 1820,-18.5 1820,-39.5"/>
<text text-anchor="middle" x="1720" y="-26.5" font-family="Vera" font-size="10.00">topo.command.pylabplot.tuning_curve</text>
</g>
<!-- topo.command.pylabplot.unit_tuning_curve&#45;&gt;topo.command.pylabplot.tuning_curve -->
<g id="edge64" class="edge"><title>topo.command.pylabplot.unit_tuning_curve&#45;&gt;topo.command.pylabplot.tuning_curve</title>
<path fill="none" stroke="black" stroke-width="0.5" d="M1476.15,-42.0144C1520.31,-39.6577 1570.76,-36.9653 1614.27,-34.6431"/>
<polygon fill="black" stroke="black" points="1614.37,-36.3904 1619.26,-34.3763 1614.18,-32.8954 1614.37,-36.3904"/>
</g>
</g>
</svg>
