<?xml version="1.0" encoding="UTF-8" standalone="no"?>
<!DOCTYPE svg PUBLIC "-//W3C//DTD SVG 1.1//EN"
 "http://www.w3.org/Graphics/SVG/1.1/DTD/svg11.dtd">
<!-- Generated by graphviz version 2.26.3 (20100126.1600)
 -->
<!-- Title: inheritance95afd34832 Pages: 1 -->
<svg width="1474pt" height="655pt"
 viewBox="0.00 0.00 1474.00 655.00" xmlns="http://www.w3.org/2000/svg" xmlns:xlink="http://www.w3.org/1999/xlink">
<g id="graph1" class="graph" transform="scale(1 1) rotate(0) translate(4 651)">
<title>inheritance95afd34832</title>
<polygon fill="white" stroke="white" points="-4,5 -4,-651 1471,-651 1471,5 -4,5"/>
<!-- paramtk.ListWidget -->
<g id="node1" class="node"><title>paramtk.ListWidget</title>
<polygon fill="none" stroke="black" stroke-width="0.5" points="957,-267.5 849,-267.5 849,-246.5 957,-246.5 957,-267.5"/>
<text text-anchor="middle" x="903" y="-254.5" font-family="Vera" font-size="10.00">paramtk.ListWidget</text>
</g>
<!-- Tkinter.Frame -->
<g id="node2" class="node"><title>Tkinter.Frame</title>
<polygon fill="none" stroke="black" stroke-width="0.5" points="757,-305.5 677,-305.5 677,-284.5 757,-284.5 757,-305.5"/>
<text text-anchor="middle" x="717" y="-292.5" font-family="Vera" font-size="10.00">Tkinter.Frame</text>
</g>
<!-- Tkinter.Frame&#45;&gt;paramtk.ListWidget -->
<g id="edge2" class="edge"><title>Tkinter.Frame&#45;&gt;paramtk.ListWidget</title>
<path fill="none" stroke="black" stroke-width="0.5" d="M757.818,-286.661C784.607,-281.188 819.937,-273.97 849.036,-268.025"/>
<polygon fill="black" stroke="black" points="849.473,-269.722 854.021,-267.006 848.772,-266.293 849.473,-269.722"/>
</g>
<!-- paramtk.ListItemCtrlWidget -->
<g id="node10" class="node"><title>paramtk.ListItemCtrlWidget</title>
<polygon fill="none" stroke="black" stroke-width="0.5" points="976,-229.5 830,-229.5 830,-208.5 976,-208.5 976,-229.5"/>
<text text-anchor="middle" x="903" y="-216.5" font-family="Vera" font-size="10.00">paramtk.ListItemCtrlWidget</text>
</g>
<!-- Tkinter.Frame&#45;&gt;paramtk.ListItemCtrlWidget -->
<g id="edge8" class="edge"><title>Tkinter.Frame&#45;&gt;paramtk.ListItemCtrlWidget</title>
<path fill="none" stroke="black" stroke-width="0.5" d="M733.752,-284.87C755.019,-272.373 793.144,-251.17 828,-238 835.492,-235.169 843.563,-232.626 851.536,-230.391"/>
<polygon fill="black" stroke="black" points="852.12,-232.046 856.482,-229.039 851.197,-228.669 852.12,-232.046"/>
</g>
<!-- paramtk.HackFileEntry -->
<g id="node13" class="node"><title>paramtk.HackFileEntry</title>
<polygon fill="none" stroke="black" stroke-width="0.5" points="965,-191.5 841,-191.5 841,-170.5 965,-170.5 965,-191.5"/>
<text text-anchor="middle" x="903" y="-178.5" font-family="Vera" font-size="10.00">paramtk.HackFileEntry</text>
</g>
<!-- Tkinter.Frame&#45;&gt;paramtk.HackFileEntry -->
<g id="edge10" class="edge"><title>Tkinter.Frame&#45;&gt;paramtk.HackFileEntry</title>
<path fill="none" stroke="black" stroke-width="0.5" d="M725.69,-284.966C743.091,-265.521 784.307,-222.636 828,-200 833.404,-197.2 839.245,-194.796 845.199,-192.736"/>
<polygon fill="black" stroke="black" points="846.016,-194.309 850.219,-191.085 844.923,-190.984 846.016,-194.309"/>
</g>
<!-- paramtk.ProgressWindow -->
<g id="node19" class="node"><title>paramtk.ProgressWindow</title>
<polygon fill="none" stroke="black" stroke-width="0.5" points="971,-419.5 835,-419.5 835,-398.5 971,-398.5 971,-419.5"/>
<text text-anchor="middle" x="903" y="-406.5" font-family="Vera" font-size="10.00">paramtk.ProgressWindow</text>
</g>
<!-- Tkinter.Frame&#45;&gt;paramtk.ProgressWindow -->
<g id="edge18" class="edge"><title>Tkinter.Frame&#45;&gt;paramtk.ProgressWindow</title>
<path fill="none" stroke="black" stroke-width="0.5" d="M757.763,-298.649C769.816,-301.388 782.352,-306.065 792,-314 820.867,-337.741 799.133,-366.259 828,-390 830.996,-392.464 834.27,-394.613 837.721,-396.488"/>
<polygon fill="black" stroke="black" points="837.272,-398.219 842.528,-398.879 838.83,-395.085 837.272,-398.219"/>
</g>
<!-- paramtk.ParametersFrame -->
<g id="node36" class="node"><title>paramtk.ParametersFrame</title>
<polygon fill="none" stroke="black" stroke-width="0.5" points="976,-457.5 830,-457.5 830,-436.5 976,-436.5 976,-457.5"/>
<text text-anchor="middle" x="903" y="-444.5" font-family="Vera" font-size="10.00">paramtk.ParametersFrame</text>
</g>
<!-- Tkinter.Frame&#45;&gt;paramtk.ParametersFrame -->
<g id="edge34" class="edge"><title>Tkinter.Frame&#45;&gt;paramtk.ParametersFrame</title>
<path fill="none" stroke="black" stroke-width="0.5" d="M757.669,-297.7C769.999,-300.367 782.72,-305.241 792,-314 830.64,-350.47 789.36,-391.53 828,-428 830.5,-430.36 833.25,-432.437 836.175,-434.266"/>
<polygon fill="black" stroke="black" points="835.69,-436.002 840.903,-436.939 837.412,-432.955 835.69,-436.002"/>
</g>
<!-- paramtk.TaggedSlider -->
<g id="node55" class="node"><title>paramtk.TaggedSlider</title>
<polygon fill="none" stroke="black" stroke-width="0.5" points="963,-381.5 843,-381.5 843,-360.5 963,-360.5 963,-381.5"/>
<text text-anchor="middle" x="903" y="-368.5" font-family="Vera" font-size="10.00">paramtk.TaggedSlider</text>
</g>
<!-- Tkinter.Frame&#45;&gt;paramtk.TaggedSlider -->
<g id="edge50" class="edge"><title>Tkinter.Frame&#45;&gt;paramtk.TaggedSlider</title>
<path fill="none" stroke="black" stroke-width="0.5" d="M757.554,-300.894C769.205,-303.722 781.571,-307.886 792,-314 812.07,-325.766 807.93,-340.234 828,-352 832.702,-354.757 837.798,-357.117 843.044,-359.137"/>
<polygon fill="black" stroke="black" points="842.601,-360.838 847.898,-360.898 843.795,-357.547 842.601,-360.838"/>
</g>
<!-- paramtk.ScrolledFrame -->
<g id="node61" class="node"><title>paramtk.ScrolledFrame</title>
<polygon fill="none" stroke="black" stroke-width="0.5" points="967,-343.5 839,-343.5 839,-322.5 967,-322.5 967,-343.5"/>
<text text-anchor="middle" x="903" y="-330.5" font-family="Vera" font-size="10.00">paramtk.ScrolledFrame</text>
</g>
<!-- Tkinter.Frame&#45;&gt;paramtk.ScrolledFrame -->
<g id="edge54" class="edge"><title>Tkinter.Frame&#45;&gt;paramtk.ScrolledFrame</title>
<path fill="none" stroke="black" stroke-width="0.5" d="M757.818,-303.339C784.607,-308.812 819.937,-316.03 849.036,-321.975"/>
<polygon fill="black" stroke="black" points="848.772,-323.707 854.021,-322.994 849.473,-320.278 848.772,-323.707"/>
</g>
<!-- paramtk.StatusBar -->
<g id="node81" class="node"><title>paramtk.StatusBar</title>
<polygon fill="none" stroke="black" stroke-width="0.5" points="957,-305.5 849,-305.5 849,-284.5 957,-284.5 957,-305.5"/>
<text text-anchor="middle" x="903" y="-292.5" font-family="Vera" font-size="10.00">paramtk.StatusBar</text>
</g>
<!-- Tkinter.Frame&#45;&gt;paramtk.StatusBar -->
<g id="edge76" class="edge"><title>Tkinter.Frame&#45;&gt;paramtk.StatusBar</title>
<path fill="none" stroke="black" stroke-width="0.5" d="M757.818,-295C782.986,-295 815.693,-295 843.69,-295"/>
<polygon fill="black" stroke="black" points="843.859,-296.75 848.859,-295 843.859,-293.25 843.859,-296.75"/>
</g>
<!-- paramtk.TkParameterized -->
<g id="node4" class="node"><title>paramtk.TkParameterized</title>
<polygon fill="none" stroke="black" stroke-width="0.5" points="787,-457.5 647,-457.5 647,-436.5 787,-436.5 787,-457.5"/>
<text text-anchor="middle" x="717" y="-444.5" font-family="Vera" font-size="10.00">paramtk.TkParameterized</text>
</g>
<!-- paramtk.TkParameterized&#45;&gt;paramtk.ParametersFrame -->
<g id="edge32" class="edge"><title>paramtk.TkParameterized&#45;&gt;paramtk.ParametersFrame</title>
<path fill="none" stroke="black" stroke-width="0.5" d="M787.054,-447C799.308,-447 812.13,-447 824.593,-447"/>
<polygon fill="black" stroke="black" points="824.909,-448.75 829.909,-447 824.909,-445.25 824.909,-448.75"/>
</g>
<!-- paramtk.TkParameterizedBase -->
<g id="node5" class="node"><title>paramtk.TkParameterizedBase</title>
<polygon fill="none" stroke="black" stroke-width="0.5" points="606,-457.5 442,-457.5 442,-436.5 606,-436.5 606,-457.5"/>
<text text-anchor="middle" x="524" y="-444.5" font-family="Vera" font-size="10.00">paramtk.TkParameterizedBase</text>
</g>
<!-- paramtk.TkParameterizedBase&#45;&gt;paramtk.TkParameterized -->
<g id="edge4" class="edge"><title>paramtk.TkParameterizedBase&#45;&gt;paramtk.TkParameterized</title>
<path fill="none" stroke="black" stroke-width="0.5" d="M606.129,-447C617.873,-447 629.908,-447 641.516,-447"/>
<polygon fill="black" stroke="black" points="641.817,-448.75 646.817,-447 641.817,-445.25 641.817,-448.75"/>
</g>
<!-- Tkinter.Button -->
<g id="node7" class="node"><title>Tkinter.Button</title>
<polygon fill="none" stroke="black" stroke-width="0.5" points="758,-134.5 676,-134.5 676,-113.5 758,-113.5 758,-134.5"/>
<text text-anchor="middle" x="717" y="-121.5" font-family="Vera" font-size="10.00">Tkinter.Button</text>
</g>
<!-- paramtk.FocusTakingButton -->
<g id="node58" class="node"><title>paramtk.FocusTakingButton</title>
<polygon fill="none" stroke="black" stroke-width="0.5" points="977,-115.5 829,-115.5 829,-94.5 977,-94.5 977,-115.5"/>
<text text-anchor="middle" x="903" y="-102.5" font-family="Vera" font-size="10.00">paramtk.FocusTakingButton</text>
</g>
<!-- Tkinter.Button&#45;&gt;paramtk.FocusTakingButton -->
<g id="edge52" class="edge"><title>Tkinter.Button&#45;&gt;paramtk.FocusTakingButton</title>
<path fill="none" stroke="black" stroke-width="0.5" d="M758.742,-119.736C777.861,-117.783 801.182,-115.401 823.453,-113.126"/>
<polygon fill="black" stroke="black" points="823.689,-114.861 828.485,-112.612 823.333,-111.379 823.689,-114.861"/>
</g>
<!-- Tkinter.Widget -->
<g id="node8" class="node"><title>Tkinter.Widget</title>
<polygon fill="none" stroke="black" stroke-width="0.5" points="565,-172.5 483,-172.5 483,-151.5 565,-151.5 565,-172.5"/>
<text text-anchor="middle" x="524" y="-159.5" font-family="Vera" font-size="10.00">Tkinter.Widget</text>
</g>
<!-- Tkinter.Widget&#45;&gt;Tkinter.Frame -->
<g id="edge20" class="edge"><title>Tkinter.Widget&#45;&gt;Tkinter.Frame</title>
<path fill="none" stroke="black" stroke-width="0.5" d="M538.824,-172.215C573.431,-196.064 659.514,-255.385 697.946,-281.869"/>
<polygon fill="black" stroke="black" points="697.28,-283.536 702.39,-284.932 699.266,-280.654 697.28,-283.536"/>
</g>
<!-- Tkinter.Widget&#45;&gt;Tkinter.Button -->
<g id="edge6" class="edge"><title>Tkinter.Widget&#45;&gt;Tkinter.Button</title>
<path fill="none" stroke="black" stroke-width="0.5" d="M565.878,-153.755C596.607,-147.704 638.353,-139.485 670.183,-133.218"/>
<polygon fill="black" stroke="black" points="670.636,-134.912 675.204,-132.229 669.96,-131.478 670.636,-134.912"/>
</g>
<!-- Tkinter.Menu -->
<g id="node26" class="node"><title>Tkinter.Menu</title>
<polygon fill="none" stroke="black" stroke-width="0.5" points="755,-172.5 679,-172.5 679,-151.5 755,-151.5 755,-172.5"/>
<text text-anchor="middle" x="717" y="-159.5" font-family="Vera" font-size="10.00">Tkinter.Menu</text>
</g>
<!-- Tkinter.Widget&#45;&gt;Tkinter.Menu -->
<g id="edge22" class="edge"><title>Tkinter.Widget&#45;&gt;Tkinter.Menu</title>
<path fill="none" stroke="black" stroke-width="0.5" d="M565.878,-162C597.659,-162 641.226,-162 673.418,-162"/>
<polygon fill="black" stroke="black" points="673.483,-163.75 678.483,-162 673.483,-160.25 673.483,-163.75"/>
</g>
<!-- paramtk.Balloon -->
<g id="node47" class="node"><title>paramtk.Balloon</title>
<polygon fill="none" stroke="black" stroke-width="0.5" points="764,-96.5 670,-96.5 670,-75.5 764,-75.5 764,-96.5"/>
<text text-anchor="middle" x="717" y="-83.5" font-family="Vera" font-size="10.00">paramtk.Balloon</text>
</g>
<!-- Tkinter.Widget&#45;&gt;paramtk.Balloon -->
<g id="edge42" class="edge"><title>Tkinter.Widget&#45;&gt;paramtk.Balloon</title>
<path fill="none" stroke="black" stroke-width="0.5" d="M541.899,-151.939C564.601,-139.514 605.228,-118.383 642,-105 649.735,-102.185 658.065,-99.6286 666.261,-97.3688"/>
<polygon fill="black" stroke="black" points="666.968,-98.9909 671.34,-96.0004 666.057,-95.6113 666.968,-98.9909"/>
</g>
<!-- paramtk.Scrodget -->
<g id="node78" class="node"><title>paramtk.Scrodget</title>
<polygon fill="none" stroke="black" stroke-width="0.5" points="769,-381.5 665,-381.5 665,-360.5 769,-360.5 769,-381.5"/>
<text text-anchor="middle" x="717" y="-368.5" font-family="Vera" font-size="10.00">paramtk.Scrodget</text>
</g>
<!-- Tkinter.Widget&#45;&gt;paramtk.Scrodget -->
<g id="edge74" class="edge"><title>Tkinter.Widget&#45;&gt;paramtk.Scrodget</title>
<path fill="none" stroke="black" stroke-width="0.5" d="M527.219,-172.148C537.887,-204.063 575.247,-303.168 642,-352 647.356,-355.918 653.438,-359.032 659.767,-361.505"/>
<polygon fill="black" stroke="black" points="659.349,-363.215 664.647,-363.275 660.543,-359.925 659.349,-363.215"/>
</g>
<!-- paramtk.Translator -->
<g id="node12" class="node"><title>paramtk.Translator</title>
<polygon fill="none" stroke="black" stroke-width="0.5" points="141,-552.5 35,-552.5 35,-531.5 141,-531.5 141,-552.5"/>
<text text-anchor="middle" x="88" y="-539.5" font-family="Vera" font-size="10.00">paramtk.Translator</text>
</g>
<!-- paramtk.String_ObjectTranslator -->
<g id="node29" class="node"><title>paramtk.String_ObjectTranslator</title>
<polygon fill="none" stroke="black" stroke-width="0.5" points="394,-609.5 224,-609.5 224,-588.5 394,-588.5 394,-609.5"/>
<text text-anchor="middle" x="309" y="-596.5" font-family="Vera" font-size="10.00">paramtk.String_ObjectTranslator</text>
</g>
<!-- paramtk.Translator&#45;&gt;paramtk.String_ObjectTranslator -->
<g id="edge26" class="edge"><title>paramtk.Translator&#45;&gt;paramtk.String_ObjectTranslator</title>
<path fill="none" stroke="black" stroke-width="0.5" d="M117.572,-552.012C142.543,-560.236 179.347,-571.822 212,-580 223.434,-582.864 235.715,-585.558 247.566,-587.969"/>
<polygon fill="black" stroke="black" points="247.368,-589.714 252.615,-588.984 248.058,-586.282 247.368,-589.714"/>
</g>
<!-- paramtk.Eval_ReprTranslator -->
<g id="node34" class="node"><title>paramtk.Eval_ReprTranslator</title>
<polygon fill="none" stroke="black" stroke-width="0.5" points="385,-571.5 233,-571.5 233,-550.5 385,-550.5 385,-571.5"/>
<text text-anchor="middle" x="309" y="-558.5" font-family="Vera" font-size="10.00">paramtk.Eval_ReprTranslator</text>
</g>
<!-- paramtk.Translator&#45;&gt;paramtk.Eval_ReprTranslator -->
<g id="edge30" class="edge"><title>paramtk.Translator&#45;&gt;paramtk.Eval_ReprTranslator</title>
<path fill="none" stroke="black" stroke-width="0.5" d="M141.78,-546.624C167.52,-548.837 198.894,-551.534 227.482,-553.992"/>
<polygon fill="black" stroke="black" points="227.654,-555.763 232.786,-554.448 227.954,-552.276 227.654,-555.763"/>
</g>
<!-- paramtk.ListTranslator -->
<g id="node49" class="node"><title>paramtk.ListTranslator</title>
<polygon fill="none" stroke="black" stroke-width="0.5" points="370,-533.5 248,-533.5 248,-512.5 370,-512.5 370,-533.5"/>
<text text-anchor="middle" x="309" y="-520.5" font-family="Vera" font-size="10.00">paramtk.ListTranslator</text>
</g>
<!-- paramtk.Translator&#45;&gt;paramtk.ListTranslator -->
<g id="edge44" class="edge"><title>paramtk.Translator&#45;&gt;paramtk.ListTranslator</title>
<path fill="none" stroke="black" stroke-width="0.5" d="M141.78,-537.376C171.978,-534.78 209.931,-531.517 242.043,-528.756"/>
<polygon fill="black" stroke="black" points="242.313,-530.49 247.145,-528.318 242.013,-527.003 242.313,-530.49"/>
</g>
<!-- paramtk.DoNothingTranslator -->
<g id="node53" class="node"><title>paramtk.DoNothingTranslator</title>
<polygon fill="none" stroke="black" stroke-width="0.5" points="388,-495.5 230,-495.5 230,-474.5 388,-474.5 388,-495.5"/>
<text text-anchor="middle" x="309" y="-482.5" font-family="Vera" font-size="10.00">paramtk.DoNothingTranslator</text>
</g>
<!-- paramtk.Translator&#45;&gt;paramtk.DoNothingTranslator -->
<g id="edge48" class="edge"><title>paramtk.Translator&#45;&gt;paramtk.DoNothingTranslator</title>
<path fill="none" stroke="black" stroke-width="0.5" d="M117.572,-531.988C142.543,-523.764 179.347,-512.178 212,-504 223.434,-501.136 235.715,-498.442 247.566,-496.031"/>
<polygon fill="black" stroke="black" points="248.058,-497.718 252.615,-495.016 247.368,-494.286 248.058,-497.718"/>
</g>
<!-- paramtk.Representer -->
<g id="node15" class="node"><title>paramtk.Representer</title>
<polygon fill="none" stroke="black" stroke-width="0.5" points="583,-419.5 465,-419.5 465,-398.5 583,-398.5 583,-419.5"/>
<text text-anchor="middle" x="524" y="-406.5" font-family="Vera" font-size="10.00">paramtk.Representer</text>
</g>
<!-- paramtk.ListRepresenter -->
<g id="node32" class="node"><title>paramtk.ListRepresenter</title>
<polygon fill="none" stroke="black" stroke-width="0.5" points="784,-419.5 650,-419.5 650,-398.5 784,-398.5 784,-419.5"/>
<text text-anchor="middle" x="717" y="-406.5" font-family="Vera" font-size="10.00">paramtk.ListRepresenter</text>
</g>
<!-- paramtk.Representer&#45;&gt;paramtk.ListRepresenter -->
<g id="edge28" class="edge"><title>paramtk.Representer&#45;&gt;paramtk.ListRepresenter</title>
<path fill="none" stroke="black" stroke-width="0.5" d="M583.218,-409C602.627,-409 624.413,-409 644.678,-409"/>
<polygon fill="black" stroke="black" points="644.795,-410.75 649.795,-409 644.795,-407.25 644.795,-410.75"/>
</g>
<!-- param.parameterized.Parameterized -->
<g id="node16" class="node"><title>param.parameterized.Parameterized</title>
<polygon fill="none" stroke="black" stroke-width="0.5" points="406,-438.5 212,-438.5 212,-417.5 406,-417.5 406,-438.5"/>
<text text-anchor="middle" x="309" y="-425.5" font-family="Vera" font-size="10.00">param.parameterized.Parameterized</text>
</g>
<!-- param.parameterized.Parameterized&#45;&gt;paramtk.TkParameterizedBase -->
<g id="edge14" class="edge"><title>param.parameterized.Parameterized&#45;&gt;paramtk.TkParameterizedBase</title>
<path fill="none" stroke="black" stroke-width="0.5" d="M406.121,-436.583C416.261,-437.479 426.525,-438.386 436.548,-439.272"/>
<polygon fill="black" stroke="black" points="436.631,-441.036 441.766,-439.733 436.939,-437.549 436.631,-441.036"/>
</g>
<!-- param.parameterized.Parameterized&#45;&gt;paramtk.Representer -->
<g id="edge12" class="edge"><title>param.parameterized.Parameterized&#45;&gt;paramtk.Representer</title>
<path fill="none" stroke="black" stroke-width="0.5" d="M406.121,-419.417C424.274,-417.813 442.826,-416.174 459.679,-414.684"/>
<polygon fill="black" stroke="black" points="460.026,-416.41 464.853,-414.227 459.718,-412.924 460.026,-416.41"/>
</g>
<!-- paramtk.ProgressController -->
<g id="node20" class="node"><title>paramtk.ProgressController</title>
<polygon fill="none" stroke="black" stroke-width="0.5" points="791,-343.5 643,-343.5 643,-322.5 791,-322.5 791,-343.5"/>
<text text-anchor="middle" x="717" y="-330.5" font-family="Vera" font-size="10.00">paramtk.ProgressController</text>
</g>
<!-- paramtk.ProgressController&#45;&gt;paramtk.ProgressWindow -->
<g id="edge16" class="edge"><title>paramtk.ProgressController&#45;&gt;paramtk.ProgressWindow</title>
<path fill="none" stroke="black" stroke-width="0.5" d="M772.102,-343.102C779.045,-345.475 785.859,-348.399 792,-352 812.07,-363.766 807.93,-378.234 828,-390 832.702,-392.757 837.798,-395.117 843.044,-397.137"/>
<polygon fill="black" stroke="black" points="842.601,-398.838 847.898,-398.898 843.795,-395.547 842.601,-398.838"/>
</g>
<!-- param.parameterized.Parameter -->
<g id="node24" class="node"><title>param.parameterized.Parameter</title>
<polygon fill="none" stroke="black" stroke-width="0.5" points="175,-647.5 1,-647.5 1,-626.5 175,-626.5 175,-647.5"/>
<text text-anchor="middle" x="88" y="-634.5" font-family="Vera" font-size="10.00">param.parameterized.Parameter</text>
</g>
<!-- param.Callable -->
<g id="node43" class="node"><title>param.Callable</title>
<polygon fill="none" stroke="black" stroke-width="0.5" points="353,-647.5 265,-647.5 265,-626.5 353,-626.5 353,-647.5"/>
<text text-anchor="middle" x="309" y="-634.5" font-family="Vera" font-size="10.00">param.Callable</text>
</g>
<!-- param.parameterized.Parameter&#45;&gt;param.Callable -->
<g id="edge82" class="edge"><title>param.parameterized.Parameter&#45;&gt;param.Callable</title>
<path fill="none" stroke="black" stroke-width="0.5" d="M175.662,-637C204.015,-637 234.464,-637 259.097,-637"/>
<polygon fill="black" stroke="black" points="259.263,-638.75 264.263,-637 259.263,-635.25 259.263,-638.75"/>
</g>
<!-- Tkinter.Misc -->
<g id="node25" class="node"><title>Tkinter.Misc</title>
<polygon fill="none" stroke="black" stroke-width="0.5" points="124,-96.5 52,-96.5 52,-75.5 124,-75.5 124,-96.5"/>
<text text-anchor="middle" x="88" y="-83.5" font-family="Vera" font-size="10.00">Tkinter.Misc</text>
</g>
<!-- Tkinter.BaseWidget -->
<g id="node69" class="node"><title>Tkinter.BaseWidget</title>
<polygon fill="none" stroke="black" stroke-width="0.5" points="362,-96.5 256,-96.5 256,-75.5 362,-75.5 362,-96.5"/>
<text text-anchor="middle" x="309" y="-83.5" font-family="Vera" font-size="10.00">Tkinter.BaseWidget</text>
</g>
<!-- Tkinter.Misc&#45;&gt;Tkinter.BaseWidget -->
<g id="edge60" class="edge"><title>Tkinter.Misc&#45;&gt;Tkinter.BaseWidget</title>
<path fill="none" stroke="black" stroke-width="0.5" d="M124.494,-86C158.637,-86 210.226,-86 250.18,-86"/>
<polygon fill="black" stroke="black" points="250.489,-87.7501 255.489,-86 250.489,-84.2501 250.489,-87.7501"/>
</g>
<!-- paramtk.Menu -->
<g id="node51" class="node"><title>paramtk.Menu</title>
<polygon fill="none" stroke="black" stroke-width="0.5" points="946,-153.5 860,-153.5 860,-132.5 946,-132.5 946,-153.5"/>
<text text-anchor="middle" x="903" y="-140.5" font-family="Vera" font-size="10.00">paramtk.Menu</text>
</g>
<!-- Tkinter.Menu&#45;&gt;paramtk.Menu -->
<g id="edge46" class="edge"><title>Tkinter.Menu&#45;&gt;paramtk.Menu</title>
<path fill="none" stroke="black" stroke-width="0.5" d="M755.539,-158.063C784.308,-155.124 823.811,-151.089 854.69,-147.935"/>
<polygon fill="black" stroke="black" points="855.163,-149.646 859.959,-147.397 854.807,-146.164 855.163,-149.646"/>
</g>
<!-- paramtk.CSPTranslator -->
<g id="node28" class="node"><title>paramtk.CSPTranslator</title>
<polygon fill="none" stroke="black" stroke-width="0.5" points="587,-609.5 461,-609.5 461,-588.5 587,-588.5 587,-609.5"/>
<text text-anchor="middle" x="524" y="-596.5" font-family="Vera" font-size="10.00">paramtk.CSPTranslator</text>
</g>
<!-- paramtk.String_ObjectTranslator&#45;&gt;paramtk.CSPTranslator -->
<g id="edge24" class="edge"><title>paramtk.String_ObjectTranslator&#45;&gt;paramtk.CSPTranslator</title>
<path fill="none" stroke="black" stroke-width="0.5" d="M394.591,-599C414.822,-599 436.133,-599 455.493,-599"/>
<polygon fill="black" stroke="black" points="455.899,-600.75 460.899,-599 455.899,-597.25 455.899,-600.75"/>
</g>
<!-- paramtk.ParametersFrameWithApply -->
<g id="node39" class="node"><title>paramtk.ParametersFrameWithApply</title>
<polygon fill="none" stroke="black" stroke-width="0.5" points="1206,-457.5 1014,-457.5 1014,-436.5 1206,-436.5 1206,-457.5"/>
<text text-anchor="middle" x="1110" y="-444.5" font-family="Vera" font-size="10.00">paramtk.ParametersFrameWithApply</text>
</g>
<!-- paramtk.ParametersFrame&#45;&gt;paramtk.ParametersFrameWithApply -->
<g id="edge36" class="edge"><title>paramtk.ParametersFrame&#45;&gt;paramtk.ParametersFrameWithApply</title>
<path fill="none" stroke="black" stroke-width="0.5" d="M976.272,-447C986.862,-447 997.915,-447 1008.93,-447"/>
<polygon fill="black" stroke="black" points="1008.99,-448.75 1013.99,-447 1008.99,-445.25 1008.99,-448.75"/>
</g>
<!-- paramtk.EditingParametersFrameWithApply -->
<g id="node45" class="node"><title>paramtk.EditingParametersFrameWithApply</title>
<polygon fill="none" stroke="black" stroke-width="0.5" points="1466,-457.5 1242,-457.5 1242,-436.5 1466,-436.5 1466,-457.5"/>
<text text-anchor="middle" x="1354" y="-444.5" font-family="Vera" font-size="10.00">paramtk.EditingParametersFrameWithApply</text>
</g>
<!-- paramtk.ParametersFrameWithApply&#45;&gt;paramtk.EditingParametersFrameWithApply -->
<g id="edge40" class="edge"><title>paramtk.ParametersFrameWithApply&#45;&gt;paramtk.EditingParametersFrameWithApply</title>
<path fill="none" stroke="black" stroke-width="0.5" d="M1206.09,-447C1216.17,-447 1226.5,-447 1236.79,-447"/>
<polygon fill="black" stroke="black" points="1236.84,-448.75 1241.84,-447 1236.84,-445.25 1236.84,-448.75"/>
</g>
<!-- Tkinter.Wm -->
<g id="node41" class="node"><title>Tkinter.Wm</title>
<polygon fill="none" stroke="black" stroke-width="0.5" points="343,-58.5 275,-58.5 275,-37.5 343,-37.5 343,-58.5"/>
<text text-anchor="middle" x="309" y="-45.5" font-family="Vera" font-size="10.00">Tkinter.Wm</text>
</g>
<!-- Tkinter.Toplevel -->
<g id="node67" class="node"><title>Tkinter.Toplevel</title>
<polygon fill="none" stroke="black" stroke-width="0.5" points="568,-58.5 480,-58.5 480,-37.5 568,-37.5 568,-58.5"/>
<text text-anchor="middle" x="524" y="-45.5" font-family="Vera" font-size="10.00">Tkinter.Toplevel</text>
</g>
<!-- Tkinter.Wm&#45;&gt;Tkinter.Toplevel -->
<g id="edge80" class="edge"><title>Tkinter.Wm&#45;&gt;Tkinter.Toplevel</title>
<path fill="none" stroke="black" stroke-width="0.5" d="M343.543,-48C378.874,-48 434.11,-48 474.169,-48"/>
<polygon fill="black" stroke="black" points="474.47,-49.7501 479.47,-48 474.47,-46.2501 474.47,-49.7501"/>
</g>
<!-- paramtk.Button -->
<g id="node42" class="node"><title>paramtk.Button</title>
<polygon fill="none" stroke="black" stroke-width="0.5" points="570,-647.5 478,-647.5 478,-626.5 570,-626.5 570,-647.5"/>
<text text-anchor="middle" x="524" y="-634.5" font-family="Vera" font-size="10.00">paramtk.Button</text>
</g>
<!-- param.Callable&#45;&gt;paramtk.Button -->
<g id="edge38" class="edge"><title>param.Callable&#45;&gt;paramtk.Button</title>
<path fill="none" stroke="black" stroke-width="0.5" d="M353.548,-637C388.132,-637 436.136,-637 472.391,-637"/>
<polygon fill="black" stroke="black" points="472.652,-638.75 477.652,-637 472.652,-635.25 472.652,-638.75"/>
</g>
<!-- paramtk.BoolTranslator -->
<g id="node63" class="node"><title>paramtk.BoolTranslator</title>
<polygon fill="none" stroke="black" stroke-width="0.5" points="588,-495.5 460,-495.5 460,-474.5 588,-474.5 588,-495.5"/>
<text text-anchor="middle" x="524" y="-482.5" font-family="Vera" font-size="10.00">paramtk.BoolTranslator</text>
</g>
<!-- paramtk.DoNothingTranslator&#45;&gt;paramtk.BoolTranslator -->
<g id="edge56" class="edge"><title>paramtk.DoNothingTranslator&#45;&gt;paramtk.BoolTranslator</title>
<path fill="none" stroke="black" stroke-width="0.5" d="M388.142,-485C409.979,-485 433.497,-485 454.728,-485"/>
<polygon fill="black" stroke="black" points="454.788,-486.75 459.788,-485 454.788,-483.25 454.788,-486.75"/>
</g>
<!-- paramtk.ScrodgetWidget -->
<g id="node57" class="node"><title>paramtk.ScrodgetWidget</title>
<polygon fill="none" stroke="black" stroke-width="0.5" points="592,-381.5 456,-381.5 456,-360.5 592,-360.5 592,-381.5"/>
<text text-anchor="middle" x="524" y="-368.5" font-family="Vera" font-size="10.00">paramtk.ScrodgetWidget</text>
</g>
<!-- paramtk.ScrodgetWidget&#45;&gt;paramtk.Scrodget -->
<g id="edge72" class="edge"><title>paramtk.ScrodgetWidget&#45;&gt;paramtk.Scrodget</title>
<path fill="none" stroke="black" stroke-width="0.5" d="M592.045,-371C614.148,-371 638.44,-371 659.681,-371"/>
<polygon fill="black" stroke="black" points="659.728,-372.75 664.728,-371 659.728,-369.25 659.728,-372.75"/>
</g>
<!-- Tkinter.Place -->
<g id="node60" class="node"><title>Tkinter.Place</title>
<polygon fill="none" stroke="black" stroke-width="0.5" points="347,-210.5 271,-210.5 271,-189.5 347,-189.5 347,-210.5"/>
<text text-anchor="middle" x="309" y="-197.5" font-family="Vera" font-size="10.00">Tkinter.Place</text>
</g>
<!-- Tkinter.Place&#45;&gt;Tkinter.Widget -->
<g id="edge68" class="edge"><title>Tkinter.Place&#45;&gt;Tkinter.Widget</title>
<path fill="none" stroke="black" stroke-width="0.5" d="M347.935,-193.118C384.299,-186.691 438.629,-177.089 477.308,-170.252"/>
<polygon fill="black" stroke="black" points="477.801,-171.943 482.42,-169.349 477.192,-168.496 477.801,-171.943"/>
</g>
<!-- Tkinter.Grid -->
<g id="node65" class="node"><title>Tkinter.Grid</title>
<polygon fill="none" stroke="black" stroke-width="0.5" points="344,-172.5 274,-172.5 274,-151.5 344,-151.5 344,-172.5"/>
<text text-anchor="middle" x="309" y="-159.5" font-family="Vera" font-size="10.00">Tkinter.Grid</text>
</g>
<!-- Tkinter.Grid&#45;&gt;Tkinter.Widget -->
<g id="edge70" class="edge"><title>Tkinter.Grid&#45;&gt;Tkinter.Widget</title>
<path fill="none" stroke="black" stroke-width="0.5" d="M344.503,-162C380.687,-162 437.012,-162 476.905,-162"/>
<polygon fill="black" stroke="black" points="477.175,-163.75 482.175,-162 477.175,-160.25 477.175,-163.75"/>
</g>
<!-- paramtk.ScrolledWindow -->
<g id="node66" class="node"><title>paramtk.ScrolledWindow</title>
<polygon fill="none" stroke="black" stroke-width="0.5" points="784,-58.5 650,-58.5 650,-37.5 784,-37.5 784,-58.5"/>
<text text-anchor="middle" x="717" y="-45.5" font-family="Vera" font-size="10.00">paramtk.ScrolledWindow</text>
</g>
<!-- paramtk.AppWindow -->
<g id="node86" class="node"><title>paramtk.AppWindow</title>
<polygon fill="none" stroke="black" stroke-width="0.5" points="960,-58.5 846,-58.5 846,-37.5 960,-37.5 960,-58.5"/>
<text text-anchor="middle" x="903" y="-45.5" font-family="Vera" font-size="10.00">paramtk.AppWindow</text>
</g>
<!-- paramtk.ScrolledWindow&#45;&gt;paramtk.AppWindow -->
<g id="edge84" class="edge"><title>paramtk.ScrolledWindow&#45;&gt;paramtk.AppWindow</title>
<path fill="none" stroke="black" stroke-width="0.5" d="M784.15,-48C802.603,-48 822.53,-48 840.697,-48"/>
<polygon fill="black" stroke="black" points="840.771,-49.7501 845.771,-48 840.771,-46.2501 840.771,-49.7501"/>
</g>
<!-- Tkinter.Toplevel&#45;&gt;paramtk.ScrolledWindow -->
<g id="edge58" class="edge"><title>Tkinter.Toplevel&#45;&gt;paramtk.ScrolledWindow</title>
<path fill="none" stroke="black" stroke-width="0.5" d="M568.763,-48C591.313,-48 619.213,-48 644.705,-48"/>
<polygon fill="black" stroke="black" points="644.769,-49.7501 649.769,-48 644.769,-46.2501 644.769,-49.7501"/>
</g>
<!-- paramtk.ToolTip -->
<g id="node71" class="node"><title>paramtk.ToolTip</title>
<polygon fill="none" stroke="black" stroke-width="0.5" points="763,-20.5 671,-20.5 671,0.5 763,0.5 763,-20.5"/>
<text text-anchor="middle" x="717" y="-7.5" font-family="Vera" font-size="10.00">paramtk.ToolTip</text>
</g>
<!-- Tkinter.Toplevel&#45;&gt;paramtk.ToolTip -->
<g id="edge62" class="edge"><title>Tkinter.Toplevel&#45;&gt;paramtk.ToolTip</title>
<path fill="none" stroke="black" stroke-width="0.5" d="M568.763,-39.1865C597.711,-33.4869 635.478,-26.0509 665.646,-20.1111"/>
<polygon fill="black" stroke="black" points="666.235,-21.7789 670.802,-19.0959 665.558,-18.3449 666.235,-21.7789"/>
</g>
<!-- Tkinter.BaseWidget&#45;&gt;Tkinter.Widget -->
<g id="edge64" class="edge"><title>Tkinter.BaseWidget&#45;&gt;Tkinter.Widget</title>
<path fill="none" stroke="black" stroke-width="0.5" d="M362.75,-93.9833C377,-96.7869 392.243,-100.415 406,-105 441.006,-116.667 479.019,-136.43 502.178,-149.347"/>
<polygon fill="black" stroke="black" points="501.39,-150.912 506.607,-151.835 503.105,-147.86 501.39,-150.912"/>
</g>
<!-- Tkinter.BaseWidget&#45;&gt;Tkinter.Toplevel -->
<g id="edge78" class="edge"><title>Tkinter.BaseWidget&#45;&gt;Tkinter.Toplevel</title>
<path fill="none" stroke="black" stroke-width="0.5" d="M362.699,-76.509C396.819,-70.4785 440.681,-62.7261 474.052,-56.8281"/>
<polygon fill="black" stroke="black" points="474.695,-58.4916 479.314,-55.898 474.086,-55.045 474.695,-58.4916"/>
</g>
<!-- Tkinter.Pack -->
<g id="node74" class="node"><title>Tkinter.Pack</title>
<polygon fill="none" stroke="black" stroke-width="0.5" points="345,-134.5 273,-134.5 273,-113.5 345,-113.5 345,-134.5"/>
<text text-anchor="middle" x="309" y="-121.5" font-family="Vera" font-size="10.00">Tkinter.Pack</text>
</g>
<!-- Tkinter.Pack&#45;&gt;Tkinter.Widget -->
<g id="edge66" class="edge"><title>Tkinter.Pack&#45;&gt;Tkinter.Widget</title>
<path fill="none" stroke="black" stroke-width="0.5" d="M345.96,-130.532C382.269,-136.95 437.801,-146.765 477.179,-153.725"/>
<polygon fill="black" stroke="black" points="477.154,-155.497 482.383,-154.644 477.764,-152.051 477.154,-155.497"/>
</g>
</g>
</svg>
