<?xml version="1.0" encoding="UTF-8" standalone="no"?>
<!DOCTYPE svg PUBLIC "-//W3C//DTD SVG 1.1//EN"
 "http://www.w3.org/Graphics/SVG/1.1/DTD/svg11.dtd">
<!-- Generated by graphviz version 2.26.3 (20100126.1600)
 -->
<!-- Title: inheritance95afd34832 Pages: 1 -->
<svg width="1474pt" height="560pt"
 viewBox="0.00 0.00 1474.00 560.00" xmlns="http://www.w3.org/2000/svg" xmlns:xlink="http://www.w3.org/1999/xlink">
<g id="graph1" class="graph" transform="scale(1 1) rotate(0) translate(4 556)">
<title>inheritance95afd34832</title>
<polygon fill="white" stroke="white" points="-4,5 -4,-556 1471,-556 1471,5 -4,5"/>
<!-- paramtk.ScrolledWindow -->
<g id="node1" class="node"><title>paramtk.ScrolledWindow</title>
<polygon fill="none" stroke="black" stroke-width="0.5" points="784,-400.5 650,-400.5 650,-379.5 784,-379.5 784,-400.5"/>
<text text-anchor="middle" x="717" y="-387.5" font-family="Vera" font-size="10.00">paramtk.ScrolledWindow</text>
</g>
<!-- paramtk.AppWindow -->
<g id="node11" class="node"><title>paramtk.AppWindow</title>
<polygon fill="none" stroke="black" stroke-width="0.5" points="960,-400.5 846,-400.5 846,-379.5 960,-379.5 960,-400.5"/>
<text text-anchor="middle" x="903" y="-387.5" font-family="Vera" font-size="10.00">paramtk.AppWindow</text>
</g>
<!-- paramtk.ScrolledWindow&#45;&gt;paramtk.AppWindow -->
<g id="edge8" class="edge"><title>paramtk.ScrolledWindow&#45;&gt;paramtk.AppWindow</title>
<path fill="none" stroke="black" stroke-width="0.5" d="M784.15,-390C802.603,-390 822.53,-390 840.697,-390"/>
<polygon fill="black" stroke="black" points="840.771,-391.75 845.771,-390 840.771,-388.25 840.771,-391.75"/>
</g>
<!-- Tkinter.Toplevel -->
<g id="node2" class="node"><title>Tkinter.Toplevel</title>
<polygon fill="none" stroke="black" stroke-width="0.5" points="568,-362.5 480,-362.5 480,-341.5 568,-341.5 568,-362.5"/>
<text text-anchor="middle" x="524" y="-349.5" font-family="Vera" font-size="10.00">Tkinter.Toplevel</text>
</g>
<!-- Tkinter.Toplevel&#45;&gt;paramtk.ScrolledWindow -->
<g id="edge2" class="edge"><title>Tkinter.Toplevel&#45;&gt;paramtk.ScrolledWindow</title>
<path fill="none" stroke="black" stroke-width="0.5" d="M568.763,-360.813C596.238,-366.223 631.656,-373.196 660.982,-378.97"/>
<polygon fill="black" stroke="black" points="660.764,-380.711 666.007,-379.96 661.44,-377.277 660.764,-380.711"/>
</g>
<!-- paramtk.ToolTip -->
<g id="node54" class="node"><title>paramtk.ToolTip</title>
<polygon fill="none" stroke="black" stroke-width="0.5" points="763,-362.5 671,-362.5 671,-341.5 763,-341.5 763,-362.5"/>
<text text-anchor="middle" x="717" y="-349.5" font-family="Vera" font-size="10.00">paramtk.ToolTip</text>
</g>
<!-- Tkinter.Toplevel&#45;&gt;paramtk.ToolTip -->
<g id="edge44" class="edge"><title>Tkinter.Toplevel&#45;&gt;paramtk.ToolTip</title>
<path fill="none" stroke="black" stroke-width="0.5" d="M568.763,-352C597.711,-352 635.478,-352 665.646,-352"/>
<polygon fill="black" stroke="black" points="665.802,-353.75 670.802,-352 665.802,-350.25 665.802,-353.75"/>
</g>
<!-- param.parameterized.Parameter -->
<g id="node4" class="node"><title>param.parameterized.Parameter</title>
<polygon fill="none" stroke="black" stroke-width="0.5" points="175,-400.5 1,-400.5 1,-379.5 175,-379.5 175,-400.5"/>
<text text-anchor="middle" x="88" y="-387.5" font-family="Vera" font-size="10.00">param.parameterized.Parameter</text>
</g>
<!-- param.Callable -->
<g id="node32" class="node"><title>param.Callable</title>
<polygon fill="none" stroke="black" stroke-width="0.5" points="353,-400.5 265,-400.5 265,-379.5 353,-379.5 353,-400.5"/>
<text text-anchor="middle" x="309" y="-387.5" font-family="Vera" font-size="10.00">param.Callable</text>
</g>
<!-- param.parameterized.Parameter&#45;&gt;param.Callable -->
<g id="edge26" class="edge"><title>param.parameterized.Parameter&#45;&gt;param.Callable</title>
<path fill="none" stroke="black" stroke-width="0.5" d="M175.662,-390C204.015,-390 234.464,-390 259.097,-390"/>
<polygon fill="black" stroke="black" points="259.263,-391.75 264.263,-390 259.263,-388.25 259.263,-391.75"/>
</g>
<!-- Tkinter.Frame -->
<g id="node5" class="node"><title>Tkinter.Frame</title>
<polygon fill="none" stroke="black" stroke-width="0.5" points="757,-210.5 677,-210.5 677,-189.5 757,-189.5 757,-210.5"/>
<text text-anchor="middle" x="717" y="-197.5" font-family="Vera" font-size="10.00">Tkinter.Frame</text>
</g>
<!-- paramtk.StatusBar -->
<g id="node13" class="node"><title>paramtk.StatusBar</title>
<polygon fill="none" stroke="black" stroke-width="0.5" points="957,-210.5 849,-210.5 849,-189.5 957,-189.5 957,-210.5"/>
<text text-anchor="middle" x="903" y="-197.5" font-family="Vera" font-size="10.00">paramtk.StatusBar</text>
</g>
<!-- Tkinter.Frame&#45;&gt;paramtk.StatusBar -->
<g id="edge10" class="edge"><title>Tkinter.Frame&#45;&gt;paramtk.StatusBar</title>
<path fill="none" stroke="black" stroke-width="0.5" d="M757.818,-200C782.986,-200 815.693,-200 843.69,-200"/>
<polygon fill="black" stroke="black" points="843.859,-201.75 848.859,-200 843.859,-198.25 843.859,-201.75"/>
</g>
<!-- paramtk.ProgressWindow -->
<g id="node16" class="node"><title>paramtk.ProgressWindow</title>
<polygon fill="none" stroke="black" stroke-width="0.5" points="971,-324.5 835,-324.5 835,-303.5 971,-303.5 971,-324.5"/>
<text text-anchor="middle" x="903" y="-311.5" font-family="Vera" font-size="10.00">paramtk.ProgressWindow</text>
</g>
<!-- Tkinter.Frame&#45;&gt;paramtk.ProgressWindow -->
<g id="edge14" class="edge"><title>Tkinter.Frame&#45;&gt;paramtk.ProgressWindow</title>
<path fill="none" stroke="black" stroke-width="0.5" d="M757.763,-203.649C769.816,-206.388 782.352,-211.065 792,-219 820.867,-242.741 799.133,-271.259 828,-295 830.996,-297.464 834.27,-299.613 837.721,-301.488"/>
<polygon fill="black" stroke="black" points="837.272,-303.219 842.528,-303.879 838.83,-300.085 837.272,-303.219"/>
</g>
<!-- paramtk.ListWidget -->
<g id="node30" class="node"><title>paramtk.ListWidget</title>
<polygon fill="none" stroke="black" stroke-width="0.5" points="957,-172.5 849,-172.5 849,-151.5 957,-151.5 957,-172.5"/>
<text text-anchor="middle" x="903" y="-159.5" font-family="Vera" font-size="10.00">paramtk.ListWidget</text>
</g>
<!-- Tkinter.Frame&#45;&gt;paramtk.ListWidget -->
<g id="edge24" class="edge"><title>Tkinter.Frame&#45;&gt;paramtk.ListWidget</title>
<path fill="none" stroke="black" stroke-width="0.5" d="M757.818,-191.661C784.607,-186.188 819.937,-178.97 849.036,-173.025"/>
<polygon fill="black" stroke="black" points="849.473,-174.722 854.021,-172.006 848.772,-171.293 849.473,-174.722"/>
</g>
<!-- paramtk.ParametersFrame -->
<g id="node35" class="node"><title>paramtk.ParametersFrame</title>
<polygon fill="none" stroke="black" stroke-width="0.5" points="976,-20.5 830,-20.5 830,0.5 976,0.5 976,-20.5"/>
<text text-anchor="middle" x="903" y="-7.5" font-family="Vera" font-size="10.00">paramtk.ParametersFrame</text>
</g>
<!-- Tkinter.Frame&#45;&gt;paramtk.ParametersFrame -->
<g id="edge68" class="edge"><title>Tkinter.Frame&#45;&gt;paramtk.ParametersFrame</title>
<path fill="none" stroke="black" stroke-width="0.5" d="M757.668,-197.78C770.145,-195.158 782.953,-190.189 792,-181 840.707,-131.529 779.293,-78.4708 828,-29 830.288,-26.6759 832.817,-24.6218 835.52,-22.8073"/>
<polygon fill="black" stroke="black" points="836.535,-24.2384 839.902,-20.1488 834.72,-21.2461 836.535,-24.2384"/>
</g>
<!-- paramtk.ListItemCtrlWidget -->
<g id="node37" class="node"><title>paramtk.ListItemCtrlWidget</title>
<polygon fill="none" stroke="black" stroke-width="0.5" points="976,-134.5 830,-134.5 830,-113.5 976,-113.5 976,-134.5"/>
<text text-anchor="middle" x="903" y="-121.5" font-family="Vera" font-size="10.00">paramtk.ListItemCtrlWidget</text>
</g>
<!-- Tkinter.Frame&#45;&gt;paramtk.ListItemCtrlWidget -->
<g id="edge30" class="edge"><title>Tkinter.Frame&#45;&gt;paramtk.ListItemCtrlWidget</title>
<path fill="none" stroke="black" stroke-width="0.5" d="M757.554,-194.106C769.205,-191.278 781.571,-187.114 792,-181 812.07,-169.234 807.93,-154.766 828,-143 832.702,-140.243 837.798,-137.883 843.044,-135.863"/>
<polygon fill="black" stroke="black" points="843.795,-137.453 847.898,-134.102 842.601,-134.162 843.795,-137.453"/>
</g>
<!-- paramtk.HackFileEntry -->
<g id="node39" class="node"><title>paramtk.HackFileEntry</title>
<polygon fill="none" stroke="black" stroke-width="0.5" points="965,-96.5 841,-96.5 841,-75.5 965,-75.5 965,-96.5"/>
<text text-anchor="middle" x="903" y="-83.5" font-family="Vera" font-size="10.00">paramtk.HackFileEntry</text>
</g>
<!-- Tkinter.Frame&#45;&gt;paramtk.HackFileEntry -->
<g id="edge32" class="edge"><title>Tkinter.Frame&#45;&gt;paramtk.HackFileEntry</title>
<path fill="none" stroke="black" stroke-width="0.5" d="M757.763,-196.351C769.816,-193.612 782.352,-188.935 792,-181 820.867,-157.259 799.133,-128.741 828,-105 830.996,-102.536 834.27,-100.387 837.721,-98.5117"/>
<polygon fill="black" stroke="black" points="838.83,-99.9145 842.528,-96.1212 837.272,-96.7806 838.83,-99.9145"/>
</g>
<!-- paramtk.TaggedSlider -->
<g id="node72" class="node"><title>paramtk.TaggedSlider</title>
<polygon fill="none" stroke="black" stroke-width="0.5" points="963,-286.5 843,-286.5 843,-265.5 963,-265.5 963,-286.5"/>
<text text-anchor="middle" x="903" y="-273.5" font-family="Vera" font-size="10.00">paramtk.TaggedSlider</text>
</g>
<!-- Tkinter.Frame&#45;&gt;paramtk.TaggedSlider -->
<g id="edge70" class="edge"><title>Tkinter.Frame&#45;&gt;paramtk.TaggedSlider</title>
<path fill="none" stroke="black" stroke-width="0.5" d="M757.554,-205.894C769.205,-208.722 781.571,-212.886 792,-219 812.07,-230.766 807.93,-245.234 828,-257 832.702,-259.757 837.798,-262.117 843.044,-264.137"/>
<polygon fill="black" stroke="black" points="842.601,-265.838 847.898,-265.898 843.795,-262.547 842.601,-265.838"/>
</g>
<!-- paramtk.ScrolledFrame -->
<g id="node82" class="node"><title>paramtk.ScrolledFrame</title>
<polygon fill="none" stroke="black" stroke-width="0.5" points="967,-248.5 839,-248.5 839,-227.5 967,-227.5 967,-248.5"/>
<text text-anchor="middle" x="903" y="-235.5" font-family="Vera" font-size="10.00">paramtk.ScrolledFrame</text>
</g>
<!-- Tkinter.Frame&#45;&gt;paramtk.ScrolledFrame -->
<g id="edge80" class="edge"><title>Tkinter.Frame&#45;&gt;paramtk.ScrolledFrame</title>
<path fill="none" stroke="black" stroke-width="0.5" d="M757.818,-208.339C784.607,-213.812 819.937,-221.03 849.036,-226.975"/>
<polygon fill="black" stroke="black" points="848.772,-228.707 854.021,-227.994 849.473,-225.278 848.772,-228.707"/>
</g>
<!-- Tkinter.Widget -->
<g id="node6" class="node"><title>Tkinter.Widget</title>
<polygon fill="none" stroke="black" stroke-width="0.5" points="565,-219.5 483,-219.5 483,-198.5 565,-198.5 565,-219.5"/>
<text text-anchor="middle" x="524" y="-206.5" font-family="Vera" font-size="10.00">Tkinter.Widget</text>
</g>
<!-- Tkinter.Widget&#45;&gt;Tkinter.Frame -->
<g id="edge4" class="edge"><title>Tkinter.Widget&#45;&gt;Tkinter.Frame</title>
<path fill="none" stroke="black" stroke-width="0.5" d="M565.878,-207.047C596.922,-205.599 639.212,-203.627 671.161,-202.138"/>
<polygon fill="black" stroke="black" points="671.284,-203.884 676.197,-201.903 671.121,-200.388 671.284,-203.884"/>
</g>
<!-- Tkinter.Menu -->
<g id="node26" class="node"><title>Tkinter.Menu</title>
<polygon fill="none" stroke="black" stroke-width="0.5" points="755,-172.5 679,-172.5 679,-151.5 755,-151.5 755,-172.5"/>
<text text-anchor="middle" x="717" y="-159.5" font-family="Vera" font-size="10.00">Tkinter.Menu</text>
</g>
<!-- Tkinter.Widget&#45;&gt;Tkinter.Menu -->
<g id="edge20" class="edge"><title>Tkinter.Widget&#45;&gt;Tkinter.Menu</title>
<path fill="none" stroke="black" stroke-width="0.5" d="M565.403,-198.917C597.155,-191.185 640.874,-180.539 673.206,-172.665"/>
<polygon fill="black" stroke="black" points="673.85,-174.309 678.293,-171.426 673.021,-170.909 673.85,-174.309"/>
</g>
<!-- paramtk.Balloon -->
<g id="node28" class="node"><title>paramtk.Balloon</title>
<polygon fill="none" stroke="black" stroke-width="0.5" points="764,-324.5 670,-324.5 670,-303.5 764,-303.5 764,-324.5"/>
<text text-anchor="middle" x="717" y="-311.5" font-family="Vera" font-size="10.00">paramtk.Balloon</text>
</g>
<!-- Tkinter.Widget&#45;&gt;paramtk.Balloon -->
<g id="edge22" class="edge"><title>Tkinter.Widget&#45;&gt;paramtk.Balloon</title>
<path fill="none" stroke="black" stroke-width="0.5" d="M534.792,-219.119C554.52,-237.073 598.402,-274.53 642,-295 648.915,-298.247 656.46,-300.989 664.012,-303.29"/>
<polygon fill="black" stroke="black" points="663.945,-305.093 669.235,-304.813 664.925,-301.733 663.945,-305.093"/>
</g>
<!-- paramtk.Scrodget -->
<g id="node41" class="node"><title>paramtk.Scrodget</title>
<polygon fill="none" stroke="black" stroke-width="0.5" points="769,-134.5 665,-134.5 665,-113.5 769,-113.5 769,-134.5"/>
<text text-anchor="middle" x="717" y="-121.5" font-family="Vera" font-size="10.00">paramtk.Scrodget</text>
</g>
<!-- Tkinter.Widget&#45;&gt;paramtk.Scrodget -->
<g id="edge36" class="edge"><title>Tkinter.Widget&#45;&gt;paramtk.Scrodget</title>
<path fill="none" stroke="black" stroke-width="0.5" d="M539.01,-198.899C560.828,-184.621 602.966,-158.547 642,-143 649.097,-140.173 656.743,-137.665 664.343,-135.472"/>
<polygon fill="black" stroke="black" points="665.246,-137.037 669.59,-134.005 664.303,-133.666 665.246,-137.037"/>
</g>
<!-- Tkinter.Button -->
<g id="node79" class="node"><title>Tkinter.Button</title>
<polygon fill="none" stroke="black" stroke-width="0.5" points="758,-286.5 676,-286.5 676,-265.5 758,-265.5 758,-286.5"/>
<text text-anchor="middle" x="717" y="-273.5" font-family="Vera" font-size="10.00">Tkinter.Button</text>
</g>
<!-- Tkinter.Widget&#45;&gt;Tkinter.Button -->
<g id="edge78" class="edge"><title>Tkinter.Widget&#45;&gt;Tkinter.Button</title>
<path fill="none" stroke="black" stroke-width="0.5" d="M546.276,-219.142C569.748,-229.571 607.959,-245.824 642,-257 651.129,-259.997 661.012,-262.803 670.515,-265.29"/>
<polygon fill="black" stroke="black" points="670.165,-267.007 675.443,-266.561 671.039,-263.618 670.165,-267.007"/>
</g>
<!-- paramtk.ListRepresenter -->
<g id="node8" class="node"><title>paramtk.ListRepresenter</title>
<polygon fill="none" stroke="black" stroke-width="0.5" points="784,-58.5 650,-58.5 650,-37.5 784,-37.5 784,-58.5"/>
<text text-anchor="middle" x="717" y="-45.5" font-family="Vera" font-size="10.00">paramtk.ListRepresenter</text>
</g>
<!-- paramtk.Representer -->
<g id="node9" class="node"><title>paramtk.Representer</title>
<polygon fill="none" stroke="black" stroke-width="0.5" points="583,-58.5 465,-58.5 465,-37.5 583,-37.5 583,-58.5"/>
<text text-anchor="middle" x="524" y="-45.5" font-family="Vera" font-size="10.00">paramtk.Representer</text>
</g>
<!-- paramtk.Representer&#45;&gt;paramtk.ListRepresenter -->
<g id="edge6" class="edge"><title>paramtk.Representer&#45;&gt;paramtk.ListRepresenter</title>
<path fill="none" stroke="black" stroke-width="0.5" d="M583.218,-48C602.627,-48 624.413,-48 644.678,-48"/>
<polygon fill="black" stroke="black" points="644.795,-49.7501 649.795,-48 644.795,-46.2501 644.795,-49.7501"/>
</g>
<!-- Tkinter.Misc -->
<g id="node15" class="node"><title>Tkinter.Misc</title>
<polygon fill="none" stroke="black" stroke-width="0.5" points="124,-305.5 52,-305.5 52,-284.5 124,-284.5 124,-305.5"/>
<text text-anchor="middle" x="88" y="-292.5" font-family="Vera" font-size="10.00">Tkinter.Misc</text>
</g>
<!-- Tkinter.BaseWidget -->
<g id="node62" class="node"><title>Tkinter.BaseWidget</title>
<polygon fill="none" stroke="black" stroke-width="0.5" points="362,-305.5 256,-305.5 256,-284.5 362,-284.5 362,-305.5"/>
<text text-anchor="middle" x="309" y="-292.5" font-family="Vera" font-size="10.00">Tkinter.BaseWidget</text>
</g>
<!-- Tkinter.Misc&#45;&gt;Tkinter.BaseWidget -->
<g id="edge52" class="edge"><title>Tkinter.Misc&#45;&gt;Tkinter.BaseWidget</title>
<path fill="none" stroke="black" stroke-width="0.5" d="M124.494,-295C158.637,-295 210.226,-295 250.18,-295"/>
<polygon fill="black" stroke="black" points="250.489,-296.75 255.489,-295 250.489,-293.25 250.489,-296.75"/>
</g>
<!-- paramtk.ProgressController -->
<g id="node17" class="node"><title>paramtk.ProgressController</title>
<polygon fill="none" stroke="black" stroke-width="0.5" points="791,-248.5 643,-248.5 643,-227.5 791,-227.5 791,-248.5"/>
<text text-anchor="middle" x="717" y="-235.5" font-family="Vera" font-size="10.00">paramtk.ProgressController</text>
</g>
<!-- paramtk.ProgressController&#45;&gt;paramtk.ProgressWindow -->
<g id="edge12" class="edge"><title>paramtk.ProgressController&#45;&gt;paramtk.ProgressWindow</title>
<path fill="none" stroke="black" stroke-width="0.5" d="M772.102,-248.102C779.045,-250.475 785.859,-253.399 792,-257 812.07,-268.766 807.93,-283.234 828,-295 832.702,-297.757 837.798,-300.117 843.044,-302.137"/>
<polygon fill="black" stroke="black" points="842.601,-303.838 847.898,-303.898 843.795,-300.547 842.601,-303.838"/>
</g>
<!-- param.parameterized.Parameterized -->
<g id="node20" class="node"><title>param.parameterized.Parameterized</title>
<polygon fill="none" stroke="black" stroke-width="0.5" points="406,-39.5 212,-39.5 212,-18.5 406,-18.5 406,-39.5"/>
<text text-anchor="middle" x="309" y="-26.5" font-family="Vera" font-size="10.00">param.parameterized.Parameterized</text>
</g>
<!-- param.parameterized.Parameterized&#45;&gt;paramtk.Representer -->
<g id="edge48" class="edge"><title>param.parameterized.Parameterized&#45;&gt;paramtk.Representer</title>
<path fill="none" stroke="black" stroke-width="0.5" d="M406.121,-37.5828C424.274,-39.187 442.826,-40.8265 459.679,-42.3158"/>
<polygon fill="black" stroke="black" points="459.718,-44.076 464.853,-42.773 460.026,-40.5896 459.718,-44.076"/>
</g>
<!-- paramtk.TkParameterizedBase -->
<g id="node51" class="node"><title>paramtk.TkParameterizedBase</title>
<polygon fill="none" stroke="black" stroke-width="0.5" points="606,-20.5 442,-20.5 442,0.5 606,0.5 606,-20.5"/>
<text text-anchor="middle" x="524" y="-7.5" font-family="Vera" font-size="10.00">paramtk.TkParameterizedBase</text>
</g>
<!-- param.parameterized.Parameterized&#45;&gt;paramtk.TkParameterizedBase -->
<g id="edge50" class="edge"><title>param.parameterized.Parameterized&#45;&gt;paramtk.TkParameterizedBase</title>
<path fill="none" stroke="black" stroke-width="0.5" d="M406.121,-20.4172C416.261,-19.5211 426.525,-18.6141 436.548,-17.7283"/>
<polygon fill="black" stroke="black" points="436.939,-19.4507 441.766,-17.2672 436.631,-15.9642 436.939,-19.4507"/>
</g>
<!-- paramtk.BoolTranslator -->
<g id="node21" class="node"><title>paramtk.BoolTranslator</title>
<polygon fill="none" stroke="black" stroke-width="0.5" points="588,-552.5 460,-552.5 460,-531.5 588,-531.5 588,-552.5"/>
<text text-anchor="middle" x="524" y="-539.5" font-family="Vera" font-size="10.00">paramtk.BoolTranslator</text>
</g>
<!-- paramtk.DoNothingTranslator -->
<g id="node22" class="node"><title>paramtk.DoNothingTranslator</title>
<polygon fill="none" stroke="black" stroke-width="0.5" points="388,-552.5 230,-552.5 230,-531.5 388,-531.5 388,-552.5"/>
<text text-anchor="middle" x="309" y="-539.5" font-family="Vera" font-size="10.00">paramtk.DoNothingTranslator</text>
</g>
<!-- paramtk.DoNothingTranslator&#45;&gt;paramtk.BoolTranslator -->
<g id="edge16" class="edge"><title>paramtk.DoNothingTranslator&#45;&gt;paramtk.BoolTranslator</title>
<path fill="none" stroke="black" stroke-width="0.5" d="M388.142,-542C409.979,-542 433.497,-542 454.728,-542"/>
<polygon fill="black" stroke="black" points="454.788,-543.75 459.788,-542 454.788,-540.25 454.788,-543.75"/>
</g>
<!-- paramtk.Translator -->
<g id="node24" class="node"><title>paramtk.Translator</title>
<polygon fill="none" stroke="black" stroke-width="0.5" points="141,-495.5 35,-495.5 35,-474.5 141,-474.5 141,-495.5"/>
<text text-anchor="middle" x="88" y="-482.5" font-family="Vera" font-size="10.00">paramtk.Translator</text>
</g>
<!-- paramtk.Translator&#45;&gt;paramtk.DoNothingTranslator -->
<g id="edge18" class="edge"><title>paramtk.Translator&#45;&gt;paramtk.DoNothingTranslator</title>
<path fill="none" stroke="black" stroke-width="0.5" d="M117.572,-495.012C142.543,-503.236 179.347,-514.822 212,-523 223.434,-525.864 235.715,-528.558 247.566,-530.969"/>
<polygon fill="black" stroke="black" points="247.368,-532.714 252.615,-531.984 248.058,-529.282 247.368,-532.714"/>
</g>
<!-- paramtk.String_ObjectTranslator -->
<g id="node48" class="node"><title>paramtk.String_ObjectTranslator</title>
<polygon fill="none" stroke="black" stroke-width="0.5" points="394,-514.5 224,-514.5 224,-493.5 394,-493.5 394,-514.5"/>
<text text-anchor="middle" x="309" y="-501.5" font-family="Vera" font-size="10.00">paramtk.String_ObjectTranslator</text>
</g>
<!-- paramtk.Translator&#45;&gt;paramtk.String_ObjectTranslator -->
<g id="edge40" class="edge"><title>paramtk.Translator&#45;&gt;paramtk.String_ObjectTranslator</title>
<path fill="none" stroke="black" stroke-width="0.5" d="M141.78,-489.624C164.778,-491.601 192.273,-493.965 218.261,-496.199"/>
<polygon fill="black" stroke="black" points="218.305,-497.959 223.437,-496.644 218.605,-494.472 218.305,-497.959"/>
</g>
<!-- paramtk.Eval_ReprTranslator -->
<g id="node76" class="node"><title>paramtk.Eval_ReprTranslator</title>
<polygon fill="none" stroke="black" stroke-width="0.5" points="385,-476.5 233,-476.5 233,-455.5 385,-455.5 385,-476.5"/>
<text text-anchor="middle" x="309" y="-463.5" font-family="Vera" font-size="10.00">paramtk.Eval_ReprTranslator</text>
</g>
<!-- paramtk.Translator&#45;&gt;paramtk.Eval_ReprTranslator -->
<g id="edge74" class="edge"><title>paramtk.Translator&#45;&gt;paramtk.Eval_ReprTranslator</title>
<path fill="none" stroke="black" stroke-width="0.5" d="M141.78,-480.376C167.52,-478.163 198.894,-475.466 227.482,-473.008"/>
<polygon fill="black" stroke="black" points="227.954,-474.724 232.786,-472.552 227.654,-471.237 227.954,-474.724"/>
</g>
<!-- paramtk.ListTranslator -->
<g id="node86" class="node"><title>paramtk.ListTranslator</title>
<polygon fill="none" stroke="black" stroke-width="0.5" points="370,-438.5 248,-438.5 248,-417.5 370,-417.5 370,-438.5"/>
<text text-anchor="middle" x="309" y="-425.5" font-family="Vera" font-size="10.00">paramtk.ListTranslator</text>
</g>
<!-- paramtk.Translator&#45;&gt;paramtk.ListTranslator -->
<g id="edge84" class="edge"><title>paramtk.Translator&#45;&gt;paramtk.ListTranslator</title>
<path fill="none" stroke="black" stroke-width="0.5" d="M117.572,-474.988C142.543,-466.764 179.347,-455.178 212,-447 223.434,-444.136 235.715,-441.442 247.566,-439.031"/>
<polygon fill="black" stroke="black" points="248.058,-440.718 252.615,-438.016 247.368,-437.286 248.058,-440.718"/>
</g>
<!-- paramtk.Menu -->
<g id="node57" class="node"><title>paramtk.Menu</title>
<polygon fill="none" stroke="black" stroke-width="0.5" points="946,-58.5 860,-58.5 860,-37.5 946,-37.5 946,-58.5"/>
<text text-anchor="middle" x="903" y="-45.5" font-family="Vera" font-size="10.00">paramtk.Menu</text>
</g>
<!-- Tkinter.Menu&#45;&gt;paramtk.Menu -->
<g id="edge46" class="edge"><title>Tkinter.Menu&#45;&gt;paramtk.Menu</title>
<path fill="none" stroke="black" stroke-width="0.5" d="M755.824,-158.776C768.459,-156.106 781.833,-151.361 792,-143 820.867,-119.259 799.133,-90.741 828,-67 835.686,-60.6789 845.205,-56.4252 854.852,-53.5716"/>
<polygon fill="black" stroke="black" points="855.531,-55.2007 859.899,-52.2035 854.615,-51.8226 855.531,-55.2007"/>
</g>
<!-- paramtk.Button -->
<g id="node74" class="node"><title>paramtk.Button</title>
<polygon fill="none" stroke="black" stroke-width="0.5" points="570,-400.5 478,-400.5 478,-379.5 570,-379.5 570,-400.5"/>
<text text-anchor="middle" x="524" y="-387.5" font-family="Vera" font-size="10.00">paramtk.Button</text>
</g>
<!-- param.Callable&#45;&gt;paramtk.Button -->
<g id="edge72" class="edge"><title>param.Callable&#45;&gt;paramtk.Button</title>
<path fill="none" stroke="black" stroke-width="0.5" d="M353.548,-390C388.132,-390 436.136,-390 472.391,-390"/>
<polygon fill="black" stroke="black" points="472.652,-391.75 477.652,-390 472.652,-388.25 472.652,-391.75"/>
</g>
<!-- paramtk.ParametersFrameWithApply -->
<g id="node34" class="node"><title>paramtk.ParametersFrameWithApply</title>
<polygon fill="none" stroke="black" stroke-width="0.5" points="1206,-20.5 1014,-20.5 1014,0.5 1206,0.5 1206,-20.5"/>
<text text-anchor="middle" x="1110" y="-7.5" font-family="Vera" font-size="10.00">paramtk.ParametersFrameWithApply</text>
</g>
<!-- paramtk.EditingParametersFrameWithApply -->
<g id="node46" class="node"><title>paramtk.EditingParametersFrameWithApply</title>
<polygon fill="none" stroke="black" stroke-width="0.5" points="1466,-20.5 1242,-20.5 1242,0.5 1466,0.5 1466,-20.5"/>
<text text-anchor="middle" x="1354" y="-7.5" font-family="Vera" font-size="10.00">paramtk.EditingParametersFrameWithApply</text>
</g>
<!-- paramtk.ParametersFrameWithApply&#45;&gt;paramtk.EditingParametersFrameWithApply -->
<g id="edge38" class="edge"><title>paramtk.ParametersFrameWithApply&#45;&gt;paramtk.EditingParametersFrameWithApply</title>
<path fill="none" stroke="black" stroke-width="0.5" d="M1206.09,-10C1216.17,-10 1226.5,-10 1236.79,-10"/>
<polygon fill="black" stroke="black" points="1236.84,-11.7501 1241.84,-10 1236.84,-8.2501 1236.84,-11.7501"/>
</g>
<!-- paramtk.ParametersFrame&#45;&gt;paramtk.ParametersFrameWithApply -->
<g id="edge28" class="edge"><title>paramtk.ParametersFrame&#45;&gt;paramtk.ParametersFrameWithApply</title>
<path fill="none" stroke="black" stroke-width="0.5" d="M976.272,-10C986.862,-10 997.915,-10 1008.93,-10"/>
<polygon fill="black" stroke="black" points="1008.99,-11.7501 1013.99,-10 1008.99,-8.2501 1008.99,-11.7501"/>
</g>
<!-- paramtk.ScrodgetWidget -->
<g id="node42" class="node"><title>paramtk.ScrodgetWidget</title>
<polygon fill="none" stroke="black" stroke-width="0.5" points="592,-134.5 456,-134.5 456,-113.5 592,-113.5 592,-134.5"/>
<text text-anchor="middle" x="524" y="-121.5" font-family="Vera" font-size="10.00">paramtk.ScrodgetWidget</text>
</g>
<!-- paramtk.ScrodgetWidget&#45;&gt;paramtk.Scrodget -->
<g id="edge34" class="edge"><title>paramtk.ScrodgetWidget&#45;&gt;paramtk.Scrodget</title>
<path fill="none" stroke="black" stroke-width="0.5" d="M592.045,-124C614.148,-124 638.44,-124 659.681,-124"/>
<polygon fill="black" stroke="black" points="659.728,-125.75 664.728,-124 659.728,-122.25 659.728,-125.75"/>
</g>
<!-- Tkinter.Wm -->
<g id="node45" class="node"><title>Tkinter.Wm</title>
<polygon fill="none" stroke="black" stroke-width="0.5" points="343,-362.5 275,-362.5 275,-341.5 343,-341.5 343,-362.5"/>
<text text-anchor="middle" x="309" y="-349.5" font-family="Vera" font-size="10.00">Tkinter.Wm</text>
</g>
<!-- Tkinter.Wm&#45;&gt;Tkinter.Toplevel -->
<g id="edge64" class="edge"><title>Tkinter.Wm&#45;&gt;Tkinter.Toplevel</title>
<path fill="none" stroke="black" stroke-width="0.5" d="M343.543,-352C378.874,-352 434.11,-352 474.169,-352"/>
<polygon fill="black" stroke="black" points="474.47,-353.75 479.47,-352 474.47,-350.25 474.47,-353.75"/>
</g>
<!-- paramtk.CSPTranslator -->
<g id="node84" class="node"><title>paramtk.CSPTranslator</title>
<polygon fill="none" stroke="black" stroke-width="0.5" points="587,-514.5 461,-514.5 461,-493.5 587,-493.5 587,-514.5"/>
<text text-anchor="middle" x="524" y="-501.5" font-family="Vera" font-size="10.00">paramtk.CSPTranslator</text>
</g>
<!-- paramtk.String_ObjectTranslator&#45;&gt;paramtk.CSPTranslator -->
<g id="edge82" class="edge"><title>paramtk.String_ObjectTranslator&#45;&gt;paramtk.CSPTranslator</title>
<path fill="none" stroke="black" stroke-width="0.5" d="M394.591,-504C414.822,-504 436.133,-504 455.493,-504"/>
<polygon fill="black" stroke="black" points="455.899,-505.75 460.899,-504 455.899,-502.25 455.899,-505.75"/>
</g>
<!-- paramtk.TkParameterized -->
<g id="node50" class="node"><title>paramtk.TkParameterized</title>
<polygon fill="none" stroke="black" stroke-width="0.5" points="787,-20.5 647,-20.5 647,0.5 787,0.5 787,-20.5"/>
<text text-anchor="middle" x="717" y="-7.5" font-family="Vera" font-size="10.00">paramtk.TkParameterized</text>
</g>
<!-- paramtk.TkParameterized&#45;&gt;paramtk.ParametersFrame -->
<g id="edge66" class="edge"><title>paramtk.TkParameterized&#45;&gt;paramtk.ParametersFrame</title>
<path fill="none" stroke="black" stroke-width="0.5" d="M787.054,-10C799.308,-10 812.13,-10 824.593,-10"/>
<polygon fill="black" stroke="black" points="824.909,-11.7501 829.909,-10 824.909,-8.25009 824.909,-11.7501"/>
</g>
<!-- paramtk.TkParameterizedBase&#45;&gt;paramtk.TkParameterized -->
<g id="edge42" class="edge"><title>paramtk.TkParameterizedBase&#45;&gt;paramtk.TkParameterized</title>
<path fill="none" stroke="black" stroke-width="0.5" d="M606.129,-10C617.873,-10 629.908,-10 641.516,-10"/>
<polygon fill="black" stroke="black" points="641.817,-11.7501 646.817,-10 641.817,-8.25009 641.817,-11.7501"/>
</g>
<!-- Tkinter.Pack -->
<g id="node53" class="node"><title>Tkinter.Pack</title>
<polygon fill="none" stroke="black" stroke-width="0.5" points="345,-257.5 273,-257.5 273,-236.5 345,-236.5 345,-257.5"/>
<text text-anchor="middle" x="309" y="-244.5" font-family="Vera" font-size="10.00">Tkinter.Pack</text>
</g>
<!-- Tkinter.Pack&#45;&gt;Tkinter.Widget -->
<g id="edge56" class="edge"><title>Tkinter.Pack&#45;&gt;Tkinter.Widget</title>
<path fill="none" stroke="black" stroke-width="0.5" d="M345.96,-240.468C382.269,-234.05 437.801,-224.235 477.179,-217.275"/>
<polygon fill="black" stroke="black" points="477.764,-218.949 482.383,-216.356 477.154,-215.503 477.764,-218.949"/>
</g>
<!-- Tkinter.Place -->
<g id="node56" class="node"><title>Tkinter.Place</title>
<polygon fill="none" stroke="black" stroke-width="0.5" points="347,-219.5 271,-219.5 271,-198.5 347,-198.5 347,-219.5"/>
<text text-anchor="middle" x="309" y="-206.5" font-family="Vera" font-size="10.00">Tkinter.Place</text>
</g>
<!-- Tkinter.Place&#45;&gt;Tkinter.Widget -->
<g id="edge58" class="edge"><title>Tkinter.Place&#45;&gt;Tkinter.Widget</title>
<path fill="none" stroke="black" stroke-width="0.5" d="M347.935,-209C384.299,-209 438.629,-209 477.308,-209"/>
<polygon fill="black" stroke="black" points="477.42,-210.75 482.42,-209 477.42,-207.25 477.42,-210.75"/>
</g>
<!-- Tkinter.Grid -->
<g id="node59" class="node"><title>Tkinter.Grid</title>
<polygon fill="none" stroke="black" stroke-width="0.5" points="344,-181.5 274,-181.5 274,-160.5 344,-160.5 344,-181.5"/>
<text text-anchor="middle" x="309" y="-168.5" font-family="Vera" font-size="10.00">Tkinter.Grid</text>
</g>
<!-- Tkinter.Grid&#45;&gt;Tkinter.Widget -->
<g id="edge60" class="edge"><title>Tkinter.Grid&#45;&gt;Tkinter.Widget</title>
<path fill="none" stroke="black" stroke-width="0.5" d="M344.503,-177.275C380.687,-183.67 437.012,-193.625 476.905,-200.676"/>
<polygon fill="black" stroke="black" points="476.947,-202.461 482.175,-201.608 477.556,-199.014 476.947,-202.461"/>
</g>
<!-- Tkinter.BaseWidget&#45;&gt;Tkinter.Toplevel -->
<g id="edge62" class="edge"><title>Tkinter.BaseWidget&#45;&gt;Tkinter.Toplevel</title>
<path fill="none" stroke="black" stroke-width="0.5" d="M346.943,-305.059C384.438,-315 441.72,-330.186 480.91,-340.576"/>
<polygon fill="black" stroke="black" points="480.794,-342.356 486.076,-341.946 481.691,-338.973 480.794,-342.356"/>
</g>
<!-- Tkinter.BaseWidget&#45;&gt;Tkinter.Widget -->
<g id="edge54" class="edge"><title>Tkinter.BaseWidget&#45;&gt;Tkinter.Widget</title>
<path fill="none" stroke="black" stroke-width="0.5" d="M347.714,-284.955C365.668,-279.909 387.156,-273.314 406,-266 440.001,-252.802 477.692,-233.781 501.117,-221.406"/>
<polygon fill="black" stroke="black" points="502.011,-222.913 505.607,-219.023 500.37,-219.821 502.011,-222.913"/>
</g>
<!-- paramtk.FocusTakingButton -->
<g id="node78" class="node"><title>paramtk.FocusTakingButton</title>
<polygon fill="none" stroke="black" stroke-width="0.5" points="977,-362.5 829,-362.5 829,-341.5 977,-341.5 977,-362.5"/>
<text text-anchor="middle" x="903" y="-349.5" font-family="Vera" font-size="10.00">paramtk.FocusTakingButton</text>
</g>
<!-- Tkinter.Button&#45;&gt;paramtk.FocusTakingButton -->
<g id="edge76" class="edge"><title>Tkinter.Button&#45;&gt;paramtk.FocusTakingButton</title>
<path fill="none" stroke="black" stroke-width="0.5" d="M758.721,-282.181C770.028,-285.002 781.919,-289.09 792,-295 812.07,-306.766 807.93,-321.234 828,-333 832.702,-335.757 837.798,-338.117 843.044,-340.137"/>
<polygon fill="black" stroke="black" points="842.601,-341.838 847.898,-341.898 843.795,-338.547 842.601,-341.838"/>
</g>
</g>
</svg>
