<?xml version="1.0" encoding="UTF-8" standalone="no"?>
<!DOCTYPE svg PUBLIC "-//W3C//DTD SVG 1.1//EN"
 "http://www.w3.org/Graphics/SVG/1.1/DTD/svg11.dtd">
<!-- Generated by graphviz version 2.26.3 (20100126.1600)
 -->
<!-- Title: inheritancef1ac05fc54 Pages: 1 -->
<svg width="834pt" height="294pt"
 viewBox="0.00 0.00 834.00 294.00" xmlns="http://www.w3.org/2000/svg" xmlns:xlink="http://www.w3.org/1999/xlink">
<g id="graph1" class="graph" transform="scale(1 1) rotate(0) translate(4 290)">
<title>inheritancef1ac05fc54</title>
<polygon fill="white" stroke="white" points="-4,5 -4,-290 831,-290 831,5 -4,5"/>
<!-- numbergen.BinaryOperator -->
<g id="node1" class="node"><title>numbergen.BinaryOperator</title>
<polygon fill="none" stroke="black" stroke-width="0.5" points="593,-191.5 445,-191.5 445,-170.5 593,-170.5 593,-191.5"/>
<text text-anchor="middle" x="519" y="-178.5" font-family="Vera" font-size="10.00">numbergen.BinaryOperator</text>
</g>
<!-- numbergen.NumberGenerator -->
<g id="node2" class="node"><title>numbergen.NumberGenerator</title>
<polygon fill="none" stroke="black" stroke-width="0.5" points="393,-96.5 231,-96.5 231,-75.5 393,-75.5 393,-96.5"/>
<text text-anchor="middle" x="312" y="-83.5" font-family="Vera" font-size="10.00">numbergen.NumberGenerator</text>
</g>
<!-- numbergen.NumberGenerator&#45;&gt;numbergen.BinaryOperator -->
<g id="edge2" class="edge"><title>numbergen.NumberGenerator&#45;&gt;numbergen.BinaryOperator</title>
<path fill="none" stroke="black" stroke-width="0.5" d="M324.245,-96.0626C344.795,-112.428 388.102,-144.716 430,-162 437.257,-164.994 445.05,-167.541 452.897,-169.703"/>
<polygon fill="black" stroke="black" points="452.504,-171.409 457.786,-170.999 453.402,-168.026 452.504,-171.409"/>
</g>
<!-- numbergen.RandomDistribution -->
<g id="node5" class="node"><title>numbergen.RandomDistribution</title>
<polygon fill="none" stroke="black" stroke-width="0.5" points="604,-153.5 434,-153.5 434,-132.5 604,-132.5 604,-153.5"/>
<text text-anchor="middle" x="519" y="-140.5" font-family="Vera" font-size="10.00">numbergen.RandomDistribution</text>
</g>
<!-- numbergen.NumberGenerator&#45;&gt;numbergen.RandomDistribution -->
<g id="edge10" class="edge"><title>numbergen.NumberGenerator&#45;&gt;numbergen.RandomDistribution</title>
<path fill="none" stroke="black" stroke-width="0.5" d="M348.531,-96.0592C384.631,-106 439.781,-121.186 477.513,-131.576"/>
<polygon fill="black" stroke="black" points="477.201,-133.305 482.487,-132.946 478.131,-129.931 477.201,-133.305"/>
</g>
<!-- numbergen.TimeDependentValue -->
<g id="node7" class="node"><title>numbergen.TimeDependentValue</title>
<polygon fill="none" stroke="black" stroke-width="0.5" points="608,-96.5 430,-96.5 430,-75.5 608,-75.5 608,-96.5"/>
<text text-anchor="middle" x="519" y="-83.5" font-family="Vera" font-size="10.00">numbergen.TimeDependentValue</text>
</g>
<!-- numbergen.NumberGenerator&#45;&gt;numbergen.TimeDependentValue -->
<g id="edge6" class="edge"><title>numbergen.NumberGenerator&#45;&gt;numbergen.TimeDependentValue</title>
<path fill="none" stroke="black" stroke-width="0.5" d="M393.515,-86C403.724,-86 414.232,-86 424.616,-86"/>
<polygon fill="black" stroke="black" points="424.703,-87.7501 429.703,-86 424.703,-84.2501 424.703,-87.7501"/>
</g>
<!-- numbergen.BoundedNumber -->
<g id="node20" class="node"><title>numbergen.BoundedNumber</title>
<polygon fill="none" stroke="black" stroke-width="0.5" points="597,-58.5 441,-58.5 441,-37.5 597,-37.5 597,-58.5"/>
<text text-anchor="middle" x="519" y="-45.5" font-family="Vera" font-size="10.00">numbergen.BoundedNumber</text>
</g>
<!-- numbergen.NumberGenerator&#45;&gt;numbergen.BoundedNumber -->
<g id="edge20" class="edge"><title>numbergen.NumberGenerator&#45;&gt;numbergen.BoundedNumber</title>
<path fill="none" stroke="black" stroke-width="0.5" d="M366.658,-75.9662C395.192,-70.7281 430.152,-64.3102 459.382,-58.9443"/>
<polygon fill="black" stroke="black" points="459.794,-60.6482 464.395,-58.024 459.162,-57.2057 459.794,-60.6482"/>
</g>
<!-- numbergen.UnaryOperator -->
<g id="node24" class="node"><title>numbergen.UnaryOperator</title>
<polygon fill="none" stroke="black" stroke-width="0.5" points="592,-20.5 446,-20.5 446,0.5 592,0.5 592,-20.5"/>
<text text-anchor="middle" x="519" y="-7.5" font-family="Vera" font-size="10.00">numbergen.UnaryOperator</text>
</g>
<!-- numbergen.NumberGenerator&#45;&gt;numbergen.UnaryOperator -->
<g id="edge24" class="edge"><title>numbergen.NumberGenerator&#45;&gt;numbergen.UnaryOperator</title>
<path fill="none" stroke="black" stroke-width="0.5" d="M329.427,-75.934C351.968,-63.3049 392.767,-41.7601 430,-29 438.575,-26.0612 447.777,-23.4853 456.894,-21.2572"/>
<polygon fill="black" stroke="black" points="457.487,-22.9151 461.946,-20.0551 456.677,-19.5102 457.487,-22.9151"/>
</g>
<!-- numbergen.UniformRandom -->
<g id="node4" class="node"><title>numbergen.UniformRandom</title>
<polygon fill="none" stroke="black" stroke-width="0.5" points="811,-286.5 659,-286.5 659,-265.5 811,-265.5 811,-286.5"/>
<text text-anchor="middle" x="735" y="-273.5" font-family="Vera" font-size="10.00">numbergen.UniformRandom</text>
</g>
<!-- numbergen.RandomDistribution&#45;&gt;numbergen.UniformRandom -->
<g id="edge4" class="edge"><title>numbergen.RandomDistribution&#45;&gt;numbergen.UniformRandom</title>
<path fill="none" stroke="black" stroke-width="0.5" d="M594.512,-153.189C599.361,-155.596 603.924,-158.501 608,-162 642.258,-191.413 609.676,-227.664 644,-257 646.952,-259.523 650.153,-261.74 653.531,-263.685"/>
<polygon fill="black" stroke="black" points="653,-265.384 658.238,-266.174 654.636,-262.29 653,-265.384"/>
</g>
<!-- numbergen.Choice -->
<g id="node9" class="node"><title>numbergen.Choice</title>
<polygon fill="none" stroke="black" stroke-width="0.5" points="788,-248.5 682,-248.5 682,-227.5 788,-227.5 788,-248.5"/>
<text text-anchor="middle" x="735" y="-235.5" font-family="Vera" font-size="10.00">numbergen.Choice</text>
</g>
<!-- numbergen.RandomDistribution&#45;&gt;numbergen.Choice -->
<g id="edge8" class="edge"><title>numbergen.RandomDistribution&#45;&gt;numbergen.Choice</title>
<path fill="none" stroke="black" stroke-width="0.5" d="M591.089,-153.033C597.079,-155.436 602.816,-158.385 608,-162 632.578,-179.138 619.384,-201.917 644,-219 653.514,-225.602 664.843,-229.996 676.222,-232.901"/>
<polygon fill="black" stroke="black" points="675.828,-234.606 681.097,-234.056 676.636,-231.2 675.828,-234.606"/>
</g>
<!-- numbergen.VonMisesRandom -->
<g id="node13" class="node"><title>numbergen.VonMisesRandom</title>
<polygon fill="none" stroke="black" stroke-width="0.5" points="815,-210.5 655,-210.5 655,-189.5 815,-189.5 815,-210.5"/>
<text text-anchor="middle" x="735" y="-197.5" font-family="Vera" font-size="10.00">numbergen.VonMisesRandom</text>
</g>
<!-- numbergen.RandomDistribution&#45;&gt;numbergen.VonMisesRandom -->
<g id="edge12" class="edge"><title>numbergen.RandomDistribution&#45;&gt;numbergen.VonMisesRandom</title>
<path fill="none" stroke="black" stroke-width="0.5" d="M577.578,-153.099C587.856,-155.55 598.346,-158.498 608,-162 625.007,-168.169 626.979,-174.869 644,-181 652.328,-184 661.264,-186.586 670.165,-188.799"/>
<polygon fill="black" stroke="black" points="669.832,-190.518 675.103,-189.99 670.653,-187.116 669.832,-190.518"/>
</g>
<!-- numbergen.UniformRandomInt -->
<g id="node17" class="node"><title>numbergen.UniformRandomInt</title>
<polygon fill="none" stroke="black" stroke-width="0.5" points="817,-172.5 653,-172.5 653,-151.5 817,-151.5 817,-172.5"/>
<text text-anchor="middle" x="735" y="-159.5" font-family="Vera" font-size="10.00">numbergen.UniformRandomInt</text>
</g>
<!-- numbergen.RandomDistribution&#45;&gt;numbergen.UniformRandomInt -->
<g id="edge16" class="edge"><title>numbergen.RandomDistribution&#45;&gt;numbergen.UniformRandomInt</title>
<path fill="none" stroke="black" stroke-width="0.5" d="M604.059,-150.482C618.253,-151.731 633.002,-153.028 647.262,-154.282"/>
<polygon fill="black" stroke="black" points="647.357,-156.047 652.492,-154.742 647.664,-152.561 647.357,-156.047"/>
</g>
<!-- numbergen.NormalRandom -->
<g id="node26" class="node"><title>numbergen.NormalRandom</title>
<polygon fill="none" stroke="black" stroke-width="0.5" points="810,-134.5 660,-134.5 660,-113.5 810,-113.5 810,-134.5"/>
<text text-anchor="middle" x="735" y="-121.5" font-family="Vera" font-size="10.00">numbergen.NormalRandom</text>
</g>
<!-- numbergen.RandomDistribution&#45;&gt;numbergen.NormalRandom -->
<g id="edge26" class="edge"><title>numbergen.RandomDistribution&#45;&gt;numbergen.NormalRandom</title>
<path fill="none" stroke="black" stroke-width="0.5" d="M604.059,-135.518C620.749,-134.05 638.206,-132.514 654.733,-131.061"/>
<polygon fill="black" stroke="black" points="655.003,-132.794 659.83,-130.612 654.696,-129.307 655.003,-132.794"/>
</g>
<!-- numbergen.UniformRandomOffset -->
<g id="node28" class="node"><title>numbergen.UniformRandomOffset</title>
<polygon fill="none" stroke="black" stroke-width="0.5" points="826,-96.5 644,-96.5 644,-75.5 826,-75.5 826,-96.5"/>
<text text-anchor="middle" x="735" y="-83.5" font-family="Vera" font-size="10.00">numbergen.UniformRandomOffset</text>
</g>
<!-- numbergen.RandomDistribution&#45;&gt;numbergen.UniformRandomOffset -->
<g id="edge28" class="edge"><title>numbergen.RandomDistribution&#45;&gt;numbergen.UniformRandomOffset</title>
<path fill="none" stroke="black" stroke-width="0.5" d="M549.351,-132.942C574.533,-124.798 611.368,-113.349 644,-105 654.847,-102.225 666.498,-99.5583 677.721,-97.1455"/>
<polygon fill="black" stroke="black" points="678.317,-98.808 682.843,-96.0553 677.588,-95.3847 678.317,-98.808"/>
</g>
<!-- numbergen.ExponentialDecay -->
<g id="node15" class="node"><title>numbergen.ExponentialDecay</title>
<polygon fill="none" stroke="black" stroke-width="0.5" points="815,-58.5 655,-58.5 655,-37.5 815,-37.5 815,-58.5"/>
<text text-anchor="middle" x="735" y="-45.5" font-family="Vera" font-size="10.00">numbergen.ExponentialDecay</text>
</g>
<!-- numbergen.TimeDependentValue&#45;&gt;numbergen.ExponentialDecay -->
<g id="edge14" class="edge"><title>numbergen.TimeDependentValue&#45;&gt;numbergen.ExponentialDecay</title>
<path fill="none" stroke="black" stroke-width="0.5" d="M576.034,-75.9662C605.809,-70.7281 642.289,-64.3102 672.79,-58.9443"/>
<polygon fill="black" stroke="black" points="673.4,-60.614 678.021,-58.024 672.794,-57.1669 673.4,-60.614"/>
</g>
<!-- numbergen.BoxCar -->
<g id="node22" class="node"><title>numbergen.BoxCar</title>
<polygon fill="none" stroke="black" stroke-width="0.5" points="790,-20.5 680,-20.5 680,0.5 790,0.5 790,-20.5"/>
<text text-anchor="middle" x="735" y="-7.5" font-family="Vera" font-size="10.00">numbergen.BoxCar</text>
</g>
<!-- numbergen.TimeDependentValue&#45;&gt;numbergen.BoxCar -->
<g id="edge22" class="edge"><title>numbergen.TimeDependentValue&#45;&gt;numbergen.BoxCar</title>
<path fill="none" stroke="black" stroke-width="0.5" d="M587.153,-75.9525C594.426,-73.5741 601.524,-70.634 608,-67 628.288,-55.615 623.686,-40.3394 644,-29 653.41,-23.7472 664.102,-19.942 674.768,-17.1866"/>
<polygon fill="black" stroke="black" points="675.218,-18.878 679.661,-15.993 674.389,-15.4777 675.218,-18.878"/>
</g>
<!-- param.parameterized.Parameterized -->
<g id="node11" class="node"><title>param.parameterized.Parameterized</title>
<polygon fill="none" stroke="black" stroke-width="0.5" points="194,-96.5 5.68434e-14,-96.5 0,-75.5 194,-75.5 194,-96.5"/>
<text text-anchor="middle" x="97" y="-83.5" font-family="Vera" font-size="10.00">param.parameterized.Parameterized</text>
</g>
<!-- param.parameterized.Parameterized&#45;&gt;numbergen.NumberGenerator -->
<g id="edge18" class="edge"><title>param.parameterized.Parameterized&#45;&gt;numbergen.NumberGenerator</title>
<path fill="none" stroke="black" stroke-width="0.5" d="M194.121,-86C204.545,-86 215.101,-86 225.391,-86"/>
<polygon fill="black" stroke="black" points="225.419,-87.7501 230.419,-86 225.419,-84.2501 225.419,-87.7501"/>
</g>
</g>
</svg>
