<?xml version="1.0" encoding="UTF-8" standalone="no"?>
<!DOCTYPE svg PUBLIC "-//W3C//DTD SVG 1.1//EN"
 "http://www.w3.org/Graphics/SVG/1.1/DTD/svg11.dtd">
<!-- Generated by graphviz version 2.26.3 (20100126.1600)
 -->
<!-- Title: inheritance489beebb75 Pages: 1 -->
<svg width="796pt" height="560pt"
 viewBox="0.00 0.00 796.00 560.00" xmlns="http://www.w3.org/2000/svg" xmlns:xlink="http://www.w3.org/1999/xlink">
<g id="graph1" class="graph" transform="scale(1 1) rotate(0) translate(4 556)">
<title>inheritance489beebb75</title>
<polygon fill="white" stroke="white" points="-4,5 -4,-556 793,-556 793,5 -4,5"/>
<!-- paramtk.tilewrapper.Checkbutton -->
<g id="node1" class="node"><title>paramtk.tilewrapper.Checkbutton</title>
<polygon fill="none" stroke="black" stroke-width="0.5" points="788,-438.5 612,-438.5 612,-417.5 788,-417.5 788,-438.5"/>
<text text-anchor="middle" x="700" y="-425.5" font-family="Vera" font-size="10.00">paramtk.tilewrapper.Checkbutton</text>
</g>
<!-- paramtk.tilewrapper.Widget -->
<g id="node2" class="node"><title>paramtk.tilewrapper.Widget</title>
<polygon fill="none" stroke="black" stroke-width="0.5" points="575,-267.5 429,-267.5 429,-246.5 575,-246.5 575,-267.5"/>
<text text-anchor="middle" x="502" y="-254.5" font-family="Vera" font-size="10.00">paramtk.tilewrapper.Widget</text>
</g>
<!-- paramtk.tilewrapper.Widget&#45;&gt;paramtk.tilewrapper.Checkbutton -->
<g id="edge2" class="edge"><title>paramtk.tilewrapper.Widget&#45;&gt;paramtk.tilewrapper.Checkbutton</title>
<path fill="none" stroke="black" stroke-width="0.5" d="M514.014,-267.062C529.783,-280.737 557.611,-306.533 576,-333 597.326,-363.694 582.717,-385.775 612,-409 615.115,-411.471 618.48,-413.638 622.014,-415.538"/>
<polygon fill="black" stroke="black" points="621.673,-417.321 626.931,-417.966 623.223,-414.183 621.673,-417.321"/>
</g>
<!-- paramtk.tilewrapper.Combobox -->
<g id="node8" class="node"><title>paramtk.tilewrapper.Combobox</title>
<polygon fill="none" stroke="black" stroke-width="0.5" points="783,-552.5 617,-552.5 617,-531.5 783,-531.5 783,-552.5"/>
<text text-anchor="middle" x="700" y="-539.5" font-family="Vera" font-size="10.00">paramtk.tilewrapper.Combobox</text>
</g>
<!-- paramtk.tilewrapper.Widget&#45;&gt;paramtk.tilewrapper.Combobox -->
<g id="edge8" class="edge"><title>paramtk.tilewrapper.Widget&#45;&gt;paramtk.tilewrapper.Combobox</title>
<path fill="none" stroke="black" stroke-width="0.5" d="M515.952,-267.102C533.003,-280.251 561.383,-304.899 576,-333 615.663,-409.248 552.003,-461.46 612,-523 614.114,-525.168 616.412,-527.117 618.854,-528.868"/>
<polygon fill="black" stroke="black" points="618.249,-530.56 623.397,-531.808 620.151,-527.622 618.249,-530.56"/>
</g>
<!-- paramtk.tilewrapper.Entry -->
<g id="node12" class="node"><title>paramtk.tilewrapper.Entry</title>
<polygon fill="none" stroke="black" stroke-width="0.5" points="770,-514.5 630,-514.5 630,-493.5 770,-493.5 770,-514.5"/>
<text text-anchor="middle" x="700" y="-501.5" font-family="Vera" font-size="10.00">paramtk.tilewrapper.Entry</text>
</g>
<!-- paramtk.tilewrapper.Widget&#45;&gt;paramtk.tilewrapper.Entry -->
<g id="edge12" class="edge"><title>paramtk.tilewrapper.Widget&#45;&gt;paramtk.tilewrapper.Entry</title>
<path fill="none" stroke="black" stroke-width="0.5" d="M515.748,-267.211C532.587,-280.473 560.75,-305.237 576,-333 609.425,-393.849 562.423,-436.401 612,-485 615.931,-488.853 620.446,-492.006 625.31,-494.578"/>
<polygon fill="black" stroke="black" points="624.604,-496.181 629.868,-496.78 626.127,-493.029 624.604,-496.181"/>
</g>
<!-- paramtk.tilewrapper.LabelFrame -->
<g id="node25" class="node"><title>paramtk.tilewrapper.LabelFrame</title>
<polygon fill="none" stroke="black" stroke-width="0.5" points="785,-248.5 615,-248.5 615,-227.5 785,-227.5 785,-248.5"/>
<text text-anchor="middle" x="700" y="-235.5" font-family="Vera" font-size="10.00">paramtk.tilewrapper.LabelFrame</text>
</g>
<!-- paramtk.tilewrapper.Widget&#45;&gt;paramtk.tilewrapper.LabelFrame -->
<g id="edge26" class="edge"><title>paramtk.tilewrapper.Widget&#45;&gt;paramtk.tilewrapper.LabelFrame</title>
<path fill="none" stroke="black" stroke-width="0.5" d="M575.728,-249.925C586.788,-248.864 598.299,-247.759 609.657,-246.669"/>
<polygon fill="black" stroke="black" points="610.053,-248.389 614.863,-246.17 609.719,-244.905 610.053,-248.389"/>
</g>
<!-- paramtk.tilewrapper.Menubutton -->
<g id="node29" class="node"><title>paramtk.tilewrapper.Menubutton</title>
<polygon fill="none" stroke="black" stroke-width="0.5" points="786,-172.5 614,-172.5 614,-151.5 786,-151.5 786,-172.5"/>
<text text-anchor="middle" x="700" y="-159.5" font-family="Vera" font-size="10.00">paramtk.tilewrapper.Menubutton</text>
</g>
<!-- paramtk.tilewrapper.Widget&#45;&gt;paramtk.tilewrapper.Menubutton -->
<g id="edge30" class="edge"><title>paramtk.tilewrapper.Widget&#45;&gt;paramtk.tilewrapper.Menubutton</title>
<path fill="none" stroke="black" stroke-width="0.5" d="M526.531,-246.94C541.55,-240.182 560.748,-230.437 576,-219 594.613,-205.043 591.725,-192.409 612,-181 616.902,-178.242 622.164,-175.884 627.589,-173.868"/>
<polygon fill="black" stroke="black" points="628.469,-175.414 632.611,-172.111 627.313,-172.11 628.469,-175.414"/>
</g>
<!-- paramtk.tilewrapper.Notebook -->
<g id="node33" class="node"><title>paramtk.tilewrapper.Notebook</title>
<polygon fill="none" stroke="black" stroke-width="0.5" points="780,-400.5 620,-400.5 620,-379.5 780,-379.5 780,-400.5"/>
<text text-anchor="middle" x="700" y="-387.5" font-family="Vera" font-size="10.00">paramtk.tilewrapper.Notebook</text>
</g>
<!-- paramtk.tilewrapper.Widget&#45;&gt;paramtk.tilewrapper.Notebook -->
<g id="edge34" class="edge"><title>paramtk.tilewrapper.Widget&#45;&gt;paramtk.tilewrapper.Notebook</title>
<path fill="none" stroke="black" stroke-width="0.5" d="M512.099,-267.282C526.387,-281.85 553.293,-309.358 576,-333 592.115,-349.779 591.725,-359.591 612,-371 616.902,-373.758 622.164,-376.116 627.589,-378.132"/>
<polygon fill="black" stroke="black" points="627.313,-379.89 632.611,-379.889 628.469,-376.586 627.313,-379.89"/>
</g>
<!-- paramtk.tilewrapper.Paned -->
<g id="node37" class="node"><title>paramtk.tilewrapper.Paned</title>
<polygon fill="none" stroke="black" stroke-width="0.5" points="772,-362.5 628,-362.5 628,-341.5 772,-341.5 772,-362.5"/>
<text text-anchor="middle" x="700" y="-349.5" font-family="Vera" font-size="10.00">paramtk.tilewrapper.Paned</text>
</g>
<!-- paramtk.tilewrapper.Widget&#45;&gt;paramtk.tilewrapper.Paned -->
<g id="edge40" class="edge"><title>paramtk.tilewrapper.Widget&#45;&gt;paramtk.tilewrapper.Paned</title>
<path fill="none" stroke="black" stroke-width="0.5" d="M513.289,-267.092C532.265,-283.498 572.38,-315.845 612,-333 618.759,-335.927 626.012,-338.42 633.347,-340.54"/>
<polygon fill="black" stroke="black" points="633.148,-342.3 638.434,-341.948 634.082,-338.927 633.148,-342.3"/>
</g>
<!-- paramtk.tilewrapper.Progressbar -->
<g id="node41" class="node"><title>paramtk.tilewrapper.Progressbar</title>
<polygon fill="none" stroke="black" stroke-width="0.5" points="786,-324.5 614,-324.5 614,-303.5 786,-303.5 786,-324.5"/>
<text text-anchor="middle" x="700" y="-311.5" font-family="Vera" font-size="10.00">paramtk.tilewrapper.Progressbar</text>
</g>
<!-- paramtk.tilewrapper.Widget&#45;&gt;paramtk.tilewrapper.Progressbar -->
<g id="edge44" class="edge"><title>paramtk.tilewrapper.Widget&#45;&gt;paramtk.tilewrapper.Progressbar</title>
<path fill="none" stroke="black" stroke-width="0.5" d="M528.391,-267.118C550.5,-275.351 583.007,-286.894 612,-295 622.09,-297.821 632.929,-300.467 643.434,-302.837"/>
<polygon fill="black" stroke="black" points="643.298,-304.6 648.559,-303.978 644.059,-301.183 643.298,-304.6"/>
</g>
<!-- paramtk.tilewrapper.Radiobutton -->
<g id="node45" class="node"><title>paramtk.tilewrapper.Radiobutton</title>
<polygon fill="none" stroke="black" stroke-width="0.5" points="786,-134.5 614,-134.5 614,-113.5 786,-113.5 786,-134.5"/>
<text text-anchor="middle" x="700" y="-121.5" font-family="Vera" font-size="10.00">paramtk.tilewrapper.Radiobutton</text>
</g>
<!-- paramtk.tilewrapper.Widget&#45;&gt;paramtk.tilewrapper.Radiobutton -->
<g id="edge48" class="edge"><title>paramtk.tilewrapper.Widget&#45;&gt;paramtk.tilewrapper.Radiobutton</title>
<path fill="none" stroke="black" stroke-width="0.5" d="M531.89,-246.916C546.646,-240.729 563.843,-231.553 576,-219 602.002,-192.152 582.717,-166.225 612,-143 615.115,-140.529 618.48,-138.362 622.014,-136.462"/>
<polygon fill="black" stroke="black" points="623.223,-137.817 626.931,-134.034 621.673,-134.679 623.223,-137.817"/>
</g>
<!-- paramtk.tilewrapper.Scrollbar -->
<g id="node48" class="node"><title>paramtk.tilewrapper.Scrollbar</title>
<polygon fill="none" stroke="black" stroke-width="0.5" points="778,-96.5 622,-96.5 622,-75.5 778,-75.5 778,-96.5"/>
<text text-anchor="middle" x="700" y="-83.5" font-family="Vera" font-size="10.00">paramtk.tilewrapper.Scrollbar</text>
</g>
<!-- paramtk.tilewrapper.Widget&#45;&gt;paramtk.tilewrapper.Scrollbar -->
<g id="edge52" class="edge"><title>paramtk.tilewrapper.Widget&#45;&gt;paramtk.tilewrapper.Scrollbar</title>
<path fill="none" stroke="black" stroke-width="0.5" d="M534.117,-246.976C548.706,-240.958 565.1,-231.911 576,-219 610.275,-178.401 572.719,-140.779 612,-105 614.578,-102.652 617.375,-100.568 620.334,-98.7216"/>
<polygon fill="black" stroke="black" points="621.624,-100.001 625.108,-96.0104 619.896,-96.958 621.624,-100.001"/>
</g>
<!-- paramtk.tilewrapper.Separator -->
<g id="node51" class="node"><title>paramtk.tilewrapper.Separator</title>
<polygon fill="none" stroke="black" stroke-width="0.5" points="781,-286.5 619,-286.5 619,-265.5 781,-265.5 781,-286.5"/>
<text text-anchor="middle" x="700" y="-273.5" font-family="Vera" font-size="10.00">paramtk.tilewrapper.Separator</text>
</g>
<!-- paramtk.tilewrapper.Widget&#45;&gt;paramtk.tilewrapper.Separator -->
<g id="edge56" class="edge"><title>paramtk.tilewrapper.Widget&#45;&gt;paramtk.tilewrapper.Separator</title>
<path fill="none" stroke="black" stroke-width="0.5" d="M575.728,-264.075C587.85,-265.238 600.514,-266.453 612.924,-267.644"/>
<polygon fill="black" stroke="black" points="613.08,-269.417 618.224,-268.153 613.414,-265.933 613.08,-269.417"/>
</g>
<!-- paramtk.tilewrapper.Treeview -->
<g id="node54" class="node"><title>paramtk.tilewrapper.Treeview</title>
<polygon fill="none" stroke="black" stroke-width="0.5" points="777,-476.5 623,-476.5 623,-455.5 777,-455.5 777,-476.5"/>
<text text-anchor="middle" x="700" y="-463.5" font-family="Vera" font-size="10.00">paramtk.tilewrapper.Treeview</text>
</g>
<!-- paramtk.tilewrapper.Widget&#45;&gt;paramtk.tilewrapper.Treeview -->
<g id="edge58" class="edge"><title>paramtk.tilewrapper.Widget&#45;&gt;paramtk.tilewrapper.Treeview</title>
<path fill="none" stroke="black" stroke-width="0.5" d="M515.135,-267.164C531.602,-280.562 559.648,-305.657 576,-333 603.271,-378.601 572.719,-411.221 612,-447 614.578,-449.348 617.375,-451.432 620.334,-453.278"/>
<polygon fill="black" stroke="black" points="619.896,-455.042 625.108,-455.99 621.624,-451.999 619.896,-455.042"/>
</g>
<!-- paramtk.tilewrapper.Button -->
<g id="node71" class="node"><title>paramtk.tilewrapper.Button</title>
<polygon fill="none" stroke="black" stroke-width="0.5" points="773,-58.5 627,-58.5 627,-37.5 773,-37.5 773,-58.5"/>
<text text-anchor="middle" x="700" y="-45.5" font-family="Vera" font-size="10.00">paramtk.tilewrapper.Button</text>
</g>
<!-- paramtk.tilewrapper.Widget&#45;&gt;paramtk.tilewrapper.Button -->
<g id="edge80" class="edge"><title>paramtk.tilewrapper.Widget&#45;&gt;paramtk.tilewrapper.Button</title>
<path fill="none" stroke="black" stroke-width="0.5" d="M535.675,-246.859C550.063,-240.914 565.848,-231.961 576,-219 618.81,-164.346 562.423,-115.599 612,-67 615.048,-64.0116 618.448,-61.4447 622.089,-59.2432"/>
<polygon fill="black" stroke="black" points="622.938,-60.7735 626.468,-56.8233 621.246,-57.7101 622.938,-60.7735"/>
</g>
<!-- paramtk.tilewrapper.Label -->
<g id="node74" class="node"><title>paramtk.tilewrapper.Label</title>
<polygon fill="none" stroke="black" stroke-width="0.5" points="770,-210.5 630,-210.5 630,-189.5 770,-189.5 770,-210.5"/>
<text text-anchor="middle" x="700" y="-197.5" font-family="Vera" font-size="10.00">paramtk.tilewrapper.Label</text>
</g>
<!-- paramtk.tilewrapper.Widget&#45;&gt;paramtk.tilewrapper.Label -->
<g id="edge84" class="edge"><title>paramtk.tilewrapper.Widget&#45;&gt;paramtk.tilewrapper.Label</title>
<path fill="none" stroke="black" stroke-width="0.5" d="M528.391,-246.882C550.5,-238.649 583.007,-227.106 612,-219 622.09,-216.179 632.929,-213.533 643.434,-211.163"/>
<polygon fill="black" stroke="black" points="644.059,-212.817 648.559,-210.022 643.298,-209.4 644.059,-212.817"/>
</g>
<!-- paramtk.tilewrapper.Frame -->
<g id="node77" class="node"><title>paramtk.tilewrapper.Frame</title>
<polygon fill="none" stroke="black" stroke-width="0.5" points="772,-20.5 628,-20.5 628,0.5 772,0.5 772,-20.5"/>
<text text-anchor="middle" x="700" y="-7.5" font-family="Vera" font-size="10.00">paramtk.tilewrapper.Frame</text>
</g>
<!-- paramtk.tilewrapper.Widget&#45;&gt;paramtk.tilewrapper.Frame -->
<g id="edge88" class="edge"><title>paramtk.tilewrapper.Widget&#45;&gt;paramtk.tilewrapper.Frame</title>
<path fill="none" stroke="black" stroke-width="0.5" d="M536.329,-246.912C550.667,-241.008 566.23,-232.072 576,-219 627.453,-150.156 552.003,-90.5402 612,-29 615.137,-25.7825 618.679,-23.048 622.496,-20.7287"/>
<polygon fill="black" stroke="black" points="623.562,-22.1395 627.095,-18.1926 621.871,-19.0746 623.562,-22.1395"/>
</g>
<!-- Tkinter.Checkbutton -->
<g id="node4" class="node"><title>Tkinter.Checkbutton</title>
<polygon fill="none" stroke="black" stroke-width="0.5" points="558,-362.5 446,-362.5 446,-341.5 558,-341.5 558,-362.5"/>
<text text-anchor="middle" x="502" y="-349.5" font-family="Vera" font-size="10.00">Tkinter.Checkbutton</text>
</g>
<!-- Tkinter.Checkbutton&#45;&gt;paramtk.tilewrapper.Checkbutton -->
<g id="edge4" class="edge"><title>Tkinter.Checkbutton&#45;&gt;paramtk.tilewrapper.Checkbutton</title>
<path fill="none" stroke="black" stroke-width="0.5" d="M518.15,-362.117C539.061,-374.801 576.987,-396.403 612,-409 620.038,-411.892 628.655,-414.415 637.238,-416.595"/>
<polygon fill="black" stroke="black" points="637.298,-418.412 642.572,-417.909 638.135,-415.014 637.298,-418.412"/>
</g>
<!-- Tkinter.Widget -->
<g id="node6" class="node"><title>Tkinter.Widget</title>
<polygon fill="none" stroke="black" stroke-width="0.5" points="363,-191.5 281,-191.5 281,-170.5 363,-170.5 363,-191.5"/>
<text text-anchor="middle" x="322" y="-178.5" font-family="Vera" font-size="10.00">Tkinter.Widget</text>
</g>
<!-- Tkinter.Widget&#45;&gt;paramtk.tilewrapper.Widget -->
<g id="edge76" class="edge"><title>Tkinter.Widget&#45;&gt;paramtk.tilewrapper.Widget</title>
<path fill="none" stroke="black" stroke-width="0.5" d="M345.903,-191.092C378.807,-204.985 437.983,-229.971 473.26,-244.865"/>
<polygon fill="black" stroke="black" points="472.998,-246.654 478.285,-246.987 474.36,-243.43 472.998,-246.654"/>
</g>
<!-- Tkinter.Widget&#45;&gt;Tkinter.Checkbutton -->
<g id="edge6" class="edge"><title>Tkinter.Widget&#45;&gt;Tkinter.Checkbutton</title>
<path fill="none" stroke="black" stroke-width="0.5" d="M335.323,-191.021C349.729,-202.043 373.157,-220.52 392,-238 409.056,-253.822 411.885,-259.221 428,-276 448.933,-297.795 473.434,-322.875 488.329,-338.074"/>
<polygon fill="black" stroke="black" points="487.151,-339.372 491.901,-341.718 489.65,-336.922 487.151,-339.372"/>
</g>
<!-- Tkinter.Entry -->
<g id="node10" class="node"><title>Tkinter.Entry</title>
<polygon fill="none" stroke="black" stroke-width="0.5" points="540,-514.5 464,-514.5 464,-493.5 540,-493.5 540,-514.5"/>
<text text-anchor="middle" x="502" y="-501.5" font-family="Vera" font-size="10.00">Tkinter.Entry</text>
</g>
<!-- Tkinter.Widget&#45;&gt;Tkinter.Entry -->
<g id="edge36" class="edge"><title>Tkinter.Widget&#45;&gt;Tkinter.Entry</title>
<path fill="none" stroke="black" stroke-width="0.5" d="M341.13,-191.128C357.475,-200.858 380.168,-217.144 392,-238 446.744,-334.49 353.846,-402.488 428,-485 435.913,-493.805 447.303,-498.78 458.783,-501.525"/>
<polygon fill="black" stroke="black" points="458.445,-503.242 463.699,-502.57 459.172,-499.818 458.445,-503.242"/>
</g>
<!-- Tkinter.Label -->
<g id="node15" class="node"><title>Tkinter.Label</title>
<polygon fill="none" stroke="black" stroke-width="0.5" points="540,-210.5 464,-210.5 464,-189.5 540,-189.5 540,-210.5"/>
<text text-anchor="middle" x="502" y="-197.5" font-family="Vera" font-size="10.00">Tkinter.Label</text>
</g>
<!-- Tkinter.Widget&#45;&gt;Tkinter.Label -->
<g id="edge16" class="edge"><title>Tkinter.Widget&#45;&gt;Tkinter.Label</title>
<path fill="none" stroke="black" stroke-width="0.5" d="M363.748,-185.407C392.004,-188.389 429.268,-192.323 457.988,-195.354"/>
<polygon fill="black" stroke="black" points="458.091,-197.125 463.247,-195.909 458.459,-193.644 458.091,-197.125"/>
</g>
<!-- Tkinter.Scrollbar -->
<g id="node17" class="node"><title>Tkinter.Scrollbar</title>
<polygon fill="none" stroke="black" stroke-width="0.5" points="548,-96.5 456,-96.5 456,-75.5 548,-75.5 548,-96.5"/>
<text text-anchor="middle" x="502" y="-83.5" font-family="Vera" font-size="10.00">Tkinter.Scrollbar</text>
</g>
<!-- Tkinter.Widget&#45;&gt;Tkinter.Scrollbar -->
<g id="edge18" class="edge"><title>Tkinter.Widget&#45;&gt;Tkinter.Scrollbar</title>
<path fill="none" stroke="black" stroke-width="0.5" d="M333.178,-170.793C351.587,-154.517 390.039,-122.717 428,-105 434.934,-101.764 442.5,-99.0214 450.062,-96.7145"/>
<polygon fill="black" stroke="black" points="450.981,-98.2692 455.289,-95.1862 449.998,-94.9098 450.981,-98.2692"/>
</g>
<!-- Tkinter.Listbox -->
<g id="node19" class="node"><title>Tkinter.Listbox</title>
<polygon fill="none" stroke="black" stroke-width="0.5" points="544,-476.5 460,-476.5 460,-455.5 544,-455.5 544,-476.5"/>
<text text-anchor="middle" x="502" y="-463.5" font-family="Vera" font-size="10.00">Tkinter.Listbox</text>
</g>
<!-- Tkinter.Widget&#45;&gt;Tkinter.Listbox -->
<g id="edge20" class="edge"><title>Tkinter.Widget&#45;&gt;Tkinter.Listbox</title>
<path fill="none" stroke="black" stroke-width="0.5" d="M339.913,-191.102C355.9,-201.028 378.771,-217.626 392,-238 425.348,-289.362 400.646,-316.211 428,-371 443.975,-402.997 471.642,-434.65 488.243,-452.133"/>
<polygon fill="black" stroke="black" points="487.085,-453.454 491.81,-455.85 489.611,-451.031 487.085,-453.454"/>
</g>
<!-- Tkinter.Menubutton -->
<g id="node31" class="node"><title>Tkinter.Menubutton</title>
<polygon fill="none" stroke="black" stroke-width="0.5" points="556,-172.5 448,-172.5 448,-151.5 556,-151.5 556,-172.5"/>
<text text-anchor="middle" x="502" y="-159.5" font-family="Vera" font-size="10.00">Tkinter.Menubutton</text>
</g>
<!-- Tkinter.Widget&#45;&gt;Tkinter.Menubutton -->
<g id="edge74" class="edge"><title>Tkinter.Widget&#45;&gt;Tkinter.Menubutton</title>
<path fill="none" stroke="black" stroke-width="0.5" d="M363.748,-176.593C387.018,-174.137 416.398,-171.036 442.084,-168.324"/>
<polygon fill="black" stroke="black" points="442.38,-170.053 447.169,-167.788 442.013,-166.572 442.38,-170.053"/>
</g>
<!-- Tkinter.Button -->
<g id="node39" class="node"><title>Tkinter.Button</title>
<polygon fill="none" stroke="black" stroke-width="0.5" points="543,-58.5 461,-58.5 461,-37.5 543,-37.5 543,-58.5"/>
<text text-anchor="middle" x="502" y="-45.5" font-family="Vera" font-size="10.00">Tkinter.Button</text>
</g>
<!-- Tkinter.Widget&#45;&gt;Tkinter.Button -->
<g id="edge42" class="edge"><title>Tkinter.Widget&#45;&gt;Tkinter.Button</title>
<path fill="none" stroke="black" stroke-width="0.5" d="M328.329,-170.988C342.978,-148.668 381.544,-94.6287 428,-67 436.349,-62.0347 445.977,-58.3553 455.469,-55.6326"/>
<polygon fill="black" stroke="black" points="456.044,-57.29 460.413,-54.2942 455.129,-53.9116 456.044,-57.29"/>
</g>
<!-- Tkinter.Radiobutton -->
<g id="node43" class="node"><title>Tkinter.Radiobutton</title>
<polygon fill="none" stroke="black" stroke-width="0.5" points="556,-134.5 448,-134.5 448,-113.5 556,-113.5 556,-134.5"/>
<text text-anchor="middle" x="502" y="-121.5" font-family="Vera" font-size="10.00">Tkinter.Radiobutton</text>
</g>
<!-- Tkinter.Widget&#45;&gt;Tkinter.Radiobutton -->
<g id="edge46" class="edge"><title>Tkinter.Widget&#45;&gt;Tkinter.Radiobutton</title>
<path fill="none" stroke="black" stroke-width="0.5" d="M347.911,-170.949C369.234,-162.863 400.34,-151.489 428,-143 436.666,-140.34 445.979,-137.747 454.976,-135.373"/>
<polygon fill="black" stroke="black" points="455.54,-137.035 459.936,-134.078 454.656,-133.648 455.54,-137.035"/>
</g>
<!-- Tkinter.Frame -->
<g id="node57" class="node"><title>Tkinter.Frame</title>
<polygon fill="none" stroke="black" stroke-width="0.5" points="542,-20.5 462,-20.5 462,0.5 542,0.5 542,-20.5"/>
<text text-anchor="middle" x="502" y="-7.5" font-family="Vera" font-size="10.00">Tkinter.Frame</text>
</g>
<!-- Tkinter.Widget&#45;&gt;Tkinter.Frame -->
<g id="edge62" class="edge"><title>Tkinter.Widget&#45;&gt;Tkinter.Frame</title>
<path fill="none" stroke="black" stroke-width="0.5" d="M325.984,-170.996C337.406,-143.649 373.02,-67.1473 428,-29 436.429,-23.1518 446.519,-19.1031 456.497,-16.3003"/>
<polygon fill="black" stroke="black" points="456.986,-17.9816 461.379,-15.0221 456.099,-14.5957 456.986,-17.9816"/>
</g>
<!-- Tkinter.Entry&#45;&gt;paramtk.tilewrapper.Combobox -->
<g id="edge10" class="edge"><title>Tkinter.Entry&#45;&gt;paramtk.tilewrapper.Combobox</title>
<path fill="none" stroke="black" stroke-width="0.5" d="M540.176,-511.327C569.19,-516.895 609.584,-524.647 642.503,-530.965"/>
<polygon fill="black" stroke="black" points="642.479,-532.742 647.719,-531.966 643.138,-529.305 642.479,-532.742"/>
</g>
<!-- Tkinter.Entry&#45;&gt;paramtk.tilewrapper.Entry -->
<g id="edge14" class="edge"><title>Tkinter.Entry&#45;&gt;paramtk.tilewrapper.Entry</title>
<path fill="none" stroke="black" stroke-width="0.5" d="M540.176,-504C564.085,-504 595.721,-504 624.534,-504"/>
<polygon fill="black" stroke="black" points="624.879,-505.75 629.879,-504 624.879,-502.25 624.879,-505.75"/>
</g>
<!-- Tkinter.Label&#45;&gt;paramtk.tilewrapper.LabelFrame -->
<g id="edge28" class="edge"><title>Tkinter.Label&#45;&gt;paramtk.tilewrapper.LabelFrame</title>
<path fill="none" stroke="black" stroke-width="0.5" d="M540.646,-207.417C569.597,-212.973 609.681,-220.666 642.404,-226.946"/>
<polygon fill="black" stroke="black" points="642.35,-228.718 647.59,-227.942 643.01,-225.28 642.35,-228.718"/>
</g>
<!-- Tkinter.Label&#45;&gt;paramtk.tilewrapper.Label -->
<g id="edge86" class="edge"><title>Tkinter.Label&#45;&gt;paramtk.tilewrapper.Label</title>
<path fill="none" stroke="black" stroke-width="0.5" d="M540.646,-200C564.485,-200 595.873,-200 624.483,-200"/>
<polygon fill="black" stroke="black" points="624.791,-201.75 629.791,-200 624.791,-198.25 624.791,-201.75"/>
</g>
<!-- Tkinter.Scrollbar&#45;&gt;paramtk.tilewrapper.Scrollbar -->
<g id="edge54" class="edge"><title>Tkinter.Scrollbar&#45;&gt;paramtk.tilewrapper.Scrollbar</title>
<path fill="none" stroke="black" stroke-width="0.5" d="M548.673,-86C568.868,-86 593.14,-86 616.273,-86"/>
<polygon fill="black" stroke="black" points="616.5,-87.7501 621.5,-86 616.5,-84.2501 616.5,-87.7501"/>
</g>
<!-- Tkinter.Listbox&#45;&gt;paramtk.tilewrapper.Treeview -->
<g id="edge60" class="edge"><title>Tkinter.Listbox&#45;&gt;paramtk.tilewrapper.Treeview</title>
<path fill="none" stroke="black" stroke-width="0.5" d="M544.963,-466C566.094,-466 592.303,-466 617.123,-466"/>
<polygon fill="black" stroke="black" points="617.396,-467.75 622.396,-466 617.395,-464.25 617.396,-467.75"/>
</g>
<!-- Tkinter.XView -->
<g id="node21" class="node"><title>Tkinter.XView</title>
<polygon fill="none" stroke="black" stroke-width="0.5" points="361,-514.5 283,-514.5 283,-493.5 361,-493.5 361,-514.5"/>
<text text-anchor="middle" x="322" y="-501.5" font-family="Vera" font-size="10.00">Tkinter.XView</text>
</g>
<!-- Tkinter.XView&#45;&gt;Tkinter.Entry -->
<g id="edge38" class="edge"><title>Tkinter.XView&#45;&gt;Tkinter.Entry</title>
<path fill="none" stroke="black" stroke-width="0.5" d="M361.502,-504C390.263,-504 429.198,-504 458.787,-504"/>
<polygon fill="black" stroke="black" points="458.825,-505.75 463.825,-504 458.825,-502.25 458.825,-505.75"/>
</g>
<!-- Tkinter.XView&#45;&gt;Tkinter.Listbox -->
<g id="edge22" class="edge"><title>Tkinter.XView&#45;&gt;Tkinter.Listbox</title>
<path fill="none" stroke="black" stroke-width="0.5" d="M361.502,-495.661C388.894,-489.878 425.513,-482.147 454.499,-476.028"/>
<polygon fill="black" stroke="black" points="454.919,-477.728 459.449,-474.983 454.196,-474.304 454.919,-477.728"/>
</g>
<!-- Tkinter.YView -->
<g id="node23" class="node"><title>Tkinter.YView</title>
<polygon fill="none" stroke="black" stroke-width="0.5" points="361,-476.5 283,-476.5 283,-455.5 361,-455.5 361,-476.5"/>
<text text-anchor="middle" x="322" y="-463.5" font-family="Vera" font-size="10.00">Tkinter.YView</text>
</g>
<!-- Tkinter.YView&#45;&gt;Tkinter.Listbox -->
<g id="edge24" class="edge"><title>Tkinter.YView&#45;&gt;Tkinter.Listbox</title>
<path fill="none" stroke="black" stroke-width="0.5" d="M361.057,-466C388.312,-466 424.861,-466 453.91,-466"/>
<polygon fill="black" stroke="black" points="454.243,-467.75 459.243,-466 454.243,-464.25 454.243,-467.75"/>
</g>
<!-- Tkinter.Misc -->
<g id="node28" class="node"><title>Tkinter.Misc</title>
<polygon fill="none" stroke="black" stroke-width="0.5" points="72,-134.5 2.84217e-14,-134.5 0,-113.5 72,-113.5 72,-134.5"/>
<text text-anchor="middle" x="36" y="-121.5" font-family="Vera" font-size="10.00">Tkinter.Misc</text>
</g>
<!-- Tkinter.BaseWidget -->
<g id="node61" class="node"><title>Tkinter.BaseWidget</title>
<polygon fill="none" stroke="black" stroke-width="0.5" points="215,-134.5 109,-134.5 109,-113.5 215,-113.5 215,-134.5"/>
<text text-anchor="middle" x="162" y="-121.5" font-family="Vera" font-size="10.00">Tkinter.BaseWidget</text>
</g>
<!-- Tkinter.Misc&#45;&gt;Tkinter.BaseWidget -->
<g id="edge64" class="edge"><title>Tkinter.Misc&#45;&gt;Tkinter.BaseWidget</title>
<path fill="none" stroke="black" stroke-width="0.5" d="M72.1065,-124C81.7306,-124 92.3855,-124 102.895,-124"/>
<polygon fill="black" stroke="black" points="103.038,-125.75 108.038,-124 103.038,-122.25 103.038,-125.75"/>
</g>
<!-- Tkinter.Menubutton&#45;&gt;paramtk.tilewrapper.Menubutton -->
<g id="edge32" class="edge"><title>Tkinter.Menubutton&#45;&gt;paramtk.tilewrapper.Menubutton</title>
<path fill="none" stroke="black" stroke-width="0.5" d="M556.629,-162C572.5,-162 590.29,-162 607.795,-162"/>
<polygon fill="black" stroke="black" points="608.216,-163.75 613.216,-162 608.216,-160.25 608.216,-163.75"/>
</g>
<!-- Tkinter.Button&#45;&gt;paramtk.tilewrapper.Button -->
<g id="edge82" class="edge"><title>Tkinter.Button&#45;&gt;paramtk.tilewrapper.Button</title>
<path fill="none" stroke="black" stroke-width="0.5" d="M543.507,-48C565.939,-48 594.397,-48 620.876,-48"/>
<polygon fill="black" stroke="black" points="621.143,-49.7501 626.143,-48 621.143,-46.2501 621.143,-49.7501"/>
</g>
<!-- Tkinter.Radiobutton&#45;&gt;paramtk.tilewrapper.Radiobutton -->
<g id="edge50" class="edge"><title>Tkinter.Radiobutton&#45;&gt;paramtk.tilewrapper.Radiobutton</title>
<path fill="none" stroke="black" stroke-width="0.5" d="M556.629,-124C572.5,-124 590.29,-124 607.795,-124"/>
<polygon fill="black" stroke="black" points="608.216,-125.75 613.216,-124 608.216,-122.25 608.216,-125.75"/>
</g>
<!-- Tkinter.Pack -->
<g id="node53" class="node"><title>Tkinter.Pack</title>
<polygon fill="none" stroke="black" stroke-width="0.5" points="198,-248.5 126,-248.5 126,-227.5 198,-227.5 198,-248.5"/>
<text text-anchor="middle" x="162" y="-235.5" font-family="Vera" font-size="10.00">Tkinter.Pack</text>
</g>
<!-- Tkinter.Pack&#45;&gt;Tkinter.Widget -->
<g id="edge68" class="edge"><title>Tkinter.Pack&#45;&gt;Tkinter.Widget</title>
<path fill="none" stroke="black" stroke-width="0.5" d="M190.596,-227.974C198.802,-225.087 207.759,-221.927 216,-219 240.559,-210.277 268.285,-200.335 289.22,-192.808"/>
<polygon fill="black" stroke="black" points="290.006,-194.385 294.119,-191.046 288.821,-191.091 290.006,-194.385"/>
</g>
<!-- Tkinter.Frame&#45;&gt;paramtk.tilewrapper.Frame -->
<g id="edge90" class="edge"><title>Tkinter.Frame&#45;&gt;paramtk.tilewrapper.Frame</title>
<path fill="none" stroke="black" stroke-width="0.5" d="M542.546,-10C565.552,-10 595.12,-10 622.409,-10"/>
<polygon fill="black" stroke="black" points="622.475,-11.7501 627.475,-10 622.475,-8.2501 622.475,-11.7501"/>
</g>
<!-- Tkinter.Place -->
<g id="node59" class="node"><title>Tkinter.Place</title>
<polygon fill="none" stroke="black" stroke-width="0.5" points="200,-210.5 124,-210.5 124,-189.5 200,-189.5 200,-210.5"/>
<text text-anchor="middle" x="162" y="-197.5" font-family="Vera" font-size="10.00">Tkinter.Place</text>
</g>
<!-- Tkinter.Place&#45;&gt;Tkinter.Widget -->
<g id="edge70" class="edge"><title>Tkinter.Place&#45;&gt;Tkinter.Widget</title>
<path fill="none" stroke="black" stroke-width="0.5" d="M200.732,-195.401C223.181,-192.735 251.601,-189.36 275.284,-186.548"/>
<polygon fill="black" stroke="black" points="275.503,-188.284 280.262,-185.956 275.091,-184.808 275.503,-188.284"/>
</g>
<!-- Tkinter.Grid -->
<g id="node60" class="node"><title>Tkinter.Grid</title>
<polygon fill="none" stroke="black" stroke-width="0.5" points="197,-172.5 127,-172.5 127,-151.5 197,-151.5 197,-172.5"/>
<text text-anchor="middle" x="162" y="-159.5" font-family="Vera" font-size="10.00">Tkinter.Grid</text>
</g>
<!-- Tkinter.Grid&#45;&gt;Tkinter.Widget -->
<g id="edge72" class="edge"><title>Tkinter.Grid&#45;&gt;Tkinter.Widget</title>
<path fill="none" stroke="black" stroke-width="0.5" d="M197.509,-166.217C220.372,-168.932 250.344,-172.491 275.15,-175.437"/>
<polygon fill="black" stroke="black" points="275.189,-177.203 280.36,-176.055 275.601,-173.728 275.189,-177.203"/>
</g>
<!-- Tkinter.BaseWidget&#45;&gt;Tkinter.Widget -->
<g id="edge66" class="edge"><title>Tkinter.BaseWidget&#45;&gt;Tkinter.Widget</title>
<path fill="none" stroke="black" stroke-width="0.5" d="M190.596,-134.026C198.802,-136.913 207.759,-140.073 216,-143 240.559,-151.723 268.285,-161.665 289.22,-169.192"/>
<polygon fill="black" stroke="black" points="288.821,-170.909 294.119,-170.954 290.006,-167.615 288.821,-170.909"/>
</g>
<!-- paramtk.tilewrapper.Style -->
<g id="node67" class="node"><title>paramtk.tilewrapper.Style</title>
<polygon fill="none" stroke="black" stroke-width="0.5" points="391,-267.5 253,-267.5 253,-246.5 391,-246.5 391,-267.5"/>
<text text-anchor="middle" x="322" y="-254.5" font-family="Vera" font-size="10.00">paramtk.tilewrapper.Style</text>
</g>
<!-- paramtk.tilewrapper.Style&#45;&gt;paramtk.tilewrapper.Widget -->
<g id="edge78" class="edge"><title>paramtk.tilewrapper.Style&#45;&gt;paramtk.tilewrapper.Widget</title>
<path fill="none" stroke="black" stroke-width="0.5" d="M391.593,-257C401.965,-257 412.719,-257 423.263,-257"/>
<polygon fill="black" stroke="black" points="423.42,-258.75 428.42,-257 423.42,-255.25 423.42,-258.75"/>
</g>
</g>
</svg>
