<?xml version="1.0" encoding="UTF-8" standalone="no"?>
<!DOCTYPE svg PUBLIC "-//W3C//DTD SVG 1.1//EN"
 "http://www.w3.org/Graphics/SVG/1.1/DTD/svg11.dtd">
<!-- Generated by graphviz version 2.26.3 (20100126.1600)
 -->
<!-- Title: inheritance0bce68b9cf Pages: 1 -->
<svg width="1872pt" height="446pt"
 viewBox="0.00 0.00 1872.00 446.00" xmlns="http://www.w3.org/2000/svg" xmlns:xlink="http://www.w3.org/1999/xlink">
<g id="graph1" class="graph" transform="scale(1 1) rotate(0) translate(4 442)">
<title>inheritance0bce68b9cf</title>
<polygon fill="white" stroke="white" points="-4,5 -4,-442 1869,-442 1869,5 -4,5"/>
<!-- topo.command.analysis.measure_second_or_pref -->
<g id="node1" class="node"><title>topo.command.analysis.measure_second_or_pref</title>
<polygon fill="none" stroke="black" stroke-width="0.5" points="1857,-438.5 1601,-438.5 1601,-417.5 1857,-417.5 1857,-438.5"/>
<text text-anchor="middle" x="1729" y="-425.5" font-family="Vera" font-size="10.00">topo.command.analysis.measure_second_or_pref</text>
</g>
<!-- topo.analysis.featureresponses.SinusoidalMeasureResponseCommand -->
<g id="node2" class="node"><title>topo.analysis.featureresponses.SinusoidalMeasureResponseCommand</title>
<polygon fill="none" stroke="black" stroke-width="0.5" points="1558,-286.5 1202,-286.5 1202,-265.5 1558,-265.5 1558,-286.5"/>
<text text-anchor="middle" x="1380" y="-273.5" font-family="Vera" font-size="10.00">topo.analysis.featureresponses.SinusoidalMeasureResponseCommand</text>
</g>
<!-- topo.analysis.featureresponses.SinusoidalMeasureResponseCommand&#45;&gt;topo.command.analysis.measure_second_or_pref -->
<g id="edge2" class="edge"><title>topo.analysis.featureresponses.SinusoidalMeasureResponseCommand&#45;&gt;topo.command.analysis.measure_second_or_pref</title>
<path fill="none" stroke="black" stroke-width="0.5" d="M1545.06,-286.013C1549.58,-288.67 1553.91,-291.655 1558,-295 1599.13,-328.642 1553.44,-374.675 1594,-409 1596.61,-411.208 1599.35,-413.227 1602.21,-415.071"/>
<polygon fill="black" stroke="black" points="1601.6,-416.746 1606.78,-417.829 1603.4,-413.749 1601.6,-416.746"/>
</g>
<!-- topo.command.analysis.measure_dr_pref -->
<g id="node5" class="node"><title>topo.command.analysis.measure_dr_pref</title>
<polygon fill="none" stroke="black" stroke-width="0.5" points="1837,-400.5 1621,-400.5 1621,-379.5 1837,-379.5 1837,-400.5"/>
<text text-anchor="middle" x="1729" y="-387.5" font-family="Vera" font-size="10.00">topo.command.analysis.measure_dr_pref</text>
</g>
<!-- topo.analysis.featureresponses.SinusoidalMeasureResponseCommand&#45;&gt;topo.command.analysis.measure_dr_pref -->
<g id="edge4" class="edge"><title>topo.analysis.featureresponses.SinusoidalMeasureResponseCommand&#45;&gt;topo.command.analysis.measure_dr_pref</title>
<path fill="none" stroke="black" stroke-width="0.5" d="M1543.24,-286.123C1548.37,-288.725 1553.31,-291.672 1558,-295 1588.48,-316.637 1563.89,-348.856 1594,-371 1600.71,-375.935 1608.13,-379.873 1615.93,-382.994"/>
<polygon fill="black" stroke="black" points="1615.54,-384.716 1620.84,-384.833 1616.77,-381.439 1615.54,-384.716"/>
</g>
<!-- topo.command.analysis.measure_phasedisparity -->
<g id="node12" class="node"><title>topo.command.analysis.measure_phasedisparity</title>
<polygon fill="none" stroke="black" stroke-width="0.5" points="1855,-362.5 1603,-362.5 1603,-341.5 1855,-341.5 1855,-362.5"/>
<text text-anchor="middle" x="1729" y="-349.5" font-family="Vera" font-size="10.00">topo.command.analysis.measure_phasedisparity</text>
</g>
<!-- topo.analysis.featureresponses.SinusoidalMeasureResponseCommand&#45;&gt;topo.command.analysis.measure_phasedisparity -->
<g id="edge10" class="edge"><title>topo.analysis.featureresponses.SinusoidalMeasureResponseCommand&#45;&gt;topo.command.analysis.measure_phasedisparity</title>
<path fill="none" stroke="black" stroke-width="0.5" d="M1536.23,-286.077C1543.73,-288.602 1551.04,-291.555 1558,-295 1578.85,-305.315 1573.32,-322.337 1594,-333 1599.34,-335.754 1604.95,-338.149 1610.72,-340.229"/>
<polygon fill="black" stroke="black" points="1610.31,-341.937 1615.61,-341.903 1611.45,-338.626 1610.31,-341.937"/>
</g>
<!-- topo.command.analysis.measure_sine_pref -->
<g id="node14" class="node"><title>topo.command.analysis.measure_sine_pref</title>
<polygon fill="none" stroke="black" stroke-width="0.5" points="1842,-324.5 1616,-324.5 1616,-303.5 1842,-303.5 1842,-324.5"/>
<text text-anchor="middle" x="1729" y="-311.5" font-family="Vera" font-size="10.00">topo.command.analysis.measure_sine_pref</text>
</g>
<!-- topo.analysis.featureresponses.SinusoidalMeasureResponseCommand&#45;&gt;topo.command.analysis.measure_sine_pref -->
<g id="edge12" class="edge"><title>topo.analysis.featureresponses.SinusoidalMeasureResponseCommand&#45;&gt;topo.command.analysis.measure_sine_pref</title>
<path fill="none" stroke="black" stroke-width="0.5" d="M1474.7,-286.031C1501.62,-288.904 1530.97,-292.055 1558,-295 1582.67,-297.688 1609.34,-300.632 1634.12,-303.384"/>
<polygon fill="black" stroke="black" points="1634.21,-305.155 1639.37,-303.968 1634.6,-301.676 1634.21,-305.155"/>
</g>
<!-- topo.command.analysis.measure_hue_pref -->
<g id="node43" class="node"><title>topo.command.analysis.measure_hue_pref</title>
<polygon fill="none" stroke="black" stroke-width="0.5" points="1841,-286.5 1617,-286.5 1617,-265.5 1841,-265.5 1841,-286.5"/>
<text text-anchor="middle" x="1729" y="-273.5" font-family="Vera" font-size="10.00">topo.command.analysis.measure_hue_pref</text>
</g>
<!-- topo.analysis.featureresponses.SinusoidalMeasureResponseCommand&#45;&gt;topo.command.analysis.measure_hue_pref -->
<g id="edge40" class="edge"><title>topo.analysis.featureresponses.SinusoidalMeasureResponseCommand&#45;&gt;topo.command.analysis.measure_hue_pref</title>
<path fill="none" stroke="black" stroke-width="0.5" d="M1558.08,-276C1576.2,-276 1594.27,-276 1611.51,-276"/>
<polygon fill="black" stroke="black" points="1611.83,-277.75 1616.83,-276 1611.83,-274.25 1611.83,-277.75"/>
</g>
<!-- topo.command.analysis.measure_od_pref -->
<g id="node54" class="node"><title>topo.command.analysis.measure_od_pref</title>
<polygon fill="none" stroke="black" stroke-width="0.5" points="1838,-248.5 1620,-248.5 1620,-227.5 1838,-227.5 1838,-248.5"/>
<text text-anchor="middle" x="1729" y="-235.5" font-family="Vera" font-size="10.00">topo.command.analysis.measure_od_pref</text>
</g>
<!-- topo.analysis.featureresponses.SinusoidalMeasureResponseCommand&#45;&gt;topo.command.analysis.measure_od_pref -->
<g id="edge54" class="edge"><title>topo.analysis.featureresponses.SinusoidalMeasureResponseCommand&#45;&gt;topo.command.analysis.measure_od_pref</title>
<path fill="none" stroke="black" stroke-width="0.5" d="M1472.15,-265.966C1521.35,-260.609 1581.89,-254.018 1631.83,-248.58"/>
<polygon fill="black" stroke="black" points="1632.16,-250.305 1636.94,-248.024 1631.78,-246.826 1632.16,-250.305"/>
</g>
<!-- topo.command.analysis.measure_or_pref -->
<g id="node58" class="node"><title>topo.command.analysis.measure_or_pref</title>
<polygon fill="none" stroke="black" stroke-width="0.5" points="1837,-210.5 1621,-210.5 1621,-189.5 1837,-189.5 1837,-210.5"/>
<text text-anchor="middle" x="1729" y="-197.5" font-family="Vera" font-size="10.00">topo.command.analysis.measure_or_pref</text>
</g>
<!-- topo.analysis.featureresponses.SinusoidalMeasureResponseCommand&#45;&gt;topo.command.analysis.measure_or_pref -->
<g id="edge58" class="edge"><title>topo.analysis.featureresponses.SinusoidalMeasureResponseCommand&#45;&gt;topo.command.analysis.measure_or_pref</title>
<path fill="none" stroke="black" stroke-width="0.5" d="M1412.7,-265.97C1454.43,-253.479 1529,-232.181 1594,-219 1609.11,-215.936 1625.27,-213.201 1640.97,-210.827"/>
<polygon fill="black" stroke="black" points="1641.59,-212.504 1646.27,-210.035 1641.07,-209.042 1641.59,-212.504"/>
</g>
<!-- param.parameterized.Parameterized -->
<g id="node4" class="node"><title>param.parameterized.Parameterized</title>
<polygon fill="none" stroke="black" stroke-width="0.5" points="194,-286.5 5.68434e-14,-286.5 0,-265.5 194,-265.5 194,-286.5"/>
<text text-anchor="middle" x="97" y="-273.5" font-family="Vera" font-size="10.00">param.parameterized.Parameterized</text>
</g>
<!-- topo.command.analysis.PatternPresenter2 -->
<g id="node10" class="node"><title>topo.command.analysis.PatternPresenter2</title>
<polygon fill="none" stroke="black" stroke-width="0.5" points="457,-324.5 237,-324.5 237,-303.5 457,-303.5 457,-324.5"/>
<text text-anchor="middle" x="347" y="-311.5" font-family="Vera" font-size="10.00">topo.command.analysis.PatternPresenter2</text>
</g>
<!-- param.parameterized.Parameterized&#45;&gt;topo.command.analysis.PatternPresenter2 -->
<g id="edge8" class="edge"><title>param.parameterized.Parameterized&#45;&gt;topo.command.analysis.PatternPresenter2</title>
<path fill="none" stroke="black" stroke-width="0.5" d="M163.012,-286.034C197.758,-291.315 240.394,-297.796 275.872,-303.189"/>
<polygon fill="black" stroke="black" points="275.846,-304.955 281.052,-303.976 276.372,-301.494 275.846,-304.955"/>
</g>
<!-- imagen.patterngenerator.PatternGenerator -->
<g id="node30" class="node"><title>imagen.patterngenerator.PatternGenerator</title>
<polygon fill="none" stroke="black" stroke-width="0.5" points="459,-286.5 235,-286.5 235,-265.5 459,-265.5 459,-286.5"/>
<text text-anchor="middle" x="347" y="-273.5" font-family="Vera" font-size="10.00">imagen.patterngenerator.PatternGenerator</text>
</g>
<!-- param.parameterized.Parameterized&#45;&gt;imagen.patterngenerator.PatternGenerator -->
<g id="edge28" class="edge"><title>param.parameterized.Parameterized&#45;&gt;imagen.patterngenerator.PatternGenerator</title>
<path fill="none" stroke="black" stroke-width="0.5" d="M194.014,-276C205.664,-276 217.655,-276 229.554,-276"/>
<polygon fill="black" stroke="black" points="229.647,-277.75 234.647,-276 229.647,-274.25 229.647,-277.75"/>
</g>
<!-- param.parameterized.ParameterizedFunction -->
<g id="node35" class="node"><title>param.parameterized.ParameterizedFunction</title>
<polygon fill="none" stroke="black" stroke-width="0.5" points="464,-210.5 230,-210.5 230,-189.5 464,-189.5 464,-210.5"/>
<text text-anchor="middle" x="347" y="-197.5" font-family="Vera" font-size="10.00">param.parameterized.ParameterizedFunction</text>
</g>
<!-- param.parameterized.Parameterized&#45;&gt;param.parameterized.ParameterizedFunction -->
<g id="edge48" class="edge"><title>param.parameterized.Parameterized&#45;&gt;param.parameterized.ParameterizedFunction</title>
<path fill="none" stroke="black" stroke-width="0.5" d="M129.94,-265.986C176.216,-251.918 260.263,-226.368 309.084,-211.526"/>
<polygon fill="black" stroke="black" points="309.712,-213.165 313.987,-210.036 308.694,-209.816 309.712,-213.165"/>
</g>
<!-- topo.command.analysis.update_connectionfields -->
<g id="node7" class="node"><title>topo.command.analysis.update_connectionfields</title>
<polygon fill="none" stroke="black" stroke-width="0.5" points="1505,-362.5 1255,-362.5 1255,-341.5 1505,-341.5 1505,-362.5"/>
<text text-anchor="middle" x="1380" y="-349.5" font-family="Vera" font-size="10.00">topo.command.analysis.update_connectionfields</text>
</g>
<!-- topo.plotting.plotgroup.UnitMeasurementCommand -->
<g id="node8" class="node"><title>topo.plotting.plotgroup.UnitMeasurementCommand</title>
<polygon fill="none" stroke="black" stroke-width="0.5" points="1145,-324.5 879,-324.5 879,-303.5 1145,-303.5 1145,-324.5"/>
<text text-anchor="middle" x="1012" y="-311.5" font-family="Vera" font-size="10.00">topo.plotting.plotgroup.UnitMeasurementCommand</text>
</g>
<!-- topo.plotting.plotgroup.UnitMeasurementCommand&#45;&gt;topo.command.analysis.update_connectionfields -->
<g id="edge6" class="edge"><title>topo.plotting.plotgroup.UnitMeasurementCommand&#45;&gt;topo.command.analysis.update_connectionfields</title>
<path fill="none" stroke="black" stroke-width="0.5" d="M1109.17,-324.034C1161.15,-329.402 1225.14,-336.009 1277.86,-341.453"/>
<polygon fill="black" stroke="black" points="1277.77,-343.203 1282.93,-341.976 1278.13,-339.722 1277.77,-343.203"/>
</g>
<!-- topo.command.analysis.update_projection -->
<g id="node24" class="node"><title>topo.command.analysis.update_projection</title>
<polygon fill="none" stroke="black" stroke-width="0.5" points="1490,-324.5 1270,-324.5 1270,-303.5 1490,-303.5 1490,-324.5"/>
<text text-anchor="middle" x="1380" y="-311.5" font-family="Vera" font-size="10.00">topo.command.analysis.update_projection</text>
</g>
<!-- topo.plotting.plotgroup.UnitMeasurementCommand&#45;&gt;topo.command.analysis.update_projection -->
<g id="edge22" class="edge"><title>topo.plotting.plotgroup.UnitMeasurementCommand&#45;&gt;topo.command.analysis.update_projection</title>
<path fill="none" stroke="black" stroke-width="0.5" d="M1145.12,-314C1184.11,-314 1226.42,-314 1264.24,-314"/>
<polygon fill="black" stroke="black" points="1264.3,-315.75 1269.3,-314 1264.3,-312.25 1264.3,-315.75"/>
</g>
<!-- topo.analysis.featureresponses.PositionMeasurementCommand -->
<g id="node16" class="node"><title>topo.analysis.featureresponses.PositionMeasurementCommand</title>
<polygon fill="none" stroke="black" stroke-width="0.5" points="1542,-172.5 1218,-172.5 1218,-151.5 1542,-151.5 1542,-172.5"/>
<text text-anchor="middle" x="1380" y="-159.5" font-family="Vera" font-size="10.00">topo.analysis.featureresponses.PositionMeasurementCommand</text>
</g>
<!-- topo.command.analysis.measure_corner_or_pref -->
<g id="node28" class="node"><title>topo.command.analysis.measure_corner_or_pref</title>
<polygon fill="none" stroke="black" stroke-width="0.5" points="1855,-172.5 1603,-172.5 1603,-151.5 1855,-151.5 1855,-172.5"/>
<text text-anchor="middle" x="1729" y="-159.5" font-family="Vera" font-size="10.00">topo.command.analysis.measure_corner_or_pref</text>
</g>
<!-- topo.analysis.featureresponses.PositionMeasurementCommand&#45;&gt;topo.command.analysis.measure_corner_or_pref -->
<g id="edge26" class="edge"><title>topo.analysis.featureresponses.PositionMeasurementCommand&#45;&gt;topo.command.analysis.measure_corner_or_pref</title>
<path fill="none" stroke="black" stroke-width="0.5" d="M1542.24,-162C1560.87,-162 1579.69,-162 1597.84,-162"/>
<polygon fill="black" stroke="black" points="1597.94,-163.75 1602.94,-162 1597.94,-160.25 1597.94,-163.75"/>
</g>
<!-- topo.command.analysis.measure_corner_angle_pref -->
<g id="node39" class="node"><title>topo.command.analysis.measure_corner_angle_pref</title>
<polygon fill="none" stroke="black" stroke-width="0.5" points="1863,-134.5 1595,-134.5 1595,-113.5 1863,-113.5 1863,-134.5"/>
<text text-anchor="middle" x="1729" y="-121.5" font-family="Vera" font-size="10.00">topo.command.analysis.measure_corner_angle_pref</text>
</g>
<!-- topo.analysis.featureresponses.PositionMeasurementCommand&#45;&gt;topo.command.analysis.measure_corner_angle_pref -->
<g id="edge36" class="edge"><title>topo.analysis.featureresponses.PositionMeasurementCommand&#45;&gt;topo.command.analysis.measure_corner_angle_pref</title>
<path fill="none" stroke="black" stroke-width="0.5" d="M1474.7,-151.969C1501.62,-149.096 1530.97,-145.945 1558,-143 1582.67,-140.312 1609.34,-137.368 1634.12,-134.616"/>
<polygon fill="black" stroke="black" points="1634.6,-136.324 1639.37,-134.032 1634.21,-132.845 1634.6,-136.324"/>
</g>
<!-- topo.analysis.featureresponses.MeasureResponseCommand -->
<g id="node17" class="node"><title>topo.analysis.featureresponses.MeasureResponseCommand</title>
<polygon fill="none" stroke="black" stroke-width="0.5" points="1165,-134.5 859,-134.5 859,-113.5 1165,-113.5 1165,-134.5"/>
<text text-anchor="middle" x="1012" y="-121.5" font-family="Vera" font-size="10.00">topo.analysis.featureresponses.MeasureResponseCommand</text>
</g>
<!-- topo.analysis.featureresponses.MeasureResponseCommand&#45;&gt;topo.analysis.featureresponses.SinusoidalMeasureResponseCommand -->
<g id="edge20" class="edge"><title>topo.analysis.featureresponses.MeasureResponseCommand&#45;&gt;topo.analysis.featureresponses.SinusoidalMeasureResponseCommand</title>
<path fill="none" stroke="black" stroke-width="0.5" d="M1036.43,-134.091C1101.65,-161.028 1279.67,-234.56 1350.43,-263.787"/>
<polygon fill="black" stroke="black" points="1350.05,-265.522 1355.34,-265.813 1351.38,-262.287 1350.05,-265.522"/>
</g>
<!-- topo.analysis.featureresponses.MeasureResponseCommand&#45;&gt;topo.analysis.featureresponses.PositionMeasurementCommand -->
<g id="edge14" class="edge"><title>topo.analysis.featureresponses.MeasureResponseCommand&#45;&gt;topo.analysis.featureresponses.PositionMeasurementCommand</title>
<path fill="none" stroke="black" stroke-width="0.5" d="M1109.17,-134.034C1161.15,-139.402 1225.14,-146.009 1277.86,-151.453"/>
<polygon fill="black" stroke="black" points="1277.77,-153.203 1282.93,-151.976 1278.13,-149.722 1277.77,-153.203"/>
</g>
<!-- topo.analysis.featureresponses.SingleInputResponseCommand -->
<g id="node19" class="node"><title>topo.analysis.featureresponses.SingleInputResponseCommand</title>
<polygon fill="none" stroke="black" stroke-width="0.5" points="1539,-134.5 1221,-134.5 1221,-113.5 1539,-113.5 1539,-134.5"/>
<text text-anchor="middle" x="1380" y="-121.5" font-family="Vera" font-size="10.00">topo.analysis.featureresponses.SingleInputResponseCommand</text>
</g>
<!-- topo.analysis.featureresponses.MeasureResponseCommand&#45;&gt;topo.analysis.featureresponses.SingleInputResponseCommand -->
<g id="edge16" class="edge"><title>topo.analysis.featureresponses.MeasureResponseCommand&#45;&gt;topo.analysis.featureresponses.SingleInputResponseCommand</title>
<path fill="none" stroke="black" stroke-width="0.5" d="M1165.67,-124C1182.01,-124 1198.68,-124 1215.14,-124"/>
<polygon fill="black" stroke="black" points="1215.25,-125.75 1220.25,-124 1215.25,-122.25 1215.25,-125.75"/>
</g>
<!-- topo.command.analysis.measure_log_frequency_preference -->
<g id="node26" class="node"><title>topo.command.analysis.measure_log_frequency_preference</title>
<polygon fill="none" stroke="black" stroke-width="0.5" points="1533,-96.5 1227,-96.5 1227,-75.5 1533,-75.5 1533,-96.5"/>
<text text-anchor="middle" x="1380" y="-83.5" font-family="Vera" font-size="10.00">topo.command.analysis.measure_log_frequency_preference</text>
</g>
<!-- topo.analysis.featureresponses.MeasureResponseCommand&#45;&gt;topo.command.analysis.measure_log_frequency_preference -->
<g id="edge24" class="edge"><title>topo.analysis.featureresponses.MeasureResponseCommand&#45;&gt;topo.command.analysis.measure_log_frequency_preference</title>
<path fill="none" stroke="black" stroke-width="0.5" d="M1109.17,-113.966C1161.15,-108.598 1225.14,-101.991 1277.86,-96.5472"/>
<polygon fill="black" stroke="black" points="1278.13,-98.2785 1282.93,-96.024 1277.77,-94.797 1278.13,-98.2785"/>
</g>
<!-- topo.command.analysis.measure_latency_preference -->
<g id="node45" class="node"><title>topo.command.analysis.measure_latency_preference</title>
<polygon fill="none" stroke="black" stroke-width="0.5" points="1517,-58.5 1243,-58.5 1243,-37.5 1517,-37.5 1517,-58.5"/>
<text text-anchor="middle" x="1380" y="-45.5" font-family="Vera" font-size="10.00">topo.command.analysis.measure_latency_preference</text>
</g>
<!-- topo.analysis.featureresponses.MeasureResponseCommand&#45;&gt;topo.command.analysis.measure_latency_preference -->
<g id="edge42" class="edge"><title>topo.analysis.featureresponses.MeasureResponseCommand&#45;&gt;topo.command.analysis.measure_latency_preference</title>
<path fill="none" stroke="black" stroke-width="0.5" d="M1039.6,-113.958C1076.21,-101.045 1143.09,-78.8742 1202,-67 1218.29,-63.7166 1235.54,-60.976 1252.64,-58.6945"/>
<polygon fill="black" stroke="black" points="1253.21,-60.385 1257.94,-58.0011 1252.75,-56.9146 1253.21,-60.385"/>
</g>
<!-- topo.command.analysis.measure_frequency_preference -->
<g id="node52" class="node"><title>topo.command.analysis.measure_frequency_preference</title>
<polygon fill="none" stroke="black" stroke-width="0.5" points="1523,-20.5 1237,-20.5 1237,0.5 1523,0.5 1523,-20.5"/>
<text text-anchor="middle" x="1380" y="-7.5" font-family="Vera" font-size="10.00">topo.command.analysis.measure_frequency_preference</text>
</g>
<!-- topo.analysis.featureresponses.MeasureResponseCommand&#45;&gt;topo.command.analysis.measure_frequency_preference -->
<g id="edge52" class="edge"><title>topo.analysis.featureresponses.MeasureResponseCommand&#45;&gt;topo.command.analysis.measure_frequency_preference</title>
<path fill="none" stroke="black" stroke-width="0.5" d="M1027.47,-113.833C1058.87,-93.7561 1132.99,-49.219 1202,-29 1212.83,-25.8271 1224.17,-23.1721 1235.65,-20.9518"/>
<polygon fill="black" stroke="black" points="1235.99,-22.6688 1240.59,-20.0266 1235.35,-19.2289 1235.99,-22.6688"/>
</g>
<!-- topo.command.analysis.measure_rfs -->
<g id="node21" class="node"><title>topo.command.analysis.measure_rfs</title>
<polygon fill="none" stroke="black" stroke-width="0.5" points="1826,-96.5 1632,-96.5 1632,-75.5 1826,-75.5 1826,-96.5"/>
<text text-anchor="middle" x="1729" y="-83.5" font-family="Vera" font-size="10.00">topo.command.analysis.measure_rfs</text>
</g>
<!-- topo.analysis.featureresponses.SingleInputResponseCommand&#45;&gt;topo.command.analysis.measure_rfs -->
<g id="edge18" class="edge"><title>topo.analysis.featureresponses.SingleInputResponseCommand&#45;&gt;topo.command.analysis.measure_rfs</title>
<path fill="none" stroke="black" stroke-width="0.5" d="M1474.7,-113.969C1501.62,-111.096 1530.97,-107.945 1558,-105 1582.67,-102.312 1609.34,-99.3679 1634.12,-96.6164"/>
<polygon fill="black" stroke="black" points="1634.6,-98.3239 1639.37,-96.0323 1634.21,-94.8453 1634.6,-98.3239"/>
</g>
<!-- topo.command.analysis.log_frequency_mapper -->
<g id="node32" class="node"><title>topo.command.analysis.log_frequency_mapper</title>
<polygon fill="none" stroke="black" stroke-width="0.5" points="783,-343.5 539,-343.5 539,-322.5 783,-322.5 783,-343.5"/>
<text text-anchor="middle" x="661" y="-330.5" font-family="Vera" font-size="10.00">topo.command.analysis.log_frequency_mapper</text>
</g>
<!-- imagen.patterngenerator.PatternGenerator&#45;&gt;topo.command.analysis.log_frequency_mapper -->
<g id="edge30" class="edge"><title>imagen.patterngenerator.PatternGenerator&#45;&gt;topo.command.analysis.log_frequency_mapper</title>
<path fill="none" stroke="black" stroke-width="0.5" d="M429.959,-286.031C441.538,-288.423 453.171,-291.371 464,-295 481.154,-300.748 482.725,-308.627 500,-314 510.817,-317.365 522.213,-320.141 533.738,-322.43"/>
<polygon fill="black" stroke="black" points="533.443,-324.156 538.684,-323.382 534.105,-320.719 533.443,-324.156"/>
</g>
<!-- topo.command.analysis.latency_mapper -->
<g id="node37" class="node"><title>topo.command.analysis.latency_mapper</title>
<polygon fill="none" stroke="black" stroke-width="0.5" points="767,-305.5 555,-305.5 555,-284.5 767,-284.5 767,-305.5"/>
<text text-anchor="middle" x="661" y="-292.5" font-family="Vera" font-size="10.00">topo.command.analysis.latency_mapper</text>
</g>
<!-- imagen.patterngenerator.PatternGenerator&#45;&gt;topo.command.analysis.latency_mapper -->
<g id="edge34" class="edge"><title>imagen.patterngenerator.PatternGenerator&#45;&gt;topo.command.analysis.latency_mapper</title>
<path fill="none" stroke="black" stroke-width="0.5" d="M459.031,-282.779C488.501,-284.562 520.279,-286.485 549.709,-288.266"/>
<polygon fill="black" stroke="black" points="549.696,-290.018 554.792,-288.573 549.907,-286.525 549.696,-290.018"/>
</g>
<!-- topo.command.analysis.frequency_mapper -->
<g id="node60" class="node"><title>topo.command.analysis.frequency_mapper</title>
<polygon fill="none" stroke="black" stroke-width="0.5" points="773,-267.5 549,-267.5 549,-246.5 773,-246.5 773,-267.5"/>
<text text-anchor="middle" x="661" y="-254.5" font-family="Vera" font-size="10.00">topo.command.analysis.frequency_mapper</text>
</g>
<!-- imagen.patterngenerator.PatternGenerator&#45;&gt;topo.command.analysis.frequency_mapper -->
<g id="edge60" class="edge"><title>imagen.patterngenerator.PatternGenerator&#45;&gt;topo.command.analysis.frequency_mapper</title>
<path fill="none" stroke="black" stroke-width="0.5" d="M459.031,-269.221C486.472,-267.561 515.915,-265.779 543.6,-264.104"/>
<polygon fill="black" stroke="black" points="543.862,-265.841 548.748,-263.792 543.651,-262.348 543.862,-265.841"/>
</g>
<!-- topo.plotting.plotgroup.ProjectionSheetMeasurementCommand -->
<g id="node34" class="node"><title>topo.plotting.plotgroup.ProjectionSheetMeasurementCommand</title>
<polygon fill="none" stroke="black" stroke-width="0.5" points="822,-229.5 500,-229.5 500,-208.5 822,-208.5 822,-229.5"/>
<text text-anchor="middle" x="661" y="-216.5" font-family="Vera" font-size="10.00">topo.plotting.plotgroup.ProjectionSheetMeasurementCommand</text>
</g>
<!-- topo.plotting.plotgroup.ProjectionSheetMeasurementCommand&#45;&gt;topo.plotting.plotgroup.UnitMeasurementCommand -->
<g id="edge44" class="edge"><title>topo.plotting.plotgroup.ProjectionSheetMeasurementCommand&#45;&gt;topo.plotting.plotgroup.UnitMeasurementCommand</title>
<path fill="none" stroke="black" stroke-width="0.5" d="M777.316,-229.028C792.461,-231.412 807.679,-234.359 822,-238 883.62,-253.668 951.941,-284.572 987.479,-301.752"/>
<polygon fill="black" stroke="black" points="986.802,-303.369 992.064,-303.981 988.332,-300.221 986.802,-303.369"/>
</g>
<!-- topo.command.analysis.update_projectionactivity -->
<g id="node56" class="node"><title>topo.command.analysis.update_projectionactivity</title>
<polygon fill="none" stroke="black" stroke-width="0.5" points="1139,-229.5 885,-229.5 885,-208.5 1139,-208.5 1139,-229.5"/>
<text text-anchor="middle" x="1012" y="-216.5" font-family="Vera" font-size="10.00">topo.command.analysis.update_projectionactivity</text>
</g>
<!-- topo.plotting.plotgroup.ProjectionSheetMeasurementCommand&#45;&gt;topo.command.analysis.update_projectionactivity -->
<g id="edge56" class="edge"><title>topo.plotting.plotgroup.ProjectionSheetMeasurementCommand&#45;&gt;topo.command.analysis.update_projectionactivity</title>
<path fill="none" stroke="black" stroke-width="0.5" d="M822.118,-219C841.391,-219 860.898,-219 879.699,-219"/>
<polygon fill="black" stroke="black" points="879.982,-220.75 884.982,-219 879.982,-217.25 879.982,-220.75"/>
</g>
<!-- param.parameterized.ParameterizedFunction&#45;&gt;topo.plotting.plotgroup.ProjectionSheetMeasurementCommand -->
<g id="edge32" class="edge"><title>param.parameterized.ParameterizedFunction&#45;&gt;topo.plotting.plotgroup.ProjectionSheetMeasurementCommand</title>
<path fill="none" stroke="black" stroke-width="0.5" d="M464.369,-207.102C474.323,-207.704 484.506,-208.32 494.741,-208.94"/>
<polygon fill="black" stroke="black" points="494.672,-210.689 499.769,-209.244 494.884,-207.195 494.672,-210.689"/>
</g>
<!-- topo.analysis.featureresponses.PatternPresentingCommand -->
<g id="node41" class="node"><title>topo.analysis.featureresponses.PatternPresentingCommand</title>
<polygon fill="none" stroke="black" stroke-width="0.5" points="813,-191.5 509,-191.5 509,-170.5 813,-170.5 813,-191.5"/>
<text text-anchor="middle" x="661" y="-178.5" font-family="Vera" font-size="10.00">topo.analysis.featureresponses.PatternPresentingCommand</text>
</g>
<!-- param.parameterized.ParameterizedFunction&#45;&gt;topo.analysis.featureresponses.PatternPresentingCommand -->
<g id="edge46" class="edge"><title>param.parameterized.ParameterizedFunction&#45;&gt;topo.analysis.featureresponses.PatternPresentingCommand</title>
<path fill="none" stroke="black" stroke-width="0.5" d="M464.369,-192.898C477.055,-192.13 490.112,-191.34 503.176,-190.55"/>
<polygon fill="black" stroke="black" points="503.493,-192.284 508.378,-190.235 503.281,-188.79 503.493,-192.284"/>
</g>
<!-- topo.command.analysis.save_plotgroup -->
<g id="node50" class="node"><title>topo.command.analysis.save_plotgroup</title>
<polygon fill="none" stroke="black" stroke-width="0.5" points="765,-153.5 557,-153.5 557,-132.5 765,-132.5 765,-153.5"/>
<text text-anchor="middle" x="661" y="-140.5" font-family="Vera" font-size="10.00">topo.command.analysis.save_plotgroup</text>
</g>
<!-- param.parameterized.ParameterizedFunction&#45;&gt;topo.command.analysis.save_plotgroup -->
<g id="edge50" class="edge"><title>param.parameterized.ParameterizedFunction&#45;&gt;topo.command.analysis.save_plotgroup</title>
<path fill="none" stroke="black" stroke-width="0.5" d="M381.973,-189.978C412.809,-181.463 459.074,-169.467 500,-162 517.463,-158.814 536.094,-156.045 554.257,-153.68"/>
<polygon fill="black" stroke="black" points="554.63,-155.397 559.366,-153.024 554.184,-151.925 554.63,-155.397"/>
</g>
<!-- topo.analysis.featureresponses.PatternPresentingCommand&#45;&gt;topo.analysis.featureresponses.MeasureResponseCommand -->
<g id="edge38" class="edge"><title>topo.analysis.featureresponses.PatternPresentingCommand&#45;&gt;topo.analysis.featureresponses.MeasureResponseCommand</title>
<path fill="none" stroke="black" stroke-width="0.5" d="M756.949,-170.952C778.402,-168.351 801.013,-165.332 822,-162 869.694,-154.429 923.644,-143.4 961.836,-135.172"/>
<polygon fill="black" stroke="black" points="962.366,-136.848 966.883,-134.081 961.626,-133.427 962.366,-136.848"/>
</g>
</g>
</svg>
