<?xml version="1.0" encoding="UTF-8" standalone="no"?>
<!DOCTYPE svg PUBLIC "-//W3C//DTD SVG 1.1//EN"
 "http://www.w3.org/Graphics/SVG/1.1/DTD/svg11.dtd">
<!-- Generated by graphviz version 2.26.3 (20100126.1600)
 -->
<!-- Title: inheritancef4cea304dd Pages: 1 -->
<svg width="1124pt" height="256pt"
 viewBox="0.00 0.00 1124.00 256.00" xmlns="http://www.w3.org/2000/svg" xmlns:xlink="http://www.w3.org/1999/xlink">
<g id="graph1" class="graph" transform="scale(1 1) rotate(0) translate(4 252)">
<title>inheritancef4cea304dd</title>
<polygon fill="white" stroke="white" points="-4,5 -4,-252 1121,-252 1121,5 -4,5"/>
<!-- topo.base.cf.CFPOF_Plugin -->
<g id="node1" class="node"><title>topo.base.cf.CFPOF_Plugin</title>
<polygon fill="none" stroke="black" stroke-width="0.5" points="656,-248.5 514,-248.5 514,-227.5 656,-227.5 656,-248.5"/>
<text text-anchor="middle" x="585" y="-235.5" font-family="Vera" font-size="10.00">topo.base.cf.CFPOF_Plugin</text>
</g>
<!-- topo.base.cf.CFPOutputFn -->
<g id="node2" class="node"><title>topo.base.cf.CFPOutputFn</title>
<polygon fill="none" stroke="black" stroke-width="0.5" points="418,-210.5 278,-210.5 278,-189.5 418,-189.5 418,-210.5"/>
<text text-anchor="middle" x="348" y="-197.5" font-family="Vera" font-size="10.00">topo.base.cf.CFPOutputFn</text>
</g>
<!-- topo.base.cf.CFPOutputFn&#45;&gt;topo.base.cf.CFPOF_Plugin -->
<g id="edge2" class="edge"><title>topo.base.cf.CFPOutputFn&#45;&gt;topo.base.cf.CFPOF_Plugin</title>
<path fill="none" stroke="black" stroke-width="0.5" d="M410.579,-210.034C443.384,-215.294 483.607,-221.743 517.157,-227.122"/>
<polygon fill="black" stroke="black" points="517.268,-228.912 522.482,-227.976 517.822,-225.456 517.268,-228.912"/>
</g>
<!-- topo.base.cf.CFPOF_Identity -->
<g id="node21" class="node"><title>topo.base.cf.CFPOF_Identity</title>
<polygon fill="none" stroke="black" stroke-width="0.5" points="659,-210.5 511,-210.5 511,-189.5 659,-189.5 659,-210.5"/>
<text text-anchor="middle" x="585" y="-197.5" font-family="Vera" font-size="10.00">topo.base.cf.CFPOF_Identity</text>
</g>
<!-- topo.base.cf.CFPOutputFn&#45;&gt;topo.base.cf.CFPOF_Identity -->
<g id="edge16" class="edge"><title>topo.base.cf.CFPOutputFn&#45;&gt;topo.base.cf.CFPOF_Identity</title>
<path fill="none" stroke="black" stroke-width="0.5" d="M418.146,-200C445.516,-200 477.04,-200 505.266,-200"/>
<polygon fill="black" stroke="black" points="505.496,-201.75 510.496,-200 505.496,-198.25 505.496,-201.75"/>
</g>
<!-- topo.base.cf.CFProjection -->
<g id="node4" class="node"><title>topo.base.cf.CFProjection</title>
<polygon fill="none" stroke="black" stroke-width="0.5" points="869,-58.5 733,-58.5 733,-37.5 869,-37.5 869,-58.5"/>
<text text-anchor="middle" x="801" y="-45.5" font-family="Vera" font-size="10.00">topo.base.cf.CFProjection</text>
</g>
<!-- topo.base.cf.ResizableCFProjection -->
<g id="node15" class="node"><title>topo.base.cf.ResizableCFProjection</title>
<polygon fill="none" stroke="black" stroke-width="0.5" points="1116,-58.5 934,-58.5 934,-37.5 1116,-37.5 1116,-58.5"/>
<text text-anchor="middle" x="1025" y="-45.5" font-family="Vera" font-size="10.00">topo.base.cf.ResizableCFProjection</text>
</g>
<!-- topo.base.cf.CFProjection&#45;&gt;topo.base.cf.ResizableCFProjection -->
<g id="edge12" class="edge"><title>topo.base.cf.CFProjection&#45;&gt;topo.base.cf.ResizableCFProjection</title>
<path fill="none" stroke="black" stroke-width="0.5" d="M869.73,-48C888.343,-48 908.841,-48 928.67,-48"/>
<polygon fill="black" stroke="black" points="928.696,-49.7501 933.696,-48 928.696,-46.2501 928.696,-49.7501"/>
</g>
<!-- topo.base.projection.Projection -->
<g id="node5" class="node"><title>topo.base.projection.Projection</title>
<polygon fill="none" stroke="black" stroke-width="0.5" points="667,-58.5 503,-58.5 503,-37.5 667,-37.5 667,-58.5"/>
<text text-anchor="middle" x="585" y="-45.5" font-family="Vera" font-size="10.00">topo.base.projection.Projection</text>
</g>
<!-- topo.base.projection.Projection&#45;&gt;topo.base.cf.CFProjection -->
<g id="edge4" class="edge"><title>topo.base.projection.Projection&#45;&gt;topo.base.cf.CFProjection</title>
<path fill="none" stroke="black" stroke-width="0.5" d="M667.585,-48C687.071,-48 707.728,-48 726.817,-48"/>
<polygon fill="black" stroke="black" points="727.157,-49.7501 732.157,-48 727.157,-46.2501 727.157,-49.7501"/>
</g>
<!-- param.parameterized.Parameterized -->
<g id="node7" class="node"><title>param.parameterized.Parameterized</title>
<polygon fill="none" stroke="black" stroke-width="0.5" points="194,-134.5 5.68434e-14,-134.5 0,-113.5 194,-113.5 194,-134.5"/>
<text text-anchor="middle" x="97" y="-121.5" font-family="Vera" font-size="10.00">param.parameterized.Parameterized</text>
</g>
<!-- param.parameterized.Parameterized&#45;&gt;topo.base.cf.CFPOutputFn -->
<g id="edge8" class="edge"><title>param.parameterized.Parameterized&#45;&gt;topo.base.cf.CFPOutputFn</title>
<path fill="none" stroke="black" stroke-width="0.5" d="M172.778,-134.022C180.177,-136.411 187.384,-139.361 194,-143 214.384,-154.213 209.43,-170.133 230,-181 243.104,-187.923 258.082,-192.462 272.868,-195.408"/>
<polygon fill="black" stroke="black" points="272.634,-197.145 277.872,-196.348 273.28,-193.705 272.634,-197.145"/>
</g>
<!-- topo.base.cf.CFPResponseFn -->
<g id="node8" class="node"><title>topo.base.cf.CFPResponseFn</title>
<polygon fill="none" stroke="black" stroke-width="0.5" points="424,-172.5 272,-172.5 272,-151.5 424,-151.5 424,-172.5"/>
<text text-anchor="middle" x="348" y="-159.5" font-family="Vera" font-size="10.00">topo.base.cf.CFPResponseFn</text>
</g>
<!-- param.parameterized.Parameterized&#45;&gt;topo.base.cf.CFPResponseFn -->
<g id="edge6" class="edge"><title>param.parameterized.Parameterized&#45;&gt;topo.base.cf.CFPResponseFn</title>
<path fill="none" stroke="black" stroke-width="0.5" d="M163.276,-134.034C198.161,-139.315 240.968,-145.796 276.587,-151.189"/>
<polygon fill="black" stroke="black" points="276.583,-152.958 281.789,-151.976 277.107,-149.497 276.583,-152.958"/>
</g>
<!-- topo.base.cf.CFPLearningFn -->
<g id="node19" class="node"><title>topo.base.cf.CFPLearningFn</title>
<polygon fill="none" stroke="black" stroke-width="0.5" points="422,-134.5 274,-134.5 274,-113.5 422,-113.5 422,-134.5"/>
<text text-anchor="middle" x="348" y="-121.5" font-family="Vera" font-size="10.00">topo.base.cf.CFPLearningFn</text>
</g>
<!-- param.parameterized.Parameterized&#45;&gt;topo.base.cf.CFPLearningFn -->
<g id="edge14" class="edge"><title>param.parameterized.Parameterized&#45;&gt;topo.base.cf.CFPLearningFn</title>
<path fill="none" stroke="black" stroke-width="0.5" d="M194.043,-124C218.642,-124 244.781,-124 268.403,-124"/>
<polygon fill="black" stroke="black" points="268.404,-125.75 273.404,-124 268.404,-122.25 268.404,-125.75"/>
</g>
<!-- topo.base.simulation.EPConnection -->
<g id="node27" class="node"><title>topo.base.simulation.EPConnection</title>
<polygon fill="none" stroke="black" stroke-width="0.5" points="441,-96.5 255,-96.5 255,-75.5 441,-75.5 441,-96.5"/>
<text text-anchor="middle" x="348" y="-83.5" font-family="Vera" font-size="10.00">topo.base.simulation.EPConnection</text>
</g>
<!-- param.parameterized.Parameterized&#45;&gt;topo.base.simulation.EPConnection -->
<g id="edge22" class="edge"><title>param.parameterized.Parameterized&#45;&gt;topo.base.simulation.EPConnection</title>
<path fill="none" stroke="black" stroke-width="0.5" d="M163.276,-113.966C198.161,-108.685 240.968,-102.204 276.587,-96.8115"/>
<polygon fill="black" stroke="black" points="277.107,-98.5029 281.789,-96.024 276.583,-95.0423 277.107,-98.5029"/>
</g>
<!-- topo.base.simulation.EventProcessor -->
<g id="node31" class="node"><title>topo.base.simulation.EventProcessor</title>
<polygon fill="none" stroke="black" stroke-width="0.5" points="445,-58.5 251,-58.5 251,-37.5 445,-37.5 445,-58.5"/>
<text text-anchor="middle" x="348" y="-45.5" font-family="Vera" font-size="10.00">topo.base.simulation.EventProcessor</text>
</g>
<!-- param.parameterized.Parameterized&#45;&gt;topo.base.simulation.EventProcessor -->
<g id="edge26" class="edge"><title>param.parameterized.Parameterized&#45;&gt;topo.base.simulation.EventProcessor</title>
<path fill="none" stroke="black" stroke-width="0.5" d="M116.274,-113.949C141.663,-101.132 188.018,-79.1752 230,-67 240.715,-63.8926 252.134,-61.2523 263.489,-59.0201"/>
<polygon fill="black" stroke="black" points="264.117,-60.6817 268.698,-58.0229 263.459,-57.2441 264.117,-60.6817"/>
</g>
<!-- topo.base.cf.CFPRF_Plugin -->
<g id="node34" class="node"><title>topo.base.cf.CFPRF_Plugin</title>
<polygon fill="none" stroke="black" stroke-width="0.5" points="655,-172.5 515,-172.5 515,-151.5 655,-151.5 655,-172.5"/>
<text text-anchor="middle" x="585" y="-159.5" font-family="Vera" font-size="10.00">topo.base.cf.CFPRF_Plugin</text>
</g>
<!-- topo.base.cf.CFPResponseFn&#45;&gt;topo.base.cf.CFPRF_Plugin -->
<g id="edge28" class="edge"><title>topo.base.cf.CFPResponseFn&#45;&gt;topo.base.cf.CFPRF_Plugin</title>
<path fill="none" stroke="black" stroke-width="0.5" d="M424.62,-162C451.738,-162 482.215,-162 509.259,-162"/>
<polygon fill="black" stroke="black" points="509.268,-163.75 514.268,-162 509.268,-160.25 509.268,-163.75"/>
</g>
<!-- topo.base.cf.CFIter -->
<g id="node10" class="node"><title>topo.base.cf.CFIter</title>
<polygon fill="none" stroke="black" stroke-width="0.5" points="150,-172.5 44,-172.5 44,-151.5 150,-151.5 150,-172.5"/>
<text text-anchor="middle" x="97" y="-159.5" font-family="Vera" font-size="10.00">topo.base.cf.CFIter</text>
</g>
<!-- topo.base.projection.ProjectionSheet -->
<g id="node12" class="node"><title>topo.base.projection.ProjectionSheet</title>
<polygon fill="none" stroke="black" stroke-width="0.5" points="898,-20.5 704,-20.5 704,0.5 898,0.5 898,-20.5"/>
<text text-anchor="middle" x="801" y="-7.5" font-family="Vera" font-size="10.00">topo.base.projection.ProjectionSheet</text>
</g>
<!-- topo.base.cf.CFSheet -->
<g id="node29" class="node"><title>topo.base.cf.CFSheet</title>
<polygon fill="none" stroke="black" stroke-width="0.5" points="1084,-20.5 966,-20.5 966,0.5 1084,0.5 1084,-20.5"/>
<text text-anchor="middle" x="1025" y="-7.5" font-family="Vera" font-size="10.00">topo.base.cf.CFSheet</text>
</g>
<!-- topo.base.projection.ProjectionSheet&#45;&gt;topo.base.cf.CFSheet -->
<g id="edge24" class="edge"><title>topo.base.projection.ProjectionSheet&#45;&gt;topo.base.cf.CFSheet</title>
<path fill="none" stroke="black" stroke-width="0.5" d="M898.272,-10C919.101,-10 940.622,-10 959.885,-10"/>
<polygon fill="black" stroke="black" points="960.255,-11.7501 965.255,-10 960.255,-8.25009 960.255,-11.7501"/>
</g>
<!-- topo.base.sheet.Sheet -->
<g id="node13" class="node"><title>topo.base.sheet.Sheet</title>
<polygon fill="none" stroke="black" stroke-width="0.5" points="648,-20.5 522,-20.5 522,0.5 648,0.5 648,-20.5"/>
<text text-anchor="middle" x="585" y="-7.5" font-family="Vera" font-size="10.00">topo.base.sheet.Sheet</text>
</g>
<!-- topo.base.sheet.Sheet&#45;&gt;topo.base.projection.ProjectionSheet -->
<g id="edge10" class="edge"><title>topo.base.sheet.Sheet&#45;&gt;topo.base.projection.ProjectionSheet</title>
<path fill="none" stroke="black" stroke-width="0.5" d="M648.057,-10C663.856,-10 681.216,-10 698.394,-10"/>
<polygon fill="black" stroke="black" points="698.717,-11.7501 703.717,-10 698.717,-8.25009 698.717,-11.7501"/>
</g>
<!-- topo.base.cf.ConnectionField -->
<g id="node17" class="node"><title>topo.base.cf.ConnectionField</title>
<polygon fill="none" stroke="black" stroke-width="0.5" points="173,-210.5 21,-210.5 21,-189.5 173,-189.5 173,-210.5"/>
<text text-anchor="middle" x="97" y="-197.5" font-family="Vera" font-size="10.00">topo.base.cf.ConnectionField</text>
</g>
<!-- imagen.sheetcoords.SheetCoordinateSystem -->
<g id="node18" class="node"><title>imagen.sheetcoords.SheetCoordinateSystem</title>
<polygon fill="none" stroke="black" stroke-width="0.5" points="466,-20.5 230,-20.5 230,0.5 466,0.5 466,-20.5"/>
<text text-anchor="middle" x="348" y="-7.5" font-family="Vera" font-size="10.00">imagen.sheetcoords.SheetCoordinateSystem</text>
</g>
<!-- imagen.sheetcoords.SheetCoordinateSystem&#45;&gt;topo.base.sheet.Sheet -->
<g id="edge34" class="edge"><title>imagen.sheetcoords.SheetCoordinateSystem&#45;&gt;topo.base.sheet.Sheet</title>
<path fill="none" stroke="black" stroke-width="0.5" d="M466.153,-10C483.445,-10 500.748,-10 516.587,-10"/>
<polygon fill="black" stroke="black" points="516.901,-11.7501 521.901,-10 516.9,-8.25009 516.901,-11.7501"/>
</g>
<!-- topo.base.cf.CFPLF_Identity -->
<g id="node23" class="node"><title>topo.base.cf.CFPLF_Identity</title>
<polygon fill="none" stroke="black" stroke-width="0.5" points="658,-134.5 512,-134.5 512,-113.5 658,-113.5 658,-134.5"/>
<text text-anchor="middle" x="585" y="-121.5" font-family="Vera" font-size="10.00">topo.base.cf.CFPLF_Identity</text>
</g>
<!-- topo.base.cf.CFPLearningFn&#45;&gt;topo.base.cf.CFPLF_Identity -->
<g id="edge18" class="edge"><title>topo.base.cf.CFPLearningFn&#45;&gt;topo.base.cf.CFPLF_Identity</title>
<path fill="none" stroke="black" stroke-width="0.5" d="M422.663,-124C449.121,-124 478.973,-124 505.796,-124"/>
<polygon fill="black" stroke="black" points="506.118,-125.75 511.118,-124 506.118,-122.25 506.118,-125.75"/>
</g>
<!-- topo.base.cf.CFPLF_Plugin -->
<g id="node25" class="node"><title>topo.base.cf.CFPLF_Plugin</title>
<polygon fill="none" stroke="black" stroke-width="0.5" points="655,-96.5 515,-96.5 515,-75.5 655,-75.5 655,-96.5"/>
<text text-anchor="middle" x="585" y="-83.5" font-family="Vera" font-size="10.00">topo.base.cf.CFPLF_Plugin</text>
</g>
<!-- topo.base.cf.CFPLearningFn&#45;&gt;topo.base.cf.CFPLF_Plugin -->
<g id="edge20" class="edge"><title>topo.base.cf.CFPLearningFn&#45;&gt;topo.base.cf.CFPLF_Plugin</title>
<path fill="none" stroke="black" stroke-width="0.5" d="M410.579,-113.966C443.384,-108.706 483.607,-102.257 517.157,-96.8779"/>
<polygon fill="black" stroke="black" points="517.822,-98.5436 522.482,-96.024 517.268,-95.0878 517.822,-98.5436"/>
</g>
<!-- topo.base.simulation.EPConnection&#45;&gt;topo.base.projection.Projection -->
<g id="edge30" class="edge"><title>topo.base.simulation.EPConnection&#45;&gt;topo.base.projection.Projection</title>
<path fill="none" stroke="black" stroke-width="0.5" d="M410.579,-75.9662C443.384,-70.7064 483.607,-64.2571 517.157,-58.8779"/>
<polygon fill="black" stroke="black" points="517.822,-60.5436 522.482,-58.024 517.268,-57.0878 517.822,-60.5436"/>
</g>
<!-- topo.base.simulation.EventProcessor&#45;&gt;topo.base.sheet.Sheet -->
<g id="edge32" class="edge"><title>topo.base.simulation.EventProcessor&#45;&gt;topo.base.sheet.Sheet</title>
<path fill="none" stroke="black" stroke-width="0.5" d="M410.579,-37.9662C443.384,-32.7064 483.607,-26.2571 517.157,-20.8779"/>
<polygon fill="black" stroke="black" points="517.822,-22.5436 522.482,-20.024 517.268,-19.0878 517.822,-22.5436"/>
</g>
<!-- topo.base.cf.NullCFError -->
<g id="node33" class="node"><title>topo.base.cf.NullCFError</title>
<polygon fill="none" stroke="black" stroke-width="0.5" points="162,-248.5 32,-248.5 32,-227.5 162,-227.5 162,-248.5"/>
<text text-anchor="middle" x="97" y="-235.5" font-family="Vera" font-size="10.00">topo.base.cf.NullCFError</text>
</g>
</g>
</svg>
