<?xml version="1.0" encoding="UTF-8" standalone="no"?>
<!DOCTYPE svg PUBLIC "-//W3C//DTD SVG 1.1//EN"
 "http://www.w3.org/Graphics/SVG/1.1/DTD/svg11.dtd">
<!-- Generated by graphviz version 2.26.3 (20100126.1600)
 -->
<!-- Title: inheritance0bce68b9cf Pages: 1 -->
<svg width="1432pt" height="123pt"
 viewBox="0.00 0.00 1432.00 123.00" xmlns="http://www.w3.org/2000/svg" xmlns:xlink="http://www.w3.org/1999/xlink">
<g id="graph1" class="graph" transform="scale(1 1) rotate(0) translate(4 119)">
<title>inheritance0bce68b9cf</title>
<polygon fill="white" stroke="white" points="-4,5 -4,-119 1429,-119 1429,5 -4,5"/>
<!-- topo.command.analysis.update_projectionactivity -->
<g id="node1" class="node"><title>topo.command.analysis.update_projectionactivity</title>
<polygon fill="none" stroke="black" stroke-width="0.5" points="1127,-115.5 873,-115.5 873,-94.5 1127,-94.5 1127,-115.5"/>
<text text-anchor="middle" x="1000" y="-102.5" font-family="Vera" font-size="10.00">topo.command.analysis.update_projectionactivity</text>
</g>
<!-- topo.command.analysis.ProjectionSheetMeasurementCommand -->
<g id="node2" class="node"><title>topo.command.analysis.ProjectionSheetMeasurementCommand</title>
<polygon fill="none" stroke="black" stroke-width="0.5" points="827,-96.5 501,-96.5 501,-75.5 827,-75.5 827,-96.5"/>
<text text-anchor="middle" x="664" y="-83.5" font-family="Vera" font-size="10.00">topo.command.analysis.ProjectionSheetMeasurementCommand</text>
</g>
<!-- topo.command.analysis.ProjectionSheetMeasurementCommand&#45;&gt;topo.command.analysis.update_projectionactivity -->
<g id="edge2" class="edge"><title>topo.command.analysis.ProjectionSheetMeasurementCommand&#45;&gt;topo.command.analysis.update_projectionactivity</title>
<path fill="none" stroke="black" stroke-width="0.5" d="M827.571,-95.2495C840.978,-96.0077 854.424,-96.768 867.565,-97.5111"/>
<polygon fill="black" stroke="black" points="867.69,-99.2709 872.781,-97.8061 867.888,-95.7765 867.69,-99.2709"/>
</g>
<!-- topo.command.analysis.UnitMeasurementCommand -->
<g id="node5" class="node"><title>topo.command.analysis.UnitMeasurementCommand</title>
<polygon fill="none" stroke="black" stroke-width="0.5" points="1135,-77.5 865,-77.5 865,-56.5 1135,-56.5 1135,-77.5"/>
<text text-anchor="middle" x="1000" y="-64.5" font-family="Vera" font-size="10.00">topo.command.analysis.UnitMeasurementCommand</text>
</g>
<!-- topo.command.analysis.ProjectionSheetMeasurementCommand&#45;&gt;topo.command.analysis.UnitMeasurementCommand -->
<g id="edge16" class="edge"><title>topo.command.analysis.ProjectionSheetMeasurementCommand&#45;&gt;topo.command.analysis.UnitMeasurementCommand</title>
<path fill="none" stroke="black" stroke-width="0.5" d="M827.571,-76.7505C838.184,-76.1503 848.821,-75.5488 859.312,-74.9556"/>
<polygon fill="black" stroke="black" points="859.557,-76.6946 864.45,-74.665 859.359,-73.2002 859.557,-76.6946"/>
</g>
<!-- topo.command.analysis.update_projection -->
<g id="node4" class="node"><title>topo.command.analysis.update_projection</title>
<polygon fill="none" stroke="black" stroke-width="0.5" points="1408,-96.5 1188,-96.5 1188,-75.5 1408,-75.5 1408,-96.5"/>
<text text-anchor="middle" x="1298" y="-83.5" font-family="Vera" font-size="10.00">topo.command.analysis.update_projection</text>
</g>
<!-- topo.command.analysis.UnitMeasurementCommand&#45;&gt;topo.command.analysis.update_projection -->
<g id="edge4" class="edge"><title>topo.command.analysis.UnitMeasurementCommand&#45;&gt;topo.command.analysis.update_projection</title>
<path fill="none" stroke="black" stroke-width="0.5" d="M1135.92,-75.666C1151.37,-76.6508 1167,-77.6477 1182.15,-78.6139"/>
<polygon fill="black" stroke="black" points="1182.17,-80.3685 1187.27,-78.9403 1182.4,-76.8756 1182.17,-80.3685"/>
</g>
<!-- topo.command.analysis.update_connectionfields -->
<g id="node11" class="node"><title>topo.command.analysis.update_connectionfields</title>
<polygon fill="none" stroke="black" stroke-width="0.5" points="1423,-58.5 1173,-58.5 1173,-37.5 1423,-37.5 1423,-58.5"/>
<text text-anchor="middle" x="1298" y="-45.5" font-family="Vera" font-size="10.00">topo.command.analysis.update_connectionfields</text>
</g>
<!-- topo.command.analysis.UnitMeasurementCommand&#45;&gt;topo.command.analysis.update_connectionfields -->
<g id="edge10" class="edge"><title>topo.command.analysis.UnitMeasurementCommand&#45;&gt;topo.command.analysis.update_connectionfields</title>
<path fill="none" stroke="black" stroke-width="0.5" d="M1135.92,-58.334C1146.34,-57.6695 1156.85,-56.9996 1167.24,-56.3373"/>
<polygon fill="black" stroke="black" points="1167.45,-58.0775 1172.32,-56.0129 1167.22,-54.5846 1167.45,-58.0775"/>
</g>
<!-- topo.command.analysis.measure_projection -->
<g id="node7" class="node"><title>topo.command.analysis.measure_projection</title>
<polygon fill="none" stroke="black" stroke-width="0.5" points="779,-58.5 549,-58.5 549,-37.5 779,-37.5 779,-58.5"/>
<text text-anchor="middle" x="664" y="-45.5" font-family="Vera" font-size="10.00">topo.command.analysis.measure_projection</text>
</g>
<!-- param.parameterized.ParameterizedFunction -->
<g id="node8" class="node"><title>param.parameterized.ParameterizedFunction</title>
<polygon fill="none" stroke="black" stroke-width="0.5" points="464,-58.5 230,-58.5 230,-37.5 464,-37.5 464,-58.5"/>
<text text-anchor="middle" x="347" y="-45.5" font-family="Vera" font-size="10.00">param.parameterized.ParameterizedFunction</text>
</g>
<!-- param.parameterized.ParameterizedFunction&#45;&gt;topo.command.analysis.ProjectionSheetMeasurementCommand -->
<g id="edge8" class="edge"><title>param.parameterized.ParameterizedFunction&#45;&gt;topo.command.analysis.ProjectionSheetMeasurementCommand</title>
<path fill="none" stroke="black" stroke-width="0.5" d="M426.79,-58.0343C450.36,-60.9644 476.215,-64.1454 500,-67 523.018,-69.7625 547.862,-72.6761 571.08,-75.3694"/>
<polygon fill="black" stroke="black" points="571.151,-77.1392 576.319,-75.9766 571.554,-73.6625 571.151,-77.1392"/>
</g>
<!-- param.parameterized.ParameterizedFunction&#45;&gt;topo.command.analysis.measure_projection -->
<g id="edge6" class="edge"><title>param.parameterized.ParameterizedFunction&#45;&gt;topo.command.analysis.measure_projection</title>
<path fill="none" stroke="black" stroke-width="0.5" d="M464.138,-48C490.098,-48 517.649,-48 543.731,-48"/>
<polygon fill="black" stroke="black" points="543.927,-49.7501 548.927,-48 543.927,-46.2501 543.927,-49.7501"/>
</g>
<!-- topo.command.analysis.measure_cog -->
<g id="node15" class="node"><title>topo.command.analysis.measure_cog</title>
<polygon fill="none" stroke="black" stroke-width="0.5" points="764,-20.5 564,-20.5 564,0.5 764,0.5 764,-20.5"/>
<text text-anchor="middle" x="664" y="-7.5" font-family="Vera" font-size="10.00">topo.command.analysis.measure_cog</text>
</g>
<!-- param.parameterized.ParameterizedFunction&#45;&gt;topo.command.analysis.measure_cog -->
<g id="edge14" class="edge"><title>param.parameterized.ParameterizedFunction&#45;&gt;topo.command.analysis.measure_cog</title>
<path fill="none" stroke="black" stroke-width="0.5" d="M426.79,-37.9657C450.36,-35.0356 476.215,-31.8546 500,-29 523.018,-26.2375 547.862,-23.3239 571.08,-20.6306"/>
<polygon fill="black" stroke="black" points="571.554,-22.3375 576.319,-20.0234 571.151,-18.8608 571.554,-22.3375"/>
</g>
<!-- param.parameterized.Parameterized -->
<g id="node13" class="node"><title>param.parameterized.Parameterized</title>
<polygon fill="none" stroke="black" stroke-width="0.5" points="194,-58.5 5.68434e-14,-58.5 0,-37.5 194,-37.5 194,-58.5"/>
<text text-anchor="middle" x="97" y="-45.5" font-family="Vera" font-size="10.00">param.parameterized.Parameterized</text>
</g>
<!-- param.parameterized.Parameterized&#45;&gt;param.parameterized.ParameterizedFunction -->
<g id="edge12" class="edge"><title>param.parameterized.Parameterized&#45;&gt;param.parameterized.ParameterizedFunction</title>
<path fill="none" stroke="black" stroke-width="0.5" d="M194.014,-48C204.04,-48 214.319,-48 224.575,-48"/>
<polygon fill="black" stroke="black" points="224.607,-49.7501 229.607,-48 224.607,-46.2501 224.607,-49.7501"/>
</g>
</g>
</svg>
