<?xml version="1.0" encoding="UTF-8" standalone="no"?>
<!DOCTYPE svg PUBLIC "-//W3C//DTD SVG 1.1//EN"
 "http://www.w3.org/Graphics/SVG/1.1/DTD/svg11.dtd">
<!-- Generated by graphviz version 2.26.3 (20100126.1600)
 -->
<!-- Title: inheritance0bce68b9cf Pages: 1 -->
<svg width="1872pt" height="474pt"
 viewBox="0.00 0.00 1872.00 474.00" xmlns="http://www.w3.org/2000/svg" xmlns:xlink="http://www.w3.org/1999/xlink">
<g id="graph1" class="graph" transform="scale(1 1) rotate(0) translate(4 470)">
<title>inheritance0bce68b9cf</title>
<polygon fill="white" stroke="white" points="-4,5 -4,-470 1869,-470 1869,5 -4,5"/>
<!-- imagen.patterngenerator.PatternGenerator -->
<g id="node1" class="node"><title>imagen.patterngenerator.PatternGenerator</title>
<polygon fill="none" stroke="black" stroke-width="0.5" points="459,-200.5 235,-200.5 235,-179.5 459,-179.5 459,-200.5"/>
<text text-anchor="middle" x="347" y="-187.5" font-family="Vera" font-size="10.00">imagen.patterngenerator.PatternGenerator</text>
</g>
<!-- topo.command.analysis.frequency_mapper -->
<g id="node30" class="node"><title>topo.command.analysis.frequency_mapper</title>
<polygon fill="none" stroke="black" stroke-width="0.5" points="773,-267.5 549,-267.5 549,-246.5 773,-246.5 773,-267.5"/>
<text text-anchor="middle" x="661" y="-254.5" font-family="Vera" font-size="10.00">topo.command.analysis.frequency_mapper</text>
</g>
<!-- imagen.patterngenerator.PatternGenerator&#45;&gt;topo.command.analysis.frequency_mapper -->
<g id="edge28" class="edge"><title>imagen.patterngenerator.PatternGenerator&#45;&gt;topo.command.analysis.frequency_mapper</title>
<path fill="none" stroke="black" stroke-width="0.5" d="M373.678,-200.042C403.893,-211.02 454.81,-228.333 500,-238 515.084,-241.227 531.088,-243.942 546.927,-246.218"/>
<polygon fill="black" stroke="black" points="547.096,-248.009 552.291,-246.973 547.584,-244.543 547.096,-248.009"/>
</g>
<!-- topo.command.analysis.latency_mapper -->
<g id="node39" class="node"><title>topo.command.analysis.latency_mapper</title>
<polygon fill="none" stroke="black" stroke-width="0.5" points="767,-229.5 555,-229.5 555,-208.5 767,-208.5 767,-229.5"/>
<text text-anchor="middle" x="661" y="-216.5" font-family="Vera" font-size="10.00">topo.command.analysis.latency_mapper</text>
</g>
<!-- imagen.patterngenerator.PatternGenerator&#45;&gt;topo.command.analysis.latency_mapper -->
<g id="edge38" class="edge"><title>imagen.patterngenerator.PatternGenerator&#45;&gt;topo.command.analysis.latency_mapper</title>
<path fill="none" stroke="black" stroke-width="0.5" d="M455.501,-200.021C485.915,-202.83 519.022,-205.887 549.602,-208.712"/>
<polygon fill="black" stroke="black" points="549.743,-210.482 554.882,-209.199 550.065,-206.997 549.743,-210.482"/>
</g>
<!-- topo.command.analysis.log_frequency_mapper -->
<g id="node47" class="node"><title>topo.command.analysis.log_frequency_mapper</title>
<polygon fill="none" stroke="black" stroke-width="0.5" points="783,-191.5 539,-191.5 539,-170.5 783,-170.5 783,-191.5"/>
<text text-anchor="middle" x="661" y="-178.5" font-family="Vera" font-size="10.00">topo.command.analysis.log_frequency_mapper</text>
</g>
<!-- imagen.patterngenerator.PatternGenerator&#45;&gt;topo.command.analysis.log_frequency_mapper -->
<g id="edge46" class="edge"><title>imagen.patterngenerator.PatternGenerator&#45;&gt;topo.command.analysis.log_frequency_mapper</title>
<path fill="none" stroke="black" stroke-width="0.5" d="M459.031,-186.789C483.203,-186.096 508.927,-185.359 533.635,-184.651"/>
<polygon fill="black" stroke="black" points="533.943,-186.393 538.891,-184.5 533.843,-182.894 533.943,-186.393"/>
</g>
<!-- param.parameterized.Parameterized -->
<g id="node2" class="node"><title>param.parameterized.Parameterized</title>
<polygon fill="none" stroke="black" stroke-width="0.5" points="194,-143.5 5.68434e-14,-143.5 0,-122.5 194,-122.5 194,-143.5"/>
<text text-anchor="middle" x="97" y="-130.5" font-family="Vera" font-size="10.00">param.parameterized.Parameterized</text>
</g>
<!-- param.parameterized.Parameterized&#45;&gt;imagen.patterngenerator.PatternGenerator -->
<g id="edge2" class="edge"><title>param.parameterized.Parameterized&#45;&gt;imagen.patterngenerator.PatternGenerator</title>
<path fill="none" stroke="black" stroke-width="0.5" d="M141.12,-143.059C185.075,-153.081 252.414,-168.434 298.007,-178.83"/>
<polygon fill="black" stroke="black" points="297.638,-180.54 302.902,-179.946 298.416,-177.128 297.638,-180.54"/>
</g>
<!-- param.parameterized.ParameterizedFunction -->
<g id="node22" class="node"><title>param.parameterized.ParameterizedFunction</title>
<polygon fill="none" stroke="black" stroke-width="0.5" points="464,-143.5 230,-143.5 230,-122.5 464,-122.5 464,-143.5"/>
<text text-anchor="middle" x="347" y="-130.5" font-family="Vera" font-size="10.00">param.parameterized.ParameterizedFunction</text>
</g>
<!-- param.parameterized.Parameterized&#45;&gt;param.parameterized.ParameterizedFunction -->
<g id="edge24" class="edge"><title>param.parameterized.Parameterized&#45;&gt;param.parameterized.ParameterizedFunction</title>
<path fill="none" stroke="black" stroke-width="0.5" d="M194.014,-133C204.04,-133 214.319,-133 224.575,-133"/>
<polygon fill="black" stroke="black" points="224.607,-134.75 229.607,-133 224.607,-131.25 224.607,-134.75"/>
</g>
<!-- topo.command.analysis.PatternPresenter2 -->
<g id="node24" class="node"><title>topo.command.analysis.PatternPresenter2</title>
<polygon fill="none" stroke="black" stroke-width="0.5" points="457,-105.5 237,-105.5 237,-84.5 457,-84.5 457,-105.5"/>
<text text-anchor="middle" x="347" y="-92.5" font-family="Vera" font-size="10.00">topo.command.analysis.PatternPresenter2</text>
</g>
<!-- param.parameterized.Parameterized&#45;&gt;topo.command.analysis.PatternPresenter2 -->
<g id="edge20" class="edge"><title>param.parameterized.Parameterized&#45;&gt;topo.command.analysis.PatternPresenter2</title>
<path fill="none" stroke="black" stroke-width="0.5" d="M163.012,-122.966C197.758,-117.685 240.394,-111.204 275.872,-105.811"/>
<polygon fill="black" stroke="black" points="276.372,-107.506 281.052,-105.024 275.846,-104.045 276.372,-107.506"/>
</g>
<!-- topo.command.analysis.update_connectionfields -->
<g id="node4" class="node"><title>topo.command.analysis.update_connectionfields</title>
<polygon fill="none" stroke="black" stroke-width="0.5" points="1505,-58.5 1255,-58.5 1255,-37.5 1505,-37.5 1505,-58.5"/>
<text text-anchor="middle" x="1380" y="-45.5" font-family="Vera" font-size="10.00">topo.command.analysis.update_connectionfields</text>
</g>
<!-- topo.plotting.plotgroup.UnitMeasurementCommand -->
<g id="node5" class="node"><title>topo.plotting.plotgroup.UnitMeasurementCommand</title>
<polygon fill="none" stroke="black" stroke-width="0.5" points="1145,-58.5 879,-58.5 879,-37.5 1145,-37.5 1145,-58.5"/>
<text text-anchor="middle" x="1012" y="-45.5" font-family="Vera" font-size="10.00">topo.plotting.plotgroup.UnitMeasurementCommand</text>
</g>
<!-- topo.plotting.plotgroup.UnitMeasurementCommand&#45;&gt;topo.command.analysis.update_connectionfields -->
<g id="edge4" class="edge"><title>topo.plotting.plotgroup.UnitMeasurementCommand&#45;&gt;topo.command.analysis.update_connectionfields</title>
<path fill="none" stroke="black" stroke-width="0.5" d="M1145.12,-48C1178.91,-48 1215.19,-48 1248.88,-48"/>
<polygon fill="black" stroke="black" points="1249.27,-49.7501 1254.27,-48 1249.27,-46.2501 1249.27,-49.7501"/>
</g>
<!-- topo.command.analysis.update_projection -->
<g id="node43" class="node"><title>topo.command.analysis.update_projection</title>
<polygon fill="none" stroke="black" stroke-width="0.5" points="1490,-20.5 1270,-20.5 1270,0.5 1490,0.5 1490,-20.5"/>
<text text-anchor="middle" x="1380" y="-7.5" font-family="Vera" font-size="10.00">topo.command.analysis.update_projection</text>
</g>
<!-- topo.plotting.plotgroup.UnitMeasurementCommand&#45;&gt;topo.command.analysis.update_projection -->
<g id="edge42" class="edge"><title>topo.plotting.plotgroup.UnitMeasurementCommand&#45;&gt;topo.command.analysis.update_projection</title>
<path fill="none" stroke="black" stroke-width="0.5" d="M1109.17,-37.9662C1161.15,-32.5982 1225.14,-25.9912 1277.86,-20.5472"/>
<polygon fill="black" stroke="black" points="1278.13,-22.2785 1282.93,-20.024 1277.77,-18.797 1278.13,-22.2785"/>
</g>
<!-- topo.analysis.featureresponses.SinusoidalMeasureResponseCommand -->
<g id="node7" class="node"><title>topo.analysis.featureresponses.SinusoidalMeasureResponseCommand</title>
<polygon fill="none" stroke="black" stroke-width="0.5" points="1558,-333.5 1202,-333.5 1202,-312.5 1558,-312.5 1558,-333.5"/>
<text text-anchor="middle" x="1380" y="-320.5" font-family="Vera" font-size="10.00">topo.analysis.featureresponses.SinusoidalMeasureResponseCommand</text>
</g>
<!-- topo.command.analysis.measure_phasedisparity -->
<g id="node10" class="node"><title>topo.command.analysis.measure_phasedisparity</title>
<polygon fill="none" stroke="black" stroke-width="0.5" points="1855,-466.5 1603,-466.5 1603,-445.5 1855,-445.5 1855,-466.5"/>
<text text-anchor="middle" x="1729" y="-453.5" font-family="Vera" font-size="10.00">topo.command.analysis.measure_phasedisparity</text>
</g>
<!-- topo.analysis.featureresponses.SinusoidalMeasureResponseCommand&#45;&gt;topo.command.analysis.measure_phasedisparity -->
<g id="edge8" class="edge"><title>topo.analysis.featureresponses.SinusoidalMeasureResponseCommand&#45;&gt;topo.command.analysis.measure_phasedisparity</title>
<path fill="none" stroke="black" stroke-width="0.5" d="M1394.75,-333.238C1428.36,-356.021 1513.94,-410.944 1594,-437 1603.57,-440.116 1613.69,-442.721 1623.91,-444.899"/>
<polygon fill="black" stroke="black" points="1623.69,-446.639 1628.94,-445.934 1624.39,-443.211 1623.69,-446.639"/>
</g>
<!-- topo.command.analysis.measure_hue_pref -->
<g id="node19" class="node"><title>topo.command.analysis.measure_hue_pref</title>
<polygon fill="none" stroke="black" stroke-width="0.5" points="1841,-428.5 1617,-428.5 1617,-407.5 1841,-407.5 1841,-428.5"/>
<text text-anchor="middle" x="1729" y="-415.5" font-family="Vera" font-size="10.00">topo.command.analysis.measure_hue_pref</text>
</g>
<!-- topo.analysis.featureresponses.SinusoidalMeasureResponseCommand&#45;&gt;topo.command.analysis.measure_hue_pref -->
<g id="edge16" class="edge"><title>topo.analysis.featureresponses.SinusoidalMeasureResponseCommand&#45;&gt;topo.command.analysis.measure_hue_pref</title>
<path fill="none" stroke="black" stroke-width="0.5" d="M1403.28,-333.021C1442.08,-349.327 1522.78,-381.531 1594,-399 1606.9,-402.164 1620.63,-404.853 1634.2,-407.125"/>
<polygon fill="black" stroke="black" points="1633.98,-408.861 1639.2,-407.943 1634.55,-405.407 1633.98,-408.861"/>
</g>
<!-- topo.command.analysis.measure_od_pref -->
<g id="node28" class="node"><title>topo.command.analysis.measure_od_pref</title>
<polygon fill="none" stroke="black" stroke-width="0.5" points="1838,-390.5 1620,-390.5 1620,-369.5 1838,-369.5 1838,-390.5"/>
<text text-anchor="middle" x="1729" y="-377.5" font-family="Vera" font-size="10.00">topo.command.analysis.measure_od_pref</text>
</g>
<!-- topo.analysis.featureresponses.SinusoidalMeasureResponseCommand&#45;&gt;topo.command.analysis.measure_od_pref -->
<g id="edge26" class="edge"><title>topo.analysis.featureresponses.SinusoidalMeasureResponseCommand&#45;&gt;topo.command.analysis.measure_od_pref</title>
<path fill="none" stroke="black" stroke-width="0.5" d="M1433.56,-333.06C1476.79,-341.048 1539.22,-352.284 1594,-361 1611.84,-363.838 1631.04,-366.673 1649.21,-369.254"/>
<polygon fill="black" stroke="black" points="1649.11,-371.007 1654.3,-369.975 1649.6,-367.542 1649.11,-371.007"/>
</g>
<!-- topo.command.analysis.measure_dr_pref -->
<g id="node34" class="node"><title>topo.command.analysis.measure_dr_pref</title>
<polygon fill="none" stroke="black" stroke-width="0.5" points="1837,-352.5 1621,-352.5 1621,-331.5 1837,-331.5 1837,-352.5"/>
<text text-anchor="middle" x="1729" y="-339.5" font-family="Vera" font-size="10.00">topo.command.analysis.measure_dr_pref</text>
</g>
<!-- topo.analysis.featureresponses.SinusoidalMeasureResponseCommand&#45;&gt;topo.command.analysis.measure_dr_pref -->
<g id="edge32" class="edge"><title>topo.analysis.featureresponses.SinusoidalMeasureResponseCommand&#45;&gt;topo.command.analysis.measure_dr_pref</title>
<path fill="none" stroke="black" stroke-width="0.5" d="M1558.08,-332.695C1577.59,-333.757 1597.03,-334.816 1615.45,-335.818"/>
<polygon fill="black" stroke="black" points="1615.53,-337.575 1620.61,-336.099 1615.72,-334.08 1615.53,-337.575"/>
</g>
<!-- topo.command.analysis.measure_sine_pref -->
<g id="node36" class="node"><title>topo.command.analysis.measure_sine_pref</title>
<polygon fill="none" stroke="black" stroke-width="0.5" points="1842,-314.5 1616,-314.5 1616,-293.5 1842,-293.5 1842,-314.5"/>
<text text-anchor="middle" x="1729" y="-301.5" font-family="Vera" font-size="10.00">topo.command.analysis.measure_sine_pref</text>
</g>
<!-- topo.analysis.featureresponses.SinusoidalMeasureResponseCommand&#45;&gt;topo.command.analysis.measure_sine_pref -->
<g id="edge34" class="edge"><title>topo.analysis.featureresponses.SinusoidalMeasureResponseCommand&#45;&gt;topo.command.analysis.measure_sine_pref</title>
<path fill="none" stroke="black" stroke-width="0.5" d="M1558.08,-313.305C1575.9,-312.335 1593.67,-311.368 1610.64,-310.444"/>
<polygon fill="black" stroke="black" points="1610.99,-312.178 1615.88,-310.158 1610.79,-308.683 1610.99,-312.178"/>
</g>
<!-- topo.command.analysis.measure_or_pref -->
<g id="node58" class="node"><title>topo.command.analysis.measure_or_pref</title>
<polygon fill="none" stroke="black" stroke-width="0.5" points="1837,-276.5 1621,-276.5 1621,-255.5 1837,-255.5 1837,-276.5"/>
<text text-anchor="middle" x="1729" y="-263.5" font-family="Vera" font-size="10.00">topo.command.analysis.measure_or_pref</text>
</g>
<!-- topo.analysis.featureresponses.SinusoidalMeasureResponseCommand&#45;&gt;topo.command.analysis.measure_or_pref -->
<g id="edge58" class="edge"><title>topo.analysis.featureresponses.SinusoidalMeasureResponseCommand&#45;&gt;topo.command.analysis.measure_or_pref</title>
<path fill="none" stroke="black" stroke-width="0.5" d="M1433.56,-312.94C1476.79,-304.952 1539.22,-293.716 1594,-285 1611.84,-282.162 1631.04,-279.327 1649.21,-276.746"/>
<polygon fill="black" stroke="black" points="1649.6,-278.458 1654.3,-276.025 1649.11,-274.993 1649.6,-278.458"/>
</g>
<!-- topo.command.analysis.measure_second_or_pref -->
<g id="node60" class="node"><title>topo.command.analysis.measure_second_or_pref</title>
<polygon fill="none" stroke="black" stroke-width="0.5" points="1857,-238.5 1601,-238.5 1601,-217.5 1857,-217.5 1857,-238.5"/>
<text text-anchor="middle" x="1729" y="-225.5" font-family="Vera" font-size="10.00">topo.command.analysis.measure_second_or_pref</text>
</g>
<!-- topo.analysis.featureresponses.SinusoidalMeasureResponseCommand&#45;&gt;topo.command.analysis.measure_second_or_pref -->
<g id="edge60" class="edge"><title>topo.analysis.featureresponses.SinusoidalMeasureResponseCommand&#45;&gt;topo.command.analysis.measure_second_or_pref</title>
<path fill="none" stroke="black" stroke-width="0.5" d="M1406.17,-312.96C1454.71,-294.458 1557.14,-256.04 1594,-247 1606.9,-243.836 1620.63,-241.147 1634.2,-238.875"/>
<polygon fill="black" stroke="black" points="1634.55,-240.593 1639.2,-238.057 1633.98,-237.139 1634.55,-240.593"/>
</g>
<!-- topo.analysis.featureresponses.MeasureResponseCommand -->
<g id="node8" class="node"><title>topo.analysis.featureresponses.MeasureResponseCommand</title>
<polygon fill="none" stroke="black" stroke-width="0.5" points="1165,-172.5 859,-172.5 859,-151.5 1165,-151.5 1165,-172.5"/>
<text text-anchor="middle" x="1012" y="-159.5" font-family="Vera" font-size="10.00">topo.analysis.featureresponses.MeasureResponseCommand</text>
</g>
<!-- topo.analysis.featureresponses.MeasureResponseCommand&#45;&gt;topo.analysis.featureresponses.SinusoidalMeasureResponseCommand -->
<g id="edge6" class="edge"><title>topo.analysis.featureresponses.MeasureResponseCommand&#45;&gt;topo.analysis.featureresponses.SinusoidalMeasureResponseCommand</title>
<path fill="none" stroke="black" stroke-width="0.5" d="M1030.56,-172.126C1064.19,-190.289 1137.72,-229.11 1202,-257 1250.9,-278.217 1309.06,-298.969 1345.26,-311.375"/>
<polygon fill="black" stroke="black" points="1344.71,-313.034 1350,-312.995 1345.84,-309.722 1344.71,-313.034"/>
</g>
<!-- topo.command.analysis.measure_frequency_preference -->
<g id="node12" class="node"><title>topo.command.analysis.measure_frequency_preference</title>
<polygon fill="none" stroke="black" stroke-width="0.5" points="1523,-248.5 1237,-248.5 1237,-227.5 1523,-227.5 1523,-248.5"/>
<text text-anchor="middle" x="1380" y="-235.5" font-family="Vera" font-size="10.00">topo.command.analysis.measure_frequency_preference</text>
</g>
<!-- topo.analysis.featureresponses.MeasureResponseCommand&#45;&gt;topo.command.analysis.measure_frequency_preference -->
<g id="edge10" class="edge"><title>topo.analysis.featureresponses.MeasureResponseCommand&#45;&gt;topo.command.analysis.measure_frequency_preference</title>
<path fill="none" stroke="black" stroke-width="0.5" d="M1039.6,-172.042C1076.21,-184.955 1143.09,-207.126 1202,-219 1218.29,-222.283 1235.54,-225.024 1252.64,-227.305"/>
<polygon fill="black" stroke="black" points="1252.75,-229.085 1257.94,-227.999 1253.21,-225.615 1252.75,-229.085"/>
</g>
<!-- topo.analysis.featureresponses.SingleInputResponseCommand -->
<g id="node15" class="node"><title>topo.analysis.featureresponses.SingleInputResponseCommand</title>
<polygon fill="none" stroke="black" stroke-width="0.5" points="1539,-210.5 1221,-210.5 1221,-189.5 1539,-189.5 1539,-210.5"/>
<text text-anchor="middle" x="1380" y="-197.5" font-family="Vera" font-size="10.00">topo.analysis.featureresponses.SingleInputResponseCommand</text>
</g>
<!-- topo.analysis.featureresponses.MeasureResponseCommand&#45;&gt;topo.analysis.featureresponses.SingleInputResponseCommand -->
<g id="edge36" class="edge"><title>topo.analysis.featureresponses.MeasureResponseCommand&#45;&gt;topo.analysis.featureresponses.SingleInputResponseCommand</title>
<path fill="none" stroke="black" stroke-width="0.5" d="M1109.17,-172.034C1161.15,-177.402 1225.14,-184.009 1277.86,-189.453"/>
<polygon fill="black" stroke="black" points="1277.77,-191.203 1282.93,-189.976 1278.13,-187.722 1277.77,-191.203"/>
</g>
<!-- topo.command.analysis.measure_log_frequency_preference -->
<g id="node32" class="node"><title>topo.command.analysis.measure_log_frequency_preference</title>
<polygon fill="none" stroke="black" stroke-width="0.5" points="1533,-172.5 1227,-172.5 1227,-151.5 1533,-151.5 1533,-172.5"/>
<text text-anchor="middle" x="1380" y="-159.5" font-family="Vera" font-size="10.00">topo.command.analysis.measure_log_frequency_preference</text>
</g>
<!-- topo.analysis.featureresponses.MeasureResponseCommand&#45;&gt;topo.command.analysis.measure_log_frequency_preference -->
<g id="edge30" class="edge"><title>topo.analysis.featureresponses.MeasureResponseCommand&#45;&gt;topo.command.analysis.measure_log_frequency_preference</title>
<path fill="none" stroke="black" stroke-width="0.5" d="M1165.67,-162C1184.13,-162 1203.02,-162 1221.55,-162"/>
<polygon fill="black" stroke="black" points="1221.77,-163.75 1226.77,-162 1221.77,-160.25 1221.77,-163.75"/>
</g>
<!-- topo.analysis.featureresponses.PositionMeasurementCommand -->
<g id="node41" class="node"><title>topo.analysis.featureresponses.PositionMeasurementCommand</title>
<polygon fill="none" stroke="black" stroke-width="0.5" points="1542,-134.5 1218,-134.5 1218,-113.5 1542,-113.5 1542,-134.5"/>
<text text-anchor="middle" x="1380" y="-121.5" font-family="Vera" font-size="10.00">topo.analysis.featureresponses.PositionMeasurementCommand</text>
</g>
<!-- topo.analysis.featureresponses.MeasureResponseCommand&#45;&gt;topo.analysis.featureresponses.PositionMeasurementCommand -->
<g id="edge40" class="edge"><title>topo.analysis.featureresponses.MeasureResponseCommand&#45;&gt;topo.analysis.featureresponses.PositionMeasurementCommand</title>
<path fill="none" stroke="black" stroke-width="0.5" d="M1109.17,-151.966C1161.15,-146.598 1225.14,-139.991 1277.86,-134.547"/>
<polygon fill="black" stroke="black" points="1278.13,-136.278 1282.93,-134.024 1277.77,-132.797 1278.13,-136.278"/>
</g>
<!-- topo.command.analysis.measure_latency_preference -->
<g id="node49" class="node"><title>topo.command.analysis.measure_latency_preference</title>
<polygon fill="none" stroke="black" stroke-width="0.5" points="1517,-96.5 1243,-96.5 1243,-75.5 1517,-75.5 1517,-96.5"/>
<text text-anchor="middle" x="1380" y="-83.5" font-family="Vera" font-size="10.00">topo.command.analysis.measure_latency_preference</text>
</g>
<!-- topo.analysis.featureresponses.MeasureResponseCommand&#45;&gt;topo.command.analysis.measure_latency_preference -->
<g id="edge48" class="edge"><title>topo.analysis.featureresponses.MeasureResponseCommand&#45;&gt;topo.command.analysis.measure_latency_preference</title>
<path fill="none" stroke="black" stroke-width="0.5" d="M1039.6,-151.958C1076.21,-139.045 1143.09,-116.874 1202,-105 1218.29,-101.717 1235.54,-98.976 1252.64,-96.6945"/>
<polygon fill="black" stroke="black" points="1253.21,-98.385 1257.94,-96.0011 1252.75,-94.9146 1253.21,-98.385"/>
</g>
<!-- topo.command.analysis.measure_rfs -->
<g id="node14" class="node"><title>topo.command.analysis.measure_rfs</title>
<polygon fill="none" stroke="black" stroke-width="0.5" points="1826,-200.5 1632,-200.5 1632,-179.5 1826,-179.5 1826,-200.5"/>
<text text-anchor="middle" x="1729" y="-187.5" font-family="Vera" font-size="10.00">topo.command.analysis.measure_rfs</text>
</g>
<!-- topo.analysis.featureresponses.SingleInputResponseCommand&#45;&gt;topo.command.analysis.measure_rfs -->
<g id="edge12" class="edge"><title>topo.analysis.featureresponses.SingleInputResponseCommand&#45;&gt;topo.command.analysis.measure_rfs</title>
<path fill="none" stroke="black" stroke-width="0.5" d="M1539.69,-195.424C1569.26,-194.577 1599.4,-193.713 1626.68,-192.932"/>
<polygon fill="black" stroke="black" points="1626.8,-194.679 1631.74,-192.787 1626.7,-191.181 1626.8,-194.679"/>
</g>
<!-- topo.analysis.featureresponses.PatternPresentingCommand -->
<g id="node17" class="node"><title>topo.analysis.featureresponses.PatternPresentingCommand</title>
<polygon fill="none" stroke="black" stroke-width="0.5" points="813,-153.5 509,-153.5 509,-132.5 813,-132.5 813,-153.5"/>
<text text-anchor="middle" x="661" y="-140.5" font-family="Vera" font-size="10.00">topo.analysis.featureresponses.PatternPresentingCommand</text>
</g>
<!-- topo.analysis.featureresponses.PatternPresentingCommand&#45;&gt;topo.analysis.featureresponses.MeasureResponseCommand -->
<g id="edge14" class="edge"><title>topo.analysis.featureresponses.PatternPresentingCommand&#45;&gt;topo.analysis.featureresponses.MeasureResponseCommand</title>
<path fill="none" stroke="black" stroke-width="0.5" d="M813.677,-151.265C826.734,-151.971 839.963,-152.687 853.067,-153.397"/>
<polygon fill="black" stroke="black" points="853.19,-155.156 858.278,-153.679 853.38,-151.661 853.19,-155.156"/>
</g>
<!-- topo.command.analysis.save_plotgroup -->
<g id="node21" class="node"><title>topo.command.analysis.save_plotgroup</title>
<polygon fill="none" stroke="black" stroke-width="0.5" points="765,-115.5 557,-115.5 557,-94.5 765,-94.5 765,-115.5"/>
<text text-anchor="middle" x="661" y="-102.5" font-family="Vera" font-size="10.00">topo.command.analysis.save_plotgroup</text>
</g>
<!-- param.parameterized.ParameterizedFunction&#45;&gt;topo.analysis.featureresponses.PatternPresentingCommand -->
<g id="edge22" class="edge"><title>param.parameterized.ParameterizedFunction&#45;&gt;topo.analysis.featureresponses.PatternPresentingCommand</title>
<path fill="none" stroke="black" stroke-width="0.5" d="M464.369,-136.738C477.055,-137.142 490.112,-137.558 503.176,-137.974"/>
<polygon fill="black" stroke="black" points="503.324,-139.729 508.378,-138.139 503.436,-136.231 503.324,-139.729"/>
</g>
<!-- param.parameterized.ParameterizedFunction&#45;&gt;topo.command.analysis.save_plotgroup -->
<g id="edge18" class="edge"><title>param.parameterized.ParameterizedFunction&#45;&gt;topo.command.analysis.save_plotgroup</title>
<path fill="none" stroke="black" stroke-width="0.5" d="M459.474,-122.97C489.501,-120.293 521.896,-117.404 551.746,-114.742"/>
<polygon fill="black" stroke="black" points="552.075,-116.47 556.9,-114.283 551.764,-112.984 552.075,-116.47"/>
</g>
<!-- topo.plotting.plotgroup.ProjectionSheetMeasurementCommand -->
<g id="node45" class="node"><title>topo.plotting.plotgroup.ProjectionSheetMeasurementCommand</title>
<polygon fill="none" stroke="black" stroke-width="0.5" points="822,-58.5 500,-58.5 500,-37.5 822,-37.5 822,-58.5"/>
<text text-anchor="middle" x="661" y="-45.5" font-family="Vera" font-size="10.00">topo.plotting.plotgroup.ProjectionSheetMeasurementCommand</text>
</g>
<!-- param.parameterized.ParameterizedFunction&#45;&gt;topo.plotting.plotgroup.ProjectionSheetMeasurementCommand -->
<g id="edge52" class="edge"><title>param.parameterized.ParameterizedFunction&#45;&gt;topo.plotting.plotgroup.ProjectionSheetMeasurementCommand</title>
<path fill="none" stroke="black" stroke-width="0.5" d="M437.742,-122.934C446.796,-120.553 455.7,-117.618 464,-114 482.582,-105.901 481.717,-94.7511 500,-86 526.216,-73.452 556.865,-64.8864 584.346,-59.1155"/>
<polygon fill="black" stroke="black" points="584.892,-60.7899 589.438,-58.0701 584.188,-57.3614 584.892,-60.7899"/>
</g>
<!-- topo.command.analysis.measure_corner_angle_pref -->
<g id="node51" class="node"><title>topo.command.analysis.measure_corner_angle_pref</title>
<polygon fill="none" stroke="black" stroke-width="0.5" points="1863,-143.5 1595,-143.5 1595,-122.5 1863,-122.5 1863,-143.5"/>
<text text-anchor="middle" x="1729" y="-130.5" font-family="Vera" font-size="10.00">topo.command.analysis.measure_corner_angle_pref</text>
</g>
<!-- topo.analysis.featureresponses.PositionMeasurementCommand&#45;&gt;topo.command.analysis.measure_corner_angle_pref -->
<g id="edge50" class="edge"><title>topo.analysis.featureresponses.PositionMeasurementCommand&#45;&gt;topo.command.analysis.measure_corner_angle_pref</title>
<path fill="none" stroke="black" stroke-width="0.5" d="M1542.24,-128.184C1557.91,-128.588 1573.72,-128.996 1589.15,-129.393"/>
<polygon fill="black" stroke="black" points="1589.32,-131.148 1594.36,-129.528 1589.41,-127.65 1589.32,-131.148"/>
</g>
<!-- topo.command.analysis.measure_corner_or_pref -->
<g id="node54" class="node"><title>topo.command.analysis.measure_corner_or_pref</title>
<polygon fill="none" stroke="black" stroke-width="0.5" points="1855,-105.5 1603,-105.5 1603,-84.5 1855,-84.5 1855,-105.5"/>
<text text-anchor="middle" x="1729" y="-92.5" font-family="Vera" font-size="10.00">topo.command.analysis.measure_corner_or_pref</text>
</g>
<!-- topo.analysis.featureresponses.PositionMeasurementCommand&#45;&gt;topo.command.analysis.measure_corner_or_pref -->
<g id="edge54" class="edge"><title>topo.analysis.featureresponses.PositionMeasurementCommand&#45;&gt;topo.command.analysis.measure_corner_or_pref</title>
<path fill="none" stroke="black" stroke-width="0.5" d="M1500.59,-113.979C1533.7,-111.229 1569.67,-108.239 1603.06,-105.465"/>
<polygon fill="black" stroke="black" points="1603.56,-107.179 1608.4,-105.021 1603.27,-103.691 1603.56,-107.179"/>
</g>
<!-- topo.plotting.plotgroup.ProjectionSheetMeasurementCommand&#45;&gt;topo.plotting.plotgroup.UnitMeasurementCommand -->
<g id="edge44" class="edge"><title>topo.plotting.plotgroup.ProjectionSheetMeasurementCommand&#45;&gt;topo.plotting.plotgroup.UnitMeasurementCommand</title>
<path fill="none" stroke="black" stroke-width="0.5" d="M822.118,-48C839.348,-48 856.765,-48 873.698,-48"/>
<polygon fill="black" stroke="black" points="873.936,-49.7501 878.936,-48 873.936,-46.2501 873.936,-49.7501"/>
</g>
<!-- topo.command.analysis.update_projectionactivity -->
<g id="node56" class="node"><title>topo.command.analysis.update_projectionactivity</title>
<polygon fill="none" stroke="black" stroke-width="0.5" points="1139,-20.5 885,-20.5 885,0.5 1139,0.5 1139,-20.5"/>
<text text-anchor="middle" x="1012" y="-7.5" font-family="Vera" font-size="10.00">topo.command.analysis.update_projectionactivity</text>
</g>
<!-- topo.plotting.plotgroup.ProjectionSheetMeasurementCommand&#45;&gt;topo.command.analysis.update_projectionactivity -->
<g id="edge56" class="edge"><title>topo.plotting.plotgroup.ProjectionSheetMeasurementCommand&#45;&gt;topo.command.analysis.update_projectionactivity</title>
<path fill="none" stroke="black" stroke-width="0.5" d="M753.68,-37.9662C803.164,-32.609 864.045,-26.0179 914.273,-20.5801"/>
<polygon fill="black" stroke="black" points="914.627,-22.3021 919.409,-20.024 914.25,-18.8225 914.627,-22.3021"/>
</g>
</g>
</svg>
