<?xml version="1.0" encoding="UTF-8" standalone="no"?>
<!DOCTYPE svg PUBLIC "-//W3C//DTD SVG 1.1//EN"
 "http://www.w3.org/Graphics/SVG/1.1/DTD/svg11.dtd">
<!-- Generated by graphviz version 2.26.3 (20100126.1600)
 -->
<!-- Title: inheritance95afd34832 Pages: 1 -->
<svg width="1474pt" height="636pt"
 viewBox="0.00 0.00 1474.00 636.00" xmlns="http://www.w3.org/2000/svg" xmlns:xlink="http://www.w3.org/1999/xlink">
<g id="graph1" class="graph" transform="scale(1 1) rotate(0) translate(4 632)">
<title>inheritance95afd34832</title>
<polygon fill="white" stroke="white" points="-4,5 -4,-632 1471,-632 1471,5 -4,5"/>
<!-- param.parameterized.Parameterized -->
<g id="node1" class="node"><title>param.parameterized.Parameterized</title>
<polygon fill="none" stroke="black" stroke-width="0.5" points="406,-438.5 212,-438.5 212,-417.5 406,-417.5 406,-438.5"/>
<text text-anchor="middle" x="309" y="-425.5" font-family="Vera" font-size="10.00">param.parameterized.Parameterized</text>
</g>
<!-- paramtk.TkParameterizedBase -->
<g id="node3" class="node"><title>paramtk.TkParameterizedBase</title>
<polygon fill="none" stroke="black" stroke-width="0.5" points="606,-476.5 442,-476.5 442,-455.5 606,-455.5 606,-476.5"/>
<text text-anchor="middle" x="524" y="-463.5" font-family="Vera" font-size="10.00">paramtk.TkParameterizedBase</text>
</g>
<!-- param.parameterized.Parameterized&#45;&gt;paramtk.TkParameterizedBase -->
<g id="edge38" class="edge"><title>param.parameterized.Parameterized&#45;&gt;paramtk.TkParameterizedBase</title>
<path fill="none" stroke="black" stroke-width="0.5" d="M365.77,-438.034C395.407,-443.272 431.719,-449.69 462.078,-455.056"/>
<polygon fill="black" stroke="black" points="462.057,-456.829 467.285,-455.976 462.666,-453.382 462.057,-456.829"/>
</g>
<!-- paramtk.Representer -->
<g id="node58" class="node"><title>paramtk.Representer</title>
<polygon fill="none" stroke="black" stroke-width="0.5" points="583,-438.5 465,-438.5 465,-417.5 583,-417.5 583,-438.5"/>
<text text-anchor="middle" x="524" y="-425.5" font-family="Vera" font-size="10.00">paramtk.Representer</text>
</g>
<!-- param.parameterized.Parameterized&#45;&gt;paramtk.Representer -->
<g id="edge70" class="edge"><title>param.parameterized.Parameterized&#45;&gt;paramtk.Representer</title>
<path fill="none" stroke="black" stroke-width="0.5" d="M406.121,-428C424.274,-428 442.826,-428 459.679,-428"/>
<polygon fill="black" stroke="black" points="459.853,-429.75 464.853,-428 459.852,-426.25 459.853,-429.75"/>
</g>
<!-- paramtk.TkParameterized -->
<g id="node2" class="node"><title>paramtk.TkParameterized</title>
<polygon fill="none" stroke="black" stroke-width="0.5" points="787,-476.5 647,-476.5 647,-455.5 787,-455.5 787,-476.5"/>
<text text-anchor="middle" x="717" y="-463.5" font-family="Vera" font-size="10.00">paramtk.TkParameterized</text>
</g>
<!-- paramtk.ParametersFrame -->
<g id="node35" class="node"><title>paramtk.ParametersFrame</title>
<polygon fill="none" stroke="black" stroke-width="0.5" points="976,-476.5 830,-476.5 830,-455.5 976,-455.5 976,-476.5"/>
<text text-anchor="middle" x="903" y="-463.5" font-family="Vera" font-size="10.00">paramtk.ParametersFrame</text>
</g>
<!-- paramtk.TkParameterized&#45;&gt;paramtk.ParametersFrame -->
<g id="edge40" class="edge"><title>paramtk.TkParameterized&#45;&gt;paramtk.ParametersFrame</title>
<path fill="none" stroke="black" stroke-width="0.5" d="M787.054,-466C799.308,-466 812.13,-466 824.593,-466"/>
<polygon fill="black" stroke="black" points="824.909,-467.75 829.909,-466 824.909,-464.25 824.909,-467.75"/>
</g>
<!-- paramtk.TkParameterizedBase&#45;&gt;paramtk.TkParameterized -->
<g id="edge2" class="edge"><title>paramtk.TkParameterizedBase&#45;&gt;paramtk.TkParameterized</title>
<path fill="none" stroke="black" stroke-width="0.5" d="M606.129,-466C617.873,-466 629.908,-466 641.516,-466"/>
<polygon fill="black" stroke="black" points="641.817,-467.75 646.817,-466 641.817,-464.25 641.817,-467.75"/>
</g>
<!-- paramtk.HackFileEntry -->
<g id="node5" class="node"><title>paramtk.HackFileEntry</title>
<polygon fill="none" stroke="black" stroke-width="0.5" points="965,-400.5 841,-400.5 841,-379.5 965,-379.5 965,-400.5"/>
<text text-anchor="middle" x="903" y="-387.5" font-family="Vera" font-size="10.00">paramtk.HackFileEntry</text>
</g>
<!-- Tkinter.Frame -->
<g id="node6" class="node"><title>Tkinter.Frame</title>
<polygon fill="none" stroke="black" stroke-width="0.5" points="757,-305.5 677,-305.5 677,-284.5 757,-284.5 757,-305.5"/>
<text text-anchor="middle" x="717" y="-292.5" font-family="Vera" font-size="10.00">Tkinter.Frame</text>
</g>
<!-- Tkinter.Frame&#45;&gt;paramtk.HackFileEntry -->
<g id="edge4" class="edge"><title>Tkinter.Frame&#45;&gt;paramtk.HackFileEntry</title>
<path fill="none" stroke="black" stroke-width="0.5" d="M757.59,-299.466C769.5,-302.246 781.999,-306.742 792,-314 816.25,-331.599 803.75,-353.401 828,-371 831.672,-373.665 835.681,-375.958 839.875,-377.93"/>
<polygon fill="black" stroke="black" points="839.207,-379.548 844.489,-379.946 840.608,-376.341 839.207,-379.548"/>
</g>
<!-- paramtk.StatusBar -->
<g id="node24" class="node"><title>paramtk.StatusBar</title>
<polygon fill="none" stroke="black" stroke-width="0.5" points="957,-362.5 849,-362.5 849,-341.5 957,-341.5 957,-362.5"/>
<text text-anchor="middle" x="903" y="-349.5" font-family="Vera" font-size="10.00">paramtk.StatusBar</text>
</g>
<!-- Tkinter.Frame&#45;&gt;paramtk.StatusBar -->
<g id="edge18" class="edge"><title>Tkinter.Frame&#45;&gt;paramtk.StatusBar</title>
<path fill="none" stroke="black" stroke-width="0.5" d="M757.64,-303.428C768.936,-306.271 781.092,-309.808 792,-314 808.888,-320.489 811.112,-326.511 828,-333 835.372,-335.833 843.314,-338.367 851.175,-340.589"/>
<polygon fill="black" stroke="black" points="850.769,-342.293 856.054,-341.933 851.698,-338.918 850.769,-342.293"/>
</g>
<!-- paramtk.ScrolledFrame -->
<g id="node29" class="node"><title>paramtk.ScrolledFrame</title>
<polygon fill="none" stroke="black" stroke-width="0.5" points="967,-324.5 839,-324.5 839,-303.5 967,-303.5 967,-324.5"/>
<text text-anchor="middle" x="903" y="-311.5" font-family="Vera" font-size="10.00">paramtk.ScrolledFrame</text>
</g>
<!-- Tkinter.Frame&#45;&gt;paramtk.ScrolledFrame -->
<g id="edge22" class="edge"><title>Tkinter.Frame&#45;&gt;paramtk.ScrolledFrame</title>
<path fill="none" stroke="black" stroke-width="0.5" d="M757.818,-299.17C780.075,-301.443 808.227,-304.319 833.803,-306.931"/>
<polygon fill="black" stroke="black" points="833.73,-308.683 838.882,-307.45 834.085,-305.201 833.73,-308.683"/>
</g>
<!-- Tkinter.Frame&#45;&gt;paramtk.ParametersFrame -->
<g id="edge42" class="edge"><title>Tkinter.Frame&#45;&gt;paramtk.ParametersFrame</title>
<path fill="none" stroke="black" stroke-width="0.5" d="M757.888,-297.473C770.231,-300.127 782.904,-305.05 792,-314 835.652,-356.949 784.348,-404.051 828,-447 830.388,-449.349 833.022,-451.421 835.832,-453.247"/>
<polygon fill="black" stroke="black" points="835.184,-454.897 840.382,-455.919 836.957,-451.878 835.184,-454.897"/>
</g>
<!-- paramtk.TaggedSlider -->
<g id="node43" class="node"><title>paramtk.TaggedSlider</title>
<polygon fill="none" stroke="black" stroke-width="0.5" points="963,-286.5 843,-286.5 843,-265.5 963,-265.5 963,-286.5"/>
<text text-anchor="middle" x="903" y="-273.5" font-family="Vera" font-size="10.00">paramtk.TaggedSlider</text>
</g>
<!-- Tkinter.Frame&#45;&gt;paramtk.TaggedSlider -->
<g id="edge34" class="edge"><title>Tkinter.Frame&#45;&gt;paramtk.TaggedSlider</title>
<path fill="none" stroke="black" stroke-width="0.5" d="M757.818,-290.83C781.077,-288.454 810.775,-285.421 837.243,-282.717"/>
<polygon fill="black" stroke="black" points="837.694,-284.43 842.491,-282.181 837.339,-280.948 837.694,-284.43"/>
</g>
<!-- paramtk.ListWidget -->
<g id="node72" class="node"><title>paramtk.ListWidget</title>
<polygon fill="none" stroke="black" stroke-width="0.5" points="957,-248.5 849,-248.5 849,-227.5 957,-227.5 957,-248.5"/>
<text text-anchor="middle" x="903" y="-235.5" font-family="Vera" font-size="10.00">paramtk.ListWidget</text>
</g>
<!-- Tkinter.Frame&#45;&gt;paramtk.ListWidget -->
<g id="edge66" class="edge"><title>Tkinter.Frame&#45;&gt;paramtk.ListWidget</title>
<path fill="none" stroke="black" stroke-width="0.5" d="M744.624,-284.84C766.96,-276.796 799.299,-265.533 828,-257 836.908,-254.352 846.479,-251.747 855.704,-249.356"/>
<polygon fill="black" stroke="black" points="856.38,-250.989 860.788,-248.051 855.509,-247.599 856.38,-250.989"/>
</g>
<!-- paramtk.ListItemCtrlWidget -->
<g id="node80" class="node"><title>paramtk.ListItemCtrlWidget</title>
<polygon fill="none" stroke="black" stroke-width="0.5" points="976,-438.5 830,-438.5 830,-417.5 976,-417.5 976,-438.5"/>
<text text-anchor="middle" x="903" y="-425.5" font-family="Vera" font-size="10.00">paramtk.ListItemCtrlWidget</text>
</g>
<!-- Tkinter.Frame&#45;&gt;paramtk.ListItemCtrlWidget -->
<g id="edge76" class="edge"><title>Tkinter.Frame&#45;&gt;paramtk.ListItemCtrlWidget</title>
<path fill="none" stroke="black" stroke-width="0.5" d="M757.77,-298.099C769.962,-300.801 782.577,-305.596 792,-314 825.696,-344.055 794.304,-378.945 828,-409 830.757,-411.459 833.786,-413.608 836.999,-415.487"/>
<polygon fill="black" stroke="black" points="836.25,-417.071 841.485,-417.885 837.9,-413.984 836.25,-417.071"/>
</g>
<!-- paramtk.ProgressWindow -->
<g id="node82" class="node"><title>paramtk.ProgressWindow</title>
<polygon fill="none" stroke="black" stroke-width="0.5" points="971,-210.5 835,-210.5 835,-189.5 971,-189.5 971,-210.5"/>
<text text-anchor="middle" x="903" y="-197.5" font-family="Vera" font-size="10.00">paramtk.ProgressWindow</text>
</g>
<!-- Tkinter.Frame&#45;&gt;paramtk.ProgressWindow -->
<g id="edge80" class="edge"><title>Tkinter.Frame&#45;&gt;paramtk.ProgressWindow</title>
<path fill="none" stroke="black" stroke-width="0.5" d="M728.792,-284.809C748.191,-268.555 788.623,-236.785 828,-219 834.243,-216.18 840.975,-213.73 847.754,-211.614"/>
<polygon fill="black" stroke="black" points="848.652,-213.171 852.939,-210.06 847.648,-209.819 848.652,-213.171"/>
</g>
<!-- Tkinter.Widget -->
<g id="node8" class="node"><title>Tkinter.Widget</title>
<polygon fill="none" stroke="black" stroke-width="0.5" points="565,-172.5 483,-172.5 483,-151.5 565,-151.5 565,-172.5"/>
<text text-anchor="middle" x="524" y="-159.5" font-family="Vera" font-size="10.00">Tkinter.Widget</text>
</g>
<!-- Tkinter.Widget&#45;&gt;Tkinter.Frame -->
<g id="edge6" class="edge"><title>Tkinter.Widget&#45;&gt;Tkinter.Frame</title>
<path fill="none" stroke="black" stroke-width="0.5" d="M538.824,-172.215C573.431,-196.064 659.514,-255.385 697.946,-281.869"/>
<polygon fill="black" stroke="black" points="697.28,-283.536 702.39,-284.932 699.266,-280.654 697.28,-283.536"/>
</g>
<!-- Tkinter.Menu -->
<g id="node19" class="node"><title>Tkinter.Menu</title>
<polygon fill="none" stroke="black" stroke-width="0.5" points="755,-134.5 679,-134.5 679,-113.5 755,-113.5 755,-134.5"/>
<text text-anchor="middle" x="717" y="-121.5" font-family="Vera" font-size="10.00">Tkinter.Menu</text>
</g>
<!-- Tkinter.Widget&#45;&gt;Tkinter.Menu -->
<g id="edge14" class="edge"><title>Tkinter.Widget&#45;&gt;Tkinter.Menu</title>
<path fill="none" stroke="black" stroke-width="0.5" d="M565.878,-153.755C597.659,-147.497 641.226,-138.919 673.418,-132.581"/>
<polygon fill="black" stroke="black" points="673.916,-134.267 678.483,-131.584 673.239,-130.833 673.916,-134.267"/>
</g>
<!-- paramtk.Balloon -->
<g id="node37" class="node"><title>paramtk.Balloon</title>
<polygon fill="none" stroke="black" stroke-width="0.5" points="764,-96.5 670,-96.5 670,-75.5 764,-75.5 764,-96.5"/>
<text text-anchor="middle" x="717" y="-83.5" font-family="Vera" font-size="10.00">paramtk.Balloon</text>
</g>
<!-- Tkinter.Widget&#45;&gt;paramtk.Balloon -->
<g id="edge28" class="edge"><title>Tkinter.Widget&#45;&gt;paramtk.Balloon</title>
<path fill="none" stroke="black" stroke-width="0.5" d="M541.899,-151.939C564.601,-139.514 605.228,-118.383 642,-105 649.735,-102.185 658.065,-99.6286 666.261,-97.3688"/>
<polygon fill="black" stroke="black" points="666.968,-98.9909 671.34,-96.0004 666.057,-95.6113 666.968,-98.9909"/>
</g>
<!-- Tkinter.Button -->
<g id="node47" class="node"><title>Tkinter.Button</title>
<polygon fill="none" stroke="black" stroke-width="0.5" points="758,-172.5 676,-172.5 676,-151.5 758,-151.5 758,-172.5"/>
<text text-anchor="middle" x="717" y="-159.5" font-family="Vera" font-size="10.00">Tkinter.Button</text>
</g>
<!-- Tkinter.Widget&#45;&gt;Tkinter.Button -->
<g id="edge68" class="edge"><title>Tkinter.Widget&#45;&gt;Tkinter.Button</title>
<path fill="none" stroke="black" stroke-width="0.5" d="M565.878,-162C596.607,-162 638.353,-162 670.183,-162"/>
<polygon fill="black" stroke="black" points="670.204,-163.75 675.204,-162 670.204,-160.25 670.204,-163.75"/>
</g>
<!-- paramtk.Scrodget -->
<g id="node60" class="node"><title>paramtk.Scrodget</title>
<polygon fill="none" stroke="black" stroke-width="0.5" points="769,-343.5 665,-343.5 665,-322.5 769,-322.5 769,-343.5"/>
<text text-anchor="middle" x="717" y="-330.5" font-family="Vera" font-size="10.00">paramtk.Scrodget</text>
</g>
<!-- Tkinter.Widget&#45;&gt;paramtk.Scrodget -->
<g id="edge50" class="edge"><title>Tkinter.Widget&#45;&gt;paramtk.Scrodget</title>
<path fill="none" stroke="black" stroke-width="0.5" d="M528.757,-172.015C542.296,-199.389 583.853,-275.955 642,-314 647.464,-317.575 653.557,-320.477 659.843,-322.833"/>
<polygon fill="black" stroke="black" points="659.383,-324.527 664.68,-324.531 660.542,-321.224 659.383,-324.527"/>
</g>
<!-- paramtk.DoNothingTranslator -->
<g id="node10" class="node"><title>paramtk.DoNothingTranslator</title>
<polygon fill="none" stroke="black" stroke-width="0.5" points="388,-590.5 230,-590.5 230,-569.5 388,-569.5 388,-590.5"/>
<text text-anchor="middle" x="309" y="-577.5" font-family="Vera" font-size="10.00">paramtk.DoNothingTranslator</text>
</g>
<!-- paramtk.BoolTranslator -->
<g id="node67" class="node"><title>paramtk.BoolTranslator</title>
<polygon fill="none" stroke="black" stroke-width="0.5" points="588,-590.5 460,-590.5 460,-569.5 588,-569.5 588,-590.5"/>
<text text-anchor="middle" x="524" y="-577.5" font-family="Vera" font-size="10.00">paramtk.BoolTranslator</text>
</g>
<!-- paramtk.DoNothingTranslator&#45;&gt;paramtk.BoolTranslator -->
<g id="edge60" class="edge"><title>paramtk.DoNothingTranslator&#45;&gt;paramtk.BoolTranslator</title>
<path fill="none" stroke="black" stroke-width="0.5" d="M388.142,-580C409.979,-580 433.497,-580 454.728,-580"/>
<polygon fill="black" stroke="black" points="454.788,-581.75 459.788,-580 454.788,-578.25 454.788,-581.75"/>
</g>
<!-- paramtk.Translator -->
<g id="node11" class="node"><title>paramtk.Translator</title>
<polygon fill="none" stroke="black" stroke-width="0.5" points="141,-533.5 35,-533.5 35,-512.5 141,-512.5 141,-533.5"/>
<text text-anchor="middle" x="88" y="-520.5" font-family="Vera" font-size="10.00">paramtk.Translator</text>
</g>
<!-- paramtk.Translator&#45;&gt;paramtk.DoNothingTranslator -->
<g id="edge8" class="edge"><title>paramtk.Translator&#45;&gt;paramtk.DoNothingTranslator</title>
<path fill="none" stroke="black" stroke-width="0.5" d="M117.572,-533.012C142.543,-541.236 179.347,-552.822 212,-561 223.434,-563.864 235.715,-566.558 247.566,-568.969"/>
<polygon fill="black" stroke="black" points="247.368,-570.714 252.615,-569.984 248.058,-567.282 247.368,-570.714"/>
</g>
<!-- paramtk.ListTranslator -->
<g id="node21" class="node"><title>paramtk.ListTranslator</title>
<polygon fill="none" stroke="black" stroke-width="0.5" points="370,-552.5 248,-552.5 248,-531.5 370,-531.5 370,-552.5"/>
<text text-anchor="middle" x="309" y="-539.5" font-family="Vera" font-size="10.00">paramtk.ListTranslator</text>
</g>
<!-- paramtk.Translator&#45;&gt;paramtk.ListTranslator -->
<g id="edge16" class="edge"><title>paramtk.Translator&#45;&gt;paramtk.ListTranslator</title>
<path fill="none" stroke="black" stroke-width="0.5" d="M141.78,-527.624C171.978,-530.22 209.931,-533.483 242.043,-536.244"/>
<polygon fill="black" stroke="black" points="242.013,-537.997 247.145,-536.682 242.313,-534.51 242.013,-537.997"/>
</g>
<!-- paramtk.String_ObjectTranslator -->
<g id="node78" class="node"><title>paramtk.String_ObjectTranslator</title>
<polygon fill="none" stroke="black" stroke-width="0.5" points="394,-514.5 224,-514.5 224,-493.5 394,-493.5 394,-514.5"/>
<text text-anchor="middle" x="309" y="-501.5" font-family="Vera" font-size="10.00">paramtk.String_ObjectTranslator</text>
</g>
<!-- paramtk.Translator&#45;&gt;paramtk.String_ObjectTranslator -->
<g id="edge82" class="edge"><title>paramtk.Translator&#45;&gt;paramtk.String_ObjectTranslator</title>
<path fill="none" stroke="black" stroke-width="0.5" d="M141.78,-518.376C164.778,-516.399 192.273,-514.035 218.261,-511.801"/>
<polygon fill="black" stroke="black" points="218.605,-513.528 223.437,-511.356 218.305,-510.041 218.605,-513.528"/>
</g>
<!-- paramtk.Eval_ReprTranslator -->
<g id="node86" class="node"><title>paramtk.Eval_ReprTranslator</title>
<polygon fill="none" stroke="black" stroke-width="0.5" points="385,-476.5 233,-476.5 233,-455.5 385,-455.5 385,-476.5"/>
<text text-anchor="middle" x="309" y="-463.5" font-family="Vera" font-size="10.00">paramtk.Eval_ReprTranslator</text>
</g>
<!-- paramtk.Translator&#45;&gt;paramtk.Eval_ReprTranslator -->
<g id="edge84" class="edge"><title>paramtk.Translator&#45;&gt;paramtk.Eval_ReprTranslator</title>
<path fill="none" stroke="black" stroke-width="0.5" d="M117.572,-512.988C142.543,-504.764 179.347,-493.178 212,-485 223.434,-482.136 235.715,-479.442 247.566,-477.031"/>
<polygon fill="black" stroke="black" points="248.058,-478.718 252.615,-476.016 247.368,-475.286 248.058,-478.718"/>
</g>
<!-- paramtk.AppWindow -->
<g id="node13" class="node"><title>paramtk.AppWindow</title>
<polygon fill="none" stroke="black" stroke-width="0.5" points="960,-20.5 846,-20.5 846,0.5 960,0.5 960,-20.5"/>
<text text-anchor="middle" x="903" y="-7.5" font-family="Vera" font-size="10.00">paramtk.AppWindow</text>
</g>
<!-- paramtk.ScrolledWindow -->
<g id="node14" class="node"><title>paramtk.ScrolledWindow</title>
<polygon fill="none" stroke="black" stroke-width="0.5" points="784,-20.5 650,-20.5 650,0.5 784,0.5 784,-20.5"/>
<text text-anchor="middle" x="717" y="-7.5" font-family="Vera" font-size="10.00">paramtk.ScrolledWindow</text>
</g>
<!-- paramtk.ScrolledWindow&#45;&gt;paramtk.AppWindow -->
<g id="edge10" class="edge"><title>paramtk.ScrolledWindow&#45;&gt;paramtk.AppWindow</title>
<path fill="none" stroke="black" stroke-width="0.5" d="M784.15,-10C802.603,-10 822.53,-10 840.697,-10"/>
<polygon fill="black" stroke="black" points="840.771,-11.7501 845.771,-10 840.771,-8.2501 840.771,-11.7501"/>
</g>
<!-- Tkinter.Toplevel -->
<g id="node16" class="node"><title>Tkinter.Toplevel</title>
<polygon fill="none" stroke="black" stroke-width="0.5" points="568,-58.5 480,-58.5 480,-37.5 568,-37.5 568,-58.5"/>
<text text-anchor="middle" x="524" y="-45.5" font-family="Vera" font-size="10.00">Tkinter.Toplevel</text>
</g>
<!-- Tkinter.Toplevel&#45;&gt;paramtk.ScrolledWindow -->
<g id="edge12" class="edge"><title>Tkinter.Toplevel&#45;&gt;paramtk.ScrolledWindow</title>
<path fill="none" stroke="black" stroke-width="0.5" d="M568.763,-39.1865C596.238,-33.7771 631.656,-26.8035 660.982,-21.0295"/>
<polygon fill="black" stroke="black" points="661.44,-22.723 666.007,-20.04 660.764,-19.2889 661.44,-22.723"/>
</g>
<!-- paramtk.ToolTip -->
<g id="node41" class="node"><title>paramtk.ToolTip</title>
<polygon fill="none" stroke="black" stroke-width="0.5" points="763,-58.5 671,-58.5 671,-37.5 763,-37.5 763,-58.5"/>
<text text-anchor="middle" x="717" y="-45.5" font-family="Vera" font-size="10.00">paramtk.ToolTip</text>
</g>
<!-- Tkinter.Toplevel&#45;&gt;paramtk.ToolTip -->
<g id="edge32" class="edge"><title>Tkinter.Toplevel&#45;&gt;paramtk.ToolTip</title>
<path fill="none" stroke="black" stroke-width="0.5" d="M568.763,-48C597.711,-48 635.478,-48 665.646,-48"/>
<polygon fill="black" stroke="black" points="665.802,-49.7501 670.802,-48 665.802,-46.2501 665.802,-49.7501"/>
</g>
<!-- Tkinter.Misc -->
<g id="node18" class="node"><title>Tkinter.Misc</title>
<polygon fill="none" stroke="black" stroke-width="0.5" points="124,-96.5 52,-96.5 52,-75.5 124,-75.5 124,-96.5"/>
<text text-anchor="middle" x="88" y="-83.5" font-family="Vera" font-size="10.00">Tkinter.Misc</text>
</g>
<!-- Tkinter.BaseWidget -->
<g id="node55" class="node"><title>Tkinter.BaseWidget</title>
<polygon fill="none" stroke="black" stroke-width="0.5" points="362,-96.5 256,-96.5 256,-75.5 362,-75.5 362,-96.5"/>
<text text-anchor="middle" x="309" y="-83.5" font-family="Vera" font-size="10.00">Tkinter.BaseWidget</text>
</g>
<!-- Tkinter.Misc&#45;&gt;Tkinter.BaseWidget -->
<g id="edge44" class="edge"><title>Tkinter.Misc&#45;&gt;Tkinter.BaseWidget</title>
<path fill="none" stroke="black" stroke-width="0.5" d="M124.494,-86C158.637,-86 210.226,-86 250.18,-86"/>
<polygon fill="black" stroke="black" points="250.489,-87.7501 255.489,-86 250.489,-84.2501 250.489,-87.7501"/>
</g>
<!-- paramtk.Menu -->
<g id="node39" class="node"><title>paramtk.Menu</title>
<polygon fill="none" stroke="black" stroke-width="0.5" points="946,-134.5 860,-134.5 860,-113.5 946,-113.5 946,-134.5"/>
<text text-anchor="middle" x="903" y="-121.5" font-family="Vera" font-size="10.00">paramtk.Menu</text>
</g>
<!-- Tkinter.Menu&#45;&gt;paramtk.Menu -->
<g id="edge30" class="edge"><title>Tkinter.Menu&#45;&gt;paramtk.Menu</title>
<path fill="none" stroke="black" stroke-width="0.5" d="M755.539,-124C784.308,-124 823.811,-124 854.69,-124"/>
<polygon fill="black" stroke="black" points="854.959,-125.75 859.959,-124 854.959,-122.25 854.959,-125.75"/>
</g>
<!-- Tkinter.Pack -->
<g id="node23" class="node"><title>Tkinter.Pack</title>
<polygon fill="none" stroke="black" stroke-width="0.5" points="345,-210.5 273,-210.5 273,-189.5 345,-189.5 345,-210.5"/>
<text text-anchor="middle" x="309" y="-197.5" font-family="Vera" font-size="10.00">Tkinter.Pack</text>
</g>
<!-- Tkinter.Pack&#45;&gt;Tkinter.Widget -->
<g id="edge54" class="edge"><title>Tkinter.Pack&#45;&gt;Tkinter.Widget</title>
<path fill="none" stroke="black" stroke-width="0.5" d="M345.96,-193.468C382.269,-187.05 437.801,-177.235 477.179,-170.275"/>
<polygon fill="black" stroke="black" points="477.764,-171.949 482.383,-169.356 477.154,-168.503 477.764,-171.949"/>
</g>
<!-- paramtk.Button -->
<g id="node26" class="node"><title>paramtk.Button</title>
<polygon fill="none" stroke="black" stroke-width="0.5" points="570,-628.5 478,-628.5 478,-607.5 570,-607.5 570,-628.5"/>
<text text-anchor="middle" x="524" y="-615.5" font-family="Vera" font-size="10.00">paramtk.Button</text>
</g>
<!-- param.Callable -->
<g id="node27" class="node"><title>param.Callable</title>
<polygon fill="none" stroke="black" stroke-width="0.5" points="353,-628.5 265,-628.5 265,-607.5 353,-607.5 353,-628.5"/>
<text text-anchor="middle" x="309" y="-615.5" font-family="Vera" font-size="10.00">param.Callable</text>
</g>
<!-- param.Callable&#45;&gt;paramtk.Button -->
<g id="edge20" class="edge"><title>param.Callable&#45;&gt;paramtk.Button</title>
<path fill="none" stroke="black" stroke-width="0.5" d="M353.548,-618C388.132,-618 436.136,-618 472.391,-618"/>
<polygon fill="black" stroke="black" points="472.652,-619.75 477.652,-618 472.652,-616.25 472.652,-619.75"/>
</g>
<!-- Tkinter.Wm -->
<g id="node31" class="node"><title>Tkinter.Wm</title>
<polygon fill="none" stroke="black" stroke-width="0.5" points="343,-58.5 275,-58.5 275,-37.5 343,-37.5 343,-58.5"/>
<text text-anchor="middle" x="309" y="-45.5" font-family="Vera" font-size="10.00">Tkinter.Wm</text>
</g>
<!-- Tkinter.Wm&#45;&gt;Tkinter.Toplevel -->
<g id="edge64" class="edge"><title>Tkinter.Wm&#45;&gt;Tkinter.Toplevel</title>
<path fill="none" stroke="black" stroke-width="0.5" d="M343.543,-48C378.874,-48 434.11,-48 474.169,-48"/>
<polygon fill="black" stroke="black" points="474.47,-49.7501 479.47,-48 474.47,-46.2501 474.47,-49.7501"/>
</g>
<!-- paramtk.EditingParametersFrameWithApply -->
<g id="node32" class="node"><title>paramtk.EditingParametersFrameWithApply</title>
<polygon fill="none" stroke="black" stroke-width="0.5" points="1466,-476.5 1242,-476.5 1242,-455.5 1466,-455.5 1466,-476.5"/>
<text text-anchor="middle" x="1354" y="-463.5" font-family="Vera" font-size="10.00">paramtk.EditingParametersFrameWithApply</text>
</g>
<!-- paramtk.ParametersFrameWithApply -->
<g id="node33" class="node"><title>paramtk.ParametersFrameWithApply</title>
<polygon fill="none" stroke="black" stroke-width="0.5" points="1206,-476.5 1014,-476.5 1014,-455.5 1206,-455.5 1206,-476.5"/>
<text text-anchor="middle" x="1110" y="-463.5" font-family="Vera" font-size="10.00">paramtk.ParametersFrameWithApply</text>
</g>
<!-- paramtk.ParametersFrameWithApply&#45;&gt;paramtk.EditingParametersFrameWithApply -->
<g id="edge24" class="edge"><title>paramtk.ParametersFrameWithApply&#45;&gt;paramtk.EditingParametersFrameWithApply</title>
<path fill="none" stroke="black" stroke-width="0.5" d="M1206.09,-466C1216.17,-466 1226.5,-466 1236.79,-466"/>
<polygon fill="black" stroke="black" points="1236.84,-467.75 1241.84,-466 1236.84,-464.25 1236.84,-467.75"/>
</g>
<!-- paramtk.ParametersFrame&#45;&gt;paramtk.ParametersFrameWithApply -->
<g id="edge26" class="edge"><title>paramtk.ParametersFrame&#45;&gt;paramtk.ParametersFrameWithApply</title>
<path fill="none" stroke="black" stroke-width="0.5" d="M976.272,-466C986.862,-466 997.915,-466 1008.93,-466"/>
<polygon fill="black" stroke="black" points="1008.99,-467.75 1013.99,-466 1008.99,-464.25 1008.99,-467.75"/>
</g>
<!-- paramtk.ScrodgetWidget -->
<g id="node45" class="node"><title>paramtk.ScrodgetWidget</title>
<polygon fill="none" stroke="black" stroke-width="0.5" points="592,-343.5 456,-343.5 456,-322.5 592,-322.5 592,-343.5"/>
<text text-anchor="middle" x="524" y="-330.5" font-family="Vera" font-size="10.00">paramtk.ScrodgetWidget</text>
</g>
<!-- paramtk.ScrodgetWidget&#45;&gt;paramtk.Scrodget -->
<g id="edge48" class="edge"><title>paramtk.ScrodgetWidget&#45;&gt;paramtk.Scrodget</title>
<path fill="none" stroke="black" stroke-width="0.5" d="M592.045,-333C614.148,-333 638.44,-333 659.681,-333"/>
<polygon fill="black" stroke="black" points="659.728,-334.75 664.728,-333 659.728,-331.25 659.728,-334.75"/>
</g>
<!-- paramtk.FocusTakingButton -->
<g id="node46" class="node"><title>paramtk.FocusTakingButton</title>
<polygon fill="none" stroke="black" stroke-width="0.5" points="977,-172.5 829,-172.5 829,-151.5 977,-151.5 977,-172.5"/>
<text text-anchor="middle" x="903" y="-159.5" font-family="Vera" font-size="10.00">paramtk.FocusTakingButton</text>
</g>
<!-- Tkinter.Button&#45;&gt;paramtk.FocusTakingButton -->
<g id="edge36" class="edge"><title>Tkinter.Button&#45;&gt;paramtk.FocusTakingButton</title>
<path fill="none" stroke="black" stroke-width="0.5" d="M758.742,-162C777.861,-162 801.182,-162 823.453,-162"/>
<polygon fill="black" stroke="black" points="823.485,-163.75 828.485,-162 823.485,-160.25 823.485,-163.75"/>
</g>
<!-- paramtk.ProgressController -->
<g id="node49" class="node"><title>paramtk.ProgressController</title>
<polygon fill="none" stroke="black" stroke-width="0.5" points="791,-210.5 643,-210.5 643,-189.5 791,-189.5 791,-210.5"/>
<text text-anchor="middle" x="717" y="-197.5" font-family="Vera" font-size="10.00">paramtk.ProgressController</text>
</g>
<!-- paramtk.ProgressController&#45;&gt;paramtk.ProgressWindow -->
<g id="edge78" class="edge"><title>paramtk.ProgressController&#45;&gt;paramtk.ProgressWindow</title>
<path fill="none" stroke="black" stroke-width="0.5" d="M791.582,-200C803.962,-200 816.797,-200 829.159,-200"/>
<polygon fill="black" stroke="black" points="829.426,-201.75 834.426,-200 829.426,-198.25 829.426,-201.75"/>
</g>
<!-- Tkinter.Place -->
<g id="node50" class="node"><title>Tkinter.Place</title>
<polygon fill="none" stroke="black" stroke-width="0.5" points="347,-172.5 271,-172.5 271,-151.5 347,-151.5 347,-172.5"/>
<text text-anchor="middle" x="309" y="-159.5" font-family="Vera" font-size="10.00">Tkinter.Place</text>
</g>
<!-- Tkinter.Place&#45;&gt;Tkinter.Widget -->
<g id="edge56" class="edge"><title>Tkinter.Place&#45;&gt;Tkinter.Widget</title>
<path fill="none" stroke="black" stroke-width="0.5" d="M347.935,-162C384.299,-162 438.629,-162 477.308,-162"/>
<polygon fill="black" stroke="black" points="477.42,-163.75 482.42,-162 477.42,-160.25 477.42,-163.75"/>
</g>
<!-- Tkinter.Grid -->
<g id="node54" class="node"><title>Tkinter.Grid</title>
<polygon fill="none" stroke="black" stroke-width="0.5" points="344,-134.5 274,-134.5 274,-113.5 344,-113.5 344,-134.5"/>
<text text-anchor="middle" x="309" y="-121.5" font-family="Vera" font-size="10.00">Tkinter.Grid</text>
</g>
<!-- Tkinter.Grid&#45;&gt;Tkinter.Widget -->
<g id="edge58" class="edge"><title>Tkinter.Grid&#45;&gt;Tkinter.Widget</title>
<path fill="none" stroke="black" stroke-width="0.5" d="M344.503,-130.275C380.687,-136.67 437.012,-146.625 476.905,-153.676"/>
<polygon fill="black" stroke="black" points="476.947,-155.461 482.175,-154.608 477.556,-152.014 476.947,-155.461"/>
</g>
<!-- Tkinter.BaseWidget&#45;&gt;Tkinter.Widget -->
<g id="edge52" class="edge"><title>Tkinter.BaseWidget&#45;&gt;Tkinter.Widget</title>
<path fill="none" stroke="black" stroke-width="0.5" d="M362.75,-93.9833C377,-96.7869 392.243,-100.415 406,-105 441.006,-116.667 479.019,-136.43 502.178,-149.347"/>
<polygon fill="black" stroke="black" points="501.39,-150.912 506.607,-151.835 503.105,-147.86 501.39,-150.912"/>
</g>
<!-- Tkinter.BaseWidget&#45;&gt;Tkinter.Toplevel -->
<g id="edge62" class="edge"><title>Tkinter.BaseWidget&#45;&gt;Tkinter.Toplevel</title>
<path fill="none" stroke="black" stroke-width="0.5" d="M362.699,-76.509C396.819,-70.4785 440.681,-62.7261 474.052,-56.8281"/>
<polygon fill="black" stroke="black" points="474.695,-58.4916 479.314,-55.898 474.086,-55.045 474.695,-58.4916"/>
</g>
<!-- paramtk.ListRepresenter -->
<g id="node57" class="node"><title>paramtk.ListRepresenter</title>
<polygon fill="none" stroke="black" stroke-width="0.5" points="784,-438.5 650,-438.5 650,-417.5 784,-417.5 784,-438.5"/>
<text text-anchor="middle" x="717" y="-425.5" font-family="Vera" font-size="10.00">paramtk.ListRepresenter</text>
</g>
<!-- paramtk.Representer&#45;&gt;paramtk.ListRepresenter -->
<g id="edge46" class="edge"><title>paramtk.Representer&#45;&gt;paramtk.ListRepresenter</title>
<path fill="none" stroke="black" stroke-width="0.5" d="M583.218,-428C602.627,-428 624.413,-428 644.678,-428"/>
<polygon fill="black" stroke="black" points="644.795,-429.75 649.795,-428 644.795,-426.25 644.795,-429.75"/>
</g>
<!-- param.parameterized.Parameter -->
<g id="node71" class="node"><title>param.parameterized.Parameter</title>
<polygon fill="none" stroke="black" stroke-width="0.5" points="175,-628.5 1,-628.5 1,-607.5 175,-607.5 175,-628.5"/>
<text text-anchor="middle" x="88" y="-615.5" font-family="Vera" font-size="10.00">param.parameterized.Parameter</text>
</g>
<!-- param.parameterized.Parameter&#45;&gt;param.Callable -->
<g id="edge72" class="edge"><title>param.parameterized.Parameter&#45;&gt;param.Callable</title>
<path fill="none" stroke="black" stroke-width="0.5" d="M175.662,-618C204.015,-618 234.464,-618 259.097,-618"/>
<polygon fill="black" stroke="black" points="259.263,-619.75 264.263,-618 259.263,-616.25 259.263,-619.75"/>
</g>
<!-- paramtk.CSPTranslator -->
<g id="node77" class="node"><title>paramtk.CSPTranslator</title>
<polygon fill="none" stroke="black" stroke-width="0.5" points="587,-514.5 461,-514.5 461,-493.5 587,-493.5 587,-514.5"/>
<text text-anchor="middle" x="524" y="-501.5" font-family="Vera" font-size="10.00">paramtk.CSPTranslator</text>
</g>
<!-- paramtk.String_ObjectTranslator&#45;&gt;paramtk.CSPTranslator -->
<g id="edge74" class="edge"><title>paramtk.String_ObjectTranslator&#45;&gt;paramtk.CSPTranslator</title>
<path fill="none" stroke="black" stroke-width="0.5" d="M394.591,-504C414.822,-504 436.133,-504 455.493,-504"/>
<polygon fill="black" stroke="black" points="455.899,-505.75 460.899,-504 455.899,-502.25 455.899,-505.75"/>
</g>
</g>
</svg>
