<?xml version="1.0" encoding="UTF-8" standalone="no"?>
<!DOCTYPE svg PUBLIC "-//W3C//DTD SVG 1.1//EN"
 "http://www.w3.org/Graphics/SVG/1.1/DTD/svg11.dtd">
<!-- Generated by graphviz version 2.26.3 (20100126.1600)
 -->
<!-- Title: inheritance273a80740e Pages: 1 -->
<svg width="876pt" height="940pt"
 viewBox="0.00 0.00 876.00 940.00" xmlns="http://www.w3.org/2000/svg" xmlns:xlink="http://www.w3.org/1999/xlink">
<g id="graph1" class="graph" transform="scale(1 1) rotate(0) translate(4 936)">
<title>inheritance273a80740e</title>
<polygon fill="white" stroke="white" points="-4,5 -4,-936 873,-936 873,5 -4,5"/>
<!-- imagen.TimeSeriesParam -->
<g id="node1" class="node"><title>imagen.TimeSeriesParam</title>
<polygon fill="none" stroke="black" stroke-width="0.5" points="859,-20.5 719,-20.5 719,0.5 859,0.5 859,-20.5"/>
<text text-anchor="middle" x="789" y="-7.5" font-family="Vera" font-size="10.00">imagen.TimeSeriesParam</text>
</g>
<!-- param.ClassSelector -->
<g id="node2" class="node"><title>param.ClassSelector</title>
<polygon fill="none" stroke="black" stroke-width="0.5" points="640,-20.5 524,-20.5 524,0.5 640,0.5 640,-20.5"/>
<text text-anchor="middle" x="582" y="-7.5" font-family="Vera" font-size="10.00">param.ClassSelector</text>
</g>
<!-- param.ClassSelector&#45;&gt;imagen.TimeSeriesParam -->
<g id="edge2" class="edge"><title>param.ClassSelector&#45;&gt;imagen.TimeSeriesParam</title>
<path fill="none" stroke="black" stroke-width="0.5" d="M640.212,-10C662.986,-10 689.405,-10 713.606,-10"/>
<polygon fill="black" stroke="black" points="713.734,-11.7501 718.734,-10 713.734,-8.2501 713.734,-11.7501"/>
</g>
<!-- imagen.OrientationContrast -->
<g id="node4" class="node"><title>imagen.OrientationContrast</title>
<polygon fill="none" stroke="black" stroke-width="0.5" points="864,-932.5 714,-932.5 714,-911.5 864,-911.5 864,-932.5"/>
<text text-anchor="middle" x="789" y="-919.5" font-family="Vera" font-size="10.00">imagen.OrientationContrast</text>
</g>
<!-- imagen.SineGrating -->
<g id="node5" class="node"><title>imagen.SineGrating</title>
<polygon fill="none" stroke="black" stroke-width="0.5" points="638,-932.5 526,-932.5 526,-911.5 638,-911.5 638,-932.5"/>
<text text-anchor="middle" x="582" y="-919.5" font-family="Vera" font-size="10.00">imagen.SineGrating</text>
</g>
<!-- imagen.SineGrating&#45;&gt;imagen.OrientationContrast -->
<g id="edge4" class="edge"><title>imagen.SineGrating&#45;&gt;imagen.OrientationContrast</title>
<path fill="none" stroke="black" stroke-width="0.5" d="M638.017,-922C659.815,-922 685.2,-922 708.866,-922"/>
<polygon fill="black" stroke="black" points="708.888,-923.75 713.888,-922 708.887,-920.25 708.888,-923.75"/>
</g>
<!-- imagen.Ring -->
<g id="node7" class="node"><title>imagen.Ring</title>
<polygon fill="none" stroke="black" stroke-width="0.5" points="620,-894.5 544,-894.5 544,-873.5 620,-873.5 620,-894.5"/>
<text text-anchor="middle" x="582" y="-881.5" font-family="Vera" font-size="10.00">imagen.Ring</text>
</g>
<!-- imagen.patterngenerator.PatternGenerator -->
<g id="node8" class="node"><title>imagen.patterngenerator.PatternGenerator</title>
<polygon fill="none" stroke="black" stroke-width="0.5" points="454,-495.5 230,-495.5 230,-474.5 454,-474.5 454,-495.5"/>
<text text-anchor="middle" x="342" y="-482.5" font-family="Vera" font-size="10.00">imagen.patterngenerator.PatternGenerator</text>
</g>
<!-- imagen.patterngenerator.PatternGenerator&#45;&gt;imagen.SineGrating -->
<g id="edge70" class="edge"><title>imagen.patterngenerator.PatternGenerator&#45;&gt;imagen.SineGrating</title>
<path fill="none" stroke="black" stroke-width="0.5" d="M344.205,-495.259C356.982,-553.776 423.271,-844.818 490,-903 498.635,-910.529 509.457,-915.356 520.617,-918.398"/>
<polygon fill="black" stroke="black" points="520.487,-920.169 525.762,-919.674 521.33,-916.772 520.487,-920.169"/>
</g>
<!-- imagen.patterngenerator.PatternGenerator&#45;&gt;imagen.Ring -->
<g id="edge6" class="edge"><title>imagen.patterngenerator.PatternGenerator&#45;&gt;imagen.Ring</title>
<path fill="none" stroke="black" stroke-width="0.5" d="M342.586,-495.178C346.009,-544.641 367.778,-761.734 490,-865 503.435,-876.351 521.877,-881.511 538.724,-883.681"/>
<polygon fill="black" stroke="black" points="538.73,-885.442 543.894,-884.261 539.12,-881.964 538.73,-885.442"/>
</g>
<!-- imagen.Composite -->
<g id="node14" class="node"><title>imagen.Composite</title>
<polygon fill="none" stroke="black" stroke-width="0.5" points="635,-856.5 529,-856.5 529,-835.5 635,-835.5 635,-856.5"/>
<text text-anchor="middle" x="582" y="-843.5" font-family="Vera" font-size="10.00">imagen.Composite</text>
</g>
<!-- imagen.patterngenerator.PatternGenerator&#45;&gt;imagen.Composite -->
<g id="edge10" class="edge"><title>imagen.patterngenerator.PatternGenerator&#45;&gt;imagen.Composite</title>
<path fill="none" stroke="black" stroke-width="0.5" d="M343.054,-495.096C348.456,-541.427 377.339,-735.332 490,-827 499.409,-834.656 511.116,-839.467 522.992,-842.44"/>
<polygon fill="black" stroke="black" points="522.821,-844.196 528.086,-843.604 523.602,-840.784 522.821,-844.196"/>
</g>
<!-- imagen.PowerSpectrum -->
<g id="node17" class="node"><title>imagen.PowerSpectrum</title>
<polygon fill="none" stroke="black" stroke-width="0.5" points="647,-818.5 517,-818.5 517,-797.5 647,-797.5 647,-818.5"/>
<text text-anchor="middle" x="582" y="-805.5" font-family="Vera" font-size="10.00">imagen.PowerSpectrum</text>
</g>
<!-- imagen.patterngenerator.PatternGenerator&#45;&gt;imagen.PowerSpectrum -->
<g id="edge38" class="edge"><title>imagen.patterngenerator.PatternGenerator&#45;&gt;imagen.PowerSpectrum</title>
<path fill="none" stroke="black" stroke-width="0.5" d="M343.642,-495.137C351.211,-538.38 386.877,-708.851 490,-789 496.398,-793.973 503.779,-797.731 511.519,-800.559"/>
<polygon fill="black" stroke="black" points="511.082,-802.259 516.379,-802.202 512.203,-798.943 511.082,-802.259"/>
</g>
<!-- imagen.Arc -->
<g id="node22" class="node"><title>imagen.Arc</title>
<polygon fill="none" stroke="black" stroke-width="0.5" points="617,-780.5 547,-780.5 547,-759.5 617,-759.5 617,-780.5"/>
<text text-anchor="middle" x="582" y="-767.5" font-family="Vera" font-size="10.00">imagen.Arc</text>
</g>
<!-- imagen.patterngenerator.PatternGenerator&#45;&gt;imagen.Arc -->
<g id="edge26" class="edge"><title>imagen.patterngenerator.PatternGenerator&#45;&gt;imagen.Arc</title>
<path fill="none" stroke="black" stroke-width="0.5" d="M344.397,-495.219C354.341,-535.199 396.286,-682.188 490,-751 504.654,-761.76 523.989,-766.752 541.151,-768.959"/>
<polygon fill="black" stroke="black" points="541.233,-770.729 546.399,-769.558 541.63,-767.252 541.233,-770.729"/>
</g>
<!-- imagen.patterngenerator.Constant -->
<g id="node24" class="node"><title>imagen.patterngenerator.Constant</title>
<polygon fill="none" stroke="black" stroke-width="0.5" points="674,-742.5 490,-742.5 490,-721.5 674,-721.5 674,-742.5"/>
<text text-anchor="middle" x="582" y="-729.5" font-family="Vera" font-size="10.00">imagen.patterngenerator.Constant</text>
</g>
<!-- imagen.patterngenerator.PatternGenerator&#45;&gt;imagen.patterngenerator.Constant -->
<g id="edge18" class="edge"><title>imagen.patterngenerator.PatternGenerator&#45;&gt;imagen.patterngenerator.Constant</title>
<path fill="none" stroke="black" stroke-width="0.5" d="M345.371,-495.24C357.895,-531.576 405.443,-655.232 490,-713 493.857,-715.635 498.002,-717.918 502.324,-719.895"/>
<polygon fill="black" stroke="black" points="501.79,-721.57 507.076,-721.923 503.164,-718.351 501.79,-721.57"/>
</g>
<!-- imagen.ExponentialDecay -->
<g id="node26" class="node"><title>imagen.ExponentialDecay</title>
<polygon fill="none" stroke="black" stroke-width="0.5" points="652,-704.5 512,-704.5 512,-683.5 652,-683.5 652,-704.5"/>
<text text-anchor="middle" x="582" y="-691.5" font-family="Vera" font-size="10.00">imagen.ExponentialDecay</text>
</g>
<!-- imagen.patterngenerator.PatternGenerator&#45;&gt;imagen.ExponentialDecay -->
<g id="edge20" class="edge"><title>imagen.patterngenerator.PatternGenerator&#45;&gt;imagen.ExponentialDecay</title>
<path fill="none" stroke="black" stroke-width="0.5" d="M346.723,-495.3C362.136,-527.668 414.37,-627.969 490,-675 495.085,-678.162 500.605,-680.809 506.329,-683.021"/>
<polygon fill="black" stroke="black" points="505.883,-684.721 511.18,-684.78 507.076,-681.431 505.883,-684.721"/>
</g>
<!-- imagen.Selector -->
<g id="node28" class="node"><title>imagen.Selector</title>
<polygon fill="none" stroke="black" stroke-width="0.5" points="629,-666.5 535,-666.5 535,-645.5 629,-645.5 629,-666.5"/>
<text text-anchor="middle" x="582" y="-653.5" font-family="Vera" font-size="10.00">imagen.Selector</text>
</g>
<!-- imagen.patterngenerator.PatternGenerator&#45;&gt;imagen.Selector -->
<g id="edge22" class="edge"><title>imagen.patterngenerator.PatternGenerator&#45;&gt;imagen.Selector</title>
<path fill="none" stroke="black" stroke-width="0.5" d="M348.572,-495.145C367.101,-522.853 422.812,-600.191 490,-637 501.87,-643.503 515.711,-647.786 528.999,-650.606"/>
<polygon fill="black" stroke="black" points="529.01,-652.392 534.255,-651.653 529.694,-648.96 529.01,-652.392"/>
</g>
<!-- imagen.HalfPlane -->
<g id="node30" class="node"><title>imagen.HalfPlane</title>
<polygon fill="none" stroke="black" stroke-width="0.5" points="632,-628.5 532,-628.5 532,-607.5 632,-607.5 632,-628.5"/>
<text text-anchor="middle" x="582" y="-615.5" font-family="Vera" font-size="10.00">imagen.HalfPlane</text>
</g>
<!-- imagen.patterngenerator.PatternGenerator&#45;&gt;imagen.HalfPlane -->
<g id="edge24" class="edge"><title>imagen.patterngenerator.PatternGenerator&#45;&gt;imagen.HalfPlane</title>
<path fill="none" stroke="black" stroke-width="0.5" d="M351.684,-495.097C373.872,-517.589 431.039,-571.959 490,-599 501.155,-604.116 513.702,-607.866 525.858,-610.611"/>
<polygon fill="black" stroke="black" points="525.782,-612.385 531.038,-611.727 526.519,-608.964 525.782,-612.385"/>
</g>
<!-- imagen.RawRectangle -->
<g id="node33" class="node"><title>imagen.RawRectangle</title>
<polygon fill="none" stroke="black" stroke-width="0.5" points="642,-590.5 522,-590.5 522,-569.5 642,-569.5 642,-590.5"/>
<text text-anchor="middle" x="582" y="-577.5" font-family="Vera" font-size="10.00">imagen.RawRectangle</text>
</g>
<!-- imagen.patterngenerator.PatternGenerator&#45;&gt;imagen.RawRectangle -->
<g id="edge28" class="edge"><title>imagen.patterngenerator.PatternGenerator&#45;&gt;imagen.RawRectangle</title>
<path fill="none" stroke="black" stroke-width="0.5" d="M358.209,-495.194C384.757,-511.453 439.606,-543.229 490,-561 498.435,-563.975 507.479,-566.547 516.483,-568.752"/>
<polygon fill="black" stroke="black" points="516.208,-570.486 521.477,-569.94 517.018,-567.081 516.208,-570.486"/>
</g>
<!-- imagen.Gabor -->
<g id="node36" class="node"><title>imagen.Gabor</title>
<polygon fill="none" stroke="black" stroke-width="0.5" points="624,-552.5 540,-552.5 540,-531.5 624,-531.5 624,-552.5"/>
<text text-anchor="middle" x="582" y="-539.5" font-family="Vera" font-size="10.00">imagen.Gabor</text>
</g>
<!-- imagen.patterngenerator.PatternGenerator&#45;&gt;imagen.Gabor -->
<g id="edge32" class="edge"><title>imagen.patterngenerator.PatternGenerator&#45;&gt;imagen.Gabor</title>
<path fill="none" stroke="black" stroke-width="0.5" d="M378.982,-495.017C408.848,-502.981 452.009,-514.205 490,-523 504.293,-526.309 519.9,-529.638 534.134,-532.565"/>
<polygon fill="black" stroke="black" points="534.061,-534.336 539.31,-533.625 534.763,-530.908 534.061,-534.336"/>
</g>
<!-- imagen.SquareGrating -->
<g id="node38" class="node"><title>imagen.SquareGrating</title>
<polygon fill="none" stroke="black" stroke-width="0.5" points="644,-514.5 520,-514.5 520,-493.5 644,-493.5 644,-514.5"/>
<text text-anchor="middle" x="582" y="-501.5" font-family="Vera" font-size="10.00">imagen.SquareGrating</text>
</g>
<!-- imagen.patterngenerator.PatternGenerator&#45;&gt;imagen.SquareGrating -->
<g id="edge34" class="edge"><title>imagen.patterngenerator.PatternGenerator&#45;&gt;imagen.SquareGrating</title>
<path fill="none" stroke="black" stroke-width="0.5" d="M454.27,-493.888C474.677,-495.504 495.384,-497.143 514.015,-498.618"/>
<polygon fill="black" stroke="black" points="514.091,-500.379 519.213,-499.029 514.367,-496.89 514.091,-500.379"/>
</g>
<!-- imagen.Sweeper -->
<g id="node40" class="node"><title>imagen.Sweeper</title>
<polygon fill="none" stroke="black" stroke-width="0.5" points="630,-476.5 534,-476.5 534,-455.5 630,-455.5 630,-476.5"/>
<text text-anchor="middle" x="582" y="-463.5" font-family="Vera" font-size="10.00">imagen.Sweeper</text>
</g>
<!-- imagen.patterngenerator.PatternGenerator&#45;&gt;imagen.Sweeper -->
<g id="edge36" class="edge"><title>imagen.patterngenerator.PatternGenerator&#45;&gt;imagen.Sweeper</title>
<path fill="none" stroke="black" stroke-width="0.5" d="M454.27,-476.112C480.021,-474.073 506.249,-471.997 528.184,-470.26"/>
<polygon fill="black" stroke="black" points="528.527,-471.989 533.374,-469.85 528.251,-468.5 528.527,-471.989"/>
</g>
<!-- imagen.Disk -->
<g id="node43" class="node"><title>imagen.Disk</title>
<polygon fill="none" stroke="black" stroke-width="0.5" points="620,-438.5 544,-438.5 544,-417.5 620,-417.5 620,-438.5"/>
<text text-anchor="middle" x="582" y="-425.5" font-family="Vera" font-size="10.00">imagen.Disk</text>
</g>
<!-- imagen.patterngenerator.PatternGenerator&#45;&gt;imagen.Disk -->
<g id="edge40" class="edge"><title>imagen.patterngenerator.PatternGenerator&#45;&gt;imagen.Disk</title>
<path fill="none" stroke="black" stroke-width="0.5" d="M420.515,-474.949C431.895,-472.553 443.353,-469.609 454,-466 471.134,-460.192 472.972,-453.112 490,-447 505.446,-441.455 522.964,-437.334 538.538,-434.374"/>
<polygon fill="black" stroke="black" points="539.14,-436.042 543.739,-433.414 538.505,-432.6 539.14,-436.042"/>
</g>
<!-- imagen.Line -->
<g id="node45" class="node"><title>imagen.Line</title>
<polygon fill="none" stroke="black" stroke-width="0.5" points="619,-400.5 545,-400.5 545,-379.5 619,-379.5 619,-400.5"/>
<text text-anchor="middle" x="582" y="-387.5" font-family="Vera" font-size="10.00">imagen.Line</text>
</g>
<!-- imagen.patterngenerator.PatternGenerator&#45;&gt;imagen.Line -->
<g id="edge42" class="edge"><title>imagen.patterngenerator.PatternGenerator&#45;&gt;imagen.Line</title>
<path fill="none" stroke="black" stroke-width="0.5" d="M436.846,-474.968C442.881,-472.512 448.666,-469.554 454,-466 478.935,-449.386 465.365,-426.056 490,-409 504.339,-399.072 522.752,-394.123 539.334,-391.726"/>
<polygon fill="black" stroke="black" points="539.683,-393.445 544.414,-391.061 539.229,-389.975 539.683,-393.445"/>
</g>
<!-- imagen.Translator -->
<g id="node47" class="node"><title>imagen.Translator</title>
<polygon fill="none" stroke="black" stroke-width="0.5" points="633,-362.5 531,-362.5 531,-341.5 633,-341.5 633,-362.5"/>
<text text-anchor="middle" x="582" y="-349.5" font-family="Vera" font-size="10.00">imagen.Translator</text>
</g>
<!-- imagen.patterngenerator.PatternGenerator&#45;&gt;imagen.Translator -->
<g id="edge44" class="edge"><title>imagen.patterngenerator.PatternGenerator&#45;&gt;imagen.Translator</title>
<path fill="none" stroke="black" stroke-width="0.5" d="M440.125,-474.98C445.063,-472.476 449.735,-469.508 454,-466 488.872,-437.318 455.644,-400.298 490,-371 499.969,-362.498 512.742,-357.461 525.576,-354.552"/>
<polygon fill="black" stroke="black" points="526.138,-356.223 530.684,-353.502 525.434,-352.794 526.138,-356.223"/>
</g>
<!-- imagen.SigmoidedDoG -->
<g id="node49" class="node"><title>imagen.SigmoidedDoG</title>
<polygon fill="none" stroke="black" stroke-width="0.5" points="646,-324.5 518,-324.5 518,-303.5 646,-303.5 646,-324.5"/>
<text text-anchor="middle" x="582" y="-311.5" font-family="Vera" font-size="10.00">imagen.SigmoidedDoG</text>
</g>
<!-- imagen.patterngenerator.PatternGenerator&#45;&gt;imagen.SigmoidedDoG -->
<g id="edge46" class="edge"><title>imagen.patterngenerator.PatternGenerator&#45;&gt;imagen.SigmoidedDoG</title>
<path fill="none" stroke="black" stroke-width="0.5" d="M441.576,-474.896C446.023,-472.39 450.204,-469.447 454,-466 499.336,-424.832 445.404,-374.968 490,-333 496.514,-326.87 504.459,-322.494 512.923,-319.403"/>
<polygon fill="black" stroke="black" points="513.487,-321.06 517.674,-317.815 512.377,-317.741 513.487,-321.06"/>
</g>
<!-- imagen.Gaussian -->
<g id="node51" class="node"><title>imagen.Gaussian</title>
<polygon fill="none" stroke="black" stroke-width="0.5" points="632,-286.5 532,-286.5 532,-265.5 632,-265.5 632,-286.5"/>
<text text-anchor="middle" x="582" y="-273.5" font-family="Vera" font-size="10.00">imagen.Gaussian</text>
</g>
<!-- imagen.patterngenerator.PatternGenerator&#45;&gt;imagen.Gaussian -->
<g id="edge48" class="edge"><title>imagen.patterngenerator.PatternGenerator&#45;&gt;imagen.Gaussian</title>
<path fill="none" stroke="black" stroke-width="0.5" d="M442.322,-474.855C446.517,-472.348 450.445,-469.417 454,-466 509.991,-412.176 434.977,-349.813 490,-295 499.776,-285.261 513.14,-279.884 526.651,-277.05"/>
<polygon fill="black" stroke="black" points="527.038,-278.758 531.63,-276.118 526.393,-275.318 527.038,-278.758"/>
</g>
<!-- imagen.LogGaussian -->
<g id="node53" class="node"><title>imagen.LogGaussian</title>
<polygon fill="none" stroke="black" stroke-width="0.5" points="640,-248.5 524,-248.5 524,-227.5 640,-227.5 640,-248.5"/>
<text text-anchor="middle" x="582" y="-235.5" font-family="Vera" font-size="10.00">imagen.LogGaussian</text>
</g>
<!-- imagen.patterngenerator.PatternGenerator&#45;&gt;imagen.LogGaussian -->
<g id="edge50" class="edge"><title>imagen.patterngenerator.PatternGenerator&#45;&gt;imagen.LogGaussian</title>
<path fill="none" stroke="black" stroke-width="0.5" d="M442.975,-474.706C446.942,-472.226 450.649,-469.343 454,-466 520.734,-399.435 424.462,-324.743 490,-257 497.67,-249.071 507.71,-244.006 518.332,-240.845"/>
<polygon fill="black" stroke="black" points="518.873,-242.512 523.247,-239.523 517.964,-239.132 518.873,-242.512"/>
</g>
<!-- imagen.SigmoidedDoLG -->
<g id="node55" class="node"><title>imagen.SigmoidedDoLG</title>
<polygon fill="none" stroke="black" stroke-width="0.5" points="648,-210.5 516,-210.5 516,-189.5 648,-189.5 648,-210.5"/>
<text text-anchor="middle" x="582" y="-197.5" font-family="Vera" font-size="10.00">imagen.SigmoidedDoLG</text>
</g>
<!-- imagen.patterngenerator.PatternGenerator&#45;&gt;imagen.SigmoidedDoLG -->
<g id="edge52" class="edge"><title>imagen.patterngenerator.PatternGenerator&#45;&gt;imagen.SigmoidedDoLG</title>
<path fill="none" stroke="black" stroke-width="0.5" d="M443.082,-474.812C447.02,-472.304 450.692,-469.386 454,-466 531.525,-386.646 413.9,-299.722 490,-219 495.652,-213.005 502.655,-208.637 510.257,-205.486"/>
<polygon fill="black" stroke="black" points="510.997,-207.077 515.06,-203.677 509.764,-203.801 510.997,-207.077"/>
</g>
<!-- imagen.GaussiansCorner -->
<g id="node57" class="node"><title>imagen.GaussiansCorner</title>
<polygon fill="none" stroke="black" stroke-width="0.5" points="650,-172.5 514,-172.5 514,-151.5 650,-151.5 650,-172.5"/>
<text text-anchor="middle" x="582" y="-159.5" font-family="Vera" font-size="10.00">imagen.GaussiansCorner</text>
</g>
<!-- imagen.patterngenerator.PatternGenerator&#45;&gt;imagen.GaussiansCorner -->
<g id="edge54" class="edge"><title>imagen.patterngenerator.PatternGenerator&#45;&gt;imagen.GaussiansCorner</title>
<path fill="none" stroke="black" stroke-width="0.5" d="M443.162,-474.889C447.079,-472.361 450.725,-469.417 454,-466 542.345,-373.828 403.31,-274.73 490,-181 495.129,-175.455 501.413,-171.294 508.266,-168.199"/>
<polygon fill="black" stroke="black" points="509.13,-169.736 513.094,-166.222 507.804,-166.497 509.13,-169.736"/>
</g>
<!-- imagen.Rectangle -->
<g id="node60" class="node"><title>imagen.Rectangle</title>
<polygon fill="none" stroke="black" stroke-width="0.5" points="633,-134.5 531,-134.5 531,-113.5 633,-113.5 633,-134.5"/>
<text text-anchor="middle" x="582" y="-121.5" font-family="Vera" font-size="10.00">imagen.Rectangle</text>
</g>
<!-- imagen.patterngenerator.PatternGenerator&#45;&gt;imagen.Rectangle -->
<g id="edge62" class="edge"><title>imagen.patterngenerator.PatternGenerator&#45;&gt;imagen.Rectangle</title>
<path fill="none" stroke="black" stroke-width="0.5" d="M443.223,-474.948C447.125,-472.404 450.75,-469.441 454,-466 553.183,-360.991 392.702,-249.758 490,-143 499.295,-132.801 512.496,-127.268 526.005,-124.431"/>
<polygon fill="black" stroke="black" points="526.393,-126.139 530.989,-123.505 525.753,-122.698 526.393,-126.139"/>
</g>
<!-- imagen.Sigmoid -->
<g id="node68" class="node"><title>imagen.Sigmoid</title>
<polygon fill="none" stroke="black" stroke-width="0.5" points="629,-96.5 535,-96.5 535,-75.5 629,-75.5 629,-96.5"/>
<text text-anchor="middle" x="582" y="-83.5" font-family="Vera" font-size="10.00">imagen.Sigmoid</text>
</g>
<!-- imagen.patterngenerator.PatternGenerator&#45;&gt;imagen.Sigmoid -->
<g id="edge66" class="edge"><title>imagen.patterngenerator.PatternGenerator&#45;&gt;imagen.Sigmoid</title>
<path fill="none" stroke="black" stroke-width="0.5" d="M443.273,-474.994C447.161,-472.438 450.77,-469.46 454,-466 509.017,-407.07 436.041,-164.9 490,-105 500.003,-93.8953 514.634,-88.3062 529.297,-85.7068"/>
<polygon fill="black" stroke="black" points="529.592,-87.4321 534.265,-84.9363 529.055,-83.9735 529.592,-87.4321"/>
</g>
<!-- imagen.DifferenceOfGaussians -->
<g id="node70" class="node"><title>imagen.DifferenceOfGaussians</title>
<polygon fill="none" stroke="black" stroke-width="0.5" points="664,-58.5 500,-58.5 500,-37.5 664,-37.5 664,-58.5"/>
<text text-anchor="middle" x="582" y="-45.5" font-family="Vera" font-size="10.00">imagen.DifferenceOfGaussians</text>
</g>
<!-- imagen.patterngenerator.PatternGenerator&#45;&gt;imagen.DifferenceOfGaussians -->
<g id="edge68" class="edge"><title>imagen.patterngenerator.PatternGenerator&#45;&gt;imagen.DifferenceOfGaussians</title>
<path fill="none" stroke="black" stroke-width="0.5" d="M443.796,-474.709C447.49,-472.215 450.92,-469.33 454,-466 514.447,-400.64 430.726,-133.426 490,-67 491.9,-64.8704 493.971,-62.9432 496.179,-61.2007"/>
<polygon fill="black" stroke="black" points="497.245,-62.5901 500.296,-58.2597 495.21,-59.7421 497.245,-62.5901"/>
</g>
<!-- param.parameterized.Parameterized -->
<g id="node10" class="node"><title>param.parameterized.Parameterized</title>
<polygon fill="none" stroke="black" stroke-width="0.5" points="194,-476.5 5.68434e-14,-476.5 0,-455.5 194,-455.5 194,-476.5"/>
<text text-anchor="middle" x="97" y="-463.5" font-family="Vera" font-size="10.00">param.parameterized.Parameterized</text>
</g>
<!-- param.parameterized.Parameterized&#45;&gt;imagen.patterngenerator.PatternGenerator -->
<g id="edge58" class="edge"><title>param.parameterized.Parameterized&#45;&gt;imagen.patterngenerator.PatternGenerator</title>
<path fill="none" stroke="black" stroke-width="0.5" d="M194.182,-473.537C204.286,-474.32 214.629,-475.122 224.922,-475.92"/>
<polygon fill="black" stroke="black" points="224.849,-477.67 229.969,-476.312 225.12,-474.18 224.849,-477.67"/>
</g>
<!-- imagen.TimeSeries -->
<g id="node19" class="node"><title>imagen.TimeSeries</title>
<polygon fill="none" stroke="black" stroke-width="0.5" points="396,-457.5 288,-457.5 288,-436.5 396,-436.5 396,-457.5"/>
<text text-anchor="middle" x="342" y="-444.5" font-family="Vera" font-size="10.00">imagen.TimeSeries</text>
</g>
<!-- param.parameterized.Parameterized&#45;&gt;imagen.TimeSeries -->
<g id="edge14" class="edge"><title>param.parameterized.Parameterized&#45;&gt;imagen.TimeSeries</title>
<path fill="none" stroke="black" stroke-width="0.5" d="M194.182,-458.463C223.866,-456.161 255.624,-453.699 282.066,-451.648"/>
<polygon fill="black" stroke="black" points="282.431,-453.375 287.281,-451.244 282.161,-449.885 282.431,-453.375"/>
</g>
<!-- param.Selector -->
<g id="node11" class="node"><title>param.Selector</title>
<polygon fill="none" stroke="black" stroke-width="0.5" points="387,-20.5 297,-20.5 297,0.5 387,0.5 387,-20.5"/>
<text text-anchor="middle" x="342" y="-7.5" font-family="Vera" font-size="10.00">param.Selector</text>
</g>
<!-- param.Selector&#45;&gt;param.ClassSelector -->
<g id="edge30" class="edge"><title>param.Selector&#45;&gt;param.ClassSelector</title>
<path fill="none" stroke="black" stroke-width="0.5" d="M387.707,-10C424.748,-10 477.358,-10 518.494,-10"/>
<polygon fill="black" stroke="black" points="518.706,-11.7501 523.706,-10 518.706,-8.2501 518.706,-11.7501"/>
</g>
<!-- param.parameterized.Parameter -->
<g id="node12" class="node"><title>param.parameterized.Parameter</title>
<polygon fill="none" stroke="black" stroke-width="0.5" points="184,-20.5 10,-20.5 10,0.5 184,0.5 184,-20.5"/>
<text text-anchor="middle" x="97" y="-7.5" font-family="Vera" font-size="10.00">param.parameterized.Parameter</text>
</g>
<!-- param.parameterized.Parameter&#45;&gt;param.Selector -->
<g id="edge8" class="edge"><title>param.parameterized.Parameter&#45;&gt;param.Selector</title>
<path fill="none" stroke="black" stroke-width="0.5" d="M184.759,-10C220.453,-10 260.436,-10 291.152,-10"/>
<polygon fill="black" stroke="black" points="291.387,-11.7501 296.387,-10 291.387,-8.2501 291.387,-11.7501"/>
</g>
<!-- imagen.SeparatedComposite -->
<g id="node63" class="node"><title>imagen.SeparatedComposite</title>
<polygon fill="none" stroke="black" stroke-width="0.5" points="868,-856.5 710,-856.5 710,-835.5 868,-835.5 868,-856.5"/>
<text text-anchor="middle" x="789" y="-843.5" font-family="Vera" font-size="10.00">imagen.SeparatedComposite</text>
</g>
<!-- imagen.Composite&#45;&gt;imagen.SeparatedComposite -->
<g id="edge60" class="edge"><title>imagen.Composite&#45;&gt;imagen.SeparatedComposite</title>
<path fill="none" stroke="black" stroke-width="0.5" d="M635.577,-846C656.626,-846 681.297,-846 704.625,-846"/>
<polygon fill="black" stroke="black" points="704.893,-847.75 709.893,-846 704.892,-844.25 704.893,-847.75"/>
</g>
<!-- imagen.Spectrogram -->
<g id="node16" class="node"><title>imagen.Spectrogram</title>
<polygon fill="none" stroke="black" stroke-width="0.5" points="848,-818.5 730,-818.5 730,-797.5 848,-797.5 848,-818.5"/>
<text text-anchor="middle" x="789" y="-805.5" font-family="Vera" font-size="10.00">imagen.Spectrogram</text>
</g>
<!-- imagen.PowerSpectrum&#45;&gt;imagen.Spectrogram -->
<g id="edge12" class="edge"><title>imagen.PowerSpectrum&#45;&gt;imagen.Spectrogram</title>
<path fill="none" stroke="black" stroke-width="0.5" d="M647.781,-808C672.206,-808 699.878,-808 724.214,-808"/>
<polygon fill="black" stroke="black" points="724.354,-809.75 729.354,-808 724.354,-806.25 724.354,-809.75"/>
</g>
<!-- imagen.Curve -->
<g id="node21" class="node"><title>imagen.Curve</title>
<polygon fill="none" stroke="black" stroke-width="0.5" points="830,-780.5 748,-780.5 748,-759.5 830,-759.5 830,-780.5"/>
<text text-anchor="middle" x="789" y="-767.5" font-family="Vera" font-size="10.00">imagen.Curve</text>
</g>
<!-- imagen.Arc&#45;&gt;imagen.Curve -->
<g id="edge16" class="edge"><title>imagen.Arc&#45;&gt;imagen.Curve</title>
<path fill="none" stroke="black" stroke-width="0.5" d="M617.585,-770C652.1,-770 704.658,-770 742.474,-770"/>
<polygon fill="black" stroke="black" points="742.476,-771.75 747.476,-770 742.476,-768.25 742.476,-771.75"/>
</g>
<!-- imagen.Null -->
<g id="node66" class="node"><title>imagen.Null</title>
<polygon fill="none" stroke="black" stroke-width="0.5" points="826,-742.5 752,-742.5 752,-721.5 826,-721.5 826,-742.5"/>
<text text-anchor="middle" x="789" y="-729.5" font-family="Vera" font-size="10.00">imagen.Null</text>
</g>
<!-- imagen.patterngenerator.Constant&#45;&gt;imagen.Null -->
<g id="edge64" class="edge"><title>imagen.patterngenerator.Constant&#45;&gt;imagen.Null</title>
<path fill="none" stroke="black" stroke-width="0.5" d="M674.3,-732C699.545,-732 725.69,-732 746.63,-732"/>
<polygon fill="black" stroke="black" points="746.839,-733.75 751.839,-732 746.838,-730.25 746.839,-733.75"/>
</g>
<!-- imagen.TwoRectangles -->
<g id="node59" class="node"><title>imagen.TwoRectangles</title>
<polygon fill="none" stroke="black" stroke-width="0.5" points="851,-134.5 727,-134.5 727,-113.5 851,-113.5 851,-134.5"/>
<text text-anchor="middle" x="789" y="-121.5" font-family="Vera" font-size="10.00">imagen.TwoRectangles</text>
</g>
<!-- imagen.Rectangle&#45;&gt;imagen.TwoRectangles -->
<g id="edge56" class="edge"><title>imagen.Rectangle&#45;&gt;imagen.TwoRectangles</title>
<path fill="none" stroke="black" stroke-width="0.5" d="M633.169,-124C659.881,-124 692.903,-124 721.665,-124"/>
<polygon fill="black" stroke="black" points="721.983,-125.75 726.983,-124 721.983,-122.25 721.983,-125.75"/>
</g>
</g>
</svg>
