<?xml version="1.0" encoding="UTF-8" standalone="no"?>
<!DOCTYPE svg PUBLIC "-//W3C//DTD SVG 1.1//EN"
 "http://www.w3.org/Graphics/SVG/1.1/DTD/svg11.dtd">
<!-- Generated by graphviz version 2.26.3 (20100126.1600)
 -->
<!-- Title: inheritance273a80740e Pages: 1 -->
<svg width="876pt" height="940pt"
 viewBox="0.00 0.00 876.00 940.00" xmlns="http://www.w3.org/2000/svg" xmlns:xlink="http://www.w3.org/1999/xlink">
<g id="graph1" class="graph" transform="scale(1 1) rotate(0) translate(4 936)">
<title>inheritance273a80740e</title>
<polygon fill="white" stroke="white" points="-4,5 -4,-936 873,-936 873,5 -4,5"/>
<!-- param.parameterized.Parameter -->
<g id="node1" class="node"><title>param.parameterized.Parameter</title>
<polygon fill="none" stroke="black" stroke-width="0.5" points="184,-20.5 10,-20.5 10,0.5 184,0.5 184,-20.5"/>
<text text-anchor="middle" x="97" y="-7.5" font-family="Vera" font-size="10.00">param.parameterized.Parameter</text>
</g>
<!-- param.Selector -->
<g id="node29" class="node"><title>param.Selector</title>
<polygon fill="none" stroke="black" stroke-width="0.5" points="387,-20.5 297,-20.5 297,0.5 387,0.5 387,-20.5"/>
<text text-anchor="middle" x="342" y="-7.5" font-family="Vera" font-size="10.00">param.Selector</text>
</g>
<!-- param.parameterized.Parameter&#45;&gt;param.Selector -->
<g id="edge26" class="edge"><title>param.parameterized.Parameter&#45;&gt;param.Selector</title>
<path fill="none" stroke="black" stroke-width="0.5" d="M184.759,-10C220.453,-10 260.436,-10 291.152,-10"/>
<polygon fill="black" stroke="black" points="291.387,-11.7501 296.387,-10 291.387,-8.2501 291.387,-11.7501"/>
</g>
<!-- imagen.RawRectangle -->
<g id="node2" class="node"><title>imagen.RawRectangle</title>
<polygon fill="none" stroke="black" stroke-width="0.5" points="642,-932.5 522,-932.5 522,-911.5 642,-911.5 642,-932.5"/>
<text text-anchor="middle" x="582" y="-919.5" font-family="Vera" font-size="10.00">imagen.RawRectangle</text>
</g>
<!-- imagen.patterngenerator.PatternGenerator -->
<g id="node3" class="node"><title>imagen.patterngenerator.PatternGenerator</title>
<polygon fill="none" stroke="black" stroke-width="0.5" points="454,-495.5 230,-495.5 230,-474.5 454,-474.5 454,-495.5"/>
<text text-anchor="middle" x="342" y="-482.5" font-family="Vera" font-size="10.00">imagen.patterngenerator.PatternGenerator</text>
</g>
<!-- imagen.patterngenerator.PatternGenerator&#45;&gt;imagen.RawRectangle -->
<g id="edge2" class="edge"><title>imagen.patterngenerator.PatternGenerator&#45;&gt;imagen.RawRectangle</title>
<path fill="none" stroke="black" stroke-width="0.5" d="M344.205,-495.259C356.982,-553.776 423.271,-844.818 490,-903 497.606,-909.632 506.91,-914.168 516.647,-917.234"/>
<polygon fill="black" stroke="black" points="516.166,-918.916 521.456,-918.623 517.138,-915.554 516.166,-918.916"/>
</g>
<!-- imagen.DifferenceOfGaussians -->
<g id="node5" class="node"><title>imagen.DifferenceOfGaussians</title>
<polygon fill="none" stroke="black" stroke-width="0.5" points="664,-894.5 500,-894.5 500,-873.5 664,-873.5 664,-894.5"/>
<text text-anchor="middle" x="582" y="-881.5" font-family="Vera" font-size="10.00">imagen.DifferenceOfGaussians</text>
</g>
<!-- imagen.patterngenerator.PatternGenerator&#45;&gt;imagen.DifferenceOfGaussians -->
<g id="edge4" class="edge"><title>imagen.patterngenerator.PatternGenerator&#45;&gt;imagen.DifferenceOfGaussians</title>
<path fill="none" stroke="black" stroke-width="0.5" d="M342.586,-495.178C346.009,-544.641 367.778,-761.734 490,-865 492.912,-867.46 496.059,-869.63 499.375,-871.541"/>
<polygon fill="black" stroke="black" points="498.756,-873.194 503.993,-873.99 500.396,-870.102 498.756,-873.194"/>
</g>
<!-- imagen.SquareGrating -->
<g id="node7" class="node"><title>imagen.SquareGrating</title>
<polygon fill="none" stroke="black" stroke-width="0.5" points="644,-856.5 520,-856.5 520,-835.5 644,-835.5 644,-856.5"/>
<text text-anchor="middle" x="582" y="-843.5" font-family="Vera" font-size="10.00">imagen.SquareGrating</text>
</g>
<!-- imagen.patterngenerator.PatternGenerator&#45;&gt;imagen.SquareGrating -->
<g id="edge6" class="edge"><title>imagen.patterngenerator.PatternGenerator&#45;&gt;imagen.SquareGrating</title>
<path fill="none" stroke="black" stroke-width="0.5" d="M343.054,-495.096C348.456,-541.427 377.339,-735.332 490,-827 497.152,-832.819 505.631,-836.995 514.503,-839.969"/>
<polygon fill="black" stroke="black" points="514.172,-841.698 519.466,-841.5 515.204,-838.354 514.172,-841.698"/>
</g>
<!-- imagen.patterngenerator.Constant -->
<g id="node9" class="node"><title>imagen.patterngenerator.Constant</title>
<polygon fill="none" stroke="black" stroke-width="0.5" points="674,-818.5 490,-818.5 490,-797.5 674,-797.5 674,-818.5"/>
<text text-anchor="middle" x="582" y="-805.5" font-family="Vera" font-size="10.00">imagen.patterngenerator.Constant</text>
</g>
<!-- imagen.patterngenerator.PatternGenerator&#45;&gt;imagen.patterngenerator.Constant -->
<g id="edge8" class="edge"><title>imagen.patterngenerator.PatternGenerator&#45;&gt;imagen.patterngenerator.Constant</title>
<path fill="none" stroke="black" stroke-width="0.5" d="M343.642,-495.137C351.211,-538.38 386.877,-708.851 490,-789 493.099,-791.408 496.427,-793.532 499.916,-795.403"/>
<polygon fill="black" stroke="black" points="499.508,-797.153 504.765,-797.8 501.059,-794.015 499.508,-797.153"/>
</g>
<!-- imagen.Sweeper -->
<g id="node11" class="node"><title>imagen.Sweeper</title>
<polygon fill="none" stroke="black" stroke-width="0.5" points="630,-780.5 534,-780.5 534,-759.5 630,-759.5 630,-780.5"/>
<text text-anchor="middle" x="582" y="-767.5" font-family="Vera" font-size="10.00">imagen.Sweeper</text>
</g>
<!-- imagen.patterngenerator.PatternGenerator&#45;&gt;imagen.Sweeper -->
<g id="edge10" class="edge"><title>imagen.patterngenerator.PatternGenerator&#45;&gt;imagen.Sweeper</title>
<path fill="none" stroke="black" stroke-width="0.5" d="M344.397,-495.219C354.341,-535.199 396.286,-682.188 490,-751 501.123,-759.167 514.943,-764.011 528.462,-766.837"/>
<polygon fill="black" stroke="black" points="528.184,-768.565 533.424,-767.789 528.843,-765.128 528.184,-768.565"/>
</g>
<!-- imagen.PowerSpectrum -->
<g id="node14" class="node"><title>imagen.PowerSpectrum</title>
<polygon fill="none" stroke="black" stroke-width="0.5" points="647,-742.5 517,-742.5 517,-721.5 647,-721.5 647,-742.5"/>
<text text-anchor="middle" x="582" y="-729.5" font-family="Vera" font-size="10.00">imagen.PowerSpectrum</text>
</g>
<!-- imagen.patterngenerator.PatternGenerator&#45;&gt;imagen.PowerSpectrum -->
<g id="edge12" class="edge"><title>imagen.patterngenerator.PatternGenerator&#45;&gt;imagen.PowerSpectrum</title>
<path fill="none" stroke="black" stroke-width="0.5" d="M345.371,-495.24C357.895,-531.576 405.443,-655.232 490,-713 496.346,-717.336 503.473,-720.719 510.879,-723.353"/>
<polygon fill="black" stroke="black" points="510.748,-725.153 516.045,-725.06 511.846,-721.83 510.748,-725.153"/>
</g>
<!-- imagen.Translator -->
<g id="node16" class="node"><title>imagen.Translator</title>
<polygon fill="none" stroke="black" stroke-width="0.5" points="633,-704.5 531,-704.5 531,-683.5 633,-683.5 633,-704.5"/>
<text text-anchor="middle" x="582" y="-691.5" font-family="Vera" font-size="10.00">imagen.Translator</text>
</g>
<!-- imagen.patterngenerator.PatternGenerator&#45;&gt;imagen.Translator -->
<g id="edge14" class="edge"><title>imagen.patterngenerator.PatternGenerator&#45;&gt;imagen.Translator</title>
<path fill="none" stroke="black" stroke-width="0.5" d="M346.723,-495.3C362.136,-527.668 414.37,-627.969 490,-675 500.76,-681.691 513.461,-686.071 525.935,-688.926"/>
<polygon fill="black" stroke="black" points="525.631,-690.65 530.886,-689.984 526.362,-687.227 525.631,-690.65"/>
</g>
<!-- imagen.LogGaussian -->
<g id="node18" class="node"><title>imagen.LogGaussian</title>
<polygon fill="none" stroke="black" stroke-width="0.5" points="640,-666.5 524,-666.5 524,-645.5 640,-645.5 640,-666.5"/>
<text text-anchor="middle" x="582" y="-653.5" font-family="Vera" font-size="10.00">imagen.LogGaussian</text>
</g>
<!-- imagen.patterngenerator.PatternGenerator&#45;&gt;imagen.LogGaussian -->
<g id="edge16" class="edge"><title>imagen.patterngenerator.PatternGenerator&#45;&gt;imagen.LogGaussian</title>
<path fill="none" stroke="black" stroke-width="0.5" d="M348.572,-495.145C367.101,-522.853 422.812,-600.191 490,-637 498.648,-641.738 508.343,-645.298 518.107,-647.971"/>
<polygon fill="black" stroke="black" points="517.936,-649.734 523.215,-649.29 518.811,-646.346 517.936,-649.734"/>
</g>
<!-- imagen.SigmoidedDoG -->
<g id="node20" class="node"><title>imagen.SigmoidedDoG</title>
<polygon fill="none" stroke="black" stroke-width="0.5" points="646,-628.5 518,-628.5 518,-607.5 646,-607.5 646,-628.5"/>
<text text-anchor="middle" x="582" y="-615.5" font-family="Vera" font-size="10.00">imagen.SigmoidedDoG</text>
</g>
<!-- imagen.patterngenerator.PatternGenerator&#45;&gt;imagen.SigmoidedDoG -->
<g id="edge18" class="edge"><title>imagen.patterngenerator.PatternGenerator&#45;&gt;imagen.SigmoidedDoG</title>
<path fill="none" stroke="black" stroke-width="0.5" d="M351.684,-495.097C373.872,-517.589 431.039,-571.959 490,-599 497.243,-602.322 505.073,-605.068 513.001,-607.337"/>
<polygon fill="black" stroke="black" points="512.661,-609.058 517.946,-608.689 513.585,-605.682 512.661,-609.058"/>
</g>
<!-- imagen.Arc -->
<g id="node23" class="node"><title>imagen.Arc</title>
<polygon fill="none" stroke="black" stroke-width="0.5" points="617,-590.5 547,-590.5 547,-569.5 617,-569.5 617,-590.5"/>
<text text-anchor="middle" x="582" y="-577.5" font-family="Vera" font-size="10.00">imagen.Arc</text>
</g>
<!-- imagen.patterngenerator.PatternGenerator&#45;&gt;imagen.Arc -->
<g id="edge62" class="edge"><title>imagen.patterngenerator.PatternGenerator&#45;&gt;imagen.Arc</title>
<path fill="none" stroke="black" stroke-width="0.5" d="M358.209,-495.194C384.757,-511.453 439.606,-543.229 490,-561 506.448,-566.8 525.208,-571.07 541.478,-574.076"/>
<polygon fill="black" stroke="black" points="541.212,-575.806 546.442,-574.969 541.831,-572.361 541.212,-575.806"/>
</g>
<!-- imagen.Gaussian -->
<g id="node25" class="node"><title>imagen.Gaussian</title>
<polygon fill="none" stroke="black" stroke-width="0.5" points="632,-552.5 532,-552.5 532,-531.5 632,-531.5 632,-552.5"/>
<text text-anchor="middle" x="582" y="-539.5" font-family="Vera" font-size="10.00">imagen.Gaussian</text>
</g>
<!-- imagen.patterngenerator.PatternGenerator&#45;&gt;imagen.Gaussian -->
<g id="edge22" class="edge"><title>imagen.patterngenerator.PatternGenerator&#45;&gt;imagen.Gaussian</title>
<path fill="none" stroke="black" stroke-width="0.5" d="M378.982,-495.017C408.848,-502.981 452.009,-514.205 490,-523 501.817,-525.736 514.534,-528.486 526.629,-531.01"/>
<polygon fill="black" stroke="black" points="526.519,-532.775 531.77,-532.078 527.231,-529.348 526.519,-532.775"/>
</g>
<!-- imagen.Disk -->
<g id="node27" class="node"><title>imagen.Disk</title>
<polygon fill="none" stroke="black" stroke-width="0.5" points="620,-514.5 544,-514.5 544,-493.5 620,-493.5 620,-514.5"/>
<text text-anchor="middle" x="582" y="-501.5" font-family="Vera" font-size="10.00">imagen.Disk</text>
</g>
<!-- imagen.patterngenerator.PatternGenerator&#45;&gt;imagen.Disk -->
<g id="edge24" class="edge"><title>imagen.patterngenerator.PatternGenerator&#45;&gt;imagen.Disk</title>
<path fill="none" stroke="black" stroke-width="0.5" d="M454.27,-493.888C484.213,-496.259 514.8,-498.68 538.533,-500.559"/>
<polygon fill="black" stroke="black" points="538.675,-502.325 543.797,-500.976 538.951,-498.836 538.675,-502.325"/>
</g>
<!-- imagen.Gabor -->
<g id="node31" class="node"><title>imagen.Gabor</title>
<polygon fill="none" stroke="black" stroke-width="0.5" points="624,-476.5 540,-476.5 540,-455.5 624,-455.5 624,-476.5"/>
<text text-anchor="middle" x="582" y="-463.5" font-family="Vera" font-size="10.00">imagen.Gabor</text>
</g>
<!-- imagen.patterngenerator.PatternGenerator&#45;&gt;imagen.Gabor -->
<g id="edge28" class="edge"><title>imagen.patterngenerator.PatternGenerator&#45;&gt;imagen.Gabor</title>
<path fill="none" stroke="black" stroke-width="0.5" d="M454.27,-476.112C482.398,-473.885 511.095,-471.613 534.144,-469.789"/>
<polygon fill="black" stroke="black" points="534.428,-471.522 539.274,-469.382 534.152,-468.033 534.428,-471.522"/>
</g>
<!-- imagen.SigmoidedDoLG -->
<g id="node33" class="node"><title>imagen.SigmoidedDoLG</title>
<polygon fill="none" stroke="black" stroke-width="0.5" points="648,-438.5 516,-438.5 516,-417.5 648,-417.5 648,-438.5"/>
<text text-anchor="middle" x="582" y="-425.5" font-family="Vera" font-size="10.00">imagen.SigmoidedDoLG</text>
</g>
<!-- imagen.patterngenerator.PatternGenerator&#45;&gt;imagen.SigmoidedDoLG -->
<g id="edge30" class="edge"><title>imagen.patterngenerator.PatternGenerator&#45;&gt;imagen.SigmoidedDoLG</title>
<path fill="none" stroke="black" stroke-width="0.5" d="M420.515,-474.949C431.895,-472.553 443.353,-469.609 454,-466 471.134,-460.192 472.972,-453.112 490,-447 498.289,-444.024 507.175,-441.459 516.037,-439.263"/>
<polygon fill="black" stroke="black" points="516.501,-440.951 520.953,-438.08 515.683,-437.548 516.501,-440.951"/>
</g>
<!-- imagen.GaussiansCorner -->
<g id="node35" class="node"><title>imagen.GaussiansCorner</title>
<polygon fill="none" stroke="black" stroke-width="0.5" points="650,-400.5 514,-400.5 514,-379.5 650,-379.5 650,-400.5"/>
<text text-anchor="middle" x="582" y="-387.5" font-family="Vera" font-size="10.00">imagen.GaussiansCorner</text>
</g>
<!-- imagen.patterngenerator.PatternGenerator&#45;&gt;imagen.GaussiansCorner -->
<g id="edge32" class="edge"><title>imagen.patterngenerator.PatternGenerator&#45;&gt;imagen.GaussiansCorner</title>
<path fill="none" stroke="black" stroke-width="0.5" d="M436.846,-474.968C442.881,-472.512 448.666,-469.554 454,-466 478.935,-449.386 465.365,-426.056 490,-409 495.556,-405.153 501.724,-402.054 508.161,-399.561"/>
<polygon fill="black" stroke="black" points="509.018,-401.112 513.129,-397.77 507.832,-397.819 509.018,-401.112"/>
</g>
<!-- imagen.Rectangle -->
<g id="node38" class="node"><title>imagen.Rectangle</title>
<polygon fill="none" stroke="black" stroke-width="0.5" points="633,-362.5 531,-362.5 531,-341.5 633,-341.5 633,-362.5"/>
<text text-anchor="middle" x="582" y="-349.5" font-family="Vera" font-size="10.00">imagen.Rectangle</text>
</g>
<!-- imagen.patterngenerator.PatternGenerator&#45;&gt;imagen.Rectangle -->
<g id="edge40" class="edge"><title>imagen.patterngenerator.PatternGenerator&#45;&gt;imagen.Rectangle</title>
<path fill="none" stroke="black" stroke-width="0.5" d="M440.125,-474.98C445.063,-472.476 449.735,-469.508 454,-466 488.872,-437.318 455.644,-400.298 490,-371 499.969,-362.498 512.742,-357.461 525.576,-354.552"/>
<polygon fill="black" stroke="black" points="526.138,-356.223 530.684,-353.502 525.434,-352.794 526.138,-356.223"/>
</g>
<!-- imagen.Composite -->
<g id="node43" class="node"><title>imagen.Composite</title>
<polygon fill="none" stroke="black" stroke-width="0.5" points="635,-324.5 529,-324.5 529,-303.5 635,-303.5 635,-324.5"/>
<text text-anchor="middle" x="582" y="-311.5" font-family="Vera" font-size="10.00">imagen.Composite</text>
</g>
<!-- imagen.patterngenerator.PatternGenerator&#45;&gt;imagen.Composite -->
<g id="edge50" class="edge"><title>imagen.patterngenerator.PatternGenerator&#45;&gt;imagen.Composite</title>
<path fill="none" stroke="black" stroke-width="0.5" d="M441.576,-474.896C446.023,-472.39 450.204,-469.447 454,-466 499.336,-424.832 445.404,-374.968 490,-333 499.041,-324.491 510.841,-319.363 522.958,-316.357"/>
<polygon fill="black" stroke="black" points="523.665,-317.992 528.164,-315.195 522.903,-314.576 523.665,-317.992"/>
</g>
<!-- imagen.Ring -->
<g id="node46" class="node"><title>imagen.Ring</title>
<polygon fill="none" stroke="black" stroke-width="0.5" points="620,-286.5 544,-286.5 544,-265.5 620,-265.5 620,-286.5"/>
<text text-anchor="middle" x="582" y="-273.5" font-family="Vera" font-size="10.00">imagen.Ring</text>
</g>
<!-- imagen.patterngenerator.PatternGenerator&#45;&gt;imagen.Ring -->
<g id="edge42" class="edge"><title>imagen.patterngenerator.PatternGenerator&#45;&gt;imagen.Ring</title>
<path fill="none" stroke="black" stroke-width="0.5" d="M442.322,-474.855C446.517,-472.348 450.445,-469.417 454,-466 509.991,-412.176 434.977,-349.813 490,-295 502.67,-282.378 521.366,-277.083 538.601,-275.154"/>
<polygon fill="black" stroke="black" points="539.079,-276.867 543.894,-274.659 538.753,-273.382 539.079,-276.867"/>
</g>
<!-- imagen.SineGrating -->
<g id="node52" class="node"><title>imagen.SineGrating</title>
<polygon fill="none" stroke="black" stroke-width="0.5" points="638,-248.5 526,-248.5 526,-227.5 638,-227.5 638,-248.5"/>
<text text-anchor="middle" x="582" y="-235.5" font-family="Vera" font-size="10.00">imagen.SineGrating</text>
</g>
<!-- imagen.patterngenerator.PatternGenerator&#45;&gt;imagen.SineGrating -->
<g id="edge70" class="edge"><title>imagen.patterngenerator.PatternGenerator&#45;&gt;imagen.SineGrating</title>
<path fill="none" stroke="black" stroke-width="0.5" d="M442.975,-474.706C446.942,-472.226 450.649,-469.343 454,-466 520.734,-399.435 424.462,-324.743 490,-257 498.236,-248.487 509.203,-243.275 520.689,-240.176"/>
<polygon fill="black" stroke="black" points="521.191,-241.855 525.637,-238.974 520.365,-238.454 521.191,-241.855"/>
</g>
<!-- imagen.Sigmoid -->
<g id="node61" class="node"><title>imagen.Sigmoid</title>
<polygon fill="none" stroke="black" stroke-width="0.5" points="629,-210.5 535,-210.5 535,-189.5 629,-189.5 629,-210.5"/>
<text text-anchor="middle" x="582" y="-197.5" font-family="Vera" font-size="10.00">imagen.Sigmoid</text>
</g>
<!-- imagen.patterngenerator.PatternGenerator&#45;&gt;imagen.Sigmoid -->
<g id="edge58" class="edge"><title>imagen.patterngenerator.PatternGenerator&#45;&gt;imagen.Sigmoid</title>
<path fill="none" stroke="black" stroke-width="0.5" d="M443.082,-474.812C447.02,-472.304 450.692,-469.386 454,-466 531.525,-386.646 413.9,-299.722 490,-219 500.064,-208.325 514.414,-202.806 528.796,-200.138"/>
<polygon fill="black" stroke="black" points="529.433,-201.808 534.088,-199.28 528.872,-198.353 529.433,-201.808"/>
</g>
<!-- imagen.ExponentialDecay -->
<g id="node63" class="node"><title>imagen.ExponentialDecay</title>
<polygon fill="none" stroke="black" stroke-width="0.5" points="652,-172.5 512,-172.5 512,-151.5 652,-151.5 652,-172.5"/>
<text text-anchor="middle" x="582" y="-159.5" font-family="Vera" font-size="10.00">imagen.ExponentialDecay</text>
</g>
<!-- imagen.patterngenerator.PatternGenerator&#45;&gt;imagen.ExponentialDecay -->
<g id="edge60" class="edge"><title>imagen.patterngenerator.PatternGenerator&#45;&gt;imagen.ExponentialDecay</title>
<path fill="none" stroke="black" stroke-width="0.5" d="M443.162,-474.889C447.079,-472.361 450.725,-469.417 454,-466 542.345,-373.828 403.31,-274.73 490,-181 494.677,-175.943 500.315,-172.038 506.469,-169.041"/>
<polygon fill="black" stroke="black" points="507.401,-170.543 511.269,-166.923 505.988,-167.341 507.401,-170.543"/>
</g>
<!-- imagen.Line -->
<g id="node66" class="node"><title>imagen.Line</title>
<polygon fill="none" stroke="black" stroke-width="0.5" points="619,-134.5 545,-134.5 545,-113.5 619,-113.5 619,-134.5"/>
<text text-anchor="middle" x="582" y="-121.5" font-family="Vera" font-size="10.00">imagen.Line</text>
</g>
<!-- imagen.patterngenerator.PatternGenerator&#45;&gt;imagen.Line -->
<g id="edge64" class="edge"><title>imagen.patterngenerator.PatternGenerator&#45;&gt;imagen.Line</title>
<path fill="none" stroke="black" stroke-width="0.5" d="M443.223,-474.948C447.125,-472.404 450.75,-469.441 454,-466 553.183,-360.991 392.702,-249.758 490,-143 502.246,-129.563 521.27,-124.226 538.848,-122.482"/>
<polygon fill="black" stroke="black" points="539.403,-124.193 544.248,-122.051 539.124,-120.704 539.403,-124.193"/>
</g>
<!-- imagen.HalfPlane -->
<g id="node68" class="node"><title>imagen.HalfPlane</title>
<polygon fill="none" stroke="black" stroke-width="0.5" points="632,-96.5 532,-96.5 532,-75.5 632,-75.5 632,-96.5"/>
<text text-anchor="middle" x="582" y="-83.5" font-family="Vera" font-size="10.00">imagen.HalfPlane</text>
</g>
<!-- imagen.patterngenerator.PatternGenerator&#45;&gt;imagen.HalfPlane -->
<g id="edge66" class="edge"><title>imagen.patterngenerator.PatternGenerator&#45;&gt;imagen.HalfPlane</title>
<path fill="none" stroke="black" stroke-width="0.5" d="M443.273,-474.994C447.161,-472.438 450.77,-469.46 454,-466 509.017,-407.07 436.041,-164.9 490,-105 499.333,-94.6394 512.694,-89.08 526.351,-86.2704"/>
<polygon fill="black" stroke="black" points="526.783,-87.9708 531.39,-85.3559 526.157,-84.5271 526.783,-87.9708"/>
</g>
<!-- imagen.Selector -->
<g id="node70" class="node"><title>imagen.Selector</title>
<polygon fill="none" stroke="black" stroke-width="0.5" points="629,-58.5 535,-58.5 535,-37.5 629,-37.5 629,-58.5"/>
<text text-anchor="middle" x="582" y="-45.5" font-family="Vera" font-size="10.00">imagen.Selector</text>
</g>
<!-- imagen.patterngenerator.PatternGenerator&#45;&gt;imagen.Selector -->
<g id="edge68" class="edge"><title>imagen.patterngenerator.PatternGenerator&#45;&gt;imagen.Selector</title>
<path fill="none" stroke="black" stroke-width="0.5" d="M443.796,-474.709C447.49,-472.215 450.92,-469.33 454,-466 514.447,-400.64 430.726,-133.426 490,-67 499.951,-55.8483 514.567,-50.2459 529.233,-47.6488"/>
<polygon fill="black" stroke="black" points="529.528,-49.374 534.201,-46.8795 528.993,-45.9152 529.528,-49.374"/>
</g>
<!-- imagen.Null -->
<g id="node40" class="node"><title>imagen.Null</title>
<polygon fill="none" stroke="black" stroke-width="0.5" points="826,-818.5 752,-818.5 752,-797.5 826,-797.5 826,-818.5"/>
<text text-anchor="middle" x="789" y="-805.5" font-family="Vera" font-size="10.00">imagen.Null</text>
</g>
<!-- imagen.patterngenerator.Constant&#45;&gt;imagen.Null -->
<g id="edge36" class="edge"><title>imagen.patterngenerator.Constant&#45;&gt;imagen.Null</title>
<path fill="none" stroke="black" stroke-width="0.5" d="M674.3,-808C699.545,-808 725.69,-808 746.63,-808"/>
<polygon fill="black" stroke="black" points="746.839,-809.75 751.839,-808 746.838,-806.25 746.839,-809.75"/>
</g>
<!-- param.parameterized.Parameterized -->
<g id="node13" class="node"><title>param.parameterized.Parameterized</title>
<polygon fill="none" stroke="black" stroke-width="0.5" points="194,-476.5 5.68434e-14,-476.5 0,-455.5 194,-455.5 194,-476.5"/>
<text text-anchor="middle" x="97" y="-463.5" font-family="Vera" font-size="10.00">param.parameterized.Parameterized</text>
</g>
<!-- param.parameterized.Parameterized&#45;&gt;imagen.patterngenerator.PatternGenerator -->
<g id="edge52" class="edge"><title>param.parameterized.Parameterized&#45;&gt;imagen.patterngenerator.PatternGenerator</title>
<path fill="none" stroke="black" stroke-width="0.5" d="M194.182,-473.537C204.286,-474.32 214.629,-475.122 224.922,-475.92"/>
<polygon fill="black" stroke="black" points="224.849,-477.67 229.969,-476.312 225.12,-474.18 224.849,-477.67"/>
</g>
<!-- imagen.TimeSeries -->
<g id="node59" class="node"><title>imagen.TimeSeries</title>
<polygon fill="none" stroke="black" stroke-width="0.5" points="396,-457.5 288,-457.5 288,-436.5 396,-436.5 396,-457.5"/>
<text text-anchor="middle" x="342" y="-444.5" font-family="Vera" font-size="10.00">imagen.TimeSeries</text>
</g>
<!-- param.parameterized.Parameterized&#45;&gt;imagen.TimeSeries -->
<g id="edge56" class="edge"><title>param.parameterized.Parameterized&#45;&gt;imagen.TimeSeries</title>
<path fill="none" stroke="black" stroke-width="0.5" d="M194.182,-458.463C223.866,-456.161 255.624,-453.699 282.066,-451.648"/>
<polygon fill="black" stroke="black" points="282.431,-453.375 287.281,-451.244 282.161,-449.885 282.431,-453.375"/>
</g>
<!-- imagen.Spectrogram -->
<g id="node57" class="node"><title>imagen.Spectrogram</title>
<polygon fill="none" stroke="black" stroke-width="0.5" points="848,-742.5 730,-742.5 730,-721.5 848,-721.5 848,-742.5"/>
<text text-anchor="middle" x="789" y="-729.5" font-family="Vera" font-size="10.00">imagen.Spectrogram</text>
</g>
<!-- imagen.PowerSpectrum&#45;&gt;imagen.Spectrogram -->
<g id="edge54" class="edge"><title>imagen.PowerSpectrum&#45;&gt;imagen.Spectrogram</title>
<path fill="none" stroke="black" stroke-width="0.5" d="M647.781,-732C672.206,-732 699.878,-732 724.214,-732"/>
<polygon fill="black" stroke="black" points="724.354,-733.75 729.354,-732 724.354,-730.25 724.354,-733.75"/>
</g>
<!-- imagen.Curve -->
<g id="node22" class="node"><title>imagen.Curve</title>
<polygon fill="none" stroke="black" stroke-width="0.5" points="830,-590.5 748,-590.5 748,-569.5 830,-569.5 830,-590.5"/>
<text text-anchor="middle" x="789" y="-577.5" font-family="Vera" font-size="10.00">imagen.Curve</text>
</g>
<!-- imagen.Arc&#45;&gt;imagen.Curve -->
<g id="edge20" class="edge"><title>imagen.Arc&#45;&gt;imagen.Curve</title>
<path fill="none" stroke="black" stroke-width="0.5" d="M617.585,-580C652.1,-580 704.658,-580 742.474,-580"/>
<polygon fill="black" stroke="black" points="742.476,-581.75 747.476,-580 742.476,-578.25 742.476,-581.75"/>
</g>
<!-- param.ClassSelector -->
<g id="node49" class="node"><title>param.ClassSelector</title>
<polygon fill="none" stroke="black" stroke-width="0.5" points="640,-20.5 524,-20.5 524,0.5 640,0.5 640,-20.5"/>
<text text-anchor="middle" x="582" y="-7.5" font-family="Vera" font-size="10.00">param.ClassSelector</text>
</g>
<!-- param.Selector&#45;&gt;param.ClassSelector -->
<g id="edge48" class="edge"><title>param.Selector&#45;&gt;param.ClassSelector</title>
<path fill="none" stroke="black" stroke-width="0.5" d="M387.707,-10C424.748,-10 477.358,-10 518.494,-10"/>
<polygon fill="black" stroke="black" points="518.706,-11.7501 523.706,-10 518.706,-8.2501 518.706,-11.7501"/>
</g>
<!-- imagen.TwoRectangles -->
<g id="node37" class="node"><title>imagen.TwoRectangles</title>
<polygon fill="none" stroke="black" stroke-width="0.5" points="851,-362.5 727,-362.5 727,-341.5 851,-341.5 851,-362.5"/>
<text text-anchor="middle" x="789" y="-349.5" font-family="Vera" font-size="10.00">imagen.TwoRectangles</text>
</g>
<!-- imagen.Rectangle&#45;&gt;imagen.TwoRectangles -->
<g id="edge34" class="edge"><title>imagen.Rectangle&#45;&gt;imagen.TwoRectangles</title>
<path fill="none" stroke="black" stroke-width="0.5" d="M633.169,-352C659.881,-352 692.903,-352 721.665,-352"/>
<polygon fill="black" stroke="black" points="721.983,-353.75 726.983,-352 721.983,-350.25 721.983,-353.75"/>
</g>
<!-- imagen.SeparatedComposite -->
<g id="node42" class="node"><title>imagen.SeparatedComposite</title>
<polygon fill="none" stroke="black" stroke-width="0.5" points="868,-324.5 710,-324.5 710,-303.5 868,-303.5 868,-324.5"/>
<text text-anchor="middle" x="789" y="-311.5" font-family="Vera" font-size="10.00">imagen.SeparatedComposite</text>
</g>
<!-- imagen.Composite&#45;&gt;imagen.SeparatedComposite -->
<g id="edge38" class="edge"><title>imagen.Composite&#45;&gt;imagen.SeparatedComposite</title>
<path fill="none" stroke="black" stroke-width="0.5" d="M635.577,-314C656.626,-314 681.297,-314 704.625,-314"/>
<polygon fill="black" stroke="black" points="704.893,-315.75 709.893,-314 704.892,-312.25 704.893,-315.75"/>
</g>
<!-- imagen.TimeSeriesParam -->
<g id="node48" class="node"><title>imagen.TimeSeriesParam</title>
<polygon fill="none" stroke="black" stroke-width="0.5" points="859,-20.5 719,-20.5 719,0.5 859,0.5 859,-20.5"/>
<text text-anchor="middle" x="789" y="-7.5" font-family="Vera" font-size="10.00">imagen.TimeSeriesParam</text>
</g>
<!-- param.ClassSelector&#45;&gt;imagen.TimeSeriesParam -->
<g id="edge44" class="edge"><title>param.ClassSelector&#45;&gt;imagen.TimeSeriesParam</title>
<path fill="none" stroke="black" stroke-width="0.5" d="M640.212,-10C662.986,-10 689.405,-10 713.606,-10"/>
<polygon fill="black" stroke="black" points="713.734,-11.7501 718.734,-10 713.734,-8.2501 713.734,-11.7501"/>
</g>
<!-- imagen.OrientationContrast -->
<g id="node51" class="node"><title>imagen.OrientationContrast</title>
<polygon fill="none" stroke="black" stroke-width="0.5" points="864,-248.5 714,-248.5 714,-227.5 864,-227.5 864,-248.5"/>
<text text-anchor="middle" x="789" y="-235.5" font-family="Vera" font-size="10.00">imagen.OrientationContrast</text>
</g>
<!-- imagen.SineGrating&#45;&gt;imagen.OrientationContrast -->
<g id="edge46" class="edge"><title>imagen.SineGrating&#45;&gt;imagen.OrientationContrast</title>
<path fill="none" stroke="black" stroke-width="0.5" d="M638.017,-238C659.815,-238 685.2,-238 708.866,-238"/>
<polygon fill="black" stroke="black" points="708.888,-239.75 713.888,-238 708.887,-236.25 708.888,-239.75"/>
</g>
</g>
</svg>
