<?xml version="1.0" encoding="UTF-8" standalone="no"?>
<!DOCTYPE svg PUBLIC "-//W3C//DTD SVG 1.1//EN"
 "http://www.w3.org/Graphics/SVG/1.1/DTD/svg11.dtd">
<!-- Generated by graphviz version 2.26.3 (20100126.1600)
 -->
<!-- Title: inheritance0bce68b9cf Pages: 1 -->
<svg width="1432pt" height="123pt"
 viewBox="0.00 0.00 1432.00 123.00" xmlns="http://www.w3.org/2000/svg" xmlns:xlink="http://www.w3.org/1999/xlink">
<g id="graph1" class="graph" transform="scale(1 1) rotate(0) translate(4 119)">
<title>inheritance0bce68b9cf</title>
<polygon fill="white" stroke="white" points="-4,5 -4,-119 1429,-119 1429,5 -4,5"/>
<!-- topo.command.analysis.measure_cog -->
<g id="node1" class="node"><title>topo.command.analysis.measure_cog</title>
<polygon fill="none" stroke="black" stroke-width="0.5" points="764,-115.5 564,-115.5 564,-94.5 764,-94.5 764,-115.5"/>
<text text-anchor="middle" x="664" y="-102.5" font-family="Vera" font-size="10.00">topo.command.analysis.measure_cog</text>
</g>
<!-- param.parameterized.ParameterizedFunction -->
<g id="node2" class="node"><title>param.parameterized.ParameterizedFunction</title>
<polygon fill="none" stroke="black" stroke-width="0.5" points="464,-77.5 230,-77.5 230,-56.5 464,-56.5 464,-77.5"/>
<text text-anchor="middle" x="347" y="-64.5" font-family="Vera" font-size="10.00">param.parameterized.ParameterizedFunction</text>
</g>
<!-- param.parameterized.ParameterizedFunction&#45;&gt;topo.command.analysis.measure_cog -->
<g id="edge2" class="edge"><title>param.parameterized.ParameterizedFunction&#45;&gt;topo.command.analysis.measure_cog</title>
<path fill="none" stroke="black" stroke-width="0.5" d="M426.79,-77.0343C450.36,-79.9644 476.215,-83.1454 500,-86 523.018,-88.7625 547.862,-91.6761 571.08,-94.3694"/>
<polygon fill="black" stroke="black" points="571.151,-96.1392 576.319,-94.9766 571.554,-92.6625 571.151,-96.1392"/>
</g>
<!-- topo.command.analysis.measure_projection -->
<g id="node7" class="node"><title>topo.command.analysis.measure_projection</title>
<polygon fill="none" stroke="black" stroke-width="0.5" points="779,-77.5 549,-77.5 549,-56.5 779,-56.5 779,-77.5"/>
<text text-anchor="middle" x="664" y="-64.5" font-family="Vera" font-size="10.00">topo.command.analysis.measure_projection</text>
</g>
<!-- param.parameterized.ParameterizedFunction&#45;&gt;topo.command.analysis.measure_projection -->
<g id="edge6" class="edge"><title>param.parameterized.ParameterizedFunction&#45;&gt;topo.command.analysis.measure_projection</title>
<path fill="none" stroke="black" stroke-width="0.5" d="M464.138,-67C490.098,-67 517.649,-67 543.731,-67"/>
<polygon fill="black" stroke="black" points="543.927,-68.7501 548.927,-67 543.927,-65.2501 543.927,-68.7501"/>
</g>
<!-- topo.command.analysis.ProjectionSheetMeasurementCommand -->
<g id="node9" class="node"><title>topo.command.analysis.ProjectionSheetMeasurementCommand</title>
<polygon fill="none" stroke="black" stroke-width="0.5" points="827,-39.5 501,-39.5 501,-18.5 827,-18.5 827,-39.5"/>
<text text-anchor="middle" x="664" y="-26.5" font-family="Vera" font-size="10.00">topo.command.analysis.ProjectionSheetMeasurementCommand</text>
</g>
<!-- param.parameterized.ParameterizedFunction&#45;&gt;topo.command.analysis.ProjectionSheetMeasurementCommand -->
<g id="edge10" class="edge"><title>param.parameterized.ParameterizedFunction&#45;&gt;topo.command.analysis.ProjectionSheetMeasurementCommand</title>
<path fill="none" stroke="black" stroke-width="0.5" d="M426.79,-56.9657C450.36,-54.0356 476.215,-50.8546 500,-48 523.018,-45.2375 547.862,-42.3239 571.08,-39.6306"/>
<polygon fill="black" stroke="black" points="571.554,-41.3375 576.319,-39.0234 571.151,-37.8608 571.554,-41.3375"/>
</g>
<!-- topo.command.analysis.update_projection -->
<g id="node4" class="node"><title>topo.command.analysis.update_projection</title>
<polygon fill="none" stroke="black" stroke-width="0.5" points="1408,-77.5 1188,-77.5 1188,-56.5 1408,-56.5 1408,-77.5"/>
<text text-anchor="middle" x="1298" y="-64.5" font-family="Vera" font-size="10.00">topo.command.analysis.update_projection</text>
</g>
<!-- topo.command.analysis.UnitMeasurementCommand -->
<g id="node5" class="node"><title>topo.command.analysis.UnitMeasurementCommand</title>
<polygon fill="none" stroke="black" stroke-width="0.5" points="1135,-58.5 865,-58.5 865,-37.5 1135,-37.5 1135,-58.5"/>
<text text-anchor="middle" x="1000" y="-45.5" font-family="Vera" font-size="10.00">topo.command.analysis.UnitMeasurementCommand</text>
</g>
<!-- topo.command.analysis.UnitMeasurementCommand&#45;&gt;topo.command.analysis.update_projection -->
<g id="edge4" class="edge"><title>topo.command.analysis.UnitMeasurementCommand&#45;&gt;topo.command.analysis.update_projection</title>
<path fill="none" stroke="black" stroke-width="0.5" d="M1135.92,-56.666C1151.37,-57.6508 1167,-58.6477 1182.15,-59.6139"/>
<polygon fill="black" stroke="black" points="1182.17,-61.3685 1187.27,-59.9403 1182.4,-57.8756 1182.17,-61.3685"/>
</g>
<!-- topo.command.analysis.update_connectionfields -->
<g id="node14" class="node"><title>topo.command.analysis.update_connectionfields</title>
<polygon fill="none" stroke="black" stroke-width="0.5" points="1423,-39.5 1173,-39.5 1173,-18.5 1423,-18.5 1423,-39.5"/>
<text text-anchor="middle" x="1298" y="-26.5" font-family="Vera" font-size="10.00">topo.command.analysis.update_connectionfields</text>
</g>
<!-- topo.command.analysis.UnitMeasurementCommand&#45;&gt;topo.command.analysis.update_connectionfields -->
<g id="edge14" class="edge"><title>topo.command.analysis.UnitMeasurementCommand&#45;&gt;topo.command.analysis.update_connectionfields</title>
<path fill="none" stroke="black" stroke-width="0.5" d="M1135.92,-39.334C1146.34,-38.6695 1156.85,-37.9996 1167.24,-37.3373"/>
<polygon fill="black" stroke="black" points="1167.45,-39.0775 1172.32,-37.0129 1167.22,-35.5846 1167.45,-39.0775"/>
</g>
<!-- topo.command.analysis.ProjectionSheetMeasurementCommand&#45;&gt;topo.command.analysis.UnitMeasurementCommand -->
<g id="edge8" class="edge"><title>topo.command.analysis.ProjectionSheetMeasurementCommand&#45;&gt;topo.command.analysis.UnitMeasurementCommand</title>
<path fill="none" stroke="black" stroke-width="0.5" d="M827.571,-38.2495C838.184,-38.8497 848.821,-39.4512 859.312,-40.0444"/>
<polygon fill="black" stroke="black" points="859.359,-41.7998 864.45,-40.335 859.557,-38.3054 859.359,-41.7998"/>
</g>
<!-- topo.command.analysis.update_projectionactivity -->
<g id="node12" class="node"><title>topo.command.analysis.update_projectionactivity</title>
<polygon fill="none" stroke="black" stroke-width="0.5" points="1127,-20.5 873,-20.5 873,0.5 1127,0.5 1127,-20.5"/>
<text text-anchor="middle" x="1000" y="-7.5" font-family="Vera" font-size="10.00">topo.command.analysis.update_projectionactivity</text>
</g>
<!-- topo.command.analysis.ProjectionSheetMeasurementCommand&#45;&gt;topo.command.analysis.update_projectionactivity -->
<g id="edge12" class="edge"><title>topo.command.analysis.ProjectionSheetMeasurementCommand&#45;&gt;topo.command.analysis.update_projectionactivity</title>
<path fill="none" stroke="black" stroke-width="0.5" d="M827.571,-19.7505C840.978,-18.9923 854.424,-18.232 867.565,-17.4889"/>
<polygon fill="black" stroke="black" points="867.888,-19.2235 872.781,-17.1939 867.69,-15.7291 867.888,-19.2235"/>
</g>
<!-- param.parameterized.Parameterized -->
<g id="node16" class="node"><title>param.parameterized.Parameterized</title>
<polygon fill="none" stroke="black" stroke-width="0.5" points="194,-77.5 5.68434e-14,-77.5 0,-56.5 194,-56.5 194,-77.5"/>
<text text-anchor="middle" x="97" y="-64.5" font-family="Vera" font-size="10.00">param.parameterized.Parameterized</text>
</g>
<!-- param.parameterized.Parameterized&#45;&gt;param.parameterized.ParameterizedFunction -->
<g id="edge16" class="edge"><title>param.parameterized.Parameterized&#45;&gt;param.parameterized.ParameterizedFunction</title>
<path fill="none" stroke="black" stroke-width="0.5" d="M194.014,-67C204.04,-67 214.319,-67 224.575,-67"/>
<polygon fill="black" stroke="black" points="224.607,-68.7501 229.607,-67 224.607,-65.2501 224.607,-68.7501"/>
</g>
</g>
</svg>
