<?xml version="1.0" encoding="UTF-8" standalone="no"?>
<!DOCTYPE svg PUBLIC "-//W3C//DTD SVG 1.1//EN"
 "http://www.w3.org/Graphics/SVG/1.1/DTD/svg11.dtd">
<!-- Generated by graphviz version 2.26.3 (20100126.1600)
 -->
<!-- Title: inheritance489beebb75 Pages: 1 -->
<svg width="796pt" height="560pt"
 viewBox="0.00 0.00 796.00 560.00" xmlns="http://www.w3.org/2000/svg" xmlns:xlink="http://www.w3.org/1999/xlink">
<g id="graph1" class="graph" transform="scale(1 1) rotate(0) translate(4 556)">
<title>inheritance489beebb75</title>
<polygon fill="white" stroke="white" points="-4,5 -4,-556 793,-556 793,5 -4,5"/>
<!-- Tkinter.Misc -->
<g id="node1" class="node"><title>Tkinter.Misc</title>
<polygon fill="none" stroke="black" stroke-width="0.5" points="72,-312.5 2.84217e-14,-312.5 0,-291.5 72,-291.5 72,-312.5"/>
<text text-anchor="middle" x="36" y="-299.5" font-family="Vera" font-size="10.00">Tkinter.Misc</text>
</g>
<!-- Tkinter.BaseWidget -->
<g id="node35" class="node"><title>Tkinter.BaseWidget</title>
<polygon fill="none" stroke="black" stroke-width="0.5" points="215,-312.5 109,-312.5 109,-291.5 215,-291.5 215,-312.5"/>
<text text-anchor="middle" x="162" y="-299.5" font-family="Vera" font-size="10.00">Tkinter.BaseWidget</text>
</g>
<!-- Tkinter.Misc&#45;&gt;Tkinter.BaseWidget -->
<g id="edge54" class="edge"><title>Tkinter.Misc&#45;&gt;Tkinter.BaseWidget</title>
<path fill="none" stroke="black" stroke-width="0.5" d="M72.1065,-302C81.7306,-302 92.3855,-302 102.895,-302"/>
<polygon fill="black" stroke="black" points="103.038,-303.75 108.038,-302 103.038,-300.25 103.038,-303.75"/>
</g>
<!-- Tkinter.Listbox -->
<g id="node2" class="node"><title>Tkinter.Listbox</title>
<polygon fill="none" stroke="black" stroke-width="0.5" points="544,-506.5 460,-506.5 460,-485.5 544,-485.5 544,-506.5"/>
<text text-anchor="middle" x="502" y="-493.5" font-family="Vera" font-size="10.00">Tkinter.Listbox</text>
</g>
<!-- paramtk.tilewrapper.Treeview -->
<g id="node45" class="node"><title>paramtk.tilewrapper.Treeview</title>
<polygon fill="none" stroke="black" stroke-width="0.5" points="777,-552.5 623,-552.5 623,-531.5 777,-531.5 777,-552.5"/>
<text text-anchor="middle" x="700" y="-539.5" font-family="Vera" font-size="10.00">paramtk.tilewrapper.Treeview</text>
</g>
<!-- Tkinter.Listbox&#45;&gt;paramtk.tilewrapper.Treeview -->
<g id="edge48" class="edge"><title>Tkinter.Listbox&#45;&gt;paramtk.tilewrapper.Treeview</title>
<path fill="none" stroke="black" stroke-width="0.5" d="M541.65,-506.017C562.545,-511.224 588.623,-517.609 612,-523 623.461,-525.643 635.787,-528.374 647.48,-530.913"/>
<polygon fill="black" stroke="black" points="647.191,-532.641 652.449,-531.988 647.932,-529.22 647.191,-532.641"/>
</g>
<!-- Tkinter.Widget -->
<g id="node3" class="node"><title>Tkinter.Widget</title>
<polygon fill="none" stroke="black" stroke-width="0.5" points="363,-255.5 281,-255.5 281,-234.5 363,-234.5 363,-255.5"/>
<text text-anchor="middle" x="322" y="-242.5" font-family="Vera" font-size="10.00">Tkinter.Widget</text>
</g>
<!-- Tkinter.Widget&#45;&gt;Tkinter.Listbox -->
<g id="edge2" class="edge"><title>Tkinter.Widget&#45;&gt;Tkinter.Listbox</title>
<path fill="none" stroke="black" stroke-width="0.5" d="M323.5,-255.219C329.383,-291.514 354.304,-415.332 428,-477 435.536,-483.306 444.908,-487.554 454.422,-490.406"/>
<polygon fill="black" stroke="black" points="454.116,-492.137 459.401,-491.774 455.043,-488.762 454.116,-492.137"/>
</g>
<!-- paramtk.tilewrapper.Widget -->
<g id="node10" class="node"><title>paramtk.tilewrapper.Widget</title>
<polygon fill="none" stroke="black" stroke-width="0.5" points="575,-255.5 429,-255.5 429,-234.5 575,-234.5 575,-255.5"/>
<text text-anchor="middle" x="502" y="-242.5" font-family="Vera" font-size="10.00">paramtk.tilewrapper.Widget</text>
</g>
<!-- Tkinter.Widget&#45;&gt;paramtk.tilewrapper.Widget -->
<g id="edge58" class="edge"><title>Tkinter.Widget&#45;&gt;paramtk.tilewrapper.Widget</title>
<path fill="none" stroke="black" stroke-width="0.5" d="M363.748,-245C381.46,-245 402.712,-245 423.181,-245"/>
<polygon fill="black" stroke="black" points="423.365,-246.75 428.365,-245 423.365,-243.25 423.365,-246.75"/>
</g>
<!-- Tkinter.Label -->
<g id="node12" class="node"><title>Tkinter.Label</title>
<polygon fill="none" stroke="black" stroke-width="0.5" points="540,-468.5 464,-468.5 464,-447.5 540,-447.5 540,-468.5"/>
<text text-anchor="middle" x="502" y="-455.5" font-family="Vera" font-size="10.00">Tkinter.Label</text>
</g>
<!-- Tkinter.Widget&#45;&gt;Tkinter.Label -->
<g id="edge88" class="edge"><title>Tkinter.Widget&#45;&gt;Tkinter.Label</title>
<path fill="none" stroke="black" stroke-width="0.5" d="M325.384,-255.005C335.926,-284.799 370.929,-374.025 428,-425 438.095,-434.017 451.057,-440.918 463.303,-446.019"/>
<polygon fill="black" stroke="black" points="462.842,-447.72 468.134,-447.957 464.145,-444.471 462.842,-447.72"/>
</g>
<!-- Tkinter.Scrollbar -->
<g id="node14" class="node"><title>Tkinter.Scrollbar</title>
<polygon fill="none" stroke="black" stroke-width="0.5" points="548,-217.5 456,-217.5 456,-196.5 548,-196.5 548,-217.5"/>
<text text-anchor="middle" x="502" y="-204.5" font-family="Vera" font-size="10.00">Tkinter.Scrollbar</text>
</g>
<!-- Tkinter.Widget&#45;&gt;Tkinter.Scrollbar -->
<g id="edge12" class="edge"><title>Tkinter.Widget&#45;&gt;Tkinter.Scrollbar</title>
<path fill="none" stroke="black" stroke-width="0.5" d="M363.748,-236.187C389.559,-230.737 422.888,-223.701 450.354,-217.903"/>
<polygon fill="black" stroke="black" points="450.881,-219.58 455.411,-216.835 450.158,-216.156 450.881,-219.58"/>
</g>
<!-- Tkinter.Menubutton -->
<g id="node18" class="node"><title>Tkinter.Menubutton</title>
<polygon fill="none" stroke="black" stroke-width="0.5" points="556,-416.5 448,-416.5 448,-395.5 556,-395.5 556,-416.5"/>
<text text-anchor="middle" x="502" y="-403.5" font-family="Vera" font-size="10.00">Tkinter.Menubutton</text>
</g>
<!-- Tkinter.Widget&#45;&gt;Tkinter.Menubutton -->
<g id="edge18" class="edge"><title>Tkinter.Widget&#45;&gt;Tkinter.Menubutton</title>
<path fill="none" stroke="black" stroke-width="0.5" d="M330.028,-255.269C346.775,-276.298 387.276,-325.128 428,-359 443.8,-372.142 463.52,-384.496 478.63,-393.238"/>
<polygon fill="black" stroke="black" points="477.952,-394.866 483.161,-395.831 479.691,-391.829 477.952,-394.866"/>
</g>
<!-- Tkinter.Frame -->
<g id="node23" class="node"><title>Tkinter.Frame</title>
<polygon fill="none" stroke="black" stroke-width="0.5" points="542,-134.5 462,-134.5 462,-113.5 542,-113.5 542,-134.5"/>
<text text-anchor="middle" x="502" y="-121.5" font-family="Vera" font-size="10.00">Tkinter.Frame</text>
</g>
<!-- Tkinter.Widget&#45;&gt;Tkinter.Frame -->
<g id="edge22" class="edge"><title>Tkinter.Widget&#45;&gt;Tkinter.Frame</title>
<path fill="none" stroke="black" stroke-width="0.5" d="M363.805,-239.992C373.897,-237.168 384.05,-232.785 392,-226 421.657,-200.689 398.648,-171.664 428,-146 435.977,-139.025 446.086,-134.26 456.247,-131.005"/>
<polygon fill="black" stroke="black" points="456.936,-132.626 461.231,-129.525 455.94,-129.271 456.936,-132.626"/>
</g>
<!-- Tkinter.Radiobutton -->
<g id="node29" class="node"><title>Tkinter.Radiobutton</title>
<polygon fill="none" stroke="black" stroke-width="0.5" points="556,-350.5 448,-350.5 448,-329.5 556,-329.5 556,-350.5"/>
<text text-anchor="middle" x="502" y="-337.5" font-family="Vera" font-size="10.00">Tkinter.Radiobutton</text>
</g>
<!-- Tkinter.Widget&#45;&gt;Tkinter.Radiobutton -->
<g id="edge44" class="edge"><title>Tkinter.Widget&#45;&gt;Tkinter.Radiobutton</title>
<path fill="none" stroke="black" stroke-width="0.5" d="M341.263,-255.167C374.419,-272.666 442.177,-308.427 478.219,-327.449"/>
<polygon fill="black" stroke="black" points="477.637,-329.12 482.875,-329.906 479.27,-326.025 477.637,-329.12"/>
</g>
<!-- Tkinter.Checkbutton -->
<g id="node53" class="node"><title>Tkinter.Checkbutton</title>
<polygon fill="none" stroke="black" stroke-width="0.5" points="558,-96.5 446,-96.5 446,-75.5 558,-75.5 558,-96.5"/>
<text text-anchor="middle" x="502" y="-83.5" font-family="Vera" font-size="10.00">Tkinter.Checkbutton</text>
</g>
<!-- Tkinter.Widget&#45;&gt;Tkinter.Checkbutton -->
<g id="edge56" class="edge"><title>Tkinter.Widget&#45;&gt;Tkinter.Checkbutton</title>
<path fill="none" stroke="black" stroke-width="0.5" d="M363.721,-240.901C374.05,-238.083 384.341,-233.477 392,-226 432.15,-186.808 387.582,-143.916 428,-105 431.798,-101.343 436.201,-98.3637 440.929,-95.9396"/>
<polygon fill="black" stroke="black" points="441.959,-97.3908 445.755,-93.6962 440.483,-94.217 441.959,-97.3908"/>
</g>
<!-- Tkinter.Button -->
<g id="node59" class="node"><title>Tkinter.Button</title>
<polygon fill="none" stroke="black" stroke-width="0.5" points="543,-175.5 461,-175.5 461,-154.5 543,-154.5 543,-175.5"/>
<text text-anchor="middle" x="502" y="-162.5" font-family="Vera" font-size="10.00">Tkinter.Button</text>
</g>
<!-- Tkinter.Widget&#45;&gt;Tkinter.Button -->
<g id="edge90" class="edge"><title>Tkinter.Widget&#45;&gt;Tkinter.Button</title>
<path fill="none" stroke="black" stroke-width="0.5" d="M363.503,-237.735C373.274,-234.962 383.353,-231.168 392,-226 411.969,-214.064 408.251,-200.296 428,-188 436.364,-182.793 445.998,-178.682 455.492,-175.467"/>
<polygon fill="black" stroke="black" points="456.218,-177.072 460.436,-173.867 455.14,-173.742 456.218,-177.072"/>
</g>
<!-- Tkinter.Entry -->
<g id="node67" class="node"><title>Tkinter.Entry</title>
<polygon fill="none" stroke="black" stroke-width="0.5" points="540,-58.5 464,-58.5 464,-37.5 540,-37.5 540,-58.5"/>
<text text-anchor="middle" x="502" y="-45.5" font-family="Vera" font-size="10.00">Tkinter.Entry</text>
</g>
<!-- Tkinter.Widget&#45;&gt;Tkinter.Entry -->
<g id="edge74" class="edge"><title>Tkinter.Widget&#45;&gt;Tkinter.Entry</title>
<path fill="none" stroke="black" stroke-width="0.5" d="M363.695,-241.335C374.148,-238.528 384.506,-233.818 392,-226 442.137,-173.692 377.506,-118.963 428,-67 436.096,-58.6684 447.314,-53.8138 458.571,-51.0322"/>
<polygon fill="black" stroke="black" points="459.228,-52.6796 463.734,-49.895 458.475,-49.2615 459.228,-52.6796"/>
</g>
<!-- Tkinter.XView -->
<g id="node5" class="node"><title>Tkinter.XView</title>
<polygon fill="none" stroke="black" stroke-width="0.5" points="361,-217.5 283,-217.5 283,-196.5 361,-196.5 361,-217.5"/>
<text text-anchor="middle" x="322" y="-204.5" font-family="Vera" font-size="10.00">Tkinter.XView</text>
</g>
<!-- Tkinter.XView&#45;&gt;Tkinter.Listbox -->
<g id="edge4" class="edge"><title>Tkinter.XView&#45;&gt;Tkinter.Listbox</title>
<path fill="none" stroke="black" stroke-width="0.5" d="M361.562,-209.63C372.882,-212.321 384.242,-217.227 392,-226 466.658,-310.421 352.765,-393.093 428,-477 434.925,-484.723 444.524,-489.5 454.518,-492.411"/>
<polygon fill="black" stroke="black" points="454.166,-494.128 459.446,-493.695 455.049,-490.741 454.166,-494.128"/>
</g>
<!-- Tkinter.XView&#45;&gt;Tkinter.Entry -->
<g id="edge76" class="edge"><title>Tkinter.XView&#45;&gt;Tkinter.Entry</title>
<path fill="none" stroke="black" stroke-width="0.5" d="M361.534,-203.471C372.585,-200.719 383.8,-196.004 392,-188 432.15,-148.808 387.582,-105.916 428,-67 436.286,-59.022 447.449,-54.2688 458.59,-51.4711"/>
<polygon fill="black" stroke="black" points="459.205,-53.1265 463.697,-50.3187 458.435,-49.7123 459.205,-53.1265"/>
</g>
<!-- Tkinter.YView -->
<g id="node7" class="node"><title>Tkinter.YView</title>
<polygon fill="none" stroke="black" stroke-width="0.5" points="361,-506.5 283,-506.5 283,-485.5 361,-485.5 361,-506.5"/>
<text text-anchor="middle" x="322" y="-493.5" font-family="Vera" font-size="10.00">Tkinter.YView</text>
</g>
<!-- Tkinter.YView&#45;&gt;Tkinter.Listbox -->
<g id="edge6" class="edge"><title>Tkinter.YView&#45;&gt;Tkinter.Listbox</title>
<path fill="none" stroke="black" stroke-width="0.5" d="M361.057,-496C388.312,-496 424.861,-496 453.91,-496"/>
<polygon fill="black" stroke="black" points="454.243,-497.75 459.243,-496 454.243,-494.25 454.243,-497.75"/>
</g>
<!-- paramtk.tilewrapper.LabelFrame -->
<g id="node9" class="node"><title>paramtk.tilewrapper.LabelFrame</title>
<polygon fill="none" stroke="black" stroke-width="0.5" points="785,-514.5 615,-514.5 615,-493.5 785,-493.5 785,-514.5"/>
<text text-anchor="middle" x="700" y="-501.5" font-family="Vera" font-size="10.00">paramtk.tilewrapper.LabelFrame</text>
</g>
<!-- paramtk.tilewrapper.Widget&#45;&gt;paramtk.tilewrapper.LabelFrame -->
<g id="edge8" class="edge"><title>paramtk.tilewrapper.Widget&#45;&gt;paramtk.tilewrapper.LabelFrame</title>
<path fill="none" stroke="black" stroke-width="0.5" d="M515.822,-255.171C532.738,-268.391 560.979,-293.113 576,-321 611.388,-386.7 559.142,-432.323 612,-485 614.325,-487.317 616.861,-489.382 619.557,-491.22"/>
<polygon fill="black" stroke="black" points="618.747,-492.777 623.918,-493.926 620.592,-489.803 618.747,-492.777"/>
</g>
<!-- paramtk.tilewrapper.Menubutton -->
<g id="node16" class="node"><title>paramtk.tilewrapper.Menubutton</title>
<polygon fill="none" stroke="black" stroke-width="0.5" points="786,-438.5 614,-438.5 614,-417.5 786,-417.5 786,-438.5"/>
<text text-anchor="middle" x="700" y="-425.5" font-family="Vera" font-size="10.00">paramtk.tilewrapper.Menubutton</text>
</g>
<!-- paramtk.tilewrapper.Widget&#45;&gt;paramtk.tilewrapper.Menubutton -->
<g id="edge14" class="edge"><title>paramtk.tilewrapper.Widget&#45;&gt;paramtk.tilewrapper.Menubutton</title>
<path fill="none" stroke="black" stroke-width="0.5" d="M514.507,-255.148C530.561,-268.721 558.434,-294.2 576,-321 599.165,-356.342 579.614,-381.856 612,-409 614.882,-411.416 618,-413.545 621.284,-415.421"/>
<polygon fill="black" stroke="black" points="620.618,-417.048 625.859,-417.825 622.246,-413.95 620.618,-417.048"/>
</g>
<!-- paramtk.tilewrapper.Paned -->
<g id="node21" class="node"><title>paramtk.tilewrapper.Paned</title>
<polygon fill="none" stroke="black" stroke-width="0.5" points="772,-362.5 628,-362.5 628,-341.5 772,-341.5 772,-362.5"/>
<text text-anchor="middle" x="700" y="-349.5" font-family="Vera" font-size="10.00">paramtk.tilewrapper.Paned</text>
</g>
<!-- paramtk.tilewrapper.Widget&#45;&gt;paramtk.tilewrapper.Paned -->
<g id="edge20" class="edge"><title>paramtk.tilewrapper.Widget&#45;&gt;paramtk.tilewrapper.Paned</title>
<path fill="none" stroke="black" stroke-width="0.5" d="M511.514,-255.261C529.344,-273.831 569.811,-312.948 612,-333 618.074,-335.887 624.593,-338.341 631.235,-340.424"/>
<polygon fill="black" stroke="black" points="631.041,-342.193 636.333,-341.947 632.043,-338.839 631.041,-342.193"/>
</g>
<!-- paramtk.tilewrapper.Progressbar -->
<g id="node25" class="node"><title>paramtk.tilewrapper.Progressbar</title>
<polygon fill="none" stroke="black" stroke-width="0.5" points="786,-324.5 614,-324.5 614,-303.5 786,-303.5 786,-324.5"/>
<text text-anchor="middle" x="700" y="-311.5" font-family="Vera" font-size="10.00">paramtk.tilewrapper.Progressbar</text>
</g>
<!-- paramtk.tilewrapper.Widget&#45;&gt;paramtk.tilewrapper.Progressbar -->
<g id="edge24" class="edge"><title>paramtk.tilewrapper.Widget&#45;&gt;paramtk.tilewrapper.Progressbar</title>
<path fill="none" stroke="black" stroke-width="0.5" d="M520.969,-255.137C542.504,-266.283 578.941,-284.058 612,-295 620.845,-297.928 630.342,-300.522 639.708,-302.779"/>
<polygon fill="black" stroke="black" points="639.322,-304.486 644.59,-303.929 640.124,-301.08 639.322,-304.486"/>
</g>
<!-- paramtk.tilewrapper.Radiobutton -->
<g id="node27" class="node"><title>paramtk.tilewrapper.Radiobutton</title>
<polygon fill="none" stroke="black" stroke-width="0.5" points="786,-400.5 614,-400.5 614,-379.5 786,-379.5 786,-400.5"/>
<text text-anchor="middle" x="700" y="-387.5" font-family="Vera" font-size="10.00">paramtk.tilewrapper.Radiobutton</text>
</g>
<!-- paramtk.tilewrapper.Widget&#45;&gt;paramtk.tilewrapper.Radiobutton -->
<g id="edge26" class="edge"><title>paramtk.tilewrapper.Widget&#45;&gt;paramtk.tilewrapper.Radiobutton</title>
<path fill="none" stroke="black" stroke-width="0.5" d="M513.06,-255.352C528.004,-269.559 555.168,-296.169 576,-321 593.6,-341.978 589.091,-356 612,-371 616.119,-373.697 620.557,-376.018 625.172,-378.014"/>
<polygon fill="black" stroke="black" points="624.551,-379.651 629.842,-379.905 625.864,-376.406 624.551,-379.651"/>
</g>
<!-- paramtk.tilewrapper.Scrollbar -->
<g id="node31" class="node"><title>paramtk.tilewrapper.Scrollbar</title>
<polygon fill="none" stroke="black" stroke-width="0.5" points="778,-210.5 622,-210.5 622,-189.5 778,-189.5 778,-210.5"/>
<text text-anchor="middle" x="700" y="-197.5" font-family="Vera" font-size="10.00">paramtk.tilewrapper.Scrollbar</text>
</g>
<!-- paramtk.tilewrapper.Widget&#45;&gt;paramtk.tilewrapper.Scrollbar -->
<g id="edge30" class="edge"><title>paramtk.tilewrapper.Widget&#45;&gt;paramtk.tilewrapper.Scrollbar</title>
<path fill="none" stroke="black" stroke-width="0.5" d="M543.482,-234.994C564.066,-230.08 589.319,-224.129 612,-219 623.472,-216.406 635.803,-213.695 647.497,-211.161"/>
<polygon fill="black" stroke="black" points="647.949,-212.854 652.466,-210.086 647.209,-209.433 647.949,-212.854"/>
</g>
<!-- paramtk.tilewrapper.Separator -->
<g id="node42" class="node"><title>paramtk.tilewrapper.Separator</title>
<polygon fill="none" stroke="black" stroke-width="0.5" points="781,-286.5 619,-286.5 619,-265.5 781,-265.5 781,-286.5"/>
<text text-anchor="middle" x="700" y="-273.5" font-family="Vera" font-size="10.00">paramtk.tilewrapper.Separator</text>
</g>
<!-- paramtk.tilewrapper.Widget&#45;&gt;paramtk.tilewrapper.Separator -->
<g id="edge42" class="edge"><title>paramtk.tilewrapper.Widget&#45;&gt;paramtk.tilewrapper.Separator</title>
<path fill="none" stroke="black" stroke-width="0.5" d="M566.011,-255.022C586.722,-258.265 609.778,-261.874 630.844,-265.173"/>
<polygon fill="black" stroke="black" points="630.659,-266.915 635.87,-265.959 631.201,-263.457 630.659,-266.915"/>
</g>
<!-- paramtk.tilewrapper.Widget&#45;&gt;paramtk.tilewrapper.Treeview -->
<g id="edge46" class="edge"><title>paramtk.tilewrapper.Widget&#45;&gt;paramtk.tilewrapper.Treeview</title>
<path fill="none" stroke="black" stroke-width="0.5" d="M516.001,-255.076C533.103,-268.199 561.536,-292.82 576,-321 617.642,-402.129 548.697,-457.358 612,-523 614.102,-525.18 616.39,-527.138 618.824,-528.897"/>
<polygon fill="black" stroke="black" points="618.209,-530.585 623.353,-531.851 620.121,-527.654 618.209,-530.585"/>
</g>
<!-- paramtk.tilewrapper.Label -->
<g id="node48" class="node"><title>paramtk.tilewrapper.Label</title>
<polygon fill="none" stroke="black" stroke-width="0.5" points="770,-476.5 630,-476.5 630,-455.5 770,-455.5 770,-476.5"/>
<text text-anchor="middle" x="700" y="-463.5" font-family="Vera" font-size="10.00">paramtk.tilewrapper.Label</text>
</g>
<!-- paramtk.tilewrapper.Widget&#45;&gt;paramtk.tilewrapper.Label -->
<g id="edge50" class="edge"><title>paramtk.tilewrapper.Widget&#45;&gt;paramtk.tilewrapper.Label</title>
<path fill="none" stroke="black" stroke-width="0.5" d="M515.255,-255.094C531.848,-268.418 560.027,-293.434 576,-321 605.2,-371.392 569.488,-407.191 612,-447 615.85,-450.606 620.215,-453.591 624.892,-456.056"/>
<polygon fill="black" stroke="black" points="624.4,-457.762 629.664,-458.353 625.917,-454.608 624.4,-457.762"/>
</g>
<!-- paramtk.tilewrapper.Button -->
<g id="node57" class="node"><title>paramtk.tilewrapper.Button</title>
<polygon fill="none" stroke="black" stroke-width="0.5" points="773,-172.5 627,-172.5 627,-151.5 773,-151.5 773,-172.5"/>
<text text-anchor="middle" x="700" y="-159.5" font-family="Vera" font-size="10.00">paramtk.tilewrapper.Button</text>
</g>
<!-- paramtk.tilewrapper.Widget&#45;&gt;paramtk.tilewrapper.Button -->
<g id="edge62" class="edge"><title>paramtk.tilewrapper.Widget&#45;&gt;paramtk.tilewrapper.Button</title>
<path fill="none" stroke="black" stroke-width="0.5" d="M557.814,-234.883C564.213,-232.518 570.43,-229.599 576,-226 597.512,-212.099 590.223,-194.482 612,-181 616.385,-178.285 621.102,-175.954 625.993,-173.954"/>
<polygon fill="black" stroke="black" points="626.892,-175.484 630.935,-172.061 625.64,-172.215 626.892,-175.484"/>
</g>
<!-- paramtk.tilewrapper.Frame -->
<g id="node61" class="node"><title>paramtk.tilewrapper.Frame</title>
<polygon fill="none" stroke="black" stroke-width="0.5" points="772,-134.5 628,-134.5 628,-113.5 772,-113.5 772,-134.5"/>
<text text-anchor="middle" x="700" y="-121.5" font-family="Vera" font-size="10.00">paramtk.tilewrapper.Frame</text>
</g>
<!-- paramtk.tilewrapper.Widget&#45;&gt;paramtk.tilewrapper.Frame -->
<g id="edge66" class="edge"><title>paramtk.tilewrapper.Widget&#45;&gt;paramtk.tilewrapper.Frame</title>
<path fill="none" stroke="black" stroke-width="0.5" d="M561.794,-234.947C566.923,-232.557 571.762,-229.616 576,-226 606.586,-199.899 580.915,-168.505 612,-143 615.3,-140.292 618.898,-137.946 622.692,-135.915"/>
<polygon fill="black" stroke="black" points="623.523,-137.457 627.23,-133.673 621.972,-134.319 623.523,-137.457"/>
</g>
<!-- paramtk.tilewrapper.Checkbutton -->
<g id="node64" class="node"><title>paramtk.tilewrapper.Checkbutton</title>
<polygon fill="none" stroke="black" stroke-width="0.5" points="788,-96.5 612,-96.5 612,-75.5 788,-75.5 788,-96.5"/>
<text text-anchor="middle" x="700" y="-83.5" font-family="Vera" font-size="10.00">paramtk.tilewrapper.Checkbutton</text>
</g>
<!-- paramtk.tilewrapper.Widget&#45;&gt;paramtk.tilewrapper.Checkbutton -->
<g id="edge70" class="edge"><title>paramtk.tilewrapper.Widget&#45;&gt;paramtk.tilewrapper.Checkbutton</title>
<path fill="none" stroke="black" stroke-width="0.5" d="M563.339,-234.923C567.965,-232.524 572.274,-229.588 576,-226 616.418,-187.084 570.837,-143.127 612,-105 614.483,-102.7 617.176,-100.653 620.025,-98.8328"/>
<polygon fill="black" stroke="black" points="621.183,-100.184 624.624,-96.1555 619.422,-97.159 621.183,-100.184"/>
</g>
<!-- paramtk.tilewrapper.Notebook -->
<g id="node70" class="node"><title>paramtk.tilewrapper.Notebook</title>
<polygon fill="none" stroke="black" stroke-width="0.5" points="780,-248.5 620,-248.5 620,-227.5 780,-227.5 780,-248.5"/>
<text text-anchor="middle" x="700" y="-235.5" font-family="Vera" font-size="10.00">paramtk.tilewrapper.Notebook</text>
</g>
<!-- paramtk.tilewrapper.Widget&#45;&gt;paramtk.tilewrapper.Notebook -->
<g id="edge78" class="edge"><title>paramtk.tilewrapper.Widget&#45;&gt;paramtk.tilewrapper.Notebook</title>
<path fill="none" stroke="black" stroke-width="0.5" d="M575.728,-242.393C588.249,-241.951 601.349,-241.488 614.149,-241.035"/>
<polygon fill="black" stroke="black" points="614.294,-242.781 619.229,-240.856 614.171,-239.283 614.294,-242.781"/>
</g>
<!-- paramtk.tilewrapper.Entry -->
<g id="node72" class="node"><title>paramtk.tilewrapper.Entry</title>
<polygon fill="none" stroke="black" stroke-width="0.5" points="770,-58.5 630,-58.5 630,-37.5 770,-37.5 770,-58.5"/>
<text text-anchor="middle" x="700" y="-45.5" font-family="Vera" font-size="10.00">paramtk.tilewrapper.Entry</text>
</g>
<!-- paramtk.tilewrapper.Widget&#45;&gt;paramtk.tilewrapper.Entry -->
<g id="edge80" class="edge"><title>paramtk.tilewrapper.Widget&#45;&gt;paramtk.tilewrapper.Entry</title>
<path fill="none" stroke="black" stroke-width="0.5" d="M563.951,-234.995C568.387,-232.575 572.487,-229.615 576,-226 626.494,-174.037 560.51,-117.976 612,-67 615.912,-63.1272 620.413,-59.9604 625.267,-57.3786"/>
<polygon fill="black" stroke="black" points="626.084,-58.9272 629.817,-55.1685 624.555,-55.7789 626.084,-58.9272"/>
</g>
<!-- paramtk.tilewrapper.Combobox -->
<g id="node75" class="node"><title>paramtk.tilewrapper.Combobox</title>
<polygon fill="none" stroke="black" stroke-width="0.5" points="783,-20.5 617,-20.5 617,0.5 783,0.5 783,-20.5"/>
<text text-anchor="middle" x="700" y="-7.5" font-family="Vera" font-size="10.00">paramtk.tilewrapper.Combobox</text>
</g>
<!-- paramtk.tilewrapper.Widget&#45;&gt;paramtk.tilewrapper.Combobox -->
<g id="edge84" class="edge"><title>paramtk.tilewrapper.Widget&#45;&gt;paramtk.tilewrapper.Combobox</title>
<path fill="none" stroke="black" stroke-width="0.5" d="M564.464,-234.959C568.73,-232.54 572.654,-229.591 576,-226 636.677,-160.882 550.075,-92.9321 612,-29 614.107,-26.8248 616.399,-24.87 618.836,-23.1148"/>
<polygon fill="black" stroke="black" points="620.133,-24.359 623.371,-20.1663 618.225,-21.4247 620.133,-24.359"/>
</g>
<!-- Tkinter.Label&#45;&gt;paramtk.tilewrapper.LabelFrame -->
<g id="edge10" class="edge"><title>Tkinter.Label&#45;&gt;paramtk.tilewrapper.LabelFrame</title>
<path fill="none" stroke="black" stroke-width="0.5" d="M540.626,-467.762C561.69,-473.014 588.24,-479.52 612,-485 623.461,-487.643 635.787,-490.374 647.48,-492.913"/>
<polygon fill="black" stroke="black" points="647.191,-494.641 652.449,-493.988 647.932,-491.22 647.191,-494.641"/>
</g>
<!-- Tkinter.Label&#45;&gt;paramtk.tilewrapper.Label -->
<g id="edge52" class="edge"><title>Tkinter.Label&#45;&gt;paramtk.tilewrapper.Label</title>
<path fill="none" stroke="black" stroke-width="0.5" d="M540.646,-459.561C564.485,-460.525 595.873,-461.793 624.483,-462.949"/>
<polygon fill="black" stroke="black" points="624.724,-464.71 629.791,-463.163 624.866,-461.213 624.724,-464.71"/>
</g>
<!-- Tkinter.Scrollbar&#45;&gt;paramtk.tilewrapper.Scrollbar -->
<g id="edge32" class="edge"><title>Tkinter.Scrollbar&#45;&gt;paramtk.tilewrapper.Scrollbar</title>
<path fill="none" stroke="black" stroke-width="0.5" d="M548.673,-205.35C568.868,-204.636 593.14,-203.778 616.273,-202.96"/>
<polygon fill="black" stroke="black" points="616.565,-204.701 621.5,-202.775 616.441,-201.203 616.565,-204.701"/>
</g>
<!-- Tkinter.Menubutton&#45;&gt;paramtk.tilewrapper.Menubutton -->
<g id="edge16" class="edge"><title>Tkinter.Menubutton&#45;&gt;paramtk.tilewrapper.Menubutton</title>
<path fill="none" stroke="black" stroke-width="0.5" d="M556.629,-412.07C572.5,-413.833 590.29,-415.81 607.795,-417.755"/>
<polygon fill="black" stroke="black" points="608.054,-419.544 613.216,-418.357 608.44,-416.066 608.054,-419.544"/>
</g>
<!-- Tkinter.Frame&#45;&gt;paramtk.tilewrapper.Frame -->
<g id="edge68" class="edge"><title>Tkinter.Frame&#45;&gt;paramtk.tilewrapper.Frame</title>
<path fill="none" stroke="black" stroke-width="0.5" d="M542.546,-124C565.552,-124 595.12,-124 622.409,-124"/>
<polygon fill="black" stroke="black" points="622.475,-125.75 627.475,-124 622.475,-122.25 622.475,-125.75"/>
</g>
<!-- Tkinter.Radiobutton&#45;&gt;paramtk.tilewrapper.Radiobutton -->
<g id="edge28" class="edge"><title>Tkinter.Radiobutton&#45;&gt;paramtk.tilewrapper.Radiobutton</title>
<path fill="none" stroke="black" stroke-width="0.5" d="M535.556,-350.041C557.269,-356.393 586.198,-364.585 612,-371 622.917,-373.714 634.652,-376.404 645.882,-378.869"/>
<polygon fill="black" stroke="black" points="645.743,-380.63 651.001,-379.985 646.488,-377.21 645.743,-380.63"/>
</g>
<!-- Tkinter.Pack -->
<g id="node34" class="node"><title>Tkinter.Pack</title>
<polygon fill="none" stroke="black" stroke-width="0.5" points="198,-274.5 126,-274.5 126,-253.5 198,-253.5 198,-274.5"/>
<text text-anchor="middle" x="162" y="-261.5" font-family="Vera" font-size="10.00">Tkinter.Pack</text>
</g>
<!-- Tkinter.Pack&#45;&gt;Tkinter.Widget -->
<g id="edge36" class="edge"><title>Tkinter.Pack&#45;&gt;Tkinter.Widget</title>
<path fill="none" stroke="black" stroke-width="0.5" d="M198.707,-259.641C221.447,-256.941 250.864,-253.447 275.261,-250.55"/>
<polygon fill="black" stroke="black" points="275.627,-252.269 280.386,-249.942 275.215,-248.794 275.627,-252.269"/>
</g>
<!-- Tkinter.BaseWidget&#45;&gt;Tkinter.Widget -->
<g id="edge34" class="edge"><title>Tkinter.BaseWidget&#45;&gt;Tkinter.Widget</title>
<path fill="none" stroke="black" stroke-width="0.5" d="M190.596,-291.974C198.802,-289.087 207.759,-285.927 216,-283 240.559,-274.277 268.285,-264.335 289.22,-256.808"/>
<polygon fill="black" stroke="black" points="290.006,-258.385 294.119,-255.046 288.821,-255.091 290.006,-258.385"/>
</g>
<!-- Tkinter.Place -->
<g id="node38" class="node"><title>Tkinter.Place</title>
<polygon fill="none" stroke="black" stroke-width="0.5" points="200,-236.5 124,-236.5 124,-215.5 200,-215.5 200,-236.5"/>
<text text-anchor="middle" x="162" y="-223.5" font-family="Vera" font-size="10.00">Tkinter.Place</text>
</g>
<!-- Tkinter.Place&#45;&gt;Tkinter.Widget -->
<g id="edge38" class="edge"><title>Tkinter.Place&#45;&gt;Tkinter.Widget</title>
<path fill="none" stroke="black" stroke-width="0.5" d="M200.732,-230.599C223.181,-233.265 251.601,-236.64 275.284,-239.452"/>
<polygon fill="black" stroke="black" points="275.091,-241.192 280.262,-240.044 275.503,-237.716 275.091,-241.192"/>
</g>
<!-- Tkinter.Grid -->
<g id="node40" class="node"><title>Tkinter.Grid</title>
<polygon fill="none" stroke="black" stroke-width="0.5" points="197,-198.5 127,-198.5 127,-177.5 197,-177.5 197,-198.5"/>
<text text-anchor="middle" x="162" y="-185.5" font-family="Vera" font-size="10.00">Tkinter.Grid</text>
</g>
<!-- Tkinter.Grid&#45;&gt;Tkinter.Widget -->
<g id="edge40" class="edge"><title>Tkinter.Grid&#45;&gt;Tkinter.Widget</title>
<path fill="none" stroke="black" stroke-width="0.5" d="M193.145,-198.079C200.709,-200.767 208.715,-203.816 216,-207 232.578,-214.244 235.168,-219.368 252,-226 259.471,-228.944 267.563,-231.6 275.503,-233.929"/>
<polygon fill="black" stroke="black" points="275.132,-235.643 280.421,-235.336 276.095,-232.278 275.132,-235.643"/>
</g>
<!-- paramtk.tilewrapper.Style -->
<g id="node52" class="node"><title>paramtk.tilewrapper.Style</title>
<polygon fill="none" stroke="black" stroke-width="0.5" points="391,-179.5 253,-179.5 253,-158.5 391,-158.5 391,-179.5"/>
<text text-anchor="middle" x="322" y="-166.5" font-family="Vera" font-size="10.00">paramtk.tilewrapper.Style</text>
</g>
<!-- paramtk.tilewrapper.Style&#45;&gt;paramtk.tilewrapper.Widget -->
<g id="edge60" class="edge"><title>paramtk.tilewrapper.Style&#45;&gt;paramtk.tilewrapper.Widget</title>
<path fill="none" stroke="black" stroke-width="0.5" d="M372.333,-179.046C379.193,-181.438 385.947,-184.382 392,-188 411.969,-199.936 407.949,-214.201 428,-226 432.726,-228.781 437.856,-231.159 443.136,-233.193"/>
<polygon fill="black" stroke="black" points="442.722,-234.904 448.019,-234.964 443.916,-231.614 442.722,-234.904"/>
</g>
<!-- Tkinter.Checkbutton&#45;&gt;paramtk.tilewrapper.Checkbutton -->
<g id="edge72" class="edge"><title>Tkinter.Checkbutton&#45;&gt;paramtk.tilewrapper.Checkbutton</title>
<path fill="none" stroke="black" stroke-width="0.5" d="M558.209,-86C573.337,-86 590.115,-86 606.68,-86"/>
<polygon fill="black" stroke="black" points="606.812,-87.7501 611.812,-86 606.812,-84.2501 606.812,-87.7501"/>
</g>
<!-- Tkinter.Button&#45;&gt;paramtk.tilewrapper.Button -->
<g id="edge64" class="edge"><title>Tkinter.Button&#45;&gt;paramtk.tilewrapper.Button</title>
<path fill="none" stroke="black" stroke-width="0.5" d="M543.507,-164.371C565.939,-164.031 594.397,-163.6 620.876,-163.199"/>
<polygon fill="black" stroke="black" points="621.171,-164.945 626.143,-163.119 621.117,-161.445 621.171,-164.945"/>
</g>
<!-- Tkinter.Entry&#45;&gt;paramtk.tilewrapper.Entry -->
<g id="edge82" class="edge"><title>Tkinter.Entry&#45;&gt;paramtk.tilewrapper.Entry</title>
<path fill="none" stroke="black" stroke-width="0.5" d="M540.176,-48C564.085,-48 595.721,-48 624.534,-48"/>
<polygon fill="black" stroke="black" points="624.879,-49.7501 629.879,-48 624.879,-46.2501 624.879,-49.7501"/>
</g>
<!-- Tkinter.Entry&#45;&gt;paramtk.tilewrapper.Combobox -->
<g id="edge86" class="edge"><title>Tkinter.Entry&#45;&gt;paramtk.tilewrapper.Combobox</title>
<path fill="none" stroke="black" stroke-width="0.5" d="M540.176,-40.6732C569.19,-35.1049 609.584,-27.3525 642.503,-21.0348"/>
<polygon fill="black" stroke="black" points="643.138,-22.6949 647.719,-20.0338 642.479,-19.2576 643.138,-22.6949"/>
</g>
</g>
</svg>
