<?xml version="1.0" encoding="UTF-8" standalone="no"?>
<!DOCTYPE svg PUBLIC "-//W3C//DTD SVG 1.1//EN"
 "http://www.w3.org/Graphics/SVG/1.1/DTD/svg11.dtd">
<!-- Generated by graphviz version 2.26.3 (20100126.1600)
 -->
<!-- Title: inheritancebede3c61fc Pages: 1 -->
<svg width="2498pt" height="579pt"
 viewBox="0.00 0.00 2498.00 579.00" xmlns="http://www.w3.org/2000/svg" xmlns:xlink="http://www.w3.org/1999/xlink">
<g id="graph1" class="graph" transform="scale(1 1) rotate(0) translate(4 575)">
<title>inheritancebede3c61fc</title>
<polygon fill="white" stroke="white" points="-4,5 -4,-575 2495,-575 2495,5 -4,5"/>
<!-- topo.command.pylabplot.autocorrelationplot -->
<g id="node1" class="node"><title>topo.command.pylabplot.autocorrelationplot</title>
<polygon fill="none" stroke="black" stroke-width="0.5" points="1835,-571.5 1605,-571.5 1605,-550.5 1835,-550.5 1835,-571.5"/>
<text text-anchor="middle" x="1720" y="-558.5" font-family="Vera" font-size="10.00">topo.command.pylabplot.autocorrelationplot</text>
</g>
<!-- topo.command.pylabplot.matrixplot -->
<g id="node2" class="node"><title>topo.command.pylabplot.matrixplot</title>
<polygon fill="none" stroke="black" stroke-width="0.5" points="1458,-495.5 1270,-495.5 1270,-474.5 1458,-474.5 1458,-495.5"/>
<text text-anchor="middle" x="1364" y="-482.5" font-family="Vera" font-size="10.00">topo.command.pylabplot.matrixplot</text>
</g>
<!-- topo.command.pylabplot.matrixplot&#45;&gt;topo.command.pylabplot.autocorrelationplot -->
<g id="edge2" class="edge"><title>topo.command.pylabplot.matrixplot&#45;&gt;topo.command.pylabplot.autocorrelationplot</title>
<path fill="none" stroke="black" stroke-width="0.5" d="M1396.69,-495.1C1438.4,-507.666 1512.96,-529.041 1578,-542 1593.7,-545.127 1610.47,-547.883 1626.79,-550.256"/>
<polygon fill="black" stroke="black" points="1626.64,-552.002 1631.84,-550.98 1627.14,-548.538 1626.64,-552.002"/>
</g>
<!-- topo.command.pylabplot.fftplot -->
<g id="node27" class="node"><title>topo.command.pylabplot.fftplot</title>
<polygon fill="none" stroke="black" stroke-width="0.5" points="1803,-533.5 1637,-533.5 1637,-512.5 1803,-512.5 1803,-533.5"/>
<text text-anchor="middle" x="1720" y="-520.5" font-family="Vera" font-size="10.00">topo.command.pylabplot.fftplot</text>
</g>
<!-- topo.command.pylabplot.matrixplot&#45;&gt;topo.command.pylabplot.fftplot -->
<g id="edge22" class="edge"><title>topo.command.pylabplot.matrixplot&#45;&gt;topo.command.pylabplot.fftplot</title>
<path fill="none" stroke="black" stroke-width="0.5" d="M1458,-495.034C1511.68,-500.764 1578.59,-507.906 1631.36,-513.538"/>
<polygon fill="black" stroke="black" points="1631.26,-515.288 1636.42,-514.078 1631.63,-511.807 1631.26,-515.288"/>
</g>
<!-- topo.command.pylabplot.activityplot -->
<g id="node35" class="node"><title>topo.command.pylabplot.activityplot</title>
<polygon fill="none" stroke="black" stroke-width="0.5" points="1815,-495.5 1625,-495.5 1625,-474.5 1815,-474.5 1815,-495.5"/>
<text text-anchor="middle" x="1720" y="-482.5" font-family="Vera" font-size="10.00">topo.command.pylabplot.activityplot</text>
</g>
<!-- topo.command.pylabplot.matrixplot&#45;&gt;topo.command.pylabplot.activityplot -->
<g id="edge30" class="edge"><title>topo.command.pylabplot.matrixplot&#45;&gt;topo.command.pylabplot.activityplot</title>
<path fill="none" stroke="black" stroke-width="0.5" d="M1458,-485C1507.59,-485 1568.47,-485 1619.06,-485"/>
<polygon fill="black" stroke="black" points="1619.23,-486.75 1624.23,-485 1619.23,-483.25 1619.23,-486.75"/>
</g>
<!-- topo.command.pylabplot.gradientplot -->
<g id="node48" class="node"><title>topo.command.pylabplot.gradientplot</title>
<polygon fill="none" stroke="black" stroke-width="0.5" points="1818,-457.5 1622,-457.5 1622,-436.5 1818,-436.5 1818,-457.5"/>
<text text-anchor="middle" x="1720" y="-444.5" font-family="Vera" font-size="10.00">topo.command.pylabplot.gradientplot</text>
</g>
<!-- topo.command.pylabplot.matrixplot&#45;&gt;topo.command.pylabplot.gradientplot -->
<g id="edge44" class="edge"><title>topo.command.pylabplot.matrixplot&#45;&gt;topo.command.pylabplot.gradientplot</title>
<path fill="none" stroke="black" stroke-width="0.5" d="M1458,-474.966C1508.19,-469.609 1569.94,-463.018 1620.88,-457.58"/>
<polygon fill="black" stroke="black" points="1621.3,-459.295 1626.09,-457.024 1620.93,-455.815 1621.3,-459.295"/>
</g>
<!-- topo.command.pylabplot.overlaid_plots -->
<g id="node4" class="node"><title>topo.command.pylabplot.overlaid_plots</title>
<polygon fill="none" stroke="black" stroke-width="0.5" points="1823,-419.5 1617,-419.5 1617,-398.5 1823,-398.5 1823,-419.5"/>
<text text-anchor="middle" x="1720" y="-406.5" font-family="Vera" font-size="10.00">topo.command.pylabplot.overlaid_plots</text>
</g>
<!-- topo.command.pylabplot.overlaid_plot -->
<g id="node5" class="node"><title>topo.command.pylabplot.overlaid_plot</title>
<polygon fill="none" stroke="black" stroke-width="0.5" points="1464,-438.5 1264,-438.5 1264,-417.5 1464,-417.5 1464,-438.5"/>
<text text-anchor="middle" x="1364" y="-425.5" font-family="Vera" font-size="10.00">topo.command.pylabplot.overlaid_plot</text>
</g>
<!-- topo.command.pylabplot.overlaid_plot&#45;&gt;topo.command.pylabplot.overlaid_plots -->
<g id="edge4" class="edge"><title>topo.command.pylabplot.overlaid_plot&#45;&gt;topo.command.pylabplot.overlaid_plots</title>
<path fill="none" stroke="black" stroke-width="0.5" d="M1464.11,-422.657C1510.15,-420.2 1564.84,-417.281 1611.82,-414.774"/>
<polygon fill="black" stroke="black" points="1612.03,-416.515 1616.93,-414.501 1611.84,-413.02 1612.03,-416.515"/>
</g>
<!-- topo.command.pylabplot.PylabPlotCommand -->
<g id="node7" class="node"><title>topo.command.pylabplot.PylabPlotCommand</title>
<polygon fill="none" stroke="black" stroke-width="0.5" points="1112,-305.5 880,-305.5 880,-284.5 1112,-284.5 1112,-305.5"/>
<text text-anchor="middle" x="996" y="-292.5" font-family="Vera" font-size="10.00">topo.command.pylabplot.PylabPlotCommand</text>
</g>
<!-- topo.command.pylabplot.PylabPlotCommand&#45;&gt;topo.command.pylabplot.matrixplot -->
<g id="edge70" class="edge"><title>topo.command.pylabplot.PylabPlotCommand&#45;&gt;topo.command.pylabplot.matrixplot</title>
<path fill="none" stroke="black" stroke-width="0.5" d="M1005.16,-305.059C1030.79,-332.546 1106.6,-409.374 1186,-447 1212.99,-459.792 1244.32,-468.318 1273.11,-473.985"/>
<polygon fill="black" stroke="black" points="1272.83,-475.714 1278.07,-474.94 1273.49,-472.277 1272.83,-475.714"/>
</g>
<!-- topo.command.pylabplot.PylabPlotCommand&#45;&gt;topo.command.pylabplot.overlaid_plot -->
<g id="edge10" class="edge"><title>topo.command.pylabplot.PylabPlotCommand&#45;&gt;topo.command.pylabplot.overlaid_plot</title>
<path fill="none" stroke="black" stroke-width="0.5" d="M1008.39,-305.123C1037.37,-328.165 1112.69,-384.43 1186,-409 1208.97,-416.699 1234.46,-421.471 1258.8,-424.384"/>
<polygon fill="black" stroke="black" points="1258.81,-426.147 1263.97,-424.978 1259.21,-422.669 1258.81,-426.147"/>
</g>
<!-- topo.command.pylabplot.histogramplot -->
<g id="node22" class="node"><title>topo.command.pylabplot.histogramplot</title>
<polygon fill="none" stroke="black" stroke-width="0.5" points="1467,-400.5 1261,-400.5 1261,-379.5 1467,-379.5 1467,-400.5"/>
<text text-anchor="middle" x="1364" y="-387.5" font-family="Vera" font-size="10.00">topo.command.pylabplot.histogramplot</text>
</g>
<!-- topo.command.pylabplot.PylabPlotCommand&#45;&gt;topo.command.pylabplot.histogramplot -->
<g id="edge18" class="edge"><title>topo.command.pylabplot.PylabPlotCommand&#45;&gt;topo.command.pylabplot.histogramplot</title>
<path fill="none" stroke="black" stroke-width="0.5" d="M1015.92,-305.097C1049.86,-321.816 1121.52,-354.987 1186,-371 1208.15,-376.502 1232.25,-380.41 1255.34,-383.187"/>
<polygon fill="black" stroke="black" points="1255.39,-384.955 1260.56,-383.798 1255.8,-381.479 1255.39,-384.955"/>
</g>
<!-- topo.command.pylabplot.unit_tuning_curve -->
<g id="node24" class="node"><title>topo.command.pylabplot.unit_tuning_curve</title>
<polygon fill="none" stroke="black" stroke-width="0.5" points="1476,-362.5 1252,-362.5 1252,-341.5 1476,-341.5 1476,-362.5"/>
<text text-anchor="middle" x="1364" y="-349.5" font-family="Vera" font-size="10.00">topo.command.pylabplot.unit_tuning_curve</text>
</g>
<!-- topo.command.pylabplot.PylabPlotCommand&#45;&gt;topo.command.pylabplot.unit_tuning_curve -->
<g id="edge20" class="edge"><title>topo.command.pylabplot.PylabPlotCommand&#45;&gt;topo.command.pylabplot.unit_tuning_curve</title>
<path fill="none" stroke="black" stroke-width="0.5" d="M1040.33,-305.056C1078.71,-313.475 1135.79,-325.315 1186,-333 1206.62,-336.156 1228.66,-338.963 1249.97,-341.387"/>
<polygon fill="black" stroke="black" points="1249.91,-343.142 1255.07,-341.963 1250.3,-339.664 1249.91,-343.142"/>
</g>
<!-- topo.command.pylabplot.matrixplot3dx3 -->
<g id="node52" class="node"><title>topo.command.pylabplot.matrixplot3dx3</title>
<polygon fill="none" stroke="black" stroke-width="0.5" points="1470,-324.5 1258,-324.5 1258,-303.5 1470,-303.5 1470,-324.5"/>
<text text-anchor="middle" x="1364" y="-311.5" font-family="Vera" font-size="10.00">topo.command.pylabplot.matrixplot3dx3</text>
</g>
<!-- topo.command.pylabplot.PylabPlotCommand&#45;&gt;topo.command.pylabplot.matrixplot3dx3 -->
<g id="edge48" class="edge"><title>topo.command.pylabplot.PylabPlotCommand&#45;&gt;topo.command.pylabplot.matrixplot3dx3</title>
<path fill="none" stroke="black" stroke-width="0.5" d="M1112.69,-301.025C1157.49,-303.338 1208.46,-305.969 1252.73,-308.255"/>
<polygon fill="black" stroke="black" points="1252.74,-310.008 1257.82,-308.518 1252.92,-306.512 1252.74,-310.008"/>
</g>
<!-- topo.command.pylabplot.plot_modulation_ratio -->
<g id="node54" class="node"><title>topo.command.pylabplot.plot_modulation_ratio</title>
<polygon fill="none" stroke="black" stroke-width="0.5" points="1486,-286.5 1242,-286.5 1242,-265.5 1486,-265.5 1486,-286.5"/>
<text text-anchor="middle" x="1364" y="-273.5" font-family="Vera" font-size="10.00">topo.command.pylabplot.plot_modulation_ratio</text>
</g>
<!-- topo.command.pylabplot.PylabPlotCommand&#45;&gt;topo.command.pylabplot.plot_modulation_ratio -->
<g id="edge50" class="edge"><title>topo.command.pylabplot.PylabPlotCommand&#45;&gt;topo.command.pylabplot.plot_modulation_ratio</title>
<path fill="none" stroke="black" stroke-width="0.5" d="M1112.69,-288.975C1152.08,-286.942 1196.24,-284.662 1236.42,-282.587"/>
<polygon fill="black" stroke="black" points="1236.91,-284.314 1241.81,-282.309 1236.73,-280.819 1236.91,-284.314"/>
</g>
<!-- topo.command.pylabplot.vectorplot -->
<g id="node59" class="node"><title>topo.command.pylabplot.vectorplot</title>
<polygon fill="none" stroke="black" stroke-width="0.5" points="1458,-248.5 1270,-248.5 1270,-227.5 1458,-227.5 1458,-248.5"/>
<text text-anchor="middle" x="1364" y="-235.5" font-family="Vera" font-size="10.00">topo.command.pylabplot.vectorplot</text>
</g>
<!-- topo.command.pylabplot.PylabPlotCommand&#45;&gt;topo.command.pylabplot.vectorplot -->
<g id="edge56" class="edge"><title>topo.command.pylabplot.PylabPlotCommand&#45;&gt;topo.command.pylabplot.vectorplot</title>
<path fill="none" stroke="black" stroke-width="0.5" d="M1040.33,-284.944C1078.71,-276.525 1135.79,-264.685 1186,-257 1211.34,-253.121 1238.84,-249.769 1264.47,-247.007"/>
<polygon fill="black" stroke="black" points="1264.78,-248.734 1269.57,-246.463 1264.41,-245.253 1264.78,-248.734"/>
</g>
<!-- topo.command.pylabplot.xy_grid -->
<g id="node61" class="node"><title>topo.command.pylabplot.xy_grid</title>
<polygon fill="none" stroke="black" stroke-width="0.5" points="1450,-210.5 1278,-210.5 1278,-189.5 1450,-189.5 1450,-210.5"/>
<text text-anchor="middle" x="1364" y="-197.5" font-family="Vera" font-size="10.00">topo.command.pylabplot.xy_grid</text>
</g>
<!-- topo.command.pylabplot.PylabPlotCommand&#45;&gt;topo.command.pylabplot.xy_grid -->
<g id="edge58" class="edge"><title>topo.command.pylabplot.PylabPlotCommand&#45;&gt;topo.command.pylabplot.xy_grid</title>
<path fill="none" stroke="black" stroke-width="0.5" d="M1015.92,-284.903C1049.86,-268.184 1121.52,-235.013 1186,-219 1213.54,-212.16 1244.08,-207.782 1271.98,-204.98"/>
<polygon fill="black" stroke="black" points="1272.35,-206.702 1277.16,-204.475 1272.01,-203.219 1272.35,-206.702"/>
</g>
<!-- topo.command.pylabplot.matrixplot3d -->
<g id="node72" class="node"><title>topo.command.pylabplot.matrixplot3d</title>
<polygon fill="none" stroke="black" stroke-width="0.5" points="1464,-172.5 1264,-172.5 1264,-151.5 1464,-151.5 1464,-172.5"/>
<text text-anchor="middle" x="1364" y="-159.5" font-family="Vera" font-size="10.00">topo.command.pylabplot.matrixplot3d</text>
</g>
<!-- topo.command.pylabplot.PylabPlotCommand&#45;&gt;topo.command.pylabplot.matrixplot3d -->
<g id="edge72" class="edge"><title>topo.command.pylabplot.PylabPlotCommand&#45;&gt;topo.command.pylabplot.matrixplot3d</title>
<path fill="none" stroke="black" stroke-width="0.5" d="M1008.39,-284.877C1037.37,-261.835 1112.69,-205.57 1186,-181 1208.97,-173.301 1234.46,-168.529 1258.8,-165.616"/>
<polygon fill="black" stroke="black" points="1259.21,-167.331 1263.97,-165.022 1258.81,-163.853 1259.21,-167.331"/>
</g>
<!-- topo.command.Command -->
<g id="node8" class="node"><title>topo.command.Command</title>
<polygon fill="none" stroke="black" stroke-width="0.5" points="724,-277.5 582,-277.5 582,-256.5 724,-256.5 724,-277.5"/>
<text text-anchor="middle" x="653" y="-264.5" font-family="Vera" font-size="10.00">topo.command.Command</text>
</g>
<!-- topo.command.Command&#45;&gt;topo.command.pylabplot.PylabPlotCommand -->
<g id="edge6" class="edge"><title>topo.command.Command&#45;&gt;topo.command.pylabplot.PylabPlotCommand</title>
<path fill="none" stroke="black" stroke-width="0.5" d="M724.904,-272.87C768.111,-276.397 824.224,-280.977 874.182,-285.056"/>
<polygon fill="black" stroke="black" points="874.181,-286.811 879.307,-285.474 874.466,-283.323 874.181,-286.811"/>
</g>
<!-- topo.command.pylabplot.cyclic_tuning_curve -->
<g id="node10" class="node"><title>topo.command.pylabplot.cyclic_tuning_curve</title>
<polygon fill="none" stroke="black" stroke-width="0.5" points="2150,-371.5 1918,-371.5 1918,-350.5 2150,-350.5 2150,-371.5"/>
<text text-anchor="middle" x="2034" y="-358.5" font-family="Vera" font-size="10.00">topo.command.pylabplot.cyclic_tuning_curve</text>
</g>
<!-- topo.command.pylabplot.cyclic_unit_tuning_curve -->
<g id="node11" class="node"><title>topo.command.pylabplot.cyclic_unit_tuning_curve</title>
<polygon fill="none" stroke="black" stroke-width="0.5" points="1847,-371.5 1593,-371.5 1593,-350.5 1847,-350.5 1847,-371.5"/>
<text text-anchor="middle" x="1720" y="-358.5" font-family="Vera" font-size="10.00">topo.command.pylabplot.cyclic_unit_tuning_curve</text>
</g>
<!-- topo.command.pylabplot.cyclic_unit_tuning_curve&#45;&gt;topo.command.pylabplot.cyclic_tuning_curve -->
<g id="edge8" class="edge"><title>topo.command.pylabplot.cyclic_unit_tuning_curve&#45;&gt;topo.command.pylabplot.cyclic_tuning_curve</title>
<path fill="none" stroke="black" stroke-width="0.5" d="M1847.72,-361C1869.17,-361 1891.38,-361 1912.67,-361"/>
<polygon fill="black" stroke="black" points="1912.78,-362.75 1917.78,-361 1912.78,-359.25 1912.78,-362.75"/>
</g>
<!-- topo.analysis.featureresponses.PositionMeasurementCommand -->
<g id="node14" class="node"><title>topo.analysis.featureresponses.PositionMeasurementCommand</title>
<polygon fill="none" stroke="black" stroke-width="0.5" points="1526,-134.5 1202,-134.5 1202,-113.5 1526,-113.5 1526,-134.5"/>
<text text-anchor="middle" x="1364" y="-121.5" font-family="Vera" font-size="10.00">topo.analysis.featureresponses.PositionMeasurementCommand</text>
</g>
<!-- topo.command.pylabplot.measure_position_pref -->
<g id="node17" class="node"><title>topo.command.pylabplot.measure_position_pref</title>
<polygon fill="none" stroke="black" stroke-width="0.5" points="1844,-134.5 1596,-134.5 1596,-113.5 1844,-113.5 1844,-134.5"/>
<text text-anchor="middle" x="1720" y="-121.5" font-family="Vera" font-size="10.00">topo.command.pylabplot.measure_position_pref</text>
</g>
<!-- topo.analysis.featureresponses.PositionMeasurementCommand&#45;&gt;topo.command.pylabplot.measure_position_pref -->
<g id="edge14" class="edge"><title>topo.analysis.featureresponses.PositionMeasurementCommand&#45;&gt;topo.command.pylabplot.measure_position_pref</title>
<path fill="none" stroke="black" stroke-width="0.5" d="M1526.11,-124C1547.52,-124 1569.23,-124 1590,-124"/>
<polygon fill="black" stroke="black" points="1590.26,-125.75 1595.26,-124 1590.26,-122.25 1590.26,-125.75"/>
</g>
<!-- topo.analysis.featureresponses.MeasureResponseCommand -->
<g id="node15" class="node"><title>topo.analysis.featureresponses.MeasureResponseCommand</title>
<polygon fill="none" stroke="black" stroke-width="0.5" points="1149,-134.5 843,-134.5 843,-113.5 1149,-113.5 1149,-134.5"/>
<text text-anchor="middle" x="996" y="-121.5" font-family="Vera" font-size="10.00">topo.analysis.featureresponses.MeasureResponseCommand</text>
</g>
<!-- topo.analysis.featureresponses.MeasureResponseCommand&#45;&gt;topo.analysis.featureresponses.PositionMeasurementCommand -->
<g id="edge12" class="edge"><title>topo.analysis.featureresponses.MeasureResponseCommand&#45;&gt;topo.analysis.featureresponses.PositionMeasurementCommand</title>
<path fill="none" stroke="black" stroke-width="0.5" d="M1149.67,-124C1165.16,-124 1180.95,-124 1196.58,-124"/>
<polygon fill="black" stroke="black" points="1196.87,-125.75 1201.87,-124 1196.87,-122.25 1196.87,-125.75"/>
</g>
<!-- topo.analysis.featureresponses.SinusoidalMeasureResponseCommand -->
<g id="node46" class="node"><title>topo.analysis.featureresponses.SinusoidalMeasureResponseCommand</title>
<polygon fill="none" stroke="black" stroke-width="0.5" points="1542,-96.5 1186,-96.5 1186,-75.5 1542,-75.5 1542,-96.5"/>
<text text-anchor="middle" x="1364" y="-83.5" font-family="Vera" font-size="10.00">topo.analysis.featureresponses.SinusoidalMeasureResponseCommand</text>
</g>
<!-- topo.analysis.featureresponses.MeasureResponseCommand&#45;&gt;topo.analysis.featureresponses.SinusoidalMeasureResponseCommand -->
<g id="edge42" class="edge"><title>topo.analysis.featureresponses.MeasureResponseCommand&#45;&gt;topo.analysis.featureresponses.SinusoidalMeasureResponseCommand</title>
<path fill="none" stroke="black" stroke-width="0.5" d="M1093.17,-113.966C1145.15,-108.598 1209.14,-101.991 1261.86,-96.5472"/>
<polygon fill="black" stroke="black" points="1262.13,-98.2785 1266.93,-96.024 1261.77,-94.797 1262.13,-98.2785"/>
</g>
<!-- topo.command.pylabplot.measure_or_tuning -->
<g id="node19" class="node"><title>topo.command.pylabplot.measure_or_tuning</title>
<polygon fill="none" stroke="black" stroke-width="0.5" points="2464,-210.5 2232,-210.5 2232,-189.5 2464,-189.5 2464,-210.5"/>
<text text-anchor="middle" x="2348" y="-197.5" font-family="Vera" font-size="10.00">topo.command.pylabplot.measure_or_tuning</text>
</g>
<!-- topo.analysis.featureresponses.UnitCurveCommand -->
<g id="node20" class="node"><title>topo.analysis.featureresponses.UnitCurveCommand</title>
<polygon fill="none" stroke="black" stroke-width="0.5" points="2167,-115.5 1901,-115.5 1901,-94.5 2167,-94.5 2167,-115.5"/>
<text text-anchor="middle" x="2034" y="-102.5" font-family="Vera" font-size="10.00">topo.analysis.featureresponses.UnitCurveCommand</text>
</g>
<!-- topo.analysis.featureresponses.UnitCurveCommand&#45;&gt;topo.command.pylabplot.measure_or_tuning -->
<g id="edge16" class="edge"><title>topo.analysis.featureresponses.UnitCurveCommand&#45;&gt;topo.command.pylabplot.measure_or_tuning</title>
<path fill="none" stroke="black" stroke-width="0.5" d="M2052.44,-115.247C2083.24,-131.878 2147.55,-164.538 2206,-181 2217.31,-184.186 2229.29,-186.843 2241.29,-189.058"/>
<polygon fill="black" stroke="black" points="2241.21,-190.821 2246.44,-189.981 2241.82,-187.376 2241.21,-190.821"/>
</g>
<!-- topo.command.pylabplot.measure_size_response -->
<g id="node40" class="node"><title>topo.command.pylabplot.measure_size_response</title>
<polygon fill="none" stroke="black" stroke-width="0.5" points="2476,-172.5 2220,-172.5 2220,-151.5 2476,-151.5 2476,-172.5"/>
<text text-anchor="middle" x="2348" y="-159.5" font-family="Vera" font-size="10.00">topo.command.pylabplot.measure_size_response</text>
</g>
<!-- topo.analysis.featureresponses.UnitCurveCommand&#45;&gt;topo.command.pylabplot.measure_size_response -->
<g id="edge36" class="edge"><title>topo.analysis.featureresponses.UnitCurveCommand&#45;&gt;topo.command.pylabplot.measure_size_response</title>
<path fill="none" stroke="black" stroke-width="0.5" d="M2074.81,-115.037C2109.54,-123.331 2160.83,-135.003 2206,-143 2223.13,-146.032 2241.49,-148.825 2259.14,-151.284"/>
<polygon fill="black" stroke="black" points="2258.9,-153.018 2264.1,-151.968 2259.38,-149.551 2258.9,-153.018"/>
</g>
<!-- topo.command.pylabplot.measure_frequency_response -->
<g id="node42" class="node"><title>topo.command.pylabplot.measure_frequency_response</title>
<polygon fill="none" stroke="black" stroke-width="0.5" points="2490,-134.5 2206,-134.5 2206,-113.5 2490,-113.5 2490,-134.5"/>
<text text-anchor="middle" x="2348" y="-121.5" font-family="Vera" font-size="10.00">topo.command.pylabplot.measure_frequency_response</text>
</g>
<!-- topo.analysis.featureresponses.UnitCurveCommand&#45;&gt;topo.command.pylabplot.measure_frequency_response -->
<g id="edge38" class="edge"><title>topo.analysis.featureresponses.UnitCurveCommand&#45;&gt;topo.command.pylabplot.measure_frequency_response</title>
<path fill="none" stroke="black" stroke-width="0.5" d="M2167.62,-113.085C2178.62,-113.751 2189.78,-114.426 2200.87,-115.097"/>
<polygon fill="black" stroke="black" points="2200.86,-116.85 2205.96,-115.405 2201.08,-113.356 2200.86,-116.85"/>
</g>
<!-- topo.command.pylabplot.measure_orientation_contrast -->
<g id="node44" class="node"><title>topo.command.pylabplot.measure_orientation_contrast</title>
<polygon fill="none" stroke="black" stroke-width="0.5" points="2490,-96.5 2206,-96.5 2206,-75.5 2490,-75.5 2490,-96.5"/>
<text text-anchor="middle" x="2348" y="-83.5" font-family="Vera" font-size="10.00">topo.command.pylabplot.measure_orientation_contrast</text>
</g>
<!-- topo.analysis.featureresponses.UnitCurveCommand&#45;&gt;topo.command.pylabplot.measure_orientation_contrast -->
<g id="edge40" class="edge"><title>topo.analysis.featureresponses.UnitCurveCommand&#45;&gt;topo.command.pylabplot.measure_orientation_contrast</title>
<path fill="none" stroke="black" stroke-width="0.5" d="M2167.62,-96.9147C2178.62,-96.2491 2189.78,-95.5739 2200.87,-94.9028"/>
<polygon fill="black" stroke="black" points="2201.08,-96.6436 2205.96,-94.5947 2200.86,-93.15 2201.08,-96.6436"/>
</g>
<!-- topo.command.pylabplot.measure_contrast_response -->
<g id="node50" class="node"><title>topo.command.pylabplot.measure_contrast_response</title>
<polygon fill="none" stroke="black" stroke-width="0.5" points="2486,-58.5 2210,-58.5 2210,-37.5 2486,-37.5 2486,-58.5"/>
<text text-anchor="middle" x="2348" y="-45.5" font-family="Vera" font-size="10.00">topo.command.pylabplot.measure_contrast_response</text>
</g>
<!-- topo.analysis.featureresponses.UnitCurveCommand&#45;&gt;topo.command.pylabplot.measure_contrast_response -->
<g id="edge46" class="edge"><title>topo.analysis.featureresponses.UnitCurveCommand&#45;&gt;topo.command.pylabplot.measure_contrast_response</title>
<path fill="none" stroke="black" stroke-width="0.5" d="M2134.79,-94.9322C2146.8,-92.5583 2158.77,-89.6249 2170,-86 2187.22,-80.4428 2188.77,-72.5073 2206,-67 2215.77,-63.8768 2226.08,-61.2668 2236.5,-59.0857"/>
<polygon fill="black" stroke="black" points="2237.07,-60.7561 2241.63,-58.049 2236.38,-57.3256 2237.07,-60.7561"/>
</g>
<!-- topo.command.pylabplot.test_measure -->
<g id="node63" class="node"><title>topo.command.pylabplot.test_measure</title>
<polygon fill="none" stroke="black" stroke-width="0.5" points="2451,-20.5 2245,-20.5 2245,0.5 2451,0.5 2451,-20.5"/>
<text text-anchor="middle" x="2348" y="-7.5" font-family="Vera" font-size="10.00">topo.command.pylabplot.test_measure</text>
</g>
<!-- topo.analysis.featureresponses.UnitCurveCommand&#45;&gt;topo.command.pylabplot.test_measure -->
<g id="edge60" class="edge"><title>topo.analysis.featureresponses.UnitCurveCommand&#45;&gt;topo.command.pylabplot.test_measure</title>
<path fill="none" stroke="black" stroke-width="0.5" d="M2152.8,-94.9688C2158.81,-92.4562 2164.59,-89.4906 2170,-86 2195.17,-69.7518 2180.78,-45.1752 2206,-29 2216.26,-22.4207 2227.79,-17.6639 2239.74,-14.2731"/>
<polygon fill="black" stroke="black" points="2240.5,-15.8812 2244.88,-12.9022 2239.6,-12.4994 2240.5,-15.8812"/>
</g>
<!-- topo.command.pylabplot.unit_tuning_curve&#45;&gt;topo.command.pylabplot.cyclic_unit_tuning_curve -->
<g id="edge24" class="edge"><title>topo.command.pylabplot.unit_tuning_curve&#45;&gt;topo.command.pylabplot.cyclic_unit_tuning_curve</title>
<path fill="none" stroke="black" stroke-width="0.5" d="M1476.15,-354.835C1511.31,-355.724 1550.46,-356.714 1586.92,-357.636"/>
<polygon fill="black" stroke="black" points="1587.24,-359.394 1592.28,-357.771 1587.33,-355.895 1587.24,-359.394"/>
</g>
<!-- topo.command.pylabplot.tuning_curve -->
<g id="node65" class="node"><title>topo.command.pylabplot.tuning_curve</title>
<polygon fill="none" stroke="black" stroke-width="0.5" points="1820,-333.5 1620,-333.5 1620,-312.5 1820,-312.5 1820,-333.5"/>
<text text-anchor="middle" x="1720" y="-320.5" font-family="Vera" font-size="10.00">topo.command.pylabplot.tuning_curve</text>
</g>
<!-- topo.command.pylabplot.unit_tuning_curve&#45;&gt;topo.command.pylabplot.tuning_curve -->
<g id="edge62" class="edge"><title>topo.command.pylabplot.unit_tuning_curve&#45;&gt;topo.command.pylabplot.tuning_curve</title>
<path fill="none" stroke="black" stroke-width="0.5" d="M1476.15,-342.864C1520.31,-339.267 1570.76,-335.158 1614.27,-331.613"/>
<polygon fill="black" stroke="black" points="1614.42,-333.356 1619.26,-331.206 1614.14,-329.868 1614.42,-333.356"/>
</g>
<!-- param.parameterized.Parameterized -->
<g id="node26" class="node"><title>param.parameterized.Parameterized</title>
<polygon fill="none" stroke="black" stroke-width="0.5" points="194,-182.5 5.68434e-14,-182.5 0,-161.5 194,-161.5 194,-182.5"/>
<text text-anchor="middle" x="97" y="-169.5" font-family="Vera" font-size="10.00">param.parameterized.Parameterized</text>
</g>
<!-- param.parameterized.ParameterizedFunction -->
<g id="node30" class="node"><title>param.parameterized.ParameterizedFunction</title>
<polygon fill="none" stroke="black" stroke-width="0.5" points="464,-182.5 230,-182.5 230,-161.5 464,-161.5 464,-182.5"/>
<text text-anchor="middle" x="347" y="-169.5" font-family="Vera" font-size="10.00">param.parameterized.ParameterizedFunction</text>
</g>
<!-- param.parameterized.Parameterized&#45;&gt;param.parameterized.ParameterizedFunction -->
<g id="edge26" class="edge"><title>param.parameterized.Parameterized&#45;&gt;param.parameterized.ParameterizedFunction</title>
<path fill="none" stroke="black" stroke-width="0.5" d="M194.014,-172C204.04,-172 214.319,-172 224.575,-172"/>
<polygon fill="black" stroke="black" points="224.607,-173.75 229.607,-172 224.607,-170.25 224.607,-173.75"/>
</g>
<!-- param.parameterized.ParameterizedFunction&#45;&gt;topo.command.Command -->
<g id="edge32" class="edge"><title>param.parameterized.ParameterizedFunction&#45;&gt;topo.command.Command</title>
<path fill="none" stroke="black" stroke-width="0.5" d="M379.458,-182.077C436.608,-199.819 554.867,-236.534 615.445,-255.341"/>
<polygon fill="black" stroke="black" points="615.121,-257.072 620.415,-256.884 616.158,-253.73 615.121,-257.072"/>
</g>
<!-- topo.analysis.featureresponses.PatternPresentingCommand -->
<g id="node38" class="node"><title>topo.analysis.featureresponses.PatternPresentingCommand</title>
<polygon fill="none" stroke="black" stroke-width="0.5" points="805,-182.5 501,-182.5 501,-161.5 805,-161.5 805,-182.5"/>
<text text-anchor="middle" x="653" y="-169.5" font-family="Vera" font-size="10.00">topo.analysis.featureresponses.PatternPresentingCommand</text>
</g>
<!-- param.parameterized.ParameterizedFunction&#45;&gt;topo.analysis.featureresponses.PatternPresentingCommand -->
<g id="edge34" class="edge"><title>param.parameterized.ParameterizedFunction&#45;&gt;topo.analysis.featureresponses.PatternPresentingCommand</title>
<path fill="none" stroke="black" stroke-width="0.5" d="M464.432,-172C474.571,-172 484.931,-172 495.319,-172"/>
<polygon fill="black" stroke="black" points="495.42,-173.75 500.42,-172 495.42,-170.25 495.42,-173.75"/>
</g>
<!-- topo.command.pylabplot.measure_cog -->
<g id="node56" class="node"><title>topo.command.pylabplot.measure_cog</title>
<polygon fill="none" stroke="black" stroke-width="0.5" points="755,-144.5 551,-144.5 551,-123.5 755,-123.5 755,-144.5"/>
<text text-anchor="middle" x="653" y="-131.5" font-family="Vera" font-size="10.00">topo.command.pylabplot.measure_cog</text>
</g>
<!-- param.parameterized.ParameterizedFunction&#45;&gt;topo.command.pylabplot.measure_cog -->
<g id="edge52" class="edge"><title>param.parameterized.ParameterizedFunction&#45;&gt;topo.command.pylabplot.measure_cog</title>
<path fill="none" stroke="black" stroke-width="0.5" d="M427.798,-161.966C470.763,-156.631 523.585,-150.071 567.271,-144.646"/>
<polygon fill="black" stroke="black" points="567.534,-146.377 572.28,-144.024 567.102,-142.904 567.534,-146.377"/>
</g>
<!-- topo.command.pylabplot.measure_or_tuning_fullfield -->
<g id="node32" class="node"><title>topo.command.pylabplot.measure_or_tuning_fullfield</title>
<polygon fill="none" stroke="black" stroke-width="0.5" points="2169,-77.5 1899,-77.5 1899,-56.5 2169,-56.5 2169,-77.5"/>
<text text-anchor="middle" x="2034" y="-64.5" font-family="Vera" font-size="10.00">topo.command.pylabplot.measure_or_tuning_fullfield</text>
</g>
<!-- topo.analysis.featureresponses.FeatureCurveCommand -->
<g id="node33" class="node"><title>topo.analysis.featureresponses.FeatureCurveCommand</title>
<polygon fill="none" stroke="black" stroke-width="0.5" points="1862,-96.5 1578,-96.5 1578,-75.5 1862,-75.5 1862,-96.5"/>
<text text-anchor="middle" x="1720" y="-83.5" font-family="Vera" font-size="10.00">topo.analysis.featureresponses.FeatureCurveCommand</text>
</g>
<!-- topo.analysis.featureresponses.FeatureCurveCommand&#45;&gt;topo.analysis.featureresponses.UnitCurveCommand -->
<g id="edge54" class="edge"><title>topo.analysis.featureresponses.FeatureCurveCommand&#45;&gt;topo.analysis.featureresponses.UnitCurveCommand</title>
<path fill="none" stroke="black" stroke-width="0.5" d="M1862.3,-94.6105C1873.28,-95.2747 1884.35,-95.9447 1895.3,-96.6074"/>
<polygon fill="black" stroke="black" points="1895.23,-98.356 1900.32,-96.9113 1895.44,-94.8624 1895.23,-98.356"/>
</g>
<!-- topo.analysis.featureresponses.FeatureCurveCommand&#45;&gt;topo.command.pylabplot.measure_or_tuning_fullfield -->
<g id="edge28" class="edge"><title>topo.analysis.featureresponses.FeatureCurveCommand&#45;&gt;topo.command.pylabplot.measure_or_tuning_fullfield</title>
<path fill="none" stroke="black" stroke-width="0.5" d="M1862.3,-77.3895C1872.62,-76.7651 1883.02,-76.1355 1893.33,-75.5117"/>
<polygon fill="black" stroke="black" points="1893.5,-77.2548 1898.39,-75.2059 1893.29,-73.7612 1893.5,-77.2548"/>
</g>
<!-- topo.analysis.featureresponses.PatternPresentingCommand&#45;&gt;topo.analysis.featureresponses.MeasureResponseCommand -->
<g id="edge68" class="edge"><title>topo.analysis.featureresponses.PatternPresentingCommand&#45;&gt;topo.analysis.featureresponses.MeasureResponseCommand</title>
<path fill="none" stroke="black" stroke-width="0.5" d="M737.23,-161.968C759.6,-159.187 783.728,-156.082 806,-153 846.482,-147.398 891.718,-140.519 927.893,-134.866"/>
<polygon fill="black" stroke="black" points="928.494,-136.543 933.163,-134.041 927.953,-133.086 928.494,-136.543"/>
</g>
<!-- topo.analysis.featureresponses.SinusoidalMeasureResponseCommand&#45;&gt;topo.analysis.featureresponses.FeatureCurveCommand -->
<g id="edge64" class="edge"><title>topo.analysis.featureresponses.SinusoidalMeasureResponseCommand&#45;&gt;topo.analysis.featureresponses.FeatureCurveCommand</title>
<path fill="none" stroke="black" stroke-width="0.5" d="M1542,-86C1552.21,-86 1562.43,-86 1572.51,-86"/>
<polygon fill="black" stroke="black" points="1572.76,-87.7501 1577.76,-86 1572.76,-84.2501 1572.76,-87.7501"/>
</g>
<!-- topo.command.pylabplot.topographic_grid -->
<g id="node68" class="node"><title>topo.command.pylabplot.topographic_grid</title>
<polygon fill="none" stroke="black" stroke-width="0.5" points="1830,-210.5 1610,-210.5 1610,-189.5 1830,-189.5 1830,-210.5"/>
<text text-anchor="middle" x="1720" y="-197.5" font-family="Vera" font-size="10.00">topo.command.pylabplot.topographic_grid</text>
</g>
<!-- topo.command.pylabplot.xy_grid&#45;&gt;topo.command.pylabplot.topographic_grid -->
<g id="edge66" class="edge"><title>topo.command.pylabplot.xy_grid&#45;&gt;topo.command.pylabplot.topographic_grid</title>
<path fill="none" stroke="black" stroke-width="0.5" d="M1450.63,-200C1496.99,-200 1554.7,-200 1604.8,-200"/>
<polygon fill="black" stroke="black" points="1604.93,-201.75 1609.93,-200 1604.93,-198.25 1604.93,-201.75"/>
</g>
</g>
</svg>
