<?xml version="1.0" encoding="UTF-8" standalone="no"?>
<!DOCTYPE svg PUBLIC "-//W3C//DTD SVG 1.1//EN"
 "http://www.w3.org/Graphics/SVG/1.1/DTD/svg11.dtd">
<!-- Generated by graphviz version 2.26.3 (20100126.1600)
 -->
<!-- Title: inheritance95afd34832 Pages: 1 -->
<svg width="1474pt" height="560pt"
 viewBox="0.00 0.00 1474.00 560.00" xmlns="http://www.w3.org/2000/svg" xmlns:xlink="http://www.w3.org/1999/xlink">
<g id="graph1" class="graph" transform="scale(1 1) rotate(0) translate(4 556)">
<title>inheritance95afd34832</title>
<polygon fill="white" stroke="white" points="-4,5 -4,-556 1471,-556 1471,5 -4,5"/>
<!-- paramtk.ListTranslator -->
<g id="node1" class="node"><title>paramtk.ListTranslator</title>
<polygon fill="none" stroke="black" stroke-width="0.5" points="370,-134.5 248,-134.5 248,-113.5 370,-113.5 370,-134.5"/>
<text text-anchor="middle" x="309" y="-121.5" font-family="Vera" font-size="10.00">paramtk.ListTranslator</text>
</g>
<!-- paramtk.Translator -->
<g id="node2" class="node"><title>paramtk.Translator</title>
<polygon fill="none" stroke="black" stroke-width="0.5" points="141,-77.5 35,-77.5 35,-56.5 141,-56.5 141,-77.5"/>
<text text-anchor="middle" x="88" y="-64.5" font-family="Vera" font-size="10.00">paramtk.Translator</text>
</g>
<!-- paramtk.Translator&#45;&gt;paramtk.ListTranslator -->
<g id="edge2" class="edge"><title>paramtk.Translator&#45;&gt;paramtk.ListTranslator</title>
<path fill="none" stroke="black" stroke-width="0.5" d="M117.572,-77.012C142.543,-85.2365 179.347,-96.8223 212,-105 223.434,-107.864 235.715,-110.558 247.566,-112.969"/>
<polygon fill="black" stroke="black" points="247.368,-114.714 252.615,-113.984 248.058,-111.282 247.368,-114.714"/>
</g>
<!-- paramtk.DoNothingTranslator -->
<g id="node29" class="node"><title>paramtk.DoNothingTranslator</title>
<polygon fill="none" stroke="black" stroke-width="0.5" points="388,-96.5 230,-96.5 230,-75.5 388,-75.5 388,-96.5"/>
<text text-anchor="middle" x="309" y="-83.5" font-family="Vera" font-size="10.00">paramtk.DoNothingTranslator</text>
</g>
<!-- paramtk.Translator&#45;&gt;paramtk.DoNothingTranslator -->
<g id="edge24" class="edge"><title>paramtk.Translator&#45;&gt;paramtk.DoNothingTranslator</title>
<path fill="none" stroke="black" stroke-width="0.5" d="M141.78,-71.6236C166.678,-73.7642 196.847,-76.3579 224.668,-78.7498"/>
<polygon fill="black" stroke="black" points="224.702,-80.5091 229.834,-79.1939 225.002,-77.0219 224.702,-80.5091"/>
</g>
<!-- paramtk.Eval_ReprTranslator -->
<g id="node72" class="node"><title>paramtk.Eval_ReprTranslator</title>
<polygon fill="none" stroke="black" stroke-width="0.5" points="385,-58.5 233,-58.5 233,-37.5 385,-37.5 385,-58.5"/>
<text text-anchor="middle" x="309" y="-45.5" font-family="Vera" font-size="10.00">paramtk.Eval_ReprTranslator</text>
</g>
<!-- paramtk.Translator&#45;&gt;paramtk.Eval_ReprTranslator -->
<g id="edge68" class="edge"><title>paramtk.Translator&#45;&gt;paramtk.Eval_ReprTranslator</title>
<path fill="none" stroke="black" stroke-width="0.5" d="M141.78,-62.3764C167.52,-60.1634 198.894,-57.4662 227.482,-55.0083"/>
<polygon fill="black" stroke="black" points="227.954,-56.7243 232.786,-54.5523 227.654,-53.2371 227.954,-56.7243"/>
</g>
<!-- paramtk.String_ObjectTranslator -->
<g id="node75" class="node"><title>paramtk.String_ObjectTranslator</title>
<polygon fill="none" stroke="black" stroke-width="0.5" points="394,-20.5 224,-20.5 224,0.5 394,0.5 394,-20.5"/>
<text text-anchor="middle" x="309" y="-7.5" font-family="Vera" font-size="10.00">paramtk.String_ObjectTranslator</text>
</g>
<!-- paramtk.Translator&#45;&gt;paramtk.String_ObjectTranslator -->
<g id="edge72" class="edge"><title>paramtk.Translator&#45;&gt;paramtk.String_ObjectTranslator</title>
<path fill="none" stroke="black" stroke-width="0.5" d="M117.572,-56.988C142.543,-48.7635 179.347,-37.1777 212,-29 223.434,-26.1365 235.715,-23.4417 247.566,-21.0314"/>
<polygon fill="black" stroke="black" points="248.058,-22.7176 252.615,-20.0161 247.368,-19.2863 248.058,-22.7176"/>
</g>
<!-- Tkinter.Grid -->
<g id="node4" class="node"><title>Tkinter.Grid</title>
<polygon fill="none" stroke="black" stroke-width="0.5" points="344,-381.5 274,-381.5 274,-360.5 344,-360.5 344,-381.5"/>
<text text-anchor="middle" x="309" y="-368.5" font-family="Vera" font-size="10.00">Tkinter.Grid</text>
</g>
<!-- Tkinter.Widget -->
<g id="node19" class="node"><title>Tkinter.Widget</title>
<polygon fill="none" stroke="black" stroke-width="0.5" points="565,-343.5 483,-343.5 483,-322.5 565,-322.5 565,-343.5"/>
<text text-anchor="middle" x="524" y="-330.5" font-family="Vera" font-size="10.00">Tkinter.Widget</text>
</g>
<!-- Tkinter.Grid&#45;&gt;Tkinter.Widget -->
<g id="edge20" class="edge"><title>Tkinter.Grid&#45;&gt;Tkinter.Widget</title>
<path fill="none" stroke="black" stroke-width="0.5" d="M344.503,-364.725C380.687,-358.33 437.012,-348.375 476.905,-341.324"/>
<polygon fill="black" stroke="black" points="477.556,-342.986 482.175,-340.392 476.947,-339.539 477.556,-342.986"/>
</g>
<!-- paramtk.ProgressWindow -->
<g id="node5" class="node"><title>paramtk.ProgressWindow</title>
<polygon fill="none" stroke="black" stroke-width="0.5" points="971,-514.5 835,-514.5 835,-493.5 971,-493.5 971,-514.5"/>
<text text-anchor="middle" x="903" y="-501.5" font-family="Vera" font-size="10.00">paramtk.ProgressWindow</text>
</g>
<!-- paramtk.ProgressController -->
<g id="node6" class="node"><title>paramtk.ProgressController</title>
<polygon fill="none" stroke="black" stroke-width="0.5" points="791,-514.5 643,-514.5 643,-493.5 791,-493.5 791,-514.5"/>
<text text-anchor="middle" x="717" y="-501.5" font-family="Vera" font-size="10.00">paramtk.ProgressController</text>
</g>
<!-- paramtk.ProgressController&#45;&gt;paramtk.ProgressWindow -->
<g id="edge4" class="edge"><title>paramtk.ProgressController&#45;&gt;paramtk.ProgressWindow</title>
<path fill="none" stroke="black" stroke-width="0.5" d="M791.582,-504C803.962,-504 816.797,-504 829.159,-504"/>
<polygon fill="black" stroke="black" points="829.426,-505.75 834.426,-504 829.426,-502.25 829.426,-505.75"/>
</g>
<!-- Tkinter.Frame -->
<g id="node8" class="node"><title>Tkinter.Frame</title>
<polygon fill="none" stroke="black" stroke-width="0.5" points="757,-362.5 677,-362.5 677,-341.5 757,-341.5 757,-362.5"/>
<text text-anchor="middle" x="717" y="-349.5" font-family="Vera" font-size="10.00">Tkinter.Frame</text>
</g>
<!-- Tkinter.Frame&#45;&gt;paramtk.ProgressWindow -->
<g id="edge6" class="edge"><title>Tkinter.Frame&#45;&gt;paramtk.ProgressWindow</title>
<path fill="none" stroke="black" stroke-width="0.5" d="M757.669,-354.7C769.999,-357.367 782.72,-362.241 792,-371 830.64,-407.47 789.36,-448.53 828,-485 830.5,-487.36 833.25,-489.437 836.175,-491.266"/>
<polygon fill="black" stroke="black" points="835.69,-493.002 840.903,-493.939 837.412,-489.955 835.69,-493.002"/>
</g>
<!-- paramtk.TaggedSlider -->
<g id="node39" class="node"><title>paramtk.TaggedSlider</title>
<polygon fill="none" stroke="black" stroke-width="0.5" points="963,-324.5 843,-324.5 843,-303.5 963,-303.5 963,-324.5"/>
<text text-anchor="middle" x="903" y="-311.5" font-family="Vera" font-size="10.00">paramtk.TaggedSlider</text>
</g>
<!-- Tkinter.Frame&#45;&gt;paramtk.TaggedSlider -->
<g id="edge34" class="edge"><title>Tkinter.Frame&#45;&gt;paramtk.TaggedSlider</title>
<path fill="none" stroke="black" stroke-width="0.5" d="M757.818,-343.661C784.607,-338.188 819.937,-330.97 849.036,-325.025"/>
<polygon fill="black" stroke="black" points="849.473,-326.722 854.021,-324.006 848.772,-323.293 849.473,-326.722"/>
</g>
<!-- paramtk.ParametersFrame -->
<g id="node43" class="node"><title>paramtk.ParametersFrame</title>
<polygon fill="none" stroke="black" stroke-width="0.5" points="976,-248.5 830,-248.5 830,-227.5 976,-227.5 976,-248.5"/>
<text text-anchor="middle" x="903" y="-235.5" font-family="Vera" font-size="10.00">paramtk.ParametersFrame</text>
</g>
<!-- Tkinter.Frame&#45;&gt;paramtk.ParametersFrame -->
<g id="edge78" class="edge"><title>Tkinter.Frame&#45;&gt;paramtk.ParametersFrame</title>
<path fill="none" stroke="black" stroke-width="0.5" d="M757.763,-348.351C769.816,-345.612 782.352,-340.935 792,-333 820.867,-309.259 799.133,-280.741 828,-257 830.996,-254.536 834.27,-252.387 837.721,-250.512"/>
<polygon fill="black" stroke="black" points="838.83,-251.915 842.528,-248.121 837.272,-248.781 838.83,-251.915"/>
</g>
<!-- paramtk.ScrolledFrame -->
<g id="node48" class="node"><title>paramtk.ScrolledFrame</title>
<polygon fill="none" stroke="black" stroke-width="0.5" points="967,-286.5 839,-286.5 839,-265.5 967,-265.5 967,-286.5"/>
<text text-anchor="middle" x="903" y="-273.5" font-family="Vera" font-size="10.00">paramtk.ScrolledFrame</text>
</g>
<!-- Tkinter.Frame&#45;&gt;paramtk.ScrolledFrame -->
<g id="edge40" class="edge"><title>Tkinter.Frame&#45;&gt;paramtk.ScrolledFrame</title>
<path fill="none" stroke="black" stroke-width="0.5" d="M757.554,-346.106C769.205,-343.278 781.571,-339.114 792,-333 812.07,-321.234 807.93,-306.766 828,-295 832.702,-292.243 837.798,-289.883 843.044,-287.863"/>
<polygon fill="black" stroke="black" points="843.795,-289.453 847.898,-286.102 842.601,-286.162 843.795,-289.453"/>
</g>
<!-- paramtk.StatusBar -->
<g id="node59" class="node"><title>paramtk.StatusBar</title>
<polygon fill="none" stroke="black" stroke-width="0.5" points="957,-476.5 849,-476.5 849,-455.5 957,-455.5 957,-476.5"/>
<text text-anchor="middle" x="903" y="-463.5" font-family="Vera" font-size="10.00">paramtk.StatusBar</text>
</g>
<!-- Tkinter.Frame&#45;&gt;paramtk.StatusBar -->
<g id="edge54" class="edge"><title>Tkinter.Frame&#45;&gt;paramtk.StatusBar</title>
<path fill="none" stroke="black" stroke-width="0.5" d="M757.763,-355.649C769.816,-358.388 782.352,-363.065 792,-371 820.867,-394.741 799.133,-423.259 828,-447 832.782,-450.933 838.273,-454.065 844.064,-456.558"/>
<polygon fill="black" stroke="black" points="843.695,-458.294 848.989,-458.505 844.982,-455.04 843.695,-458.294"/>
</g>
<!-- paramtk.ListWidget -->
<g id="node65" class="node"><title>paramtk.ListWidget</title>
<polygon fill="none" stroke="black" stroke-width="0.5" points="957,-438.5 849,-438.5 849,-417.5 957,-417.5 957,-438.5"/>
<text text-anchor="middle" x="903" y="-425.5" font-family="Vera" font-size="10.00">paramtk.ListWidget</text>
</g>
<!-- Tkinter.Frame&#45;&gt;paramtk.ListWidget -->
<g id="edge60" class="edge"><title>Tkinter.Frame&#45;&gt;paramtk.ListWidget</title>
<path fill="none" stroke="black" stroke-width="0.5" d="M757.554,-357.894C769.205,-360.722 781.571,-364.886 792,-371 812.07,-382.766 807.93,-397.234 828,-409 832.791,-411.809 837.99,-414.206 843.341,-416.251"/>
<polygon fill="black" stroke="black" points="842.994,-417.986 848.291,-418.032 844.179,-414.692 842.994,-417.986"/>
</g>
<!-- paramtk.ListItemCtrlWidget -->
<g id="node68" class="node"><title>paramtk.ListItemCtrlWidget</title>
<polygon fill="none" stroke="black" stroke-width="0.5" points="976,-400.5 830,-400.5 830,-379.5 976,-379.5 976,-400.5"/>
<text text-anchor="middle" x="903" y="-387.5" font-family="Vera" font-size="10.00">paramtk.ListItemCtrlWidget</text>
</g>
<!-- Tkinter.Frame&#45;&gt;paramtk.ListItemCtrlWidget -->
<g id="edge64" class="edge"><title>Tkinter.Frame&#45;&gt;paramtk.ListItemCtrlWidget</title>
<path fill="none" stroke="black" stroke-width="0.5" d="M757.818,-360.339C784.607,-365.812 819.937,-373.03 849.036,-378.975"/>
<polygon fill="black" stroke="black" points="848.772,-380.707 854.021,-379.994 849.473,-377.278 848.772,-380.707"/>
</g>
<!-- paramtk.HackFileEntry -->
<g id="node70" class="node"><title>paramtk.HackFileEntry</title>
<polygon fill="none" stroke="black" stroke-width="0.5" points="965,-362.5 841,-362.5 841,-341.5 965,-341.5 965,-362.5"/>
<text text-anchor="middle" x="903" y="-349.5" font-family="Vera" font-size="10.00">paramtk.HackFileEntry</text>
</g>
<!-- Tkinter.Frame&#45;&gt;paramtk.HackFileEntry -->
<g id="edge66" class="edge"><title>Tkinter.Frame&#45;&gt;paramtk.HackFileEntry</title>
<path fill="none" stroke="black" stroke-width="0.5" d="M757.818,-352C780.576,-352 809.498,-352 835.527,-352"/>
<polygon fill="black" stroke="black" points="835.692,-353.75 840.692,-352 835.692,-350.25 835.692,-353.75"/>
</g>
<!-- Tkinter.BaseWidget -->
<g id="node10" class="node"><title>Tkinter.BaseWidget</title>
<polygon fill="none" stroke="black" stroke-width="0.5" points="362,-210.5 256,-210.5 256,-189.5 362,-189.5 362,-210.5"/>
<text text-anchor="middle" x="309" y="-197.5" font-family="Vera" font-size="10.00">Tkinter.BaseWidget</text>
</g>
<!-- Tkinter.BaseWidget&#45;&gt;Tkinter.Widget -->
<g id="edge14" class="edge"><title>Tkinter.BaseWidget&#45;&gt;Tkinter.Widget</title>
<path fill="none" stroke="black" stroke-width="0.5" d="M362.58,-201.558C377.852,-204.243 393.672,-209.414 406,-219 435.505,-241.943 415.46,-268.683 442,-295 453.712,-306.613 469.631,-315.096 484.328,-321.062"/>
<polygon fill="black" stroke="black" points="483.963,-322.798 489.257,-322.989 485.238,-319.539 483.963,-322.798"/>
</g>
<!-- Tkinter.Toplevel -->
<g id="node32" class="node"><title>Tkinter.Toplevel</title>
<polygon fill="none" stroke="black" stroke-width="0.5" points="568,-172.5 480,-172.5 480,-151.5 568,-151.5 568,-172.5"/>
<text text-anchor="middle" x="524" y="-159.5" font-family="Vera" font-size="10.00">Tkinter.Toplevel</text>
</g>
<!-- Tkinter.BaseWidget&#45;&gt;Tkinter.Toplevel -->
<g id="edge28" class="edge"><title>Tkinter.BaseWidget&#45;&gt;Tkinter.Toplevel</title>
<path fill="none" stroke="black" stroke-width="0.5" d="M362.699,-190.509C396.819,-184.479 440.681,-176.726 474.052,-170.828"/>
<polygon fill="black" stroke="black" points="474.695,-172.492 479.314,-169.898 474.086,-169.045 474.695,-172.492"/>
</g>
<!-- Tkinter.Misc -->
<g id="node11" class="node"><title>Tkinter.Misc</title>
<polygon fill="none" stroke="black" stroke-width="0.5" points="124,-210.5 52,-210.5 52,-189.5 124,-189.5 124,-210.5"/>
<text text-anchor="middle" x="88" y="-197.5" font-family="Vera" font-size="10.00">Tkinter.Misc</text>
</g>
<!-- Tkinter.Misc&#45;&gt;Tkinter.BaseWidget -->
<g id="edge8" class="edge"><title>Tkinter.Misc&#45;&gt;Tkinter.BaseWidget</title>
<path fill="none" stroke="black" stroke-width="0.5" d="M124.494,-200C158.637,-200 210.226,-200 250.18,-200"/>
<polygon fill="black" stroke="black" points="250.489,-201.75 255.489,-200 250.489,-198.25 250.489,-201.75"/>
</g>
<!-- paramtk.TkParameterizedBase -->
<g id="node13" class="node"><title>paramtk.TkParameterizedBase</title>
<polygon fill="none" stroke="black" stroke-width="0.5" points="606,-248.5 442,-248.5 442,-227.5 606,-227.5 606,-248.5"/>
<text text-anchor="middle" x="524" y="-235.5" font-family="Vera" font-size="10.00">paramtk.TkParameterizedBase</text>
</g>
<!-- paramtk.TkParameterized -->
<g id="node78" class="node"><title>paramtk.TkParameterized</title>
<polygon fill="none" stroke="black" stroke-width="0.5" points="787,-248.5 647,-248.5 647,-227.5 787,-227.5 787,-248.5"/>
<text text-anchor="middle" x="717" y="-235.5" font-family="Vera" font-size="10.00">paramtk.TkParameterized</text>
</g>
<!-- paramtk.TkParameterizedBase&#45;&gt;paramtk.TkParameterized -->
<g id="edge74" class="edge"><title>paramtk.TkParameterizedBase&#45;&gt;paramtk.TkParameterized</title>
<path fill="none" stroke="black" stroke-width="0.5" d="M606.129,-238C617.873,-238 629.908,-238 641.516,-238"/>
<polygon fill="black" stroke="black" points="641.817,-239.75 646.817,-238 641.817,-236.25 641.817,-239.75"/>
</g>
<!-- param.parameterized.Parameterized -->
<g id="node14" class="node"><title>param.parameterized.Parameterized</title>
<polygon fill="none" stroke="black" stroke-width="0.5" points="406,-248.5 212,-248.5 212,-227.5 406,-227.5 406,-248.5"/>
<text text-anchor="middle" x="309" y="-235.5" font-family="Vera" font-size="10.00">param.parameterized.Parameterized</text>
</g>
<!-- param.parameterized.Parameterized&#45;&gt;paramtk.TkParameterizedBase -->
<g id="edge10" class="edge"><title>param.parameterized.Parameterized&#45;&gt;paramtk.TkParameterizedBase</title>
<path fill="none" stroke="black" stroke-width="0.5" d="M406.121,-238C416.261,-238 426.525,-238 436.548,-238"/>
<polygon fill="black" stroke="black" points="436.766,-239.75 441.766,-238 436.766,-236.25 436.766,-239.75"/>
</g>
<!-- paramtk.Representer -->
<g id="node27" class="node"><title>paramtk.Representer</title>
<polygon fill="none" stroke="black" stroke-width="0.5" points="583,-210.5 465,-210.5 465,-189.5 583,-189.5 583,-210.5"/>
<text text-anchor="middle" x="524" y="-197.5" font-family="Vera" font-size="10.00">paramtk.Representer</text>
</g>
<!-- param.parameterized.Parameterized&#45;&gt;paramtk.Representer -->
<g id="edge48" class="edge"><title>param.parameterized.Parameterized&#45;&gt;paramtk.Representer</title>
<path fill="none" stroke="black" stroke-width="0.5" d="M365.77,-227.966C395.407,-222.728 431.719,-216.31 462.078,-210.944"/>
<polygon fill="black" stroke="black" points="462.666,-212.618 467.285,-210.024 462.057,-209.171 462.666,-212.618"/>
</g>
<!-- paramtk.Menu -->
<g id="node16" class="node"><title>paramtk.Menu</title>
<polygon fill="none" stroke="black" stroke-width="0.5" points="946,-210.5 860,-210.5 860,-189.5 946,-189.5 946,-210.5"/>
<text text-anchor="middle" x="903" y="-197.5" font-family="Vera" font-size="10.00">paramtk.Menu</text>
</g>
<!-- Tkinter.Menu -->
<g id="node17" class="node"><title>Tkinter.Menu</title>
<polygon fill="none" stroke="black" stroke-width="0.5" points="755,-324.5 679,-324.5 679,-303.5 755,-303.5 755,-324.5"/>
<text text-anchor="middle" x="717" y="-311.5" font-family="Vera" font-size="10.00">Tkinter.Menu</text>
</g>
<!-- Tkinter.Menu&#45;&gt;paramtk.Menu -->
<g id="edge12" class="edge"><title>Tkinter.Menu&#45;&gt;paramtk.Menu</title>
<path fill="none" stroke="black" stroke-width="0.5" d="M755.824,-310.776C768.459,-308.106 781.833,-303.361 792,-295 820.867,-271.259 799.133,-242.741 828,-219 835.686,-212.679 845.205,-208.425 854.852,-205.572"/>
<polygon fill="black" stroke="black" points="855.531,-207.201 859.899,-204.203 854.615,-203.823 855.531,-207.201"/>
</g>
<!-- Tkinter.Widget&#45;&gt;Tkinter.Frame -->
<g id="edge50" class="edge"><title>Tkinter.Widget&#45;&gt;Tkinter.Frame</title>
<path fill="none" stroke="black" stroke-width="0.5" d="M565.878,-337.123C596.922,-340.179 639.212,-344.342 671.161,-347.487"/>
<polygon fill="black" stroke="black" points="671.049,-349.235 676.197,-347.983 671.392,-345.752 671.049,-349.235"/>
</g>
<!-- Tkinter.Widget&#45;&gt;Tkinter.Menu -->
<g id="edge58" class="edge"><title>Tkinter.Widget&#45;&gt;Tkinter.Menu</title>
<path fill="none" stroke="black" stroke-width="0.5" d="M565.878,-328.877C597.659,-325.749 641.226,-321.46 673.418,-318.29"/>
<polygon fill="black" stroke="black" points="673.679,-320.023 678.483,-317.792 673.336,-316.54 673.679,-320.023"/>
</g>
<!-- Tkinter.Button -->
<g id="node46" class="node"><title>Tkinter.Button</title>
<polygon fill="none" stroke="black" stroke-width="0.5" points="758,-552.5 676,-552.5 676,-531.5 758,-531.5 758,-552.5"/>
<text text-anchor="middle" x="717" y="-539.5" font-family="Vera" font-size="10.00">Tkinter.Button</text>
</g>
<!-- Tkinter.Widget&#45;&gt;Tkinter.Button -->
<g id="edge62" class="edge"><title>Tkinter.Widget&#45;&gt;Tkinter.Button</title>
<path fill="none" stroke="black" stroke-width="0.5" d="M546.457,-343.101C565.101,-352.614 590.92,-368.6 606,-390 641.274,-440.058 598.348,-480.051 642,-523 649.652,-530.529 659.837,-535.209 670.226,-538.085"/>
<polygon fill="black" stroke="black" points="670.058,-539.846 675.332,-539.356 670.903,-536.45 670.058,-539.846"/>
</g>
<!-- paramtk.Scrodget -->
<g id="node52" class="node"><title>paramtk.Scrodget</title>
<polygon fill="none" stroke="black" stroke-width="0.5" points="769,-286.5 665,-286.5 665,-265.5 769,-265.5 769,-286.5"/>
<text text-anchor="middle" x="717" y="-273.5" font-family="Vera" font-size="10.00">paramtk.Scrodget</text>
</g>
<!-- Tkinter.Widget&#45;&gt;paramtk.Scrodget -->
<g id="edge46" class="edge"><title>Tkinter.Widget&#45;&gt;paramtk.Scrodget</title>
<path fill="none" stroke="black" stroke-width="0.5" d="M553.422,-322.952C577.199,-314.971 611.593,-303.738 642,-295 651.125,-292.378 660.928,-289.755 670.339,-287.332"/>
<polygon fill="black" stroke="black" points="670.809,-289.019 675.219,-286.085 669.942,-285.628 670.809,-289.019"/>
</g>
<!-- paramtk.Balloon -->
<g id="node82" class="node"><title>paramtk.Balloon</title>
<polygon fill="none" stroke="black" stroke-width="0.5" points="764,-400.5 670,-400.5 670,-379.5 764,-379.5 764,-400.5"/>
<text text-anchor="middle" x="717" y="-387.5" font-family="Vera" font-size="10.00">paramtk.Balloon</text>
</g>
<!-- Tkinter.Widget&#45;&gt;paramtk.Balloon -->
<g id="edge80" class="edge"><title>Tkinter.Widget&#45;&gt;paramtk.Balloon</title>
<path fill="none" stroke="black" stroke-width="0.5" d="M553.422,-343.048C577.199,-351.029 611.593,-362.262 642,-371 651.125,-373.622 660.928,-376.245 670.339,-378.668"/>
<polygon fill="black" stroke="black" points="669.942,-380.372 675.219,-379.915 670.809,-376.981 669.942,-380.372"/>
</g>
<!-- Tkinter.Pack -->
<g id="node21" class="node"><title>Tkinter.Pack</title>
<polygon fill="none" stroke="black" stroke-width="0.5" points="345,-343.5 273,-343.5 273,-322.5 345,-322.5 345,-343.5"/>
<text text-anchor="middle" x="309" y="-330.5" font-family="Vera" font-size="10.00">Tkinter.Pack</text>
</g>
<!-- Tkinter.Pack&#45;&gt;Tkinter.Widget -->
<g id="edge16" class="edge"><title>Tkinter.Pack&#45;&gt;Tkinter.Widget</title>
<path fill="none" stroke="black" stroke-width="0.5" d="M345.96,-333C382.269,-333 437.801,-333 477.179,-333"/>
<polygon fill="black" stroke="black" points="477.383,-334.75 482.383,-333 477.383,-331.25 477.383,-334.75"/>
</g>
<!-- Tkinter.Place -->
<g id="node23" class="node"><title>Tkinter.Place</title>
<polygon fill="none" stroke="black" stroke-width="0.5" points="347,-305.5 271,-305.5 271,-284.5 347,-284.5 347,-305.5"/>
<text text-anchor="middle" x="309" y="-292.5" font-family="Vera" font-size="10.00">Tkinter.Place</text>
</g>
<!-- Tkinter.Place&#45;&gt;Tkinter.Widget -->
<g id="edge18" class="edge"><title>Tkinter.Place&#45;&gt;Tkinter.Widget</title>
<path fill="none" stroke="black" stroke-width="0.5" d="M347.935,-301.882C384.299,-308.309 438.629,-317.911 477.308,-324.748"/>
<polygon fill="black" stroke="black" points="477.192,-326.504 482.42,-325.651 477.801,-323.057 477.192,-326.504"/>
</g>
<!-- paramtk.ListRepresenter -->
<g id="node26" class="node"><title>paramtk.ListRepresenter</title>
<polygon fill="none" stroke="black" stroke-width="0.5" points="784,-210.5 650,-210.5 650,-189.5 784,-189.5 784,-210.5"/>
<text text-anchor="middle" x="717" y="-197.5" font-family="Vera" font-size="10.00">paramtk.ListRepresenter</text>
</g>
<!-- paramtk.Representer&#45;&gt;paramtk.ListRepresenter -->
<g id="edge22" class="edge"><title>paramtk.Representer&#45;&gt;paramtk.ListRepresenter</title>
<path fill="none" stroke="black" stroke-width="0.5" d="M583.218,-200C602.627,-200 624.413,-200 644.678,-200"/>
<polygon fill="black" stroke="black" points="644.795,-201.75 649.795,-200 644.795,-198.25 644.795,-201.75"/>
</g>
<!-- paramtk.BoolTranslator -->
<g id="node37" class="node"><title>paramtk.BoolTranslator</title>
<polygon fill="none" stroke="black" stroke-width="0.5" points="588,-96.5 460,-96.5 460,-75.5 588,-75.5 588,-96.5"/>
<text text-anchor="middle" x="524" y="-83.5" font-family="Vera" font-size="10.00">paramtk.BoolTranslator</text>
</g>
<!-- paramtk.DoNothingTranslator&#45;&gt;paramtk.BoolTranslator -->
<g id="edge32" class="edge"><title>paramtk.DoNothingTranslator&#45;&gt;paramtk.BoolTranslator</title>
<path fill="none" stroke="black" stroke-width="0.5" d="M388.142,-86C409.979,-86 433.497,-86 454.728,-86"/>
<polygon fill="black" stroke="black" points="454.788,-87.7501 459.788,-86 454.788,-84.2501 454.788,-87.7501"/>
</g>
<!-- paramtk.ToolTip -->
<g id="node31" class="node"><title>paramtk.ToolTip</title>
<polygon fill="none" stroke="black" stroke-width="0.5" points="763,-172.5 671,-172.5 671,-151.5 763,-151.5 763,-172.5"/>
<text text-anchor="middle" x="717" y="-159.5" font-family="Vera" font-size="10.00">paramtk.ToolTip</text>
</g>
<!-- Tkinter.Toplevel&#45;&gt;paramtk.ToolTip -->
<g id="edge26" class="edge"><title>Tkinter.Toplevel&#45;&gt;paramtk.ToolTip</title>
<path fill="none" stroke="black" stroke-width="0.5" d="M568.763,-162C597.711,-162 635.478,-162 665.646,-162"/>
<polygon fill="black" stroke="black" points="665.802,-163.75 670.802,-162 665.802,-160.25 665.802,-163.75"/>
</g>
<!-- paramtk.ScrolledWindow -->
<g id="node50" class="node"><title>paramtk.ScrolledWindow</title>
<polygon fill="none" stroke="black" stroke-width="0.5" points="784,-134.5 650,-134.5 650,-113.5 784,-113.5 784,-134.5"/>
<text text-anchor="middle" x="717" y="-121.5" font-family="Vera" font-size="10.00">paramtk.ScrolledWindow</text>
</g>
<!-- Tkinter.Toplevel&#45;&gt;paramtk.ScrolledWindow -->
<g id="edge42" class="edge"><title>Tkinter.Toplevel&#45;&gt;paramtk.ScrolledWindow</title>
<path fill="none" stroke="black" stroke-width="0.5" d="M568.763,-153.187C596.238,-147.777 631.656,-140.804 660.982,-135.03"/>
<polygon fill="black" stroke="black" points="661.44,-136.723 666.007,-134.04 660.764,-133.289 661.44,-136.723"/>
</g>
<!-- Tkinter.Wm -->
<g id="node35" class="node"><title>Tkinter.Wm</title>
<polygon fill="none" stroke="black" stroke-width="0.5" points="343,-172.5 275,-172.5 275,-151.5 343,-151.5 343,-172.5"/>
<text text-anchor="middle" x="309" y="-159.5" font-family="Vera" font-size="10.00">Tkinter.Wm</text>
</g>
<!-- Tkinter.Wm&#45;&gt;Tkinter.Toplevel -->
<g id="edge30" class="edge"><title>Tkinter.Wm&#45;&gt;Tkinter.Toplevel</title>
<path fill="none" stroke="black" stroke-width="0.5" d="M343.543,-162C378.874,-162 434.11,-162 474.169,-162"/>
<polygon fill="black" stroke="black" points="474.47,-163.75 479.47,-162 474.47,-160.25 474.47,-163.75"/>
</g>
<!-- paramtk.ScrodgetWidget -->
<g id="node41" class="node"><title>paramtk.ScrodgetWidget</title>
<polygon fill="none" stroke="black" stroke-width="0.5" points="592,-286.5 456,-286.5 456,-265.5 592,-265.5 592,-286.5"/>
<text text-anchor="middle" x="524" y="-273.5" font-family="Vera" font-size="10.00">paramtk.ScrodgetWidget</text>
</g>
<!-- paramtk.ScrodgetWidget&#45;&gt;paramtk.Scrodget -->
<g id="edge44" class="edge"><title>paramtk.ScrodgetWidget&#45;&gt;paramtk.Scrodget</title>
<path fill="none" stroke="black" stroke-width="0.5" d="M592.045,-276C614.148,-276 638.44,-276 659.681,-276"/>
<polygon fill="black" stroke="black" points="659.728,-277.75 664.728,-276 659.728,-274.25 659.728,-277.75"/>
</g>
<!-- paramtk.ParametersFrameWithApply -->
<g id="node42" class="node"><title>paramtk.ParametersFrameWithApply</title>
<polygon fill="none" stroke="black" stroke-width="0.5" points="1206,-248.5 1014,-248.5 1014,-227.5 1206,-227.5 1206,-248.5"/>
<text text-anchor="middle" x="1110" y="-235.5" font-family="Vera" font-size="10.00">paramtk.ParametersFrameWithApply</text>
</g>
<!-- paramtk.EditingParametersFrameWithApply -->
<g id="node57" class="node"><title>paramtk.EditingParametersFrameWithApply</title>
<polygon fill="none" stroke="black" stroke-width="0.5" points="1466,-248.5 1242,-248.5 1242,-227.5 1466,-227.5 1466,-248.5"/>
<text text-anchor="middle" x="1354" y="-235.5" font-family="Vera" font-size="10.00">paramtk.EditingParametersFrameWithApply</text>
</g>
<!-- paramtk.ParametersFrameWithApply&#45;&gt;paramtk.EditingParametersFrameWithApply -->
<g id="edge52" class="edge"><title>paramtk.ParametersFrameWithApply&#45;&gt;paramtk.EditingParametersFrameWithApply</title>
<path fill="none" stroke="black" stroke-width="0.5" d="M1206.09,-238C1216.17,-238 1226.5,-238 1236.79,-238"/>
<polygon fill="black" stroke="black" points="1236.84,-239.75 1241.84,-238 1236.84,-236.25 1236.84,-239.75"/>
</g>
<!-- paramtk.ParametersFrame&#45;&gt;paramtk.ParametersFrameWithApply -->
<g id="edge36" class="edge"><title>paramtk.ParametersFrame&#45;&gt;paramtk.ParametersFrameWithApply</title>
<path fill="none" stroke="black" stroke-width="0.5" d="M976.272,-238C986.862,-238 997.915,-238 1008.93,-238"/>
<polygon fill="black" stroke="black" points="1008.99,-239.75 1013.99,-238 1008.99,-236.25 1008.99,-239.75"/>
</g>
<!-- paramtk.FocusTakingButton -->
<g id="node45" class="node"><title>paramtk.FocusTakingButton</title>
<polygon fill="none" stroke="black" stroke-width="0.5" points="977,-552.5 829,-552.5 829,-531.5 977,-531.5 977,-552.5"/>
<text text-anchor="middle" x="903" y="-539.5" font-family="Vera" font-size="10.00">paramtk.FocusTakingButton</text>
</g>
<!-- Tkinter.Button&#45;&gt;paramtk.FocusTakingButton -->
<g id="edge38" class="edge"><title>Tkinter.Button&#45;&gt;paramtk.FocusTakingButton</title>
<path fill="none" stroke="black" stroke-width="0.5" d="M758.742,-542C777.861,-542 801.182,-542 823.453,-542"/>
<polygon fill="black" stroke="black" points="823.485,-543.75 828.485,-542 823.485,-540.25 823.485,-543.75"/>
</g>
<!-- paramtk.AppWindow -->
<g id="node61" class="node"><title>paramtk.AppWindow</title>
<polygon fill="none" stroke="black" stroke-width="0.5" points="960,-134.5 846,-134.5 846,-113.5 960,-113.5 960,-134.5"/>
<text text-anchor="middle" x="903" y="-121.5" font-family="Vera" font-size="10.00">paramtk.AppWindow</text>
</g>
<!-- paramtk.ScrolledWindow&#45;&gt;paramtk.AppWindow -->
<g id="edge56" class="edge"><title>paramtk.ScrolledWindow&#45;&gt;paramtk.AppWindow</title>
<path fill="none" stroke="black" stroke-width="0.5" d="M784.15,-124C802.603,-124 822.53,-124 840.697,-124"/>
<polygon fill="black" stroke="black" points="840.771,-125.75 845.771,-124 840.771,-122.25 840.771,-125.75"/>
</g>
<!-- param.parameterized.Parameter -->
<g id="node63" class="node"><title>param.parameterized.Parameter</title>
<polygon fill="none" stroke="black" stroke-width="0.5" points="175,-419.5 1,-419.5 1,-398.5 175,-398.5 175,-419.5"/>
<text text-anchor="middle" x="88" y="-406.5" font-family="Vera" font-size="10.00">param.parameterized.Parameter</text>
</g>
<!-- param.Callable -->
<g id="node84" class="node"><title>param.Callable</title>
<polygon fill="none" stroke="black" stroke-width="0.5" points="353,-419.5 265,-419.5 265,-398.5 353,-398.5 353,-419.5"/>
<text text-anchor="middle" x="309" y="-406.5" font-family="Vera" font-size="10.00">param.Callable</text>
</g>
<!-- param.parameterized.Parameter&#45;&gt;param.Callable -->
<g id="edge82" class="edge"><title>param.parameterized.Parameter&#45;&gt;param.Callable</title>
<path fill="none" stroke="black" stroke-width="0.5" d="M175.662,-409C204.015,-409 234.464,-409 259.097,-409"/>
<polygon fill="black" stroke="black" points="259.263,-410.75 264.263,-409 259.263,-407.25 259.263,-410.75"/>
</g>
<!-- paramtk.CSPTranslator -->
<g id="node74" class="node"><title>paramtk.CSPTranslator</title>
<polygon fill="none" stroke="black" stroke-width="0.5" points="587,-20.5 461,-20.5 461,0.5 587,0.5 587,-20.5"/>
<text text-anchor="middle" x="524" y="-7.5" font-family="Vera" font-size="10.00">paramtk.CSPTranslator</text>
</g>
<!-- paramtk.String_ObjectTranslator&#45;&gt;paramtk.CSPTranslator -->
<g id="edge70" class="edge"><title>paramtk.String_ObjectTranslator&#45;&gt;paramtk.CSPTranslator</title>
<path fill="none" stroke="black" stroke-width="0.5" d="M394.591,-10C414.822,-10 436.133,-10 455.493,-10"/>
<polygon fill="black" stroke="black" points="455.899,-11.7501 460.899,-10 455.899,-8.25009 455.899,-11.7501"/>
</g>
<!-- paramtk.TkParameterized&#45;&gt;paramtk.ParametersFrame -->
<g id="edge76" class="edge"><title>paramtk.TkParameterized&#45;&gt;paramtk.ParametersFrame</title>
<path fill="none" stroke="black" stroke-width="0.5" d="M787.054,-238C799.308,-238 812.13,-238 824.593,-238"/>
<polygon fill="black" stroke="black" points="824.909,-239.75 829.909,-238 824.909,-236.25 824.909,-239.75"/>
</g>
<!-- paramtk.Button -->
<g id="node86" class="node"><title>paramtk.Button</title>
<polygon fill="none" stroke="black" stroke-width="0.5" points="570,-419.5 478,-419.5 478,-398.5 570,-398.5 570,-419.5"/>
<text text-anchor="middle" x="524" y="-406.5" font-family="Vera" font-size="10.00">paramtk.Button</text>
</g>
<!-- param.Callable&#45;&gt;paramtk.Button -->
<g id="edge84" class="edge"><title>param.Callable&#45;&gt;paramtk.Button</title>
<path fill="none" stroke="black" stroke-width="0.5" d="M353.548,-409C388.132,-409 436.136,-409 472.391,-409"/>
<polygon fill="black" stroke="black" points="472.652,-410.75 477.652,-409 472.652,-407.25 472.652,-410.75"/>
</g>
</g>
</svg>
