<?xml version="1.0" encoding="UTF-8" standalone="no"?>
<!DOCTYPE svg PUBLIC "-//W3C//DTD SVG 1.1//EN"
 "http://www.w3.org/Graphics/SVG/1.1/DTD/svg11.dtd">
<!-- Generated by graphviz version 2.26.3 (20100126.1600)
 -->
<!-- Title: inheritance0f827376bc Pages: 1 -->
<svg width="2194pt" height="284pt"
 viewBox="0.00 0.00 2194.00 284.00" xmlns="http://www.w3.org/2000/svg" xmlns:xlink="http://www.w3.org/1999/xlink">
<g id="graph1" class="graph" transform="scale(1 1) rotate(0) translate(4 280)">
<title>inheritance0f827376bc</title>
<polygon fill="white" stroke="white" points="-4,5 -4,-280 2191,-280 2191,5 -4,5"/>
<!-- topo.analysis.featureresponses.SinusoidalMeasureResponseCommand -->
<g id="node1" class="node"><title>topo.analysis.featureresponses.SinusoidalMeasureResponseCommand</title>
<polygon fill="none" stroke="black" stroke-width="0.5" points="1562,-210.5 1206,-210.5 1206,-189.5 1562,-189.5 1562,-210.5"/>
<text text-anchor="middle" x="1384" y="-197.5" font-family="Vera" font-size="10.00">topo.analysis.featureresponses.SinusoidalMeasureResponseCommand</text>
</g>
<!-- topo.analysis.featureresponses.FeatureCurveCommand -->
<g id="node10" class="node"><title>topo.analysis.featureresponses.FeatureCurveCommand</title>
<polygon fill="none" stroke="black" stroke-width="0.5" points="1882,-210.5 1598,-210.5 1598,-189.5 1882,-189.5 1882,-210.5"/>
<text text-anchor="middle" x="1740" y="-197.5" font-family="Vera" font-size="10.00">topo.analysis.featureresponses.FeatureCurveCommand</text>
</g>
<!-- topo.analysis.featureresponses.SinusoidalMeasureResponseCommand&#45;&gt;topo.analysis.featureresponses.FeatureCurveCommand -->
<g id="edge20" class="edge"><title>topo.analysis.featureresponses.SinusoidalMeasureResponseCommand&#45;&gt;topo.analysis.featureresponses.FeatureCurveCommand</title>
<path fill="none" stroke="black" stroke-width="0.5" d="M1562,-200C1572.21,-200 1582.43,-200 1592.51,-200"/>
<polygon fill="black" stroke="black" points="1592.76,-201.75 1597.76,-200 1592.76,-198.25 1592.76,-201.75"/>
</g>
<!-- topo.analysis.featureresponses.MeasureResponseCommand -->
<g id="node2" class="node"><title>topo.analysis.featureresponses.MeasureResponseCommand</title>
<polygon fill="none" stroke="black" stroke-width="0.5" points="1169,-172.5 863,-172.5 863,-151.5 1169,-151.5 1169,-172.5"/>
<text text-anchor="middle" x="1016" y="-159.5" font-family="Vera" font-size="10.00">topo.analysis.featureresponses.MeasureResponseCommand</text>
</g>
<!-- topo.analysis.featureresponses.MeasureResponseCommand&#45;&gt;topo.analysis.featureresponses.SinusoidalMeasureResponseCommand -->
<g id="edge2" class="edge"><title>topo.analysis.featureresponses.MeasureResponseCommand&#45;&gt;topo.analysis.featureresponses.SinusoidalMeasureResponseCommand</title>
<path fill="none" stroke="black" stroke-width="0.5" d="M1113.17,-172.034C1165.15,-177.402 1229.14,-184.009 1281.86,-189.453"/>
<polygon fill="black" stroke="black" points="1281.77,-191.203 1286.93,-189.976 1282.13,-187.722 1281.77,-191.203"/>
</g>
<!-- topo.analysis.featureresponses.PositionMeasurementCommand -->
<g id="node4" class="node"><title>topo.analysis.featureresponses.PositionMeasurementCommand</title>
<polygon fill="none" stroke="black" stroke-width="0.5" points="1546,-172.5 1222,-172.5 1222,-151.5 1546,-151.5 1546,-172.5"/>
<text text-anchor="middle" x="1384" y="-159.5" font-family="Vera" font-size="10.00">topo.analysis.featureresponses.PositionMeasurementCommand</text>
</g>
<!-- topo.analysis.featureresponses.MeasureResponseCommand&#45;&gt;topo.analysis.featureresponses.PositionMeasurementCommand -->
<g id="edge4" class="edge"><title>topo.analysis.featureresponses.MeasureResponseCommand&#45;&gt;topo.analysis.featureresponses.PositionMeasurementCommand</title>
<path fill="none" stroke="black" stroke-width="0.5" d="M1169.67,-162C1185.16,-162 1200.95,-162 1216.58,-162"/>
<polygon fill="black" stroke="black" points="1216.87,-163.75 1221.87,-162 1216.87,-160.25 1216.87,-163.75"/>
</g>
<!-- topo.analysis.featureresponses.SingleInputResponseCommand -->
<g id="node14" class="node"><title>topo.analysis.featureresponses.SingleInputResponseCommand</title>
<polygon fill="none" stroke="black" stroke-width="0.5" points="1543,-134.5 1225,-134.5 1225,-113.5 1543,-113.5 1543,-134.5"/>
<text text-anchor="middle" x="1384" y="-121.5" font-family="Vera" font-size="10.00">topo.analysis.featureresponses.SingleInputResponseCommand</text>
</g>
<!-- topo.analysis.featureresponses.MeasureResponseCommand&#45;&gt;topo.analysis.featureresponses.SingleInputResponseCommand -->
<g id="edge12" class="edge"><title>topo.analysis.featureresponses.MeasureResponseCommand&#45;&gt;topo.analysis.featureresponses.SingleInputResponseCommand</title>
<path fill="none" stroke="black" stroke-width="0.5" d="M1113.17,-151.966C1165.15,-146.598 1229.14,-139.991 1281.86,-134.547"/>
<polygon fill="black" stroke="black" points="1282.13,-136.278 1286.93,-134.024 1281.77,-132.797 1282.13,-136.278"/>
</g>
<!-- topo.analysis.featureresponses.Subplotting -->
<g id="node6" class="node"><title>topo.analysis.featureresponses.Subplotting</title>
<polygon fill="none" stroke="black" stroke-width="0.5" points="469,-276.5 245,-276.5 245,-255.5 469,-255.5 469,-276.5"/>
<text text-anchor="middle" x="357" y="-263.5" font-family="Vera" font-size="10.00">topo.analysis.featureresponses.Subplotting</text>
</g>
<!-- param.parameterized.Parameterized -->
<g id="node7" class="node"><title>param.parameterized.Parameterized</title>
<polygon fill="none" stroke="black" stroke-width="0.5" points="194,-162.5 5.68434e-14,-162.5 0,-141.5 194,-141.5 194,-162.5"/>
<text text-anchor="middle" x="97" y="-149.5" font-family="Vera" font-size="10.00">param.parameterized.Parameterized</text>
</g>
<!-- param.parameterized.Parameterized&#45;&gt;topo.analysis.featureresponses.Subplotting -->
<g id="edge6" class="edge"><title>param.parameterized.Parameterized&#45;&gt;topo.analysis.featureresponses.Subplotting</title>
<path fill="none" stroke="black" stroke-width="0.5" d="M107.318,-162.077C128.386,-181.991 178.705,-226.251 230,-247 237.445,-250.012 245.31,-252.552 253.328,-254.694"/>
<polygon fill="black" stroke="black" points="253.06,-256.431 258.338,-255.976 253.929,-253.041 253.06,-256.431"/>
</g>
<!-- topo.analysis.featureresponses.FullMatrix -->
<g id="node12" class="node"><title>topo.analysis.featureresponses.FullMatrix</title>
<polygon fill="none" stroke="black" stroke-width="0.5" points="464,-238.5 250,-238.5 250,-217.5 464,-217.5 464,-238.5"/>
<text text-anchor="middle" x="357" y="-225.5" font-family="Vera" font-size="10.00">topo.analysis.featureresponses.FullMatrix</text>
</g>
<!-- param.parameterized.Parameterized&#45;&gt;topo.analysis.featureresponses.FullMatrix -->
<g id="edge10" class="edge"><title>param.parameterized.Parameterized&#45;&gt;topo.analysis.featureresponses.FullMatrix</title>
<path fill="none" stroke="black" stroke-width="0.5" d="M116.253,-162.123C141.62,-175.018 187.951,-197.059 230,-209 241.071,-212.144 252.842,-214.793 264.58,-217.018"/>
<polygon fill="black" stroke="black" points="264.372,-218.759 269.607,-217.946 265.007,-215.317 264.372,-218.759"/>
</g>
<!-- topo.analysis.featureresponses.PatternPresenter -->
<g id="node19" class="node"><title>topo.analysis.featureresponses.PatternPresenter</title>
<polygon fill="none" stroke="black" stroke-width="0.5" points="482,-200.5 232,-200.5 232,-179.5 482,-179.5 482,-200.5"/>
<text text-anchor="middle" x="357" y="-187.5" font-family="Vera" font-size="10.00">topo.analysis.featureresponses.PatternPresenter</text>
</g>
<!-- param.parameterized.Parameterized&#45;&gt;topo.analysis.featureresponses.PatternPresenter -->
<g id="edge16" class="edge"><title>param.parameterized.Parameterized&#45;&gt;topo.analysis.featureresponses.PatternPresenter</title>
<path fill="none" stroke="black" stroke-width="0.5" d="M165.652,-162.034C201.788,-167.315 246.13,-173.796 283.027,-179.189"/>
<polygon fill="black" stroke="black" points="283.214,-180.984 288.414,-179.976 283.72,-177.521 283.214,-180.984"/>
</g>
<!-- topo.analysis.featureresponses.DistributionMatrix -->
<g id="node21" class="node"><title>topo.analysis.featureresponses.DistributionMatrix</title>
<polygon fill="none" stroke="black" stroke-width="0.5" points="484,-162.5 230,-162.5 230,-141.5 484,-141.5 484,-162.5"/>
<text text-anchor="middle" x="357" y="-149.5" font-family="Vera" font-size="10.00">topo.analysis.featureresponses.DistributionMatrix</text>
</g>
<!-- param.parameterized.Parameterized&#45;&gt;topo.analysis.featureresponses.DistributionMatrix -->
<g id="edge18" class="edge"><title>param.parameterized.Parameterized&#45;&gt;topo.analysis.featureresponses.DistributionMatrix</title>
<path fill="none" stroke="black" stroke-width="0.5" d="M194.184,-152C204.224,-152 214.544,-152 224.882,-152"/>
<polygon fill="black" stroke="black" points="224.957,-153.75 229.957,-152 224.957,-150.25 224.957,-153.75"/>
</g>
<!-- param.parameterized.ParameterizedFunction -->
<g id="node24" class="node"><title>param.parameterized.ParameterizedFunction</title>
<polygon fill="none" stroke="black" stroke-width="0.5" points="474,-124.5 240,-124.5 240,-103.5 474,-103.5 474,-124.5"/>
<text text-anchor="middle" x="357" y="-111.5" font-family="Vera" font-size="10.00">param.parameterized.ParameterizedFunction</text>
</g>
<!-- param.parameterized.Parameterized&#45;&gt;param.parameterized.ParameterizedFunction -->
<g id="edge22" class="edge"><title>param.parameterized.Parameterized&#45;&gt;param.parameterized.ParameterizedFunction</title>
<path fill="none" stroke="black" stroke-width="0.5" d="M165.652,-141.966C201.788,-136.685 246.13,-130.204 283.027,-124.811"/>
<polygon fill="black" stroke="black" points="283.72,-126.479 288.414,-124.024 283.214,-123.016 283.72,-126.479"/>
</g>
<!-- topo.base.functionfamily.PatternDrivenAnalysis -->
<g id="node26" class="node"><title>topo.base.functionfamily.PatternDrivenAnalysis</title>
<polygon fill="none" stroke="black" stroke-width="0.5" points="477,-86.5 237,-86.5 237,-65.5 477,-65.5 477,-86.5"/>
<text text-anchor="middle" x="357" y="-73.5" font-family="Vera" font-size="10.00">topo.base.functionfamily.PatternDrivenAnalysis</text>
</g>
<!-- param.parameterized.Parameterized&#45;&gt;topo.base.functionfamily.PatternDrivenAnalysis -->
<g id="edge24" class="edge"><title>param.parameterized.Parameterized&#45;&gt;topo.base.functionfamily.PatternDrivenAnalysis</title>
<path fill="none" stroke="black" stroke-width="0.5" d="M116.253,-141.877C141.62,-128.982 187.951,-106.941 230,-95 241.071,-91.8559 252.842,-89.2072 264.58,-86.982"/>
<polygon fill="black" stroke="black" points="265.007,-88.6827 269.607,-86.054 264.372,-85.2409 265.007,-88.6827"/>
</g>
<!-- topo.analysis.featureresponses.Feature -->
<g id="node38" class="node"><title>topo.analysis.featureresponses.Feature</title>
<polygon fill="none" stroke="black" stroke-width="0.5" points="460,-48.5 254,-48.5 254,-27.5 460,-27.5 460,-48.5"/>
<text text-anchor="middle" x="357" y="-35.5" font-family="Vera" font-size="10.00">topo.analysis.featureresponses.Feature</text>
</g>
<!-- param.parameterized.Parameterized&#45;&gt;topo.analysis.featureresponses.Feature -->
<g id="edge38" class="edge"><title>param.parameterized.Parameterized&#45;&gt;topo.analysis.featureresponses.Feature</title>
<path fill="none" stroke="black" stroke-width="0.5" d="M107.318,-141.923C128.386,-122.009 178.705,-77.7487 230,-57 237.445,-53.9885 245.31,-51.4483 253.328,-49.3064"/>
<polygon fill="black" stroke="black" points="253.929,-50.9592 258.338,-48.0236 253.06,-47.5686 253.929,-50.9592"/>
</g>
<!-- topo.analysis.featureresponses.UnitCurveCommand -->
<g id="node9" class="node"><title>topo.analysis.featureresponses.UnitCurveCommand</title>
<polygon fill="none" stroke="black" stroke-width="0.5" points="2185,-210.5 1919,-210.5 1919,-189.5 2185,-189.5 2185,-210.5"/>
<text text-anchor="middle" x="2052" y="-197.5" font-family="Vera" font-size="10.00">topo.analysis.featureresponses.UnitCurveCommand</text>
</g>
<!-- topo.analysis.featureresponses.FeatureCurveCommand&#45;&gt;topo.analysis.featureresponses.UnitCurveCommand -->
<g id="edge8" class="edge"><title>topo.analysis.featureresponses.FeatureCurveCommand&#45;&gt;topo.analysis.featureresponses.UnitCurveCommand</title>
<path fill="none" stroke="black" stroke-width="0.5" d="M1882.3,-200C1892.43,-200 1902.64,-200 1912.75,-200"/>
<polygon fill="black" stroke="black" points="1913.03,-201.75 1918.03,-200 1913.03,-198.25 1913.03,-201.75"/>
</g>
<!-- topo.analysis.featureresponses.FeatureMaps -->
<g id="node16" class="node"><title>topo.analysis.featureresponses.FeatureMaps</title>
<polygon fill="none" stroke="black" stroke-width="0.5" points="1131,-96.5 901,-96.5 901,-75.5 1131,-75.5 1131,-96.5"/>
<text text-anchor="middle" x="1016" y="-83.5" font-family="Vera" font-size="10.00">topo.analysis.featureresponses.FeatureMaps</text>
</g>
<!-- topo.analysis.featureresponses.FeatureResponses -->
<g id="node17" class="node"><title>topo.analysis.featureresponses.FeatureResponses</title>
<polygon fill="none" stroke="black" stroke-width="0.5" points="801,-67.5 545,-67.5 545,-46.5 801,-46.5 801,-67.5"/>
<text text-anchor="middle" x="673" y="-54.5" font-family="Vera" font-size="10.00">topo.analysis.featureresponses.FeatureResponses</text>
</g>
<!-- topo.analysis.featureresponses.FeatureResponses&#45;&gt;topo.analysis.featureresponses.FeatureMaps -->
<g id="edge14" class="edge"><title>topo.analysis.featureresponses.FeatureResponses&#45;&gt;topo.analysis.featureresponses.FeatureMaps</title>
<path fill="none" stroke="black" stroke-width="0.5" d="M791.521,-67.0208C824.974,-69.8491 861.409,-72.9296 895.004,-75.77"/>
<polygon fill="black" stroke="black" points="895.241,-77.5462 900.371,-76.2238 895.536,-74.0587 895.241,-77.5462"/>
</g>
<!-- topo.analysis.featureresponses.ReverseCorrelation -->
<g id="node32" class="node"><title>topo.analysis.featureresponses.ReverseCorrelation</title>
<polygon fill="none" stroke="black" stroke-width="0.5" points="1146,-58.5 886,-58.5 886,-37.5 1146,-37.5 1146,-58.5"/>
<text text-anchor="middle" x="1016" y="-45.5" font-family="Vera" font-size="10.00">topo.analysis.featureresponses.ReverseCorrelation</text>
</g>
<!-- topo.analysis.featureresponses.FeatureResponses&#45;&gt;topo.analysis.featureresponses.ReverseCorrelation -->
<g id="edge30" class="edge"><title>topo.analysis.featureresponses.FeatureResponses&#45;&gt;topo.analysis.featureresponses.ReverseCorrelation</title>
<path fill="none" stroke="black" stroke-width="0.5" d="M801.696,-53.6231C827.448,-52.9474 854.575,-52.2356 880.547,-51.5542"/>
<polygon fill="black" stroke="black" points="880.773,-53.2989 885.726,-51.4183 880.681,-49.8001 880.773,-53.2989"/>
</g>
<!-- topo.analysis.featureresponses.FeatureCurves -->
<g id="node35" class="node"><title>topo.analysis.featureresponses.FeatureCurves</title>
<polygon fill="none" stroke="black" stroke-width="0.5" points="1135,-20.5 897,-20.5 897,0.5 1135,0.5 1135,-20.5"/>
<text text-anchor="middle" x="1016" y="-7.5" font-family="Vera" font-size="10.00">topo.analysis.featureresponses.FeatureCurves</text>
</g>
<!-- topo.analysis.featureresponses.FeatureResponses&#45;&gt;topo.analysis.featureresponses.FeatureCurves -->
<g id="edge34" class="edge"><title>topo.analysis.featureresponses.FeatureResponses&#45;&gt;topo.analysis.featureresponses.FeatureCurves</title>
<path fill="none" stroke="black" stroke-width="0.5" d="M738.11,-46.9551C774.521,-41.4381 820.749,-34.5995 862,-29 882.882,-26.1654 905.383,-23.289 926.562,-20.661"/>
<polygon fill="black" stroke="black" points="926.882,-22.3849 931.629,-20.0339 926.452,-18.9114 926.882,-22.3849"/>
</g>
<!-- topo.analysis.featureresponses.PatternPresentingCommand -->
<g id="node30" class="node"><title>topo.analysis.featureresponses.PatternPresentingCommand</title>
<polygon fill="none" stroke="black" stroke-width="0.5" points="825,-134.5 521,-134.5 521,-113.5 825,-113.5 825,-134.5"/>
<text text-anchor="middle" x="673" y="-121.5" font-family="Vera" font-size="10.00">topo.analysis.featureresponses.PatternPresentingCommand</text>
</g>
<!-- param.parameterized.ParameterizedFunction&#45;&gt;topo.analysis.featureresponses.PatternPresentingCommand -->
<g id="edge36" class="edge"><title>param.parameterized.ParameterizedFunction&#45;&gt;topo.analysis.featureresponses.PatternPresentingCommand</title>
<path fill="none" stroke="black" stroke-width="0.5" d="M474.218,-117.709C487.593,-118.133 501.386,-118.569 515.178,-119.006"/>
<polygon fill="black" stroke="black" points="515.206,-120.757 520.259,-119.166 515.317,-117.259 515.206,-120.757"/>
</g>
<!-- topo.base.functionfamily.PatternDrivenAnalysis&#45;&gt;topo.analysis.featureresponses.FeatureResponses -->
<g id="edge26" class="edge"><title>topo.base.functionfamily.PatternDrivenAnalysis&#45;&gt;topo.analysis.featureresponses.FeatureResponses</title>
<path fill="none" stroke="black" stroke-width="0.5" d="M477.368,-68.7627C497.547,-67.5494 518.595,-66.2838 539.09,-65.0515"/>
<polygon fill="black" stroke="black" points="539.402,-66.786 544.288,-64.739 539.192,-63.2923 539.402,-66.786"/>
</g>
<!-- topo.analysis.featureresponses.pattern_response -->
<g id="node29" class="node"><title>topo.analysis.featureresponses.pattern_response</title>
<polygon fill="none" stroke="black" stroke-width="0.5" points="1143,-134.5 889,-134.5 889,-113.5 1143,-113.5 1143,-134.5"/>
<text text-anchor="middle" x="1016" y="-121.5" font-family="Vera" font-size="10.00">topo.analysis.featureresponses.pattern_response</text>
</g>
<!-- topo.analysis.featureresponses.PatternPresentingCommand&#45;&gt;topo.analysis.featureresponses.MeasureResponseCommand -->
<g id="edge32" class="edge"><title>topo.analysis.featureresponses.PatternPresentingCommand&#45;&gt;topo.analysis.featureresponses.MeasureResponseCommand</title>
<path fill="none" stroke="black" stroke-width="0.5" d="M763.568,-134.034C811.924,-139.391 871.418,-145.982 920.5,-151.42"/>
<polygon fill="black" stroke="black" points="920.357,-153.165 925.52,-151.976 920.743,-149.686 920.357,-153.165"/>
</g>
<!-- topo.analysis.featureresponses.PatternPresentingCommand&#45;&gt;topo.analysis.featureresponses.pattern_response -->
<g id="edge28" class="edge"><title>topo.analysis.featureresponses.PatternPresentingCommand&#45;&gt;topo.analysis.featureresponses.pattern_response</title>
<path fill="none" stroke="black" stroke-width="0.5" d="M825.942,-124C845.129,-124 864.629,-124 883.468,-124"/>
<polygon fill="black" stroke="black" points="883.763,-125.75 888.763,-124 883.763,-122.25 883.763,-125.75"/>
</g>
</g>
</svg>
