<?xml version="1.0" encoding="UTF-8" standalone="no"?>
<!DOCTYPE svg PUBLIC "-//W3C//DTD SVG 1.1//EN"
 "http://www.w3.org/Graphics/SVG/1.1/DTD/svg11.dtd">
<!-- Generated by graphviz version 2.26.3 (20100126.1600)
 -->
<!-- Title: inheritanceea4ef9e090 Pages: 1 -->
<svg width="842pt" height="104pt"
 viewBox="0.00 0.00 842.00 104.00" xmlns="http://www.w3.org/2000/svg" xmlns:xlink="http://www.w3.org/1999/xlink">
<g id="graph1" class="graph" transform="scale(1 1) rotate(0) translate(4 100)">
<title>inheritanceea4ef9e090</title>
<polygon fill="white" stroke="white" points="-4,5 -4,-100 839,-100 839,5 -4,5"/>
<!-- imagen.views.SheetView -->
<g id="node1" class="node"><title>imagen.views.SheetView</title>
<polygon fill="none" stroke="black" stroke-width="0.5" points="629,-96.5 495,-96.5 495,-75.5 629,-75.5 629,-96.5"/>
<text text-anchor="middle" x="562" y="-83.5" font-family="Vera" font-size="10.00">imagen.views.SheetView</text>
</g>
<!-- imagen.views.SheetIndexing -->
<g id="node2" class="node"><title>imagen.views.SheetIndexing</title>
<polygon fill="none" stroke="black" stroke-width="0.5" points="412,-58.5 260,-58.5 260,-37.5 412,-37.5 412,-58.5"/>
<text text-anchor="middle" x="336" y="-45.5" font-family="Vera" font-size="10.00">imagen.views.SheetIndexing</text>
</g>
<!-- imagen.views.SheetIndexing&#45;&gt;imagen.views.SheetView -->
<g id="edge2" class="edge"><title>imagen.views.SheetIndexing&#45;&gt;imagen.views.SheetView</title>
<path fill="none" stroke="black" stroke-width="0.5" d="M395.674,-58.0338C426.956,-63.2936 465.313,-69.7429 497.305,-75.1221"/>
<polygon fill="black" stroke="black" points="497.162,-76.8726 502.383,-75.976 497.743,-73.421 497.162,-76.8726"/>
</g>
<!-- imagen.views.ProjectionGrid -->
<g id="node8" class="node"><title>imagen.views.ProjectionGrid</title>
<polygon fill="none" stroke="black" stroke-width="0.5" points="833,-39.5 683,-39.5 683,-18.5 833,-18.5 833,-39.5"/>
<text text-anchor="middle" x="758" y="-26.5" font-family="Vera" font-size="10.00">imagen.views.ProjectionGrid</text>
</g>
<!-- imagen.views.SheetIndexing&#45;&gt;imagen.views.ProjectionGrid -->
<g id="edge8" class="edge"><title>imagen.views.SheetIndexing&#45;&gt;imagen.views.ProjectionGrid</title>
<path fill="none" stroke="black" stroke-width="0.5" d="M412.421,-44.5592C487.109,-41.1965 600.408,-36.0954 676.718,-32.6596"/>
<polygon fill="black" stroke="black" points="677.231,-34.3884 682.148,-32.4152 677.074,-30.8919 677.231,-34.3884"/>
</g>
<!-- param.parameterized.Parameterized -->
<g id="node4" class="node"><title>param.parameterized.Parameterized</title>
<polygon fill="none" stroke="black" stroke-width="0.5" points="194,-39.5 5.68434e-14,-39.5 0,-18.5 194,-18.5 194,-39.5"/>
<text text-anchor="middle" x="97" y="-26.5" font-family="Vera" font-size="10.00">param.parameterized.Parameterized</text>
</g>
<!-- param.parameterized.Parameterized&#45;&gt;imagen.views.SheetIndexing -->
<g id="edge4" class="edge"><title>param.parameterized.Parameterized&#45;&gt;imagen.views.SheetIndexing</title>
<path fill="none" stroke="black" stroke-width="0.5" d="M194.21,-36.728C214.174,-38.3151 234.999,-39.9706 254.347,-41.5087"/>
<polygon fill="black" stroke="black" points="254.64,-43.2875 259.763,-41.9393 254.917,-39.7985 254.64,-43.2875"/>
</g>
<!-- imagen.ndmapping.NdIndexableMapping -->
<g id="node6" class="node"><title>imagen.ndmapping.NdIndexableMapping</title>
<polygon fill="none" stroke="black" stroke-width="0.5" points="442,-20.5 230,-20.5 230,0.5 442,0.5 442,-20.5"/>
<text text-anchor="middle" x="336" y="-7.5" font-family="Vera" font-size="10.00">imagen.ndmapping.NdIndexableMapping</text>
</g>
<!-- param.parameterized.Parameterized&#45;&gt;imagen.ndmapping.NdIndexableMapping -->
<g id="edge6" class="edge"><title>param.parameterized.Parameterized&#45;&gt;imagen.ndmapping.NdIndexableMapping</title>
<path fill="none" stroke="black" stroke-width="0.5" d="M194.21,-21.272C204.317,-20.4685 214.644,-19.6475 224.889,-18.8331"/>
<polygon fill="black" stroke="black" points="225.064,-20.5748 229.91,-18.4339 224.787,-17.0858 225.064,-20.5748"/>
</g>
<!-- imagen.ndmapping.NdMapping -->
<g id="node10" class="node"><title>imagen.ndmapping.NdMapping</title>
<polygon fill="none" stroke="black" stroke-width="0.5" points="645,-20.5 479,-20.5 479,0.5 645,0.5 645,-20.5"/>
<text text-anchor="middle" x="562" y="-7.5" font-family="Vera" font-size="10.00">imagen.ndmapping.NdMapping</text>
</g>
<!-- imagen.ndmapping.NdIndexableMapping&#45;&gt;imagen.ndmapping.NdMapping -->
<g id="edge12" class="edge"><title>imagen.ndmapping.NdIndexableMapping&#45;&gt;imagen.ndmapping.NdMapping</title>
<path fill="none" stroke="black" stroke-width="0.5" d="M442.052,-10C452.499,-10 463.025,-10 473.272,-10"/>
<polygon fill="black" stroke="black" points="473.279,-11.7501 478.279,-10 473.279,-8.2501 473.279,-11.7501"/>
</g>
<!-- imagen.ndmapping.NdMapping&#45;&gt;imagen.views.ProjectionGrid -->
<g id="edge10" class="edge"><title>imagen.ndmapping.NdMapping&#45;&gt;imagen.views.ProjectionGrid</title>
<path fill="none" stroke="black" stroke-width="0.5" d="M645.69,-18.1128C656.152,-19.127 666.836,-20.1627 677.251,-21.1723"/>
<polygon fill="black" stroke="black" points="677.195,-22.925 682.341,-21.6657 677.533,-19.4413 677.195,-22.925"/>
</g>
</g>
</svg>
