<?xml version="1.0" encoding="UTF-8" standalone="no"?>
<!DOCTYPE svg PUBLIC "-//W3C//DTD SVG 1.1//EN"
 "http://www.w3.org/Graphics/SVG/1.1/DTD/svg11.dtd">
<!-- Generated by graphviz version 2.26.3 (20100126.1600)
 -->
<!-- Title: inheritancefba4d2ab10 Pages: 1 -->
<svg width="1092pt" height="199pt"
 viewBox="0.00 0.00 1092.00 199.00" xmlns="http://www.w3.org/2000/svg" xmlns:xlink="http://www.w3.org/1999/xlink">
<g id="graph1" class="graph" transform="scale(1 1) rotate(0) translate(4 195)">
<title>inheritancefba4d2ab10</title>
<polygon fill="white" stroke="white" points="-4,5 -4,-195 1089,-195 1089,5 -4,5"/>
<!-- dataviews.dataviews.Histogram -->
<g id="node1" class="node"><title>dataviews.dataviews.Histogram</title>
<polygon fill="none" stroke="black" stroke-width="0.5" points="875,-134.5 709,-134.5 709,-113.5 875,-113.5 875,-134.5"/>
<text text-anchor="middle" x="792" y="-121.5" font-family="Vera" font-size="10.00">dataviews.dataviews.Histogram</text>
</g>
<!-- dataviews.dataviews.DataLayer -->
<g id="node2" class="node"><title>dataviews.dataviews.DataLayer</title>
<polygon fill="none" stroke="black" stroke-width="0.5" points="662,-96.5 496,-96.5 496,-75.5 662,-75.5 662,-96.5"/>
<text text-anchor="middle" x="579" y="-83.5" font-family="Vera" font-size="10.00">dataviews.dataviews.DataLayer</text>
</g>
<!-- dataviews.dataviews.DataLayer&#45;&gt;dataviews.dataviews.Histogram -->
<g id="edge2" class="edge"><title>dataviews.dataviews.DataLayer&#45;&gt;dataviews.dataviews.Histogram</title>
<path fill="none" stroke="black" stroke-width="0.5" d="M635.242,-96.0338C664.603,-101.272 700.577,-107.69 730.654,-113.056"/>
<polygon fill="black" stroke="black" points="730.583,-114.821 735.813,-113.976 731.198,-111.375 730.583,-114.821"/>
</g>
<!-- dataviews.dataviews.DataOverlay -->
<g id="node10" class="node"><title>dataviews.dataviews.DataOverlay</title>
<polygon fill="none" stroke="black" stroke-width="0.5" points="880,-58.5 704,-58.5 704,-37.5 880,-37.5 880,-58.5"/>
<text text-anchor="middle" x="792" y="-45.5" font-family="Vera" font-size="10.00">dataviews.dataviews.DataOverlay</text>
</g>
<!-- dataviews.dataviews.DataLayer&#45;&gt;dataviews.dataviews.DataOverlay -->
<g id="edge8" class="edge"><title>dataviews.dataviews.DataLayer&#45;&gt;dataviews.dataviews.DataOverlay</title>
<path fill="none" stroke="black" stroke-width="0.5" d="M635.242,-75.9662C664.603,-70.7281 700.577,-64.3102 730.654,-58.9443"/>
<polygon fill="black" stroke="black" points="731.198,-60.6251 735.813,-58.024 730.583,-57.1795 731.198,-60.6251"/>
</g>
<!-- dataviews.dataviews.Curve -->
<g id="node20" class="node"><title>dataviews.dataviews.Curve</title>
<polygon fill="none" stroke="black" stroke-width="0.5" points="864,-96.5 720,-96.5 720,-75.5 864,-75.5 864,-96.5"/>
<text text-anchor="middle" x="792" y="-83.5" font-family="Vera" font-size="10.00">dataviews.dataviews.Curve</text>
</g>
<!-- dataviews.dataviews.DataLayer&#45;&gt;dataviews.dataviews.Curve -->
<g id="edge18" class="edge"><title>dataviews.dataviews.DataLayer&#45;&gt;dataviews.dataviews.Curve</title>
<path fill="none" stroke="black" stroke-width="0.5" d="M662.572,-86C679.577,-86 697.401,-86 714.196,-86"/>
<polygon fill="black" stroke="black" points="714.373,-87.7501 719.373,-86 714.373,-84.2501 714.373,-87.7501"/>
</g>
<!-- dataviews.dataviews.DataStack -->
<g id="node4" class="node"><title>dataviews.dataviews.DataStack</title>
<polygon fill="none" stroke="black" stroke-width="0.5" points="1083,-191.5 917,-191.5 917,-170.5 1083,-170.5 1083,-191.5"/>
<text text-anchor="middle" x="1000" y="-178.5" font-family="Vera" font-size="10.00">dataviews.dataviews.DataStack</text>
</g>
<!-- dataviews.dataviews.Stack -->
<g id="node5" class="node"><title>dataviews.dataviews.Stack</title>
<polygon fill="none" stroke="black" stroke-width="0.5" points="864,-172.5 720,-172.5 720,-151.5 864,-151.5 864,-172.5"/>
<text text-anchor="middle" x="792" y="-159.5" font-family="Vera" font-size="10.00">dataviews.dataviews.Stack</text>
</g>
<!-- dataviews.dataviews.Stack&#45;&gt;dataviews.dataviews.DataStack -->
<g id="edge4" class="edge"><title>dataviews.dataviews.Stack&#45;&gt;dataviews.dataviews.DataStack</title>
<path fill="none" stroke="black" stroke-width="0.5" d="M864.165,-168.592C879.239,-169.969 895.302,-171.436 910.907,-172.862"/>
<polygon fill="black" stroke="black" points="911.041,-174.631 916.179,-173.343 911.359,-171.146 911.041,-174.631"/>
</g>
<!-- dataviews.dataviews.TableStack -->
<g id="node16" class="node"><title>dataviews.dataviews.TableStack</title>
<polygon fill="none" stroke="black" stroke-width="0.5" points="1084,-153.5 916,-153.5 916,-132.5 1084,-132.5 1084,-153.5"/>
<text text-anchor="middle" x="1000" y="-140.5" font-family="Vera" font-size="10.00">dataviews.dataviews.TableStack</text>
</g>
<!-- dataviews.dataviews.Stack&#45;&gt;dataviews.dataviews.TableStack -->
<g id="edge14" class="edge"><title>dataviews.dataviews.Stack&#45;&gt;dataviews.dataviews.TableStack</title>
<path fill="none" stroke="black" stroke-width="0.5" d="M864.165,-155.408C879.134,-154.041 895.077,-152.584 910.579,-151.168"/>
<polygon fill="black" stroke="black" points="910.998,-152.887 915.818,-150.69 910.679,-149.402 910.998,-152.887"/>
</g>
<!-- dataviews.ndmapping.NdIndexableMapping -->
<g id="node7" class="node"><title>dataviews.ndmapping.NdIndexableMapping</title>
<polygon fill="none" stroke="black" stroke-width="0.5" points="454,-138.5 230,-138.5 230,-117.5 454,-117.5 454,-138.5"/>
<text text-anchor="middle" x="342" y="-125.5" font-family="Vera" font-size="10.00">dataviews.ndmapping.NdIndexableMapping</text>
</g>
<!-- dataviews.ndmapping.NdMapping -->
<g id="node14" class="node"><title>dataviews.ndmapping.NdMapping</title>
<polygon fill="none" stroke="black" stroke-width="0.5" points="668,-153.5 490,-153.5 490,-132.5 668,-132.5 668,-153.5"/>
<text text-anchor="middle" x="579" y="-140.5" font-family="Vera" font-size="10.00">dataviews.ndmapping.NdMapping</text>
</g>
<!-- dataviews.ndmapping.NdIndexableMapping&#45;&gt;dataviews.ndmapping.NdMapping -->
<g id="edge26" class="edge"><title>dataviews.ndmapping.NdIndexableMapping&#45;&gt;dataviews.ndmapping.NdMapping</title>
<path fill="none" stroke="black" stroke-width="0.5" d="M454.254,-135.105C464.442,-135.749 474.692,-136.398 484.701,-137.032"/>
<polygon fill="black" stroke="black" points="484.812,-138.792 489.912,-137.362 485.033,-135.299 484.812,-138.792"/>
</g>
<!-- param.parameterized.Parameterized -->
<g id="node8" class="node"><title>param.parameterized.Parameterized</title>
<polygon fill="none" stroke="black" stroke-width="0.5" points="194,-105.5 5.68434e-14,-105.5 0,-84.5 194,-84.5 194,-105.5"/>
<text text-anchor="middle" x="97" y="-92.5" font-family="Vera" font-size="10.00">param.parameterized.Parameterized</text>
</g>
<!-- param.parameterized.Parameterized&#45;&gt;dataviews.ndmapping.NdIndexableMapping -->
<g id="edge6" class="edge"><title>param.parameterized.Parameterized&#45;&gt;dataviews.ndmapping.NdIndexableMapping</title>
<path fill="none" stroke="black" stroke-width="0.5" d="M171.506,-105.035C200.252,-108.907 233.186,-113.343 262.396,-117.278"/>
<polygon fill="black" stroke="black" points="262.237,-119.022 267.426,-117.955 262.705,-115.554 262.237,-119.022"/>
</g>
<!-- dataviews.views.View -->
<g id="node18" class="node"><title>dataviews.views.View</title>
<polygon fill="none" stroke="black" stroke-width="0.5" points="400,-72.5 284,-72.5 284,-51.5 400,-51.5 400,-72.5"/>
<text text-anchor="middle" x="342" y="-59.5" font-family="Vera" font-size="10.00">dataviews.views.View</text>
</g>
<!-- param.parameterized.Parameterized&#45;&gt;dataviews.views.View -->
<g id="edge24" class="edge"><title>param.parameterized.Parameterized&#45;&gt;dataviews.views.View</title>
<path fill="none" stroke="black" stroke-width="0.5" d="M171.506,-84.9645C205.582,-80.3746 245.544,-74.992 278.211,-70.592"/>
<polygon fill="black" stroke="black" points="278.667,-72.2964 283.389,-69.8946 278.2,-68.8278 278.667,-72.2964"/>
</g>
<!-- dataviews.views.Overlay -->
<g id="node12" class="node"><title>dataviews.views.Overlay</title>
<polygon fill="none" stroke="black" stroke-width="0.5" points="644,-58.5 514,-58.5 514,-37.5 644,-37.5 644,-58.5"/>
<text text-anchor="middle" x="579" y="-45.5" font-family="Vera" font-size="10.00">dataviews.views.Overlay</text>
</g>
<!-- dataviews.views.Overlay&#45;&gt;dataviews.dataviews.DataOverlay -->
<g id="edge10" class="edge"><title>dataviews.views.Overlay&#45;&gt;dataviews.dataviews.DataOverlay</title>
<path fill="none" stroke="black" stroke-width="0.5" d="M644.645,-48C661.74,-48 680.49,-48 698.716,-48"/>
<polygon fill="black" stroke="black" points="698.84,-49.7501 703.84,-48 698.84,-46.2501 698.84,-49.7501"/>
</g>
<!-- dataviews.ndmapping.NdMapping&#45;&gt;dataviews.dataviews.Stack -->
<g id="edge12" class="edge"><title>dataviews.ndmapping.NdMapping&#45;&gt;dataviews.dataviews.Stack</title>
<path fill="none" stroke="black" stroke-width="0.5" d="M668.097,-150.948C683.563,-152.327 699.531,-153.752 714.651,-155.1"/>
<polygon fill="black" stroke="black" points="714.608,-156.853 719.744,-155.555 714.919,-153.367 714.608,-156.853"/>
</g>
<!-- dataviews.views.View&#45;&gt;dataviews.dataviews.DataLayer -->
<g id="edge16" class="edge"><title>dataviews.views.View&#45;&gt;dataviews.dataviews.DataLayer</title>
<path fill="none" stroke="black" stroke-width="0.5" d="M400.584,-67.9326C427.537,-70.6619 460.101,-73.9596 489.992,-76.9865"/>
<polygon fill="black" stroke="black" points="490,-78.7462 495.151,-77.5089 490.353,-75.264 490,-78.7462"/>
</g>
<!-- dataviews.views.View&#45;&gt;dataviews.views.Overlay -->
<g id="edge20" class="edge"><title>dataviews.views.View&#45;&gt;dataviews.views.Overlay</title>
<path fill="none" stroke="black" stroke-width="0.5" d="M400.584,-58.5393C433.116,-56.6176 473.824,-54.213 508.137,-52.186"/>
<polygon fill="black" stroke="black" points="508.264,-53.9316 513.152,-51.8898 508.057,-50.4377 508.264,-53.9316"/>
</g>
<!-- dataviews.dataviews.Table -->
<g id="node23" class="node"><title>dataviews.dataviews.Table</title>
<polygon fill="none" stroke="black" stroke-width="0.5" points="649,-20.5 509,-20.5 509,0.5 649,0.5 649,-20.5"/>
<text text-anchor="middle" x="579" y="-7.5" font-family="Vera" font-size="10.00">dataviews.dataviews.Table</text>
</g>
<!-- dataviews.views.View&#45;&gt;dataviews.dataviews.Table -->
<g id="edge22" class="edge"><title>dataviews.views.View&#45;&gt;dataviews.dataviews.Table</title>
<path fill="none" stroke="black" stroke-width="0.5" d="M386.665,-51.9305C416.019,-45.3398 455.278,-36.5772 490,-29 501.751,-26.4357 514.383,-23.7164 526.333,-21.161"/>
<polygon fill="black" stroke="black" points="526.884,-22.8328 531.408,-20.0768 526.153,-19.41 526.884,-22.8328"/>
</g>
</g>
</svg>
