<?xml version="1.0" encoding="UTF-8" standalone="no"?>
<!DOCTYPE svg PUBLIC "-//W3C//DTD SVG 1.1//EN"
 "http://www.w3.org/Graphics/SVG/1.1/DTD/svg11.dtd">
<!-- Generated by graphviz version 2.26.3 (20100126.1600)
 -->
<!-- Title: inheritance40f68afc84 Pages: 1 -->
<svg width="810pt" height="104pt"
 viewBox="0.00 0.00 810.00 104.00" xmlns="http://www.w3.org/2000/svg" xmlns:xlink="http://www.w3.org/1999/xlink">
<g id="graph1" class="graph" transform="scale(1 1) rotate(0) translate(4 100)">
<title>inheritance40f68afc84</title>
<polygon fill="white" stroke="white" points="-4,5 -4,-100 807,-100 807,5 -4,5"/>
<!-- param.parameterized.Parameterized -->
<g id="node1" class="node"><title>param.parameterized.Parameterized</title>
<polygon fill="none" stroke="black" stroke-width="0.5" points="194,-77.5 5.68434e-14,-77.5 0,-56.5 194,-56.5 194,-77.5"/>
<text text-anchor="middle" x="97" y="-64.5" font-family="Vera" font-size="10.00">param.parameterized.Parameterized</text>
</g>
<!-- lancet.core.Arguments -->
<g id="node7" class="node"><title>lancet.core.Arguments</title>
<polygon fill="none" stroke="black" stroke-width="0.5" points="356,-58.5 230,-58.5 230,-37.5 356,-37.5 356,-58.5"/>
<text text-anchor="middle" x="293" y="-45.5" font-family="Vera" font-size="10.00">lancet.core.Arguments</text>
</g>
<!-- param.parameterized.Parameterized&#45;&gt;lancet.core.Arguments -->
<g id="edge12" class="edge"><title>param.parameterized.Parameterized&#45;&gt;lancet.core.Arguments</title>
<path fill="none" stroke="black" stroke-width="0.5" d="M194.139,-57.5835C204.467,-56.5823 214.808,-55.5798 224.703,-54.6206"/>
<polygon fill="black" stroke="black" points="225.027,-56.3475 229.835,-54.1232 224.689,-52.8638 225.027,-56.3475"/>
</g>
<!-- lancet.dynamic.DynamicCartesianProduct -->
<g id="node2" class="node"><title>lancet.dynamic.DynamicCartesianProduct</title>
<polygon fill="none" stroke="black" stroke-width="0.5" points="801,-96.5 585,-96.5 585,-75.5 801,-75.5 801,-96.5"/>
<text text-anchor="middle" x="693" y="-83.5" font-family="Vera" font-size="10.00">lancet.dynamic.DynamicCartesianProduct</text>
</g>
<!-- lancet.dynamic.DynamicArgs -->
<g id="node3" class="node"><title>lancet.dynamic.DynamicArgs</title>
<polygon fill="none" stroke="black" stroke-width="0.5" points="548,-58.5 392,-58.5 392,-37.5 548,-37.5 548,-58.5"/>
<text text-anchor="middle" x="470" y="-45.5" font-family="Vera" font-size="10.00">lancet.dynamic.DynamicArgs</text>
</g>
<!-- lancet.dynamic.DynamicArgs&#45;&gt;lancet.dynamic.DynamicCartesianProduct -->
<g id="edge2" class="edge"><title>lancet.dynamic.DynamicArgs&#45;&gt;lancet.dynamic.DynamicCartesianProduct</title>
<path fill="none" stroke="black" stroke-width="0.5" d="M528.882,-58.0338C559.749,-63.2936 597.596,-69.7429 629.164,-75.1221"/>
<polygon fill="black" stroke="black" points="628.952,-76.8611 634.175,-75.976 629.54,-73.4108 628.952,-76.8611"/>
</g>
<!-- lancet.dynamic.DynamicConcatenate -->
<g id="node5" class="node"><title>lancet.dynamic.DynamicConcatenate</title>
<polygon fill="none" stroke="black" stroke-width="0.5" points="791,-58.5 595,-58.5 595,-37.5 791,-37.5 791,-58.5"/>
<text text-anchor="middle" x="693" y="-45.5" font-family="Vera" font-size="10.00">lancet.dynamic.DynamicConcatenate</text>
</g>
<!-- lancet.dynamic.DynamicArgs&#45;&gt;lancet.dynamic.DynamicConcatenate -->
<g id="edge4" class="edge"><title>lancet.dynamic.DynamicArgs&#45;&gt;lancet.dynamic.DynamicConcatenate</title>
<path fill="none" stroke="black" stroke-width="0.5" d="M548.308,-48C561.721,-48 575.838,-48 589.782,-48"/>
<polygon fill="black" stroke="black" points="589.91,-49.7501 594.91,-48 589.91,-46.2501 589.91,-49.7501"/>
</g>
<!-- lancet.dynamic.SimpleGradientDescent -->
<g id="node9" class="node"><title>lancet.dynamic.SimpleGradientDescent</title>
<polygon fill="none" stroke="black" stroke-width="0.5" points="796,-20.5 590,-20.5 590,0.5 796,0.5 796,-20.5"/>
<text text-anchor="middle" x="693" y="-7.5" font-family="Vera" font-size="10.00">lancet.dynamic.SimpleGradientDescent</text>
</g>
<!-- lancet.dynamic.DynamicArgs&#45;&gt;lancet.dynamic.SimpleGradientDescent -->
<g id="edge8" class="edge"><title>lancet.dynamic.DynamicArgs&#45;&gt;lancet.dynamic.SimpleGradientDescent</title>
<path fill="none" stroke="black" stroke-width="0.5" d="M528.882,-37.9662C559.749,-32.7064 597.596,-26.2571 629.164,-20.8779"/>
<polygon fill="black" stroke="black" points="629.54,-22.5892 634.175,-20.024 628.952,-19.1389 629.54,-22.5892"/>
</g>
<!-- lancet.core.Arguments&#45;&gt;lancet.dynamic.DynamicArgs -->
<g id="edge6" class="edge"><title>lancet.core.Arguments&#45;&gt;lancet.dynamic.DynamicArgs</title>
<path fill="none" stroke="black" stroke-width="0.5" d="M356.401,-48C366.29,-48 376.634,-48 386.882,-48"/>
<polygon fill="black" stroke="black" points="386.902,-49.7501 391.902,-48 386.902,-46.2501 386.902,-49.7501"/>
</g>
<!-- lancet.core.PrettyPrinted -->
<g id="node11" class="node"><title>lancet.core.PrettyPrinted</title>
<polygon fill="none" stroke="black" stroke-width="0.5" points="164,-39.5 30,-39.5 30,-18.5 164,-18.5 164,-39.5"/>
<text text-anchor="middle" x="97" y="-26.5" font-family="Vera" font-size="10.00">lancet.core.PrettyPrinted</text>
</g>
<!-- lancet.core.PrettyPrinted&#45;&gt;lancet.core.Arguments -->
<g id="edge10" class="edge"><title>lancet.core.PrettyPrinted&#45;&gt;lancet.core.Arguments</title>
<path fill="none" stroke="black" stroke-width="0.5" d="M164.727,-35.5653C184.045,-37.438 205.103,-39.4794 224.468,-41.3566"/>
<polygon fill="black" stroke="black" points="224.737,-43.1408 229.883,-41.8815 225.075,-39.6571 224.737,-43.1408"/>
</g>
</g>
</svg>
