<?xml version="1.0" encoding="UTF-8" standalone="no"?>
<!DOCTYPE svg PUBLIC "-//W3C//DTD SVG 1.1//EN"
 "http://www.w3.org/Graphics/SVG/1.1/DTD/svg11.dtd">
<!-- Generated by graphviz version 2.26.3 (20100126.1600)
 -->
<!-- Title: inheritance1a184a655e Pages: 1 -->
<svg width="1070pt" height="218pt"
 viewBox="0.00 0.00 1070.00 218.00" xmlns="http://www.w3.org/2000/svg" xmlns:xlink="http://www.w3.org/1999/xlink">
<g id="graph1" class="graph" transform="scale(1 1) rotate(0) translate(4 214)">
<title>inheritance1a184a655e</title>
<polygon fill="white" stroke="white" points="-4,5 -4,-214 1067,-214 1067,5 -4,5"/>
<!-- topo.tests.unit.testparameterizedobject.TestParameterized -->
<g id="node1" class="node"><title>topo.tests.unit.testparameterizedobject.TestParameterized</title>
<polygon fill="none" stroke="black" stroke-width="0.5" points="685,-58.5 387,-58.5 387,-37.5 685,-37.5 685,-58.5"/>
<text text-anchor="middle" x="536" y="-45.5" font-family="Vera" font-size="10.00">topo.tests.unit.testparameterizedobject.TestParameterized</text>
</g>
<!-- unittest.case.TestCase -->
<g id="node2" class="node"><title>unittest.case.TestCase</title>
<polygon fill="none" stroke="black" stroke-width="0.5" points="227,-39.5 103,-39.5 103,-18.5 227,-18.5 227,-39.5"/>
<text text-anchor="middle" x="165" y="-26.5" font-family="Vera" font-size="10.00">unittest.case.TestCase</text>
</g>
<!-- unittest.case.TestCase&#45;&gt;topo.tests.unit.testparameterizedobject.TestParameterized -->
<g id="edge2" class="edge"><title>unittest.case.TestCase&#45;&gt;topo.tests.unit.testparameterizedobject.TestParameterized</title>
<path fill="none" stroke="black" stroke-width="0.5" d="M227.516,-32.2016C269.627,-34.3583 327.129,-37.3031 381.082,-40.0662"/>
<polygon fill="black" stroke="black" points="381.208,-41.8249 386.291,-40.333 381.387,-38.3294 381.208,-41.8249"/>
</g>
<!-- topo.tests.unit.testparameterizedobject.TestParameterizedFunction -->
<g id="node5" class="node"><title>topo.tests.unit.testparameterizedobject.TestParameterizedFunction</title>
<polygon fill="none" stroke="black" stroke-width="0.5" points="705,-20.5 367,-20.5 367,0.5 705,0.5 705,-20.5"/>
<text text-anchor="middle" x="536" y="-7.5" font-family="Vera" font-size="10.00">topo.tests.unit.testparameterizedobject.TestParameterizedFunction</text>
</g>
<!-- unittest.case.TestCase&#45;&gt;topo.tests.unit.testparameterizedobject.TestParameterizedFunction -->
<g id="edge4" class="edge"><title>unittest.case.TestCase&#45;&gt;topo.tests.unit.testparameterizedobject.TestParameterizedFunction</title>
<path fill="none" stroke="black" stroke-width="0.5" d="M227.516,-25.7984C264.476,-23.9055 313.292,-21.4055 361.159,-18.9541"/>
<polygon fill="black" stroke="black" points="361.483,-20.6899 366.387,-18.6864 361.304,-17.1945 361.483,-20.6899"/>
</g>
<!-- topo.tests.unit.testparameterizedobject._SomeRandomNumbers -->
<g id="node4" class="node"><title>topo.tests.unit.testparameterizedobject._SomeRandomNumbers</title>
<polygon fill="none" stroke="black" stroke-width="0.5" points="329,-115.5 1,-115.5 1,-94.5 329,-94.5 329,-115.5"/>
<text text-anchor="middle" x="165" y="-102.5" font-family="Vera" font-size="10.00">topo.tests.unit.testparameterizedobject._SomeRandomNumbers</text>
</g>
<!-- topo.tests.unit.testparameterizedobject.TestParamInstantiation -->
<g id="node7" class="node"><title>topo.tests.unit.testparameterizedobject.TestParamInstantiation</title>
<polygon fill="none" stroke="black" stroke-width="0.5" points="1062,-210.5 742,-210.5 742,-189.5 1062,-189.5 1062,-210.5"/>
<text text-anchor="middle" x="902" y="-197.5" font-family="Vera" font-size="10.00">topo.tests.unit.testparameterizedobject.TestParamInstantiation</text>
</g>
<!-- topo.tests.unit.testparameterizedobject.AnotherTestPO -->
<g id="node8" class="node"><title>topo.tests.unit.testparameterizedobject.AnotherTestPO</title>
<polygon fill="none" stroke="black" stroke-width="0.5" points="676,-210.5 396,-210.5 396,-189.5 676,-189.5 676,-210.5"/>
<text text-anchor="middle" x="536" y="-197.5" font-family="Vera" font-size="10.00">topo.tests.unit.testparameterizedobject.AnotherTestPO</text>
</g>
<!-- topo.tests.unit.testparameterizedobject.AnotherTestPO&#45;&gt;topo.tests.unit.testparameterizedobject.TestParamInstantiation -->
<g id="edge6" class="edge"><title>topo.tests.unit.testparameterizedobject.AnotherTestPO&#45;&gt;topo.tests.unit.testparameterizedobject.TestParamInstantiation</title>
<path fill="none" stroke="black" stroke-width="0.5" d="M676.72,-200C696.409,-200 716.788,-200 736.877,-200"/>
<polygon fill="black" stroke="black" points="736.978,-201.75 741.978,-200 736.978,-198.25 736.978,-201.75"/>
</g>
<!-- topo.tests.unit.testparameterizedobject.TestPO -->
<g id="node10" class="node"><title>topo.tests.unit.testparameterizedobject.TestPO</title>
<polygon fill="none" stroke="black" stroke-width="0.5" points="657,-172.5 415,-172.5 415,-151.5 657,-151.5 657,-172.5"/>
<text text-anchor="middle" x="536" y="-159.5" font-family="Vera" font-size="10.00">topo.tests.unit.testparameterizedobject.TestPO</text>
</g>
<!-- param.parameterized.Parameterized -->
<g id="node11" class="node"><title>param.parameterized.Parameterized</title>
<polygon fill="none" stroke="black" stroke-width="0.5" points="262,-153.5 68,-153.5 68,-132.5 262,-132.5 262,-153.5"/>
<text text-anchor="middle" x="165" y="-140.5" font-family="Vera" font-size="10.00">param.parameterized.Parameterized</text>
</g>
<!-- param.parameterized.Parameterized&#45;&gt;topo.tests.unit.testparameterizedobject.AnotherTestPO -->
<g id="edge14" class="edge"><title>param.parameterized.Parameterized&#45;&gt;topo.tests.unit.testparameterizedobject.AnotherTestPO</title>
<path fill="none" stroke="black" stroke-width="0.5" d="M212.749,-153.08C253.366,-161.402 313.32,-173.088 366,-181 386.527,-184.083 408.518,-186.899 429.644,-189.364"/>
<polygon fill="black" stroke="black" points="429.538,-191.113 434.707,-189.95 429.941,-187.636 429.538,-191.113"/>
</g>
<!-- param.parameterized.Parameterized&#45;&gt;topo.tests.unit.testparameterizedobject.TestPO -->
<g id="edge8" class="edge"><title>param.parameterized.Parameterized&#45;&gt;topo.tests.unit.testparameterizedobject.TestPO</title>
<path fill="none" stroke="black" stroke-width="0.5" d="M262.476,-147.992C307.322,-150.289 361.104,-153.043 409.065,-155.499"/>
<polygon fill="black" stroke="black" points="409.201,-157.258 414.284,-155.767 409.38,-153.763 409.201,-157.258"/>
</g>
<!-- param.parameterized.ParameterizedFunction -->
<g id="node14" class="node"><title>param.parameterized.ParameterizedFunction</title>
<polygon fill="none" stroke="black" stroke-width="0.5" points="653,-134.5 419,-134.5 419,-113.5 653,-113.5 653,-134.5"/>
<text text-anchor="middle" x="536" y="-121.5" font-family="Vera" font-size="10.00">param.parameterized.ParameterizedFunction</text>
</g>
<!-- param.parameterized.Parameterized&#45;&gt;param.parameterized.ParameterizedFunction -->
<g id="edge16" class="edge"><title>param.parameterized.Parameterized&#45;&gt;param.parameterized.ParameterizedFunction</title>
<path fill="none" stroke="black" stroke-width="0.5" d="M262.476,-138.008C308.762,-135.638 364.567,-132.78 413.666,-130.265"/>
<polygon fill="black" stroke="black" points="413.797,-132.011 418.701,-130.007 413.618,-128.515 413.797,-132.011"/>
</g>
<!-- topo.tests.unit.testparameterizedobject.TestAbstractPO -->
<g id="node16" class="node"><title>topo.tests.unit.testparameterizedobject.TestAbstractPO</title>
<polygon fill="none" stroke="black" stroke-width="0.5" points="678,-96.5 394,-96.5 394,-75.5 678,-75.5 678,-96.5"/>
<text text-anchor="middle" x="536" y="-83.5" font-family="Vera" font-size="10.00">topo.tests.unit.testparameterizedobject.TestAbstractPO</text>
</g>
<!-- param.parameterized.Parameterized&#45;&gt;topo.tests.unit.testparameterizedobject.TestAbstractPO -->
<g id="edge12" class="edge"><title>param.parameterized.Parameterized&#45;&gt;topo.tests.unit.testparameterizedobject.TestAbstractPO</title>
<path fill="none" stroke="black" stroke-width="0.5" d="M262.218,-137.861C284.803,-135.011 308.514,-130.65 330,-124 347.283,-118.651 348.708,-110.32 366,-105 376.215,-101.857 386.918,-99.2227 397.769,-97.0154"/>
<polygon fill="black" stroke="black" points="398.197,-98.7149 402.764,-96.0311 397.52,-95.2809 398.197,-98.7149"/>
</g>
<!-- topo.tests.unit.testparameterizedobject.some_fn -->
<g id="node13" class="node"><title>topo.tests.unit.testparameterizedobject.some_fn</title>
<polygon fill="none" stroke="black" stroke-width="0.5" points="1028,-134.5 776,-134.5 776,-113.5 1028,-113.5 1028,-134.5"/>
<text text-anchor="middle" x="902" y="-121.5" font-family="Vera" font-size="10.00">topo.tests.unit.testparameterizedobject.some_fn</text>
</g>
<!-- param.parameterized.ParameterizedFunction&#45;&gt;topo.tests.unit.testparameterizedobject.some_fn -->
<g id="edge10" class="edge"><title>param.parameterized.ParameterizedFunction&#45;&gt;topo.tests.unit.testparameterizedobject.some_fn</title>
<path fill="none" stroke="black" stroke-width="0.5" d="M653.063,-124C690.493,-124 732.171,-124 770.554,-124"/>
<polygon fill="black" stroke="black" points="770.704,-125.75 775.704,-124 770.704,-122.25 770.704,-125.75"/>
</g>
</g>
</svg>
