<?xml version="1.0" encoding="UTF-8" standalone="no"?>
<!DOCTYPE svg PUBLIC "-//W3C//DTD SVG 1.1//EN"
 "http://www.w3.org/Graphics/SVG/1.1/DTD/svg11.dtd">
<!-- Generated by graphviz version 2.26.3 (20100126.1600)
 -->
<!-- Title: inheritance8744d36cfd Pages: 1 -->
<svg width="608pt" height="104pt"
 viewBox="0.00 0.00 608.00 104.00" xmlns="http://www.w3.org/2000/svg" xmlns:xlink="http://www.w3.org/1999/xlink">
<g id="graph1" class="graph" transform="scale(1 1) rotate(0) translate(4 100)">
<title>inheritance8744d36cfd</title>
<polygon fill="white" stroke="white" points="-4,5 -4,-100 605,-100 605,5 -4,5"/>
<!-- lancet.launch.review_and_launch -->
<g id="node1" class="node"><title>lancet.launch.review_and_launch</title>
<polygon fill="none" stroke="black" stroke-width="0.5" points="405,-96.5 233,-96.5 233,-75.5 405,-75.5 405,-96.5"/>
<text text-anchor="middle" x="319" y="-83.5" font-family="Vera" font-size="10.00">lancet.launch.review_and_launch</text>
</g>
<!-- lancet.core.PrettyPrinted -->
<g id="node2" class="node"><title>lancet.core.PrettyPrinted</title>
<polygon fill="none" stroke="black" stroke-width="0.5" points="164,-77.5 30,-77.5 30,-56.5 164,-56.5 164,-77.5"/>
<text text-anchor="middle" x="97" y="-64.5" font-family="Vera" font-size="10.00">lancet.core.PrettyPrinted</text>
</g>
<!-- lancet.core.PrettyPrinted&#45;&gt;lancet.launch.review_and_launch -->
<g id="edge2" class="edge"><title>lancet.core.PrettyPrinted&#45;&gt;lancet.launch.review_and_launch</title>
<path fill="none" stroke="black" stroke-width="0.5" d="M164.512,-72.778C184.234,-74.466 206.132,-76.3401 227.093,-78.1341"/>
<polygon fill="black" stroke="black" points="226.984,-79.8811 232.115,-78.5639 227.283,-76.3938 226.984,-79.8811"/>
</g>
<!-- lancet.launch.Launcher -->
<g id="node6" class="node"><title>lancet.launch.Launcher</title>
<polygon fill="none" stroke="black" stroke-width="0.5" points="383,-58.5 255,-58.5 255,-37.5 383,-37.5 383,-58.5"/>
<text text-anchor="middle" x="319" y="-45.5" font-family="Vera" font-size="10.00">lancet.launch.Launcher</text>
</g>
<!-- lancet.core.PrettyPrinted&#45;&gt;lancet.launch.Launcher -->
<g id="edge6" class="edge"><title>lancet.core.PrettyPrinted&#45;&gt;lancet.launch.Launcher</title>
<path fill="none" stroke="black" stroke-width="0.5" d="M164.512,-61.222C191.532,-58.9094 222.636,-56.2473 249.821,-53.9207"/>
<polygon fill="black" stroke="black" points="250.017,-55.6604 254.85,-53.4904 249.718,-52.1732 250.017,-55.6604"/>
</g>
<!-- lancet.launch.CommandTemplate -->
<g id="node10" class="node"><title>lancet.launch.CommandTemplate</title>
<polygon fill="none" stroke="black" stroke-width="0.5" points="407,-20.5 231,-20.5 231,0.5 407,0.5 407,-20.5"/>
<text text-anchor="middle" x="319" y="-7.5" font-family="Vera" font-size="10.00">lancet.launch.CommandTemplate</text>
</g>
<!-- lancet.core.PrettyPrinted&#45;&gt;lancet.launch.CommandTemplate -->
<g id="edge12" class="edge"><title>lancet.core.PrettyPrinted&#45;&gt;lancet.launch.CommandTemplate</title>
<path fill="none" stroke="black" stroke-width="0.5" d="M162.145,-56.9666C172.93,-54.5322 183.887,-51.5719 194,-48 211.059,-41.9748 212.993,-35.1692 230,-29 237.995,-26.1 246.563,-23.5795 255.109,-21.4071"/>
<polygon fill="black" stroke="black" points="255.985,-22.9937 260.422,-20.0992 255.148,-19.5952 255.985,-22.9937"/>
</g>
<!-- param.parameterized.Parameterized -->
<g id="node4" class="node"><title>param.parameterized.Parameterized</title>
<polygon fill="none" stroke="black" stroke-width="0.5" points="194,-39.5 5.68434e-14,-39.5 0,-18.5 194,-18.5 194,-39.5"/>
<text text-anchor="middle" x="97" y="-26.5" font-family="Vera" font-size="10.00">param.parameterized.Parameterized</text>
</g>
<!-- param.parameterized.Parameterized&#45;&gt;lancet.launch.review_and_launch -->
<g id="edge4" class="edge"><title>param.parameterized.Parameterized&#45;&gt;lancet.launch.review_and_launch</title>
<path fill="none" stroke="black" stroke-width="0.5" d="M162.145,-39.0334C172.93,-41.4678 183.887,-44.4281 194,-48 211.059,-54.0252 212.993,-60.8308 230,-67 237.995,-69.9 246.563,-72.4205 255.109,-74.5929"/>
<polygon fill="black" stroke="black" points="255.148,-76.4048 260.422,-75.9008 255.985,-73.0063 255.148,-76.4048"/>
</g>
<!-- param.parameterized.Parameterized&#45;&gt;lancet.launch.Launcher -->
<g id="edge8" class="edge"><title>param.parameterized.Parameterized&#45;&gt;lancet.launch.Launcher</title>
<path fill="none" stroke="black" stroke-width="0.5" d="M194.049,-37.306C212.659,-38.8987 231.8,-40.5369 249.335,-42.0377"/>
<polygon fill="black" stroke="black" points="249.592,-43.816 254.723,-42.4988 249.891,-40.3288 249.592,-43.816"/>
</g>
<!-- param.parameterized.Parameterized&#45;&gt;lancet.launch.CommandTemplate -->
<g id="edge14" class="edge"><title>param.parameterized.Parameterized&#45;&gt;lancet.launch.CommandTemplate</title>
<path fill="none" stroke="black" stroke-width="0.5" d="M194.049,-20.694C204.377,-19.8101 214.868,-18.9122 225.158,-18.0316"/>
<polygon fill="black" stroke="black" points="225.358,-19.7709 230.191,-17.6008 225.06,-16.2836 225.358,-19.7709"/>
</g>
<!-- lancet.launch.QLauncher -->
<g id="node14" class="node"><title>lancet.launch.QLauncher</title>
<polygon fill="none" stroke="black" stroke-width="0.5" points="589,-58.5 455,-58.5 455,-37.5 589,-37.5 589,-58.5"/>
<text text-anchor="middle" x="522" y="-45.5" font-family="Vera" font-size="10.00">lancet.launch.QLauncher</text>
</g>
<!-- lancet.launch.Launcher&#45;&gt;lancet.launch.QLauncher -->
<g id="edge16" class="edge"><title>lancet.launch.Launcher&#45;&gt;lancet.launch.QLauncher</title>
<path fill="none" stroke="black" stroke-width="0.5" d="M383.23,-48C404.2,-48 427.634,-48 449.188,-48"/>
<polygon fill="black" stroke="black" points="449.333,-49.7501 454.333,-48 449.333,-46.2501 449.333,-49.7501"/>
</g>
<!-- lancet.launch.UnixCommand -->
<g id="node9" class="node"><title>lancet.launch.UnixCommand</title>
<polygon fill="none" stroke="black" stroke-width="0.5" points="599,-20.5 445,-20.5 445,0.5 599,0.5 599,-20.5"/>
<text text-anchor="middle" x="522" y="-7.5" font-family="Vera" font-size="10.00">lancet.launch.UnixCommand</text>
</g>
<!-- lancet.launch.CommandTemplate&#45;&gt;lancet.launch.UnixCommand -->
<g id="edge10" class="edge"><title>lancet.launch.CommandTemplate&#45;&gt;lancet.launch.UnixCommand</title>
<path fill="none" stroke="black" stroke-width="0.5" d="M407.743,-10C418.196,-10 428.831,-10 439.197,-10"/>
<polygon fill="black" stroke="black" points="439.262,-11.7501 444.262,-10 439.262,-8.2501 439.262,-11.7501"/>
</g>
</g>
</svg>
