<?xml version="1.0" encoding="UTF-8" standalone="no"?>
<!DOCTYPE svg PUBLIC "-//W3C//DTD SVG 1.1//EN"
 "http://www.w3.org/Graphics/SVG/1.1/DTD/svg11.dtd">
<!-- Generated by graphviz version 2.26.3 (20100126.1600)
 -->
<!-- Title: inheritance0bce68b9cf Pages: 1 -->
<svg width="1872pt" height="370pt"
 viewBox="0.00 0.00 1872.00 370.00" xmlns="http://www.w3.org/2000/svg" xmlns:xlink="http://www.w3.org/1999/xlink">
<g id="graph1" class="graph" transform="scale(1 1) rotate(0) translate(4 366)">
<title>inheritance0bce68b9cf</title>
<polygon fill="white" stroke="white" points="-4,5 -4,-366 1869,-366 1869,5 -4,5"/>
<!-- topo.command.analysis.measure_latency_preference -->
<g id="node1" class="node"><title>topo.command.analysis.measure_latency_preference</title>
<polygon fill="none" stroke="black" stroke-width="0.5" points="1517,-229.5 1243,-229.5 1243,-208.5 1517,-208.5 1517,-229.5"/>
<text text-anchor="middle" x="1380" y="-216.5" font-family="Vera" font-size="10.00">topo.command.analysis.measure_latency_preference</text>
</g>
<!-- topo.analysis.featureresponses.MeasureResponseCommand -->
<g id="node2" class="node"><title>topo.analysis.featureresponses.MeasureResponseCommand</title>
<polygon fill="none" stroke="black" stroke-width="0.5" points="1165,-153.5 859,-153.5 859,-132.5 1165,-132.5 1165,-153.5"/>
<text text-anchor="middle" x="1012" y="-140.5" font-family="Vera" font-size="10.00">topo.analysis.featureresponses.MeasureResponseCommand</text>
</g>
<!-- topo.analysis.featureresponses.MeasureResponseCommand&#45;&gt;topo.command.analysis.measure_latency_preference -->
<g id="edge2" class="edge"><title>topo.analysis.featureresponses.MeasureResponseCommand&#45;&gt;topo.command.analysis.measure_latency_preference</title>
<path fill="none" stroke="black" stroke-width="0.5" d="M1043.12,-153.103C1088.66,-167.754 1171.36,-193.825 1202,-200 1218.29,-203.283 1235.54,-206.024 1252.64,-208.305"/>
<polygon fill="black" stroke="black" points="1252.75,-210.085 1257.94,-208.999 1253.21,-206.615 1252.75,-210.085"/>
</g>
<!-- topo.analysis.featureresponses.SinusoidalMeasureResponseCommand -->
<g id="node8" class="node"><title>topo.analysis.featureresponses.SinusoidalMeasureResponseCommand</title>
<polygon fill="none" stroke="black" stroke-width="0.5" points="1558,-191.5 1202,-191.5 1202,-170.5 1558,-170.5 1558,-191.5"/>
<text text-anchor="middle" x="1380" y="-178.5" font-family="Vera" font-size="10.00">topo.analysis.featureresponses.SinusoidalMeasureResponseCommand</text>
</g>
<!-- topo.analysis.featureresponses.MeasureResponseCommand&#45;&gt;topo.analysis.featureresponses.SinusoidalMeasureResponseCommand -->
<g id="edge46" class="edge"><title>topo.analysis.featureresponses.MeasureResponseCommand&#45;&gt;topo.analysis.featureresponses.SinusoidalMeasureResponseCommand</title>
<path fill="none" stroke="black" stroke-width="0.5" d="M1109.17,-153.034C1161.15,-158.402 1225.14,-165.009 1277.86,-170.453"/>
<polygon fill="black" stroke="black" points="1277.77,-172.203 1282.93,-170.976 1278.13,-168.722 1277.77,-172.203"/>
</g>
<!-- topo.command.analysis.measure_frequency_preference -->
<g id="node12" class="node"><title>topo.command.analysis.measure_frequency_preference</title>
<polygon fill="none" stroke="black" stroke-width="0.5" points="1523,-153.5 1237,-153.5 1237,-132.5 1523,-132.5 1523,-153.5"/>
<text text-anchor="middle" x="1380" y="-140.5" font-family="Vera" font-size="10.00">topo.command.analysis.measure_frequency_preference</text>
</g>
<!-- topo.analysis.featureresponses.MeasureResponseCommand&#45;&gt;topo.command.analysis.measure_frequency_preference -->
<g id="edge10" class="edge"><title>topo.analysis.featureresponses.MeasureResponseCommand&#45;&gt;topo.command.analysis.measure_frequency_preference</title>
<path fill="none" stroke="black" stroke-width="0.5" d="M1165.67,-143C1187.38,-143 1209.67,-143 1231.29,-143"/>
<polygon fill="black" stroke="black" points="1231.47,-144.75 1236.47,-143 1231.47,-141.25 1231.47,-144.75"/>
</g>
<!-- topo.analysis.featureresponses.PositionMeasurementCommand -->
<g id="node15" class="node"><title>topo.analysis.featureresponses.PositionMeasurementCommand</title>
<polygon fill="none" stroke="black" stroke-width="0.5" points="1542,-115.5 1218,-115.5 1218,-94.5 1542,-94.5 1542,-115.5"/>
<text text-anchor="middle" x="1380" y="-102.5" font-family="Vera" font-size="10.00">topo.analysis.featureresponses.PositionMeasurementCommand</text>
</g>
<!-- topo.analysis.featureresponses.MeasureResponseCommand&#45;&gt;topo.analysis.featureresponses.PositionMeasurementCommand -->
<g id="edge18" class="edge"><title>topo.analysis.featureresponses.MeasureResponseCommand&#45;&gt;topo.analysis.featureresponses.PositionMeasurementCommand</title>
<path fill="none" stroke="black" stroke-width="0.5" d="M1109.17,-132.966C1161.15,-127.598 1225.14,-120.991 1277.86,-115.547"/>
<polygon fill="black" stroke="black" points="1278.13,-117.278 1282.93,-115.024 1277.77,-113.797 1278.13,-117.278"/>
</g>
<!-- topo.analysis.featureresponses.SingleInputResponseCommand -->
<g id="node39" class="node"><title>topo.analysis.featureresponses.SingleInputResponseCommand</title>
<polygon fill="none" stroke="black" stroke-width="0.5" points="1539,-77.5 1221,-77.5 1221,-56.5 1539,-56.5 1539,-77.5"/>
<text text-anchor="middle" x="1380" y="-64.5" font-family="Vera" font-size="10.00">topo.analysis.featureresponses.SingleInputResponseCommand</text>
</g>
<!-- topo.analysis.featureresponses.MeasureResponseCommand&#45;&gt;topo.analysis.featureresponses.SingleInputResponseCommand -->
<g id="edge38" class="edge"><title>topo.analysis.featureresponses.MeasureResponseCommand&#45;&gt;topo.analysis.featureresponses.SingleInputResponseCommand</title>
<path fill="none" stroke="black" stroke-width="0.5" d="M1039.6,-132.958C1076.21,-120.045 1143.09,-97.8742 1202,-86 1218.29,-82.7166 1235.54,-79.976 1252.64,-77.6945"/>
<polygon fill="black" stroke="black" points="1253.21,-79.385 1257.94,-77.0011 1252.75,-75.9146 1253.21,-79.385"/>
</g>
<!-- topo.command.analysis.measure_log_frequency_preference -->
<g id="node43" class="node"><title>topo.command.analysis.measure_log_frequency_preference</title>
<polygon fill="none" stroke="black" stroke-width="0.5" points="1533,-39.5 1227,-39.5 1227,-18.5 1533,-18.5 1533,-39.5"/>
<text text-anchor="middle" x="1380" y="-26.5" font-family="Vera" font-size="10.00">topo.command.analysis.measure_log_frequency_preference</text>
</g>
<!-- topo.analysis.featureresponses.MeasureResponseCommand&#45;&gt;topo.command.analysis.measure_log_frequency_preference -->
<g id="edge42" class="edge"><title>topo.analysis.featureresponses.MeasureResponseCommand&#45;&gt;topo.command.analysis.measure_log_frequency_preference</title>
<path fill="none" stroke="black" stroke-width="0.5" d="M1027.47,-132.833C1058.87,-112.756 1132.99,-68.219 1202,-48 1212.83,-44.8271 1224.17,-42.1721 1235.65,-39.9518"/>
<polygon fill="black" stroke="black" points="1235.99,-41.6688 1240.59,-39.0266 1235.35,-38.2289 1235.99,-41.6688"/>
</g>
<!-- topo.plotting.plotgroup.ProjectionSheetMeasurementCommand -->
<g id="node4" class="node"><title>topo.plotting.plotgroup.ProjectionSheetMeasurementCommand</title>
<polygon fill="none" stroke="black" stroke-width="0.5" points="822,-220.5 500,-220.5 500,-199.5 822,-199.5 822,-220.5"/>
<text text-anchor="middle" x="661" y="-207.5" font-family="Vera" font-size="10.00">topo.plotting.plotgroup.ProjectionSheetMeasurementCommand</text>
</g>
<!-- topo.plotting.plotgroup.UnitMeasurementCommand -->
<g id="node25" class="node"><title>topo.plotting.plotgroup.UnitMeasurementCommand</title>
<polygon fill="none" stroke="black" stroke-width="0.5" points="1145,-267.5 879,-267.5 879,-246.5 1145,-246.5 1145,-267.5"/>
<text text-anchor="middle" x="1012" y="-254.5" font-family="Vera" font-size="10.00">topo.plotting.plotgroup.UnitMeasurementCommand</text>
</g>
<!-- topo.plotting.plotgroup.ProjectionSheetMeasurementCommand&#45;&gt;topo.plotting.plotgroup.UnitMeasurementCommand -->
<g id="edge36" class="edge"><title>topo.plotting.plotgroup.ProjectionSheetMeasurementCommand&#45;&gt;topo.plotting.plotgroup.UnitMeasurementCommand</title>
<path fill="none" stroke="black" stroke-width="0.5" d="M735.868,-220.025C793.522,-227.745 873.062,-238.396 931.971,-246.284"/>
<polygon fill="black" stroke="black" points="932.059,-248.061 937.247,-246.99 932.524,-244.592 932.059,-248.061"/>
</g>
<!-- topo.command.analysis.update_projectionactivity -->
<g id="node29" class="node"><title>topo.command.analysis.update_projectionactivity</title>
<polygon fill="none" stroke="black" stroke-width="0.5" points="1139,-220.5 885,-220.5 885,-199.5 1139,-199.5 1139,-220.5"/>
<text text-anchor="middle" x="1012" y="-207.5" font-family="Vera" font-size="10.00">topo.command.analysis.update_projectionactivity</text>
</g>
<!-- topo.plotting.plotgroup.ProjectionSheetMeasurementCommand&#45;&gt;topo.command.analysis.update_projectionactivity -->
<g id="edge26" class="edge"><title>topo.plotting.plotgroup.ProjectionSheetMeasurementCommand&#45;&gt;topo.command.analysis.update_projectionactivity</title>
<path fill="none" stroke="black" stroke-width="0.5" d="M822.118,-210C841.391,-210 860.898,-210 879.699,-210"/>
<polygon fill="black" stroke="black" points="879.982,-211.75 884.982,-210 879.982,-208.25 879.982,-211.75"/>
</g>
<!-- param.parameterized.ParameterizedFunction -->
<g id="node5" class="node"><title>param.parameterized.ParameterizedFunction</title>
<polygon fill="none" stroke="black" stroke-width="0.5" points="464,-143.5 230,-143.5 230,-122.5 464,-122.5 464,-143.5"/>
<text text-anchor="middle" x="347" y="-130.5" font-family="Vera" font-size="10.00">param.parameterized.ParameterizedFunction</text>
</g>
<!-- param.parameterized.ParameterizedFunction&#45;&gt;topo.plotting.plotgroup.ProjectionSheetMeasurementCommand -->
<g id="edge4" class="edge"><title>param.parameterized.ParameterizedFunction&#45;&gt;topo.plotting.plotgroup.ProjectionSheetMeasurementCommand</title>
<path fill="none" stroke="black" stroke-width="0.5" d="M375.179,-143.015C405.649,-153.567 455.8,-170.132 500,-181 528.95,-188.118 561.226,-194.275 589.235,-199.061"/>
<polygon fill="black" stroke="black" points="589.191,-200.829 594.414,-199.939 589.776,-197.378 589.191,-200.829"/>
</g>
<!-- topo.analysis.featureresponses.PatternPresentingCommand -->
<g id="node22" class="node"><title>topo.analysis.featureresponses.PatternPresentingCommand</title>
<polygon fill="none" stroke="black" stroke-width="0.5" points="813,-172.5 509,-172.5 509,-151.5 813,-151.5 813,-172.5"/>
<text text-anchor="middle" x="661" y="-159.5" font-family="Vera" font-size="10.00">topo.analysis.featureresponses.PatternPresentingCommand</text>
</g>
<!-- param.parameterized.ParameterizedFunction&#45;&gt;topo.analysis.featureresponses.PatternPresentingCommand -->
<g id="edge32" class="edge"><title>param.parameterized.ParameterizedFunction&#45;&gt;topo.analysis.featureresponses.PatternPresentingCommand</title>
<path fill="none" stroke="black" stroke-width="0.5" d="M455.501,-143.021C485.161,-145.76 517.382,-148.736 547.323,-151.501"/>
<polygon fill="black" stroke="black" points="547.355,-153.262 552.495,-151.979 547.677,-149.776 547.355,-153.262"/>
</g>
<!-- topo.command.analysis.save_plotgroup -->
<g id="node48" class="node"><title>topo.command.analysis.save_plotgroup</title>
<polygon fill="none" stroke="black" stroke-width="0.5" points="765,-134.5 557,-134.5 557,-113.5 765,-113.5 765,-134.5"/>
<text text-anchor="middle" x="661" y="-121.5" font-family="Vera" font-size="10.00">topo.command.analysis.save_plotgroup</text>
</g>
<!-- param.parameterized.ParameterizedFunction&#45;&gt;topo.command.analysis.save_plotgroup -->
<g id="edge48" class="edge"><title>param.parameterized.ParameterizedFunction&#45;&gt;topo.command.analysis.save_plotgroup</title>
<path fill="none" stroke="black" stroke-width="0.5" d="M464.369,-129.636C492.984,-128.816 523.479,-127.942 551.702,-127.133"/>
<polygon fill="black" stroke="black" points="551.997,-128.875 556.945,-126.982 551.897,-125.377 551.997,-128.875"/>
</g>
<!-- topo.command.analysis.measure_od_pref -->
<g id="node7" class="node"><title>topo.command.analysis.measure_od_pref</title>
<polygon fill="none" stroke="black" stroke-width="0.5" points="1838,-362.5 1620,-362.5 1620,-341.5 1838,-341.5 1838,-362.5"/>
<text text-anchor="middle" x="1729" y="-349.5" font-family="Vera" font-size="10.00">topo.command.analysis.measure_od_pref</text>
</g>
<!-- topo.analysis.featureresponses.SinusoidalMeasureResponseCommand&#45;&gt;topo.command.analysis.measure_od_pref -->
<g id="edge6" class="edge"><title>topo.analysis.featureresponses.SinusoidalMeasureResponseCommand&#45;&gt;topo.command.analysis.measure_od_pref</title>
<path fill="none" stroke="black" stroke-width="0.5" d="M1545.63,-191.034C1549.96,-193.693 1554.1,-196.671 1558,-200 1604.58,-239.75 1548.09,-292.476 1594,-333 1600.32,-338.577 1607.49,-342.971 1615.16,-346.401"/>
<polygon fill="black" stroke="black" points="1614.71,-348.108 1619.99,-348.415 1616.05,-344.877 1614.71,-348.108"/>
</g>
<!-- topo.command.analysis.measure_second_or_pref -->
<g id="node31" class="node"><title>topo.command.analysis.measure_second_or_pref</title>
<polygon fill="none" stroke="black" stroke-width="0.5" points="1857,-324.5 1601,-324.5 1601,-303.5 1857,-303.5 1857,-324.5"/>
<text text-anchor="middle" x="1729" y="-311.5" font-family="Vera" font-size="10.00">topo.command.analysis.measure_second_or_pref</text>
</g>
<!-- topo.analysis.featureresponses.SinusoidalMeasureResponseCommand&#45;&gt;topo.command.analysis.measure_second_or_pref -->
<g id="edge28" class="edge"><title>topo.analysis.featureresponses.SinusoidalMeasureResponseCommand&#45;&gt;topo.command.analysis.measure_second_or_pref</title>
<path fill="none" stroke="black" stroke-width="0.5" d="M1544.41,-191.092C1549.15,-193.718 1553.69,-196.676 1558,-200 1593.74,-227.593 1558.73,-266.813 1594,-295 1596.92,-297.336 1600,-299.457 1603.2,-301.379"/>
<polygon fill="black" stroke="black" points="1602.43,-302.95 1607.64,-303.878 1604.14,-299.9 1602.43,-302.95"/>
</g>
<!-- topo.command.analysis.measure_hue_pref -->
<g id="node33" class="node"><title>topo.command.analysis.measure_hue_pref</title>
<polygon fill="none" stroke="black" stroke-width="0.5" points="1841,-286.5 1617,-286.5 1617,-265.5 1841,-265.5 1841,-286.5"/>
<text text-anchor="middle" x="1729" y="-273.5" font-family="Vera" font-size="10.00">topo.command.analysis.measure_hue_pref</text>
</g>
<!-- topo.analysis.featureresponses.SinusoidalMeasureResponseCommand&#45;&gt;topo.command.analysis.measure_hue_pref -->
<g id="edge30" class="edge"><title>topo.analysis.featureresponses.SinusoidalMeasureResponseCommand&#45;&gt;topo.command.analysis.measure_hue_pref</title>
<path fill="none" stroke="black" stroke-width="0.5" d="M1541.03,-191.105C1546.91,-193.682 1552.59,-196.632 1558,-200 1583.44,-215.837 1568.83,-240.739 1594,-257 1599.62,-260.634 1605.65,-263.696 1611.93,-266.27"/>
<polygon fill="black" stroke="black" points="1611.48,-267.972 1616.78,-268.144 1612.74,-264.708 1611.48,-267.972"/>
</g>
<!-- topo.command.analysis.measure_or_pref -->
<g id="node41" class="node"><title>topo.command.analysis.measure_or_pref</title>
<polygon fill="none" stroke="black" stroke-width="0.5" points="1837,-248.5 1621,-248.5 1621,-227.5 1837,-227.5 1837,-248.5"/>
<text text-anchor="middle" x="1729" y="-235.5" font-family="Vera" font-size="10.00">topo.command.analysis.measure_or_pref</text>
</g>
<!-- topo.analysis.featureresponses.SinusoidalMeasureResponseCommand&#45;&gt;topo.command.analysis.measure_or_pref -->
<g id="edge40" class="edge"><title>topo.analysis.featureresponses.SinusoidalMeasureResponseCommand&#45;&gt;topo.command.analysis.measure_or_pref</title>
<path fill="none" stroke="black" stroke-width="0.5" d="M1520.93,-191.009C1533.59,-193.417 1546.11,-196.374 1558,-200 1575.3,-205.277 1576.79,-213.434 1594,-219 1603.68,-222.129 1613.91,-224.743 1624.24,-226.926"/>
<polygon fill="black" stroke="black" points="1624.06,-228.677 1629.31,-227.964 1624.76,-225.248 1624.06,-228.677"/>
</g>
<!-- topo.command.analysis.measure_sine_pref -->
<g id="node45" class="node"><title>topo.command.analysis.measure_sine_pref</title>
<polygon fill="none" stroke="black" stroke-width="0.5" points="1842,-210.5 1616,-210.5 1616,-189.5 1842,-189.5 1842,-210.5"/>
<text text-anchor="middle" x="1729" y="-197.5" font-family="Vera" font-size="10.00">topo.command.analysis.measure_sine_pref</text>
</g>
<!-- topo.analysis.featureresponses.SinusoidalMeasureResponseCommand&#45;&gt;topo.command.analysis.measure_sine_pref -->
<g id="edge44" class="edge"><title>topo.analysis.featureresponses.SinusoidalMeasureResponseCommand&#45;&gt;topo.command.analysis.measure_sine_pref</title>
<path fill="none" stroke="black" stroke-width="0.5" d="M1558.08,-190.695C1575.9,-191.665 1593.67,-192.632 1610.64,-193.556"/>
<polygon fill="black" stroke="black" points="1610.79,-195.317 1615.88,-193.842 1610.99,-191.822 1610.79,-195.317"/>
</g>
<!-- topo.command.analysis.measure_phasedisparity -->
<g id="node56" class="node"><title>topo.command.analysis.measure_phasedisparity</title>
<polygon fill="none" stroke="black" stroke-width="0.5" points="1855,-172.5 1603,-172.5 1603,-151.5 1855,-151.5 1855,-172.5"/>
<text text-anchor="middle" x="1729" y="-159.5" font-family="Vera" font-size="10.00">topo.command.analysis.measure_phasedisparity</text>
</g>
<!-- topo.analysis.featureresponses.SinusoidalMeasureResponseCommand&#45;&gt;topo.command.analysis.measure_phasedisparity -->
<g id="edge56" class="edge"><title>topo.analysis.featureresponses.SinusoidalMeasureResponseCommand&#45;&gt;topo.command.analysis.measure_phasedisparity</title>
<path fill="none" stroke="black" stroke-width="0.5" d="M1558.08,-171.305C1571.43,-170.578 1584.75,-169.853 1597.74,-169.146"/>
<polygon fill="black" stroke="black" points="1597.99,-170.885 1602.89,-168.866 1597.8,-167.39 1597.99,-170.885"/>
</g>
<!-- topo.command.analysis.measure_dr_pref -->
<g id="node60" class="node"><title>topo.command.analysis.measure_dr_pref</title>
<polygon fill="none" stroke="black" stroke-width="0.5" points="1837,-134.5 1621,-134.5 1621,-113.5 1837,-113.5 1837,-134.5"/>
<text text-anchor="middle" x="1729" y="-121.5" font-family="Vera" font-size="10.00">topo.command.analysis.measure_dr_pref</text>
</g>
<!-- topo.analysis.featureresponses.SinusoidalMeasureResponseCommand&#45;&gt;topo.command.analysis.measure_dr_pref -->
<g id="edge60" class="edge"><title>topo.analysis.featureresponses.SinusoidalMeasureResponseCommand&#45;&gt;topo.command.analysis.measure_dr_pref</title>
<path fill="none" stroke="black" stroke-width="0.5" d="M1520.93,-170.991C1533.59,-168.583 1546.11,-165.626 1558,-162 1575.3,-156.723 1576.79,-148.566 1594,-143 1603.68,-139.871 1613.91,-137.257 1624.24,-135.074"/>
<polygon fill="black" stroke="black" points="1624.76,-136.752 1629.31,-134.036 1624.06,-133.323 1624.76,-136.752"/>
</g>
<!-- param.parameterized.Parameterized -->
<g id="node10" class="node"><title>param.parameterized.Parameterized</title>
<polygon fill="none" stroke="black" stroke-width="0.5" points="194,-86.5 5.68434e-14,-86.5 0,-65.5 194,-65.5 194,-86.5"/>
<text text-anchor="middle" x="97" y="-73.5" font-family="Vera" font-size="10.00">param.parameterized.Parameterized</text>
</g>
<!-- param.parameterized.Parameterized&#45;&gt;param.parameterized.ParameterizedFunction -->
<g id="edge8" class="edge"><title>param.parameterized.Parameterized&#45;&gt;param.parameterized.ParameterizedFunction</title>
<path fill="none" stroke="black" stroke-width="0.5" d="M141.12,-86.0592C185.075,-96.0811 252.414,-111.434 298.007,-121.83"/>
<polygon fill="black" stroke="black" points="297.638,-123.54 302.902,-122.946 298.416,-120.128 297.638,-123.54"/>
</g>
<!-- imagen.patterngenerator.PatternGenerator -->
<g id="node17" class="node"><title>imagen.patterngenerator.PatternGenerator</title>
<polygon fill="none" stroke="black" stroke-width="0.5" points="459,-86.5 235,-86.5 235,-65.5 459,-65.5 459,-86.5"/>
<text text-anchor="middle" x="347" y="-73.5" font-family="Vera" font-size="10.00">imagen.patterngenerator.PatternGenerator</text>
</g>
<!-- param.parameterized.Parameterized&#45;&gt;imagen.patterngenerator.PatternGenerator -->
<g id="edge14" class="edge"><title>param.parameterized.Parameterized&#45;&gt;imagen.patterngenerator.PatternGenerator</title>
<path fill="none" stroke="black" stroke-width="0.5" d="M194.014,-76C205.664,-76 217.655,-76 229.554,-76"/>
<polygon fill="black" stroke="black" points="229.647,-77.7501 234.647,-76 229.647,-74.2501 229.647,-77.7501"/>
</g>
<!-- topo.command.analysis.PatternPresenter2 -->
<g id="node19" class="node"><title>topo.command.analysis.PatternPresenter2</title>
<polygon fill="none" stroke="black" stroke-width="0.5" points="457,-48.5 237,-48.5 237,-27.5 457,-27.5 457,-48.5"/>
<text text-anchor="middle" x="347" y="-35.5" font-family="Vera" font-size="10.00">topo.command.analysis.PatternPresenter2</text>
</g>
<!-- param.parameterized.Parameterized&#45;&gt;topo.command.analysis.PatternPresenter2 -->
<g id="edge16" class="edge"><title>param.parameterized.Parameterized&#45;&gt;topo.command.analysis.PatternPresenter2</title>
<path fill="none" stroke="black" stroke-width="0.5" d="M163.012,-65.9662C197.758,-60.6848 240.394,-54.204 275.872,-48.8115"/>
<polygon fill="black" stroke="black" points="276.372,-50.5056 281.052,-48.024 275.846,-47.0454 276.372,-50.5056"/>
</g>
<!-- topo.command.analysis.measure_corner_or_pref -->
<g id="node14" class="node"><title>topo.command.analysis.measure_corner_or_pref</title>
<polygon fill="none" stroke="black" stroke-width="0.5" points="1855,-96.5 1603,-96.5 1603,-75.5 1855,-75.5 1855,-96.5"/>
<text text-anchor="middle" x="1729" y="-83.5" font-family="Vera" font-size="10.00">topo.command.analysis.measure_corner_or_pref</text>
</g>
<!-- topo.analysis.featureresponses.PositionMeasurementCommand&#45;&gt;topo.command.analysis.measure_corner_or_pref -->
<g id="edge12" class="edge"><title>topo.analysis.featureresponses.PositionMeasurementCommand&#45;&gt;topo.command.analysis.measure_corner_or_pref</title>
<path fill="none" stroke="black" stroke-width="0.5" d="M1542.24,-96.1675C1560.87,-95.1532 1579.69,-94.1288 1597.84,-93.1407"/>
<polygon fill="black" stroke="black" points="1598.04,-94.8823 1602.94,-92.863 1597.85,-91.3875 1598.04,-94.8823"/>
</g>
<!-- topo.command.analysis.measure_corner_angle_pref -->
<g id="node27" class="node"><title>topo.command.analysis.measure_corner_angle_pref</title>
<polygon fill="none" stroke="black" stroke-width="0.5" points="1863,-58.5 1595,-58.5 1595,-37.5 1863,-37.5 1863,-58.5"/>
<text text-anchor="middle" x="1729" y="-45.5" font-family="Vera" font-size="10.00">topo.command.analysis.measure_corner_angle_pref</text>
</g>
<!-- topo.analysis.featureresponses.PositionMeasurementCommand&#45;&gt;topo.command.analysis.measure_corner_angle_pref -->
<g id="edge24" class="edge"><title>topo.analysis.featureresponses.PositionMeasurementCommand&#45;&gt;topo.command.analysis.measure_corner_angle_pref</title>
<path fill="none" stroke="black" stroke-width="0.5" d="M1520.93,-94.9907C1533.59,-92.5826 1546.11,-89.6259 1558,-86 1575.3,-80.7231 1576.79,-72.5659 1594,-67 1603.68,-63.8712 1613.91,-61.2574 1624.24,-59.0739"/>
<polygon fill="black" stroke="black" points="1624.76,-60.7524 1629.31,-58.0362 1624.06,-57.3233 1624.76,-60.7524"/>
</g>
<!-- topo.command.analysis.log_frequency_mapper -->
<g id="node50" class="node"><title>topo.command.analysis.log_frequency_mapper</title>
<polygon fill="none" stroke="black" stroke-width="0.5" points="783,-96.5 539,-96.5 539,-75.5 783,-75.5 783,-96.5"/>
<text text-anchor="middle" x="661" y="-83.5" font-family="Vera" font-size="10.00">topo.command.analysis.log_frequency_mapper</text>
</g>
<!-- imagen.patterngenerator.PatternGenerator&#45;&gt;topo.command.analysis.log_frequency_mapper -->
<g id="edge50" class="edge"><title>imagen.patterngenerator.PatternGenerator&#45;&gt;topo.command.analysis.log_frequency_mapper</title>
<path fill="none" stroke="black" stroke-width="0.5" d="M459.031,-79.5679C483.203,-80.3377 508.927,-81.1569 533.635,-81.9438"/>
<polygon fill="black" stroke="black" points="533.838,-83.701 538.891,-82.1112 533.949,-80.2028 533.838,-83.701"/>
</g>
<!-- topo.command.analysis.latency_mapper -->
<g id="node54" class="node"><title>topo.command.analysis.latency_mapper</title>
<polygon fill="none" stroke="black" stroke-width="0.5" points="767,-58.5 555,-58.5 555,-37.5 767,-37.5 767,-58.5"/>
<text text-anchor="middle" x="661" y="-45.5" font-family="Vera" font-size="10.00">topo.command.analysis.latency_mapper</text>
</g>
<!-- imagen.patterngenerator.PatternGenerator&#45;&gt;topo.command.analysis.latency_mapper -->
<g id="edge54" class="edge"><title>imagen.patterngenerator.PatternGenerator&#45;&gt;topo.command.analysis.latency_mapper</title>
<path fill="none" stroke="black" stroke-width="0.5" d="M459.031,-66.0099C488.501,-63.3821 520.279,-60.5484 549.709,-57.924"/>
<polygon fill="black" stroke="black" points="549.968,-59.658 554.792,-57.4708 549.657,-56.1719 549.968,-59.658"/>
</g>
<!-- topo.command.analysis.frequency_mapper -->
<g id="node58" class="node"><title>topo.command.analysis.frequency_mapper</title>
<polygon fill="none" stroke="black" stroke-width="0.5" points="773,-20.5 549,-20.5 549,0.5 773,0.5 773,-20.5"/>
<text text-anchor="middle" x="661" y="-7.5" font-family="Vera" font-size="10.00">topo.command.analysis.frequency_mapper</text>
</g>
<!-- imagen.patterngenerator.PatternGenerator&#45;&gt;topo.command.analysis.frequency_mapper -->
<g id="edge58" class="edge"><title>imagen.patterngenerator.PatternGenerator&#45;&gt;topo.command.analysis.frequency_mapper</title>
<path fill="none" stroke="black" stroke-width="0.5" d="M437.742,-65.9338C446.796,-63.553 455.7,-60.6177 464,-57 482.582,-48.9014 481.247,-36.6924 500,-29 513.686,-23.3861 528.539,-19.2765 543.502,-16.2901"/>
<polygon fill="black" stroke="black" points="543.997,-17.9774 548.58,-15.3199 543.34,-14.5396 543.997,-17.9774"/>
</g>
<!-- topo.analysis.featureresponses.PatternPresentingCommand&#45;&gt;topo.analysis.featureresponses.MeasureResponseCommand -->
<g id="edge20" class="edge"><title>topo.analysis.featureresponses.PatternPresentingCommand&#45;&gt;topo.analysis.featureresponses.MeasureResponseCommand</title>
<path fill="none" stroke="black" stroke-width="0.5" d="M813.677,-153.735C826.734,-153.029 839.963,-152.313 853.067,-151.603"/>
<polygon fill="black" stroke="black" points="853.38,-153.339 858.278,-151.321 853.19,-149.844 853.38,-153.339"/>
</g>
<!-- topo.command.analysis.update_projection -->
<g id="node24" class="node"><title>topo.command.analysis.update_projection</title>
<polygon fill="none" stroke="black" stroke-width="0.5" points="1490,-305.5 1270,-305.5 1270,-284.5 1490,-284.5 1490,-305.5"/>
<text text-anchor="middle" x="1380" y="-292.5" font-family="Vera" font-size="10.00">topo.command.analysis.update_projection</text>
</g>
<!-- topo.plotting.plotgroup.UnitMeasurementCommand&#45;&gt;topo.command.analysis.update_projection -->
<g id="edge22" class="edge"><title>topo.plotting.plotgroup.UnitMeasurementCommand&#45;&gt;topo.command.analysis.update_projection</title>
<path fill="none" stroke="black" stroke-width="0.5" d="M1109.17,-267.034C1161.15,-272.402 1225.14,-279.009 1277.86,-284.453"/>
<polygon fill="black" stroke="black" points="1277.77,-286.203 1282.93,-284.976 1278.13,-282.722 1277.77,-286.203"/>
</g>
<!-- topo.command.analysis.update_connectionfields -->
<g id="node36" class="node"><title>topo.command.analysis.update_connectionfields</title>
<polygon fill="none" stroke="black" stroke-width="0.5" points="1505,-267.5 1255,-267.5 1255,-246.5 1505,-246.5 1505,-267.5"/>
<text text-anchor="middle" x="1380" y="-254.5" font-family="Vera" font-size="10.00">topo.command.analysis.update_connectionfields</text>
</g>
<!-- topo.plotting.plotgroup.UnitMeasurementCommand&#45;&gt;topo.command.analysis.update_connectionfields -->
<g id="edge34" class="edge"><title>topo.plotting.plotgroup.UnitMeasurementCommand&#45;&gt;topo.command.analysis.update_connectionfields</title>
<path fill="none" stroke="black" stroke-width="0.5" d="M1145.12,-257C1178.91,-257 1215.19,-257 1248.88,-257"/>
<polygon fill="black" stroke="black" points="1249.27,-258.75 1254.27,-257 1249.27,-255.25 1249.27,-258.75"/>
</g>
<!-- topo.command.analysis.measure_rfs -->
<g id="node52" class="node"><title>topo.command.analysis.measure_rfs</title>
<polygon fill="none" stroke="black" stroke-width="0.5" points="1826,-20.5 1632,-20.5 1632,0.5 1826,0.5 1826,-20.5"/>
<text text-anchor="middle" x="1729" y="-7.5" font-family="Vera" font-size="10.00">topo.command.analysis.measure_rfs</text>
</g>
<!-- topo.analysis.featureresponses.SingleInputResponseCommand&#45;&gt;topo.command.analysis.measure_rfs -->
<g id="edge52" class="edge"><title>topo.analysis.featureresponses.SingleInputResponseCommand&#45;&gt;topo.command.analysis.measure_rfs</title>
<path fill="none" stroke="black" stroke-width="0.5" d="M1520.93,-56.9907C1533.59,-54.5826 1546.11,-51.6259 1558,-48 1575.3,-42.7231 1576.79,-34.5659 1594,-29 1604.45,-25.6217 1615.54,-22.8439 1626.71,-20.5599"/>
<polygon fill="black" stroke="black" points="1627.27,-22.2317 1631.84,-19.5448 1626.6,-18.7982 1627.27,-22.2317"/>
</g>
</g>
</svg>
