<?xml version="1.0" encoding="UTF-8" standalone="no"?>
<!DOCTYPE svg PUBLIC "-//W3C//DTD SVG 1.1//EN"
 "http://www.w3.org/Graphics/SVG/1.1/DTD/svg11.dtd">
<!-- Generated by graphviz version 2.26.3 (20100126.1600)
 -->
<!-- Title: inheritance0f827376bc Pages: 1 -->
<svg width="2194pt" height="294pt"
 viewBox="0.00 0.00 2194.00 294.00" xmlns="http://www.w3.org/2000/svg" xmlns:xlink="http://www.w3.org/1999/xlink">
<g id="graph1" class="graph" transform="scale(1 1) rotate(0) translate(4 290)">
<title>inheritance0f827376bc</title>
<polygon fill="white" stroke="white" points="-4,5 -4,-290 2191,-290 2191,5 -4,5"/>
<!-- topo.analysis.featureresponses.PatternPresenter -->
<g id="node1" class="node"><title>topo.analysis.featureresponses.PatternPresenter</title>
<polygon fill="none" stroke="black" stroke-width="0.5" points="482,-286.5 232,-286.5 232,-265.5 482,-265.5 482,-286.5"/>
<text text-anchor="middle" x="357" y="-273.5" font-family="Vera" font-size="10.00">topo.analysis.featureresponses.PatternPresenter</text>
</g>
<!-- param.parameterized.Parameterized -->
<g id="node2" class="node"><title>param.parameterized.Parameterized</title>
<polygon fill="none" stroke="black" stroke-width="0.5" points="194,-172.5 5.68434e-14,-172.5 0,-151.5 194,-151.5 194,-172.5"/>
<text text-anchor="middle" x="97" y="-159.5" font-family="Vera" font-size="10.00">param.parameterized.Parameterized</text>
</g>
<!-- param.parameterized.Parameterized&#45;&gt;topo.analysis.featureresponses.PatternPresenter -->
<g id="edge2" class="edge"><title>param.parameterized.Parameterized&#45;&gt;topo.analysis.featureresponses.PatternPresenter</title>
<path fill="none" stroke="black" stroke-width="0.5" d="M107.318,-172.077C128.386,-191.991 178.705,-236.251 230,-257 237.445,-260.012 245.31,-262.552 253.328,-264.694"/>
<polygon fill="black" stroke="black" points="253.06,-266.431 258.338,-265.976 253.929,-263.041 253.06,-266.431"/>
</g>
<!-- topo.analysis.featureresponses.DistributionMatrix -->
<g id="node9" class="node"><title>topo.analysis.featureresponses.DistributionMatrix</title>
<polygon fill="none" stroke="black" stroke-width="0.5" points="484,-248.5 230,-248.5 230,-227.5 484,-227.5 484,-248.5"/>
<text text-anchor="middle" x="357" y="-235.5" font-family="Vera" font-size="10.00">topo.analysis.featureresponses.DistributionMatrix</text>
</g>
<!-- param.parameterized.Parameterized&#45;&gt;topo.analysis.featureresponses.DistributionMatrix -->
<g id="edge8" class="edge"><title>param.parameterized.Parameterized&#45;&gt;topo.analysis.featureresponses.DistributionMatrix</title>
<path fill="none" stroke="black" stroke-width="0.5" d="M116.253,-172.123C141.62,-185.018 187.951,-207.059 230,-219 241.071,-222.144 252.842,-224.793 264.58,-227.018"/>
<polygon fill="black" stroke="black" points="264.372,-228.759 269.607,-227.946 265.007,-225.317 264.372,-228.759"/>
</g>
<!-- topo.analysis.featureresponses.Feature -->
<g id="node11" class="node"><title>topo.analysis.featureresponses.Feature</title>
<polygon fill="none" stroke="black" stroke-width="0.5" points="460,-210.5 254,-210.5 254,-189.5 460,-189.5 460,-210.5"/>
<text text-anchor="middle" x="357" y="-197.5" font-family="Vera" font-size="10.00">topo.analysis.featureresponses.Feature</text>
</g>
<!-- param.parameterized.Parameterized&#45;&gt;topo.analysis.featureresponses.Feature -->
<g id="edge10" class="edge"><title>param.parameterized.Parameterized&#45;&gt;topo.analysis.featureresponses.Feature</title>
<path fill="none" stroke="black" stroke-width="0.5" d="M165.652,-172.034C201.788,-177.315 246.13,-183.796 283.027,-189.189"/>
<polygon fill="black" stroke="black" points="283.214,-190.984 288.414,-189.976 283.72,-187.521 283.214,-190.984"/>
</g>
<!-- topo.analysis.featureresponses.Subplotting -->
<g id="node13" class="node"><title>topo.analysis.featureresponses.Subplotting</title>
<polygon fill="none" stroke="black" stroke-width="0.5" points="469,-172.5 245,-172.5 245,-151.5 469,-151.5 469,-172.5"/>
<text text-anchor="middle" x="357" y="-159.5" font-family="Vera" font-size="10.00">topo.analysis.featureresponses.Subplotting</text>
</g>
<!-- param.parameterized.Parameterized&#45;&gt;topo.analysis.featureresponses.Subplotting -->
<g id="edge12" class="edge"><title>param.parameterized.Parameterized&#45;&gt;topo.analysis.featureresponses.Subplotting</title>
<path fill="none" stroke="black" stroke-width="0.5" d="M194.184,-162C208.957,-162 224.335,-162 239.485,-162"/>
<polygon fill="black" stroke="black" points="239.613,-163.75 244.613,-162 239.613,-160.25 239.613,-163.75"/>
</g>
<!-- topo.analysis.featureresponses.FullMatrix -->
<g id="node20" class="node"><title>topo.analysis.featureresponses.FullMatrix</title>
<polygon fill="none" stroke="black" stroke-width="0.5" points="464,-134.5 250,-134.5 250,-113.5 464,-113.5 464,-134.5"/>
<text text-anchor="middle" x="357" y="-121.5" font-family="Vera" font-size="10.00">topo.analysis.featureresponses.FullMatrix</text>
</g>
<!-- param.parameterized.Parameterized&#45;&gt;topo.analysis.featureresponses.FullMatrix -->
<g id="edge18" class="edge"><title>param.parameterized.Parameterized&#45;&gt;topo.analysis.featureresponses.FullMatrix</title>
<path fill="none" stroke="black" stroke-width="0.5" d="M165.652,-151.966C201.788,-146.685 246.13,-140.204 283.027,-134.811"/>
<polygon fill="black" stroke="black" points="283.72,-136.479 288.414,-134.024 283.214,-133.016 283.72,-136.479"/>
</g>
<!-- topo.base.functionfamily.PatternDrivenAnalysis -->
<g id="node22" class="node"><title>topo.base.functionfamily.PatternDrivenAnalysis</title>
<polygon fill="none" stroke="black" stroke-width="0.5" points="477,-96.5 237,-96.5 237,-75.5 477,-75.5 477,-96.5"/>
<text text-anchor="middle" x="357" y="-83.5" font-family="Vera" font-size="10.00">topo.base.functionfamily.PatternDrivenAnalysis</text>
</g>
<!-- param.parameterized.Parameterized&#45;&gt;topo.base.functionfamily.PatternDrivenAnalysis -->
<g id="edge20" class="edge"><title>param.parameterized.Parameterized&#45;&gt;topo.base.functionfamily.PatternDrivenAnalysis</title>
<path fill="none" stroke="black" stroke-width="0.5" d="M116.253,-151.877C141.62,-138.982 187.951,-116.941 230,-105 241.071,-101.856 252.842,-99.2072 264.58,-96.982"/>
<polygon fill="black" stroke="black" points="265.007,-98.6827 269.607,-96.054 264.372,-95.2409 265.007,-98.6827"/>
</g>
<!-- param.parameterized.ParameterizedFunction -->
<g id="node24" class="node"><title>param.parameterized.ParameterizedFunction</title>
<polygon fill="none" stroke="black" stroke-width="0.5" points="474,-58.5 240,-58.5 240,-37.5 474,-37.5 474,-58.5"/>
<text text-anchor="middle" x="357" y="-45.5" font-family="Vera" font-size="10.00">param.parameterized.ParameterizedFunction</text>
</g>
<!-- param.parameterized.Parameterized&#45;&gt;param.parameterized.ParameterizedFunction -->
<g id="edge22" class="edge"><title>param.parameterized.Parameterized&#45;&gt;param.parameterized.ParameterizedFunction</title>
<path fill="none" stroke="black" stroke-width="0.5" d="M107.318,-151.923C128.386,-132.009 178.705,-87.7487 230,-67 237.445,-63.9885 245.31,-61.4483 253.328,-59.3064"/>
<polygon fill="black" stroke="black" points="253.929,-60.9592 258.338,-58.0236 253.06,-57.5686 253.929,-60.9592"/>
</g>
<!-- topo.analysis.featureresponses.MeasureResponseCommand -->
<g id="node4" class="node"><title>topo.analysis.featureresponses.MeasureResponseCommand</title>
<polygon fill="none" stroke="black" stroke-width="0.5" points="1169,-58.5 863,-58.5 863,-37.5 1169,-37.5 1169,-58.5"/>
<text text-anchor="middle" x="1016" y="-45.5" font-family="Vera" font-size="10.00">topo.analysis.featureresponses.MeasureResponseCommand</text>
</g>
<!-- topo.analysis.featureresponses.PositionMeasurementCommand -->
<g id="node18" class="node"><title>topo.analysis.featureresponses.PositionMeasurementCommand</title>
<polygon fill="none" stroke="black" stroke-width="0.5" points="1546,-96.5 1222,-96.5 1222,-75.5 1546,-75.5 1546,-96.5"/>
<text text-anchor="middle" x="1384" y="-83.5" font-family="Vera" font-size="10.00">topo.analysis.featureresponses.PositionMeasurementCommand</text>
</g>
<!-- topo.analysis.featureresponses.MeasureResponseCommand&#45;&gt;topo.analysis.featureresponses.PositionMeasurementCommand -->
<g id="edge16" class="edge"><title>topo.analysis.featureresponses.MeasureResponseCommand&#45;&gt;topo.analysis.featureresponses.PositionMeasurementCommand</title>
<path fill="none" stroke="black" stroke-width="0.5" d="M1113.17,-58.0338C1165.15,-63.4018 1229.14,-70.0088 1281.86,-75.4528"/>
<polygon fill="black" stroke="black" points="1281.77,-77.203 1286.93,-75.976 1282.13,-73.7215 1281.77,-77.203"/>
</g>
<!-- topo.analysis.featureresponses.SinusoidalMeasureResponseCommand -->
<g id="node26" class="node"><title>topo.analysis.featureresponses.SinusoidalMeasureResponseCommand</title>
<polygon fill="none" stroke="black" stroke-width="0.5" points="1562,-58.5 1206,-58.5 1206,-37.5 1562,-37.5 1562,-58.5"/>
<text text-anchor="middle" x="1384" y="-45.5" font-family="Vera" font-size="10.00">topo.analysis.featureresponses.SinusoidalMeasureResponseCommand</text>
</g>
<!-- topo.analysis.featureresponses.MeasureResponseCommand&#45;&gt;topo.analysis.featureresponses.SinusoidalMeasureResponseCommand -->
<g id="edge24" class="edge"><title>topo.analysis.featureresponses.MeasureResponseCommand&#45;&gt;topo.analysis.featureresponses.SinusoidalMeasureResponseCommand</title>
<path fill="none" stroke="black" stroke-width="0.5" d="M1169.67,-48C1179.91,-48 1190.29,-48 1200.66,-48"/>
<polygon fill="black" stroke="black" points="1200.75,-49.7501 1205.75,-48 1200.75,-46.2501 1200.75,-49.7501"/>
</g>
<!-- topo.analysis.featureresponses.SingleInputResponseCommand -->
<g id="node38" class="node"><title>topo.analysis.featureresponses.SingleInputResponseCommand</title>
<polygon fill="none" stroke="black" stroke-width="0.5" points="1543,-20.5 1225,-20.5 1225,0.5 1543,0.5 1543,-20.5"/>
<text text-anchor="middle" x="1384" y="-7.5" font-family="Vera" font-size="10.00">topo.analysis.featureresponses.SingleInputResponseCommand</text>
</g>
<!-- topo.analysis.featureresponses.MeasureResponseCommand&#45;&gt;topo.analysis.featureresponses.SingleInputResponseCommand -->
<g id="edge38" class="edge"><title>topo.analysis.featureresponses.MeasureResponseCommand&#45;&gt;topo.analysis.featureresponses.SingleInputResponseCommand</title>
<path fill="none" stroke="black" stroke-width="0.5" d="M1113.17,-37.9662C1165.15,-32.5982 1229.14,-25.9912 1281.86,-20.5472"/>
<polygon fill="black" stroke="black" points="1282.13,-22.2785 1286.93,-20.024 1281.77,-18.797 1282.13,-22.2785"/>
</g>
<!-- topo.analysis.featureresponses.PatternPresentingCommand -->
<g id="node5" class="node"><title>topo.analysis.featureresponses.PatternPresentingCommand</title>
<polygon fill="none" stroke="black" stroke-width="0.5" points="825,-58.5 521,-58.5 521,-37.5 825,-37.5 825,-58.5"/>
<text text-anchor="middle" x="673" y="-45.5" font-family="Vera" font-size="10.00">topo.analysis.featureresponses.PatternPresentingCommand</text>
</g>
<!-- topo.analysis.featureresponses.PatternPresentingCommand&#45;&gt;topo.analysis.featureresponses.MeasureResponseCommand -->
<g id="edge4" class="edge"><title>topo.analysis.featureresponses.PatternPresentingCommand&#45;&gt;topo.analysis.featureresponses.MeasureResponseCommand</title>
<path fill="none" stroke="black" stroke-width="0.5" d="M825.942,-48C836.305,-48 846.759,-48 857.151,-48"/>
<polygon fill="black" stroke="black" points="857.247,-49.7501 862.247,-48 857.247,-46.2501 857.247,-49.7501"/>
</g>
<!-- topo.analysis.featureresponses.pattern_response -->
<g id="node7" class="node"><title>topo.analysis.featureresponses.pattern_response</title>
<polygon fill="none" stroke="black" stroke-width="0.5" points="1143,-20.5 889,-20.5 889,0.5 1143,0.5 1143,-20.5"/>
<text text-anchor="middle" x="1016" y="-7.5" font-family="Vera" font-size="10.00">topo.analysis.featureresponses.pattern_response</text>
</g>
<!-- topo.analysis.featureresponses.PatternPresentingCommand&#45;&gt;topo.analysis.featureresponses.pattern_response -->
<g id="edge6" class="edge"><title>topo.analysis.featureresponses.PatternPresentingCommand&#45;&gt;topo.analysis.featureresponses.pattern_response</title>
<path fill="none" stroke="black" stroke-width="0.5" d="M763.568,-37.9662C811.924,-32.609 871.418,-26.0179 920.5,-20.5801"/>
<polygon fill="black" stroke="black" points="920.743,-22.3141 925.52,-20.024 920.357,-18.8353 920.743,-22.3141"/>
</g>
<!-- topo.analysis.featureresponses.FeatureCurves -->
<g id="node15" class="node"><title>topo.analysis.featureresponses.FeatureCurves</title>
<polygon fill="none" stroke="black" stroke-width="0.5" points="1135,-172.5 897,-172.5 897,-151.5 1135,-151.5 1135,-172.5"/>
<text text-anchor="middle" x="1016" y="-159.5" font-family="Vera" font-size="10.00">topo.analysis.featureresponses.FeatureCurves</text>
</g>
<!-- topo.analysis.featureresponses.FeatureResponses -->
<g id="node16" class="node"><title>topo.analysis.featureresponses.FeatureResponses</title>
<polygon fill="none" stroke="black" stroke-width="0.5" points="801,-115.5 545,-115.5 545,-94.5 801,-94.5 801,-115.5"/>
<text text-anchor="middle" x="673" y="-102.5" font-family="Vera" font-size="10.00">topo.analysis.featureresponses.FeatureResponses</text>
</g>
<!-- topo.analysis.featureresponses.FeatureResponses&#45;&gt;topo.analysis.featureresponses.FeatureCurves -->
<g id="edge14" class="edge"><title>topo.analysis.featureresponses.FeatureResponses&#45;&gt;topo.analysis.featureresponses.FeatureCurves</title>
<path fill="none" stroke="black" stroke-width="0.5" d="M717.887,-115.021C756.072,-123.306 812.442,-134.973 862,-143 880.716,-146.032 900.782,-148.832 920.04,-151.3"/>
<polygon fill="black" stroke="black" points="920.268,-153.093 925.448,-151.987 920.709,-149.621 920.268,-153.093"/>
</g>
<!-- topo.analysis.featureresponses.FeatureMaps -->
<g id="node28" class="node"><title>topo.analysis.featureresponses.FeatureMaps</title>
<polygon fill="none" stroke="black" stroke-width="0.5" points="1131,-134.5 901,-134.5 901,-113.5 1131,-113.5 1131,-134.5"/>
<text text-anchor="middle" x="1016" y="-121.5" font-family="Vera" font-size="10.00">topo.analysis.featureresponses.FeatureMaps</text>
</g>
<!-- topo.analysis.featureresponses.FeatureResponses&#45;&gt;topo.analysis.featureresponses.FeatureMaps -->
<g id="edge26" class="edge"><title>topo.analysis.featureresponses.FeatureResponses&#45;&gt;topo.analysis.featureresponses.FeatureMaps</title>
<path fill="none" stroke="black" stroke-width="0.5" d="M801.696,-112.129C832.335,-113.826 864.92,-115.631 895.191,-117.308"/>
<polygon fill="black" stroke="black" points="895.331,-119.068 900.42,-117.598 895.525,-115.574 895.331,-119.068"/>
</g>
<!-- topo.analysis.featureresponses.ReverseCorrelation -->
<g id="node35" class="node"><title>topo.analysis.featureresponses.ReverseCorrelation</title>
<polygon fill="none" stroke="black" stroke-width="0.5" points="1146,-96.5 886,-96.5 886,-75.5 1146,-75.5 1146,-96.5"/>
<text text-anchor="middle" x="1016" y="-83.5" font-family="Vera" font-size="10.00">topo.analysis.featureresponses.ReverseCorrelation</text>
</g>
<!-- topo.analysis.featureresponses.FeatureResponses&#45;&gt;topo.analysis.featureresponses.ReverseCorrelation -->
<g id="edge34" class="edge"><title>topo.analysis.featureresponses.FeatureResponses&#45;&gt;topo.analysis.featureresponses.ReverseCorrelation</title>
<path fill="none" stroke="black" stroke-width="0.5" d="M801.696,-97.871C827.448,-96.4446 854.575,-94.9419 880.547,-93.5032"/>
<polygon fill="black" stroke="black" points="880.83,-95.2403 885.726,-93.2164 880.636,-91.7457 880.83,-95.2403"/>
</g>
<!-- topo.base.functionfamily.PatternDrivenAnalysis&#45;&gt;topo.analysis.featureresponses.FeatureResponses -->
<g id="edge32" class="edge"><title>topo.base.functionfamily.PatternDrivenAnalysis&#45;&gt;topo.analysis.featureresponses.FeatureResponses</title>
<path fill="none" stroke="black" stroke-width="0.5" d="M477.368,-93.2373C497.547,-94.4506 518.595,-95.7162 539.09,-96.9485"/>
<polygon fill="black" stroke="black" points="539.192,-98.7077 544.288,-97.261 539.402,-95.214 539.192,-98.7077"/>
</g>
<!-- param.parameterized.ParameterizedFunction&#45;&gt;topo.analysis.featureresponses.PatternPresentingCommand -->
<g id="edge36" class="edge"><title>param.parameterized.ParameterizedFunction&#45;&gt;topo.analysis.featureresponses.PatternPresentingCommand</title>
<path fill="none" stroke="black" stroke-width="0.5" d="M474.218,-48C487.593,-48 501.386,-48 515.178,-48"/>
<polygon fill="black" stroke="black" points="515.259,-49.7501 520.259,-48 515.259,-46.2501 515.259,-49.7501"/>
</g>
<!-- topo.analysis.featureresponses.FeatureCurveCommand -->
<g id="node31" class="node"><title>topo.analysis.featureresponses.FeatureCurveCommand</title>
<polygon fill="none" stroke="black" stroke-width="0.5" points="1882,-58.5 1598,-58.5 1598,-37.5 1882,-37.5 1882,-58.5"/>
<text text-anchor="middle" x="1740" y="-45.5" font-family="Vera" font-size="10.00">topo.analysis.featureresponses.FeatureCurveCommand</text>
</g>
<!-- topo.analysis.featureresponses.SinusoidalMeasureResponseCommand&#45;&gt;topo.analysis.featureresponses.FeatureCurveCommand -->
<g id="edge30" class="edge"><title>topo.analysis.featureresponses.SinusoidalMeasureResponseCommand&#45;&gt;topo.analysis.featureresponses.FeatureCurveCommand</title>
<path fill="none" stroke="black" stroke-width="0.5" d="M1562,-48C1572.21,-48 1582.43,-48 1592.51,-48"/>
<polygon fill="black" stroke="black" points="1592.76,-49.7501 1597.76,-48 1592.76,-46.2501 1592.76,-49.7501"/>
</g>
<!-- topo.analysis.featureresponses.UnitCurveCommand -->
<g id="node30" class="node"><title>topo.analysis.featureresponses.UnitCurveCommand</title>
<polygon fill="none" stroke="black" stroke-width="0.5" points="2185,-58.5 1919,-58.5 1919,-37.5 2185,-37.5 2185,-58.5"/>
<text text-anchor="middle" x="2052" y="-45.5" font-family="Vera" font-size="10.00">topo.analysis.featureresponses.UnitCurveCommand</text>
</g>
<!-- topo.analysis.featureresponses.FeatureCurveCommand&#45;&gt;topo.analysis.featureresponses.UnitCurveCommand -->
<g id="edge28" class="edge"><title>topo.analysis.featureresponses.FeatureCurveCommand&#45;&gt;topo.analysis.featureresponses.UnitCurveCommand</title>
<path fill="none" stroke="black" stroke-width="0.5" d="M1882.3,-48C1892.43,-48 1902.64,-48 1912.75,-48"/>
<polygon fill="black" stroke="black" points="1913.03,-49.7501 1918.03,-48 1913.03,-46.2501 1913.03,-49.7501"/>
</g>
</g>
</svg>
