<?xml version="1.0" encoding="UTF-8" standalone="no"?>
<!DOCTYPE svg PUBLIC "-//W3C//DTD SVG 1.1//EN"
 "http://www.w3.org/Graphics/SVG/1.1/DTD/svg11.dtd">
<!-- Generated by graphviz version 2.26.3 (20100126.1600)
 -->
<!-- Title: inheritance0f827376bc Pages: 1 -->
<svg width="2286pt" height="313pt"
 viewBox="0.00 0.00 2286.00 313.00" xmlns="http://www.w3.org/2000/svg" xmlns:xlink="http://www.w3.org/1999/xlink">
<g id="graph1" class="graph" transform="scale(1 1) rotate(0) translate(4 309)">
<title>inheritance0f827376bc</title>
<polygon fill="white" stroke="white" points="-4,5 -4,-309 2283,-309 2283,5 -4,5"/>
<!-- topo.analysis.featureresponses.UnitCurveCommand -->
<g id="node1" class="node"><title>topo.analysis.featureresponses.UnitCurveCommand</title>
<polygon fill="none" stroke="black" stroke-width="0.5" points="2277,-229.5 2011,-229.5 2011,-208.5 2277,-208.5 2277,-229.5"/>
<text text-anchor="middle" x="2144" y="-216.5" font-family="Vera" font-size="10.00">topo.analysis.featureresponses.UnitCurveCommand</text>
</g>
<!-- topo.analysis.featureresponses.FeatureCurveCommand -->
<g id="node2" class="node"><title>topo.analysis.featureresponses.FeatureCurveCommand</title>
<polygon fill="none" stroke="black" stroke-width="0.5" points="1974,-229.5 1690,-229.5 1690,-208.5 1974,-208.5 1974,-229.5"/>
<text text-anchor="middle" x="1832" y="-216.5" font-family="Vera" font-size="10.00">topo.analysis.featureresponses.FeatureCurveCommand</text>
</g>
<!-- topo.analysis.featureresponses.FeatureCurveCommand&#45;&gt;topo.analysis.featureresponses.UnitCurveCommand -->
<g id="edge2" class="edge"><title>topo.analysis.featureresponses.FeatureCurveCommand&#45;&gt;topo.analysis.featureresponses.UnitCurveCommand</title>
<path fill="none" stroke="black" stroke-width="0.5" d="M1974.3,-219C1984.43,-219 1994.64,-219 2004.75,-219"/>
<polygon fill="black" stroke="black" points="2005.03,-220.75 2010.03,-219 2005.03,-217.25 2005.03,-220.75"/>
</g>
<!-- topo.analysis.featureresponses.FeatureCurves -->
<g id="node4" class="node"><title>topo.analysis.featureresponses.FeatureCurves</title>
<polygon fill="none" stroke="black" stroke-width="0.5" points="1595,-115.5 1357,-115.5 1357,-94.5 1595,-94.5 1595,-115.5"/>
<text text-anchor="middle" x="1476" y="-102.5" font-family="Vera" font-size="10.00">topo.analysis.featureresponses.FeatureCurves</text>
</g>
<!-- topo.analysis.featureresponses.FeatureResponses -->
<g id="node5" class="node"><title>topo.analysis.featureresponses.FeatureResponses</title>
<polygon fill="none" stroke="black" stroke-width="0.5" points="1236,-77.5 980,-77.5 980,-56.5 1236,-56.5 1236,-77.5"/>
<text text-anchor="middle" x="1108" y="-64.5" font-family="Vera" font-size="10.00">topo.analysis.featureresponses.FeatureResponses</text>
</g>
<!-- topo.analysis.featureresponses.FeatureResponses&#45;&gt;topo.analysis.featureresponses.FeatureCurves -->
<g id="edge4" class="edge"><title>topo.analysis.featureresponses.FeatureResponses&#45;&gt;topo.analysis.featureresponses.FeatureCurves</title>
<path fill="none" stroke="black" stroke-width="0.5" d="M1205.17,-77.0338C1257.15,-82.4018 1321.14,-89.0088 1373.86,-94.4528"/>
<polygon fill="black" stroke="black" points="1373.77,-96.203 1378.93,-94.976 1374.13,-92.7215 1373.77,-96.203"/>
</g>
<!-- topo.analysis.featureresponses.FeatureMaps -->
<g id="node27" class="node"><title>topo.analysis.featureresponses.FeatureMaps</title>
<polygon fill="none" stroke="black" stroke-width="0.5" points="1591,-77.5 1361,-77.5 1361,-56.5 1591,-56.5 1591,-77.5"/>
<text text-anchor="middle" x="1476" y="-64.5" font-family="Vera" font-size="10.00">topo.analysis.featureresponses.FeatureMaps</text>
</g>
<!-- topo.analysis.featureresponses.FeatureResponses&#45;&gt;topo.analysis.featureresponses.FeatureMaps -->
<g id="edge22" class="edge"><title>topo.analysis.featureresponses.FeatureResponses&#45;&gt;topo.analysis.featureresponses.FeatureMaps</title>
<path fill="none" stroke="black" stroke-width="0.5" d="M1236.71,-67C1275.19,-67 1317.23,-67 1355.19,-67"/>
<polygon fill="black" stroke="black" points="1355.27,-68.7501 1360.27,-67 1355.27,-65.2501 1355.27,-68.7501"/>
</g>
<!-- topo.analysis.featureresponses.ReverseCorrelation -->
<g id="node29" class="node"><title>topo.analysis.featureresponses.ReverseCorrelation</title>
<polygon fill="none" stroke="black" stroke-width="0.5" points="1606,-39.5 1346,-39.5 1346,-18.5 1606,-18.5 1606,-39.5"/>
<text text-anchor="middle" x="1476" y="-26.5" font-family="Vera" font-size="10.00">topo.analysis.featureresponses.ReverseCorrelation</text>
</g>
<!-- topo.analysis.featureresponses.FeatureResponses&#45;&gt;topo.analysis.featureresponses.ReverseCorrelation -->
<g id="edge24" class="edge"><title>topo.analysis.featureresponses.FeatureResponses&#45;&gt;topo.analysis.featureresponses.ReverseCorrelation</title>
<path fill="none" stroke="black" stroke-width="0.5" d="M1205.17,-56.9662C1257.15,-51.5982 1321.14,-44.9912 1373.86,-39.5472"/>
<polygon fill="black" stroke="black" points="1374.13,-41.2785 1378.93,-39.024 1373.77,-37.797 1374.13,-41.2785"/>
</g>
<!-- topo.analysis.featureresponses.contrast2centersurroundscale -->
<g id="node7" class="node"><title>topo.analysis.featureresponses.contrast2centersurroundscale</title>
<polygon fill="none" stroke="black" stroke-width="0.5" points="918,-305.5 604,-305.5 604,-284.5 918,-284.5 918,-305.5"/>
<text text-anchor="middle" x="761" y="-292.5" font-family="Vera" font-size="10.00">topo.analysis.featureresponses.contrast2centersurroundscale</text>
</g>
<!-- param.parameterized.ParameterizedFunction -->
<g id="node8" class="node"><title>param.parameterized.ParameterizedFunction</title>
<polygon fill="none" stroke="black" stroke-width="0.5" points="558,-172.5 324,-172.5 324,-151.5 558,-151.5 558,-172.5"/>
<text text-anchor="middle" x="441" y="-159.5" font-family="Vera" font-size="10.00">param.parameterized.ParameterizedFunction</text>
</g>
<!-- param.parameterized.ParameterizedFunction&#45;&gt;topo.analysis.featureresponses.contrast2centersurroundscale -->
<g id="edge6" class="edge"><title>param.parameterized.ParameterizedFunction&#45;&gt;topo.analysis.featureresponses.contrast2centersurroundscale</title>
<path fill="none" stroke="black" stroke-width="0.5" d="M451.361,-172.091C475.659,-195.066 539.171,-251.2 604,-276 611.751,-278.965 619.861,-281.495 628.136,-283.651"/>
<polygon fill="black" stroke="black" points="628.033,-285.429 633.308,-284.946 628.883,-282.034 628.033,-285.429"/>
</g>
<!-- topo.analysis.featureresponses.contrast2scale -->
<g id="node23" class="node"><title>topo.analysis.featureresponses.contrast2scale</title>
<polygon fill="none" stroke="black" stroke-width="0.5" points="881,-267.5 641,-267.5 641,-246.5 881,-246.5 881,-267.5"/>
<text text-anchor="middle" x="761" y="-254.5" font-family="Vera" font-size="10.00">topo.analysis.featureresponses.contrast2scale</text>
</g>
<!-- param.parameterized.ParameterizedFunction&#45;&gt;topo.analysis.featureresponses.contrast2scale -->
<g id="edge18" class="edge"><title>param.parameterized.ParameterizedFunction&#45;&gt;topo.analysis.featureresponses.contrast2scale</title>
<path fill="none" stroke="black" stroke-width="0.5" d="M457.906,-172.091C486.763,-188.799 547.86,-221.956 604,-238 615.203,-241.202 627.006,-243.864 638.903,-246.078"/>
<polygon fill="black" stroke="black" points="638.774,-247.833 644.005,-246.999 639.396,-244.388 638.774,-247.833"/>
</g>
<!-- topo.analysis.featureresponses.phasedisparity2leftrightphase -->
<g id="node25" class="node"><title>topo.analysis.featureresponses.phasedisparity2leftrightphase</title>
<polygon fill="none" stroke="black" stroke-width="0.5" points="916,-229.5 606,-229.5 606,-208.5 916,-208.5 916,-229.5"/>
<text text-anchor="middle" x="761" y="-216.5" font-family="Vera" font-size="10.00">topo.analysis.featureresponses.phasedisparity2leftrightphase</text>
</g>
<!-- param.parameterized.ParameterizedFunction&#45;&gt;topo.analysis.featureresponses.phasedisparity2leftrightphase -->
<g id="edge20" class="edge"><title>param.parameterized.ParameterizedFunction&#45;&gt;topo.analysis.featureresponses.phasedisparity2leftrightphase</title>
<path fill="none" stroke="black" stroke-width="0.5" d="M478.637,-172.001C511.521,-180.443 560.648,-192.347 604,-200 621.794,-203.141 640.815,-205.923 659.257,-208.323"/>
<polygon fill="black" stroke="black" points="659.259,-210.087 664.441,-208.99 659.706,-206.616 659.259,-210.087"/>
</g>
<!-- topo.analysis.featureresponses.ocular2leftrightscale -->
<g id="node33" class="node"><title>topo.analysis.featureresponses.ocular2leftrightscale</title>
<polygon fill="none" stroke="black" stroke-width="0.5" points="894,-191.5 628,-191.5 628,-170.5 894,-170.5 894,-191.5"/>
<text text-anchor="middle" x="761" y="-178.5" font-family="Vera" font-size="10.00">topo.analysis.featureresponses.ocular2leftrightscale</text>
</g>
<!-- param.parameterized.ParameterizedFunction&#45;&gt;topo.analysis.featureresponses.ocular2leftrightscale -->
<g id="edge28" class="edge"><title>param.parameterized.ParameterizedFunction&#45;&gt;topo.analysis.featureresponses.ocular2leftrightscale</title>
<path fill="none" stroke="black" stroke-width="0.5" d="M558.339,-168.967C579.311,-170.212 601.339,-171.52 622.83,-172.796"/>
<polygon fill="black" stroke="black" points="622.893,-174.553 627.988,-173.102 623.101,-171.059 622.893,-174.553"/>
</g>
<!-- topo.analysis.featureresponses.PatternPresentingCommand -->
<g id="node36" class="node"><title>topo.analysis.featureresponses.PatternPresentingCommand</title>
<polygon fill="none" stroke="black" stroke-width="0.5" points="913,-153.5 609,-153.5 609,-132.5 913,-132.5 913,-153.5"/>
<text text-anchor="middle" x="761" y="-140.5" font-family="Vera" font-size="10.00">topo.analysis.featureresponses.PatternPresentingCommand</text>
</g>
<!-- param.parameterized.ParameterizedFunction&#45;&gt;topo.analysis.featureresponses.PatternPresentingCommand -->
<g id="edge34" class="edge"><title>param.parameterized.ParameterizedFunction&#45;&gt;topo.analysis.featureresponses.PatternPresentingCommand</title>
<path fill="none" stroke="black" stroke-width="0.5" d="M558.339,-155.033C573.003,-154.162 588.182,-153.261 603.334,-152.361"/>
<polygon fill="black" stroke="black" points="603.583,-154.1 608.47,-152.056 603.375,-150.606 603.583,-154.1"/>
</g>
<!-- topo.analysis.featureresponses.hue2rgbscale -->
<g id="node41" class="node"><title>topo.analysis.featureresponses.hue2rgbscale</title>
<polygon fill="none" stroke="black" stroke-width="0.5" points="878,-115.5 644,-115.5 644,-94.5 878,-94.5 878,-115.5"/>
<text text-anchor="middle" x="761" y="-102.5" font-family="Vera" font-size="10.00">topo.analysis.featureresponses.hue2rgbscale</text>
</g>
<!-- param.parameterized.ParameterizedFunction&#45;&gt;topo.analysis.featureresponses.hue2rgbscale -->
<g id="edge38" class="edge"><title>param.parameterized.ParameterizedFunction&#45;&gt;topo.analysis.featureresponses.hue2rgbscale</title>
<path fill="none" stroke="black" stroke-width="0.5" d="M533.085,-151.987C544.978,-149.601 556.879,-146.649 568,-143 585.19,-137.359 586.733,-129.399 604,-124 615.121,-120.523 626.869,-117.677 638.731,-115.348"/>
<polygon fill="black" stroke="black" points="639.234,-117.033 643.82,-114.381 638.581,-113.595 639.234,-117.033"/>
</g>
<!-- topo.base.functionfamily.PatternDrivenAnalysis -->
<g id="node44" class="node"><title>topo.base.functionfamily.PatternDrivenAnalysis</title>
<polygon fill="none" stroke="black" stroke-width="0.5" points="881,-77.5 641,-77.5 641,-56.5 881,-56.5 881,-77.5"/>
<text text-anchor="middle" x="761" y="-64.5" font-family="Vera" font-size="10.00">topo.base.functionfamily.PatternDrivenAnalysis</text>
</g>
<!-- param.parameterized.ParameterizedFunction&#45;&gt;topo.base.functionfamily.PatternDrivenAnalysis -->
<g id="edge40" class="edge"><title>param.parameterized.ParameterizedFunction&#45;&gt;topo.base.functionfamily.PatternDrivenAnalysis</title>
<path fill="none" stroke="black" stroke-width="0.5" d="M551.02,-151.878C556.968,-149.405 562.678,-146.471 568,-143 593.096,-126.63 578.677,-102.016 604,-86 613.847,-79.7718 624.744,-75.0865 636.072,-71.6035"/>
<polygon fill="black" stroke="black" points="636.64,-73.261 640.951,-70.1834 635.662,-69.9004 636.64,-73.261"/>
</g>
<!-- topo.analysis.featureresponses.direction2translation -->
<g id="node50" class="node"><title>topo.analysis.featureresponses.direction2translation</title>
<polygon fill="none" stroke="black" stroke-width="0.5" points="895,-39.5 627,-39.5 627,-18.5 895,-18.5 895,-39.5"/>
<text text-anchor="middle" x="761" y="-26.5" font-family="Vera" font-size="10.00">topo.analysis.featureresponses.direction2translation</text>
</g>
<!-- param.parameterized.ParameterizedFunction&#45;&gt;topo.analysis.featureresponses.direction2translation -->
<g id="edge48" class="edge"><title>param.parameterized.ParameterizedFunction&#45;&gt;topo.analysis.featureresponses.direction2translation</title>
<path fill="none" stroke="black" stroke-width="0.5" d="M554.301,-151.899C559.146,-149.374 563.748,-146.428 568,-143 603.151,-114.66 568.455,-75.8438 604,-48 609.512,-43.6826 615.483,-40.0367 621.768,-36.9715"/>
<polygon fill="black" stroke="black" points="622.818,-38.4152 626.632,-34.7392 621.358,-35.2341 622.818,-38.4152"/>
</g>
<!-- topo.analysis.featureresponses.Feature -->
<g id="node10" class="node"><title>topo.analysis.featureresponses.Feature</title>
<polygon fill="none" stroke="black" stroke-width="0.5" points="544,-134.5 338,-134.5 338,-113.5 544,-113.5 544,-134.5"/>
<text text-anchor="middle" x="441" y="-121.5" font-family="Vera" font-size="10.00">topo.analysis.featureresponses.Feature</text>
</g>
<!-- param.parameterized.Parameterized -->
<g id="node11" class="node"><title>param.parameterized.Parameterized</title>
<polygon fill="none" stroke="black" stroke-width="0.5" points="236,-96.5 42,-96.5 42,-75.5 236,-75.5 236,-96.5"/>
<text text-anchor="middle" x="139" y="-83.5" font-family="Vera" font-size="10.00">param.parameterized.Parameterized</text>
</g>
<!-- param.parameterized.Parameterized&#45;&gt;param.parameterized.ParameterizedFunction -->
<g id="edge30" class="edge"><title>param.parameterized.Parameterized&#45;&gt;param.parameterized.ParameterizedFunction</title>
<path fill="none" stroke="black" stroke-width="0.5" d="M236.175,-90.703C250.698,-93.8161 265.107,-98.3834 278,-105 298.698,-115.622 293.37,-132.247 314,-143 319.329,-145.777 324.943,-148.18 330.724,-150.257"/>
<polygon fill="black" stroke="black" points="330.319,-151.968 335.616,-151.926 331.449,-148.656 330.319,-151.968"/>
</g>
<!-- param.parameterized.Parameterized&#45;&gt;topo.analysis.featureresponses.Feature -->
<g id="edge8" class="edge"><title>param.parameterized.Parameterized&#45;&gt;topo.analysis.featureresponses.Feature</title>
<path fill="none" stroke="black" stroke-width="0.5" d="M218.742,-96.0338C261.06,-101.358 313.065,-107.902 356.129,-113.321"/>
<polygon fill="black" stroke="black" points="356.156,-115.088 361.335,-113.976 356.593,-111.615 356.156,-115.088"/>
</g>
<!-- topo.analysis.featureresponses.FullMatrix -->
<g id="node16" class="node"><title>topo.analysis.featureresponses.FullMatrix</title>
<polygon fill="none" stroke="black" stroke-width="0.5" points="548,-96.5 334,-96.5 334,-75.5 548,-75.5 548,-96.5"/>
<text text-anchor="middle" x="441" y="-83.5" font-family="Vera" font-size="10.00">topo.analysis.featureresponses.FullMatrix</text>
</g>
<!-- param.parameterized.Parameterized&#45;&gt;topo.analysis.featureresponses.FullMatrix -->
<g id="edge12" class="edge"><title>param.parameterized.Parameterized&#45;&gt;topo.analysis.featureresponses.FullMatrix</title>
<path fill="none" stroke="black" stroke-width="0.5" d="M236.217,-86C265.639,-86 298.194,-86 328.526,-86"/>
<polygon fill="black" stroke="black" points="328.767,-87.7501 333.767,-86 328.767,-84.2501 328.767,-87.7501"/>
</g>
<!-- topo.analysis.featureresponses.DistributionMatrix -->
<g id="node39" class="node"><title>topo.analysis.featureresponses.DistributionMatrix</title>
<polygon fill="none" stroke="black" stroke-width="0.5" points="568,-58.5 314,-58.5 314,-37.5 568,-37.5 568,-58.5"/>
<text text-anchor="middle" x="441" y="-45.5" font-family="Vera" font-size="10.00">topo.analysis.featureresponses.DistributionMatrix</text>
</g>
<!-- param.parameterized.Parameterized&#45;&gt;topo.analysis.featureresponses.DistributionMatrix -->
<g id="edge36" class="edge"><title>param.parameterized.Parameterized&#45;&gt;topo.analysis.featureresponses.DistributionMatrix</title>
<path fill="none" stroke="black" stroke-width="0.5" d="M218.742,-75.9662C261.06,-70.6415 313.065,-64.0977 356.129,-58.6791"/>
<polygon fill="black" stroke="black" points="356.593,-60.3847 361.335,-58.024 356.156,-56.912 356.593,-60.3847"/>
</g>
<!-- topo.analysis.featureresponses.Subplotting -->
<g id="node47" class="node"><title>topo.analysis.featureresponses.Subplotting</title>
<polygon fill="none" stroke="black" stroke-width="0.5" points="553,-20.5 329,-20.5 329,0.5 553,0.5 553,-20.5"/>
<text text-anchor="middle" x="441" y="-7.5" font-family="Vera" font-size="10.00">topo.analysis.featureresponses.Subplotting</text>
</g>
<!-- param.parameterized.Parameterized&#45;&gt;topo.analysis.featureresponses.Subplotting -->
<g id="edge44" class="edge"><title>param.parameterized.Parameterized&#45;&gt;topo.analysis.featureresponses.Subplotting</title>
<path fill="none" stroke="black" stroke-width="0.5" d="M165.292,-75.913C199.194,-63.2616 260.198,-41.6933 314,-29 327.238,-25.8769 341.379,-23.1632 355.24,-20.8413"/>
<polygon fill="black" stroke="black" points="355.683,-22.5421 360.333,-20.0035 355.115,-19.0885 355.683,-22.5421"/>
</g>
<!-- topo.analysis.featureresponses.SingleInputResponseCommand -->
<g id="node13" class="node"><title>topo.analysis.featureresponses.SingleInputResponseCommand</title>
<polygon fill="none" stroke="black" stroke-width="0.5" points="1635,-267.5 1317,-267.5 1317,-246.5 1635,-246.5 1635,-267.5"/>
<text text-anchor="middle" x="1476" y="-254.5" font-family="Vera" font-size="10.00">topo.analysis.featureresponses.SingleInputResponseCommand</text>
</g>
<!-- topo.analysis.featureresponses.MeasureResponseCommand -->
<g id="node14" class="node"><title>topo.analysis.featureresponses.MeasureResponseCommand</title>
<polygon fill="none" stroke="black" stroke-width="0.5" points="1261,-210.5 955,-210.5 955,-189.5 1261,-189.5 1261,-210.5"/>
<text text-anchor="middle" x="1108" y="-197.5" font-family="Vera" font-size="10.00">topo.analysis.featureresponses.MeasureResponseCommand</text>
</g>
<!-- topo.analysis.featureresponses.MeasureResponseCommand&#45;&gt;topo.analysis.featureresponses.SingleInputResponseCommand -->
<g id="edge10" class="edge"><title>topo.analysis.featureresponses.MeasureResponseCommand&#45;&gt;topo.analysis.featureresponses.SingleInputResponseCommand</title>
<path fill="none" stroke="black" stroke-width="0.5" d="M1152.33,-210.056C1190.71,-218.475 1247.79,-230.315 1298,-238 1318.62,-241.156 1340.66,-243.963 1361.97,-246.387"/>
<polygon fill="black" stroke="black" points="1361.91,-248.142 1367.07,-246.963 1362.3,-244.664 1361.91,-248.142"/>
</g>
<!-- topo.analysis.featureresponses.SinusoidalMeasureResponseCommand -->
<g id="node18" class="node"><title>topo.analysis.featureresponses.SinusoidalMeasureResponseCommand</title>
<polygon fill="none" stroke="black" stroke-width="0.5" points="1654,-229.5 1298,-229.5 1298,-208.5 1654,-208.5 1654,-229.5"/>
<text text-anchor="middle" x="1476" y="-216.5" font-family="Vera" font-size="10.00">topo.analysis.featureresponses.SinusoidalMeasureResponseCommand</text>
</g>
<!-- topo.analysis.featureresponses.MeasureResponseCommand&#45;&gt;topo.analysis.featureresponses.SinusoidalMeasureResponseCommand -->
<g id="edge46" class="edge"><title>topo.analysis.featureresponses.MeasureResponseCommand&#45;&gt;topo.analysis.featureresponses.SinusoidalMeasureResponseCommand</title>
<path fill="none" stroke="black" stroke-width="0.5" d="M1261.67,-207.934C1271.91,-208.463 1282.29,-208.999 1292.66,-209.534"/>
<polygon fill="black" stroke="black" points="1292.67,-211.287 1297.75,-209.797 1292.85,-207.792 1292.67,-211.287"/>
</g>
<!-- topo.analysis.featureresponses.PositionMeasurementCommand -->
<g id="node31" class="node"><title>topo.analysis.featureresponses.PositionMeasurementCommand</title>
<polygon fill="none" stroke="black" stroke-width="0.5" points="1638,-191.5 1314,-191.5 1314,-170.5 1638,-170.5 1638,-191.5"/>
<text text-anchor="middle" x="1476" y="-178.5" font-family="Vera" font-size="10.00">topo.analysis.featureresponses.PositionMeasurementCommand</text>
</g>
<!-- topo.analysis.featureresponses.MeasureResponseCommand&#45;&gt;topo.analysis.featureresponses.PositionMeasurementCommand -->
<g id="edge26" class="edge"><title>topo.analysis.featureresponses.MeasureResponseCommand&#45;&gt;topo.analysis.featureresponses.PositionMeasurementCommand</title>
<path fill="none" stroke="black" stroke-width="0.5" d="M1261.67,-192.066C1277.16,-191.266 1292.95,-190.451 1308.58,-189.644"/>
<polygon fill="black" stroke="black" points="1308.97,-191.376 1313.87,-189.371 1308.79,-187.881 1308.97,-191.376"/>
</g>
<!-- topo.analysis.featureresponses.SinusoidalMeasureResponseCommand&#45;&gt;topo.analysis.featureresponses.FeatureCurveCommand -->
<g id="edge14" class="edge"><title>topo.analysis.featureresponses.SinusoidalMeasureResponseCommand&#45;&gt;topo.analysis.featureresponses.FeatureCurveCommand</title>
<path fill="none" stroke="black" stroke-width="0.5" d="M1654,-219C1664.21,-219 1674.43,-219 1684.51,-219"/>
<polygon fill="black" stroke="black" points="1684.76,-220.75 1689.76,-219 1684.76,-217.25 1684.76,-220.75"/>
</g>
<!-- topo.analysis.featureresponses.pattern_response -->
<g id="node20" class="node"><title>topo.analysis.featureresponses.pattern_response</title>
<polygon fill="none" stroke="black" stroke-width="0.5" points="1603,-153.5 1349,-153.5 1349,-132.5 1603,-132.5 1603,-153.5"/>
<text text-anchor="middle" x="1476" y="-140.5" font-family="Vera" font-size="10.00">topo.analysis.featureresponses.pattern_response</text>
</g>
<!-- topo.analysis.featureresponses.pattern_present -->
<g id="node21" class="node"><title>topo.analysis.featureresponses.pattern_present</title>
<polygon fill="none" stroke="black" stroke-width="0.5" points="1231,-153.5 985,-153.5 985,-132.5 1231,-132.5 1231,-153.5"/>
<text text-anchor="middle" x="1108" y="-140.5" font-family="Vera" font-size="10.00">topo.analysis.featureresponses.pattern_present</text>
</g>
<!-- topo.analysis.featureresponses.pattern_present&#45;&gt;topo.analysis.featureresponses.pattern_response -->
<g id="edge16" class="edge"><title>topo.analysis.featureresponses.pattern_present&#45;&gt;topo.analysis.featureresponses.pattern_response</title>
<path fill="none" stroke="black" stroke-width="0.5" d="M1231.56,-143C1267.58,-143 1307.08,-143 1343.63,-143"/>
<polygon fill="black" stroke="black" points="1344,-144.75 1349,-143 1343.99,-141.25 1344,-144.75"/>
</g>
<!-- topo.analysis.featureresponses.PatternPresentingCommand&#45;&gt;topo.analysis.featureresponses.MeasureResponseCommand -->
<g id="edge42" class="edge"><title>topo.analysis.featureresponses.PatternPresentingCommand&#45;&gt;topo.analysis.featureresponses.MeasureResponseCommand</title>
<path fill="none" stroke="black" stroke-width="0.5" d="M853.731,-153.022C874.897,-155.642 897.261,-158.676 918,-162 965.682,-169.642 1019.63,-180.662 1057.83,-188.869"/>
<polygon fill="black" stroke="black" points="1057.62,-190.614 1062.88,-189.957 1058.36,-187.193 1057.62,-190.614"/>
</g>
<!-- topo.analysis.featureresponses.PatternPresentingCommand&#45;&gt;topo.analysis.featureresponses.pattern_present -->
<g id="edge32" class="edge"><title>topo.analysis.featureresponses.PatternPresentingCommand&#45;&gt;topo.analysis.featureresponses.pattern_present</title>
<path fill="none" stroke="black" stroke-width="0.5" d="M913.704,-143C935.588,-143 957.919,-143 979.278,-143"/>
<polygon fill="black" stroke="black" points="979.395,-144.75 984.395,-143 979.395,-141.25 979.395,-144.75"/>
</g>
<!-- topo.analysis.featureresponses.MeasurementInterrupt -->
<g id="node43" class="node"><title>topo.analysis.featureresponses.MeasurementInterrupt</title>
<polygon fill="none" stroke="black" stroke-width="0.5" points="278,-134.5 1.13687e-13,-134.5 0,-113.5 278,-113.5 278,-134.5"/>
<text text-anchor="middle" x="139" y="-121.5" font-family="Vera" font-size="10.00">topo.analysis.featureresponses.MeasurementInterrupt</text>
</g>
<!-- topo.base.functionfamily.PatternDrivenAnalysis&#45;&gt;topo.analysis.featureresponses.FeatureResponses -->
<g id="edge50" class="edge"><title>topo.base.functionfamily.PatternDrivenAnalysis&#45;&gt;topo.analysis.featureresponses.FeatureResponses</title>
<path fill="none" stroke="black" stroke-width="0.5" d="M881.39,-67C911.274,-67 943.485,-67 973.977,-67"/>
<polygon fill="black" stroke="black" points="974.251,-68.7501 979.251,-67 974.251,-65.2501 974.251,-68.7501"/>
</g>
</g>
</svg>
