<?xml version="1.0" encoding="UTF-8" standalone="no"?>
<!DOCTYPE svg PUBLIC "-//W3C//DTD SVG 1.1//EN"
 "http://www.w3.org/Graphics/SVG/1.1/DTD/svg11.dtd">
<!-- Generated by graphviz version 2.26.3 (20100126.1600)
 -->
<!-- Title: inheritance8ed98380c7 Pages: 1 -->
<svg width="750pt" height="180pt"
 viewBox="0.00 0.00 750.00 180.00" xmlns="http://www.w3.org/2000/svg" xmlns:xlink="http://www.w3.org/1999/xlink">
<g id="graph1" class="graph" transform="scale(1 1) rotate(0) translate(4 176)">
<title>inheritance8ed98380c7</title>
<polygon fill="white" stroke="white" points="-4,5 -4,-176 747,-176 747,5 -4,5"/>
<!-- topo.base.functionfamily.Hebbian -->
<g id="node1" class="node"><title>topo.base.functionfamily.Hebbian</title>
<polygon fill="none" stroke="black" stroke-width="0.5" points="710,-172.5 534,-172.5 534,-151.5 710,-151.5 710,-172.5"/>
<text text-anchor="middle" x="622" y="-159.5" font-family="Vera" font-size="10.00">topo.base.functionfamily.Hebbian</text>
</g>
<!-- topo.base.functionfamily.LearningFn -->
<g id="node2" class="node"><title>topo.base.functionfamily.LearningFn</title>
<polygon fill="none" stroke="black" stroke-width="0.5" points="442,-134.5 254,-134.5 254,-113.5 442,-113.5 442,-134.5"/>
<text text-anchor="middle" x="348" y="-121.5" font-family="Vera" font-size="10.00">topo.base.functionfamily.LearningFn</text>
</g>
<!-- topo.base.functionfamily.LearningFn&#45;&gt;topo.base.functionfamily.Hebbian -->
<g id="edge2" class="edge"><title>topo.base.functionfamily.LearningFn&#45;&gt;topo.base.functionfamily.Hebbian</title>
<path fill="none" stroke="black" stroke-width="0.5" d="M420.349,-134.034C458.587,-139.337 505.544,-145.849 544.521,-151.255"/>
<polygon fill="black" stroke="black" points="544.528,-153.022 549.721,-151.976 545.009,-149.556 544.528,-153.022"/>
</g>
<!-- topo.base.functionfamily.IdentityLF -->
<g id="node10" class="node"><title>topo.base.functionfamily.IdentityLF</title>
<polygon fill="none" stroke="black" stroke-width="0.5" points="713,-134.5 531,-134.5 531,-113.5 713,-113.5 713,-134.5"/>
<text text-anchor="middle" x="622" y="-121.5" font-family="Vera" font-size="10.00">topo.base.functionfamily.IdentityLF</text>
</g>
<!-- topo.base.functionfamily.LearningFn&#45;&gt;topo.base.functionfamily.IdentityLF -->
<g id="edge10" class="edge"><title>topo.base.functionfamily.LearningFn&#45;&gt;topo.base.functionfamily.IdentityLF</title>
<path fill="none" stroke="black" stroke-width="0.5" d="M442.295,-124C469.256,-124 498.667,-124 525.743,-124"/>
<polygon fill="black" stroke="black" points="525.771,-125.75 530.771,-124 525.771,-122.25 525.771,-125.75"/>
</g>
<!-- param.parameterized.Parameterized -->
<g id="node4" class="node"><title>param.parameterized.Parameterized</title>
<polygon fill="none" stroke="black" stroke-width="0.5" points="194,-77.5 5.68434e-14,-77.5 0,-56.5 194,-56.5 194,-77.5"/>
<text text-anchor="middle" x="97" y="-64.5" font-family="Vera" font-size="10.00">param.parameterized.Parameterized</text>
</g>
<!-- param.parameterized.Parameterized&#45;&gt;topo.base.functionfamily.LearningFn -->
<g id="edge4" class="edge"><title>param.parameterized.Parameterized&#45;&gt;topo.base.functionfamily.LearningFn</title>
<path fill="none" stroke="black" stroke-width="0.5" d="M128.172,-77.0418C154.956,-85.3957 194.722,-97.1491 230,-105 243.439,-107.991 257.839,-110.708 271.798,-113.092"/>
<polygon fill="black" stroke="black" points="271.697,-114.849 276.919,-113.955 272.279,-111.398 271.697,-114.849"/>
</g>
<!-- topo.base.functionfamily.ResponseFn -->
<g id="node6" class="node"><title>topo.base.functionfamily.ResponseFn</title>
<polygon fill="none" stroke="black" stroke-width="0.5" points="444,-96.5 252,-96.5 252,-75.5 444,-75.5 444,-96.5"/>
<text text-anchor="middle" x="348" y="-83.5" font-family="Vera" font-size="10.00">topo.base.functionfamily.ResponseFn</text>
</g>
<!-- param.parameterized.Parameterized&#45;&gt;topo.base.functionfamily.ResponseFn -->
<g id="edge6" class="edge"><title>param.parameterized.Parameterized&#45;&gt;topo.base.functionfamily.ResponseFn</title>
<path fill="none" stroke="black" stroke-width="0.5" d="M194.043,-74.3459C211.046,-75.6329 228.784,-76.9757 245.918,-78.2727"/>
<polygon fill="black" stroke="black" points="246.097,-80.0412 251.215,-78.6736 246.361,-76.5511 246.097,-80.0412"/>
</g>
<!-- topo.base.functionfamily.CoordinateMapperFn -->
<g id="node8" class="node"><title>topo.base.functionfamily.CoordinateMapperFn</title>
<polygon fill="none" stroke="black" stroke-width="0.5" points="466,-58.5 230,-58.5 230,-37.5 466,-37.5 466,-58.5"/>
<text text-anchor="middle" x="348" y="-45.5" font-family="Vera" font-size="10.00">topo.base.functionfamily.CoordinateMapperFn</text>
</g>
<!-- param.parameterized.Parameterized&#45;&gt;topo.base.functionfamily.CoordinateMapperFn -->
<g id="edge8" class="edge"><title>param.parameterized.Parameterized&#45;&gt;topo.base.functionfamily.CoordinateMapperFn</title>
<path fill="none" stroke="black" stroke-width="0.5" d="M194.043,-59.6541C204.12,-58.8913 214.455,-58.109 224.77,-57.3281"/>
<polygon fill="black" stroke="black" points="224.978,-59.0676 229.831,-56.9451 224.713,-55.5775 224.978,-59.0676"/>
</g>
<!-- param.parameterized.ParameterizedFunction -->
<g id="node13" class="node"><title>param.parameterized.ParameterizedFunction</title>
<polygon fill="none" stroke="black" stroke-width="0.5" points="465,-20.5 231,-20.5 231,0.5 465,0.5 465,-20.5"/>
<text text-anchor="middle" x="348" y="-7.5" font-family="Vera" font-size="10.00">param.parameterized.ParameterizedFunction</text>
</g>
<!-- param.parameterized.Parameterized&#45;&gt;param.parameterized.ParameterizedFunction -->
<g id="edge14" class="edge"><title>param.parameterized.Parameterized&#45;&gt;param.parameterized.ParameterizedFunction</title>
<path fill="none" stroke="black" stroke-width="0.5" d="M128.172,-56.9582C154.956,-48.6043 194.722,-36.8509 230,-29 243.439,-26.0092 257.839,-23.2924 271.798,-20.9085"/>
<polygon fill="black" stroke="black" points="272.279,-22.6022 276.919,-20.0453 271.697,-19.1509 272.279,-22.6022"/>
</g>
<!-- topo.base.functionfamily.DotProduct -->
<g id="node16" class="node"><title>topo.base.functionfamily.DotProduct</title>
<polygon fill="none" stroke="black" stroke-width="0.5" points="717,-96.5 527,-96.5 527,-75.5 717,-75.5 717,-96.5"/>
<text text-anchor="middle" x="622" y="-83.5" font-family="Vera" font-size="10.00">topo.base.functionfamily.DotProduct</text>
</g>
<!-- topo.base.functionfamily.ResponseFn&#45;&gt;topo.base.functionfamily.DotProduct -->
<g id="edge16" class="edge"><title>topo.base.functionfamily.ResponseFn&#45;&gt;topo.base.functionfamily.DotProduct</title>
<path fill="none" stroke="black" stroke-width="0.5" d="M444.602,-86C469.591,-86 496.549,-86 521.722,-86"/>
<polygon fill="black" stroke="black" points="521.731,-87.7501 526.731,-86 521.731,-84.2501 521.731,-87.7501"/>
</g>
<!-- topo.base.functionfamily.IdentityMF -->
<g id="node18" class="node"><title>topo.base.functionfamily.IdentityMF</title>
<polygon fill="none" stroke="black" stroke-width="0.5" points="714,-58.5 530,-58.5 530,-37.5 714,-37.5 714,-58.5"/>
<text text-anchor="middle" x="622" y="-45.5" font-family="Vera" font-size="10.00">topo.base.functionfamily.IdentityMF</text>
</g>
<!-- topo.base.functionfamily.CoordinateMapperFn&#45;&gt;topo.base.functionfamily.IdentityMF -->
<g id="edge18" class="edge"><title>topo.base.functionfamily.CoordinateMapperFn&#45;&gt;topo.base.functionfamily.IdentityMF</title>
<path fill="none" stroke="black" stroke-width="0.5" d="M466.189,-48C485.518,-48 505.357,-48 524.126,-48"/>
<polygon fill="black" stroke="black" points="524.39,-49.7501 529.39,-48 524.39,-46.2501 524.39,-49.7501"/>
</g>
<!-- topo.base.functionfamily.PatternDrivenAnalysis -->
<g id="node12" class="node"><title>topo.base.functionfamily.PatternDrivenAnalysis</title>
<polygon fill="none" stroke="black" stroke-width="0.5" points="742,-20.5 502,-20.5 502,0.5 742,0.5 742,-20.5"/>
<text text-anchor="middle" x="622" y="-7.5" font-family="Vera" font-size="10.00">topo.base.functionfamily.PatternDrivenAnalysis</text>
</g>
<!-- param.parameterized.ParameterizedFunction&#45;&gt;topo.base.functionfamily.PatternDrivenAnalysis -->
<g id="edge12" class="edge"><title>param.parameterized.ParameterizedFunction&#45;&gt;topo.base.functionfamily.PatternDrivenAnalysis</title>
<path fill="none" stroke="black" stroke-width="0.5" d="M465.393,-10C475.753,-10 486.267,-10 496.689,-10"/>
<polygon fill="black" stroke="black" points="496.797,-11.7501 501.797,-10 496.797,-8.2501 496.797,-11.7501"/>
</g>
</g>
</svg>
