<?xml version="1.0" encoding="UTF-8" standalone="no"?>
<!DOCTYPE svg PUBLIC "-//W3C//DTD SVG 1.1//EN"
 "http://www.w3.org/Graphics/SVG/1.1/DTD/svg11.dtd">
<!-- Generated by graphviz version 2.26.3 (20100126.1600)
 -->
<!-- Title: inheritancefc96a479df Pages: 1 -->
<svg width="812pt" height="332pt"
 viewBox="0.00 0.00 812.00 332.00" xmlns="http://www.w3.org/2000/svg" xmlns:xlink="http://www.w3.org/1999/xlink">
<g id="graph1" class="graph" transform="scale(1 1) rotate(0) translate(4 328)">
<title>inheritancefc96a479df</title>
<polygon fill="white" stroke="white" points="-4,5 -4,-328 809,-328 809,5 -4,5"/>
<!-- lancet.core.StaticArgs -->
<g id="node1" class="node"><title>lancet.core.StaticArgs</title>
<polygon fill="none" stroke="black" stroke-width="0.5" points="546,-172.5 424,-172.5 424,-151.5 546,-151.5 546,-172.5"/>
<text text-anchor="middle" x="485" y="-159.5" font-family="Vera" font-size="10.00">lancet.core.StaticArgs</text>
</g>
<!-- lancet.core.StaticCartesianProduct -->
<g id="node4" class="node"><title>lancet.core.StaticCartesianProduct</title>
<polygon fill="none" stroke="black" stroke-width="0.5" points="803,-324.5 621,-324.5 621,-303.5 803,-303.5 803,-324.5"/>
<text text-anchor="middle" x="712" y="-311.5" font-family="Vera" font-size="10.00">lancet.core.StaticCartesianProduct</text>
</g>
<!-- lancet.core.StaticArgs&#45;&gt;lancet.core.StaticCartesianProduct -->
<g id="edge4" class="edge"><title>lancet.core.StaticArgs&#45;&gt;lancet.core.StaticCartesianProduct</title>
<path fill="none" stroke="black" stroke-width="0.5" d="M492.12,-172.318C510.226,-197.692 560.805,-263.365 620,-295 625.282,-297.823 630.941,-300.226 636.761,-302.273"/>
<polygon fill="black" stroke="black" points="636.386,-303.993 641.682,-303.91 637.49,-300.672 636.386,-303.993"/>
</g>
<!-- lancet.core.Log -->
<g id="node6" class="node"><title>lancet.core.Log</title>
<polygon fill="none" stroke="black" stroke-width="0.5" points="757,-286.5 667,-286.5 667,-265.5 757,-265.5 757,-286.5"/>
<text text-anchor="middle" x="712" y="-273.5" font-family="Vera" font-size="10.00">lancet.core.Log</text>
</g>
<!-- lancet.core.StaticArgs&#45;&gt;lancet.core.Log -->
<g id="edge6" class="edge"><title>lancet.core.StaticArgs&#45;&gt;lancet.core.Log</title>
<path fill="none" stroke="black" stroke-width="0.5" d="M495.941,-172.132C517.757,-191.747 568.975,-234.918 620,-257 633.064,-262.654 647.914,-266.661 661.814,-269.487"/>
<polygon fill="black" stroke="black" points="661.644,-271.237 666.887,-270.476 662.314,-267.801 661.644,-271.237"/>
</g>
<!-- lancet.core.StaticConcatenate -->
<g id="node8" class="node"><title>lancet.core.StaticConcatenate</title>
<polygon fill="none" stroke="black" stroke-width="0.5" points="793,-248.5 631,-248.5 631,-227.5 793,-227.5 793,-248.5"/>
<text text-anchor="middle" x="712" y="-235.5" font-family="Vera" font-size="10.00">lancet.core.StaticConcatenate</text>
</g>
<!-- lancet.core.StaticArgs&#45;&gt;lancet.core.StaticConcatenate -->
<g id="edge8" class="edge"><title>lancet.core.StaticArgs&#45;&gt;lancet.core.StaticConcatenate</title>
<path fill="none" stroke="black" stroke-width="0.5" d="M505.57,-172.185C531.638,-184.739 578.216,-206.002 620,-219 629.502,-221.956 639.701,-224.582 649.725,-226.868"/>
<polygon fill="black" stroke="black" points="649.366,-228.581 654.627,-227.962 650.129,-225.165 649.366,-228.581"/>
</g>
<!-- lancet.core.Args -->
<g id="node12" class="node"><title>lancet.core.Args</title>
<polygon fill="none" stroke="black" stroke-width="0.5" points="759,-210.5 665,-210.5 665,-189.5 759,-189.5 759,-210.5"/>
<text text-anchor="middle" x="712" y="-197.5" font-family="Vera" font-size="10.00">lancet.core.Args</text>
</g>
<!-- lancet.core.StaticArgs&#45;&gt;lancet.core.Args -->
<g id="edge12" class="edge"><title>lancet.core.StaticArgs&#45;&gt;lancet.core.Args</title>
<path fill="none" stroke="black" stroke-width="0.5" d="M544.939,-172.034C580.495,-177.986 625.15,-185.461 659.345,-191.185"/>
<polygon fill="black" stroke="black" points="659.091,-192.917 664.312,-192.017 659.669,-189.465 659.091,-192.917"/>
</g>
<!-- lancet.core.Indexed -->
<g id="node14" class="node"><title>lancet.core.Indexed</title>
<polygon fill="none" stroke="black" stroke-width="0.5" points="767,-172.5 657,-172.5 657,-151.5 767,-151.5 767,-172.5"/>
<text text-anchor="middle" x="712" y="-159.5" font-family="Vera" font-size="10.00">lancet.core.Indexed</text>
</g>
<!-- lancet.core.StaticArgs&#45;&gt;lancet.core.Indexed -->
<g id="edge14" class="edge"><title>lancet.core.StaticArgs&#45;&gt;lancet.core.Indexed</title>
<path fill="none" stroke="black" stroke-width="0.5" d="M546.13,-162C578.913,-162 619.161,-162 651.8,-162"/>
<polygon fill="black" stroke="black" points="651.971,-163.75 656.971,-162 651.971,-160.25 651.971,-163.75"/>
</g>
<!-- lancet.core.ListArgs -->
<g id="node16" class="node"><title>lancet.core.ListArgs</title>
<polygon fill="none" stroke="black" stroke-width="0.5" points="767,-134.5 657,-134.5 657,-113.5 767,-113.5 767,-134.5"/>
<text text-anchor="middle" x="712" y="-121.5" font-family="Vera" font-size="10.00">lancet.core.ListArgs</text>
</g>
<!-- lancet.core.StaticArgs&#45;&gt;lancet.core.ListArgs -->
<g id="edge16" class="edge"><title>lancet.core.StaticArgs&#45;&gt;lancet.core.ListArgs</title>
<path fill="none" stroke="black" stroke-width="0.5" d="M544.939,-151.966C577.73,-146.477 618.262,-139.692 651.19,-134.18"/>
<polygon fill="black" stroke="black" points="651.764,-135.858 656.407,-133.306 651.186,-132.406 651.764,-135.858"/>
</g>
<!-- lancet.core.LexSorted -->
<g id="node18" class="node"><title>lancet.core.LexSorted</title>
<polygon fill="none" stroke="black" stroke-width="0.5" points="773,-96.5 651,-96.5 651,-75.5 773,-75.5 773,-96.5"/>
<text text-anchor="middle" x="712" y="-83.5" font-family="Vera" font-size="10.00">lancet.core.LexSorted</text>
</g>
<!-- lancet.core.StaticArgs&#45;&gt;lancet.core.LexSorted -->
<g id="edge18" class="edge"><title>lancet.core.StaticArgs&#45;&gt;lancet.core.LexSorted</title>
<path fill="none" stroke="black" stroke-width="0.5" d="M546.222,-156.392C559.223,-153.546 572.487,-149.305 584,-143 604.405,-131.826 599.674,-116.317 620,-105 627.935,-100.582 636.771,-97.1867 645.741,-94.5787"/>
<polygon fill="black" stroke="black" points="646.374,-96.2198 650.733,-93.2093 645.448,-92.8444 646.374,-96.2198"/>
</g>
<!-- lancet.core.LinearArgs -->
<g id="node24" class="node"><title>lancet.core.LinearArgs</title>
<polygon fill="none" stroke="black" stroke-width="0.5" points="774,-58.5 650,-58.5 650,-37.5 774,-37.5 774,-58.5"/>
<text text-anchor="middle" x="712" y="-45.5" font-family="Vera" font-size="10.00">lancet.core.LinearArgs</text>
</g>
<!-- lancet.core.StaticArgs&#45;&gt;lancet.core.LinearArgs -->
<g id="edge24" class="edge"><title>lancet.core.StaticArgs&#45;&gt;lancet.core.LinearArgs</title>
<path fill="none" stroke="black" stroke-width="0.5" d="M546.118,-159.397C559.629,-156.452 573.138,-151.413 584,-143 613.549,-120.113 590.612,-90.0936 620,-67 627.249,-61.3033 635.783,-57.196 644.681,-54.254"/>
<polygon fill="black" stroke="black" points="645.384,-55.8693 649.656,-52.7367 644.363,-52.5215 645.384,-55.8693"/>
</g>
<!-- lancet.core.FilePattern -->
<g id="node28" class="node"><title>lancet.core.FilePattern</title>
<polygon fill="none" stroke="black" stroke-width="0.5" points="773,-20.5 651,-20.5 651,0.5 773,0.5 773,-20.5"/>
<text text-anchor="middle" x="712" y="-7.5" font-family="Vera" font-size="10.00">lancet.core.FilePattern</text>
</g>
<!-- lancet.core.StaticArgs&#45;&gt;lancet.core.FilePattern -->
<g id="edge28" class="edge"><title>lancet.core.StaticArgs&#45;&gt;lancet.core.FilePattern</title>
<path fill="none" stroke="black" stroke-width="0.5" d="M546.209,-160.606C559.951,-157.654 573.541,-152.308 584,-143 623.69,-107.676 580.559,-64.6022 620,-29 627.32,-22.3927 636.314,-17.8466 645.783,-14.7566"/>
<polygon fill="black" stroke="black" points="646.479,-16.3752 650.771,-13.2702 645.48,-13.0209 646.479,-16.3752"/>
</g>
<!-- lancet.core.BaseArgs -->
<g id="node2" class="node"><title>lancet.core.BaseArgs</title>
<polygon fill="none" stroke="black" stroke-width="0.5" points="349,-134.5 231,-134.5 231,-113.5 349,-113.5 349,-134.5"/>
<text text-anchor="middle" x="290" y="-121.5" font-family="Vera" font-size="10.00">lancet.core.BaseArgs</text>
</g>
<!-- lancet.core.BaseArgs&#45;&gt;lancet.core.StaticArgs -->
<g id="edge2" class="edge"><title>lancet.core.BaseArgs&#45;&gt;lancet.core.StaticArgs</title>
<path fill="none" stroke="black" stroke-width="0.5" d="M340.311,-134.014C355.033,-136.929 371.158,-140.107 386,-143 399.463,-145.624 413.962,-148.422 427.6,-151.042"/>
<polygon fill="black" stroke="black" points="427.342,-152.775 432.583,-151.999 428.002,-149.337 427.342,-152.775"/>
</g>
<!-- lancet.core.DynamicConcatenate -->
<g id="node10" class="node"><title>lancet.core.DynamicConcatenate</title>
<polygon fill="none" stroke="black" stroke-width="0.5" points="573,-134.5 397,-134.5 397,-113.5 573,-113.5 573,-134.5"/>
<text text-anchor="middle" x="485" y="-121.5" font-family="Vera" font-size="10.00">lancet.core.DynamicConcatenate</text>
</g>
<!-- lancet.core.BaseArgs&#45;&gt;lancet.core.DynamicConcatenate -->
<g id="edge10" class="edge"><title>lancet.core.BaseArgs&#45;&gt;lancet.core.DynamicConcatenate</title>
<path fill="none" stroke="black" stroke-width="0.5" d="M349.566,-124C362.833,-124 377.211,-124 391.474,-124"/>
<polygon fill="black" stroke="black" points="391.722,-125.75 396.722,-124 391.722,-122.25 391.722,-125.75"/>
</g>
<!-- lancet.core.DynamicCartesianProduct -->
<g id="node20" class="node"><title>lancet.core.DynamicCartesianProduct</title>
<polygon fill="none" stroke="black" stroke-width="0.5" points="583,-96.5 387,-96.5 387,-75.5 583,-75.5 583,-96.5"/>
<text text-anchor="middle" x="485" y="-83.5" font-family="Vera" font-size="10.00">lancet.core.DynamicCartesianProduct</text>
</g>
<!-- lancet.core.BaseArgs&#45;&gt;lancet.core.DynamicCartesianProduct -->
<g id="edge20" class="edge"><title>lancet.core.BaseArgs&#45;&gt;lancet.core.DynamicCartesianProduct</title>
<path fill="none" stroke="black" stroke-width="0.5" d="M340.311,-113.986C355.033,-111.071 371.158,-107.893 386,-105 399.463,-102.376 413.962,-99.5776 427.6,-96.9578"/>
<polygon fill="black" stroke="black" points="428.002,-98.6627 432.583,-96.0014 427.342,-95.2255 428.002,-98.6627"/>
</g>
<!-- param.parameterized.Parameterized -->
<g id="node22" class="node"><title>param.parameterized.Parameterized</title>
<polygon fill="none" stroke="black" stroke-width="0.5" points="194,-115.5 5.68434e-14,-115.5 0,-94.5 194,-94.5 194,-115.5"/>
<text text-anchor="middle" x="97" y="-102.5" font-family="Vera" font-size="10.00">param.parameterized.Parameterized</text>
</g>
<!-- param.parameterized.Parameterized&#45;&gt;lancet.core.BaseArgs -->
<g id="edge22" class="edge"><title>param.parameterized.Parameterized&#45;&gt;lancet.core.BaseArgs</title>
<path fill="none" stroke="black" stroke-width="0.5" d="M194.065,-114.556C204.617,-115.594 215.159,-116.632 225.188,-117.62"/>
<polygon fill="black" stroke="black" points="225.236,-119.383 230.383,-118.131 225.579,-115.899 225.236,-119.383"/>
</g>
<!-- lancet.core.applying -->
<g id="node26" class="node"><title>lancet.core.applying</title>
<polygon fill="none" stroke="black" stroke-width="0.5" points="346,-96.5 234,-96.5 234,-75.5 346,-75.5 346,-96.5"/>
<text text-anchor="middle" x="290" y="-83.5" font-family="Vera" font-size="10.00">lancet.core.applying</text>
</g>
<!-- param.parameterized.Parameterized&#45;&gt;lancet.core.applying -->
<g id="edge26" class="edge"><title>param.parameterized.Parameterized&#45;&gt;lancet.core.applying</title>
<path fill="none" stroke="black" stroke-width="0.5" d="M194.065,-95.4443C205.706,-94.2984 217.335,-93.1535 228.276,-92.0764"/>
<polygon fill="black" stroke="black" points="228.448,-93.8181 233.252,-91.5866 228.105,-90.3349 228.448,-93.8181"/>
</g>
</g>
</svg>
