<?xml version="1.0" encoding="UTF-8" standalone="no"?>
<!DOCTYPE svg PUBLIC "-//W3C//DTD SVG 1.1//EN"
 "http://www.w3.org/Graphics/SVG/1.1/DTD/svg11.dtd">
<!-- Generated by graphviz version 2.26.3 (20100126.1600)
 -->
<!-- Title: inheritanceb93d1cfda2 Pages: 1 -->
<svg width="454pt" height="66pt"
 viewBox="0.00 0.00 454.00 66.00" xmlns="http://www.w3.org/2000/svg" xmlns:xlink="http://www.w3.org/1999/xlink">
<g id="graph1" class="graph" transform="scale(1 1) rotate(0) translate(4 62)">
<title>inheritanceb93d1cfda2</title>
<polygon fill="white" stroke="white" points="-4,5 -4,-62 451,-62 451,5 -4,5"/>
<!-- unittest.case.TestCase -->
<g id="node1" class="node"><title>unittest.case.TestCase</title>
<polygon fill="none" stroke="black" stroke-width="0.5" points="125,-39.5 1,-39.5 1,-18.5 125,-18.5 125,-39.5"/>
<text text-anchor="middle" x="63" y="-26.5" font-family="Vera" font-size="10.00">unittest.case.TestCase</text>
</g>
<!-- dataviews.test.testndmapping.DimensionTest -->
<g id="node2" class="node"><title>dataviews.test.testndmapping.DimensionTest</title>
<polygon fill="none" stroke="black" stroke-width="0.5" points="421,-58.5 187,-58.5 187,-37.5 421,-37.5 421,-58.5"/>
<text text-anchor="middle" x="304" y="-45.5" font-family="Vera" font-size="10.00">dataviews.test.testndmapping.DimensionTest</text>
</g>
<!-- unittest.case.TestCase&#45;&gt;dataviews.test.testndmapping.DimensionTest -->
<g id="edge2" class="edge"><title>unittest.case.TestCase&#45;&gt;dataviews.test.testndmapping.DimensionTest</title>
<path fill="none" stroke="black" stroke-width="0.5" d="M125.691,-33.9424C142.901,-35.2992 162.173,-36.8186 181.513,-38.3433"/>
<polygon fill="black" stroke="black" points="181.846,-40.1249 186.968,-38.7734 182.121,-36.6358 181.846,-40.1249"/>
</g>
<!-- dataviews.test.testndmapping.NdIndexableMappingTest -->
<g id="node4" class="node"><title>dataviews.test.testndmapping.NdIndexableMappingTest</title>
<polygon fill="none" stroke="black" stroke-width="0.5" points="445,-20.5 163,-20.5 163,0.5 445,0.5 445,-20.5"/>
<text text-anchor="middle" x="304" y="-7.5" font-family="Vera" font-size="10.00">dataviews.test.testndmapping.NdIndexableMappingTest</text>
</g>
<!-- unittest.case.TestCase&#45;&gt;dataviews.test.testndmapping.NdIndexableMappingTest -->
<g id="edge4" class="edge"><title>unittest.case.TestCase&#45;&gt;dataviews.test.testndmapping.NdIndexableMappingTest</title>
<path fill="none" stroke="black" stroke-width="0.5" d="M125.691,-24.0576C140.099,-22.9216 155.953,-21.6717 172.083,-20.4001"/>
<polygon fill="black" stroke="black" points="172.249,-22.1425 177.096,-20.0049 171.974,-18.6534 172.249,-22.1425"/>
</g>
</g>
</svg>
