<?xml version="1.0" encoding="UTF-8" standalone="no"?>
<!DOCTYPE svg PUBLIC "-//W3C//DTD SVG 1.1//EN"
 "http://www.w3.org/Graphics/SVG/1.1/DTD/svg11.dtd">
<!-- Generated by graphviz version 2.26.3 (20100126.1600)
 -->
<!-- Title: inheritance0f827376bc Pages: 1 -->
<svg width="2286pt" height="332pt"
 viewBox="0.00 0.00 2286.00 332.00" xmlns="http://www.w3.org/2000/svg" xmlns:xlink="http://www.w3.org/1999/xlink">
<g id="graph1" class="graph" transform="scale(1 1) rotate(0) translate(4 328)">
<title>inheritance0f827376bc</title>
<polygon fill="white" stroke="white" points="-4,5 -4,-328 2283,-328 2283,5 -4,5"/>
<!-- topo.analysis.featureresponses.DistributionMatrix -->
<g id="node1" class="node"><title>topo.analysis.featureresponses.DistributionMatrix</title>
<polygon fill="none" stroke="black" stroke-width="0.5" points="568,-229.5 314,-229.5 314,-208.5 568,-208.5 568,-229.5"/>
<text text-anchor="middle" x="441" y="-216.5" font-family="Vera" font-size="10.00">topo.analysis.featureresponses.DistributionMatrix</text>
</g>
<!-- param.parameterized.Parameterized -->
<g id="node2" class="node"><title>param.parameterized.Parameterized</title>
<polygon fill="none" stroke="black" stroke-width="0.5" points="236,-153.5 42,-153.5 42,-132.5 236,-132.5 236,-153.5"/>
<text text-anchor="middle" x="139" y="-140.5" font-family="Vera" font-size="10.00">param.parameterized.Parameterized</text>
</g>
<!-- param.parameterized.Parameterized&#45;&gt;topo.analysis.featureresponses.DistributionMatrix -->
<g id="edge2" class="edge"><title>param.parameterized.Parameterized&#45;&gt;topo.analysis.featureresponses.DistributionMatrix</title>
<path fill="none" stroke="black" stroke-width="0.5" d="M236.175,-147.703C250.698,-150.816 265.107,-155.383 278,-162 298.698,-172.622 293.37,-189.247 314,-200 319.329,-202.777 324.943,-205.18 330.724,-207.257"/>
<polygon fill="black" stroke="black" points="330.319,-208.968 335.616,-208.926 331.449,-205.656 330.319,-208.968"/>
</g>
<!-- topo.analysis.featureresponses.Feature -->
<g id="node7" class="node"><title>topo.analysis.featureresponses.Feature</title>
<polygon fill="none" stroke="black" stroke-width="0.5" points="544,-191.5 338,-191.5 338,-170.5 544,-170.5 544,-191.5"/>
<text text-anchor="middle" x="441" y="-178.5" font-family="Vera" font-size="10.00">topo.analysis.featureresponses.Feature</text>
</g>
<!-- param.parameterized.Parameterized&#45;&gt;topo.analysis.featureresponses.Feature -->
<g id="edge6" class="edge"><title>param.parameterized.Parameterized&#45;&gt;topo.analysis.featureresponses.Feature</title>
<path fill="none" stroke="black" stroke-width="0.5" d="M218.742,-153.034C261.06,-158.358 313.065,-164.902 356.129,-170.321"/>
<polygon fill="black" stroke="black" points="356.156,-172.088 361.335,-170.976 356.593,-168.615 356.156,-172.088"/>
</g>
<!-- param.parameterized.ParameterizedFunction -->
<g id="node13" class="node"><title>param.parameterized.ParameterizedFunction</title>
<polygon fill="none" stroke="black" stroke-width="0.5" points="558,-153.5 324,-153.5 324,-132.5 558,-132.5 558,-153.5"/>
<text text-anchor="middle" x="441" y="-140.5" font-family="Vera" font-size="10.00">param.parameterized.ParameterizedFunction</text>
</g>
<!-- param.parameterized.Parameterized&#45;&gt;param.parameterized.ParameterizedFunction -->
<g id="edge16" class="edge"><title>param.parameterized.Parameterized&#45;&gt;param.parameterized.ParameterizedFunction</title>
<path fill="none" stroke="black" stroke-width="0.5" d="M236.217,-143C262.514,-143 291.314,-143 318.793,-143"/>
<polygon fill="black" stroke="black" points="318.908,-144.75 323.908,-143 318.908,-141.25 318.908,-144.75"/>
</g>
<!-- topo.analysis.featureresponses.Subplotting -->
<g id="node18" class="node"><title>topo.analysis.featureresponses.Subplotting</title>
<polygon fill="none" stroke="black" stroke-width="0.5" points="553,-115.5 329,-115.5 329,-94.5 553,-94.5 553,-115.5"/>
<text text-anchor="middle" x="441" y="-102.5" font-family="Vera" font-size="10.00">topo.analysis.featureresponses.Subplotting</text>
</g>
<!-- param.parameterized.Parameterized&#45;&gt;topo.analysis.featureresponses.Subplotting -->
<g id="edge14" class="edge"><title>param.parameterized.Parameterized&#45;&gt;topo.analysis.featureresponses.Subplotting</title>
<path fill="none" stroke="black" stroke-width="0.5" d="M218.742,-132.966C261.06,-127.642 313.065,-121.098 356.129,-115.679"/>
<polygon fill="black" stroke="black" points="356.593,-117.385 361.335,-115.024 356.156,-113.912 356.593,-117.385"/>
</g>
<!-- topo.analysis.featureresponses.FullMatrix -->
<g id="node42" class="node"><title>topo.analysis.featureresponses.FullMatrix</title>
<polygon fill="none" stroke="black" stroke-width="0.5" points="548,-77.5 334,-77.5 334,-56.5 548,-56.5 548,-77.5"/>
<text text-anchor="middle" x="441" y="-64.5" font-family="Vera" font-size="10.00">topo.analysis.featureresponses.FullMatrix</text>
</g>
<!-- param.parameterized.Parameterized&#45;&gt;topo.analysis.featureresponses.FullMatrix -->
<g id="edge40" class="edge"><title>param.parameterized.Parameterized&#45;&gt;topo.analysis.featureresponses.FullMatrix</title>
<path fill="none" stroke="black" stroke-width="0.5" d="M165.292,-132.913C199.194,-120.262 260.198,-98.6933 314,-86 327.238,-82.8769 341.379,-80.1632 355.24,-77.8413"/>
<polygon fill="black" stroke="black" points="355.683,-79.5421 360.333,-77.0035 355.115,-76.0885 355.683,-79.5421"/>
</g>
<!-- topo.analysis.featureresponses.UnitCurveCommand -->
<g id="node4" class="node"><title>topo.analysis.featureresponses.UnitCurveCommand</title>
<polygon fill="none" stroke="black" stroke-width="0.5" points="2277,-286.5 2011,-286.5 2011,-265.5 2277,-265.5 2277,-286.5"/>
<text text-anchor="middle" x="2144" y="-273.5" font-family="Vera" font-size="10.00">topo.analysis.featureresponses.UnitCurveCommand</text>
</g>
<!-- topo.analysis.featureresponses.FeatureCurveCommand -->
<g id="node5" class="node"><title>topo.analysis.featureresponses.FeatureCurveCommand</title>
<polygon fill="none" stroke="black" stroke-width="0.5" points="1974,-286.5 1690,-286.5 1690,-265.5 1974,-265.5 1974,-286.5"/>
<text text-anchor="middle" x="1832" y="-273.5" font-family="Vera" font-size="10.00">topo.analysis.featureresponses.FeatureCurveCommand</text>
</g>
<!-- topo.analysis.featureresponses.FeatureCurveCommand&#45;&gt;topo.analysis.featureresponses.UnitCurveCommand -->
<g id="edge4" class="edge"><title>topo.analysis.featureresponses.FeatureCurveCommand&#45;&gt;topo.analysis.featureresponses.UnitCurveCommand</title>
<path fill="none" stroke="black" stroke-width="0.5" d="M1974.3,-276C1984.43,-276 1994.64,-276 2004.75,-276"/>
<polygon fill="black" stroke="black" points="2005.03,-277.75 2010.03,-276 2005.03,-274.25 2005.03,-277.75"/>
</g>
<!-- topo.analysis.featureresponses.FeatureCurves -->
<g id="node9" class="node"><title>topo.analysis.featureresponses.FeatureCurves</title>
<polygon fill="none" stroke="black" stroke-width="0.5" points="1595,-172.5 1357,-172.5 1357,-151.5 1595,-151.5 1595,-172.5"/>
<text text-anchor="middle" x="1476" y="-159.5" font-family="Vera" font-size="10.00">topo.analysis.featureresponses.FeatureCurves</text>
</g>
<!-- topo.analysis.featureresponses.FeatureResponses -->
<g id="node10" class="node"><title>topo.analysis.featureresponses.FeatureResponses</title>
<polygon fill="none" stroke="black" stroke-width="0.5" points="1236,-153.5 980,-153.5 980,-132.5 1236,-132.5 1236,-153.5"/>
<text text-anchor="middle" x="1108" y="-140.5" font-family="Vera" font-size="10.00">topo.analysis.featureresponses.FeatureResponses</text>
</g>
<!-- topo.analysis.featureresponses.FeatureResponses&#45;&gt;topo.analysis.featureresponses.FeatureCurves -->
<g id="edge8" class="edge"><title>topo.analysis.featureresponses.FeatureResponses&#45;&gt;topo.analysis.featureresponses.FeatureCurves</title>
<path fill="none" stroke="black" stroke-width="0.5" d="M1236.71,-149.645C1273.75,-151.558 1314.09,-153.64 1350.9,-155.541"/>
<polygon fill="black" stroke="black" points="1351.23,-157.31 1356.31,-155.82 1351.41,-153.815 1351.23,-157.31"/>
</g>
<!-- topo.analysis.featureresponses.FeatureMaps -->
<g id="node28" class="node"><title>topo.analysis.featureresponses.FeatureMaps</title>
<polygon fill="none" stroke="black" stroke-width="0.5" points="1591,-134.5 1361,-134.5 1361,-113.5 1591,-113.5 1591,-134.5"/>
<text text-anchor="middle" x="1476" y="-121.5" font-family="Vera" font-size="10.00">topo.analysis.featureresponses.FeatureMaps</text>
</g>
<!-- topo.analysis.featureresponses.FeatureResponses&#45;&gt;topo.analysis.featureresponses.FeatureMaps -->
<g id="edge26" class="edge"><title>topo.analysis.featureresponses.FeatureResponses&#45;&gt;topo.analysis.featureresponses.FeatureMaps</title>
<path fill="none" stroke="black" stroke-width="0.5" d="M1236.71,-136.355C1275.19,-134.368 1317.23,-132.197 1355.19,-130.238"/>
<polygon fill="black" stroke="black" points="1355.37,-131.981 1360.27,-129.975 1355.19,-128.485 1355.37,-131.981"/>
</g>
<!-- topo.analysis.featureresponses.ReverseCorrelation -->
<g id="node31" class="node"><title>topo.analysis.featureresponses.ReverseCorrelation</title>
<polygon fill="none" stroke="black" stroke-width="0.5" points="1606,-96.5 1346,-96.5 1346,-75.5 1606,-75.5 1606,-96.5"/>
<text text-anchor="middle" x="1476" y="-83.5" font-family="Vera" font-size="10.00">topo.analysis.featureresponses.ReverseCorrelation</text>
</g>
<!-- topo.analysis.featureresponses.FeatureResponses&#45;&gt;topo.analysis.featureresponses.ReverseCorrelation -->
<g id="edge30" class="edge"><title>topo.analysis.featureresponses.FeatureResponses&#45;&gt;topo.analysis.featureresponses.ReverseCorrelation</title>
<path fill="none" stroke="black" stroke-width="0.5" d="M1152.33,-132.944C1190.71,-124.525 1247.79,-112.685 1298,-105 1318.62,-101.844 1340.66,-99.0373 1361.97,-96.613"/>
<polygon fill="black" stroke="black" points="1362.3,-98.3364 1367.07,-96.0374 1361.91,-94.8584 1362.3,-98.3364"/>
</g>
<!-- topo.analysis.featureresponses.hue2rgbscale -->
<g id="node12" class="node"><title>topo.analysis.featureresponses.hue2rgbscale</title>
<polygon fill="none" stroke="black" stroke-width="0.5" points="878,-286.5 644,-286.5 644,-265.5 878,-265.5 878,-286.5"/>
<text text-anchor="middle" x="761" y="-273.5" font-family="Vera" font-size="10.00">topo.analysis.featureresponses.hue2rgbscale</text>
</g>
<!-- param.parameterized.ParameterizedFunction&#45;&gt;topo.analysis.featureresponses.hue2rgbscale -->
<g id="edge10" class="edge"><title>param.parameterized.ParameterizedFunction&#45;&gt;topo.analysis.featureresponses.hue2rgbscale</title>
<path fill="none" stroke="black" stroke-width="0.5" d="M554.301,-153.101C559.146,-155.626 563.748,-158.572 568,-162 603.151,-190.34 568.455,-229.156 604,-257 614.304,-265.071 626.214,-270.796 638.776,-274.767"/>
<polygon fill="black" stroke="black" points="638.52,-276.516 643.811,-276.257 639.513,-273.16 638.52,-276.516"/>
</g>
<!-- topo.analysis.featureresponses.PatternPresentingCommand -->
<g id="node16" class="node"><title>topo.analysis.featureresponses.PatternPresentingCommand</title>
<polygon fill="none" stroke="black" stroke-width="0.5" points="913,-248.5 609,-248.5 609,-227.5 913,-227.5 913,-248.5"/>
<text text-anchor="middle" x="761" y="-235.5" font-family="Vera" font-size="10.00">topo.analysis.featureresponses.PatternPresentingCommand</text>
</g>
<!-- param.parameterized.ParameterizedFunction&#45;&gt;topo.analysis.featureresponses.PatternPresentingCommand -->
<g id="edge20" class="edge"><title>param.parameterized.ParameterizedFunction&#45;&gt;topo.analysis.featureresponses.PatternPresentingCommand</title>
<path fill="none" stroke="black" stroke-width="0.5" d="M551.02,-153.122C556.968,-155.595 562.678,-158.529 568,-162 593.096,-178.37 578.677,-202.984 604,-219 608.005,-221.533 612.183,-223.81 616.493,-225.856"/>
<polygon fill="black" stroke="black" points="615.942,-227.527 621.219,-227.985 617.38,-224.336 615.942,-227.527"/>
</g>
<!-- topo.base.functionfamily.PatternDrivenAnalysis -->
<g id="node21" class="node"><title>topo.base.functionfamily.PatternDrivenAnalysis</title>
<polygon fill="none" stroke="black" stroke-width="0.5" points="881,-210.5 641,-210.5 641,-189.5 881,-189.5 881,-210.5"/>
<text text-anchor="middle" x="761" y="-197.5" font-family="Vera" font-size="10.00">topo.base.functionfamily.PatternDrivenAnalysis</text>
</g>
<!-- param.parameterized.ParameterizedFunction&#45;&gt;topo.base.functionfamily.PatternDrivenAnalysis -->
<g id="edge18" class="edge"><title>param.parameterized.ParameterizedFunction&#45;&gt;topo.base.functionfamily.PatternDrivenAnalysis</title>
<path fill="none" stroke="black" stroke-width="0.5" d="M533.085,-153.013C544.978,-155.399 556.879,-158.351 568,-162 585.19,-167.641 586.733,-175.601 604,-181 614.226,-184.197 624.983,-186.861 635.87,-189.08"/>
<polygon fill="black" stroke="black" points="635.636,-190.818 640.881,-190.069 636.314,-187.384 635.636,-190.818"/>
</g>
<!-- topo.analysis.featureresponses.direction2translation -->
<g id="node24" class="node"><title>topo.analysis.featureresponses.direction2translation</title>
<polygon fill="none" stroke="black" stroke-width="0.5" points="895,-172.5 627,-172.5 627,-151.5 895,-151.5 895,-172.5"/>
<text text-anchor="middle" x="761" y="-159.5" font-family="Vera" font-size="10.00">topo.analysis.featureresponses.direction2translation</text>
</g>
<!-- param.parameterized.ParameterizedFunction&#45;&gt;topo.analysis.featureresponses.direction2translation -->
<g id="edge22" class="edge"><title>param.parameterized.ParameterizedFunction&#45;&gt;topo.analysis.featureresponses.direction2translation</title>
<path fill="none" stroke="black" stroke-width="0.5" d="M558.339,-149.967C578.981,-151.193 600.645,-152.479 621.815,-153.736"/>
<polygon fill="black" stroke="black" points="621.801,-155.488 626.896,-154.038 622.008,-151.994 621.801,-155.488"/>
</g>
<!-- topo.analysis.featureresponses.contrast2scale -->
<g id="node37" class="node"><title>topo.analysis.featureresponses.contrast2scale</title>
<polygon fill="none" stroke="black" stroke-width="0.5" points="881,-134.5 641,-134.5 641,-113.5 881,-113.5 881,-134.5"/>
<text text-anchor="middle" x="761" y="-121.5" font-family="Vera" font-size="10.00">topo.analysis.featureresponses.contrast2scale</text>
</g>
<!-- param.parameterized.ParameterizedFunction&#45;&gt;topo.analysis.featureresponses.contrast2scale -->
<g id="edge34" class="edge"><title>param.parameterized.ParameterizedFunction&#45;&gt;topo.analysis.featureresponses.contrast2scale</title>
<path fill="none" stroke="black" stroke-width="0.5" d="M558.339,-136.033C583.59,-134.534 610.371,-132.944 635.905,-131.428"/>
<polygon fill="black" stroke="black" points="636.106,-133.169 640.994,-131.125 635.899,-129.675 636.106,-133.169"/>
</g>
<!-- topo.analysis.featureresponses.contrast2centersurroundscale -->
<g id="node39" class="node"><title>topo.analysis.featureresponses.contrast2centersurroundscale</title>
<polygon fill="none" stroke="black" stroke-width="0.5" points="918,-96.5 604,-96.5 604,-75.5 918,-75.5 918,-96.5"/>
<text text-anchor="middle" x="761" y="-83.5" font-family="Vera" font-size="10.00">topo.analysis.featureresponses.contrast2centersurroundscale</text>
</g>
<!-- param.parameterized.ParameterizedFunction&#45;&gt;topo.analysis.featureresponses.contrast2centersurroundscale -->
<g id="edge36" class="edge"><title>param.parameterized.ParameterizedFunction&#45;&gt;topo.analysis.featureresponses.contrast2centersurroundscale</title>
<path fill="none" stroke="black" stroke-width="0.5" d="M533.085,-132.987C544.978,-130.601 556.879,-127.649 568,-124 585.19,-118.359 586.733,-110.399 604,-105 614.112,-101.838 624.744,-99.198 635.507,-96.9939"/>
<polygon fill="black" stroke="black" points="635.897,-98.7008 640.461,-96.0115 635.216,-95.2677 635.897,-98.7008"/>
</g>
<!-- topo.analysis.featureresponses.phasedisparity2leftrightphase -->
<g id="node44" class="node"><title>topo.analysis.featureresponses.phasedisparity2leftrightphase</title>
<polygon fill="none" stroke="black" stroke-width="0.5" points="916,-58.5 606,-58.5 606,-37.5 916,-37.5 916,-58.5"/>
<text text-anchor="middle" x="761" y="-45.5" font-family="Vera" font-size="10.00">topo.analysis.featureresponses.phasedisparity2leftrightphase</text>
</g>
<!-- param.parameterized.ParameterizedFunction&#45;&gt;topo.analysis.featureresponses.phasedisparity2leftrightphase -->
<g id="edge42" class="edge"><title>param.parameterized.ParameterizedFunction&#45;&gt;topo.analysis.featureresponses.phasedisparity2leftrightphase</title>
<path fill="none" stroke="black" stroke-width="0.5" d="M551.02,-132.878C556.968,-130.405 562.678,-127.471 568,-124 593.096,-107.63 578.677,-83.0162 604,-67 608.005,-64.4672 612.183,-62.1896 616.493,-60.1442"/>
<polygon fill="black" stroke="black" points="617.38,-61.6642 621.219,-58.0148 615.942,-58.473 617.38,-61.6642"/>
</g>
<!-- topo.analysis.featureresponses.ocular2leftrightscale -->
<g id="node47" class="node"><title>topo.analysis.featureresponses.ocular2leftrightscale</title>
<polygon fill="none" stroke="black" stroke-width="0.5" points="894,-20.5 628,-20.5 628,0.5 894,0.5 894,-20.5"/>
<text text-anchor="middle" x="761" y="-7.5" font-family="Vera" font-size="10.00">topo.analysis.featureresponses.ocular2leftrightscale</text>
</g>
<!-- param.parameterized.ParameterizedFunction&#45;&gt;topo.analysis.featureresponses.ocular2leftrightscale -->
<g id="edge46" class="edge"><title>param.parameterized.ParameterizedFunction&#45;&gt;topo.analysis.featureresponses.ocular2leftrightscale</title>
<path fill="none" stroke="black" stroke-width="0.5" d="M554.301,-132.899C559.146,-130.374 563.748,-127.428 568,-124 603.151,-95.66 568.455,-56.8438 604,-29 609.883,-24.3916 616.29,-20.5483 623.043,-17.3596"/>
<polygon fill="black" stroke="black" points="623.914,-18.8872 627.771,-15.2553 622.491,-15.6896 623.914,-18.8872"/>
</g>
<!-- topo.analysis.featureresponses.pattern_present -->
<g id="node15" class="node"><title>topo.analysis.featureresponses.pattern_present</title>
<polygon fill="none" stroke="black" stroke-width="0.5" points="1231,-305.5 985,-305.5 985,-284.5 1231,-284.5 1231,-305.5"/>
<text text-anchor="middle" x="1108" y="-292.5" font-family="Vera" font-size="10.00">topo.analysis.featureresponses.pattern_present</text>
</g>
<!-- topo.analysis.featureresponses.pattern_response -->
<g id="node49" class="node"><title>topo.analysis.featureresponses.pattern_response</title>
<polygon fill="none" stroke="black" stroke-width="0.5" points="1603,-324.5 1349,-324.5 1349,-303.5 1603,-303.5 1603,-324.5"/>
<text text-anchor="middle" x="1476" y="-311.5" font-family="Vera" font-size="10.00">topo.analysis.featureresponses.pattern_response</text>
</g>
<!-- topo.analysis.featureresponses.pattern_present&#45;&gt;topo.analysis.featureresponses.pattern_response -->
<g id="edge48" class="edge"><title>topo.analysis.featureresponses.pattern_present&#45;&gt;topo.analysis.featureresponses.pattern_response</title>
<path fill="none" stroke="black" stroke-width="0.5" d="M1231.56,-301.38C1267.58,-303.239 1307.08,-305.279 1343.63,-307.165"/>
<polygon fill="black" stroke="black" points="1343.91,-308.932 1349,-307.443 1344.09,-305.437 1343.91,-308.932"/>
</g>
<!-- topo.analysis.featureresponses.PatternPresentingCommand&#45;&gt;topo.analysis.featureresponses.pattern_present -->
<g id="edge12" class="edge"><title>topo.analysis.featureresponses.PatternPresentingCommand&#45;&gt;topo.analysis.featureresponses.pattern_present</title>
<path fill="none" stroke="black" stroke-width="0.5" d="M853.731,-248.022C874.897,-250.642 897.261,-253.676 918,-257 965.682,-264.642 1019.63,-275.662 1057.83,-283.869"/>
<polygon fill="black" stroke="black" points="1057.62,-285.614 1062.88,-284.957 1058.36,-282.193 1057.62,-285.614"/>
</g>
<!-- topo.analysis.featureresponses.MeasureResponseCommand -->
<g id="node34" class="node"><title>topo.analysis.featureresponses.MeasureResponseCommand</title>
<polygon fill="none" stroke="black" stroke-width="0.5" points="1261,-248.5 955,-248.5 955,-227.5 1261,-227.5 1261,-248.5"/>
<text text-anchor="middle" x="1108" y="-235.5" font-family="Vera" font-size="10.00">topo.analysis.featureresponses.MeasureResponseCommand</text>
</g>
<!-- topo.analysis.featureresponses.PatternPresentingCommand&#45;&gt;topo.analysis.featureresponses.MeasureResponseCommand -->
<g id="edge44" class="edge"><title>topo.analysis.featureresponses.PatternPresentingCommand&#45;&gt;topo.analysis.featureresponses.MeasureResponseCommand</title>
<path fill="none" stroke="black" stroke-width="0.5" d="M913.704,-238C925.478,-238 937.381,-238 949.192,-238"/>
<polygon fill="black" stroke="black" points="949.248,-239.75 954.248,-238 949.248,-236.25 949.248,-239.75"/>
</g>
<!-- topo.base.functionfamily.PatternDrivenAnalysis&#45;&gt;topo.analysis.featureresponses.FeatureResponses -->
<g id="edge28" class="edge"><title>topo.base.functionfamily.PatternDrivenAnalysis&#45;&gt;topo.analysis.featureresponses.FeatureResponses</title>
<path fill="none" stroke="black" stroke-width="0.5" d="M853.731,-189.978C874.897,-187.358 897.261,-184.324 918,-181 965.682,-173.358 1019.63,-162.338 1057.83,-154.131"/>
<polygon fill="black" stroke="black" points="1058.36,-155.807 1062.88,-153.043 1057.62,-152.386 1058.36,-155.807"/>
</g>
<!-- topo.analysis.featureresponses.SinusoidalMeasureResponseCommand -->
<g id="node26" class="node"><title>topo.analysis.featureresponses.SinusoidalMeasureResponseCommand</title>
<polygon fill="none" stroke="black" stroke-width="0.5" points="1654,-286.5 1298,-286.5 1298,-265.5 1654,-265.5 1654,-286.5"/>
<text text-anchor="middle" x="1476" y="-273.5" font-family="Vera" font-size="10.00">topo.analysis.featureresponses.SinusoidalMeasureResponseCommand</text>
</g>
<!-- topo.analysis.featureresponses.SinusoidalMeasureResponseCommand&#45;&gt;topo.analysis.featureresponses.FeatureCurveCommand -->
<g id="edge24" class="edge"><title>topo.analysis.featureresponses.SinusoidalMeasureResponseCommand&#45;&gt;topo.analysis.featureresponses.FeatureCurveCommand</title>
<path fill="none" stroke="black" stroke-width="0.5" d="M1654,-276C1664.21,-276 1674.43,-276 1684.51,-276"/>
<polygon fill="black" stroke="black" points="1684.76,-277.75 1689.76,-276 1684.76,-274.25 1684.76,-277.75"/>
</g>
<!-- topo.analysis.featureresponses.PositionMeasurementCommand -->
<g id="node33" class="node"><title>topo.analysis.featureresponses.PositionMeasurementCommand</title>
<polygon fill="none" stroke="black" stroke-width="0.5" points="1638,-248.5 1314,-248.5 1314,-227.5 1638,-227.5 1638,-248.5"/>
<text text-anchor="middle" x="1476" y="-235.5" font-family="Vera" font-size="10.00">topo.analysis.featureresponses.PositionMeasurementCommand</text>
</g>
<!-- topo.analysis.featureresponses.MeasureResponseCommand&#45;&gt;topo.analysis.featureresponses.SinusoidalMeasureResponseCommand -->
<g id="edge38" class="edge"><title>topo.analysis.featureresponses.MeasureResponseCommand&#45;&gt;topo.analysis.featureresponses.SinusoidalMeasureResponseCommand</title>
<path fill="none" stroke="black" stroke-width="0.5" d="M1205.17,-248.034C1257.15,-253.402 1321.14,-260.009 1373.86,-265.453"/>
<polygon fill="black" stroke="black" points="1373.77,-267.203 1378.93,-265.976 1374.13,-263.722 1373.77,-267.203"/>
</g>
<!-- topo.analysis.featureresponses.MeasureResponseCommand&#45;&gt;topo.analysis.featureresponses.PositionMeasurementCommand -->
<g id="edge32" class="edge"><title>topo.analysis.featureresponses.MeasureResponseCommand&#45;&gt;topo.analysis.featureresponses.PositionMeasurementCommand</title>
<path fill="none" stroke="black" stroke-width="0.5" d="M1261.67,-238C1277.16,-238 1292.95,-238 1308.58,-238"/>
<polygon fill="black" stroke="black" points="1308.87,-239.75 1313.87,-238 1308.87,-236.25 1308.87,-239.75"/>
</g>
<!-- topo.analysis.featureresponses.SingleInputResponseCommand -->
<g id="node51" class="node"><title>topo.analysis.featureresponses.SingleInputResponseCommand</title>
<polygon fill="none" stroke="black" stroke-width="0.5" points="1635,-210.5 1317,-210.5 1317,-189.5 1635,-189.5 1635,-210.5"/>
<text text-anchor="middle" x="1476" y="-197.5" font-family="Vera" font-size="10.00">topo.analysis.featureresponses.SingleInputResponseCommand</text>
</g>
<!-- topo.analysis.featureresponses.MeasureResponseCommand&#45;&gt;topo.analysis.featureresponses.SingleInputResponseCommand -->
<g id="edge50" class="edge"><title>topo.analysis.featureresponses.MeasureResponseCommand&#45;&gt;topo.analysis.featureresponses.SingleInputResponseCommand</title>
<path fill="none" stroke="black" stroke-width="0.5" d="M1205.17,-227.966C1257.15,-222.598 1321.14,-215.991 1373.86,-210.547"/>
<polygon fill="black" stroke="black" points="1374.13,-212.278 1378.93,-210.024 1373.77,-208.797 1374.13,-212.278"/>
</g>
<!-- topo.analysis.featureresponses.MeasurementInterrupt -->
<g id="node36" class="node"><title>topo.analysis.featureresponses.MeasurementInterrupt</title>
<polygon fill="none" stroke="black" stroke-width="0.5" points="278,-191.5 1.13687e-13,-191.5 0,-170.5 278,-170.5 278,-191.5"/>
<text text-anchor="middle" x="139" y="-178.5" font-family="Vera" font-size="10.00">topo.analysis.featureresponses.MeasurementInterrupt</text>
</g>
</g>
</svg>
