<?xml version="1.0" encoding="UTF-8" standalone="no"?>
<!DOCTYPE svg PUBLIC "-//W3C//DTD SVG 1.1//EN"
 "http://www.w3.org/Graphics/SVG/1.1/DTD/svg11.dtd">
<!-- Generated by graphviz version 2.26.3 (20100126.1600)
 -->
<!-- Title: inheritancef4cea304dd Pages: 1 -->
<svg width="1124pt" height="294pt"
 viewBox="0.00 0.00 1124.00 294.00" xmlns="http://www.w3.org/2000/svg" xmlns:xlink="http://www.w3.org/1999/xlink">
<g id="graph1" class="graph" transform="scale(1 1) rotate(0) translate(4 290)">
<title>inheritancef4cea304dd</title>
<polygon fill="white" stroke="white" points="-4,5 -4,-290 1121,-290 1121,5 -4,5"/>
<!-- topo.base.cf.CFPLearningFn -->
<g id="node1" class="node"><title>topo.base.cf.CFPLearningFn</title>
<polygon fill="none" stroke="black" stroke-width="0.5" points="422,-248.5 274,-248.5 274,-227.5 422,-227.5 422,-248.5"/>
<text text-anchor="middle" x="348" y="-235.5" font-family="Vera" font-size="10.00">topo.base.cf.CFPLearningFn</text>
</g>
<!-- topo.base.cf.CFPLF_Identity -->
<g id="node14" class="node"><title>topo.base.cf.CFPLF_Identity</title>
<polygon fill="none" stroke="black" stroke-width="0.5" points="658,-286.5 512,-286.5 512,-265.5 658,-265.5 658,-286.5"/>
<text text-anchor="middle" x="585" y="-273.5" font-family="Vera" font-size="10.00">topo.base.cf.CFPLF_Identity</text>
</g>
<!-- topo.base.cf.CFPLearningFn&#45;&gt;topo.base.cf.CFPLF_Identity -->
<g id="edge10" class="edge"><title>topo.base.cf.CFPLearningFn&#45;&gt;topo.base.cf.CFPLF_Identity</title>
<path fill="none" stroke="black" stroke-width="0.5" d="M410.579,-248.034C443.384,-253.294 483.607,-259.743 517.157,-265.122"/>
<polygon fill="black" stroke="black" points="517.268,-266.912 522.482,-265.976 517.822,-263.456 517.268,-266.912"/>
</g>
<!-- topo.base.cf.CFPLF_Plugin -->
<g id="node22" class="node"><title>topo.base.cf.CFPLF_Plugin</title>
<polygon fill="none" stroke="black" stroke-width="0.5" points="655,-248.5 515,-248.5 515,-227.5 655,-227.5 655,-248.5"/>
<text text-anchor="middle" x="585" y="-235.5" font-family="Vera" font-size="10.00">topo.base.cf.CFPLF_Plugin</text>
</g>
<!-- topo.base.cf.CFPLearningFn&#45;&gt;topo.base.cf.CFPLF_Plugin -->
<g id="edge18" class="edge"><title>topo.base.cf.CFPLearningFn&#45;&gt;topo.base.cf.CFPLF_Plugin</title>
<path fill="none" stroke="black" stroke-width="0.5" d="M422.663,-238C450.381,-238 481.824,-238 509.606,-238"/>
<polygon fill="black" stroke="black" points="509.75,-239.75 514.75,-238 509.75,-236.25 509.75,-239.75"/>
</g>
<!-- param.parameterized.Parameterized -->
<g id="node2" class="node"><title>param.parameterized.Parameterized</title>
<polygon fill="none" stroke="black" stroke-width="0.5" points="194,-134.5 5.68434e-14,-134.5 0,-113.5 194,-113.5 194,-134.5"/>
<text text-anchor="middle" x="97" y="-121.5" font-family="Vera" font-size="10.00">param.parameterized.Parameterized</text>
</g>
<!-- param.parameterized.Parameterized&#45;&gt;topo.base.cf.CFPLearningFn -->
<g id="edge2" class="edge"><title>param.parameterized.Parameterized&#45;&gt;topo.base.cf.CFPLearningFn</title>
<path fill="none" stroke="black" stroke-width="0.5" d="M172.778,-134.022C180.177,-136.411 187.384,-139.361 194,-143 214.384,-154.213 211.218,-167.271 230,-181 256.518,-200.384 290.656,-216.033 315.385,-225.995"/>
<polygon fill="black" stroke="black" points="314.908,-227.689 320.201,-227.911 316.202,-224.437 314.908,-227.689"/>
</g>
<!-- topo.base.cf.CFPOutputFn -->
<g id="node9" class="node"><title>topo.base.cf.CFPOutputFn</title>
<polygon fill="none" stroke="black" stroke-width="0.5" points="418,-172.5 278,-172.5 278,-151.5 418,-151.5 418,-172.5"/>
<text text-anchor="middle" x="348" y="-159.5" font-family="Vera" font-size="10.00">topo.base.cf.CFPOutputFn</text>
</g>
<!-- param.parameterized.Parameterized&#45;&gt;topo.base.cf.CFPOutputFn -->
<g id="edge16" class="edge"><title>param.parameterized.Parameterized&#45;&gt;topo.base.cf.CFPOutputFn</title>
<path fill="none" stroke="black" stroke-width="0.5" d="M163.276,-134.034C198.161,-139.315 240.968,-145.796 276.587,-151.189"/>
<polygon fill="black" stroke="black" points="276.583,-152.958 281.789,-151.976 277.107,-149.497 276.583,-152.958"/>
</g>
<!-- topo.base.simulation.EPConnection -->
<g id="node11" class="node"><title>topo.base.simulation.EPConnection</title>
<polygon fill="none" stroke="black" stroke-width="0.5" points="441,-134.5 255,-134.5 255,-113.5 441,-113.5 441,-134.5"/>
<text text-anchor="middle" x="348" y="-121.5" font-family="Vera" font-size="10.00">topo.base.simulation.EPConnection</text>
</g>
<!-- param.parameterized.Parameterized&#45;&gt;topo.base.simulation.EPConnection -->
<g id="edge8" class="edge"><title>param.parameterized.Parameterized&#45;&gt;topo.base.simulation.EPConnection</title>
<path fill="none" stroke="black" stroke-width="0.5" d="M194.043,-124C212.327,-124 231.462,-124 249.781,-124"/>
<polygon fill="black" stroke="black" points="249.926,-125.75 254.926,-124 249.926,-122.25 249.926,-125.75"/>
</g>
<!-- topo.base.cf.CFPResponseFn -->
<g id="node24" class="node"><title>topo.base.cf.CFPResponseFn</title>
<polygon fill="none" stroke="black" stroke-width="0.5" points="424,-96.5 272,-96.5 272,-75.5 424,-75.5 424,-96.5"/>
<text text-anchor="middle" x="348" y="-83.5" font-family="Vera" font-size="10.00">topo.base.cf.CFPResponseFn</text>
</g>
<!-- param.parameterized.Parameterized&#45;&gt;topo.base.cf.CFPResponseFn -->
<g id="edge20" class="edge"><title>param.parameterized.Parameterized&#45;&gt;topo.base.cf.CFPResponseFn</title>
<path fill="none" stroke="black" stroke-width="0.5" d="M163.276,-113.966C198.161,-108.685 240.968,-102.204 276.587,-96.8115"/>
<polygon fill="black" stroke="black" points="277.107,-98.5029 281.789,-96.024 276.583,-95.0423 277.107,-98.5029"/>
</g>
<!-- topo.base.simulation.EventProcessor -->
<g id="node35" class="node"><title>topo.base.simulation.EventProcessor</title>
<polygon fill="none" stroke="black" stroke-width="0.5" points="445,-58.5 251,-58.5 251,-37.5 445,-37.5 445,-58.5"/>
<text text-anchor="middle" x="348" y="-45.5" font-family="Vera" font-size="10.00">topo.base.simulation.EventProcessor</text>
</g>
<!-- param.parameterized.Parameterized&#45;&gt;topo.base.simulation.EventProcessor -->
<g id="edge30" class="edge"><title>param.parameterized.Parameterized&#45;&gt;topo.base.simulation.EventProcessor</title>
<path fill="none" stroke="black" stroke-width="0.5" d="M116.274,-113.949C141.663,-101.132 188.018,-79.1752 230,-67 240.715,-63.8926 252.134,-61.2523 263.489,-59.0201"/>
<polygon fill="black" stroke="black" points="264.117,-60.6817 268.698,-58.0229 263.459,-57.2441 264.117,-60.6817"/>
</g>
<!-- imagen.sheetcoords.SheetCoordinateSystem -->
<g id="node4" class="node"><title>imagen.sheetcoords.SheetCoordinateSystem</title>
<polygon fill="none" stroke="black" stroke-width="0.5" points="466,-20.5 230,-20.5 230,0.5 466,0.5 466,-20.5"/>
<text text-anchor="middle" x="348" y="-7.5" font-family="Vera" font-size="10.00">imagen.sheetcoords.SheetCoordinateSystem</text>
</g>
<!-- topo.base.sheet.Sheet -->
<g id="node33" class="node"><title>topo.base.sheet.Sheet</title>
<polygon fill="none" stroke="black" stroke-width="0.5" points="648,-39.5 522,-39.5 522,-18.5 648,-18.5 648,-39.5"/>
<text text-anchor="middle" x="585" y="-26.5" font-family="Vera" font-size="10.00">topo.base.sheet.Sheet</text>
</g>
<!-- imagen.sheetcoords.SheetCoordinateSystem&#45;&gt;topo.base.sheet.Sheet -->
<g id="edge34" class="edge"><title>imagen.sheetcoords.SheetCoordinateSystem&#45;&gt;topo.base.sheet.Sheet</title>
<path fill="none" stroke="black" stroke-width="0.5" d="M466.153,-19.4722C483.445,-20.8585 500.748,-22.2456 516.587,-23.5154"/>
<polygon fill="black" stroke="black" points="516.777,-25.2861 521.901,-23.9414 517.056,-21.7973 516.777,-25.2861"/>
</g>
<!-- topo.base.cf.CFProjection -->
<g id="node5" class="node"><title>topo.base.cf.CFProjection</title>
<polygon fill="none" stroke="black" stroke-width="0.5" points="869,-134.5 733,-134.5 733,-113.5 869,-113.5 869,-134.5"/>
<text text-anchor="middle" x="801" y="-121.5" font-family="Vera" font-size="10.00">topo.base.cf.CFProjection</text>
</g>
<!-- topo.base.cf.ResizableCFProjection -->
<g id="node29" class="node"><title>topo.base.cf.ResizableCFProjection</title>
<polygon fill="none" stroke="black" stroke-width="0.5" points="1116,-134.5 934,-134.5 934,-113.5 1116,-113.5 1116,-134.5"/>
<text text-anchor="middle" x="1025" y="-121.5" font-family="Vera" font-size="10.00">topo.base.cf.ResizableCFProjection</text>
</g>
<!-- topo.base.cf.CFProjection&#45;&gt;topo.base.cf.ResizableCFProjection -->
<g id="edge24" class="edge"><title>topo.base.cf.CFProjection&#45;&gt;topo.base.cf.ResizableCFProjection</title>
<path fill="none" stroke="black" stroke-width="0.5" d="M869.73,-124C888.343,-124 908.841,-124 928.67,-124"/>
<polygon fill="black" stroke="black" points="928.696,-125.75 933.696,-124 928.696,-122.25 928.696,-125.75"/>
</g>
<!-- topo.base.projection.Projection -->
<g id="node6" class="node"><title>topo.base.projection.Projection</title>
<polygon fill="none" stroke="black" stroke-width="0.5" points="667,-134.5 503,-134.5 503,-113.5 667,-113.5 667,-134.5"/>
<text text-anchor="middle" x="585" y="-121.5" font-family="Vera" font-size="10.00">topo.base.projection.Projection</text>
</g>
<!-- topo.base.projection.Projection&#45;&gt;topo.base.cf.CFProjection -->
<g id="edge4" class="edge"><title>topo.base.projection.Projection&#45;&gt;topo.base.cf.CFProjection</title>
<path fill="none" stroke="black" stroke-width="0.5" d="M667.585,-124C687.071,-124 707.728,-124 726.817,-124"/>
<polygon fill="black" stroke="black" points="727.157,-125.75 732.157,-124 727.157,-122.25 727.157,-125.75"/>
</g>
<!-- topo.base.cf.CFPOF_Plugin -->
<g id="node8" class="node"><title>topo.base.cf.CFPOF_Plugin</title>
<polygon fill="none" stroke="black" stroke-width="0.5" points="656,-210.5 514,-210.5 514,-189.5 656,-189.5 656,-210.5"/>
<text text-anchor="middle" x="585" y="-197.5" font-family="Vera" font-size="10.00">topo.base.cf.CFPOF_Plugin</text>
</g>
<!-- topo.base.cf.CFPOutputFn&#45;&gt;topo.base.cf.CFPOF_Plugin -->
<g id="edge6" class="edge"><title>topo.base.cf.CFPOutputFn&#45;&gt;topo.base.cf.CFPOF_Plugin</title>
<path fill="none" stroke="black" stroke-width="0.5" d="M410.579,-172.034C443.384,-177.294 483.607,-183.743 517.157,-189.122"/>
<polygon fill="black" stroke="black" points="517.268,-190.912 522.482,-189.976 517.822,-187.456 517.268,-190.912"/>
</g>
<!-- topo.base.cf.CFPOF_Identity -->
<g id="node31" class="node"><title>topo.base.cf.CFPOF_Identity</title>
<polygon fill="none" stroke="black" stroke-width="0.5" points="659,-172.5 511,-172.5 511,-151.5 659,-151.5 659,-172.5"/>
<text text-anchor="middle" x="585" y="-159.5" font-family="Vera" font-size="10.00">topo.base.cf.CFPOF_Identity</text>
</g>
<!-- topo.base.cf.CFPOutputFn&#45;&gt;topo.base.cf.CFPOF_Identity -->
<g id="edge26" class="edge"><title>topo.base.cf.CFPOutputFn&#45;&gt;topo.base.cf.CFPOF_Identity</title>
<path fill="none" stroke="black" stroke-width="0.5" d="M418.146,-162C445.516,-162 477.04,-162 505.266,-162"/>
<polygon fill="black" stroke="black" points="505.496,-163.75 510.496,-162 505.496,-160.25 505.496,-163.75"/>
</g>
<!-- topo.base.simulation.EPConnection&#45;&gt;topo.base.projection.Projection -->
<g id="edge12" class="edge"><title>topo.base.simulation.EPConnection&#45;&gt;topo.base.projection.Projection</title>
<path fill="none" stroke="black" stroke-width="0.5" d="M441.328,-124C459.681,-124 478.878,-124 497.046,-124"/>
<polygon fill="black" stroke="black" points="497.142,-125.75 502.142,-124 497.142,-122.25 497.142,-125.75"/>
</g>
<!-- topo.base.cf.ConnectionField -->
<g id="node13" class="node"><title>topo.base.cf.ConnectionField</title>
<polygon fill="none" stroke="black" stroke-width="0.5" points="173,-172.5 21,-172.5 21,-151.5 173,-151.5 173,-172.5"/>
<text text-anchor="middle" x="97" y="-159.5" font-family="Vera" font-size="10.00">topo.base.cf.ConnectionField</text>
</g>
<!-- topo.base.cf.CFSheet -->
<g id="node17" class="node"><title>topo.base.cf.CFSheet</title>
<polygon fill="none" stroke="black" stroke-width="0.5" points="1084,-39.5 966,-39.5 966,-18.5 1084,-18.5 1084,-39.5"/>
<text text-anchor="middle" x="1025" y="-26.5" font-family="Vera" font-size="10.00">topo.base.cf.CFSheet</text>
</g>
<!-- topo.base.projection.ProjectionSheet -->
<g id="node18" class="node"><title>topo.base.projection.ProjectionSheet</title>
<polygon fill="none" stroke="black" stroke-width="0.5" points="898,-39.5 704,-39.5 704,-18.5 898,-18.5 898,-39.5"/>
<text text-anchor="middle" x="801" y="-26.5" font-family="Vera" font-size="10.00">topo.base.projection.ProjectionSheet</text>
</g>
<!-- topo.base.projection.ProjectionSheet&#45;&gt;topo.base.cf.CFSheet -->
<g id="edge14" class="edge"><title>topo.base.projection.ProjectionSheet&#45;&gt;topo.base.cf.CFSheet</title>
<path fill="none" stroke="black" stroke-width="0.5" d="M898.272,-29C919.101,-29 940.622,-29 959.885,-29"/>
<polygon fill="black" stroke="black" points="960.255,-30.7501 965.255,-29 960.255,-27.2501 960.255,-30.7501"/>
</g>
<!-- topo.base.cf.CFIter -->
<g id="node20" class="node"><title>topo.base.cf.CFIter</title>
<polygon fill="none" stroke="black" stroke-width="0.5" points="150,-210.5 44,-210.5 44,-189.5 150,-189.5 150,-210.5"/>
<text text-anchor="middle" x="97" y="-197.5" font-family="Vera" font-size="10.00">topo.base.cf.CFIter</text>
</g>
<!-- topo.base.cf.CFPRF_Plugin -->
<g id="node27" class="node"><title>topo.base.cf.CFPRF_Plugin</title>
<polygon fill="none" stroke="black" stroke-width="0.5" points="655,-96.5 515,-96.5 515,-75.5 655,-75.5 655,-96.5"/>
<text text-anchor="middle" x="585" y="-83.5" font-family="Vera" font-size="10.00">topo.base.cf.CFPRF_Plugin</text>
</g>
<!-- topo.base.cf.CFPResponseFn&#45;&gt;topo.base.cf.CFPRF_Plugin -->
<g id="edge22" class="edge"><title>topo.base.cf.CFPResponseFn&#45;&gt;topo.base.cf.CFPRF_Plugin</title>
<path fill="none" stroke="black" stroke-width="0.5" d="M424.62,-86C451.738,-86 482.215,-86 509.259,-86"/>
<polygon fill="black" stroke="black" points="509.268,-87.7501 514.268,-86 509.268,-84.2501 509.268,-87.7501"/>
</g>
<!-- topo.base.cf.NullCFError -->
<g id="node26" class="node"><title>topo.base.cf.NullCFError</title>
<polygon fill="none" stroke="black" stroke-width="0.5" points="162,-248.5 32,-248.5 32,-227.5 162,-227.5 162,-248.5"/>
<text text-anchor="middle" x="97" y="-235.5" font-family="Vera" font-size="10.00">topo.base.cf.NullCFError</text>
</g>
<!-- topo.base.sheet.Sheet&#45;&gt;topo.base.projection.ProjectionSheet -->
<g id="edge28" class="edge"><title>topo.base.sheet.Sheet&#45;&gt;topo.base.projection.ProjectionSheet</title>
<path fill="none" stroke="black" stroke-width="0.5" d="M648.057,-29C663.856,-29 681.216,-29 698.394,-29"/>
<polygon fill="black" stroke="black" points="698.717,-30.7501 703.717,-29 698.717,-27.2501 698.717,-30.7501"/>
</g>
<!-- topo.base.simulation.EventProcessor&#45;&gt;topo.base.sheet.Sheet -->
<g id="edge32" class="edge"><title>topo.base.simulation.EventProcessor&#45;&gt;topo.base.sheet.Sheet</title>
<path fill="none" stroke="black" stroke-width="0.5" d="M445.081,-40.2172C469.206,-38.283 494.557,-36.2507 516.952,-34.4553"/>
<polygon fill="black" stroke="black" points="517.137,-36.1962 521.981,-34.0522 516.857,-32.7074 517.137,-36.1962"/>
</g>
</g>
</svg>
