<?xml version="1.0" encoding="UTF-8" standalone="no"?>
<!DOCTYPE svg PUBLIC "-//W3C//DTD SVG 1.1//EN"
 "http://www.w3.org/Graphics/SVG/1.1/DTD/svg11.dtd">
<!-- Generated by graphviz version 2.26.3 (20100126.1600)
 -->
<!-- Title: inheritance95afd34832 Pages: 1 -->
<svg width="1474pt" height="750pt"
 viewBox="0.00 0.00 1474.00 750.00" xmlns="http://www.w3.org/2000/svg" xmlns:xlink="http://www.w3.org/1999/xlink">
<g id="graph1" class="graph" transform="scale(1 1) rotate(0) translate(4 746)">
<title>inheritance95afd34832</title>
<polygon fill="white" stroke="white" points="-4,5 -4,-746 1471,-746 1471,5 -4,5"/>
<!-- paramtk.ListRepresenter -->
<g id="node1" class="node"><title>paramtk.ListRepresenter</title>
<polygon fill="none" stroke="black" stroke-width="0.5" points="784,-552.5 650,-552.5 650,-531.5 784,-531.5 784,-552.5"/>
<text text-anchor="middle" x="717" y="-539.5" font-family="Vera" font-size="10.00">paramtk.ListRepresenter</text>
</g>
<!-- paramtk.Representer -->
<g id="node2" class="node"><title>paramtk.Representer</title>
<polygon fill="none" stroke="black" stroke-width="0.5" points="583,-552.5 465,-552.5 465,-531.5 583,-531.5 583,-552.5"/>
<text text-anchor="middle" x="524" y="-539.5" font-family="Vera" font-size="10.00">paramtk.Representer</text>
</g>
<!-- paramtk.Representer&#45;&gt;paramtk.ListRepresenter -->
<g id="edge2" class="edge"><title>paramtk.Representer&#45;&gt;paramtk.ListRepresenter</title>
<path fill="none" stroke="black" stroke-width="0.5" d="M583.218,-542C602.627,-542 624.413,-542 644.678,-542"/>
<polygon fill="black" stroke="black" points="644.795,-543.75 649.795,-542 644.795,-540.25 644.795,-543.75"/>
</g>
<!-- paramtk.ListItemCtrlWidget -->
<g id="node4" class="node"><title>paramtk.ListItemCtrlWidget</title>
<polygon fill="none" stroke="black" stroke-width="0.5" points="976,-476.5 830,-476.5 830,-455.5 976,-455.5 976,-476.5"/>
<text text-anchor="middle" x="903" y="-463.5" font-family="Vera" font-size="10.00">paramtk.ListItemCtrlWidget</text>
</g>
<!-- Tkinter.Frame -->
<g id="node5" class="node"><title>Tkinter.Frame</title>
<polygon fill="none" stroke="black" stroke-width="0.5" points="757,-362.5 677,-362.5 677,-341.5 757,-341.5 757,-362.5"/>
<text text-anchor="middle" x="717" y="-349.5" font-family="Vera" font-size="10.00">Tkinter.Frame</text>
</g>
<!-- Tkinter.Frame&#45;&gt;paramtk.ListItemCtrlWidget -->
<g id="edge4" class="edge"><title>Tkinter.Frame&#45;&gt;paramtk.ListItemCtrlWidget</title>
<path fill="none" stroke="black" stroke-width="0.5" d="M725.69,-362.034C743.091,-381.479 784.307,-424.364 828,-447 833.404,-449.8 839.245,-452.204 845.199,-454.264"/>
<polygon fill="black" stroke="black" points="844.923,-456.016 850.219,-455.915 846.016,-452.691 844.923,-456.016"/>
</g>
<!-- paramtk.HackFileEntry -->
<g id="node8" class="node"><title>paramtk.HackFileEntry</title>
<polygon fill="none" stroke="black" stroke-width="0.5" points="965,-438.5 841,-438.5 841,-417.5 965,-417.5 965,-438.5"/>
<text text-anchor="middle" x="903" y="-425.5" font-family="Vera" font-size="10.00">paramtk.HackFileEntry</text>
</g>
<!-- Tkinter.Frame&#45;&gt;paramtk.HackFileEntry -->
<g id="edge6" class="edge"><title>Tkinter.Frame&#45;&gt;paramtk.HackFileEntry</title>
<path fill="none" stroke="black" stroke-width="0.5" d="M733.752,-362.13C755.019,-374.627 793.144,-395.83 828,-409 835.492,-411.831 843.563,-414.374 851.536,-416.609"/>
<polygon fill="black" stroke="black" points="851.197,-418.331 856.482,-417.961 852.12,-414.954 851.197,-418.331"/>
</g>
<!-- paramtk.ParametersFrame -->
<g id="node19" class="node"><title>paramtk.ParametersFrame</title>
<polygon fill="none" stroke="black" stroke-width="0.5" points="976,-514.5 830,-514.5 830,-493.5 976,-493.5 976,-514.5"/>
<text text-anchor="middle" x="903" y="-501.5" font-family="Vera" font-size="10.00">paramtk.ParametersFrame</text>
</g>
<!-- Tkinter.Frame&#45;&gt;paramtk.ParametersFrame -->
<g id="edge58" class="edge"><title>Tkinter.Frame&#45;&gt;paramtk.ParametersFrame</title>
<path fill="none" stroke="black" stroke-width="0.5" d="M722.452,-362.188C736.419,-387.268 776.074,-452.321 828,-485 832.348,-487.737 837.072,-490.08 841.961,-492.085"/>
<polygon fill="black" stroke="black" points="841.602,-493.822 846.897,-493.981 842.857,-490.555 841.602,-493.822"/>
</g>
<!-- paramtk.TaggedSlider -->
<g id="node56" class="node"><title>paramtk.TaggedSlider</title>
<polygon fill="none" stroke="black" stroke-width="0.5" points="963,-400.5 843,-400.5 843,-379.5 963,-379.5 963,-400.5"/>
<text text-anchor="middle" x="903" y="-387.5" font-family="Vera" font-size="10.00">paramtk.TaggedSlider</text>
</g>
<!-- Tkinter.Frame&#45;&gt;paramtk.TaggedSlider -->
<g id="edge46" class="edge"><title>Tkinter.Frame&#45;&gt;paramtk.TaggedSlider</title>
<path fill="none" stroke="black" stroke-width="0.5" d="M757.818,-360.339C784.607,-365.812 819.937,-373.03 849.036,-378.975"/>
<polygon fill="black" stroke="black" points="848.772,-380.707 854.021,-379.994 849.473,-377.278 848.772,-380.707"/>
</g>
<!-- paramtk.ScrolledFrame -->
<g id="node63" class="node"><title>paramtk.ScrolledFrame</title>
<polygon fill="none" stroke="black" stroke-width="0.5" points="967,-362.5 839,-362.5 839,-341.5 967,-341.5 967,-362.5"/>
<text text-anchor="middle" x="903" y="-349.5" font-family="Vera" font-size="10.00">paramtk.ScrolledFrame</text>
</g>
<!-- Tkinter.Frame&#45;&gt;paramtk.ScrolledFrame -->
<g id="edge52" class="edge"><title>Tkinter.Frame&#45;&gt;paramtk.ScrolledFrame</title>
<path fill="none" stroke="black" stroke-width="0.5" d="M757.818,-352C780.075,-352 808.227,-352 833.803,-352"/>
<polygon fill="black" stroke="black" points="833.882,-353.75 838.882,-352 833.882,-350.25 833.882,-353.75"/>
</g>
<!-- paramtk.StatusBar -->
<g id="node75" class="node"><title>paramtk.StatusBar</title>
<polygon fill="none" stroke="black" stroke-width="0.5" points="957,-324.5 849,-324.5 849,-303.5 957,-303.5 957,-324.5"/>
<text text-anchor="middle" x="903" y="-311.5" font-family="Vera" font-size="10.00">paramtk.StatusBar</text>
</g>
<!-- Tkinter.Frame&#45;&gt;paramtk.StatusBar -->
<g id="edge70" class="edge"><title>Tkinter.Frame&#45;&gt;paramtk.StatusBar</title>
<path fill="none" stroke="black" stroke-width="0.5" d="M757.818,-343.661C784.607,-338.188 819.937,-330.97 849.036,-325.025"/>
<polygon fill="black" stroke="black" points="849.473,-326.722 854.021,-324.006 848.772,-323.293 849.473,-326.722"/>
</g>
<!-- paramtk.ProgressWindow -->
<g id="node77" class="node"><title>paramtk.ProgressWindow</title>
<polygon fill="none" stroke="black" stroke-width="0.5" points="971,-248.5 835,-248.5 835,-227.5 971,-227.5 971,-248.5"/>
<text text-anchor="middle" x="903" y="-235.5" font-family="Vera" font-size="10.00">paramtk.ProgressWindow</text>
</g>
<!-- Tkinter.Frame&#45;&gt;paramtk.ProgressWindow -->
<g id="edge74" class="edge"><title>Tkinter.Frame&#45;&gt;paramtk.ProgressWindow</title>
<path fill="none" stroke="black" stroke-width="0.5" d="M725.69,-341.966C743.091,-322.521 784.307,-279.636 828,-257 833.404,-254.2 839.245,-251.796 845.199,-249.736"/>
<polygon fill="black" stroke="black" points="846.016,-251.309 850.219,-248.085 844.923,-247.984 846.016,-251.309"/>
</g>
<!-- paramtk.ListWidget -->
<g id="node83" class="node"><title>paramtk.ListWidget</title>
<polygon fill="none" stroke="black" stroke-width="0.5" points="957,-286.5 849,-286.5 849,-265.5 957,-265.5 957,-286.5"/>
<text text-anchor="middle" x="903" y="-273.5" font-family="Vera" font-size="10.00">paramtk.ListWidget</text>
</g>
<!-- Tkinter.Frame&#45;&gt;paramtk.ListWidget -->
<g id="edge80" class="edge"><title>Tkinter.Frame&#45;&gt;paramtk.ListWidget</title>
<path fill="none" stroke="black" stroke-width="0.5" d="M733.752,-341.87C755.019,-329.373 793.144,-308.17 828,-295 835.492,-292.169 843.563,-289.626 851.536,-287.391"/>
<polygon fill="black" stroke="black" points="852.12,-289.046 856.482,-286.039 851.197,-285.669 852.12,-289.046"/>
</g>
<!-- paramtk.ProgressController -->
<g id="node7" class="node"><title>paramtk.ProgressController</title>
<polygon fill="none" stroke="black" stroke-width="0.5" points="791,-248.5 643,-248.5 643,-227.5 791,-227.5 791,-248.5"/>
<text text-anchor="middle" x="717" y="-235.5" font-family="Vera" font-size="10.00">paramtk.ProgressController</text>
</g>
<!-- paramtk.ProgressController&#45;&gt;paramtk.ProgressWindow -->
<g id="edge72" class="edge"><title>paramtk.ProgressController&#45;&gt;paramtk.ProgressWindow</title>
<path fill="none" stroke="black" stroke-width="0.5" d="M791.582,-238C803.962,-238 816.797,-238 829.159,-238"/>
<polygon fill="black" stroke="black" points="829.426,-239.75 834.426,-238 829.426,-236.25 829.426,-239.75"/>
</g>
<!-- paramtk.Menu -->
<g id="node10" class="node"><title>paramtk.Menu</title>
<polygon fill="none" stroke="black" stroke-width="0.5" points="946,-210.5 860,-210.5 860,-189.5 946,-189.5 946,-210.5"/>
<text text-anchor="middle" x="903" y="-197.5" font-family="Vera" font-size="10.00">paramtk.Menu</text>
</g>
<!-- Tkinter.Menu -->
<g id="node11" class="node"><title>Tkinter.Menu</title>
<polygon fill="none" stroke="black" stroke-width="0.5" points="755,-210.5 679,-210.5 679,-189.5 755,-189.5 755,-210.5"/>
<text text-anchor="middle" x="717" y="-197.5" font-family="Vera" font-size="10.00">Tkinter.Menu</text>
</g>
<!-- Tkinter.Menu&#45;&gt;paramtk.Menu -->
<g id="edge8" class="edge"><title>Tkinter.Menu&#45;&gt;paramtk.Menu</title>
<path fill="none" stroke="black" stroke-width="0.5" d="M755.539,-200C784.308,-200 823.811,-200 854.69,-200"/>
<polygon fill="black" stroke="black" points="854.959,-201.75 859.959,-200 854.959,-198.25 854.959,-201.75"/>
</g>
<!-- paramtk.Translator -->
<g id="node13" class="node"><title>paramtk.Translator</title>
<polygon fill="none" stroke="black" stroke-width="0.5" points="141,-647.5 35,-647.5 35,-626.5 141,-626.5 141,-647.5"/>
<text text-anchor="middle" x="88" y="-634.5" font-family="Vera" font-size="10.00">paramtk.Translator</text>
</g>
<!-- paramtk.String_ObjectTranslator -->
<g id="node22" class="node"><title>paramtk.String_ObjectTranslator</title>
<polygon fill="none" stroke="black" stroke-width="0.5" points="394,-704.5 224,-704.5 224,-683.5 394,-683.5 394,-704.5"/>
<text text-anchor="middle" x="309" y="-691.5" font-family="Vera" font-size="10.00">paramtk.String_ObjectTranslator</text>
</g>
<!-- paramtk.Translator&#45;&gt;paramtk.String_ObjectTranslator -->
<g id="edge38" class="edge"><title>paramtk.Translator&#45;&gt;paramtk.String_ObjectTranslator</title>
<path fill="none" stroke="black" stroke-width="0.5" d="M117.572,-647.012C142.543,-655.236 179.347,-666.822 212,-675 223.434,-677.864 235.715,-680.558 247.566,-682.969"/>
<polygon fill="black" stroke="black" points="247.368,-684.714 252.615,-683.984 248.058,-681.282 247.368,-684.714"/>
</g>
<!-- paramtk.Eval_ReprTranslator -->
<g id="node35" class="node"><title>paramtk.Eval_ReprTranslator</title>
<polygon fill="none" stroke="black" stroke-width="0.5" points="385,-666.5 233,-666.5 233,-645.5 385,-645.5 385,-666.5"/>
<text text-anchor="middle" x="309" y="-653.5" font-family="Vera" font-size="10.00">paramtk.Eval_ReprTranslator</text>
</g>
<!-- paramtk.Translator&#45;&gt;paramtk.Eval_ReprTranslator -->
<g id="edge22" class="edge"><title>paramtk.Translator&#45;&gt;paramtk.Eval_ReprTranslator</title>
<path fill="none" stroke="black" stroke-width="0.5" d="M141.78,-641.624C167.52,-643.837 198.894,-646.534 227.482,-648.992"/>
<polygon fill="black" stroke="black" points="227.654,-650.763 232.786,-649.448 227.954,-647.276 227.654,-650.763"/>
</g>
<!-- paramtk.ListTranslator -->
<g id="node42" class="node"><title>paramtk.ListTranslator</title>
<polygon fill="none" stroke="black" stroke-width="0.5" points="370,-628.5 248,-628.5 248,-607.5 370,-607.5 370,-628.5"/>
<text text-anchor="middle" x="309" y="-615.5" font-family="Vera" font-size="10.00">paramtk.ListTranslator</text>
</g>
<!-- paramtk.Translator&#45;&gt;paramtk.ListTranslator -->
<g id="edge28" class="edge"><title>paramtk.Translator&#45;&gt;paramtk.ListTranslator</title>
<path fill="none" stroke="black" stroke-width="0.5" d="M141.78,-632.376C171.978,-629.78 209.931,-626.517 242.043,-623.756"/>
<polygon fill="black" stroke="black" points="242.313,-625.49 247.145,-623.318 242.013,-622.003 242.313,-625.49"/>
</g>
<!-- paramtk.DoNothingTranslator -->
<g id="node59" class="node"><title>paramtk.DoNothingTranslator</title>
<polygon fill="none" stroke="black" stroke-width="0.5" points="388,-590.5 230,-590.5 230,-569.5 388,-569.5 388,-590.5"/>
<text text-anchor="middle" x="309" y="-577.5" font-family="Vera" font-size="10.00">paramtk.DoNothingTranslator</text>
</g>
<!-- paramtk.Translator&#45;&gt;paramtk.DoNothingTranslator -->
<g id="edge48" class="edge"><title>paramtk.Translator&#45;&gt;paramtk.DoNothingTranslator</title>
<path fill="none" stroke="black" stroke-width="0.5" d="M117.572,-626.988C142.543,-618.764 179.347,-607.178 212,-599 223.434,-596.136 235.715,-593.442 247.566,-591.031"/>
<polygon fill="black" stroke="black" points="248.058,-592.718 252.615,-590.016 247.368,-589.286 248.058,-592.718"/>
</g>
<!-- paramtk.Button -->
<g id="node14" class="node"><title>paramtk.Button</title>
<polygon fill="none" stroke="black" stroke-width="0.5" points="570,-742.5 478,-742.5 478,-721.5 570,-721.5 570,-742.5"/>
<text text-anchor="middle" x="524" y="-729.5" font-family="Vera" font-size="10.00">paramtk.Button</text>
</g>
<!-- param.Callable -->
<g id="node15" class="node"><title>param.Callable</title>
<polygon fill="none" stroke="black" stroke-width="0.5" points="353,-742.5 265,-742.5 265,-721.5 353,-721.5 353,-742.5"/>
<text text-anchor="middle" x="309" y="-729.5" font-family="Vera" font-size="10.00">param.Callable</text>
</g>
<!-- param.Callable&#45;&gt;paramtk.Button -->
<g id="edge10" class="edge"><title>param.Callable&#45;&gt;paramtk.Button</title>
<path fill="none" stroke="black" stroke-width="0.5" d="M353.548,-732C388.132,-732 436.136,-732 472.391,-732"/>
<polygon fill="black" stroke="black" points="472.652,-733.75 477.652,-732 472.652,-730.25 472.652,-733.75"/>
</g>
<!-- Tkinter.Wm -->
<g id="node17" class="node"><title>Tkinter.Wm</title>
<polygon fill="none" stroke="black" stroke-width="0.5" points="343,-58.5 275,-58.5 275,-37.5 343,-37.5 343,-58.5"/>
<text text-anchor="middle" x="309" y="-45.5" font-family="Vera" font-size="10.00">Tkinter.Wm</text>
</g>
<!-- Tkinter.Toplevel -->
<g id="node51" class="node"><title>Tkinter.Toplevel</title>
<polygon fill="none" stroke="black" stroke-width="0.5" points="568,-58.5 480,-58.5 480,-37.5 568,-37.5 568,-58.5"/>
<text text-anchor="middle" x="524" y="-45.5" font-family="Vera" font-size="10.00">Tkinter.Toplevel</text>
</g>
<!-- Tkinter.Wm&#45;&gt;Tkinter.Toplevel -->
<g id="edge42" class="edge"><title>Tkinter.Wm&#45;&gt;Tkinter.Toplevel</title>
<path fill="none" stroke="black" stroke-width="0.5" d="M343.543,-48C378.874,-48 434.11,-48 474.169,-48"/>
<polygon fill="black" stroke="black" points="474.47,-49.7501 479.47,-48 474.47,-46.2501 474.47,-49.7501"/>
</g>
<!-- paramtk.ParametersFrameWithApply -->
<g id="node18" class="node"><title>paramtk.ParametersFrameWithApply</title>
<polygon fill="none" stroke="black" stroke-width="0.5" points="1206,-514.5 1014,-514.5 1014,-493.5 1206,-493.5 1206,-514.5"/>
<text text-anchor="middle" x="1110" y="-501.5" font-family="Vera" font-size="10.00">paramtk.ParametersFrameWithApply</text>
</g>
<!-- paramtk.EditingParametersFrameWithApply -->
<g id="node28" class="node"><title>paramtk.EditingParametersFrameWithApply</title>
<polygon fill="none" stroke="black" stroke-width="0.5" points="1466,-514.5 1242,-514.5 1242,-493.5 1466,-493.5 1466,-514.5"/>
<text text-anchor="middle" x="1354" y="-501.5" font-family="Vera" font-size="10.00">paramtk.EditingParametersFrameWithApply</text>
</g>
<!-- paramtk.ParametersFrameWithApply&#45;&gt;paramtk.EditingParametersFrameWithApply -->
<g id="edge18" class="edge"><title>paramtk.ParametersFrameWithApply&#45;&gt;paramtk.EditingParametersFrameWithApply</title>
<path fill="none" stroke="black" stroke-width="0.5" d="M1206.09,-504C1216.17,-504 1226.5,-504 1236.79,-504"/>
<polygon fill="black" stroke="black" points="1236.84,-505.75 1241.84,-504 1236.84,-502.25 1236.84,-505.75"/>
</g>
<!-- paramtk.ParametersFrame&#45;&gt;paramtk.ParametersFrameWithApply -->
<g id="edge12" class="edge"><title>paramtk.ParametersFrame&#45;&gt;paramtk.ParametersFrameWithApply</title>
<path fill="none" stroke="black" stroke-width="0.5" d="M976.272,-504C986.862,-504 997.915,-504 1008.93,-504"/>
<polygon fill="black" stroke="black" points="1008.99,-505.75 1013.99,-504 1008.99,-502.25 1008.99,-505.75"/>
</g>
<!-- paramtk.CSPTranslator -->
<g id="node21" class="node"><title>paramtk.CSPTranslator</title>
<polygon fill="none" stroke="black" stroke-width="0.5" points="587,-704.5 461,-704.5 461,-683.5 587,-683.5 587,-704.5"/>
<text text-anchor="middle" x="524" y="-691.5" font-family="Vera" font-size="10.00">paramtk.CSPTranslator</text>
</g>
<!-- paramtk.String_ObjectTranslator&#45;&gt;paramtk.CSPTranslator -->
<g id="edge14" class="edge"><title>paramtk.String_ObjectTranslator&#45;&gt;paramtk.CSPTranslator</title>
<path fill="none" stroke="black" stroke-width="0.5" d="M394.591,-694C414.822,-694 436.133,-694 455.493,-694"/>
<polygon fill="black" stroke="black" points="455.899,-695.75 460.899,-694 455.899,-692.25 455.899,-695.75"/>
</g>
<!-- paramtk.TkParameterized -->
<g id="node24" class="node"><title>paramtk.TkParameterized</title>
<polygon fill="none" stroke="black" stroke-width="0.5" points="787,-514.5 647,-514.5 647,-493.5 787,-493.5 787,-514.5"/>
<text text-anchor="middle" x="717" y="-501.5" font-family="Vera" font-size="10.00">paramtk.TkParameterized</text>
</g>
<!-- paramtk.TkParameterized&#45;&gt;paramtk.ParametersFrame -->
<g id="edge56" class="edge"><title>paramtk.TkParameterized&#45;&gt;paramtk.ParametersFrame</title>
<path fill="none" stroke="black" stroke-width="0.5" d="M787.054,-504C799.308,-504 812.13,-504 824.593,-504"/>
<polygon fill="black" stroke="black" points="824.909,-505.75 829.909,-504 824.909,-502.25 824.909,-505.75"/>
</g>
<!-- paramtk.TkParameterizedBase -->
<g id="node25" class="node"><title>paramtk.TkParameterizedBase</title>
<polygon fill="none" stroke="black" stroke-width="0.5" points="606,-514.5 442,-514.5 442,-493.5 606,-493.5 606,-514.5"/>
<text text-anchor="middle" x="524" y="-501.5" font-family="Vera" font-size="10.00">paramtk.TkParameterizedBase</text>
</g>
<!-- paramtk.TkParameterizedBase&#45;&gt;paramtk.TkParameterized -->
<g id="edge16" class="edge"><title>paramtk.TkParameterizedBase&#45;&gt;paramtk.TkParameterized</title>
<path fill="none" stroke="black" stroke-width="0.5" d="M606.129,-504C617.873,-504 629.908,-504 641.516,-504"/>
<polygon fill="black" stroke="black" points="641.817,-505.75 646.817,-504 641.817,-502.25 641.817,-505.75"/>
</g>
<!-- Tkinter.Pack -->
<g id="node27" class="node"><title>Tkinter.Pack</title>
<polygon fill="none" stroke="black" stroke-width="0.5" points="345,-210.5 273,-210.5 273,-189.5 345,-189.5 345,-210.5"/>
<text text-anchor="middle" x="309" y="-197.5" font-family="Vera" font-size="10.00">Tkinter.Pack</text>
</g>
<!-- Tkinter.Widget -->
<g id="node44" class="node"><title>Tkinter.Widget</title>
<polygon fill="none" stroke="black" stroke-width="0.5" points="565,-172.5 483,-172.5 483,-151.5 565,-151.5 565,-172.5"/>
<text text-anchor="middle" x="524" y="-159.5" font-family="Vera" font-size="10.00">Tkinter.Widget</text>
</g>
<!-- Tkinter.Pack&#45;&gt;Tkinter.Widget -->
<g id="edge32" class="edge"><title>Tkinter.Pack&#45;&gt;Tkinter.Widget</title>
<path fill="none" stroke="black" stroke-width="0.5" d="M345.96,-193.468C382.269,-187.05 437.801,-177.235 477.179,-170.275"/>
<polygon fill="black" stroke="black" points="477.764,-171.949 482.383,-169.356 477.154,-168.503 477.764,-171.949"/>
</g>
<!-- Tkinter.Place -->
<g id="node30" class="node"><title>Tkinter.Place</title>
<polygon fill="none" stroke="black" stroke-width="0.5" points="347,-172.5 271,-172.5 271,-151.5 347,-151.5 347,-172.5"/>
<text text-anchor="middle" x="309" y="-159.5" font-family="Vera" font-size="10.00">Tkinter.Place</text>
</g>
<!-- Tkinter.Place&#45;&gt;Tkinter.Widget -->
<g id="edge34" class="edge"><title>Tkinter.Place&#45;&gt;Tkinter.Widget</title>
<path fill="none" stroke="black" stroke-width="0.5" d="M347.935,-162C384.299,-162 438.629,-162 477.308,-162"/>
<polygon fill="black" stroke="black" points="477.42,-163.75 482.42,-162 477.42,-160.25 477.42,-163.75"/>
</g>
<!-- Tkinter.Grid -->
<g id="node31" class="node"><title>Tkinter.Grid</title>
<polygon fill="none" stroke="black" stroke-width="0.5" points="344,-134.5 274,-134.5 274,-113.5 344,-113.5 344,-134.5"/>
<text text-anchor="middle" x="309" y="-121.5" font-family="Vera" font-size="10.00">Tkinter.Grid</text>
</g>
<!-- Tkinter.Grid&#45;&gt;Tkinter.Widget -->
<g id="edge36" class="edge"><title>Tkinter.Grid&#45;&gt;Tkinter.Widget</title>
<path fill="none" stroke="black" stroke-width="0.5" d="M344.503,-130.275C380.687,-136.67 437.012,-146.625 476.905,-153.676"/>
<polygon fill="black" stroke="black" points="476.947,-155.461 482.175,-154.608 477.556,-152.014 476.947,-155.461"/>
</g>
<!-- paramtk.AppWindow -->
<g id="node32" class="node"><title>paramtk.AppWindow</title>
<polygon fill="none" stroke="black" stroke-width="0.5" points="960,-58.5 846,-58.5 846,-37.5 960,-37.5 960,-58.5"/>
<text text-anchor="middle" x="903" y="-45.5" font-family="Vera" font-size="10.00">paramtk.AppWindow</text>
</g>
<!-- paramtk.ScrolledWindow -->
<g id="node33" class="node"><title>paramtk.ScrolledWindow</title>
<polygon fill="none" stroke="black" stroke-width="0.5" points="784,-58.5 650,-58.5 650,-37.5 784,-37.5 784,-58.5"/>
<text text-anchor="middle" x="717" y="-45.5" font-family="Vera" font-size="10.00">paramtk.ScrolledWindow</text>
</g>
<!-- paramtk.ScrolledWindow&#45;&gt;paramtk.AppWindow -->
<g id="edge20" class="edge"><title>paramtk.ScrolledWindow&#45;&gt;paramtk.AppWindow</title>
<path fill="none" stroke="black" stroke-width="0.5" d="M784.15,-48C802.603,-48 822.53,-48 840.697,-48"/>
<polygon fill="black" stroke="black" points="840.771,-49.7501 845.771,-48 840.771,-46.2501 840.771,-49.7501"/>
</g>
<!-- param.parameterized.Parameterized -->
<g id="node37" class="node"><title>param.parameterized.Parameterized</title>
<polygon fill="none" stroke="black" stroke-width="0.5" points="406,-533.5 212,-533.5 212,-512.5 406,-512.5 406,-533.5"/>
<text text-anchor="middle" x="309" y="-520.5" font-family="Vera" font-size="10.00">param.parameterized.Parameterized</text>
</g>
<!-- param.parameterized.Parameterized&#45;&gt;paramtk.Representer -->
<g id="edge78" class="edge"><title>param.parameterized.Parameterized&#45;&gt;paramtk.Representer</title>
<path fill="none" stroke="black" stroke-width="0.5" d="M406.121,-531.583C424.274,-533.187 442.826,-534.826 459.679,-536.316"/>
<polygon fill="black" stroke="black" points="459.718,-538.076 464.853,-536.773 460.026,-534.59 459.718,-538.076"/>
</g>
<!-- param.parameterized.Parameterized&#45;&gt;paramtk.TkParameterizedBase -->
<g id="edge24" class="edge"><title>param.parameterized.Parameterized&#45;&gt;paramtk.TkParameterizedBase</title>
<path fill="none" stroke="black" stroke-width="0.5" d="M406.121,-514.417C416.261,-513.521 426.525,-512.614 436.548,-511.728"/>
<polygon fill="black" stroke="black" points="436.939,-513.451 441.766,-511.267 436.631,-509.964 436.939,-513.451"/>
</g>
<!-- Tkinter.BaseWidget -->
<g id="node39" class="node"><title>Tkinter.BaseWidget</title>
<polygon fill="none" stroke="black" stroke-width="0.5" points="362,-96.5 256,-96.5 256,-75.5 362,-75.5 362,-96.5"/>
<text text-anchor="middle" x="309" y="-83.5" font-family="Vera" font-size="10.00">Tkinter.BaseWidget</text>
</g>
<!-- Tkinter.BaseWidget&#45;&gt;Tkinter.Widget -->
<g id="edge30" class="edge"><title>Tkinter.BaseWidget&#45;&gt;Tkinter.Widget</title>
<path fill="none" stroke="black" stroke-width="0.5" d="M362.75,-93.9833C377,-96.7869 392.243,-100.415 406,-105 441.006,-116.667 479.019,-136.43 502.178,-149.347"/>
<polygon fill="black" stroke="black" points="501.39,-150.912 506.607,-151.835 503.105,-147.86 501.39,-150.912"/>
</g>
<!-- Tkinter.BaseWidget&#45;&gt;Tkinter.Toplevel -->
<g id="edge40" class="edge"><title>Tkinter.BaseWidget&#45;&gt;Tkinter.Toplevel</title>
<path fill="none" stroke="black" stroke-width="0.5" d="M362.699,-76.509C396.819,-70.4785 440.681,-62.7261 474.052,-56.8281"/>
<polygon fill="black" stroke="black" points="474.695,-58.4916 479.314,-55.898 474.086,-55.045 474.695,-58.4916"/>
</g>
<!-- Tkinter.Misc -->
<g id="node40" class="node"><title>Tkinter.Misc</title>
<polygon fill="none" stroke="black" stroke-width="0.5" points="124,-96.5 52,-96.5 52,-75.5 124,-75.5 124,-96.5"/>
<text text-anchor="middle" x="88" y="-83.5" font-family="Vera" font-size="10.00">Tkinter.Misc</text>
</g>
<!-- Tkinter.Misc&#45;&gt;Tkinter.BaseWidget -->
<g id="edge26" class="edge"><title>Tkinter.Misc&#45;&gt;Tkinter.BaseWidget</title>
<path fill="none" stroke="black" stroke-width="0.5" d="M124.494,-86C158.637,-86 210.226,-86 250.18,-86"/>
<polygon fill="black" stroke="black" points="250.489,-87.7501 255.489,-86 250.489,-84.2501 250.489,-87.7501"/>
</g>
<!-- Tkinter.Widget&#45;&gt;Tkinter.Frame -->
<g id="edge68" class="edge"><title>Tkinter.Widget&#45;&gt;Tkinter.Frame</title>
<path fill="none" stroke="black" stroke-width="0.5" d="M534.377,-172.215C566.71,-204.046 665.687,-301.484 702.771,-337.992"/>
<polygon fill="black" stroke="black" points="701.781,-339.474 706.572,-341.734 704.237,-336.979 701.781,-339.474"/>
</g>
<!-- Tkinter.Widget&#45;&gt;Tkinter.Menu -->
<g id="edge54" class="edge"><title>Tkinter.Widget&#45;&gt;Tkinter.Menu</title>
<path fill="none" stroke="black" stroke-width="0.5" d="M565.878,-170.245C597.659,-176.503 641.226,-185.081 673.418,-191.419"/>
<polygon fill="black" stroke="black" points="673.239,-193.167 678.483,-192.416 673.916,-189.733 673.239,-193.167"/>
</g>
<!-- Tkinter.Button -->
<g id="node54" class="node"><title>Tkinter.Button</title>
<polygon fill="none" stroke="black" stroke-width="0.5" points="758,-172.5 676,-172.5 676,-151.5 758,-151.5 758,-172.5"/>
<text text-anchor="middle" x="717" y="-159.5" font-family="Vera" font-size="10.00">Tkinter.Button</text>
</g>
<!-- Tkinter.Widget&#45;&gt;Tkinter.Button -->
<g id="edge44" class="edge"><title>Tkinter.Widget&#45;&gt;Tkinter.Button</title>
<path fill="none" stroke="black" stroke-width="0.5" d="M565.878,-162C596.607,-162 638.353,-162 670.183,-162"/>
<polygon fill="black" stroke="black" points="670.204,-163.75 675.204,-162 670.204,-160.25 670.204,-163.75"/>
</g>
<!-- paramtk.Scrodget -->
<g id="node69" class="node"><title>paramtk.Scrodget</title>
<polygon fill="none" stroke="black" stroke-width="0.5" points="769,-96.5 665,-96.5 665,-75.5 769,-75.5 769,-96.5"/>
<text text-anchor="middle" x="717" y="-83.5" font-family="Vera" font-size="10.00">paramtk.Scrodget</text>
</g>
<!-- Tkinter.Widget&#45;&gt;paramtk.Scrodget -->
<g id="edge64" class="edge"><title>Tkinter.Widget&#45;&gt;paramtk.Scrodget</title>
<path fill="none" stroke="black" stroke-width="0.5" d="M541.899,-151.939C564.601,-139.514 605.228,-118.383 642,-105 649.735,-102.185 658.065,-99.6286 666.261,-97.3688"/>
<polygon fill="black" stroke="black" points="666.968,-98.9909 671.34,-96.0004 666.057,-95.6113 666.968,-98.9909"/>
</g>
<!-- paramtk.Balloon -->
<g id="node85" class="node"><title>paramtk.Balloon</title>
<polygon fill="none" stroke="black" stroke-width="0.5" points="764,-134.5 670,-134.5 670,-113.5 764,-113.5 764,-134.5"/>
<text text-anchor="middle" x="717" y="-121.5" font-family="Vera" font-size="10.00">paramtk.Balloon</text>
</g>
<!-- Tkinter.Widget&#45;&gt;paramtk.Balloon -->
<g id="edge82" class="edge"><title>Tkinter.Widget&#45;&gt;paramtk.Balloon</title>
<path fill="none" stroke="black" stroke-width="0.5" d="M565.878,-153.755C594.818,-148.057 633.53,-140.435 664.527,-134.331"/>
<polygon fill="black" stroke="black" points="664.866,-136.048 669.433,-133.365 664.189,-132.614 664.866,-136.048"/>
</g>
<!-- param.parameterized.Parameter -->
<g id="node50" class="node"><title>param.parameterized.Parameter</title>
<polygon fill="none" stroke="black" stroke-width="0.5" points="175,-742.5 1,-742.5 1,-721.5 175,-721.5 175,-742.5"/>
<text text-anchor="middle" x="88" y="-729.5" font-family="Vera" font-size="10.00">param.parameterized.Parameter</text>
</g>
<!-- param.parameterized.Parameter&#45;&gt;param.Callable -->
<g id="edge84" class="edge"><title>param.parameterized.Parameter&#45;&gt;param.Callable</title>
<path fill="none" stroke="black" stroke-width="0.5" d="M175.662,-732C204.015,-732 234.464,-732 259.097,-732"/>
<polygon fill="black" stroke="black" points="259.263,-733.75 264.263,-732 259.263,-730.25 259.263,-733.75"/>
</g>
<!-- Tkinter.Toplevel&#45;&gt;paramtk.ScrolledWindow -->
<g id="edge60" class="edge"><title>Tkinter.Toplevel&#45;&gt;paramtk.ScrolledWindow</title>
<path fill="none" stroke="black" stroke-width="0.5" d="M568.763,-48C591.313,-48 619.213,-48 644.705,-48"/>
<polygon fill="black" stroke="black" points="644.769,-49.7501 649.769,-48 644.769,-46.2501 644.769,-49.7501"/>
</g>
<!-- paramtk.ToolTip -->
<g id="node72" class="node"><title>paramtk.ToolTip</title>
<polygon fill="none" stroke="black" stroke-width="0.5" points="763,-20.5 671,-20.5 671,0.5 763,0.5 763,-20.5"/>
<text text-anchor="middle" x="717" y="-7.5" font-family="Vera" font-size="10.00">paramtk.ToolTip</text>
</g>
<!-- Tkinter.Toplevel&#45;&gt;paramtk.ToolTip -->
<g id="edge66" class="edge"><title>Tkinter.Toplevel&#45;&gt;paramtk.ToolTip</title>
<path fill="none" stroke="black" stroke-width="0.5" d="M568.763,-39.1865C597.711,-33.4869 635.478,-26.0509 665.646,-20.1111"/>
<polygon fill="black" stroke="black" points="666.235,-21.7789 670.802,-19.0959 665.558,-18.3449 666.235,-21.7789"/>
</g>
<!-- paramtk.FocusTakingButton -->
<g id="node61" class="node"><title>paramtk.FocusTakingButton</title>
<polygon fill="none" stroke="black" stroke-width="0.5" points="977,-172.5 829,-172.5 829,-151.5 977,-151.5 977,-172.5"/>
<text text-anchor="middle" x="903" y="-159.5" font-family="Vera" font-size="10.00">paramtk.FocusTakingButton</text>
</g>
<!-- Tkinter.Button&#45;&gt;paramtk.FocusTakingButton -->
<g id="edge50" class="edge"><title>Tkinter.Button&#45;&gt;paramtk.FocusTakingButton</title>
<path fill="none" stroke="black" stroke-width="0.5" d="M758.742,-162C777.861,-162 801.182,-162 823.453,-162"/>
<polygon fill="black" stroke="black" points="823.485,-163.75 828.485,-162 823.485,-160.25 823.485,-163.75"/>
</g>
<!-- paramtk.ScrodgetWidget -->
<g id="node58" class="node"><title>paramtk.ScrodgetWidget</title>
<polygon fill="none" stroke="black" stroke-width="0.5" points="592,-96.5 456,-96.5 456,-75.5 592,-75.5 592,-96.5"/>
<text text-anchor="middle" x="524" y="-83.5" font-family="Vera" font-size="10.00">paramtk.ScrodgetWidget</text>
</g>
<!-- paramtk.ScrodgetWidget&#45;&gt;paramtk.Scrodget -->
<g id="edge62" class="edge"><title>paramtk.ScrodgetWidget&#45;&gt;paramtk.Scrodget</title>
<path fill="none" stroke="black" stroke-width="0.5" d="M592.045,-86C614.148,-86 638.44,-86 659.681,-86"/>
<polygon fill="black" stroke="black" points="659.728,-87.7501 664.728,-86 659.728,-84.2501 659.728,-87.7501"/>
</g>
<!-- paramtk.BoolTranslator -->
<g id="node80" class="node"><title>paramtk.BoolTranslator</title>
<polygon fill="none" stroke="black" stroke-width="0.5" points="588,-590.5 460,-590.5 460,-569.5 588,-569.5 588,-590.5"/>
<text text-anchor="middle" x="524" y="-577.5" font-family="Vera" font-size="10.00">paramtk.BoolTranslator</text>
</g>
<!-- paramtk.DoNothingTranslator&#45;&gt;paramtk.BoolTranslator -->
<g id="edge76" class="edge"><title>paramtk.DoNothingTranslator&#45;&gt;paramtk.BoolTranslator</title>
<path fill="none" stroke="black" stroke-width="0.5" d="M388.142,-580C409.979,-580 433.497,-580 454.728,-580"/>
<polygon fill="black" stroke="black" points="454.788,-581.75 459.788,-580 454.788,-578.25 454.788,-581.75"/>
</g>
</g>
</svg>
