<?xml version="1.0" encoding="UTF-8" standalone="no"?>
<!DOCTYPE svg PUBLIC "-//W3C//DTD SVG 1.1//EN"
 "http://www.w3.org/Graphics/SVG/1.1/DTD/svg11.dtd">
<!-- Generated by graphviz version 2.26.3 (20100126.1600)
 -->
<!-- Title: inheritance0bce68b9cf Pages: 1 -->
<svg width="1872pt" height="370pt"
 viewBox="0.00 0.00 1872.00 370.00" xmlns="http://www.w3.org/2000/svg" xmlns:xlink="http://www.w3.org/1999/xlink">
<g id="graph1" class="graph" transform="scale(1 1) rotate(0) translate(4 366)">
<title>inheritance0bce68b9cf</title>
<polygon fill="white" stroke="white" points="-4,5 -4,-366 1869,-366 1869,5 -4,5"/>
<!-- topo.command.analysis.measure_frequency_preference -->
<g id="node1" class="node"><title>topo.command.analysis.measure_frequency_preference</title>
<polygon fill="none" stroke="black" stroke-width="0.5" points="1523,-267.5 1237,-267.5 1237,-246.5 1523,-246.5 1523,-267.5"/>
<text text-anchor="middle" x="1380" y="-254.5" font-family="Vera" font-size="10.00">topo.command.analysis.measure_frequency_preference</text>
</g>
<!-- topo.analysis.featureresponses.MeasureResponseCommand -->
<g id="node2" class="node"><title>topo.analysis.featureresponses.MeasureResponseCommand</title>
<polygon fill="none" stroke="black" stroke-width="0.5" points="1165,-191.5 859,-191.5 859,-170.5 1165,-170.5 1165,-191.5"/>
<text text-anchor="middle" x="1012" y="-178.5" font-family="Vera" font-size="10.00">topo.analysis.featureresponses.MeasureResponseCommand</text>
</g>
<!-- topo.analysis.featureresponses.MeasureResponseCommand&#45;&gt;topo.command.analysis.measure_frequency_preference -->
<g id="edge2" class="edge"><title>topo.analysis.featureresponses.MeasureResponseCommand&#45;&gt;topo.command.analysis.measure_frequency_preference</title>
<path fill="none" stroke="black" stroke-width="0.5" d="M1066.43,-191.047C1096.36,-197.405 1133.83,-206.752 1166,-219 1182.91,-225.437 1184.7,-232.723 1202,-238 1212.31,-241.144 1223.1,-243.785 1234.04,-246.002"/>
<polygon fill="black" stroke="black" points="1233.83,-247.745 1239.07,-246.991 1234.51,-244.31 1233.83,-247.745"/>
</g>
<!-- topo.analysis.featureresponses.PositionMeasurementCommand -->
<g id="node4" class="node"><title>topo.analysis.featureresponses.PositionMeasurementCommand</title>
<polygon fill="none" stroke="black" stroke-width="0.5" points="1542,-229.5 1218,-229.5 1218,-208.5 1542,-208.5 1542,-229.5"/>
<text text-anchor="middle" x="1380" y="-216.5" font-family="Vera" font-size="10.00">topo.analysis.featureresponses.PositionMeasurementCommand</text>
</g>
<!-- topo.analysis.featureresponses.MeasureResponseCommand&#45;&gt;topo.analysis.featureresponses.PositionMeasurementCommand -->
<g id="edge4" class="edge"><title>topo.analysis.featureresponses.MeasureResponseCommand&#45;&gt;topo.analysis.featureresponses.PositionMeasurementCommand</title>
<path fill="none" stroke="black" stroke-width="0.5" d="M1109.17,-191.034C1161.15,-196.402 1225.14,-203.009 1277.86,-208.453"/>
<polygon fill="black" stroke="black" points="1277.77,-210.203 1282.93,-208.976 1278.13,-206.722 1277.77,-210.203"/>
</g>
<!-- topo.analysis.featureresponses.SinusoidalMeasureResponseCommand -->
<g id="node8" class="node"><title>topo.analysis.featureresponses.SinusoidalMeasureResponseCommand</title>
<polygon fill="none" stroke="black" stroke-width="0.5" points="1558,-191.5 1202,-191.5 1202,-170.5 1558,-170.5 1558,-191.5"/>
<text text-anchor="middle" x="1380" y="-178.5" font-family="Vera" font-size="10.00">topo.analysis.featureresponses.SinusoidalMeasureResponseCommand</text>
</g>
<!-- topo.analysis.featureresponses.MeasureResponseCommand&#45;&gt;topo.analysis.featureresponses.SinusoidalMeasureResponseCommand -->
<g id="edge36" class="edge"><title>topo.analysis.featureresponses.MeasureResponseCommand&#45;&gt;topo.analysis.featureresponses.SinusoidalMeasureResponseCommand</title>
<path fill="none" stroke="black" stroke-width="0.5" d="M1165.67,-181C1175.91,-181 1186.29,-181 1196.66,-181"/>
<polygon fill="black" stroke="black" points="1196.75,-182.75 1201.75,-181 1196.75,-179.25 1196.75,-182.75"/>
</g>
<!-- topo.analysis.featureresponses.SingleInputResponseCommand -->
<g id="node13" class="node"><title>topo.analysis.featureresponses.SingleInputResponseCommand</title>
<polygon fill="none" stroke="black" stroke-width="0.5" points="1539,-153.5 1221,-153.5 1221,-132.5 1539,-132.5 1539,-153.5"/>
<text text-anchor="middle" x="1380" y="-140.5" font-family="Vera" font-size="10.00">topo.analysis.featureresponses.SingleInputResponseCommand</text>
</g>
<!-- topo.analysis.featureresponses.MeasureResponseCommand&#45;&gt;topo.analysis.featureresponses.SingleInputResponseCommand -->
<g id="edge10" class="edge"><title>topo.analysis.featureresponses.MeasureResponseCommand&#45;&gt;topo.analysis.featureresponses.SingleInputResponseCommand</title>
<path fill="none" stroke="black" stroke-width="0.5" d="M1109.17,-170.966C1161.15,-165.598 1225.14,-158.991 1277.86,-153.547"/>
<polygon fill="black" stroke="black" points="1278.13,-155.278 1282.93,-153.024 1277.77,-151.797 1278.13,-155.278"/>
</g>
<!-- topo.command.analysis.measure_latency_preference -->
<g id="node26" class="node"><title>topo.command.analysis.measure_latency_preference</title>
<polygon fill="none" stroke="black" stroke-width="0.5" points="1517,-115.5 1243,-115.5 1243,-94.5 1517,-94.5 1517,-115.5"/>
<text text-anchor="middle" x="1380" y="-102.5" font-family="Vera" font-size="10.00">topo.command.analysis.measure_latency_preference</text>
</g>
<!-- topo.analysis.featureresponses.MeasureResponseCommand&#45;&gt;topo.command.analysis.measure_latency_preference -->
<g id="edge22" class="edge"><title>topo.analysis.featureresponses.MeasureResponseCommand&#45;&gt;topo.command.analysis.measure_latency_preference</title>
<path fill="none" stroke="black" stroke-width="0.5" d="M1039.6,-170.958C1076.21,-158.045 1143.09,-135.874 1202,-124 1218.29,-120.717 1235.54,-117.976 1252.64,-115.695"/>
<polygon fill="black" stroke="black" points="1253.21,-117.385 1257.94,-115.001 1252.75,-113.915 1253.21,-117.385"/>
</g>
<!-- topo.command.analysis.measure_log_frequency_preference -->
<g id="node41" class="node"><title>topo.command.analysis.measure_log_frequency_preference</title>
<polygon fill="none" stroke="black" stroke-width="0.5" points="1533,-77.5 1227,-77.5 1227,-56.5 1533,-56.5 1533,-77.5"/>
<text text-anchor="middle" x="1380" y="-64.5" font-family="Vera" font-size="10.00">topo.command.analysis.measure_log_frequency_preference</text>
</g>
<!-- topo.analysis.featureresponses.MeasureResponseCommand&#45;&gt;topo.command.analysis.measure_log_frequency_preference -->
<g id="edge40" class="edge"><title>topo.analysis.featureresponses.MeasureResponseCommand&#45;&gt;topo.command.analysis.measure_log_frequency_preference</title>
<path fill="none" stroke="black" stroke-width="0.5" d="M1027.47,-170.833C1058.87,-150.756 1132.99,-106.219 1202,-86 1212.83,-82.8271 1224.17,-80.1721 1235.65,-77.9518"/>
<polygon fill="black" stroke="black" points="1235.99,-79.6688 1240.59,-77.0266 1235.35,-76.2289 1235.99,-79.6688"/>
</g>
<!-- topo.command.analysis.measure_corner_angle_pref -->
<g id="node22" class="node"><title>topo.command.analysis.measure_corner_angle_pref</title>
<polygon fill="none" stroke="black" stroke-width="0.5" points="1863,-362.5 1595,-362.5 1595,-341.5 1863,-341.5 1863,-362.5"/>
<text text-anchor="middle" x="1729" y="-349.5" font-family="Vera" font-size="10.00">topo.command.analysis.measure_corner_angle_pref</text>
</g>
<!-- topo.analysis.featureresponses.PositionMeasurementCommand&#45;&gt;topo.command.analysis.measure_corner_angle_pref -->
<g id="edge18" class="edge"><title>topo.analysis.featureresponses.PositionMeasurementCommand&#45;&gt;topo.command.analysis.measure_corner_angle_pref</title>
<path fill="none" stroke="black" stroke-width="0.5" d="M1542.37,-227.986C1547.84,-230.881 1553.08,-234.202 1558,-238 1593.74,-265.593 1558.73,-304.813 1594,-333 1596.92,-335.336 1600,-337.457 1603.2,-339.379"/>
<polygon fill="black" stroke="black" points="1602.43,-340.95 1607.64,-341.878 1604.14,-337.9 1602.43,-340.95"/>
</g>
<!-- topo.command.analysis.measure_corner_or_pref -->
<g id="node28" class="node"><title>topo.command.analysis.measure_corner_or_pref</title>
<polygon fill="none" stroke="black" stroke-width="0.5" points="1855,-324.5 1603,-324.5 1603,-303.5 1855,-303.5 1855,-324.5"/>
<text text-anchor="middle" x="1729" y="-311.5" font-family="Vera" font-size="10.00">topo.command.analysis.measure_corner_or_pref</text>
</g>
<!-- topo.analysis.featureresponses.PositionMeasurementCommand&#45;&gt;topo.command.analysis.measure_corner_or_pref -->
<g id="edge24" class="edge"><title>topo.analysis.featureresponses.PositionMeasurementCommand&#45;&gt;topo.command.analysis.measure_corner_or_pref</title>
<path fill="none" stroke="black" stroke-width="0.5" d="M1541.03,-229.105C1546.91,-231.682 1552.59,-234.632 1558,-238 1583.44,-253.837 1568.83,-278.739 1594,-295 1597.94,-297.547 1602.08,-299.813 1606.37,-301.827"/>
<polygon fill="black" stroke="black" points="1605.79,-303.486 1611.07,-303.915 1607.21,-300.287 1605.79,-303.486"/>
</g>
<!-- param.parameterized.Parameterized -->
<g id="node6" class="node"><title>param.parameterized.Parameterized</title>
<polygon fill="none" stroke="black" stroke-width="0.5" points="194,-229.5 5.68434e-14,-229.5 0,-208.5 194,-208.5 194,-229.5"/>
<text text-anchor="middle" x="97" y="-216.5" font-family="Vera" font-size="10.00">param.parameterized.Parameterized</text>
</g>
<!-- imagen.patterngenerator.PatternGenerator -->
<g id="node11" class="node"><title>imagen.patterngenerator.PatternGenerator</title>
<polygon fill="none" stroke="black" stroke-width="0.5" points="459,-305.5 235,-305.5 235,-284.5 459,-284.5 459,-305.5"/>
<text text-anchor="middle" x="347" y="-292.5" font-family="Vera" font-size="10.00">imagen.patterngenerator.PatternGenerator</text>
</g>
<!-- param.parameterized.Parameterized&#45;&gt;imagen.patterngenerator.PatternGenerator -->
<g id="edge38" class="edge"><title>param.parameterized.Parameterized&#45;&gt;imagen.patterngenerator.PatternGenerator</title>
<path fill="none" stroke="black" stroke-width="0.5" d="M129.94,-229.014C176.216,-243.082 260.263,-268.632 309.084,-283.474"/>
<polygon fill="black" stroke="black" points="308.694,-285.184 313.987,-284.964 309.712,-281.835 308.694,-285.184"/>
</g>
<!-- param.parameterized.ParameterizedFunction -->
<g id="node15" class="node"><title>param.parameterized.ParameterizedFunction</title>
<polygon fill="none" stroke="black" stroke-width="0.5" points="464,-229.5 230,-229.5 230,-208.5 464,-208.5 464,-229.5"/>
<text text-anchor="middle" x="347" y="-216.5" font-family="Vera" font-size="10.00">param.parameterized.ParameterizedFunction</text>
</g>
<!-- param.parameterized.Parameterized&#45;&gt;param.parameterized.ParameterizedFunction -->
<g id="edge12" class="edge"><title>param.parameterized.Parameterized&#45;&gt;param.parameterized.ParameterizedFunction</title>
<path fill="none" stroke="black" stroke-width="0.5" d="M194.014,-219C204.04,-219 214.319,-219 224.575,-219"/>
<polygon fill="black" stroke="black" points="224.607,-220.75 229.607,-219 224.607,-217.25 224.607,-220.75"/>
</g>
<!-- topo.command.analysis.PatternPresenter2 -->
<g id="node60" class="node"><title>topo.command.analysis.PatternPresenter2</title>
<polygon fill="none" stroke="black" stroke-width="0.5" points="457,-191.5 237,-191.5 237,-170.5 457,-170.5 457,-191.5"/>
<text text-anchor="middle" x="347" y="-178.5" font-family="Vera" font-size="10.00">topo.command.analysis.PatternPresenter2</text>
</g>
<!-- param.parameterized.Parameterized&#45;&gt;topo.command.analysis.PatternPresenter2 -->
<g id="edge60" class="edge"><title>param.parameterized.Parameterized&#45;&gt;topo.command.analysis.PatternPresenter2</title>
<path fill="none" stroke="black" stroke-width="0.5" d="M163.012,-208.966C197.758,-203.685 240.394,-197.204 275.872,-191.811"/>
<polygon fill="black" stroke="black" points="276.372,-193.506 281.052,-191.024 275.846,-190.045 276.372,-193.506"/>
</g>
<!-- topo.command.analysis.measure_or_pref -->
<g id="node7" class="node"><title>topo.command.analysis.measure_or_pref</title>
<polygon fill="none" stroke="black" stroke-width="0.5" points="1837,-286.5 1621,-286.5 1621,-265.5 1837,-265.5 1837,-286.5"/>
<text text-anchor="middle" x="1729" y="-273.5" font-family="Vera" font-size="10.00">topo.command.analysis.measure_or_pref</text>
</g>
<!-- topo.analysis.featureresponses.SinusoidalMeasureResponseCommand&#45;&gt;topo.command.analysis.measure_or_pref -->
<g id="edge6" class="edge"><title>topo.analysis.featureresponses.SinusoidalMeasureResponseCommand&#45;&gt;topo.command.analysis.measure_or_pref</title>
<path fill="none" stroke="black" stroke-width="0.5" d="M1541.03,-191.105C1546.91,-193.682 1552.59,-196.632 1558,-200 1583.44,-215.837 1568.83,-240.739 1594,-257 1600.83,-261.414 1608.26,-264.986 1616.01,-267.862"/>
<polygon fill="black" stroke="black" points="1615.57,-269.563 1620.87,-269.563 1616.73,-266.259 1615.57,-269.563"/>
</g>
<!-- topo.command.analysis.measure_od_pref -->
<g id="node32" class="node"><title>topo.command.analysis.measure_od_pref</title>
<polygon fill="none" stroke="black" stroke-width="0.5" points="1838,-248.5 1620,-248.5 1620,-227.5 1838,-227.5 1838,-248.5"/>
<text text-anchor="middle" x="1729" y="-235.5" font-family="Vera" font-size="10.00">topo.command.analysis.measure_od_pref</text>
</g>
<!-- topo.analysis.featureresponses.SinusoidalMeasureResponseCommand&#45;&gt;topo.command.analysis.measure_od_pref -->
<g id="edge28" class="edge"><title>topo.analysis.featureresponses.SinusoidalMeasureResponseCommand&#45;&gt;topo.command.analysis.measure_od_pref</title>
<path fill="none" stroke="black" stroke-width="0.5" d="M1520.93,-191.009C1533.59,-193.417 1546.11,-196.374 1558,-200 1575.3,-205.277 1576.79,-213.434 1594,-219 1603.68,-222.129 1613.91,-224.743 1624.24,-226.926"/>
<polygon fill="black" stroke="black" points="1624.06,-228.677 1629.31,-227.964 1624.76,-225.248 1624.06,-228.677"/>
</g>
<!-- topo.command.analysis.measure_phasedisparity -->
<g id="node43" class="node"><title>topo.command.analysis.measure_phasedisparity</title>
<polygon fill="none" stroke="black" stroke-width="0.5" points="1855,-210.5 1603,-210.5 1603,-189.5 1855,-189.5 1855,-210.5"/>
<text text-anchor="middle" x="1729" y="-197.5" font-family="Vera" font-size="10.00">topo.command.analysis.measure_phasedisparity</text>
</g>
<!-- topo.analysis.featureresponses.SinusoidalMeasureResponseCommand&#45;&gt;topo.command.analysis.measure_phasedisparity -->
<g id="edge42" class="edge"><title>topo.analysis.featureresponses.SinusoidalMeasureResponseCommand&#45;&gt;topo.command.analysis.measure_phasedisparity</title>
<path fill="none" stroke="black" stroke-width="0.5" d="M1558.08,-190.695C1571.43,-191.422 1584.75,-192.147 1597.74,-192.854"/>
<polygon fill="black" stroke="black" points="1597.8,-194.61 1602.89,-193.134 1597.99,-191.115 1597.8,-194.61"/>
</g>
<!-- topo.command.analysis.measure_second_or_pref -->
<g id="node47" class="node"><title>topo.command.analysis.measure_second_or_pref</title>
<polygon fill="none" stroke="black" stroke-width="0.5" points="1857,-172.5 1601,-172.5 1601,-151.5 1857,-151.5 1857,-172.5"/>
<text text-anchor="middle" x="1729" y="-159.5" font-family="Vera" font-size="10.00">topo.command.analysis.measure_second_or_pref</text>
</g>
<!-- topo.analysis.featureresponses.SinusoidalMeasureResponseCommand&#45;&gt;topo.command.analysis.measure_second_or_pref -->
<g id="edge46" class="edge"><title>topo.analysis.featureresponses.SinusoidalMeasureResponseCommand&#45;&gt;topo.command.analysis.measure_second_or_pref</title>
<path fill="none" stroke="black" stroke-width="0.5" d="M1558.08,-171.305C1570.72,-170.617 1583.34,-169.93 1595.67,-169.258"/>
<polygon fill="black" stroke="black" points="1596.04,-170.991 1600.94,-168.972 1595.85,-167.496 1596.04,-170.991"/>
</g>
<!-- topo.command.analysis.measure_dr_pref -->
<g id="node51" class="node"><title>topo.command.analysis.measure_dr_pref</title>
<polygon fill="none" stroke="black" stroke-width="0.5" points="1837,-134.5 1621,-134.5 1621,-113.5 1837,-113.5 1837,-134.5"/>
<text text-anchor="middle" x="1729" y="-121.5" font-family="Vera" font-size="10.00">topo.command.analysis.measure_dr_pref</text>
</g>
<!-- topo.analysis.featureresponses.SinusoidalMeasureResponseCommand&#45;&gt;topo.command.analysis.measure_dr_pref -->
<g id="edge50" class="edge"><title>topo.analysis.featureresponses.SinusoidalMeasureResponseCommand&#45;&gt;topo.command.analysis.measure_dr_pref</title>
<path fill="none" stroke="black" stroke-width="0.5" d="M1520.93,-170.991C1533.59,-168.583 1546.11,-165.626 1558,-162 1575.3,-156.723 1576.79,-148.566 1594,-143 1603.68,-139.871 1613.91,-137.257 1624.24,-135.074"/>
<polygon fill="black" stroke="black" points="1624.76,-136.752 1629.31,-134.036 1624.06,-133.323 1624.76,-136.752"/>
</g>
<!-- topo.command.analysis.measure_hue_pref -->
<g id="node53" class="node"><title>topo.command.analysis.measure_hue_pref</title>
<polygon fill="none" stroke="black" stroke-width="0.5" points="1841,-96.5 1617,-96.5 1617,-75.5 1841,-75.5 1841,-96.5"/>
<text text-anchor="middle" x="1729" y="-83.5" font-family="Vera" font-size="10.00">topo.command.analysis.measure_hue_pref</text>
</g>
<!-- topo.analysis.featureresponses.SinusoidalMeasureResponseCommand&#45;&gt;topo.command.analysis.measure_hue_pref -->
<g id="edge52" class="edge"><title>topo.analysis.featureresponses.SinusoidalMeasureResponseCommand&#45;&gt;topo.command.analysis.measure_hue_pref</title>
<path fill="none" stroke="black" stroke-width="0.5" d="M1541.03,-170.895C1546.91,-168.318 1552.59,-165.368 1558,-162 1583.44,-146.163 1568.83,-121.261 1594,-105 1599.62,-101.366 1605.65,-98.3036 1611.93,-95.7302"/>
<polygon fill="black" stroke="black" points="1612.74,-97.2921 1616.78,-93.8563 1611.48,-94.0277 1612.74,-97.2921"/>
</g>
<!-- topo.command.analysis.measure_sine_pref -->
<g id="node56" class="node"><title>topo.command.analysis.measure_sine_pref</title>
<polygon fill="none" stroke="black" stroke-width="0.5" points="1842,-58.5 1616,-58.5 1616,-37.5 1842,-37.5 1842,-58.5"/>
<text text-anchor="middle" x="1729" y="-45.5" font-family="Vera" font-size="10.00">topo.command.analysis.measure_sine_pref</text>
</g>
<!-- topo.analysis.featureresponses.SinusoidalMeasureResponseCommand&#45;&gt;topo.command.analysis.measure_sine_pref -->
<g id="edge56" class="edge"><title>topo.analysis.featureresponses.SinusoidalMeasureResponseCommand&#45;&gt;topo.command.analysis.measure_sine_pref</title>
<path fill="none" stroke="black" stroke-width="0.5" d="M1544.41,-170.908C1549.15,-168.282 1553.69,-165.324 1558,-162 1593.74,-134.407 1558.73,-95.1871 1594,-67 1599.23,-62.8201 1604.95,-59.3321 1611,-56.4339"/>
<polygon fill="black" stroke="black" points="1611.83,-57.9765 1615.68,-54.331 1610.4,-54.7839 1611.83,-57.9765"/>
</g>
<!-- topo.command.analysis.frequency_mapper -->
<g id="node10" class="node"><title>topo.command.analysis.frequency_mapper</title>
<polygon fill="none" stroke="black" stroke-width="0.5" points="773,-362.5 549,-362.5 549,-341.5 773,-341.5 773,-362.5"/>
<text text-anchor="middle" x="661" y="-349.5" font-family="Vera" font-size="10.00">topo.command.analysis.frequency_mapper</text>
</g>
<!-- imagen.patterngenerator.PatternGenerator&#45;&gt;topo.command.analysis.frequency_mapper -->
<g id="edge8" class="edge"><title>imagen.patterngenerator.PatternGenerator&#45;&gt;topo.command.analysis.frequency_mapper</title>
<path fill="none" stroke="black" stroke-width="0.5" d="M381.973,-305.022C412.809,-313.537 459.074,-325.533 500,-333 517.463,-336.186 536.094,-338.955 554.257,-341.32"/>
<polygon fill="black" stroke="black" points="554.184,-343.075 559.366,-341.976 554.63,-339.603 554.184,-343.075"/>
</g>
<!-- topo.command.analysis.latency_mapper -->
<g id="node17" class="node"><title>topo.command.analysis.latency_mapper</title>
<polygon fill="none" stroke="black" stroke-width="0.5" points="767,-324.5 555,-324.5 555,-303.5 767,-303.5 767,-324.5"/>
<text text-anchor="middle" x="661" y="-311.5" font-family="Vera" font-size="10.00">topo.command.analysis.latency_mapper</text>
</g>
<!-- imagen.patterngenerator.PatternGenerator&#45;&gt;topo.command.analysis.latency_mapper -->
<g id="edge14" class="edge"><title>imagen.patterngenerator.PatternGenerator&#45;&gt;topo.command.analysis.latency_mapper</title>
<path fill="none" stroke="black" stroke-width="0.5" d="M459.031,-301.779C488.501,-303.562 520.279,-305.485 549.709,-307.266"/>
<polygon fill="black" stroke="black" points="549.696,-309.018 554.792,-307.573 549.907,-305.525 549.696,-309.018"/>
</g>
<!-- topo.command.analysis.log_frequency_mapper -->
<g id="node49" class="node"><title>topo.command.analysis.log_frequency_mapper</title>
<polygon fill="none" stroke="black" stroke-width="0.5" points="783,-286.5 539,-286.5 539,-265.5 783,-265.5 783,-286.5"/>
<text text-anchor="middle" x="661" y="-273.5" font-family="Vera" font-size="10.00">topo.command.analysis.log_frequency_mapper</text>
</g>
<!-- imagen.patterngenerator.PatternGenerator&#45;&gt;topo.command.analysis.log_frequency_mapper -->
<g id="edge48" class="edge"><title>imagen.patterngenerator.PatternGenerator&#45;&gt;topo.command.analysis.log_frequency_mapper</title>
<path fill="none" stroke="black" stroke-width="0.5" d="M459.031,-288.221C483.203,-286.758 508.927,-285.202 533.635,-283.707"/>
<polygon fill="black" stroke="black" points="534.006,-285.438 538.891,-283.389 533.794,-281.944 534.006,-285.438"/>
</g>
<!-- topo.command.analysis.measure_rfs -->
<g id="node45" class="node"><title>topo.command.analysis.measure_rfs</title>
<polygon fill="none" stroke="black" stroke-width="0.5" points="1826,-20.5 1632,-20.5 1632,0.5 1826,0.5 1826,-20.5"/>
<text text-anchor="middle" x="1729" y="-7.5" font-family="Vera" font-size="10.00">topo.command.analysis.measure_rfs</text>
</g>
<!-- topo.analysis.featureresponses.SingleInputResponseCommand&#45;&gt;topo.command.analysis.measure_rfs -->
<g id="edge44" class="edge"><title>topo.analysis.featureresponses.SingleInputResponseCommand&#45;&gt;topo.command.analysis.measure_rfs</title>
<path fill="none" stroke="black" stroke-width="0.5" d="M1539.89,-135.288C1546.26,-132.105 1552.34,-128.368 1558,-124 1593.74,-96.4074 1558.73,-57.1871 1594,-29 1603.63,-21.3075 1614.92,-15.958 1626.81,-12.3167"/>
<polygon fill="black" stroke="black" points="1627.6,-13.9097 1631.93,-10.8589 1626.65,-10.5432 1627.6,-13.9097"/>
</g>
<!-- topo.plotting.plotgroup.ProjectionSheetMeasurementCommand -->
<g id="node24" class="node"><title>topo.plotting.plotgroup.ProjectionSheetMeasurementCommand</title>
<polygon fill="none" stroke="black" stroke-width="0.5" points="822,-248.5 500,-248.5 500,-227.5 822,-227.5 822,-248.5"/>
<text text-anchor="middle" x="661" y="-235.5" font-family="Vera" font-size="10.00">topo.plotting.plotgroup.ProjectionSheetMeasurementCommand</text>
</g>
<!-- param.parameterized.ParameterizedFunction&#45;&gt;topo.plotting.plotgroup.ProjectionSheetMeasurementCommand -->
<g id="edge20" class="edge"><title>param.parameterized.ParameterizedFunction&#45;&gt;topo.plotting.plotgroup.ProjectionSheetMeasurementCommand</title>
<path fill="none" stroke="black" stroke-width="0.5" d="M464.369,-226.102C474.323,-226.704 484.506,-227.32 494.741,-227.94"/>
<polygon fill="black" stroke="black" points="494.672,-229.689 499.769,-228.244 494.884,-226.195 494.672,-229.689"/>
</g>
<!-- topo.analysis.featureresponses.PatternPresentingCommand -->
<g id="node30" class="node"><title>topo.analysis.featureresponses.PatternPresentingCommand</title>
<polygon fill="none" stroke="black" stroke-width="0.5" points="813,-210.5 509,-210.5 509,-189.5 813,-189.5 813,-210.5"/>
<text text-anchor="middle" x="661" y="-197.5" font-family="Vera" font-size="10.00">topo.analysis.featureresponses.PatternPresentingCommand</text>
</g>
<!-- param.parameterized.ParameterizedFunction&#45;&gt;topo.analysis.featureresponses.PatternPresentingCommand -->
<g id="edge26" class="edge"><title>param.parameterized.ParameterizedFunction&#45;&gt;topo.analysis.featureresponses.PatternPresentingCommand</title>
<path fill="none" stroke="black" stroke-width="0.5" d="M464.369,-211.898C477.055,-211.13 490.112,-210.34 503.176,-209.55"/>
<polygon fill="black" stroke="black" points="503.493,-211.284 508.378,-209.235 503.281,-207.79 503.493,-211.284"/>
</g>
<!-- topo.command.analysis.save_plotgroup -->
<g id="node34" class="node"><title>topo.command.analysis.save_plotgroup</title>
<polygon fill="none" stroke="black" stroke-width="0.5" points="765,-172.5 557,-172.5 557,-151.5 765,-151.5 765,-172.5"/>
<text text-anchor="middle" x="661" y="-159.5" font-family="Vera" font-size="10.00">topo.command.analysis.save_plotgroup</text>
</g>
<!-- param.parameterized.ParameterizedFunction&#45;&gt;topo.command.analysis.save_plotgroup -->
<g id="edge30" class="edge"><title>param.parameterized.ParameterizedFunction&#45;&gt;topo.command.analysis.save_plotgroup</title>
<path fill="none" stroke="black" stroke-width="0.5" d="M429.959,-208.969C441.538,-206.577 453.171,-203.629 464,-200 481.154,-194.252 482.725,-186.373 500,-181 516.459,-175.881 534.257,-172.123 551.812,-169.369"/>
<polygon fill="black" stroke="black" points="552.075,-171.1 556.755,-168.619 551.549,-167.639 552.075,-171.1"/>
</g>
<!-- topo.command.analysis.update_projection -->
<g id="node19" class="node"><title>topo.command.analysis.update_projection</title>
<polygon fill="none" stroke="black" stroke-width="0.5" points="1490,-343.5 1270,-343.5 1270,-322.5 1490,-322.5 1490,-343.5"/>
<text text-anchor="middle" x="1380" y="-330.5" font-family="Vera" font-size="10.00">topo.command.analysis.update_projection</text>
</g>
<!-- topo.plotting.plotgroup.UnitMeasurementCommand -->
<g id="node20" class="node"><title>topo.plotting.plotgroup.UnitMeasurementCommand</title>
<polygon fill="none" stroke="black" stroke-width="0.5" points="1145,-305.5 879,-305.5 879,-284.5 1145,-284.5 1145,-305.5"/>
<text text-anchor="middle" x="1012" y="-292.5" font-family="Vera" font-size="10.00">topo.plotting.plotgroup.UnitMeasurementCommand</text>
</g>
<!-- topo.plotting.plotgroup.UnitMeasurementCommand&#45;&gt;topo.command.analysis.update_projection -->
<g id="edge16" class="edge"><title>topo.plotting.plotgroup.UnitMeasurementCommand&#45;&gt;topo.command.analysis.update_projection</title>
<path fill="none" stroke="black" stroke-width="0.5" d="M1109.17,-305.034C1161.15,-310.402 1225.14,-317.009 1277.86,-322.453"/>
<polygon fill="black" stroke="black" points="1277.77,-324.203 1282.93,-322.976 1278.13,-320.722 1277.77,-324.203"/>
</g>
<!-- topo.command.analysis.update_connectionfields -->
<g id="node58" class="node"><title>topo.command.analysis.update_connectionfields</title>
<polygon fill="none" stroke="black" stroke-width="0.5" points="1505,-305.5 1255,-305.5 1255,-284.5 1505,-284.5 1505,-305.5"/>
<text text-anchor="middle" x="1380" y="-292.5" font-family="Vera" font-size="10.00">topo.command.analysis.update_connectionfields</text>
</g>
<!-- topo.plotting.plotgroup.UnitMeasurementCommand&#45;&gt;topo.command.analysis.update_connectionfields -->
<g id="edge58" class="edge"><title>topo.plotting.plotgroup.UnitMeasurementCommand&#45;&gt;topo.command.analysis.update_connectionfields</title>
<path fill="none" stroke="black" stroke-width="0.5" d="M1145.12,-295C1178.91,-295 1215.19,-295 1248.88,-295"/>
<polygon fill="black" stroke="black" points="1249.27,-296.75 1254.27,-295 1249.27,-293.25 1249.27,-296.75"/>
</g>
<!-- topo.plotting.plotgroup.ProjectionSheetMeasurementCommand&#45;&gt;topo.plotting.plotgroup.UnitMeasurementCommand -->
<g id="edge34" class="edge"><title>topo.plotting.plotgroup.ProjectionSheetMeasurementCommand&#45;&gt;topo.plotting.plotgroup.UnitMeasurementCommand</title>
<path fill="none" stroke="black" stroke-width="0.5" d="M756.949,-248.048C778.402,-250.649 801.013,-253.668 822,-257 869.694,-264.571 923.644,-275.6 961.836,-283.828"/>
<polygon fill="black" stroke="black" points="961.626,-285.573 966.883,-284.919 962.366,-282.152 961.626,-285.573"/>
</g>
<!-- topo.command.analysis.update_projectionactivity -->
<g id="node36" class="node"><title>topo.command.analysis.update_projectionactivity</title>
<polygon fill="none" stroke="black" stroke-width="0.5" points="1139,-248.5 885,-248.5 885,-227.5 1139,-227.5 1139,-248.5"/>
<text text-anchor="middle" x="1012" y="-235.5" font-family="Vera" font-size="10.00">topo.command.analysis.update_projectionactivity</text>
</g>
<!-- topo.plotting.plotgroup.ProjectionSheetMeasurementCommand&#45;&gt;topo.command.analysis.update_projectionactivity -->
<g id="edge32" class="edge"><title>topo.plotting.plotgroup.ProjectionSheetMeasurementCommand&#45;&gt;topo.command.analysis.update_projectionactivity</title>
<path fill="none" stroke="black" stroke-width="0.5" d="M822.118,-238C841.391,-238 860.898,-238 879.699,-238"/>
<polygon fill="black" stroke="black" points="879.982,-239.75 884.982,-238 879.982,-236.25 879.982,-239.75"/>
</g>
<!-- topo.analysis.featureresponses.PatternPresentingCommand&#45;&gt;topo.analysis.featureresponses.MeasureResponseCommand -->
<g id="edge54" class="edge"><title>topo.analysis.featureresponses.PatternPresentingCommand&#45;&gt;topo.analysis.featureresponses.MeasureResponseCommand</title>
<path fill="none" stroke="black" stroke-width="0.5" d="M813.677,-191.735C826.734,-191.029 839.963,-190.313 853.067,-189.603"/>
<polygon fill="black" stroke="black" points="853.38,-191.339 858.278,-189.321 853.19,-187.844 853.38,-191.339"/>
</g>
</g>
</svg>
